<?xml version="1.0" encoding="us-ascii" standalone="no"?><svg xmlns="http://www.w3.org/2000/svg" xmlns:xlink="http://www.w3.org/1999/xlink" contentStyleType="text/css" height="1225px" preserveAspectRatio="none" style="width:1210px;height:1225px;background:#FFFFFF;" version="1.1" viewBox="0 0 1210 1225" width="1210px" zoomAndPan="magnify"><defs/><g><text fill="#000000" font-family="sans-serif" font-size="14" font-weight="bold" lengthAdjust="spacing" textLength="222" x="495.5" y="30.1074">Sequence Diagram (SD) - UC002</text><rect fill="#FFFFFF" height="946.7305" style="stroke:#181818;stroke-width:1.0;" width="10" x="178.5" y="161.1543"/><rect fill="#FFFFFF" height="508.6563" style="stroke:#181818;stroke-width:1.0;" width="10" x="314.5" y="192.4453"/><rect fill="#FFFFFF" height="281.6191" style="stroke:#181818;stroke-width:1.0;" width="10" x="314.5" y="794.9746"/><rect fill="#FFFFFF" height="99.873" style="stroke:#181818;stroke-width:1.0;" width="10" x="464" y="223.7363"/><rect fill="#FFFFFF" height="62.582" style="stroke:#181818;stroke-width:1.0;" width="10" x="607" y="354.9004"/><rect fill="#FFFFFF" height="31.291" style="stroke:#181818;stroke-width:1.0;" width="10" x="756.5" y="480.0645"/><rect fill="#FFFFFF" height="31.291" style="stroke:#181818;stroke-width:1.0;" width="10" x="756.5" y="826.2656"/><rect fill="#FFFFFF" height="31.291" style="stroke:#181818;stroke-width:1.0;" width="10" x="756.5" y="982.7207"/><rect fill="#FFFFFF" height="221.0371" style="stroke:#181818;stroke-width:1.0;" width="10" x="927" y="448.7734"/><rect fill="#FFFFFF" height="156.4551" style="stroke:#181818;stroke-width:1.0;" width="10" x="927" y="888.8477"/><rect fill="#FFFFFF" height="31.291" style="stroke:#181818;stroke-width:1.0;" width="10" x="1106" y="600.2285"/><rect fill="#FFFFFF" height="31.291" style="stroke:#181818;stroke-width:1.0;" width="10" x="1106" y="920.1387"/><rect fill="none" height="113.1641" style="stroke:#000000;stroke-width:1.5;" width="368" x="836" y="526.3555"/><line style="stroke:#181818;stroke-width:0.5;stroke-dasharray:5.0,5.0;" x1="27" x2="27" y1="127.8633" y2="1125.8848"/><line style="stroke:#181818;stroke-width:0.5;stroke-dasharray:5.0,5.0;" x1="183" x2="183" y1="127.8633" y2="1125.8848"/><line style="stroke:#181818;stroke-width:0.5;stroke-dasharray:5.0,5.0;" x1="319" x2="319" y1="127.8633" y2="1125.8848"/><line style="stroke:#181818;stroke-width:0.5;stroke-dasharray:5.0,5.0;" x1="469" x2="469" y1="127.8633" y2="1125.8848"/><line style="stroke:#181818;stroke-width:0.5;stroke-dasharray:5.0,5.0;" x1="612" x2="612" y1="127.8633" y2="1125.8848"/><line style="stroke:#181818;stroke-width:0.5;stroke-dasharray:5.0,5.0;" x1="761" x2="761" y1="127.8633" y2="1125.8848"/><line style="stroke:#181818;stroke-width:0.5;stroke-dasharray:5.0,5.0;" x1="932" x2="932" y1="127.8633" y2="1125.8848"/><line style="stroke:#181818;stroke-width:0.5;stroke-dasharray:5.0,5.0;" x1="1111" x2="1111" y1="127.8633" y2="1125.8848"/><text fill="#000000" font-family="sans-serif" font-size="14" lengthAdjust="spacing" textLength="39" x="5" y="124.3496">Admin</text><ellipse cx="27.5" cy="57.7422" fill="#E2E2F0" rx="8" ry="8" style="stroke:#181818;stroke-width:0.5;"/><path d="M27.5,65.7422 L27.5,92.7422 M14.5,73.7422 L40.5,73.7422 M27.5,92.7422 L14.5,107.7422 M27.5,92.7422 L40.5,107.7422 " fill="none" style="stroke:#181818;stroke-width:0.5;"/><text fill="#000000" font-family="sans-serif" font-size="14" lengthAdjust="spacing" textLength="39" x="5" y="1139.9922">Admin</text><ellipse cx="27.5" cy="1152.0059" fill="#E2E2F0" rx="8" ry="8" style="stroke:#181818;stroke-width:0.5;"/><path d="M27.5,1160.0059 L27.5,1187.0059 M14.5,1168.0059 L40.5,1168.0059 M27.5,1187.0059 L14.5,1202.0059 M27.5,1187.0059 L40.5,1202.0059 " fill="none" style="stroke:#181818;stroke-width:0.5;"/><rect fill="#E2E2F0" height="51.2422" rx="2.5" ry="2.5" style="stroke:#181818;stroke-width:0.5;" width="109" x="129" y="75.6211"/><text fill="#000000" font-family="sans-serif" font-size="14" font-style="italic" lengthAdjust="spacing" textLength="95" x="136" y="97.7285">&#171;presentation&#187;</text><text fill="#000000" font-family="sans-serif" font-size="14" lengthAdjust="spacing" textLength="79" x="144" y="116.3496">ActiveUserUI</text><rect fill="#E2E2F0" height="51.2422" rx="2.5" ry="2.5" style="stroke:#181818;stroke-width:0.5;" width="109" x="129" y="1124.8848"/><text fill="#000000" font-family="sans-serif" font-size="14" font-style="italic" lengthAdjust="spacing" textLength="95" x="136" y="1146.9922">&#171;presentation&#187;</text><text fill="#000000" font-family="sans-serif" font-size="14" lengthAdjust="spacing" textLength="79" x="144" y="1165.6133">ActiveUserUI</text><rect fill="#E2E2F0" height="51.2422" rx="2.5" ry="2.5" style="stroke:#181818;stroke-width:0.5;" width="143" x="248" y="75.6211"/><text fill="#000000" font-family="sans-serif" font-size="14" font-style="italic" lengthAdjust="spacing" textLength="84" x="277.5" y="97.7285">&#171;application&#187;</text><text fill="#000000" font-family="sans-serif" font-size="14" lengthAdjust="spacing" textLength="129" x="255" y="116.3496">ActiveUserController</text><rect fill="#E2E2F0" height="51.2422" rx="2.5" ry="2.5" style="stroke:#181818;stroke-width:0.5;" width="143" x="248" y="1124.8848"/><text fill="#000000" font-family="sans-serif" font-size="14" font-style="italic" lengthAdjust="spacing" textLength="84" x="277.5" y="1146.9922">&#171;application&#187;</text><text fill="#000000" font-family="sans-serif" font-size="14" lengthAdjust="spacing" textLength="129" x="255" y="1165.6133">ActiveUserController</text><rect fill="#E2E2F0" height="51.2422" rx="2.5" ry="2.5" style="stroke:#181818;stroke-width:0.5;" width="136" x="401" y="75.6211"/><text fill="#000000" font-family="sans-serif" font-size="14" font-style="italic" lengthAdjust="spacing" textLength="89" x="424.5" y="97.7285">&#171;persistence&#187;</text><text fill="#000000" font-family="sans-serif" font-size="14" lengthAdjust="spacing" textLength="122" x="408" y="116.3496">PersistenceContext</text><rect fill="#E2E2F0" height="51.2422" rx="2.5" ry="2.5" style="stroke:#181818;stroke-width:0.5;" width="136" x="401" y="1124.8848"/><text fill="#000000" font-family="sans-serif" font-size="14" font-style="italic" lengthAdjust="spacing" textLength="89" x="424.5" y="1146.9922">&#171;persistence&#187;</text><text fill="#000000" font-family="sans-serif" font-size="14" lengthAdjust="spacing" textLength="122" x="408" y="1165.6133">PersistenceContext</text><rect fill="#E2E2F0" height="51.2422" rx="2.5" ry="2.5" style="stroke:#181818;stroke-width:0.5;" width="130" x="547" y="75.6211"/><text fill="#000000" font-family="sans-serif" font-size="14" font-style="italic" lengthAdjust="spacing" textLength="59" x="582.5" y="97.7285">&#171;factory&#187;</text><text fill="#000000" font-family="sans-serif" font-size="14" lengthAdjust="spacing" textLength="116" x="554" y="116.3496">RepositoryFactory</text><rect fill="#E2E2F0" height="51.2422" rx="2.5" ry="2.5" style="stroke:#181818;stroke-width:0.5;" width="130" x="547" y="1124.8848"/><text fill="#000000" font-family="sans-serif" font-size="14" font-style="italic" lengthAdjust="spacing" textLength="59" x="582.5" y="1146.9922">&#171;factory&#187;</text><text fill="#000000" font-family="sans-serif" font-size="14" lengthAdjust="spacing" textLength="116" x="554" y="1165.6133">RepositoryFactory</text><text fill="#000000" font-family="sans-serif" font-size="14" font-style="italic" lengthAdjust="spacing" textLength="79" x="719" y="105.7285">&#171;repository&#187;</text><text fill="#000000" font-family="sans-serif" font-size="14" lengthAdjust="spacing" textLength="143" x="687" y="124.3496">SystemUserRepository</text><path d="M743.5,54.6211 C743.5,44.6211 761.5,44.6211 761.5,44.6211 C761.5,44.6211 779.5,44.6211 779.5,54.6211 L779.5,80.6211 C779.5,90.6211 761.5,90.6211 761.5,90.6211 C761.5,90.6211 743.5,90.6211 743.5,80.6211 L743.5,54.6211 " fill="#E2E2F0" style="stroke:#181818;stroke-width:1.5;"/><path d="M743.5,54.6211 C743.5,64.6211 761.5,64.6211 761.5,64.6211 C761.5,64.6211 779.5,64.6211 779.5,54.6211 " fill="none" style="stroke:#181818;stroke-width:1.5;"/><text fill="#000000" font-family="sans-serif" font-size="14" font-style="italic" lengthAdjust="spacing" textLength="79" x="719" y="1139.9922">&#171;repository&#187;</text><text fill="#000000" font-family="sans-serif" font-size="14" lengthAdjust="spacing" textLength="143" x="687" y="1158.6133">SystemUserRepository</text><path d="M743.5,1172.127 C743.5,1162.127 761.5,1162.127 761.5,1162.127 C761.5,1162.127 779.5,1162.127 779.5,1172.127 L779.5,1198.127 C779.5,1208.127 761.5,1208.127 761.5,1208.127 C761.5,1208.127 743.5,1208.127 743.5,1198.127 L743.5,1172.127 " fill="#E2E2F0" style="stroke:#181818;stroke-width:1.5;"/><path d="M743.5,1172.127 C743.5,1182.127 761.5,1182.127 761.5,1182.127 C761.5,1182.127 779.5,1182.127 779.5,1172.127 " fill="none" style="stroke:#181818;stroke-width:1.5;"/><rect fill="#E2E2F0" height="51.2422" rx="2.5" ry="2.5" style="stroke:#181818;stroke-width:0.5;" width="172" x="846" y="75.6211"/><text fill="#000000" font-family="sans-serif" font-size="14" font-style="italic" lengthAdjust="spacing" textLength="60" x="902" y="97.7285">&#171;service&#187;</text><text fill="#000000" font-family="sans-serif" font-size="14" lengthAdjust="spacing" textLength="158" x="853" y="116.3496">UserManagementService</text><rect fill="#E2E2F0" height="51.2422" rx="2.5" ry="2.5" style="stroke:#181818;stroke-width:0.5;" width="172" x="846" y="1124.8848"/><text fill="#000000" font-family="sans-serif" font-size="14" font-style="italic" lengthAdjust="spacing" textLength="60" x="902" y="1146.9922">&#171;service&#187;</text><text fill="#000000" font-family="sans-serif" font-size="14" lengthAdjust="spacing" textLength="158" x="853" y="1165.6133">UserManagementService</text><rect fill="#E2E2F0" height="51.2422" rx="2.5" ry="2.5" style="stroke:#181818;stroke-width:0.5;" width="166" x="1028" y="75.6211"/><text fill="#000000" font-family="sans-serif" font-size="14" font-style="italic" lengthAdjust="spacing" textLength="62" x="1080" y="97.7285">&#171;domain&#187;</text><text fill="#000000" font-family="sans-serif" font-size="14" lengthAdjust="spacing" textLength="152" x="1035" y="116.3496">systemUser:SystemUser</text><rect fill="#E2E2F0" height="51.2422" rx="2.5" ry="2.5" style="stroke:#181818;stroke-width:0.5;" width="166" x="1028" y="1124.8848"/><text fill="#000000" font-family="sans-serif" font-size="14" font-style="italic" lengthAdjust="spacing" textLength="62" x="1080" y="1146.9922">&#171;domain&#187;</text><text fill="#000000" font-family="sans-serif" font-size="14" lengthAdjust="spacing" textLength="152" x="1035" y="1165.6133">systemUser:SystemUser</text><rect fill="#FFFFFF" height="946.7305" style="stroke:#181818;stroke-width:1.0;" width="10" x="178.5" y="161.1543"/><rect fill="#FFFFFF" height="508.6563" style="stroke:#181818;stroke-width:1.0;" width="10" x="314.5" y="192.4453"/><rect fill="#FFFFFF" height="281.6191" style="stroke:#181818;stroke-width:1.0;" width="10" x="314.5" y="794.9746"/><rect fill="#FFFFFF" height="99.873" style="stroke:#181818;stroke-width:1.0;" width="10" x="464" y="223.7363"/><rect fill="#FFFFFF" height="62.582" style="stroke:#181818;stroke-width:1.0;" width="10" x="607" y="354.9004"/><rect fill="#FFFFFF" height="31.291" style="stroke:#181818;stroke-width:1.0;" width="10" x="756.5" y="480.0645"/><rect fill="#FFFFFF" height="31.291" style="stroke:#181818;stroke-width:1.0;" width="10" x="756.5" y="826.2656"/><rect fill="#FFFFFF" height="31.291" style="stroke:#181818;stroke-width:1.0;" width="10" x="756.5" y="982.7207"/><rect fill="#FFFFFF" height="221.0371" style="stroke:#181818;stroke-width:1.0;" width="10" x="927" y="448.7734"/><rect fill="#FFFFFF" height="156.4551" style="stroke:#181818;stroke-width:1.0;" width="10" x="927" y="888.8477"/><rect fill="#FFFFFF" height="31.291" style="stroke:#181818;stroke-width:1.0;" width="10" x="1106" y="600.2285"/><rect fill="#FFFFFF" height="31.291" style="stroke:#181818;stroke-width:1.0;" width="10" x="1106" y="920.1387"/><polygon fill="#181818" points="166.5,157.1543,176.5,161.1543,166.5,165.1543,170.5,161.1543" style="stroke:#181818;stroke-width:1.0;"/><line style="stroke:#181818;stroke-width:1.0;stroke-dasharray:2.0,2.0;" x1="27.5" x2="172.5" y1="161.1543" y2="161.1543"/><text fill="#000000" font-family="sans-serif" font-size="13" lengthAdjust="spacing" textLength="77" x="34.5" y="155.8916">Activate User</text><polygon fill="#181818" points="302.5,188.4453,312.5,192.4453,302.5,196.4453,306.5,192.4453" style="stroke:#181818;stroke-width:1.0;"/><line style="stroke:#181818;stroke-width:1.0;" x1="188.5" x2="308.5" y1="192.4453" y2="192.4453"/><text fill="#000000" font-family="sans-serif" font-size="13" lengthAdjust="spacing" textLength="85" x="195.5" y="187.1826">inactiveUsers()</text><polygon fill="#181818" points="452,219.7363,462,223.7363,452,227.7363,456,223.7363" style="stroke:#181818;stroke-width:1.0;"/><line style="stroke:#181818;stroke-width:1.0;" x1="324.5" x2="458" y1="223.7363" y2="223.7363"/><text fill="#000000" font-family="sans-serif" font-size="13" lengthAdjust="spacing" textLength="75" x="331.5" y="218.4736">repositories()</text><path d="M479,236.7363 L479,263.7363 L585,263.7363 L585,246.7363 L575,236.7363 L479,236.7363 " fill="#FEFFDD" style="stroke:#181818;stroke-width:0.5;"/><path d="M575,236.7363 L575,246.7363 L585,246.7363 L575,236.7363 " fill="#FEFFDD" style="stroke:#181818;stroke-width:0.5;"/><text fill="#000000" font-family="sans-serif" font-size="13" lengthAdjust="spacing" textLength="85" x="485" y="255.7646">creates in JPA</text><polygon fill="#181818" points="600,288.3184,610,292.3184,600,296.3184,604,292.3184" style="stroke:#181818;stroke-width:1.0;"/><line style="stroke:#181818;stroke-width:1.0;" x1="474" x2="606" y1="292.3184" y2="292.3184"/><text fill="#000000" font-family="sans-serif" font-size="13" lengthAdjust="spacing" textLength="36" x="481" y="287.0557">create</text><polygon fill="#181818" points="335.5,319.6094,325.5,323.6094,335.5,327.6094,331.5,323.6094" style="stroke:#181818;stroke-width:1.0;"/><line style="stroke:#181818;stroke-width:1.0;stroke-dasharray:2.0,2.0;" x1="329.5" x2="468" y1="323.6094" y2="323.6094"/><text fill="#000000" font-family="sans-serif" font-size="13" lengthAdjust="spacing" textLength="39" x="341.5" y="318.3467">factory</text><polygon fill="#181818" points="595,350.9004,605,354.9004,595,358.9004,599,354.9004" style="stroke:#181818;stroke-width:1.0;"/><line style="stroke:#181818;stroke-width:1.0;" x1="324.5" x2="601" y1="354.9004" y2="354.9004"/><text fill="#000000" font-family="sans-serif" font-size="13" lengthAdjust="spacing" textLength="40" x="331.5" y="349.6377">users()</text><polygon fill="#181818" points="749.5,382.1914,759.5,386.1914,749.5,390.1914,753.5,386.1914" style="stroke:#181818;stroke-width:1.0;"/><line style="stroke:#181818;stroke-width:1.0;" x1="617" x2="755.5" y1="386.1914" y2="386.1914"/><text fill="#000000" font-family="sans-serif" font-size="13" lengthAdjust="spacing" textLength="36" x="624" y="380.9287">create</text><polygon fill="#181818" points="335.5,413.4824,325.5,417.4824,335.5,421.4824,331.5,417.4824" style="stroke:#181818;stroke-width:1.0;"/><line style="stroke:#181818;stroke-width:1.0;stroke-dasharray:2.0,2.0;" x1="329.5" x2="611" y1="417.4824" y2="417.4824"/><text fill="#000000" font-family="sans-serif" font-size="13" lengthAdjust="spacing" textLength="87" x="341.5" y="412.2197">userRepository</text><polygon fill="#181818" points="915,444.7734,925,448.7734,915,452.7734,919,448.7734" style="stroke:#181818;stroke-width:1.0;"/><line style="stroke:#181818;stroke-width:1.0;" x1="324.5" x2="921" y1="448.7734" y2="448.7734"/><text fill="#000000" font-family="sans-serif" font-size="13" lengthAdjust="spacing" textLength="85" x="331.5" y="443.5107">inactiveUsers()</text><polygon fill="#181818" points="777.5,476.0645,767.5,480.0645,777.5,484.0645,773.5,480.0645" style="stroke:#181818;stroke-width:1.0;"/><line style="stroke:#181818;stroke-width:1.0;" x1="771.5" x2="926" y1="480.0645" y2="480.0645"/><text fill="#000000" font-family="sans-serif" font-size="13" lengthAdjust="spacing" textLength="85" x="783.5" y="474.8018">inactiveUsers()</text><polygon fill="#181818" points="915,507.3555,925,511.3555,915,515.3555,919,511.3555" style="stroke:#181818;stroke-width:1.0;"/><line style="stroke:#181818;stroke-width:1.0;stroke-dasharray:2.0,2.0;" x1="761.5" x2="921" y1="511.3555" y2="511.3555"/><text fill="#000000" font-family="sans-serif" font-size="13" lengthAdjust="spacing" textLength="32" x="768.5" y="506.0928">users</text><path d="M836,526.3555 L909,526.3555 L909,535.6465 L899,545.6465 L836,545.6465 L836,526.3555 " fill="#EEEEEE" style="stroke:#000000;stroke-width:1.5;"/><rect fill="none" height="113.1641" style="stroke:#000000;stroke-width:1.5;" width="368" x="836" y="526.3555"/><text fill="#000000" font-family="sans-serif" font-size="13" font-weight="bold" lengthAdjust="spacing" textLength="28" x="851" y="541.3838">loop</text><text fill="#000000" font-family="sans-serif" font-size="11" font-weight="bold" lengthAdjust="spacing" textLength="75" x="924" y="540.2256">[for all users]</text><polygon fill="#181818" points="1099,564.9375,1109,568.9375,1099,572.9375,1103,568.9375" style="stroke:#181818;stroke-width:1.0;"/><line style="stroke:#181818;stroke-width:1.0;" x1="937" x2="1105" y1="568.9375" y2="568.9375"/><text fill="#000000" font-family="sans-serif" font-size="13" lengthAdjust="spacing" textLength="40" x="944" y="563.6748">name()</text><polygon fill="#181818" points="1094,596.2285,1104,600.2285,1094,604.2285,1098,600.2285" style="stroke:#181818;stroke-width:1.0;"/><line style="stroke:#181818;stroke-width:1.0;" x1="937" x2="1100" y1="600.2285" y2="600.2285"/><text fill="#000000" font-family="sans-serif" font-size="13" lengthAdjust="spacing" textLength="39" x="944" y="594.9658">email()</text><polygon fill="#181818" points="948,627.5195,938,631.5195,948,635.5195,944,631.5195" style="stroke:#181818;stroke-width:1.0;"/><line style="stroke:#181818;stroke-width:1.0;stroke-dasharray:2.0,2.0;" x1="942" x2="1110" y1="631.5195" y2="631.5195"/><text fill="#000000" font-family="sans-serif" font-size="13" lengthAdjust="spacing" textLength="76" x="954" y="626.2568">user's details</text><polygon fill="#181818" points="335.5,665.8105,325.5,669.8105,335.5,673.8105,331.5,669.8105" style="stroke:#181818;stroke-width:1.0;"/><line style="stroke:#181818;stroke-width:1.0;stroke-dasharray:2.0,2.0;" x1="329.5" x2="931" y1="669.8105" y2="669.8105"/><text fill="#000000" font-family="sans-serif" font-size="13" lengthAdjust="spacing" textLength="163" x="341.5" y="664.5479">users with respective details</text><polygon fill="#181818" points="199.5,697.1016,189.5,701.1016,199.5,705.1016,195.5,701.1016" style="stroke:#181818;stroke-width:1.0;"/><line style="stroke:#181818;stroke-width:1.0;stroke-dasharray:2.0,2.0;" x1="193.5" x2="318.5" y1="701.1016" y2="701.1016"/><text fill="#000000" font-family="sans-serif" font-size="13" lengthAdjust="spacing" textLength="32" x="205.5" y="695.8389">users</text><polygon fill="#181818" points="38.5,728.3926,28.5,732.3926,38.5,736.3926,34.5,732.3926" style="stroke:#181818;stroke-width:1.0;"/><line style="stroke:#181818;stroke-width:1.0;stroke-dasharray:2.0,2.0;" x1="32.5" x2="177.5" y1="732.3926" y2="732.3926"/><text fill="#000000" font-family="sans-serif" font-size="13" lengthAdjust="spacing" textLength="77" x="44.5" y="727.1299">display users</text><polygon fill="#181818" points="166.5,759.6836,176.5,763.6836,166.5,767.6836,170.5,763.6836" style="stroke:#181818;stroke-width:1.0;"/><line style="stroke:#181818;stroke-width:1.0;" x1="27.5" x2="172.5" y1="763.6836" y2="763.6836"/><text fill="#000000" font-family="sans-serif" font-size="13" lengthAdjust="spacing" textLength="127" x="34.5" y="758.4209">select user to activate</text><polygon fill="#181818" points="302.5,790.9746,312.5,794.9746,302.5,798.9746,306.5,794.9746" style="stroke:#181818;stroke-width:1.0;"/><line style="stroke:#181818;stroke-width:1.0;" x1="188.5" x2="308.5" y1="794.9746" y2="794.9746"/><text fill="#000000" font-family="sans-serif" font-size="13" lengthAdjust="spacing" textLength="104" x="195.5" y="789.7119">activateUser(user)</text><polygon fill="#181818" points="744.5,822.2656,754.5,826.2656,744.5,830.2656,748.5,826.2656" style="stroke:#181818;stroke-width:1.0;"/><line style="stroke:#181818;stroke-width:1.0;" x1="324.5" x2="750.5" y1="826.2656" y2="826.2656"/><text fill="#000000" font-family="sans-serif" font-size="13" lengthAdjust="spacing" textLength="28" x="331.5" y="821.0029">find()</text><polygon fill="#181818" points="335.5,853.5566,325.5,857.5566,335.5,861.5566,331.5,857.5566" style="stroke:#181818;stroke-width:1.0;"/><line style="stroke:#181818;stroke-width:1.0;stroke-dasharray:2.0,2.0;" x1="329.5" x2="760.5" y1="857.5566" y2="857.5566"/><text fill="#000000" font-family="sans-serif" font-size="13" lengthAdjust="spacing" textLength="25" x="341.5" y="852.2939">user</text><polygon fill="#181818" points="915,884.8477,925,888.8477,915,892.8477,919,888.8477" style="stroke:#181818;stroke-width:1.0;"/><line style="stroke:#181818;stroke-width:1.0;" x1="324.5" x2="921" y1="888.8477" y2="888.8477"/><text fill="#000000" font-family="sans-serif" font-size="13" lengthAdjust="spacing" textLength="104" x="331.5" y="883.585">activateUser(user)</text><polygon fill="#181818" points="1094,916.1387,1104,920.1387,1094,924.1387,1098,920.1387" style="stroke:#181818;stroke-width:1.0;"/><line style="stroke:#181818;stroke-width:1.0;" x1="937" x2="1100" y1="920.1387" y2="920.1387"/><text fill="#000000" font-family="sans-serif" font-size="13" lengthAdjust="spacing" textLength="52" x="944" y="914.876">activate()</text><polygon fill="#181818" points="948,947.4297,938,951.4297,948,955.4297,944,951.4297" style="stroke:#181818;stroke-width:1.0;"/><line style="stroke:#181818;stroke-width:1.0;stroke-dasharray:2.0,2.0;" x1="942" x2="1110" y1="951.4297" y2="951.4297"/><text fill="#000000" font-family="sans-serif" font-size="13" lengthAdjust="spacing" textLength="25" x="954" y="946.167">user</text><polygon fill="#181818" points="777.5,978.7207,767.5,982.7207,777.5,986.7207,773.5,982.7207" style="stroke:#181818;stroke-width:1.0;"/><line style="stroke:#181818;stroke-width:1.0;" x1="771.5" x2="926" y1="982.7207" y2="982.7207"/><text fill="#000000" font-family="sans-serif" font-size="13" lengthAdjust="spacing" textLength="34" x="783.5" y="977.458">save()</text><polygon fill="#181818" points="915,1010.0117,925,1014.0117,915,1018.0117,919,1014.0117" style="stroke:#181818;stroke-width:1.0;"/><line style="stroke:#181818;stroke-width:1.0;stroke-dasharray:2.0,2.0;" x1="761.5" x2="921" y1="1014.0117" y2="1014.0117"/><text fill="#000000" font-family="sans-serif" font-size="13" lengthAdjust="spacing" textLength="25" x="768.5" y="1008.749">user</text><polygon fill="#181818" points="335.5,1041.3027,325.5,1045.3027,335.5,1049.3027,331.5,1045.3027" style="stroke:#181818;stroke-width:1.0;"/><line style="stroke:#181818;stroke-width:1.0;stroke-dasharray:2.0,2.0;" x1="329.5" x2="931" y1="1045.3027" y2="1045.3027"/><text fill="#000000" font-family="sans-serif" font-size="13" lengthAdjust="spacing" textLength="25" x="341.5" y="1040.04">user</text><polygon fill="#181818" points="199.5,1072.5938,189.5,1076.5938,199.5,1080.5938,195.5,1076.5938" style="stroke:#181818;stroke-width:1.0;"/><line style="stroke:#181818;stroke-width:1.0;stroke-dasharray:2.0,2.0;" x1="193.5" x2="318.5" y1="1076.5938" y2="1076.5938"/><text fill="#000000" font-family="sans-serif" font-size="13" lengthAdjust="spacing" textLength="25" x="205.5" y="1071.3311">user</text><polygon fill="#181818" points="38.5,1103.8848,28.5,1107.8848,38.5,1111.8848,34.5,1107.8848" style="stroke:#181818;stroke-width:1.0;"/><line style="stroke:#181818;stroke-width:1.0;stroke-dasharray:2.0,2.0;" x1="32.5" x2="182.5" y1="1107.8848" y2="1107.8848"/><text fill="#000000" font-family="sans-serif" font-size="13" lengthAdjust="spacing" textLength="74" x="44.5" y="1102.6221">user enabled</text><!--SRC=[hLNRRXen47ttLrXvANb0Gdr4AoIKA1ALAaL5VC2mEu0Lhxsr3UdswpisU_4kwoWezGFO-9pnNCuCzase2WoKl8By3OwuTRL4RZ1te8uIcUq0zWI5VXVgo0yWRNmZXK9NLyWhBMj_OD5bBi7QjND6xCyEDxbMM_4N-O8n9nmzjSNVPrGvycS1Hq-ORPyV-PpldXQBxun1xhJXww8KYeFbQtzaPDc9N5IWdFz5N71dqUms7a6VMLOPjAWSEA7LQfN0FsdbZ9OIZUT5foo3gf8YdwA_eh72Ek-nP-0VvydHh_xr_ZHY_y9AMq4Xr2yXiDgJsssM7Qux8XNWO0-MqbEJeTAxstCzAJfbcUaEe_SyxoSegcj9wTYYkGZoaEZjDiliTJSYFjZktMNlmeEdFkiIg1XPLeGD4Lce2f_FLvJzvJN3u32yxWlOd3QCqwBw4AxFzf8B1LrDxEmne3fM3sJXmg-eL6GgolsITvaGs9eQc8l0tQLVIjEb4SUJu_emD9aR9AObD_cFr_M05PUTF6aAsLBIq542ch9t-08d_Kt4txrwZl8t2FfbPD-lLdHae9VIfESTSkJrUQ39AUVRTnEEDngS5i0WW0R91dwr4Xv5a38sC1ZvFG3u5NNMFFOof7U0Za9D6PHQL_n0pG5IJbWOnN5jhILNKEB8zGGIwKjEG3l7hi3RAFrgElacoc-MGdDa-DRPAEJ6SdoBgWWH9mer8I3BtuKxKTlQ2aFPRbwENhoHGQodPlZqEOw8uo7YPn3XmzXQyaBOIaBTK0EW6MXNanOb-HQkkTDTQbbYdBNtNe0pJxfxeiLoFWXLJBL4Id0ZzOxppJwftKId9cAxgrbRwRQ4L8-cb9jIBVjOfv-P7HOk-Bz7nhqJuwDk-KfJtDSJGUoeO2-nO16B_iJ_0G00]--></g></svg>