<?xml version="1.0" encoding="us-ascii" standalone="no"?><svg xmlns="http://www.w3.org/2000/svg" xmlns:xlink="http://www.w3.org/1999/xlink" contentStyleType="text/css" height="794px" preserveAspectRatio="none" style="width:851px;height:794px;background:#FFFFFF;" version="1.1" viewBox="0 0 851 794" width="851px" zoomAndPan="magnify"><defs/><g><text fill="#000000" font-family="sans-serif" font-size="14" font-weight="bold" lengthAdjust="spacing" textLength="190" x="323.75" y="25.1074">Class Diagram (CD) - UC014</text><!--class ListUsersUI--><g id="elem_ListUsersUI"><rect codeLine="8" fill="#F1F1F1" height="60.582" id="ListUsersUI" rx="2.5" ry="2.5" style="stroke:#181818;stroke-width:0.5;" width="102" x="538.5" y="46.6211"/><ellipse cx="553.5" cy="68.9121" fill="#ADD1B2" rx="11" ry="11" style="stroke:#181818;stroke-width:1.0;"/><path d="M556.2656,64.7871 Q556.4219,64.5684 556.6094,64.459 Q556.7969,64.3496 557.0156,64.3496 Q557.3906,64.3496 557.625,64.6152 Q557.8594,64.8652 557.8594,65.4746 L557.8594,66.9277 Q557.8594,67.5371 557.625,67.8027 Q557.3906,68.0684 557.0156,68.0684 Q556.6719,68.0684 556.4688,67.8652 Q556.2656,67.6777 556.1563,67.1621 Q556.1094,66.8027 555.9219,66.6152 Q555.5938,66.2402 554.9844,66.0215 Q554.375,65.8027 553.75,65.8027 Q552.9844,65.8027 552.3438,66.1309 Q551.7188,66.459 551.2188,67.209 Q550.7344,67.959 550.7344,68.9902 L550.7344,70.084 Q550.7344,71.3184 551.625,72.1465 Q552.5156,72.959 554.1094,72.959 Q555.0469,72.959 555.7031,72.709 Q556.0938,72.5527 556.5156,72.1152 Q556.7813,71.8496 556.9219,71.7715 Q557.0781,71.6934 557.2813,71.6934 Q557.6094,71.6934 557.8594,71.959 Q558.125,72.209 558.125,72.5527 Q558.125,72.8965 557.7813,73.3027 Q557.2813,73.8809 556.4844,74.209 Q555.4063,74.6621 554.1094,74.6621 Q552.5938,74.6621 551.3906,74.0371 Q550.4063,73.5371 549.7188,72.4746 Q549.0313,71.3965 549.0313,70.1152 L549.0313,68.959 Q549.0313,67.6309 549.6406,66.4902 Q550.2656,65.334 551.3594,64.7246 Q552.4531,64.0996 553.6875,64.0996 Q554.4219,64.0996 555.0625,64.2715 Q555.7188,64.4277 556.2656,64.7871 Z " fill="#000000"/><text fill="#000000" font-family="sans-serif" font-size="12" font-style="italic" lengthAdjust="spacing" textLength="61" x="572" y="64.5703">&#171;interface&#187;</text><text fill="#000000" font-family="sans-serif" font-size="14" lengthAdjust="spacing" textLength="70" x="567.5" y="82.6895">ListUsersUI</text><line style="stroke:#181818;stroke-width:0.5;" x1="539.5" x2="639.5" y1="91.2031" y2="91.2031"/><line style="stroke:#181818;stroke-width:0.5;" x1="539.5" x2="639.5" y1="99.2031" y2="99.2031"/></g><!--class ListUsersController--><g id="elem_ListUsersController"><rect codeLine="10" fill="#F1F1F1" height="60.582" id="ListUsersController" rx="2.5" ry="2.5" style="stroke:#181818;stroke-width:0.5;" width="152" x="513.5" y="168.6211"/><ellipse cx="528.5" cy="190.9121" fill="#ADD1B2" rx="11" ry="11" style="stroke:#181818;stroke-width:1.0;"/><path d="M531.2656,186.7871 Q531.4219,186.5684 531.6094,186.459 Q531.7969,186.3496 532.0156,186.3496 Q532.3906,186.3496 532.625,186.6152 Q532.8594,186.8652 532.8594,187.4746 L532.8594,188.9277 Q532.8594,189.5371 532.625,189.8027 Q532.3906,190.0684 532.0156,190.0684 Q531.6719,190.0684 531.4688,189.8652 Q531.2656,189.6777 531.1563,189.1621 Q531.1094,188.8027 530.9219,188.6152 Q530.5938,188.2402 529.9844,188.0215 Q529.375,187.8027 528.75,187.8027 Q527.9844,187.8027 527.3438,188.1309 Q526.7188,188.459 526.2188,189.209 Q525.7344,189.959 525.7344,190.9902 L525.7344,192.084 Q525.7344,193.3184 526.625,194.1465 Q527.5156,194.959 529.1094,194.959 Q530.0469,194.959 530.7031,194.709 Q531.0938,194.5527 531.5156,194.1152 Q531.7813,193.8496 531.9219,193.7715 Q532.0781,193.6934 532.2813,193.6934 Q532.6094,193.6934 532.8594,193.959 Q533.125,194.209 533.125,194.5527 Q533.125,194.8965 532.7813,195.3027 Q532.2813,195.8809 531.4844,196.209 Q530.4063,196.6621 529.1094,196.6621 Q527.5938,196.6621 526.3906,196.0371 Q525.4063,195.5371 524.7188,194.4746 Q524.0313,193.3965 524.0313,192.1152 L524.0313,190.959 Q524.0313,189.6309 524.6406,188.4902 Q525.2656,187.334 526.3594,186.7246 Q527.4531,186.0996 528.6875,186.0996 Q529.4219,186.0996 530.0625,186.2715 Q530.7188,186.4277 531.2656,186.7871 Z " fill="#000000"/><text fill="#000000" font-family="sans-serif" font-size="12" font-style="italic" lengthAdjust="spacing" textLength="65" x="570" y="186.5703">&#171;controller&#187;</text><text fill="#000000" font-family="sans-serif" font-size="14" lengthAdjust="spacing" textLength="120" x="542.5" y="204.6895">ListUsersController</text><line style="stroke:#181818;stroke-width:0.5;" x1="514.5" x2="664.5" y1="213.2031" y2="213.2031"/><line style="stroke:#181818;stroke-width:0.5;" x1="514.5" x2="664.5" y1="221.2031" y2="221.2031"/></g><!--class UserRepository--><g id="elem_UserRepository"><rect codeLine="12" fill="#F1F1F1" height="60.582" id="UserRepository" rx="2.5" ry="2.5" style="stroke:#181818;stroke-width:0.5;" width="129" x="428" y="308.6211"/><ellipse cx="443" cy="330.9121" fill="#ADD1B2" rx="11" ry="11" style="stroke:#181818;stroke-width:1.0;"/><path d="M445.7656,326.7871 Q445.9219,326.5684 446.1094,326.459 Q446.2969,326.3496 446.5156,326.3496 Q446.8906,326.3496 447.125,326.6152 Q447.3594,326.8652 447.3594,327.4746 L447.3594,328.9277 Q447.3594,329.5371 447.125,329.8027 Q446.8906,330.0684 446.5156,330.0684 Q446.1719,330.0684 445.9688,329.8652 Q445.7656,329.6777 445.6563,329.1621 Q445.6094,328.8027 445.4219,328.6152 Q445.0938,328.2402 444.4844,328.0215 Q443.875,327.8027 443.25,327.8027 Q442.4844,327.8027 441.8438,328.1309 Q441.2188,328.459 440.7188,329.209 Q440.2344,329.959 440.2344,330.9902 L440.2344,332.084 Q440.2344,333.3184 441.125,334.1465 Q442.0156,334.959 443.6094,334.959 Q444.5469,334.959 445.2031,334.709 Q445.5938,334.5527 446.0156,334.1152 Q446.2813,333.8496 446.4219,333.7715 Q446.5781,333.6934 446.7813,333.6934 Q447.1094,333.6934 447.3594,333.959 Q447.625,334.209 447.625,334.5527 Q447.625,334.8965 447.2813,335.3027 Q446.7813,335.8809 445.9844,336.209 Q444.9063,336.6621 443.6094,336.6621 Q442.0938,336.6621 440.8906,336.0371 Q439.9063,335.5371 439.2188,334.4746 Q438.5313,333.3965 438.5313,332.1152 L438.5313,330.959 Q438.5313,329.6309 439.1406,328.4902 Q439.7656,327.334 440.8594,326.7246 Q441.9531,326.0996 443.1875,326.0996 Q443.9219,326.0996 444.5625,326.2715 Q445.2188,326.4277 445.7656,326.7871 Z " fill="#000000"/><text fill="#000000" font-family="sans-serif" font-size="12" font-style="italic" lengthAdjust="spacing" textLength="68" x="471.5" y="326.5703">&#171;repository&#187;</text><text fill="#000000" font-family="sans-serif" font-size="14" lengthAdjust="spacing" textLength="97" x="457" y="344.6895">UserRepository</text><line style="stroke:#181818;stroke-width:0.5;" x1="429" x2="556" y1="353.2031" y2="353.2031"/><line style="stroke:#181818;stroke-width:0.5;" x1="429" x2="556" y1="361.2031" y2="361.2031"/></g><!--class UserManagementService--><g id="elem_UserManagementService"><rect codeLine="14" fill="#F1F1F1" height="60.582" id="UserManagementService" rx="2.5" ry="2.5" style="stroke:#181818;stroke-width:0.5;" width="190" x="592.5" y="308.6211"/><ellipse cx="607.5" cy="330.9121" fill="#ADD1B2" rx="11" ry="11" style="stroke:#181818;stroke-width:1.0;"/><path d="M610.2656,326.7871 Q610.4219,326.5684 610.6094,326.459 Q610.7969,326.3496 611.0156,326.3496 Q611.3906,326.3496 611.625,326.6152 Q611.8594,326.8652 611.8594,327.4746 L611.8594,328.9277 Q611.8594,329.5371 611.625,329.8027 Q611.3906,330.0684 611.0156,330.0684 Q610.6719,330.0684 610.4688,329.8652 Q610.2656,329.6777 610.1563,329.1621 Q610.1094,328.8027 609.9219,328.6152 Q609.5938,328.2402 608.9844,328.0215 Q608.375,327.8027 607.75,327.8027 Q606.9844,327.8027 606.3438,328.1309 Q605.7188,328.459 605.2188,329.209 Q604.7344,329.959 604.7344,330.9902 L604.7344,332.084 Q604.7344,333.3184 605.625,334.1465 Q606.5156,334.959 608.1094,334.959 Q609.0469,334.959 609.7031,334.709 Q610.0938,334.5527 610.5156,334.1152 Q610.7813,333.8496 610.9219,333.7715 Q611.0781,333.6934 611.2813,333.6934 Q611.6094,333.6934 611.8594,333.959 Q612.125,334.209 612.125,334.5527 Q612.125,334.8965 611.7813,335.3027 Q611.2813,335.8809 610.4844,336.209 Q609.4063,336.6621 608.1094,336.6621 Q606.5938,336.6621 605.3906,336.0371 Q604.4063,335.5371 603.7188,334.4746 Q603.0313,333.3965 603.0313,332.1152 L603.0313,330.959 Q603.0313,329.6309 603.6406,328.4902 Q604.2656,327.334 605.3594,326.7246 Q606.4531,326.0996 607.6875,326.0996 Q608.4219,326.0996 609.0625,326.2715 Q609.7188,326.4277 610.2656,326.7871 Z " fill="#000000"/><text fill="#000000" font-family="sans-serif" font-size="12" font-style="italic" lengthAdjust="spacing" textLength="53" x="674" y="326.5703">&#171;service&#187;</text><text fill="#000000" font-family="sans-serif" font-size="14" lengthAdjust="spacing" textLength="158" x="621.5" y="344.6895">UserManagementService</text><line style="stroke:#181818;stroke-width:0.5;" x1="593.5" x2="781.5" y1="353.2031" y2="353.2031"/><line style="stroke:#181818;stroke-width:0.5;" x1="593.5" x2="781.5" y1="361.2031" y2="361.2031"/></g><!--class EmailAddress--><g id="elem_EmailAddress"><rect codeLine="16" fill="#F1F1F1" height="76.543" id="EmailAddress" rx="2.5" ry="2.5" style="stroke:#181818;stroke-width:0.5;" width="118" x="485.5" y="570.6211"/><ellipse cx="500.5" cy="600.8926" fill="#ADD1B2" rx="11" ry="11" style="stroke:#181818;stroke-width:1.0;"/><path d="M503.2656,596.7676 Q503.4219,596.5488 503.6094,596.4395 Q503.7969,596.3301 504.0156,596.3301 Q504.3906,596.3301 504.625,596.5957 Q504.8594,596.8457 504.8594,597.4551 L504.8594,598.9082 Q504.8594,599.5176 504.625,599.7832 Q504.3906,600.0488 504.0156,600.0488 Q503.6719,600.0488 503.4688,599.8457 Q503.2656,599.6582 503.1563,599.1426 Q503.1094,598.7832 502.9219,598.5957 Q502.5938,598.2207 501.9844,598.002 Q501.375,597.7832 500.75,597.7832 Q499.9844,597.7832 499.3438,598.1113 Q498.7188,598.4395 498.2188,599.1895 Q497.7344,599.9395 497.7344,600.9707 L497.7344,602.0645 Q497.7344,603.2988 498.625,604.127 Q499.5156,604.9395 501.1094,604.9395 Q502.0469,604.9395 502.7031,604.6895 Q503.0938,604.5332 503.5156,604.0957 Q503.7813,603.8301 503.9219,603.752 Q504.0781,603.6738 504.2813,603.6738 Q504.6094,603.6738 504.8594,603.9395 Q505.125,604.1895 505.125,604.5332 Q505.125,604.877 504.7813,605.2832 Q504.2813,605.8613 503.4844,606.1895 Q502.4063,606.6426 501.1094,606.6426 Q499.5938,606.6426 498.3906,606.0176 Q497.4063,605.5176 496.7188,604.4551 Q496.0313,603.377 496.0313,602.0957 L496.0313,600.9395 Q496.0313,599.6113 496.6406,598.4707 Q497.2656,597.3145 498.3594,596.7051 Q499.4531,596.0801 500.6875,596.0801 Q501.4219,596.0801 502.0625,596.252 Q502.7188,596.4082 503.2656,596.7676 Z " fill="#000000"/><text fill="#000000" font-family="sans-serif" font-size="12" font-style="italic" lengthAdjust="spacing" textLength="44" x="535.5" y="588.5703">&#171;value&#187;</text><text fill="#000000" font-family="sans-serif" font-size="12" font-style="italic" lengthAdjust="spacing" textLength="24" x="545.5" y="604.5313">&#171;id&#187;</text><text fill="#000000" font-family="sans-serif" font-size="14" lengthAdjust="spacing" textLength="86" x="514.5" y="622.6504">EmailAddress</text><line style="stroke:#181818;stroke-width:0.5;" x1="486.5" x2="602.5" y1="631.1641" y2="631.1641"/><line style="stroke:#181818;stroke-width:0.5;" x1="486.5" x2="602.5" y1="639.1641" y2="639.1641"/></g><!--class SystemUser--><g id="elem_SystemUser"><rect codeLine="18" fill="#F1F1F1" height="60.582" id="SystemUser" rx="2.5" ry="2.5" style="stroke:#181818;stroke-width:0.5;" width="107" x="439" y="448.6211"/><ellipse cx="454" cy="470.9121" fill="#ADD1B2" rx="11" ry="11" style="stroke:#181818;stroke-width:1.0;"/><path d="M456.7656,466.7871 Q456.9219,466.5684 457.1094,466.459 Q457.2969,466.3496 457.5156,466.3496 Q457.8906,466.3496 458.125,466.6152 Q458.3594,466.8652 458.3594,467.4746 L458.3594,468.9277 Q458.3594,469.5371 458.125,469.8027 Q457.8906,470.0684 457.5156,470.0684 Q457.1719,470.0684 456.9688,469.8652 Q456.7656,469.6777 456.6563,469.1621 Q456.6094,468.8027 456.4219,468.6152 Q456.0938,468.2402 455.4844,468.0215 Q454.875,467.8027 454.25,467.8027 Q453.4844,467.8027 452.8438,468.1309 Q452.2188,468.459 451.7188,469.209 Q451.2344,469.959 451.2344,470.9902 L451.2344,472.084 Q451.2344,473.3184 452.125,474.1465 Q453.0156,474.959 454.6094,474.959 Q455.5469,474.959 456.2031,474.709 Q456.5938,474.5527 457.0156,474.1152 Q457.2813,473.8496 457.4219,473.7715 Q457.5781,473.6934 457.7813,473.6934 Q458.1094,473.6934 458.3594,473.959 Q458.625,474.209 458.625,474.5527 Q458.625,474.8965 458.2813,475.3027 Q457.7813,475.8809 456.9844,476.209 Q455.9063,476.6621 454.6094,476.6621 Q453.0938,476.6621 451.8906,476.0371 Q450.9063,475.5371 450.2188,474.4746 Q449.5313,473.3965 449.5313,472.1152 L449.5313,470.959 Q449.5313,469.6309 450.1406,468.4902 Q450.7656,467.334 451.8594,466.7246 Q452.9531,466.0996 454.1875,466.0996 Q454.9219,466.0996 455.5625,466.2715 Q456.2188,466.4277 456.7656,466.7871 Z " fill="#000000"/><text fill="#000000" font-family="sans-serif" font-size="12" font-style="italic" lengthAdjust="spacing" textLength="35" x="488" y="466.5703">&#171;root&#187;</text><text fill="#000000" font-family="sans-serif" font-size="14" lengthAdjust="spacing" textLength="75" x="468" y="484.6895">SystemUser</text><line style="stroke:#181818;stroke-width:0.5;" x1="440" x2="545" y1="493.2031" y2="493.2031"/><line style="stroke:#181818;stroke-width:0.5;" x1="440" x2="545" y1="501.2031" y2="501.2031"/></g><!--class Candidate--><g id="elem_Candidate"><rect codeLine="20" fill="#F1F1F1" height="60.582" id="Candidate" rx="2.5" ry="2.5" style="stroke:#181818;stroke-width:0.5;" width="97" x="617" y="448.6211"/><ellipse cx="632" cy="470.9121" fill="#ADD1B2" rx="11" ry="11" style="stroke:#181818;stroke-width:1.0;"/><path d="M634.7656,466.7871 Q634.9219,466.5684 635.1094,466.459 Q635.2969,466.3496 635.5156,466.3496 Q635.8906,466.3496 636.125,466.6152 Q636.3594,466.8652 636.3594,467.4746 L636.3594,468.9277 Q636.3594,469.5371 636.125,469.8027 Q635.8906,470.0684 635.5156,470.0684 Q635.1719,470.0684 634.9688,469.8652 Q634.7656,469.6777 634.6563,469.1621 Q634.6094,468.8027 634.4219,468.6152 Q634.0938,468.2402 633.4844,468.0215 Q632.875,467.8027 632.25,467.8027 Q631.4844,467.8027 630.8438,468.1309 Q630.2188,468.459 629.7188,469.209 Q629.2344,469.959 629.2344,470.9902 L629.2344,472.084 Q629.2344,473.3184 630.125,474.1465 Q631.0156,474.959 632.6094,474.959 Q633.5469,474.959 634.2031,474.709 Q634.5938,474.5527 635.0156,474.1152 Q635.2813,473.8496 635.4219,473.7715 Q635.5781,473.6934 635.7813,473.6934 Q636.1094,473.6934 636.3594,473.959 Q636.625,474.209 636.625,474.5527 Q636.625,474.8965 636.2813,475.3027 Q635.7813,475.8809 634.9844,476.209 Q633.9063,476.6621 632.6094,476.6621 Q631.0938,476.6621 629.8906,476.0371 Q628.9063,475.5371 628.2188,474.4746 Q627.5313,473.3965 627.5313,472.1152 L627.5313,470.959 Q627.5313,469.6309 628.1406,468.4902 Q628.7656,467.334 629.8594,466.7246 Q630.9531,466.0996 632.1875,466.0996 Q632.9219,466.0996 633.5625,466.2715 Q634.2188,466.4277 634.7656,466.7871 Z " fill="#000000"/><text fill="#000000" font-family="sans-serif" font-size="12" font-style="italic" lengthAdjust="spacing" textLength="35" x="661" y="466.5703">&#171;root&#187;</text><text fill="#000000" font-family="sans-serif" font-size="14" lengthAdjust="spacing" textLength="65" x="646" y="484.6895">Candidate</text><line style="stroke:#181818;stroke-width:0.5;" x1="618" x2="713" y1="493.2031" y2="493.2031"/><line style="stroke:#181818;stroke-width:0.5;" x1="618" x2="713" y1="501.2031" y2="501.2031"/></g><!--class Password--><g id="elem_Password"><rect codeLine="22" fill="#F1F1F1" height="60.582" id="Password" rx="2.5" ry="2.5" style="stroke:#181818;stroke-width:0.5;" width="93" x="639" y="578.6211"/><ellipse cx="654" cy="600.9121" fill="#ADD1B2" rx="11" ry="11" style="stroke:#181818;stroke-width:1.0;"/><path d="M656.7656,596.7871 Q656.9219,596.5684 657.1094,596.459 Q657.2969,596.3496 657.5156,596.3496 Q657.8906,596.3496 658.125,596.6152 Q658.3594,596.8652 658.3594,597.4746 L658.3594,598.9277 Q658.3594,599.5371 658.125,599.8027 Q657.8906,600.0684 657.5156,600.0684 Q657.1719,600.0684 656.9688,599.8652 Q656.7656,599.6777 656.6563,599.1621 Q656.6094,598.8027 656.4219,598.6152 Q656.0938,598.2402 655.4844,598.0215 Q654.875,597.8027 654.25,597.8027 Q653.4844,597.8027 652.8438,598.1309 Q652.2188,598.459 651.7188,599.209 Q651.2344,599.959 651.2344,600.9902 L651.2344,602.084 Q651.2344,603.3184 652.125,604.1465 Q653.0156,604.959 654.6094,604.959 Q655.5469,604.959 656.2031,604.709 Q656.5938,604.5527 657.0156,604.1152 Q657.2813,603.8496 657.4219,603.7715 Q657.5781,603.6934 657.7813,603.6934 Q658.1094,603.6934 658.3594,603.959 Q658.625,604.209 658.625,604.5527 Q658.625,604.8965 658.2813,605.3027 Q657.7813,605.8809 656.9844,606.209 Q655.9063,606.6621 654.6094,606.6621 Q653.0938,606.6621 651.8906,606.0371 Q650.9063,605.5371 650.2188,604.4746 Q649.5313,603.3965 649.5313,602.1152 L649.5313,600.959 Q649.5313,599.6309 650.1406,598.4902 Q650.7656,597.334 651.8594,596.7246 Q652.9531,596.0996 654.1875,596.0996 Q654.9219,596.0996 655.5625,596.2715 Q656.2188,596.4277 656.7656,596.7871 Z " fill="#000000"/><text fill="#000000" font-family="sans-serif" font-size="12" font-style="italic" lengthAdjust="spacing" textLength="44" x="676.5" y="596.5703">&#171;value&#187;</text><text fill="#000000" font-family="sans-serif" font-size="14" lengthAdjust="spacing" textLength="61" x="668" y="614.6895">Password</text><line style="stroke:#181818;stroke-width:0.5;" x1="640" x2="731" y1="623.2031" y2="623.2031"/><line style="stroke:#181818;stroke-width:0.5;" x1="640" x2="731" y1="631.2031" y2="631.2031"/></g><!--class Name--><g id="elem_Name"><rect codeLine="24" fill="#F1F1F1" height="60.582" id="Name" rx="2.5" ry="2.5" style="stroke:#181818;stroke-width:0.5;" width="72" x="378.5" y="578.6211"/><ellipse cx="393.5" cy="600.9121" fill="#ADD1B2" rx="11" ry="11" style="stroke:#181818;stroke-width:1.0;"/><path d="M396.2656,596.7871 Q396.4219,596.5684 396.6094,596.459 Q396.7969,596.3496 397.0156,596.3496 Q397.3906,596.3496 397.625,596.6152 Q397.8594,596.8652 397.8594,597.4746 L397.8594,598.9277 Q397.8594,599.5371 397.625,599.8027 Q397.3906,600.0684 397.0156,600.0684 Q396.6719,600.0684 396.4688,599.8652 Q396.2656,599.6777 396.1563,599.1621 Q396.1094,598.8027 395.9219,598.6152 Q395.5938,598.2402 394.9844,598.0215 Q394.375,597.8027 393.75,597.8027 Q392.9844,597.8027 392.3438,598.1309 Q391.7188,598.459 391.2188,599.209 Q390.7344,599.959 390.7344,600.9902 L390.7344,602.084 Q390.7344,603.3184 391.625,604.1465 Q392.5156,604.959 394.1094,604.959 Q395.0469,604.959 395.7031,604.709 Q396.0938,604.5527 396.5156,604.1152 Q396.7813,603.8496 396.9219,603.7715 Q397.0781,603.6934 397.2813,603.6934 Q397.6094,603.6934 397.8594,603.959 Q398.125,604.209 398.125,604.5527 Q398.125,604.8965 397.7813,605.3027 Q397.2813,605.8809 396.4844,606.209 Q395.4063,606.6621 394.1094,606.6621 Q392.5938,606.6621 391.3906,606.0371 Q390.4063,605.5371 389.7188,604.4746 Q389.0313,603.3965 389.0313,602.1152 L389.0313,600.959 Q389.0313,599.6309 389.6406,598.4902 Q390.2656,597.334 391.3594,596.7246 Q392.4531,596.0996 393.6875,596.0996 Q394.4219,596.0996 395.0625,596.2715 Q395.7188,596.4277 396.2656,596.7871 Z " fill="#000000"/><text fill="#000000" font-family="sans-serif" font-size="12" font-style="italic" lengthAdjust="spacing" textLength="44" x="405.5" y="596.5703">&#171;value&#187;</text><text fill="#000000" font-family="sans-serif" font-size="14" lengthAdjust="spacing" textLength="36" x="409.5" y="614.6895">Name</text><line style="stroke:#181818;stroke-width:0.5;" x1="379.5" x2="449.5" y1="623.2031" y2="623.2031"/><line style="stroke:#181818;stroke-width:0.5;" x1="379.5" x2="449.5" y1="631.2031" y2="631.2031"/></g><!--class PasswordPolicy--><g id="elem_PasswordPolicy"><rect codeLine="26" fill="#F1F1F1" height="60.582" id="PasswordPolicy" rx="2.5" ry="2.5" style="stroke:#181818;stroke-width:0.5;" width="130" x="533.5" y="726.6211"/><ellipse cx="548.5" cy="748.9121" fill="#ADD1B2" rx="11" ry="11" style="stroke:#181818;stroke-width:1.0;"/><path d="M551.2656,744.7871 Q551.4219,744.5684 551.6094,744.459 Q551.7969,744.3496 552.0156,744.3496 Q552.3906,744.3496 552.625,744.6152 Q552.8594,744.8652 552.8594,745.4746 L552.8594,746.9277 Q552.8594,747.5371 552.625,747.8027 Q552.3906,748.0684 552.0156,748.0684 Q551.6719,748.0684 551.4688,747.8652 Q551.2656,747.6777 551.1563,747.1621 Q551.1094,746.8027 550.9219,746.6152 Q550.5938,746.2402 549.9844,746.0215 Q549.375,745.8027 548.75,745.8027 Q547.9844,745.8027 547.3438,746.1309 Q546.7188,746.459 546.2188,747.209 Q545.7344,747.959 545.7344,748.9902 L545.7344,750.084 Q545.7344,751.3184 546.625,752.1465 Q547.5156,752.959 549.1094,752.959 Q550.0469,752.959 550.7031,752.709 Q551.0938,752.5527 551.5156,752.1152 Q551.7813,751.8496 551.9219,751.7715 Q552.0781,751.6934 552.2813,751.6934 Q552.6094,751.6934 552.8594,751.959 Q553.125,752.209 553.125,752.5527 Q553.125,752.8965 552.7813,753.3027 Q552.2813,753.8809 551.4844,754.209 Q550.4063,754.6621 549.1094,754.6621 Q547.5938,754.6621 546.3906,754.0371 Q545.4063,753.5371 544.7188,752.4746 Q544.0313,751.3965 544.0313,750.1152 L544.0313,748.959 Q544.0313,747.6309 544.6406,746.4902 Q545.2656,745.334 546.3594,744.7246 Q547.4531,744.0996 548.6875,744.0996 Q549.4219,744.0996 550.0625,744.2715 Q550.7188,744.4277 551.2656,744.7871 Z " fill="#000000"/><text fill="#000000" font-family="sans-serif" font-size="12" font-style="italic" lengthAdjust="spacing" textLength="53" x="585" y="744.5703">&#171;service&#187;</text><text fill="#000000" font-family="sans-serif" font-size="14" lengthAdjust="spacing" textLength="98" x="562.5" y="762.6895">PasswordPolicy</text><line style="stroke:#181818;stroke-width:0.5;" x1="534.5" x2="662.5" y1="771.2031" y2="771.2031"/><line style="stroke:#181818;stroke-width:0.5;" x1="534.5" x2="662.5" y1="779.2031" y2="779.2031"/></g><!--class PasswordEncoder--><g id="elem_PasswordEncoder"><rect codeLine="28" fill="#F1F1F1" height="60.582" id="PasswordEncoder" rx="2.5" ry="2.5" style="stroke:#181818;stroke-width:0.5;" width="146" x="698.5" y="726.6211"/><ellipse cx="713.5" cy="748.9121" fill="#ADD1B2" rx="11" ry="11" style="stroke:#181818;stroke-width:1.0;"/><path d="M716.2656,744.7871 Q716.4219,744.5684 716.6094,744.459 Q716.7969,744.3496 717.0156,744.3496 Q717.3906,744.3496 717.625,744.6152 Q717.8594,744.8652 717.8594,745.4746 L717.8594,746.9277 Q717.8594,747.5371 717.625,747.8027 Q717.3906,748.0684 717.0156,748.0684 Q716.6719,748.0684 716.4688,747.8652 Q716.2656,747.6777 716.1563,747.1621 Q716.1094,746.8027 715.9219,746.6152 Q715.5938,746.2402 714.9844,746.0215 Q714.375,745.8027 713.75,745.8027 Q712.9844,745.8027 712.3438,746.1309 Q711.7188,746.459 711.2188,747.209 Q710.7344,747.959 710.7344,748.9902 L710.7344,750.084 Q710.7344,751.3184 711.625,752.1465 Q712.5156,752.959 714.1094,752.959 Q715.0469,752.959 715.7031,752.709 Q716.0938,752.5527 716.5156,752.1152 Q716.7813,751.8496 716.9219,751.7715 Q717.0781,751.6934 717.2813,751.6934 Q717.6094,751.6934 717.8594,751.959 Q718.125,752.209 718.125,752.5527 Q718.125,752.8965 717.7813,753.3027 Q717.2813,753.8809 716.4844,754.209 Q715.4063,754.6621 714.1094,754.6621 Q712.5938,754.6621 711.3906,754.0371 Q710.4063,753.5371 709.7188,752.4746 Q709.0313,751.3965 709.0313,750.1152 L709.0313,748.959 Q709.0313,747.6309 709.6406,746.4902 Q710.2656,745.334 711.3594,744.7246 Q712.4531,744.0996 713.6875,744.0996 Q714.4219,744.0996 715.0625,744.2715 Q715.7188,744.4277 716.2656,744.7871 Z " fill="#000000"/><text fill="#000000" font-family="sans-serif" font-size="12" font-style="italic" lengthAdjust="spacing" textLength="53" x="758" y="744.5703">&#171;service&#187;</text><text fill="#000000" font-family="sans-serif" font-size="14" lengthAdjust="spacing" textLength="114" x="727.5" y="762.6895">PasswordEncoder</text><line style="stroke:#181818;stroke-width:0.5;" x1="699.5" x2="843.5" y1="771.2031" y2="771.2031"/><line style="stroke:#181818;stroke-width:0.5;" x1="699.5" x2="843.5" y1="779.2031" y2="779.2031"/></g><!--class RoleSet--><g id="elem_RoleSet"><rect codeLine="36" fill="#F1F1F1" height="60.582" id="RoleSet" rx="2.5" ry="2.5" style="stroke:#181818;stroke-width:0.5;" width="82" x="161.5" y="448.6211"/><ellipse cx="176.5" cy="470.9121" fill="#ADD1B2" rx="11" ry="11" style="stroke:#181818;stroke-width:1.0;"/><path d="M179.2656,466.7871 Q179.4219,466.5684 179.6094,466.459 Q179.7969,466.3496 180.0156,466.3496 Q180.3906,466.3496 180.625,466.6152 Q180.8594,466.8652 180.8594,467.4746 L180.8594,468.9277 Q180.8594,469.5371 180.625,469.8027 Q180.3906,470.0684 180.0156,470.0684 Q179.6719,470.0684 179.4688,469.8652 Q179.2656,469.6777 179.1563,469.1621 Q179.1094,468.8027 178.9219,468.6152 Q178.5938,468.2402 177.9844,468.0215 Q177.375,467.8027 176.75,467.8027 Q175.9844,467.8027 175.3438,468.1309 Q174.7188,468.459 174.2188,469.209 Q173.7344,469.959 173.7344,470.9902 L173.7344,472.084 Q173.7344,473.3184 174.625,474.1465 Q175.5156,474.959 177.1094,474.959 Q178.0469,474.959 178.7031,474.709 Q179.0938,474.5527 179.5156,474.1152 Q179.7813,473.8496 179.9219,473.7715 Q180.0781,473.6934 180.2813,473.6934 Q180.6094,473.6934 180.8594,473.959 Q181.125,474.209 181.125,474.5527 Q181.125,474.8965 180.7813,475.3027 Q180.2813,475.8809 179.4844,476.209 Q178.4063,476.6621 177.1094,476.6621 Q175.5938,476.6621 174.3906,476.0371 Q173.4063,475.5371 172.7188,474.4746 Q172.0313,473.3965 172.0313,472.1152 L172.0313,470.959 Q172.0313,469.6309 172.6406,468.4902 Q173.2656,467.334 174.3594,466.7246 Q175.4531,466.0996 176.6875,466.0996 Q177.4219,466.0996 178.0625,466.2715 Q178.7188,466.4277 179.2656,466.7871 Z " fill="#000000"/><text fill="#000000" font-family="sans-serif" font-size="12" font-style="italic" lengthAdjust="spacing" textLength="44" x="193.5" y="466.5703">&#171;value&#187;</text><text fill="#000000" font-family="sans-serif" font-size="14" lengthAdjust="spacing" textLength="50" x="190.5" y="484.6895">RoleSet</text><line style="stroke:#181818;stroke-width:0.5;" x1="162.5" x2="242.5" y1="493.2031" y2="493.2031"/><line style="stroke:#181818;stroke-width:0.5;" x1="162.5" x2="242.5" y1="501.2031" y2="501.2031"/></g><!--class RoleAssignment--><g id="elem_RoleAssignment"><rect codeLine="32" fill="#F1F1F1" height="60.582" id="RoleAssignment" rx="2.5" ry="2.5" style="stroke:#181818;stroke-width:0.5;" width="134" x="209.5" y="578.6211"/><ellipse cx="224.5" cy="600.9121" fill="#ADD1B2" rx="11" ry="11" style="stroke:#181818;stroke-width:1.0;"/><path d="M227.2656,596.7871 Q227.4219,596.5684 227.6094,596.459 Q227.7969,596.3496 228.0156,596.3496 Q228.3906,596.3496 228.625,596.6152 Q228.8594,596.8652 228.8594,597.4746 L228.8594,598.9277 Q228.8594,599.5371 228.625,599.8027 Q228.3906,600.0684 228.0156,600.0684 Q227.6719,600.0684 227.4688,599.8652 Q227.2656,599.6777 227.1563,599.1621 Q227.1094,598.8027 226.9219,598.6152 Q226.5938,598.2402 225.9844,598.0215 Q225.375,597.8027 224.75,597.8027 Q223.9844,597.8027 223.3438,598.1309 Q222.7188,598.459 222.2188,599.209 Q221.7344,599.959 221.7344,600.9902 L221.7344,602.084 Q221.7344,603.3184 222.625,604.1465 Q223.5156,604.959 225.1094,604.959 Q226.0469,604.959 226.7031,604.709 Q227.0938,604.5527 227.5156,604.1152 Q227.7813,603.8496 227.9219,603.7715 Q228.0781,603.6934 228.2813,603.6934 Q228.6094,603.6934 228.8594,603.959 Q229.125,604.209 229.125,604.5527 Q229.125,604.8965 228.7813,605.3027 Q228.2813,605.8809 227.4844,606.209 Q226.4063,606.6621 225.1094,606.6621 Q223.5938,606.6621 222.3906,606.0371 Q221.4063,605.5371 220.7188,604.4746 Q220.0313,603.3965 220.0313,602.1152 L220.0313,600.959 Q220.0313,599.6309 220.6406,598.4902 Q221.2656,597.334 222.3594,596.7246 Q223.4531,596.0996 224.6875,596.0996 Q225.4219,596.0996 226.0625,596.2715 Q226.7188,596.4277 227.2656,596.7871 Z " fill="#000000"/><text fill="#000000" font-family="sans-serif" font-size="12" font-style="italic" lengthAdjust="spacing" textLength="43" x="268" y="596.5703">&#171;entity&#187;</text><text fill="#000000" font-family="sans-serif" font-size="14" lengthAdjust="spacing" textLength="102" x="238.5" y="614.6895">RoleAssignment</text><line style="stroke:#181818;stroke-width:0.5;" x1="210.5" x2="342.5" y1="623.2031" y2="623.2031"/><line style="stroke:#181818;stroke-width:0.5;" x1="210.5" x2="342.5" y1="631.2031" y2="631.2031"/></g><!--class Role--><g id="elem_Role"><rect codeLine="34" fill="#F1F1F1" height="60.582" id="Role" rx="2.5" ry="2.5" style="stroke:#181818;stroke-width:0.5;" width="72" x="278.5" y="448.6211"/><ellipse cx="293.5" cy="470.9121" fill="#EB937F" rx="11" ry="11" style="stroke:#181818;stroke-width:1.0;"/><path d="M292.3594,471.709 L292.3594,474.209 L296.6875,474.209 L296.6875,473.2871 Q296.6875,472.6777 296.9219,472.4121 Q297.1719,472.1465 297.5469,472.1465 Q297.9219,472.1465 298.1563,472.4121 Q298.3906,472.6777 298.3906,473.2871 L298.3906,475.9121 L290.3906,475.9121 Q289.7656,475.9121 289.5,475.6777 Q289.25,475.4434 289.25,475.0527 Q289.25,474.6777 289.5156,474.4434 Q289.7813,474.209 290.3906,474.209 L290.6563,474.209 L290.6563,467.5527 L290.3906,467.5527 Q289.7656,467.5527 289.5,467.3184 Q289.25,467.084 289.25,466.6934 Q289.25,466.3184 289.5,466.084 Q289.7656,465.8496 290.3906,465.8496 L298.0156,465.8496 L298.0156,468.4434 Q298.0156,469.0527 297.7813,469.3184 Q297.5625,469.5684 297.1719,469.5684 Q296.7969,469.5684 296.5625,469.3184 Q296.3281,469.0527 296.3281,468.4434 L296.3281,467.5527 L292.3594,467.5527 L292.3594,470.0059 L293.8438,470.0059 Q293.8438,469.3496 293.9688,469.1621 Q294.2344,468.7559 294.7031,468.7559 Q295.0781,468.7559 295.3125,469.0215 Q295.5469,469.2715 295.5469,469.8809 L295.5469,471.8496 Q295.5469,472.3965 295.4219,472.584 Q295.1563,472.9746 294.7031,472.9746 Q294.2344,472.9746 293.9688,472.5684 Q293.8438,472.3809 293.8438,471.709 L292.3594,471.709 Z " fill="#000000"/><text fill="#000000" font-family="sans-serif" font-size="12" font-style="italic" lengthAdjust="spacing" textLength="44" x="305.5" y="466.5703">&#171;value&#187;</text><text fill="#000000" font-family="sans-serif" font-size="14" lengthAdjust="spacing" textLength="29" x="313" y="484.6895">Role</text><line style="stroke:#181818;stroke-width:0.5;" x1="279.5" x2="349.5" y1="493.2031" y2="493.2031"/><line style="stroke:#181818;stroke-width:0.5;" x1="279.5" x2="349.5" y1="501.2031" y2="501.2031"/></g><!--class Set--><g id="elem_Set"><rect codeLine="38" fill="#F1F1F1" height="60.582" id="Set" rx="2.5" ry="2.5" style="stroke:#181818;stroke-width:0.5;" width="167" x="7" y="578.6211"/><ellipse cx="22" cy="600.9121" fill="#ADD1B2" rx="11" ry="11" style="stroke:#181818;stroke-width:1.0;"/><path d="M24.7656,596.7871 Q24.9219,596.5684 25.1094,596.459 Q25.2969,596.3496 25.5156,596.3496 Q25.8906,596.3496 26.125,596.6152 Q26.3594,596.8652 26.3594,597.4746 L26.3594,598.9277 Q26.3594,599.5371 26.125,599.8027 Q25.8906,600.0684 25.5156,600.0684 Q25.1719,600.0684 24.9688,599.8652 Q24.7656,599.6777 24.6563,599.1621 Q24.6094,598.8027 24.4219,598.6152 Q24.0938,598.2402 23.4844,598.0215 Q22.875,597.8027 22.25,597.8027 Q21.4844,597.8027 20.8438,598.1309 Q20.2188,598.459 19.7188,599.209 Q19.2344,599.959 19.2344,600.9902 L19.2344,602.084 Q19.2344,603.3184 20.125,604.1465 Q21.0156,604.959 22.6094,604.959 Q23.5469,604.959 24.2031,604.709 Q24.5938,604.5527 25.0156,604.1152 Q25.2813,603.8496 25.4219,603.7715 Q25.5781,603.6934 25.7813,603.6934 Q26.1094,603.6934 26.3594,603.959 Q26.625,604.209 26.625,604.5527 Q26.625,604.8965 26.2813,605.3027 Q25.7813,605.8809 24.9844,606.209 Q23.9063,606.6621 22.6094,606.6621 Q21.0938,606.6621 19.8906,606.0371 Q18.9063,605.5371 18.2188,604.4746 Q17.5313,603.3965 17.5313,602.1152 L17.5313,600.959 Q17.5313,599.6309 18.1406,598.4902 Q18.7656,597.334 19.8594,596.7246 Q20.9531,596.0996 22.1875,596.0996 Q22.9219,596.0996 23.5625,596.2715 Q24.2188,596.4277 24.7656,596.7871 Z " fill="#000000"/><text fill="#000000" font-family="sans-serif" font-size="12" font-style="italic" lengthAdjust="spacing" textLength="44" x="34" y="596.5703">&#171;value&#187;</text><text fill="#000000" font-family="sans-serif" font-size="14" lengthAdjust="spacing" textLength="21" x="45.5" y="614.6895">Set</text><rect fill="#FFFFFF" height="17.9609" style="stroke:#181818;stroke-width:1.0;stroke-dasharray:2.0,2.0;" width="93" x="84" y="575.6211"/><text fill="#000000" font-family="sans-serif" font-size="12" font-style="italic" lengthAdjust="spacing" textLength="91" x="85" y="589.5703">RoleAssignment</text><line style="stroke:#181818;stroke-width:0.5;" x1="8" x2="173" y1="623.2031" y2="623.2031"/><line style="stroke:#181818;stroke-width:0.5;" x1="8" x2="173" y1="631.2031" y2="631.2031"/></g><!--link ListUsersUI to ListUsersController--><g id="link_ListUsersUI_ListUsersController"><path codeLine="40" d="M589.5,107.7811 C589.5,126.2411 589.5,143.9111 589.5,162.3811 " fill="none" id="ListUsersUI-to-ListUsersController" style="stroke:#181818;stroke-width:1.0;stroke-dasharray:7.0,7.0;"/><polygon fill="#181818" points="589.5,168.3811,593.5,159.3811,589.5,163.3811,585.5,159.3811,589.5,168.3811" style="stroke:#181818;stroke-width:1.0;"/></g><!--link ListUsersController to UserRepository--><g id="link_ListUsersController_UserRepository"><path codeLine="42" d="M568.69,229.7211 C552.32,253.0111 533.0808,280.3827 516.7208,303.6527 " fill="none" id="ListUsersController-to-UserRepository" style="stroke:#181818;stroke-width:1.0;stroke-dasharray:7.0,7.0;"/><polygon fill="#181818" points="513.27,308.5611,521.7185,303.4991,516.1457,304.4708,515.174,298.898,513.27,308.5611" style="stroke:#181818;stroke-width:1.0;"/><polygon fill="#000000" points="549.6246,273.3571,557.2306,267.6474,552.4219,264.2672,549.6246,273.3571" style="stroke:#000000;stroke-width:1.0;"/><text fill="#000000" font-family="sans-serif" font-size="13" lengthAdjust="spacing" textLength="56" x="561.5" y="274.6494">accesses</text></g><!--link UserRepository to SystemUser--><g id="link_UserRepository_SystemUser"><path codeLine="44" d="M492.5,369.7211 C492.5,393.0111 492.5,419.2911 492.5,442.5611 " fill="none" id="UserRepository-to-SystemUser" style="stroke:#181818;stroke-width:1.0;stroke-dasharray:7.0,7.0;"/><polygon fill="#181818" points="492.5,448.5611,496.5,439.5611,492.5,443.5611,488.5,439.5611,492.5,448.5611" style="stroke:#181818;stroke-width:1.0;"/><polygon fill="#000000" points="497.5,414.2666,500.4389,405.2215,494.5611,405.2215,497.5,414.2666" style="stroke:#000000;stroke-width:1.0;"/><text fill="#000000" font-family="sans-serif" font-size="13" lengthAdjust="spacing" textLength="104" x="506.5" y="414.6494">saves in database</text></g><!--link ListUsersController to UserManagementService--><g id="link_ListUsersController_UserManagementService"><path codeLine="45" d="M610.52,229.7211 C627.06,253.0111 646.5167,280.3986 663.0367,303.6686 " fill="none" id="ListUsersController-to-UserManagementService" style="stroke:#181818;stroke-width:1.0;stroke-dasharray:7.0,7.0;"/><polygon fill="#181818" points="666.51,308.5611,664.5617,298.9069,663.6156,304.484,658.0384,303.5379,666.51,308.5611" style="stroke:#181818;stroke-width:1.0;"/><polygon fill="#000000" points="652.3951,273.3432,649.5539,264.2669,644.7617,267.6703,652.3951,273.3432" style="stroke:#000000;stroke-width:1.0;"/><text fill="#000000" font-family="sans-serif" font-size="13" lengthAdjust="spacing" textLength="28" x="658.5" y="274.6494">uses</text></g><!--link SystemUser to Name--><g id="link_SystemUser_Name"><path codeLine="47" d="M474.41,509.8111 C461.81,530.4911 448.1927,552.8277 435.6127,573.4677 " fill="none" id="SystemUser-to-Name" style="stroke:#181818;stroke-width:1.0;stroke-dasharray:7.0,7.0;"/><polygon fill="#181818" points="432.49,578.5911,440.5896,572.9878,435.0922,574.3216,433.7584,568.8243,432.49,578.5911" style="stroke:#181818;stroke-width:1.0;"/></g><!--link SystemUser to Password--><g id="link_SystemUser_Password"><path codeLine="48" d="M537.26,509.8111 C568.44,530.4911 604.8493,554.6355 635.9793,575.2755 " fill="none" id="SystemUser-to-Password" style="stroke:#181818;stroke-width:1.0;stroke-dasharray:7.0,7.0;"/><polygon fill="#181818" points="640.98,578.5911,635.6894,570.2839,636.8128,575.8281,631.2686,576.9515,640.98,578.5911" style="stroke:#181818;stroke-width:1.0;"/></g><!--link SystemUser to EmailAddress--><g id="link_SystemUser_EmailAddress"><path codeLine="49" d="M504.56,509.8111 C511.88,527.8311 519.0439,545.4414 526.8839,564.7614 " fill="none" id="SystemUser-to-EmailAddress" style="stroke:#181818;stroke-width:1.0;stroke-dasharray:7.0,7.0;"/><polygon fill="#181818" points="529.14,570.3211,529.4623,560.4775,527.2599,565.688,522.0494,563.4856,529.14,570.3211" style="stroke:#181818;stroke-width:1.0;"/></g><!--reverse link RoleSet to SystemUser--><g id="link_RoleSet_SystemUser"><path codeLine="51" d="M229.8964,444.1047 C243.3064,429.1547 257.53,417.1511 278,409.1211 C337.08,385.9511 407.28,420.1311 450.87,448.3611 " fill="none" id="RoleSet-backto-SystemUser" style="stroke:#181818;stroke-width:1.0;"/><polygon fill="#181818" points="225.89,448.5711,234.8772,444.5423,229.2286,444.8491,228.9219,439.2005,225.89,448.5711" style="stroke:#181818;stroke-width:1.0;"/></g><!--link RoleSet to Set--><g id="link_RoleSet_Set"><path codeLine="52" d="M176.52,509.8111 C158.43,530.4911 146.2531,544.4047 128.1931,565.0447 " fill="none" id="RoleSet-to-Set" style="stroke:#181818;stroke-width:1.0;stroke-dasharray:7.0,7.0;"/><polygon fill="none" points="116.34,578.5911,132.7085,568.9957,123.6776,561.0937,116.34,578.5911" style="stroke:#181818;stroke-width:1.0;"/></g><!--link RoleSet to RoleAssignment--><g id="link_RoleSet_RoleAssignment"><path codeLine="53" d="M219.66,509.8111 C231.62,530.4911 244.4975,552.7564 256.4275,573.3964 " fill="none" id="RoleSet-to-RoleAssignment" style="stroke:#181818;stroke-width:1.0;stroke-dasharray:7.0,7.0;"/><polygon fill="#181818" points="259.43,578.5911,258.3893,568.7974,256.9279,574.2622,251.4631,572.8008,259.43,578.5911" style="stroke:#181818;stroke-width:1.0;"/></g><!--reverse link Role to RoleAssignment--><g id="link_Role_RoleAssignment"><path codeLine="54" d="M303.9823,515.5629 C297.8423,536.2429 291.39,557.9511 285.27,578.5911 " fill="none" id="Role-backto-RoleAssignment" style="stroke:#181818;stroke-width:1.0;"/><polygon fill="#181818" points="305.69,509.8111,299.2938,517.3003,304.2669,514.6043,306.9629,519.5773,305.69,509.8111" style="stroke:#181818;stroke-width:1.0;"/></g><!--link SystemUser to Candidate--><g id="link_SystemUser_Candidate"><path codeLine="56" d="M546.29,479.1211 C568.81,479.1211 588.79,479.1211 610.74,479.1211 " fill="none" id="SystemUser-to-Candidate" style="stroke:#181818;stroke-width:1.0;stroke-dasharray:7.0,7.0;"/><polygon fill="#181818" points="616.74,479.1211,607.74,475.1211,611.74,479.1211,607.74,483.1211,616.74,479.1211" style="stroke:#181818;stroke-width:1.0;"/><polygon fill="#000000" points="573.5,466.7666,564.4549,463.8277,564.4549,469.7055,573.5,466.7666" style="stroke:#000000;stroke-width:1.0;"/><text fill="#000000" font-family="sans-serif" font-size="13" lengthAdjust="spacing" textLength="21" x="577.5" y="472.1494">has</text></g><!--link Password to PasswordPolicy--><g id="link_Password_PasswordPolicy"><path codeLine="58" d="M667.89,639.6711 C652.8,665.0011 634.2417,696.147 619.1517,721.467 " fill="none" id="Password-to-PasswordPolicy" style="stroke:#181818;stroke-width:1.0;stroke-dasharray:7.0,7.0;"/><polygon fill="#181818" points="616.08,726.6211,624.1236,720.9377,618.6397,722.326,617.2515,716.8422,616.08,726.6211" style="stroke:#181818;stroke-width:1.0;"/></g><!--link Password to PasswordEncoder--><g id="link_Password_PasswordEncoder"><path codeLine="59" d="M702.9,639.6711 C717.82,665.0011 736.1655,696.1309 751.0755,721.4509 " fill="none" id="Password-to-PasswordEncoder" style="stroke:#181818;stroke-width:1.0;stroke-dasharray:7.0,7.0;"/><polygon fill="#181818" points="754.12,726.6211,753,716.8361,751.5829,722.3126,746.1064,720.8955,754.12,726.6211" style="stroke:#181818;stroke-width:1.0;"/><polygon fill="#000000" points="737.9622,682.9585,740.0209,692.2436,745.0854,689.2602,737.9622,682.9585" style="stroke:#000000;stroke-width:1.0;"/><text fill="#000000" font-family="sans-serif" font-size="13" lengthAdjust="spacing" textLength="43" x="749.5" y="692.6494">creates</text></g><!--SRC=[VPFBRjim44Nt_0eksuM45CXA40GOIXO1cYA8u0-OK6EP24KQvDY1YtvyXt9bKGzqGuXp3oyVTnG-jJs1XrwUG7r2XmrT3KgFYi1s1aMu0-48hVlIjfC7C0558Ya38Uo8lFuu4xuePnlz6-M34AI9xUgeooSDNQI_rK_VPIRtzSEFHo66jVAd3hGFwCF-HPQbjeJ-00ghQWNKpf9tng1dKDqd4ncfTpoveCdvAqF-Ffb3hs3vmZrQQj1Vj49cm-rh0fzxq6RNjXvvKfONC6TMundR2MgkWR2Fdd4xvsYIQh2jRe5mfRpnyELyExcEoY_eSLqT-JTdjBfkdNKadgroxN2M5VBk33P8Q_Sex4BGdOqFmZgFceONGtlk1trxrQOT5ykvPPL2QTnvNcsbcq19v15U15n8K8hJmI3PUI56Facda04k36ehEHFuW82yw7yRhPkaaET_UoN64O-nBMjZ9CjwsbOpeypWWR9gV5anld2U_wdahC0_eyshHN3YbbCMnMofpVRnkZiIhvyQj9176Evrxypq1hUsszR6XYkayiXM_AU8lm00]--></g></svg>