<?xml version="1.0" encoding="us-ascii" standalone="no"?><svg xmlns="http://www.w3.org/2000/svg" xmlns:xlink="http://www.w3.org/1999/xlink" contentStyleType="text/css" height="853px" preserveAspectRatio="none" style="width:1571px;height:853px;background:#FFFFFF;" version="1.1" viewBox="0 0 1571 853" width="1571px" zoomAndPan="magnify"><defs/><g><text fill="#000000" font-family="sans-serif" font-size="14" font-weight="bold" lengthAdjust="spacing" textLength="222" x="676.5" y="30.1074">Sequence Diagram (SD) - UC015</text><rect fill="#FFFFFF" height="598.8301" style="stroke:#181818;stroke-width:1.0;" width="10" x="61.5" y="137.8633"/><rect fill="#FFFFFF" height="495.3652" style="stroke:#181818;stroke-width:1.0;" width="10" x="400.5" y="241.3281"/><rect fill="#FFFFFF" height="200.7461" style="stroke:#181818;stroke-width:1.0;" width="10" x="690.5" y="272.6191"/><rect fill="#FFFFFF" height="200.7461" style="stroke:#181818;stroke-width:1.0;" width="10" x="690.5" y="504.6563"/><rect fill="#FFFFFF" height="138.1641" style="stroke:#181818;stroke-width:1.0;" width="10" x="959.5" y="303.9102"/><rect fill="#FFFFFF" height="138.1641" style="stroke:#181818;stroke-width:1.0;" width="10" x="959.5" y="535.9473"/><rect fill="#FFFFFF" height="75.582" style="stroke:#181818;stroke-width:1.0;" width="10" x="1228.5" y="567.2383"/><rect fill="#FFFFFF" height="75.582" style="stroke:#181818;stroke-width:1.0;" width="10" x="1385" y="335.2012"/><line style="stroke:#181818;stroke-width:0.5;stroke-dasharray:5.0,5.0;" x1="66" x2="66" y1="127.8633" y2="754.6934"/><line style="stroke:#181818;stroke-width:0.5;stroke-dasharray:5.0,5.0;" x1="405" x2="405" y1="127.8633" y2="754.6934"/><line style="stroke:#181818;stroke-width:0.5;stroke-dasharray:5.0,5.0;" x1="695.5" x2="695.5" y1="127.8633" y2="754.6934"/><line style="stroke:#181818;stroke-width:0.5;stroke-dasharray:5.0,5.0;" x1="964.5" x2="964.5" y1="127.8633" y2="754.6934"/><line style="stroke:#181818;stroke-width:0.5;stroke-dasharray:5.0,5.0;" x1="1233" x2="1233" y1="127.8633" y2="754.6934"/><line style="stroke:#181818;stroke-width:0.5;stroke-dasharray:5.0,5.0;" x1="1390" x2="1390" y1="127.8633" y2="754.6934"/><text fill="#000000" font-family="sans-serif" font-size="14" lengthAdjust="spacing" textLength="117" x="5" y="124.3496">CustomerManager</text><ellipse cx="66.5" cy="57.7422" fill="#E2E2F0" rx="8" ry="8" style="stroke:#181818;stroke-width:0.5;"/><path d="M66.5,65.7422 L66.5,92.7422 M53.5,73.7422 L79.5,73.7422 M66.5,92.7422 L53.5,107.7422 M66.5,92.7422 L79.5,107.7422 " fill="none" style="stroke:#181818;stroke-width:0.5;"/><text fill="#000000" font-family="sans-serif" font-size="14" lengthAdjust="spacing" textLength="117" x="5" y="768.8008">CustomerManager</text><ellipse cx="66.5" cy="780.8145" fill="#E2E2F0" rx="8" ry="8" style="stroke:#181818;stroke-width:0.5;"/><path d="M66.5,788.8145 L66.5,815.8145 M53.5,796.8145 L79.5,796.8145 M66.5,815.8145 L53.5,830.8145 M66.5,815.8145 L79.5,830.8145 " fill="none" style="stroke:#181818;stroke-width:0.5;"/><rect fill="#E2E2F0" height="51.2422" rx="2.5" ry="2.5" style="stroke:#181818;stroke-width:0.5;" width="233" x="289" y="75.6211"/><text fill="#000000" font-family="sans-serif" font-size="14" font-style="italic" lengthAdjust="spacing" textLength="95" x="358" y="97.7285">&#171;presentation&#187;</text><text fill="#000000" font-family="sans-serif" font-size="14" lengthAdjust="spacing" textLength="219" x="296" y="116.3496">: ListDetailsApplicationCandidateUI</text><rect fill="#E2E2F0" height="51.2422" rx="2.5" ry="2.5" style="stroke:#181818;stroke-width:0.5;" width="233" x="289" y="753.6934"/><text fill="#000000" font-family="sans-serif" font-size="14" font-style="italic" lengthAdjust="spacing" textLength="95" x="358" y="775.8008">&#171;presentation&#187;</text><text fill="#000000" font-family="sans-serif" font-size="14" lengthAdjust="spacing" textLength="219" x="296" y="794.4219">: ListDetailsApplicationCandidateUI</text><rect fill="#E2E2F0" height="51.2422" rx="2.5" ry="2.5" style="stroke:#181818;stroke-width:0.5;" width="150" x="620.5" y="75.6211"/><text fill="#000000" font-family="sans-serif" font-size="14" font-style="italic" lengthAdjust="spacing" textLength="84" x="653.5" y="97.7285">&#171;application&#187;</text><text fill="#000000" font-family="sans-serif" font-size="14" lengthAdjust="spacing" textLength="136" x="627.5" y="116.3496">: ApplicationControler</text><rect fill="#E2E2F0" height="51.2422" rx="2.5" ry="2.5" style="stroke:#181818;stroke-width:0.5;" width="150" x="620.5" y="753.6934"/><text fill="#000000" font-family="sans-serif" font-size="14" font-style="italic" lengthAdjust="spacing" textLength="84" x="653.5" y="775.8008">&#171;application&#187;</text><text fill="#000000" font-family="sans-serif" font-size="14" lengthAdjust="spacing" textLength="136" x="627.5" y="794.4219">: ApplicationControler</text><rect fill="#E2E2F0" height="51.2422" rx="2.5" ry="2.5" style="stroke:#181818;stroke-width:0.5;" width="138" x="895.5" y="75.6211"/><text fill="#000000" font-family="sans-serif" font-size="14" font-style="italic" lengthAdjust="spacing" textLength="60" x="934.5" y="97.7285">&#171;service&#187;</text><text fill="#000000" font-family="sans-serif" font-size="14" lengthAdjust="spacing" textLength="124" x="902.5" y="116.3496">: ApplicationService</text><rect fill="#E2E2F0" height="51.2422" rx="2.5" ry="2.5" style="stroke:#181818;stroke-width:0.5;" width="138" x="895.5" y="753.6934"/><text fill="#000000" font-family="sans-serif" font-size="14" font-style="italic" lengthAdjust="spacing" textLength="60" x="934.5" y="775.8008">&#171;service&#187;</text><text fill="#000000" font-family="sans-serif" font-size="14" lengthAdjust="spacing" textLength="124" x="902.5" y="794.4219">: ApplicationService</text><text fill="#000000" font-family="sans-serif" font-size="14" font-style="italic" lengthAdjust="spacing" textLength="79" x="1191" y="105.7285">&#171;repository&#187;</text><text fill="#000000" font-family="sans-serif" font-size="14" lengthAdjust="spacing" textLength="137" x="1162" y="124.3496">ApplicationRepository</text><path d="M1215.5,54.6211 C1215.5,44.6211 1233.5,44.6211 1233.5,44.6211 C1233.5,44.6211 1251.5,44.6211 1251.5,54.6211 L1251.5,80.6211 C1251.5,90.6211 1233.5,90.6211 1233.5,90.6211 C1233.5,90.6211 1215.5,90.6211 1215.5,80.6211 L1215.5,54.6211 " fill="#E2E2F0" style="stroke:#181818;stroke-width:1.5;"/><path d="M1215.5,54.6211 C1215.5,64.6211 1233.5,64.6211 1233.5,64.6211 C1233.5,64.6211 1251.5,64.6211 1251.5,54.6211 " fill="none" style="stroke:#181818;stroke-width:1.5;"/><text fill="#000000" font-family="sans-serif" font-size="14" font-style="italic" lengthAdjust="spacing" textLength="79" x="1191" y="768.8008">&#171;repository&#187;</text><text fill="#000000" font-family="sans-serif" font-size="14" lengthAdjust="spacing" textLength="137" x="1162" y="787.4219">ApplicationRepository</text><path d="M1215.5,800.9355 C1215.5,790.9355 1233.5,790.9355 1233.5,790.9355 C1233.5,790.9355 1251.5,790.9355 1251.5,800.9355 L1251.5,826.9355 C1251.5,836.9355 1233.5,836.9355 1233.5,836.9355 C1233.5,836.9355 1215.5,836.9355 1215.5,826.9355 L1215.5,800.9355 " fill="#E2E2F0" style="stroke:#181818;stroke-width:1.5;"/><path d="M1215.5,800.9355 C1215.5,810.9355 1233.5,810.9355 1233.5,810.9355 C1233.5,810.9355 1251.5,810.9355 1251.5,800.9355 " fill="none" style="stroke:#181818;stroke-width:1.5;"/><text fill="#000000" font-family="sans-serif" font-size="14" font-style="italic" lengthAdjust="spacing" textLength="79" x="1347.5" y="105.7285">&#171;repository&#187;</text><text fill="#000000" font-family="sans-serif" font-size="14" lengthAdjust="spacing" textLength="144" x="1315" y="124.3496">JobOpeningRepository</text><path d="M1372,54.6211 C1372,44.6211 1390,44.6211 1390,44.6211 C1390,44.6211 1408,44.6211 1408,54.6211 L1408,80.6211 C1408,90.6211 1390,90.6211 1390,90.6211 C1390,90.6211 1372,90.6211 1372,80.6211 L1372,54.6211 " fill="#E2E2F0" style="stroke:#181818;stroke-width:1.5;"/><path d="M1372,54.6211 C1372,64.6211 1390,64.6211 1390,64.6211 C1390,64.6211 1408,64.6211 1408,54.6211 " fill="none" style="stroke:#181818;stroke-width:1.5;"/><text fill="#000000" font-family="sans-serif" font-size="14" font-style="italic" lengthAdjust="spacing" textLength="79" x="1347.5" y="768.8008">&#171;repository&#187;</text><text fill="#000000" font-family="sans-serif" font-size="14" lengthAdjust="spacing" textLength="144" x="1315" y="787.4219">JobOpeningRepository</text><path d="M1372,800.9355 C1372,790.9355 1390,790.9355 1390,790.9355 C1390,790.9355 1408,790.9355 1408,800.9355 L1408,826.9355 C1408,836.9355 1390,836.9355 1390,836.9355 C1390,836.9355 1372,836.9355 1372,826.9355 L1372,800.9355 " fill="#E2E2F0" style="stroke:#181818;stroke-width:1.5;"/><path d="M1372,800.9355 C1372,810.9355 1390,810.9355 1390,810.9355 C1390,810.9355 1408,810.9355 1408,800.9355 " fill="none" style="stroke:#181818;stroke-width:1.5;"/><rect fill="#FFFFFF" height="598.8301" style="stroke:#181818;stroke-width:1.0;" width="10" x="61.5" y="137.8633"/><rect fill="#FFFFFF" height="495.3652" style="stroke:#181818;stroke-width:1.0;" width="10" x="400.5" y="241.3281"/><rect fill="#FFFFFF" height="200.7461" style="stroke:#181818;stroke-width:1.0;" width="10" x="690.5" y="272.6191"/><rect fill="#FFFFFF" height="200.7461" style="stroke:#181818;stroke-width:1.0;" width="10" x="690.5" y="504.6563"/><rect fill="#FFFFFF" height="138.1641" style="stroke:#181818;stroke-width:1.0;" width="10" x="959.5" y="303.9102"/><rect fill="#FFFFFF" height="138.1641" style="stroke:#181818;stroke-width:1.0;" width="10" x="959.5" y="535.9473"/><rect fill="#FFFFFF" height="75.582" style="stroke:#181818;stroke-width:1.0;" width="10" x="1228.5" y="567.2383"/><rect fill="#FFFFFF" height="75.582" style="stroke:#181818;stroke-width:1.0;" width="10" x="1385" y="335.2012"/><rect fill="none" height="75.1738" style="stroke:#000000;stroke-width:1.5;" width="129" x="2" y="137.8633"/><path d="M2,137.8633 L64,137.8633 L64,146.8633 L54,156.8633 L2,156.8633 L2,137.8633 " fill="#EEEEEE" style="stroke:#000000;stroke-width:2.0;"/><text fill="#000000" font-family="sans-serif" font-size="13" font-weight="bold" lengthAdjust="spacing" textLength="17" x="15" y="153.8916">ref</text><text fill="#000000" font-family="sans-serif" font-size="12" lengthAdjust="spacing" textLength="3" x="65" y="173.8125">&#160;</text><text fill="#000000" font-family="sans-serif" font-size="12" lengthAdjust="spacing" textLength="39" x="47" y="189.7734">UC014</text><text fill="#000000" font-family="sans-serif" font-size="12" lengthAdjust="spacing" textLength="3" x="65" y="205.7344">&#160;</text><polygon fill="#181818" points="388.5,237.3281,398.5,241.3281,388.5,245.3281,392.5,241.3281" style="stroke:#181818;stroke-width:1.0;"/><line style="stroke:#181818;stroke-width:1.0;" x1="71.5" x2="394.5" y1="241.3281" y2="241.3281"/><text fill="#000000" font-family="sans-serif" font-size="13" lengthAdjust="spacing" textLength="310" x="78.5" y="236.0654">want to display details candidates with application list</text><polygon fill="#181818" points="678.5,268.6191,688.5,272.6191,678.5,276.6191,682.5,272.6191" style="stroke:#181818;stroke-width:1.0;"/><line style="stroke:#181818;stroke-width:1.0;" x1="410.5" x2="684.5" y1="272.6191" y2="272.6191"/><text fill="#000000" font-family="sans-serif" font-size="13" lengthAdjust="spacing" textLength="261" x="417.5" y="267.3564">displayApplicationsByCandidateId(username)</text><polygon fill="#181818" points="947.5,299.9102,957.5,303.9102,947.5,307.9102,951.5,303.9102" style="stroke:#181818;stroke-width:1.0;"/><line style="stroke:#181818;stroke-width:1.0;" x1="700.5" x2="953.5" y1="303.9102" y2="303.9102"/><text fill="#000000" font-family="sans-serif" font-size="13" lengthAdjust="spacing" textLength="240" x="707.5" y="298.6475">findApplicationsByCandidateId(username)</text><polygon fill="#181818" points="1373,331.2012,1383,335.2012,1373,339.2012,1377,335.2012" style="stroke:#181818;stroke-width:1.0;"/><line style="stroke:#181818;stroke-width:1.0;" x1="969.5" x2="1379" y1="335.2012" y2="335.2012"/><text fill="#000000" font-family="sans-serif" font-size="13" lengthAdjust="spacing" textLength="240" x="976.5" y="329.9385">findApplicationsByCandidateId(username)</text><line style="stroke:#181818;stroke-width:1.0;stroke-dasharray:2.0,2.0;" x1="1395" x2="1437" y1="366.4922" y2="366.4922"/><line style="stroke:#181818;stroke-width:1.0;stroke-dasharray:2.0,2.0;" x1="1437" x2="1437" y1="366.4922" y2="379.4922"/><line style="stroke:#181818;stroke-width:1.0;stroke-dasharray:2.0,2.0;" x1="1396" x2="1437" y1="379.4922" y2="379.4922"/><polygon fill="#181818" points="1406,375.4922,1396,379.4922,1406,383.4922,1402,379.4922" style="stroke:#181818;stroke-width:1.0;"/><text fill="#000000" font-family="sans-serif" font-size="13" lengthAdjust="spacing" textLength="162" x="1402" y="361.2295">select(jobReference, status)</text><polygon fill="#181818" points="980.5,406.7832,970.5,410.7832,980.5,414.7832,976.5,410.7832" style="stroke:#181818;stroke-width:1.0;"/><line style="stroke:#181818;stroke-width:1.0;stroke-dasharray:2.0,2.0;" x1="974.5" x2="1389" y1="410.7832" y2="410.7832"/><text fill="#000000" font-family="sans-serif" font-size="13" lengthAdjust="spacing" textLength="119" x="986.5" y="405.5205">jobReference, status</text><polygon fill="#181818" points="711.5,438.0742,701.5,442.0742,711.5,446.0742,707.5,442.0742" style="stroke:#181818;stroke-width:1.0;"/><line style="stroke:#181818;stroke-width:1.0;stroke-dasharray:2.0,2.0;" x1="705.5" x2="963.5" y1="442.0742" y2="442.0742"/><text fill="#000000" font-family="sans-serif" font-size="13" lengthAdjust="spacing" textLength="119" x="717.5" y="436.8115">jobReference, status</text><polygon fill="#181818" points="421.5,469.3652,411.5,473.3652,421.5,477.3652,417.5,473.3652" style="stroke:#181818;stroke-width:1.0;"/><line style="stroke:#181818;stroke-width:1.0;stroke-dasharray:2.0,2.0;" x1="415.5" x2="694.5" y1="473.3652" y2="473.3652"/><text fill="#000000" font-family="sans-serif" font-size="13" lengthAdjust="spacing" textLength="119" x="427.5" y="468.1025">jobReference, status</text><polygon fill="#181818" points="678.5,500.6563,688.5,504.6563,678.5,508.6563,682.5,504.6563" style="stroke:#181818;stroke-width:1.0;"/><line style="stroke:#181818;stroke-width:1.0;" x1="410.5" x2="684.5" y1="504.6563" y2="504.6563"/><text fill="#000000" font-family="sans-serif" font-size="13" lengthAdjust="spacing" textLength="261" x="417.5" y="499.3936">displayApplicationsByCandidateId(username)</text><polygon fill="#181818" points="947.5,531.9473,957.5,535.9473,947.5,539.9473,951.5,535.9473" style="stroke:#181818;stroke-width:1.0;"/><line style="stroke:#181818;stroke-width:1.0;" x1="700.5" x2="953.5" y1="535.9473" y2="535.9473"/><text fill="#000000" font-family="sans-serif" font-size="13" lengthAdjust="spacing" textLength="240" x="707.5" y="530.6846">findApplicationsByCandidateId(username)</text><polygon fill="#181818" points="1216.5,563.2383,1226.5,567.2383,1216.5,571.2383,1220.5,567.2383" style="stroke:#181818;stroke-width:1.0;"/><line style="stroke:#181818;stroke-width:1.0;" x1="969.5" x2="1222.5" y1="567.2383" y2="567.2383"/><text fill="#000000" font-family="sans-serif" font-size="13" lengthAdjust="spacing" textLength="240" x="976.5" y="561.9756">findApplicationsByCandidateId(username)</text><line style="stroke:#181818;stroke-width:1.0;stroke-dasharray:2.0,2.0;" x1="1238.5" x2="1280.5" y1="598.5293" y2="598.5293"/><line style="stroke:#181818;stroke-width:1.0;stroke-dasharray:2.0,2.0;" x1="1280.5" x2="1280.5" y1="598.5293" y2="611.5293"/><line style="stroke:#181818;stroke-width:1.0;stroke-dasharray:2.0,2.0;" x1="1239.5" x2="1280.5" y1="611.5293" y2="611.5293"/><polygon fill="#181818" points="1249.5,607.5293,1239.5,611.5293,1249.5,615.5293,1245.5,611.5293" style="stroke:#181818;stroke-width:1.0;"/><text fill="#000000" font-family="sans-serif" font-size="13" lengthAdjust="spacing" textLength="68" x="1245.5" y="593.2666">select(date)</text><polygon fill="#181818" points="980.5,638.8203,970.5,642.8203,980.5,646.8203,976.5,642.8203" style="stroke:#181818;stroke-width:1.0;"/><line style="stroke:#181818;stroke-width:1.0;stroke-dasharray:2.0,2.0;" x1="974.5" x2="1232.5" y1="642.8203" y2="642.8203"/><text fill="#000000" font-family="sans-serif" font-size="13" lengthAdjust="spacing" textLength="25" x="986.5" y="637.5576">date</text><polygon fill="#181818" points="711.5,670.1113,701.5,674.1113,711.5,678.1113,707.5,674.1113" style="stroke:#181818;stroke-width:1.0;"/><line style="stroke:#181818;stroke-width:1.0;stroke-dasharray:2.0,2.0;" x1="705.5" x2="963.5" y1="674.1113" y2="674.1113"/><text fill="#000000" font-family="sans-serif" font-size="13" lengthAdjust="spacing" textLength="25" x="717.5" y="668.8486">date</text><polygon fill="#181818" points="421.5,701.4023,411.5,705.4023,421.5,709.4023,417.5,705.4023" style="stroke:#181818;stroke-width:1.0;"/><line style="stroke:#181818;stroke-width:1.0;stroke-dasharray:2.0,2.0;" x1="415.5" x2="694.5" y1="705.4023" y2="705.4023"/><text fill="#000000" font-family="sans-serif" font-size="13" lengthAdjust="spacing" textLength="25" x="427.5" y="700.1396">date</text><polygon fill="#181818" points="77.5,732.6934,67.5,736.6934,77.5,740.6934,73.5,736.6934" style="stroke:#181818;stroke-width:1.0;"/><line style="stroke:#181818;stroke-width:1.0;stroke-dasharray:2.0,2.0;" x1="71.5" x2="404.5" y1="736.6934" y2="736.6934"/><text fill="#000000" font-family="sans-serif" font-size="13" lengthAdjust="spacing" textLength="149" x="83.5" y="731.4307">display list of applications</text><!--SRC=[lPR1Zjem48RlUOeHbu9KfAtKNX12seKBLL6hHVi0Gp81TusTsWPAdxvZAC604y9IhKznFFxdoup_9FPLg08DBg70z1NdD7LRIM0eTQZcaX9R1jW5PdeZr1nob3PSaKAHsnO4XPPRFqc2nLIYjO_E6J5REHgdMat57uA79772SQef_LgHIWb60kT-Gtiwwa0NNeOFdxua7nOY8yYrTZFzEy7KQGEjuSewlIGpGSN4fWLeOJX9E9yJgIXGEMZru9kmRaGEXRIFHI55YaveDKILYGmTlOnt-tpK3p9MAvGZT1YiGxzV6BAat6xdO72U8PJLoXaj3p3x6KzP0uzHjH9JCckHqaxWyZQmajrViah2X3X3Is7aCnNQ2gxGzamYMEZtJJbXdLBcgvvzBqXnTqzLelVFH1BWOIW7lUO7vaRiRlZ-VTvVaihy-dx2FHHhhcyPwCTm0jr1RIzwiF4bSneoOGk9MyZslONq46LX8zm2WdhpoRJkcALCNPFe6Er77H431trcm7zWGU7jqxRSCSxQAswWmYLrJfESLgMKl0mAqd7oo1dfGIvKrWG08gDak5HEeXiE8qB2VD6ZSn_X2MLClvxJZoXLjnhNakHtOVkddZrJJiQ_gJw2vJV2odRUdYpQkrYEoXGPtL68MCDEZ_CDD059quCJ7kIhlcy44a3KEUZT_DpOq-_WwxkyNUtl-0VcVjGgt5jSVaPTxRwOrprfv_-bE3RH2zVgngrqouCtSNOjnXlSVBEZAm4QklYga_qJJuuEtlq6WCx3NmCRo0Pfh_uPX8YJv2y0]--></g></svg>