<?xml version="1.0" encoding="us-ascii" standalone="no"?><svg xmlns="http://www.w3.org/2000/svg" xmlns:xlink="http://www.w3.org/1999/xlink" contentStyleType="text/css" height="287px" preserveAspectRatio="none" style="width:538px;height:287px;background:#FFFFFF;" version="1.1" viewBox="0 0 538 287" width="538px" zoomAndPan="magnify"><defs/><g><text fill="#000000" font-family="sans-serif" font-size="14" font-weight="bold" lengthAdjust="spacing" textLength="194" x="165" y="25.1074">Domain Model (DM) - UC004</text><!--cluster SystemUserAggregate--><g id="cluster_SystemUserAggregate"><rect fill="none" height="235" rx="2.5" ry="2.5" style="stroke:#000000;stroke-width:1.5;" width="525" x="7" y="46.6211"/><text fill="#000000" font-family="sans-serif" font-size="14" font-weight="bold" lengthAdjust="spacing" textLength="156" x="191.5" y="63.7285">SystemUserAggregate</text></g><!--class EmailAddress--><g id="elem_EmailAddress"><rect codeLine="12" fill="#F1F1F1" height="68.543" id="EmailAddress" rx="2.5" ry="2.5" style="stroke:#181818;stroke-width:0.5;" width="92" x="343" y="196.6211"/><text fill="#000000" font-family="sans-serif" font-size="12" font-style="italic" lengthAdjust="spacing" textLength="44" x="367" y="214.5703">&#171;value&#187;</text><text fill="#000000" font-family="sans-serif" font-size="12" font-style="italic" lengthAdjust="spacing" textLength="24" x="377" y="230.5313">&#171;id&#187;</text><text fill="#000000" font-family="sans-serif" font-size="14" lengthAdjust="spacing" textLength="86" x="346" y="248.6504">EmailAddress</text><line style="stroke:#181818;stroke-width:0.5;" x1="344" x2="434" y1="257.1641" y2="257.1641"/></g><!--class SystemUser--><g id="elem_SystemUser"><rect codeLine="14" fill="#F1F1F1" height="52.582" id="SystemUser" rx="2.5" ry="2.5" style="stroke:#181818;stroke-width:0.5;" width="81" x="348.5" y="83.6211"/><text fill="#000000" font-family="sans-serif" font-size="12" font-style="italic" lengthAdjust="spacing" textLength="35" x="371.5" y="101.5703">&#171;root&#187;</text><text fill="#000000" font-family="sans-serif" font-size="14" lengthAdjust="spacing" textLength="75" x="351.5" y="119.6895">SystemUser</text><line style="stroke:#181818;stroke-width:0.5;" x1="349.5" x2="428.5" y1="128.2031" y2="128.2031"/></g><!--class Name--><g id="elem_Name"><rect codeLine="16" fill="#F1F1F1" height="52.582" id="Name" rx="2.5" ry="2.5" style="stroke:#181818;stroke-width:0.5;" width="46" x="470" y="204.6211"/><text fill="#000000" font-family="sans-serif" font-size="12" font-style="italic" lengthAdjust="spacing" textLength="44" x="471" y="222.5703">&#171;value&#187;</text><text fill="#000000" font-family="sans-serif" font-size="14" lengthAdjust="spacing" textLength="36" x="475" y="240.6895">Name</text><line style="stroke:#181818;stroke-width:0.5;" x1="471" x2="515" y1="249.2031" y2="249.2031"/></g><!--class RoleSet--><g id="elem_RoleSet"><rect codeLine="24" fill="#F1F1F1" height="52.582" id="RoleSet" rx="2.5" ry="2.5" style="stroke:#181818;stroke-width:0.5;" width="56" x="209" y="83.6211"/><text fill="#000000" font-family="sans-serif" font-size="12" font-style="italic" lengthAdjust="spacing" textLength="44" x="215" y="101.5703">&#171;value&#187;</text><text fill="#000000" font-family="sans-serif" font-size="14" lengthAdjust="spacing" textLength="50" x="212" y="119.6895">RoleSet</text><line style="stroke:#181818;stroke-width:0.5;" x1="210" x2="264" y1="128.2031" y2="128.2031"/></g><!--class RoleAssignment--><g id="elem_RoleAssignment"><rect codeLine="20" fill="#F1F1F1" height="52.582" id="RoleAssignment" rx="2.5" ry="2.5" style="stroke:#181818;stroke-width:0.5;" width="108" x="23" y="204.6211"/><text fill="#000000" font-family="sans-serif" font-size="12" font-style="italic" lengthAdjust="spacing" textLength="43" x="55.5" y="222.5703">&#171;entity&#187;</text><text fill="#000000" font-family="sans-serif" font-size="14" lengthAdjust="spacing" textLength="102" x="26" y="240.6895">RoleAssignment</text><line style="stroke:#181818;stroke-width:0.5;" x1="24" x2="130" y1="249.2031" y2="249.2031"/></g><!--class Role--><g id="elem_Role"><rect codeLine="22" fill="#F1F1F1" height="52.582" id="Role" rx="2.5" ry="2.5" style="stroke:#181818;stroke-width:0.5;" width="46" x="54" y="83.6211"/><text fill="#000000" font-family="sans-serif" font-size="12" font-style="italic" lengthAdjust="spacing" textLength="44" x="55" y="101.5703">&#171;value&#187;</text><text fill="#000000" font-family="sans-serif" font-size="14" lengthAdjust="spacing" textLength="29" x="62.5" y="119.6895">Role</text><line style="stroke:#181818;stroke-width:0.5;" x1="55" x2="99" y1="128.2031" y2="128.2031"/></g><!--class Set--><g id="elem_Set"><rect codeLine="26" fill="#F1F1F1" height="52.582" id="Set" rx="2.5" ry="2.5" style="stroke:#181818;stroke-width:0.5;" width="141" x="166.5" y="204.6211"/><text fill="#000000" font-family="sans-serif" font-size="12" font-style="italic" lengthAdjust="spacing" textLength="44" x="167.5" y="222.5703">&#171;value&#187;</text><text fill="#000000" font-family="sans-serif" font-size="14" lengthAdjust="spacing" textLength="21" x="179" y="240.6895">Set</text><rect fill="#FFFFFF" height="17.9609" style="stroke:#181818;stroke-width:1.0;stroke-dasharray:2.0,2.0;" width="93" x="217.5" y="201.6211"/><text fill="#000000" font-family="sans-serif" font-size="12" font-style="italic" lengthAdjust="spacing" textLength="91" x="218.5" y="215.5703">RoleAssignment</text><line style="stroke:#181818;stroke-width:0.5;" x1="167.5" x2="306.5" y1="249.2031" y2="249.2031"/></g><!--link SystemUser to Name--><g id="link_SystemUser_Name"><path codeLine="29" d="M411.31,136.6511 C428.74,156.5911 448.911,179.6738 466.421,199.7038 " fill="none" id="SystemUser-to-Name" style="stroke:#181818;stroke-width:1.0;"/><polygon fill="#181818" points="470.37,204.2211,467.4581,194.8125,467.0792,200.4567,461.4351,200.0778,470.37,204.2211" style="stroke:#181818;stroke-width:1.0;"/></g><!--link SystemUser to EmailAddress--><g id="link_SystemUser_EmailAddress"><path codeLine="30" d="M389,136.6511 C389,154.1311 389,171.5011 389,190.5011 " fill="none" id="SystemUser-to-EmailAddress" style="stroke:#181818;stroke-width:1.0;"/><polygon fill="#181818" points="389,196.5011,393,187.5011,389,191.5011,385,187.5011,389,196.5011" style="stroke:#181818;stroke-width:1.0;"/></g><!--reverse link RoleSet to SystemUser--><g id="link_RoleSet_SystemUser"><path codeLine="31" d="M271.2,110.1211 C298.93,110.1211 320.65,110.1211 348.38,110.1211 " fill="none" id="RoleSet-backto-SystemUser" style="stroke:#181818;stroke-width:1.0;"/><polygon fill="#181818" points="265.2,110.1211,274.2,114.1211,270.2,110.1211,274.2,106.1211,265.2,110.1211" style="stroke:#181818;stroke-width:1.0;"/></g><!--link RoleSet to Set--><g id="link_RoleSet_Set"><path codeLine="32" d="M237,136.6511 C237,156.5911 237,166.1911 237,186.2211 " fill="none" id="RoleSet-to-Set" style="stroke:#181818;stroke-width:1.0;stroke-dasharray:7.0,7.0;"/><polygon fill="none" points="237,204.2211,243,186.2211,231,186.2211,237,204.2211" style="stroke:#181818;stroke-width:1.0;"/></g><!--link RoleSet to RoleAssignment--><g id="link_RoleSet_RoleAssignment"><path codeLine="33" d="M208.76,132.1211 C181.58,152.3411 145.2345,179.3705 116.1645,200.9905 " fill="none" id="RoleSet-to-RoleAssignment" style="stroke:#181818;stroke-width:1.0;stroke-dasharray:7.0,7.0;"/><polygon fill="#181818" points="111.35,204.5711,120.9588,202.4098,115.3621,201.5872,116.1846,195.9905,111.35,204.5711" style="stroke:#181818;stroke-width:1.0;"/></g><!--reverse link Role to RoleAssignment--><g id="link_Role_RoleAssignment"><path codeLine="34" d="M77,142.6511 C77,162.5911 77,184.1911 77,204.2211 " fill="none" id="Role-backto-RoleAssignment" style="stroke:#181818;stroke-width:1.0;"/><polygon fill="#181818" points="77,136.6511,73,145.6511,77,141.6511,81,145.6511,77,136.6511" style="stroke:#181818;stroke-width:1.0;"/></g><!--SRC=[dP4zJyCm48Rt-nKtmf2e0sDaAQ8C36KWwWymzjMnwe_AleB2nt_73OKcGInuiCxtl7xlpivx6muoIOy7gVRIKCU38qoaM0RZ2FAF8FTInnSR3EwaomGJf9pCkMLEzkd8TAzYwEmhuGgWjvfGsQIArHXxuZxg3C2MIw5rzD86t4HD3g_McskiS7kxMjq0d1l2RiXCVfifjSOaCf89tm3B6ilYNN5mhTQ9og5fdgKxaX0bibe8c0WlHWMc67cE7wIdo_qfUOoEEkA_OPkpDS5JE6dARdduBVg7Tm7Dt5zCX1y0av6gIemZB7FJvvapHpikWdC7yDr9NRyBd2NAjuTQB2Q5hvcg4woMx1C0]--></g></svg>