<?xml version="1.0" encoding="us-ascii" standalone="no"?><svg xmlns="http://www.w3.org/2000/svg" xmlns:xlink="http://www.w3.org/1999/xlink" contentStyleType="text/css" height="786px" preserveAspectRatio="none" style="width:986px;height:786px;background:#FFFFFF;" version="1.1" viewBox="0 0 986 786" width="986px" zoomAndPan="magnify"><defs/><g><text fill="#000000" font-family="sans-serif" font-size="14" font-weight="bold" lengthAdjust="spacing" textLength="285" x="350.25" y="30.1074">System Sequence Diagram (SSD) - UC020</text><rect fill="#FFFFFF" height="544.9473" style="stroke:#181818;stroke-width:1.0;" width="10" x="76.5" y="133.2422"/><rect fill="#FFFFFF" height="75.582" style="stroke:#181818;stroke-width:1.0;" width="10" x="701.5" y="156.5332"/><rect fill="#FFFFFF" height="57.582" style="stroke:#181818;stroke-width:1.0;" width="10" x="701.5" y="263.4063"/><rect fill="#FFFFFF" height="31.291" style="stroke:#181818;stroke-width:1.0;" width="10" x="701.5" y="352.2793"/><rect fill="#FFFFFF" height="31.291" style="stroke:#181818;stroke-width:1.0;" width="10" x="701.5" y="414.8613"/><rect fill="#FFFFFF" height="31.291" style="stroke:#181818;stroke-width:1.0;" width="10" x="701.5" y="477.4434"/><rect fill="#FFFFFF" height="31.291" style="stroke:#181818;stroke-width:1.0;" width="10" x="701.5" y="540.0254"/><rect fill="#FFFFFF" height="31.291" style="stroke:#181818;stroke-width:1.0;" width="10" x="701.5" y="602.6074"/><rect fill="none" height="363.4922" style="stroke:#000000;stroke-width:1.5;" width="738.5" x="10" y="278.4063"/><line style="stroke:#181818;stroke-width:0.5;stroke-dasharray:5.0,5.0;" x1="81" x2="81" y1="123.2422" y2="703.1895"/><line style="stroke:#181818;stroke-width:0.5;stroke-dasharray:5.0,5.0;" x1="706.5" x2="706.5" y1="123.2422" y2="703.1895"/><text fill="#000000" font-family="sans-serif" font-size="14" lengthAdjust="spacing" textLength="117" x="20" y="119.7285">CustomerManager</text><ellipse cx="81.5" cy="53.1211" fill="#E3E3E3" rx="8" ry="8" style="stroke:#181818;stroke-width:0.5;"/><path d="M81.5,61.1211 L81.5,88.1211 M68.5,69.1211 L94.5,69.1211 M81.5,88.1211 L68.5,103.1211 M81.5,88.1211 L94.5,103.1211 " fill="none" style="stroke:#181818;stroke-width:0.5;"/><text fill="#000000" font-family="sans-serif" font-size="14" lengthAdjust="spacing" textLength="117" x="20" y="717.2969">CustomerManager</text><ellipse cx="81.5" cy="729.3105" fill="#E3E3E3" rx="8" ry="8" style="stroke:#181818;stroke-width:0.5;"/><path d="M81.5,737.3105 L81.5,764.3105 M68.5,745.3105 L94.5,745.3105 M81.5,764.3105 L68.5,779.3105 M81.5,764.3105 L94.5,779.3105 " fill="none" style="stroke:#181818;stroke-width:0.5;"/><rect fill="#E3E3E3" height="32.6211" rx="2.5" ry="2.5" style="stroke:#181818;stroke-width:0.5;" width="64" x="674.5" y="89.6211"/><text fill="#000000" font-family="sans-serif" font-size="14" lengthAdjust="spacing" textLength="50" x="681.5" y="111.7285">:System</text><rect fill="#E3E3E3" height="32.6211" rx="2.5" ry="2.5" style="stroke:#181818;stroke-width:0.5;" width="64" x="674.5" y="702.1895"/><text fill="#000000" font-family="sans-serif" font-size="14" lengthAdjust="spacing" textLength="50" x="681.5" y="724.2969">:System</text><rect fill="#FFFFFF" height="544.9473" style="stroke:#181818;stroke-width:1.0;" width="10" x="76.5" y="133.2422"/><rect fill="#FFFFFF" height="75.582" style="stroke:#181818;stroke-width:1.0;" width="10" x="701.5" y="156.5332"/><rect fill="#FFFFFF" height="57.582" style="stroke:#181818;stroke-width:1.0;" width="10" x="701.5" y="263.4063"/><rect fill="#FFFFFF" height="31.291" style="stroke:#181818;stroke-width:1.0;" width="10" x="701.5" y="352.2793"/><rect fill="#FFFFFF" height="31.291" style="stroke:#181818;stroke-width:1.0;" width="10" x="701.5" y="414.8613"/><rect fill="#FFFFFF" height="31.291" style="stroke:#181818;stroke-width:1.0;" width="10" x="701.5" y="477.4434"/><rect fill="#FFFFFF" height="31.291" style="stroke:#181818;stroke-width:1.0;" width="10" x="701.5" y="540.0254"/><rect fill="#FFFFFF" height="31.291" style="stroke:#181818;stroke-width:1.0;" width="10" x="701.5" y="602.6074"/><polygon fill="#181818" points="689.5,152.5332,699.5,156.5332,689.5,160.5332,693.5,156.5332" style="stroke:#181818;stroke-width:1.0;"/><line style="stroke:#181818;stroke-width:1.0;" x1="86.5" x2="695.5" y1="156.5332" y2="156.5332"/><text fill="#000000" font-family="sans-serif" font-size="13" lengthAdjust="spacing" textLength="31" x="93.5" y="151.2705">Login</text><line style="stroke:#181818;stroke-width:1.0;" x1="711.5" x2="753.5" y1="187.8242" y2="187.8242"/><line style="stroke:#181818;stroke-width:1.0;" x1="753.5" x2="753.5" y1="187.8242" y2="200.8242"/><line style="stroke:#181818;stroke-width:1.0;" x1="712.5" x2="753.5" y1="200.8242" y2="200.8242"/><polygon fill="#181818" points="722.5,196.8242,712.5,200.8242,722.5,204.8242,718.5,200.8242" style="stroke:#181818;stroke-width:1.0;"/><text fill="#000000" font-family="sans-serif" font-size="13" lengthAdjust="spacing" textLength="78" x="718.5" y="182.5615">Validate login</text><polygon fill="#181818" points="97.5,228.1152,87.5,232.1152,97.5,236.1152,93.5,232.1152" style="stroke:#181818;stroke-width:1.0;"/><line style="stroke:#181818;stroke-width:1.0;stroke-dasharray:2.0,2.0;" x1="91.5" x2="705.5" y1="232.1152" y2="232.1152"/><text fill="#000000" font-family="sans-serif" font-size="13" lengthAdjust="spacing" textLength="455" x="103.5" y="226.8525">Allow access to the backoffice application with customer manager permissions</text><polygon fill="#181818" points="689.5,259.4063,699.5,263.4063,689.5,267.4063,693.5,263.4063" style="stroke:#181818;stroke-width:1.0;"/><line style="stroke:#181818;stroke-width:1.0;" x1="86.5" x2="695.5" y1="263.4063" y2="263.4063"/><text fill="#000000" font-family="sans-serif" font-size="13" lengthAdjust="spacing" textLength="596" x="93.5" y="258.1436">Select the option to generate and export a template text file with candidate answers during an interview.</text><path d="M10,278.4063 L83,278.4063 L83,287.6973 L73,297.6973 L10,297.6973 L10,278.4063 " fill="#EEEEEE" style="stroke:#000000;stroke-width:1.5;"/><rect fill="none" height="363.4922" style="stroke:#000000;stroke-width:1.5;" width="738.5" x="10" y="278.4063"/><text fill="#000000" font-family="sans-serif" font-size="13" font-weight="bold" lengthAdjust="spacing" textLength="28" x="25" y="293.4346">loop</text><text fill="#000000" font-family="sans-serif" font-size="11" font-weight="bold" lengthAdjust="spacing" textLength="280" x="98" y="292.2764">[while customer manager wants to add questions]</text><polygon fill="#181818" points="97.5,316.9883,87.5,320.9883,97.5,324.9883,93.5,320.9883" style="stroke:#181818;stroke-width:1.0;"/><line style="stroke:#181818;stroke-width:1.0;stroke-dasharray:2.0,2.0;" x1="91.5" x2="705.5" y1="320.9883" y2="320.9883"/><text fill="#000000" font-family="sans-serif" font-size="13" lengthAdjust="spacing" textLength="395" x="103.5" y="315.7256">Ask for question type, after showing a list of available question types</text><polygon fill="#181818" points="689.5,348.2793,699.5,352.2793,689.5,356.2793,693.5,352.2793" style="stroke:#181818;stroke-width:1.0;"/><line style="stroke:#181818;stroke-width:1.0;" x1="86.5" x2="695.5" y1="352.2793" y2="352.2793"/><text fill="#000000" font-family="sans-serif" font-size="13" lengthAdjust="spacing" textLength="141" x="93.5" y="347.0166">Select the question type</text><polygon fill="#181818" points="97.5,379.5703,87.5,383.5703,97.5,387.5703,93.5,383.5703" style="stroke:#181818;stroke-width:1.0;"/><line style="stroke:#181818;stroke-width:1.0;stroke-dasharray:2.0,2.0;" x1="91.5" x2="705.5" y1="383.5703" y2="383.5703"/><text fill="#000000" font-family="sans-serif" font-size="13" lengthAdjust="spacing" textLength="142" x="103.5" y="378.3076">Ask for the question text</text><polygon fill="#181818" points="689.5,410.8613,699.5,414.8613,689.5,418.8613,693.5,414.8613" style="stroke:#181818;stroke-width:1.0;"/><line style="stroke:#181818;stroke-width:1.0;" x1="86.5" x2="695.5" y1="414.8613" y2="414.8613"/><text fill="#000000" font-family="sans-serif" font-size="13" lengthAdjust="spacing" textLength="132" x="93.5" y="409.5986">Enter the question text</text><polygon fill="#181818" points="97.5,442.1523,87.5,446.1523,97.5,450.1523,93.5,446.1523" style="stroke:#181818;stroke-width:1.0;"/><line style="stroke:#181818;stroke-width:1.0;stroke-dasharray:2.0,2.0;" x1="91.5" x2="705.5" y1="446.1523" y2="446.1523"/><text fill="#000000" font-family="sans-serif" font-size="13" lengthAdjust="spacing" textLength="242" x="103.5" y="440.8896">Ask for the question options (if applicable)</text><polygon fill="#181818" points="689.5,473.4434,699.5,477.4434,689.5,481.4434,693.5,477.4434" style="stroke:#181818;stroke-width:1.0;"/><line style="stroke:#181818;stroke-width:1.0;" x1="86.5" x2="695.5" y1="477.4434" y2="477.4434"/><text fill="#000000" font-family="sans-serif" font-size="13" lengthAdjust="spacing" textLength="232" x="93.5" y="472.1807">Enter the question options (if applicable)</text><polygon fill="#181818" points="97.5,504.7344,87.5,508.7344,97.5,512.7344,93.5,508.7344" style="stroke:#181818;stroke-width:1.0;"/><line style="stroke:#181818;stroke-width:1.0;stroke-dasharray:2.0,2.0;" x1="91.5" x2="705.5" y1="508.7344" y2="508.7344"/><text fill="#000000" font-family="sans-serif" font-size="13" lengthAdjust="spacing" textLength="167" x="103.5" y="503.4717">Ask for the correct answer(s)</text><polygon fill="#181818" points="689.5,536.0254,699.5,540.0254,689.5,544.0254,693.5,540.0254" style="stroke:#181818;stroke-width:1.0;"/><line style="stroke:#181818;stroke-width:1.0;" x1="86.5" x2="695.5" y1="540.0254" y2="540.0254"/><text fill="#000000" font-family="sans-serif" font-size="13" lengthAdjust="spacing" textLength="157" x="93.5" y="534.7627">Enter the correct answer(s)</text><polygon fill="#181818" points="97.5,567.3164,87.5,571.3164,97.5,575.3164,93.5,571.3164" style="stroke:#181818;stroke-width:1.0;"/><line style="stroke:#181818;stroke-width:1.0;stroke-dasharray:2.0,2.0;" x1="91.5" x2="705.5" y1="571.3164" y2="571.3164"/><text fill="#000000" font-family="sans-serif" font-size="13" lengthAdjust="spacing" textLength="146" x="103.5" y="566.0537">Ask for the grade system</text><polygon fill="#181818" points="689.5,598.6074,699.5,602.6074,689.5,606.6074,693.5,602.6074" style="stroke:#181818;stroke-width:1.0;"/><line style="stroke:#181818;stroke-width:1.0;" x1="86.5" x2="695.5" y1="602.6074" y2="602.6074"/><text fill="#000000" font-family="sans-serif" font-size="13" lengthAdjust="spacing" textLength="136" x="93.5" y="597.3447">Enter the grade system</text><polygon fill="#181818" points="97.5,629.8984,87.5,633.8984,97.5,637.8984,93.5,633.8984" style="stroke:#181818;stroke-width:1.0;"/><line style="stroke:#181818;stroke-width:1.0;stroke-dasharray:2.0,2.0;" x1="91.5" x2="705.5" y1="633.8984" y2="633.8984"/><text fill="#000000" font-family="sans-serif" font-size="13" lengthAdjust="spacing" textLength="229" x="103.5" y="628.6357">Ask if he wants to add another question</text><line style="stroke:#181818;stroke-width:1.0;" x1="706.5" x2="748.5" y1="677.1895" y2="677.1895"/><line style="stroke:#181818;stroke-width:1.0;" x1="748.5" x2="748.5" y1="677.1895" y2="690.1895"/><line style="stroke:#181818;stroke-width:1.0;" x1="701.5" x2="748.5" y1="690.1895" y2="690.1895"/><polygon fill="#181818" points="711.5,686.1895,701.5,690.1895,711.5,694.1895,707.5,690.1895" style="stroke:#181818;stroke-width:1.0;"/><text fill="#000000" font-family="sans-serif" font-size="13" lengthAdjust="spacing" textLength="266" x="713.5" y="671.9268">Create the file with the questions and answers</text><!--SRC=[hLJBRkCm3BpxAuYUKc2xAFQOmm95sjlsPEpUMPjsXCYIAZ9ny_TBoSuBYLEWgK-2D9mPFanU6HSmOWUTTxvQHjyHI5nJmVkNWDKAMofbQmaYLOAkjSS0NcBjU-DQQD0o5OKOKMYvPQ4EIdfVawi8dWss2Juho-TxU82_YyTVZmLMuYCirYmg7L_HgLG4P7XA3uKgYAbCG2TmDnyexzBpS2nIlDcWq8W7_V897dwFc3dyyQrn-McFteN3-8rcZuB-eJLrWjeSVOPKQ1QQmvErlbVgYfX1FCYIu4sBvfl6QDuOWZKLYl4EUYDBgCPaeHkp3HGxmwm0pZ8rNVHvbbT9LjkHzNp8_AhUagEOGj7LG1_1Hm44nGURReK-11gZ_HcyA6f84ntt51dgTKojH0V62SMDeVxdTEsizm7wPU8xIwlNfkM2O5s33W7BFiChnUGLD9hc3W-o3VG3i54lEcd3d25OmmA-0ToWiVYcyYS11vM9MdvMpnEsVSGarVLSJWcr0LzozvBQSONhEymDOyGmCyrkRhMszz_bzpFw6rAeV4oxQHpZ6T_gUPhl1fEw_se27k9kytUHwWlMj1FATlAhelEgSFW5hpXDj-JgY_jXUhKk8kLLfCA7JNGyA9oNrxYH9bRYqKrEvpy0]--></g></svg>