<?xml version="1.0" encoding="us-ascii" standalone="no"?><svg xmlns="http://www.w3.org/2000/svg" xmlns:xlink="http://www.w3.org/1999/xlink" contentStyleType="text/css" height="502px" preserveAspectRatio="none" style="width:853px;height:502px;background:#FFFFFF;" version="1.1" viewBox="0 0 853 502" width="853px" zoomAndPan="magnify"><defs/><g><text fill="#000000" font-family="sans-serif" font-size="14" font-weight="bold" lengthAdjust="spacing" textLength="285" x="286.25" y="30.1074">System Sequence Diagram (SSD) - UC025</text><rect fill="#FFFFFF" height="268.3281" style="stroke:#181818;stroke-width:1.0;" width="10" x="31.5" y="133.2422"/><rect fill="#FFFFFF" height="75.582" style="stroke:#181818;stroke-width:1.0;" width="10" x="651.5" y="156.5332"/><rect fill="#FFFFFF" height="31.291" style="stroke:#181818;stroke-width:1.0;" width="10" x="651.5" y="263.4063"/><rect fill="#FFFFFF" height="75.582" style="stroke:#181818;stroke-width:1.0;" width="10" x="651.5" y="325.9883"/><line style="stroke:#181818;stroke-width:0.5;stroke-dasharray:5.0,5.0;" x1="36" x2="36" y1="123.2422" y2="419.5703"/><line style="stroke:#181818;stroke-width:0.5;stroke-dasharray:5.0,5.0;" x1="656.5" x2="656.5" y1="123.2422" y2="419.5703"/><text fill="#000000" font-family="sans-serif" font-size="14" lengthAdjust="spacing" textLength="57" x="5" y="119.7285">Operator</text><ellipse cx="36.5" cy="53.1211" fill="#E3E3E3" rx="8" ry="8" style="stroke:#181818;stroke-width:0.5;"/><path d="M36.5,61.1211 L36.5,88.1211 M23.5,69.1211 L49.5,69.1211 M36.5,88.1211 L23.5,103.1211 M36.5,88.1211 L49.5,103.1211 " fill="none" style="stroke:#181818;stroke-width:0.5;"/><text fill="#000000" font-family="sans-serif" font-size="14" lengthAdjust="spacing" textLength="57" x="5" y="433.6777">Operator</text><ellipse cx="36.5" cy="445.6914" fill="#E3E3E3" rx="8" ry="8" style="stroke:#181818;stroke-width:0.5;"/><path d="M36.5,453.6914 L36.5,480.6914 M23.5,461.6914 L49.5,461.6914 M36.5,480.6914 L23.5,495.6914 M36.5,480.6914 L49.5,495.6914 " fill="none" style="stroke:#181818;stroke-width:0.5;"/><rect fill="#E3E3E3" height="32.6211" rx="2.5" ry="2.5" style="stroke:#181818;stroke-width:0.5;" width="64" x="624.5" y="89.6211"/><text fill="#000000" font-family="sans-serif" font-size="14" lengthAdjust="spacing" textLength="50" x="631.5" y="111.7285">:System</text><rect fill="#E3E3E3" height="32.6211" rx="2.5" ry="2.5" style="stroke:#181818;stroke-width:0.5;" width="64" x="624.5" y="418.5703"/><text fill="#000000" font-family="sans-serif" font-size="14" lengthAdjust="spacing" textLength="50" x="631.5" y="440.6777">:System</text><rect fill="#FFFFFF" height="268.3281" style="stroke:#181818;stroke-width:1.0;" width="10" x="31.5" y="133.2422"/><rect fill="#FFFFFF" height="75.582" style="stroke:#181818;stroke-width:1.0;" width="10" x="651.5" y="156.5332"/><rect fill="#FFFFFF" height="31.291" style="stroke:#181818;stroke-width:1.0;" width="10" x="651.5" y="263.4063"/><rect fill="#FFFFFF" height="75.582" style="stroke:#181818;stroke-width:1.0;" width="10" x="651.5" y="325.9883"/><polygon fill="#181818" points="639.5,152.5332,649.5,156.5332,639.5,160.5332,643.5,156.5332" style="stroke:#181818;stroke-width:1.0;"/><line style="stroke:#181818;stroke-width:1.0;" x1="41.5" x2="645.5" y1="156.5332" y2="156.5332"/><text fill="#000000" font-family="sans-serif" font-size="13" lengthAdjust="spacing" textLength="31" x="48.5" y="151.2705">Login</text><line style="stroke:#181818;stroke-width:1.0;" x1="661.5" x2="703.5" y1="187.8242" y2="187.8242"/><line style="stroke:#181818;stroke-width:1.0;" x1="703.5" x2="703.5" y1="187.8242" y2="200.8242"/><line style="stroke:#181818;stroke-width:1.0;" x1="662.5" x2="703.5" y1="200.8242" y2="200.8242"/><polygon fill="#181818" points="672.5,196.8242,662.5,200.8242,672.5,204.8242,668.5,200.8242" style="stroke:#181818;stroke-width:1.0;"/><text fill="#000000" font-family="sans-serif" font-size="13" lengthAdjust="spacing" textLength="78" x="668.5" y="182.5615">Validate login</text><polygon fill="#181818" points="52.5,228.1152,42.5,232.1152,52.5,236.1152,48.5,232.1152" style="stroke:#181818;stroke-width:1.0;"/><line style="stroke:#181818;stroke-width:1.0;stroke-dasharray:2.0,2.0;" x1="46.5" x2="655.5" y1="232.1152" y2="232.1152"/><text fill="#000000" font-family="sans-serif" font-size="13" lengthAdjust="spacing" textLength="394" x="58.5" y="226.8525">Allow access to the backoffice application with operator permissions</text><polygon fill="#181818" points="639.5,259.4063,649.5,263.4063,639.5,267.4063,643.5,263.4063" style="stroke:#181818;stroke-width:1.0;"/><line style="stroke:#181818;stroke-width:1.0;" x1="41.5" x2="645.5" y1="263.4063" y2="263.4063"/><text fill="#000000" font-family="sans-serif" font-size="13" lengthAdjust="spacing" textLength="229" x="48.5" y="258.1436">Select the option to disable a candidate</text><polygon fill="#181818" points="52.5,290.6973,42.5,294.6973,52.5,298.6973,48.5,294.6973" style="stroke:#181818;stroke-width:1.0;"/><line style="stroke:#181818;stroke-width:1.0;stroke-dasharray:2.0,2.0;" x1="46.5" x2="655.5" y1="294.6973" y2="294.6973"/><text fill="#000000" font-family="sans-serif" font-size="13" lengthAdjust="spacing" textLength="424" x="58.5" y="289.4346">Show all active candidates and ask to select the candidate to be disabled</text><polygon fill="#181818" points="639.5,321.9883,649.5,325.9883,639.5,329.9883,643.5,325.9883" style="stroke:#181818;stroke-width:1.0;"/><line style="stroke:#181818;stroke-width:1.0;" x1="41.5" x2="645.5" y1="325.9883" y2="325.9883"/><text fill="#000000" font-family="sans-serif" font-size="13" lengthAdjust="spacing" textLength="182" x="48.5" y="320.7256">Select candidate to be disabled</text><line style="stroke:#181818;stroke-width:1.0;" x1="661.5" x2="703.5" y1="357.2793" y2="357.2793"/><line style="stroke:#181818;stroke-width:1.0;" x1="703.5" x2="703.5" y1="357.2793" y2="370.2793"/><line style="stroke:#181818;stroke-width:1.0;" x1="662.5" x2="703.5" y1="370.2793" y2="370.2793"/><polygon fill="#181818" points="672.5,366.2793,662.5,370.2793,672.5,374.2793,668.5,370.2793" style="stroke:#181818;stroke-width:1.0;"/><text fill="#000000" font-family="sans-serif" font-size="13" lengthAdjust="spacing" textLength="178" x="668.5" y="352.0166">Disable the selected candidate</text><polygon fill="#181818" points="47.5,397.5703,37.5,401.5703,47.5,405.5703,43.5,401.5703" style="stroke:#181818;stroke-width:1.0;"/><line style="stroke:#181818;stroke-width:1.0;stroke-dasharray:2.0,2.0;" x1="41.5" x2="655.5" y1="401.5703" y2="401.5703"/><text fill="#000000" font-family="sans-serif" font-size="13" lengthAdjust="spacing" textLength="586" x="53.5" y="396.3076">Inform that the candidate was disabled and deny the selected candidate access to the Candidate App</text><!--SRC=[dL9DQyCm3BtdLuYUjaDX37RfOL3Qos2mGzZkggqafexjsUv2__ravwEXNSisNoAafoUz5uMzCWuzjj1QOqNZRKiG_O6AC5KSYZtMLCQZ9l0a8ffQpm6XGMaxPMgeK0SgYgWYGyjZYDH2IPy7Ce9Wgx1EyBkotDx34jut3uzF1OfeFRmvyfW23B1EcOAfenBAeOcmMFLSYrJkmo8rgY-CDE21NuvW-JnWLl1gQsLoQKAFxJ2yOSjPqmTg9HDKv-uB94Fpe1MijROTKmiA0QA5s13is2rRLOe5etDQ2OpA6kXKRC2EAldRgX2u43Azf1_tkz1JacR_ynphCYzFbIhWZlr646XaNlrtaaz2oYRfqBhleHDH08xOzNqQ54xJ9q3AxsZSGVv7pKskF_otxU13sgzVbUJCaXloNqnbVSkDUAwkuuCRzybMI3B7AnFE3c4pvTVENV5bbkcl-1i0]--></g></svg>