<?xml version="1.0" encoding="us-ascii" standalone="no"?><svg xmlns="http://www.w3.org/2000/svg" xmlns:xlink="http://www.w3.org/1999/xlink" contentStyleType="text/css" height="1378px" preserveAspectRatio="none" style="width:2025px;height:1378px;background:#FFFFFF;" version="1.1" viewBox="0 0 2025 1378" width="2025px" zoomAndPan="magnify"><defs/><g><rect fill="#FFFFFF" height="1139.4766" style="stroke:#181818;stroke-width:1.0;" width="10" x="228.5" y="121.5332"/><rect fill="#FFFFFF" height="250.3281" style="stroke:#181818;stroke-width:1.0;" width="10" x="407.5" y="152.8242"/><rect fill="#FFFFFF" height="670.1113" style="stroke:#181818;stroke-width:1.0;" width="10" x="407.5" y="559.6074"/><rect fill="#FFFFFF" height="93.873" style="stroke:#181818;stroke-width:1.0;" width="10" x="788.5" y="215.4063"/><rect fill="#FFFFFF" height="31.291" style="stroke:#181818;stroke-width:1.0;" width="10" x="920.5" y="340.5703"/><rect fill="#FFFFFF" height="607.5293" style="stroke:#181818;stroke-width:1.0;" width="10" x="1063" y="590.8984"/><rect fill="#FFFFFF" height="263.3281" style="stroke:#181818;stroke-width:1.0;" width="10" x="1435" y="653.4805"/><rect fill="#FFFFFF" height="75.582" style="stroke:#181818;stroke-width:1.0;" width="10" x="1556" y="809.9355"/><rect fill="#FFFFFF" height="62.582" style="stroke:#181818;stroke-width:1.0;" width="10" x="1698" y="948.0996"/><rect fill="#FFFFFF" height="62.582" style="stroke:#181818;stroke-width:1.0;" width="10" x="1841" y="1041.9727"/><rect fill="#FFFFFF" height="31.291" style="stroke:#181818;stroke-width:1.0;" width="10" x="1967.5" y="1135.8457"/><line style="stroke:#181818;stroke-width:0.5;stroke-dasharray:5.0,5.0;" x1="36" x2="36" y1="88.2422" y2="1279.0098"/><line style="stroke:#181818;stroke-width:0.5;stroke-dasharray:5.0,5.0;" x1="233.5" x2="233.5" y1="88.2422" y2="1279.0098"/><line style="stroke:#181818;stroke-width:0.5;stroke-dasharray:5.0,5.0;" x1="412.5" x2="412.5" y1="88.2422" y2="1279.0098"/><line style="stroke:#181818;stroke-width:0.5;stroke-dasharray:5.0,5.0;" x1="793" x2="793" y1="88.2422" y2="1279.0098"/><line style="stroke:#181818;stroke-width:0.5;stroke-dasharray:5.0,5.0;" x1="925" x2="925" y1="88.2422" y2="1279.0098"/><line style="stroke:#181818;stroke-width:0.5;stroke-dasharray:5.0,5.0;" x1="1068" x2="1068" y1="88.2422" y2="1279.0098"/><line style="stroke:#181818;stroke-width:0.5;stroke-dasharray:5.0,5.0;" x1="1439.5" x2="1439.5" y1="88.2422" y2="1279.0098"/><line style="stroke:#181818;stroke-width:0.5;stroke-dasharray:5.0,5.0;" x1="1560.5" x2="1560.5" y1="88.2422" y2="1279.0098"/><line style="stroke:#181818;stroke-width:0.5;stroke-dasharray:5.0,5.0;" x1="1703" x2="1703" y1="88.2422" y2="1279.0098"/><line style="stroke:#181818;stroke-width:0.5;stroke-dasharray:5.0,5.0;" x1="1846" x2="1846" y1="88.2422" y2="1279.0098"/><line style="stroke:#181818;stroke-width:0.5;stroke-dasharray:5.0,5.0;" x1="1972" x2="1972" y1="88.2422" y2="1279.0098"/><text fill="#000000" font-family="sans-serif" font-size="14" lengthAdjust="spacing" textLength="57" x="5" y="84.7285">Operator</text><ellipse cx="36.5" cy="18.1211" fill="#E2E2F0" rx="8" ry="8" style="stroke:#181818;stroke-width:0.5;"/><path d="M36.5,26.1211 L36.5,53.1211 M23.5,34.1211 L49.5,34.1211 M36.5,53.1211 L23.5,68.1211 M36.5,53.1211 L49.5,68.1211 " fill="none" style="stroke:#181818;stroke-width:0.5;"/><text fill="#000000" font-family="sans-serif" font-size="14" lengthAdjust="spacing" textLength="57" x="5" y="1293.1172">Operator</text><ellipse cx="36.5" cy="1305.1309" fill="#E2E2F0" rx="8" ry="8" style="stroke:#181818;stroke-width:0.5;"/><path d="M36.5,1313.1309 L36.5,1340.1309 M23.5,1321.1309 L49.5,1321.1309 M36.5,1340.1309 L23.5,1355.1309 M36.5,1340.1309 L49.5,1355.1309 " fill="none" style="stroke:#181818;stroke-width:0.5;"/><rect fill="#E2E2F0" height="51.2422" rx="2.5" ry="2.5" style="stroke:#181818;stroke-width:0.5;" width="144" x="161.5" y="36"/><text fill="#000000" font-family="sans-serif" font-size="14" font-style="italic" lengthAdjust="spacing" textLength="95" x="186" y="58.1074">&#171;presentation&#187;</text><text fill="#000000" font-family="sans-serif" font-size="14" lengthAdjust="spacing" textLength="130" x="168.5" y="76.7285">RegisterCandidateUI</text><rect fill="#E2E2F0" height="51.2422" rx="2.5" ry="2.5" style="stroke:#181818;stroke-width:0.5;" width="144" x="161.5" y="1278.0098"/><text fill="#000000" font-family="sans-serif" font-size="14" font-style="italic" lengthAdjust="spacing" textLength="95" x="186" y="1300.1172">&#171;presentation&#187;</text><text fill="#000000" font-family="sans-serif" font-size="14" lengthAdjust="spacing" textLength="130" x="168.5" y="1318.7383">RegisterCandidateUI</text><rect fill="#E2E2F0" height="51.2422" rx="2.5" ry="2.5" style="stroke:#181818;stroke-width:0.5;" width="194" x="315.5" y="36"/><text fill="#000000" font-family="sans-serif" font-size="14" font-style="italic" lengthAdjust="spacing" textLength="75" x="375" y="58.1074">&#171;controller&#187;</text><text fill="#000000" font-family="sans-serif" font-size="14" lengthAdjust="spacing" textLength="180" x="322.5" y="76.7285">RegisterCandidateController</text><rect fill="#E2E2F0" height="51.2422" rx="2.5" ry="2.5" style="stroke:#181818;stroke-width:0.5;" width="194" x="315.5" y="1278.0098"/><text fill="#000000" font-family="sans-serif" font-size="14" font-style="italic" lengthAdjust="spacing" textLength="75" x="375" y="1300.1172">&#171;controller&#187;</text><text fill="#000000" font-family="sans-serif" font-size="14" lengthAdjust="spacing" textLength="180" x="322.5" y="1318.7383">RegisterCandidateController</text><rect fill="#E2E2F0" height="51.2422" rx="2.5" ry="2.5" style="stroke:#181818;stroke-width:0.5;" width="151" x="718" y="36"/><text fill="#000000" font-family="sans-serif" font-size="14" font-style="italic" lengthAdjust="spacing" textLength="60" x="763.5" y="58.1074">&#171;service&#187;</text><text fill="#000000" font-family="sans-serif" font-size="14" lengthAdjust="spacing" textLength="137" x="725" y="76.7285">AuthenticationService</text><rect fill="#E2E2F0" height="51.2422" rx="2.5" ry="2.5" style="stroke:#181818;stroke-width:0.5;" width="151" x="718" y="1278.0098"/><text fill="#000000" font-family="sans-serif" font-size="14" font-style="italic" lengthAdjust="spacing" textLength="60" x="763.5" y="1300.1172">&#171;service&#187;</text><text fill="#000000" font-family="sans-serif" font-size="14" lengthAdjust="spacing" textLength="137" x="725" y="1318.7383">AuthenticationService</text><rect fill="#E2E2F0" height="51.2422" rx="2.5" ry="2.5" style="stroke:#181818;stroke-width:0.5;" width="93" x="879" y="36"/><text fill="#000000" font-family="sans-serif" font-size="14" font-style="italic" lengthAdjust="spacing" textLength="64" x="893.5" y="58.1074">&#171;session&#187;</text><text fill="#000000" font-family="sans-serif" font-size="14" lengthAdjust="spacing" textLength="79" x="886" y="76.7285">UserSession</text><rect fill="#E2E2F0" height="51.2422" rx="2.5" ry="2.5" style="stroke:#181818;stroke-width:0.5;" width="93" x="879" y="1278.0098"/><text fill="#000000" font-family="sans-serif" font-size="14" font-style="italic" lengthAdjust="spacing" textLength="64" x="893.5" y="1300.1172">&#171;session&#187;</text><text fill="#000000" font-family="sans-serif" font-size="14" lengthAdjust="spacing" textLength="79" x="886" y="1318.7383">UserSession</text><rect fill="#E2E2F0" height="51.2422" rx="2.5" ry="2.5" style="stroke:#181818;stroke-width:0.5;" width="172" x="982" y="36"/><text fill="#000000" font-family="sans-serif" font-size="14" font-style="italic" lengthAdjust="spacing" textLength="60" x="1038" y="58.1074">&#171;service&#187;</text><text fill="#000000" font-family="sans-serif" font-size="14" lengthAdjust="spacing" textLength="158" x="989" y="76.7285">UserManagementService</text><rect fill="#E2E2F0" height="51.2422" rx="2.5" ry="2.5" style="stroke:#181818;stroke-width:0.5;" width="172" x="982" y="1278.0098"/><text fill="#000000" font-family="sans-serif" font-size="14" font-style="italic" lengthAdjust="spacing" textLength="60" x="1038" y="1300.1172">&#171;service&#187;</text><text fill="#000000" font-family="sans-serif" font-size="14" lengthAdjust="spacing" textLength="158" x="989" y="1318.7383">UserManagementService</text><rect fill="#E2E2F0" height="51.2422" rx="2.5" ry="2.5" style="stroke:#181818;stroke-width:0.5;" width="133" x="1373.5" y="36"/><text fill="#000000" font-family="sans-serif" font-size="14" font-style="italic" lengthAdjust="spacing" textLength="60" x="1410" y="58.1074">&#171;service&#187;</text><text fill="#000000" font-family="sans-serif" font-size="14" lengthAdjust="spacing" textLength="119" x="1380.5" y="76.7285">SystemUserBuilder</text><rect fill="#E2E2F0" height="51.2422" rx="2.5" ry="2.5" style="stroke:#181818;stroke-width:0.5;" width="133" x="1373.5" y="1278.0098"/><text fill="#000000" font-family="sans-serif" font-size="14" font-style="italic" lengthAdjust="spacing" textLength="60" x="1410" y="1300.1172">&#171;service&#187;</text><text fill="#000000" font-family="sans-serif" font-size="14" lengthAdjust="spacing" textLength="119" x="1380.5" y="1318.7383">SystemUserBuilder</text><rect fill="#E2E2F0" height="32.6211" rx="2.5" ry="2.5" style="stroke:#181818;stroke-width:0.5;" width="89" x="1516.5" y="54.6211"/><text fill="#000000" font-family="sans-serif" font-size="14" lengthAdjust="spacing" textLength="75" x="1523.5" y="76.7285">SystemUser</text><rect fill="#E2E2F0" height="32.6211" rx="2.5" ry="2.5" style="stroke:#181818;stroke-width:0.5;" width="89" x="1516.5" y="1278.0098"/><text fill="#000000" font-family="sans-serif" font-size="14" lengthAdjust="spacing" textLength="75" x="1523.5" y="1300.1172">SystemUser</text><rect fill="#E2E2F0" height="51.2422" rx="2.5" ry="2.5" style="stroke:#181818;stroke-width:0.5;" width="136" x="1635" y="36"/><text fill="#000000" font-family="sans-serif" font-size="14" font-style="italic" lengthAdjust="spacing" textLength="89" x="1658.5" y="58.1074">&#171;persistence&#187;</text><text fill="#000000" font-family="sans-serif" font-size="14" lengthAdjust="spacing" textLength="122" x="1642" y="76.7285">PersistenceContext</text><rect fill="#E2E2F0" height="51.2422" rx="2.5" ry="2.5" style="stroke:#181818;stroke-width:0.5;" width="136" x="1635" y="1278.0098"/><text fill="#000000" font-family="sans-serif" font-size="14" font-style="italic" lengthAdjust="spacing" textLength="89" x="1658.5" y="1300.1172">&#171;persistence&#187;</text><text fill="#000000" font-family="sans-serif" font-size="14" lengthAdjust="spacing" textLength="122" x="1642" y="1318.7383">PersistenceContext</text><rect fill="#E2E2F0" height="51.2422" rx="2.5" ry="2.5" style="stroke:#181818;stroke-width:0.5;" width="130" x="1781" y="36"/><text fill="#000000" font-family="sans-serif" font-size="14" font-style="italic" lengthAdjust="spacing" textLength="59" x="1816.5" y="58.1074">&#171;factory&#187;</text><text fill="#000000" font-family="sans-serif" font-size="14" lengthAdjust="spacing" textLength="116" x="1788" y="76.7285">RepositoryFactory</text><rect fill="#E2E2F0" height="51.2422" rx="2.5" ry="2.5" style="stroke:#181818;stroke-width:0.5;" width="130" x="1781" y="1278.0098"/><text fill="#000000" font-family="sans-serif" font-size="14" font-style="italic" lengthAdjust="spacing" textLength="59" x="1816.5" y="1300.1172">&#171;factory&#187;</text><text fill="#000000" font-family="sans-serif" font-size="14" lengthAdjust="spacing" textLength="116" x="1788" y="1318.7383">RepositoryFactory</text><text fill="#000000" font-family="sans-serif" font-size="14" font-style="italic" lengthAdjust="spacing" textLength="79" x="1930" y="66.1074">&#171;repository&#187;</text><text fill="#000000" font-family="sans-serif" font-size="14" lengthAdjust="spacing" textLength="97" x="1921" y="84.7285">UserRepository</text><path d="M1954.5,15 C1954.5,5 1972.5,5 1972.5,5 C1972.5,5 1990.5,5 1990.5,15 L1990.5,41 C1990.5,51 1972.5,51 1972.5,51 C1972.5,51 1954.5,51 1954.5,41 L1954.5,15 " fill="#E2E2F0" style="stroke:#181818;stroke-width:1.5;"/><path d="M1954.5,15 C1954.5,25 1972.5,25 1972.5,25 C1972.5,25 1990.5,25 1990.5,15 " fill="none" style="stroke:#181818;stroke-width:1.5;"/><text fill="#000000" font-family="sans-serif" font-size="14" font-style="italic" lengthAdjust="spacing" textLength="79" x="1930" y="1293.1172">&#171;repository&#187;</text><text fill="#000000" font-family="sans-serif" font-size="14" lengthAdjust="spacing" textLength="97" x="1921" y="1311.7383">UserRepository</text><path d="M1954.5,1325.252 C1954.5,1315.252 1972.5,1315.252 1972.5,1315.252 C1972.5,1315.252 1990.5,1315.252 1990.5,1325.252 L1990.5,1351.252 C1990.5,1361.252 1972.5,1361.252 1972.5,1361.252 C1972.5,1361.252 1954.5,1361.252 1954.5,1351.252 L1954.5,1325.252 " fill="#E2E2F0" style="stroke:#181818;stroke-width:1.5;"/><path d="M1954.5,1325.252 C1954.5,1335.252 1972.5,1335.252 1972.5,1335.252 C1972.5,1335.252 1990.5,1335.252 1990.5,1325.252 " fill="none" style="stroke:#181818;stroke-width:1.5;"/><rect fill="#FFFFFF" height="1139.4766" style="stroke:#181818;stroke-width:1.0;" width="10" x="228.5" y="121.5332"/><rect fill="#FFFFFF" height="250.3281" style="stroke:#181818;stroke-width:1.0;" width="10" x="407.5" y="152.8242"/><rect fill="#FFFFFF" height="670.1113" style="stroke:#181818;stroke-width:1.0;" width="10" x="407.5" y="559.6074"/><rect fill="#FFFFFF" height="93.873" style="stroke:#181818;stroke-width:1.0;" width="10" x="788.5" y="215.4063"/><rect fill="#FFFFFF" height="31.291" style="stroke:#181818;stroke-width:1.0;" width="10" x="920.5" y="340.5703"/><rect fill="#FFFFFF" height="607.5293" style="stroke:#181818;stroke-width:1.0;" width="10" x="1063" y="590.8984"/><rect fill="#FFFFFF" height="263.3281" style="stroke:#181818;stroke-width:1.0;" width="10" x="1435" y="653.4805"/><rect fill="#FFFFFF" height="75.582" style="stroke:#181818;stroke-width:1.0;" width="10" x="1556" y="809.9355"/><rect fill="#FFFFFF" height="62.582" style="stroke:#181818;stroke-width:1.0;" width="10" x="1698" y="948.0996"/><rect fill="#FFFFFF" height="62.582" style="stroke:#181818;stroke-width:1.0;" width="10" x="1841" y="1041.9727"/><rect fill="#FFFFFF" height="31.291" style="stroke:#181818;stroke-width:1.0;" width="10" x="1967.5" y="1135.8457"/><polygon fill="#181818" points="216.5,117.5332,226.5,121.5332,216.5,125.5332,220.5,121.5332" style="stroke:#181818;stroke-width:1.0;"/><line style="stroke:#181818;stroke-width:1.0;stroke-dasharray:2.0,2.0;" x1="36.5" x2="222.5" y1="121.5332" y2="121.5332"/><text fill="#000000" font-family="sans-serif" font-size="13" lengthAdjust="spacing" textLength="54" x="43.5" y="116.2705">Add User</text><polygon fill="#181818" points="395.5,148.8242,405.5,152.8242,395.5,156.8242,399.5,152.8242" style="stroke:#181818;stroke-width:1.0;"/><line style="stroke:#181818;stroke-width:1.0;" x1="238.5" x2="401.5" y1="152.8242" y2="152.8242"/><text fill="#000000" font-family="sans-serif" font-size="13" lengthAdjust="spacing" textLength="44" x="245.5" y="147.5615">create()</text><polygon fill="#181818" points="781.5,180.1152,791.5,184.1152,781.5,188.1152,785.5,184.1152" style="stroke:#181818;stroke-width:1.0;"/><line style="stroke:#181818;stroke-width:1.0;" x1="417.5" x2="787.5" y1="184.1152" y2="184.1152"/><text fill="#000000" font-family="sans-serif" font-size="13" lengthAdjust="spacing" textLength="44" x="424.5" y="178.8525">create()</text><polygon fill="#181818" points="776.5,211.4063,786.5,215.4063,776.5,219.4063,780.5,215.4063" style="stroke:#181818;stroke-width:1.0;"/><line style="stroke:#181818;stroke-width:1.0;" x1="417.5" x2="782.5" y1="215.4063" y2="215.4063"/><text fill="#000000" font-family="sans-serif" font-size="13" lengthAdjust="spacing" textLength="352" x="424.5" y="210.1436">ensureAuthenticatedUserHasAnyOf(BaseRoles.OPERATOR)</text><polygon fill="#181818" points="913.5,242.6973,923.5,246.6973,913.5,250.6973,917.5,246.6973" style="stroke:#181818;stroke-width:1.0;"/><line style="stroke:#181818;stroke-width:1.0;" x1="798.5" x2="919.5" y1="246.6973" y2="246.6973"/><text fill="#000000" font-family="sans-serif" font-size="13" lengthAdjust="spacing" textLength="44" x="805.5" y="241.4346">create()</text><polygon fill="#181818" points="776.5,273.9883,786.5,277.9883,776.5,281.9883,780.5,277.9883" style="stroke:#181818;stroke-width:1.0;"/><line style="stroke:#181818;stroke-width:1.0;" x1="417.5" x2="782.5" y1="277.9883" y2="277.9883"/><text fill="#000000" font-family="sans-serif" font-size="13" lengthAdjust="spacing" textLength="53" x="424.5" y="272.7256">session()</text><polygon fill="#181818" points="428.5,305.2793,418.5,309.2793,428.5,313.2793,424.5,309.2793" style="stroke:#181818;stroke-width:1.0;"/><line style="stroke:#181818;stroke-width:1.0;" x1="422.5" x2="792.5" y1="309.2793" y2="309.2793"/><text fill="#000000" font-family="sans-serif" font-size="13" lengthAdjust="spacing" textLength="45" x="434.5" y="304.0166">session</text><polygon fill="#181818" points="908.5,336.5703,918.5,340.5703,908.5,344.5703,912.5,340.5703" style="stroke:#181818;stroke-width:1.0;"/><line style="stroke:#181818;stroke-width:1.0;" x1="417.5" x2="914.5" y1="340.5703" y2="340.5703"/><text fill="#000000" font-family="sans-serif" font-size="13" lengthAdjust="spacing" textLength="113" x="424.5" y="335.3076">authenticatedUser()</text><polygon fill="#181818" points="428.5,367.8613,418.5,371.8613,428.5,375.8613,424.5,371.8613" style="stroke:#181818;stroke-width:1.0;"/><line style="stroke:#181818;stroke-width:1.0;" x1="422.5" x2="924.5" y1="371.8613" y2="371.8613"/><text fill="#000000" font-family="sans-serif" font-size="13" lengthAdjust="spacing" textLength="25" x="434.5" y="366.5986">user</text><polygon fill="#181818" points="249.5,399.1523,239.5,403.1523,249.5,407.1523,245.5,403.1523" style="stroke:#181818;stroke-width:1.0;"/><line style="stroke:#181818;stroke-width:1.0;" x1="243.5" x2="411.5" y1="403.1523" y2="403.1523"/><text fill="#000000" font-family="sans-serif" font-size="13" lengthAdjust="spacing" textLength="25" x="255.5" y="397.8896">user</text><polygon fill="#181818" points="47.5,430.4434,37.5,434.4434,47.5,438.4434,43.5,434.4434" style="stroke:#181818;stroke-width:1.0;"/><line style="stroke:#181818;stroke-width:1.0;stroke-dasharray:2.0,2.0;" x1="41.5" x2="227.5" y1="434.4434" y2="434.4434"/><text fill="#000000" font-family="sans-serif" font-size="13" lengthAdjust="spacing" textLength="168" x="53.5" y="429.1807">Show candidate role (no role)</text><polygon fill="#181818" points="216.5,461.7344,226.5,465.7344,216.5,469.7344,220.5,465.7344" style="stroke:#181818;stroke-width:1.0;"/><line style="stroke:#181818;stroke-width:1.0;stroke-dasharray:2.0,2.0;" x1="36.5" x2="222.5" y1="465.7344" y2="465.7344"/><text fill="#000000" font-family="sans-serif" font-size="13" lengthAdjust="spacing" textLength="62" x="43.5" y="460.4717">Select role</text><polygon fill="#181818" points="47.5,493.0254,37.5,497.0254,47.5,501.0254,43.5,497.0254" style="stroke:#181818;stroke-width:1.0;"/><line style="stroke:#181818;stroke-width:1.0;stroke-dasharray:2.0,2.0;" x1="41.5" x2="227.5" y1="497.0254" y2="497.0254"/><text fill="#000000" font-family="sans-serif" font-size="13" lengthAdjust="spacing" textLength="119" x="53.5" y="491.7627">Ask user information</text><polygon fill="#181818" points="216.5,524.3164,226.5,528.3164,216.5,532.3164,220.5,528.3164" style="stroke:#181818;stroke-width:1.0;"/><line style="stroke:#181818;stroke-width:1.0;stroke-dasharray:2.0,2.0;" x1="36.5" x2="222.5" y1="528.3164" y2="528.3164"/><text fill="#000000" font-family="sans-serif" font-size="13" lengthAdjust="spacing" textLength="57" x="43.5" y="523.0537">Input data</text><polygon fill="#181818" points="395.5,555.6074,405.5,559.6074,395.5,563.6074,399.5,559.6074" style="stroke:#181818;stroke-width:1.0;"/><line style="stroke:#181818;stroke-width:1.0;" x1="238.5" x2="401.5" y1="559.6074" y2="559.6074"/><text fill="#000000" font-family="sans-serif" font-size="13" lengthAdjust="spacing" textLength="56" x="245.5" y="554.3447">addUser()</text><polygon fill="#181818" points="1051,586.8984,1061,590.8984,1051,594.8984,1055,590.8984" style="stroke:#181818;stroke-width:1.0;"/><line style="stroke:#181818;stroke-width:1.0;" x1="417.5" x2="1057" y1="590.8984" y2="590.8984"/><text fill="#000000" font-family="sans-serif" font-size="13" lengthAdjust="spacing" textLength="44" x="424.5" y="585.6357">create()</text><polygon fill="#181818" points="1051,618.1895,1061,622.1895,1051,626.1895,1055,622.1895" style="stroke:#181818;stroke-width:1.0;"/><line style="stroke:#181818;stroke-width:1.0;" x1="417.5" x2="1057" y1="622.1895" y2="622.1895"/><text fill="#000000" font-family="sans-serif" font-size="13" lengthAdjust="spacing" textLength="103" x="424.5" y="616.9268">registerNewUser()</text><polygon fill="#181818" points="1423,649.4805,1433,653.4805,1423,657.4805,1427,653.4805" style="stroke:#181818;stroke-width:1.0;"/><line style="stroke:#181818;stroke-width:1.0;" x1="1073" x2="1429" y1="653.4805" y2="653.4805"/><text fill="#000000" font-family="sans-serif" font-size="13" lengthAdjust="spacing" textLength="44" x="1080" y="648.2178">create()</text><polygon fill="#181818" points="1423,680.7715,1433,684.7715,1423,688.7715,1427,684.7715" style="stroke:#181818;stroke-width:1.0;"/><line style="stroke:#181818;stroke-width:1.0;" x1="1073" x2="1429" y1="684.7715" y2="684.7715"/><text fill="#000000" font-family="sans-serif" font-size="13" lengthAdjust="spacing" textLength="338" x="1080" y="679.5088">with(username, rawPassword, firstName, lastName, email)</text><polygon fill="#181818" points="1423,712.0625,1433,716.0625,1423,720.0625,1427,716.0625" style="stroke:#181818;stroke-width:1.0;"/><line style="stroke:#181818;stroke-width:1.0;" x1="1073" x2="1429" y1="716.0625" y2="716.0625"/><text fill="#000000" font-family="sans-serif" font-size="13" lengthAdjust="spacing" textLength="128" x="1080" y="710.7998">createdOn(createdOn)</text><polygon fill="#181818" points="1423,743.3535,1433,747.3535,1423,751.3535,1427,747.3535" style="stroke:#181818;stroke-width:1.0;"/><line style="stroke:#181818;stroke-width:1.0;" x1="1073" x2="1429" y1="747.3535" y2="747.3535"/><text fill="#000000" font-family="sans-serif" font-size="13" lengthAdjust="spacing" textLength="92" x="1080" y="742.0908">withRoles(roles)</text><polygon fill="#181818" points="1423,774.6445,1433,778.6445,1423,782.6445,1427,778.6445" style="stroke:#181818;stroke-width:1.0;"/><line style="stroke:#181818;stroke-width:1.0;" x1="1073" x2="1429" y1="778.6445" y2="778.6445"/><text fill="#000000" font-family="sans-serif" font-size="13" lengthAdjust="spacing" textLength="35" x="1080" y="773.3818">build()</text><polygon fill="#181818" points="1544,805.9355,1554,809.9355,1544,813.9355,1548,809.9355" style="stroke:#181818;stroke-width:1.0;"/><line style="stroke:#181818;stroke-width:1.0;" x1="1445" x2="1550" y1="809.9355" y2="809.9355"/><text fill="#000000" font-family="sans-serif" font-size="13" lengthAdjust="spacing" textLength="80" x="1452" y="804.6729">SystemUser()</text><line style="stroke:#181818;stroke-width:1.0;" x1="1566" x2="1608" y1="841.2266" y2="841.2266"/><line style="stroke:#181818;stroke-width:1.0;" x1="1608" x2="1608" y1="841.2266" y2="854.2266"/><line style="stroke:#181818;stroke-width:1.0;" x1="1567" x2="1608" y1="854.2266" y2="854.2266"/><polygon fill="#181818" points="1577,850.2266,1567,854.2266,1577,858.2266,1573,854.2266" style="stroke:#181818;stroke-width:1.0;"/><text fill="#000000" font-family="sans-serif" font-size="13" lengthAdjust="spacing" textLength="118" x="1573" y="835.9639">validateParameters()</text><polygon fill="#181818" points="1456,881.5176,1446,885.5176,1456,889.5176,1452,885.5176" style="stroke:#181818;stroke-width:1.0;"/><line style="stroke:#181818;stroke-width:1.0;" x1="1450" x2="1560" y1="885.5176" y2="885.5176"/><text fill="#000000" font-family="sans-serif" font-size="13" lengthAdjust="spacing" textLength="25" x="1462" y="880.2549">user</text><polygon fill="#181818" points="1084,912.8086,1074,916.8086,1084,920.8086,1080,916.8086" style="stroke:#181818;stroke-width:1.0;"/><line style="stroke:#181818;stroke-width:1.0;" x1="1078" x2="1439" y1="916.8086" y2="916.8086"/><text fill="#000000" font-family="sans-serif" font-size="13" lengthAdjust="spacing" textLength="25" x="1090" y="911.5459">user</text><polygon fill="#181818" points="1686,944.0996,1696,948.0996,1686,952.0996,1690,948.0996" style="stroke:#181818;stroke-width:1.0;"/><line style="stroke:#181818;stroke-width:1.0;" x1="1073" x2="1692" y1="948.0996" y2="948.0996"/><text fill="#000000" font-family="sans-serif" font-size="13" lengthAdjust="spacing" textLength="75" x="1080" y="942.8369">repositories()</text><polygon fill="#181818" points="1834,975.3906,1844,979.3906,1834,983.3906,1838,979.3906" style="stroke:#181818;stroke-width:1.0;"/><line style="stroke:#181818;stroke-width:1.0;" x1="1708" x2="1840" y1="979.3906" y2="979.3906"/><text fill="#000000" font-family="sans-serif" font-size="13" lengthAdjust="spacing" textLength="44" x="1715" y="974.1279">create()</text><polygon fill="#181818" points="1084,1006.6816,1074,1010.6816,1084,1014.6816,1080,1010.6816" style="stroke:#181818;stroke-width:1.0;"/><line style="stroke:#181818;stroke-width:1.0;" x1="1078" x2="1702" y1="1010.6816" y2="1010.6816"/><text fill="#000000" font-family="sans-serif" font-size="13" lengthAdjust="spacing" textLength="39" x="1090" y="1005.4189">factory</text><polygon fill="#181818" points="1829,1037.9727,1839,1041.9727,1829,1045.9727,1833,1041.9727" style="stroke:#181818;stroke-width:1.0;"/><line style="stroke:#181818;stroke-width:1.0;" x1="1073" x2="1835" y1="1041.9727" y2="1041.9727"/><text fill="#000000" font-family="sans-serif" font-size="13" lengthAdjust="spacing" textLength="40" x="1080" y="1036.71">users()</text><polygon fill="#181818" points="1960.5,1069.2637,1970.5,1073.2637,1960.5,1077.2637,1964.5,1073.2637" style="stroke:#181818;stroke-width:1.0;"/><line style="stroke:#181818;stroke-width:1.0;" x1="1851" x2="1966.5" y1="1073.2637" y2="1073.2637"/><text fill="#000000" font-family="sans-serif" font-size="13" lengthAdjust="spacing" textLength="44" x="1858" y="1068.001">create()</text><polygon fill="#181818" points="1084,1100.5547,1074,1104.5547,1084,1108.5547,1080,1104.5547" style="stroke:#181818;stroke-width:1.0;"/><line style="stroke:#181818;stroke-width:1.0;" x1="1078" x2="1845" y1="1104.5547" y2="1104.5547"/><text fill="#000000" font-family="sans-serif" font-size="13" lengthAdjust="spacing" textLength="87" x="1090" y="1099.292">userRepository</text><polygon fill="#181818" points="1955.5,1131.8457,1965.5,1135.8457,1955.5,1139.8457,1959.5,1135.8457" style="stroke:#181818;stroke-width:1.0;"/><line style="stroke:#181818;stroke-width:1.0;" x1="1073" x2="1961.5" y1="1135.8457" y2="1135.8457"/><text fill="#000000" font-family="sans-serif" font-size="13" lengthAdjust="spacing" textLength="59" x="1080" y="1130.583">save(user)</text><polygon fill="#181818" points="1084,1163.1367,1074,1167.1367,1084,1171.1367,1080,1167.1367" style="stroke:#181818;stroke-width:1.0;"/><line style="stroke:#181818;stroke-width:1.0;" x1="1078" x2="1971.5" y1="1167.1367" y2="1167.1367"/><text fill="#000000" font-family="sans-serif" font-size="13" lengthAdjust="spacing" textLength="25" x="1090" y="1161.874">user</text><polygon fill="#181818" points="428.5,1194.4277,418.5,1198.4277,428.5,1202.4277,424.5,1198.4277" style="stroke:#181818;stroke-width:1.0;"/><line style="stroke:#181818;stroke-width:1.0;" x1="422.5" x2="1067" y1="1198.4277" y2="1198.4277"/><text fill="#000000" font-family="sans-serif" font-size="13" lengthAdjust="spacing" textLength="25" x="434.5" y="1193.165">user</text><polygon fill="#181818" points="249.5,1225.7188,239.5,1229.7188,249.5,1233.7188,245.5,1229.7188" style="stroke:#181818;stroke-width:1.0;"/><line style="stroke:#181818;stroke-width:1.0;" x1="243.5" x2="411.5" y1="1229.7188" y2="1229.7188"/><text fill="#000000" font-family="sans-serif" font-size="13" lengthAdjust="spacing" textLength="25" x="255.5" y="1224.4561">user</text><polygon fill="#181818" points="47.5,1257.0098,37.5,1261.0098,47.5,1265.0098,43.5,1261.0098" style="stroke:#181818;stroke-width:1.0;"/><line style="stroke:#181818;stroke-width:1.0;stroke-dasharray:2.0,2.0;" x1="41.5" x2="232.5" y1="1261.0098" y2="1261.0098"/><text fill="#000000" font-family="sans-serif" font-size="13" lengthAdjust="spacing" textLength="153" x="53.5" y="1255.7471">Display success message</text><!--SRC=[dLPBRjim4Dtx55pAGD8324809stGB1eRTdC0HXedH6LA82cxxkax79CYnL1EqIo24VdUV9z6vhNf55lteBWrk1xjnQBdoeXQz5mQjeKteGse1ouRqN03BqyMF0XMLRq23T9m8pfvTtUTzj19exgs1OfLXwUg2W-9azLWtj6_g2d23jHHr63f72_-85DVZXBQ2nxlG6laMB1sfeMJbO7_u9A_mG63HL6SzzaukpDMUB3q-q6qpQMoLsT-JhBefZjm8IU03IXjMoThwXdyDhvXriIcX_iFFUyxBN22vqTkftksnBqpgyfPIC9vy5UkWKeFB0jNuQcgmWEI5Wp_HhtStjwX1agsQXhoGhSOG1nnrdXpWQDA41VcMx9Q0GAAvM9A210wZ-I1V9fsIir2GEf1GIGRQ6notxbUoVDwNznZqTkk1VrblVcsNVrSRvVJFCYFouqqXhwTQluX0LPwy5YWTnAXHn0X6iW5dpht2Yu9CYcjI0hmhkdKyzBuWnzO57n2d8R7AUOvqTJ6SIFUYwHak_Vkn6g_0XXYWHMo8sCvewWTj50RWinuNUbVb0uJSj-f0os76MTFiXyCitgV4oHlidsCIykFX5xkI1J96EZwAbEv5VaC9vU16zfbwo3KxPAv8EvwddOIvhsmdPBy03TCyTE6QttgL7F3za9fyqpdBVSMu3Pgbv-aqQnbCLhBgy7fNIliAFMLwiZmvVlzYO3BSYoZbPbsmArFaYMPCUt8MvBTXYii3XkjVOo07NF8oTjvJzCQ1vZZpCt4xUyoB5W1EYSw10NLs8sFPBUvSnl88SQS73JtfewUexH6pxQM3_buPtJgFoJ82j-5H9eHPjAby8r94vk4Y1ABGcX-159nabs0NDZHfokAdnjIoapcv5P3ValEljUuRlvhHtuLkc_vcUcXhd47imF-mzyYgH_yfFu5]--></g></svg>