<?xml version="1.0" encoding="us-ascii" standalone="no"?><svg xmlns="http://www.w3.org/2000/svg" xmlns:xlink="http://www.w3.org/1999/xlink" contentStyleType="text/css" height="977px" preserveAspectRatio="none" style="width:654px;height:977px;background:#FFFFFF;" version="1.1" viewBox="0 0 654 977" width="654px" zoomAndPan="magnify"><defs/><g><!--class RegisterCandidateUI--><g id="elem_RegisterCandidateUI"><rect codeLine="7" fill="#F1F1F1" height="97.8242" id="RegisterCandidateUI" rx="2.5" ry="2.5" style="stroke:#181818;stroke-width:0.5;" width="162" x="205" y="7"/><ellipse cx="220" cy="29.291" fill="#C2C2C2" rx="11" ry="11" style="stroke:#181818;stroke-width:1.0;"/><path d="M222.7656,25.166 Q222.9219,24.9473 223.1094,24.8379 Q223.2969,24.7285 223.5156,24.7285 Q223.8906,24.7285 224.125,24.9941 Q224.3594,25.2441 224.3594,25.8535 L224.3594,27.3066 Q224.3594,27.916 224.125,28.1816 Q223.8906,28.4473 223.5156,28.4473 Q223.1719,28.4473 222.9688,28.2441 Q222.7656,28.0566 222.6563,27.541 Q222.6094,27.1816 222.4219,26.9941 Q222.0938,26.6191 221.4844,26.4004 Q220.875,26.1816 220.25,26.1816 Q219.4844,26.1816 218.8438,26.5098 Q218.2188,26.8379 217.7188,27.5879 Q217.2344,28.3379 217.2344,29.3691 L217.2344,30.4629 Q217.2344,31.6973 218.125,32.5254 Q219.0156,33.3379 220.6094,33.3379 Q221.5469,33.3379 222.2031,33.0879 Q222.5938,32.9316 223.0156,32.4941 Q223.2813,32.2285 223.4219,32.1504 Q223.5781,32.0723 223.7813,32.0723 Q224.1094,32.0723 224.3594,32.3379 Q224.625,32.5879 224.625,32.9316 Q224.625,33.2754 224.2813,33.6816 Q223.7813,34.2598 222.9844,34.5879 Q221.9063,35.041 220.6094,35.041 Q219.0938,35.041 217.8906,34.416 Q216.9063,33.916 216.2188,32.8535 Q215.5313,31.7754 215.5313,30.4941 L215.5313,29.3379 Q215.5313,28.0098 216.1406,26.8691 Q216.7656,25.7129 217.8594,25.1035 Q218.9531,24.4785 220.1875,24.4785 Q220.9219,24.4785 221.5625,24.6504 Q222.2188,24.8066 222.7656,25.166 Z " fill="#000000"/><text fill="#000000" font-family="FG Virgil" font-size="12" font-style="italic" lengthAdjust="spacing" textLength="82" x="258" y="24.9492">&#171;presentation&#187;</text><text fill="#000000" font-family="FG Virgil" font-size="14" lengthAdjust="spacing" textLength="130" x="234" y="43.0684">RegisterCandidateUI</text><line style="stroke:#181818;stroke-width:0.5;" x1="206" x2="366" y1="51.582" y2="51.582"/><line style="stroke:#181818;stroke-width:0.5;" x1="206" x2="366" y1="59.582" y2="59.582"/><text fill="#000000" font-family="FG Virgil" font-size="14" lengthAdjust="spacing" textLength="60" x="211" y="78.6895">doShow()</text><text fill="#000000" font-family="FG Virgil" font-size="14" lengthAdjust="spacing" textLength="85" x="211" y="97.3105">chooseRole()</text></g><!--class RegisterCandidateController--><g id="elem_RegisterCandidateController"><rect codeLine="12" fill="#F1F1F1" height="79.2031" id="RegisterCandidateController" rx="2.5" ry="2.5" style="stroke:#181818;stroke-width:0.5;" width="212" x="180" y="184"/><ellipse cx="195" cy="206.291" fill="#C2C2C2" rx="11" ry="11" style="stroke:#181818;stroke-width:1.0;"/><path d="M197.7656,202.166 Q197.9219,201.9473 198.1094,201.8379 Q198.2969,201.7285 198.5156,201.7285 Q198.8906,201.7285 199.125,201.9941 Q199.3594,202.2441 199.3594,202.8535 L199.3594,204.3066 Q199.3594,204.916 199.125,205.1816 Q198.8906,205.4473 198.5156,205.4473 Q198.1719,205.4473 197.9688,205.2441 Q197.7656,205.0566 197.6563,204.541 Q197.6094,204.1816 197.4219,203.9941 Q197.0938,203.6191 196.4844,203.4004 Q195.875,203.1816 195.25,203.1816 Q194.4844,203.1816 193.8438,203.5098 Q193.2188,203.8379 192.7188,204.5879 Q192.2344,205.3379 192.2344,206.3691 L192.2344,207.4629 Q192.2344,208.6973 193.125,209.5254 Q194.0156,210.3379 195.6094,210.3379 Q196.5469,210.3379 197.2031,210.0879 Q197.5938,209.9316 198.0156,209.4941 Q198.2813,209.2285 198.4219,209.1504 Q198.5781,209.0723 198.7813,209.0723 Q199.1094,209.0723 199.3594,209.3379 Q199.625,209.5879 199.625,209.9316 Q199.625,210.2754 199.2813,210.6816 Q198.7813,211.2598 197.9844,211.5879 Q196.9063,212.041 195.6094,212.041 Q194.0938,212.041 192.8906,211.416 Q191.9063,210.916 191.2188,209.8535 Q190.5313,208.7754 190.5313,207.4941 L190.5313,206.3379 Q190.5313,205.0098 191.1406,203.8691 Q191.7656,202.7129 192.8594,202.1035 Q193.9531,201.4785 195.1875,201.4785 Q195.9219,201.4785 196.5625,201.6504 Q197.2188,201.8066 197.7656,202.166 Z " fill="#000000"/><text fill="#000000" font-family="FG Virgil" font-size="12" font-style="italic" lengthAdjust="spacing" textLength="74" x="262" y="201.9492">&#171;application&#187;</text><text fill="#000000" font-family="FG Virgil" font-size="14" lengthAdjust="spacing" textLength="180" x="209" y="220.0684">RegisterCandidateController</text><line style="stroke:#181818;stroke-width:0.5;" x1="181" x2="391" y1="228.582" y2="228.582"/><line style="stroke:#181818;stroke-width:0.5;" x1="181" x2="391" y1="236.582" y2="236.582"/><text fill="#000000" font-family="FG Virgil" font-size="14" lengthAdjust="spacing" textLength="63" x="186" y="255.6895">addUser()</text></g><!--class AuthorizationService--><g id="elem_AuthorizationService"><rect codeLine="16" fill="#F1F1F1" height="79.2031" id="AuthorizationService" rx="2.5" ry="2.5" style="stroke:#181818;stroke-width:0.5;" width="286" x="7" y="342"/><ellipse cx="81.25" cy="364.291" fill="#C2C2C2" rx="11" ry="11" style="stroke:#181818;stroke-width:1.0;"/><path d="M84.0156,360.166 Q84.1719,359.9473 84.3594,359.8379 Q84.5469,359.7285 84.7656,359.7285 Q85.1406,359.7285 85.375,359.9941 Q85.6094,360.2441 85.6094,360.8535 L85.6094,362.3066 Q85.6094,362.916 85.375,363.1816 Q85.1406,363.4473 84.7656,363.4473 Q84.4219,363.4473 84.2188,363.2441 Q84.0156,363.0566 83.9063,362.541 Q83.8594,362.1816 83.6719,361.9941 Q83.3438,361.6191 82.7344,361.4004 Q82.125,361.1816 81.5,361.1816 Q80.7344,361.1816 80.0938,361.5098 Q79.4688,361.8379 78.9688,362.5879 Q78.4844,363.3379 78.4844,364.3691 L78.4844,365.4629 Q78.4844,366.6973 79.375,367.5254 Q80.2656,368.3379 81.8594,368.3379 Q82.7969,368.3379 83.4531,368.0879 Q83.8438,367.9316 84.2656,367.4941 Q84.5313,367.2285 84.6719,367.1504 Q84.8281,367.0723 85.0313,367.0723 Q85.3594,367.0723 85.6094,367.3379 Q85.875,367.5879 85.875,367.9316 Q85.875,368.2754 85.5313,368.6816 Q85.0313,369.2598 84.2344,369.5879 Q83.1563,370.041 81.8594,370.041 Q80.3438,370.041 79.1406,369.416 Q78.1563,368.916 77.4688,367.8535 Q76.7813,366.7754 76.7813,365.4941 L76.7813,364.3379 Q76.7813,363.0098 77.3906,361.8691 Q78.0156,360.7129 79.1094,360.1035 Q80.2031,359.4785 81.4375,359.4785 Q82.1719,359.4785 82.8125,359.6504 Q83.4688,359.8066 84.0156,360.166 Z " fill="#000000"/><text fill="#000000" font-family="FG Virgil" font-size="12" font-style="italic" lengthAdjust="spacing" textLength="53" x="139.75" y="359.9492">&#171;service&#187;</text><text fill="#000000" font-family="FG Virgil" font-size="14" lengthAdjust="spacing" textLength="129" x="101.75" y="378.0684">AuthorizationService</text><line style="stroke:#181818;stroke-width:0.5;" x1="8" x2="292" y1="386.582" y2="386.582"/><line style="stroke:#181818;stroke-width:0.5;" x1="8" x2="292" y1="394.582" y2="394.582"/><text fill="#000000" font-family="FG Virgil" font-size="14" lengthAdjust="spacing" textLength="274" x="13" y="413.6895">ensureAuthenticatedUserHasAnyOf(Role...)</text></g><!--class UserSession--><g id="elem_UserSession"><rect codeLine="20" fill="#F1F1F1" height="66.6211" id="UserSession" rx="2.5" ry="2.5" style="stroke:#181818;stroke-width:0.5;" width="137" x="69.5" y="534"/><ellipse cx="96.2" cy="550" fill="#C2C2C2" rx="11" ry="11" style="stroke:#181818;stroke-width:1.0;"/><path d="M98.9656,545.875 Q99.1219,545.6563 99.3094,545.5469 Q99.4969,545.4375 99.7156,545.4375 Q100.0906,545.4375 100.325,545.7031 Q100.5594,545.9531 100.5594,546.5625 L100.5594,548.0156 Q100.5594,548.625 100.325,548.8906 Q100.0906,549.1563 99.7156,549.1563 Q99.3719,549.1563 99.1688,548.9531 Q98.9656,548.7656 98.8563,548.25 Q98.8094,547.8906 98.6219,547.7031 Q98.2938,547.3281 97.6844,547.1094 Q97.075,546.8906 96.45,546.8906 Q95.6844,546.8906 95.0438,547.2188 Q94.4188,547.5469 93.9188,548.2969 Q93.4344,549.0469 93.4344,550.0781 L93.4344,551.1719 Q93.4344,552.4063 94.325,553.2344 Q95.2156,554.0469 96.8094,554.0469 Q97.7469,554.0469 98.4031,553.7969 Q98.7938,553.6406 99.2156,553.2031 Q99.4813,552.9375 99.6219,552.8594 Q99.7781,552.7813 99.9813,552.7813 Q100.3094,552.7813 100.5594,553.0469 Q100.825,553.2969 100.825,553.6406 Q100.825,553.9844 100.4813,554.3906 Q99.9813,554.9688 99.1844,555.2969 Q98.1063,555.75 96.8094,555.75 Q95.2938,555.75 94.0906,555.125 Q93.1063,554.625 92.4188,553.5625 Q91.7313,552.4844 91.7313,551.2031 L91.7313,550.0469 Q91.7313,548.7188 92.3406,547.5781 Q92.9656,546.4219 94.0594,545.8125 Q95.1531,545.1875 96.3875,545.1875 Q97.1219,545.1875 97.7625,545.3594 Q98.4188,545.5156 98.9656,545.875 Z " fill="#000000"/><text fill="#000000" font-family="FG Virgil" font-size="14" lengthAdjust="spacing" textLength="79" x="112.8" y="555.7969">UserSession</text><line style="stroke:#181818;stroke-width:0.5;" x1="70.5" x2="205.5" y1="566" y2="566"/><line style="stroke:#181818;stroke-width:0.5;" x1="70.5" x2="205.5" y1="574" y2="574"/><text fill="#000000" font-family="FG Virgil" font-size="14" lengthAdjust="spacing" textLength="125" x="75.5" y="593.1074">authenticatedUser()</text></g><!--class UserManagementService--><g id="elem_UserManagementService"><rect codeLine="24" fill="#F1F1F1" height="79.2031" id="UserManagementService" rx="2.5" ry="2.5" style="stroke:#181818;stroke-width:0.5;" width="190" x="375" y="342"/><ellipse cx="390" cy="364.291" fill="#C2C2C2" rx="11" ry="11" style="stroke:#181818;stroke-width:1.0;"/><path d="M392.7656,360.166 Q392.9219,359.9473 393.1094,359.8379 Q393.2969,359.7285 393.5156,359.7285 Q393.8906,359.7285 394.125,359.9941 Q394.3594,360.2441 394.3594,360.8535 L394.3594,362.3066 Q394.3594,362.916 394.125,363.1816 Q393.8906,363.4473 393.5156,363.4473 Q393.1719,363.4473 392.9688,363.2441 Q392.7656,363.0566 392.6563,362.541 Q392.6094,362.1816 392.4219,361.9941 Q392.0938,361.6191 391.4844,361.4004 Q390.875,361.1816 390.25,361.1816 Q389.4844,361.1816 388.8438,361.5098 Q388.2188,361.8379 387.7188,362.5879 Q387.2344,363.3379 387.2344,364.3691 L387.2344,365.4629 Q387.2344,366.6973 388.125,367.5254 Q389.0156,368.3379 390.6094,368.3379 Q391.5469,368.3379 392.2031,368.0879 Q392.5938,367.9316 393.0156,367.4941 Q393.2813,367.2285 393.4219,367.1504 Q393.5781,367.0723 393.7813,367.0723 Q394.1094,367.0723 394.3594,367.3379 Q394.625,367.5879 394.625,367.9316 Q394.625,368.2754 394.2813,368.6816 Q393.7813,369.2598 392.9844,369.5879 Q391.9063,370.041 390.6094,370.041 Q389.0938,370.041 387.8906,369.416 Q386.9063,368.916 386.2188,367.8535 Q385.5313,366.7754 385.5313,365.4941 L385.5313,364.3379 Q385.5313,363.0098 386.1406,361.8691 Q386.7656,360.7129 387.8594,360.1035 Q388.9531,359.4785 390.1875,359.4785 Q390.9219,359.4785 391.5625,359.6504 Q392.2188,359.8066 392.7656,360.166 Z " fill="#000000"/><text fill="#000000" font-family="FG Virgil" font-size="12" font-style="italic" lengthAdjust="spacing" textLength="53" x="456.5" y="359.9492">&#171;service&#187;</text><text fill="#000000" font-family="FG Virgil" font-size="14" lengthAdjust="spacing" textLength="158" x="404" y="378.0684">UserManagementService</text><line style="stroke:#181818;stroke-width:0.5;" x1="376" x2="564" y1="386.582" y2="386.582"/><line style="stroke:#181818;stroke-width:0.5;" x1="376" x2="564" y1="394.582" y2="394.582"/><text fill="#000000" font-family="FG Virgil" font-size="14" lengthAdjust="spacing" textLength="113" x="381" y="413.6895">registerNewUser()</text></g><!--class SystemUserBuilder--><g id="elem_SystemUserBuilder"><rect codeLine="28" fill="#F1F1F1" height="135.0664" id="SystemUserBuilder" rx="2.5" ry="2.5" style="stroke:#181818;stroke-width:0.5;" width="151" x="241.5" y="500"/><ellipse cx="256.5" cy="522.291" fill="#C2C2C2" rx="11" ry="11" style="stroke:#181818;stroke-width:1.0;"/><path d="M259.2656,518.166 Q259.4219,517.9473 259.6094,517.8379 Q259.7969,517.7285 260.0156,517.7285 Q260.3906,517.7285 260.625,517.9941 Q260.8594,518.2441 260.8594,518.8535 L260.8594,520.3066 Q260.8594,520.916 260.625,521.1816 Q260.3906,521.4473 260.0156,521.4473 Q259.6719,521.4473 259.4688,521.2441 Q259.2656,521.0566 259.1563,520.541 Q259.1094,520.1816 258.9219,519.9941 Q258.5938,519.6191 257.9844,519.4004 Q257.375,519.1816 256.75,519.1816 Q255.9844,519.1816 255.3438,519.5098 Q254.7188,519.8379 254.2188,520.5879 Q253.7344,521.3379 253.7344,522.3691 L253.7344,523.4629 Q253.7344,524.6973 254.625,525.5254 Q255.5156,526.3379 257.1094,526.3379 Q258.0469,526.3379 258.7031,526.0879 Q259.0938,525.9316 259.5156,525.4941 Q259.7813,525.2285 259.9219,525.1504 Q260.0781,525.0723 260.2813,525.0723 Q260.6094,525.0723 260.8594,525.3379 Q261.125,525.5879 261.125,525.9316 Q261.125,526.2754 260.7813,526.6816 Q260.2813,527.2598 259.4844,527.5879 Q258.4063,528.041 257.1094,528.041 Q255.5938,528.041 254.3906,527.416 Q253.4063,526.916 252.7188,525.8535 Q252.0313,524.7754 252.0313,523.4941 L252.0313,522.3379 Q252.0313,521.0098 252.6406,519.8691 Q253.2656,518.7129 254.3594,518.1035 Q255.4531,517.4785 256.6875,517.4785 Q257.4219,517.4785 258.0625,517.6504 Q258.7188,517.8066 259.2656,518.166 Z " fill="#000000"/><text fill="#000000" font-family="FG Virgil" font-size="12" font-style="italic" lengthAdjust="spacing" textLength="53" x="303.5" y="517.9492">&#171;builder&#187;</text><text fill="#000000" font-family="FG Virgil" font-size="14" lengthAdjust="spacing" textLength="119" x="270.5" y="536.0684">SystemUserBuilder</text><line style="stroke:#181818;stroke-width:0.5;" x1="242.5" x2="391.5" y1="544.582" y2="544.582"/><line style="stroke:#181818;stroke-width:0.5;" x1="242.5" x2="391.5" y1="552.582" y2="552.582"/><text fill="#000000" font-family="FG Virgil" font-size="14" lengthAdjust="spacing" textLength="34" x="247.5" y="571.6895">with()</text><text fill="#000000" font-family="FG Virgil" font-size="14" lengthAdjust="spacing" textLength="135" x="247.5" y="590.3105">createdOn(Calendar)</text><text fill="#000000" font-family="FG Virgil" font-size="14" lengthAdjust="spacing" textLength="70" x="247.5" y="608.9316">withRoles()</text><text fill="#000000" font-family="FG Virgil" font-size="14" lengthAdjust="spacing" textLength="40" x="247.5" y="627.5527">build()</text></g><!--class candidate:SystemUser--><g id="elem_candidate:SystemUser"><rect codeLine="35" fill="#F1F1F1" height="97.8242" id="candidate:SystemUser" rx="2.5" ry="2.5" style="stroke:#181818;stroke-width:0.5;" width="173" x="225.5" y="714"/><ellipse cx="240.5" cy="736.291" fill="#C2C2C2" rx="11" ry="11" style="stroke:#181818;stroke-width:1.0;"/><path d="M243.2656,732.166 Q243.4219,731.9473 243.6094,731.8379 Q243.7969,731.7285 244.0156,731.7285 Q244.3906,731.7285 244.625,731.9941 Q244.8594,732.2441 244.8594,732.8535 L244.8594,734.3066 Q244.8594,734.916 244.625,735.1816 Q244.3906,735.4473 244.0156,735.4473 Q243.6719,735.4473 243.4688,735.2441 Q243.2656,735.0566 243.1563,734.541 Q243.1094,734.1816 242.9219,733.9941 Q242.5938,733.6191 241.9844,733.4004 Q241.375,733.1816 240.75,733.1816 Q239.9844,733.1816 239.3438,733.5098 Q238.7188,733.8379 238.2188,734.5879 Q237.7344,735.3379 237.7344,736.3691 L237.7344,737.4629 Q237.7344,738.6973 238.625,739.5254 Q239.5156,740.3379 241.1094,740.3379 Q242.0469,740.3379 242.7031,740.0879 Q243.0938,739.9316 243.5156,739.4941 Q243.7813,739.2285 243.9219,739.1504 Q244.0781,739.0723 244.2813,739.0723 Q244.6094,739.0723 244.8594,739.3379 Q245.125,739.5879 245.125,739.9316 Q245.125,740.2754 244.7813,740.6816 Q244.2813,741.2598 243.4844,741.5879 Q242.4063,742.041 241.1094,742.041 Q239.5938,742.041 238.3906,741.416 Q237.4063,740.916 236.7188,739.8535 Q236.0313,738.7754 236.0313,737.4941 L236.0313,736.3379 Q236.0313,735.0098 236.6406,733.8691 Q237.2656,732.7129 238.3594,732.1035 Q239.4531,731.4785 240.6875,731.4785 Q241.4219,731.4785 242.0625,731.6504 Q242.7188,731.8066 243.2656,732.166 Z " fill="#000000"/><text fill="#000000" font-family="FG Virgil" font-size="12" font-style="italic" lengthAdjust="spacing" textLength="56" x="297" y="731.9492">&#171;domain&#187;</text><text fill="#000000" font-family="FG Virgil" font-size="14" lengthAdjust="spacing" textLength="141" x="254.5" y="750.0684">candidate:SystemUser</text><line style="stroke:#181818;stroke-width:0.5;" x1="226.5" x2="397.5" y1="758.582" y2="758.582"/><line style="stroke:#181818;stroke-width:0.5;" x1="226.5" x2="397.5" y1="766.582" y2="766.582"/><text fill="#000000" font-family="FG Virgil" font-size="14" lengthAdjust="spacing" textLength="85" x="231.5" y="785.6895">SystemUser()</text><text fill="#000000" font-family="FG Virgil" font-size="14" lengthAdjust="spacing" textLength="132" x="231.5" y="804.3105">validateParameters()</text></g><!--class PersistenceContext--><g id="elem_PersistenceContext"><rect codeLine="40" fill="#F1F1F1" height="79.2031" id="PersistenceContext" rx="2.5" ry="2.5" style="stroke:#181818;stroke-width:0.5;" width="154" x="428" y="528"/><ellipse cx="443" cy="550.291" fill="#C2C2C2" rx="11" ry="11" style="stroke:#181818;stroke-width:1.0;"/><path d="M445.7656,546.166 Q445.9219,545.9473 446.1094,545.8379 Q446.2969,545.7285 446.5156,545.7285 Q446.8906,545.7285 447.125,545.9941 Q447.3594,546.2441 447.3594,546.8535 L447.3594,548.3066 Q447.3594,548.916 447.125,549.1816 Q446.8906,549.4473 446.5156,549.4473 Q446.1719,549.4473 445.9688,549.2441 Q445.7656,549.0566 445.6563,548.541 Q445.6094,548.1816 445.4219,547.9941 Q445.0938,547.6191 444.4844,547.4004 Q443.875,547.1816 443.25,547.1816 Q442.4844,547.1816 441.8438,547.5098 Q441.2188,547.8379 440.7188,548.5879 Q440.2344,549.3379 440.2344,550.3691 L440.2344,551.4629 Q440.2344,552.6973 441.125,553.5254 Q442.0156,554.3379 443.6094,554.3379 Q444.5469,554.3379 445.2031,554.0879 Q445.5938,553.9316 446.0156,553.4941 Q446.2813,553.2285 446.4219,553.1504 Q446.5781,553.0723 446.7813,553.0723 Q447.1094,553.0723 447.3594,553.3379 Q447.625,553.5879 447.625,553.9316 Q447.625,554.2754 447.2813,554.6816 Q446.7813,555.2598 445.9844,555.5879 Q444.9063,556.041 443.6094,556.041 Q442.0938,556.041 440.8906,555.416 Q439.9063,554.916 439.2188,553.8535 Q438.5313,552.7754 438.5313,551.4941 L438.5313,550.3379 Q438.5313,549.0098 439.1406,547.8691 Q439.7656,546.7129 440.8594,546.1035 Q441.9531,545.4785 443.1875,545.4785 Q443.9219,545.4785 444.5625,545.6504 Q445.2188,545.8066 445.7656,546.166 Z " fill="#000000"/><text fill="#000000" font-family="FG Virgil" font-size="12" font-style="italic" lengthAdjust="spacing" textLength="77" x="479.5" y="545.9492">&#171;persistence&#187;</text><text fill="#000000" font-family="FG Virgil" font-size="14" lengthAdjust="spacing" textLength="122" x="457" y="564.0684">PersistenceContext</text><line style="stroke:#181818;stroke-width:0.5;" x1="429" x2="581" y1="572.582" y2="572.582"/><line style="stroke:#181818;stroke-width:0.5;" x1="429" x2="581" y1="580.582" y2="580.582"/><text fill="#000000" font-family="FG Virgil" font-size="14" lengthAdjust="spacing" textLength="84" x="434" y="599.6895">repositories()</text></g><!--class RepositoryFactory--><g id="elem_RepositoryFactory"><rect codeLine="43" fill="#F1F1F1" height="79.2031" id="RepositoryFactory" rx="2.5" ry="2.5" style="stroke:#181818;stroke-width:0.5;" width="148" x="434" y="723.5"/><ellipse cx="449" cy="745.791" fill="#C2C2C2" rx="11" ry="11" style="stroke:#181818;stroke-width:1.0;"/><path d="M451.7656,741.666 Q451.9219,741.4473 452.1094,741.3379 Q452.2969,741.2285 452.5156,741.2285 Q452.8906,741.2285 453.125,741.4941 Q453.3594,741.7441 453.3594,742.3535 L453.3594,743.8066 Q453.3594,744.416 453.125,744.6816 Q452.8906,744.9473 452.5156,744.9473 Q452.1719,744.9473 451.9688,744.7441 Q451.7656,744.5566 451.6563,744.041 Q451.6094,743.6816 451.4219,743.4941 Q451.0938,743.1191 450.4844,742.9004 Q449.875,742.6816 449.25,742.6816 Q448.4844,742.6816 447.8438,743.0098 Q447.2188,743.3379 446.7188,744.0879 Q446.2344,744.8379 446.2344,745.8691 L446.2344,746.9629 Q446.2344,748.1973 447.125,749.0254 Q448.0156,749.8379 449.6094,749.8379 Q450.5469,749.8379 451.2031,749.5879 Q451.5938,749.4316 452.0156,748.9941 Q452.2813,748.7285 452.4219,748.6504 Q452.5781,748.5723 452.7813,748.5723 Q453.1094,748.5723 453.3594,748.8379 Q453.625,749.0879 453.625,749.4316 Q453.625,749.7754 453.2813,750.1816 Q452.7813,750.7598 451.9844,751.0879 Q450.9063,751.541 449.6094,751.541 Q448.0938,751.541 446.8906,750.916 Q445.9063,750.416 445.2188,749.3535 Q444.5313,748.2754 444.5313,746.9941 L444.5313,745.8379 Q444.5313,744.5098 445.1406,743.3691 Q445.7656,742.2129 446.8594,741.6035 Q447.9531,740.9785 449.1875,740.9785 Q449.9219,740.9785 450.5625,741.1504 Q451.2188,741.3066 451.7656,741.666 Z " fill="#000000"/><text fill="#000000" font-family="FG Virgil" font-size="12" font-style="italic" lengthAdjust="spacing" textLength="50" x="496" y="741.4492">&#171;factory&#187;</text><text fill="#000000" font-family="FG Virgil" font-size="14" lengthAdjust="spacing" textLength="116" x="463" y="759.5684">RepositoryFactory</text><line style="stroke:#181818;stroke-width:0.5;" x1="435" x2="581" y1="768.082" y2="768.082"/><line style="stroke:#181818;stroke-width:0.5;" x1="435" x2="581" y1="776.082" y2="776.082"/><text fill="#000000" font-family="FG Virgil" font-size="14" lengthAdjust="spacing" textLength="45" x="440" y="795.1895">users()</text></g><!--class UserRepository--><g id="elem_UserRepository"><rect codeLine="46" fill="#F1F1F1" height="79.2031" id="UserRepository" rx="2.5" ry="2.5" style="stroke:#181818;stroke-width:0.5;" width="129" x="507.5" y="891"/><ellipse cx="522.5" cy="913.291" fill="#C2C2C2" rx="11" ry="11" style="stroke:#181818;stroke-width:1.0;"/><path d="M525.2656,909.166 Q525.4219,908.9473 525.6094,908.8379 Q525.7969,908.7285 526.0156,908.7285 Q526.3906,908.7285 526.625,908.9941 Q526.8594,909.2441 526.8594,909.8535 L526.8594,911.3066 Q526.8594,911.916 526.625,912.1816 Q526.3906,912.4473 526.0156,912.4473 Q525.6719,912.4473 525.4688,912.2441 Q525.2656,912.0566 525.1563,911.541 Q525.1094,911.1816 524.9219,910.9941 Q524.5938,910.6191 523.9844,910.4004 Q523.375,910.1816 522.75,910.1816 Q521.9844,910.1816 521.3438,910.5098 Q520.7188,910.8379 520.2188,911.5879 Q519.7344,912.3379 519.7344,913.3691 L519.7344,914.4629 Q519.7344,915.6973 520.625,916.5254 Q521.5156,917.3379 523.1094,917.3379 Q524.0469,917.3379 524.7031,917.0879 Q525.0938,916.9316 525.5156,916.4941 Q525.7813,916.2285 525.9219,916.1504 Q526.0781,916.0723 526.2813,916.0723 Q526.6094,916.0723 526.8594,916.3379 Q527.125,916.5879 527.125,916.9316 Q527.125,917.2754 526.7813,917.6816 Q526.2813,918.2598 525.4844,918.5879 Q524.4063,919.041 523.1094,919.041 Q521.5938,919.041 520.3906,918.416 Q519.4063,917.916 518.7188,916.8535 Q518.0313,915.7754 518.0313,914.4941 L518.0313,913.3379 Q518.0313,912.0098 518.6406,910.8691 Q519.2656,909.7129 520.3594,909.1035 Q521.4531,908.4785 522.6875,908.4785 Q523.4219,908.4785 524.0625,908.6504 Q524.7188,908.8066 525.2656,909.166 Z " fill="#000000"/><text fill="#000000" font-family="FG Virgil" font-size="12" font-style="italic" lengthAdjust="spacing" textLength="68" x="551" y="908.9492">&#171;repository&#187;</text><text fill="#000000" font-family="FG Virgil" font-size="14" lengthAdjust="spacing" textLength="97" x="536.5" y="927.0684">UserRepository</text><line style="stroke:#181818;stroke-width:0.5;" x1="508.5" x2="635.5" y1="935.582" y2="935.582"/><line style="stroke:#181818;stroke-width:0.5;" x1="508.5" x2="635.5" y1="943.582" y2="943.582"/><text fill="#000000" font-family="FG Virgil" font-size="14" lengthAdjust="spacing" textLength="69" x="513.5" y="962.6895">save(User)</text></g><!--link RegisterCandidateUI to RegisterCandidateController--><g id="link_RegisterCandidateUI_RegisterCandidateController"><path codeLine="50" d="M286,105.31 C286,130.31 286,154.41 286,177.85 " fill="none" id="RegisterCandidateUI-to-RegisterCandidateController" style="stroke:#181818;stroke-width:1.0;"/><polygon fill="#181818" points="286,183.85,290,174.85,286,178.85,282,174.85,286,183.85" style="stroke:#181818;stroke-width:1.0;"/><text fill="#000000" font-family="FG Virgil" font-size="13" lengthAdjust="spacing" textLength="75" x="287" y="150.0283">the controller</text></g><!--link RegisterCandidateController to AuthorizationService--><g id="link_RegisterCandidateController_AuthorizationService"><path codeLine="51" d="M252.38,263.06 C231.46,287.06 208.5828,313.2973 187.6428,337.3173 " fill="none" id="RegisterCandidateController-to-AuthorizationService" style="stroke:#181818;stroke-width:1.0;"/><polygon fill="#181818" points="183.7,341.84,192.6293,337.6845,186.9856,338.0711,186.599,332.4275,183.7,341.84" style="stroke:#181818;stroke-width:1.0;"/><text fill="#000000" font-family="FG Virgil" font-size="13" lengthAdjust="spacing" textLength="32" x="228" y="308.0283">authz</text></g><!--link RegisterCandidateController to UserManagementService--><g id="link_RegisterCandidateController_UserManagementService"><path codeLine="52" d="M331.48,263.06 C359.79,287.06 391.4935,313.9398 419.8235,337.9598 " fill="none" id="RegisterCandidateController-to-UserManagementService" style="stroke:#181818;stroke-width:1.0;"/><polygon fill="#181818" points="424.4,341.84,420.1221,332.9687,420.5863,338.6065,414.9485,339.0706,424.4,341.84" style="stroke:#181818;stroke-width:1.0;"/><text fill="#000000" font-family="FG Virgil" font-size="13" lengthAdjust="spacing" textLength="40" x="391" y="308.0283">service</text></g><!--link UserManagementService to SystemUserBuilder--><g id="link_UserManagementService_SystemUserBuilder"><path codeLine="53" d="M434.79,421.3 C426.24,430.91 417.21,441.26 409,451 C395.87,466.59 385.7628,478.9405 372.9128,495.0405 " fill="none" id="UserManagementService-to-SystemUserBuilder" style="stroke:#181818;stroke-width:1.0;"/><polygon fill="#181818" points="369.17,499.73,377.9106,495.191,372.289,495.8221,371.6579,490.2006,369.17,499.73" style="stroke:#181818;stroke-width:1.0;"/><text fill="#000000" font-family="FG Virgil" font-size="13" lengthAdjust="spacing" textLength="65" x="410" y="466.0283">userBuilder</text></g><!--link SystemUserBuilder to candidate:SystemUser--><g id="link_SystemUserBuilder_candidate:SystemUser"><path codeLine="54" d="M315.28,635.09 C314.61,661 314.0162,684.122 313.3962,707.922 " fill="none" id="SystemUserBuilder-to-candidate:SystemUser" style="stroke:#181818;stroke-width:1.0;"/><polygon fill="#181818" points="313.24,713.92,317.473,705.0272,313.3702,708.9217,309.4757,704.8189,313.24,713.92" style="stroke:#181818;stroke-width:1.0;"/></g><!--link AuthorizationService to UserSession--><g id="link_AuthorizationService_UserSession"><path codeLine="55" d="M147.48,421.07 C145.31,454.48 142.5809,496.2827 140.5209,527.8327 " fill="none" id="AuthorizationService-to-UserSession" style="stroke:#181818;stroke-width:1.0;"/><polygon fill="#181818" points="140.13,533.82,144.7079,525.0997,140.4558,528.8306,136.7249,524.5785,140.13,533.82" style="stroke:#181818;stroke-width:1.0;"/><text fill="#000000" font-family="FG Virgil" font-size="13" lengthAdjust="spacing" textLength="45" x="147" y="466.0283">session</text></g><!--link UserManagementService to PersistenceContext--><g id="link_UserManagementService_PersistenceContext"><path codeLine="56" d="M477.34,421.07 C483.31,452.48 490.579,490.6957 496.549,522.0857 " fill="none" id="UserManagementService-to-PersistenceContext" style="stroke:#181818;stroke-width:1.0;"/><polygon fill="#181818" points="497.67,527.98,499.918,518.3911,496.7358,523.068,492.0589,519.8858,497.67,527.98" style="stroke:#181818;stroke-width:1.0;"/><text fill="#000000" font-family="FG Virgil" font-size="13" lengthAdjust="spacing" textLength="67" x="488" y="466.0283">persistence</text></g><!--link PersistenceContext to RepositoryFactory--><g id="link_PersistenceContext_RepositoryFactory"><path codeLine="57" d="M505.6,607.19 C506.12,640.94 506.7875,683.6507 507.3075,717.3707 " fill="none" id="PersistenceContext-to-RepositoryFactory" style="stroke:#181818;stroke-width:1.0;"/><polygon fill="#181818" points="507.4,723.37,511.2608,714.3094,507.3229,718.3706,503.2617,714.4327,507.4,723.37" style="stroke:#181818;stroke-width:1.0;"/><text fill="#000000" font-family="FG Virgil" font-size="13" lengthAdjust="spacing" textLength="39" x="508" y="680.0283">factory</text></g><!--link RepositoryFactory to UserRepository--><g id="link_RepositoryFactory_UserRepository"><path codeLine="58" d="M523.01,802.8 C533.28,829.36 544.6762,858.8337 554.9262,885.3437 " fill="none" id="RepositoryFactory-to-UserRepository" style="stroke:#181818;stroke-width:1.0;"/><polygon fill="#181818" points="557.09,890.94,557.5752,881.1031,555.2869,886.2765,550.1135,883.9881,557.09,890.94" style="stroke:#181818;stroke-width:1.0;"/><text fill="#000000" font-family="FG Virgil" font-size="13" lengthAdjust="spacing" textLength="25" x="545" y="857.0283">repo</text></g><!--link UserManagementService to UserRepository--><g id="link_UserManagementService_UserRepository"><path codeLine="59" d="M536.01,421.01 C562.19,440.69 588.55,467.4 599,500 C643.29,638.21 606.4126,808.1752 585.2826,884.9252 " fill="none" id="UserManagementService-to-UserRepository" style="stroke:#181818;stroke-width:1.0;"/><polygon fill="#181818" points="583.69,890.71,589.9354,883.0946,585.0172,885.8894,582.2224,880.9711,583.69,890.71" style="stroke:#181818;stroke-width:1.0;"/><text fill="#000000" font-family="FG Virgil" font-size="13" lengthAdjust="spacing" textLength="25" x="621" y="680.0283">repo</text></g><!--SRC=[XLDDRniX4BtpAr1EcqFy0rQHfTIIcnwQH5cbzocClIWih1ZMhbFrlnVOpzh4zSN0lFVcCRobTsLQSD3mnXehQcSRvDvro6Ygj23UOO-LFsda3eLVr2JkeDD-Qur_Wa3TVkK_bDihlS1G3T8UbTdp7MX2neG68lwAUqKUtGQCL18yldtZz_UjGqBZmIjhrcl-c_7maxQgxR6uJHjHMqluQZM6Wp-Vgcs29MUrHXTKeMsr4l-AWfHlX6ufyj3vsZhraO0LkeCI6DZKhoOc6keSHd1m6cKnAJq2FPZJyww8tbQhrK8ubYia2h9ZztDsSGR_3YOClGcOpusuuT9FU3oNg4wXqCJJBvtICatXPx-Qw4Vbwt6e3gEHPrDiGAEHu6udIBmE3RWaiUnp8yQ1btFBcz1CsWRKFEsvE2WTG2VQIym8XalGKlObxEFLZ4WFYRyyZ-6OJnSpQ2qf7vuDUuKn3yFnQGiY_aN-hbzEt8x6jlFSPs8WJE8pX-20HGGcjxaGtzsjhyQnvE7fkPWEs3Lm5Cl6iamH-lWlEP-baWzPOlbwP5v6g4mJ6tRiiXvP-K2mx1r6V-Ed4LsbrHLNcMIKV14CbW7qBt8UY98FUM2NjT7P8WrbYjeLPtdyNm00]--></g></svg>