<?xml version="1.0" encoding="us-ascii" standalone="no"?><svg xmlns="http://www.w3.org/2000/svg" xmlns:xlink="http://www.w3.org/1999/xlink" contentStyleType="text/css" height="771px" preserveAspectRatio="none" style="width:1081px;height:771px;background:#FFFFFF;" version="1.1" viewBox="0 0 1081 771" width="1081px" zoomAndPan="magnify"><defs/><g><text fill="#000000" font-family="sans-serif" font-size="14" font-weight="bold" lengthAdjust="spacing" textLength="285" x="400.25" y="30.1074">System Sequence Diagram (SSD) - UC006</text><rect fill="#FFFFFF" height="536.9473" style="stroke:#181818;stroke-width:1.0;" width="10" x="61.5" y="133.2422"/><rect fill="#FFFFFF" height="31.291" style="stroke:#181818;stroke-width:1.0;" width="10" x="344.5" y="156.5332"/><rect fill="#FFFFFF" height="31.291" style="stroke:#181818;stroke-width:1.0;" width="10" x="344.5" y="219.1152"/><rect fill="#FFFFFF" height="31.291" style="stroke:#181818;stroke-width:1.0;" width="10" x="344.5" y="281.6973"/><rect fill="#FFFFFF" height="31.291" style="stroke:#181818;stroke-width:1.0;" width="10" x="344.5" y="344.2793"/><rect fill="#FFFFFF" height="31.291" style="stroke:#181818;stroke-width:1.0;" width="10" x="344.5" y="406.8613"/><rect fill="#FFFFFF" height="31.291" style="stroke:#181818;stroke-width:1.0;" width="10" x="344.5" y="469.4434"/><rect fill="#FFFFFF" height="31.291" style="stroke:#181818;stroke-width:1.0;" width="10" x="344.5" y="532.0254"/><rect fill="#FFFFFF" height="75.582" style="stroke:#181818;stroke-width:1.0;" width="10" x="344.5" y="594.6074"/><line style="stroke:#181818;stroke-width:0.5;stroke-dasharray:5.0,5.0;" x1="66" x2="66" y1="123.2422" y2="688.1895"/><line style="stroke:#181818;stroke-width:0.5;stroke-dasharray:5.0,5.0;" x1="349.5" x2="349.5" y1="123.2422" y2="688.1895"/><text fill="#000000" font-family="sans-serif" font-size="14" lengthAdjust="spacing" textLength="117" x="5" y="119.7285">CustomerManager</text><ellipse cx="66.5" cy="53.1211" fill="#E3E3E3" rx="8" ry="8" style="stroke:#181818;stroke-width:0.5;"/><path d="M66.5,61.1211 L66.5,88.1211 M53.5,69.1211 L79.5,69.1211 M66.5,88.1211 L53.5,103.1211 M66.5,88.1211 L79.5,103.1211 " fill="none" style="stroke:#181818;stroke-width:0.5;"/><text fill="#000000" font-family="sans-serif" font-size="14" lengthAdjust="spacing" textLength="117" x="5" y="702.2969">CustomerManager</text><ellipse cx="66.5" cy="714.3105" fill="#E3E3E3" rx="8" ry="8" style="stroke:#181818;stroke-width:0.5;"/><path d="M66.5,722.3105 L66.5,749.3105 M53.5,730.3105 L79.5,730.3105 M66.5,749.3105 L53.5,764.3105 M66.5,749.3105 L79.5,764.3105 " fill="none" style="stroke:#181818;stroke-width:0.5;"/><rect fill="#E3E3E3" height="32.6211" rx="2.5" ry="2.5" style="stroke:#181818;stroke-width:0.5;" width="64" x="317.5" y="89.6211"/><text fill="#000000" font-family="sans-serif" font-size="14" lengthAdjust="spacing" textLength="50" x="324.5" y="111.7285">:System</text><rect fill="#E3E3E3" height="32.6211" rx="2.5" ry="2.5" style="stroke:#181818;stroke-width:0.5;" width="64" x="317.5" y="687.1895"/><text fill="#000000" font-family="sans-serif" font-size="14" lengthAdjust="spacing" textLength="50" x="324.5" y="709.2969">:System</text><rect fill="#FFFFFF" height="536.9473" style="stroke:#181818;stroke-width:1.0;" width="10" x="61.5" y="133.2422"/><rect fill="#FFFFFF" height="31.291" style="stroke:#181818;stroke-width:1.0;" width="10" x="344.5" y="156.5332"/><rect fill="#FFFFFF" height="31.291" style="stroke:#181818;stroke-width:1.0;" width="10" x="344.5" y="219.1152"/><rect fill="#FFFFFF" height="31.291" style="stroke:#181818;stroke-width:1.0;" width="10" x="344.5" y="281.6973"/><rect fill="#FFFFFF" height="31.291" style="stroke:#181818;stroke-width:1.0;" width="10" x="344.5" y="344.2793"/><rect fill="#FFFFFF" height="31.291" style="stroke:#181818;stroke-width:1.0;" width="10" x="344.5" y="406.8613"/><rect fill="#FFFFFF" height="31.291" style="stroke:#181818;stroke-width:1.0;" width="10" x="344.5" y="469.4434"/><rect fill="#FFFFFF" height="31.291" style="stroke:#181818;stroke-width:1.0;" width="10" x="344.5" y="532.0254"/><rect fill="#FFFFFF" height="75.582" style="stroke:#181818;stroke-width:1.0;" width="10" x="344.5" y="594.6074"/><polygon fill="#181818" points="332.5,152.5332,342.5,156.5332,332.5,160.5332,336.5,156.5332" style="stroke:#181818;stroke-width:1.0;"/><line style="stroke:#181818;stroke-width:1.0;" x1="71.5" x2="338.5" y1="156.5332" y2="156.5332"/><text fill="#000000" font-family="sans-serif" font-size="13" lengthAdjust="spacing" textLength="175" x="78.5" y="151.2705">asks to register a job opening.</text><polygon fill="#181818" points="82.5,183.8242,72.5,187.8242,82.5,191.8242,78.5,187.8242" style="stroke:#181818;stroke-width:1.0;"/><line style="stroke:#181818;stroke-width:1.0;" x1="76.5" x2="348.5" y1="187.8242" y2="187.8242"/><text fill="#000000" font-family="sans-serif" font-size="13" lengthAdjust="spacing" textLength="142" x="88.5" y="182.5615">requests Title or function</text><polygon fill="#181818" points="332.5,215.1152,342.5,219.1152,332.5,223.1152,336.5,219.1152" style="stroke:#181818;stroke-width:1.0;"/><line style="stroke:#181818;stroke-width:1.0;" x1="71.5" x2="338.5" y1="219.1152" y2="219.1152"/><text fill="#000000" font-family="sans-serif" font-size="13" lengthAdjust="spacing" textLength="139" x="78.5" y="213.8525">provides Title or function</text><polygon fill="#181818" points="82.5,246.4063,72.5,250.4063,82.5,254.4063,78.5,250.4063" style="stroke:#181818;stroke-width:1.0;"/><line style="stroke:#181818;stroke-width:1.0;" x1="76.5" x2="348.5" y1="250.4063" y2="250.4063"/><text fill="#000000" font-family="sans-serif" font-size="13" lengthAdjust="spacing" textLength="102" x="88.5" y="245.1436">requests Address</text><polygon fill="#181818" points="332.5,277.6973,342.5,281.6973,332.5,285.6973,336.5,281.6973" style="stroke:#181818;stroke-width:1.0;"/><line style="stroke:#181818;stroke-width:1.0;" x1="71.5" x2="338.5" y1="281.6973" y2="281.6973"/><text fill="#000000" font-family="sans-serif" font-size="13" lengthAdjust="spacing" textLength="99" x="78.5" y="276.4346">provides Address</text><polygon fill="#181818" points="82.5,308.9883,72.5,312.9883,82.5,316.9883,78.5,312.9883" style="stroke:#181818;stroke-width:1.0;"/><line style="stroke:#181818;stroke-width:1.0;" x1="76.5" x2="348.5" y1="312.9883" y2="312.9883"/><text fill="#000000" font-family="sans-serif" font-size="13" lengthAdjust="spacing" textLength="99" x="88.5" y="307.7256">display customer</text><polygon fill="#181818" points="332.5,340.2793,342.5,344.2793,332.5,348.2793,336.5,344.2793" style="stroke:#181818;stroke-width:1.0;"/><line style="stroke:#181818;stroke-width:1.0;" x1="71.5" x2="338.5" y1="344.2793" y2="344.2793"/><text fill="#000000" font-family="sans-serif" font-size="13" lengthAdjust="spacing" textLength="93" x="78.5" y="339.0166">select customer</text><polygon fill="#181818" points="82.5,371.5703,72.5,375.5703,82.5,379.5703,78.5,375.5703" style="stroke:#181818;stroke-width:1.0;"/><line style="stroke:#181818;stroke-width:1.0;" x1="76.5" x2="348.5" y1="375.5703" y2="375.5703"/><text fill="#000000" font-family="sans-serif" font-size="13" lengthAdjust="spacing" textLength="174" x="88.5" y="370.3076">requests Number of vacancies</text><polygon fill="#181818" points="332.5,402.8613,342.5,406.8613,332.5,410.8613,336.5,406.8613" style="stroke:#181818;stroke-width:1.0;"/><line style="stroke:#181818;stroke-width:1.0;" x1="71.5" x2="338.5" y1="406.8613" y2="406.8613"/><text fill="#000000" font-family="sans-serif" font-size="13" lengthAdjust="spacing" textLength="171" x="78.5" y="401.5986">provides Number of vacancies</text><polygon fill="#181818" points="82.5,434.1523,72.5,438.1523,82.5,442.1523,78.5,438.1523" style="stroke:#181818;stroke-width:1.0;"/><line style="stroke:#181818;stroke-width:1.0;" x1="76.5" x2="348.5" y1="438.1523" y2="438.1523"/><text fill="#000000" font-family="sans-serif" font-size="13" lengthAdjust="spacing" textLength="119" x="88.5" y="432.8896">requests Description</text><polygon fill="#181818" points="332.5,465.4434,342.5,469.4434,332.5,473.4434,336.5,469.4434" style="stroke:#181818;stroke-width:1.0;"/><line style="stroke:#181818;stroke-width:1.0;" x1="71.5" x2="338.5" y1="469.4434" y2="469.4434"/><text fill="#000000" font-family="sans-serif" font-size="13" lengthAdjust="spacing" textLength="116" x="78.5" y="464.1807">provides Description</text><polygon fill="#181818" points="82.5,496.7344,72.5,500.7344,82.5,504.7344,78.5,500.7344" style="stroke:#181818;stroke-width:1.0;"/><line style="stroke:#181818;stroke-width:1.0;" x1="76.5" x2="348.5" y1="500.7344" y2="500.7344"/><text fill="#000000" font-family="sans-serif" font-size="13" lengthAdjust="spacing" textLength="249" x="88.5" y="495.4717">display Contract Types (full-time, part-time)</text><polygon fill="#181818" points="332.5,528.0254,342.5,532.0254,332.5,536.0254,336.5,532.0254" style="stroke:#181818;stroke-width:1.0;"/><line style="stroke:#181818;stroke-width:1.0;" x1="71.5" x2="338.5" y1="532.0254" y2="532.0254"/><text fill="#000000" font-family="sans-serif" font-size="13" lengthAdjust="spacing" textLength="120" x="78.5" y="526.7627">select Contract Type</text><polygon fill="#181818" points="82.5,559.3164,72.5,563.3164,82.5,567.3164,78.5,563.3164" style="stroke:#181818;stroke-width:1.0;"/><line style="stroke:#181818;stroke-width:1.0;" x1="76.5" x2="348.5" y1="563.3164" y2="563.3164"/><text fill="#000000" font-family="sans-serif" font-size="13" lengthAdjust="spacing" textLength="222" x="88.5" y="558.0537">display Modes (remote, hybrid, onsite)</text><polygon fill="#181818" points="332.5,590.6074,342.5,594.6074,332.5,598.6074,336.5,594.6074" style="stroke:#181818;stroke-width:1.0;"/><line style="stroke:#181818;stroke-width:1.0;" x1="71.5" x2="338.5" y1="594.6074" y2="594.6074"/><text fill="#000000" font-family="sans-serif" font-size="13" lengthAdjust="spacing" textLength="71" x="78.5" y="589.3447">select Mode</text><line style="stroke:#181818;stroke-width:1.0;" x1="354.5" x2="396.5" y1="625.8984" y2="625.8984"/><line style="stroke:#181818;stroke-width:1.0;" x1="396.5" x2="396.5" y1="625.8984" y2="638.8984"/><line style="stroke:#181818;stroke-width:1.0;" x1="355.5" x2="396.5" y1="638.8984" y2="638.8984"/><polygon fill="#181818" points="365.5,634.8984,355.5,638.8984,365.5,642.8984,361.5,638.8984" style="stroke:#181818;stroke-width:1.0;"/><text fill="#000000" font-family="sans-serif" font-size="13" lengthAdjust="spacing" textLength="713" x="361.5" y="620.6357">create Job Opening (Function, Address, Company, Number of vacancies, Description, Job Reference, Contract Type, Mode)</text><polygon fill="#181818" points="77.5,666.1895,67.5,670.1895,77.5,674.1895,73.5,670.1895" style="stroke:#181818;stroke-width:1.0;"/><line style="stroke:#181818;stroke-width:1.0;" x1="71.5" x2="348.5" y1="670.1895" y2="670.1895"/><text fill="#000000" font-family="sans-serif" font-size="13" lengthAdjust="spacing" textLength="124" x="83.5" y="664.9268">Operation Successful</text><!--SRC=[dPJFJiCm3CRlVGgBqoPbQ2SEEo2XJXoG2XA51_1Ijmjha-AaGtrxdF6lGpqGUceJVvz_jfluWx4zCdRGEUlqdbr747YWp7_lzAWFs50PnfQ0IGUqJJiDy7kit9kn3TJOUigoO8A4bgCFr459hmDPJR0rsCJmHLbkbx22vtozlifG1yUG3pv8QYxGIYe6z90NMTmqHmmKF_82LjTmiVcmlO2D11qy12TCZP4rKS6Bsu7hoGhCvKJ-hSf-z68cbXjH2vyF7fvEr09J3rQ4pcOLpJW8o2-EdjtHL3JdaCfmKrLCtYTd_jBzCLzbVD_Y2FgpxN_DvwcL-V_8Kikx7xgTpCdLS4IDLXjABtNE8vLZIrwpwVyrvAasiTsviu550KzZBqwBUcZRLJ0TAJba74wloyHPd7cc0XKkLhHWwbmGYFsuOrCfSDQRa4mIpUO1v3bZc8erKmo-auFxy75mON7xUNpKrt-jfCokHpkgkV6hwKpKoUgHQk9uwwZp1gaJvV8tK5viOdR6w03beBKabUdCTs2-BPDLkQtU0G00]--></g></svg>