<?xml version="1.0" encoding="us-ascii" standalone="no"?><svg xmlns="http://www.w3.org/2000/svg" xmlns:xlink="http://www.w3.org/1999/xlink" contentStyleType="text/css" height="792px" preserveAspectRatio="none" style="width:1068px;height:792px;background:#FFFFFF;" version="1.1" viewBox="0 0 1068 792" width="1068px" zoomAndPan="magnify"><defs/><g><text fill="#000000" font-family="sans-serif" font-size="14" font-weight="bold" lengthAdjust="spacing" textLength="194" x="430" y="25.1074">Domain Model (DM) - UC014</text><!--cluster SystemUserAggregate--><g id="cluster_SystemUserAggregate"><rect fill="none" height="459" rx="2.5" ry="2.5" style="stroke:#000000;stroke-width:1.5;" width="678" x="384" y="46.6211"/><text fill="#000000" font-family="sans-serif" font-size="14" font-weight="bold" lengthAdjust="spacing" textLength="156" x="645" y="63.7285">SystemUserAggregate</text></g><!--cluster CandidateAggregate--><g id="cluster_CandidateAggregate"><rect fill="none" height="107" rx="2.5" ry="2.5" style="stroke:#000000;stroke-width:1.5;" width="160" x="361" y="622.6211"/><text fill="#000000" font-family="sans-serif" font-size="14" font-weight="bold" lengthAdjust="spacing" textLength="144" x="369" y="639.7285">CandidateAggregate</text></g><!--cluster PhoneNumberAggregate--><g id="cluster_PhoneNumberAggregate"><rect fill="none" height="107" rx="2.5" ry="2.5" style="stroke:#000000;stroke-width:1.5;" width="311.5" x="733" y="679.6211"/><text fill="#000000" font-family="sans-serif" font-size="14" font-weight="bold" lengthAdjust="spacing" textLength="173" x="802.25" y="696.7285">PhoneNumberAggregate</text></g><!--class Email--><g id="elem_Email"><rect codeLine="17" fill="#F1F1F1" height="52.582" id="Email" rx="2.5" ry="2.5" style="stroke:#181818;stroke-width:0.5;" width="46" x="774" y="84.1211"/><text fill="#000000" font-family="sans-serif" font-size="12" font-style="italic" lengthAdjust="spacing" textLength="44" x="775" y="102.0703">&#171;value&#187;</text><text fill="#000000" font-family="sans-serif" font-size="14" lengthAdjust="spacing" textLength="34" x="780" y="120.1895">Email</text><line style="stroke:#181818;stroke-width:0.5;" x1="775" x2="819" y1="128.7031" y2="128.7031"/></g><!--class SystemUser--><g id="elem_SystemUser"><rect codeLine="19" fill="#F1F1F1" height="52.582" id="SystemUser" rx="2.5" ry="2.5" style="stroke:#181818;stroke-width:0.5;" width="81" x="400" y="260.1211"/><text fill="#000000" font-family="sans-serif" font-size="12" font-style="italic" lengthAdjust="spacing" textLength="35" x="423" y="278.0703">&#171;root&#187;</text><text fill="#000000" font-family="sans-serif" font-size="14" lengthAdjust="spacing" textLength="75" x="403" y="296.1895">SystemUser</text><line style="stroke:#181818;stroke-width:0.5;" x1="401" x2="480" y1="304.7031" y2="304.7031"/></g><!--class Password--><g id="elem_Password"><rect codeLine="21" fill="#F1F1F1" height="52.582" id="Password" rx="2.5" ry="2.5" style="stroke:#181818;stroke-width:0.5;" width="67" x="763.5" y="436.1211"/><text fill="#000000" font-family="sans-serif" font-size="12" font-style="italic" lengthAdjust="spacing" textLength="44" x="775" y="454.0703">&#171;value&#187;</text><text fill="#000000" font-family="sans-serif" font-size="14" lengthAdjust="spacing" textLength="61" x="766.5" y="472.1895">Password</text><line style="stroke:#181818;stroke-width:0.5;" x1="764.5" x2="829.5" y1="480.7031" y2="480.7031"/></g><!--class Name--><g id="elem_Name"><rect codeLine="23" fill="#F1F1F1" height="52.582" id="Name" rx="2.5" ry="2.5" style="stroke:#181818;stroke-width:0.5;" width="46" x="774" y="260.1211"/><text fill="#000000" font-family="sans-serif" font-size="12" font-style="italic" lengthAdjust="spacing" textLength="44" x="775" y="278.0703">&#171;value&#187;</text><text fill="#000000" font-family="sans-serif" font-size="14" lengthAdjust="spacing" textLength="36" x="779" y="296.1895">Name</text><line style="stroke:#181818;stroke-width:0.5;" x1="775" x2="819" y1="304.7031" y2="304.7031"/></g><!--class RoleSet--><g id="elem_RoleSet"><rect codeLine="25" fill="#F1F1F1" height="52.582" id="RoleSet" rx="2.5" ry="2.5" style="stroke:#181818;stroke-width:0.5;" width="56" x="769" y="172.1211"/><text fill="#000000" font-family="sans-serif" font-size="12" font-style="italic" lengthAdjust="spacing" textLength="44" x="775" y="190.0703">&#171;value&#187;</text><text fill="#000000" font-family="sans-serif" font-size="14" lengthAdjust="spacing" textLength="50" x="772" y="208.1895">RoleSet</text><line style="stroke:#181818;stroke-width:0.5;" x1="770" x2="824" y1="216.7031" y2="216.7031"/></g><!--class RoleAssignment--><g id="elem_RoleAssignment"><rect codeLine="27" fill="#F1F1F1" height="52.582" id="RoleAssignment" rx="2.5" ry="2.5" style="stroke:#181818;stroke-width:0.5;" width="108" x="921.5" y="304.1211"/><text fill="#000000" font-family="sans-serif" font-size="12" font-style="italic" lengthAdjust="spacing" textLength="43" x="954" y="322.0703">&#171;entity&#187;</text><text fill="#000000" font-family="sans-serif" font-size="14" lengthAdjust="spacing" textLength="102" x="924.5" y="340.1895">RoleAssignment</text><line style="stroke:#181818;stroke-width:0.5;" x1="922.5" x2="1028.5" y1="348.7031" y2="348.7031"/></g><!--class Role--><g id="elem_Role"><rect codeLine="29" fill="#F1F1F1" height="52.582" id="Role" rx="2.5" ry="2.5" style="stroke:#181818;stroke-width:0.5;" width="46" x="774" y="348.1211"/><text fill="#000000" font-family="sans-serif" font-size="12" font-style="italic" lengthAdjust="spacing" textLength="44" x="775" y="366.0703">&#171;value&#187;</text><text fill="#000000" font-family="sans-serif" font-size="14" lengthAdjust="spacing" textLength="29" x="782.5" y="384.1895">Role</text><line style="stroke:#181818;stroke-width:0.5;" x1="775" x2="819" y1="392.7031" y2="392.7031"/></g><!--class Set--><g id="elem_Set"><rect codeLine="31" fill="#F1F1F1" height="52.582" id="Set" rx="2.5" ry="2.5" style="stroke:#181818;stroke-width:0.5;" width="141" x="905" y="172.1211"/><text fill="#000000" font-family="sans-serif" font-size="12" font-style="italic" lengthAdjust="spacing" textLength="44" x="906" y="190.0703">&#171;value&#187;</text><text fill="#000000" font-family="sans-serif" font-size="14" lengthAdjust="spacing" textLength="21" x="917.5" y="208.1895">Set</text><rect fill="#FFFFFF" height="17.9609" style="stroke:#181818;stroke-width:1.0;stroke-dasharray:2.0,2.0;" width="93" x="956" y="169.1211"/><text fill="#000000" font-family="sans-serif" font-size="12" font-style="italic" lengthAdjust="spacing" textLength="91" x="957" y="183.0703">RoleAssignment</text><line style="stroke:#181818;stroke-width:0.5;" x1="906" x2="1045" y1="216.7031" y2="216.7031"/></g><!--class Candidate--><g id="elem_Candidate"><rect codeLine="37" fill="#F1F1F1" height="52.582" id="Candidate" rx="2.5" ry="2.5" style="stroke:#181818;stroke-width:0.5;" width="71" x="405" y="660.1211"/><text fill="#000000" font-family="sans-serif" font-size="12" font-style="italic" lengthAdjust="spacing" textLength="35" x="423" y="678.0703">&#171;root&#187;</text><text fill="#000000" font-family="sans-serif" font-size="14" lengthAdjust="spacing" textLength="65" x="408" y="696.1895">Candidate</text><line style="stroke:#181818;stroke-width:0.5;" x1="406" x2="475" y1="704.7031" y2="704.7031"/></g><!--class PhoneNumber--><g id="elem_PhoneNumber"><rect codeLine="44" fill="#F1F1F1" height="52.582" id="PhoneNumber" rx="2.5" ry="2.5" style="stroke:#181818;stroke-width:0.5;" width="96" x="749" y="717.1211"/><text fill="#000000" font-family="sans-serif" font-size="12" font-style="italic" lengthAdjust="spacing" textLength="73" x="760.5" y="735.0703">&#171;Root Entity&#187;</text><text fill="#000000" font-family="sans-serif" font-size="14" lengthAdjust="spacing" textLength="90" x="752" y="753.1895">PhoneNumber</text><line style="stroke:#181818;stroke-width:0.5;" x1="750" x2="844" y1="761.7031" y2="761.7031"/></g><!--class PhoneIndicative--><g id="elem_PhoneIndicative"><rect codeLine="45" fill="#F1F1F1" height="52.582" id="PhoneIndicative" rx="2.5" ry="2.5" style="stroke:#181818;stroke-width:0.5;" width="106" x="922.5" y="717.1211"/><text fill="#000000" font-family="sans-serif" font-size="12" font-style="italic" lengthAdjust="spacing" textLength="85" x="933" y="735.0703">&#171;Value Object&#187;</text><text fill="#000000" font-family="sans-serif" font-size="14" lengthAdjust="spacing" textLength="100" x="925.5" y="753.1895">PhoneIndicative</text><line style="stroke:#181818;stroke-width:0.5;" x1="923.5" x2="1027.5" y1="761.7031" y2="761.7031"/></g><!--class SystemUserBuilder--><g id="elem_SystemUserBuilder"><rect codeLine="13" fill="#F1F1F1" height="52.582" id="SystemUserBuilder" rx="2.5" ry="2.5" style="stroke:#181818;stroke-width:0.5;" width="125" x="7" y="260.1211"/><text fill="#000000" font-family="sans-serif" font-size="12" font-style="italic" lengthAdjust="spacing" textLength="50" x="44.5" y="278.0703">&#171;factory&#187;</text><text fill="#000000" font-family="sans-serif" font-size="14" lengthAdjust="spacing" textLength="119" x="10" y="296.1895">SystemUserBuilder</text><line style="stroke:#181818;stroke-width:0.5;" x1="8" x2="131" y1="304.7031" y2="304.7031"/></g><g id="elem_GMN14"><path d="M192,579.1211 L192,606.4121 A0,0 0 0 0 192,606.4121 L436.5,606.4121 L440.5,659.8211 L444.5,606.4121 L689,606.4121 A0,0 0 0 0 689,606.4121 L689,589.1211 L679,579.1211 L192,579.1211 A0,0 0 0 0 192,579.1211 " fill="#FEFFDD" style="stroke:#181818;stroke-width:0.5;"/><path d="M679,579.1211 L679,589.1211 L689,589.1211 L679,579.1211 " fill="#FEFFDD" style="stroke:#181818;stroke-width:0.5;"/><text fill="#000000" font-family="sans-serif" font-size="13" lengthAdjust="spacing" textLength="476" x="198" y="598.1494">Candidate is not a software class since all SystemUser are considered candidates</text></g><!--class PasswordPolicy--><g id="elem_PasswordPolicy"><rect codeLine="48" fill="#F1F1F1" height="52.582" id="PasswordPolicy" rx="2.5" ry="2.5" style="stroke:#181818;stroke-width:0.5;" width="104" x="923.5" y="522.1211"/><text fill="#000000" font-family="sans-serif" font-size="12" font-style="italic" lengthAdjust="spacing" textLength="53" x="949" y="540.0703">&#171;service&#187;</text><text fill="#000000" font-family="sans-serif" font-size="14" lengthAdjust="spacing" textLength="98" x="926.5" y="558.1895">PasswordPolicy</text><line style="stroke:#181818;stroke-width:0.5;" x1="924.5" x2="1026.5" y1="566.7031" y2="566.7031"/></g><!--class PasswordEncoder--><g id="elem_PasswordEncoder"><rect codeLine="50" fill="#F1F1F1" height="52.582" id="PasswordEncoder" rx="2.5" ry="2.5" style="stroke:#181818;stroke-width:0.5;" width="120" x="915.5" y="610.1211"/><text fill="#000000" font-family="sans-serif" font-size="12" font-style="italic" lengthAdjust="spacing" textLength="53" x="949" y="628.0703">&#171;service&#187;</text><text fill="#000000" font-family="sans-serif" font-size="14" lengthAdjust="spacing" textLength="114" x="918.5" y="646.1895">PasswordEncoder</text><line style="stroke:#181818;stroke-width:0.5;" x1="916.5" x2="1034.5" y1="654.7031" y2="654.7031"/></g><!--link SystemUserBuilder to SystemUser--><g id="link_SystemUserBuilder_SystemUser"><path codeLine="52" d="M132.26,286.6211 C208.38,286.6211 329.5,286.6211 393.75,286.6211 " fill="none" id="SystemUserBuilder-to-SystemUser" style="stroke:#181818;stroke-width:1.0;stroke-dasharray:7.0,7.0;"/><polygon fill="#181818" points="399.75,286.6211,390.75,282.6211,394.75,286.6211,390.75,290.6211,399.75,286.6211" style="stroke:#181818;stroke-width:1.0;"/></g><!--link SystemUser to Name--><g id="link_SystemUser_Name"><path codeLine="54" d="M481.13,286.6211 C555.75,286.6211 714.86,286.6211 773.61,286.6211 " fill="none" id="SystemUser-Name" style="stroke:#181818;stroke-width:1.0;"/><text fill="#000000" font-family="sans-serif" font-size="13" lengthAdjust="spacing" textLength="7" x="488.9907" y="302.2266">1</text><text fill="#000000" font-family="sans-serif" font-size="13" lengthAdjust="spacing" textLength="7" x="759.0472" y="303.1397">1</text></g><!--link SystemUser to Email--><g id="link_SystemUser_Email"><path codeLine="55" d="M481.13,266.9411 C555.75,229.9011 714.86,150.9011 773.61,121.7411 " fill="none" id="SystemUser-Email" style="stroke:#181818;stroke-width:1.0;"/><text fill="#000000" font-family="sans-serif" font-size="13" lengthAdjust="spacing" textLength="7" x="488.9907" y="279.0411">1</text><text fill="#000000" font-family="sans-serif" font-size="13" lengthAdjust="spacing" textLength="7" x="759.0472" y="141.3872">1</text></g><!--link SystemUser to Password--><g id="link_SystemUser_Password"><path codeLine="56" d="M481.13,306.3011 C551.78,341.3711 698.15,414.0411 763.39,446.4311 " fill="none" id="SystemUser-Password" style="stroke:#181818;stroke-width:1.0;"/><text fill="#000000" font-family="sans-serif" font-size="13" lengthAdjust="spacing" textLength="7" x="488.9907" y="325.4121">1</text><text fill="#000000" font-family="sans-serif" font-size="13" lengthAdjust="spacing" textLength="7" x="748.2722" y="458.8548">1</text></g><!--reverse link SystemUser to Candidate--><g id="link_SystemUser_Candidate"><path codeLine="57" d="M394.3391,308.2055 C300.3991,354.5455 87.69,476.7511 162,606.1211 C209.82,689.3711 341,693.2511 404.76,689.8211 " fill="none" id="SystemUser-backto-Candidate" style="stroke:#181818;stroke-width:1.0;"/><polygon fill="#181818" points="399.72,305.5511,389.879,305.9454,395.2359,307.7631,393.4182,313.1199,399.72,305.5511" style="stroke:#181818;stroke-width:1.0;"/></g><!--link SystemUser to RoleSet--><g id="link_SystemUser_RoleSet"><path codeLine="58" d="M481.13,276.7811 C553.77,258.7511 700.6267,222.2964 762.8767,206.8464 " fill="none" id="SystemUser-to-RoleSet" style="stroke:#181818;stroke-width:1.0;"/><polygon fill="#181818" points="768.7,205.4011,759.0015,203.6868,763.8472,206.6055,760.9286,211.4513,768.7,205.4011" style="stroke:#181818;stroke-width:1.0;"/></g><!--link RoleSet to Set--><g id="link_RoleSet_Set"><path codeLine="60" d="M825.19,198.6211 C846.47,198.6211 859.02,198.6211 886.96,198.6211 " fill="none" id="RoleSet-to-Set" style="stroke:#181818;stroke-width:1.0;"/><polygon fill="none" points="904.96,198.6211,886.96,192.6211,886.96,204.6211,904.96,198.6211" style="stroke:#181818;stroke-width:1.0;"/></g><!--link RoleSet to RoleAssignment--><g id="link_RoleSet_RoleAssignment"><path codeLine="61" d="M825.19,218.9611 C855.75,241.8111 900.6549,275.398 934.2349,300.508 " fill="none" id="RoleSet-to-RoleAssignment" style="stroke:#181818;stroke-width:1.0;stroke-dasharray:7.0,7.0;"/><polygon fill="#181818" points="939.04,304.1011,934.2277,295.508,935.0357,301.1068,929.4369,301.9148,939.04,304.1011" style="stroke:#181818;stroke-width:1.0;"/></g><!--reverse link Role to RoleAssignment--><g id="link_Role_RoleAssignment"><path codeLine="62" d="M826.1718,367.5997 C851.4018,361.3097 887.51,352.3111 921.27,343.8911 " fill="none" id="Role-backto-RoleAssignment" style="stroke:#181818;stroke-width:1.0;"/><polygon fill="#181818" points="820.35,369.0511,830.0503,370.7552,825.2015,367.8416,828.1151,362.9928,820.35,369.0511" style="stroke:#181818;stroke-width:1.0;"/></g><!--link Password to PasswordEncoder--><g id="link_Password_PasswordEncoder"><path codeLine="64" d="M815.96,489.1411 C835.67,517.0011 869.28,561.0911 905,592.6211 C911.96,598.7611 919.86,604.6211 927.79,609.9511 " fill="none" id="Password-PasswordEncoder" style="stroke:#181818;stroke-width:1.0;stroke-dasharray:7.0,7.0;"/><text fill="#000000" font-family="sans-serif" font-size="13" lengthAdjust="spacing" textLength="7" x="812.3419" y="510.9076">1</text><text fill="#000000" font-family="sans-serif" font-size="13" lengthAdjust="spacing" textLength="7" x="908.9477" y="598.9283">1</text></g><!--link Password to PasswordPolicy--><g id="link_Password_PasswordPolicy"><path codeLine="65" d="M830.78,478.5911 C856.7,491.2211 893.36,509.0811 923.16,523.6111 " fill="none" id="Password-PasswordPolicy" style="stroke:#181818;stroke-width:1.0;stroke-dasharray:7.0,7.0;"/><text fill="#000000" font-family="sans-serif" font-size="13" lengthAdjust="spacing" textLength="7" x="838.469" y="497.7395">1</text><text fill="#000000" font-family="sans-serif" font-size="13" lengthAdjust="spacing" textLength="7" x="908.6565" y="535.4685">1</text></g><!--link Candidate to PhoneNumber--><g id="link_Candidate_PhoneNumber"><path codeLine="67" d="M476.14,692.1911 C540.08,702.4711 676.7,724.4411 748.95,736.0611 " fill="none" id="Candidate-PhoneNumber" style="stroke:#181818;stroke-width:1.0;"/><text fill="#000000" font-family="sans-serif" font-size="13" lengthAdjust="spacing" textLength="7" x="484.2126" y="709.1945">1</text><text fill="#000000" font-family="sans-serif" font-size="13" lengthAdjust="spacing" textLength="7" x="734.0564" y="750.2876">1</text></g><!--link PhoneNumber to PhoneIndicative--><g id="link_PhoneNumber_PhoneIndicative"><path codeLine="69" d="M845.3,743.6211 C869.09,743.6211 897.99,743.6211 922.41,743.6211 " fill="none" id="PhoneNumber-PhoneIndicative" style="stroke:#181818;stroke-width:1.0;"/><text fill="#000000" font-family="sans-serif" font-size="13" lengthAdjust="spacing" textLength="7" x="852.9081" y="758.9499">1</text><text fill="#000000" font-family="sans-serif" font-size="13" lengthAdjust="spacing" textLength="7" x="907.452" y="758.8946">1</text></g><!--SRC=[VLF1Rjim3BthAuYUjeE35jXf20naRGuzj0iQT7T5fcsjibX8J09lwx-FTk9OJflwO0jwZ-GZ-HnVh7_LGJVmgisBhd3DhKC8Q5Zxog6A9qAiTK5xwoiejOke4iWu7UE2ETZDbl7Ua5_RFmZNIjMsG30s64dLdnlacegebCEIWGc2hMg6mdObBNcbsB8ekAD6MmyFLA23BtSFNo63vzlhcszAzTLWtKR6vZbY-B6rhi00ytcf3LDeyrofOpi9RL5L0IlD27-L0daEUPPInqdiJhijTf4ZDCOA7eXu2g_ajQTGV1pyg1ly67aYXslao-0YHblv1dt7aRVbzZtfWcJa-JH5dXBVni7SQb_OGiPnOIudFEbTmZt9pOQOgG4g4zRtv6mZ20yqH2fvhmCUSqRh3O9sBXrj3vEFuew01PWXInorhcho-BXjDjCj9giO2IBtIUJ2SfZR6UjUqXlDTjSrzgiR3FpS_1Rp2VLjCDUmsXKvQreXYj2TDVqCfuobDtGmNq9vxytPB4zwJXbmTNC5MTP_EizSW7gRNi06BIaypyPzfFTPbWy6L6fmOfRzoplhd2uwkLCRgOFdfEBPlJhz1hsYsKJHSJgVSWupLcgqJzhQk5Yfb6pvd3EkLVq7]--></g></svg>