<?xml version="1.0" encoding="us-ascii" standalone="no"?><svg xmlns="http://www.w3.org/2000/svg" xmlns:xlink="http://www.w3.org/1999/xlink" contentStyleType="text/css" height="596px" preserveAspectRatio="none" style="width:538px;height:596px;background:#FFFFFF;" version="1.1" viewBox="0 0 538 596" width="538px" zoomAndPan="magnify"><defs/><g><text fill="#000000" font-family="sans-serif" font-size="14" font-weight="bold" lengthAdjust="spacing" textLength="194" x="165" y="25.1074">Domain Model (DM) - UC025</text><!--cluster SystemUserAggregate--><g id="cluster_SystemUserAggregate"><rect fill="none" height="387" rx="2.5" ry="2.5" style="stroke:#000000;stroke-width:1.5;" width="525" x="7" y="203.6211"/><text fill="#000000" font-family="sans-serif" font-size="14" font-weight="bold" lengthAdjust="spacing" textLength="156" x="191.5" y="220.7285">SystemUserAggregate</text></g><!--cluster CandidateAggregate--><g id="cluster_CandidateAggregate"><rect fill="none" height="106" rx="2.5" ry="2.5" style="stroke:#000000;stroke-width:1.5;" width="160" x="309" y="46.6211"/><text fill="#000000" font-family="sans-serif" font-size="14" font-weight="bold" lengthAdjust="spacing" textLength="144" x="317" y="63.7285">CandidateAggregate</text></g><!--class EmailAddress--><g id="elem_EmailAddress"><rect codeLine="12" fill="#F1F1F1" height="68.543" id="EmailAddress" rx="2.5" ry="2.5" style="stroke:#181818;stroke-width:0.5;" width="92" x="343" y="391.6211"/><text fill="#000000" font-family="sans-serif" font-size="12" font-style="italic" lengthAdjust="spacing" textLength="44" x="367" y="409.5703">&#171;value&#187;</text><text fill="#000000" font-family="sans-serif" font-size="12" font-style="italic" lengthAdjust="spacing" textLength="24" x="377" y="425.5313">&#171;id&#187;</text><text fill="#000000" font-family="sans-serif" font-size="14" lengthAdjust="spacing" textLength="86" x="346" y="443.6504">EmailAddress</text><line style="stroke:#181818;stroke-width:0.5;" x1="344" x2="434" y1="452.1641" y2="452.1641"/></g><!--class SystemUser--><g id="elem_SystemUser"><rect codeLine="14" fill="#F1F1F1" height="89.8242" id="SystemUser" rx="2.5" ry="2.5" style="stroke:#181818;stroke-width:0.5;" width="179" x="299.5" y="240.6211"/><text fill="#000000" font-family="sans-serif" font-size="12" font-style="italic" lengthAdjust="spacing" textLength="35" x="371.5" y="258.5703">&#171;root&#187;</text><text fill="#000000" font-family="sans-serif" font-size="14" lengthAdjust="spacing" textLength="75" x="351.5" y="276.6895">SystemUser</text><line style="stroke:#181818;stroke-width:0.5;" x1="300.5" x2="477.5" y1="285.2031" y2="285.2031"/><text fill="#000000" font-family="sans-serif" font-size="14" lengthAdjust="spacing" textLength="106" x="305.5" y="304.3105">-active : Boolean</text><text fill="#000000" font-family="sans-serif" font-size="14" lengthAdjust="spacing" textLength="167" x="305.5" y="322.9316">-deactivatedOn : Calendar</text></g><!--class Name--><g id="elem_Name"><rect codeLine="19" fill="#F1F1F1" height="52.582" id="Name" rx="2.5" ry="2.5" style="stroke:#181818;stroke-width:0.5;" width="46" x="470" y="399.6211"/><text fill="#000000" font-family="sans-serif" font-size="12" font-style="italic" lengthAdjust="spacing" textLength="44" x="471" y="417.5703">&#171;value&#187;</text><text fill="#000000" font-family="sans-serif" font-size="14" lengthAdjust="spacing" textLength="36" x="475" y="435.6895">Name</text><line style="stroke:#181818;stroke-width:0.5;" x1="471" x2="515" y1="444.2031" y2="444.2031"/></g><!--class RoleSet--><g id="elem_RoleSet"><rect codeLine="27" fill="#F1F1F1" height="52.582" id="RoleSet" rx="2.5" ry="2.5" style="stroke:#181818;stroke-width:0.5;" width="56" x="208" y="259.1211"/><text fill="#000000" font-family="sans-serif" font-size="12" font-style="italic" lengthAdjust="spacing" textLength="44" x="214" y="277.0703">&#171;value&#187;</text><text fill="#000000" font-family="sans-serif" font-size="14" lengthAdjust="spacing" textLength="50" x="211" y="295.1895">RoleSet</text><line style="stroke:#181818;stroke-width:0.5;" x1="209" x2="263" y1="303.7031" y2="303.7031"/></g><!--class RoleAssignment--><g id="elem_RoleAssignment"><rect codeLine="23" fill="#F1F1F1" height="52.582" id="RoleAssignment" rx="2.5" ry="2.5" style="stroke:#181818;stroke-width:0.5;" width="108" x="23" y="399.6211"/><text fill="#000000" font-family="sans-serif" font-size="12" font-style="italic" lengthAdjust="spacing" textLength="43" x="55.5" y="417.5703">&#171;entity&#187;</text><text fill="#000000" font-family="sans-serif" font-size="14" lengthAdjust="spacing" textLength="102" x="26" y="435.6895">RoleAssignment</text><line style="stroke:#181818;stroke-width:0.5;" x1="24" x2="130" y1="444.2031" y2="444.2031"/></g><!--class Role--><g id="elem_Role"><rect codeLine="25" fill="#F1F1F1" height="52.582" id="Role" rx="2.5" ry="2.5" style="stroke:#181818;stroke-width:0.5;" width="46" x="54" y="521.6211"/><text fill="#000000" font-family="sans-serif" font-size="12" font-style="italic" lengthAdjust="spacing" textLength="44" x="55" y="539.5703">&#171;value&#187;</text><text fill="#000000" font-family="sans-serif" font-size="14" lengthAdjust="spacing" textLength="29" x="62.5" y="557.6895">Role</text><line style="stroke:#181818;stroke-width:0.5;" x1="55" x2="99" y1="566.2031" y2="566.2031"/></g><!--class Set--><g id="elem_Set"><rect codeLine="29" fill="#F1F1F1" height="52.582" id="Set" rx="2.5" ry="2.5" style="stroke:#181818;stroke-width:0.5;" width="141" x="166.5" y="399.6211"/><text fill="#000000" font-family="sans-serif" font-size="12" font-style="italic" lengthAdjust="spacing" textLength="44" x="167.5" y="417.5703">&#171;value&#187;</text><text fill="#000000" font-family="sans-serif" font-size="14" lengthAdjust="spacing" textLength="21" x="179" y="435.6895">Set</text><rect fill="#FFFFFF" height="17.9609" style="stroke:#181818;stroke-width:1.0;stroke-dasharray:2.0,2.0;" width="93" x="217.5" y="396.6211"/><text fill="#000000" font-family="sans-serif" font-size="12" font-style="italic" lengthAdjust="spacing" textLength="91" x="218.5" y="410.5703">RoleAssignment</text><line style="stroke:#181818;stroke-width:0.5;" x1="167.5" x2="306.5" y1="444.2031" y2="444.2031"/></g><!--class Candidate--><g id="elem_Candidate"><rect codeLine="33" fill="#F1F1F1" height="52.582" id="Candidate" rx="2.5" ry="2.5" style="stroke:#181818;stroke-width:0.5;" width="71" x="353.5" y="83.6211"/><text fill="#000000" font-family="sans-serif" font-size="12" font-style="italic" lengthAdjust="spacing" textLength="35" x="371.5" y="101.5703">&#171;root&#187;</text><text fill="#000000" font-family="sans-serif" font-size="14" lengthAdjust="spacing" textLength="65" x="356.5" y="119.6895">Candidate</text><line style="stroke:#181818;stroke-width:0.5;" x1="354.5" x2="423.5" y1="128.2031" y2="128.2031"/></g><!--link SystemUser to Name--><g id="link_SystemUser_Name"><path codeLine="36" d="M422.19,330.8211 C439.19,353.4611 455.6988,375.432 470.1288,394.662 " fill="none" id="SystemUser-to-Name" style="stroke:#181818;stroke-width:1.0;"/><polygon fill="#181818" points="473.73,399.4611,471.5276,389.8616,470.729,395.4618,465.1288,394.6632,473.73,399.4611" style="stroke:#181818;stroke-width:1.0;"/></g><!--link SystemUser to EmailAddress--><g id="link_SystemUser_EmailAddress"><path codeLine="37" d="M389,330.8211 C389,350.4611 389,367.1911 389,385.4211 " fill="none" id="SystemUser-to-EmailAddress" style="stroke:#181818;stroke-width:1.0;"/><polygon fill="#181818" points="389,391.4211,393,382.4211,389,386.4211,385,382.4211,389,391.4211" style="stroke:#181818;stroke-width:1.0;"/></g><!--reverse link RoleSet to SystemUser--><g id="link_RoleSet_SystemUser"><path codeLine="38" d="M270.09,285.6211 C281.8,285.6211 287.51,285.6211 299.22,285.6211 " fill="none" id="RoleSet-backto-SystemUser" style="stroke:#181818;stroke-width:1.0;"/><polygon fill="#181818" points="264.09,285.6211,273.09,289.6211,269.09,285.6211,273.09,281.6211,264.09,285.6211" style="stroke:#181818;stroke-width:1.0;"/></g><!--link RoleSet to Set--><g id="link_RoleSet_Set"><path codeLine="39" d="M236.19,312.3511 C236.37,337.2211 236.5095,356.7016 236.6895,381.5316 " fill="none" id="RoleSet-to-Set" style="stroke:#181818;stroke-width:1.0;stroke-dasharray:7.0,7.0;"/><polygon fill="none" points="236.82,399.5311,242.6894,381.4881,230.6897,381.5751,236.82,399.5311" style="stroke:#181818;stroke-width:1.0;"/></g><!--link RoleSet to RoleAssignment--><g id="link_RoleSet_RoleAssignment"><path codeLine="40" d="M207.94,311.0611 C179.41,335.9111 139.9242,370.3101 110.9142,395.5801 " fill="none" id="RoleSet-to-RoleAssignment" style="stroke:#181818;stroke-width:1.0;stroke-dasharray:7.0,7.0;"/><polygon fill="#181818" points="106.39,399.5211,115.8037,396.6258,110.1602,396.237,110.549,390.5935,106.39,399.5211" style="stroke:#181818;stroke-width:1.0;"/></g><!--link RoleAssignment to Role--><g id="link_RoleAssignment_Role"><path codeLine="41" d="M77,452.8611 C77,473.1111 77,495.1811 77,515.4211 " fill="none" id="RoleAssignment-to-Role" style="stroke:#181818;stroke-width:1.0;"/><polygon fill="#181818" points="77,521.4211,81,512.4211,77,516.4211,73,512.4211,77,521.4211" style="stroke:#181818;stroke-width:1.0;"/></g><!--link Candidate to SystemUser--><g id="link_Candidate_SystemUser"><path codeLine="43" d="M389,136.7211 C389,163.9611 389,201.5711 389,234.3911 " fill="none" id="Candidate-to-SystemUser" style="stroke:#181818;stroke-width:1.0;"/><polygon fill="#181818" points="389,240.3911,393,231.3911,389,235.3911,385,231.3911,389,240.3911" style="stroke:#181818;stroke-width:1.0;"/><text fill="#000000" font-family="sans-serif" font-size="13" lengthAdjust="spacing" textLength="21" x="390" y="183.6494">is a</text></g><!--SRC=[dL91JiCm4Bpx5Nk4Gog4nAMgB9MM0uU2HDG7BF4sjUhObRqjAj2_iqbBunQuu4FaUCOpivEabVLhZDZ06giLrbJopX54gXXzxKYb4o4jqOGtwsjOe4kaCgXocDAOEThN3TDZ5Nnftmbkb5fQGr3PM8bKjs-8by4afTYo64r3WzR3B1XoS3MTNKC1yydDxPrInq1GxX9JCqyKntKTgKOc-50WgxE51r5mOsCYoSjej4Mt8QrbPutMAYFsGWB645XO1w5s5O0Lsot14Ev3S8G-Wmnre5YRPo-C2Jho1cD7sUScJzXGdo97NaIq9FuR7ATaQz-GRpdojBpxIVg7jW2ZStsT4VTzqnFqnXePylUYJ_2fllPorcfHw6x-oxFy2vrZZXOiX6DyzJt6OF2fuUn0_Zm_q1SrgKCXnMPTN2Ag3zicw4s7O1EW-W80]--></g></svg>