<?xml version="1.0" encoding="us-ascii" standalone="no"?><svg xmlns="http://www.w3.org/2000/svg" xmlns:xlink="http://www.w3.org/1999/xlink" contentStyleType="text/css" height="1048px" preserveAspectRatio="none" style="width:1775px;height:1048px;background:#FFFFFF;" version="1.1" viewBox="0 0 1775 1048" width="1775px" zoomAndPan="magnify"><defs/><g><text fill="#000000" font-family="sans-serif" font-size="14" font-weight="bold" lengthAdjust="spacing" textLength="243" x="767" y="30.1074">System Sequence Diagram - UC019</text><rect fill="#FFFFFF" height="800.9063" style="stroke:#181818;stroke-width:1.0;" width="10" x="76.5" y="137.8633"/><rect fill="#FFFFFF" height="219.0371" style="stroke:#181818;stroke-width:1.0;" width="10" x="395.5" y="161.1543"/><rect fill="#FFFFFF" height="512.2871" style="stroke:#181818;stroke-width:1.0;" width="10" x="395.5" y="411.4824"/><rect fill="#FFFFFF" height="156.4551" style="stroke:#181818;stroke-width:1.0;" width="10" x="588.5" y="192.4453"/><rect fill="#FFFFFF" height="344.2012" style="stroke:#181818;stroke-width:1.0;" width="10" x="588.5" y="500.3555"/><rect fill="#FFFFFF" height="93.873" style="stroke:#181818;stroke-width:1.0;" width="10" x="832.5" y="223.7363"/><rect fill="#FFFFFF" height="281.6191" style="stroke:#181818;stroke-width:1.0;" width="10" x="832.5" y="531.6465"/><rect fill="#FFFFFF" height="93.873" style="stroke:#181818;stroke-width:1.0;" width="10" x="1159.5" y="688.1016"/><rect fill="#FFFFFF" height="31.291" style="stroke:#181818;stroke-width:1.0;" width="10" x="1363.5" y="719.3926"/><rect fill="#FFFFFF" height="31.291" style="stroke:#181818;stroke-width:1.0;" width="10" x="1532" y="255.0273"/><rect fill="#FFFFFF" height="93.873" style="stroke:#181818;stroke-width:1.0;" width="10" x="1532" y="562.9375"/><rect fill="#FFFFFF" height="31.291" style="stroke:#181818;stroke-width:1.0;" width="10" x="1692" y="594.2285"/><rect fill="none" height="505.2871" style="stroke:#000000;stroke-width:1.5;" width="1758" x="10" y="426.4824"/><line style="stroke:#181818;stroke-width:0.5;stroke-dasharray:5.0,5.0;" x1="81" x2="81" y1="127.8633" y2="948.7695"/><line style="stroke:#181818;stroke-width:0.5;stroke-dasharray:5.0,5.0;" x1="400.5" x2="400.5" y1="127.8633" y2="948.7695"/><line style="stroke:#181818;stroke-width:0.5;stroke-dasharray:5.0,5.0;" x1="593.5" x2="593.5" y1="127.8633" y2="948.7695"/><line style="stroke:#181818;stroke-width:0.5;stroke-dasharray:5.0,5.0;" x1="837" x2="837" y1="127.8633" y2="948.7695"/><line style="stroke:#181818;stroke-width:0.5;stroke-dasharray:5.0,5.0;" x1="1164" x2="1164" y1="127.8633" y2="948.7695"/><line style="stroke:#181818;stroke-width:0.5;stroke-dasharray:5.0,5.0;" x1="1368" x2="1368" y1="127.8633" y2="948.7695"/><line style="stroke:#181818;stroke-width:0.5;stroke-dasharray:5.0,5.0;" x1="1537" x2="1537" y1="127.8633" y2="948.7695"/><line style="stroke:#181818;stroke-width:0.5;stroke-dasharray:5.0,5.0;" x1="1697" x2="1697" y1="127.8633" y2="948.7695"/><text fill="#000000" font-family="sans-serif" font-size="14" lengthAdjust="spacing" textLength="117" x="20" y="124.3496">CustomerManager</text><ellipse cx="81.5" cy="57.7422" fill="#E3E3E3" rx="8" ry="8" style="stroke:#181818;stroke-width:0.5;"/><path d="M81.5,65.7422 L81.5,92.7422 M68.5,73.7422 L94.5,73.7422 M81.5,92.7422 L68.5,107.7422 M81.5,92.7422 L94.5,107.7422 " fill="none" style="stroke:#181818;stroke-width:0.5;"/><text fill="#000000" font-family="sans-serif" font-size="14" lengthAdjust="spacing" textLength="117" x="20" y="962.877">CustomerManager</text><ellipse cx="81.5" cy="974.8906" fill="#E3E3E3" rx="8" ry="8" style="stroke:#181818;stroke-width:0.5;"/><path d="M81.5,982.8906 L81.5,1009.8906 M68.5,990.8906 L94.5,990.8906 M81.5,1009.8906 L68.5,1024.8906 M81.5,1009.8906 L94.5,1024.8906 " fill="none" style="stroke:#181818;stroke-width:0.5;"/><rect fill="#E3E3E3" height="51.2422" rx="2.5" ry="2.5" style="stroke:#181818;stroke-width:0.5;" width="158" x="321.5" y="75.6211"/><text fill="#000000" font-family="sans-serif" font-size="14" font-style="italic" lengthAdjust="spacing" textLength="95" x="353" y="97.7285">&#171;presentation&#187;</text><text fill="#000000" font-family="sans-serif" font-size="14" lengthAdjust="spacing" textLength="144" x="328.5" y="116.3496">SelectInterviewModelUI</text><rect fill="#E3E3E3" height="51.2422" rx="2.5" ry="2.5" style="stroke:#181818;stroke-width:0.5;" width="158" x="321.5" y="947.7695"/><text fill="#000000" font-family="sans-serif" font-size="14" font-style="italic" lengthAdjust="spacing" textLength="95" x="353" y="969.877">&#171;presentation&#187;</text><text fill="#000000" font-family="sans-serif" font-size="14" lengthAdjust="spacing" textLength="144" x="328.5" y="988.498">SelectInterviewModelUI</text><rect fill="#E3E3E3" height="51.2422" rx="2.5" ry="2.5" style="stroke:#181818;stroke-width:0.5;" width="208" x="489.5" y="75.6211"/><text fill="#000000" font-family="sans-serif" font-size="14" font-style="italic" lengthAdjust="spacing" textLength="84" x="551.5" y="97.7285">&#171;application&#187;</text><text fill="#000000" font-family="sans-serif" font-size="14" lengthAdjust="spacing" textLength="194" x="496.5" y="116.3496">SelectInterviewModelController</text><rect fill="#E3E3E3" height="51.2422" rx="2.5" ry="2.5" style="stroke:#181818;stroke-width:0.5;" width="208" x="489.5" y="947.7695"/><text fill="#000000" font-family="sans-serif" font-size="14" font-style="italic" lengthAdjust="spacing" textLength="84" x="551.5" y="969.877">&#171;application&#187;</text><text fill="#000000" font-family="sans-serif" font-size="14" lengthAdjust="spacing" textLength="194" x="496.5" y="988.498">SelectInterviewModelController</text><rect fill="#E3E3E3" height="51.2422" rx="2.5" ry="2.5" style="stroke:#181818;stroke-width:0.5;" width="219" x="728" y="75.6211"/><text fill="#000000" font-family="sans-serif" font-size="14" font-style="italic" lengthAdjust="spacing" textLength="60" x="807.5" y="97.7285">&#171;service&#187;</text><text fill="#000000" font-family="sans-serif" font-size="14" lengthAdjust="spacing" textLength="205" x="735" y="116.3496">JobOpeningManagementService</text><rect fill="#E3E3E3" height="51.2422" rx="2.5" ry="2.5" style="stroke:#181818;stroke-width:0.5;" width="219" x="728" y="947.7695"/><text fill="#000000" font-family="sans-serif" font-size="14" font-style="italic" lengthAdjust="spacing" textLength="60" x="807.5" y="969.877">&#171;service&#187;</text><text fill="#000000" font-family="sans-serif" font-size="14" lengthAdjust="spacing" textLength="205" x="735" y="988.498">JobOpeningManagementService</text><rect fill="#E3E3E3" height="51.2422" rx="2.5" ry="2.5" style="stroke:#181818;stroke-width:0.5;" width="171" x="1079" y="75.6211"/><text fill="#000000" font-family="sans-serif" font-size="14" font-style="italic" lengthAdjust="spacing" textLength="60" x="1134.5" y="97.7285">&#171;service&#187;</text><text fill="#000000" font-family="sans-serif" font-size="14" lengthAdjust="spacing" textLength="157" x="1086" y="116.3496">listInterviewModelService</text><rect fill="#E3E3E3" height="51.2422" rx="2.5" ry="2.5" style="stroke:#181818;stroke-width:0.5;" width="171" x="1079" y="947.7695"/><text fill="#000000" font-family="sans-serif" font-size="14" font-style="italic" lengthAdjust="spacing" textLength="60" x="1134.5" y="969.877">&#171;service&#187;</text><text fill="#000000" font-family="sans-serif" font-size="14" lengthAdjust="spacing" textLength="157" x="1086" y="988.498">listInterviewModelService</text><text fill="#000000" font-family="sans-serif" font-size="14" font-style="italic" lengthAdjust="spacing" textLength="79" x="1326" y="105.7285">&#171;repository&#187;</text><text fill="#000000" font-family="sans-serif" font-size="14" lengthAdjust="spacing" textLength="161" x="1285" y="124.3496">InterviewModelRepository</text><path d="M1350.5,54.6211 C1350.5,44.6211 1368.5,44.6211 1368.5,44.6211 C1368.5,44.6211 1386.5,44.6211 1386.5,54.6211 L1386.5,80.6211 C1386.5,90.6211 1368.5,90.6211 1368.5,90.6211 C1368.5,90.6211 1350.5,90.6211 1350.5,80.6211 L1350.5,54.6211 " fill="#E3E3E3" style="stroke:#181818;stroke-width:1.5;"/><path d="M1350.5,54.6211 C1350.5,64.6211 1368.5,64.6211 1368.5,64.6211 C1368.5,64.6211 1386.5,64.6211 1386.5,54.6211 " fill="none" style="stroke:#181818;stroke-width:1.5;"/><text fill="#000000" font-family="sans-serif" font-size="14" font-style="italic" lengthAdjust="spacing" textLength="79" x="1326" y="962.877">&#171;repository&#187;</text><text fill="#000000" font-family="sans-serif" font-size="14" lengthAdjust="spacing" textLength="161" x="1285" y="981.498">InterviewModelRepository</text><path d="M1350.5,995.0117 C1350.5,985.0117 1368.5,985.0117 1368.5,985.0117 C1368.5,985.0117 1386.5,985.0117 1386.5,995.0117 L1386.5,1021.0117 C1386.5,1031.0117 1368.5,1031.0117 1368.5,1031.0117 C1368.5,1031.0117 1350.5,1031.0117 1350.5,1021.0117 L1350.5,995.0117 " fill="#E3E3E3" style="stroke:#181818;stroke-width:1.5;"/><path d="M1350.5,995.0117 C1350.5,1005.0117 1368.5,1005.0117 1368.5,1005.0117 C1368.5,1005.0117 1386.5,1005.0117 1386.5,995.0117 " fill="none" style="stroke:#181818;stroke-width:1.5;"/><text fill="#000000" font-family="sans-serif" font-size="14" font-style="italic" lengthAdjust="spacing" textLength="79" x="1494.5" y="105.7285">&#171;repository&#187;</text><text fill="#000000" font-family="sans-serif" font-size="14" lengthAdjust="spacing" textLength="144" x="1462" y="124.3496">JobOpeningRepository</text><path d="M1519,54.6211 C1519,44.6211 1537,44.6211 1537,44.6211 C1537,44.6211 1555,44.6211 1555,54.6211 L1555,80.6211 C1555,90.6211 1537,90.6211 1537,90.6211 C1537,90.6211 1519,90.6211 1519,80.6211 L1519,54.6211 " fill="#E3E3E3" style="stroke:#181818;stroke-width:1.5;"/><path d="M1519,54.6211 C1519,64.6211 1537,64.6211 1537,64.6211 C1537,64.6211 1555,64.6211 1555,54.6211 " fill="none" style="stroke:#181818;stroke-width:1.5;"/><text fill="#000000" font-family="sans-serif" font-size="14" font-style="italic" lengthAdjust="spacing" textLength="79" x="1494.5" y="962.877">&#171;repository&#187;</text><text fill="#000000" font-family="sans-serif" font-size="14" lengthAdjust="spacing" textLength="144" x="1462" y="981.498">JobOpeningRepository</text><path d="M1519,995.0117 C1519,985.0117 1537,985.0117 1537,985.0117 C1537,985.0117 1555,985.0117 1555,995.0117 L1555,1021.0117 C1555,1031.0117 1537,1031.0117 1537,1031.0117 C1537,1031.0117 1519,1031.0117 1519,1021.0117 L1519,995.0117 " fill="#E3E3E3" style="stroke:#181818;stroke-width:1.5;"/><path d="M1519,995.0117 C1519,1005.0117 1537,1005.0117 1537,1005.0117 C1537,1005.0117 1555,1005.0117 1555,995.0117 " fill="none" style="stroke:#181818;stroke-width:1.5;"/><text fill="#000000" font-family="sans-serif" font-size="14" font-style="italic" lengthAdjust="spacing" textLength="79" x="1654.5" y="105.7285">&#171;repository&#187;</text><text fill="#000000" font-family="sans-serif" font-size="14" lengthAdjust="spacing" textLength="116" x="1636" y="124.3496">DomainRepository</text><path d="M1679,54.6211 C1679,44.6211 1697,44.6211 1697,44.6211 C1697,44.6211 1715,44.6211 1715,54.6211 L1715,80.6211 C1715,90.6211 1697,90.6211 1697,90.6211 C1697,90.6211 1679,90.6211 1679,80.6211 L1679,54.6211 " fill="#E3E3E3" style="stroke:#181818;stroke-width:1.5;"/><path d="M1679,54.6211 C1679,64.6211 1697,64.6211 1697,64.6211 C1697,64.6211 1715,64.6211 1715,54.6211 " fill="none" style="stroke:#181818;stroke-width:1.5;"/><text fill="#000000" font-family="sans-serif" font-size="14" font-style="italic" lengthAdjust="spacing" textLength="79" x="1654.5" y="962.877">&#171;repository&#187;</text><text fill="#000000" font-family="sans-serif" font-size="14" lengthAdjust="spacing" textLength="116" x="1636" y="981.498">DomainRepository</text><path d="M1679,995.0117 C1679,985.0117 1697,985.0117 1697,985.0117 C1697,985.0117 1715,985.0117 1715,995.0117 L1715,1021.0117 C1715,1031.0117 1697,1031.0117 1697,1031.0117 C1697,1031.0117 1679,1031.0117 1679,1021.0117 L1679,995.0117 " fill="#E3E3E3" style="stroke:#181818;stroke-width:1.5;"/><path d="M1679,995.0117 C1679,1005.0117 1697,1005.0117 1697,1005.0117 C1697,1005.0117 1715,1005.0117 1715,995.0117 " fill="none" style="stroke:#181818;stroke-width:1.5;"/><rect fill="#FFFFFF" height="800.9063" style="stroke:#181818;stroke-width:1.0;" width="10" x="76.5" y="137.8633"/><rect fill="#FFFFFF" height="219.0371" style="stroke:#181818;stroke-width:1.0;" width="10" x="395.5" y="161.1543"/><rect fill="#FFFFFF" height="512.2871" style="stroke:#181818;stroke-width:1.0;" width="10" x="395.5" y="411.4824"/><rect fill="#FFFFFF" height="156.4551" style="stroke:#181818;stroke-width:1.0;" width="10" x="588.5" y="192.4453"/><rect fill="#FFFFFF" height="344.2012" style="stroke:#181818;stroke-width:1.0;" width="10" x="588.5" y="500.3555"/><rect fill="#FFFFFF" height="93.873" style="stroke:#181818;stroke-width:1.0;" width="10" x="832.5" y="223.7363"/><rect fill="#FFFFFF" height="281.6191" style="stroke:#181818;stroke-width:1.0;" width="10" x="832.5" y="531.6465"/><rect fill="#FFFFFF" height="93.873" style="stroke:#181818;stroke-width:1.0;" width="10" x="1159.5" y="688.1016"/><rect fill="#FFFFFF" height="31.291" style="stroke:#181818;stroke-width:1.0;" width="10" x="1363.5" y="719.3926"/><rect fill="#FFFFFF" height="31.291" style="stroke:#181818;stroke-width:1.0;" width="10" x="1532" y="255.0273"/><rect fill="#FFFFFF" height="93.873" style="stroke:#181818;stroke-width:1.0;" width="10" x="1532" y="562.9375"/><rect fill="#FFFFFF" height="31.291" style="stroke:#181818;stroke-width:1.0;" width="10" x="1692" y="594.2285"/><polygon fill="#181818" points="383.5,157.1543,393.5,161.1543,383.5,165.1543,387.5,161.1543" style="stroke:#181818;stroke-width:1.0;"/><line style="stroke:#181818;stroke-width:1.0;" x1="86.5" x2="389.5" y1="161.1543" y2="161.1543"/><text fill="#000000" font-family="sans-serif" font-size="13" font-weight="bold" lengthAdjust="spacing" textLength="7" x="93.5" y="155.8916">1</text><text fill="#000000" font-family="sans-serif" font-size="13" lengthAdjust="spacing" textLength="269" x="104.5" y="155.8916">choosing the interview model for a job opening.</text><polygon fill="#181818" points="576.5,188.4453,586.5,192.4453,576.5,196.4453,580.5,192.4453" style="stroke:#181818;stroke-width:1.0;"/><line style="stroke:#181818;stroke-width:1.0;" x1="405.5" x2="582.5" y1="192.4453" y2="192.4453"/><text fill="#000000" font-family="sans-serif" font-size="13" font-weight="bold" lengthAdjust="spacing" textLength="7" x="412.5" y="187.1826">2</text><text fill="#000000" font-family="sans-serif" font-size="13" lengthAdjust="spacing" textLength="121" x="423.5" y="187.1826">list with job openings</text><polygon fill="#181818" points="820.5,219.7363,830.5,223.7363,820.5,227.7363,824.5,223.7363" style="stroke:#181818;stroke-width:1.0;"/><line style="stroke:#181818;stroke-width:1.0;" x1="598.5" x2="826.5" y1="223.7363" y2="223.7363"/><text fill="#000000" font-family="sans-serif" font-size="13" font-weight="bold" lengthAdjust="spacing" textLength="7" x="605.5" y="218.4736">3</text><text fill="#000000" font-family="sans-serif" font-size="13" lengthAdjust="spacing" textLength="94" x="616.5" y="218.4736">findAllAvailable()</text><polygon fill="#181818" points="1520,251.0273,1530,255.0273,1520,259.0273,1524,255.0273" style="stroke:#181818;stroke-width:1.0;"/><line style="stroke:#181818;stroke-width:1.0;" x1="842.5" x2="1526" y1="255.0273" y2="255.0273"/><text fill="#000000" font-family="sans-serif" font-size="13" font-weight="bold" lengthAdjust="spacing" textLength="7" x="849.5" y="249.7646">4</text><text fill="#000000" font-family="sans-serif" font-size="13" lengthAdjust="spacing" textLength="43" x="860.5" y="249.7646">findAll()</text><polygon fill="#181818" points="853.5,282.3184,843.5,286.3184,853.5,290.3184,849.5,286.3184" style="stroke:#181818;stroke-width:1.0;"/><line style="stroke:#181818;stroke-width:1.0;stroke-dasharray:2.0,2.0;" x1="847.5" x2="1536" y1="286.3184" y2="286.3184"/><text fill="#000000" font-family="sans-serif" font-size="13" font-weight="bold" lengthAdjust="spacing" textLength="7" x="859.5" y="281.0557">5</text><text fill="#000000" font-family="sans-serif" font-size="13" lengthAdjust="spacing" textLength="121" x="870.5" y="281.0557">list with job openings</text><polygon fill="#181818" points="609.5,313.6094,599.5,317.6094,609.5,321.6094,605.5,317.6094" style="stroke:#181818;stroke-width:1.0;"/><line style="stroke:#181818;stroke-width:1.0;stroke-dasharray:2.0,2.0;" x1="603.5" x2="836.5" y1="317.6094" y2="317.6094"/><text fill="#000000" font-family="sans-serif" font-size="13" font-weight="bold" lengthAdjust="spacing" textLength="7" x="615.5" y="312.3467">6</text><text fill="#000000" font-family="sans-serif" font-size="13" lengthAdjust="spacing" textLength="121" x="626.5" y="312.3467">list with job openings</text><polygon fill="#181818" points="416.5,344.9004,406.5,348.9004,416.5,352.9004,412.5,348.9004" style="stroke:#181818;stroke-width:1.0;"/><line style="stroke:#181818;stroke-width:1.0;stroke-dasharray:2.0,2.0;" x1="410.5" x2="592.5" y1="348.9004" y2="348.9004"/><text fill="#000000" font-family="sans-serif" font-size="13" font-weight="bold" lengthAdjust="spacing" textLength="7" x="422.5" y="343.6377">7</text><text fill="#000000" font-family="sans-serif" font-size="13" lengthAdjust="spacing" textLength="121" x="433.5" y="343.6377">list with job openings</text><polygon fill="#181818" points="97.5,376.1914,87.5,380.1914,97.5,384.1914,93.5,380.1914" style="stroke:#181818;stroke-width:1.0;"/><line style="stroke:#181818;stroke-width:1.0;stroke-dasharray:2.0,2.0;" x1="91.5" x2="399.5" y1="380.1914" y2="380.1914"/><text fill="#000000" font-family="sans-serif" font-size="13" font-weight="bold" lengthAdjust="spacing" textLength="7" x="103.5" y="374.9287">8</text><text fill="#000000" font-family="sans-serif" font-size="13" lengthAdjust="spacing" textLength="121" x="114.5" y="374.9287">list with job openings</text><polygon fill="#181818" points="383.5,407.4824,393.5,411.4824,383.5,415.4824,387.5,411.4824" style="stroke:#181818;stroke-width:1.0;"/><line style="stroke:#181818;stroke-width:1.0;" x1="86.5" x2="389.5" y1="411.4824" y2="411.4824"/><text fill="#000000" font-family="sans-serif" font-size="13" font-weight="bold" lengthAdjust="spacing" textLength="7" x="93.5" y="406.2197">9</text><text fill="#000000" font-family="sans-serif" font-size="13" lengthAdjust="spacing" textLength="225" x="104.5" y="406.2197">enter the job opening reference number</text><path d="M10,426.4824 L71,426.4824 L71,435.7734 L61,445.7734 L10,445.7734 L10,426.4824 " fill="#EEEEEE" style="stroke:#000000;stroke-width:1.5;"/><rect fill="none" height="505.2871" style="stroke:#000000;stroke-width:1.5;" width="1758" x="10" y="426.4824"/><text fill="#000000" font-family="sans-serif" font-size="13" font-weight="bold" lengthAdjust="spacing" textLength="16" x="25" y="441.5107">alt</text><text fill="#000000" font-family="sans-serif" font-size="11" font-weight="bold" lengthAdjust="spacing" textLength="98" x="86" y="440.3525">[successful case]</text><polygon fill="#181818" points="383.5,465.0645,393.5,469.0645,383.5,473.0645,387.5,469.0645" style="stroke:#181818;stroke-width:1.0;"/><line style="stroke:#181818;stroke-width:1.0;" x1="86.5" x2="389.5" y1="469.0645" y2="469.0645"/><text fill="#000000" font-family="sans-serif" font-size="13" font-weight="bold" lengthAdjust="spacing" textLength="14" x="93.5" y="463.8018">10</text><text fill="#000000" font-family="sans-serif" font-size="13" lengthAdjust="spacing" textLength="149" x="111.5" y="463.8018">select the interview model</text><polygon fill="#181818" points="576.5,496.3555,586.5,500.3555,576.5,504.3555,580.5,500.3555" style="stroke:#181818;stroke-width:1.0;"/><line style="stroke:#181818;stroke-width:1.0;" x1="405.5" x2="582.5" y1="500.3555" y2="500.3555"/><text fill="#000000" font-family="sans-serif" font-size="13" font-weight="bold" lengthAdjust="spacing" textLength="14" x="412.5" y="495.0928">11</text><text fill="#000000" font-family="sans-serif" font-size="13" lengthAdjust="spacing" textLength="130" x="430.5" y="495.0928">assignInterviewModel()</text><polygon fill="#181818" points="820.5,527.6465,830.5,531.6465,820.5,535.6465,824.5,531.6465" style="stroke:#181818;stroke-width:1.0;"/><line style="stroke:#181818;stroke-width:1.0;" x1="598.5" x2="826.5" y1="531.6465" y2="531.6465"/><text fill="#000000" font-family="sans-serif" font-size="13" font-weight="bold" lengthAdjust="spacing" textLength="14" x="605.5" y="526.3838">12</text><text fill="#000000" font-family="sans-serif" font-size="13" lengthAdjust="spacing" textLength="197" x="623.5" y="526.3838">findJobOpeningById(jobReference)</text><polygon fill="#181818" points="1520,558.9375,1530,562.9375,1520,566.9375,1524,562.9375" style="stroke:#181818;stroke-width:1.0;"/><line style="stroke:#181818;stroke-width:1.0;" x1="842.5" x2="1526" y1="562.9375" y2="562.9375"/><text fill="#000000" font-family="sans-serif" font-size="13" font-weight="bold" lengthAdjust="spacing" textLength="14" x="849.5" y="557.6748">13</text><text fill="#000000" font-family="sans-serif" font-size="13" lengthAdjust="spacing" textLength="132" x="867.5" y="557.6748">findByJobReference(id)</text><polygon fill="#181818" points="1680,590.2285,1690,594.2285,1680,598.2285,1684,594.2285" style="stroke:#181818;stroke-width:1.0;"/><line style="stroke:#181818;stroke-width:1.0;stroke-dasharray:2.0,2.0;" x1="1542" x2="1686" y1="594.2285" y2="594.2285"/><text fill="#000000" font-family="sans-serif" font-size="13" font-weight="bold" lengthAdjust="spacing" textLength="14" x="1549" y="588.9658">14</text><text fill="#000000" font-family="sans-serif" font-size="13" lengthAdjust="spacing" textLength="113" x="1567" y="588.9658">ofIdentity(reference)</text><polygon fill="#181818" points="1553,621.5195,1543,625.5195,1553,629.5195,1549,625.5195" style="stroke:#181818;stroke-width:1.0;"/><line style="stroke:#181818;stroke-width:1.0;stroke-dasharray:2.0,2.0;" x1="1547" x2="1696" y1="625.5195" y2="625.5195"/><text fill="#000000" font-family="sans-serif" font-size="13" font-weight="bold" lengthAdjust="spacing" textLength="14" x="1559" y="620.2568">15</text><text fill="#000000" font-family="sans-serif" font-size="13" lengthAdjust="spacing" textLength="65" x="1577" y="620.2568">jobOpening</text><polygon fill="#181818" points="853.5,652.8105,843.5,656.8105,853.5,660.8105,849.5,656.8105" style="stroke:#181818;stroke-width:1.0;"/><line style="stroke:#181818;stroke-width:1.0;stroke-dasharray:2.0,2.0;" x1="847.5" x2="1536" y1="656.8105" y2="656.8105"/><text fill="#000000" font-family="sans-serif" font-size="13" font-weight="bold" lengthAdjust="spacing" textLength="14" x="859.5" y="651.5479">16</text><text fill="#000000" font-family="sans-serif" font-size="13" lengthAdjust="spacing" textLength="65" x="877.5" y="651.5479">jobOpening</text><polygon fill="#181818" points="1147.5,684.1016,1157.5,688.1016,1147.5,692.1016,1151.5,688.1016" style="stroke:#181818;stroke-width:1.0;"/><line style="stroke:#181818;stroke-width:1.0;" x1="842.5" x2="1153.5" y1="688.1016" y2="688.1016"/><text fill="#000000" font-family="sans-serif" font-size="13" font-weight="bold" lengthAdjust="spacing" textLength="14" x="849.5" y="682.8389">17</text><text fill="#000000" font-family="sans-serif" font-size="13" lengthAdjust="spacing" textLength="280" x="867.5" y="682.8389">findInterviewModelById(interviewModelReference)</text><polygon fill="#181818" points="1351.5,715.3926,1361.5,719.3926,1351.5,723.3926,1355.5,719.3926" style="stroke:#181818;stroke-width:1.0;"/><line style="stroke:#181818;stroke-width:1.0;" x1="1169.5" x2="1357.5" y1="719.3926" y2="719.3926"/><text fill="#000000" font-family="sans-serif" font-size="13" font-weight="bold" lengthAdjust="spacing" textLength="14" x="1176.5" y="714.1299">18</text><text fill="#000000" font-family="sans-serif" font-size="13" lengthAdjust="spacing" textLength="157" x="1194.5" y="714.1299">findModelByDesignation(id)</text><polygon fill="#181818" points="1180.5,746.6836,1170.5,750.6836,1180.5,754.6836,1176.5,750.6836" style="stroke:#181818;stroke-width:1.0;"/><line style="stroke:#181818;stroke-width:1.0;stroke-dasharray:2.0,2.0;" x1="1174.5" x2="1367.5" y1="750.6836" y2="750.6836"/><text fill="#000000" font-family="sans-serif" font-size="13" font-weight="bold" lengthAdjust="spacing" textLength="14" x="1186.5" y="745.4209">19</text><text fill="#000000" font-family="sans-serif" font-size="13" lengthAdjust="spacing" textLength="20" x="1204.5" y="745.4209">sfdf</text><polygon fill="#181818" points="853.5,777.9746,843.5,781.9746,853.5,785.9746,849.5,781.9746" style="stroke:#181818;stroke-width:1.0;"/><line style="stroke:#181818;stroke-width:1.0;stroke-dasharray:2.0,2.0;" x1="847.5" x2="1163.5" y1="781.9746" y2="781.9746"/><text fill="#000000" font-family="sans-serif" font-size="13" font-weight="bold" lengthAdjust="spacing" textLength="14" x="859.5" y="776.7119">20</text><text fill="#000000" font-family="sans-serif" font-size="13" lengthAdjust="spacing" textLength="26" x="877.5" y="776.7119">djjfdj</text><polygon fill="#181818" points="609.5,809.2656,599.5,813.2656,609.5,817.2656,605.5,813.2656" style="stroke:#181818;stroke-width:1.0;"/><line style="stroke:#181818;stroke-width:1.0;stroke-dasharray:2.0,2.0;" x1="603.5" x2="836.5" y1="813.2656" y2="813.2656"/><text fill="#000000" font-family="sans-serif" font-size="13" font-weight="bold" lengthAdjust="spacing" textLength="14" x="615.5" y="808.0029">21</text><text fill="#000000" font-family="sans-serif" font-size="13" lengthAdjust="spacing" textLength="126" x="633.5" y="808.0029">defineInterviewModel()</text><polygon fill="#181818" points="416.5,840.5566,406.5,844.5566,416.5,848.5566,412.5,844.5566" style="stroke:#181818;stroke-width:1.0;"/><line style="stroke:#181818;stroke-width:1.0;stroke-dasharray:2.0,2.0;" x1="410.5" x2="592.5" y1="844.5566" y2="844.5566"/><text fill="#000000" font-family="sans-serif" font-size="13" font-weight="bold" lengthAdjust="spacing" textLength="14" x="422.5" y="839.2939">22</text><text fill="#000000" font-family="sans-serif" font-size="13" lengthAdjust="spacing" textLength="118" x="440.5" y="839.2939">defineInterviewModel</text><polygon fill="#181818" points="97.5,871.8477,87.5,875.8477,97.5,879.8477,93.5,875.8477" style="stroke:#181818;stroke-width:1.0;"/><line style="stroke:#181818;stroke-width:1.0;stroke-dasharray:2.0,2.0;" x1="91.5" x2="394.5" y1="875.8477" y2="875.8477"/><text fill="#000000" font-family="sans-serif" font-size="13" font-weight="bold" lengthAdjust="spacing" textLength="14" x="103.5" y="870.585">23</text><text fill="#000000" font-family="sans-serif" font-size="13" lengthAdjust="spacing" textLength="266" x="121.5" y="870.585">the interview model was successfully selected</text><line style="stroke:#000000;stroke-width:1.0;stroke-dasharray:2.0,2.0;" x1="10" x2="1768" y1="884.8477" y2="884.8477"/><text fill="#000000" font-family="sans-serif" font-size="11" font-weight="bold" lengthAdjust="spacing" textLength="102" x="15" y="896.7178">[insucessful case]</text><polygon fill="#181818" points="97.5,919.7695,87.5,923.7695,97.5,927.7695,93.5,923.7695" style="stroke:#181818;stroke-width:1.0;"/><line style="stroke:#181818;stroke-width:1.0;stroke-dasharray:2.0,2.0;" x1="91.5" x2="399.5" y1="923.7695" y2="923.7695"/><text fill="#000000" font-family="sans-serif" font-size="13" font-weight="bold" lengthAdjust="spacing" textLength="14" x="103.5" y="918.5068">24</text><text fill="#000000" font-family="sans-serif" font-size="13" lengthAdjust="spacing" textLength="267" x="121.5" y="918.5068">the interview model reference number is invalid</text><!--SRC=[fLTDRzim3BthL-Ysx91XEoum2hJf9GM20Gtw0nIBJfJAacV9oVplHpcfBN_8TbCVYjeI7n-fHv4nxq9bB6SfJRNIyJ7NAL2R5q1ClPAn-9qTO6TB2JI7s39raFu6SsHSNuGwq8H90uImmcfLf7l82R72ejckD1PIkeE_1QWOwBDW1sUwf6_hdxz-4_BjA3ZGH6kxr_y8YwtEwRem5ldaMwRGVqwPeUijGPzMn29ZoYAUH3uRPI4_2xXiDGVvjd4RyMyKPJaOK9PPeTN3mwJbMYkRQoblhfgtA69P9aKy1FIYztyoK1ZzbMQA3dSE5AD4bB7bA3BN_pgGKfWECmymlEZ3SMRPdXcWxQsla6aZCBUbWnAXjIZAwnSVh0cc3JJuFGJoh5CcL1kWzwrZx0GXpio24m2X-AotTFdWJdb5uwF6dQW-UuGc9XGq1eMAmiEa9xsd-ihmnzM-1dpRLE_kGJJ4zCvzLMMRNeGz-X26r2QqXTMOjZSulWqg-XXJnOecGl57AH_FJ4Ysbx3u7d8uWjDZCEQpHSaxXffBZqAOIMC-QD6culbQJkObS1X37ZYCC_jSTcQgOff1_vH6XVAXy4_wysJOqhOBOpiXQW_6gmolsi0LM5LgdZ6sXGJowcR_kFShTKXBJH77O4nII1epumNi-nboPAeRUgYeoLZ5CcF4GRMllQvwHpDrRyKsEvxA3LzWTbu_aZA_UARB-Elb_5I-UDmMWWVetL_VepNUk-jNL2SRZlI5BHVvHCvwnBfmerRkwVbVXjDrgZ-Fi_6gfiVdlYoDwytZDOFIl1jmfh32yyTLNUsrgXIwSyRq2TVKWzv6inhcY044fvwLetzZ_Gpk5gdclV42QR4DGKzgCiXfEP5na_1ajZI3zEvDvgHE-UcKy1EP8zBmIT-dr6vVu8372xs-CBjqvjtCGzrxo7Cxg8dUtNGxnAmw-D2aUy4vkccsihmrKE1N8C1VPcY3E_nkF3GU385t-piLxkV3cKd1oK0Kjz4153edn0yFn_V_]--></g></svg>