<?xml version="1.0" encoding="us-ascii" standalone="no"?><svg xmlns="http://www.w3.org/2000/svg" xmlns:xlink="http://www.w3.org/1999/xlink" contentStyleType="text/css" height="516px" preserveAspectRatio="none" style="width:931px;height:516px;background:#FFFFFF;" version="1.1" viewBox="0 0 931 516" width="931px" zoomAndPan="magnify"><defs/><g><text fill="#000000" font-family="sans-serif" font-size="14" font-weight="bold" lengthAdjust="spacing" textLength="190" x="363.5" y="25.1074">Class Diagram (CD) - UC019</text><!--class SelectInterviewModelUI--><g id="elem_SelectInterviewModelUI"><rect codeLine="8" fill="#F1F1F1" height="60.582" id="SelectInterviewModelUI" rx="2.5" ry="2.5" style="stroke:#181818;stroke-width:0.5;" width="176" x="425" y="46.6211"/><ellipse cx="440" cy="68.9121" fill="#ADD1B2" rx="11" ry="11" style="stroke:#181818;stroke-width:1.0;"/><path d="M442.7656,64.7871 Q442.9219,64.5684 443.1094,64.459 Q443.2969,64.3496 443.5156,64.3496 Q443.8906,64.3496 444.125,64.6152 Q444.3594,64.8652 444.3594,65.4746 L444.3594,66.9277 Q444.3594,67.5371 444.125,67.8027 Q443.8906,68.0684 443.5156,68.0684 Q443.1719,68.0684 442.9688,67.8652 Q442.7656,67.6777 442.6563,67.1621 Q442.6094,66.8027 442.4219,66.6152 Q442.0938,66.2402 441.4844,66.0215 Q440.875,65.8027 440.25,65.8027 Q439.4844,65.8027 438.8438,66.1309 Q438.2188,66.459 437.7188,67.209 Q437.2344,67.959 437.2344,68.9902 L437.2344,70.084 Q437.2344,71.3184 438.125,72.1465 Q439.0156,72.959 440.6094,72.959 Q441.5469,72.959 442.2031,72.709 Q442.5938,72.5527 443.0156,72.1152 Q443.2813,71.8496 443.4219,71.7715 Q443.5781,71.6934 443.7813,71.6934 Q444.1094,71.6934 444.3594,71.959 Q444.625,72.209 444.625,72.5527 Q444.625,72.8965 444.2813,73.3027 Q443.7813,73.8809 442.9844,74.209 Q441.9063,74.6621 440.6094,74.6621 Q439.0938,74.6621 437.8906,74.0371 Q436.9063,73.5371 436.2188,72.4746 Q435.5313,71.3965 435.5313,70.1152 L435.5313,68.959 Q435.5313,67.6309 436.1406,66.4902 Q436.7656,65.334 437.8594,64.7246 Q438.9531,64.0996 440.1875,64.0996 Q440.9219,64.0996 441.5625,64.2715 Q442.2188,64.4277 442.7656,64.7871 Z " fill="#000000"/><text fill="#000000" font-family="sans-serif" font-size="12" font-style="italic" lengthAdjust="spacing" textLength="61" x="495.5" y="64.5703">&#171;interface&#187;</text><text fill="#000000" font-family="sans-serif" font-size="14" lengthAdjust="spacing" textLength="144" x="454" y="82.6895">SelectInterviewModelUI</text><line style="stroke:#181818;stroke-width:0.5;" x1="426" x2="600" y1="91.2031" y2="91.2031"/><line style="stroke:#181818;stroke-width:0.5;" x1="426" x2="600" y1="99.2031" y2="99.2031"/></g><!--class SelectInterviewModelController--><g id="elem_SelectInterviewModelController"><rect codeLine="10" fill="#F1F1F1" height="60.582" id="SelectInterviewModelController" rx="2.5" ry="2.5" style="stroke:#181818;stroke-width:0.5;" width="226" x="400" y="168.6211"/><ellipse cx="415" cy="190.9121" fill="#ADD1B2" rx="11" ry="11" style="stroke:#181818;stroke-width:1.0;"/><path d="M417.7656,186.7871 Q417.9219,186.5684 418.1094,186.459 Q418.2969,186.3496 418.5156,186.3496 Q418.8906,186.3496 419.125,186.6152 Q419.3594,186.8652 419.3594,187.4746 L419.3594,188.9277 Q419.3594,189.5371 419.125,189.8027 Q418.8906,190.0684 418.5156,190.0684 Q418.1719,190.0684 417.9688,189.8652 Q417.7656,189.6777 417.6563,189.1621 Q417.6094,188.8027 417.4219,188.6152 Q417.0938,188.2402 416.4844,188.0215 Q415.875,187.8027 415.25,187.8027 Q414.4844,187.8027 413.8438,188.1309 Q413.2188,188.459 412.7188,189.209 Q412.2344,189.959 412.2344,190.9902 L412.2344,192.084 Q412.2344,193.3184 413.125,194.1465 Q414.0156,194.959 415.6094,194.959 Q416.5469,194.959 417.2031,194.709 Q417.5938,194.5527 418.0156,194.1152 Q418.2813,193.8496 418.4219,193.7715 Q418.5781,193.6934 418.7813,193.6934 Q419.1094,193.6934 419.3594,193.959 Q419.625,194.209 419.625,194.5527 Q419.625,194.8965 419.2813,195.3027 Q418.7813,195.8809 417.9844,196.209 Q416.9063,196.6621 415.6094,196.6621 Q414.0938,196.6621 412.8906,196.0371 Q411.9063,195.5371 411.2188,194.4746 Q410.5313,193.3965 410.5313,192.1152 L410.5313,190.959 Q410.5313,189.6309 411.1406,188.4902 Q411.7656,187.334 412.8594,186.7246 Q413.9531,186.0996 415.1875,186.0996 Q415.9219,186.0996 416.5625,186.2715 Q417.2188,186.4277 417.7656,186.7871 Z " fill="#000000"/><text fill="#000000" font-family="sans-serif" font-size="12" font-style="italic" lengthAdjust="spacing" textLength="65" x="493.5" y="186.5703">&#171;controller&#187;</text><text fill="#000000" font-family="sans-serif" font-size="14" lengthAdjust="spacing" textLength="194" x="429" y="204.6895">SelectInterviewModelController</text><line style="stroke:#181818;stroke-width:0.5;" x1="401" x2="625" y1="213.2031" y2="213.2031"/><line style="stroke:#181818;stroke-width:0.5;" x1="401" x2="625" y1="221.2031" y2="221.2031"/></g><!--class JobOpeningManagementService--><g id="elem_JobOpeningManagementService"><rect codeLine="12" fill="#F1F1F1" height="60.582" id="JobOpeningManagementService" rx="2.5" ry="2.5" style="stroke:#181818;stroke-width:0.5;" width="237" x="457.5" y="308.6211"/><ellipse cx="472.5" cy="330.9121" fill="#ADD1B2" rx="11" ry="11" style="stroke:#181818;stroke-width:1.0;"/><path d="M475.2656,326.7871 Q475.4219,326.5684 475.6094,326.459 Q475.7969,326.3496 476.0156,326.3496 Q476.3906,326.3496 476.625,326.6152 Q476.8594,326.8652 476.8594,327.4746 L476.8594,328.9277 Q476.8594,329.5371 476.625,329.8027 Q476.3906,330.0684 476.0156,330.0684 Q475.6719,330.0684 475.4688,329.8652 Q475.2656,329.6777 475.1563,329.1621 Q475.1094,328.8027 474.9219,328.6152 Q474.5938,328.2402 473.9844,328.0215 Q473.375,327.8027 472.75,327.8027 Q471.9844,327.8027 471.3438,328.1309 Q470.7188,328.459 470.2188,329.209 Q469.7344,329.959 469.7344,330.9902 L469.7344,332.084 Q469.7344,333.3184 470.625,334.1465 Q471.5156,334.959 473.1094,334.959 Q474.0469,334.959 474.7031,334.709 Q475.0938,334.5527 475.5156,334.1152 Q475.7813,333.8496 475.9219,333.7715 Q476.0781,333.6934 476.2813,333.6934 Q476.6094,333.6934 476.8594,333.959 Q477.125,334.209 477.125,334.5527 Q477.125,334.8965 476.7813,335.3027 Q476.2813,335.8809 475.4844,336.209 Q474.4063,336.6621 473.1094,336.6621 Q471.5938,336.6621 470.3906,336.0371 Q469.4063,335.5371 468.7188,334.4746 Q468.0313,333.3965 468.0313,332.1152 L468.0313,330.959 Q468.0313,329.6309 468.6406,328.4902 Q469.2656,327.334 470.3594,326.7246 Q471.4531,326.0996 472.6875,326.0996 Q473.4219,326.0996 474.0625,326.2715 Q474.7188,326.4277 475.2656,326.7871 Z " fill="#000000"/><text fill="#000000" font-family="sans-serif" font-size="12" font-style="italic" lengthAdjust="spacing" textLength="53" x="562.5" y="326.5703">&#171;service&#187;</text><text fill="#000000" font-family="sans-serif" font-size="14" lengthAdjust="spacing" textLength="205" x="486.5" y="344.6895">JobOpeningManagementService</text><line style="stroke:#181818;stroke-width:0.5;" x1="458.5" x2="693.5" y1="353.2031" y2="353.2031"/><line style="stroke:#181818;stroke-width:0.5;" x1="458.5" x2="693.5" y1="361.2031" y2="361.2031"/></g><!--class ListInterviewModelService--><g id="elem_ListInterviewModelService"><rect codeLine="14" fill="#F1F1F1" height="60.582" id="ListInterviewModelService" rx="2.5" ry="2.5" style="stroke:#181818;stroke-width:0.5;" width="194" x="730" y="308.6211"/><ellipse cx="745" cy="330.9121" fill="#ADD1B2" rx="11" ry="11" style="stroke:#181818;stroke-width:1.0;"/><path d="M747.7656,326.7871 Q747.9219,326.5684 748.1094,326.459 Q748.2969,326.3496 748.5156,326.3496 Q748.8906,326.3496 749.125,326.6152 Q749.3594,326.8652 749.3594,327.4746 L749.3594,328.9277 Q749.3594,329.5371 749.125,329.8027 Q748.8906,330.0684 748.5156,330.0684 Q748.1719,330.0684 747.9688,329.8652 Q747.7656,329.6777 747.6563,329.1621 Q747.6094,328.8027 747.4219,328.6152 Q747.0938,328.2402 746.4844,328.0215 Q745.875,327.8027 745.25,327.8027 Q744.4844,327.8027 743.8438,328.1309 Q743.2188,328.459 742.7188,329.209 Q742.2344,329.959 742.2344,330.9902 L742.2344,332.084 Q742.2344,333.3184 743.125,334.1465 Q744.0156,334.959 745.6094,334.959 Q746.5469,334.959 747.2031,334.709 Q747.5938,334.5527 748.0156,334.1152 Q748.2813,333.8496 748.4219,333.7715 Q748.5781,333.6934 748.7813,333.6934 Q749.1094,333.6934 749.3594,333.959 Q749.625,334.209 749.625,334.5527 Q749.625,334.8965 749.2813,335.3027 Q748.7813,335.8809 747.9844,336.209 Q746.9063,336.6621 745.6094,336.6621 Q744.0938,336.6621 742.8906,336.0371 Q741.9063,335.5371 741.2188,334.4746 Q740.5313,333.3965 740.5313,332.1152 L740.5313,330.959 Q740.5313,329.6309 741.1406,328.4902 Q741.7656,327.334 742.8594,326.7246 Q743.9531,326.0996 745.1875,326.0996 Q745.9219,326.0996 746.5625,326.2715 Q747.2188,326.4277 747.7656,326.7871 Z " fill="#000000"/><text fill="#000000" font-family="sans-serif" font-size="12" font-style="italic" lengthAdjust="spacing" textLength="53" x="813.5" y="326.5703">&#171;service&#187;</text><text fill="#000000" font-family="sans-serif" font-size="14" lengthAdjust="spacing" textLength="162" x="759" y="344.6895">ListInterviewModelService</text><line style="stroke:#181818;stroke-width:0.5;" x1="731" x2="923" y1="353.2031" y2="353.2031"/><line style="stroke:#181818;stroke-width:0.5;" x1="731" x2="923" y1="361.2031" y2="361.2031"/></g><!--class InterviewModelRepository--><g id="elem_InterviewModelRepository"><rect codeLine="16" fill="#F1F1F1" height="60.582" id="InterviewModelRepository" rx="2.5" ry="2.5" style="stroke:#181818;stroke-width:0.5;" width="193" x="229.5" y="308.6211"/><ellipse cx="244.5" cy="330.9121" fill="#ADD1B2" rx="11" ry="11" style="stroke:#181818;stroke-width:1.0;"/><path d="M247.2656,326.7871 Q247.4219,326.5684 247.6094,326.459 Q247.7969,326.3496 248.0156,326.3496 Q248.3906,326.3496 248.625,326.6152 Q248.8594,326.8652 248.8594,327.4746 L248.8594,328.9277 Q248.8594,329.5371 248.625,329.8027 Q248.3906,330.0684 248.0156,330.0684 Q247.6719,330.0684 247.4688,329.8652 Q247.2656,329.6777 247.1563,329.1621 Q247.1094,328.8027 246.9219,328.6152 Q246.5938,328.2402 245.9844,328.0215 Q245.375,327.8027 244.75,327.8027 Q243.9844,327.8027 243.3438,328.1309 Q242.7188,328.459 242.2188,329.209 Q241.7344,329.959 241.7344,330.9902 L241.7344,332.084 Q241.7344,333.3184 242.625,334.1465 Q243.5156,334.959 245.1094,334.959 Q246.0469,334.959 246.7031,334.709 Q247.0938,334.5527 247.5156,334.1152 Q247.7813,333.8496 247.9219,333.7715 Q248.0781,333.6934 248.2813,333.6934 Q248.6094,333.6934 248.8594,333.959 Q249.125,334.209 249.125,334.5527 Q249.125,334.8965 248.7813,335.3027 Q248.2813,335.8809 247.4844,336.209 Q246.4063,336.6621 245.1094,336.6621 Q243.5938,336.6621 242.3906,336.0371 Q241.4063,335.5371 240.7188,334.4746 Q240.0313,333.3965 240.0313,332.1152 L240.0313,330.959 Q240.0313,329.6309 240.6406,328.4902 Q241.2656,327.334 242.3594,326.7246 Q243.4531,326.0996 244.6875,326.0996 Q245.4219,326.0996 246.0625,326.2715 Q246.7188,326.4277 247.2656,326.7871 Z " fill="#000000"/><text fill="#000000" font-family="sans-serif" font-size="12" font-style="italic" lengthAdjust="spacing" textLength="68" x="305" y="326.5703">&#171;repository&#187;</text><text fill="#000000" font-family="sans-serif" font-size="14" lengthAdjust="spacing" textLength="161" x="258.5" y="344.6895">InterviewModelRepository</text><line style="stroke:#181818;stroke-width:0.5;" x1="230.5" x2="421.5" y1="353.2031" y2="353.2031"/><line style="stroke:#181818;stroke-width:0.5;" x1="230.5" x2="421.5" y1="361.2031" y2="361.2031"/></g><!--class JobOpeningRepository--><g id="elem_JobOpeningRepository"><rect codeLine="18" fill="#F1F1F1" height="60.582" id="JobOpeningRepository" rx="2.5" ry="2.5" style="stroke:#181818;stroke-width:0.5;" width="176" x="18" y="308.6211"/><ellipse cx="33" cy="330.9121" fill="#ADD1B2" rx="11" ry="11" style="stroke:#181818;stroke-width:1.0;"/><path d="M35.7656,326.7871 Q35.9219,326.5684 36.1094,326.459 Q36.2969,326.3496 36.5156,326.3496 Q36.8906,326.3496 37.125,326.6152 Q37.3594,326.8652 37.3594,327.4746 L37.3594,328.9277 Q37.3594,329.5371 37.125,329.8027 Q36.8906,330.0684 36.5156,330.0684 Q36.1719,330.0684 35.9688,329.8652 Q35.7656,329.6777 35.6563,329.1621 Q35.6094,328.8027 35.4219,328.6152 Q35.0938,328.2402 34.4844,328.0215 Q33.875,327.8027 33.25,327.8027 Q32.4844,327.8027 31.8438,328.1309 Q31.2188,328.459 30.7188,329.209 Q30.2344,329.959 30.2344,330.9902 L30.2344,332.084 Q30.2344,333.3184 31.125,334.1465 Q32.0156,334.959 33.6094,334.959 Q34.5469,334.959 35.2031,334.709 Q35.5938,334.5527 36.0156,334.1152 Q36.2813,333.8496 36.4219,333.7715 Q36.5781,333.6934 36.7813,333.6934 Q37.1094,333.6934 37.3594,333.959 Q37.625,334.209 37.625,334.5527 Q37.625,334.8965 37.2813,335.3027 Q36.7813,335.8809 35.9844,336.209 Q34.9063,336.6621 33.6094,336.6621 Q32.0938,336.6621 30.8906,336.0371 Q29.9063,335.5371 29.2188,334.4746 Q28.5313,333.3965 28.5313,332.1152 L28.5313,330.959 Q28.5313,329.6309 29.1406,328.4902 Q29.7656,327.334 30.8594,326.7246 Q31.9531,326.0996 33.1875,326.0996 Q33.9219,326.0996 34.5625,326.2715 Q35.2188,326.4277 35.7656,326.7871 Z " fill="#000000"/><text fill="#000000" font-family="sans-serif" font-size="12" font-style="italic" lengthAdjust="spacing" textLength="68" x="85" y="326.5703">&#171;repository&#187;</text><text fill="#000000" font-family="sans-serif" font-size="14" lengthAdjust="spacing" textLength="144" x="47" y="344.6895">JobOpeningRepository</text><line style="stroke:#181818;stroke-width:0.5;" x1="19" x2="193" y1="353.2031" y2="353.2031"/><line style="stroke:#181818;stroke-width:0.5;" x1="19" x2="193" y1="361.2031" y2="361.2031"/></g><!--class RepositoryFactory--><g id="elem_RepositoryFactory"><rect codeLine="20" fill="#F1F1F1" height="60.582" id="RepositoryFactory" rx="2.5" ry="2.5" style="stroke:#181818;stroke-width:0.5;" width="148" x="150" y="448.6211"/><ellipse cx="165" cy="470.9121" fill="#ADD1B2" rx="11" ry="11" style="stroke:#181818;stroke-width:1.0;"/><path d="M167.7656,466.7871 Q167.9219,466.5684 168.1094,466.459 Q168.2969,466.3496 168.5156,466.3496 Q168.8906,466.3496 169.125,466.6152 Q169.3594,466.8652 169.3594,467.4746 L169.3594,468.9277 Q169.3594,469.5371 169.125,469.8027 Q168.8906,470.0684 168.5156,470.0684 Q168.1719,470.0684 167.9688,469.8652 Q167.7656,469.6777 167.6563,469.1621 Q167.6094,468.8027 167.4219,468.6152 Q167.0938,468.2402 166.4844,468.0215 Q165.875,467.8027 165.25,467.8027 Q164.4844,467.8027 163.8438,468.1309 Q163.2188,468.459 162.7188,469.209 Q162.2344,469.959 162.2344,470.9902 L162.2344,472.084 Q162.2344,473.3184 163.125,474.1465 Q164.0156,474.959 165.6094,474.959 Q166.5469,474.959 167.2031,474.709 Q167.5938,474.5527 168.0156,474.1152 Q168.2813,473.8496 168.4219,473.7715 Q168.5781,473.6934 168.7813,473.6934 Q169.1094,473.6934 169.3594,473.959 Q169.625,474.209 169.625,474.5527 Q169.625,474.8965 169.2813,475.3027 Q168.7813,475.8809 167.9844,476.209 Q166.9063,476.6621 165.6094,476.6621 Q164.0938,476.6621 162.8906,476.0371 Q161.9063,475.5371 161.2188,474.4746 Q160.5313,473.3965 160.5313,472.1152 L160.5313,470.959 Q160.5313,469.6309 161.1406,468.4902 Q161.7656,467.334 162.8594,466.7246 Q163.9531,466.0996 165.1875,466.0996 Q165.9219,466.0996 166.5625,466.2715 Q167.2188,466.4277 167.7656,466.7871 Z " fill="#000000"/><text fill="#000000" font-family="sans-serif" font-size="12" font-style="italic" lengthAdjust="spacing" textLength="50" x="212" y="466.5703">&#171;factory&#187;</text><text fill="#000000" font-family="sans-serif" font-size="14" lengthAdjust="spacing" textLength="116" x="179" y="484.6895">RepositoryFactory</text><line style="stroke:#181818;stroke-width:0.5;" x1="151" x2="297" y1="493.2031" y2="493.2031"/><line style="stroke:#181818;stroke-width:0.5;" x1="151" x2="297" y1="501.2031" y2="501.2031"/></g><!--class JobOpening--><g id="elem_JobOpening"><rect codeLine="22" fill="#F1F1F1" height="60.582" id="JobOpening" rx="2.5" ry="2.5" style="stroke:#181818;stroke-width:0.5;" width="108" x="7" y="448.6211"/><ellipse cx="22" cy="470.9121" fill="#ADD1B2" rx="11" ry="11" style="stroke:#181818;stroke-width:1.0;"/><path d="M24.7656,466.7871 Q24.9219,466.5684 25.1094,466.459 Q25.2969,466.3496 25.5156,466.3496 Q25.8906,466.3496 26.125,466.6152 Q26.3594,466.8652 26.3594,467.4746 L26.3594,468.9277 Q26.3594,469.5371 26.125,469.8027 Q25.8906,470.0684 25.5156,470.0684 Q25.1719,470.0684 24.9688,469.8652 Q24.7656,469.6777 24.6563,469.1621 Q24.6094,468.8027 24.4219,468.6152 Q24.0938,468.2402 23.4844,468.0215 Q22.875,467.8027 22.25,467.8027 Q21.4844,467.8027 20.8438,468.1309 Q20.2188,468.459 19.7188,469.209 Q19.2344,469.959 19.2344,470.9902 L19.2344,472.084 Q19.2344,473.3184 20.125,474.1465 Q21.0156,474.959 22.6094,474.959 Q23.5469,474.959 24.2031,474.709 Q24.5938,474.5527 25.0156,474.1152 Q25.2813,473.8496 25.4219,473.7715 Q25.5781,473.6934 25.7813,473.6934 Q26.1094,473.6934 26.3594,473.959 Q26.625,474.209 26.625,474.5527 Q26.625,474.8965 26.2813,475.3027 Q25.7813,475.8809 24.9844,476.209 Q23.9063,476.6621 22.6094,476.6621 Q21.0938,476.6621 19.8906,476.0371 Q18.9063,475.5371 18.2188,474.4746 Q17.5313,473.3965 17.5313,472.1152 L17.5313,470.959 Q17.5313,469.6309 18.1406,468.4902 Q18.7656,467.334 19.8594,466.7246 Q20.9531,466.0996 22.1875,466.0996 Q22.9219,466.0996 23.5625,466.2715 Q24.2188,466.4277 24.7656,466.7871 Z " fill="#000000"/><text fill="#000000" font-family="sans-serif" font-size="12" font-style="italic" lengthAdjust="spacing" textLength="43" x="52.5" y="466.5703">&#171;entity&#187;</text><text fill="#000000" font-family="sans-serif" font-size="14" lengthAdjust="spacing" textLength="76" x="36" y="484.6895">JobOpening</text><line style="stroke:#181818;stroke-width:0.5;" x1="8" x2="114" y1="493.2031" y2="493.2031"/><line style="stroke:#181818;stroke-width:0.5;" x1="8" x2="114" y1="501.2031" y2="501.2031"/></g><!--class InterviewModel--><g id="elem_InterviewModel"><rect codeLine="24" fill="#F1F1F1" height="60.582" id="InterviewModel" rx="2.5" ry="2.5" style="stroke:#181818;stroke-width:0.5;" width="125" x="333.5" y="448.6211"/><ellipse cx="348.5" cy="470.9121" fill="#ADD1B2" rx="11" ry="11" style="stroke:#181818;stroke-width:1.0;"/><path d="M351.2656,466.7871 Q351.4219,466.5684 351.6094,466.459 Q351.7969,466.3496 352.0156,466.3496 Q352.3906,466.3496 352.625,466.6152 Q352.8594,466.8652 352.8594,467.4746 L352.8594,468.9277 Q352.8594,469.5371 352.625,469.8027 Q352.3906,470.0684 352.0156,470.0684 Q351.6719,470.0684 351.4688,469.8652 Q351.2656,469.6777 351.1563,469.1621 Q351.1094,468.8027 350.9219,468.6152 Q350.5938,468.2402 349.9844,468.0215 Q349.375,467.8027 348.75,467.8027 Q347.9844,467.8027 347.3438,468.1309 Q346.7188,468.459 346.2188,469.209 Q345.7344,469.959 345.7344,470.9902 L345.7344,472.084 Q345.7344,473.3184 346.625,474.1465 Q347.5156,474.959 349.1094,474.959 Q350.0469,474.959 350.7031,474.709 Q351.0938,474.5527 351.5156,474.1152 Q351.7813,473.8496 351.9219,473.7715 Q352.0781,473.6934 352.2813,473.6934 Q352.6094,473.6934 352.8594,473.959 Q353.125,474.209 353.125,474.5527 Q353.125,474.8965 352.7813,475.3027 Q352.2813,475.8809 351.4844,476.209 Q350.4063,476.6621 349.1094,476.6621 Q347.5938,476.6621 346.3906,476.0371 Q345.4063,475.5371 344.7188,474.4746 Q344.0313,473.3965 344.0313,472.1152 L344.0313,470.959 Q344.0313,469.6309 344.6406,468.4902 Q345.2656,467.334 346.3594,466.7246 Q347.4531,466.0996 348.6875,466.0996 Q349.4219,466.0996 350.0625,466.2715 Q350.7188,466.4277 351.2656,466.7871 Z " fill="#000000"/><text fill="#000000" font-family="sans-serif" font-size="12" font-style="italic" lengthAdjust="spacing" textLength="43" x="387.5" y="466.5703">&#171;entity&#187;</text><text fill="#000000" font-family="sans-serif" font-size="14" lengthAdjust="spacing" textLength="93" x="362.5" y="484.6895">InterviewModel</text><line style="stroke:#181818;stroke-width:0.5;" x1="334.5" x2="457.5" y1="493.2031" y2="493.2031"/><line style="stroke:#181818;stroke-width:0.5;" x1="334.5" x2="457.5" y1="501.2031" y2="501.2031"/></g><!--link SelectInterviewModelUI to SelectInterviewModelController--><g id="link_SelectInterviewModelUI_SelectInterviewModelController"><path codeLine="26" d="M513,107.7811 C513,126.2411 513,143.9111 513,162.3811 " fill="none" id="SelectInterviewModelUI-to-SelectInterviewModelController" style="stroke:#181818;stroke-width:1.0;stroke-dasharray:7.0,7.0;"/><polygon fill="#181818" points="513,168.3811,517,159.3811,513,163.3811,509,159.3811,513,168.3811" style="stroke:#181818;stroke-width:1.0;"/></g><!--link SelectInterviewModelController to JobOpeningManagementService--><g id="link_SelectInterviewModelController_JobOpeningManagementService"><path codeLine="28" d="M526.52,229.7211 C537.14,253.0111 549.3869,279.8336 560.0169,303.1036 " fill="none" id="SelectInterviewModelController-to-JobOpeningManagementService" style="stroke:#181818;stroke-width:1.0;stroke-dasharray:7.0,7.0;"/><polygon fill="#181818" points="562.51,308.5611,562.4088,298.7128,560.4324,304.0132,555.1321,302.0368,562.51,308.5611" style="stroke:#181818;stroke-width:1.0;"/><polygon fill="#000000" points="555.0763,273.8151,553.9938,264.3664,548.6467,266.8072,555.0763,273.8151" style="stroke:#000000;stroke-width:1.0;"/><text fill="#000000" font-family="sans-serif" font-size="13" lengthAdjust="spacing" textLength="28" x="562" y="274.6494">uses</text></g><!--link SelectInterviewModelController to ListInterviewModelService--><g id="link_SelectInterviewModelController_ListInterviewModelService"><path codeLine="29" d="M580.36,229.7211 C633.34,253.0111 701.307,282.8771 754.257,306.1471 " fill="none" id="SelectInterviewModelController-to-ListInterviewModelService" style="stroke:#181818;stroke-width:1.0;stroke-dasharray:7.0,7.0;"/><polygon fill="#181818" points="759.75,308.5611,753.1199,301.2781,755.1725,306.5494,749.9012,308.6021,759.75,308.5611" style="stroke:#181818;stroke-width:1.0;"/><polygon fill="#000000" points="697.5774,271.2783,690.4792,264.9485,688.1143,270.3296,697.5774,271.2783" style="stroke:#000000;stroke-width:1.0;"/><text fill="#000000" font-family="sans-serif" font-size="13" lengthAdjust="spacing" textLength="28" x="702" y="274.6494">uses</text></g><!--link SelectInterviewModelController to InterviewModelRepository--><g id="link_SelectInterviewModelController_InterviewModelRepository"><path codeLine="31" d="M472.88,229.7211 C441.33,253.0111 402.4076,281.7282 370.8776,304.9982 " fill="none" id="SelectInterviewModelController-to-InterviewModelRepository" style="stroke:#181818;stroke-width:1.0;stroke-dasharray:7.0,7.0;"/><polygon fill="#181818" points="366.05,308.5611,375.6667,306.4351,370.073,305.592,370.9161,299.9983,366.05,308.5611" style="stroke:#181818;stroke-width:1.0;"/><polygon fill="#000000" points="430.9769,272.2356,439.9999,269.2293,436.5096,264.4999,430.9769,272.2356" style="stroke:#000000;stroke-width:1.0;"/><text fill="#000000" font-family="sans-serif" font-size="13" lengthAdjust="spacing" textLength="56" x="444" y="274.6494">accesses</text></g><!--link SelectInterviewModelController to JobOpeningRepository--><g id="link_SelectInterviewModelController_JobOpeningRepository"><path codeLine="32" d="M420.19,229.6211 C390.95,239.0511 358.58,249.6311 329,259.6211 C282.34,275.3811 236.0737,291.6022 194.0837,306.5222 " fill="none" id="SelectInterviewModelController-to-JobOpeningRepository" style="stroke:#181818;stroke-width:1.0;stroke-dasharray:7.0,7.0;"/><polygon fill="#181818" points="188.43,308.5311,198.2498,309.2869,193.1414,306.857,195.5713,301.7486,188.43,308.5311" style="stroke:#181818;stroke-width:1.0;"/><polygon fill="#000000" points="329.2663,270.8766,338.776,270.7465,336.8833,265.1817,329.2663,270.8766" style="stroke:#000000;stroke-width:1.0;"/><text fill="#000000" font-family="sans-serif" font-size="13" lengthAdjust="spacing" textLength="56" x="343" y="274.6494">accesses</text></g><!--reverse link InterviewModelRepository to RepositoryFactory--><g id="link_InterviewModelRepository_RepositoryFactory"><path codeLine="34" d="M300.5542,374.5466 C283.3442,397.8366 263.05,425.2911 245.85,448.5611 " fill="none" id="InterviewModelRepository-backto-RepositoryFactory" style="stroke:#181818;stroke-width:1.0;stroke-dasharray:7.0,7.0;"/><polygon fill="#181818" points="304.12,369.7211,295.5544,374.5821,301.1485,373.7423,301.9883,379.3365,304.12,369.7211" style="stroke:#181818;stroke-width:1.0;"/></g><!--reverse link JobOpeningRepository to RepositoryFactory--><g id="link_JobOpeningRepository_RepositoryFactory"><path codeLine="35" d="M164.0537,373.2326 C175.9937,381.7026 182.91,388.2911 192,399.6211 C203.42,413.8511 211.29,432.7111 216.36,448.3811 " fill="none" id="JobOpeningRepository-backto-RepositoryFactory" style="stroke:#181818;stroke-width:1.0;stroke-dasharray:7.0,7.0;"/><polygon fill="#181818" points="159.16,369.7611,164.1863,378.2309,163.2381,372.654,168.8149,371.7059,159.16,369.7611" style="stroke:#181818;stroke-width:1.0;"/></g><!--link JobOpeningRepository to JobOpening--><g id="link_JobOpeningRepository_JobOpening"><path codeLine="37" d="M83.96,369.6611 C78.16,378.8311 72.54,389.2611 69,399.6211 C63.69,415.1811 61.8882,427.408 61.1682,442.378 " fill="none" id="JobOpeningRepository-to-JobOpening" style="stroke:#181818;stroke-width:1.0;stroke-dasharray:7.0,7.0;"/><polygon fill="#181818" points="60.88,448.3711,65.3077,439.5736,61.1202,443.3769,57.317,439.1893,60.88,448.3711" style="stroke:#181818;stroke-width:1.0;"/><polygon fill="#000000" points="72.5046,414.0377,78.0142,406.2857,72.4054,404.5277,72.5046,414.0377" style="stroke:#000000;stroke-width:1.0;"/><text fill="#000000" font-family="sans-serif" font-size="13" lengthAdjust="spacing" textLength="104" x="83" y="414.6494">saves in database</text></g><!--link InterviewModelRepository to InterviewModel--><g id="link_InterviewModelRepository_InterviewModel"><path codeLine="39" d="M341.02,369.7211 C352.83,393.0111 366.4846,419.9407 378.2946,443.2107 " fill="none" id="InterviewModelRepository-to-InterviewModel" style="stroke:#181818;stroke-width:1.0;stroke-dasharray:7.0,7.0;"/><polygon fill="#181818" points="381.01,448.5611,380.5038,438.7253,378.7471,444.1025,373.37,442.3458,381.01,448.5611" style="stroke:#181818;stroke-width:1.0;"/><polygon fill="#000000" points="372.2617,413.7258,370.7913,404.3296,365.5492,406.9885,372.2617,413.7258" style="stroke:#000000;stroke-width:1.0;"/><text fill="#000000" font-family="sans-serif" font-size="13" lengthAdjust="spacing" textLength="104" x="379" y="414.6494">saves in database</text></g><!--SRC=[ZP71Ri8m38RlUGeVjyCGEmwXIbFH9AQXIQju01DCYGX95HiGU_gbOofqD8LR4d__xpysRuohCE0MAjGRBAcGeoK8f0LTQKbn0_0Qb_vWN0ahj4pgegGjCh-A1BFO2KsrTuNv9XWg9KQYNLxNOMAmhEc7VF88Jp3FXyylIlrgeI0RMqwTKDWREipyakny2kEngPzMg2dB-jZSEmdUMWfHevlBMVJk5vyLkHX_XYx-SqjEYjf0KrJmwNJ6Fmp_wz03jy4lgZmRyU4OsT1SkgBSHC_06-e_RdKwTVd5QloMaMCgMmj8p7mmo6wCk5jwiOBQec_W8zWnCMJt-AGtqRZSOvFSqGXGQ-AxytHkhsMYhhSss5Kz6PA2hbvATIPeHuk16FSnZN6mHC45CjN9abEu7b7AuWS0]--></g></svg>