<?xml version="1.0" encoding="us-ascii" standalone="no"?><svg xmlns="http://www.w3.org/2000/svg" xmlns:xlink="http://www.w3.org/1999/xlink" contentStyleType="text/css" height="4486px" preserveAspectRatio="none" style="width:916px;height:4486px;background:#FFFFFF;" version="1.1" viewBox="0 0 916 4486" width="916px" zoomAndPan="magnify"><defs/><g><text fill="#000000" font-family="sans-serif" font-size="14" font-weight="bold" lengthAdjust="spacing" textLength="127" x="387.5351" y="25.1074">Use Case Diagram</text><!--entity Admin--><g id="elem_Admin"><ellipse cx="66.5" cy="4301.1211" fill="#F1F1F1" rx="16" ry="16" style="stroke:#181818;stroke-width:0.5;"/><path d="M66.5,4321.1211 C70.5,4321.1211 73.5,4321.1211 77.5,4317.1211 C85.5,4317.1211 93.5,4325.1211 93.5,4333.1211 L93.5,4337.1211 C93.5,4341.1211 89.5,4345.1211 85.5,4345.1211 L47.5,4345.1211 C43.5,4345.1211 39.5,4341.1211 39.5,4337.1211 L39.5,4333.1211 C39.5,4325.1211 47.5,4317.1211 55.5,4317.1211 C59.5,4321.1211 62.5,4321.1211 66.5,4321.1211 " fill="#F1F1F1" style="stroke:#181818;stroke-width:0.5;"/><text fill="#000000" font-family="sans-serif" font-size="14" lengthAdjust="spacing" textLength="39" x="47" y="4360.7285">Admin</text></g><!--entity CustomerManager--><g id="elem_CustomerManager"><ellipse cx="66.5" cy="2720.1211" fill="#F1F1F1" rx="16" ry="16" style="stroke:#181818;stroke-width:0.5;"/><path d="M66.5,2740.1211 C70.5,2740.1211 73.5,2740.1211 77.5,2736.1211 C85.5,2736.1211 93.5,2744.1211 93.5,2752.1211 L93.5,2756.1211 C93.5,2760.1211 89.5,2764.1211 85.5,2764.1211 L47.5,2764.1211 C43.5,2764.1211 39.5,2760.1211 39.5,2756.1211 L39.5,2752.1211 C39.5,2744.1211 47.5,2736.1211 55.5,2736.1211 C59.5,2740.1211 62.5,2740.1211 66.5,2740.1211 " fill="#F1F1F1" style="stroke:#181818;stroke-width:0.5;"/><text fill="#000000" font-family="sans-serif" font-size="14" lengthAdjust="spacing" textLength="117" x="8" y="2779.7285">CustomerManager</text></g><!--entity Operator--><g id="elem_Operator"><ellipse cx="66.5" cy="1065.1211" fill="#F1F1F1" rx="16" ry="16" style="stroke:#181818;stroke-width:0.5;"/><path d="M66.5,1085.1211 C70.5,1085.1211 73.5,1085.1211 77.5,1081.1211 C85.5,1081.1211 93.5,1089.1211 93.5,1097.1211 L93.5,1101.1211 C93.5,1105.1211 89.5,1109.1211 85.5,1109.1211 L47.5,1109.1211 C43.5,1109.1211 39.5,1105.1211 39.5,1101.1211 L39.5,1097.1211 C39.5,1089.1211 47.5,1081.1211 55.5,1081.1211 C59.5,1085.1211 62.5,1085.1211 66.5,1085.1211 " fill="#F1F1F1" style="stroke:#181818;stroke-width:0.5;"/><text fill="#000000" font-family="sans-serif" font-size="14" lengthAdjust="spacing" textLength="57" x="38" y="1124.7285">Operator</text></g><!--entity LanguageEngineer--><g id="elem_LanguageEngineer"><ellipse cx="66.5" cy="613.1211" fill="#F1F1F1" rx="16" ry="16" style="stroke:#181818;stroke-width:0.5;"/><path d="M66.5,633.1211 C70.5,633.1211 73.5,633.1211 77.5,629.1211 C85.5,629.1211 93.5,637.1211 93.5,645.1211 L93.5,649.1211 C93.5,653.1211 89.5,657.1211 85.5,657.1211 L47.5,657.1211 C43.5,657.1211 39.5,653.1211 39.5,649.1211 L39.5,645.1211 C39.5,637.1211 47.5,629.1211 55.5,629.1211 C59.5,633.1211 62.5,633.1211 66.5,633.1211 " fill="#F1F1F1" style="stroke:#181818;stroke-width:0.5;"/><text fill="#000000" font-family="sans-serif" font-size="14" lengthAdjust="spacing" textLength="121" x="6" y="672.7285">LanguageEngineer</text></g><!--entity Customer--><g id="elem_Customer"><ellipse cx="66.5" cy="431.1211" fill="#F1F1F1" rx="16" ry="16" style="stroke:#181818;stroke-width:0.5;"/><path d="M66.5,451.1211 C70.5,451.1211 73.5,451.1211 77.5,447.1211 C85.5,447.1211 93.5,455.1211 93.5,463.1211 L93.5,467.1211 C93.5,471.1211 89.5,475.1211 85.5,475.1211 L47.5,475.1211 C43.5,475.1211 39.5,471.1211 39.5,467.1211 L39.5,463.1211 C39.5,455.1211 47.5,447.1211 55.5,447.1211 C59.5,451.1211 62.5,451.1211 66.5,451.1211 " fill="#F1F1F1" style="stroke:#181818;stroke-width:0.5;"/><text fill="#000000" font-family="sans-serif" font-size="14" lengthAdjust="spacing" textLength="61" x="36" y="490.7285">Customer</text></g><!--entity Candidate--><g id="elem_Candidate"><ellipse cx="66.5" cy="147.1211" fill="#F1F1F1" rx="16" ry="16" style="stroke:#181818;stroke-width:0.5;"/><path d="M66.5,167.1211 C70.5,167.1211 73.5,167.1211 77.5,163.1211 C85.5,163.1211 93.5,171.1211 93.5,179.1211 L93.5,183.1211 C93.5,187.1211 89.5,191.1211 85.5,191.1211 L47.5,191.1211 C43.5,191.1211 39.5,187.1211 39.5,183.1211 L39.5,179.1211 C39.5,171.1211 47.5,163.1211 55.5,163.1211 C59.5,167.1211 62.5,167.1211 66.5,167.1211 " fill="#F1F1F1" style="stroke:#181818;stroke-width:0.5;"/><text fill="#000000" font-family="sans-serif" font-size="14" lengthAdjust="spacing" textLength="65" x="34" y="206.7285">Candidate</text></g><g id="elem_UC001"><ellipse cx="548.328" cy="4191.7867" fill="#F1F1F1" rx="123.828" ry="27.1656" style="stroke:#181818;stroke-width:0.5;"/><text fill="#000000" font-family="sans-serif" font-size="14" lengthAdjust="spacing" textLength="211" x="442.828" y="4195.5836">UC001 - Register Backoffice User</text></g><g id="elem_UC002"><ellipse cx="548.6883" cy="4280.4588" fill="#F1F1F1" rx="119.6883" ry="26.3377" style="stroke:#181818;stroke-width:0.5;"/><text fill="#000000" font-family="sans-serif" font-size="14" lengthAdjust="spacing" textLength="202" x="447.6883" y="4284.2556">UC002 - Enable Backoffice User</text></g><g id="elem_UC003"><ellipse cx="548.5653" cy="4368.7341" fill="#F1F1F1" rx="121.0653" ry="26.6131" style="stroke:#181818;stroke-width:0.5;"/><text fill="#000000" font-family="sans-serif" font-size="14" lengthAdjust="spacing" textLength="205" x="446.0653" y="4372.531">UC003 - Disable Backoffice User</text></g><g id="elem_UC004"><ellipse cx="548.3518" cy="4455.5914" fill="#F1F1F1" rx="112.8518" ry="24.9704" style="stroke:#181818;stroke-width:0.5;"/><text fill="#000000" font-family="sans-serif" font-size="14" lengthAdjust="spacing" textLength="187" x="454.8518" y="4459.3883">UC004 - List Backoffice Users</text></g><g id="elem_UC005"><ellipse cx="548.5008" cy="1582.4212" fill="#F1F1F1" rx="107.0008" ry="23.8002" style="stroke:#181818;stroke-width:0.5;"/><text fill="#000000" font-family="sans-serif" font-size="14" lengthAdjust="spacing" textLength="174" x="461.5008" y="1586.2181">UC005 - Register Customer</text></g><g id="elem_UC006"><ellipse cx="548.5762" cy="1667.6363" fill="#F1F1F1" rx="115.5762" ry="25.5152" style="stroke:#181818;stroke-width:0.5;"/><text fill="#000000" font-family="sans-serif" font-size="14" lengthAdjust="spacing" textLength="193" x="452.0762" y="1671.4332">UC006 - Register Job Opening</text></g><g id="elem_UC007"><ellipse cx="548.2713" cy="1751.4754" fill="#F1F1F1" rx="104.7713" ry="23.3543" style="stroke:#181818;stroke-width:0.5;"/><text fill="#000000" font-family="sans-serif" font-size="14" lengthAdjust="spacing" textLength="169" x="463.7713" y="1755.2722">UC007 - List Job Openings</text></g><g id="elem_UC008"><ellipse cx="548.293" cy="719.7797" fill="#F1F1F1" rx="108.793" ry="24.1586" style="stroke:#181818;stroke-width:0.5;"/><text fill="#000000" font-family="sans-serif" font-size="14" lengthAdjust="spacing" textLength="178" x="459.293" y="723.5766">UC008 - Register Candidate</text></g><g id="elem_UC009"><ellipse cx="548.7232" cy="800.6657" fill="#F1F1F1" rx="98.2232" ry="22.0446" style="stroke:#181818;stroke-width:0.5;"/><text fill="#000000" font-family="sans-serif" font-size="14" lengthAdjust="spacing" textLength="154" x="470.0784" y="805.0491">UC009 - List Candidates</text></g><g id="elem_UC010"><ellipse cx="548.5578" cy="892.5327" fill="#F1F1F1" rx="160.0578" ry="34.4116" style="stroke:#181818;stroke-width:0.5;"/><text fill="#000000" font-family="sans-serif" font-size="14" lengthAdjust="spacing" textLength="288" x="404.5578" y="896.3295">UC010 - Process Files Produced by Email Bot</text></g><g id="elem_UC011"><ellipse cx="548.4862" cy="994.8183" fill="#F1F1F1" rx="151.4862" ry="32.6972" style="stroke:#181818;stroke-width:0.5;"/><text fill="#000000" font-family="sans-serif" font-size="14" lengthAdjust="spacing" textLength="270" x="413.4862" y="998.6152">UC011 - Import Files Imported by Email Bot</text></g><g id="elem_UC012"><ellipse cx="548.6883" cy="1088.4588" fill="#F1F1F1" rx="119.6883" ry="26.3377" style="stroke:#181818;stroke-width:0.5;"/><text fill="#000000" font-family="sans-serif" font-size="14" lengthAdjust="spacing" textLength="202" x="447.6883" y="1092.2556">UC012 - Register an Application</text></g><g id="elem_UC013"><ellipse cx="548.3622" cy="1183.7935" fill="#F1F1F1" rx="153.8622" ry="33.1724" style="stroke:#181818;stroke-width:0.5;"/><text fill="#000000" font-family="sans-serif" font-size="14" lengthAdjust="spacing" textLength="275" x="410.8622" y="1187.5904">UC013 - List Applications for a Job Opening</text></g><g id="elem_UC014"><ellipse cx="548.497" cy="1841.5205" fill="#F1F1F1" rx="142.497" ry="30.8994" style="stroke:#181818;stroke-width:0.5;"/><text fill="#000000" font-family="sans-serif" font-size="14" lengthAdjust="spacing" textLength="251" x="422.997" y="1845.3174">UC014 - List Candidate's Personal Data</text></g><g id="elem_UC015"><ellipse cx="548.4188" cy="1937.7049" fill="#F1F1F1" rx="135.9188" ry="29.5838" style="stroke:#181818;stroke-width:0.5;"/><text fill="#000000" font-family="sans-serif" font-size="14" lengthAdjust="spacing" textLength="237" x="429.9188" y="1941.5017">UC015 - List Candidate's Applications</text></g><g id="elem_UC016"><ellipse cx="548.72" cy="2034.4651" fill="#F1F1F1" rx="147.22" ry="31.844" style="stroke:#181818;stroke-width:0.5;"/><text fill="#000000" font-family="sans-serif" font-size="14" lengthAdjust="spacing" textLength="261" x="418.22" y="2038.262">UC016 - Setup Phases for a Job Opening</text></g><g id="elem_UC017"><ellipse cx="548.5539" cy="636.8319" fill="#F1F1F1" rx="106.5539" ry="23.7108" style="stroke:#181818;stroke-width:0.5;"/><text fill="#000000" font-family="sans-serif" font-size="14" lengthAdjust="spacing" textLength="173" x="462.0539" y="640.6287">UC017 - Configure a Plugin</text></g><g id="elem_UC018"><ellipse cx="548.5367" cy="2138.4284" fill="#F1F1F1" rx="172.0367" ry="36.8073" style="stroke:#181818;stroke-width:0.5;"/><text fill="#000000" font-family="sans-serif" font-size="14" lengthAdjust="spacing" textLength="313" x="392.0367" y="2142.2253">UC018 - Select Interview Model for a Job Opening</text></g><g id="elem_UC019"><ellipse cx="548.7235" cy="2249.5658" fill="#F1F1F1" rx="180.2235" ry="38.4447" style="stroke:#181818;stroke-width:0.5;"/><text fill="#000000" font-family="sans-serif" font-size="14" lengthAdjust="spacing" textLength="330" x="383.7235" y="2253.3627">UC019 - Select Job Requirements for a Job Opening</text></g><g id="elem_UC020"><ellipse cx="548.5772" cy="2365.5365" fill="#F1F1F1" rx="200.0772" ry="42.4154" style="stroke:#181818;stroke-width:0.5;"/><text fill="#000000" font-family="sans-serif" font-size="14" lengthAdjust="spacing" textLength="371" x="363.0772" y="2369.3334">UC020 - Generate Template Text File for a Interview Model</text></g><g id="elem_UC021"><ellipse cx="548.5394" cy="2489.629" fill="#F1F1F1" rx="220.5394" ry="46.5079" style="stroke:#181818;stroke-width:0.5;"/><text fill="#000000" font-family="sans-serif" font-size="14" lengthAdjust="spacing" textLength="413" x="342.0394" y="2493.4259">UC021 - Generate Template Text File for a Job Requirements Set</text></g><g id="elem_UC022"><ellipse cx="548.6952" cy="2605.4601" fill="#F1F1F1" rx="157.1952" ry="33.839" style="stroke:#181818;stroke-width:0.5;"/><text fill="#000000" font-family="sans-serif" font-size="14" lengthAdjust="spacing" textLength="282" x="407.6952" y="2609.257">UC022 - Rank Candidates for a Job Opening</text></g><g id="elem_UC023"><ellipse cx="548.3959" cy="2698.6003" fill="#F1F1F1" rx="107.8959" ry="23.9792" style="stroke:#181818;stroke-width:0.5;"/><text fill="#000000" font-family="sans-serif" font-size="14" lengthAdjust="spacing" textLength="176" x="460.3959" y="2702.3972">UC023 - Edit a Job Opening</text></g><g id="elem_UC024"><ellipse cx="548.642" cy="1276.5495" fill="#F1F1F1" rx="110.142" ry="24.4284" style="stroke:#181818;stroke-width:0.5;"/><text fill="#000000" font-family="sans-serif" font-size="14" lengthAdjust="spacing" textLength="181" x="458.142" y="1280.3464">UC024 - Enable a Candidate</text></g><g id="elem_UC025"><ellipse cx="548.495" cy="1360.8201" fill="#F1F1F1" rx="111.495" ry="24.699" style="stroke:#181818;stroke-width:0.5;"/><text fill="#000000" font-family="sans-serif" font-size="14" lengthAdjust="spacing" textLength="184" x="456.495" y="1364.617">UC025 - Disable a Candidate</text></g><g id="elem_UC026"><ellipse cx="548.4684" cy="2788.6148" fill="#F1F1F1" rx="142.9684" ry="30.9937" style="stroke:#181818;stroke-width:0.5;"/><text fill="#000000" font-family="sans-serif" font-size="14" lengthAdjust="spacing" textLength="252" x="422.4684" y="2792.4117">UC026 - Open Phase for a Job Opening</text></g><g id="elem_UC027"><ellipse cx="548.44" cy="2885.7091" fill="#F1F1F1" rx="143.44" ry="31.088" style="stroke:#181818;stroke-width:0.5;"/><text fill="#000000" font-family="sans-serif" font-size="14" lengthAdjust="spacing" textLength="253" x="421.94" y="2889.506">UC027 - Close Phase for a Job Opening</text></g><g id="elem_UC028"><ellipse cx="548.491" cy="2986.8193" fill="#F1F1F1" rx="161.491" ry="34.6982" style="stroke:#181818;stroke-width:0.5;"/><text fill="#000000" font-family="sans-serif" font-size="14" lengthAdjust="spacing" textLength="291" x="402.991" y="2990.6162">UC028 - Record Time and Date for a Interview</text></g><g id="elem_UC029"><ellipse cx="548.535" cy="3098.8281" fill="#F1F1F1" rx="201.535" ry="42.707" style="stroke:#181818;stroke-width:0.5;"/><text fill="#000000" font-family="sans-serif" font-size="14" lengthAdjust="spacing" textLength="374" x="361.535" y="3102.625">UC029 - Verify Application Requirements for a Job Opening</text></g><g id="elem_UC030"><ellipse cx="548.4472" cy="3211.5105" fill="#F1F1F1" rx="162.4472" ry="34.8894" style="stroke:#181818;stroke-width:0.5;"/><text fill="#000000" font-family="sans-serif" font-size="14" lengthAdjust="spacing" textLength="293" x="401.9472" y="3215.3074">UC030 - Notify Candidate of Application Status</text></g><g id="elem_UC031"><ellipse cx="548.4935" cy="3328.5198" fill="#F1F1F1" rx="222.4935" ry="46.8987" style="stroke:#181818;stroke-width:0.5;"/><text fill="#000000" font-family="sans-serif" font-size="14" lengthAdjust="spacing" textLength="417" x="339.9935" y="3332.3167">UC031 - Upload Text File with Candidate Responses to a Interview</text></g><g id="elem_UC032"><ellipse cx="548.5627" cy="3457.4336" fill="#F1F1F1" rx="219.5627" ry="46.3125" style="stroke:#181818;stroke-width:0.5;"/><text fill="#000000" font-family="sans-serif" font-size="14" lengthAdjust="spacing" textLength="411" x="343.0627" y="3461.2305">UC032 - Evaluate (assign a grade to) Interview for a Job Opening</text></g><g id="elem_UC033"><ellipse cx="548.455" cy="3591.7121" fill="#F1F1F1" rx="248.455" ry="52.091" style="stroke:#181818;stroke-width:0.5;"/><text fill="#000000" font-family="sans-serif" font-size="14" lengthAdjust="spacing" textLength="470" x="313.455" y="3595.509">UC033 - Get an Ordered List of Candidates with Grades for a Job Opening</text></g><g id="elem_UC034"><ellipse cx="548.5762" cy="3729.4363" fill="#F1F1F1" rx="242.0762" ry="50.8152" style="stroke:#181818;stroke-width:0.5;"/><text fill="#000000" font-family="sans-serif" font-size="14" lengthAdjust="spacing" textLength="457" x="320.0762" y="3733.2332">UC034 - Publish Results for a Selection of Candidates for a Job Opening</text></g><g id="elem_UC035"><ellipse cx="548.3726" cy="3859.4956" fill="#F1F1F1" rx="207.3726" ry="43.8745" style="stroke:#181818;stroke-width:0.5;"/><text fill="#000000" font-family="sans-serif" font-size="14" lengthAdjust="spacing" textLength="386" x="355.3726" y="3863.2925">UC035 - Notify Candidates and Customer of Interview Results</text></g><g id="elem_UC036"><ellipse cx="548.6668" cy="3970.6545" fill="#F1F1F1" rx="148.1668" ry="32.0334" style="stroke:#181818;stroke-width:0.5;"/><text fill="#000000" font-family="sans-serif" font-size="14" lengthAdjust="spacing" textLength="263" x="417.1668" y="3974.4513">UC036 - Display all Data of an Application</text></g><g id="elem_UC037"><ellipse cx="548.5101" cy="1471.6231" fill="#F1F1F1" rx="245.5101" ry="51.502" style="stroke:#181818;stroke-width:0.5;"/><text fill="#000000" font-family="sans-serif" font-size="14" lengthAdjust="spacing" textLength="464" x="316.5101" y="1475.42">UC037 - Upload a Text File with Candidate's Requirements for Verification</text></g><g id="elem_UC038"><ellipse cx="548.455" cy="103.8121" fill="#F1F1F1" rx="278.955" ry="58.191" style="stroke:#181818;stroke-width:0.5;"/><text fill="#000000" font-family="sans-serif" font-size="14" lengthAdjust="spacing" textLength="532" x="282.455" y="107.609">UC038 - List Candidate Applications and their State (including Number of Applicants)</text></g><g id="elem_UC039"><ellipse cx="548.3908" cy="237.4992" fill="#F1F1F1" rx="189.8908" ry="40.3782" style="stroke:#181818;stroke-width:0.5;"/><text fill="#000000" font-family="sans-serif" font-size="14" lengthAdjust="spacing" textLength="350" x="373.3908" y="241.2961">UC039 - Notify Candidate of Application Status' Change</text></g><g id="elem_UC040"><ellipse cx="548.5351" cy="387.8281" fill="#F1F1F1" rx="361.5351" ry="74.707" style="stroke:#181818;stroke-width:0.5;"/><text fill="#000000" font-family="sans-serif" font-size="14" lengthAdjust="spacing" textLength="699" x="199.0351" y="391.625">UC040 - List Customer Job Openings including Job Reference, Position, Active Since and Number of Applicants</text></g><g id="elem_UC041"><ellipse cx="548.4545" cy="537.612" fill="#F1F1F1" rx="187.9545" ry="39.9909" style="stroke:#181818;stroke-width:0.5;"/><text fill="#000000" font-family="sans-serif" font-size="14" lengthAdjust="spacing" textLength="346" x="375.4545" y="541.4089">UC041 - Notify Customer of Application Status' Change</text></g><g id="elem_UC042"><ellipse cx="548.5862" cy="4083.7383" fill="#F1F1F1" rx="218.5862" ry="46.1172" style="stroke:#181818;stroke-width:0.5;"/><text fill="#000000" font-family="sans-serif" font-size="14" lengthAdjust="spacing" textLength="409" x="344.0862" y="4087.5352">UC042 - Display Top 20 Words of Overall Applications' Text Files</text></g><!--link Admin to UC001--><g id="link_Admin_UC001"><path d="M94.45,4298.3911 C117.17,4277.9511 151.58,4250.7411 187,4236.6211 C262.28,4206.6011 346.8281,4195.6936 418.3381,4191.9636 " fill="none" id="Admin-to-UC001" style="stroke:#181818;stroke-width:1.0;"/><polygon fill="#181818" points="424.33,4191.6511,415.1339,4188.1253,419.3368,4191.9115,415.5506,4196.1145,424.33,4191.6511" style="stroke:#181818;stroke-width:1.0;"/></g><!--link Admin to UC002--><g id="link_Admin_UC002"><path d="M94.34,4322.1611 C158.85,4316.2511 319.605,4301.5085 431.815,4291.2285 " fill="none" id="Admin-to-UC002" style="stroke:#181818;stroke-width:1.0;"/><polygon fill="#181818" points="437.79,4290.6811,428.4626,4287.5189,432.8109,4291.1373,429.1925,4295.4855,437.79,4290.6811" style="stroke:#181818;stroke-width:1.0;"/></g><!--link Admin to UC003--><g id="link_Admin_UC003"><path d="M94.34,4327.0811 C158.6,4332.9711 318.3351,4347.6131 430.5251,4357.9031 " fill="none" id="Admin-to-UC003" style="stroke:#181818;stroke-width:1.0;"/><polygon fill="#181818" points="436.5,4358.4511,427.903,4353.6458,431.5209,4357.9944,427.1723,4361.6124,436.5,4358.4511" style="stroke:#181818;stroke-width:1.0;"/></g><!--link Admin to UC004--><g id="link_Admin_UC004"><path d="M94.43,4350.9011 C117.14,4371.3711 151.54,4398.5911 187,4412.6211 C266.27,4443.9811 356.404,4453.992 429.464,4456.662 " fill="none" id="Admin-to-UC004" style="stroke:#181818;stroke-width:1.0;"/><polygon fill="#181818" points="435.46,4456.8811,426.6121,4452.5551,430.4633,4456.6985,426.3199,4460.5497,435.46,4456.8811" style="stroke:#181818;stroke-width:1.0;"/></g><!--link CustomerManager to UC005--><g id="link_CustomerManager_UC005"><path d="M68.87,2703.4011 C75.77,2512.4111 109.45,1702.9211 187,1624.6211 C259.61,1551.3111 380.8917,1553.7428 463.1517,1565.6328 " fill="none" id="CustomerManager-to-UC005" style="stroke:#181818;stroke-width:1.0;"/><polygon fill="#181818" points="469.09,1566.4911,460.7548,1561.2447,464.1414,1565.7758,459.6103,1569.1625,469.09,1566.4911" style="stroke:#181818;stroke-width:1.0;"/></g><!--link CustomerManager to UC006--><g id="link_CustomerManager_UC006"><path d="M69.25,2703.5111 C77.54,2521.8811 115.52,1782.3611 187,1710.6211 C257.63,1639.7411 373.3393,1639.4634 455.5793,1650.0734 " fill="none" id="CustomerManager-to-UC006" style="stroke:#181818;stroke-width:1.0;"/><polygon fill="#181818" points="461.53,1650.8411,453.1158,1645.7224,456.5711,1650.2013,452.0922,1653.6566,461.53,1650.8411" style="stroke:#181818;stroke-width:1.0;"/></g><!--link CustomerManager to UC007--><g id="link_CustomerManager_UC007"><path d="M69.66,2703.5811 C79.35,2531.3011 121.17,1858.8511 187,1793.6211 C260.52,1720.7711 382.1608,1723.2593 464.1608,1735.0193 " fill="none" id="CustomerManager-to-UC007" style="stroke:#181818;stroke-width:1.0;"/><polygon fill="#181818" points="470.1,1735.8711,461.759,1730.6339,465.1506,1735.1613,460.6233,1738.5529,470.1,1735.8711" style="stroke:#181818;stroke-width:1.0;"/></g><!--link Operator to UC008--><g id="link_Operator_UC008"><path d="M69.28,1048.5311 C74.75,978.0511 96.98,832.6811 187,761.6211 C263.66,701.1111 373.6754,697.93 453.2554,705.27 " fill="none" id="Operator-to-UC008" style="stroke:#181818;stroke-width:1.0;"/><polygon fill="#181818" points="459.23,705.8211,450.6354,701.0114,454.2511,705.3619,449.9007,708.9776,459.23,705.8211" style="stroke:#181818;stroke-width:1.0;"/></g><!--link Operator to UC009--><g id="link_Operator_UC009"><path d="M74.48,1048.2311 C86.58,991.6111 117.18,890.0611 187,840.6211 C268.58,782.8511 381.6349,780.8049 460.2949,787.9949 " fill="none" id="Operator-to-UC009" style="stroke:#181818;stroke-width:1.0;"/><polygon fill="#181818" points="466.27,788.5411,457.6715,783.7385,461.2908,788.086,456.9433,791.7052,466.27,788.5411" style="stroke:#181818;stroke-width:1.0;"/></g><!--link Operator to UC010--><g id="link_Operator_UC010"><path d="M89.31,1048.5811 C109.87,1015.0011 143.92,968.7611 187,944.6211 C247.68,910.6211 316.7997,896.7265 382.7097,891.3765 " fill="none" id="Operator-to-UC010" style="stroke:#181818;stroke-width:1.0;"/><polygon fill="#181818" points="388.69,890.8911,379.3959,887.6324,383.7064,891.2956,380.0431,895.6061,388.69,890.8911" style="stroke:#181818;stroke-width:1.0;"/></g><!--link Operator to UC011--><g id="link_Operator_UC011"><path d="M95.45,1076.3811 C119.33,1066.4011 154.83,1052.6711 187,1044.6211 C258.87,1026.6311 334.569,1015.3139 401.969,1007.5939 " fill="none" id="Operator-to-UC011" style="stroke:#181818;stroke-width:1.0;"/><polygon fill="#181818" points="407.93,1006.9111,398.5333,1003.9612,402.9625,1007.4801,399.4436,1011.9093,407.93,1006.9111" style="stroke:#181818;stroke-width:1.0;"/></g><!--link Operator to UC012--><g id="link_Operator_UC012"><path d="M95.03,1088.6211 C158.33,1088.6211 311.33,1088.6211 422.87,1088.6211 " fill="none" id="Operator-to-UC012" style="stroke:#181818;stroke-width:1.0;"/><polygon fill="#181818" points="428.87,1088.6211,419.87,1084.6211,423.87,1088.6211,419.87,1092.6211,428.87,1088.6211" style="stroke:#181818;stroke-width:1.0;"/></g><!--link Operator to UC013--><g id="link_Operator_UC013"><path d="M95.46,1100.8411 C119.34,1110.8111 154.84,1124.5211 187,1132.6211 C258.41,1150.6011 333.5214,1162.0775 400.6814,1170.0075 " fill="none" id="Operator-to-UC013" style="stroke:#181818;stroke-width:1.0;"/><polygon fill="#181818" points="406.64,1170.7111,398.1711,1165.6833,401.6745,1170.1248,397.233,1173.6281,406.64,1170.7111" style="stroke:#181818;stroke-width:1.0;"/></g><!--link CustomerManager to UC014--><g id="link_CustomerManager_UC014"><path d="M67,2703.6111 C65.99,2550.7511 70.72,2006.4311 187,1890.6211 C249.43,1828.4411 344.8806,1819.125 424.2706,1823.845 " fill="none" id="CustomerManager-to-UC014" style="stroke:#181818;stroke-width:1.0;"/><polygon fill="#181818" points="430.26,1824.2011,421.5133,1819.674,425.2688,1823.9044,421.0385,1827.6599,430.26,1824.2011" style="stroke:#181818;stroke-width:1.0;"/></g><!--link CustomerManager to UC015--><g id="link_CustomerManager_UC015"><path d="M67.77,2703.2311 C69.62,2561.0311 83.57,2086.6011 187,1985.6211 C251.72,1922.4411 350.9049,1914.5088 430.9849,1920.1588 " fill="none" id="CustomerManager-to-UC015" style="stroke:#181818;stroke-width:1.0;"/><polygon fill="#181818" points="436.97,1920.5811,428.2738,1915.9576,431.9824,1920.2292,427.7108,1923.9378,436.97,1920.5811" style="stroke:#181818;stroke-width:1.0;"/></g><!--link CustomerManager to UC016--><g id="link_CustomerManager_UC016"><path d="M68.84,2703.1811 C74.03,2573.3811 97.22,2170.7511 187,2084.6211 C248.44,2025.6811 339.0846,2014.696 416.8546,2017.746 " fill="none" id="CustomerManager-to-UC016" style="stroke:#181818;stroke-width:1.0;"/><polygon fill="#181818" points="422.85,2017.9811,414.0137,2013.6315,417.8538,2017.7852,413.7002,2021.6253,422.85,2017.9811" style="stroke:#181818;stroke-width:1.0;"/></g><!--link LanguageEngineer to UC017--><g id="link_LanguageEngineer_UC017"><path d="M127.32,636.6211 C205.86,636.6211 339.05,636.6211 435.6,636.6211 " fill="none" id="LanguageEngineer-to-UC017" style="stroke:#181818;stroke-width:1.0;"/><polygon fill="#181818" points="441.6,636.6211,432.6,632.6211,436.6,636.6211,432.6,640.6211,441.6,636.6211" style="stroke:#181818;stroke-width:1.0;"/></g><!--link CustomerManager to UC018--><g id="link_CustomerManager_UC018"><path d="M70.44,2703.5311 C79.71,2588.9711 112.22,2263.8611 187,2193.6211 C240.18,2143.6611 312.5442,2127.766 382.6442,2125.136 " fill="none" id="CustomerManager-to-UC018" style="stroke:#181818;stroke-width:1.0;"/><polygon fill="#181818" points="388.64,2124.9111,379.4964,2121.2513,383.6435,2125.0986,379.7963,2129.2457,388.64,2124.9111" style="stroke:#181818;stroke-width:1.0;"/></g><!--link CustomerManager to UC019--><g id="link_CustomerManager_UC019"><path d="M72.87,2703.3811 C86.76,2605.5211 127.05,2359.1911 187,2305.6211 C237.89,2260.1511 303.8142,2243.4441 370.0442,2238.8741 " fill="none" id="CustomerManager-to-UC019" style="stroke:#181818;stroke-width:1.0;"/><polygon fill="#181818" points="376.03,2238.4611,366.776,2235.0901,371.0419,2238.8053,367.3267,2243.0711,376.03,2238.4611" style="stroke:#181818;stroke-width:1.0;"/></g><!--link CustomerManager to UC020--><g id="link_CustomerManager_UC020"><path d="M70.16,2703.4111 C76.99,2634.9011 101.24,2496.1311 187,2425.6211 C232.09,2388.5511 285.3884,2371.2064 342.7884,2363.1364 " fill="none" id="CustomerManager-to-UC020" style="stroke:#181818;stroke-width:1.0;"/><polygon fill="#181818" points="348.73,2362.3011,339.2608,2359.5931,343.7787,2362.9972,340.3745,2367.5151,348.73,2362.3011" style="stroke:#181818;stroke-width:1.0;"/></g><!--link CustomerManager to UC021--><g id="link_CustomerManager_UC021"><path d="M81.6,2703.3111 C99.17,2659.4011 133.55,2590.6211 187,2554.6211 C229.73,2525.8511 275.6205,2509.9172 326.4405,2500.0272 " fill="none" id="CustomerManager-to-UC021" style="stroke:#181818;stroke-width:1.0;"/><polygon fill="#181818" points="332.33,2498.8811,322.7316,2496.674,327.4221,2499.8362,324.2598,2504.5267,332.33,2498.8811" style="stroke:#181818;stroke-width:1.0;"/></g><!--link CustomerManager to UC022--><g id="link_CustomerManager_UC022"><path d="M112.35,2703.4411 C133.56,2686.6111 160.1,2668.4811 187,2657.6211 C251.94,2631.4111 322.2002,2618.7528 387.7802,2612.1428 " fill="none" id="CustomerManager-to-UC022" style="stroke:#181818;stroke-width:1.0;"/><polygon fill="#181818" points="393.75,2611.5411,384.3942,2608.4638,388.7752,2612.0425,385.1965,2616.4235,393.75,2611.5411" style="stroke:#181818;stroke-width:1.0;"/></g><!--link CustomerManager to UC023--><g id="link_CustomerManager_UC023"><path d="M125.4,2738.1911 C205.44,2730.6911 345.0562,2717.6012 442.5462,2708.4612 " fill="none" id="CustomerManager-to-UC023" style="stroke:#181818;stroke-width:1.0;"/><polygon fill="#181818" points="448.52,2707.9011,439.1859,2704.7587,443.5418,2708.3678,439.9327,2712.7237,448.52,2707.9011" style="stroke:#181818;stroke-width:1.0;"/></g><!--link Operator to UC024--><g id="link_Operator_UC024"><path d="M88.61,1128.8311 C108.93,1163.1211 143.03,1210.5711 187,1234.6211 C265.78,1277.7011 362.5608,1285.9302 438.2008,1284.6802 " fill="none" id="Operator-to-UC024" style="stroke:#181818;stroke-width:1.0;"/><polygon fill="#181818" points="444.2,1284.5811,435.1351,1280.7304,439.2007,1284.6637,435.2673,1288.7293,444.2,1284.5811" style="stroke:#181818;stroke-width:1.0;"/></g><!--link Operator to UC025--><g id="link_Operator_UC025"><path d="M76.12,1128.7911 C89.77,1181.8111 121.81,1273.6511 187,1318.6211 C264.16,1371.8411 367.3708,1377.7514 445.3308,1373.0614 " fill="none" id="Operator-to-UC025" style="stroke:#181818;stroke-width:1.0;"/><polygon fill="#181818" points="451.32,1372.7011,442.096,1369.2488,446.329,1373.0013,442.5764,1377.2343,451.32,1372.7011" style="stroke:#181818;stroke-width:1.0;"/></g><!--link CustomerManager to UC026--><g id="link_CustomerManager_UC026"><path d="M125.4,2749.0511 C197.21,2755.7811 315.8162,2766.9011 411.0762,2775.8311 " fill="none" id="CustomerManager-to-UC026" style="stroke:#181818;stroke-width:1.0;"/><polygon fill="#181818" points="417.05,2776.3911,408.4626,2771.5685,412.0718,2775.9244,407.7159,2779.5336,417.05,2776.3911" style="stroke:#181818;stroke-width:1.0;"/></g><!--link CustomerManager to UC027--><g id="link_CustomerManager_UC027"><path d="M107.06,2783.6311 C128.8,2803.1611 157.33,2825.1011 187,2837.6211 C255.35,2866.4711 330.9164,2878.5074 399.1564,2883.5674 " fill="none" id="CustomerManager-to-UC027" style="stroke:#181818;stroke-width:1.0;"/><polygon fill="#181818" points="405.14,2884.0111,396.4604,2879.3565,400.1537,2883.6414,395.8689,2887.3346,405.14,2884.0111" style="stroke:#181818;stroke-width:1.0;"/></g><!--link CustomerManager to UC028--><g id="link_CustomerManager_UC028"><path d="M80.94,2783.8911 C98.09,2828.5411 132.27,2898.9611 187,2934.6211 C246.07,2973.1111 316.0833,2987.5416 383.0633,2992.0116 " fill="none" id="CustomerManager-to-UC028" style="stroke:#181818;stroke-width:1.0;"/><polygon fill="#181818" points="389.05,2992.4111,380.3363,2987.8207,384.0611,2992.0782,379.8036,2995.8029,389.05,2992.4111" style="stroke:#181818;stroke-width:1.0;"/></g><!--link CustomerManager to UC029--><g id="link_CustomerManager_UC029"><path d="M71.5,2783.8311 C80.19,2848.4311 107,2974.5311 187,3038.6211 C231.94,3074.6211 284.3828,3091.7753 341.0228,3100.0353 " fill="none" id="CustomerManager-to-UC029" style="stroke:#181818;stroke-width:1.0;"/><polygon fill="#181818" points="346.96,3100.9011,338.6314,3095.6442,342.0123,3100.1796,337.477,3103.5605,346.96,3100.9011" style="stroke:#181818;stroke-width:1.0;"/></g><!--link CustomerManager to UC030--><g id="link_CustomerManager_UC030"><path d="M73.49,2783.8711 C88.34,2878.0711 129.84,3108.6711 187,3158.6211 C243.92,3208.3611 320.2617,3223.0795 391.8717,3224.7695 " fill="none" id="CustomerManager-to-UC030" style="stroke:#181818;stroke-width:1.0;"/><polygon fill="#181818" points="397.87,3224.9111,388.9669,3220.6999,392.8714,3224.7931,388.7781,3228.6976,397.87,3224.9111" style="stroke:#181818;stroke-width:1.0;"/></g><!--link CustomerManager to UC031--><g id="link_CustomerManager_UC031"><path d="M71.08,2783.8911 C81.72,2894.2811 116.91,3197.9311 187,3264.6211 C224.53,3300.3311 268.8109,3318.6426 319.7809,3328.5826 " fill="none" id="CustomerManager-to-UC031" style="stroke:#181818;stroke-width:1.0;"/><polygon fill="#181818" points="325.67,3329.7311,317.6021,3324.0824,320.7624,3328.774,316.0708,3331.9344,325.67,3329.7311" style="stroke:#181818;stroke-width:1.0;"/></g><!--link CustomerManager to UC032--><g id="link_CustomerManager_UC032"><path d="M69.08,2783.8311 C74.98,2911.9311 100.03,3307.1811 187,3393.6211 C224.87,3431.2611 270.7986,3450.0076 323.3586,3459.6576 " fill="none" id="CustomerManager-to-UC032" style="stroke:#181818;stroke-width:1.0;"/><polygon fill="#181818" points="329.26,3460.7411,321.1303,3455.1816,324.3422,3459.8382,319.6856,3463.0501,329.26,3460.7411" style="stroke:#181818;stroke-width:1.0;"/></g><!--link CustomerManager to UC033--><g id="link_CustomerManager_UC033"><path d="M67.81,2783.8511 C69.76,2927.8111 84.01,3414.4911 187,3521.6211 C217.82,3553.6811 252.8243,3571.8718 295.8543,3583.6918 " fill="none" id="CustomerManager-to-UC033" style="stroke:#181818;stroke-width:1.0;"/><polygon fill="#181818" points="301.64,3585.2811,294.021,3579.04,296.8186,3583.9567,291.9019,3586.7543,301.64,3585.2811" style="stroke:#181818;stroke-width:1.0;"/></g><!--link CustomerManager to UC034--><g id="link_CustomerManager_UC034"><path d="M69.99,2783.8911 C80.76,2952.6011 125.68,3596.7011 187,3661.6211 C218.82,3695.3011 255.844,3713.8564 300.884,3725.2764 " fill="none" id="CustomerManager-to-UC034" style="stroke:#181818;stroke-width:1.0;"/><polygon fill="#181818" points="306.7,3726.7511,298.9592,3720.6618,301.8534,3725.5222,296.993,3728.4164,306.7,3726.7511" style="stroke:#181818;stroke-width:1.0;"/></g><!--link CustomerManager to UC035--><g id="link_CustomerManager_UC035"><path d="M69.24,2783.8911 C77.55,2967.9511 115.84,3723.4511 187,3798.6211 C227.91,3841.8411 281.2505,3860.8041 339.9805,3868.4741 " fill="none" id="CustomerManager-to-UC035" style="stroke:#181818;stroke-width:1.0;"/><polygon fill="#181818" points="345.93,3869.2511,337.5238,3864.1193,340.9721,3868.6036,336.4878,3872.0519,345.93,3869.2511" style="stroke:#181818;stroke-width:1.0;"/></g><!--link CustomerManager to UC036--><g id="link_CustomerManager_UC036"><path d="M68.68,2783.9311 C74.84,2981.1311 106.15,3837.9711 187,3921.6211 C247.58,3984.2911 341.6105,3993.9967 420.9505,3989.2867 " fill="none" id="CustomerManager-to-UC036" style="stroke:#181818;stroke-width:1.0;"/><polygon fill="#181818" points="426.94,3988.9311,417.7188,3985.4715,421.9488,3989.2274,418.1929,3993.4574,426.94,3988.9311" style="stroke:#181818;stroke-width:1.0;"/></g><!--link Operator to UC037--><g id="link_Operator_UC037"><path d="M70.56,1128.6611 C77.99,1196.1911 103.11,1332.2311 187,1402.6211 C221.41,1431.5011 258.3964,1448.2173 302.3564,1459.4373 " fill="none" id="Operator-to-UC037" style="stroke:#181818;stroke-width:1.0;"/><polygon fill="#181818" points="308.17,1460.9211,300.4388,1454.8196,303.3253,1459.6846,298.4603,1462.5711,308.17,1460.9211" style="stroke:#181818;stroke-width:1.0;"/></g><!--link Candidate to UC038--><g id="link_Candidate_UC038"><path d="M99.37,166.1711 C144.54,159.8711 225.2776,148.6006 310.4576,136.7106 " fill="none" id="Candidate-to-UC038" style="stroke:#181818;stroke-width:1.0;"/><polygon fill="#181818" points="316.4,135.8811,306.9334,133.1637,311.448,136.5723,308.0394,141.0869,316.4,135.8811" style="stroke:#181818;stroke-width:1.0;"/></g><!--link Candidate to UC039--><g id="link_Candidate_UC039"><path d="M99.37,175.0711 C157.63,183.2011 278.9776,200.1415 383.0576,214.6715 " fill="none" id="Candidate-to-UC039" style="stroke:#181818;stroke-width:1.0;"/><polygon fill="#181818" points="389,215.5011,380.6395,210.2951,384.048,214.8098,379.5334,218.2183,389,215.5011" style="stroke:#181818;stroke-width:1.0;"/></g><!--link Customer to UC040--><g id="link_Customer_UC040"><path d="M97.16,450.4811 C130.02,445.8911 180.6976,438.8202 242.9076,430.1402 " fill="none" id="Customer-to-UC040" style="stroke:#181818;stroke-width:1.0;"/><polygon fill="#181818" points="248.85,429.3111,239.3836,426.5932,243.898,430.002,240.4891,434.5164,248.85,429.3111" style="stroke:#181818;stroke-width:1.0;"/></g><!--link Customer to UC041--><g id="link_Customer_UC041"><path d="M97.38,461.2811 C121.51,466.5511 156.36,473.9511 187,479.6211 C254.79,492.1611 324.1125,503.5814 388.2525,513.6414 " fill="none" id="Customer-to-UC041" style="stroke:#181818;stroke-width:1.0;"/><polygon fill="#181818" points="394.18,514.5711,385.9085,509.2249,389.2404,513.7963,384.6689,517.1282,394.18,514.5711" style="stroke:#181818;stroke-width:1.0;"/></g><!--link CustomerManager to UC042--><g id="link_CustomerManager_UC042"><path d="M68.41,2783.7811 C73.47,2990.3811 101.04,3927.5211 187,4020.6211 C224.39,4061.1211 271.9228,4080.4076 326.2428,4089.5276 " fill="none" id="CustomerManager-to-UC042" style="stroke:#181818;stroke-width:1.0;"/><polygon fill="#181818" points="332.16,4090.5211,323.9465,4085.0861,327.229,4089.6932,322.6219,4092.9757,332.16,4090.5211" style="stroke:#181818;stroke-width:1.0;"/></g><!--SRC=[bPTBRziu483l-XL4Bcc11Z19-NLP87MoHHTjO-InUwObsYOYargHIZR_VeUIDHOjCqulXaJE3EVnpL2spqgNeX8x8Z9dgWVtLaWYNgKrEvaKSks8CwHIcwqZkQfavfJHYLCEf2wUh2GB0JytIcp0n4MID4R8TRvJUl-ygAq3MzLFeSL6LllLkr9M0Xxshp-4tjImVQitIakKwdIxLw5pbGidawIsClCdFor68qg41MUQfojoBpVAEbcHho9xDkkroa3AokeYq66emq3dLeiL1FIk1aSD3XetofvNIL4b1PKVuDQnl0qLngWmxaVIfI4Kdg3mf2_ybrdvx6gbDw7y5EMddJSzsIDFPYWy2ppfAX1Apr5wtfb6oT0m7NMYy7H5bfN9fBNaJrL8wz_oEfCvMRsHsvrG1VbgNAYEjQQ-rjztfQdSNhjzULSRgqvPFogXoNLP5YeJdkvG1SjEUHTQJzQIDN0feacdY01D1vcvX8W10QD5GMw44w4cia37fpJxJeIAo0NrN3n8LvTakONTiyuY8TGJiZ1whJPr1UE0B8iQ6ZEKHaJeh3cdWE50lcj8w8kIh-IdoMLnxaG4XyuFDhpqlVotXd6pazgTSviXKimZzKrgFreaUPIxicWV_ciPsHiwyZ4qXe0n-Y5Z0sSXuQ55X8urq0dzt6kESx4XVipZTvihzvuqqiRImrGJaQvbI1WRzoPQL1ovOfuhVtwBrRaGa2hMK5KOMF-G8WB6sXcKcIedZse7FkhSTyoWeA4-miKyN7_BIgtV-dtpEv1nX8nxo7uPvurXfeXP1vOVd71rs9SSoUAUhAUoC2BluVIgtBPdy5xQ4beR287xDnOYHxPuSuszYABsof-4jMgZGG-kvLo2YSyzwiz4YiXntdI0y_Fnhifb1RErcKCGR8_Wnl5l_fopIKG-kUTpMQyAPRS-rBh02hH3m2SnFEQCQOIPZq_KnpR8TFUejtn8n_xuq1p2pYTjRq3tln5Hj9FQ6tZdqk28F9yUIYsYnOPnFa2nmVMaSMmBFXjS3E7Tv6DsMwcgXaV0Gkcig7F87VbLxrPj8lOQSExdy1ni7px_CF6NPB65JxbmSgJOE-a8FUvAqVy48GV_sh6w1kPq9h-GfR7A7_E5N0CRBv8yW6Wx1qv54XwFZPVINY0z5ZuQ1tPRodfGF9gImCtp3qmdwwtTlS2L0Q3qIt5vg3qubpJVn-Jgwe_s-_NedHszywFtD3dwfiQTSNHd4jsP9jstE2xDXalpmH8T3PVeS8aDbtZC5ngDZ4OZevFa-Cy3RasZIhFepZosmqRH7HhTOT4TFiWBIuTBqR1PjA0i6ZMBHisYKVDer3mQDOz6pQEbvz7IysWE-6IGC0x1uuJgrcOdrWu1TqlfQBWK3J5boVy0]--></g></svg>