<?xml version="1.0" encoding="us-ascii" standalone="no"?><svg xmlns="http://www.w3.org/2000/svg" xmlns:xlink="http://www.w3.org/1999/xlink" contentStyleType="text/css" height="502px" preserveAspectRatio="none" style="width:817px;height:502px;background:#FFFFFF;" version="1.1" viewBox="0 0 817 502" width="817px" zoomAndPan="magnify"><defs/><g><text fill="#000000" font-family="sans-serif" font-size="14" font-weight="bold" lengthAdjust="spacing" textLength="285" x="268.25" y="30.1074">System Sequence Diagram (SSD) - UC024</text><rect fill="#FFFFFF" height="268.3281" style="stroke:#181818;stroke-width:1.0;" width="10" x="31.5" y="133.2422"/><rect fill="#FFFFFF" height="75.582" style="stroke:#181818;stroke-width:1.0;" width="10" x="618.5" y="156.5332"/><rect fill="#FFFFFF" height="31.291" style="stroke:#181818;stroke-width:1.0;" width="10" x="618.5" y="263.4063"/><rect fill="#FFFFFF" height="75.582" style="stroke:#181818;stroke-width:1.0;" width="10" x="618.5" y="325.9883"/><line style="stroke:#181818;stroke-width:0.5;stroke-dasharray:5.0,5.0;" x1="36" x2="36" y1="123.2422" y2="419.5703"/><line style="stroke:#181818;stroke-width:0.5;stroke-dasharray:5.0,5.0;" x1="623.5" x2="623.5" y1="123.2422" y2="419.5703"/><text fill="#000000" font-family="sans-serif" font-size="14" lengthAdjust="spacing" textLength="57" x="5" y="119.7285">Operator</text><ellipse cx="36.5" cy="53.1211" fill="#E3E3E3" rx="8" ry="8" style="stroke:#181818;stroke-width:0.5;"/><path d="M36.5,61.1211 L36.5,88.1211 M23.5,69.1211 L49.5,69.1211 M36.5,88.1211 L23.5,103.1211 M36.5,88.1211 L49.5,103.1211 " fill="none" style="stroke:#181818;stroke-width:0.5;"/><text fill="#000000" font-family="sans-serif" font-size="14" lengthAdjust="spacing" textLength="57" x="5" y="433.6777">Operator</text><ellipse cx="36.5" cy="445.6914" fill="#E3E3E3" rx="8" ry="8" style="stroke:#181818;stroke-width:0.5;"/><path d="M36.5,453.6914 L36.5,480.6914 M23.5,461.6914 L49.5,461.6914 M36.5,480.6914 L23.5,495.6914 M36.5,480.6914 L49.5,495.6914 " fill="none" style="stroke:#181818;stroke-width:0.5;"/><rect fill="#E3E3E3" height="32.6211" rx="2.5" ry="2.5" style="stroke:#181818;stroke-width:0.5;" width="64" x="591.5" y="89.6211"/><text fill="#000000" font-family="sans-serif" font-size="14" lengthAdjust="spacing" textLength="50" x="598.5" y="111.7285">:System</text><rect fill="#E3E3E3" height="32.6211" rx="2.5" ry="2.5" style="stroke:#181818;stroke-width:0.5;" width="64" x="591.5" y="418.5703"/><text fill="#000000" font-family="sans-serif" font-size="14" lengthAdjust="spacing" textLength="50" x="598.5" y="440.6777">:System</text><rect fill="#FFFFFF" height="268.3281" style="stroke:#181818;stroke-width:1.0;" width="10" x="31.5" y="133.2422"/><rect fill="#FFFFFF" height="75.582" style="stroke:#181818;stroke-width:1.0;" width="10" x="618.5" y="156.5332"/><rect fill="#FFFFFF" height="31.291" style="stroke:#181818;stroke-width:1.0;" width="10" x="618.5" y="263.4063"/><rect fill="#FFFFFF" height="75.582" style="stroke:#181818;stroke-width:1.0;" width="10" x="618.5" y="325.9883"/><polygon fill="#181818" points="606.5,152.5332,616.5,156.5332,606.5,160.5332,610.5,156.5332" style="stroke:#181818;stroke-width:1.0;"/><line style="stroke:#181818;stroke-width:1.0;" x1="41.5" x2="612.5" y1="156.5332" y2="156.5332"/><text fill="#000000" font-family="sans-serif" font-size="13" lengthAdjust="spacing" textLength="31" x="48.5" y="151.2705">Login</text><line style="stroke:#181818;stroke-width:1.0;" x1="628.5" x2="670.5" y1="187.8242" y2="187.8242"/><line style="stroke:#181818;stroke-width:1.0;" x1="670.5" x2="670.5" y1="187.8242" y2="200.8242"/><line style="stroke:#181818;stroke-width:1.0;" x1="629.5" x2="670.5" y1="200.8242" y2="200.8242"/><polygon fill="#181818" points="639.5,196.8242,629.5,200.8242,639.5,204.8242,635.5,200.8242" style="stroke:#181818;stroke-width:1.0;"/><text fill="#000000" font-family="sans-serif" font-size="13" lengthAdjust="spacing" textLength="78" x="635.5" y="182.5615">Validate login</text><polygon fill="#181818" points="52.5,228.1152,42.5,232.1152,52.5,236.1152,48.5,232.1152" style="stroke:#181818;stroke-width:1.0;"/><line style="stroke:#181818;stroke-width:1.0;stroke-dasharray:2.0,2.0;" x1="46.5" x2="622.5" y1="232.1152" y2="232.1152"/><text fill="#000000" font-family="sans-serif" font-size="13" lengthAdjust="spacing" textLength="394" x="58.5" y="226.8525">Allow access to the backoffice application with operator permissions</text><polygon fill="#181818" points="606.5,259.4063,616.5,263.4063,606.5,267.4063,610.5,263.4063" style="stroke:#181818;stroke-width:1.0;"/><line style="stroke:#181818;stroke-width:1.0;" x1="41.5" x2="612.5" y1="263.4063" y2="263.4063"/><text fill="#000000" font-family="sans-serif" font-size="13" lengthAdjust="spacing" textLength="226" x="48.5" y="258.1436">Select the option to enable a candidate</text><polygon fill="#181818" points="52.5,290.6973,42.5,294.6973,52.5,298.6973,48.5,294.6973" style="stroke:#181818;stroke-width:1.0;"/><line style="stroke:#181818;stroke-width:1.0;stroke-dasharray:2.0,2.0;" x1="46.5" x2="622.5" y1="294.6973" y2="294.6973"/><text fill="#000000" font-family="sans-serif" font-size="13" lengthAdjust="spacing" textLength="431" x="58.5" y="289.4346">Show all inactive candidates and ask to select the candidate to be enabled</text><polygon fill="#181818" points="606.5,321.9883,616.5,325.9883,606.5,329.9883,610.5,325.9883" style="stroke:#181818;stroke-width:1.0;"/><line style="stroke:#181818;stroke-width:1.0;" x1="41.5" x2="612.5" y1="325.9883" y2="325.9883"/><text fill="#000000" font-family="sans-serif" font-size="13" lengthAdjust="spacing" textLength="179" x="48.5" y="320.7256">Select candidate to be enabled</text><line style="stroke:#181818;stroke-width:1.0;" x1="628.5" x2="670.5" y1="357.2793" y2="357.2793"/><line style="stroke:#181818;stroke-width:1.0;" x1="670.5" x2="670.5" y1="357.2793" y2="370.2793"/><line style="stroke:#181818;stroke-width:1.0;" x1="629.5" x2="670.5" y1="370.2793" y2="370.2793"/><polygon fill="#181818" points="639.5,366.2793,629.5,370.2793,639.5,374.2793,635.5,370.2793" style="stroke:#181818;stroke-width:1.0;"/><text fill="#000000" font-family="sans-serif" font-size="13" lengthAdjust="spacing" textLength="175" x="635.5" y="352.0166">Enable the selected candidate</text><polygon fill="#181818" points="47.5,397.5703,37.5,401.5703,47.5,405.5703,43.5,401.5703" style="stroke:#181818;stroke-width:1.0;"/><line style="stroke:#181818;stroke-width:1.0;stroke-dasharray:2.0,2.0;" x1="41.5" x2="622.5" y1="401.5703" y2="401.5703"/><text fill="#000000" font-family="sans-serif" font-size="13" lengthAdjust="spacing" textLength="553" x="53.5" y="396.3076">Inform that the candidate was enabled and allow the selected user access to the Candidate App</text><!--SRC=[dLAnJiCm4Dtp5ISc62eXnDG1gMePa90O8jYlpYKvrR6DxHBrxpaxQHjQg00lEVdUlNllnM73ng773Zfhh6gzxGYYtr8H3Xs7QeCDbN6d2JofYARHKq1eiR8zcmPgr86A8d8KQBaBaJeewNrBHX6i69i4loxBrGtCu7LvUtTVe8hMmuiZZwd008jqKmXrPCKEJOIh-S1rbTf3MQH1_i188nxav0fc3oDc3i-sOPDR1_H-7COpgfmClQ7cAa5rdZv32ZGlciD2QziBjQ8G85g8BS5Qqh9rpM8OdTEiCB8rq7DimUvTohVZ4AGHCdr5t-exyrEIblpp7kiohsmbWsk96q6XgRBotpa- -YZRP4DhO9Edw4WLG2g9VPCsXUFw0o3ThsaKKVt7pIMgF_osno6696xGITKaaGlkdqnjVIU3U6gjb-SsgXbYoF_xouPj87_o0fQ7-OLpFmGokHcUxoS0]--></g></svg>