<?xml version="1.0" encoding="us-ascii" standalone="no"?><svg xmlns="http://www.w3.org/2000/svg" xmlns:xlink="http://www.w3.org/1999/xlink" contentStyleType="text/css" height="639px" preserveAspectRatio="none" style="width:490px;height:639px;background:#FFFFFF;" version="1.1" viewBox="0 0 490 639" width="490px" zoomAndPan="magnify"><defs/><g><text fill="#000000" font-family="sans-serif" font-size="14" font-weight="bold" lengthAdjust="spacing" textLength="285" x="103.75" y="30.1074">System Sequence Diagram (SSD) - UC037</text><rect fill="#FFFFFF" height="413.7539" style="stroke:#181818;stroke-width:1.0;" width="10" x="56.5" y="133.2422"/><rect fill="#FFFFFF" height="31.291" style="stroke:#181818;stroke-width:1.0;" width="10" x="426.5" y="156.5332"/><rect fill="#FFFFFF" height="31.291" style="stroke:#181818;stroke-width:1.0;" width="10" x="426.5" y="219.1152"/><rect fill="#FFFFFF" height="265.2988" style="stroke:#181818;stroke-width:1.0;" width="10" x="426.5" y="281.6973"/><rect fill="none" height="242.2988" style="stroke:#000000;stroke-width:1.5;" width="473.5" x="10" y="296.6973"/><rect fill="none" height="129.7949" style="stroke:#000000;stroke-width:1.5;" width="453.5" x="20" y="354.2793"/><line style="stroke:#181818;stroke-width:0.5;stroke-dasharray:5.0,5.0;" x1="61" x2="61" y1="123.2422" y2="555.9961"/><line style="stroke:#181818;stroke-width:0.5;stroke-dasharray:5.0,5.0;" x1="431.5" x2="431.5" y1="123.2422" y2="555.9961"/><text fill="#000000" font-family="sans-serif" font-size="14" lengthAdjust="spacing" textLength="57" x="30" y="119.7285">Operator</text><ellipse cx="61.5" cy="53.1211" fill="#E3E3E3" rx="8" ry="8" style="stroke:#181818;stroke-width:0.5;"/><path d="M61.5,61.1211 L61.5,88.1211 M48.5,69.1211 L74.5,69.1211 M61.5,88.1211 L48.5,103.1211 M61.5,88.1211 L74.5,103.1211 " fill="none" style="stroke:#181818;stroke-width:0.5;"/><text fill="#000000" font-family="sans-serif" font-size="14" lengthAdjust="spacing" textLength="57" x="30" y="570.1035">Operator</text><ellipse cx="61.5" cy="582.1172" fill="#E3E3E3" rx="8" ry="8" style="stroke:#181818;stroke-width:0.5;"/><path d="M61.5,590.1172 L61.5,617.1172 M48.5,598.1172 L74.5,598.1172 M61.5,617.1172 L48.5,632.1172 M61.5,617.1172 L74.5,632.1172 " fill="none" style="stroke:#181818;stroke-width:0.5;"/><rect fill="#E3E3E3" height="32.6211" rx="2.5" ry="2.5" style="stroke:#181818;stroke-width:0.5;" width="64" x="399.5" y="89.6211"/><text fill="#000000" font-family="sans-serif" font-size="14" lengthAdjust="spacing" textLength="50" x="406.5" y="111.7285">:System</text><rect fill="#E3E3E3" height="32.6211" rx="2.5" ry="2.5" style="stroke:#181818;stroke-width:0.5;" width="64" x="399.5" y="554.9961"/><text fill="#000000" font-family="sans-serif" font-size="14" lengthAdjust="spacing" textLength="50" x="406.5" y="577.1035">:System</text><rect fill="#FFFFFF" height="413.7539" style="stroke:#181818;stroke-width:1.0;" width="10" x="56.5" y="133.2422"/><rect fill="#FFFFFF" height="31.291" style="stroke:#181818;stroke-width:1.0;" width="10" x="426.5" y="156.5332"/><rect fill="#FFFFFF" height="31.291" style="stroke:#181818;stroke-width:1.0;" width="10" x="426.5" y="219.1152"/><rect fill="#FFFFFF" height="265.2988" style="stroke:#181818;stroke-width:1.0;" width="10" x="426.5" y="281.6973"/><polygon fill="#181818" points="414.5,152.5332,424.5,156.5332,414.5,160.5332,418.5,156.5332" style="stroke:#181818;stroke-width:1.0;"/><line style="stroke:#181818;stroke-width:1.0;" x1="66.5" x2="420.5" y1="156.5332" y2="156.5332"/><text fill="#000000" font-family="sans-serif" font-size="13" lengthAdjust="spacing" textLength="263" x="73.5" y="151.2705">Select the import file with response candidate</text><polygon fill="#181818" points="77.5,183.8242,67.5,187.8242,77.5,191.8242,73.5,187.8242" style="stroke:#181818;stroke-width:1.0;"/><line style="stroke:#181818;stroke-width:1.0;stroke-dasharray:2.0,2.0;" x1="71.5" x2="430.5" y1="187.8242" y2="187.8242"/><text fill="#000000" font-family="sans-serif" font-size="13" lengthAdjust="spacing" textLength="150" x="83.5" y="182.5615">Show list of Job Openings</text><polygon fill="#181818" points="414.5,215.1152,424.5,219.1152,414.5,223.1152,418.5,219.1152" style="stroke:#181818;stroke-width:1.0;"/><line style="stroke:#181818;stroke-width:1.0;" x1="66.5" x2="420.5" y1="219.1152" y2="219.1152"/><text fill="#000000" font-family="sans-serif" font-size="13" lengthAdjust="spacing" textLength="188" x="73.5" y="213.8525">Selects one of the Job Openings</text><polygon fill="#181818" points="77.5,246.4063,67.5,250.4063,77.5,254.4063,73.5,250.4063" style="stroke:#181818;stroke-width:1.0;"/><line style="stroke:#181818;stroke-width:1.0;stroke-dasharray:2.0,2.0;" x1="71.5" x2="430.5" y1="250.4063" y2="250.4063"/><text fill="#000000" font-family="sans-serif" font-size="13" lengthAdjust="spacing" textLength="335" x="83.5" y="245.1436">Show list of Job Applications for the selected Job Opening</text><polygon fill="#181818" points="414.5,277.6973,424.5,281.6973,414.5,285.6973,418.5,281.6973" style="stroke:#181818;stroke-width:1.0;"/><line style="stroke:#181818;stroke-width:1.0;" x1="66.5" x2="420.5" y1="281.6973" y2="281.6973"/><text fill="#000000" font-family="sans-serif" font-size="13" lengthAdjust="spacing" textLength="204" x="73.5" y="276.4346">Selects one of the Job Applications</text><path d="M10,296.6973 L71,296.6973 L71,305.9883 L61,315.9883 L10,315.9883 L10,296.6973 " fill="#EEEEEE" style="stroke:#000000;stroke-width:1.5;"/><rect fill="none" height="242.2988" style="stroke:#000000;stroke-width:1.5;" width="473.5" x="10" y="296.6973"/><text fill="#000000" font-family="sans-serif" font-size="13" font-weight="bold" lengthAdjust="spacing" textLength="16" x="25" y="311.7256">alt</text><text fill="#000000" font-family="sans-serif" font-size="11" font-weight="bold" lengthAdjust="spacing" textLength="161" x="86" y="310.5674">[if file exported successfully]</text><polygon fill="#181818" points="77.5,335.2793,67.5,339.2793,77.5,343.2793,73.5,339.2793" style="stroke:#181818;stroke-width:1.0;"/><line style="stroke:#181818;stroke-width:1.0;stroke-dasharray:2.0,2.0;" x1="71.5" x2="425.5" y1="339.2793" y2="339.2793"/><text fill="#000000" font-family="sans-serif" font-size="13" lengthAdjust="spacing" textLength="210" x="83.5" y="334.0166">Display if you want to import the file.</text><path d="M20,354.2793 L81,354.2793 L81,363.5703 L71,373.5703 L20,373.5703 L20,354.2793 " fill="#EEEEEE" style="stroke:#000000;stroke-width:1.5;"/><rect fill="none" height="129.7949" style="stroke:#000000;stroke-width:1.5;" width="453.5" x="20" y="354.2793"/><text fill="#000000" font-family="sans-serif" font-size="13" font-weight="bold" lengthAdjust="spacing" textLength="16" x="35" y="369.3076">alt</text><text fill="#000000" font-family="sans-serif" font-size="11" font-weight="bold" lengthAdjust="spacing" textLength="97" x="96" y="368.1494">[if answer="Yes"]</text><polygon fill="#181818" points="414.5,392.8613,424.5,396.8613,414.5,400.8613,418.5,396.8613" style="stroke:#181818;stroke-width:1.0;"/><line style="stroke:#181818;stroke-width:1.0;" x1="66.5" x2="420.5" y1="396.8613" y2="396.8613"/><text fill="#000000" font-family="sans-serif" font-size="13" lengthAdjust="spacing" textLength="157" x="73.5" y="391.5986">Enter the file path to import</text><polygon fill="#181818" points="77.5,424.1523,67.5,428.1523,77.5,432.1523,73.5,428.1523" style="stroke:#181818;stroke-width:1.0;"/><line style="stroke:#181818;stroke-width:1.0;stroke-dasharray:2.0,2.0;" x1="71.5" x2="425.5" y1="428.1523" y2="428.1523"/><text fill="#000000" font-family="sans-serif" font-size="13" lengthAdjust="spacing" textLength="314" x="83.5" y="422.8896">Show message that the file was imported successfully</text><line style="stroke:#000000;stroke-width:1.0;stroke-dasharray:2.0,2.0;" x1="20" x2="473.5" y1="437.1523" y2="437.1523"/><text fill="#000000" font-family="sans-serif" font-size="11" font-weight="bold" lengthAdjust="spacing" textLength="90" x="25" y="449.0225">[if answer="No"]</text><polygon fill="#181818" points="77.5,472.0742,67.5,476.0742,77.5,480.0742,73.5,476.0742" style="stroke:#181818;stroke-width:1.0;"/><line style="stroke:#181818;stroke-width:1.0;stroke-dasharray:2.0,2.0;" x1="71.5" x2="425.5" y1="476.0742" y2="476.0742"/><text fill="#000000" font-family="sans-serif" font-size="13" lengthAdjust="spacing" textLength="336" x="83.5" y="470.8115">Show message that the file was not imported successfully</text><line style="stroke:#000000;stroke-width:1.0;stroke-dasharray:2.0,2.0;" x1="10" x2="483.5" y1="492.0742" y2="492.0742"/><text fill="#000000" font-family="sans-serif" font-size="11" font-weight="bold" lengthAdjust="spacing" textLength="182" x="15" y="503.9443">[if file not exported successfully]</text><polygon fill="#181818" points="77.5,526.9961,67.5,530.9961,77.5,534.9961,73.5,530.9961" style="stroke:#181818;stroke-width:1.0;"/><line style="stroke:#181818;stroke-width:1.0;stroke-dasharray:2.0,2.0;" x1="71.5" x2="425.5" y1="530.9961" y2="530.9961"/><text fill="#000000" font-family="sans-serif" font-size="13" lengthAdjust="spacing" textLength="173" x="83.5" y="525.7334">File not exported successfully</text><!--SRC=[bPC_ZzGm4CLxVufHAYWMdKI1j198Y3qA2YWY2ih1cMoiSsoJcH3oxHdlvX_7HdVdof9dVkyzZyqFBYJii8KsXcYRBhO4qlLaU3b9Q1_mJAMCdg0ZAnZEVbl03LPnSE4CDNecOyI9bfOZ2xLGqg-UWYKuEJpdybTbUNeD1_Z-wUxjEuDMOWVV4dMODyZBtYXTd7K9Wq1nlEAAN77TcjphVgFGsc8Cw5feXmzJxR4ahyv16WBNfjW9r4uz3auQpSGf1YQm62fNAV12MUYp74nh2dPG-gnqXBA90tZ70h66B_5dFWfw9tnfg-WcxOPHk3fbY84oAZl-3_SOzW9R7rFopg8uJGorIcS1lcXIjLLQukvuVw7_hUxIVpC7e1TmzNL0z2SFIvrnRoqnrxttezcDUtASF8wvVOmz3FdfI9n7dhrawfirmIo6WGVgtXS_Y8lrS2VYVH3g5ff-47r4Yye_tVipQJMC_Ygbu6fC3VE4UHnvOvdqasqzVut5aw9FQ8OeUxghRAYsChEB2oFttnxLxjk48tn-Jkkal5r_0G00]--></g></svg>