<?xml version="1.0" encoding="us-ascii" standalone="no"?><svg xmlns="http://www.w3.org/2000/svg" xmlns:xlink="http://www.w3.org/1999/xlink" contentStyleType="text/css" height="516px" preserveAspectRatio="none" style="width:962px;height:516px;background:#FFFFFF;" version="1.1" viewBox="0 0 962 516" width="962px" zoomAndPan="magnify"><defs/><g><text fill="#000000" font-family="sans-serif" font-size="14" font-weight="bold" lengthAdjust="spacing" textLength="190" x="379.25" y="25.1074">Class Diagram (CD) - UC018</text><!--class SelectJobRequirementsUI--><g id="elem_SelectJobRequirementsUI"><rect codeLine="8" fill="#F1F1F1" height="60.582" id="SelectJobRequirementsUI" rx="2.5" ry="2.5" style="stroke:#181818;stroke-width:0.5;" width="193" x="429.5" y="46.6211"/><ellipse cx="444.5" cy="68.9121" fill="#ADD1B2" rx="11" ry="11" style="stroke:#181818;stroke-width:1.0;"/><path d="M447.2656,64.7871 Q447.4219,64.5684 447.6094,64.459 Q447.7969,64.3496 448.0156,64.3496 Q448.3906,64.3496 448.625,64.6152 Q448.8594,64.8652 448.8594,65.4746 L448.8594,66.9277 Q448.8594,67.5371 448.625,67.8027 Q448.3906,68.0684 448.0156,68.0684 Q447.6719,68.0684 447.4688,67.8652 Q447.2656,67.6777 447.1563,67.1621 Q447.1094,66.8027 446.9219,66.6152 Q446.5938,66.2402 445.9844,66.0215 Q445.375,65.8027 444.75,65.8027 Q443.9844,65.8027 443.3438,66.1309 Q442.7188,66.459 442.2188,67.209 Q441.7344,67.959 441.7344,68.9902 L441.7344,70.084 Q441.7344,71.3184 442.625,72.1465 Q443.5156,72.959 445.1094,72.959 Q446.0469,72.959 446.7031,72.709 Q447.0938,72.5527 447.5156,72.1152 Q447.7813,71.8496 447.9219,71.7715 Q448.0781,71.6934 448.2813,71.6934 Q448.6094,71.6934 448.8594,71.959 Q449.125,72.209 449.125,72.5527 Q449.125,72.8965 448.7813,73.3027 Q448.2813,73.8809 447.4844,74.209 Q446.4063,74.6621 445.1094,74.6621 Q443.5938,74.6621 442.3906,74.0371 Q441.4063,73.5371 440.7188,72.4746 Q440.0313,71.3965 440.0313,70.1152 L440.0313,68.959 Q440.0313,67.6309 440.6406,66.4902 Q441.2656,65.334 442.3594,64.7246 Q443.4531,64.0996 444.6875,64.0996 Q445.4219,64.0996 446.0625,64.2715 Q446.7188,64.4277 447.2656,64.7871 Z " fill="#000000"/><text fill="#000000" font-family="sans-serif" font-size="12" font-style="italic" lengthAdjust="spacing" textLength="61" x="508.5" y="64.5703">&#171;interface&#187;</text><text fill="#000000" font-family="sans-serif" font-size="14" lengthAdjust="spacing" textLength="161" x="458.5" y="82.6895">SelectJobRequirementsUI</text><line style="stroke:#181818;stroke-width:0.5;" x1="430.5" x2="621.5" y1="91.2031" y2="91.2031"/><line style="stroke:#181818;stroke-width:0.5;" x1="430.5" x2="621.5" y1="99.2031" y2="99.2031"/></g><!--class SelectJobRequirementsController--><g id="elem_SelectJobRequirementsController"><rect codeLine="10" fill="#F1F1F1" height="60.582" id="SelectJobRequirementsController" rx="2.5" ry="2.5" style="stroke:#181818;stroke-width:0.5;" width="243" x="404.5" y="168.6211"/><ellipse cx="419.5" cy="190.9121" fill="#ADD1B2" rx="11" ry="11" style="stroke:#181818;stroke-width:1.0;"/><path d="M422.2656,186.7871 Q422.4219,186.5684 422.6094,186.459 Q422.7969,186.3496 423.0156,186.3496 Q423.3906,186.3496 423.625,186.6152 Q423.8594,186.8652 423.8594,187.4746 L423.8594,188.9277 Q423.8594,189.5371 423.625,189.8027 Q423.3906,190.0684 423.0156,190.0684 Q422.6719,190.0684 422.4688,189.8652 Q422.2656,189.6777 422.1563,189.1621 Q422.1094,188.8027 421.9219,188.6152 Q421.5938,188.2402 420.9844,188.0215 Q420.375,187.8027 419.75,187.8027 Q418.9844,187.8027 418.3438,188.1309 Q417.7188,188.459 417.2188,189.209 Q416.7344,189.959 416.7344,190.9902 L416.7344,192.084 Q416.7344,193.3184 417.625,194.1465 Q418.5156,194.959 420.1094,194.959 Q421.0469,194.959 421.7031,194.709 Q422.0938,194.5527 422.5156,194.1152 Q422.7813,193.8496 422.9219,193.7715 Q423.0781,193.6934 423.2813,193.6934 Q423.6094,193.6934 423.8594,193.959 Q424.125,194.209 424.125,194.5527 Q424.125,194.8965 423.7813,195.3027 Q423.2813,195.8809 422.4844,196.209 Q421.4063,196.6621 420.1094,196.6621 Q418.5938,196.6621 417.3906,196.0371 Q416.4063,195.5371 415.7188,194.4746 Q415.0313,193.3965 415.0313,192.1152 L415.0313,190.959 Q415.0313,189.6309 415.6406,188.4902 Q416.2656,187.334 417.3594,186.7246 Q418.4531,186.0996 419.6875,186.0996 Q420.4219,186.0996 421.0625,186.2715 Q421.7188,186.4277 422.2656,186.7871 Z " fill="#000000"/><text fill="#000000" font-family="sans-serif" font-size="12" font-style="italic" lengthAdjust="spacing" textLength="65" x="506.5" y="186.5703">&#171;controller&#187;</text><text fill="#000000" font-family="sans-serif" font-size="14" lengthAdjust="spacing" textLength="211" x="433.5" y="204.6895">SelectJobRequirementsController</text><line style="stroke:#181818;stroke-width:0.5;" x1="405.5" x2="646.5" y1="213.2031" y2="213.2031"/><line style="stroke:#181818;stroke-width:0.5;" x1="405.5" x2="646.5" y1="221.2031" y2="221.2031"/></g><!--class JobOpeningManagementService--><g id="elem_JobOpeningManagementService"><rect codeLine="12" fill="#F1F1F1" height="60.582" id="JobOpeningManagementService" rx="2.5" ry="2.5" style="stroke:#181818;stroke-width:0.5;" width="237" x="472.5" y="308.6211"/><ellipse cx="487.5" cy="330.9121" fill="#ADD1B2" rx="11" ry="11" style="stroke:#181818;stroke-width:1.0;"/><path d="M490.2656,326.7871 Q490.4219,326.5684 490.6094,326.459 Q490.7969,326.3496 491.0156,326.3496 Q491.3906,326.3496 491.625,326.6152 Q491.8594,326.8652 491.8594,327.4746 L491.8594,328.9277 Q491.8594,329.5371 491.625,329.8027 Q491.3906,330.0684 491.0156,330.0684 Q490.6719,330.0684 490.4688,329.8652 Q490.2656,329.6777 490.1563,329.1621 Q490.1094,328.8027 489.9219,328.6152 Q489.5938,328.2402 488.9844,328.0215 Q488.375,327.8027 487.75,327.8027 Q486.9844,327.8027 486.3438,328.1309 Q485.7188,328.459 485.2188,329.209 Q484.7344,329.959 484.7344,330.9902 L484.7344,332.084 Q484.7344,333.3184 485.625,334.1465 Q486.5156,334.959 488.1094,334.959 Q489.0469,334.959 489.7031,334.709 Q490.0938,334.5527 490.5156,334.1152 Q490.7813,333.8496 490.9219,333.7715 Q491.0781,333.6934 491.2813,333.6934 Q491.6094,333.6934 491.8594,333.959 Q492.125,334.209 492.125,334.5527 Q492.125,334.8965 491.7813,335.3027 Q491.2813,335.8809 490.4844,336.209 Q489.4063,336.6621 488.1094,336.6621 Q486.5938,336.6621 485.3906,336.0371 Q484.4063,335.5371 483.7188,334.4746 Q483.0313,333.3965 483.0313,332.1152 L483.0313,330.959 Q483.0313,329.6309 483.6406,328.4902 Q484.2656,327.334 485.3594,326.7246 Q486.4531,326.0996 487.6875,326.0996 Q488.4219,326.0996 489.0625,326.2715 Q489.7188,326.4277 490.2656,326.7871 Z " fill="#000000"/><text fill="#000000" font-family="sans-serif" font-size="12" font-style="italic" lengthAdjust="spacing" textLength="53" x="577.5" y="326.5703">&#171;service&#187;</text><text fill="#000000" font-family="sans-serif" font-size="14" lengthAdjust="spacing" textLength="205" x="501.5" y="344.6895">JobOpeningManagementService</text><line style="stroke:#181818;stroke-width:0.5;" x1="473.5" x2="708.5" y1="353.2031" y2="353.2031"/><line style="stroke:#181818;stroke-width:0.5;" x1="473.5" x2="708.5" y1="361.2031" y2="361.2031"/></g><!--class ListJobRequirementsService--><g id="elem_ListJobRequirementsService"><rect codeLine="14" fill="#F1F1F1" height="60.582" id="ListJobRequirementsService" rx="2.5" ry="2.5" style="stroke:#181818;stroke-width:0.5;" width="211" x="744.5" y="308.6211"/><ellipse cx="759.5" cy="330.9121" fill="#ADD1B2" rx="11" ry="11" style="stroke:#181818;stroke-width:1.0;"/><path d="M762.2656,326.7871 Q762.4219,326.5684 762.6094,326.459 Q762.7969,326.3496 763.0156,326.3496 Q763.3906,326.3496 763.625,326.6152 Q763.8594,326.8652 763.8594,327.4746 L763.8594,328.9277 Q763.8594,329.5371 763.625,329.8027 Q763.3906,330.0684 763.0156,330.0684 Q762.6719,330.0684 762.4688,329.8652 Q762.2656,329.6777 762.1563,329.1621 Q762.1094,328.8027 761.9219,328.6152 Q761.5938,328.2402 760.9844,328.0215 Q760.375,327.8027 759.75,327.8027 Q758.9844,327.8027 758.3438,328.1309 Q757.7188,328.459 757.2188,329.209 Q756.7344,329.959 756.7344,330.9902 L756.7344,332.084 Q756.7344,333.3184 757.625,334.1465 Q758.5156,334.959 760.1094,334.959 Q761.0469,334.959 761.7031,334.709 Q762.0938,334.5527 762.5156,334.1152 Q762.7813,333.8496 762.9219,333.7715 Q763.0781,333.6934 763.2813,333.6934 Q763.6094,333.6934 763.8594,333.959 Q764.125,334.209 764.125,334.5527 Q764.125,334.8965 763.7813,335.3027 Q763.2813,335.8809 762.4844,336.209 Q761.4063,336.6621 760.1094,336.6621 Q758.5938,336.6621 757.3906,336.0371 Q756.4063,335.5371 755.7188,334.4746 Q755.0313,333.3965 755.0313,332.1152 L755.0313,330.959 Q755.0313,329.6309 755.6406,328.4902 Q756.2656,327.334 757.3594,326.7246 Q758.4531,326.0996 759.6875,326.0996 Q760.4219,326.0996 761.0625,326.2715 Q761.7188,326.4277 762.2656,326.7871 Z " fill="#000000"/><text fill="#000000" font-family="sans-serif" font-size="12" font-style="italic" lengthAdjust="spacing" textLength="53" x="836.5" y="326.5703">&#171;service&#187;</text><text fill="#000000" font-family="sans-serif" font-size="14" lengthAdjust="spacing" textLength="179" x="773.5" y="344.6895">ListJobRequirementsService</text><line style="stroke:#181818;stroke-width:0.5;" x1="745.5" x2="954.5" y1="353.2031" y2="353.2031"/><line style="stroke:#181818;stroke-width:0.5;" x1="745.5" x2="954.5" y1="361.2031" y2="361.2031"/></g><!--class JobRequirementsRepository--><g id="elem_JobRequirementsRepository"><rect codeLine="16" fill="#F1F1F1" height="60.582" id="JobRequirementsRepository" rx="2.5" ry="2.5" style="stroke:#181818;stroke-width:0.5;" width="210" x="227" y="308.6211"/><ellipse cx="242" cy="330.9121" fill="#ADD1B2" rx="11" ry="11" style="stroke:#181818;stroke-width:1.0;"/><path d="M244.7656,326.7871 Q244.9219,326.5684 245.1094,326.459 Q245.2969,326.3496 245.5156,326.3496 Q245.8906,326.3496 246.125,326.6152 Q246.3594,326.8652 246.3594,327.4746 L246.3594,328.9277 Q246.3594,329.5371 246.125,329.8027 Q245.8906,330.0684 245.5156,330.0684 Q245.1719,330.0684 244.9688,329.8652 Q244.7656,329.6777 244.6563,329.1621 Q244.6094,328.8027 244.4219,328.6152 Q244.0938,328.2402 243.4844,328.0215 Q242.875,327.8027 242.25,327.8027 Q241.4844,327.8027 240.8438,328.1309 Q240.2188,328.459 239.7188,329.209 Q239.2344,329.959 239.2344,330.9902 L239.2344,332.084 Q239.2344,333.3184 240.125,334.1465 Q241.0156,334.959 242.6094,334.959 Q243.5469,334.959 244.2031,334.709 Q244.5938,334.5527 245.0156,334.1152 Q245.2813,333.8496 245.4219,333.7715 Q245.5781,333.6934 245.7813,333.6934 Q246.1094,333.6934 246.3594,333.959 Q246.625,334.209 246.625,334.5527 Q246.625,334.8965 246.2813,335.3027 Q245.7813,335.8809 244.9844,336.209 Q243.9063,336.6621 242.6094,336.6621 Q241.0938,336.6621 239.8906,336.0371 Q238.9063,335.5371 238.2188,334.4746 Q237.5313,333.3965 237.5313,332.1152 L237.5313,330.959 Q237.5313,329.6309 238.1406,328.4902 Q238.7656,327.334 239.8594,326.7246 Q240.9531,326.0996 242.1875,326.0996 Q242.9219,326.0996 243.5625,326.2715 Q244.2188,326.4277 244.7656,326.7871 Z " fill="#000000"/><text fill="#000000" font-family="sans-serif" font-size="12" font-style="italic" lengthAdjust="spacing" textLength="68" x="311" y="326.5703">&#171;repository&#187;</text><text fill="#000000" font-family="sans-serif" font-size="14" lengthAdjust="spacing" textLength="178" x="256" y="344.6895">JobRequirementsRepository</text><line style="stroke:#181818;stroke-width:0.5;" x1="228" x2="436" y1="353.2031" y2="353.2031"/><line style="stroke:#181818;stroke-width:0.5;" x1="228" x2="436" y1="361.2031" y2="361.2031"/></g><!--class JobOpeningRepository--><g id="elem_JobOpeningRepository"><rect codeLine="18" fill="#F1F1F1" height="60.582" id="JobOpeningRepository" rx="2.5" ry="2.5" style="stroke:#181818;stroke-width:0.5;" width="176" x="16" y="308.6211"/><ellipse cx="31" cy="330.9121" fill="#ADD1B2" rx="11" ry="11" style="stroke:#181818;stroke-width:1.0;"/><path d="M33.7656,326.7871 Q33.9219,326.5684 34.1094,326.459 Q34.2969,326.3496 34.5156,326.3496 Q34.8906,326.3496 35.125,326.6152 Q35.3594,326.8652 35.3594,327.4746 L35.3594,328.9277 Q35.3594,329.5371 35.125,329.8027 Q34.8906,330.0684 34.5156,330.0684 Q34.1719,330.0684 33.9688,329.8652 Q33.7656,329.6777 33.6563,329.1621 Q33.6094,328.8027 33.4219,328.6152 Q33.0938,328.2402 32.4844,328.0215 Q31.875,327.8027 31.25,327.8027 Q30.4844,327.8027 29.8438,328.1309 Q29.2188,328.459 28.7188,329.209 Q28.2344,329.959 28.2344,330.9902 L28.2344,332.084 Q28.2344,333.3184 29.125,334.1465 Q30.0156,334.959 31.6094,334.959 Q32.5469,334.959 33.2031,334.709 Q33.5938,334.5527 34.0156,334.1152 Q34.2813,333.8496 34.4219,333.7715 Q34.5781,333.6934 34.7813,333.6934 Q35.1094,333.6934 35.3594,333.959 Q35.625,334.209 35.625,334.5527 Q35.625,334.8965 35.2813,335.3027 Q34.7813,335.8809 33.9844,336.209 Q32.9063,336.6621 31.6094,336.6621 Q30.0938,336.6621 28.8906,336.0371 Q27.9063,335.5371 27.2188,334.4746 Q26.5313,333.3965 26.5313,332.1152 L26.5313,330.959 Q26.5313,329.6309 27.1406,328.4902 Q27.7656,327.334 28.8594,326.7246 Q29.9531,326.0996 31.1875,326.0996 Q31.9219,326.0996 32.5625,326.2715 Q33.2188,326.4277 33.7656,326.7871 Z " fill="#000000"/><text fill="#000000" font-family="sans-serif" font-size="12" font-style="italic" lengthAdjust="spacing" textLength="68" x="83" y="326.5703">&#171;repository&#187;</text><text fill="#000000" font-family="sans-serif" font-size="14" lengthAdjust="spacing" textLength="144" x="45" y="344.6895">JobOpeningRepository</text><line style="stroke:#181818;stroke-width:0.5;" x1="17" x2="191" y1="353.2031" y2="353.2031"/><line style="stroke:#181818;stroke-width:0.5;" x1="17" x2="191" y1="361.2031" y2="361.2031"/></g><!--class RepositoryFactory--><g id="elem_RepositoryFactory"><rect codeLine="20" fill="#F1F1F1" height="60.582" id="RepositoryFactory" rx="2.5" ry="2.5" style="stroke:#181818;stroke-width:0.5;" width="148" x="150" y="448.6211"/><ellipse cx="165" cy="470.9121" fill="#ADD1B2" rx="11" ry="11" style="stroke:#181818;stroke-width:1.0;"/><path d="M167.7656,466.7871 Q167.9219,466.5684 168.1094,466.459 Q168.2969,466.3496 168.5156,466.3496 Q168.8906,466.3496 169.125,466.6152 Q169.3594,466.8652 169.3594,467.4746 L169.3594,468.9277 Q169.3594,469.5371 169.125,469.8027 Q168.8906,470.0684 168.5156,470.0684 Q168.1719,470.0684 167.9688,469.8652 Q167.7656,469.6777 167.6563,469.1621 Q167.6094,468.8027 167.4219,468.6152 Q167.0938,468.2402 166.4844,468.0215 Q165.875,467.8027 165.25,467.8027 Q164.4844,467.8027 163.8438,468.1309 Q163.2188,468.459 162.7188,469.209 Q162.2344,469.959 162.2344,470.9902 L162.2344,472.084 Q162.2344,473.3184 163.125,474.1465 Q164.0156,474.959 165.6094,474.959 Q166.5469,474.959 167.2031,474.709 Q167.5938,474.5527 168.0156,474.1152 Q168.2813,473.8496 168.4219,473.7715 Q168.5781,473.6934 168.7813,473.6934 Q169.1094,473.6934 169.3594,473.959 Q169.625,474.209 169.625,474.5527 Q169.625,474.8965 169.2813,475.3027 Q168.7813,475.8809 167.9844,476.209 Q166.9063,476.6621 165.6094,476.6621 Q164.0938,476.6621 162.8906,476.0371 Q161.9063,475.5371 161.2188,474.4746 Q160.5313,473.3965 160.5313,472.1152 L160.5313,470.959 Q160.5313,469.6309 161.1406,468.4902 Q161.7656,467.334 162.8594,466.7246 Q163.9531,466.0996 165.1875,466.0996 Q165.9219,466.0996 166.5625,466.2715 Q167.2188,466.4277 167.7656,466.7871 Z " fill="#000000"/><text fill="#000000" font-family="sans-serif" font-size="12" font-style="italic" lengthAdjust="spacing" textLength="50" x="212" y="466.5703">&#171;factory&#187;</text><text fill="#000000" font-family="sans-serif" font-size="14" lengthAdjust="spacing" textLength="116" x="179" y="484.6895">RepositoryFactory</text><line style="stroke:#181818;stroke-width:0.5;" x1="151" x2="297" y1="493.2031" y2="493.2031"/><line style="stroke:#181818;stroke-width:0.5;" x1="151" x2="297" y1="501.2031" y2="501.2031"/></g><!--class JobOpening--><g id="elem_JobOpening"><rect codeLine="22" fill="#F1F1F1" height="60.582" id="JobOpening" rx="2.5" ry="2.5" style="stroke:#181818;stroke-width:0.5;" width="108" x="7" y="448.6211"/><ellipse cx="22" cy="470.9121" fill="#ADD1B2" rx="11" ry="11" style="stroke:#181818;stroke-width:1.0;"/><path d="M24.7656,466.7871 Q24.9219,466.5684 25.1094,466.459 Q25.2969,466.3496 25.5156,466.3496 Q25.8906,466.3496 26.125,466.6152 Q26.3594,466.8652 26.3594,467.4746 L26.3594,468.9277 Q26.3594,469.5371 26.125,469.8027 Q25.8906,470.0684 25.5156,470.0684 Q25.1719,470.0684 24.9688,469.8652 Q24.7656,469.6777 24.6563,469.1621 Q24.6094,468.8027 24.4219,468.6152 Q24.0938,468.2402 23.4844,468.0215 Q22.875,467.8027 22.25,467.8027 Q21.4844,467.8027 20.8438,468.1309 Q20.2188,468.459 19.7188,469.209 Q19.2344,469.959 19.2344,470.9902 L19.2344,472.084 Q19.2344,473.3184 20.125,474.1465 Q21.0156,474.959 22.6094,474.959 Q23.5469,474.959 24.2031,474.709 Q24.5938,474.5527 25.0156,474.1152 Q25.2813,473.8496 25.4219,473.7715 Q25.5781,473.6934 25.7813,473.6934 Q26.1094,473.6934 26.3594,473.959 Q26.625,474.209 26.625,474.5527 Q26.625,474.8965 26.2813,475.3027 Q25.7813,475.8809 24.9844,476.209 Q23.9063,476.6621 22.6094,476.6621 Q21.0938,476.6621 19.8906,476.0371 Q18.9063,475.5371 18.2188,474.4746 Q17.5313,473.3965 17.5313,472.1152 L17.5313,470.959 Q17.5313,469.6309 18.1406,468.4902 Q18.7656,467.334 19.8594,466.7246 Q20.9531,466.0996 22.1875,466.0996 Q22.9219,466.0996 23.5625,466.2715 Q24.2188,466.4277 24.7656,466.7871 Z " fill="#000000"/><text fill="#000000" font-family="sans-serif" font-size="12" font-style="italic" lengthAdjust="spacing" textLength="43" x="52.5" y="466.5703">&#171;entity&#187;</text><text fill="#000000" font-family="sans-serif" font-size="14" lengthAdjust="spacing" textLength="76" x="36" y="484.6895">JobOpening</text><line style="stroke:#181818;stroke-width:0.5;" x1="8" x2="114" y1="493.2031" y2="493.2031"/><line style="stroke:#181818;stroke-width:0.5;" x1="8" x2="114" y1="501.2031" y2="501.2031"/></g><!--class JobRequirements--><g id="elem_JobRequirements"><rect codeLine="24" fill="#F1F1F1" height="60.582" id="JobRequirements" rx="2.5" ry="2.5" style="stroke:#181818;stroke-width:0.5;" width="142" x="333" y="448.6211"/><ellipse cx="348" cy="470.9121" fill="#ADD1B2" rx="11" ry="11" style="stroke:#181818;stroke-width:1.0;"/><path d="M350.7656,466.7871 Q350.9219,466.5684 351.1094,466.459 Q351.2969,466.3496 351.5156,466.3496 Q351.8906,466.3496 352.125,466.6152 Q352.3594,466.8652 352.3594,467.4746 L352.3594,468.9277 Q352.3594,469.5371 352.125,469.8027 Q351.8906,470.0684 351.5156,470.0684 Q351.1719,470.0684 350.9688,469.8652 Q350.7656,469.6777 350.6563,469.1621 Q350.6094,468.8027 350.4219,468.6152 Q350.0938,468.2402 349.4844,468.0215 Q348.875,467.8027 348.25,467.8027 Q347.4844,467.8027 346.8438,468.1309 Q346.2188,468.459 345.7188,469.209 Q345.2344,469.959 345.2344,470.9902 L345.2344,472.084 Q345.2344,473.3184 346.125,474.1465 Q347.0156,474.959 348.6094,474.959 Q349.5469,474.959 350.2031,474.709 Q350.5938,474.5527 351.0156,474.1152 Q351.2813,473.8496 351.4219,473.7715 Q351.5781,473.6934 351.7813,473.6934 Q352.1094,473.6934 352.3594,473.959 Q352.625,474.209 352.625,474.5527 Q352.625,474.8965 352.2813,475.3027 Q351.7813,475.8809 350.9844,476.209 Q349.9063,476.6621 348.6094,476.6621 Q347.0938,476.6621 345.8906,476.0371 Q344.9063,475.5371 344.2188,474.4746 Q343.5313,473.3965 343.5313,472.1152 L343.5313,470.959 Q343.5313,469.6309 344.1406,468.4902 Q344.7656,467.334 345.8594,466.7246 Q346.9531,466.0996 348.1875,466.0996 Q348.9219,466.0996 349.5625,466.2715 Q350.2188,466.4277 350.7656,466.7871 Z " fill="#000000"/><text fill="#000000" font-family="sans-serif" font-size="12" font-style="italic" lengthAdjust="spacing" textLength="43" x="395.5" y="466.5703">&#171;entity&#187;</text><text fill="#000000" font-family="sans-serif" font-size="14" lengthAdjust="spacing" textLength="110" x="362" y="484.6895">JobRequirements</text><line style="stroke:#181818;stroke-width:0.5;" x1="334" x2="474" y1="493.2031" y2="493.2031"/><line style="stroke:#181818;stroke-width:0.5;" x1="334" x2="474" y1="501.2031" y2="501.2031"/></g><!--link SelectJobRequirementsUI to SelectJobRequirementsController--><g id="link_SelectJobRequirementsUI_SelectJobRequirementsController"><path codeLine="26" d="M526,107.7811 C526,126.2411 526,143.9111 526,162.3811 " fill="none" id="SelectJobRequirementsUI-to-SelectJobRequirementsController" style="stroke:#181818;stroke-width:1.0;stroke-dasharray:7.0,7.0;"/><polygon fill="#181818" points="526,168.3811,530,159.3811,526,163.3811,522,159.3811,526,168.3811" style="stroke:#181818;stroke-width:1.0;"/></g><!--link SelectJobRequirementsController to JobOpeningManagementService--><g id="link_SelectJobRequirementsController_JobOpeningManagementService"><path codeLine="28" d="M539.94,229.7211 C550.91,253.0111 563.5634,279.863 574.5234,303.133 " fill="none" id="SelectJobRequirementsController-to-JobOpeningManagementService" style="stroke:#181818;stroke-width:1.0;stroke-dasharray:7.0,7.0;"/><polygon fill="#181818" points="577.08,308.5611,576.8638,298.7146,574.9495,304.0377,569.6264,302.1234,577.08,308.5611" style="stroke:#181818;stroke-width:1.0;"/><polygon fill="#000000" points="569.1308,273.7898,567.9348,264.3548,562.6174,266.8597,569.1308,273.7898" style="stroke:#000000;stroke-width:1.0;"/><text fill="#000000" font-family="sans-serif" font-size="13" lengthAdjust="spacing" textLength="28" x="576" y="274.6494">uses</text></g><!--link SelectJobRequirementsController to ListJobRequirementsService--><g id="link_SelectJobRequirementsController_ListJobRequirementsService"><path codeLine="29" d="M595.51,229.7211 C650.17,253.0111 720.4498,282.9401 775.0898,306.2101 " fill="none" id="SelectJobRequirementsController-to-ListJobRequirementsService" style="stroke:#181818;stroke-width:1.0;stroke-dasharray:7.0,7.0;"/><polygon fill="#181818" points="780.61,308.5611,773.8969,301.3545,776.0098,306.602,770.7623,308.7148,780.61,308.5611" style="stroke:#181818;stroke-width:1.0;"/><polygon fill="#000000" points="716.6001,271.2259,709.4301,264.9776,707.1268,270.3853,716.6001,271.2259" style="stroke:#000000;stroke-width:1.0;"/><text fill="#000000" font-family="sans-serif" font-size="13" lengthAdjust="spacing" textLength="28" x="721" y="274.6494">uses</text></g><!--link SelectJobRequirementsController to JobRequirementsRepository--><g id="link_SelectJobRequirementsController_JobRequirementsRepository"><path codeLine="31" d="M484.38,229.7211 C451.65,253.0111 411.1491,281.813 378.4391,305.083 " fill="none" id="SelectJobRequirementsController-to-JobRequirementsRepository" style="stroke:#181818;stroke-width:1.0;stroke-dasharray:7.0,7.0;"/><polygon fill="#181818" points="373.55,308.5611,383.2023,306.6033,377.6242,305.6627,378.5649,300.0846,373.55,308.5611" style="stroke:#181818;stroke-width:1.0;"/><polygon fill="#000000" points="440.9257,272.1649,449.9997,269.3167,446.5926,264.527,440.9257,272.1649" style="stroke:#000000;stroke-width:1.0;"/><text fill="#000000" font-family="sans-serif" font-size="13" lengthAdjust="spacing" textLength="56" x="454" y="274.6494">accesses</text></g><!--link SelectJobRequirementsController to JobOpeningRepository--><g id="link_SelectJobRequirementsController_JobOpeningRepository"><path codeLine="32" d="M431.22,229.7711 C401.36,239.2011 368.27,249.7511 338,259.6211 C289.21,275.5211 240.5546,291.8013 196.5246,306.6713 " fill="none" id="SelectJobRequirementsController-to-JobOpeningRepository" style="stroke:#181818;stroke-width:1.0;stroke-dasharray:7.0,7.0;"/><polygon fill="#181818" points="190.84,308.5911,200.6467,309.5011,195.5771,306.9912,198.087,301.9217,190.84,308.5911" style="stroke:#181818;stroke-width:1.0;"/><polygon fill="#000000" points="338.2486,270.8235,347.7591,270.7999,345.9289,265.2143,338.2486,270.8235" style="stroke:#000000;stroke-width:1.0;"/><text fill="#000000" font-family="sans-serif" font-size="13" lengthAdjust="spacing" textLength="56" x="352" y="274.6494">accesses</text></g><!--reverse link JobRequirementsRepository to RepositoryFactory--><g id="link_JobRequirementsRepository_RepositoryFactory"><path codeLine="34" d="M305.133,374.4468 C286.913,397.7368 265.34,425.2911 247.13,448.5611 " fill="none" id="JobRequirementsRepository-backto-RepositoryFactory" style="stroke:#181818;stroke-width:1.0;stroke-dasharray:7.0,7.0;"/><polygon fill="#181818" points="308.83,369.7211,300.1341,374.345,305.7492,373.6592,306.435,379.2743,308.83,369.7211" style="stroke:#181818;stroke-width:1.0;"/></g><!--reverse link JobOpeningRepository to RepositoryFactory--><g id="link_JobOpeningRepository_RepositoryFactory"><path codeLine="35" d="M163.7896,373.3258 C175.8496,381.7458 182.82,388.3111 192,399.6211 C203.5,413.7911 211.37,432.6511 216.42,448.3311 " fill="none" id="JobOpeningRepository-backto-RepositoryFactory" style="stroke:#181818;stroke-width:1.0;stroke-dasharray:7.0,7.0;"/><polygon fill="#181818" points="158.87,369.8911,163.9596,378.323,162.9697,372.7534,168.5392,371.7635,158.87,369.8911" style="stroke:#181818;stroke-width:1.0;"/></g><!--link JobOpeningRepository to JobOpening--><g id="link_JobOpeningRepository_JobOpening"><path codeLine="37" d="M83.17,369.8011 C77.68,378.9711 72.36,389.3711 69,399.6211 C63.88,415.2411 62.1046,427.4788 61.3446,442.4288 " fill="none" id="JobOpeningRepository-to-JobOpening" style="stroke:#181818;stroke-width:1.0;stroke-dasharray:7.0,7.0;"/><polygon fill="#181818" points="61.04,448.4211,65.4918,439.6358,61.2939,443.4275,57.5021,439.2296,61.04,448.4211" style="stroke:#181818;stroke-width:1.0;"/><polygon fill="#000000" points="72.561,414.0551,77.9787,406.2385,72.3496,404.5468,72.561,414.0551" style="stroke:#000000;stroke-width:1.0;"/><text fill="#000000" font-family="sans-serif" font-size="13" lengthAdjust="spacing" textLength="104" x="83" y="414.6494">saves in database</text></g><!--link JobRequirementsRepository to JobRequirements--><g id="link_JobRequirementsRepository_JobRequirements"><path codeLine="39" d="M347.45,369.7211 C359.59,393.0111 373.6648,419.9715 385.8048,443.2415 " fill="none" id="JobRequirementsRepository-to-JobRequirements" style="stroke:#181818;stroke-width:1.0;stroke-dasharray:7.0,7.0;"/><polygon fill="#181818" points="388.58,448.5611,387.9635,438.7315,386.2673,444.1281,380.8707,442.4319,388.58,448.5611" style="stroke:#181818;stroke-width:1.0;"/><polygon fill="#000000" points="379.3127,413.6996,377.7347,404.3209,372.5234,407.0396,379.3127,413.6996" style="stroke:#000000;stroke-width:1.0;"/><text fill="#000000" font-family="sans-serif" font-size="13" lengthAdjust="spacing" textLength="104" x="386" y="414.6494">saves in database</text></g><!--SRC=[ZP7TQiCm38Nl_HI-t2uMkhjHIc2a33es1Wrz0DLLCr7NpYobetlwEUj8_v8qTpRwpj6Hn1jo9GJOwXBC1WhCPMzH1pG2hh2ek07u4rR-croXrs0PrKd9M61-5Wcqh0HdnhkSVb2Fb1AIQ9VLTJqbA6hwBflUwmUzo4QFJqhzQNMEDhPyzSivVbKKS8jEU37JamavmR06WsdQ2sVUIV3MOeWYqtoEgiX_bEZY0E_WugIrAiUm8uDHmOVN4NyZlcpHGr-GSomza_YmZt1eFcrXRg97u0NCFxS-lDhyOZKc8DbtXZiZkXQV9EcjFNU8JmvHc_IjVQmhHjRf8AEUWpG-GnDrt6gimHZauPbQptZcegxFbrHbNue-nLKpfLeZd6UBYHXsCGuvlGA19J3MqReNqRAcBfDV]--></g></svg>