<?xml version="1.0" encoding="us-ascii" standalone="no"?><svg xmlns="http://www.w3.org/2000/svg" xmlns:xlink="http://www.w3.org/1999/xlink" contentStyleType="text/css" height="1048px" preserveAspectRatio="none" style="width:1832px;height:1048px;background:#FFFFFF;" version="1.1" viewBox="0 0 1832 1048" width="1832px" zoomAndPan="magnify"><defs/><g><text fill="#000000" font-family="sans-serif" font-size="14" font-weight="bold" lengthAdjust="spacing" textLength="243" x="795.75" y="30.1074">System Sequence Diagram - UC018</text><rect fill="#FFFFFF" height="800.9063" style="stroke:#181818;stroke-width:1.0;" width="10" x="76.5" y="137.8633"/><rect fill="#FFFFFF" height="219.0371" style="stroke:#181818;stroke-width:1.0;" width="10" x="403.5" y="161.1543"/><rect fill="#FFFFFF" height="512.2871" style="stroke:#181818;stroke-width:1.0;" width="10" x="403.5" y="411.4824"/><rect fill="#FFFFFF" height="156.4551" style="stroke:#181818;stroke-width:1.0;" width="10" x="613.5" y="192.4453"/><rect fill="#FFFFFF" height="344.2012" style="stroke:#181818;stroke-width:1.0;" width="10" x="613.5" y="500.3555"/><rect fill="#FFFFFF" height="93.873" style="stroke:#181818;stroke-width:1.0;" width="10" x="857.5" y="223.7363"/><rect fill="#FFFFFF" height="281.6191" style="stroke:#181818;stroke-width:1.0;" width="10" x="857.5" y="531.6465"/><rect fill="#FFFFFF" height="93.873" style="stroke:#181818;stroke-width:1.0;" width="10" x="1216.5" y="688.1016"/><rect fill="#FFFFFF" height="31.291" style="stroke:#181818;stroke-width:1.0;" width="10" x="1412.5" y="719.3926"/><rect fill="#FFFFFF" height="31.291" style="stroke:#181818;stroke-width:1.0;" width="10" x="1589.5" y="255.0273"/><rect fill="#FFFFFF" height="93.873" style="stroke:#181818;stroke-width:1.0;" width="10" x="1589.5" y="562.9375"/><rect fill="#FFFFFF" height="31.291" style="stroke:#181818;stroke-width:1.0;" width="10" x="1749.5" y="594.2285"/><rect fill="none" height="505.2871" style="stroke:#000000;stroke-width:1.5;" width="1815.5" x="10" y="426.4824"/><line style="stroke:#181818;stroke-width:0.5;stroke-dasharray:5.0,5.0;" x1="81" x2="81" y1="127.8633" y2="948.7695"/><line style="stroke:#181818;stroke-width:0.5;stroke-dasharray:5.0,5.0;" x1="408" x2="408" y1="127.8633" y2="948.7695"/><line style="stroke:#181818;stroke-width:0.5;stroke-dasharray:5.0,5.0;" x1="618" x2="618" y1="127.8633" y2="948.7695"/><line style="stroke:#181818;stroke-width:0.5;stroke-dasharray:5.0,5.0;" x1="862" x2="862" y1="127.8633" y2="948.7695"/><line style="stroke:#181818;stroke-width:0.5;stroke-dasharray:5.0,5.0;" x1="1221.5" x2="1221.5" y1="127.8633" y2="948.7695"/><line style="stroke:#181818;stroke-width:0.5;stroke-dasharray:5.0,5.0;" x1="1417.5" x2="1417.5" y1="127.8633" y2="948.7695"/><line style="stroke:#181818;stroke-width:0.5;stroke-dasharray:5.0,5.0;" x1="1594.5" x2="1594.5" y1="127.8633" y2="948.7695"/><line style="stroke:#181818;stroke-width:0.5;stroke-dasharray:5.0,5.0;" x1="1754.5" x2="1754.5" y1="127.8633" y2="948.7695"/><text fill="#000000" font-family="sans-serif" font-size="14" lengthAdjust="spacing" textLength="117" x="20" y="124.3496">CustomerManager</text><ellipse cx="81.5" cy="57.7422" fill="#E3E3E3" rx="8" ry="8" style="stroke:#181818;stroke-width:0.5;"/><path d="M81.5,65.7422 L81.5,92.7422 M68.5,73.7422 L94.5,73.7422 M81.5,92.7422 L68.5,107.7422 M81.5,92.7422 L94.5,107.7422 " fill="none" style="stroke:#181818;stroke-width:0.5;"/><text fill="#000000" font-family="sans-serif" font-size="14" lengthAdjust="spacing" textLength="117" x="20" y="962.877">CustomerManager</text><ellipse cx="81.5" cy="974.8906" fill="#E3E3E3" rx="8" ry="8" style="stroke:#181818;stroke-width:0.5;"/><path d="M81.5,982.8906 L81.5,1009.8906 M68.5,990.8906 L94.5,990.8906 M81.5,1009.8906 L68.5,1024.8906 M81.5,1009.8906 L94.5,1024.8906 " fill="none" style="stroke:#181818;stroke-width:0.5;"/><rect fill="#E3E3E3" height="51.2422" rx="2.5" ry="2.5" style="stroke:#181818;stroke-width:0.5;" width="175" x="321" y="75.6211"/><text fill="#000000" font-family="sans-serif" font-size="14" font-style="italic" lengthAdjust="spacing" textLength="95" x="361" y="97.7285">&#171;presentation&#187;</text><text fill="#000000" font-family="sans-serif" font-size="14" lengthAdjust="spacing" textLength="161" x="328" y="116.3496">SelectJobRequirementsUI</text><rect fill="#E3E3E3" height="51.2422" rx="2.5" ry="2.5" style="stroke:#181818;stroke-width:0.5;" width="175" x="321" y="947.7695"/><text fill="#000000" font-family="sans-serif" font-size="14" font-style="italic" lengthAdjust="spacing" textLength="95" x="361" y="969.877">&#171;presentation&#187;</text><text fill="#000000" font-family="sans-serif" font-size="14" lengthAdjust="spacing" textLength="161" x="328" y="988.498">SelectJobRequirementsUI</text><rect fill="#E3E3E3" height="51.2422" rx="2.5" ry="2.5" style="stroke:#181818;stroke-width:0.5;" width="225" x="506" y="75.6211"/><text fill="#000000" font-family="sans-serif" font-size="14" font-style="italic" lengthAdjust="spacing" textLength="84" x="576.5" y="97.7285">&#171;application&#187;</text><text fill="#000000" font-family="sans-serif" font-size="14" lengthAdjust="spacing" textLength="211" x="513" y="116.3496">SelectJobRequirementsController</text><rect fill="#E3E3E3" height="51.2422" rx="2.5" ry="2.5" style="stroke:#181818;stroke-width:0.5;" width="225" x="506" y="947.7695"/><text fill="#000000" font-family="sans-serif" font-size="14" font-style="italic" lengthAdjust="spacing" textLength="84" x="576.5" y="969.877">&#171;application&#187;</text><text fill="#000000" font-family="sans-serif" font-size="14" lengthAdjust="spacing" textLength="211" x="513" y="988.498">SelectJobRequirementsController</text><rect fill="#E3E3E3" height="51.2422" rx="2.5" ry="2.5" style="stroke:#181818;stroke-width:0.5;" width="219" x="753" y="75.6211"/><text fill="#000000" font-family="sans-serif" font-size="14" font-style="italic" lengthAdjust="spacing" textLength="60" x="832.5" y="97.7285">&#171;service&#187;</text><text fill="#000000" font-family="sans-serif" font-size="14" lengthAdjust="spacing" textLength="205" x="760" y="116.3496">JobOpeningManagementService</text><rect fill="#E3E3E3" height="51.2422" rx="2.5" ry="2.5" style="stroke:#181818;stroke-width:0.5;" width="219" x="753" y="947.7695"/><text fill="#000000" font-family="sans-serif" font-size="14" font-style="italic" lengthAdjust="spacing" textLength="60" x="832.5" y="969.877">&#171;service&#187;</text><text fill="#000000" font-family="sans-serif" font-size="14" lengthAdjust="spacing" textLength="205" x="760" y="988.498">JobOpeningManagementService</text><rect fill="#E3E3E3" height="51.2422" rx="2.5" ry="2.5" style="stroke:#181818;stroke-width:0.5;" width="188" x="1127.5" y="75.6211"/><text fill="#000000" font-family="sans-serif" font-size="14" font-style="italic" lengthAdjust="spacing" textLength="60" x="1191.5" y="97.7285">&#171;service&#187;</text><text fill="#000000" font-family="sans-serif" font-size="14" lengthAdjust="spacing" textLength="174" x="1134.5" y="116.3496">listJobRequirementsService</text><rect fill="#E3E3E3" height="51.2422" rx="2.5" ry="2.5" style="stroke:#181818;stroke-width:0.5;" width="188" x="1127.5" y="947.7695"/><text fill="#000000" font-family="sans-serif" font-size="14" font-style="italic" lengthAdjust="spacing" textLength="60" x="1191.5" y="969.877">&#171;service&#187;</text><text fill="#000000" font-family="sans-serif" font-size="14" lengthAdjust="spacing" textLength="174" x="1134.5" y="988.498">listJobRequirementsService</text><text fill="#000000" font-family="sans-serif" font-size="14" font-style="italic" lengthAdjust="spacing" textLength="79" x="1375" y="105.7285">&#171;repository&#187;</text><text fill="#000000" font-family="sans-serif" font-size="14" lengthAdjust="spacing" textLength="178" x="1325.5" y="124.3496">JobRequirementsRepository</text><path d="M1399.5,54.6211 C1399.5,44.6211 1417.5,44.6211 1417.5,44.6211 C1417.5,44.6211 1435.5,44.6211 1435.5,54.6211 L1435.5,80.6211 C1435.5,90.6211 1417.5,90.6211 1417.5,90.6211 C1417.5,90.6211 1399.5,90.6211 1399.5,80.6211 L1399.5,54.6211 " fill="#E3E3E3" style="stroke:#181818;stroke-width:1.5;"/><path d="M1399.5,54.6211 C1399.5,64.6211 1417.5,64.6211 1417.5,64.6211 C1417.5,64.6211 1435.5,64.6211 1435.5,54.6211 " fill="none" style="stroke:#181818;stroke-width:1.5;"/><text fill="#000000" font-family="sans-serif" font-size="14" font-style="italic" lengthAdjust="spacing" textLength="79" x="1375" y="962.877">&#171;repository&#187;</text><text fill="#000000" font-family="sans-serif" font-size="14" lengthAdjust="spacing" textLength="178" x="1325.5" y="981.498">JobRequirementsRepository</text><path d="M1399.5,995.0117 C1399.5,985.0117 1417.5,985.0117 1417.5,985.0117 C1417.5,985.0117 1435.5,985.0117 1435.5,995.0117 L1435.5,1021.0117 C1435.5,1031.0117 1417.5,1031.0117 1417.5,1031.0117 C1417.5,1031.0117 1399.5,1031.0117 1399.5,1021.0117 L1399.5,995.0117 " fill="#E3E3E3" style="stroke:#181818;stroke-width:1.5;"/><path d="M1399.5,995.0117 C1399.5,1005.0117 1417.5,1005.0117 1417.5,1005.0117 C1417.5,1005.0117 1435.5,1005.0117 1435.5,995.0117 " fill="none" style="stroke:#181818;stroke-width:1.5;"/><text fill="#000000" font-family="sans-serif" font-size="14" font-style="italic" lengthAdjust="spacing" textLength="79" x="1552" y="105.7285">&#171;repository&#187;</text><text fill="#000000" font-family="sans-serif" font-size="14" lengthAdjust="spacing" textLength="144" x="1519.5" y="124.3496">JobOpeningRepository</text><path d="M1576.5,54.6211 C1576.5,44.6211 1594.5,44.6211 1594.5,44.6211 C1594.5,44.6211 1612.5,44.6211 1612.5,54.6211 L1612.5,80.6211 C1612.5,90.6211 1594.5,90.6211 1594.5,90.6211 C1594.5,90.6211 1576.5,90.6211 1576.5,80.6211 L1576.5,54.6211 " fill="#E3E3E3" style="stroke:#181818;stroke-width:1.5;"/><path d="M1576.5,54.6211 C1576.5,64.6211 1594.5,64.6211 1594.5,64.6211 C1594.5,64.6211 1612.5,64.6211 1612.5,54.6211 " fill="none" style="stroke:#181818;stroke-width:1.5;"/><text fill="#000000" font-family="sans-serif" font-size="14" font-style="italic" lengthAdjust="spacing" textLength="79" x="1552" y="962.877">&#171;repository&#187;</text><text fill="#000000" font-family="sans-serif" font-size="14" lengthAdjust="spacing" textLength="144" x="1519.5" y="981.498">JobOpeningRepository</text><path d="M1576.5,995.0117 C1576.5,985.0117 1594.5,985.0117 1594.5,985.0117 C1594.5,985.0117 1612.5,985.0117 1612.5,995.0117 L1612.5,1021.0117 C1612.5,1031.0117 1594.5,1031.0117 1594.5,1031.0117 C1594.5,1031.0117 1576.5,1031.0117 1576.5,1021.0117 L1576.5,995.0117 " fill="#E3E3E3" style="stroke:#181818;stroke-width:1.5;"/><path d="M1576.5,995.0117 C1576.5,1005.0117 1594.5,1005.0117 1594.5,1005.0117 C1594.5,1005.0117 1612.5,1005.0117 1612.5,995.0117 " fill="none" style="stroke:#181818;stroke-width:1.5;"/><text fill="#000000" font-family="sans-serif" font-size="14" font-style="italic" lengthAdjust="spacing" textLength="79" x="1712" y="105.7285">&#171;repository&#187;</text><text fill="#000000" font-family="sans-serif" font-size="14" lengthAdjust="spacing" textLength="116" x="1693.5" y="124.3496">DomainRepository</text><path d="M1736.5,54.6211 C1736.5,44.6211 1754.5,44.6211 1754.5,44.6211 C1754.5,44.6211 1772.5,44.6211 1772.5,54.6211 L1772.5,80.6211 C1772.5,90.6211 1754.5,90.6211 1754.5,90.6211 C1754.5,90.6211 1736.5,90.6211 1736.5,80.6211 L1736.5,54.6211 " fill="#E3E3E3" style="stroke:#181818;stroke-width:1.5;"/><path d="M1736.5,54.6211 C1736.5,64.6211 1754.5,64.6211 1754.5,64.6211 C1754.5,64.6211 1772.5,64.6211 1772.5,54.6211 " fill="none" style="stroke:#181818;stroke-width:1.5;"/><text fill="#000000" font-family="sans-serif" font-size="14" font-style="italic" lengthAdjust="spacing" textLength="79" x="1712" y="962.877">&#171;repository&#187;</text><text fill="#000000" font-family="sans-serif" font-size="14" lengthAdjust="spacing" textLength="116" x="1693.5" y="981.498">DomainRepository</text><path d="M1736.5,995.0117 C1736.5,985.0117 1754.5,985.0117 1754.5,985.0117 C1754.5,985.0117 1772.5,985.0117 1772.5,995.0117 L1772.5,1021.0117 C1772.5,1031.0117 1754.5,1031.0117 1754.5,1031.0117 C1754.5,1031.0117 1736.5,1031.0117 1736.5,1021.0117 L1736.5,995.0117 " fill="#E3E3E3" style="stroke:#181818;stroke-width:1.5;"/><path d="M1736.5,995.0117 C1736.5,1005.0117 1754.5,1005.0117 1754.5,1005.0117 C1754.5,1005.0117 1772.5,1005.0117 1772.5,995.0117 " fill="none" style="stroke:#181818;stroke-width:1.5;"/><rect fill="#FFFFFF" height="800.9063" style="stroke:#181818;stroke-width:1.0;" width="10" x="76.5" y="137.8633"/><rect fill="#FFFFFF" height="219.0371" style="stroke:#181818;stroke-width:1.0;" width="10" x="403.5" y="161.1543"/><rect fill="#FFFFFF" height="512.2871" style="stroke:#181818;stroke-width:1.0;" width="10" x="403.5" y="411.4824"/><rect fill="#FFFFFF" height="156.4551" style="stroke:#181818;stroke-width:1.0;" width="10" x="613.5" y="192.4453"/><rect fill="#FFFFFF" height="344.2012" style="stroke:#181818;stroke-width:1.0;" width="10" x="613.5" y="500.3555"/><rect fill="#FFFFFF" height="93.873" style="stroke:#181818;stroke-width:1.0;" width="10" x="857.5" y="223.7363"/><rect fill="#FFFFFF" height="281.6191" style="stroke:#181818;stroke-width:1.0;" width="10" x="857.5" y="531.6465"/><rect fill="#FFFFFF" height="93.873" style="stroke:#181818;stroke-width:1.0;" width="10" x="1216.5" y="688.1016"/><rect fill="#FFFFFF" height="31.291" style="stroke:#181818;stroke-width:1.0;" width="10" x="1412.5" y="719.3926"/><rect fill="#FFFFFF" height="31.291" style="stroke:#181818;stroke-width:1.0;" width="10" x="1589.5" y="255.0273"/><rect fill="#FFFFFF" height="93.873" style="stroke:#181818;stroke-width:1.0;" width="10" x="1589.5" y="562.9375"/><rect fill="#FFFFFF" height="31.291" style="stroke:#181818;stroke-width:1.0;" width="10" x="1749.5" y="594.2285"/><polygon fill="#181818" points="391.5,157.1543,401.5,161.1543,391.5,165.1543,395.5,161.1543" style="stroke:#181818;stroke-width:1.0;"/><line style="stroke:#181818;stroke-width:1.0;" x1="86.5" x2="397.5" y1="161.1543" y2="161.1543"/><text fill="#000000" font-family="sans-serif" font-size="13" font-weight="bold" lengthAdjust="spacing" textLength="7" x="93.5" y="155.8916">1</text><text fill="#000000" font-family="sans-serif" font-size="13" lengthAdjust="spacing" textLength="277" x="104.5" y="155.8916">choosing the job requirements for a job opening.</text><polygon fill="#181818" points="601.5,188.4453,611.5,192.4453,601.5,196.4453,605.5,192.4453" style="stroke:#181818;stroke-width:1.0;"/><line style="stroke:#181818;stroke-width:1.0;" x1="413.5" x2="607.5" y1="192.4453" y2="192.4453"/><text fill="#000000" font-family="sans-serif" font-size="13" font-weight="bold" lengthAdjust="spacing" textLength="7" x="420.5" y="187.1826">2</text><text fill="#000000" font-family="sans-serif" font-size="13" lengthAdjust="spacing" textLength="121" x="431.5" y="187.1826">list with job openings</text><polygon fill="#181818" points="845.5,219.7363,855.5,223.7363,845.5,227.7363,849.5,223.7363" style="stroke:#181818;stroke-width:1.0;"/><line style="stroke:#181818;stroke-width:1.0;" x1="623.5" x2="851.5" y1="223.7363" y2="223.7363"/><text fill="#000000" font-family="sans-serif" font-size="13" font-weight="bold" lengthAdjust="spacing" textLength="7" x="630.5" y="218.4736">3</text><text fill="#000000" font-family="sans-serif" font-size="13" lengthAdjust="spacing" textLength="94" x="641.5" y="218.4736">findAllAvailable()</text><polygon fill="#181818" points="1577.5,251.0273,1587.5,255.0273,1577.5,259.0273,1581.5,255.0273" style="stroke:#181818;stroke-width:1.0;"/><line style="stroke:#181818;stroke-width:1.0;" x1="867.5" x2="1583.5" y1="255.0273" y2="255.0273"/><text fill="#000000" font-family="sans-serif" font-size="13" font-weight="bold" lengthAdjust="spacing" textLength="7" x="874.5" y="249.7646">4</text><text fill="#000000" font-family="sans-serif" font-size="13" lengthAdjust="spacing" textLength="43" x="885.5" y="249.7646">findAll()</text><polygon fill="#181818" points="878.5,282.3184,868.5,286.3184,878.5,290.3184,874.5,286.3184" style="stroke:#181818;stroke-width:1.0;"/><line style="stroke:#181818;stroke-width:1.0;stroke-dasharray:2.0,2.0;" x1="872.5" x2="1593.5" y1="286.3184" y2="286.3184"/><text fill="#000000" font-family="sans-serif" font-size="13" font-weight="bold" lengthAdjust="spacing" textLength="7" x="884.5" y="281.0557">5</text><text fill="#000000" font-family="sans-serif" font-size="13" lengthAdjust="spacing" textLength="121" x="895.5" y="281.0557">list with job openings</text><polygon fill="#181818" points="634.5,313.6094,624.5,317.6094,634.5,321.6094,630.5,317.6094" style="stroke:#181818;stroke-width:1.0;"/><line style="stroke:#181818;stroke-width:1.0;stroke-dasharray:2.0,2.0;" x1="628.5" x2="861.5" y1="317.6094" y2="317.6094"/><text fill="#000000" font-family="sans-serif" font-size="13" font-weight="bold" lengthAdjust="spacing" textLength="7" x="640.5" y="312.3467">6</text><text fill="#000000" font-family="sans-serif" font-size="13" lengthAdjust="spacing" textLength="121" x="651.5" y="312.3467">list with job openings</text><polygon fill="#181818" points="424.5,344.9004,414.5,348.9004,424.5,352.9004,420.5,348.9004" style="stroke:#181818;stroke-width:1.0;"/><line style="stroke:#181818;stroke-width:1.0;stroke-dasharray:2.0,2.0;" x1="418.5" x2="617.5" y1="348.9004" y2="348.9004"/><text fill="#000000" font-family="sans-serif" font-size="13" font-weight="bold" lengthAdjust="spacing" textLength="7" x="430.5" y="343.6377">7</text><text fill="#000000" font-family="sans-serif" font-size="13" lengthAdjust="spacing" textLength="121" x="441.5" y="343.6377">list with job openings</text><polygon fill="#181818" points="97.5,376.1914,87.5,380.1914,97.5,384.1914,93.5,380.1914" style="stroke:#181818;stroke-width:1.0;"/><line style="stroke:#181818;stroke-width:1.0;stroke-dasharray:2.0,2.0;" x1="91.5" x2="407.5" y1="380.1914" y2="380.1914"/><text fill="#000000" font-family="sans-serif" font-size="13" font-weight="bold" lengthAdjust="spacing" textLength="7" x="103.5" y="374.9287">8</text><text fill="#000000" font-family="sans-serif" font-size="13" lengthAdjust="spacing" textLength="121" x="114.5" y="374.9287">list with job openings</text><polygon fill="#181818" points="391.5,407.4824,401.5,411.4824,391.5,415.4824,395.5,411.4824" style="stroke:#181818;stroke-width:1.0;"/><line style="stroke:#181818;stroke-width:1.0;" x1="86.5" x2="397.5" y1="411.4824" y2="411.4824"/><text fill="#000000" font-family="sans-serif" font-size="13" font-weight="bold" lengthAdjust="spacing" textLength="7" x="93.5" y="406.2197">9</text><text fill="#000000" font-family="sans-serif" font-size="13" lengthAdjust="spacing" textLength="225" x="104.5" y="406.2197">enter the job opening reference number</text><path d="M10,426.4824 L71,426.4824 L71,435.7734 L61,445.7734 L10,445.7734 L10,426.4824 " fill="#EEEEEE" style="stroke:#000000;stroke-width:1.5;"/><rect fill="none" height="505.2871" style="stroke:#000000;stroke-width:1.5;" width="1815.5" x="10" y="426.4824"/><text fill="#000000" font-family="sans-serif" font-size="13" font-weight="bold" lengthAdjust="spacing" textLength="16" x="25" y="441.5107">alt</text><text fill="#000000" font-family="sans-serif" font-size="11" font-weight="bold" lengthAdjust="spacing" textLength="98" x="86" y="440.3525">[successful case]</text><polygon fill="#181818" points="391.5,465.0645,401.5,469.0645,391.5,473.0645,395.5,469.0645" style="stroke:#181818;stroke-width:1.0;"/><line style="stroke:#181818;stroke-width:1.0;" x1="86.5" x2="397.5" y1="469.0645" y2="469.0645"/><text fill="#000000" font-family="sans-serif" font-size="13" font-weight="bold" lengthAdjust="spacing" textLength="14" x="93.5" y="463.8018">10</text><text fill="#000000" font-family="sans-serif" font-size="13" lengthAdjust="spacing" textLength="157" x="111.5" y="463.8018">select the job requirements</text><polygon fill="#181818" points="601.5,496.3555,611.5,500.3555,601.5,504.3555,605.5,500.3555" style="stroke:#181818;stroke-width:1.0;"/><line style="stroke:#181818;stroke-width:1.0;" x1="413.5" x2="607.5" y1="500.3555" y2="500.3555"/><text fill="#000000" font-family="sans-serif" font-size="13" font-weight="bold" lengthAdjust="spacing" textLength="14" x="420.5" y="495.0928">11</text><text fill="#000000" font-family="sans-serif" font-size="13" lengthAdjust="spacing" textLength="146" x="438.5" y="495.0928">assignJobRequirements()</text><polygon fill="#181818" points="845.5,527.6465,855.5,531.6465,845.5,535.6465,849.5,531.6465" style="stroke:#181818;stroke-width:1.0;"/><line style="stroke:#181818;stroke-width:1.0;" x1="623.5" x2="851.5" y1="531.6465" y2="531.6465"/><text fill="#000000" font-family="sans-serif" font-size="13" font-weight="bold" lengthAdjust="spacing" textLength="14" x="630.5" y="526.3838">12</text><text fill="#000000" font-family="sans-serif" font-size="13" lengthAdjust="spacing" textLength="197" x="648.5" y="526.3838">findJobOpeningById(jobReference)</text><polygon fill="#181818" points="1577.5,558.9375,1587.5,562.9375,1577.5,566.9375,1581.5,562.9375" style="stroke:#181818;stroke-width:1.0;"/><line style="stroke:#181818;stroke-width:1.0;" x1="867.5" x2="1583.5" y1="562.9375" y2="562.9375"/><text fill="#000000" font-family="sans-serif" font-size="13" font-weight="bold" lengthAdjust="spacing" textLength="14" x="874.5" y="557.6748">13</text><text fill="#000000" font-family="sans-serif" font-size="13" lengthAdjust="spacing" textLength="132" x="892.5" y="557.6748">findByJobReference(id)</text><polygon fill="#181818" points="1737.5,590.2285,1747.5,594.2285,1737.5,598.2285,1741.5,594.2285" style="stroke:#181818;stroke-width:1.0;"/><line style="stroke:#181818;stroke-width:1.0;stroke-dasharray:2.0,2.0;" x1="1599.5" x2="1743.5" y1="594.2285" y2="594.2285"/><text fill="#000000" font-family="sans-serif" font-size="13" font-weight="bold" lengthAdjust="spacing" textLength="14" x="1606.5" y="588.9658">14</text><text fill="#000000" font-family="sans-serif" font-size="13" lengthAdjust="spacing" textLength="113" x="1624.5" y="588.9658">ofIdentity(reference)</text><polygon fill="#181818" points="1610.5,621.5195,1600.5,625.5195,1610.5,629.5195,1606.5,625.5195" style="stroke:#181818;stroke-width:1.0;"/><line style="stroke:#181818;stroke-width:1.0;stroke-dasharray:2.0,2.0;" x1="1604.5" x2="1753.5" y1="625.5195" y2="625.5195"/><text fill="#000000" font-family="sans-serif" font-size="13" font-weight="bold" lengthAdjust="spacing" textLength="14" x="1616.5" y="620.2568">15</text><text fill="#000000" font-family="sans-serif" font-size="13" lengthAdjust="spacing" textLength="65" x="1634.5" y="620.2568">jobOpening</text><polygon fill="#181818" points="878.5,652.8105,868.5,656.8105,878.5,660.8105,874.5,656.8105" style="stroke:#181818;stroke-width:1.0;"/><line style="stroke:#181818;stroke-width:1.0;stroke-dasharray:2.0,2.0;" x1="872.5" x2="1593.5" y1="656.8105" y2="656.8105"/><text fill="#000000" font-family="sans-serif" font-size="13" font-weight="bold" lengthAdjust="spacing" textLength="14" x="884.5" y="651.5479">16</text><text fill="#000000" font-family="sans-serif" font-size="13" lengthAdjust="spacing" textLength="65" x="902.5" y="651.5479">jobOpening</text><polygon fill="#181818" points="1204.5,684.1016,1214.5,688.1016,1204.5,692.1016,1208.5,688.1016" style="stroke:#181818;stroke-width:1.0;"/><line style="stroke:#181818;stroke-width:1.0;" x1="867.5" x2="1210.5" y1="688.1016" y2="688.1016"/><text fill="#000000" font-family="sans-serif" font-size="13" font-weight="bold" lengthAdjust="spacing" textLength="14" x="874.5" y="682.8389">17</text><text fill="#000000" font-family="sans-serif" font-size="13" lengthAdjust="spacing" textLength="312" x="892.5" y="682.8389">findJobRequirementsById(JobRequirementsReference)</text><polygon fill="#181818" points="1400.5,715.3926,1410.5,719.3926,1400.5,723.3926,1404.5,719.3926" style="stroke:#181818;stroke-width:1.0;"/><line style="stroke:#181818;stroke-width:1.0;" x1="1226.5" x2="1406.5" y1="719.3926" y2="719.3926"/><text fill="#000000" font-family="sans-serif" font-size="13" font-weight="bold" lengthAdjust="spacing" textLength="14" x="1233.5" y="714.1299">18</text><text fill="#000000" font-family="sans-serif" font-size="13" lengthAdjust="spacing" textLength="122" x="1251.5" y="714.1299">findByDesignation(id)</text><polygon fill="#181818" points="1237.5,746.6836,1227.5,750.6836,1237.5,754.6836,1233.5,750.6836" style="stroke:#181818;stroke-width:1.0;"/><line style="stroke:#181818;stroke-width:1.0;stroke-dasharray:2.0,2.0;" x1="1231.5" x2="1416.5" y1="750.6836" y2="750.6836"/><text fill="#000000" font-family="sans-serif" font-size="13" font-weight="bold" lengthAdjust="spacing" textLength="14" x="1243.5" y="745.4209">19</text><text fill="#000000" font-family="sans-serif" font-size="13" lengthAdjust="spacing" textLength="20" x="1261.5" y="745.4209">sfdf</text><polygon fill="#181818" points="878.5,777.9746,868.5,781.9746,878.5,785.9746,874.5,781.9746" style="stroke:#181818;stroke-width:1.0;"/><line style="stroke:#181818;stroke-width:1.0;stroke-dasharray:2.0,2.0;" x1="872.5" x2="1220.5" y1="781.9746" y2="781.9746"/><text fill="#000000" font-family="sans-serif" font-size="13" font-weight="bold" lengthAdjust="spacing" textLength="14" x="884.5" y="776.7119">20</text><text fill="#000000" font-family="sans-serif" font-size="13" lengthAdjust="spacing" textLength="26" x="902.5" y="776.7119">djjfdj</text><polygon fill="#181818" points="634.5,809.2656,624.5,813.2656,634.5,817.2656,630.5,813.2656" style="stroke:#181818;stroke-width:1.0;"/><line style="stroke:#181818;stroke-width:1.0;stroke-dasharray:2.0,2.0;" x1="628.5" x2="861.5" y1="813.2656" y2="813.2656"/><text fill="#000000" font-family="sans-serif" font-size="13" font-weight="bold" lengthAdjust="spacing" textLength="14" x="640.5" y="808.0029">21</text><text fill="#000000" font-family="sans-serif" font-size="13" lengthAdjust="spacing" textLength="142" x="658.5" y="808.0029">defineJobRequirements()</text><polygon fill="#181818" points="424.5,840.5566,414.5,844.5566,424.5,848.5566,420.5,844.5566" style="stroke:#181818;stroke-width:1.0;"/><line style="stroke:#181818;stroke-width:1.0;stroke-dasharray:2.0,2.0;" x1="418.5" x2="617.5" y1="844.5566" y2="844.5566"/><text fill="#000000" font-family="sans-serif" font-size="13" font-weight="bold" lengthAdjust="spacing" textLength="14" x="430.5" y="839.2939">22</text><text fill="#000000" font-family="sans-serif" font-size="13" lengthAdjust="spacing" textLength="134" x="448.5" y="839.2939">defineJobRequirements</text><polygon fill="#181818" points="97.5,871.8477,87.5,875.8477,97.5,879.8477,93.5,875.8477" style="stroke:#181818;stroke-width:1.0;"/><line style="stroke:#181818;stroke-width:1.0;stroke-dasharray:2.0,2.0;" x1="91.5" x2="402.5" y1="875.8477" y2="875.8477"/><text fill="#000000" font-family="sans-serif" font-size="13" font-weight="bold" lengthAdjust="spacing" textLength="14" x="103.5" y="870.585">23</text><text fill="#000000" font-family="sans-serif" font-size="13" lengthAdjust="spacing" textLength="274" x="121.5" y="870.585">the job requirements was successfully selected</text><line style="stroke:#000000;stroke-width:1.0;stroke-dasharray:2.0,2.0;" x1="10" x2="1825.5" y1="884.8477" y2="884.8477"/><text fill="#000000" font-family="sans-serif" font-size="11" font-weight="bold" lengthAdjust="spacing" textLength="72" x="15" y="896.7178">[failure case]</text><polygon fill="#181818" points="97.5,919.7695,87.5,923.7695,97.5,927.7695,93.5,923.7695" style="stroke:#181818;stroke-width:1.0;"/><line style="stroke:#181818;stroke-width:1.0;stroke-dasharray:2.0,2.0;" x1="91.5" x2="407.5" y1="923.7695" y2="923.7695"/><text fill="#000000" font-family="sans-serif" font-size="13" font-weight="bold" lengthAdjust="spacing" textLength="14" x="103.5" y="918.5068">24</text><text fill="#000000" font-family="sans-serif" font-size="13" lengthAdjust="spacing" textLength="275" x="121.5" y="918.5068">the job requirements reference number is invalid</text><!--SRC=[fLVBRjim4BppAtYhUt3HtWf3290w5mSm2iJ81z3YogP3aIf9ETNVT_M8HEj1AQuEGKHnPuVB6IvjtuJAc64fJRNIyTde5AWpEH3RVibO_CPES72516eWTaoTf3_1dXdNxqATQCAa1K9OxhJAqoCOGfnm67Oeh8EK7k1F3Ye6-YJOgGnTqzVjzny_2Vbo5XneehKxwh-4nKuRkisjGpvcpnJcDvHPkjqJpEb4B3Ac7E99vFEiZoy8B0oae9nztPKpyMyKPGOi3Z4dj7fuc0_TQkMCbh99rhr54SioAU8n9CJudO72zTT4IwG3cAl0TI9Aw7CKsVg_7gGKja_DGmnyzG4vS-p8BD3Ut1V8j1LOuAAXD_4nYapxqeDh5ZH06evFWJpfb0br2p0OwmMNiX1Nvg2K0Q7uRFTq_L1kzOR6PuqpKOFk3FIYZwZKRbKeBDpHQbZN5B_L02tYwwvwBn-4Gr1lypTLnUcxS6SVmf8sXDvWTQ6t4qh27Ihc24bZGnEX-AEKZrSc93jAM7sTIXZ06J08vRoXvEr3osL0OPf95puQSKl5oxMUhSl4Penbu11czhdgB5J5F8FXBWM5yY7nJ-RpP7YZxN8P-nbHUp2UCpox8NUazk6r9XWzbu2f3lYFuxzIXtJKvd4CrYQvf36pteBzF6E9R7LEZxgQX2pBh1KdrJlT-leDrkfUptOpVXKxlhgK59goBBVFl97_tz2_YcUFsqhm2NhtEppeyi5nlw4wsN6aBronCZCr6n3hmmMZocUGVprThaix76RZ-MR0vxugXVNcyLf0QTaPk51OWLj8wmF_OsM6mMrZVfDRzjC9WvKDyApBEt7zsTGMUOBo7AdkVM67z5qo3Zkhocb2wxcYsuGdY-KvpV3kQiwgbLyk2R-G9L8DRFPzWktt1mwulp3i3uijjEo47klZewblbpNJnhk-Xw1LCn-zzRxZfRfhlB9ecYdm6Wdmnnh-P1CoDr1tvR5hmYXolz5JOQbGLoO59oDhQEuGe30p8VxYy2B_3m00]--></g></svg>