<?xml version="1.0" encoding="us-ascii" standalone="no"?><svg xmlns="http://www.w3.org/2000/svg" xmlns:xlink="http://www.w3.org/1999/xlink" contentStyleType="text/css" height="759px" preserveAspectRatio="none" style="width:704px;height:759px;background:#FFFFFF;" version="1.1" viewBox="0 0 704 759" width="704px" zoomAndPan="magnify"><defs/><g><text fill="#000000" font-family="sans-serif" font-size="14" font-weight="bold" lengthAdjust="spacing" textLength="285" x="211.25" y="30.1074">System Sequence Diagram (SSD) - UC027</text><rect fill="#FFFFFF" height="533.2871" style="stroke:#181818;stroke-width:1.0;" width="10" x="76.5" y="133.2422"/><rect fill="#FFFFFF" height="92.873" style="stroke:#181818;stroke-width:1.0;" width="10" x="486.5" y="156.5332"/><rect fill="#FFFFFF" height="31.291" style="stroke:#181818;stroke-width:1.0;" width="10" x="486.5" y="280.6973"/><rect fill="#FFFFFF" height="164.4551" style="stroke:#181818;stroke-width:1.0;" width="10" x="486.5" y="343.2793"/><rect fill="#FFFFFF" height="120.5039" style="stroke:#181818;stroke-width:1.0;" width="10" x="486.5" y="546.0254"/><rect fill="none" height="126.1641" style="stroke:#000000;stroke-width:1.5;" width="688.5" x="10" y="389.5703"/><rect fill="none" height="98.5039" style="stroke:#000000;stroke-width:1.5;" width="523.5" x="10" y="561.0254"/><line style="stroke:#181818;stroke-width:0.5;stroke-dasharray:5.0,5.0;" x1="81" x2="81" y1="123.2422" y2="676.5293"/><line style="stroke:#181818;stroke-width:0.5;stroke-dasharray:5.0,5.0;" x1="491.5" x2="491.5" y1="123.2422" y2="676.5293"/><text fill="#000000" font-family="sans-serif" font-size="14" lengthAdjust="spacing" textLength="117" x="20" y="119.7285">CustomerManager</text><ellipse cx="81.5" cy="53.1211" fill="#E3E3E3" rx="8" ry="8" style="stroke:#181818;stroke-width:0.5;"/><path d="M81.5,61.1211 L81.5,88.1211 M68.5,69.1211 L94.5,69.1211 M81.5,88.1211 L68.5,103.1211 M81.5,88.1211 L94.5,103.1211 " fill="none" style="stroke:#181818;stroke-width:0.5;"/><text fill="#000000" font-family="sans-serif" font-size="14" lengthAdjust="spacing" textLength="117" x="20" y="690.6367">CustomerManager</text><ellipse cx="81.5" cy="702.6504" fill="#E3E3E3" rx="8" ry="8" style="stroke:#181818;stroke-width:0.5;"/><path d="M81.5,710.6504 L81.5,737.6504 M68.5,718.6504 L94.5,718.6504 M81.5,737.6504 L68.5,752.6504 M81.5,737.6504 L94.5,752.6504 " fill="none" style="stroke:#181818;stroke-width:0.5;"/><rect fill="#E3E3E3" height="32.6211" rx="2.5" ry="2.5" style="stroke:#181818;stroke-width:0.5;" width="64" x="459.5" y="89.6211"/><text fill="#000000" font-family="sans-serif" font-size="14" lengthAdjust="spacing" textLength="50" x="466.5" y="111.7285">:System</text><rect fill="#E3E3E3" height="32.6211" rx="2.5" ry="2.5" style="stroke:#181818;stroke-width:0.5;" width="64" x="459.5" y="675.5293"/><text fill="#000000" font-family="sans-serif" font-size="14" lengthAdjust="spacing" textLength="50" x="466.5" y="697.6367">:System</text><rect fill="#FFFFFF" height="533.2871" style="stroke:#181818;stroke-width:1.0;" width="10" x="76.5" y="133.2422"/><rect fill="#FFFFFF" height="92.873" style="stroke:#181818;stroke-width:1.0;" width="10" x="486.5" y="156.5332"/><rect fill="#FFFFFF" height="31.291" style="stroke:#181818;stroke-width:1.0;" width="10" x="486.5" y="280.6973"/><rect fill="#FFFFFF" height="164.4551" style="stroke:#181818;stroke-width:1.0;" width="10" x="486.5" y="343.2793"/><rect fill="#FFFFFF" height="120.5039" style="stroke:#181818;stroke-width:1.0;" width="10" x="486.5" y="546.0254"/><polygon fill="#181818" points="474.5,152.5332,484.5,156.5332,474.5,160.5332,478.5,156.5332" style="stroke:#181818;stroke-width:1.0;"/><line style="stroke:#181818;stroke-width:1.0;" x1="86.5" x2="480.5" y1="156.5332" y2="156.5332"/><text fill="#000000" font-family="sans-serif" font-size="13" lengthAdjust="spacing" textLength="31" x="93.5" y="151.2705">Login</text><line style="stroke:#181818;stroke-width:1.0;" x1="496.5" x2="538.5" y1="187.8242" y2="187.8242"/><line style="stroke:#181818;stroke-width:1.0;" x1="538.5" x2="538.5" y1="187.8242" y2="200.8242"/><line style="stroke:#181818;stroke-width:1.0;" x1="497.5" x2="538.5" y1="200.8242" y2="200.8242"/><polygon fill="#181818" points="507.5,196.8242,497.5,200.8242,507.5,204.8242,503.5,200.8242" style="stroke:#181818;stroke-width:1.0;"/><text fill="#000000" font-family="sans-serif" font-size="13" lengthAdjust="spacing" textLength="78" x="503.5" y="182.5615">Validate login</text><polygon fill="#181818" points="97.5,245.4063,87.5,249.4063,97.5,253.4063,93.5,249.4063" style="stroke:#181818;stroke-width:1.0;"/><line style="stroke:#181818;stroke-width:1.0;stroke-dasharray:2.0,2.0;" x1="91.5" x2="490.5" y1="249.4063" y2="249.4063"/><text fill="#000000" font-family="sans-serif" font-size="13" lengthAdjust="spacing" textLength="176" x="103.5" y="226.8525">Allow access to the backoffice</text><text fill="#000000" font-family="sans-serif" font-size="13" lengthAdjust="spacing" textLength="277" x="103.5" y="244.1436">application with Customer Manager permissions</text><polygon fill="#181818" points="474.5,276.6973,484.5,280.6973,474.5,284.6973,478.5,280.6973" style="stroke:#181818;stroke-width:1.0;"/><line style="stroke:#181818;stroke-width:1.0;" x1="86.5" x2="480.5" y1="280.6973" y2="280.6973"/><text fill="#000000" font-family="sans-serif" font-size="13" lengthAdjust="spacing" textLength="240" x="93.5" y="275.4346">Select the option to close the job opening</text><polygon fill="#181818" points="97.5,307.9883,87.5,311.9883,97.5,315.9883,93.5,311.9883" style="stroke:#181818;stroke-width:1.0;"/><line style="stroke:#181818;stroke-width:1.0;stroke-dasharray:2.0,2.0;" x1="91.5" x2="490.5" y1="311.9883" y2="311.9883"/><text fill="#000000" font-family="sans-serif" font-size="13" lengthAdjust="spacing" textLength="210" x="103.5" y="306.7256">Display job opening that has phases</text><polygon fill="#181818" points="474.5,339.2793,484.5,343.2793,474.5,347.2793,478.5,343.2793" style="stroke:#181818;stroke-width:1.0;"/><line style="stroke:#181818;stroke-width:1.0;" x1="86.5" x2="480.5" y1="343.2793" y2="343.2793"/><text fill="#000000" font-family="sans-serif" font-size="13" lengthAdjust="spacing" textLength="204" x="93.5" y="338.0166">Select the job opening to be closed</text><polygon fill="#181818" points="97.5,370.5703,87.5,374.5703,97.5,378.5703,93.5,374.5703" style="stroke:#181818;stroke-width:1.0;"/><line style="stroke:#181818;stroke-width:1.0;" x1="91.5" x2="485.5" y1="374.5703" y2="374.5703"/><text fill="#000000" font-family="sans-serif" font-size="13" lengthAdjust="spacing" textLength="159" x="103.5" y="369.3076">Display job opening phases</text><path d="M10,389.5703 L83,389.5703 L83,398.8613 L73,408.8613 L10,408.8613 L10,389.5703 " fill="#EEEEEE" style="stroke:#000000;stroke-width:1.5;"/><rect fill="none" height="126.1641" style="stroke:#000000;stroke-width:1.5;" width="688.5" x="10" y="389.5703"/><text fill="#000000" font-family="sans-serif" font-size="13" font-weight="bold" lengthAdjust="spacing" textLength="28" x="25" y="404.5986">loop</text><text fill="#000000" font-family="sans-serif" font-size="11" font-weight="bold" lengthAdjust="spacing" textLength="90" x="98" y="403.4404">[for each phase]</text><polygon fill="#181818" points="474.5,428.1523,484.5,432.1523,474.5,436.1523,478.5,432.1523" style="stroke:#181818;stroke-width:1.0;"/><line style="stroke:#181818;stroke-width:1.0;" x1="86.5" x2="480.5" y1="432.1523" y2="432.1523"/><text fill="#000000" font-family="sans-serif" font-size="13" lengthAdjust="spacing" textLength="173" x="93.5" y="426.8896">Select the phase to be closed</text><line style="stroke:#181818;stroke-width:1.0;" x1="496.5" x2="538.5" y1="463.4434" y2="463.4434"/><line style="stroke:#181818;stroke-width:1.0;" x1="538.5" x2="538.5" y1="463.4434" y2="476.4434"/><line style="stroke:#181818;stroke-width:1.0;" x1="497.5" x2="538.5" y1="476.4434" y2="476.4434"/><polygon fill="#181818" points="507.5,472.4434,497.5,476.4434,507.5,480.4434,503.5,476.4434" style="stroke:#181818;stroke-width:1.0;"/><text fill="#000000" font-family="sans-serif" font-size="13" lengthAdjust="spacing" textLength="183" x="503.5" y="458.1807">Validate the phase to be closed</text><polygon fill="#181818" points="97.5,503.7344,87.5,507.7344,97.5,511.7344,93.5,507.7344" style="stroke:#181818;stroke-width:1.0;"/><line style="stroke:#181818;stroke-width:1.0;stroke-dasharray:2.0,2.0;" x1="91.5" x2="490.5" y1="507.7344" y2="507.7344"/><text fill="#000000" font-family="sans-serif" font-size="13" lengthAdjust="spacing" textLength="167" x="103.5" y="502.4717">Allow the phase to be closed</text><polygon fill="#181818" points="474.5,542.0254,484.5,546.0254,474.5,550.0254,478.5,546.0254" style="stroke:#181818;stroke-width:1.0;"/><line style="stroke:#181818;stroke-width:1.0;" x1="86.5" x2="480.5" y1="546.0254" y2="546.0254"/><text fill="#000000" font-family="sans-serif" font-size="13" lengthAdjust="spacing" textLength="211" x="93.5" y="540.7627">Confirm the job opening to be closed</text><path d="M10,561.0254 L71,561.0254 L71,570.3164 L61,580.3164 L10,580.3164 L10,561.0254 " fill="#EEEEEE" style="stroke:#000000;stroke-width:1.5;"/><rect fill="none" height="98.5039" style="stroke:#000000;stroke-width:1.5;" width="523.5" x="10" y="561.0254"/><text fill="#000000" font-family="sans-serif" font-size="13" font-weight="bold" lengthAdjust="spacing" textLength="16" x="25" y="576.0537">alt</text><text fill="#000000" font-family="sans-serif" font-size="11" font-weight="bold" lengthAdjust="spacing" textLength="109" x="86" y="574.8955">[Phases is enabled]</text><polygon fill="#181818" points="97.5,599.6074,87.5,603.6074,97.5,607.6074,93.5,603.6074" style="stroke:#181818;stroke-width:1.0;"/><line style="stroke:#181818;stroke-width:1.0;stroke-dasharray:2.0,2.0;" x1="91.5" x2="485.5" y1="603.6074" y2="603.6074"/><text fill="#000000" font-family="sans-serif" font-size="13" lengthAdjust="spacing" textLength="354" x="103.5" y="598.3447">Phases of the process for a job opening enabled successfully</text><line style="stroke:#000000;stroke-width:1.0;stroke-dasharray:2.0,2.0;" x1="10" x2="533.5" y1="612.6074" y2="612.6074"/><text fill="#000000" font-family="sans-serif" font-size="11" font-weight="bold" lengthAdjust="spacing" textLength="130" x="15" y="624.4775">[Phases is not enabled]</text><polygon fill="#181818" points="97.5,647.5293,87.5,651.5293,97.5,655.5293,93.5,651.5293" style="stroke:#181818;stroke-width:1.0;"/><line style="stroke:#181818;stroke-width:1.0;stroke-dasharray:2.0,2.0;" x1="91.5" x2="485.5" y1="651.5293" y2="651.5293"/><text fill="#000000" font-family="sans-serif" font-size="13" lengthAdjust="spacing" textLength="376" x="103.5" y="646.2666">Phases of the process for a job opening not enabled successfully</text><!--SRC=[hLH1ozGm4BttLmpVIGyVY1TX3u9qZou8HKzUPjDf6xyq4vEfo_vxfsctTj7M5UoXbCnxyzwRf4alrWUCs4FFdaqNkIUGE52Hbaf0yu8jLN9r196Ce6_T6f0whFbYVGiDkaH58LOKMbsJK0yLVH_86uAZnNQ4lwggusjuXi_bcxVl2ZJ24SeXYKh74tgLYe09obEXxSKQ6z0BF1scVazZRVeiHhBzWK8Zk83vAK_m_7w67E0ZjzRdsWA-iM-4sUYAz0MThKUeo-pVa0ejJmVuu1nVjA-Xb40Of2CuwxIuQQm6_ken16SDYcKF5olTaXDkGGF5tgQaW9HLQjgqUP-h8gTRaIKvP04rO1mdoclV-Aphv7LN7Wi_HphQ51nUrtpjXmATZZteYpPz_jteNLE6Cqs6w-BH_TboE1jR68uvGAFdIbrsKtMfxJhCq3zuU-2e_0lzxlpi4NUE0_awvzoQUyc-iR7V7_pktD49VCgJ1PjK3yzkfcpacS7SJ9aYvnzZt0Uyip2tWZJaNwSPdBl-ogLNo4hMi_nFwLMx3Nc_FVhLabuuFm40]--></g></svg>