<?xml version="1.0" encoding="us-ascii" standalone="no"?><svg xmlns="http://www.w3.org/2000/svg" xmlns:xlink="http://www.w3.org/1999/xlink" contentStyleType="text/css" height="437px" preserveAspectRatio="none" style="width:538px;height:437px;background:#FFFFFF;" version="1.1" viewBox="0 0 538 437" width="538px" zoomAndPan="magnify"><defs/><g><text fill="#000000" font-family="sans-serif" font-size="14" font-weight="bold" lengthAdjust="spacing" textLength="194" x="165" y="25.1074">Domain Model (DM) - UC003</text><!--cluster SystemUserAggregate--><g id="cluster_SystemUserAggregate"><rect fill="none" height="385" rx="2.5" ry="2.5" style="stroke:#000000;stroke-width:1.5;" width="525" x="7" y="46.6211"/><text fill="#000000" font-family="sans-serif" font-size="14" font-weight="bold" lengthAdjust="spacing" textLength="156" x="191.5" y="63.7285">SystemUserAggregate</text></g><!--class EmailAddress--><g id="elem_EmailAddress"><rect codeLine="12" fill="#F1F1F1" height="68.543" id="EmailAddress" rx="2.5" ry="2.5" style="stroke:#181818;stroke-width:0.5;" width="92" x="343" y="233.6211"/><text fill="#000000" font-family="sans-serif" font-size="12" font-style="italic" lengthAdjust="spacing" textLength="44" x="367" y="251.5703">&#171;value&#187;</text><text fill="#000000" font-family="sans-serif" font-size="12" font-style="italic" lengthAdjust="spacing" textLength="24" x="377" y="267.5313">&#171;id&#187;</text><text fill="#000000" font-family="sans-serif" font-size="14" lengthAdjust="spacing" textLength="86" x="346" y="285.6504">EmailAddress</text><line style="stroke:#181818;stroke-width:0.5;" x1="344" x2="434" y1="294.1641" y2="294.1641"/></g><!--class SystemUser--><g id="elem_SystemUser"><rect codeLine="14" fill="#F1F1F1" height="89.8242" id="SystemUser" rx="2.5" ry="2.5" style="stroke:#181818;stroke-width:0.5;" width="179" x="299.5" y="83.6211"/><text fill="#000000" font-family="sans-serif" font-size="12" font-style="italic" lengthAdjust="spacing" textLength="35" x="371.5" y="101.5703">&#171;root&#187;</text><text fill="#000000" font-family="sans-serif" font-size="14" lengthAdjust="spacing" textLength="75" x="351.5" y="119.6895">SystemUser</text><line style="stroke:#181818;stroke-width:0.5;" x1="300.5" x2="477.5" y1="128.2031" y2="128.2031"/><text fill="#000000" font-family="sans-serif" font-size="14" lengthAdjust="spacing" textLength="106" x="305.5" y="147.3105">-active : Boolean</text><text fill="#000000" font-family="sans-serif" font-size="14" lengthAdjust="spacing" textLength="167" x="305.5" y="165.9316">-deactivatedOn : Calendar</text></g><!--class Name--><g id="elem_Name"><rect codeLine="19" fill="#F1F1F1" height="52.582" id="Name" rx="2.5" ry="2.5" style="stroke:#181818;stroke-width:0.5;" width="46" x="470" y="241.6211"/><text fill="#000000" font-family="sans-serif" font-size="12" font-style="italic" lengthAdjust="spacing" textLength="44" x="471" y="259.5703">&#171;value&#187;</text><text fill="#000000" font-family="sans-serif" font-size="14" lengthAdjust="spacing" textLength="36" x="475" y="277.6895">Name</text><line style="stroke:#181818;stroke-width:0.5;" x1="471" x2="515" y1="286.2031" y2="286.2031"/></g><!--class RoleSet--><g id="elem_RoleSet"><rect codeLine="27" fill="#F1F1F1" height="52.582" id="RoleSet" rx="2.5" ry="2.5" style="stroke:#181818;stroke-width:0.5;" width="56" x="208" y="102.1211"/><text fill="#000000" font-family="sans-serif" font-size="12" font-style="italic" lengthAdjust="spacing" textLength="44" x="214" y="120.0703">&#171;value&#187;</text><text fill="#000000" font-family="sans-serif" font-size="14" lengthAdjust="spacing" textLength="50" x="211" y="138.1895">RoleSet</text><line style="stroke:#181818;stroke-width:0.5;" x1="209" x2="263" y1="146.7031" y2="146.7031"/></g><!--class RoleAssignment--><g id="elem_RoleAssignment"><rect codeLine="23" fill="#F1F1F1" height="52.582" id="RoleAssignment" rx="2.5" ry="2.5" style="stroke:#181818;stroke-width:0.5;" width="108" x="23" y="241.6211"/><text fill="#000000" font-family="sans-serif" font-size="12" font-style="italic" lengthAdjust="spacing" textLength="43" x="55.5" y="259.5703">&#171;entity&#187;</text><text fill="#000000" font-family="sans-serif" font-size="14" lengthAdjust="spacing" textLength="102" x="26" y="277.6895">RoleAssignment</text><line style="stroke:#181818;stroke-width:0.5;" x1="24" x2="130" y1="286.2031" y2="286.2031"/></g><!--class Role--><g id="elem_Role"><rect codeLine="25" fill="#F1F1F1" height="52.582" id="Role" rx="2.5" ry="2.5" style="stroke:#181818;stroke-width:0.5;" width="46" x="54" y="362.6211"/><text fill="#000000" font-family="sans-serif" font-size="12" font-style="italic" lengthAdjust="spacing" textLength="44" x="55" y="380.5703">&#171;value&#187;</text><text fill="#000000" font-family="sans-serif" font-size="14" lengthAdjust="spacing" textLength="29" x="62.5" y="398.6895">Role</text><line style="stroke:#181818;stroke-width:0.5;" x1="55" x2="99" y1="407.2031" y2="407.2031"/></g><!--class Set--><g id="elem_Set"><rect codeLine="29" fill="#F1F1F1" height="52.582" id="Set" rx="2.5" ry="2.5" style="stroke:#181818;stroke-width:0.5;" width="141" x="166.5" y="241.6211"/><text fill="#000000" font-family="sans-serif" font-size="12" font-style="italic" lengthAdjust="spacing" textLength="44" x="167.5" y="259.5703">&#171;value&#187;</text><text fill="#000000" font-family="sans-serif" font-size="14" lengthAdjust="spacing" textLength="21" x="179" y="277.6895">Set</text><rect fill="#FFFFFF" height="17.9609" style="stroke:#181818;stroke-width:1.0;stroke-dasharray:2.0,2.0;" width="93" x="217.5" y="238.6211"/><text fill="#000000" font-family="sans-serif" font-size="12" font-style="italic" lengthAdjust="spacing" textLength="91" x="218.5" y="252.5703">RoleAssignment</text><line style="stroke:#181818;stroke-width:0.5;" x1="167.5" x2="306.5" y1="286.2031" y2="286.2031"/></g><!--link SystemUser to Name--><g id="link_SystemUser_Name"><path codeLine="32" d="M422.48,173.8811 C439.34,196.1811 455.581,217.6454 469.911,236.5954 " fill="none" id="SystemUser-to-Name" style="stroke:#181818;stroke-width:1.0;"/><polygon fill="#181818" points="473.53,241.3811,471.292,231.7899,470.5142,237.393,464.9111,236.6152,473.53,241.3811" style="stroke:#181818;stroke-width:1.0;"/></g><!--link SystemUser to EmailAddress--><g id="link_SystemUser_EmailAddress"><path codeLine="33" d="M389,173.8811 C389,193.2011 389,209.4711 389,227.4111 " fill="none" id="SystemUser-to-EmailAddress" style="stroke:#181818;stroke-width:1.0;"/><polygon fill="#181818" points="389,233.4111,393,224.4111,389,228.4111,385,224.4111,389,233.4111" style="stroke:#181818;stroke-width:1.0;"/></g><!--reverse link RoleSet to SystemUser--><g id="link_RoleSet_SystemUser"><path codeLine="34" d="M270.09,128.6211 C281.8,128.6211 287.51,128.6211 299.22,128.6211 " fill="none" id="RoleSet-backto-SystemUser" style="stroke:#181818;stroke-width:1.0;"/><polygon fill="#181818" points="264.09,128.6211,273.09,132.6211,269.09,128.6211,273.09,124.6211,264.09,128.6211" style="stroke:#181818;stroke-width:1.0;"/></g><!--link RoleSet to Set--><g id="link_RoleSet_Set"><path codeLine="35" d="M236.19,155.1611 C236.36,179.7011 236.4986,198.6016 236.6786,223.2516 " fill="none" id="RoleSet-to-Set" style="stroke:#181818;stroke-width:1.0;stroke-dasharray:7.0,7.0;"/><polygon fill="none" points="236.81,241.2511,242.6784,223.2078,230.6787,223.2954,236.81,241.2511" style="stroke:#181818;stroke-width:1.0;"/></g><!--link RoleSet to RoleAssignment--><g id="link_RoleSet_RoleAssignment"><path codeLine="36" d="M207.94,153.8911 C179.5,178.4811 140.2083,212.4563 111.2083,237.5363 " fill="none" id="RoleSet-to-RoleAssignment" style="stroke:#181818;stroke-width:1.0;stroke-dasharray:7.0,7.0;"/><polygon fill="#181818" points="106.67,241.4611,116.0939,238.5994,110.4519,238.1904,110.8609,232.5484,106.67,241.4611" style="stroke:#181818;stroke-width:1.0;"/></g><!--link RoleAssignment to Role--><g id="link_RoleAssignment_Role"><path codeLine="37" d="M77,294.6511 C77,314.5911 77,336.1911 77,356.2211 " fill="none" id="RoleAssignment-to-Role" style="stroke:#181818;stroke-width:1.0;"/><polygon fill="#181818" points="77,362.2211,81,353.2211,77,357.2211,73,353.2211,77,362.2211" style="stroke:#181818;stroke-width:1.0;"/></g><!--SRC=[dPBFJW8n4CRlVOevwc49YJT3cgpWmGEQkE41nkrG6hhjfXqm-EVT7HQKWl5Y3qqxlo_VVDCqhrteCM47FRPhjDJmpXCaQXc3zQJoZo2lqCHN5omiqMTI1Mezvbmp9_UoONfeOsZS6y5OgPKp1ArBhLWDvuvu5KrMYXrBerdiq0MOHqCUhcRpQwXWCHsFRvGw1e9cbvcwHQPKMvl88XEyAv0rj8LxSV2rCOdaCfbiqMz8QpavexKgX2SZWIb65jN1QBygm9RTbk0MxcBqXA50XWOehSrJ4CKKFGM3QP1ybaqUiQDJYf8yYsb3_3UiStOsT1Js6jaTxtwB_k4jO7BkhmkXf2yUfghqCC9bhNpaS-PfoI8u9b3VIKQZ3mrd1VayOQGl9bM7cQfDNrsIBm00]--></g></svg>