<?xml version="1.0" encoding="us-ascii" standalone="no"?><svg xmlns="http://www.w3.org/2000/svg" xmlns:xlink="http://www.w3.org/1999/xlink" contentStyleType="text/css" height="417px" preserveAspectRatio="none" style="width:924px;height:417px;background:#FFFFFF;" version="1.1" viewBox="0 0 924 417" width="924.5px" zoomAndPan="magnify"><defs/><g><text fill="#000000" font-family="sans-serif" font-size="7" font-weight="bold" lengthAdjust="spacing" textLength="95" x="411.25" y="12.5537">Class Diagram (CD) - UC031</text><!--cluster InterviewModelPackage--><g id="cluster_InterviewModelPackage"><rect fill="none" height="127" rx="1.25" ry="1.25" style="stroke:#000000;stroke-width:0.75;" width="354" x="567.5" y="287.3105"/><text fill="#000000" font-family="sans-serif" font-size="7" font-weight="bold" lengthAdjust="spacing" textLength="84.5" x="702.25" y="295.8643">InterviewModelPackage</text></g><!--class InterviewModel--><g id="elem_InterviewModel"><rect codeLine="26" fill="#F1F1F1" height="30.291" id="InterviewModel" rx="1.25" ry="1.25" style="stroke:#181818;stroke-width:0.25;" width="62.5" x="710.75" y="305.8105"/><ellipse cx="718.25" cy="316.9561" fill="#ADD1B2" rx="5.5" ry="5.5" style="stroke:#181818;stroke-width:0.5;"/><path d="M719.6328,314.8936 Q719.7109,314.7842 719.8047,314.7295 Q719.8984,314.6748 720.0078,314.6748 Q720.1953,314.6748 720.3125,314.8076 Q720.4297,314.9326 720.4297,315.2373 L720.4297,315.9639 Q720.4297,316.2686 720.3125,316.4014 Q720.1953,316.5342 720.0078,316.5342 Q719.8359,316.5342 719.7344,316.4326 Q719.6328,316.3389 719.5781,316.0811 Q719.5547,315.9014 719.4609,315.8076 Q719.2969,315.6201 718.9922,315.5107 Q718.6875,315.4014 718.375,315.4014 Q717.9922,315.4014 717.6719,315.5654 Q717.3594,315.7295 717.1094,316.1045 Q716.8672,316.4795 716.8672,316.9951 L716.8672,317.542 Q716.8672,318.1592 717.3125,318.5732 Q717.7578,318.9795 718.5547,318.9795 Q719.0234,318.9795 719.3516,318.8545 Q719.5469,318.7764 719.7578,318.5576 Q719.8906,318.4248 719.9609,318.3857 Q720.0391,318.3467 720.1406,318.3467 Q720.3047,318.3467 720.4297,318.4795 Q720.5625,318.6045 720.5625,318.7764 Q720.5625,318.9482 720.3906,319.1514 Q720.1406,319.4404 719.7422,319.6045 Q719.2031,319.8311 718.5547,319.8311 Q717.7969,319.8311 717.1953,319.5186 Q716.7031,319.2686 716.3594,318.7373 Q716.0156,318.1982 716.0156,317.5576 L716.0156,316.9795 Q716.0156,316.3154 716.3203,315.7451 Q716.6328,315.167 717.1797,314.8623 Q717.7266,314.5498 718.3438,314.5498 Q718.7109,314.5498 719.0313,314.6357 Q719.3594,314.7139 719.6328,314.8936 Z " fill="#000000"/><text fill="#000000" font-family="sans-serif" font-size="6" font-style="italic" lengthAdjust="spacing" textLength="42.5" x="727.25" y="314.7852">&#171;Value Object&#187;</text><text fill="#000000" font-family="sans-serif" font-size="7" lengthAdjust="spacing" textLength="46.5" x="725.25" y="323.8447">InterviewModel</text><line style="stroke:#181818;stroke-width:0.25;" x1="711.25" x2="772.75" y1="328.1016" y2="328.1016"/><line style="stroke:#181818;stroke-width:0.25;" x1="711.25" x2="772.75" y1="332.1016" y2="332.1016"/></g><!--class InterviewModelDesignation--><g id="elem_InterviewModelDesignation"><rect codeLine="27" fill="#F1F1F1" height="30.291" id="InterviewModelDesignation" rx="1.25" ry="1.25" style="stroke:#181818;stroke-width:0.25;" width="100" x="575.5" y="375.8105"/><ellipse cx="583" cy="386.9561" fill="#ADD1B2" rx="5.5" ry="5.5" style="stroke:#181818;stroke-width:0.5;"/><path d="M584.3828,384.8936 Q584.4609,384.7842 584.5547,384.7295 Q584.6484,384.6748 584.7578,384.6748 Q584.9453,384.6748 585.0625,384.8076 Q585.1797,384.9326 585.1797,385.2373 L585.1797,385.9639 Q585.1797,386.2686 585.0625,386.4014 Q584.9453,386.5342 584.7578,386.5342 Q584.5859,386.5342 584.4844,386.4326 Q584.3828,386.3389 584.3281,386.0811 Q584.3047,385.9014 584.2109,385.8076 Q584.0469,385.6201 583.7422,385.5107 Q583.4375,385.4014 583.125,385.4014 Q582.7422,385.4014 582.4219,385.5654 Q582.1094,385.7295 581.8594,386.1045 Q581.6172,386.4795 581.6172,386.9951 L581.6172,387.542 Q581.6172,388.1592 582.0625,388.5732 Q582.5078,388.9795 583.3047,388.9795 Q583.7734,388.9795 584.1016,388.8545 Q584.2969,388.7764 584.5078,388.5576 Q584.6406,388.4248 584.7109,388.3857 Q584.7891,388.3467 584.8906,388.3467 Q585.0547,388.3467 585.1797,388.4795 Q585.3125,388.6045 585.3125,388.7764 Q585.3125,388.9482 585.1406,389.1514 Q584.8906,389.4404 584.4922,389.6045 Q583.9531,389.8311 583.3047,389.8311 Q582.5469,389.8311 581.9453,389.5186 Q581.4531,389.2686 581.1094,388.7373 Q580.7656,388.1982 580.7656,387.5576 L580.7656,386.9795 Q580.7656,386.3154 581.0703,385.7451 Q581.3828,385.167 581.9297,384.8623 Q582.4766,384.5498 583.0938,384.5498 Q583.4609,384.5498 583.7813,384.6357 Q584.1094,384.7139 584.3828,384.8936 Z " fill="#000000"/><text fill="#000000" font-family="sans-serif" font-size="6" font-style="italic" lengthAdjust="spacing" textLength="42.5" x="610.75" y="384.7852">&#171;Value Object&#187;</text><text fill="#000000" font-family="sans-serif" font-size="7" lengthAdjust="spacing" textLength="84" x="590" y="393.8447">InterviewModelDesignation</text><line style="stroke:#181818;stroke-width:0.25;" x1="576" x2="675" y1="398.1016" y2="398.1016"/><line style="stroke:#181818;stroke-width:0.25;" x1="576" x2="675" y1="402.1016" y2="402.1016"/></g><!--class InterviewModelDescription--><g id="elem_InterviewModelDescription"><rect codeLine="28" fill="#F1F1F1" height="30.291" id="InterviewModelDescription" rx="1.25" ry="1.25" style="stroke:#181818;stroke-width:0.25;" width="98" x="693" y="375.8105"/><ellipse cx="700.5" cy="386.9561" fill="#ADD1B2" rx="5.5" ry="5.5" style="stroke:#181818;stroke-width:0.5;"/><path d="M701.8828,384.8936 Q701.9609,384.7842 702.0547,384.7295 Q702.1484,384.6748 702.2578,384.6748 Q702.4453,384.6748 702.5625,384.8076 Q702.6797,384.9326 702.6797,385.2373 L702.6797,385.9639 Q702.6797,386.2686 702.5625,386.4014 Q702.4453,386.5342 702.2578,386.5342 Q702.0859,386.5342 701.9844,386.4326 Q701.8828,386.3389 701.8281,386.0811 Q701.8047,385.9014 701.7109,385.8076 Q701.5469,385.6201 701.2422,385.5107 Q700.9375,385.4014 700.625,385.4014 Q700.2422,385.4014 699.9219,385.5654 Q699.6094,385.7295 699.3594,386.1045 Q699.1172,386.4795 699.1172,386.9951 L699.1172,387.542 Q699.1172,388.1592 699.5625,388.5732 Q700.0078,388.9795 700.8047,388.9795 Q701.2734,388.9795 701.6016,388.8545 Q701.7969,388.7764 702.0078,388.5576 Q702.1406,388.4248 702.2109,388.3857 Q702.2891,388.3467 702.3906,388.3467 Q702.5547,388.3467 702.6797,388.4795 Q702.8125,388.6045 702.8125,388.7764 Q702.8125,388.9482 702.6406,389.1514 Q702.3906,389.4404 701.9922,389.6045 Q701.4531,389.8311 700.8047,389.8311 Q700.0469,389.8311 699.4453,389.5186 Q698.9531,389.2686 698.6094,388.7373 Q698.2656,388.1982 698.2656,387.5576 L698.2656,386.9795 Q698.2656,386.3154 698.5703,385.7451 Q698.8828,385.167 699.4297,384.8623 Q699.9766,384.5498 700.5938,384.5498 Q700.9609,384.5498 701.2813,384.6357 Q701.6094,384.7139 701.8828,384.8936 Z " fill="#000000"/><text fill="#000000" font-family="sans-serif" font-size="6" font-style="italic" lengthAdjust="spacing" textLength="42.5" x="727.25" y="384.7852">&#171;Value Object&#187;</text><text fill="#000000" font-family="sans-serif" font-size="7" lengthAdjust="spacing" textLength="82" x="707.5" y="393.8447">InterviewModelDescription</text><line style="stroke:#181818;stroke-width:0.25;" x1="693.5" x2="790.5" y1="398.1016" y2="398.1016"/><line style="stroke:#181818;stroke-width:0.25;" x1="693.5" x2="790.5" y1="402.1016" y2="402.1016"/></g><!--class InterviewModelFileExtension--><g id="elem_InterviewModelFileExtension"><rect codeLine="29" fill="#F1F1F1" height="30.291" id="InterviewModelFileExtension" rx="1.25" ry="1.25" style="stroke:#181818;stroke-width:0.25;" width="104.5" x="808.75" y="375.8105"/><ellipse cx="816.25" cy="386.9561" fill="#ADD1B2" rx="5.5" ry="5.5" style="stroke:#181818;stroke-width:0.5;"/><path d="M817.6328,384.8936 Q817.7109,384.7842 817.8047,384.7295 Q817.8984,384.6748 818.0078,384.6748 Q818.1953,384.6748 818.3125,384.8076 Q818.4297,384.9326 818.4297,385.2373 L818.4297,385.9639 Q818.4297,386.2686 818.3125,386.4014 Q818.1953,386.5342 818.0078,386.5342 Q817.8359,386.5342 817.7344,386.4326 Q817.6328,386.3389 817.5781,386.0811 Q817.5547,385.9014 817.4609,385.8076 Q817.2969,385.6201 816.9922,385.5107 Q816.6875,385.4014 816.375,385.4014 Q815.9922,385.4014 815.6719,385.5654 Q815.3594,385.7295 815.1094,386.1045 Q814.8672,386.4795 814.8672,386.9951 L814.8672,387.542 Q814.8672,388.1592 815.3125,388.5732 Q815.7578,388.9795 816.5547,388.9795 Q817.0234,388.9795 817.3516,388.8545 Q817.5469,388.7764 817.7578,388.5576 Q817.8906,388.4248 817.9609,388.3857 Q818.0391,388.3467 818.1406,388.3467 Q818.3047,388.3467 818.4297,388.4795 Q818.5625,388.6045 818.5625,388.7764 Q818.5625,388.9482 818.3906,389.1514 Q818.1406,389.4404 817.7422,389.6045 Q817.2031,389.8311 816.5547,389.8311 Q815.7969,389.8311 815.1953,389.5186 Q814.7031,389.2686 814.3594,388.7373 Q814.0156,388.1982 814.0156,387.5576 L814.0156,386.9795 Q814.0156,386.3154 814.3203,385.7451 Q814.6328,385.167 815.1797,384.8623 Q815.7266,384.5498 816.3438,384.5498 Q816.7109,384.5498 817.0313,384.6357 Q817.3594,384.7139 817.6328,384.8936 Z " fill="#000000"/><text fill="#000000" font-family="sans-serif" font-size="6" font-style="italic" lengthAdjust="spacing" textLength="42.5" x="846.25" y="384.7852">&#171;Value Object&#187;</text><text fill="#000000" font-family="sans-serif" font-size="7" lengthAdjust="spacing" textLength="88.5" x="823.25" y="393.8447">InterviewModelFileExtension</text><line style="stroke:#181818;stroke-width:0.25;" x1="809.25" x2="912.75" y1="398.1016" y2="398.1016"/><line style="stroke:#181818;stroke-width:0.25;" x1="809.25" x2="912.75" y1="402.1016" y2="402.1016"/></g><!--class UploadTextInterviewModelUI--><g id="elem_UploadTextInterviewModelUI"><rect codeLine="8" fill="#F1F1F1" height="30.291" id="UploadTextInterviewModelUI" rx="1.25" ry="1.25" style="stroke:#181818;stroke-width:0.25;" width="104" x="280" y="23.3105"/><ellipse cx="287.5" cy="34.4561" fill="#ADD1B2" rx="5.5" ry="5.5" style="stroke:#181818;stroke-width:0.5;"/><path d="M288.8828,32.3936 Q288.9609,32.2842 289.0547,32.2295 Q289.1484,32.1748 289.2578,32.1748 Q289.4453,32.1748 289.5625,32.3076 Q289.6797,32.4326 289.6797,32.7373 L289.6797,33.4639 Q289.6797,33.7686 289.5625,33.9014 Q289.4453,34.0342 289.2578,34.0342 Q289.0859,34.0342 288.9844,33.9326 Q288.8828,33.8389 288.8281,33.5811 Q288.8047,33.4014 288.7109,33.3076 Q288.5469,33.1201 288.2422,33.0107 Q287.9375,32.9014 287.625,32.9014 Q287.2422,32.9014 286.9219,33.0654 Q286.6094,33.2295 286.3594,33.6045 Q286.1172,33.9795 286.1172,34.4951 L286.1172,35.042 Q286.1172,35.6592 286.5625,36.0732 Q287.0078,36.4795 287.8047,36.4795 Q288.2734,36.4795 288.6016,36.3545 Q288.7969,36.2764 289.0078,36.0576 Q289.1406,35.9248 289.2109,35.8857 Q289.2891,35.8467 289.3906,35.8467 Q289.5547,35.8467 289.6797,35.9795 Q289.8125,36.1045 289.8125,36.2764 Q289.8125,36.4482 289.6406,36.6514 Q289.3906,36.9404 288.9922,37.1045 Q288.4531,37.3311 287.8047,37.3311 Q287.0469,37.3311 286.4453,37.0186 Q285.9531,36.7686 285.6094,36.2373 Q285.2656,35.6982 285.2656,35.0576 L285.2656,34.4795 Q285.2656,33.8154 285.5703,33.2451 Q285.8828,32.667 286.4297,32.3623 Q286.9766,32.0498 287.5938,32.0498 Q287.9609,32.0498 288.2813,32.1357 Q288.6094,32.2139 288.8828,32.3936 Z " fill="#000000"/><text fill="#000000" font-family="sans-serif" font-size="6" font-style="italic" lengthAdjust="spacing" textLength="30.5" x="323.25" y="32.2852">&#171;interface&#187;</text><text fill="#000000" font-family="sans-serif" font-size="7" lengthAdjust="spacing" textLength="88" x="294.5" y="41.3447">UploadTextInterviewModelUI</text><line style="stroke:#181818;stroke-width:0.25;" x1="280.5" x2="383.5" y1="45.6016" y2="45.6016"/><line style="stroke:#181818;stroke-width:0.25;" x1="280.5" x2="383.5" y1="49.6016" y2="49.6016"/></g><!--class UploadTextInterviewModelController--><g id="elem_UploadTextInterviewModelController"><rect codeLine="9" fill="#F1F1F1" height="30.291" id="UploadTextInterviewModelController" rx="1.25" ry="1.25" style="stroke:#181818;stroke-width:0.25;" width="129" x="267.5" y="84.3105"/><ellipse cx="275" cy="95.4561" fill="#ADD1B2" rx="5.5" ry="5.5" style="stroke:#181818;stroke-width:0.5;"/><path d="M276.3828,93.3936 Q276.4609,93.2842 276.5547,93.2295 Q276.6484,93.1748 276.7578,93.1748 Q276.9453,93.1748 277.0625,93.3076 Q277.1797,93.4326 277.1797,93.7373 L277.1797,94.4639 Q277.1797,94.7686 277.0625,94.9014 Q276.9453,95.0342 276.7578,95.0342 Q276.5859,95.0342 276.4844,94.9326 Q276.3828,94.8389 276.3281,94.5811 Q276.3047,94.4014 276.2109,94.3076 Q276.0469,94.1201 275.7422,94.0107 Q275.4375,93.9014 275.125,93.9014 Q274.7422,93.9014 274.4219,94.0654 Q274.1094,94.2295 273.8594,94.6045 Q273.6172,94.9795 273.6172,95.4951 L273.6172,96.042 Q273.6172,96.6592 274.0625,97.0732 Q274.5078,97.4795 275.3047,97.4795 Q275.7734,97.4795 276.1016,97.3545 Q276.2969,97.2764 276.5078,97.0576 Q276.6406,96.9248 276.7109,96.8857 Q276.7891,96.8467 276.8906,96.8467 Q277.0547,96.8467 277.1797,96.9795 Q277.3125,97.1045 277.3125,97.2764 Q277.3125,97.4482 277.1406,97.6514 Q276.8906,97.9404 276.4922,98.1045 Q275.9531,98.3311 275.3047,98.3311 Q274.5469,98.3311 273.9453,98.0186 Q273.4531,97.7686 273.1094,97.2373 Q272.7656,96.6982 272.7656,96.0576 L272.7656,95.4795 Q272.7656,94.8154 273.0703,94.2451 Q273.3828,93.667 273.9297,93.3623 Q274.4766,93.0498 275.0938,93.0498 Q275.4609,93.0498 275.7813,93.1357 Q276.1094,93.2139 276.3828,93.3936 Z " fill="#000000"/><text fill="#000000" font-family="sans-serif" font-size="6" font-style="italic" lengthAdjust="spacing" textLength="32.5" x="322.25" y="93.2852">&#171;controller&#187;</text><text fill="#000000" font-family="sans-serif" font-size="7" lengthAdjust="spacing" textLength="113" x="282" y="102.3447">UploadTextInterviewModelController</text><line style="stroke:#181818;stroke-width:0.25;" x1="268" x2="396" y1="106.6016" y2="106.6016"/><line style="stroke:#181818;stroke-width:0.25;" x1="268" x2="396" y1="110.6016" y2="110.6016"/></g><!--class InterviewManagementService--><g id="elem_InterviewManagementService"><rect codeLine="10" fill="#F1F1F1" height="30.291" id="InterviewManagementService" rx="1.25" ry="1.25" style="stroke:#181818;stroke-width:0.25;" width="108" x="3.5" y="154.3105"/><ellipse cx="11" cy="165.4561" fill="#ADD1B2" rx="5.5" ry="5.5" style="stroke:#181818;stroke-width:0.5;"/><path d="M12.3828,163.3936 Q12.4609,163.2842 12.5547,163.2295 Q12.6484,163.1748 12.7578,163.1748 Q12.9453,163.1748 13.0625,163.3076 Q13.1797,163.4326 13.1797,163.7373 L13.1797,164.4639 Q13.1797,164.7686 13.0625,164.9014 Q12.9453,165.0342 12.7578,165.0342 Q12.5859,165.0342 12.4844,164.9326 Q12.3828,164.8389 12.3281,164.5811 Q12.3047,164.4014 12.2109,164.3076 Q12.0469,164.1201 11.7422,164.0107 Q11.4375,163.9014 11.125,163.9014 Q10.7422,163.9014 10.4219,164.0654 Q10.1094,164.2295 9.8594,164.6045 Q9.6172,164.9795 9.6172,165.4951 L9.6172,166.042 Q9.6172,166.6592 10.0625,167.0732 Q10.5078,167.4795 11.3047,167.4795 Q11.7734,167.4795 12.1016,167.3545 Q12.2969,167.2764 12.5078,167.0576 Q12.6406,166.9248 12.7109,166.8857 Q12.7891,166.8467 12.8906,166.8467 Q13.0547,166.8467 13.1797,166.9795 Q13.3125,167.1045 13.3125,167.2764 Q13.3125,167.4482 13.1406,167.6514 Q12.8906,167.9404 12.4922,168.1045 Q11.9531,168.3311 11.3047,168.3311 Q10.5469,168.3311 9.9453,168.0186 Q9.4531,167.7686 9.1094,167.2373 Q8.7656,166.6982 8.7656,166.0576 L8.7656,165.4795 Q8.7656,164.8154 9.0703,164.2451 Q9.3828,163.667 9.9297,163.3623 Q10.4766,163.0498 11.0938,163.0498 Q11.4609,163.0498 11.7813,163.1357 Q12.1094,163.2139 12.3828,163.3936 Z " fill="#000000"/><text fill="#000000" font-family="sans-serif" font-size="6" font-style="italic" lengthAdjust="spacing" textLength="26.5" x="50.75" y="163.2852">&#171;service&#187;</text><text fill="#000000" font-family="sans-serif" font-size="7" lengthAdjust="spacing" textLength="92" x="18" y="172.3447">InterviewManagementService</text><line style="stroke:#181818;stroke-width:0.25;" x1="4" x2="111" y1="176.6016" y2="176.6016"/><line style="stroke:#181818;stroke-width:0.25;" x1="4" x2="111" y1="180.6016" y2="180.6016"/></g><!--class JobApplicationManagementService--><g id="elem_JobApplicationManagementService"><rect codeLine="11" fill="#F1F1F1" height="30.291" id="JobApplicationManagementService" rx="1.25" ry="1.25" style="stroke:#181818;stroke-width:0.25;" width="126" x="129" y="154.3105"/><ellipse cx="136.5" cy="165.4561" fill="#ADD1B2" rx="5.5" ry="5.5" style="stroke:#181818;stroke-width:0.5;"/><path d="M137.8828,163.3936 Q137.9609,163.2842 138.0547,163.2295 Q138.1484,163.1748 138.2578,163.1748 Q138.4453,163.1748 138.5625,163.3076 Q138.6797,163.4326 138.6797,163.7373 L138.6797,164.4639 Q138.6797,164.7686 138.5625,164.9014 Q138.4453,165.0342 138.2578,165.0342 Q138.0859,165.0342 137.9844,164.9326 Q137.8828,164.8389 137.8281,164.5811 Q137.8047,164.4014 137.7109,164.3076 Q137.5469,164.1201 137.2422,164.0107 Q136.9375,163.9014 136.625,163.9014 Q136.2422,163.9014 135.9219,164.0654 Q135.6094,164.2295 135.3594,164.6045 Q135.1172,164.9795 135.1172,165.4951 L135.1172,166.042 Q135.1172,166.6592 135.5625,167.0732 Q136.0078,167.4795 136.8047,167.4795 Q137.2734,167.4795 137.6016,167.3545 Q137.7969,167.2764 138.0078,167.0576 Q138.1406,166.9248 138.2109,166.8857 Q138.2891,166.8467 138.3906,166.8467 Q138.5547,166.8467 138.6797,166.9795 Q138.8125,167.1045 138.8125,167.2764 Q138.8125,167.4482 138.6406,167.6514 Q138.3906,167.9404 137.9922,168.1045 Q137.4531,168.3311 136.8047,168.3311 Q136.0469,168.3311 135.4453,168.0186 Q134.9531,167.7686 134.6094,167.2373 Q134.2656,166.6982 134.2656,166.0576 L134.2656,165.4795 Q134.2656,164.8154 134.5703,164.2451 Q134.8828,163.667 135.4297,163.3623 Q135.9766,163.0498 136.5938,163.0498 Q136.9609,163.0498 137.2813,163.1357 Q137.6094,163.2139 137.8828,163.3936 Z " fill="#000000"/><text fill="#000000" font-family="sans-serif" font-size="6" font-style="italic" lengthAdjust="spacing" textLength="26.5" x="185.25" y="163.2852">&#171;service&#187;</text><text fill="#000000" font-family="sans-serif" font-size="7" lengthAdjust="spacing" textLength="110" x="143.5" y="172.3447">JobApplicationManagementService</text><line style="stroke:#181818;stroke-width:0.25;" x1="129.5" x2="254.5" y1="176.6016" y2="176.6016"/><line style="stroke:#181818;stroke-width:0.25;" x1="129.5" x2="254.5" y1="180.6016" y2="180.6016"/></g><!--class JobOpeningManagementService--><g id="elem_JobOpeningManagementService"><rect codeLine="12" fill="#F1F1F1" height="30.291" id="JobOpeningManagementService" rx="1.25" ry="1.25" style="stroke:#181818;stroke-width:0.25;" width="118.5" x="272.75" y="154.3105"/><ellipse cx="280.25" cy="165.4561" fill="#ADD1B2" rx="5.5" ry="5.5" style="stroke:#181818;stroke-width:0.5;"/><path d="M281.6328,163.3936 Q281.7109,163.2842 281.8047,163.2295 Q281.8984,163.1748 282.0078,163.1748 Q282.1953,163.1748 282.3125,163.3076 Q282.4297,163.4326 282.4297,163.7373 L282.4297,164.4639 Q282.4297,164.7686 282.3125,164.9014 Q282.1953,165.0342 282.0078,165.0342 Q281.8359,165.0342 281.7344,164.9326 Q281.6328,164.8389 281.5781,164.5811 Q281.5547,164.4014 281.4609,164.3076 Q281.2969,164.1201 280.9922,164.0107 Q280.6875,163.9014 280.375,163.9014 Q279.9922,163.9014 279.6719,164.0654 Q279.3594,164.2295 279.1094,164.6045 Q278.8672,164.9795 278.8672,165.4951 L278.8672,166.042 Q278.8672,166.6592 279.3125,167.0732 Q279.7578,167.4795 280.5547,167.4795 Q281.0234,167.4795 281.3516,167.3545 Q281.5469,167.2764 281.7578,167.0576 Q281.8906,166.9248 281.9609,166.8857 Q282.0391,166.8467 282.1406,166.8467 Q282.3047,166.8467 282.4297,166.9795 Q282.5625,167.1045 282.5625,167.2764 Q282.5625,167.4482 282.3906,167.6514 Q282.1406,167.9404 281.7422,168.1045 Q281.2031,168.3311 280.5547,168.3311 Q279.7969,168.3311 279.1953,168.0186 Q278.7031,167.7686 278.3594,167.2373 Q278.0156,166.6982 278.0156,166.0576 L278.0156,165.4795 Q278.0156,164.8154 278.3203,164.2451 Q278.6328,163.667 279.1797,163.3623 Q279.7266,163.0498 280.3438,163.0498 Q280.7109,163.0498 281.0313,163.1357 Q281.3594,163.2139 281.6328,163.3936 Z " fill="#000000"/><text fill="#000000" font-family="sans-serif" font-size="6" font-style="italic" lengthAdjust="spacing" textLength="26.5" x="325.25" y="163.2852">&#171;service&#187;</text><text fill="#000000" font-family="sans-serif" font-size="7" lengthAdjust="spacing" textLength="102.5" x="287.25" y="172.3447">JobOpeningManagementService</text><line style="stroke:#181818;stroke-width:0.25;" x1="273.25" x2="390.75" y1="176.6016" y2="176.6016"/><line style="stroke:#181818;stroke-width:0.25;" x1="273.25" x2="390.75" y1="180.6016" y2="180.6016"/></g><!--class JobApplicationRepository--><g id="elem_JobApplicationRepository"><rect codeLine="13" fill="#F1F1F1" height="30.291" id="JobApplicationRepository" rx="1.25" ry="1.25" style="stroke:#181818;stroke-width:0.25;" width="95.5" x="408.75" y="154.3105"/><ellipse cx="416.25" cy="165.4561" fill="#ADD1B2" rx="5.5" ry="5.5" style="stroke:#181818;stroke-width:0.5;"/><path d="M417.6328,163.3936 Q417.7109,163.2842 417.8047,163.2295 Q417.8984,163.1748 418.0078,163.1748 Q418.1953,163.1748 418.3125,163.3076 Q418.4297,163.4326 418.4297,163.7373 L418.4297,164.4639 Q418.4297,164.7686 418.3125,164.9014 Q418.1953,165.0342 418.0078,165.0342 Q417.8359,165.0342 417.7344,164.9326 Q417.6328,164.8389 417.5781,164.5811 Q417.5547,164.4014 417.4609,164.3076 Q417.2969,164.1201 416.9922,164.0107 Q416.6875,163.9014 416.375,163.9014 Q415.9922,163.9014 415.6719,164.0654 Q415.3594,164.2295 415.1094,164.6045 Q414.8672,164.9795 414.8672,165.4951 L414.8672,166.042 Q414.8672,166.6592 415.3125,167.0732 Q415.7578,167.4795 416.5547,167.4795 Q417.0234,167.4795 417.3516,167.3545 Q417.5469,167.2764 417.7578,167.0576 Q417.8906,166.9248 417.9609,166.8857 Q418.0391,166.8467 418.1406,166.8467 Q418.3047,166.8467 418.4297,166.9795 Q418.5625,167.1045 418.5625,167.2764 Q418.5625,167.4482 418.3906,167.6514 Q418.1406,167.9404 417.7422,168.1045 Q417.2031,168.3311 416.5547,168.3311 Q415.7969,168.3311 415.1953,168.0186 Q414.7031,167.7686 414.3594,167.2373 Q414.0156,166.6982 414.0156,166.0576 L414.0156,165.4795 Q414.0156,164.8154 414.3203,164.2451 Q414.6328,163.667 415.1797,163.3623 Q415.7266,163.0498 416.3438,163.0498 Q416.7109,163.0498 417.0313,163.1357 Q417.3594,163.2139 417.6328,163.3936 Z " fill="#000000"/><text fill="#000000" font-family="sans-serif" font-size="6" font-style="italic" lengthAdjust="spacing" textLength="34" x="446" y="163.2852">&#171;repository&#187;</text><text fill="#000000" font-family="sans-serif" font-size="7" lengthAdjust="spacing" textLength="79.5" x="423.25" y="172.3447">JobApplicationRepository</text><line style="stroke:#181818;stroke-width:0.25;" x1="409.25" x2="503.75" y1="176.6016" y2="176.6016"/><line style="stroke:#181818;stroke-width:0.25;" x1="409.25" x2="503.75" y1="180.6016" y2="180.6016"/></g><!--class JobOpeningRepository--><g id="elem_JobOpeningRepository"><rect codeLine="14" fill="#F1F1F1" height="30.291" id="JobOpeningRepository" rx="1.25" ry="1.25" style="stroke:#181818;stroke-width:0.25;" width="88" x="522" y="154.3105"/><ellipse cx="529.5" cy="165.4561" fill="#ADD1B2" rx="5.5" ry="5.5" style="stroke:#181818;stroke-width:0.5;"/><path d="M530.8828,163.3936 Q530.9609,163.2842 531.0547,163.2295 Q531.1484,163.1748 531.2578,163.1748 Q531.4453,163.1748 531.5625,163.3076 Q531.6797,163.4326 531.6797,163.7373 L531.6797,164.4639 Q531.6797,164.7686 531.5625,164.9014 Q531.4453,165.0342 531.2578,165.0342 Q531.0859,165.0342 530.9844,164.9326 Q530.8828,164.8389 530.8281,164.5811 Q530.8047,164.4014 530.7109,164.3076 Q530.5469,164.1201 530.2422,164.0107 Q529.9375,163.9014 529.625,163.9014 Q529.2422,163.9014 528.9219,164.0654 Q528.6094,164.2295 528.3594,164.6045 Q528.1172,164.9795 528.1172,165.4951 L528.1172,166.042 Q528.1172,166.6592 528.5625,167.0732 Q529.0078,167.4795 529.8047,167.4795 Q530.2734,167.4795 530.6016,167.3545 Q530.7969,167.2764 531.0078,167.0576 Q531.1406,166.9248 531.2109,166.8857 Q531.2891,166.8467 531.3906,166.8467 Q531.5547,166.8467 531.6797,166.9795 Q531.8125,167.1045 531.8125,167.2764 Q531.8125,167.4482 531.6406,167.6514 Q531.3906,167.9404 530.9922,168.1045 Q530.4531,168.3311 529.8047,168.3311 Q529.0469,168.3311 528.4453,168.0186 Q527.9531,167.7686 527.6094,167.2373 Q527.2656,166.6982 527.2656,166.0576 L527.2656,165.4795 Q527.2656,164.8154 527.5703,164.2451 Q527.8828,163.667 528.4297,163.3623 Q528.9766,163.0498 529.5938,163.0498 Q529.9609,163.0498 530.2813,163.1357 Q530.6094,163.2139 530.8828,163.3936 Z " fill="#000000"/><text fill="#000000" font-family="sans-serif" font-size="6" font-style="italic" lengthAdjust="spacing" textLength="34" x="555.5" y="163.2852">&#171;repository&#187;</text><text fill="#000000" font-family="sans-serif" font-size="7" lengthAdjust="spacing" textLength="72" x="536.5" y="172.3447">JobOpeningRepository</text><line style="stroke:#181818;stroke-width:0.25;" x1="522.5" x2="609.5" y1="176.6016" y2="176.6016"/><line style="stroke:#181818;stroke-width:0.25;" x1="522.5" x2="609.5" y1="180.6016" y2="180.6016"/></g><!--class InterviewModelRepository--><g id="elem_InterviewModelRepository"><rect codeLine="15" fill="#F1F1F1" height="30.291" id="InterviewModelRepository" rx="1.25" ry="1.25" style="stroke:#181818;stroke-width:0.25;" width="96.5" x="730.25" y="224.3105"/><ellipse cx="737.75" cy="235.4561" fill="#ADD1B2" rx="5.5" ry="5.5" style="stroke:#181818;stroke-width:0.5;"/><path d="M739.1328,233.3936 Q739.2109,233.2842 739.3047,233.2295 Q739.3984,233.1748 739.5078,233.1748 Q739.6953,233.1748 739.8125,233.3076 Q739.9297,233.4326 739.9297,233.7373 L739.9297,234.4639 Q739.9297,234.7686 739.8125,234.9014 Q739.6953,235.0342 739.5078,235.0342 Q739.3359,235.0342 739.2344,234.9326 Q739.1328,234.8389 739.0781,234.5811 Q739.0547,234.4014 738.9609,234.3076 Q738.7969,234.1201 738.4922,234.0107 Q738.1875,233.9014 737.875,233.9014 Q737.4922,233.9014 737.1719,234.0654 Q736.8594,234.2295 736.6094,234.6045 Q736.3672,234.9795 736.3672,235.4951 L736.3672,236.042 Q736.3672,236.6592 736.8125,237.0732 Q737.2578,237.4795 738.0547,237.4795 Q738.5234,237.4795 738.8516,237.3545 Q739.0469,237.2764 739.2578,237.0576 Q739.3906,236.9248 739.4609,236.8857 Q739.5391,236.8467 739.6406,236.8467 Q739.8047,236.8467 739.9297,236.9795 Q740.0625,237.1045 740.0625,237.2764 Q740.0625,237.4482 739.8906,237.6514 Q739.6406,237.9404 739.2422,238.1045 Q738.7031,238.3311 738.0547,238.3311 Q737.2969,238.3311 736.6953,238.0186 Q736.2031,237.7686 735.8594,237.2373 Q735.5156,236.6982 735.5156,236.0576 L735.5156,235.4795 Q735.5156,234.8154 735.8203,234.2451 Q736.1328,233.667 736.6797,233.3623 Q737.2266,233.0498 737.8438,233.0498 Q738.2109,233.0498 738.5313,233.1357 Q738.8594,233.2139 739.1328,233.3936 Z " fill="#000000"/><text fill="#000000" font-family="sans-serif" font-size="6" font-style="italic" lengthAdjust="spacing" textLength="34" x="768" y="233.2852">&#171;repository&#187;</text><text fill="#000000" font-family="sans-serif" font-size="7" lengthAdjust="spacing" textLength="80.5" x="744.75" y="242.3447">InterviewModelRepository</text><line style="stroke:#181818;stroke-width:0.25;" x1="730.75" x2="826.25" y1="246.6016" y2="246.6016"/><line style="stroke:#181818;stroke-width:0.25;" x1="730.75" x2="826.25" y1="250.6016" y2="250.6016"/></g><!--class RepositoryFactory--><g id="elem_RepositoryFactory"><rect codeLine="16" fill="#F1F1F1" height="30.291" id="RepositoryFactory" rx="1.25" ry="1.25" style="stroke:#181818;stroke-width:0.25;" width="74" x="489.5" y="224.3105"/><ellipse cx="497" cy="235.4561" fill="#ADD1B2" rx="5.5" ry="5.5" style="stroke:#181818;stroke-width:0.5;"/><path d="M498.3828,233.3936 Q498.4609,233.2842 498.5547,233.2295 Q498.6484,233.1748 498.7578,233.1748 Q498.9453,233.1748 499.0625,233.3076 Q499.1797,233.4326 499.1797,233.7373 L499.1797,234.4639 Q499.1797,234.7686 499.0625,234.9014 Q498.9453,235.0342 498.7578,235.0342 Q498.5859,235.0342 498.4844,234.9326 Q498.3828,234.8389 498.3281,234.5811 Q498.3047,234.4014 498.2109,234.3076 Q498.0469,234.1201 497.7422,234.0107 Q497.4375,233.9014 497.125,233.9014 Q496.7422,233.9014 496.4219,234.0654 Q496.1094,234.2295 495.8594,234.6045 Q495.6172,234.9795 495.6172,235.4951 L495.6172,236.042 Q495.6172,236.6592 496.0625,237.0732 Q496.5078,237.4795 497.3047,237.4795 Q497.7734,237.4795 498.1016,237.3545 Q498.2969,237.2764 498.5078,237.0576 Q498.6406,236.9248 498.7109,236.8857 Q498.7891,236.8467 498.8906,236.8467 Q499.0547,236.8467 499.1797,236.9795 Q499.3125,237.1045 499.3125,237.2764 Q499.3125,237.4482 499.1406,237.6514 Q498.8906,237.9404 498.4922,238.1045 Q497.9531,238.3311 497.3047,238.3311 Q496.5469,238.3311 495.9453,238.0186 Q495.4531,237.7686 495.1094,237.2373 Q494.7656,236.6982 494.7656,236.0576 L494.7656,235.4795 Q494.7656,234.8154 495.0703,234.2451 Q495.3828,233.667 495.9297,233.3623 Q496.4766,233.0498 497.0938,233.0498 Q497.4609,233.0498 497.7813,233.1357 Q498.1094,233.2139 498.3828,233.3936 Z " fill="#000000"/><text fill="#000000" font-family="sans-serif" font-size="6" font-style="italic" lengthAdjust="spacing" textLength="25" x="520.5" y="233.2852">&#171;factory&#187;</text><text fill="#000000" font-family="sans-serif" font-size="7" lengthAdjust="spacing" textLength="58" x="504" y="242.3447">RepositoryFactory</text><line style="stroke:#181818;stroke-width:0.25;" x1="490" x2="563" y1="246.6016" y2="246.6016"/><line style="stroke:#181818;stroke-width:0.25;" x1="490" x2="563" y1="250.6016" y2="250.6016"/></g><!--class JobApplication--><g id="elem_JobApplication"><rect codeLine="17" fill="#F1F1F1" height="30.291" id="JobApplication" rx="1.25" ry="1.25" style="stroke:#181818;stroke-width:0.25;" width="61.5" x="461.25" y="305.8105"/><ellipse cx="468.75" cy="316.9561" fill="#ADD1B2" rx="5.5" ry="5.5" style="stroke:#181818;stroke-width:0.5;"/><path d="M470.1328,314.8936 Q470.2109,314.7842 470.3047,314.7295 Q470.3984,314.6748 470.5078,314.6748 Q470.6953,314.6748 470.8125,314.8076 Q470.9297,314.9326 470.9297,315.2373 L470.9297,315.9639 Q470.9297,316.2686 470.8125,316.4014 Q470.6953,316.5342 470.5078,316.5342 Q470.3359,316.5342 470.2344,316.4326 Q470.1328,316.3389 470.0781,316.0811 Q470.0547,315.9014 469.9609,315.8076 Q469.7969,315.6201 469.4922,315.5107 Q469.1875,315.4014 468.875,315.4014 Q468.4922,315.4014 468.1719,315.5654 Q467.8594,315.7295 467.6094,316.1045 Q467.3672,316.4795 467.3672,316.9951 L467.3672,317.542 Q467.3672,318.1592 467.8125,318.5732 Q468.2578,318.9795 469.0547,318.9795 Q469.5234,318.9795 469.8516,318.8545 Q470.0469,318.7764 470.2578,318.5576 Q470.3906,318.4248 470.4609,318.3857 Q470.5391,318.3467 470.6406,318.3467 Q470.8047,318.3467 470.9297,318.4795 Q471.0625,318.6045 471.0625,318.7764 Q471.0625,318.9482 470.8906,319.1514 Q470.6406,319.4404 470.2422,319.6045 Q469.7031,319.8311 469.0547,319.8311 Q468.2969,319.8311 467.6953,319.5186 Q467.2031,319.2686 466.8594,318.7373 Q466.5156,318.1982 466.5156,317.5576 L466.5156,316.9795 Q466.5156,316.3154 466.8203,315.7451 Q467.1328,315.167 467.6797,314.8623 Q468.2266,314.5498 468.8438,314.5498 Q469.2109,314.5498 469.5313,314.6357 Q469.8594,314.7139 470.1328,314.8936 Z " fill="#000000"/><text fill="#000000" font-family="sans-serif" font-size="6" font-style="italic" lengthAdjust="spacing" textLength="17.5" x="489.75" y="314.7852">&#171;root&#187;</text><text fill="#000000" font-family="sans-serif" font-size="7" lengthAdjust="spacing" textLength="45.5" x="475.75" y="323.8447">JobApplication</text><line style="stroke:#181818;stroke-width:0.25;" x1="461.75" x2="522.25" y1="328.1016" y2="328.1016"/><line style="stroke:#181818;stroke-width:0.25;" x1="461.75" x2="522.25" y1="332.1016" y2="332.1016"/></g><!--class JobOpening--><g id="elem_JobOpening"><rect codeLine="18" fill="#F1F1F1" height="30.291" id="JobOpening" rx="1.25" ry="1.25" style="stroke:#181818;stroke-width:0.25;" width="54" x="581" y="224.3105"/><ellipse cx="588.5" cy="235.4561" fill="#ADD1B2" rx="5.5" ry="5.5" style="stroke:#181818;stroke-width:0.5;"/><path d="M589.8828,233.3936 Q589.9609,233.2842 590.0547,233.2295 Q590.1484,233.1748 590.2578,233.1748 Q590.4453,233.1748 590.5625,233.3076 Q590.6797,233.4326 590.6797,233.7373 L590.6797,234.4639 Q590.6797,234.7686 590.5625,234.9014 Q590.4453,235.0342 590.2578,235.0342 Q590.0859,235.0342 589.9844,234.9326 Q589.8828,234.8389 589.8281,234.5811 Q589.8047,234.4014 589.7109,234.3076 Q589.5469,234.1201 589.2422,234.0107 Q588.9375,233.9014 588.625,233.9014 Q588.2422,233.9014 587.9219,234.0654 Q587.6094,234.2295 587.3594,234.6045 Q587.1172,234.9795 587.1172,235.4951 L587.1172,236.042 Q587.1172,236.6592 587.5625,237.0732 Q588.0078,237.4795 588.8047,237.4795 Q589.2734,237.4795 589.6016,237.3545 Q589.7969,237.2764 590.0078,237.0576 Q590.1406,236.9248 590.2109,236.8857 Q590.2891,236.8467 590.3906,236.8467 Q590.5547,236.8467 590.6797,236.9795 Q590.8125,237.1045 590.8125,237.2764 Q590.8125,237.4482 590.6406,237.6514 Q590.3906,237.9404 589.9922,238.1045 Q589.4531,238.3311 588.8047,238.3311 Q588.0469,238.3311 587.4453,238.0186 Q586.9531,237.7686 586.6094,237.2373 Q586.2656,236.6982 586.2656,236.0576 L586.2656,235.4795 Q586.2656,234.8154 586.5703,234.2451 Q586.8828,233.667 587.4297,233.3623 Q587.9766,233.0498 588.5938,233.0498 Q588.9609,233.0498 589.2813,233.1357 Q589.6094,233.2139 589.8828,233.3936 Z " fill="#000000"/><text fill="#000000" font-family="sans-serif" font-size="6" font-style="italic" lengthAdjust="spacing" textLength="17.5" x="605.75" y="233.2852">&#171;root&#187;</text><text fill="#000000" font-family="sans-serif" font-size="7" lengthAdjust="spacing" textLength="38" x="595.5" y="242.3447">JobOpening</text><line style="stroke:#181818;stroke-width:0.25;" x1="581.5" x2="634.5" y1="246.6016" y2="246.6016"/><line style="stroke:#181818;stroke-width:0.25;" x1="581.5" x2="634.5" y1="250.6016" y2="250.6016"/></g><!--class JobOpeningBuilder--><g id="elem_JobOpeningBuilder"><rect codeLine="20" fill="#F1F1F1" height="30.291" id="JobOpeningBuilder" rx="1.25" ry="1.25" style="stroke:#181818;stroke-width:0.25;" width="76" x="294" y="224.3105"/><ellipse cx="301.5" cy="235.4561" fill="#ADD1B2" rx="5.5" ry="5.5" style="stroke:#181818;stroke-width:0.5;"/><path d="M302.8828,233.3936 Q302.9609,233.2842 303.0547,233.2295 Q303.1484,233.1748 303.2578,233.1748 Q303.4453,233.1748 303.5625,233.3076 Q303.6797,233.4326 303.6797,233.7373 L303.6797,234.4639 Q303.6797,234.7686 303.5625,234.9014 Q303.4453,235.0342 303.2578,235.0342 Q303.0859,235.0342 302.9844,234.9326 Q302.8828,234.8389 302.8281,234.5811 Q302.8047,234.4014 302.7109,234.3076 Q302.5469,234.1201 302.2422,234.0107 Q301.9375,233.9014 301.625,233.9014 Q301.2422,233.9014 300.9219,234.0654 Q300.6094,234.2295 300.3594,234.6045 Q300.1172,234.9795 300.1172,235.4951 L300.1172,236.042 Q300.1172,236.6592 300.5625,237.0732 Q301.0078,237.4795 301.8047,237.4795 Q302.2734,237.4795 302.6016,237.3545 Q302.7969,237.2764 303.0078,237.0576 Q303.1406,236.9248 303.2109,236.8857 Q303.2891,236.8467 303.3906,236.8467 Q303.5547,236.8467 303.6797,236.9795 Q303.8125,237.1045 303.8125,237.2764 Q303.8125,237.4482 303.6406,237.6514 Q303.3906,237.9404 302.9922,238.1045 Q302.4531,238.3311 301.8047,238.3311 Q301.0469,238.3311 300.4453,238.0186 Q299.9531,237.7686 299.6094,237.2373 Q299.2656,236.6982 299.2656,236.0576 L299.2656,235.4795 Q299.2656,234.8154 299.5703,234.2451 Q299.8828,233.667 300.4297,233.3623 Q300.9766,233.0498 301.5938,233.0498 Q301.9609,233.0498 302.2813,233.1357 Q302.6094,233.2139 302.8828,233.3936 Z " fill="#000000"/><text fill="#000000" font-family="sans-serif" font-size="6" font-style="italic" lengthAdjust="spacing" textLength="26.5" x="325.25" y="233.2852">&#171;builder&#187;</text><text fill="#000000" font-family="sans-serif" font-size="7" lengthAdjust="spacing" textLength="60" x="308.5" y="242.3447">JobOpeningBuilder</text><line style="stroke:#181818;stroke-width:0.25;" x1="294.5" x2="369.5" y1="246.6016" y2="246.6016"/><line style="stroke:#181818;stroke-width:0.25;" x1="294.5" x2="369.5" y1="250.6016" y2="250.6016"/></g><!--class JobApplicationBuilder--><g id="elem_JobApplicationBuilder"><rect codeLine="21" fill="#F1F1F1" height="30.291" id="JobApplicationBuilder" rx="1.25" ry="1.25" style="stroke:#181818;stroke-width:0.25;" width="83.5" x="150.25" y="224.3105"/><ellipse cx="157.75" cy="235.4561" fill="#ADD1B2" rx="5.5" ry="5.5" style="stroke:#181818;stroke-width:0.5;"/><path d="M159.1328,233.3936 Q159.2109,233.2842 159.3047,233.2295 Q159.3984,233.1748 159.5078,233.1748 Q159.6953,233.1748 159.8125,233.3076 Q159.9297,233.4326 159.9297,233.7373 L159.9297,234.4639 Q159.9297,234.7686 159.8125,234.9014 Q159.6953,235.0342 159.5078,235.0342 Q159.3359,235.0342 159.2344,234.9326 Q159.1328,234.8389 159.0781,234.5811 Q159.0547,234.4014 158.9609,234.3076 Q158.7969,234.1201 158.4922,234.0107 Q158.1875,233.9014 157.875,233.9014 Q157.4922,233.9014 157.1719,234.0654 Q156.8594,234.2295 156.6094,234.6045 Q156.3672,234.9795 156.3672,235.4951 L156.3672,236.042 Q156.3672,236.6592 156.8125,237.0732 Q157.2578,237.4795 158.0547,237.4795 Q158.5234,237.4795 158.8516,237.3545 Q159.0469,237.2764 159.2578,237.0576 Q159.3906,236.9248 159.4609,236.8857 Q159.5391,236.8467 159.6406,236.8467 Q159.8047,236.8467 159.9297,236.9795 Q160.0625,237.1045 160.0625,237.2764 Q160.0625,237.4482 159.8906,237.6514 Q159.6406,237.9404 159.2422,238.1045 Q158.7031,238.3311 158.0547,238.3311 Q157.2969,238.3311 156.6953,238.0186 Q156.2031,237.7686 155.8594,237.2373 Q155.5156,236.6982 155.5156,236.0576 L155.5156,235.4795 Q155.5156,234.8154 155.8203,234.2451 Q156.1328,233.667 156.6797,233.3623 Q157.2266,233.0498 157.8438,233.0498 Q158.2109,233.0498 158.5313,233.1357 Q158.8594,233.2139 159.1328,233.3936 Z " fill="#000000"/><text fill="#000000" font-family="sans-serif" font-size="6" font-style="italic" lengthAdjust="spacing" textLength="26.5" x="185.25" y="233.2852">&#171;builder&#187;</text><text fill="#000000" font-family="sans-serif" font-size="7" lengthAdjust="spacing" textLength="67.5" x="164.75" y="242.3447">JobApplicationBuilder</text><line style="stroke:#181818;stroke-width:0.25;" x1="150.75" x2="233.25" y1="246.6016" y2="246.6016"/><line style="stroke:#181818;stroke-width:0.25;" x1="150.75" x2="233.25" y1="250.6016" y2="250.6016"/></g><!--class JobReference--><g id="elem_JobReference"><rect codeLine="23" fill="#F1F1F1" height="30.291" id="JobReference" rx="1.25" ry="1.25" style="stroke:#181818;stroke-width:0.25;" width="60" x="652.5" y="224.3105"/><ellipse cx="660" cy="235.4561" fill="#ADD1B2" rx="5.5" ry="5.5" style="stroke:#181818;stroke-width:0.5;"/><path d="M661.3828,233.3936 Q661.4609,233.2842 661.5547,233.2295 Q661.6484,233.1748 661.7578,233.1748 Q661.9453,233.1748 662.0625,233.3076 Q662.1797,233.4326 662.1797,233.7373 L662.1797,234.4639 Q662.1797,234.7686 662.0625,234.9014 Q661.9453,235.0342 661.7578,235.0342 Q661.5859,235.0342 661.4844,234.9326 Q661.3828,234.8389 661.3281,234.5811 Q661.3047,234.4014 661.2109,234.3076 Q661.0469,234.1201 660.7422,234.0107 Q660.4375,233.9014 660.125,233.9014 Q659.7422,233.9014 659.4219,234.0654 Q659.1094,234.2295 658.8594,234.6045 Q658.6172,234.9795 658.6172,235.4951 L658.6172,236.042 Q658.6172,236.6592 659.0625,237.0732 Q659.5078,237.4795 660.3047,237.4795 Q660.7734,237.4795 661.1016,237.3545 Q661.2969,237.2764 661.5078,237.0576 Q661.6406,236.9248 661.7109,236.8857 Q661.7891,236.8467 661.8906,236.8467 Q662.0547,236.8467 662.1797,236.9795 Q662.3125,237.1045 662.3125,237.2764 Q662.3125,237.4482 662.1406,237.6514 Q661.8906,237.9404 661.4922,238.1045 Q660.9531,238.3311 660.3047,238.3311 Q659.5469,238.3311 658.9453,238.0186 Q658.4531,237.7686 658.1094,237.2373 Q657.7656,236.6982 657.7656,236.0576 L657.7656,235.4795 Q657.7656,234.8154 658.0703,234.2451 Q658.3828,233.667 658.9297,233.3623 Q659.4766,233.0498 660.0938,233.0498 Q660.4609,233.0498 660.7813,233.1357 Q661.1094,233.2139 661.3828,233.3936 Z " fill="#000000"/><text fill="#000000" font-family="sans-serif" font-size="6" font-style="italic" lengthAdjust="spacing" textLength="22" x="678" y="233.2852">&#171;value&#187;</text><text fill="#000000" font-family="sans-serif" font-size="7" lengthAdjust="spacing" textLength="44" x="667" y="242.3447">JobReference</text><line style="stroke:#181818;stroke-width:0.25;" x1="653" x2="712" y1="246.6016" y2="246.6016"/><line style="stroke:#181818;stroke-width:0.25;" x1="653" x2="712" y1="250.6016" y2="250.6016"/></g><!--class InterviewModelBuilder--><g id="elem_InterviewModelBuilder"><rect fill="#F1F1F1" height="24" id="InterviewModelBuilder" rx="1.25" ry="1.25" style="stroke:#181818;stroke-width:0.25;" width="84.5" x="15.25" y="227.5605"/><ellipse cx="22.75" cy="235.5605" fill="#ADD1B2" rx="5.5" ry="5.5" style="stroke:#181818;stroke-width:0.5;"/><path d="M24.1328,233.498 Q24.2109,233.3887 24.3047,233.334 Q24.3984,233.2793 24.5078,233.2793 Q24.6953,233.2793 24.8125,233.4121 Q24.9297,233.5371 24.9297,233.8418 L24.9297,234.5684 Q24.9297,234.873 24.8125,235.0059 Q24.6953,235.1387 24.5078,235.1387 Q24.3359,235.1387 24.2344,235.0371 Q24.1328,234.9434 24.0781,234.6855 Q24.0547,234.5059 23.9609,234.4121 Q23.7969,234.2246 23.4922,234.1152 Q23.1875,234.0059 22.875,234.0059 Q22.4922,234.0059 22.1719,234.1699 Q21.8594,234.334 21.6094,234.709 Q21.3672,235.084 21.3672,235.5996 L21.3672,236.1465 Q21.3672,236.7637 21.8125,237.1777 Q22.2578,237.584 23.0547,237.584 Q23.5234,237.584 23.8516,237.459 Q24.0469,237.3809 24.2578,237.1621 Q24.3906,237.0293 24.4609,236.9902 Q24.5391,236.9512 24.6406,236.9512 Q24.8047,236.9512 24.9297,237.084 Q25.0625,237.209 25.0625,237.3809 Q25.0625,237.5527 24.8906,237.7559 Q24.6406,238.0449 24.2422,238.209 Q23.7031,238.4355 23.0547,238.4355 Q22.2969,238.4355 21.6953,238.123 Q21.2031,237.873 20.8594,237.3418 Q20.5156,236.8027 20.5156,236.1621 L20.5156,235.584 Q20.5156,234.9199 20.8203,234.3496 Q21.1328,233.7715 21.6797,233.4668 Q22.2266,233.1543 22.8438,233.1543 Q23.2109,233.1543 23.5313,233.2402 Q23.8594,233.3184 24.1328,233.498 Z " fill="#000000"/><text fill="#000000" font-family="sans-serif" font-size="7" lengthAdjust="spacing" textLength="68.5" x="29.75" y="238.459">InterviewModelBuilder</text><line style="stroke:#181818;stroke-width:0.25;" x1="15.75" x2="99.25" y1="243.5605" y2="243.5605"/><line style="stroke:#181818;stroke-width:0.25;" x1="15.75" x2="99.25" y1="247.5605" y2="247.5605"/></g><!--link UploadTextInterviewModelUI to UploadTextInterviewModelController--><g id="link_UploadTextInterviewModelUI_UploadTextInterviewModelController"><path codeLine="33" d="M332,53.8905 C332,63.1205 332,71.9555 332,81.1905 " fill="none" id="UploadTextInterviewModelUI-to-UploadTextInterviewModelController" style="stroke:#181818;stroke-width:0.5;stroke-dasharray:7.0,7.0;"/><polygon fill="#181818" points="332,84.1905,334,79.6905,332,81.6905,330,79.6905,332,84.1905" style="stroke:#181818;stroke-width:0.5;"/></g><!--link UploadTextInterviewModelController to InterviewManagementService--><g id="link_UploadTextInterviewModelController_InterviewManagementService"><path codeLine="35" d="M273.28,114.8205 C225.405,126.8555 161.2195,142.9893 114.6045,154.7043 " fill="none" id="UploadTextInterviewModelController-to-InterviewManagementService" style="stroke:#181818;stroke-width:0.5;stroke-dasharray:7.0,7.0;"/><polygon fill="#181818" points="111.695,155.4355,116.5468,156.2784,114.1196,154.8262,115.5718,152.3991,111.695,155.4355" style="stroke:#181818;stroke-width:0.5;"/><polygon fill="#000000" points="211.5754,135.2427,216.3197,135.5654,215.6033,132.7151,211.5754,135.2427" style="stroke:#000000;stroke-width:0.5;"/><text fill="#000000" font-family="sans-serif" font-size="6.5" lengthAdjust="spacing" textLength="14" x="218.5" y="137.3247">uses</text></g><!--link UploadTextInterviewModelController to JobApplicationManagementService--><g id="link_UploadTextInterviewModelController_JobApplicationManagementService"><path codeLine="36" d="M301.965,114.8605 C278.345,126.5055 248.2809,141.3192 224.6759,152.9542 " fill="none" id="UploadTextInterviewModelController-to-JobApplicationManagementService" style="stroke:#181818;stroke-width:0.5;stroke-dasharray:7.0,7.0;"/><polygon fill="#181818" points="221.985,154.2805,226.9055,154.0849,224.2274,153.1753,225.1371,150.4971,221.985,154.2805" style="stroke:#181818;stroke-width:0.5;"/><polygon fill="#000000" points="270.7576,135.7385,275.4638,135.0572,274.1645,132.4211,270.7576,135.7385" style="stroke:#000000;stroke-width:0.5;"/><text fill="#000000" font-family="sans-serif" font-size="6.5" lengthAdjust="spacing" textLength="14" x="277.5" y="137.3247">uses</text></g><!--link UploadTextInterviewModelController to JobOpeningManagementService--><g id="link_UploadTextInterviewModelController_JobOpeningManagementService"><path codeLine="37" d="M332,114.8605 C332,126.5055 332,139.6455 332,151.2805 " fill="none" id="UploadTextInterviewModelController-to-JobOpeningManagementService" style="stroke:#181818;stroke-width:0.5;stroke-dasharray:7.0,7.0;"/><polygon fill="#181818" points="332,154.2805,334,149.7805,332,151.7805,330,149.7805,332,154.2805" style="stroke:#181818;stroke-width:0.5;"/><polygon fill="#000000" points="334.5,137.1333,335.9695,132.6108,333.0305,132.6108,334.5,137.1333" style="stroke:#000000;stroke-width:0.5;"/><text fill="#000000" font-family="sans-serif" font-size="6.5" lengthAdjust="spacing" textLength="14" x="339" y="137.3247">uses</text></g><!--link UploadTextInterviewModelController to JobOpeningRepository--><g id="link_UploadTextInterviewModelController_JobOpeningRepository"><path codeLine="39" d="M388.11,114.8405 C405.285,119.4905 424.205,124.7355 441.5,129.8105 C468.305,137.6755 495.2985,146.1437 519.0535,153.7687 " fill="none" id="UploadTextInterviewModelController-to-JobOpeningRepository" style="stroke:#181818;stroke-width:0.5;stroke-dasharray:7.0,7.0;"/><polygon fill="#181818" points="521.91,154.6855,518.2366,151.4059,519.5296,153.9215,517.0141,155.2145,521.91,154.6855" style="stroke:#181818;stroke-width:0.5;"/><polygon fill="#000000" points="477.3963,135.3457,473.4801,132.6484,472.6426,135.4655,477.3963,135.3457" style="stroke:#000000;stroke-width:0.5;"/><text fill="#000000" font-family="sans-serif" font-size="6.5" lengthAdjust="spacing" textLength="28" x="479.5" y="137.3247">accesses</text></g><!--link UploadTextInterviewModelController to JobApplicationRepository--><g id="link_UploadTextInterviewModelController_JobApplicationRepository"><path codeLine="40" d="M358.71,114.8605 C379.715,126.5055 406.216,141.1914 427.211,152.8264 " fill="none" id="UploadTextInterviewModelController-to-JobApplicationRepository" style="stroke:#181818;stroke-width:0.5;stroke-dasharray:7.0,7.0;"/><polygon fill="#181818" points="429.835,154.2805,426.8684,150.35,427.6483,153.0687,424.9295,153.8486,429.835,154.2805" style="stroke:#181818;stroke-width:0.5;"/><polygon fill="#000000" points="406.6866,135.8452,403.4433,132.3676,402.0187,134.9381,406.6866,135.8452" style="stroke:#000000;stroke-width:0.5;"/><text fill="#000000" font-family="sans-serif" font-size="6.5" lengthAdjust="spacing" textLength="28" x="409" y="137.3247">accesses</text></g><!--link JobOpeningManagementService to JobOpeningBuilder--><g id="link_JobOpeningManagementService_JobOpeningBuilder"><path codeLine="42" d="M332,184.8605 C332,196.5055 332,209.6455 332,221.2805 " fill="none" id="JobOpeningManagementService-to-JobOpeningBuilder" style="stroke:#181818;stroke-width:0.5;stroke-dasharray:7.0,7.0;"/><polygon fill="#181818" points="332,224.2805,334,219.7805,332,221.7805,330,219.7805,332,224.2805" style="stroke:#181818;stroke-width:0.5;"/><text fill="#000000" font-family="sans-serif" font-size="6.5" lengthAdjust="spacing" textLength="14" x="332.5" y="207.3247">uses</text></g><!--link JobApplicationManagementService to JobApplicationBuilder--><g id="link_JobApplicationManagementService_JobApplicationBuilder"><path codeLine="43" d="M192,184.8605 C192,196.5055 192,209.6455 192,221.2805 " fill="none" id="JobApplicationManagementService-to-JobApplicationBuilder" style="stroke:#181818;stroke-width:0.5;stroke-dasharray:7.0,7.0;"/><polygon fill="#181818" points="192,224.2805,194,219.7805,192,221.7805,190,219.7805,192,224.2805" style="stroke:#181818;stroke-width:0.5;"/><text fill="#000000" font-family="sans-serif" font-size="6.5" lengthAdjust="spacing" textLength="14" x="192.5" y="207.3247">uses</text></g><!--link InterviewManagementService to InterviewModelBuilder--><g id="link_InterviewManagementService_InterviewModelBuilder"><path codeLine="44" d="M57.5,184.8605 C57.5,197.6155 57.5,212.7605 57.5,224.4755 " fill="none" id="InterviewManagementService-to-InterviewModelBuilder" style="stroke:#181818;stroke-width:0.5;stroke-dasharray:7.0,7.0;"/><polygon fill="#181818" points="57.5,227.4755,59.5,222.9755,57.5,224.9755,55.5,222.9755,57.5,227.4755" style="stroke:#181818;stroke-width:0.5;"/><text fill="#000000" font-family="sans-serif" font-size="6.5" lengthAdjust="spacing" textLength="14" x="58" y="207.3247">uses</text></g><!--reverse link JobOpeningRepository to RepositoryFactory--><g id="link_JobOpeningRepository_RepositoryFactory"><path codeLine="46" d="M538.2417,186.8468 C533.2367,191.0018 530.935,194.0655 528,199.8105 C524.215,207.2205 523.695,216.4805 524.19,224.1455 " fill="none" id="JobOpeningRepository-backto-RepositoryFactory" style="stroke:#181818;stroke-width:0.5;stroke-dasharray:7.0,7.0;"/><polygon fill="#181818" points="540.55,184.9305,535.8101,186.2661,538.6265,186.5274,538.3651,189.3437,540.55,184.9305" style="stroke:#181818;stroke-width:0.5;"/><polygon fill="#000000" points="531.3814,202.2938,528.4118,206.0079,531.1621,207.044,531.3814,202.2938" style="stroke:#000000;stroke-width:0.5;"/><text fill="#000000" font-family="sans-serif" font-size="6.5" lengthAdjust="spacing" textLength="21.5" x="535" y="207.3247">creates</text></g><!--reverse link JobApplicationRepository to RepositoryFactory--><g id="link_JobApplicationRepository_RepositoryFactory"><path codeLine="47" d="M471.0484,187.0708 C477.6584,194.6058 484.045,201.5405 492,209.3105 C497.15,214.3405 502.995,219.5505 508.395,224.1805 " fill="none" id="JobApplicationRepository-backto-RepositoryFactory" style="stroke:#181818;stroke-width:0.5;stroke-dasharray:7.0,7.0;"/><polygon fill="#181818" points="469.07,184.8155,470.5341,189.5173,470.7186,186.6949,473.541,186.8795,469.07,184.8155" style="stroke:#181818;stroke-width:0.5;"/><polygon fill="#000000" points="492.7266,202.8712,494.8989,207.1013,496.9705,205.0165,492.7266,202.8712" style="stroke:#000000;stroke-width:0.5;"/><text fill="#000000" font-family="sans-serif" font-size="6.5" lengthAdjust="spacing" textLength="21.5" x="499" y="207.3247">creates</text></g><!--link JobOpeningRepository to JobOpening--><g id="link_JobOpeningRepository_JobOpening"><path codeLine="48" d="M575.01,184.8605 C582.095,196.5055 590.3597,210.0832 597.4447,221.7182 " fill="none" id="JobOpeningRepository-to-JobOpening" style="stroke:#181818;stroke-width:0.5;stroke-dasharray:7.0,7.0;"/><polygon fill="#181818" points="599.005,224.2805,598.3728,219.3969,597.7048,222.1453,594.9563,221.4773,599.005,224.2805" style="stroke:#181818;stroke-width:0.5;"/><text fill="#000000" font-family="sans-serif" font-size="6.5" lengthAdjust="spacing" textLength="52" x="590" y="207.3247">saves in database</text></g><!--link JobApplicationRepository to JobApplication--><g id="link_JobApplicationRepository_JobApplication"><path codeLine="49" d="M444.86,184.9505 C433.01,202.0305 417.675,230.7705 427.5,254.8105 C436.12,275.9055 452.7626,292.0429 467.9226,303.8429 " fill="none" id="JobApplicationRepository-to-JobApplication" style="stroke:#181818;stroke-width:0.5;stroke-dasharray:7.0,7.0;"/><polygon fill="#181818" points="470.29,305.6855,467.9674,301.3433,468.3172,304.15,465.5105,304.4998,470.29,305.6855" style="stroke:#181818;stroke-width:0.5;"/><text fill="#000000" font-family="sans-serif" font-size="6.5" lengthAdjust="spacing" textLength="52" x="428" y="242.3247">saves in database</text></g><!--link InterviewModelRepository to InterviewModel--><g id="link_InterviewModelRepository_InterviewModel"><path codeLine="50" d="M771.805,254.8255 C765.24,269.3055 756.5235,288.5281 749.9535,303.0231 " fill="none" id="InterviewModelRepository-to-InterviewModel" style="stroke:#181818;stroke-width:0.5;stroke-dasharray:7.0,7.0;"/><polygon fill="#181818" points="748.715,305.7555,752.3944,302.4826,749.7471,303.4785,748.7511,300.8313,748.715,305.7555" style="stroke:#181818;stroke-width:0.5;"/><text fill="#000000" font-family="sans-serif" font-size="6.5" lengthAdjust="spacing" textLength="52" x="765" y="277.3247">saves in database</text></g><!--link JobOpening to JobReference--><g id="link_JobOpening_JobReference"><path codeLine="52" d="M635.065,239.5605 C640.87,239.5605 643.675,239.5605 649.48,239.5605 " fill="none" id="JobOpening-to-JobReference" style="stroke:#181818;stroke-width:0.5;"/><polygon fill="#181818" points="652.48,239.5605,647.98,237.5605,649.98,239.5605,647.98,241.5605,652.48,239.5605" style="stroke:#181818;stroke-width:0.5;"/></g><!--reverse link JobOpening to JobApplication--><g id="link_JobOpening_JobApplication"><path codeLine="53" d="M584.2604,256.536 C563.3954,271.016 534.225,291.2605 513.335,305.7555 " fill="none" id="JobOpening-backto-JobApplication" style="stroke:#181818;stroke-width:0.5;"/><polygon fill="#181818" points="586.725,254.8255,581.8878,255.7481,584.6711,256.2509,584.1683,259.0343,586.725,254.8255" style="stroke:#181818;stroke-width:0.5;"/></g><!--link JobOpening to InterviewModel--><g id="link_JobOpening_InterviewModel"><path codeLine="54" d="M632.58,254.8255 C656.68,269.3055 690.6535,289.7155 714.7785,304.2105 " fill="none" id="JobOpening-to-InterviewModel" style="stroke:#181818;stroke-width:0.5;"/><polygon fill="#181818" points="717.35,305.7555,714.5227,301.7236,715.2071,304.468,712.4627,305.1523,717.35,305.7555" style="stroke:#181818;stroke-width:0.5;"/></g><!--link InterviewModel to InterviewModelDesignation--><g id="link_InterviewModel_InterviewModelDesignation"><path codeLine="56" d="M717.01,336.3605 C697.35,348.0055 672.6762,362.6168 653.0312,374.2518 " fill="none" id="InterviewModel-to-InterviewModelDesignation" style="stroke:#181818;stroke-width:0.5;"/><polygon fill="#181818" points="650.45,375.7805,655.3411,375.2082,652.601,374.5066,653.3027,371.7665,650.45,375.7805" style="stroke:#181818;stroke-width:0.5;"/><polygon fill="#000000" points="690.8489,357.4073,695.4891,356.367,693.9914,353.8383,690.8489,357.4073" style="stroke:#000000;stroke-width:0.5;"/><text fill="#000000" font-family="sans-serif" font-size="6.5" lengthAdjust="spacing" textLength="34.5" x="697.5" y="358.8247">identified by</text></g><!--link InterviewModel to InterviewModelDescription--><g id="link_InterviewModel_InterviewModelDescription"><path codeLine="57" d="M742,336.3605 C742,348.0055 742,361.1455 742,372.7805 " fill="none" id="InterviewModel-to-InterviewModelDescription" style="stroke:#181818;stroke-width:0.5;"/><polygon fill="#181818" points="742,375.7805,744,371.2805,742,373.2805,740,371.2805,742,375.7805" style="stroke:#181818;stroke-width:0.5;"/><polygon fill="#000000" points="744.5,358.6333,745.9695,354.1108,743.0305,354.1108,744.5,358.6333" style="stroke:#000000;stroke-width:0.5;"/><text fill="#000000" font-family="sans-serif" font-size="6.5" lengthAdjust="spacing" textLength="11.5" x="749" y="358.8247">with</text></g><!--link InterviewModel to InterviewModelFileExtension--><g id="link_InterviewModel_InterviewModelFileExtension"><path codeLine="58" d="M767.53,336.3605 C787.605,348.0055 812.8496,362.6409 832.9196,374.2759 " fill="none" id="InterviewModel-to-InterviewModelFileExtension" style="stroke:#181818;stroke-width:0.5;"/><polygon fill="#181818" points="835.515,375.7805,832.625,371.7934,833.3522,374.5267,830.6188,375.2539,835.515,375.7805" style="stroke:#181818;stroke-width:0.5;"/><polygon fill="#000000" points="813.1627,357.3873,809.9874,353.8475,808.5132,356.39,813.1627,357.3873" style="stroke:#000000;stroke-width:0.5;"/><text fill="#000000" font-family="sans-serif" font-size="6.5" lengthAdjust="spacing" textLength="11.5" x="815.5" y="358.8247">with</text></g><!--SRC=[fLLDRzim3BthL-Yu7HnqwCq80dJ92cJ0qA5PTgTbscMhIeQa9Cs6_VV9IUhuGuwTBITPVE-9V18P-qAg00Ell03n0Zckt5uYDoWSg5mYinN0Fa6gTwHode6qo6eX8S7QE-SC9Hk7Iw7LYduXls7CaVDoypBE5mHvYVumNtpa4L_FRsu_CNRWydKXDQG_yCqjbKEp9TnzqodAzP9FfrHkPI1mDXk0pxLoHak9njD4zL7npcXGljXNL6vLRWZqU7jSLU2lEhah2aa276aral5GeF8UNQ__Y8MsvBJPUwYfFWBQGyYc9KFeS_mUn0cM7LSzcPOwMhj0PkT89_HvGp8zN4joNFM8Xt1du2DcQ50TxDo2t9HcijFBRTNz_RJxct7_2pdZDNwM6lmXUVRltKlr8HTeALVlnOyd2KF5TQHxalZbpQ6oGTeVnjY5LfbCPYDQer-YrZwbr8LkYVd6ekMpiL93lVGFUhsTLcbTBrPhbfY346Z_eye-CNOf-MO-xzrmB8aDkTZDeILmuKQR5ruMr-Aoy0IQJ08Z9ER283XVxfJrZxanrEw9JOSytiBMeqdn51mauF-QUe_i6XJazqxGhab1VYrn7iqQWwiUcaPHAvi6CMgVnLg91I3rIHLpIlq5KqQOycJlNzuOUZMpOhuZzpI6rHnQ5Uyl]--></g></svg>