<?xml version="1.0" encoding="us-ascii" standalone="no"?><svg xmlns="http://www.w3.org/2000/svg" xmlns:xlink="http://www.w3.org/1999/xlink" contentStyleType="text/css" height="1750px" preserveAspectRatio="none" style="width:2735px;height:1750px;background:#FFFFFF;" version="1.1" viewBox="0 0 2735 1750" width="2735px" zoomAndPan="magnify"><defs/><g><text fill="#000000" font-family="sans-serif" font-size="14" font-weight="bold" lengthAdjust="spacing" textLength="222" x="1258.25" y="30.1074">Sequence Diagram (SD) - UC001</text><rect fill="#FFFFFF" height="1503.3574" style="stroke:#181818;stroke-width:1.0;" width="10" x="86.5" y="137.8633"/><rect fill="#FFFFFF" height="312.9102" style="stroke:#181818;stroke-width:1.0;" width="10" x="510.5" y="161.1543"/><rect fill="#FFFFFF" height="219.0371" style="stroke:#181818;stroke-width:1.0;" width="10" x="510.5" y="505.3555"/><rect fill="#FFFFFF" height="465.0742" style="stroke:#181818;stroke-width:1.0;" width="10" x="510.5" y="755.6836"/><rect fill="#FFFFFF" height="362.8809" style="stroke:#181818;stroke-width:1.0;" width="10" x="510.5" y="1278.3398"/><rect fill="#FFFFFF" height="250.3281" style="stroke:#181818;stroke-width:1.0;" width="10" x="859.5" y="192.4453"/><rect fill="#FFFFFF" height="156.4551" style="stroke:#181818;stroke-width:1.0;" width="10" x="859.5" y="536.6465"/><rect fill="#FFFFFF" height="138.1641" style="stroke:#181818;stroke-width:1.0;" width="10" x="859.5" y="824.2656"/><rect fill="#FFFFFF" height="138.1641" style="stroke:#181818;stroke-width:1.0;" width="10" x="859.5" y="993.7207"/><rect fill="#FFFFFF" height="182.4551" style="stroke:#181818;stroke-width:1.0;" width="10" x="859.5" y="1309.6309"/><rect fill="#FFFFFF" height="156.4551" style="stroke:#181818;stroke-width:1.0;" width="10" x="1103" y="255.0273"/><rect fill="#FFFFFF" height="31.291" style="stroke:#181818;stroke-width:1.0;" width="10" x="1345" y="286.3184"/><rect fill="#FFFFFF" height="93.873" style="stroke:#181818;stroke-width:1.0;" width="10" x="1551.5" y="567.9375"/><rect fill="#FFFFFF" height="75.582" style="stroke:#181818;stroke-width:1.0;" width="10" x="1785.5" y="855.5566"/><rect fill="#FFFFFF" height="75.582" style="stroke:#181818;stroke-width:1.0;" width="10" x="1785.5" y="1025.0117"/><rect fill="#FFFFFF" height="119.873" style="stroke:#181818;stroke-width:1.0;" width="10" x="1785.5" y="1340.9219"/><rect fill="#FFFFFF" height="31.291" style="stroke:#181818;stroke-width:1.0;" width="10" x="2298.5" y="348.9004"/><rect fill="#FFFFFF" height="31.291" style="stroke:#181818;stroke-width:1.0;" width="10" x="2468" y="599.2285"/><rect fill="none" height="456.0449" style="stroke:#000000;stroke-width:1.5;" width="2303.5" x="10" y="1178.1758"/><rect fill="none" height="343.541" style="stroke:#000000;stroke-width:1.5;" width="2283.5" x="20" y="1235.7578"/><line style="stroke:#181818;stroke-width:0.5;stroke-dasharray:5.0,5.0;" x1="91" x2="91" y1="127.8633" y2="1651.2207"/><line style="stroke:#181818;stroke-width:0.5;stroke-dasharray:5.0,5.0;" x1="515.5" x2="515.5" y1="127.8633" y2="1651.2207"/><line style="stroke:#181818;stroke-width:0.5;stroke-dasharray:5.0,5.0;" x1="864.5" x2="864.5" y1="127.8633" y2="1651.2207"/><line style="stroke:#181818;stroke-width:0.5;stroke-dasharray:5.0,5.0;" x1="1107.5" x2="1107.5" y1="127.8633" y2="1651.2207"/><line style="stroke:#181818;stroke-width:0.5;stroke-dasharray:5.0,5.0;" x1="1349.5" x2="1349.5" y1="127.8633" y2="1651.2207"/><line style="stroke:#181818;stroke-width:0.5;stroke-dasharray:5.0,5.0;" x1="1556.5" x2="1556.5" y1="127.8633" y2="1651.2207"/><line style="stroke:#181818;stroke-width:0.5;stroke-dasharray:5.0,5.0;" x1="1790.5" x2="1790.5" y1="127.8633" y2="1651.2207"/><line style="stroke:#181818;stroke-width:0.5;stroke-dasharray:5.0,5.0;" x1="2303.5" x2="2303.5" y1="127.8633" y2="1651.2207"/><line style="stroke:#181818;stroke-width:0.5;stroke-dasharray:5.0,5.0;" x1="2472.5" x2="2472.5" y1="127.8633" y2="1651.2207"/><line style="stroke:#181818;stroke-width:0.5;stroke-dasharray:5.0,5.0;" x1="2650.5" x2="2650.5" y1="127.8633" y2="1651.2207"/><text fill="#000000" font-family="sans-serif" font-size="14" lengthAdjust="spacing" textLength="117" x="30" y="124.3496">CustomerManager</text><ellipse cx="91.5" cy="57.7422" fill="#E2E2F0" rx="8" ry="8" style="stroke:#181818;stroke-width:0.5;"/><path d="M91.5,65.7422 L91.5,92.7422 M78.5,73.7422 L104.5,73.7422 M91.5,92.7422 L78.5,107.7422 M91.5,92.7422 L104.5,107.7422 " fill="none" style="stroke:#181818;stroke-width:0.5;"/><text fill="#000000" font-family="sans-serif" font-size="14" lengthAdjust="spacing" textLength="117" x="30" y="1665.3281">CustomerManager</text><ellipse cx="91.5" cy="1677.3418" fill="#E2E2F0" rx="8" ry="8" style="stroke:#181818;stroke-width:0.5;"/><path d="M91.5,1685.3418 L91.5,1712.3418 M78.5,1693.3418 L104.5,1693.3418 M91.5,1712.3418 L78.5,1727.3418 M91.5,1712.3418 L104.5,1727.3418 " fill="none" style="stroke:#181818;stroke-width:0.5;"/><rect fill="#E2E2F0" height="51.2422" rx="2.5" ry="2.5" style="stroke:#181818;stroke-width:0.5;" width="190" x="420.5" y="75.6211"/><text fill="#000000" font-family="sans-serif" font-size="14" font-style="italic" lengthAdjust="spacing" textLength="95" x="468" y="97.7285">&#171;presentation&#187;</text><text fill="#000000" font-family="sans-serif" font-size="14" lengthAdjust="spacing" textLength="176" x="427.5" y="116.3496">UploadTextInterviewModelUI</text><rect fill="#E2E2F0" height="51.2422" rx="2.5" ry="2.5" style="stroke:#181818;stroke-width:0.5;" width="190" x="420.5" y="1650.2207"/><text fill="#000000" font-family="sans-serif" font-size="14" font-style="italic" lengthAdjust="spacing" textLength="95" x="468" y="1672.3281">&#171;presentation&#187;</text><text fill="#000000" font-family="sans-serif" font-size="14" lengthAdjust="spacing" textLength="176" x="427.5" y="1690.9492">UploadTextInterviewModelUI</text><rect fill="#E2E2F0" height="51.2422" rx="2.5" ry="2.5" style="stroke:#181818;stroke-width:0.5;" width="240" x="744.5" y="75.6211"/><text fill="#000000" font-family="sans-serif" font-size="14" font-style="italic" lengthAdjust="spacing" textLength="84" x="822.5" y="97.7285">&#171;application&#187;</text><text fill="#000000" font-family="sans-serif" font-size="14" lengthAdjust="spacing" textLength="226" x="751.5" y="116.3496">UploadTextInterviewModelController</text><rect fill="#E2E2F0" height="51.2422" rx="2.5" ry="2.5" style="stroke:#181818;stroke-width:0.5;" width="240" x="744.5" y="1650.2207"/><text fill="#000000" font-family="sans-serif" font-size="14" font-style="italic" lengthAdjust="spacing" textLength="84" x="822.5" y="1672.3281">&#171;application&#187;</text><text fill="#000000" font-family="sans-serif" font-size="14" lengthAdjust="spacing" textLength="226" x="751.5" y="1690.9492">UploadTextInterviewModelController</text><rect fill="#E2E2F0" height="51.2422" rx="2.5" ry="2.5" style="stroke:#181818;stroke-width:0.5;" width="227" x="994.5" y="75.6211"/><text fill="#000000" font-family="sans-serif" font-size="14" font-style="italic" lengthAdjust="spacing" textLength="60" x="1078" y="97.7285">&#171;service&#187;</text><text fill="#000000" font-family="sans-serif" font-size="14" lengthAdjust="spacing" textLength="213" x="1001.5" y="116.3496">: JobOpeningManagementService</text><rect fill="#E2E2F0" height="51.2422" rx="2.5" ry="2.5" style="stroke:#181818;stroke-width:0.5;" width="227" x="994.5" y="1650.2207"/><text fill="#000000" font-family="sans-serif" font-size="14" font-style="italic" lengthAdjust="spacing" textLength="60" x="1078" y="1672.3281">&#171;service&#187;</text><text fill="#000000" font-family="sans-serif" font-size="14" lengthAdjust="spacing" textLength="213" x="1001.5" y="1690.9492">: JobOpeningManagementService</text><rect fill="#E2E2F0" height="51.2422" rx="2.5" ry="2.5" style="stroke:#181818;stroke-width:0.5;" width="151" x="1274.5" y="75.6211"/><text fill="#000000" font-family="sans-serif" font-size="14" font-style="italic" lengthAdjust="spacing" textLength="60" x="1320" y="97.7285">&#171;service&#187;</text><text fill="#000000" font-family="sans-serif" font-size="14" lengthAdjust="spacing" textLength="137" x="1281.5" y="116.3496">: AuthorizationService</text><rect fill="#E2E2F0" height="51.2422" rx="2.5" ry="2.5" style="stroke:#181818;stroke-width:0.5;" width="151" x="1274.5" y="1650.2207"/><text fill="#000000" font-family="sans-serif" font-size="14" font-style="italic" lengthAdjust="spacing" textLength="60" x="1320" y="1672.3281">&#171;service&#187;</text><text fill="#000000" font-family="sans-serif" font-size="14" lengthAdjust="spacing" textLength="137" x="1281.5" y="1690.9492">: AuthorizationService</text><rect fill="#E2E2F0" height="51.2422" rx="2.5" ry="2.5" style="stroke:#181818;stroke-width:0.5;" width="242" x="1435.5" y="75.6211"/><text fill="#000000" font-family="sans-serif" font-size="14" font-style="italic" lengthAdjust="spacing" textLength="60" x="1526.5" y="97.7285">&#171;service&#187;</text><text fill="#000000" font-family="sans-serif" font-size="14" lengthAdjust="spacing" textLength="228" x="1442.5" y="116.3496">: JobApplicationManagementService</text><rect fill="#E2E2F0" height="51.2422" rx="2.5" ry="2.5" style="stroke:#181818;stroke-width:0.5;" width="242" x="1435.5" y="1650.2207"/><text fill="#000000" font-family="sans-serif" font-size="14" font-style="italic" lengthAdjust="spacing" textLength="60" x="1526.5" y="1672.3281">&#171;service&#187;</text><text fill="#000000" font-family="sans-serif" font-size="14" lengthAdjust="spacing" textLength="228" x="1442.5" y="1690.9492">: JobApplicationManagementService</text><rect fill="#E2E2F0" height="51.2422" rx="2.5" ry="2.5" style="stroke:#181818;stroke-width:0.5;" width="206" x="1687.5" y="75.6211"/><text fill="#000000" font-family="sans-serif" font-size="14" font-style="italic" lengthAdjust="spacing" textLength="60" x="1760.5" y="97.7285">&#171;service&#187;</text><text fill="#000000" font-family="sans-serif" font-size="14" lengthAdjust="spacing" textLength="192" x="1694.5" y="116.3496">: InterviewManagementService</text><rect fill="#E2E2F0" height="51.2422" rx="2.5" ry="2.5" style="stroke:#181818;stroke-width:0.5;" width="206" x="1687.5" y="1650.2207"/><text fill="#000000" font-family="sans-serif" font-size="14" font-style="italic" lengthAdjust="spacing" textLength="60" x="1760.5" y="1672.3281">&#171;service&#187;</text><text fill="#000000" font-family="sans-serif" font-size="14" lengthAdjust="spacing" textLength="192" x="1694.5" y="1690.9492">: InterviewManagementService</text><text fill="#000000" font-family="sans-serif" font-size="14" font-style="italic" lengthAdjust="spacing" textLength="79" x="2261" y="105.7285">&#171;repository&#187;</text><text fill="#000000" font-family="sans-serif" font-size="14" lengthAdjust="spacing" textLength="144" x="2228.5" y="124.3496">JobOpeningRepository</text><path d="M2285.5,54.6211 C2285.5,44.6211 2303.5,44.6211 2303.5,44.6211 C2303.5,44.6211 2321.5,44.6211 2321.5,54.6211 L2321.5,80.6211 C2321.5,90.6211 2303.5,90.6211 2303.5,90.6211 C2303.5,90.6211 2285.5,90.6211 2285.5,80.6211 L2285.5,54.6211 " fill="#E2E2F0" style="stroke:#181818;stroke-width:1.5;"/><path d="M2285.5,54.6211 C2285.5,64.6211 2303.5,64.6211 2303.5,64.6211 C2303.5,64.6211 2321.5,64.6211 2321.5,54.6211 " fill="none" style="stroke:#181818;stroke-width:1.5;"/><text fill="#000000" font-family="sans-serif" font-size="14" font-style="italic" lengthAdjust="spacing" textLength="79" x="2261" y="1665.3281">&#171;repository&#187;</text><text fill="#000000" font-family="sans-serif" font-size="14" lengthAdjust="spacing" textLength="144" x="2228.5" y="1683.9492">JobOpeningRepository</text><path d="M2285.5,1697.4629 C2285.5,1687.4629 2303.5,1687.4629 2303.5,1687.4629 C2303.5,1687.4629 2321.5,1687.4629 2321.5,1697.4629 L2321.5,1723.4629 C2321.5,1733.4629 2303.5,1733.4629 2303.5,1733.4629 C2303.5,1733.4629 2285.5,1733.4629 2285.5,1723.4629 L2285.5,1697.4629 " fill="#E2E2F0" style="stroke:#181818;stroke-width:1.5;"/><path d="M2285.5,1697.4629 C2285.5,1707.4629 2303.5,1707.4629 2303.5,1707.4629 C2303.5,1707.4629 2321.5,1707.4629 2321.5,1697.4629 " fill="none" style="stroke:#181818;stroke-width:1.5;"/><text fill="#000000" font-family="sans-serif" font-size="14" font-style="italic" lengthAdjust="spacing" textLength="79" x="2430.5" y="105.7285">&#171;repository&#187;</text><text fill="#000000" font-family="sans-serif" font-size="14" lengthAdjust="spacing" textLength="163" x="2388.5" y="124.3496">JobApplicatitonRepository</text><path d="M2455,54.6211 C2455,44.6211 2473,44.6211 2473,44.6211 C2473,44.6211 2491,44.6211 2491,54.6211 L2491,80.6211 C2491,90.6211 2473,90.6211 2473,90.6211 C2473,90.6211 2455,90.6211 2455,80.6211 L2455,54.6211 " fill="#E2E2F0" style="stroke:#181818;stroke-width:1.5;"/><path d="M2455,54.6211 C2455,64.6211 2473,64.6211 2473,64.6211 C2473,64.6211 2491,64.6211 2491,54.6211 " fill="none" style="stroke:#181818;stroke-width:1.5;"/><text fill="#000000" font-family="sans-serif" font-size="14" font-style="italic" lengthAdjust="spacing" textLength="79" x="2430.5" y="1665.3281">&#171;repository&#187;</text><text fill="#000000" font-family="sans-serif" font-size="14" lengthAdjust="spacing" textLength="163" x="2388.5" y="1683.9492">JobApplicatitonRepository</text><path d="M2455,1697.4629 C2455,1687.4629 2473,1687.4629 2473,1687.4629 C2473,1687.4629 2491,1687.4629 2491,1697.4629 L2491,1723.4629 C2491,1733.4629 2473,1733.4629 2473,1733.4629 C2473,1733.4629 2455,1733.4629 2455,1723.4629 L2455,1697.4629 " fill="#E2E2F0" style="stroke:#181818;stroke-width:1.5;"/><path d="M2455,1697.4629 C2455,1707.4629 2473,1707.4629 2473,1707.4629 C2473,1707.4629 2491,1707.4629 2491,1697.4629 " fill="none" style="stroke:#181818;stroke-width:1.5;"/><text fill="#000000" font-family="sans-serif" font-size="14" font-style="italic" lengthAdjust="spacing" textLength="79" x="2608.5" y="105.7285">&#171;repository&#187;</text><text fill="#000000" font-family="sans-serif" font-size="14" lengthAdjust="spacing" textLength="161" x="2567.5" y="124.3496">InterviewModelRepository</text><path d="M2633,54.6211 C2633,44.6211 2651,44.6211 2651,44.6211 C2651,44.6211 2669,44.6211 2669,54.6211 L2669,80.6211 C2669,90.6211 2651,90.6211 2651,90.6211 C2651,90.6211 2633,90.6211 2633,80.6211 L2633,54.6211 " fill="#E2E2F0" style="stroke:#181818;stroke-width:1.5;"/><path d="M2633,54.6211 C2633,64.6211 2651,64.6211 2651,64.6211 C2651,64.6211 2669,64.6211 2669,54.6211 " fill="none" style="stroke:#181818;stroke-width:1.5;"/><text fill="#000000" font-family="sans-serif" font-size="14" font-style="italic" lengthAdjust="spacing" textLength="79" x="2608.5" y="1665.3281">&#171;repository&#187;</text><text fill="#000000" font-family="sans-serif" font-size="14" lengthAdjust="spacing" textLength="161" x="2567.5" y="1683.9492">InterviewModelRepository</text><path d="M2633,1697.4629 C2633,1687.4629 2651,1687.4629 2651,1687.4629 C2651,1687.4629 2669,1687.4629 2669,1697.4629 L2669,1723.4629 C2669,1733.4629 2651,1733.4629 2651,1733.4629 C2651,1733.4629 2633,1733.4629 2633,1723.4629 L2633,1697.4629 " fill="#E2E2F0" style="stroke:#181818;stroke-width:1.5;"/><path d="M2633,1697.4629 C2633,1707.4629 2651,1707.4629 2651,1707.4629 C2651,1707.4629 2669,1707.4629 2669,1697.4629 " fill="none" style="stroke:#181818;stroke-width:1.5;"/><rect fill="#FFFFFF" height="1503.3574" style="stroke:#181818;stroke-width:1.0;" width="10" x="86.5" y="137.8633"/><rect fill="#FFFFFF" height="312.9102" style="stroke:#181818;stroke-width:1.0;" width="10" x="510.5" y="161.1543"/><rect fill="#FFFFFF" height="219.0371" style="stroke:#181818;stroke-width:1.0;" width="10" x="510.5" y="505.3555"/><rect fill="#FFFFFF" height="465.0742" style="stroke:#181818;stroke-width:1.0;" width="10" x="510.5" y="755.6836"/><rect fill="#FFFFFF" height="362.8809" style="stroke:#181818;stroke-width:1.0;" width="10" x="510.5" y="1278.3398"/><rect fill="#FFFFFF" height="250.3281" style="stroke:#181818;stroke-width:1.0;" width="10" x="859.5" y="192.4453"/><rect fill="#FFFFFF" height="156.4551" style="stroke:#181818;stroke-width:1.0;" width="10" x="859.5" y="536.6465"/><rect fill="#FFFFFF" height="138.1641" style="stroke:#181818;stroke-width:1.0;" width="10" x="859.5" y="824.2656"/><rect fill="#FFFFFF" height="138.1641" style="stroke:#181818;stroke-width:1.0;" width="10" x="859.5" y="993.7207"/><rect fill="#FFFFFF" height="182.4551" style="stroke:#181818;stroke-width:1.0;" width="10" x="859.5" y="1309.6309"/><rect fill="#FFFFFF" height="156.4551" style="stroke:#181818;stroke-width:1.0;" width="10" x="1103" y="255.0273"/><rect fill="#FFFFFF" height="31.291" style="stroke:#181818;stroke-width:1.0;" width="10" x="1345" y="286.3184"/><rect fill="#FFFFFF" height="93.873" style="stroke:#181818;stroke-width:1.0;" width="10" x="1551.5" y="567.9375"/><rect fill="#FFFFFF" height="75.582" style="stroke:#181818;stroke-width:1.0;" width="10" x="1785.5" y="855.5566"/><rect fill="#FFFFFF" height="75.582" style="stroke:#181818;stroke-width:1.0;" width="10" x="1785.5" y="1025.0117"/><rect fill="#FFFFFF" height="119.873" style="stroke:#181818;stroke-width:1.0;" width="10" x="1785.5" y="1340.9219"/><rect fill="#FFFFFF" height="31.291" style="stroke:#181818;stroke-width:1.0;" width="10" x="2298.5" y="348.9004"/><rect fill="#FFFFFF" height="31.291" style="stroke:#181818;stroke-width:1.0;" width="10" x="2468" y="599.2285"/><polygon fill="#181818" points="498.5,157.1543,508.5,161.1543,498.5,165.1543,502.5,161.1543" style="stroke:#181818;stroke-width:1.0;"/><line style="stroke:#181818;stroke-width:1.0;stroke-dasharray:2.0,2.0;" x1="96.5" x2="504.5" y1="161.1543" y2="161.1543"/><text fill="#000000" font-family="sans-serif" font-size="13" lengthAdjust="spacing" textLength="263" x="103.5" y="155.8916">Select the import file with response candidate</text><polygon fill="#181818" points="847.5,188.4453,857.5,192.4453,847.5,196.4453,851.5,192.4453" style="stroke:#181818;stroke-width:1.0;"/><line style="stroke:#181818;stroke-width:1.0;" x1="520.5" x2="853.5" y1="192.4453" y2="192.4453"/><text fill="#000000" font-family="sans-serif" font-size="13" lengthAdjust="spacing" textLength="44" x="527.5" y="187.1826">create()</text><polygon fill="#181818" points="847.5,219.7363,857.5,223.7363,847.5,227.7363,851.5,223.7363" style="stroke:#181818;stroke-width:1.0;"/><line style="stroke:#181818;stroke-width:1.0;" x1="520.5" x2="853.5" y1="223.7363" y2="223.7363"/><text fill="#000000" font-family="sans-serif" font-size="13" lengthAdjust="spacing" textLength="89" x="527.5" y="218.4736">allJobOpening()</text><polygon fill="#181818" points="1091,251.0273,1101,255.0273,1091,259.0273,1095,255.0273" style="stroke:#181818;stroke-width:1.0;"/><line style="stroke:#181818;stroke-width:1.0;" x1="869.5" x2="1097" y1="255.0273" y2="255.0273"/><text fill="#000000" font-family="sans-serif" font-size="13" lengthAdjust="spacing" textLength="94" x="876.5" y="249.7646">findAllAvailable()</text><polygon fill="#181818" points="1333,282.3184,1343,286.3184,1333,290.3184,1337,286.3184" style="stroke:#181818;stroke-width:1.0;"/><line style="stroke:#181818;stroke-width:1.0;" x1="1113" x2="1339" y1="286.3184" y2="286.3184"/><text fill="#000000" font-family="sans-serif" font-size="13" lengthAdjust="spacing" textLength="213" x="1120" y="281.0557">ensureAuthenticatedUserHasAnyOf()</text><polygon fill="#181818" points="1124,313.6094,1114,317.6094,1124,321.6094,1120,317.6094" style="stroke:#181818;stroke-width:1.0;"/><line style="stroke:#181818;stroke-width:1.0;stroke-dasharray:2.0,2.0;" x1="1118" x2="1349" y1="317.6094" y2="317.6094"/><text fill="#000000" font-family="sans-serif" font-size="13" lengthAdjust="spacing" textLength="152" x="1130" y="312.3467">(in)success authentication</text><polygon fill="#181818" points="2286.5,344.9004,2296.5,348.9004,2286.5,352.9004,2290.5,348.9004" style="stroke:#181818;stroke-width:1.0;"/><line style="stroke:#181818;stroke-width:1.0;" x1="1113" x2="2292.5" y1="348.9004" y2="348.9004"/><text fill="#000000" font-family="sans-serif" font-size="13" lengthAdjust="spacing" textLength="43" x="1120" y="343.6377">findAll()</text><polygon fill="#181818" points="1124,376.1914,1114,380.1914,1124,384.1914,1120,380.1914" style="stroke:#181818;stroke-width:1.0;"/><line style="stroke:#181818;stroke-width:1.0;stroke-dasharray:2.0,2.0;" x1="1118" x2="2302.5" y1="380.1914" y2="380.1914"/><text fill="#000000" font-family="sans-serif" font-size="13" lengthAdjust="spacing" textLength="72" x="1130" y="374.9287">jobOpenings</text><polygon fill="#181818" points="880.5,407.4824,870.5,411.4824,880.5,415.4824,876.5,411.4824" style="stroke:#181818;stroke-width:1.0;"/><line style="stroke:#181818;stroke-width:1.0;stroke-dasharray:2.0,2.0;" x1="874.5" x2="1107" y1="411.4824" y2="411.4824"/><text fill="#000000" font-family="sans-serif" font-size="13" lengthAdjust="spacing" textLength="72" x="886.5" y="406.2197">jobOpenings</text><polygon fill="#181818" points="531.5,438.7734,521.5,442.7734,531.5,446.7734,527.5,442.7734" style="stroke:#181818;stroke-width:1.0;"/><line style="stroke:#181818;stroke-width:1.0;stroke-dasharray:2.0,2.0;" x1="525.5" x2="863.5" y1="442.7734" y2="442.7734"/><text fill="#000000" font-family="sans-serif" font-size="13" lengthAdjust="spacing" textLength="72" x="537.5" y="437.5107">jobOpenings</text><polygon fill="#181818" points="107.5,470.0645,97.5,474.0645,107.5,478.0645,103.5,474.0645" style="stroke:#181818;stroke-width:1.0;"/><line style="stroke:#181818;stroke-width:1.0;stroke-dasharray:2.0,2.0;" x1="101.5" x2="514.5" y1="474.0645" y2="474.0645"/><text fill="#000000" font-family="sans-serif" font-size="13" lengthAdjust="spacing" textLength="108" x="113.5" y="468.8018">list of job openings</text><polygon fill="#181818" points="498.5,501.3555,508.5,505.3555,498.5,509.3555,502.5,505.3555" style="stroke:#181818;stroke-width:1.0;"/><line style="stroke:#181818;stroke-width:1.0;" x1="96.5" x2="504.5" y1="505.3555" y2="505.3555"/><text fill="#000000" font-family="sans-serif" font-size="13" lengthAdjust="spacing" textLength="117" x="103.5" y="500.0928">Select a jobOpening</text><polygon fill="#181818" points="847.5,532.6465,857.5,536.6465,847.5,540.6465,851.5,536.6465" style="stroke:#181818;stroke-width:1.0;"/><line style="stroke:#181818;stroke-width:1.0;" x1="520.5" x2="853.5" y1="536.6465" y2="536.6465"/><text fill="#000000" font-family="sans-serif" font-size="13" lengthAdjust="spacing" textLength="313" x="527.5" y="531.3838">allJobApplicationsByJobOpening(selectedJobOpening)</text><polygon fill="#181818" points="1539.5,563.9375,1549.5,567.9375,1539.5,571.9375,1543.5,567.9375" style="stroke:#181818;stroke-width:1.0;"/><line style="stroke:#181818;stroke-width:1.0;" x1="869.5" x2="1545.5" y1="567.9375" y2="567.9375"/><text fill="#000000" font-family="sans-serif" font-size="13" lengthAdjust="spacing" textLength="167" x="876.5" y="562.6748">jobApplicationOf(jobOpening)</text><polygon fill="#181818" points="2456,595.2285,2466,599.2285,2456,603.2285,2460,599.2285" style="stroke:#181818;stroke-width:1.0;"/><line style="stroke:#181818;stroke-width:1.0;" x1="1561.5" x2="2462" y1="599.2285" y2="599.2285"/><text fill="#000000" font-family="sans-serif" font-size="13" lengthAdjust="spacing" textLength="268" x="1568.5" y="593.9658">findJobApplicationsByJobOpening(jobOpening)</text><polygon fill="#181818" points="1572.5,626.5195,1562.5,630.5195,1572.5,634.5195,1568.5,630.5195" style="stroke:#181818;stroke-width:1.0;"/><line style="stroke:#181818;stroke-width:1.0;stroke-dasharray:2.0,2.0;" x1="1566.5" x2="2472" y1="630.5195" y2="630.5195"/><text fill="#000000" font-family="sans-serif" font-size="13" lengthAdjust="spacing" textLength="88" x="1578.5" y="625.2568">jobApplications</text><polygon fill="#181818" points="880.5,657.8105,870.5,661.8105,880.5,665.8105,876.5,661.8105" style="stroke:#181818;stroke-width:1.0;"/><line style="stroke:#181818;stroke-width:1.0;stroke-dasharray:2.0,2.0;" x1="874.5" x2="1555.5" y1="661.8105" y2="661.8105"/><text fill="#000000" font-family="sans-serif" font-size="13" lengthAdjust="spacing" textLength="88" x="886.5" y="656.5479">jobApplications</text><polygon fill="#181818" points="531.5,689.1016,521.5,693.1016,531.5,697.1016,527.5,693.1016" style="stroke:#181818;stroke-width:1.0;"/><line style="stroke:#181818;stroke-width:1.0;stroke-dasharray:2.0,2.0;" x1="525.5" x2="863.5" y1="693.1016" y2="693.1016"/><text fill="#000000" font-family="sans-serif" font-size="13" lengthAdjust="spacing" textLength="88" x="537.5" y="687.8389">jobApplications</text><polygon fill="#181818" points="107.5,720.3926,97.5,724.3926,107.5,728.3926,103.5,724.3926" style="stroke:#181818;stroke-width:1.0;"/><line style="stroke:#181818;stroke-width:1.0;stroke-dasharray:2.0,2.0;" x1="101.5" x2="514.5" y1="724.3926" y2="724.3926"/><text fill="#000000" font-family="sans-serif" font-size="13" lengthAdjust="spacing" textLength="125" x="113.5" y="719.1299">list of job applications</text><polygon fill="#181818" points="498.5,751.6836,508.5,755.6836,498.5,759.6836,502.5,755.6836" style="stroke:#181818;stroke-width:1.0;"/><line style="stroke:#181818;stroke-width:1.0;" x1="96.5" x2="504.5" y1="755.6836" y2="755.6836"/><text fill="#000000" font-family="sans-serif" font-size="13" lengthAdjust="spacing" textLength="133" x="103.5" y="750.4209">Select a jobApplication</text><path d="M101,768.6836 L101,795.6836 L342,795.6836 L342,778.6836 L332,768.6836 L101,768.6836 " fill="#FEFFDD" style="stroke:#181818;stroke-width:0.5;"/><path d="M332,768.6836 L332,778.6836 L342,778.6836 L332,768.6836 " fill="#FEFFDD" style="stroke:#181818;stroke-width:0.5;"/><text fill="#000000" font-family="sans-serif" font-size="13" lengthAdjust="spacing" textLength="220" x="107" y="787.7119">Export automatically the text interview</text><polygon fill="#181818" points="847.5,820.2656,857.5,824.2656,847.5,828.2656,851.5,824.2656" style="stroke:#181818;stroke-width:1.0;"/><line style="stroke:#181818;stroke-width:1.0;" x1="520.5" x2="853.5" y1="824.2656" y2="824.2656"/><text fill="#000000" font-family="sans-serif" font-size="13" lengthAdjust="spacing" textLength="188" x="527.5" y="819.0029">searchInterviewModels(fileName)</text><polygon fill="#181818" points="1773.5,851.5566,1783.5,855.5566,1773.5,859.5566,1777.5,855.5566" style="stroke:#181818;stroke-width:1.0;"/><line style="stroke:#181818;stroke-width:1.0;" x1="869.5" x2="1779.5" y1="855.5566" y2="855.5566"/><text fill="#000000" font-family="sans-serif" font-size="13" lengthAdjust="spacing" textLength="138" x="876.5" y="850.2939">searchInterviewModels()</text><line style="stroke:#181818;stroke-width:1.0;" x1="1795.5" x2="1837.5" y1="886.8477" y2="886.8477"/><line style="stroke:#181818;stroke-width:1.0;" x1="1837.5" x2="1837.5" y1="886.8477" y2="899.8477"/><line style="stroke:#181818;stroke-width:1.0;" x1="1796.5" x2="1837.5" y1="899.8477" y2="899.8477"/><polygon fill="#181818" points="1806.5,895.8477,1796.5,899.8477,1806.5,903.8477,1802.5,899.8477" style="stroke:#181818;stroke-width:1.0;"/><text fill="#000000" font-family="sans-serif" font-size="13" lengthAdjust="spacing" textLength="100" x="1802.5" y="881.585">fullPath.toString()</text><polygon fill="#181818" points="880.5,927.1387,870.5,931.1387,880.5,935.1387,876.5,931.1387" style="stroke:#181818;stroke-width:1.0;"/><line style="stroke:#181818;stroke-width:1.0;stroke-dasharray:2.0,2.0;" x1="874.5" x2="1789.5" y1="931.1387" y2="931.1387"/><text fill="#000000" font-family="sans-serif" font-size="13" lengthAdjust="spacing" textLength="100" x="886.5" y="925.876">fullPath.toString()</text><polygon fill="#181818" points="531.5,958.4297,521.5,962.4297,531.5,966.4297,527.5,962.4297" style="stroke:#181818;stroke-width:1.0;"/><line style="stroke:#181818;stroke-width:1.0;stroke-dasharray:2.0,2.0;" x1="525.5" x2="863.5" y1="962.4297" y2="962.4297"/><text fill="#000000" font-family="sans-serif" font-size="13" lengthAdjust="spacing" textLength="100" x="537.5" y="957.167">fullPath.toString()</text><polygon fill="#181818" points="847.5,989.7207,857.5,993.7207,847.5,997.7207,851.5,993.7207" style="stroke:#181818;stroke-width:1.0;"/><line style="stroke:#181818;stroke-width:1.0;" x1="520.5" x2="853.5" y1="993.7207" y2="993.7207"/><text fill="#000000" font-family="sans-serif" font-size="13" lengthAdjust="spacing" textLength="222" x="527.5" y="988.458">exportTextInterview(filePath, nameFile)</text><polygon fill="#181818" points="1773.5,1021.0117,1783.5,1025.0117,1773.5,1029.0117,1777.5,1025.0117" style="stroke:#181818;stroke-width:1.0;"/><line style="stroke:#181818;stroke-width:1.0;" x1="869.5" x2="1779.5" y1="1025.0117" y2="1025.0117"/><text fill="#000000" font-family="sans-serif" font-size="13" lengthAdjust="spacing" textLength="222" x="876.5" y="1019.749">exportTextInterview(filePath, nameFile)</text><line style="stroke:#181818;stroke-width:1.0;" x1="1795.5" x2="1837.5" y1="1056.3027" y2="1056.3027"/><line style="stroke:#181818;stroke-width:1.0;" x1="1837.5" x2="1837.5" y1="1056.3027" y2="1069.3027"/><line style="stroke:#181818;stroke-width:1.0;" x1="1796.5" x2="1837.5" y1="1069.3027" y2="1069.3027"/><polygon fill="#181818" points="1806.5,1065.3027,1796.5,1069.3027,1806.5,1073.3027,1802.5,1069.3027" style="stroke:#181818;stroke-width:1.0;"/><text fill="#000000" font-family="sans-serif" font-size="13" lengthAdjust="spacing" textLength="489" x="1802.5" y="1051.04">Files.copy(sourcePath. destinationPath. StandardCopyOption.REPLACE_EXISTING)</text><polygon fill="#181818" points="880.5,1096.5938,870.5,1100.5938,880.5,1104.5938,876.5,1100.5938" style="stroke:#181818;stroke-width:1.0;"/><line style="stroke:#181818;stroke-width:1.0;stroke-dasharray:2.0,2.0;" x1="874.5" x2="1789.5" y1="1100.5938" y2="1100.5938"/><text fill="#000000" font-family="sans-serif" font-size="13" lengthAdjust="spacing" textLength="252" x="886.5" y="1095.3311">file (not)exported to downloads successfully</text><polygon fill="#181818" points="531.5,1127.8848,521.5,1131.8848,531.5,1135.8848,527.5,1131.8848" style="stroke:#181818;stroke-width:1.0;"/><line style="stroke:#181818;stroke-width:1.0;stroke-dasharray:2.0,2.0;" x1="525.5" x2="863.5" y1="1131.8848" y2="1131.8848"/><text fill="#000000" font-family="sans-serif" font-size="13" lengthAdjust="spacing" textLength="252" x="537.5" y="1126.6221">file (not)exported to downloads successfully</text><polygon fill="#181818" points="107.5,1159.1758,97.5,1163.1758,107.5,1167.1758,103.5,1163.1758" style="stroke:#181818;stroke-width:1.0;"/><line style="stroke:#181818;stroke-width:1.0;stroke-dasharray:2.0,2.0;" x1="101.5" x2="509.5" y1="1163.1758" y2="1163.1758"/><text fill="#000000" font-family="sans-serif" font-size="13" lengthAdjust="spacing" textLength="252" x="113.5" y="1157.9131">file (not)exported to downloads successfully</text><path d="M10,1178.1758 L71,1178.1758 L71,1187.4668 L61,1197.4668 L10,1197.4668 L10,1178.1758 " fill="#EEEEEE" style="stroke:#000000;stroke-width:1.5;"/><rect fill="none" height="456.0449" style="stroke:#000000;stroke-width:1.5;" width="2303.5" x="10" y="1178.1758"/><text fill="#000000" font-family="sans-serif" font-size="13" font-weight="bold" lengthAdjust="spacing" textLength="16" x="25" y="1193.2041">alt</text><text fill="#000000" font-family="sans-serif" font-size="11" font-weight="bold" lengthAdjust="spacing" textLength="161" x="86" y="1192.0459">[if file exported successfully]</text><polygon fill="#181818" points="107.5,1216.7578,97.5,1220.7578,107.5,1224.7578,103.5,1220.7578" style="stroke:#181818;stroke-width:1.0;"/><line style="stroke:#181818;stroke-width:1.0;" x1="101.5" x2="514.5" y1="1220.7578" y2="1220.7578"/><text fill="#000000" font-family="sans-serif" font-size="13" lengthAdjust="spacing" textLength="390" x="113.5" y="1215.4951">File exported successfully and Display if you want to import the file.</text><path d="M20,1235.7578 L81,1235.7578 L81,1245.0488 L71,1255.0488 L20,1255.0488 L20,1235.7578 " fill="#EEEEEE" style="stroke:#000000;stroke-width:1.5;"/><rect fill="none" height="343.541" style="stroke:#000000;stroke-width:1.5;" width="2283.5" x="20" y="1235.7578"/><text fill="#000000" font-family="sans-serif" font-size="13" font-weight="bold" lengthAdjust="spacing" textLength="16" x="35" y="1250.7861">alt</text><text fill="#000000" font-family="sans-serif" font-size="11" font-weight="bold" lengthAdjust="spacing" textLength="97" x="96" y="1249.6279">[if answer="Yes"]</text><polygon fill="#181818" points="498.5,1274.3398,508.5,1278.3398,498.5,1282.3398,502.5,1278.3398" style="stroke:#181818;stroke-width:1.0;"/><line style="stroke:#181818;stroke-width:1.0;" x1="96.5" x2="504.5" y1="1278.3398" y2="1278.3398"/><text fill="#000000" font-family="sans-serif" font-size="13" lengthAdjust="spacing" textLength="157" x="103.5" y="1273.0771">Enter the file path to import</text><polygon fill="#181818" points="847.5,1305.6309,857.5,1309.6309,847.5,1313.6309,851.5,1309.6309" style="stroke:#181818;stroke-width:1.0;"/><line style="stroke:#181818;stroke-width:1.0;" x1="520.5" x2="853.5" y1="1309.6309" y2="1309.6309"/><text fill="#000000" font-family="sans-serif" font-size="13" lengthAdjust="spacing" textLength="320" x="527.5" y="1304.3682">importTextInterview(filePath, destinationPath, nameFile)</text><polygon fill="#181818" points="1773.5,1336.9219,1783.5,1340.9219,1773.5,1344.9219,1777.5,1340.9219" style="stroke:#181818;stroke-width:1.0;"/><line style="stroke:#181818;stroke-width:1.0;" x1="869.5" x2="1779.5" y1="1340.9219" y2="1340.9219"/><text fill="#000000" font-family="sans-serif" font-size="13" lengthAdjust="spacing" textLength="365" x="876.5" y="1335.6592">importTextInterview(downloadsPath, destinationPath, nameFile)</text><line style="stroke:#181818;stroke-width:1.0;" x1="1795.5" x2="1837.5" y1="1372.2129" y2="1372.2129"/><line style="stroke:#181818;stroke-width:1.0;" x1="1837.5" x2="1837.5" y1="1372.2129" y2="1385.2129"/><line style="stroke:#181818;stroke-width:1.0;" x1="1796.5" x2="1837.5" y1="1385.2129" y2="1385.2129"/><polygon fill="#181818" points="1806.5,1381.2129,1796.5,1385.2129,1806.5,1389.2129,1802.5,1385.2129" style="stroke:#181818;stroke-width:1.0;"/><text fill="#000000" font-family="sans-serif" font-size="13" lengthAdjust="spacing" textLength="388" x="1802.5" y="1366.9502">copyFile(destination, pathdownloadsPath, nameFile, newFileName)</text><line style="stroke:#181818;stroke-width:1.0;" x1="1795.5" x2="1837.5" y1="1416.5039" y2="1416.5039"/><line style="stroke:#181818;stroke-width:1.0;" x1="1837.5" x2="1837.5" y1="1416.5039" y2="1429.5039"/><line style="stroke:#181818;stroke-width:1.0;" x1="1796.5" x2="1837.5" y1="1429.5039" y2="1429.5039"/><polygon fill="#181818" points="1806.5,1425.5039,1796.5,1429.5039,1806.5,1433.5039,1802.5,1429.5039" style="stroke:#181818;stroke-width:1.0;"/><text fill="#000000" font-family="sans-serif" font-size="13" lengthAdjust="spacing" textLength="489" x="1802.5" y="1411.2412">Files.copy(sourcePath, destinationPath, StandardCopyOption.REPLACE_EXISTING)</text><polygon fill="#181818" points="880.5,1456.7949,870.5,1460.7949,880.5,1464.7949,876.5,1460.7949" style="stroke:#181818;stroke-width:1.0;"/><line style="stroke:#181818;stroke-width:1.0;stroke-dasharray:2.0,2.0;" x1="874.5" x2="1789.5" y1="1460.7949" y2="1460.7949"/><text fill="#000000" font-family="sans-serif" font-size="13" lengthAdjust="spacing" textLength="268" x="886.5" y="1455.5322">file (not)imported to path SCOMP successfully</text><polygon fill="#181818" points="531.5,1488.0859,521.5,1492.0859,531.5,1496.0859,527.5,1492.0859" style="stroke:#181818;stroke-width:1.0;"/><line style="stroke:#181818;stroke-width:1.0;stroke-dasharray:2.0,2.0;" x1="525.5" x2="863.5" y1="1492.0859" y2="1492.0859"/><text fill="#000000" font-family="sans-serif" font-size="13" lengthAdjust="spacing" textLength="268" x="537.5" y="1486.8232">file (not)imported to path SCOMP successfully</text><polygon fill="#181818" points="107.5,1519.377,97.5,1523.377,107.5,1527.377,103.5,1523.377" style="stroke:#181818;stroke-width:1.0;"/><line style="stroke:#181818;stroke-width:1.0;stroke-dasharray:2.0,2.0;" x1="101.5" x2="509.5" y1="1523.377" y2="1523.377"/><text fill="#000000" font-family="sans-serif" font-size="13" lengthAdjust="spacing" textLength="70" x="113.5" y="1518.1143">file imported</text><line style="stroke:#000000;stroke-width:1.0;stroke-dasharray:2.0,2.0;" x1="20" x2="2303.5" y1="1532.377" y2="1532.377"/><text fill="#000000" font-family="sans-serif" font-size="11" font-weight="bold" lengthAdjust="spacing" textLength="90" x="25" y="1544.2471">[if answer="No"]</text><polygon fill="#181818" points="107.5,1567.2988,97.5,1571.2988,107.5,1575.2988,103.5,1571.2988" style="stroke:#181818;stroke-width:1.0;"/><line style="stroke:#181818;stroke-width:1.0;stroke-dasharray:2.0,2.0;" x1="101.5" x2="509.5" y1="1571.2988" y2="1571.2988"/><text fill="#000000" font-family="sans-serif" font-size="13" lengthAdjust="spacing" textLength="97" x="113.5" y="1566.0361">File not imported</text><line style="stroke:#000000;stroke-width:1.0;stroke-dasharray:2.0,2.0;" x1="10" x2="2313.5" y1="1587.2988" y2="1587.2988"/><text fill="#000000" font-family="sans-serif" font-size="11" font-weight="bold" lengthAdjust="spacing" textLength="182" x="15" y="1599.1689">[if file not exported successfully]</text><polygon fill="#181818" points="107.5,1622.2207,97.5,1626.2207,107.5,1630.2207,103.5,1626.2207" style="stroke:#181818;stroke-width:1.0;"/><line style="stroke:#181818;stroke-width:1.0;stroke-dasharray:2.0,2.0;" x1="101.5" x2="509.5" y1="1626.2207" y2="1626.2207"/><text fill="#000000" font-family="sans-serif" font-size="13" lengthAdjust="spacing" textLength="173" x="113.5" y="1620.958">File not exported successfully</text><!--SRC=[jLXTR-8u57tFhx1u0ccAkg-8hSHGPfVLfgs6GTfz6hc90SyOEnkRCfbVlzS994vY9uOoF5JWZtFFlJdt8vNVAKzmYlSemT5tl2KhbJ62KX8fpBUC1B8y87Su5aVAjsY3cJHt6EL4PGb1YM2P_X4Ocn73KiwKIkdhGP5b9FYA_YJeFWWKLM1gHVux41uHz4ZnLbyOhXv7w0wjv_VtlmK1ZfH8qVmWbTYJDCGSEAO8IpGF0p2WQ4GJp1LQ9qpW-0lvePPSaVIDacCeOiBMItqO_awdIKeauGehAlZ3WzVjkU0g5OoTJ5Q_fbES98n6Dh311FqbNfyJmY5O1UCzs5rft8WCD5ArVrf5W2YBhssqsK7jH4f_viPC6Brn1kYu3zPc5Lid8-EC1sWLA2jUkMs32cAiy2kMn0Z4Pv88IU5XP_K06UlJQLh-01GJfEIk16yXEJPTS7K9rD6SUmqmhLlwXXNHEWqGVEOXkhjx02LEGF8CyWkf7K5qduXKeGs5J3XIjOFCaudWm2B2FAR0YUItIxZrCYZmGD80LqboWgAKm8dXgDWtBrMdoZramq0JX1chOg-nQXToHwhZSBcjv0bum-CPOxCtJ1b-PIQb6gtMtROnP340LatXJn3Xyf0IlGOYr0-Qn6iGsvzOpdZsl6cOR_CmqEmdzSSqUUTmV4ZvI1wYY4Y9S4K74igE6nDV3jOeM9Ea37-lsxRhRl-jnbo1-5QkoLxFVMbOGj0KhykirPersgQuysnre1g8bkJIUQMvXN2RKQcGs6WK96em1eREwZE349qDd-e4DXWOR6sN-pFRAFBoOsQakioDaRXQikcdjwHqr0bBVyc3Qwn3idxhjE_GSHkw- -v9JnP63QhrZb7aLbSKlTbtUb6pweVJzAXE_Cxx2KW_S_MCkfQuun5OqjgVeODPhp0ScTzZkBiErDBHLX2m4zrU7BegXC6qTfmBm4ZfTfTRXN6aIMxn8vz1e669FTODYx4i7quKpCE8dYUUsZt2unoupkpIaYG9JgDTVQQIGpqCFU4zwUjV_IMeMOHQGwcBWc_fQGBsIxv5mKvhSs3i1QlTM8aLl3evHh5-y6R4hRYUwUJlh2sNl2rxfbINj60ap3LTUw7BTQKPV40SrFK9VddKw8kvU2llPXHleCeh5Ah9oN4aacmenI6DSjvZU7fIKPvNeM9XfU151gVn74u-9tfz_7dnylTillYw-6Uv-h9y-cFqNe8jbUlNgI7Kfr4HP18Z9L0iZbo_vajqcj6r92zehrUbGczQt9Jg5RdJR4-t9OGPT91D0LhYNHx-KuA79ztPeH083JrIcJ2SQQEPEA2Z_cy5y3-zP-kkfhcCBvvoR1sjms7CvP6alm_-9NBWAOwggo-qkagkA84ygdouSApqvUteq8LDLv5g9FlxgjQb1TQxqDfyAFLyEqTkM88lACEw06kYGyE53xba6YwUFO9lvFYfUyJwLUt14cY_zd03bkuUKUYZg7Dvhgtcp-7BbKtY9et2hs7SbFULdSFPGSxaF9yT3Dt4h9jFOd2TyRmzG7GC0bxskSV1CydDsSOxErgByvLudUJD1nlsJznXrsje_U3_]--></g></svg>