<?xml version="1.0" encoding="us-ascii" standalone="no"?><svg xmlns="http://www.w3.org/2000/svg" xmlns:xlink="http://www.w3.org/1999/xlink" contentStyleType="text/css" height="814.05px" preserveAspectRatio="none" style="width:608px;height:814px;background:#FFFFFF;" version="1.1" viewBox="0 0 608 814" width="608.31px" zoomAndPan="magnify"><defs/><g><text fill="#000000" font-family="sans-serif" font-size="11.34" font-weight="bold" lengthAdjust="spacing" textLength="230.85" x="188.5275" y="24.387">System Sequence Diagram (SSD) - UC029</text><rect fill="#FFFFFF" height="624.7426" style="stroke:#181818;stroke-width:0.81;" width="8.1" x="63.585" y="107.9262"/><rect fill="#FFFFFF" height="145.6972" style="stroke:#181818;stroke-width:0.81;" width="8.1" x="316.305" y="126.7919"/><rect fill="#FFFFFF" height="22.68" style="stroke:#181818;stroke-width:0.81;" width="8.1" x="320.355" y="158.6176"/><rect fill="#FFFFFF" height="22.68" style="stroke:#181818;stroke-width:0.81;" width="8.1" x="320.355" y="218.7933"/><rect fill="#FFFFFF" height="258.1843" style="stroke:#181818;stroke-width:0.81;" width="8.1" x="316.305" y="297.8348"/><rect fill="#FFFFFF" height="22.68" style="stroke:#181818;stroke-width:0.81;" width="8.1" x="320.355" y="329.6605"/><rect fill="#FFFFFF" height="22.68" style="stroke:#181818;stroke-width:0.81;" width="8.1" x="320.355" y="411.132"/><rect fill="#FFFFFF" height="22.68" style="stroke:#181818;stroke-width:0.81;" width="8.1" x="320.355" y="471.3077"/><rect fill="#FFFFFF" height="130.0082" style="stroke:#181818;stroke-width:0.81;" width="8.1" x="316.305" y="602.6606"/><rect fill="#FFFFFF" height="22.68" style="stroke:#181818;stroke-width:0.81;" width="8.1" x="320.355" y="634.4863"/><rect fill="none" height="135.9772" style="stroke:#000000;stroke-width:1.215;" width="247.05" x="286.335" y="370.1605"/><rect fill="none" height="139.9639" style="stroke:#000000;stroke-width:1.215;" width="471.015" x="8.1" y="568.1691"/><line style="stroke:#181818;stroke-width:0.405;stroke-dasharray:5.0,5.0;" x1="67.23" x2="67.23" y1="99.8262" y2="747.2487"/><line style="stroke:#181818;stroke-width:0.405;stroke-dasharray:5.0,5.0;" x1="320.355" x2="320.355" y1="99.8262" y2="747.2487"/><text fill="#000000" font-family="sans-serif" font-size="11.34" lengthAdjust="spacing" textLength="98.01" x="16.2" y="96.9801">Customer Manager</text><ellipse cx="67.635" cy="43.0281" fill="#E3E3E3" rx="6.48" ry="6.48" style="stroke:#181818;stroke-width:0.405;"/><path d="M67.635,49.5081 L67.635,71.3781 M57.105,55.9881 L78.165,55.9881 M67.635,71.3781 L57.105,83.5281 M67.635,71.3781 L78.165,83.5281 " fill="none" style="stroke:#181818;stroke-width:0.405;"/><text fill="#000000" font-family="sans-serif" font-size="11.34" lengthAdjust="spacing" textLength="98.01" x="16.2" y="758.6757">Customer Manager</text><ellipse cx="67.635" cy="768.4068" fill="#E3E3E3" rx="6.48" ry="6.48" style="stroke:#181818;stroke-width:0.405;"/><path d="M67.635,774.8868 L67.635,796.7568 M57.105,781.3668 L78.165,781.3668 M67.635,796.7568 L57.105,808.9068 M67.635,796.7568 L78.165,808.9068 " fill="none" style="stroke:#181818;stroke-width:0.405;"/><rect fill="#E3E3E3" height="26.4231" rx="2.025" ry="2.025" style="stroke:#181818;stroke-width:0.405;" width="51.84" x="294.435" y="72.5931"/><text fill="#000000" font-family="sans-serif" font-size="11.34" lengthAdjust="spacing" textLength="40.5" x="300.105" y="90.5001">:System</text><rect fill="#E3E3E3" height="26.4231" rx="2.025" ry="2.025" style="stroke:#181818;stroke-width:0.405;" width="51.84" x="294.435" y="746.4387"/><text fill="#000000" font-family="sans-serif" font-size="11.34" lengthAdjust="spacing" textLength="40.5" x="300.105" y="764.3457">:System</text><rect fill="#FFFFFF" height="624.7426" style="stroke:#181818;stroke-width:0.81;" width="8.1" x="63.585" y="107.9262"/><rect fill="#FFFFFF" height="145.6972" style="stroke:#181818;stroke-width:0.81;" width="8.1" x="316.305" y="126.7919"/><rect fill="#FFFFFF" height="22.68" style="stroke:#181818;stroke-width:0.81;" width="8.1" x="320.355" y="158.6176"/><rect fill="#FFFFFF" height="22.68" style="stroke:#181818;stroke-width:0.81;" width="8.1" x="320.355" y="218.7933"/><rect fill="#FFFFFF" height="258.1843" style="stroke:#181818;stroke-width:0.81;" width="8.1" x="316.305" y="297.8348"/><rect fill="#FFFFFF" height="22.68" style="stroke:#181818;stroke-width:0.81;" width="8.1" x="320.355" y="329.6605"/><rect fill="#FFFFFF" height="22.68" style="stroke:#181818;stroke-width:0.81;" width="8.1" x="320.355" y="411.132"/><rect fill="#FFFFFF" height="22.68" style="stroke:#181818;stroke-width:0.81;" width="8.1" x="320.355" y="471.3077"/><rect fill="#FFFFFF" height="130.0082" style="stroke:#181818;stroke-width:0.81;" width="8.1" x="316.305" y="602.6606"/><rect fill="#FFFFFF" height="22.68" style="stroke:#181818;stroke-width:0.81;" width="8.1" x="320.355" y="634.4863"/><polygon fill="#181818" points="306.585,123.5519,314.685,126.7919,306.585,130.0319,309.825,126.7919" style="stroke:#181818;stroke-width:0.81;"/><line style="stroke:#181818;stroke-width:0.81;" x1="71.685" x2="311.445" y1="126.7919" y2="126.7919"/><text fill="#000000" font-family="sans-serif" font-size="10.53" font-weight="bold" lengthAdjust="spacing" textLength="5.67" x="77.355" y="122.5291">1</text><text fill="#000000" font-family="sans-serif" font-size="10.53" lengthAdjust="spacing" textLength="220.32" x="86.265" y="122.5291">Requests to verify a job opening's requirements</text><line style="stroke:#181818;stroke-width:0.81;" x1="328.455" x2="362.475" y1="152.1376" y2="152.1376"/><line style="stroke:#181818;stroke-width:0.81;" x1="362.475" x2="362.475" y1="152.1376" y2="162.6676"/><line style="stroke:#181818;stroke-width:0.81;" x1="329.265" x2="362.475" y1="162.6676" y2="162.6676"/><polygon fill="#181818" points="337.365,159.4276,329.265,162.6676,337.365,165.9076,334.125,162.6676" style="stroke:#181818;stroke-width:0.81;"/><text fill="#000000" font-family="sans-serif" font-size="10.53" font-weight="bold" lengthAdjust="spacing" textLength="5.67" x="334.125" y="147.8748">2</text><text fill="#000000" font-family="sans-serif" font-size="10.53" lengthAdjust="spacing" textLength="118.26" x="343.035" y="147.8748">Retrieve job opening's list</text><line style="stroke:#181818;stroke-width:0.81;" x1="328.455" x2="362.475" y1="212.3133" y2="212.3133"/><line style="stroke:#181818;stroke-width:0.81;" x1="362.475" x2="362.475" y1="212.3133" y2="222.8433"/><line style="stroke:#181818;stroke-width:0.81;" x1="329.265" x2="362.475" y1="222.8433" y2="222.8433"/><polygon fill="#181818" points="337.365,219.6033,329.265,222.8433,337.365,226.0833,334.125,222.8433" style="stroke:#181818;stroke-width:0.81;"/><text fill="#000000" font-family="sans-serif" font-size="10.53" font-weight="bold" lengthAdjust="spacing" textLength="5.67" x="334.125" y="208.0506">3</text><text fill="#000000" font-family="sans-serif" font-size="10.53" lengthAdjust="spacing" textLength="260.01" x="343.035" y="208.0506">Select job opening's with phase's application completed</text><polygon fill="#181818" points="80.595,269.2491,72.495,272.4891,80.595,275.7291,77.355,272.4891" style="stroke:#181818;stroke-width:0.81;"/><line style="stroke:#181818;stroke-width:0.81;stroke-dasharray:2.0,2.0;" x1="75.735" x2="319.545" y1="272.4891" y2="272.4891"/><text fill="#000000" font-family="sans-serif" font-size="10.53" font-weight="bold" lengthAdjust="spacing" textLength="5.67" x="85.455" y="268.2263">4</text><text fill="#000000" font-family="sans-serif" font-size="10.53" lengthAdjust="spacing" textLength="115.83" x="94.365" y="268.2263">Display job opening's list</text><polygon fill="#181818" points="306.585,294.5948,314.685,297.8348,306.585,301.0748,309.825,297.8348" style="stroke:#181818;stroke-width:0.81;"/><line style="stroke:#181818;stroke-width:0.81;" x1="71.685" x2="311.445" y1="297.8348" y2="297.8348"/><text fill="#000000" font-family="sans-serif" font-size="10.53" font-weight="bold" lengthAdjust="spacing" textLength="5.67" x="77.355" y="293.572">5</text><text fill="#000000" font-family="sans-serif" font-size="10.53" lengthAdjust="spacing" textLength="209.79" x="86.265" y="293.572">Select one job opening to verify requirements</text><line style="stroke:#181818;stroke-width:0.81;" x1="328.455" x2="362.475" y1="323.1805" y2="323.1805"/><line style="stroke:#181818;stroke-width:0.81;" x1="362.475" x2="362.475" y1="323.1805" y2="333.7105"/><line style="stroke:#181818;stroke-width:0.81;" x1="329.265" x2="362.475" y1="333.7105" y2="333.7105"/><polygon fill="#181818" points="337.365,330.4705,329.265,333.7105,337.365,336.9505,334.125,333.7105" style="stroke:#181818;stroke-width:0.81;"/><text fill="#000000" font-family="sans-serif" font-size="10.53" font-weight="bold" lengthAdjust="spacing" textLength="5.67" x="334.125" y="318.9177">6</text><text fill="#000000" font-family="sans-serif" font-size="10.53" lengthAdjust="spacing" textLength="177.39" x="343.035" y="318.9177">Retrieve job opening's job applications</text><path d="M286.335,370.1605 L345.465,370.1605 L345.465,377.6862 L337.365,385.7862 L286.335,385.7862 L286.335,370.1605 " fill="#EEEEEE" style="stroke:#000000;stroke-width:1.215;"/><rect fill="none" height="135.9772" style="stroke:#000000;stroke-width:1.215;" width="247.05" x="286.335" y="370.1605"/><text fill="#000000" font-family="sans-serif" font-size="10.53" font-weight="bold" lengthAdjust="spacing" textLength="22.68" x="298.485" y="382.3334">loop</text><text fill="#000000" font-family="sans-serif" font-size="8.91" font-weight="bold" lengthAdjust="spacing" textLength="109.35" x="357.615" y="381.3953">[for each job application]</text><line style="stroke:#181818;stroke-width:0.81;" x1="328.455" x2="362.475" y1="404.652" y2="404.652"/><line style="stroke:#181818;stroke-width:0.81;" x1="362.475" x2="362.475" y1="404.652" y2="415.182"/><line style="stroke:#181818;stroke-width:0.81;" x1="329.265" x2="362.475" y1="415.182" y2="415.182"/><polygon fill="#181818" points="337.365,411.942,329.265,415.182,337.365,418.422,334.125,415.182" style="stroke:#181818;stroke-width:0.81;"/><text fill="#000000" font-family="sans-serif" font-size="10.53" font-weight="bold" lengthAdjust="spacing" textLength="5.67" x="334.125" y="400.3892">7</text><text fill="#000000" font-family="sans-serif" font-size="10.53" lengthAdjust="spacing" textLength="180.63" x="343.035" y="400.3892">Retrieve job application's requirement's</text><line style="stroke:#181818;stroke-width:0.81;" x1="328.455" x2="362.475" y1="464.8277" y2="464.8277"/><line style="stroke:#181818;stroke-width:0.81;" x1="362.475" x2="362.475" y1="464.8277" y2="475.3577"/><line style="stroke:#181818;stroke-width:0.81;" x1="329.265" x2="362.475" y1="475.3577" y2="475.3577"/><polygon fill="#181818" points="337.365,472.1177,329.265,475.3577,337.365,478.5977,334.125,475.3577" style="stroke:#181818;stroke-width:0.81;"/><text fill="#000000" font-family="sans-serif" font-size="10.53" font-weight="bold" lengthAdjust="spacing" textLength="5.67" x="334.125" y="460.5649">8</text><text fill="#000000" font-family="sans-serif" font-size="10.53" lengthAdjust="spacing" textLength="102.87" x="343.035" y="460.5649">Retrieve requirement's</text><polygon fill="#181818" points="80.595,527.4334,72.495,530.6734,80.595,533.9134,77.355,530.6734" style="stroke:#181818;stroke-width:0.81;"/><line style="stroke:#181818;stroke-width:0.81;stroke-dasharray:2.0,2.0;" x1="75.735" x2="315.495" y1="530.6734" y2="530.6734"/><text fill="#000000" font-family="sans-serif" font-size="10.53" font-weight="bold" lengthAdjust="spacing" textLength="5.67" x="85.455" y="526.4106">9</text><text fill="#000000" font-family="sans-serif" font-size="10.53" lengthAdjust="spacing" textLength="132.84" x="94.365" y="526.4106">Display requirement's status</text><polygon fill="#181818" points="80.595,552.7791,72.495,556.0191,80.595,559.2591,77.355,556.0191" style="stroke:#181818;stroke-width:0.81;"/><line style="stroke:#181818;stroke-width:0.81;stroke-dasharray:2.0,2.0;" x1="75.735" x2="319.545" y1="556.0191" y2="556.0191"/><text fill="#000000" font-family="sans-serif" font-size="10.53" font-weight="bold" lengthAdjust="spacing" textLength="11.34" x="85.455" y="551.7563">10</text><text fill="#000000" font-family="sans-serif" font-size="10.53" lengthAdjust="spacing" textLength="126.36" x="100.035" y="551.7563">Save requirement's status?</text><path d="M8.1,568.1691 L57.51,568.1691 L57.51,575.6948 L49.41,583.7948 L8.1,583.7948 L8.1,568.1691 " fill="#EEEEEE" style="stroke:#000000;stroke-width:1.215;"/><rect fill="none" height="139.9639" style="stroke:#000000;stroke-width:1.215;" width="471.015" x="8.1" y="568.1691"/><text fill="#000000" font-family="sans-serif" font-size="10.53" font-weight="bold" lengthAdjust="spacing" textLength="12.96" x="20.25" y="580.3421">alt</text><text fill="#000000" font-family="sans-serif" font-size="8.91" font-weight="bold" lengthAdjust="spacing" textLength="41.31" x="69.66" y="579.4039">[confirm]</text><polygon fill="#181818" points="306.585,599.4206,314.685,602.6606,306.585,605.9006,309.825,602.6606" style="stroke:#181818;stroke-width:0.81;"/><line style="stroke:#181818;stroke-width:0.81;" x1="71.685" x2="311.445" y1="602.6606" y2="602.6606"/><text fill="#000000" font-family="sans-serif" font-size="10.53" font-weight="bold" lengthAdjust="spacing" textLength="11.34" x="77.355" y="598.3978">11</text><text fill="#000000" font-family="sans-serif" font-size="10.53" lengthAdjust="spacing" textLength="175.77" x="91.935" y="598.3978">Confirms to save requirement's status</text><line style="stroke:#181818;stroke-width:0.81;" x1="328.455" x2="362.475" y1="628.0063" y2="628.0063"/><line style="stroke:#181818;stroke-width:0.81;" x1="362.475" x2="362.475" y1="628.0063" y2="638.5363"/><line style="stroke:#181818;stroke-width:0.81;" x1="329.265" x2="362.475" y1="638.5363" y2="638.5363"/><polygon fill="#181818" points="337.365,635.2963,329.265,638.5363,337.365,641.7763,334.125,638.5363" style="stroke:#181818;stroke-width:0.81;"/><text fill="#000000" font-family="sans-serif" font-size="10.53" font-weight="bold" lengthAdjust="spacing" textLength="11.34" x="334.125" y="623.7435">12</text><text fill="#000000" font-family="sans-serif" font-size="10.53" lengthAdjust="spacing" textLength="120.69" x="348.705" y="623.7435">Save requirement's status</text><line style="stroke:#000000;stroke-width:0.81;stroke-dasharray:2.0,2.0;" x1="8.1" x2="479.115" y1="670.1263" y2="670.1263"/><text fill="#000000" font-family="sans-serif" font-size="8.91" font-weight="bold" lengthAdjust="spacing" textLength="34.83" x="12.15" y="679.7411">[cancel]</text><polygon fill="#181818" points="306.585,698.413,314.685,701.653,306.585,704.893,309.825,701.653" style="stroke:#181818;stroke-width:0.81;"/><line style="stroke:#181818;stroke-width:0.81;" x1="71.685" x2="311.445" y1="701.653" y2="701.653"/><text fill="#000000" font-family="sans-serif" font-size="10.53" font-weight="bold" lengthAdjust="spacing" textLength="11.34" x="77.355" y="697.3902">13</text><text fill="#000000" font-family="sans-serif" font-size="10.53" lengthAdjust="spacing" textLength="172.53" x="91.935" y="697.3902">Cancels to save requirement's status</text><polygon fill="#181818" points="76.545,729.4287,68.445,732.6687,76.545,735.9087,73.305,732.6687" style="stroke:#181818;stroke-width:0.81;"/><line style="stroke:#181818;stroke-width:0.81;stroke-dasharray:2.0,2.0;" x1="71.685" x2="319.545" y1="732.6687" y2="732.6687"/><text fill="#000000" font-family="sans-serif" font-size="10.53" font-weight="bold" lengthAdjust="spacing" textLength="11.34" x="81.405" y="728.4059">14</text><text fill="#000000" font-family="sans-serif" font-size="10.53" lengthAdjust="spacing" textLength="149.04" x="95.985" y="728.4059">Shows (un)successful message</text><!--SRC=[hLInSjim3Dtv5JWlIORSjTdgeHsKrKjr_G24XYms5CaGe7t- -q2spYSviizDgaMY0Bpty0YINrr8cB63BePesnmx0ic539yY2UqhRgYMlIV8P0N3neyJkCLrtBcmWGOzap7YH5FhFGjrKDDReM09dXrk-lJxkdv-W4VuKtrx-c7GIiomg0gBScTOOL2ol01ag5P66SHPbp08B9P7o4Fi-6aC5ecXT2zQ-jtqQ6wBGdrfjOB7dqFU4dxtCbWO9CAMiclsWF0tla1C55Jx7MjlRyLbwYW86nYU4-90sFyREfkWItQqfJD4xrYk8gtfDloQl1f_Xhvpqa9gaKaNc99t5iN503PsoPFG-WlSIbwjbhffd3pkv_hwM3zrVD0SmyILaVyV_FwIr_rgP09_edSVOu96nr6ZxJdW2Uy6LQEowLpTyGHcJiHbUJUG_oyg2kk36zT6Oi85B2Y5v_9hF1Ss9F-wiXNeHSSuD2uVrzFHgewHms7cI_3_U8JhJ-5Si4-lGR2ejvwVKty8t22-tmKrOjRKDkuOxajuu68jCJV5GwTllJml21lzqTln7G00]--></g></svg>