<?xml version="1.0" encoding="us-ascii" standalone="no"?><svg xmlns="http://www.w3.org/2000/svg" xmlns:xlink="http://www.w3.org/1999/xlink" contentStyleType="text/css" height="889px" preserveAspectRatio="none" style="width:1061px;height:889px;background:#FFFFFF;" version="1.1" viewBox="0 0 1061 889" width="1061px" zoomAndPan="magnify"><defs/><g><text fill="#000000" font-family="sans-serif" font-size="14" font-weight="bold" lengthAdjust="spacing" textLength="190" x="428.94" y="25.1074">Class Diagram (CD) - UC032</text><!--class EvaluateJobOpeningInterviewsUI--><g id="elem_EvaluateJobOpeningInterviewsUI"><rect codeLine="8" fill="#F1F1F1" height="60.582" id="EvaluateJobOpeningInterviewsUI" rx="2.5" ry="2.5" style="stroke:#181818;stroke-width:0.5;" width="237" x="418.38" y="46.6211"/><ellipse cx="433.38" cy="68.9121" fill="#ADD1B2" rx="11" ry="11" style="stroke:#181818;stroke-width:1.0;"/><path d="M436.1456,64.7871 Q436.3019,64.5684 436.4894,64.459 Q436.6769,64.3496 436.8956,64.3496 Q437.2706,64.3496 437.505,64.6152 Q437.7394,64.8652 437.7394,65.4746 L437.7394,66.9277 Q437.7394,67.5371 437.505,67.8027 Q437.2706,68.0684 436.8956,68.0684 Q436.5519,68.0684 436.3488,67.8652 Q436.1456,67.6777 436.0363,67.1621 Q435.9894,66.8027 435.8019,66.6152 Q435.4738,66.2402 434.8644,66.0215 Q434.255,65.8027 433.63,65.8027 Q432.8644,65.8027 432.2238,66.1309 Q431.5988,66.459 431.0988,67.209 Q430.6144,67.959 430.6144,68.9902 L430.6144,70.084 Q430.6144,71.3184 431.505,72.1465 Q432.3956,72.959 433.9894,72.959 Q434.9269,72.959 435.5831,72.709 Q435.9738,72.5527 436.3956,72.1152 Q436.6613,71.8496 436.8019,71.7715 Q436.9581,71.6934 437.1613,71.6934 Q437.4894,71.6934 437.7394,71.959 Q438.005,72.209 438.005,72.5527 Q438.005,72.8965 437.6613,73.3027 Q437.1613,73.8809 436.3644,74.209 Q435.2863,74.6621 433.9894,74.6621 Q432.4738,74.6621 431.2706,74.0371 Q430.2863,73.5371 429.5988,72.4746 Q428.9113,71.3965 428.9113,70.1152 L428.9113,68.959 Q428.9113,67.6309 429.5206,66.4902 Q430.1456,65.334 431.2394,64.7246 Q432.3331,64.0996 433.5675,64.0996 Q434.3019,64.0996 434.9425,64.2715 Q435.5988,64.4277 436.1456,64.7871 Z " fill="#000000"/><text fill="#000000" font-family="sans-serif" font-size="12" font-style="italic" lengthAdjust="spacing" textLength="61" x="519.38" y="64.5703">&#171;interface&#187;</text><text fill="#000000" font-family="sans-serif" font-size="14" lengthAdjust="spacing" textLength="205" x="447.38" y="82.6895">EvaluateJobOpeningInterviewsUI</text><line style="stroke:#181818;stroke-width:0.5;" x1="419.38" x2="654.38" y1="91.2031" y2="91.2031"/><line style="stroke:#181818;stroke-width:0.5;" x1="419.38" x2="654.38" y1="99.2031" y2="99.2031"/></g><!--class EvaluateJobOpeningInterviewsController--><g id="elem_EvaluateJobOpeningInterviewsController"><rect codeLine="10" fill="#F1F1F1" height="60.582" id="EvaluateJobOpeningInterviewsController" rx="2.5" ry="2.5" style="stroke:#181818;stroke-width:0.5;" width="287" x="393.38" y="168.6211"/><ellipse cx="408.38" cy="190.9121" fill="#ADD1B2" rx="11" ry="11" style="stroke:#181818;stroke-width:1.0;"/><path d="M411.1456,186.7871 Q411.3019,186.5684 411.4894,186.459 Q411.6769,186.3496 411.8956,186.3496 Q412.2706,186.3496 412.505,186.6152 Q412.7394,186.8652 412.7394,187.4746 L412.7394,188.9277 Q412.7394,189.5371 412.505,189.8027 Q412.2706,190.0684 411.8956,190.0684 Q411.5519,190.0684 411.3488,189.8652 Q411.1456,189.6777 411.0363,189.1621 Q410.9894,188.8027 410.8019,188.6152 Q410.4738,188.2402 409.8644,188.0215 Q409.255,187.8027 408.63,187.8027 Q407.8644,187.8027 407.2238,188.1309 Q406.5988,188.459 406.0988,189.209 Q405.6144,189.959 405.6144,190.9902 L405.6144,192.084 Q405.6144,193.3184 406.505,194.1465 Q407.3956,194.959 408.9894,194.959 Q409.9269,194.959 410.5831,194.709 Q410.9738,194.5527 411.3956,194.1152 Q411.6613,193.8496 411.8019,193.7715 Q411.9581,193.6934 412.1613,193.6934 Q412.4894,193.6934 412.7394,193.959 Q413.005,194.209 413.005,194.5527 Q413.005,194.8965 412.6613,195.3027 Q412.1613,195.8809 411.3644,196.209 Q410.2863,196.6621 408.9894,196.6621 Q407.4738,196.6621 406.2706,196.0371 Q405.2863,195.5371 404.5988,194.4746 Q403.9113,193.3965 403.9113,192.1152 L403.9113,190.959 Q403.9113,189.6309 404.5206,188.4902 Q405.1456,187.334 406.2394,186.7246 Q407.3331,186.0996 408.5675,186.0996 Q409.3019,186.0996 409.9425,186.2715 Q410.5988,186.4277 411.1456,186.7871 Z " fill="#000000"/><text fill="#000000" font-family="sans-serif" font-size="12" font-style="italic" lengthAdjust="spacing" textLength="65" x="517.38" y="186.5703">&#171;controller&#187;</text><text fill="#000000" font-family="sans-serif" font-size="14" lengthAdjust="spacing" textLength="255" x="422.38" y="204.6895">EvaluateJobOpeningInterviewsController</text><line style="stroke:#181818;stroke-width:0.5;" x1="394.38" x2="679.38" y1="213.2031" y2="213.2031"/><line style="stroke:#181818;stroke-width:0.5;" x1="394.38" x2="679.38" y1="221.2031" y2="221.2031"/></g><!--class JobOpeningManagementService--><g id="elem_JobOpeningManagementService"><rect codeLine="12" fill="#F1F1F1" height="60.582" id="JobOpeningManagementService" rx="2.5" ry="2.5" style="stroke:#181818;stroke-width:0.5;" width="237" x="138.38" y="308.6211"/><ellipse cx="153.38" cy="330.9121" fill="#ADD1B2" rx="11" ry="11" style="stroke:#181818;stroke-width:1.0;"/><path d="M156.1456,326.7871 Q156.3019,326.5684 156.4894,326.459 Q156.6769,326.3496 156.8956,326.3496 Q157.2706,326.3496 157.505,326.6152 Q157.7394,326.8652 157.7394,327.4746 L157.7394,328.9277 Q157.7394,329.5371 157.505,329.8027 Q157.2706,330.0684 156.8956,330.0684 Q156.5519,330.0684 156.3488,329.8652 Q156.1456,329.6777 156.0363,329.1621 Q155.9894,328.8027 155.8019,328.6152 Q155.4738,328.2402 154.8644,328.0215 Q154.255,327.8027 153.63,327.8027 Q152.8644,327.8027 152.2238,328.1309 Q151.5988,328.459 151.0988,329.209 Q150.6144,329.959 150.6144,330.9902 L150.6144,332.084 Q150.6144,333.3184 151.505,334.1465 Q152.3956,334.959 153.9894,334.959 Q154.9269,334.959 155.5831,334.709 Q155.9738,334.5527 156.3956,334.1152 Q156.6613,333.8496 156.8019,333.7715 Q156.9581,333.6934 157.1613,333.6934 Q157.4894,333.6934 157.7394,333.959 Q158.005,334.209 158.005,334.5527 Q158.005,334.8965 157.6613,335.3027 Q157.1613,335.8809 156.3644,336.209 Q155.2863,336.6621 153.9894,336.6621 Q152.4738,336.6621 151.2706,336.0371 Q150.2863,335.5371 149.5988,334.4746 Q148.9113,333.3965 148.9113,332.1152 L148.9113,330.959 Q148.9113,329.6309 149.5206,328.4902 Q150.1456,327.334 151.2394,326.7246 Q152.3331,326.0996 153.5675,326.0996 Q154.3019,326.0996 154.9425,326.2715 Q155.5988,326.4277 156.1456,326.7871 Z " fill="#000000"/><text fill="#000000" font-family="sans-serif" font-size="12" font-style="italic" lengthAdjust="spacing" textLength="53" x="243.38" y="326.5703">&#171;service&#187;</text><text fill="#000000" font-family="sans-serif" font-size="14" lengthAdjust="spacing" textLength="205" x="167.38" y="344.6895">JobOpeningManagementService</text><line style="stroke:#181818;stroke-width:0.5;" x1="139.38" x2="374.38" y1="353.2031" y2="353.2031"/><line style="stroke:#181818;stroke-width:0.5;" x1="139.38" x2="374.38" y1="361.2031" y2="361.2031"/></g><!--class JobApplicationManagementService--><g id="elem_JobApplicationManagementService"><rect codeLine="14" fill="#F1F1F1" height="60.582" id="JobApplicationManagementService" rx="2.5" ry="2.5" style="stroke:#181818;stroke-width:0.5;" width="252" x="410.88" y="308.6211"/><ellipse cx="425.88" cy="330.9121" fill="#ADD1B2" rx="11" ry="11" style="stroke:#181818;stroke-width:1.0;"/><path d="M428.6456,326.7871 Q428.8019,326.5684 428.9894,326.459 Q429.1769,326.3496 429.3956,326.3496 Q429.7706,326.3496 430.005,326.6152 Q430.2394,326.8652 430.2394,327.4746 L430.2394,328.9277 Q430.2394,329.5371 430.005,329.8027 Q429.7706,330.0684 429.3956,330.0684 Q429.0519,330.0684 428.8488,329.8652 Q428.6456,329.6777 428.5363,329.1621 Q428.4894,328.8027 428.3019,328.6152 Q427.9738,328.2402 427.3644,328.0215 Q426.755,327.8027 426.13,327.8027 Q425.3644,327.8027 424.7238,328.1309 Q424.0988,328.459 423.5988,329.209 Q423.1144,329.959 423.1144,330.9902 L423.1144,332.084 Q423.1144,333.3184 424.005,334.1465 Q424.8956,334.959 426.4894,334.959 Q427.4269,334.959 428.0831,334.709 Q428.4738,334.5527 428.8956,334.1152 Q429.1613,333.8496 429.3019,333.7715 Q429.4581,333.6934 429.6613,333.6934 Q429.9894,333.6934 430.2394,333.959 Q430.505,334.209 430.505,334.5527 Q430.505,334.8965 430.1613,335.3027 Q429.6613,335.8809 428.8644,336.209 Q427.7863,336.6621 426.4894,336.6621 Q424.9738,336.6621 423.7706,336.0371 Q422.7863,335.5371 422.0988,334.4746 Q421.4113,333.3965 421.4113,332.1152 L421.4113,330.959 Q421.4113,329.6309 422.0206,328.4902 Q422.6456,327.334 423.7394,326.7246 Q424.8331,326.0996 426.0675,326.0996 Q426.8019,326.0996 427.4425,326.2715 Q428.0988,326.4277 428.6456,326.7871 Z " fill="#000000"/><text fill="#000000" font-family="sans-serif" font-size="12" font-style="italic" lengthAdjust="spacing" textLength="53" x="523.38" y="326.5703">&#171;service&#187;</text><text fill="#000000" font-family="sans-serif" font-size="14" lengthAdjust="spacing" textLength="220" x="439.88" y="344.6895">JobApplicationManagementService</text><line style="stroke:#181818;stroke-width:0.5;" x1="411.88" x2="661.88" y1="353.2031" y2="353.2031"/><line style="stroke:#181818;stroke-width:0.5;" x1="411.88" x2="661.88" y1="361.2031" y2="361.2031"/></g><!--class InterviewManagementService--><g id="elem_InterviewManagementService"><rect codeLine="16" fill="#F1F1F1" height="60.582" id="InterviewManagementService" rx="2.5" ry="2.5" style="stroke:#181818;stroke-width:0.5;" width="216" x="838.88" y="308.6211"/><ellipse cx="853.88" cy="330.9121" fill="#ADD1B2" rx="11" ry="11" style="stroke:#181818;stroke-width:1.0;"/><path d="M856.6456,326.7871 Q856.8019,326.5684 856.9894,326.459 Q857.1769,326.3496 857.3956,326.3496 Q857.7706,326.3496 858.005,326.6152 Q858.2394,326.8652 858.2394,327.4746 L858.2394,328.9277 Q858.2394,329.5371 858.005,329.8027 Q857.7706,330.0684 857.3956,330.0684 Q857.0519,330.0684 856.8488,329.8652 Q856.6456,329.6777 856.5363,329.1621 Q856.4894,328.8027 856.3019,328.6152 Q855.9738,328.2402 855.3644,328.0215 Q854.755,327.8027 854.13,327.8027 Q853.3644,327.8027 852.7238,328.1309 Q852.0988,328.459 851.5988,329.209 Q851.1144,329.959 851.1144,330.9902 L851.1144,332.084 Q851.1144,333.3184 852.005,334.1465 Q852.8956,334.959 854.4894,334.959 Q855.4269,334.959 856.0831,334.709 Q856.4738,334.5527 856.8956,334.1152 Q857.1613,333.8496 857.3019,333.7715 Q857.4581,333.6934 857.6613,333.6934 Q857.9894,333.6934 858.2394,333.959 Q858.505,334.209 858.505,334.5527 Q858.505,334.8965 858.1613,335.3027 Q857.6613,335.8809 856.8644,336.209 Q855.7863,336.6621 854.4894,336.6621 Q852.9738,336.6621 851.7706,336.0371 Q850.7863,335.5371 850.0988,334.4746 Q849.4113,333.3965 849.4113,332.1152 L849.4113,330.959 Q849.4113,329.6309 850.0206,328.4902 Q850.6456,327.334 851.7394,326.7246 Q852.8331,326.0996 854.0675,326.0996 Q854.8019,326.0996 855.4425,326.2715 Q856.0988,326.4277 856.6456,326.7871 Z " fill="#000000"/><text fill="#000000" font-family="sans-serif" font-size="12" font-style="italic" lengthAdjust="spacing" textLength="53" x="933.38" y="326.5703">&#171;service&#187;</text><text fill="#000000" font-family="sans-serif" font-size="14" lengthAdjust="spacing" textLength="184" x="867.88" y="344.6895">InterviewManagementService</text><line style="stroke:#181818;stroke-width:0.5;" x1="839.88" x2="1053.88" y1="353.2031" y2="353.2031"/><line style="stroke:#181818;stroke-width:0.5;" x1="839.88" x2="1053.88" y1="361.2031" y2="361.2031"/></g><!--class JobOpeningRepository--><g id="elem_JobOpeningRepository"><rect codeLine="18" fill="#F1F1F1" height="60.582" id="JobOpeningRepository" rx="2.5" ry="2.5" style="stroke:#181818;stroke-width:0.5;" width="176" x="144.88" y="448.6211"/><ellipse cx="159.88" cy="470.9121" fill="#ADD1B2" rx="11" ry="11" style="stroke:#181818;stroke-width:1.0;"/><path d="M162.6456,466.7871 Q162.8019,466.5684 162.9894,466.459 Q163.1769,466.3496 163.3956,466.3496 Q163.7706,466.3496 164.005,466.6152 Q164.2394,466.8652 164.2394,467.4746 L164.2394,468.9277 Q164.2394,469.5371 164.005,469.8027 Q163.7706,470.0684 163.3956,470.0684 Q163.0519,470.0684 162.8488,469.8652 Q162.6456,469.6777 162.5363,469.1621 Q162.4894,468.8027 162.3019,468.6152 Q161.9738,468.2402 161.3644,468.0215 Q160.755,467.8027 160.13,467.8027 Q159.3644,467.8027 158.7238,468.1309 Q158.0988,468.459 157.5988,469.209 Q157.1144,469.959 157.1144,470.9902 L157.1144,472.084 Q157.1144,473.3184 158.005,474.1465 Q158.8956,474.959 160.4894,474.959 Q161.4269,474.959 162.0831,474.709 Q162.4738,474.5527 162.8956,474.1152 Q163.1613,473.8496 163.3019,473.7715 Q163.4581,473.6934 163.6613,473.6934 Q163.9894,473.6934 164.2394,473.959 Q164.505,474.209 164.505,474.5527 Q164.505,474.8965 164.1613,475.3027 Q163.6613,475.8809 162.8644,476.209 Q161.7863,476.6621 160.4894,476.6621 Q158.9738,476.6621 157.7706,476.0371 Q156.7863,475.5371 156.0988,474.4746 Q155.4113,473.3965 155.4113,472.1152 L155.4113,470.959 Q155.4113,469.6309 156.0206,468.4902 Q156.6456,467.334 157.7394,466.7246 Q158.8331,466.0996 160.0675,466.0996 Q160.8019,466.0996 161.4425,466.2715 Q162.0988,466.4277 162.6456,466.7871 Z " fill="#000000"/><text fill="#000000" font-family="sans-serif" font-size="12" font-style="italic" lengthAdjust="spacing" textLength="68" x="211.88" y="466.5703">&#171;repository&#187;</text><text fill="#000000" font-family="sans-serif" font-size="14" lengthAdjust="spacing" textLength="144" x="173.88" y="484.6895">JobOpeningRepository</text><line style="stroke:#181818;stroke-width:0.5;" x1="145.88" x2="319.88" y1="493.2031" y2="493.2031"/><line style="stroke:#181818;stroke-width:0.5;" x1="145.88" x2="319.88" y1="501.2031" y2="501.2031"/></g><!--class JobApplicationRepository--><g id="elem_JobApplicationRepository"><rect codeLine="20" fill="#F1F1F1" height="60.582" id="JobApplicationRepository" rx="2.5" ry="2.5" style="stroke:#181818;stroke-width:0.5;" width="191" x="456.38" y="448.6211"/><ellipse cx="471.38" cy="470.9121" fill="#ADD1B2" rx="11" ry="11" style="stroke:#181818;stroke-width:1.0;"/><path d="M474.1456,466.7871 Q474.3019,466.5684 474.4894,466.459 Q474.6769,466.3496 474.8956,466.3496 Q475.2706,466.3496 475.505,466.6152 Q475.7394,466.8652 475.7394,467.4746 L475.7394,468.9277 Q475.7394,469.5371 475.505,469.8027 Q475.2706,470.0684 474.8956,470.0684 Q474.5519,470.0684 474.3488,469.8652 Q474.1456,469.6777 474.0363,469.1621 Q473.9894,468.8027 473.8019,468.6152 Q473.4738,468.2402 472.8644,468.0215 Q472.255,467.8027 471.63,467.8027 Q470.8644,467.8027 470.2238,468.1309 Q469.5988,468.459 469.0988,469.209 Q468.6144,469.959 468.6144,470.9902 L468.6144,472.084 Q468.6144,473.3184 469.505,474.1465 Q470.3956,474.959 471.9894,474.959 Q472.9269,474.959 473.5831,474.709 Q473.9738,474.5527 474.3956,474.1152 Q474.6613,473.8496 474.8019,473.7715 Q474.9581,473.6934 475.1613,473.6934 Q475.4894,473.6934 475.7394,473.959 Q476.005,474.209 476.005,474.5527 Q476.005,474.8965 475.6613,475.3027 Q475.1613,475.8809 474.3644,476.209 Q473.2863,476.6621 471.9894,476.6621 Q470.4738,476.6621 469.2706,476.0371 Q468.2863,475.5371 467.5988,474.4746 Q466.9113,473.3965 466.9113,472.1152 L466.9113,470.959 Q466.9113,469.6309 467.5206,468.4902 Q468.1456,467.334 469.2394,466.7246 Q470.3331,466.0996 471.5675,466.0996 Q472.3019,466.0996 472.9425,466.2715 Q473.5988,466.4277 474.1456,466.7871 Z " fill="#000000"/><text fill="#000000" font-family="sans-serif" font-size="12" font-style="italic" lengthAdjust="spacing" textLength="68" x="530.88" y="466.5703">&#171;repository&#187;</text><text fill="#000000" font-family="sans-serif" font-size="14" lengthAdjust="spacing" textLength="159" x="485.38" y="484.6895">JobApplicationRepository</text><line style="stroke:#181818;stroke-width:0.5;" x1="457.38" x2="646.38" y1="493.2031" y2="493.2031"/><line style="stroke:#181818;stroke-width:0.5;" x1="457.38" x2="646.38" y1="501.2031" y2="501.2031"/></g><!--class RepositoryFactory--><g id="elem_RepositoryFactory"><rect codeLine="22" fill="#F1F1F1" height="60.582" id="RepositoryFactory" rx="2.5" ry="2.5" style="stroke:#181818;stroke-width:0.5;" width="148" x="384.88" y="588.6211"/><ellipse cx="399.88" cy="610.9121" fill="#ADD1B2" rx="11" ry="11" style="stroke:#181818;stroke-width:1.0;"/><path d="M402.6456,606.7871 Q402.8019,606.5684 402.9894,606.459 Q403.1769,606.3496 403.3956,606.3496 Q403.7706,606.3496 404.005,606.6152 Q404.2394,606.8652 404.2394,607.4746 L404.2394,608.9277 Q404.2394,609.5371 404.005,609.8027 Q403.7706,610.0684 403.3956,610.0684 Q403.0519,610.0684 402.8488,609.8652 Q402.6456,609.6777 402.5363,609.1621 Q402.4894,608.8027 402.3019,608.6152 Q401.9738,608.2402 401.3644,608.0215 Q400.755,607.8027 400.13,607.8027 Q399.3644,607.8027 398.7238,608.1309 Q398.0988,608.459 397.5988,609.209 Q397.1144,609.959 397.1144,610.9902 L397.1144,612.084 Q397.1144,613.3184 398.005,614.1465 Q398.8956,614.959 400.4894,614.959 Q401.4269,614.959 402.0831,614.709 Q402.4738,614.5527 402.8956,614.1152 Q403.1613,613.8496 403.3019,613.7715 Q403.4581,613.6934 403.6613,613.6934 Q403.9894,613.6934 404.2394,613.959 Q404.505,614.209 404.505,614.5527 Q404.505,614.8965 404.1613,615.3027 Q403.6613,615.8809 402.8644,616.209 Q401.7863,616.6621 400.4894,616.6621 Q398.9738,616.6621 397.7706,616.0371 Q396.7863,615.5371 396.0988,614.4746 Q395.4113,613.3965 395.4113,612.1152 L395.4113,610.959 Q395.4113,609.6309 396.0206,608.4902 Q396.6456,607.334 397.7394,606.7246 Q398.8331,606.0996 400.0675,606.0996 Q400.8019,606.0996 401.4425,606.2715 Q402.0988,606.4277 402.6456,606.7871 Z " fill="#000000"/><text fill="#000000" font-family="sans-serif" font-size="12" font-style="italic" lengthAdjust="spacing" textLength="50" x="446.88" y="606.5703">&#171;factory&#187;</text><text fill="#000000" font-family="sans-serif" font-size="14" lengthAdjust="spacing" textLength="116" x="413.88" y="624.6895">RepositoryFactory</text><line style="stroke:#181818;stroke-width:0.5;" x1="385.88" x2="531.88" y1="633.2031" y2="633.2031"/><line style="stroke:#181818;stroke-width:0.5;" x1="385.88" x2="531.88" y1="641.2031" y2="641.2031"/></g><!--class InterviewModelParser--><g id="elem_InterviewModelParser"><rect codeLine="24" fill="#F1F1F1" height="60.582" id="InterviewModelParser" rx="2.5" ry="2.5" style="stroke:#181818;stroke-width:0.5;" width="167" x="863.38" y="448.6211"/><ellipse cx="878.38" cy="470.9121" fill="#ADD1B2" rx="11" ry="11" style="stroke:#181818;stroke-width:1.0;"/><path d="M881.1456,466.7871 Q881.3019,466.5684 881.4894,466.459 Q881.6769,466.3496 881.8956,466.3496 Q882.2706,466.3496 882.505,466.6152 Q882.7394,466.8652 882.7394,467.4746 L882.7394,468.9277 Q882.7394,469.5371 882.505,469.8027 Q882.2706,470.0684 881.8956,470.0684 Q881.5519,470.0684 881.3488,469.8652 Q881.1456,469.6777 881.0363,469.1621 Q880.9894,468.8027 880.8019,468.6152 Q880.4738,468.2402 879.8644,468.0215 Q879.255,467.8027 878.63,467.8027 Q877.8644,467.8027 877.2238,468.1309 Q876.5988,468.459 876.0988,469.209 Q875.6144,469.959 875.6144,470.9902 L875.6144,472.084 Q875.6144,473.3184 876.505,474.1465 Q877.3956,474.959 878.9894,474.959 Q879.9269,474.959 880.5831,474.709 Q880.9738,474.5527 881.3956,474.1152 Q881.6613,473.8496 881.8019,473.7715 Q881.9581,473.6934 882.1613,473.6934 Q882.4894,473.6934 882.7394,473.959 Q883.005,474.209 883.005,474.5527 Q883.005,474.8965 882.6613,475.3027 Q882.1613,475.8809 881.3644,476.209 Q880.2863,476.6621 878.9894,476.6621 Q877.4738,476.6621 876.2706,476.0371 Q875.2863,475.5371 874.5988,474.4746 Q873.9113,473.3965 873.9113,472.1152 L873.9113,470.959 Q873.9113,469.6309 874.5206,468.4902 Q875.1456,467.334 876.2394,466.7246 Q877.3331,466.0996 878.5675,466.0996 Q879.3019,466.0996 879.9425,466.2715 Q880.5988,466.4277 881.1456,466.7871 Z " fill="#000000"/><text fill="#000000" font-family="sans-serif" font-size="12" font-style="italic" lengthAdjust="spacing" textLength="49" x="935.38" y="466.5703">&#171;parser&#187;</text><text fill="#000000" font-family="sans-serif" font-size="14" lengthAdjust="spacing" textLength="135" x="892.38" y="484.6895">InterviewModelParser</text><line style="stroke:#181818;stroke-width:0.5;" x1="864.38" x2="1029.38" y1="493.2031" y2="493.2031"/><line style="stroke:#181818;stroke-width:0.5;" x1="864.38" x2="1029.38" y1="501.2031" y2="501.2031"/></g><!--class InterviewVisitor--><g id="elem_InterviewVisitor"><rect codeLine="26" fill="#F1F1F1" height="60.582" id="InterviewVisitor" rx="2.5" ry="2.5" style="stroke:#181818;stroke-width:0.5;" width="126" x="773.88" y="588.6211"/><ellipse cx="788.88" cy="610.9121" fill="#ADD1B2" rx="11" ry="11" style="stroke:#181818;stroke-width:1.0;"/><path d="M791.6456,606.7871 Q791.8019,606.5684 791.9894,606.459 Q792.1769,606.3496 792.3956,606.3496 Q792.7706,606.3496 793.005,606.6152 Q793.2394,606.8652 793.2394,607.4746 L793.2394,608.9277 Q793.2394,609.5371 793.005,609.8027 Q792.7706,610.0684 792.3956,610.0684 Q792.0519,610.0684 791.8488,609.8652 Q791.6456,609.6777 791.5363,609.1621 Q791.4894,608.8027 791.3019,608.6152 Q790.9738,608.2402 790.3644,608.0215 Q789.755,607.8027 789.13,607.8027 Q788.3644,607.8027 787.7238,608.1309 Q787.0988,608.459 786.5988,609.209 Q786.1144,609.959 786.1144,610.9902 L786.1144,612.084 Q786.1144,613.3184 787.005,614.1465 Q787.8956,614.959 789.4894,614.959 Q790.4269,614.959 791.0831,614.709 Q791.4738,614.5527 791.8956,614.1152 Q792.1613,613.8496 792.3019,613.7715 Q792.4581,613.6934 792.6613,613.6934 Q792.9894,613.6934 793.2394,613.959 Q793.505,614.209 793.505,614.5527 Q793.505,614.8965 793.1613,615.3027 Q792.6613,615.8809 791.8644,616.209 Q790.7863,616.6621 789.4894,616.6621 Q787.9738,616.6621 786.7706,616.0371 Q785.7863,615.5371 785.0988,614.4746 Q784.4113,613.3965 784.4113,612.1152 L784.4113,610.959 Q784.4113,609.6309 785.0206,608.4902 Q785.6456,607.334 786.7394,606.7246 Q787.8331,606.0996 789.0675,606.0996 Q789.8019,606.0996 790.4425,606.2715 Q791.0988,606.4277 791.6456,606.7871 Z " fill="#000000"/><text fill="#000000" font-family="sans-serif" font-size="12" font-style="italic" lengthAdjust="spacing" textLength="46" x="826.88" y="606.5703">&#171;visitor&#187;</text><text fill="#000000" font-family="sans-serif" font-size="14" lengthAdjust="spacing" textLength="94" x="802.88" y="624.6895">InterviewVisitor</text><line style="stroke:#181818;stroke-width:0.5;" x1="774.88" x2="898.88" y1="633.2031" y2="633.2031"/><line style="stroke:#181818;stroke-width:0.5;" x1="774.88" x2="898.88" y1="641.2031" y2="641.2031"/></g><!--class JobOpening--><g id="elem_JobOpening"><rect codeLine="28" fill="#F1F1F1" height="60.582" id="JobOpening" rx="2.5" ry="2.5" style="stroke:#181818;stroke-width:0.5;" width="108" x="146.88" y="588.6211"/><ellipse cx="161.88" cy="610.9121" fill="#ADD1B2" rx="11" ry="11" style="stroke:#181818;stroke-width:1.0;"/><path d="M164.6456,606.7871 Q164.8019,606.5684 164.9894,606.459 Q165.1769,606.3496 165.3956,606.3496 Q165.7706,606.3496 166.005,606.6152 Q166.2394,606.8652 166.2394,607.4746 L166.2394,608.9277 Q166.2394,609.5371 166.005,609.8027 Q165.7706,610.0684 165.3956,610.0684 Q165.0519,610.0684 164.8488,609.8652 Q164.6456,609.6777 164.5363,609.1621 Q164.4894,608.8027 164.3019,608.6152 Q163.9738,608.2402 163.3644,608.0215 Q162.755,607.8027 162.13,607.8027 Q161.3644,607.8027 160.7238,608.1309 Q160.0988,608.459 159.5988,609.209 Q159.1144,609.959 159.1144,610.9902 L159.1144,612.084 Q159.1144,613.3184 160.005,614.1465 Q160.8956,614.959 162.4894,614.959 Q163.4269,614.959 164.0831,614.709 Q164.4738,614.5527 164.8956,614.1152 Q165.1613,613.8496 165.3019,613.7715 Q165.4581,613.6934 165.6613,613.6934 Q165.9894,613.6934 166.2394,613.959 Q166.505,614.209 166.505,614.5527 Q166.505,614.8965 166.1613,615.3027 Q165.6613,615.8809 164.8644,616.209 Q163.7863,616.6621 162.4894,616.6621 Q160.9738,616.6621 159.7706,616.0371 Q158.7863,615.5371 158.0988,614.4746 Q157.4113,613.3965 157.4113,612.1152 L157.4113,610.959 Q157.4113,609.6309 158.0206,608.4902 Q158.6456,607.334 159.7394,606.7246 Q160.8331,606.0996 162.0675,606.0996 Q162.8019,606.0996 163.4425,606.2715 Q164.0988,606.4277 164.6456,606.7871 Z " fill="#000000"/><text fill="#000000" font-family="sans-serif" font-size="12" font-style="italic" lengthAdjust="spacing" textLength="43" x="192.38" y="606.5703">&#171;entity&#187;</text><text fill="#000000" font-family="sans-serif" font-size="14" lengthAdjust="spacing" textLength="76" x="175.88" y="624.6895">JobOpening</text><line style="stroke:#181818;stroke-width:0.5;" x1="147.88" x2="253.88" y1="633.2031" y2="633.2031"/><line style="stroke:#181818;stroke-width:0.5;" x1="147.88" x2="253.88" y1="641.2031" y2="641.2031"/></g><!--class JobApplication--><g id="elem_JobApplication"><rect codeLine="30" fill="#F1F1F1" height="60.582" id="JobApplication" rx="2.5" ry="2.5" style="stroke:#181818;stroke-width:0.5;" width="123" x="598.38" y="588.6211"/><ellipse cx="613.38" cy="610.9121" fill="#ADD1B2" rx="11" ry="11" style="stroke:#181818;stroke-width:1.0;"/><path d="M616.1456,606.7871 Q616.3019,606.5684 616.4894,606.459 Q616.6769,606.3496 616.8956,606.3496 Q617.2706,606.3496 617.505,606.6152 Q617.7394,606.8652 617.7394,607.4746 L617.7394,608.9277 Q617.7394,609.5371 617.505,609.8027 Q617.2706,610.0684 616.8956,610.0684 Q616.5519,610.0684 616.3488,609.8652 Q616.1456,609.6777 616.0363,609.1621 Q615.9894,608.8027 615.8019,608.6152 Q615.4738,608.2402 614.8644,608.0215 Q614.255,607.8027 613.63,607.8027 Q612.8644,607.8027 612.2238,608.1309 Q611.5988,608.459 611.0988,609.209 Q610.6144,609.959 610.6144,610.9902 L610.6144,612.084 Q610.6144,613.3184 611.505,614.1465 Q612.3956,614.959 613.9894,614.959 Q614.9269,614.959 615.5831,614.709 Q615.9738,614.5527 616.3956,614.1152 Q616.6613,613.8496 616.8019,613.7715 Q616.9581,613.6934 617.1613,613.6934 Q617.4894,613.6934 617.7394,613.959 Q618.005,614.209 618.005,614.5527 Q618.005,614.8965 617.6613,615.3027 Q617.1613,615.8809 616.3644,616.209 Q615.2863,616.6621 613.9894,616.6621 Q612.4738,616.6621 611.2706,616.0371 Q610.2863,615.5371 609.5988,614.4746 Q608.9113,613.3965 608.9113,612.1152 L608.9113,610.959 Q608.9113,609.6309 609.5206,608.4902 Q610.1456,607.334 611.2394,606.7246 Q612.3331,606.0996 613.5675,606.0996 Q614.3019,606.0996 614.9425,606.2715 Q615.5988,606.4277 616.1456,606.7871 Z " fill="#000000"/><text fill="#000000" font-family="sans-serif" font-size="12" font-style="italic" lengthAdjust="spacing" textLength="43" x="651.38" y="606.5703">&#171;entity&#187;</text><text fill="#000000" font-family="sans-serif" font-size="14" lengthAdjust="spacing" textLength="91" x="627.38" y="624.6895">JobApplication</text><line style="stroke:#181818;stroke-width:0.5;" x1="599.38" x2="720.38" y1="633.2031" y2="633.2031"/><line style="stroke:#181818;stroke-width:0.5;" x1="599.38" x2="720.38" y1="641.2031" y2="641.2031"/></g><!--class InterviewGrade--><g id="elem_InterviewGrade"><rect codeLine="32" fill="#F1F1F1" height="60.582" id="InterviewGrade" rx="2.5" ry="2.5" style="stroke:#181818;stroke-width:0.5;" width="127" x="596.38" y="775.1211"/><ellipse cx="611.38" cy="797.4121" fill="#ADD1B2" rx="11" ry="11" style="stroke:#181818;stroke-width:1.0;"/><path d="M614.1456,793.2871 Q614.3019,793.0684 614.4894,792.959 Q614.6769,792.8496 614.8956,792.8496 Q615.2706,792.8496 615.505,793.1152 Q615.7394,793.3652 615.7394,793.9746 L615.7394,795.4277 Q615.7394,796.0371 615.505,796.3027 Q615.2706,796.5684 614.8956,796.5684 Q614.5519,796.5684 614.3488,796.3652 Q614.1456,796.1777 614.0363,795.6621 Q613.9894,795.3027 613.8019,795.1152 Q613.4738,794.7402 612.8644,794.5215 Q612.255,794.3027 611.63,794.3027 Q610.8644,794.3027 610.2238,794.6309 Q609.5988,794.959 609.0988,795.709 Q608.6144,796.459 608.6144,797.4902 L608.6144,798.584 Q608.6144,799.8184 609.505,800.6465 Q610.3956,801.459 611.9894,801.459 Q612.9269,801.459 613.5831,801.209 Q613.9738,801.0527 614.3956,800.6152 Q614.6613,800.3496 614.8019,800.2715 Q614.9581,800.1934 615.1613,800.1934 Q615.4894,800.1934 615.7394,800.459 Q616.005,800.709 616.005,801.0527 Q616.005,801.3965 615.6613,801.8027 Q615.1613,802.3809 614.3644,802.709 Q613.2863,803.1621 611.9894,803.1621 Q610.4738,803.1621 609.2706,802.5371 Q608.2863,802.0371 607.5988,800.9746 Q606.9113,799.8965 606.9113,798.6152 L606.9113,797.459 Q606.9113,796.1309 607.5206,794.9902 Q608.1456,793.834 609.2394,793.2246 Q610.3331,792.5996 611.5675,792.5996 Q612.3019,792.5996 612.9425,792.7715 Q613.5988,792.9277 614.1456,793.2871 Z " fill="#000000"/><text fill="#000000" font-family="sans-serif" font-size="12" font-style="italic" lengthAdjust="spacing" textLength="81" x="632.38" y="793.0703">&#171;value object&#187;</text><text fill="#000000" font-family="sans-serif" font-size="14" lengthAdjust="spacing" textLength="95" x="625.38" y="811.1895">InterviewGrade</text><line style="stroke:#181818;stroke-width:0.5;" x1="597.38" x2="722.38" y1="819.7031" y2="819.7031"/><line style="stroke:#181818;stroke-width:0.5;" x1="597.38" x2="722.38" y1="827.7031" y2="827.7031"/></g><!--class Phases--><g id="elem_Phases"><rect codeLine="34" fill="#F1F1F1" height="153.6875" id="Phases" rx="2.5" ry="2.5" style="stroke:#181818;stroke-width:0.5;" width="109" x="146.38" y="728.6211"/><ellipse cx="161.38" cy="750.9121" fill="#EB937F" rx="11" ry="11" style="stroke:#181818;stroke-width:1.0;"/><path d="M160.2394,751.709 L160.2394,754.209 L164.5675,754.209 L164.5675,753.2871 Q164.5675,752.6777 164.8019,752.4121 Q165.0519,752.1465 165.4269,752.1465 Q165.8019,752.1465 166.0363,752.4121 Q166.2706,752.6777 166.2706,753.2871 L166.2706,755.9121 L158.2706,755.9121 Q157.6456,755.9121 157.38,755.6777 Q157.13,755.4434 157.13,755.0527 Q157.13,754.6777 157.3956,754.4434 Q157.6613,754.209 158.2706,754.209 L158.5363,754.209 L158.5363,747.5527 L158.2706,747.5527 Q157.6456,747.5527 157.38,747.3184 Q157.13,747.084 157.13,746.6934 Q157.13,746.3184 157.38,746.084 Q157.6456,745.8496 158.2706,745.8496 L165.8956,745.8496 L165.8956,748.4434 Q165.8956,749.0527 165.6613,749.3184 Q165.4425,749.5684 165.0519,749.5684 Q164.6769,749.5684 164.4425,749.3184 Q164.2081,749.0527 164.2081,748.4434 L164.2081,747.5527 L160.2394,747.5527 L160.2394,750.0059 L161.7238,750.0059 Q161.7238,749.3496 161.8488,749.1621 Q162.1144,748.7559 162.5831,748.7559 Q162.9581,748.7559 163.1925,749.0215 Q163.4269,749.2715 163.4269,749.8809 L163.4269,751.8496 Q163.4269,752.3965 163.3019,752.584 Q163.0363,752.9746 162.5831,752.9746 Q162.1144,752.9746 161.8488,752.5684 Q161.7238,752.3809 161.7238,751.709 L160.2394,751.709 Z " fill="#000000"/><text fill="#000000" font-family="sans-serif" font-size="12" font-style="italic" lengthAdjust="spacing" textLength="81" x="173.38" y="746.5703">&#171;value object&#187;</text><text fill="#000000" font-family="sans-serif" font-size="14" lengthAdjust="spacing" textLength="47" x="190.38" y="764.6895">Phases</text><line style="stroke:#181818;stroke-width:0.5;" x1="147.38" x2="254.38" y1="773.2031" y2="773.2031"/><text fill="#000000" font-family="sans-serif" font-size="14" lengthAdjust="spacing" textLength="89" x="152.38" y="792.3105">APPLICATION</text><text fill="#000000" font-family="sans-serif" font-size="14" lengthAdjust="spacing" textLength="79" x="152.38" y="810.9316">SCREENING</text><text fill="#000000" font-family="sans-serif" font-size="14" lengthAdjust="spacing" textLength="74" x="152.38" y="829.5527">INTERVIEW</text><text fill="#000000" font-family="sans-serif" font-size="14" lengthAdjust="spacing" textLength="65" x="152.38" y="848.1738">ANALYSIS</text><text fill="#000000" font-family="sans-serif" font-size="14" lengthAdjust="spacing" textLength="54" x="152.38" y="866.7949">RESULT</text><line style="stroke:#181818;stroke-width:0.5;" x1="147.38" x2="254.38" y1="874.3086" y2="874.3086"/></g><!--class Interview--><g id="elem_Interview"><rect codeLine="42" fill="#F1F1F1" height="60.582" id="Interview" rx="2.5" ry="2.5" style="stroke:#181818;stroke-width:0.5;" width="109" x="782.38" y="775.1211"/><ellipse cx="797.38" cy="797.4121" fill="#ADD1B2" rx="11" ry="11" style="stroke:#181818;stroke-width:1.0;"/><path d="M800.1456,793.2871 Q800.3019,793.0684 800.4894,792.959 Q800.6769,792.8496 800.8956,792.8496 Q801.2706,792.8496 801.505,793.1152 Q801.7394,793.3652 801.7394,793.9746 L801.7394,795.4277 Q801.7394,796.0371 801.505,796.3027 Q801.2706,796.5684 800.8956,796.5684 Q800.5519,796.5684 800.3488,796.3652 Q800.1456,796.1777 800.0363,795.6621 Q799.9894,795.3027 799.8019,795.1152 Q799.4738,794.7402 798.8644,794.5215 Q798.255,794.3027 797.63,794.3027 Q796.8644,794.3027 796.2238,794.6309 Q795.5988,794.959 795.0988,795.709 Q794.6144,796.459 794.6144,797.4902 L794.6144,798.584 Q794.6144,799.8184 795.505,800.6465 Q796.3956,801.459 797.9894,801.459 Q798.9269,801.459 799.5831,801.209 Q799.9738,801.0527 800.3956,800.6152 Q800.6613,800.3496 800.8019,800.2715 Q800.9581,800.1934 801.1613,800.1934 Q801.4894,800.1934 801.7394,800.459 Q802.005,800.709 802.005,801.0527 Q802.005,801.3965 801.6613,801.8027 Q801.1613,802.3809 800.3644,802.709 Q799.2863,803.1621 797.9894,803.1621 Q796.4738,803.1621 795.2706,802.5371 Q794.2863,802.0371 793.5988,800.9746 Q792.9113,799.8965 792.9113,798.6152 L792.9113,797.459 Q792.9113,796.1309 793.5206,794.9902 Q794.1456,793.834 795.2394,793.2246 Q796.3331,792.5996 797.5675,792.5996 Q798.3019,792.5996 798.9425,792.7715 Q799.5988,792.9277 800.1456,793.2871 Z " fill="#000000"/><text fill="#000000" font-family="sans-serif" font-size="12" font-style="italic" lengthAdjust="spacing" textLength="81" x="809.38" y="793.0703">&#171;value object&#187;</text><text fill="#000000" font-family="sans-serif" font-size="14" lengthAdjust="spacing" textLength="55" x="822.38" y="811.1895">Interview</text><line style="stroke:#181818;stroke-width:0.5;" x1="783.38" x2="890.38" y1="819.7031" y2="819.7031"/><line style="stroke:#181818;stroke-width:0.5;" x1="783.38" x2="890.38" y1="827.7031" y2="827.7031"/></g><!--link EvaluateJobOpeningInterviewsUI to EvaluateJobOpeningInterviewsController--><g id="link_EvaluateJobOpeningInterviewsUI_EvaluateJobOpeningInterviewsController"><path codeLine="45" d="M536.88,107.7811 C536.88,126.2411 536.88,143.9111 536.88,162.3811 " fill="none" id="EvaluateJobOpeningInterviewsUI-to-EvaluateJobOpeningInterviewsController" style="stroke:#181818;stroke-width:1.0;stroke-dasharray:7.0,7.0;"/><polygon fill="#181818" points="536.88,168.3811,540.88,159.3811,536.88,163.3811,532.88,159.3811,536.88,168.3811" style="stroke:#181818;stroke-width:1.0;"/></g><!--link EvaluateJobOpeningInterviewsController to JobOpeningManagementService--><g id="link_EvaluateJobOpeningInterviewsController_JobOpeningManagementService"><path codeLine="47" d="M476.81,229.7211 C429.57,253.0111 369.452,282.6389 322.232,305.9089 " fill="none" id="EvaluateJobOpeningInterviewsController-to-JobOpeningManagementService" style="stroke:#181818;stroke-width:1.0;stroke-dasharray:7.0,7.0;"/><polygon fill="#181818" points="316.85,308.5611,326.6911,308.1707,321.335,306.3509,323.1548,300.9948,316.85,308.5611" style="stroke:#181818;stroke-width:1.0;"/><polygon fill="#000000" points="413.3952,271.4771,422.8076,270.1144,420.209,264.8422,413.3952,271.4771" style="stroke:#000000;stroke-width:1.0;"/><text fill="#000000" font-family="sans-serif" font-size="13" lengthAdjust="spacing" textLength="28" x="426.88" y="274.6494">uses</text></g><!--link EvaluateJobOpeningInterviewsController to JobApplicationManagementService--><g id="link_EvaluateJobOpeningInterviewsController_JobApplicationManagementService"><path codeLine="48" d="M536.88,229.7211 C536.88,253.0111 536.88,279.2911 536.88,302.5611 " fill="none" id="EvaluateJobOpeningInterviewsController-to-JobApplicationManagementService" style="stroke:#181818;stroke-width:1.0;stroke-dasharray:7.0,7.0;"/><polygon fill="#181818" points="536.88,308.5611,540.88,299.5611,536.88,303.5611,532.88,299.5611,536.88,308.5611" style="stroke:#181818;stroke-width:1.0;"/><polygon fill="#000000" points="541.88,274.2666,544.8189,265.2215,538.9411,265.2215,541.88,274.2666" style="stroke:#000000;stroke-width:1.0;"/><text fill="#000000" font-family="sans-serif" font-size="13" lengthAdjust="spacing" textLength="28" x="550.88" y="274.6494">uses</text></g><!--link EvaluateJobOpeningInterviewsController to InterviewManagementService--><g id="link_EvaluateJobOpeningInterviewsController_InterviewManagementService"><path codeLine="49" d="M658.74,229.6411 C691.52,238.4311 726.78,248.6711 758.88,259.6211 C800.56,273.8411 840.6648,290.3822 876.5248,306.1022 " fill="none" id="EvaluateJobOpeningInterviewsController-to-InterviewManagementService" style="stroke:#181818;stroke-width:1.0;stroke-dasharray:7.0,7.0;"/><polygon fill="#181818" points="882.02,308.5111,875.3832,301.2342,877.4407,306.5037,872.1713,308.5612,882.02,308.5111" style="stroke:#181818;stroke-width:1.0;"/><text fill="#000000" font-family="sans-serif" font-size="13" lengthAdjust="spacing" textLength="28" x="806.88" y="274.6494">uses</text></g><!--link EvaluateJobOpeningInterviewsController to JobOpeningRepository--><g id="link_EvaluateJobOpeningInterviewsController_JobOpeningRepository"><path codeLine="51" d="M393.19,212.5211 C265.39,226.8711 92.35,255.6511 49.88,308.6211 C6,363.3611 85.5005,414.1589 153.7905,445.9489 " fill="none" id="EvaluateJobOpeningInterviewsController-to-JobOpeningRepository" style="stroke:#181818;stroke-width:1.0;stroke-dasharray:7.0,7.0;"/><polygon fill="#181818" points="159.23,448.4811,152.7589,441.0565,154.6971,446.371,149.3826,448.3092,159.23,448.4811" style="stroke:#181818;stroke-width:1.0;"/><polygon fill="#000000" points="51.3001,342.7572,59.8279,338.5469,55.7245,334.3384,51.3001,342.7572" style="stroke:#000000;stroke-width:1.0;"/><text fill="#000000" font-family="sans-serif" font-size="13" lengthAdjust="spacing" textLength="56" x="63.88" y="344.6494">accesses</text></g><!--link EvaluateJobOpeningInterviewsController to JobApplicationRepository--><g id="link_EvaluateJobOpeningInterviewsController_JobApplicationRepository"><path codeLine="52" d="M599.19,229.6511 C629.79,247.7711 663.7,274.1611 680.88,308.6211 C692.98,332.8811 692.32,345.0411 680.88,369.6211 C665.32,403.0511 638.8153,426.5274 610.8453,445.1374 " fill="none" id="EvaluateJobOpeningInterviewsController-to-JobApplicationRepository" style="stroke:#181818;stroke-width:1.0;stroke-dasharray:7.0,7.0;"/><polygon fill="#181818" points="605.85,448.4611,615.5588,446.8058,610.0128,445.6914,611.1272,440.1454,605.85,448.4611" style="stroke:#181818;stroke-width:1.0;"/><polygon fill="#000000" points="694.15,344.2593,696.5962,335.0687,690.7269,335.3862,694.15,344.2593" style="stroke:#000000;stroke-width:1.0;"/><text fill="#000000" font-family="sans-serif" font-size="13" lengthAdjust="spacing" textLength="56" x="702.88" y="344.6494">accesses</text></g><!--link JobOpeningManagementService to JobOpeningRepository--><g id="link_JobOpeningManagementService_JobOpeningRepository"><path codeLine="54" d="M251.73,369.7211 C247.68,393.0111 243.0988,419.38 239.0488,442.65 " fill="none" id="JobOpeningManagementService-to-JobOpeningRepository" style="stroke:#181818;stroke-width:1.0;"/><polygon fill="#181818" points="238.02,448.5611,243.504,440.3802,238.8773,443.6351,235.6224,439.0085,238.02,448.5611" style="stroke:#181818;stroke-width:1.0;"/><text fill="#000000" font-family="sans-serif" font-size="13" lengthAdjust="spacing" textLength="28" x="246.88" y="414.6494">uses</text></g><!--link JobApplicationManagementService to JobApplicationRepository--><g id="link_JobApplicationManagementService_JobApplicationRepository"><path codeLine="55" d="M540.1,369.7211 C542.63,393.0111 545.4915,419.3262 548.0215,442.5962 " fill="none" id="JobApplicationManagementService-to-JobApplicationRepository" style="stroke:#181818;stroke-width:1.0;"/><polygon fill="#181818" points="548.67,448.5611,551.6738,439.1815,548.1296,443.5904,543.7207,440.0462,548.67,448.5611" style="stroke:#181818;stroke-width:1.0;"/><text fill="#000000" font-family="sans-serif" font-size="13" lengthAdjust="spacing" textLength="28" x="545.88" y="414.6494">uses</text></g><!--link InterviewManagementService to InterviewModelParser--><g id="link_InterviewManagementService_InterviewModelParser"><path codeLine="56" d="M946.88,369.7211 C946.88,393.0111 946.88,419.2911 946.88,442.5611 " fill="none" id="InterviewManagementService-to-InterviewModelParser" style="stroke:#181818;stroke-width:1.0;"/><polygon fill="#181818" points="946.88,448.5611,950.88,439.5611,946.88,443.5611,942.88,439.5611,946.88,448.5611" style="stroke:#181818;stroke-width:1.0;"/><text fill="#000000" font-family="sans-serif" font-size="13" lengthAdjust="spacing" textLength="28" x="947.88" y="414.6494">uses</text></g><!--link InterviewModelParser to InterviewVisitor--><g id="link_InterviewModelParser_InterviewVisitor"><path codeLine="58" d="M923.28,509.7211 C904.72,533.0111 882.7301,560.5994 864.1801,583.8694 " fill="none" id="InterviewModelParser-to-InterviewVisitor" style="stroke:#181818;stroke-width:1.0;"/><polygon fill="#181818" points="860.44,588.5611,869.1779,584.0169,863.5567,584.6513,862.9223,579.0302,860.44,588.5611" style="stroke:#181818;stroke-width:1.0;"/><polygon fill="#000000" points="899.7636,553.1766,907.6995,547.9352,903.103,544.2716,899.7636,553.1766" style="stroke:#000000;stroke-width:1.0;"/><text fill="#000000" font-family="sans-serif" font-size="13" lengthAdjust="spacing" textLength="28" x="911.88" y="554.6494">uses</text></g><!--link InterviewModelParser to Interview--><g id="link_InterviewModelParser_Interview"><path codeLine="59" d="M947.48,509.7811 C947.64,519.3111 947.8,529.9111 947.88,539.6211 C947.95,548.0611 948.94,550.2411 947.88,558.6211 C939.82,622.3611 938.88,640.3211 911.88,698.6211 C899,726.4411 882.3796,749.937 866.1296,770.237 " fill="none" id="InterviewModelParser-to-Interview" style="stroke:#181818;stroke-width:1.0;stroke-dasharray:7.0,7.0;"/><polygon fill="#181818" points="862.38,774.9211,871.1271,770.3947,865.5046,771.0177,864.8816,765.3952,862.38,774.9211" style="stroke:#181818;stroke-width:1.0;"/><polygon fill="#000000" points="947.3893,624.0392,952.8913,616.2817,947.2807,614.5293,947.3893,624.0392" style="stroke:#000000;stroke-width:1.0;"/><text fill="#000000" font-family="sans-serif" font-size="13" lengthAdjust="spacing" textLength="28" x="957.88" y="624.6494">uses</text></g><!--link InterviewVisitor to Interview--><g id="link_InterviewVisitor_Interview"><path codeLine="60" d="M836.88,649.7611 C836.88,684.1911 836.88,734.6511 836.88,769.0511 " fill="none" id="InterviewVisitor-to-Interview" style="stroke:#181818;stroke-width:1.0;"/><polygon fill="#181818" points="836.88,775.0511,840.88,766.0511,836.88,770.0511,832.88,766.0511,836.88,775.0511" style="stroke:#181818;stroke-width:1.0;"/><polygon fill="#000000" points="841.88,694.2666,844.8189,685.2215,838.9411,685.2215,841.88,694.2666" style="stroke:#000000;stroke-width:1.0;"/><text fill="#000000" font-family="sans-serif" font-size="13" lengthAdjust="spacing" textLength="52" x="850.88" y="694.6494">analyzes</text></g><!--reverse link JobOpeningRepository to RepositoryFactory--><g id="link_JobOpeningRepository_RepositoryFactory"><path codeLine="62" d="M327.0615,499.5431 C356.6915,508.5331 382.81,520.1111 407.88,539.6211 C424.3,552.3911 437.05,572.0211 445.69,588.4511 " fill="none" id="JobOpeningRepository-backto-RepositoryFactory" style="stroke:#181818;stroke-width:1.0;stroke-dasharray:7.0,7.0;"/><polygon fill="#181818" points="321.32,497.8011,328.771,504.2418,326.1046,499.2528,331.0937,496.5864,321.32,497.8011" style="stroke:#181818;stroke-width:1.0;"/><polygon fill="#000000" points="425.879,546.268,431.3543,554.0443,434.8794,549.3408,425.879,546.268" style="stroke:#000000;stroke-width:1.0;"/><text fill="#000000" font-family="sans-serif" font-size="13" lengthAdjust="spacing" textLength="43" x="438.88" y="554.6494">creates</text></g><!--reverse link JobApplicationRepository to RepositoryFactory--><g id="link_JobApplicationRepository_RepositoryFactory"><path codeLine="63" d="M532.833,515.0175 C524.403,529.9675 516.57,542.9711 505.88,558.6211 C499.05,568.6211 491.06,579.1211 483.62,588.4611 " fill="none" id="JobApplicationRepository-backto-RepositoryFactory" style="stroke:#181818;stroke-width:1.0;stroke-dasharray:7.0,7.0;"/><polygon fill="#181818" points="535.78,509.7911,527.8752,515.666,533.3241,514.1464,534.8437,519.5953,535.78,509.7911" style="stroke:#181818;stroke-width:1.0;"/><polygon fill="#000000" points="525.6633,545.1129,518.1868,550.991,523.0697,554.263,525.6633,545.1129" style="stroke:#000000;stroke-width:1.0;"/><text fill="#000000" font-family="sans-serif" font-size="13" lengthAdjust="spacing" textLength="43" x="531.88" y="554.6494">creates</text></g><!--link JobOpeningRepository to JobOpening--><g id="link_JobOpeningRepository_JobOpening"><path codeLine="65" d="M211.21,509.9111 C205.77,519.0011 200.68,529.3311 197.88,539.6211 C193.58,555.4111 193.3184,567.6866 194.9484,582.6066 " fill="none" id="JobOpeningRepository-to-JobOpening" style="stroke:#181818;stroke-width:1.0;stroke-dasharray:7.0,7.0;"/><polygon fill="#181818" points="195.6,588.5711,198.5989,579.1899,195.057,583.6007,190.6462,580.0587,195.6,588.5711" style="stroke:#181818;stroke-width:1.0;"/><polygon fill="#000000" points="201.7885,554.146,206.6311,545.9606,200.895,544.6775,201.7885,554.146" style="stroke:#000000;stroke-width:1.0;"/><text fill="#000000" font-family="sans-serif" font-size="13" lengthAdjust="spacing" textLength="191" x="211.88" y="554.6494">obtain job opening from database</text></g><!--link JobApplicationRepository to JobApplication--><g id="link_JobApplicationRepository_JobApplication"><path codeLine="66" d="M575.05,509.7211 C593.27,533.0111 614.8423,560.5659 633.0523,583.8359 " fill="none" id="JobApplicationRepository-to-JobApplication" style="stroke:#181818;stroke-width:1.0;stroke-dasharray:7.0,7.0;"/><polygon fill="#181818" points="636.75,588.5611,634.3536,579.0082,633.6686,584.6235,628.0534,583.9385,636.75,588.5611" style="stroke:#181818;stroke-width:1.0;"/><polygon fill="#000000" points="619.9615,553.2041,616.7014,544.2698,612.0726,547.8923,619.9615,553.2041" style="stroke:#000000;stroke-width:1.0;"/><text fill="#000000" font-family="sans-serif" font-size="13" lengthAdjust="spacing" textLength="206" x="625.88" y="554.6494">updates interview grade in database</text></g><!--link JobOpening to Phases--><g id="link_JobOpening_Phases"><path codeLine="68" d="M200.88,649.7611 C200.88,671.0511 200.88,694.7611 200.88,722.4811 " fill="none" id="JobOpening-to-Phases" style="stroke:#181818;stroke-width:1.0;"/><polygon fill="#181818" points="200.88,728.4811,204.88,719.4811,200.88,723.4811,196.88,719.4811,200.88,728.4811" style="stroke:#181818;stroke-width:1.0;"/><text fill="#000000" font-family="sans-serif" font-size="13" lengthAdjust="spacing" textLength="21" x="201.88" y="694.6494">has</text><text fill="#000000" font-family="sans-serif" font-size="13" lengthAdjust="spacing" textLength="7" x="193.2128" y="671.3181">1</text><text fill="#000000" font-family="sans-serif" font-size="13" lengthAdjust="spacing" textLength="22" x="177.8316" y="717.3756">4..5</text></g><!--link JobApplication to InterviewGrade--><g id="link_JobApplication_InterviewGrade"><path codeLine="70" d="M659.88,649.7611 C659.88,684.1911 659.88,734.6511 659.88,769.0511 " fill="none" id="JobApplication-to-InterviewGrade" style="stroke:#181818;stroke-width:1.0;"/><polygon fill="#181818" points="659.88,775.0511,663.88,766.0511,659.88,770.0511,655.88,766.0511,659.88,775.0511" style="stroke:#181818;stroke-width:1.0;"/><text fill="#000000" font-family="sans-serif" font-size="13" lengthAdjust="spacing" textLength="21" x="660.88" y="694.6494">has</text><text fill="#000000" font-family="sans-serif" font-size="13" lengthAdjust="spacing" textLength="7" x="652.2128" y="671.3181">1</text><text fill="#000000" font-family="sans-serif" font-size="13" lengthAdjust="spacing" textLength="7" x="652.1581" y="764.0943">1</text></g><!--link JobApplication to Interview--><g id="link_JobApplication_Interview"><path codeLine="71" d="M688.32,649.7611 C721.35,684.1911 771.3564,736.3213 804.3564,770.7213 " fill="none" id="JobApplication-to-Interview" style="stroke:#181818;stroke-width:1.0;"/><polygon fill="#181818" points="808.51,775.0511,805.1661,765.7873,805.0487,771.4429,799.393,771.3254,808.51,775.0511" style="stroke:#181818;stroke-width:1.0;"/><text fill="#000000" font-family="sans-serif" font-size="13" lengthAdjust="spacing" textLength="21" x="732.88" y="694.6494">has</text><text fill="#000000" font-family="sans-serif" font-size="13" lengthAdjust="spacing" textLength="7" x="686.0742" y="671.3181">1</text><text fill="#000000" font-family="sans-serif" font-size="13" lengthAdjust="spacing" textLength="7" x="794.9368" y="764.0943">1</text></g><!--SRC=[fLHDR-8m4BtxLrYSTWz4tQyBgf1GcgsoOYaYq6gF4pDGjy6ER4FLhlQ_h-r02904jiib7lpUc-VnUFGp5paeMD4Ss3CiCJ6l6LA5p81OPaXq2T2FC9SlN2pf0ZADfBB5Cj1wO8pYwTfWpAH8-1lIAq8CDrOkTFlqXiFIeJ-4Dnzfbyx2go-V2V5S6cqWMuF17pAzor7OBB4mg3OSN_GifjVNt8KBODZlNy89fJ1APXagosLbi2VlIJz1s7ElK9Z4aHbQXYvM1_11dcUSWU5IN4GfpLoQOEjdWhdKt4ZrQd6g39gyd8Nl0T-1RN6BObLdLiun6uFIldAvNzJ0xhcNj91DiQexYTsrX-QcqNiDeCnmgs3kAkKk6QbCdsnBEXYAzOgE7q6ZFjcblmcrly5uF8p3mJI-6_au2ITHD8f7jpwAHzDeSXz73mLsD1Z-IkB41vCecGsdvC-9cHeVv4pB1a7_mWvjbwfqifDiwziUNRkgzFzHhxMntwFPqlc5t3jFN6dr7WN6KF_dSPi4ILkLkzr6J_vivogwvJVPy1ej5NJqsjUwAstjvW5hztZBkwsb75vb3NWdSw3j2YaWUtqxBcHrJWL1pLJgKQRGtg9zrgHvn9sbrgSyR2HBaAa1BkYJJAdS_hbGSaNdO22rmyMQRpHnsaYkEldSE-1b9PP-Wjaa5SsAEzhvrF6rwtmDWc-TtKphKVibHydtMFiz6f45uHByJlil]--></g></svg>