<?xml version="1.0" encoding="us-ascii" standalone="no"?><svg xmlns="http://www.w3.org/2000/svg" xmlns:xlink="http://www.w3.org/1999/xlink" contentStyleType="text/css" height="1183px" preserveAspectRatio="none" style="width:3239px;height:1183px;background:#FFFFFF;" version="1.1" viewBox="0 0 3239 1183" width="3239px" zoomAndPan="magnify"><defs/><g><text fill="#000000" font-family="sans-serif" font-size="14" font-weight="bold" lengthAdjust="spacing" textLength="157" x="1534" y="25.1074">Domain Model - UC032</text><!--cluster SystemUserAggregate--><g id="cluster_SystemUserAggregate"><rect fill="none" height="312" rx="2.5" ry="2.5" style="stroke:#000000;stroke-width:1.5;" width="422.5" x="7" y="706.6211"/><text fill="#000000" font-family="sans-serif" font-size="14" font-weight="bold" lengthAdjust="spacing" textLength="156" x="140.25" y="723.7285">SystemUserAggregate</text></g><!--cluster CustomerAggregate--><g id="cluster_CustomerAggregate"><rect fill="none" height="195" rx="2.5" ry="2.5" style="stroke:#000000;stroke-width:1.5;" width="157" x="1721" y="982.6211"/><text fill="#000000" font-family="sans-serif" font-size="14" font-weight="bold" lengthAdjust="spacing" textLength="141" x="1729" y="999.7285">CustomerAggregate</text></g><!--cluster CandidateAggregate--><g id="cluster_CandidateAggregate"><rect fill="none" height="107" rx="2.5" ry="2.5" style="stroke:#000000;stroke-width:1.5;" width="160" x="927.5" y="379.6211"/><text fill="#000000" font-family="sans-serif" font-size="14" font-weight="bold" lengthAdjust="spacing" textLength="144" x="935.5" y="396.7285">CandidateAggregate</text></g><!--cluster JobOpeningAggregate--><g id="cluster_JobOpeningAggregate"><rect fill="none" height="440" rx="2.5" ry="2.5" style="stroke:#000000;stroke-width:1.5;" width="1589" x="950" y="510.6211"/><text fill="#000000" font-family="sans-serif" font-size="14" font-weight="bold" lengthAdjust="spacing" textLength="159" x="1665" y="527.7285">JobOpeningAggregate</text></g><!--cluster InterviewModelPackage--><g id="cluster_InterviewModelPackage"><rect fill="none" height="371" rx="2.5" ry="2.5" style="stroke:#000000;stroke-width:1.5;" width="386" x="2129" y="555.6211"/><text fill="#000000" font-family="sans-serif" font-size="14" font-weight="bold" lengthAdjust="spacing" textLength="169" x="2237.5" y="572.7285">InterviewModelPackage</text></g><!--cluster JobApplicationAggregate--><g id="cluster_JobApplicationAggregate"><rect fill="none" height="440" rx="2.5" ry="2.5" style="stroke:#000000;stroke-width:1.5;" width="1087.5" x="1735" y="46.6211"/><text fill="#000000" font-family="sans-serif" font-size="14" font-weight="bold" lengthAdjust="spacing" textLength="177" x="2190.25" y="63.7285">JobApplicationAggregate</text></g><!--cluster InterviewPackage--><g id="cluster_InterviewPackage"><rect fill="none" height="371" rx="2.5" ry="2.5" style="stroke:#000000;stroke-width:1.5;" width="456.5" x="2342" y="91.6211"/><text fill="#000000" font-family="sans-serif" font-size="14" font-weight="bold" lengthAdjust="spacing" textLength="125" x="2507.75" y="108.7285">InterviewPackage</text></g><!--class SystemUser--><g id="elem_SystemUser"><rect codeLine="17" fill="#F1F1F1" height="52.582" id="SystemUser" rx="2.5" ry="2.5" style="stroke:#181818;stroke-width:0.5;" width="81" x="31" y="771.1211"/><text fill="#000000" font-family="sans-serif" font-size="12" font-style="italic" lengthAdjust="spacing" textLength="73" x="35" y="789.0703">&#171;Root Entity&#187;</text><text fill="#000000" font-family="sans-serif" font-size="14" lengthAdjust="spacing" textLength="75" x="34" y="807.1895">SystemUser</text><line style="stroke:#181818;stroke-width:0.5;" x1="32" x2="111" y1="815.7031" y2="815.7031"/></g><!--class Username--><g id="elem_Username"><rect codeLine="18" fill="#F1F1F1" height="52.582" id="Username" rx="2.5" ry="2.5" style="stroke:#181818;stroke-width:0.5;" width="87" x="279" y="760.1211"/><text fill="#000000" font-family="sans-serif" font-size="12" font-style="italic" lengthAdjust="spacing" textLength="85" x="280" y="778.0703">&#171;Value Object&#187;</text><text fill="#000000" font-family="sans-serif" font-size="14" lengthAdjust="spacing" textLength="64" x="290.5" y="796.1895">Username</text><line style="stroke:#181818;stroke-width:0.5;" x1="280" x2="365" y1="804.7031" y2="804.7031"/></g><!--class Role--><g id="elem_Role"><rect codeLine="19" fill="#F1F1F1" height="145.6875" id="Role" rx="2.5" ry="2.5" style="stroke:#181818;stroke-width:0.5;" width="166" x="239.5" y="848.6211"/><text fill="#000000" font-family="sans-serif" font-size="12" font-style="italic" lengthAdjust="spacing" textLength="85" x="280" y="866.5703">&#171;Value Object&#187;</text><text fill="#000000" font-family="sans-serif" font-size="14" lengthAdjust="spacing" textLength="29" x="308" y="884.6895">Role</text><line style="stroke:#181818;stroke-width:0.5;" x1="240.5" x2="404.5" y1="893.2031" y2="893.2031"/><text fill="#000000" font-family="sans-serif" font-size="14" lengthAdjust="spacing" textLength="42" x="245.5" y="912.3105">ADMIN</text><text fill="#000000" font-family="sans-serif" font-size="14" lengthAdjust="spacing" textLength="154" x="245.5" y="930.9316">CUSTOMER_MANAGER</text><text fill="#000000" font-family="sans-serif" font-size="14" lengthAdjust="spacing" textLength="78" x="245.5" y="949.5527">OPERATOR</text><text fill="#000000" font-family="sans-serif" font-size="14" lengthAdjust="spacing" textLength="78" x="245.5" y="968.1738">CUSTOMER</text><text fill="#000000" font-family="sans-serif" font-size="14" lengthAdjust="spacing" textLength="78" x="245.5" y="986.7949">CANDIDATE</text></g><!--class Customer--><g id="elem_Customer"><rect codeLine="33" fill="#F1F1F1" height="52.582" id="Customer" rx="2.5" ry="2.5" style="stroke:#181818;stroke-width:0.5;" width="75" x="1762" y="1020.1211"/><text fill="#000000" font-family="sans-serif" font-size="12" font-style="italic" lengthAdjust="spacing" textLength="73" x="1763" y="1038.0703">&#171;Root Entity&#187;</text><text fill="#000000" font-family="sans-serif" font-size="14" lengthAdjust="spacing" textLength="61" x="1769" y="1056.1895">Customer</text><line style="stroke:#181818;stroke-width:0.5;" x1="1763" x2="1836" y1="1064.7031" y2="1064.7031"/></g><!--class CustomerCode--><g id="elem_CustomerCode"><rect codeLine="34" fill="#F1F1F1" height="52.582" id="CustomerCode" rx="2.5" ry="2.5" style="stroke:#181818;stroke-width:0.5;" width="101" x="1749" y="1108.1211"/><text fill="#000000" font-family="sans-serif" font-size="12" font-style="italic" lengthAdjust="spacing" textLength="85" x="1757" y="1126.0703">&#171;Value Object&#187;</text><text fill="#000000" font-family="sans-serif" font-size="14" lengthAdjust="spacing" textLength="95" x="1752" y="1144.1895">CustomerCode</text><line style="stroke:#181818;stroke-width:0.5;" x1="1750" x2="1849" y1="1152.7031" y2="1152.7031"/></g><!--class Candidate--><g id="elem_Candidate"><rect codeLine="38" fill="#F1F1F1" height="52.582" id="Candidate" rx="2.5" ry="2.5" style="stroke:#181818;stroke-width:0.5;" width="75" x="969.5" y="417.1211"/><text fill="#000000" font-family="sans-serif" font-size="12" font-style="italic" lengthAdjust="spacing" textLength="73" x="970.5" y="435.0703">&#171;Root Entity&#187;</text><text fill="#000000" font-family="sans-serif" font-size="14" lengthAdjust="spacing" textLength="65" x="974.5" y="453.1895">Candidate</text><line style="stroke:#181818;stroke-width:0.5;" x1="970.5" x2="1043.5" y1="461.7031" y2="461.7031"/></g><!--class JobOpening--><g id="elem_JobOpening"><rect codeLine="42" fill="#F1F1F1" height="52.582" id="JobOpening" rx="2.5" ry="2.5" style="stroke:#181818;stroke-width:0.5;" width="82" x="966" y="672.1211"/><text fill="#000000" font-family="sans-serif" font-size="12" font-style="italic" lengthAdjust="spacing" textLength="73" x="970.5" y="690.0703">&#171;Root Entity&#187;</text><text fill="#000000" font-family="sans-serif" font-size="14" lengthAdjust="spacing" textLength="76" x="969" y="708.1895">JobOpening</text><line style="stroke:#181818;stroke-width:0.5;" x1="967" x2="1047" y1="716.7031" y2="716.7031"/></g><!--class JobReference--><g id="elem_JobReference"><rect codeLine="43" fill="#F1F1F1" height="52.582" id="JobReference" rx="2.5" ry="2.5" style="stroke:#181818;stroke-width:0.5;" width="94" x="1138.5" y="609.1211"/><text fill="#000000" font-family="sans-serif" font-size="12" font-style="italic" lengthAdjust="spacing" textLength="85" x="1143" y="627.0703">&#171;Value Object&#187;</text><text fill="#000000" font-family="sans-serif" font-size="14" lengthAdjust="spacing" textLength="88" x="1141.5" y="645.1895">JobReference</text><line style="stroke:#181818;stroke-width:0.5;" x1="1139.5" x2="1231.5" y1="653.7031" y2="653.7031"/></g><!--class Phase--><g id="elem_Phase"><rect codeLine="44" fill="#F1F1F1" height="145.6875" id="Phase" rx="2.5" ry="2.5" style="stroke:#181818;stroke-width:0.5;" width="101" x="1135" y="734.6211"/><text fill="#000000" font-family="sans-serif" font-size="12" font-style="italic" lengthAdjust="spacing" textLength="85" x="1143" y="752.5703">&#171;Value Object&#187;</text><text fill="#000000" font-family="sans-serif" font-size="14" lengthAdjust="spacing" textLength="40" x="1165.5" y="770.6895">Phase</text><line style="stroke:#181818;stroke-width:0.5;" x1="1136" x2="1235" y1="779.2031" y2="779.2031"/><text fill="#000000" font-family="sans-serif" font-size="14" lengthAdjust="spacing" textLength="89" x="1141" y="798.3105">APPLICATION</text><text fill="#000000" font-family="sans-serif" font-size="14" lengthAdjust="spacing" textLength="79" x="1141" y="816.9316">SCREENING</text><text fill="#000000" font-family="sans-serif" font-size="14" lengthAdjust="spacing" textLength="83" x="1141" y="835.5527">INTERVIEWS</text><text fill="#000000" font-family="sans-serif" font-size="14" lengthAdjust="spacing" textLength="65" x="1141" y="854.1738">ANALYSIS</text><text fill="#000000" font-family="sans-serif" font-size="14" lengthAdjust="spacing" textLength="54" x="1141" y="872.7949">RESULT</text></g><!--class PhaseDetails--><g id="elem_PhaseDetails"><rect codeLine="51" fill="#F1F1F1" height="52.582" id="PhaseDetails" rx="2.5" ry="2.5" style="stroke:#181818;stroke-width:0.5;" width="89" x="1296" y="781.1211"/><text fill="#000000" font-family="sans-serif" font-size="12" font-style="italic" lengthAdjust="spacing" textLength="85" x="1298" y="799.0703">&#171;Value Object&#187;</text><text fill="#000000" font-family="sans-serif" font-size="14" lengthAdjust="spacing" textLength="83" x="1299" y="817.1895">PhaseDetails</text><line style="stroke:#181818;stroke-width:0.5;" x1="1297" x2="1384" y1="825.7031" y2="825.7031"/></g><!--class DateInterval--><g id="elem_DateInterval"><rect codeLine="52" fill="#F1F1F1" height="52.582" id="DateInterval" rx="2.5" ry="2.5" style="stroke:#181818;stroke-width:0.5;" width="87" x="1456.5" y="735.1211"/><text fill="#000000" font-family="sans-serif" font-size="12" font-style="italic" lengthAdjust="spacing" textLength="85" x="1457.5" y="753.0703">&#171;Value Object&#187;</text><text fill="#000000" font-family="sans-serif" font-size="14" lengthAdjust="spacing" textLength="76" x="1462" y="771.1895">DateInterval</text><line style="stroke:#181818;stroke-width:0.5;" x1="1457.5" x2="1542.5" y1="779.7031" y2="779.7031"/></g><!--class Status--><g id="elem_Status"><rect codeLine="53" fill="#F1F1F1" height="108.4453" id="Status" rx="2.5" ry="2.5" style="stroke:#181818;stroke-width:0.5;" width="110" x="1445" y="823.6211"/><text fill="#000000" font-family="sans-serif" font-size="12" font-style="italic" lengthAdjust="spacing" textLength="85" x="1457.5" y="841.5703">&#171;Value Object&#187;</text><text fill="#000000" font-family="sans-serif" font-size="14" lengthAdjust="spacing" textLength="40" x="1480" y="859.6895">Status</text><line style="stroke:#181818;stroke-width:0.5;" x1="1446" x2="1554" y1="868.2031" y2="868.2031"/><text fill="#000000" font-family="sans-serif" font-size="14" lengthAdjust="spacing" textLength="60" x="1451" y="887.3105">PENDING</text><text fill="#000000" font-family="sans-serif" font-size="14" lengthAdjust="spacing" textLength="98" x="1451" y="905.9316">IN_PROGRESS</text><text fill="#000000" font-family="sans-serif" font-size="14" lengthAdjust="spacing" textLength="86" x="1451" y="924.5527">COMPLETED</text></g><!--class InterviewModel--><g id="elem_InterviewModel"><rect codeLine="59" fill="#F1F1F1" height="52.582" id="InterviewModel" rx="2.5" ry="2.5" style="stroke:#181818;stroke-width:0.5;" width="99" x="2145" y="681.1211"/><text fill="#000000" font-family="sans-serif" font-size="12" font-style="italic" lengthAdjust="spacing" textLength="85" x="2152" y="699.0703">&#171;Value Object&#187;</text><text fill="#000000" font-family="sans-serif" font-size="14" lengthAdjust="spacing" textLength="93" x="2148" y="717.1895">InterviewModel</text><line style="stroke:#181818;stroke-width:0.5;" x1="2146" x2="2243" y1="725.7031" y2="725.7031"/></g><!--class InterviewModelDesignation--><g id="elem_InterviewModelDesignation"><rect codeLine="60" fill="#F1F1F1" height="52.582" id="InterviewModelDesignation" rx="2.5" ry="2.5" style="stroke:#181818;stroke-width:0.5;" width="174" x="2314.5" y="681.1211"/><text fill="#000000" font-family="sans-serif" font-size="12" font-style="italic" lengthAdjust="spacing" textLength="85" x="2359" y="699.0703">&#171;Value Object&#187;</text><text fill="#000000" font-family="sans-serif" font-size="14" lengthAdjust="spacing" textLength="168" x="2317.5" y="717.1895">InterviewModelDesignation</text><line style="stroke:#181818;stroke-width:0.5;" x1="2315.5" x2="2487.5" y1="725.7031" y2="725.7031"/></g><!--class InterviewModelDescription--><g id="elem_InterviewModelDescription"><rect codeLine="61" fill="#F1F1F1" height="52.582" id="InterviewModelDescription" rx="2.5" ry="2.5" style="stroke:#181818;stroke-width:0.5;" width="170" x="2316.5" y="769.1211"/><text fill="#000000" font-family="sans-serif" font-size="12" font-style="italic" lengthAdjust="spacing" textLength="85" x="2359" y="787.0703">&#171;Value Object&#187;</text><text fill="#000000" font-family="sans-serif" font-size="14" lengthAdjust="spacing" textLength="164" x="2319.5" y="805.1895">InterviewModelDescription</text><line style="stroke:#181818;stroke-width:0.5;" x1="2317.5" x2="2485.5" y1="813.7031" y2="813.7031"/></g><!--class InterviewModelFileExtension--><g id="elem_InterviewModelFileExtension"><rect codeLine="62" fill="#F1F1F1" height="52.582" id="InterviewModelFileExtension" rx="2.5" ry="2.5" style="stroke:#181818;stroke-width:0.5;" width="183" x="2310" y="857.1211"/><text fill="#000000" font-family="sans-serif" font-size="12" font-style="italic" lengthAdjust="spacing" textLength="85" x="2359" y="875.0703">&#171;Value Object&#187;</text><text fill="#000000" font-family="sans-serif" font-size="14" lengthAdjust="spacing" textLength="177" x="2313" y="893.1895">InterviewModelFileExtension</text><line style="stroke:#181818;stroke-width:0.5;" x1="2311" x2="2492" y1="901.7031" y2="901.7031"/></g><!--class InterviewModelFQCLassName--><g id="elem_InterviewModelFQCLassName"><rect codeLine="63" fill="#F1F1F1" height="52.582" id="InterviewModelFQCLassName" rx="2.5" ry="2.5" style="stroke:#181818;stroke-width:0.5;" width="195" x="2304" y="593.1211"/><text fill="#000000" font-family="sans-serif" font-size="12" font-style="italic" lengthAdjust="spacing" textLength="85" x="2359" y="611.0703">&#171;Value Object&#187;</text><text fill="#000000" font-family="sans-serif" font-size="14" lengthAdjust="spacing" textLength="189" x="2307" y="629.1895">InterviewModelFQCLassName</text><line style="stroke:#181818;stroke-width:0.5;" x1="2305" x2="2498" y1="637.7031" y2="637.7031"/></g><!--class JobApplication--><g id="elem_JobApplication"><rect codeLine="72" fill="#F1F1F1" height="52.582" id="JobApplication" rx="2.5" ry="2.5" style="stroke:#181818;stroke-width:0.5;" width="97" x="1751" y="417.1211"/><text fill="#000000" font-family="sans-serif" font-size="12" font-style="italic" lengthAdjust="spacing" textLength="73" x="1763" y="435.0703">&#171;Root Entity&#187;</text><text fill="#000000" font-family="sans-serif" font-size="14" lengthAdjust="spacing" textLength="91" x="1754" y="453.1895">JobApplication</text><line style="stroke:#181818;stroke-width:0.5;" x1="1752" x2="1847" y1="461.7031" y2="461.7031"/></g><!--class JobApplicationReference--><g id="elem_JobApplicationReference"><rect codeLine="73" fill="#F1F1F1" height="52.582" id="JobApplicationReference" rx="2.5" ry="2.5" style="stroke:#181818;stroke-width:0.5;" width="163" x="1922" y="354.1211"/><text fill="#000000" font-family="sans-serif" font-size="12" font-style="italic" lengthAdjust="spacing" textLength="85" x="1961" y="372.0703">&#171;Value Object&#187;</text><text fill="#000000" font-family="sans-serif" font-size="14" lengthAdjust="spacing" textLength="157" x="1925" y="390.1895">JobApplicationReference</text><line style="stroke:#181818;stroke-width:0.5;" x1="1923" x2="2084" y1="398.7031" y2="398.7031"/></g><!--class Interview--><g id="elem_Interview"><rect codeLine="75" fill="#F1F1F1" height="52.582" id="Interview" rx="2.5" ry="2.5" style="stroke:#181818;stroke-width:0.5;" width="87" x="2358" y="305.1211"/><text fill="#000000" font-family="sans-serif" font-size="12" font-style="italic" lengthAdjust="spacing" textLength="85" x="2359" y="323.0703">&#171;Value Object&#187;</text><text fill="#000000" font-family="sans-serif" font-size="14" lengthAdjust="spacing" textLength="55" x="2374" y="341.1895">Interview</text><line style="stroke:#181818;stroke-width:0.5;" x1="2359" x2="2444" y1="349.7031" y2="349.7031"/></g><!--class InterviewDate--><g id="elem_InterviewDate"><rect codeLine="76" fill="#F1F1F1" height="52.582" id="InterviewDate" rx="2.5" ry="2.5" style="stroke:#181818;stroke-width:0.5;" width="91" x="2671" y="393.1211"/><text fill="#000000" font-family="sans-serif" font-size="12" font-style="italic" lengthAdjust="spacing" textLength="85" x="2674" y="411.0703">&#171;Value Object&#187;</text><text fill="#000000" font-family="sans-serif" font-size="14" lengthAdjust="spacing" textLength="85" x="2674" y="429.1895">InterviewDate</text><line style="stroke:#181818;stroke-width:0.5;" x1="2672" x2="2761" y1="437.7031" y2="437.7031"/></g><!--class InterviewName--><g id="elem_InterviewName"><rect codeLine="77" fill="#F1F1F1" height="52.582" id="InterviewName" rx="2.5" ry="2.5" style="stroke:#181818;stroke-width:0.5;" width="97" x="2668" y="217.1211"/><text fill="#000000" font-family="sans-serif" font-size="12" font-style="italic" lengthAdjust="spacing" textLength="85" x="2674" y="235.0703">&#171;Value Object&#187;</text><text fill="#000000" font-family="sans-serif" font-size="14" lengthAdjust="spacing" textLength="91" x="2671" y="253.1895">InterviewName</text><line style="stroke:#181818;stroke-width:0.5;" x1="2669" x2="2764" y1="261.7031" y2="261.7031"/></g><!--class InterviewDescription--><g id="elem_InterviewDescription"><rect codeLine="78" fill="#F1F1F1" height="52.582" id="InterviewDescription" rx="2.5" ry="2.5" style="stroke:#181818;stroke-width:0.5;" width="132" x="2650.5" y="305.1211"/><text fill="#000000" font-family="sans-serif" font-size="12" font-style="italic" lengthAdjust="spacing" textLength="85" x="2674" y="323.0703">&#171;Value Object&#187;</text><text fill="#000000" font-family="sans-serif" font-size="14" lengthAdjust="spacing" textLength="126" x="2653.5" y="341.1895">InterviewDescription</text><line style="stroke:#181818;stroke-width:0.5;" x1="2651.5" x2="2781.5" y1="349.7031" y2="349.7031"/></g><!--class InterviewGrade--><g id="elem_InterviewGrade"><rect codeLine="79" fill="#F1F1F1" height="52.582" id="InterviewGrade" rx="2.5" ry="2.5" style="stroke:#181818;stroke-width:0.5;" width="101" x="2666" y="129.1211"/><text fill="#000000" font-family="sans-serif" font-size="12" font-style="italic" lengthAdjust="spacing" textLength="85" x="2674" y="147.0703">&#171;Value Object&#187;</text><text fill="#000000" font-family="sans-serif" font-size="14" lengthAdjust="spacing" textLength="95" x="2669" y="165.1895">InterviewGrade</text><line style="stroke:#181818;stroke-width:0.5;" x1="2667" x2="2766" y1="173.7031" y2="173.7031"/></g><g id="elem_GMN6"><path d="M172,492.1211 L172,519.4121 L473,519.4121 L473,502.1211 L463,492.1211 L172,492.1211 " fill="#FEFFDD" style="stroke:#181818;stroke-width:0.5;"/><path d="M463,492.1211 L463,502.1211 L473,502.1211 L463,492.1211 " fill="#FEFFDD" style="stroke:#181818;stroke-width:1.0;"/><text fill="#000000" font-family="sans-serif" font-size="13" lengthAdjust="spacing" textLength="280" x="178" y="511.1494">out of scope (provided by EAPLI FRAMEWORK)</text></g><!--class CustomerManager--><g id="elem_CustomerManager"><rect codeLine="29" fill="#F1F1F1" height="36.6211" id="CustomerManager" rx="2.5" ry="2.5" style="stroke:#181818;stroke-width:0.5;" width="123" x="647" y="684.1211"/><text fill="#000000" font-family="sans-serif" font-size="14" lengthAdjust="spacing" textLength="117" x="650" y="704.2285">CustomerManager</text><line style="stroke:#181818;stroke-width:0.5;" x1="648" x2="769" y1="712.7422" y2="712.7422"/></g><g id="elem_GMN10"><path d="M263,626.1211 L263,653.4121 L382,653.4121 L382,636.1211 L372,626.1211 L263,626.1211 " fill="#FEFFDD" style="stroke:#181818;stroke-width:0.5;"/><path d="M372,626.1211 L372,636.1211 L382,636.1211 L372,626.1211 " fill="#FEFFDD" style="stroke:#181818;stroke-width:1.0;"/><text fill="#000000" font-family="sans-serif" font-size="13" lengthAdjust="spacing" textLength="98" x="269" y="645.1494">conceptual class</text></g><g id="elem_GMN31"><path d="M2567.5,694.1211 L2567.5,703.6211 L2488.83,707.6211 L2567.5,711.6211 L2567.5,721.4121 A0,0 0 0 0 2567.5,721.4121 L2865.5,721.4121 A0,0 0 0 0 2865.5,721.4121 L2865.5,704.1211 L2855.5,694.1211 L2567.5,694.1211 A0,0 0 0 0 2567.5,694.1211 " fill="#FEFFDD" style="stroke:#181818;stroke-width:0.5;"/><path d="M2855.5,694.1211 L2855.5,704.1211 L2865.5,704.1211 L2855.5,694.1211 " fill="#FEFFDD" style="stroke:#181818;stroke-width:0.5;"/><text fill="#000000" font-family="sans-serif" font-size="13" lengthAdjust="spacing" textLength="277" x="2573.5" y="713.1494">Designation (provided by EAPLI FRAMEWORK)</text></g><g id="elem_GMN34"><path d="M2569,782.1211 L2569,791.6211 L2486.74,795.6211 L2569,799.6211 L2569,809.4121 A0,0 0 0 0 2569,809.4121 L2864,809.4121 A0,0 0 0 0 2864,809.4121 L2864,792.1211 L2854,782.1211 L2569,782.1211 A0,0 0 0 0 2569,782.1211 " fill="#FEFFDD" style="stroke:#181818;stroke-width:0.5;"/><path d="M2854,782.1211 L2854,792.1211 L2864,792.1211 L2854,782.1211 " fill="#FEFFDD" style="stroke:#181818;stroke-width:0.5;"/><text fill="#000000" font-family="sans-serif" font-size="13" lengthAdjust="spacing" textLength="274" x="2575" y="801.1494">Description (provided by EAPLI FRAMEWORK)</text></g><g id="elem_GMN37"><path d="M2562,870.1211 L2562,879.6211 L2493.03,883.6211 L2562,887.6211 L2562,897.4121 A0,0 0 0 0 2562,897.4121 L2871,897.4121 A0,0 0 0 0 2871,897.4121 L2871,880.1211 L2861,870.1211 L2562,870.1211 A0,0 0 0 0 2562,870.1211 " fill="#FEFFDD" style="stroke:#181818;stroke-width:0.5;"/><path d="M2861,870.1211 L2861,880.1211 L2871,880.1211 L2861,870.1211 " fill="#FEFFDD" style="stroke:#181818;stroke-width:0.5;"/><text fill="#000000" font-family="sans-serif" font-size="13" lengthAdjust="spacing" textLength="288" x="2568" y="889.1494">FileExtension (provided by EAPLI FRAMEWORK)</text></g><g id="elem_GMN40"><path d="M2559,606.1211 L2559,615.6211 L2499.01,619.6211 L2559,623.6211 L2559,633.4121 A0,0 0 0 0 2559,633.4121 L2874,633.4121 A0,0 0 0 0 2874,633.4121 L2874,616.1211 L2864,606.1211 L2559,606.1211 A0,0 0 0 0 2559,606.1211 " fill="#FEFFDD" style="stroke:#181818;stroke-width:0.5;"/><path d="M2864,606.1211 L2864,616.1211 L2874,616.1211 L2864,606.1211 " fill="#FEFFDD" style="stroke:#181818;stroke-width:0.5;"/><text fill="#000000" font-family="sans-serif" font-size="13" lengthAdjust="spacing" textLength="294" x="2565" y="625.1494">FQClassName (provided by EAPLI FRAMEWORK)</text></g><g id="elem_GMN52"><path d="M2934,230.1211 L2934,239.6211 L2765.17,243.6211 L2934,247.6211 L2934,257.4121 A0,0 0 0 0 2934,257.4121 L3232,257.4121 A0,0 0 0 0 3232,257.4121 L3232,240.1211 L3222,230.1211 L2934,230.1211 A0,0 0 0 0 2934,230.1211 " fill="#FEFFDD" style="stroke:#181818;stroke-width:0.5;"/><path d="M3222,230.1211 L3222,240.1211 L3232,240.1211 L3222,230.1211 " fill="#FEFFDD" style="stroke:#181818;stroke-width:0.5;"/><text fill="#000000" font-family="sans-serif" font-size="13" lengthAdjust="spacing" textLength="277" x="2940" y="249.1494">Designation (provided by EAPLI FRAMEWORK)</text></g><g id="elem_GMN55"><path d="M2935.5,318.1211 L2935.5,327.6211 L2782.87,331.6211 L2935.5,335.6211 L2935.5,345.4121 A0,0 0 0 0 2935.5,345.4121 L3230.5,345.4121 A0,0 0 0 0 3230.5,345.4121 L3230.5,328.1211 L3220.5,318.1211 L2935.5,318.1211 A0,0 0 0 0 2935.5,318.1211 " fill="#FEFFDD" style="stroke:#181818;stroke-width:0.5;"/><path d="M3220.5,318.1211 L3220.5,328.1211 L3230.5,328.1211 L3220.5,318.1211 " fill="#FEFFDD" style="stroke:#181818;stroke-width:0.5;"/><text fill="#000000" font-family="sans-serif" font-size="13" lengthAdjust="spacing" textLength="274" x="2941.5" y="337.1494">Description (provided by EAPLI FRAMEWORK)</text></g><g id="elem_GMN60"><path d="M533,773.1211 L533,782.6211 L366.03,786.6211 L533,790.6211 L533,800.4121 A0,0 0 0 0 533,800.4121 L884,800.4121 A0,0 0 0 0 884,800.4121 L884,783.1211 L874,773.1211 L533,773.1211 A0,0 0 0 0 533,773.1211 " fill="#FEFFDD" style="stroke:#181818;stroke-width:0.5;"/><path d="M874,773.1211 L874,783.1211 L884,783.1211 L874,773.1211 " fill="#FEFFDD" style="stroke:#181818;stroke-width:0.5;"/><text fill="#000000" font-family="sans-serif" font-size="13" lengthAdjust="spacing" textLength="330" x="539" y="792.1494">in the context of our app, is the EmailAddress of the user</text></g><!--link SystemUserAggregate to GMN6--><g id="link_SystemUserAggregate_GMN6"><path d="M72,706.3444 C72,705.731 72,705.11 72,704.4816 C72,701.9684 72,699.338 72,696.6039 C72,674.7311 72,646.2198 72,617.9261 C72,561.3386 72,505.6211 72,505.6211 C72,505.6211 118.67,505.6211 171.72,505.6211 " fill="none" id="SystemUserAggregate-GMN6" style="stroke:#181818;stroke-width:1.0;stroke-dasharray:7.0,7.0;"/></g><!--link GMN10 to CustomerManager--><g id="link_GMN10_CustomerManager"><path d="M374,653.3811 C374,670.2011 374,696.4511 374,696.4511 C374,696.4511 550.11,696.4511 646.76,696.4511 " fill="none" id="GMN10-CustomerManager" style="stroke:#181818;stroke-width:1.0;stroke-dasharray:7.0,7.0;"/></g><!--link SystemUser to Username--><g id="link_SystemUser_Username"><path codeLine="85" d="M112.11,792.1211 C157.75,792.1211 231.61,792.1211 278.57,792.1211 " fill="none" id="SystemUser-Username" style="stroke:#181818;stroke-width:1.0;"/><text fill="#000000" font-family="sans-serif" font-size="13" lengthAdjust="spacing" textLength="7" x="119.9671" y="806.7469">1</text><text fill="#000000" font-family="sans-serif" font-size="13" lengthAdjust="spacing" textLength="7" x="264.0108" y="808.4372">1</text></g><!--link SystemUser to Role--><g id="link_SystemUser_Role"><path codeLine="86" d="M112.01,818.6211 C165.23,818.6211 252,818.6211 252,818.6211 C252,818.6211 252,831.6311 252,848.4111 " fill="none" id="SystemUser-Role" style="stroke:#181818;stroke-width:1.0;"/><text fill="#000000" font-family="sans-serif" font-size="13" lengthAdjust="spacing" textLength="7" x="120.1243" y="838.1538">1</text><text fill="#000000" font-family="sans-serif" font-size="13" lengthAdjust="spacing" textLength="5" x="239.8141" y="837.4258">*</text></g><!--reverse link SystemUser to CustomerManager--><g id="link_SystemUser_CustomerManager"><path codeLine="89" d="M99,764.9711 C99,738.8011 99,708.7911 99,708.7911 C99,708.7911 492.23,708.7911 646.99,708.7911 " fill="none" id="SystemUser-backto-CustomerManager" style="stroke:#181818;stroke-width:1.0;"/><polygon fill="#181818" points="99,770.9711,103,761.9711,99,765.9711,95,761.9711,99,770.9711" style="stroke:#181818;stroke-width:1.0;"/><polygon fill="#000000" points="305.9261,718.9465,315.2237,720.9477,314.6243,715.1005,305.9261,718.9465" style="stroke:#000000;stroke-width:1.0;"/><text fill="#000000" font-family="sans-serif" font-size="13" lengthAdjust="spacing" textLength="21" x="319.9" y="723.8194">is a</text></g><!--reverse link SystemUser to Customer--><g id="link_SystemUser_Customer"><path codeLine="90" d="M72,830.2411 C72,896.1211 72,1055.4511 72,1055.4511 C72,1055.4511 1509.18,1055.4511 1761.81,1055.4511 " fill="none" id="SystemUser-backto-Customer" style="stroke:#181818;stroke-width:1.0;"/><polygon fill="#181818" points="72,824.2411,68,833.2411,72,829.2411,76,833.2411,72,824.2411" style="stroke:#181818;stroke-width:1.0;"/><polygon fill="#000000" points="765.3438,1064.4361,773.9214,1068.5442,774.6979,1062.7178,765.3438,1064.4361" style="stroke:#000000;stroke-width:1.0;"/><text fill="#000000" font-family="sans-serif" font-size="13" lengthAdjust="spacing" textLength="21" x="779.3" y="1070.4794">is a</text></g><!--reverse link SystemUser to Candidate--><g id="link_SystemUser_Candidate"><path codeLine="91" d="M86,765.0111 C86,682.6911 86,443.6211 86,443.6211 C86,443.6211 796.66,443.6211 969.47,443.6211 " fill="none" id="SystemUser-backto-Candidate" style="stroke:#181818;stroke-width:1.0;"/><polygon fill="#181818" points="86,771.0111,90,762.0111,86,766.0111,82,762.0111,86,771.0111" style="stroke:#181818;stroke-width:1.0;"/><polygon fill="#000000" points="328.3413,454.9759,337.8461,454.6456,335.8367,449.1219,328.3413,454.9759" style="stroke:#000000;stroke-width:1.0;"/><text fill="#000000" font-family="sans-serif" font-size="13" lengthAdjust="spacing" textLength="21" x="342.04" y="458.6494">is a</text></g><!--link CustomerManager to Customer--><g id="link_CustomerManager_Customer"><path codeLine="94" d="M770.25,708.7911 C834.24,708.7911 925,708.7911 925,708.7911 C925,708.7911 925,1037.7911 925,1037.7911 C925,1037.7911 1594.54,1037.7911 1761.92,1037.7911 " fill="none" id="CustomerManager-Customer" style="stroke:#181818;stroke-width:1.0;"/><polygon fill="#000000" points="1043.3356,1049.011,1035.6761,1043.3734,1033.8253,1048.9523,1043.3356,1049.011" style="stroke:#000000;stroke-width:1.0;"/><text fill="#000000" font-family="sans-serif" font-size="13" lengthAdjust="spacing" textLength="53" x="1047.59" y="1052.8194">manages</text><text fill="#000000" font-family="sans-serif" font-size="13" lengthAdjust="spacing" textLength="7" x="778.2023" y="724.6481">1</text><text fill="#000000" font-family="sans-serif" font-size="13" lengthAdjust="spacing" textLength="5" x="1749.0293" y="1051.8242">*</text></g><!--link Candidate to JobApplication--><g id="link_Candidate_JobApplication"><path codeLine="96" d="M1044.69,443.6211 C1174.81,443.6211 1605.13,443.6211 1750.8,443.6211 " fill="none" id="Candidate-JobApplication" style="stroke:#181818;stroke-width:1.0;"/><polygon fill="#000000" points="1336.75,453.2666,1327.7049,450.3277,1327.7049,456.2055,1336.75,453.2666" style="stroke:#000000;stroke-width:1.0;"/><text fill="#000000" font-family="sans-serif" font-size="13" lengthAdjust="spacing" textLength="56" x="1340.75" y="458.6494">applies to</text><text fill="#000000" font-family="sans-serif" font-size="13" lengthAdjust="spacing" textLength="7" x="1052.5418" y="459.3373">1</text><text fill="#000000" font-family="sans-serif" font-size="13" lengthAdjust="spacing" textLength="5" x="1737.96" y="459.0053">*</text></g><!--link CustomerManager to JobOpening--><g id="link_CustomerManager_JobOpening"><path codeLine="98" d="M770.35,696.4511 C828.92,696.4511 915.22,696.4511 965.82,696.4511 " fill="none" id="CustomerManager-JobOpening" style="stroke:#181818;stroke-width:1.0;"/><polygon fill="#000000" points="820.08,706.0966,811.0349,703.1577,811.0349,709.0355,820.08,706.0966" style="stroke:#000000;stroke-width:1.0;"/><text fill="#000000" font-family="sans-serif" font-size="13" lengthAdjust="spacing" textLength="43" x="824.08" y="711.4794">creates</text><text fill="#000000" font-family="sans-serif" font-size="13" lengthAdjust="spacing" textLength="7" x="777.9061" y="691.8219">1</text><text fill="#000000" font-family="sans-serif" font-size="13" lengthAdjust="spacing" textLength="5" x="953.0395" y="711.6701">*</text></g><!--link JobOpening to JobApplication--><g id="link_JobOpening_JobApplication"><path codeLine="100" d="M1048.12,676.6211 C1204.99,676.6211 1757,676.6211 1757,676.6211 C1757,676.6211 1757,531.5511 1757,470.3511 " fill="none" id="JobOpening-JobApplication" style="stroke:#181818;stroke-width:1.0;"/><polygon fill="#000000" points="1479.8991,687.6636,1489.4051,687.9583,1487.7629,682.3145,1479.8991,687.6636" style="stroke:#000000;stroke-width:1.0;"/><text fill="#000000" font-family="sans-serif" font-size="13" lengthAdjust="spacing" textLength="11" x="1493.7" y="691.6494">to</text><text fill="#000000" font-family="sans-serif" font-size="13" lengthAdjust="spacing" textLength="7" x="1056.0679" y="688.3079">1</text><text fill="#000000" font-family="sans-serif" font-size="13" lengthAdjust="spacing" textLength="5" x="1742.7188" y="491.7187">*</text></g><!--link JobOpening to InterviewModel--><g id="link_JobOpening_InterviewModel"><path codeLine="101" d="M1048.22,703.1211 C1228.67,703.1211 1948.67,703.1211 2144.89,703.1211 " fill="none" id="JobOpening-InterviewModel" style="stroke:#181818;stroke-width:1.0;"/><polygon fill="#000000" points="1570.56,712.7666,1561.5149,709.8277,1561.5149,715.7055,1570.56,712.7666" style="stroke:#000000;stroke-width:1.0;"/><text fill="#000000" font-family="sans-serif" font-size="13" lengthAdjust="spacing" textLength="21" x="1574.56" y="718.1494">has</text><text fill="#000000" font-family="sans-serif" font-size="13" lengthAdjust="spacing" textLength="7" x="1055.9063" y="719.4447">1</text><text fill="#000000" font-family="sans-serif" font-size="13" lengthAdjust="spacing" textLength="22" x="2115.1243" y="717.7073">0..1</text></g><!--link JobOpening to JobReference--><g id="link_JobOpening_JobReference"><path codeLine="102" d="M1007,671.9611 C1007,664.1311 1007,657.6211 1007,657.6211 C1007,657.6211 1085.25,657.6211 1138.13,657.6211 " fill="none" id="JobOpening-JobReference" style="stroke:#181818;stroke-width:1.0;"/><polygon fill="#000000" points="991.3704,647.7231,982.0594,645.7848,982.6984,651.6278,991.3704,647.7231" style="stroke:#000000;stroke-width:1.0;"/><text fill="#000000" font-family="sans-serif" font-size="13" lengthAdjust="spacing" textLength="69" x="995.4" y="653.6494">identified by</text><text fill="#000000" font-family="sans-serif" font-size="13" lengthAdjust="spacing" textLength="7" x="999.1906" y="660.9406">1</text><text fill="#000000" font-family="sans-serif" font-size="13" lengthAdjust="spacing" textLength="7" x="1123.6585" y="676.1812">1</text></g><!--link JobOpening to Phase--><g id="link_JobOpening_Phase"><path codeLine="103" d="M1007,725.5111 C1007,731.2511 1007,735.6211 1007,735.6211 C1007,735.6211 1082.05,735.6211 1134.83,735.6211 " fill="none" id="JobOpening-Phase" style="stroke:#181818;stroke-width:1.0;"/><polygon fill="#000000" points="1039.8444,745.6608,1031.0592,742.0179,1030.5958,747.8775,1039.8444,745.6608" style="stroke:#000000;stroke-width:1.0;"/><text fill="#000000" font-family="sans-serif" font-size="13" lengthAdjust="spacing" textLength="21" x="1043.86" y="750.6494">has</text><text fill="#000000" font-family="sans-serif" font-size="13" lengthAdjust="spacing" textLength="7" x="999.2781" y="746.9117">1</text><text fill="#000000" font-family="sans-serif" font-size="13" lengthAdjust="spacing" textLength="22" x="1104.9285" y="741.5521">4..5</text></g><!--link Phase to PhaseDetails--><g id="link_Phase_PhaseDetails"><path codeLine="105" d="M1236.25,807.6211 C1255.5,807.6211 1277.26,807.6211 1295.9,807.6211 " fill="none" id="Phase-PhaseDetails" style="stroke:#181818;stroke-width:1.0;"/><polygon fill="#000000" points="1238.07,798.2666,1229.0249,795.3277,1229.0249,801.2055,1238.07,798.2666" style="stroke:#000000;stroke-width:1.0;"/><text fill="#000000" font-family="sans-serif" font-size="13" lengthAdjust="spacing" textLength="23" x="1242.07" y="803.6494">with</text><text fill="#000000" font-family="sans-serif" font-size="13" lengthAdjust="spacing" textLength="7" x="1243.8789" y="822.8872">1</text><text fill="#000000" font-family="sans-serif" font-size="13" lengthAdjust="spacing" textLength="7" x="1280.9334" y="823.1159">1</text></g><!--link PhaseDetails to Status--><g id="link_PhaseDetails_Status"><path codeLine="106" d="M1385.35,828.8711 C1403.87,828.8711 1425.52,828.8711 1444.99,828.8711 " fill="none" id="PhaseDetails-Status" style="stroke:#181818;stroke-width:1.0;"/><polygon fill="#000000" points="1425.17,819.5166,1416.1249,816.5777,1416.1249,822.4555,1425.17,819.5166" style="stroke:#000000;stroke-width:1.0;"/><text fill="#000000" font-family="sans-serif" font-size="13" lengthAdjust="spacing" textLength="21" x="1429.17" y="824.8994">has</text><text fill="#000000" font-family="sans-serif" font-size="13" lengthAdjust="spacing" textLength="7" x="1393.0558" y="847.6973">1</text><text fill="#000000" font-family="sans-serif" font-size="13" lengthAdjust="spacing" textLength="7" x="1430.1277" y="837.4805">1</text></g><!--link PhaseDetails to DateInterval--><g id="link_PhaseDetails_DateInterval"><path codeLine="107" d="M1385.35,784.6211 C1407.56,784.6211 1434.26,784.6211 1456.31,784.6211 " fill="none" id="PhaseDetails-DateInterval" style="stroke:#181818;stroke-width:1.0;"/><polygon fill="#000000" points="1394.83,775.2666,1385.7849,772.3277,1385.7849,778.2055,1394.83,775.2666" style="stroke:#000000;stroke-width:1.0;"/><text fill="#000000" font-family="sans-serif" font-size="13" lengthAdjust="spacing" textLength="21" x="1398.83" y="780.6494">has</text><text fill="#000000" font-family="sans-serif" font-size="13" lengthAdjust="spacing" textLength="7" x="1393.0558" y="796.395">1</text><text fill="#000000" font-family="sans-serif" font-size="13" lengthAdjust="spacing" textLength="7" x="1441.4942" y="803.9253">1</text></g><!--link JobApplication to JobApplicationReference--><g id="link_JobApplication_JobApplicationReference"><path codeLine="109" d="M1800,416.9011 C1800,399.7311 1800,380.6211 1800,380.6211 C1800,380.6211 1865.29,380.6211 1921.9,380.6211 " fill="none" id="JobApplication-JobApplicationReference" style="stroke:#181818;stroke-width:1.0;"/><polygon fill="#000000" points="1768.6023,388.8403,1759.0946,388.6037,1760.7713,394.2373,1768.6023,388.8403" style="stroke:#000000;stroke-width:1.0;"/><text fill="#000000" font-family="sans-serif" font-size="13" lengthAdjust="spacing" textLength="69" x="1772.81" y="395.6494">identified by</text><text fill="#000000" font-family="sans-serif" font-size="13" lengthAdjust="spacing" textLength="7" x="1792.3063" y="405.8668">1</text><text fill="#000000" font-family="sans-serif" font-size="13" lengthAdjust="spacing" textLength="7" x="1907.0548" y="395.4657">1</text></g><!--link JobApplication to Interview--><g id="link_JobApplication_Interview"><path codeLine="110" d="M1848.08,431.6211 C1988.83,431.6211 2387,431.6211 2387,431.6211 C2387,431.6211 2387,387.7811 2387,358.1611 " fill="none" id="JobApplication-Interview" style="stroke:#181818;stroke-width:1.0;"/><polygon fill="#000000" points="2128.2242,440.5913,2118.865,438.9009,2119.6589,444.7249,2128.2242,440.5913" style="stroke:#000000;stroke-width:1.0;"/><text fill="#000000" font-family="sans-serif" font-size="13" lengthAdjust="spacing" textLength="21" x="2132.27" y="446.6494">has</text><text fill="#000000" font-family="sans-serif" font-size="13" lengthAdjust="spacing" textLength="7" x="1856.0548" y="445.1678">1</text><text fill="#000000" font-family="sans-serif" font-size="13" lengthAdjust="spacing" textLength="22" x="2359.4219" y="379.932">0..1</text></g><!--link Interview to InterviewDate--><g id="link_Interview_InterviewDate"><path codeLine="112" d="M2416,358.3011 C2416,377.5311 2416,400.1211 2416,400.1211 C2416,400.1211 2586.8,400.1211 2670.86,400.1211 " fill="none" id="Interview-InterviewDate" style="stroke:#181818;stroke-width:1.0;"/><polygon fill="#000000" points="2503.454,410.5762,2495.0042,406.2115,2494.0524,412.0117,2503.454,410.5762" style="stroke:#000000;stroke-width:1.0;"/><text fill="#000000" font-family="sans-serif" font-size="13" lengthAdjust="spacing" textLength="14" x="2507.52" y="415.1494">on</text><text fill="#000000" font-family="sans-serif" font-size="13" lengthAdjust="spacing" textLength="7" x="2411.2688" y="379.6584">1</text><text fill="#000000" font-family="sans-serif" font-size="13" lengthAdjust="spacing" textLength="7" x="2656.0283" y="412.4528">1</text></g><!--link Interview to InterviewName--><g id="link_Interview_InterviewName"><path codeLine="113" d="M2416,304.7411 C2416,278.8611 2416,243.6211 2416,243.6211 C2416,243.6211 2582.84,243.6211 2667.89,243.6211 " fill="none" id="Interview-InterviewName" style="stroke:#181818;stroke-width:1.0;"/><polygon fill="#000000" points="2437.239,252.0876,2427.756,251.3644,2429.142,257.0765,2437.239,252.0876" style="stroke:#000000;stroke-width:1.0;"/><text fill="#000000" font-family="sans-serif" font-size="13" lengthAdjust="spacing" textLength="69" x="2441.38" y="258.6494">identified by</text><text fill="#000000" font-family="sans-serif" font-size="13" lengthAdjust="spacing" textLength="7" x="2411.5438" y="293.6698">1</text><text fill="#000000" font-family="sans-serif" font-size="13" lengthAdjust="spacing" textLength="7" x="2652.9107" y="259.0053">1</text></g><!--link Interview to InterviewDescription--><g id="link_Interview_InterviewDescription"><path codeLine="114" d="M2445.3,331.6211 C2498.47,331.6211 2588.64,331.6211 2650.3,331.6211 " fill="none" id="Interview-InterviewDescription" style="stroke:#181818;stroke-width:1.0;"/><polygon fill="#000000" points="2519.8,341.2666,2510.7549,338.3277,2510.7549,344.2055,2519.8,341.2666" style="stroke:#000000;stroke-width:1.0;"/><text fill="#000000" font-family="sans-serif" font-size="13" lengthAdjust="spacing" textLength="23" x="2523.8" y="346.6494">with</text><text fill="#000000" font-family="sans-serif" font-size="13" lengthAdjust="spacing" textLength="7" x="2453.1341" y="347.1159">1</text><text fill="#000000" font-family="sans-serif" font-size="13" lengthAdjust="spacing" textLength="7" x="2635.6766" y="346.6179">1</text></g><!--link Interview to InterviewGrade--><g id="link_Interview_InterviewGrade"><path codeLine="115" d="M2387,304.8911 C2387,255.6511 2387,155.6211 2387,155.6211 C2387,155.6211 2573.31,155.6211 2665.74,155.6211 " fill="none" id="Interview-InterviewGrade" style="stroke:#181818;stroke-width:1.0;"/><polygon fill="#000000" points="2423.1378,162.9062,2413.7766,164.5854,2416.5515,169.767,2423.1378,162.9062" style="stroke:#000000;stroke-width:1.0;"/><text fill="#000000" font-family="sans-serif" font-size="13" lengthAdjust="spacing" textLength="23" x="2427.73" y="170.6494">with</text><text fill="#000000" font-family="sans-serif" font-size="13" lengthAdjust="spacing" textLength="7" x="2375.8375" y="293.8545">1</text><text fill="#000000" font-family="sans-serif" font-size="13" lengthAdjust="spacing" textLength="7" x="2651.1097" y="170.8946">1</text></g><!--link InterviewModel to InterviewModelDesignation--><g id="link_InterviewModel_InterviewModelDesignation"><path codeLine="117" d="M2244.08,707.6211 C2265.13,707.6211 2290.31,707.6211 2314.29,707.6211 " fill="none" id="InterviewModel-InterviewModelDesignation" style="stroke:#181818;stroke-width:1.0;"/><polygon fill="#000000" points="2205.19,698.2666,2196.1449,695.3277,2196.1449,701.2055,2205.19,698.2666" style="stroke:#000000;stroke-width:1.0;"/><text fill="#000000" font-family="sans-serif" font-size="13" lengthAdjust="spacing" textLength="69" x="2209.19" y="703.6494">identified by</text><text fill="#000000" font-family="sans-serif" font-size="13" lengthAdjust="spacing" textLength="7" x="2251.8761" y="722.9499">1</text><text fill="#000000" font-family="sans-serif" font-size="13" lengthAdjust="spacing" textLength="7" x="2299.4946" y="722.4103">1</text></g><!--link InterviewModel to InterviewModelDescription--><g id="link_InterviewModel_InterviewModelDescription"><path codeLine="118" d="M2211,734.4611 C2211,754.5711 2211,778.6211 2211,778.6211 C2211,778.6211 2265.56,778.6211 2316.28,778.6211 " fill="none" id="InterviewModel-InterviewModelDescription" style="stroke:#181818;stroke-width:1.0;"/><polygon fill="#000000" points="2213.1708,790.2006,2205.9666,783.9918,2203.693,789.4121,2213.1708,790.2006" style="stroke:#000000;stroke-width:1.0;"/><text fill="#000000" font-family="sans-serif" font-size="13" lengthAdjust="spacing" textLength="23" x="2217.56" y="793.6494">with</text><text fill="#000000" font-family="sans-serif" font-size="13" lengthAdjust="spacing" textLength="7" x="2206.6813" y="755.8514">1</text><text fill="#000000" font-family="sans-serif" font-size="13" lengthAdjust="spacing" textLength="7" x="2301.3784" y="791.924">1</text></g><!--link InterviewModel to InterviewModelFileExtension--><g id="link_InterviewModel_InterviewModelFileExtension"><path codeLine="119" d="M2178,734.3511 C2178,783.5911 2178,883.6211 2178,883.6211 C2178,883.6211 2248.23,883.6211 2309.95,883.6211 " fill="none" id="InterviewModel-InterviewModelFileExtension" style="stroke:#181818;stroke-width:1.0;"/><polygon fill="#000000" points="2148.3115,888.3528,2144.5229,879.6294,2140.119,883.5223,2148.3115,888.3528" style="stroke:#000000;stroke-width:1.0;"/><text fill="#000000" font-family="sans-serif" font-size="13" lengthAdjust="spacing" textLength="23" x="2154" y="889.9894">with</text><text fill="#000000" font-family="sans-serif" font-size="13" lengthAdjust="spacing" textLength="7" x="2166.875" y="755.7187">1</text><text fill="#000000" font-family="sans-serif" font-size="13" lengthAdjust="spacing" textLength="7" x="2295.0787" y="898.3827">1</text></g><!--link InterviewModel to InterviewModelFQCLassName--><g id="link_InterviewModel_InterviewModelFQCLassName"><path codeLine="120" d="M2195,680.9811 C2195,657.7111 2195,627.6211 2195,627.6211 C2195,627.6211 2250.53,627.6211 2303.99,627.6211 " fill="none" id="InterviewModel-InterviewModelFQCLassName" style="stroke:#181818;stroke-width:1.0;"/><polygon fill="#000000" points="2194.3107,635.068,2184.8947,636.4057,2187.4793,641.6848,2194.3107,635.068" style="stroke:#000000;stroke-width:1.0;"/><text fill="#000000" font-family="sans-serif" font-size="13" lengthAdjust="spacing" textLength="23" x="2198.82" y="642.6494">with</text><text fill="#000000" font-family="sans-serif" font-size="13" lengthAdjust="spacing" textLength="7" x="2187.3063" y="669.9653">1</text><text fill="#000000" font-family="sans-serif" font-size="13" lengthAdjust="spacing" textLength="7" x="2288.9408" y="642.9925">1</text></g><!--SRC=[fLRTZviu47_tNs7jo_LEb-pshlU2efKGeIlkaf2IRAi-LGuun2tO24otQRN_-mqcW0aVQRQy9CpyvZSV7iRpsq7A93DkRvE8S9d7qTGNyQqVaIoR18o4AOaHohumdX3uYnFYVo4XtSXZH75AVKbu654Da1r889uO3_6UH9ckKPocb2dRvP8wlk0RzftYEmqICKxbCQ5OfF8W498YmLBWdP1In3XWXKCcE8heNXQAb8K7gSdHWGKKnnICWwnyyLdgGu18CWaHpqLC6CTB4T08J_2ZTVVtNmYTaiAROoPf_9ZHr0p3b8P4Klm3ONXKx9eUpsQU41BR77YFz_SQg51p4bE0l2THJh6x-mpXdJ2Kvp7sHDHLdpmLZpbVEglwpNhSRDsbxNrQcYlpmVPgXRksFNFhUXra8p1NSsTkRcqbUKRFY0l8gIoRsFSbR62HArtc2pY8Lqagla8T0xmxOjjSBnpyrZENzWVN- -ztXCgKhJo3yw7fad0eOrewKMS4F6TA0yF1-pIHEOdAYZNrhw3zrQ-q8xMl81QSRxV-pvedmWCMW8S1LvMwuqlZ-5Vit8HoQFL-aaO_4Z60FBgdAOMQZ7JC-a2oyPPPmz5OvjPncyRPM9vjhvpLGornLblRU-_O7pQDuSfSVDmuZS2pDu-BxQbXca1L17Cg2Oko_a1Bt1pAu719qwzmliC9RIIHUJQMqTg6tct5_cdjkGyGNXEhvIxN2tjhpxLmg-CfWs3qINtiwvEquI_3RQFw0nv2psd6GawAoNEreP-ov7h3jooYzZT9UNQzwJjh0TBLu6JgJeV1R0sifpu-8YvGLdLGb7LHNaxPgf21smNx1TgcUa3wpeggKbwOZzgiC9CaOhugsU2yq33ZCqC3NXWVdS_XufVmqtqrBmVapu676w-F-GKVo4DAWkjRkppHNsxd5tOoqZQAczStU39HFzKAqQV-uqQj3sU1L1O6Xkr67cXnoKhwJUb4dcAI97zYbYcL3IjGP0P1Ig5ye2zaETYtefbDmDdPrOsDWeBWsI1m157Vg3K4eNF-CiVoKPbglB72PFWUp6ekpK3XppuXeyWxOc05k-BzaB_AihgiOKD9AR0hNvhyeZDmCXimA4pkfbCGd5qu1ePx5HnrpDHFQpk0mWKKfi6UbTtKQ_HcEltdvhGkLDoeVDLuMvUvWP-OF02k9TNGfxkweXk2jMx-slTPbTh9zOwntZox73qbRRms8irXUt31eii1EevKKwiRq0LwxVklYpjkKWwl6epEkgJFfBE2Z8HvcMKau0l6xIlsUdDjBwcD_mS0]--></g></svg>