<?xml version="1.0" encoding="us-ascii" standalone="no"?><svg xmlns="http://www.w3.org/2000/svg" xmlns:xlink="http://www.w3.org/1999/xlink" contentStyleType="text/css" height="1054px" preserveAspectRatio="none" style="width:355px;height:1054px;background:#FFFFFF;" version="1.1" viewBox="0 0 355 1054" width="355px" zoomAndPan="magnify"><defs/><g><ellipse cx="177.5" cy="20" fill="#222222" rx="10" ry="10" style="stroke:#222222;stroke-width:1.0;"/><rect fill="#F1F1F1" height="35.9609" rx="12.5" ry="12.5" style="stroke:#181818;stroke-width:0.5;" width="108" x="123.5" y="50"/><text fill="#000000" font-family="sans-serif" font-size="12" lengthAdjust="spacing" textLength="88" x="133.5" y="72.9492">Start Application</text><rect fill="#F1F1F1" height="35.9609" rx="12.5" ry="12.5" style="stroke:#181818;stroke-width:0.5;" width="154" x="100.5" y="105.9609"/><text fill="#000000" font-family="sans-serif" font-size="12" lengthAdjust="spacing" textLength="134" x="110.5" y="128.9102">Initialize UI Components</text><rect fill="#F1F1F1" height="35.9609" rx="12.5" ry="12.5" style="stroke:#181818;stroke-width:0.5;" width="172" x="91.5" y="161.9219"/><text fill="#000000" font-family="sans-serif" font-size="12" lengthAdjust="spacing" textLength="152" x="101.5" y="184.8711">User Requests Word Count</text><rect fill="#555555" height="6" rx="2.5" ry="2.5" style="stroke:#555555;stroke-width:1.0;" width="333" x="11" y="217.8828"/><rect fill="#F1F1F1" height="35.9609" rx="12.5" ry="12.5" style="stroke:#181818;stroke-width:0.5;" width="155" x="100" y="243.8828"/><text fill="#000000" font-family="sans-serif" font-size="12" lengthAdjust="spacing" textLength="135" x="110" y="266.832">CountTopWordsUI Layer</text><rect fill="#F1F1F1" height="35.9609" rx="12.5" ry="12.5" style="stroke:#181818;stroke-width:0.5;" width="202" x="76.5" y="299.8438"/><text fill="#000000" font-family="sans-serif" font-size="12" lengthAdjust="spacing" textLength="182" x="86.5" y="322.793">Invoke CountTopWordsController</text><rect fill="#555555" height="6" rx="2.5" ry="2.5" style="stroke:#555555;stroke-width:1.0;" width="309" x="23" y="355.8047"/><rect fill="#F1F1F1" height="35.9609" rx="12.5" ry="12.5" style="stroke:#181818;stroke-width:0.5;" width="197" x="79" y="381.8047"/><text fill="#000000" font-family="sans-serif" font-size="12" lengthAdjust="spacing" textLength="177" x="89" y="404.7539">CountTopWordsController Layer</text><rect fill="#F1F1F1" height="35.9609" rx="12.5" ry="12.5" style="stroke:#181818;stroke-width:0.5;" width="147" x="104" y="437.7656"/><text fill="#000000" font-family="sans-serif" font-size="12" lengthAdjust="spacing" textLength="127" x="114" y="460.7148">Fetch Word Count Data</text><rect fill="#F1F1F1" height="35.9609" rx="12.5" ry="12.5" style="stroke:#181818;stroke-width:0.5;" width="229" x="63" y="493.7266"/><text fill="#000000" font-family="sans-serif" font-size="12" lengthAdjust="spacing" textLength="209" x="73" y="516.6758">Use Word Aggregator to Process Data</text><rect fill="#555555" height="6" rx="2.5" ry="2.5" style="stroke:#555555;stroke-width:1.0;" width="285" x="35" y="549.6875"/><rect fill="#F1F1F1" height="35.9609" rx="12.5" ry="12.5" style="stroke:#181818;stroke-width:0.5;" width="97" x="129" y="575.6875"/><text fill="#000000" font-family="sans-serif" font-size="12" lengthAdjust="spacing" textLength="77" x="139" y="598.6367">Domain Layer</text><rect fill="#F1F1F1" height="35.9609" rx="12.5" ry="12.5" style="stroke:#181818;stroke-width:0.5;" width="181" x="87" y="675.6484"/><text fill="#000000" font-family="sans-serif" font-size="12" lengthAdjust="spacing" textLength="161" x="97" y="698.5977">WordCounter Processes Text</text><polygon fill="#F1F1F1" points="177.5,631.6484,189.5,643.6484,177.5,655.6484,165.5,643.6484,177.5,631.6484" style="stroke:#181818;stroke-width:0.5;"/><polygon fill="#F1F1F1" points="110.5,731.6094,244.5,731.6094,256.5,743.6094,244.5,755.6094,110.5,755.6094,98.5,743.6094,110.5,731.6094" style="stroke:#181818;stroke-width:0.5;"/><text fill="#000000" font-family="sans-serif" font-size="11" lengthAdjust="spacing" textLength="134" x="110.5" y="748.1641">there are files for thread N?</text><rect fill="#F1F1F1" height="35.9609" rx="12.5" ry="12.5" style="stroke:#181818;stroke-width:0.5;" width="261" x="47" y="775.6094"/><text fill="#000000" font-family="sans-serif" font-size="12" lengthAdjust="spacing" textLength="241" x="57" y="798.5586">TopWords &amp; TopWordsFile Manage Results</text><rect fill="#555555" height="6" rx="2.5" ry="2.5" style="stroke:#555555;stroke-width:1.0;" width="285" x="35" y="831.5703"/><rect fill="#555555" height="6" rx="2.5" ry="2.5" style="stroke:#555555;stroke-width:1.0;" width="309" x="23" y="857.5703"/><rect fill="#555555" height="6" rx="2.5" ry="2.5" style="stroke:#555555;stroke-width:1.0;" width="333" x="11" y="883.5703"/><rect fill="#F1F1F1" height="35.9609" rx="12.5" ry="12.5" style="stroke:#181818;stroke-width:0.5;" width="139" x="108" y="909.5703"/><text fill="#000000" font-family="sans-serif" font-size="12" lengthAdjust="spacing" textLength="119" x="118" y="932.5195">Display Results on UI</text><rect fill="#F1F1F1" height="35.9609" rx="12.5" ry="12.5" style="stroke:#181818;stroke-width:0.5;" width="139" x="108" y="965.5313"/><text fill="#000000" font-family="sans-serif" font-size="12" lengthAdjust="spacing" textLength="119" x="118" y="988.4805">User Interaction Ends</text><ellipse cx="177.5" cy="1032.4922" fill="none" rx="11" ry="11" style="stroke:#222222;stroke-width:1.0;"/><ellipse cx="177.5" cy="1032.4922" fill="#222222" rx="6" ry="6" style="stroke:#222222;stroke-width:1.0;"/><line style="stroke:#181818;stroke-width:1.0;" x1="177.5" x2="177.5" y1="30" y2="50"/><polygon fill="#181818" points="173.5,40,177.5,50,181.5,40,177.5,44" style="stroke:#181818;stroke-width:1.0;"/><line style="stroke:#181818;stroke-width:1.0;" x1="177.5" x2="177.5" y1="85.9609" y2="105.9609"/><polygon fill="#181818" points="173.5,95.9609,177.5,105.9609,181.5,95.9609,177.5,99.9609" style="stroke:#181818;stroke-width:1.0;"/><line style="stroke:#181818;stroke-width:1.0;" x1="177.5" x2="177.5" y1="141.9219" y2="161.9219"/><polygon fill="#181818" points="173.5,151.9219,177.5,161.9219,181.5,151.9219,177.5,155.9219" style="stroke:#181818;stroke-width:1.0;"/><line style="stroke:#181818;stroke-width:1.0;" x1="177.5" x2="177.5" y1="279.8438" y2="299.8438"/><polygon fill="#181818" points="173.5,289.8438,177.5,299.8438,181.5,289.8438,177.5,293.8438" style="stroke:#181818;stroke-width:1.0;"/><line style="stroke:#181818;stroke-width:1.0;" x1="177.5" x2="177.5" y1="417.7656" y2="437.7656"/><polygon fill="#181818" points="173.5,427.7656,177.5,437.7656,181.5,427.7656,177.5,431.7656" style="stroke:#181818;stroke-width:1.0;"/><line style="stroke:#181818;stroke-width:1.0;" x1="177.5" x2="177.5" y1="473.7266" y2="493.7266"/><polygon fill="#181818" points="173.5,483.7266,177.5,493.7266,181.5,483.7266,177.5,487.7266" style="stroke:#181818;stroke-width:1.0;"/><line style="stroke:#181818;stroke-width:1.0;" x1="177.5" x2="177.5" y1="655.6484" y2="675.6484"/><polygon fill="#181818" points="173.5,665.6484,177.5,675.6484,181.5,665.6484,177.5,669.6484" style="stroke:#181818;stroke-width:1.0;"/><line style="stroke:#181818;stroke-width:1.0;" x1="256.5" x2="280" y1="743.6094" y2="743.6094"/><polygon fill="#181818" points="276,703.6289,280,693.6289,284,703.6289,280,699.6289" style="stroke:#181818;stroke-width:1.0;"/><line style="stroke:#181818;stroke-width:1.0;" x1="280" x2="280" y1="643.6484" y2="743.6094"/><line style="stroke:#181818;stroke-width:1.0;" x1="280" x2="189.5" y1="643.6484" y2="643.6484"/><polygon fill="#181818" points="199.5,639.6484,189.5,643.6484,199.5,647.6484,195.5,643.6484" style="stroke:#181818;stroke-width:1.0;"/><line style="stroke:#181818;stroke-width:1.0;" x1="177.5" x2="177.5" y1="711.6094" y2="731.6094"/><polygon fill="#181818" points="173.5,721.6094,177.5,731.6094,181.5,721.6094,177.5,725.6094" style="stroke:#181818;stroke-width:1.0;"/><line style="stroke:#181818;stroke-width:1.0;" x1="177.5" x2="177.5" y1="611.6484" y2="631.6484"/><polygon fill="#181818" points="173.5,621.6484,177.5,631.6484,181.5,621.6484,177.5,625.6484" style="stroke:#181818;stroke-width:1.0;"/><line style="stroke:#181818;stroke-width:1.0;" x1="177.5" x2="177.5" y1="755.6094" y2="775.6094"/><polygon fill="#181818" points="173.5,765.6094,177.5,775.6094,181.5,765.6094,177.5,769.6094" style="stroke:#181818;stroke-width:1.0;"/><line style="stroke:#181818;stroke-width:1.0;" x1="177.5" x2="177.5" y1="555.6875" y2="575.6875"/><polygon fill="#181818" points="173.5,565.6875,177.5,575.6875,181.5,565.6875,177.5,569.6875" style="stroke:#181818;stroke-width:1.0;"/><line style="stroke:#181818;stroke-width:1.0;" x1="177.5" x2="177.5" y1="811.5703" y2="831.5703"/><polygon fill="#181818" points="173.5,821.5703,177.5,831.5703,181.5,821.5703,177.5,825.5703" style="stroke:#181818;stroke-width:1.0;"/><line style="stroke:#181818;stroke-width:1.0;" x1="177.5" x2="177.5" y1="529.6875" y2="549.6875"/><polygon fill="#181818" points="173.5,539.6875,177.5,549.6875,181.5,539.6875,177.5,543.6875" style="stroke:#181818;stroke-width:1.0;"/><line style="stroke:#181818;stroke-width:1.0;" x1="177.5" x2="177.5" y1="361.8047" y2="381.8047"/><polygon fill="#181818" points="173.5,371.8047,177.5,381.8047,181.5,371.8047,177.5,375.8047" style="stroke:#181818;stroke-width:1.0;"/><line style="stroke:#181818;stroke-width:1.0;" x1="177.5" x2="177.5" y1="837.5703" y2="857.5703"/><polygon fill="#181818" points="173.5,847.5703,177.5,857.5703,181.5,847.5703,177.5,851.5703" style="stroke:#181818;stroke-width:1.0;"/><line style="stroke:#181818;stroke-width:1.0;" x1="177.5" x2="177.5" y1="335.8047" y2="355.8047"/><polygon fill="#181818" points="173.5,345.8047,177.5,355.8047,181.5,345.8047,177.5,349.8047" style="stroke:#181818;stroke-width:1.0;"/><line style="stroke:#181818;stroke-width:1.0;" x1="177.5" x2="177.5" y1="223.8828" y2="243.8828"/><polygon fill="#181818" points="173.5,233.8828,177.5,243.8828,181.5,233.8828,177.5,237.8828" style="stroke:#181818;stroke-width:1.0;"/><line style="stroke:#181818;stroke-width:1.0;" x1="177.5" x2="177.5" y1="863.5703" y2="883.5703"/><polygon fill="#181818" points="173.5,873.5703,177.5,883.5703,181.5,873.5703,177.5,877.5703" style="stroke:#181818;stroke-width:1.0;"/><line style="stroke:#181818;stroke-width:1.0;" x1="177.5" x2="177.5" y1="197.8828" y2="217.8828"/><polygon fill="#181818" points="173.5,207.8828,177.5,217.8828,181.5,207.8828,177.5,211.8828" style="stroke:#181818;stroke-width:1.0;"/><line style="stroke:#181818;stroke-width:1.0;" x1="177.5" x2="177.5" y1="889.5703" y2="909.5703"/><polygon fill="#181818" points="173.5,899.5703,177.5,909.5703,181.5,899.5703,177.5,903.5703" style="stroke:#181818;stroke-width:1.0;"/><line style="stroke:#181818;stroke-width:1.0;" x1="177.5" x2="177.5" y1="945.5313" y2="965.5313"/><polygon fill="#181818" points="173.5,955.5313,177.5,965.5313,181.5,955.5313,177.5,959.5313" style="stroke:#181818;stroke-width:1.0;"/><line style="stroke:#181818;stroke-width:1.0;" x1="177.5" x2="177.5" y1="1001.4922" y2="1021.4922"/><polygon fill="#181818" points="173.5,1011.4922,177.5,1021.4922,181.5,1011.4922,177.5,1015.4922" style="stroke:#181818;stroke-width:1.0;"/><!--SRC=[RLBDJiCm3BxdANn2y0hj0KqRaoenX60JPwlrscXP768F64zFKjQj7KIgwlJxyPSweXZL5A_v1RCGdArHBVlIcABoLYqw-qsmgM3E-y2Ul4ffYerGX1TwFv2em1l79k47hqcsvRWh3QHLz9_M738koU8HZnHFMEK_U4SmeSpPQsJd1bAswek_RXVgsBNdBKdhRfG95gWumbFsNtJMjf5QL8wW3C-HQnAvOayYzF85xz7wwwvvHGg4EcNdHdsA5FJKWGJMzAN_QU6piuxWLZkA19YURTfBJW7QHS86dkxlfXs6Fm8tC9JBRB92Zosb8Sd1vPaD0lBDvLJdpRamnS9AS7WSbC0-ZN-OUPLFWdM-8l3Wc-HhH3cO7m00]--></g></svg>