<?xml version="1.0" encoding="us-ascii" standalone="no"?><svg xmlns="http://www.w3.org/2000/svg" xmlns:xlink="http://www.w3.org/1999/xlink" contentStyleType="text/css" height="726px" preserveAspectRatio="none" style="width:573px;height:726px;background:#FFFFFF;" version="1.1" viewBox="0 0 573 726" width="573px" zoomAndPan="magnify"><defs/><g><text fill="#000000" font-family="sans-serif" font-size="14" font-weight="bold" lengthAdjust="spacing" textLength="243" x="172.25" y="30.1074">System Sequence Diagram - UC008</text><rect fill="#FFFFFF" height="500.4141" style="stroke:#181818;stroke-width:1.0;" width="10" x="56.5" y="133.2422"/><rect fill="#FFFFFF" height="31.291" style="stroke:#181818;stroke-width:1.0;" width="10" x="403.5" y="156.5332"/><rect fill="#FFFFFF" height="31.291" style="stroke:#181818;stroke-width:1.0;" width="10" x="403.5" y="219.1152"/><rect fill="#FFFFFF" height="31.291" style="stroke:#181818;stroke-width:1.0;" width="10" x="403.5" y="281.6973"/><rect fill="#FFFFFF" height="274.377" style="stroke:#181818;stroke-width:1.0;" width="10" x="403.5" y="344.2793"/><rect fill="#FFFFFF" height="51.291" style="stroke:#181818;stroke-width:1.0;" width="10" x="408.5" y="383.5703"/><rect fill="#FFFFFF" height="25" style="stroke:#181818;stroke-width:1.0;" width="10" x="408.5" y="481.1523"/><rect fill="none" height="98.5039" style="stroke:#000000;stroke-width:1.5;" width="430.5" x="20" y="528.1523"/><line style="stroke:#181818;stroke-width:0.5;stroke-dasharray:5.0,5.0;" x1="61" x2="61" y1="123.2422" y2="643.6563"/><line style="stroke:#181818;stroke-width:0.5;stroke-dasharray:5.0,5.0;" x1="408.5" x2="408.5" y1="123.2422" y2="643.6563"/><text fill="#000000" font-family="sans-serif" font-size="14" lengthAdjust="spacing" textLength="57" x="30" y="119.7285">Operator</text><ellipse cx="61.5" cy="53.1211" fill="#E2E2F0" rx="8" ry="8" style="stroke:#181818;stroke-width:0.5;"/><path d="M61.5,61.1211 L61.5,88.1211 M48.5,69.1211 L74.5,69.1211 M61.5,88.1211 L48.5,103.1211 M61.5,88.1211 L74.5,103.1211 " fill="none" style="stroke:#181818;stroke-width:0.5;"/><text fill="#000000" font-family="sans-serif" font-size="14" lengthAdjust="spacing" textLength="57" x="30" y="657.7637">Operator</text><ellipse cx="61.5" cy="669.7773" fill="#E2E2F0" rx="8" ry="8" style="stroke:#181818;stroke-width:0.5;"/><path d="M61.5,677.7773 L61.5,704.7773 M48.5,685.7773 L74.5,685.7773 M61.5,704.7773 L48.5,719.7773 M61.5,704.7773 L74.5,719.7773 " fill="none" style="stroke:#181818;stroke-width:0.5;"/><rect fill="#E2E2F0" height="32.6211" rx="2.5" ry="2.5" style="stroke:#181818;stroke-width:0.5;" width="64" x="376.5" y="89.6211"/><text fill="#000000" font-family="sans-serif" font-size="14" lengthAdjust="spacing" textLength="50" x="383.5" y="111.7285">:System</text><rect fill="#E2E2F0" height="32.6211" rx="2.5" ry="2.5" style="stroke:#181818;stroke-width:0.5;" width="64" x="376.5" y="642.6563"/><text fill="#000000" font-family="sans-serif" font-size="14" lengthAdjust="spacing" textLength="50" x="383.5" y="664.7637">:System</text><rect fill="#FFFFFF" height="500.4141" style="stroke:#181818;stroke-width:1.0;" width="10" x="56.5" y="133.2422"/><rect fill="#FFFFFF" height="31.291" style="stroke:#181818;stroke-width:1.0;" width="10" x="403.5" y="156.5332"/><rect fill="#FFFFFF" height="31.291" style="stroke:#181818;stroke-width:1.0;" width="10" x="403.5" y="219.1152"/><rect fill="#FFFFFF" height="31.291" style="stroke:#181818;stroke-width:1.0;" width="10" x="403.5" y="281.6973"/><rect fill="#FFFFFF" height="274.377" style="stroke:#181818;stroke-width:1.0;" width="10" x="403.5" y="344.2793"/><rect fill="#FFFFFF" height="51.291" style="stroke:#181818;stroke-width:1.0;" width="10" x="408.5" y="383.5703"/><rect fill="#FFFFFF" height="25" style="stroke:#181818;stroke-width:1.0;" width="10" x="408.5" y="481.1523"/><polygon fill="#181818" points="391.5,152.5332,401.5,156.5332,391.5,160.5332,395.5,156.5332" style="stroke:#181818;stroke-width:1.0;"/><line style="stroke:#181818;stroke-width:1.0;" x1="66.5" x2="397.5" y1="156.5332" y2="156.5332"/><text fill="#000000" font-family="sans-serif" font-size="13" lengthAdjust="spacing" textLength="119" x="73.5" y="151.2705">Register a candidate</text><polygon fill="#181818" points="77.5,183.8242,67.5,187.8242,77.5,191.8242,73.5,187.8242" style="stroke:#181818;stroke-width:1.0;"/><line style="stroke:#181818;stroke-width:1.0;stroke-dasharray:2.0,2.0;" x1="71.5" x2="407.5" y1="187.8242" y2="187.8242"/><text fill="#000000" font-family="sans-serif" font-size="13" lengthAdjust="spacing" textLength="159" x="83.5" y="182.5615">Asks for first and last name</text><polygon fill="#181818" points="391.5,215.1152,401.5,219.1152,391.5,223.1152,395.5,219.1152" style="stroke:#181818;stroke-width:1.0;"/><line style="stroke:#181818;stroke-width:1.0;" x1="66.5" x2="397.5" y1="219.1152" y2="219.1152"/><text fill="#000000" font-family="sans-serif" font-size="13" lengthAdjust="spacing" textLength="71" x="73.5" y="213.8525">Inputs name</text><polygon fill="#181818" points="77.5,246.4063,67.5,250.4063,77.5,254.4063,73.5,250.4063" style="stroke:#181818;stroke-width:1.0;"/><line style="stroke:#181818;stroke-width:1.0;stroke-dasharray:2.0,2.0;" x1="71.5" x2="407.5" y1="250.4063" y2="250.4063"/><text fill="#000000" font-family="sans-serif" font-size="13" lengthAdjust="spacing" textLength="83" x="83.5" y="245.1436">Asks for email</text><polygon fill="#181818" points="391.5,277.6973,401.5,281.6973,391.5,285.6973,395.5,281.6973" style="stroke:#181818;stroke-width:1.0;"/><line style="stroke:#181818;stroke-width:1.0;" x1="66.5" x2="397.5" y1="281.6973" y2="281.6973"/><text fill="#000000" font-family="sans-serif" font-size="13" lengthAdjust="spacing" textLength="70" x="73.5" y="276.4346">Inputs email</text><polygon fill="#181818" points="77.5,308.9883,67.5,312.9883,77.5,316.9883,73.5,312.9883" style="stroke:#181818;stroke-width:1.0;"/><line style="stroke:#181818;stroke-width:1.0;stroke-dasharray:2.0,2.0;" x1="71.5" x2="407.5" y1="312.9883" y2="312.9883"/><text fill="#000000" font-family="sans-serif" font-size="13" lengthAdjust="spacing" textLength="134" x="83.5" y="307.7256">Asks for phone number</text><polygon fill="#181818" points="391.5,340.2793,401.5,344.2793,391.5,348.2793,395.5,344.2793" style="stroke:#181818;stroke-width:1.0;"/><line style="stroke:#181818;stroke-width:1.0;" x1="66.5" x2="397.5" y1="344.2793" y2="344.2793"/><text fill="#000000" font-family="sans-serif" font-size="13" lengthAdjust="spacing" textLength="121" x="73.5" y="339.0166">Inputs phone number</text><line style="stroke:#181818;stroke-width:1.0;" x1="413.5" x2="460.5" y1="370.5703" y2="370.5703"/><line style="stroke:#181818;stroke-width:1.0;" x1="460.5" x2="460.5" y1="370.5703" y2="383.5703"/><line style="stroke:#181818;stroke-width:1.0;" x1="419.5" x2="460.5" y1="383.5703" y2="383.5703"/><polygon fill="#181818" points="429.5,379.5703,419.5,383.5703,429.5,387.5703,425.5,383.5703" style="stroke:#181818;stroke-width:1.0;"/><text fill="#000000" font-family="sans-serif" font-size="13" lengthAdjust="spacing" textLength="83" x="425.5" y="365.3076">Validates data</text><line style="stroke:#181818;stroke-width:1.0;stroke-dasharray:2.0,2.0;" x1="418.5" x2="460.5" y1="433.8613" y2="433.8613"/><line style="stroke:#181818;stroke-width:1.0;stroke-dasharray:2.0,2.0;" x1="460.5" x2="460.5" y1="433.8613" y2="446.8613"/><line style="stroke:#181818;stroke-width:1.0;stroke-dasharray:2.0,2.0;" x1="413.5" x2="460.5" y1="446.8613" y2="446.8613"/><polygon fill="#181818" points="423.5,442.8613,413.5,446.8613,423.5,450.8613,419.5,446.8613" style="stroke:#181818;stroke-width:1.0;"/><line style="stroke:#181818;stroke-width:1.0;" x1="413.5" x2="460.5" y1="468.1523" y2="468.1523"/><line style="stroke:#181818;stroke-width:1.0;" x1="460.5" x2="460.5" y1="468.1523" y2="481.1523"/><line style="stroke:#181818;stroke-width:1.0;" x1="419.5" x2="460.5" y1="481.1523" y2="481.1523"/><polygon fill="#181818" points="429.5,477.1523,419.5,481.1523,429.5,485.1523,425.5,481.1523" style="stroke:#181818;stroke-width:1.0;"/><text fill="#000000" font-family="sans-serif" font-size="13" lengthAdjust="spacing" textLength="141" x="425.5" y="462.8896">Generate user password</text><line style="stroke:#181818;stroke-width:1.0;stroke-dasharray:2.0,2.0;" x1="418.5" x2="460.5" y1="505.1523" y2="505.1523"/><line style="stroke:#181818;stroke-width:1.0;stroke-dasharray:2.0,2.0;" x1="460.5" x2="460.5" y1="505.1523" y2="518.1523"/><line style="stroke:#181818;stroke-width:1.0;stroke-dasharray:2.0,2.0;" x1="413.5" x2="460.5" y1="518.1523" y2="518.1523"/><polygon fill="#181818" points="423.5,514.1523,413.5,518.1523,423.5,522.1523,419.5,518.1523" style="stroke:#181818;stroke-width:1.0;"/><path d="M20,528.1523 L81,528.1523 L81,537.4434 L71,547.4434 L20,547.4434 L20,528.1523 " fill="#EEEEEE" style="stroke:#000000;stroke-width:1.5;"/><rect fill="none" height="98.5039" style="stroke:#000000;stroke-width:1.5;" width="430.5" x="20" y="528.1523"/><text fill="#000000" font-family="sans-serif" font-size="13" font-weight="bold" lengthAdjust="spacing" textLength="16" x="35" y="543.1807">alt</text><text fill="#000000" font-family="sans-serif" font-size="11" font-weight="bold" lengthAdjust="spacing" textLength="55" x="96" y="542.0225">[Success]</text><polygon fill="#181818" points="77.5,566.7344,67.5,570.7344,77.5,574.7344,73.5,570.7344" style="stroke:#181818;stroke-width:1.0;"/><line style="stroke:#181818;stroke-width:1.0;stroke-dasharray:2.0,2.0;" x1="71.5" x2="402.5" y1="570.7344" y2="570.7344"/><text fill="#000000" font-family="sans-serif" font-size="13" lengthAdjust="spacing" textLength="313" x="83.5" y="565.4717">Informs the candidate was registered and user created</text><line style="stroke:#000000;stroke-width:1.0;stroke-dasharray:2.0,2.0;" x1="20" x2="450.5" y1="579.7344" y2="579.7344"/><text fill="#000000" font-family="sans-serif" font-size="11" font-weight="bold" lengthAdjust="spacing" textLength="36" x="25" y="591.6045">[Error]</text><polygon fill="#181818" points="77.5,614.6563,67.5,618.6563,77.5,622.6563,73.5,618.6563" style="stroke:#181818;stroke-width:1.0;"/><line style="stroke:#181818;stroke-width:1.0;stroke-dasharray:2.0,2.0;" x1="71.5" x2="407.5" y1="618.6563" y2="618.6563"/><text fill="#000000" font-family="sans-serif" font-size="13" lengthAdjust="spacing" textLength="126" x="83.5" y="613.3936">Informs error occurred</text><!--SRC=[hLDBQuH03BxxAyBUXJqM3uNIbhAdmafxJyVixb0TfydOfV- -yIsi5P5wa8yntoCc4sp82T8V2LH0IbyLEKFmPF7CM40CRu_x_Ls49fGChvuOQu0ouCWZ1skiHnTWbxH2kxgYXL7DjTyOQAH4eCyW5j_tzWaSwMmLgWCOT9dDbDTK3oAzQdtOqM9L6DGIU91FWPF2asK9e3AGemA7HQkLqQpQRA23yrMGaNl3N9M42hJvLk-HlEKd-4lf25nLV11lJN2ZiHXamd_7l1cXWBwnfUO1f3A6H5Rrr1ql99_nVI5NTqDGYUwIHv5hoTa_-VLTf9Ck_Xx4mUaK2e5meN6buQhtWxjTfwpPqIQgOTBFsQ19kH0yCvUyqeRgMYYDgPWdEWkja7fhEr4qgHblwYy0]--></g></svg>