<?xml version="1.0" encoding="us-ascii" standalone="no"?><svg xmlns="http://www.w3.org/2000/svg" xmlns:xlink="http://www.w3.org/1999/xlink" contentStyleType="text/css" height="889px" preserveAspectRatio="none" style="width:1117px;height:889px;background:#FFFFFF;" version="1.1" viewBox="0 0 1117 889" width="1117px" zoomAndPan="magnify"><defs/><g><text fill="#000000" font-family="sans-serif" font-size="14" font-weight="bold" lengthAdjust="spacing" textLength="190" x="456.76" y="25.1074">Class Diagram (CD) - UC029</text><!--class VerifyJobOpeningsRequirementsUI--><g id="elem_VerifyJobOpeningsRequirementsUI"><rect codeLine="8" fill="#F1F1F1" height="60.582" id="VerifyJobOpeningsRequirementsUI" rx="2.5" ry="2.5" style="stroke:#181818;stroke-width:0.5;" width="251" x="411.52" y="46.6211"/><ellipse cx="426.52" cy="68.9121" fill="#ADD1B2" rx="11" ry="11" style="stroke:#181818;stroke-width:1.0;"/><path d="M429.2856,64.7871 Q429.4419,64.5684 429.6294,64.459 Q429.8169,64.3496 430.0356,64.3496 Q430.4106,64.3496 430.645,64.6152 Q430.8794,64.8652 430.8794,65.4746 L430.8794,66.9277 Q430.8794,67.5371 430.645,67.8027 Q430.4106,68.0684 430.0356,68.0684 Q429.6919,68.0684 429.4888,67.8652 Q429.2856,67.6777 429.1763,67.1621 Q429.1294,66.8027 428.9419,66.6152 Q428.6138,66.2402 428.0044,66.0215 Q427.395,65.8027 426.77,65.8027 Q426.0044,65.8027 425.3638,66.1309 Q424.7388,66.459 424.2388,67.209 Q423.7544,67.959 423.7544,68.9902 L423.7544,70.084 Q423.7544,71.3184 424.645,72.1465 Q425.5356,72.959 427.1294,72.959 Q428.0669,72.959 428.7231,72.709 Q429.1138,72.5527 429.5356,72.1152 Q429.8013,71.8496 429.9419,71.7715 Q430.0981,71.6934 430.3013,71.6934 Q430.6294,71.6934 430.8794,71.959 Q431.145,72.209 431.145,72.5527 Q431.145,72.8965 430.8013,73.3027 Q430.3013,73.8809 429.5044,74.209 Q428.4263,74.6621 427.1294,74.6621 Q425.6138,74.6621 424.4106,74.0371 Q423.4263,73.5371 422.7388,72.4746 Q422.0513,71.3965 422.0513,70.1152 L422.0513,68.959 Q422.0513,67.6309 422.6606,66.4902 Q423.2856,65.334 424.3794,64.7246 Q425.4731,64.0996 426.7075,64.0996 Q427.4419,64.0996 428.0825,64.2715 Q428.7388,64.4277 429.2856,64.7871 Z " fill="#000000"/><text fill="#000000" font-family="sans-serif" font-size="12" font-style="italic" lengthAdjust="spacing" textLength="61" x="519.52" y="64.5703">&#171;interface&#187;</text><text fill="#000000" font-family="sans-serif" font-size="14" lengthAdjust="spacing" textLength="219" x="440.52" y="82.6895">VerifyJobOpeningsRequirementsUI</text><line style="stroke:#181818;stroke-width:0.5;" x1="412.52" x2="661.52" y1="91.2031" y2="91.2031"/><line style="stroke:#181818;stroke-width:0.5;" x1="412.52" x2="661.52" y1="99.2031" y2="99.2031"/></g><!--class VerifyJobOpeningsRequirementsController--><g id="elem_VerifyJobOpeningsRequirementsController"><rect codeLine="10" fill="#F1F1F1" height="60.582" id="VerifyJobOpeningsRequirementsController" rx="2.5" ry="2.5" style="stroke:#181818;stroke-width:0.5;" width="301" x="386.52" y="168.6211"/><ellipse cx="401.52" cy="190.9121" fill="#ADD1B2" rx="11" ry="11" style="stroke:#181818;stroke-width:1.0;"/><path d="M404.2856,186.7871 Q404.4419,186.5684 404.6294,186.459 Q404.8169,186.3496 405.0356,186.3496 Q405.4106,186.3496 405.645,186.6152 Q405.8794,186.8652 405.8794,187.4746 L405.8794,188.9277 Q405.8794,189.5371 405.645,189.8027 Q405.4106,190.0684 405.0356,190.0684 Q404.6919,190.0684 404.4888,189.8652 Q404.2856,189.6777 404.1763,189.1621 Q404.1294,188.8027 403.9419,188.6152 Q403.6138,188.2402 403.0044,188.0215 Q402.395,187.8027 401.77,187.8027 Q401.0044,187.8027 400.3638,188.1309 Q399.7388,188.459 399.2388,189.209 Q398.7544,189.959 398.7544,190.9902 L398.7544,192.084 Q398.7544,193.3184 399.645,194.1465 Q400.5356,194.959 402.1294,194.959 Q403.0669,194.959 403.7231,194.709 Q404.1138,194.5527 404.5356,194.1152 Q404.8013,193.8496 404.9419,193.7715 Q405.0981,193.6934 405.3013,193.6934 Q405.6294,193.6934 405.8794,193.959 Q406.145,194.209 406.145,194.5527 Q406.145,194.8965 405.8013,195.3027 Q405.3013,195.8809 404.5044,196.209 Q403.4263,196.6621 402.1294,196.6621 Q400.6138,196.6621 399.4106,196.0371 Q398.4263,195.5371 397.7388,194.4746 Q397.0513,193.3965 397.0513,192.1152 L397.0513,190.959 Q397.0513,189.6309 397.6606,188.4902 Q398.2856,187.334 399.3794,186.7246 Q400.4731,186.0996 401.7075,186.0996 Q402.4419,186.0996 403.0825,186.2715 Q403.7388,186.4277 404.2856,186.7871 Z " fill="#000000"/><text fill="#000000" font-family="sans-serif" font-size="12" font-style="italic" lengthAdjust="spacing" textLength="65" x="517.52" y="186.5703">&#171;controller&#187;</text><text fill="#000000" font-family="sans-serif" font-size="14" lengthAdjust="spacing" textLength="269" x="415.52" y="204.6895">VerifyJobOpeningsRequirementsController</text><line style="stroke:#181818;stroke-width:0.5;" x1="387.52" x2="686.52" y1="213.2031" y2="213.2031"/><line style="stroke:#181818;stroke-width:0.5;" x1="387.52" x2="686.52" y1="221.2031" y2="221.2031"/></g><!--class JobOpeningManagementService--><g id="elem_JobOpeningManagementService"><rect codeLine="12" fill="#F1F1F1" height="60.582" id="JobOpeningManagementService" rx="2.5" ry="2.5" style="stroke:#181818;stroke-width:0.5;" width="237" x="138.52" y="308.6211"/><ellipse cx="153.52" cy="330.9121" fill="#ADD1B2" rx="11" ry="11" style="stroke:#181818;stroke-width:1.0;"/><path d="M156.2856,326.7871 Q156.4419,326.5684 156.6294,326.459 Q156.8169,326.3496 157.0356,326.3496 Q157.4106,326.3496 157.645,326.6152 Q157.8794,326.8652 157.8794,327.4746 L157.8794,328.9277 Q157.8794,329.5371 157.645,329.8027 Q157.4106,330.0684 157.0356,330.0684 Q156.6919,330.0684 156.4888,329.8652 Q156.2856,329.6777 156.1763,329.1621 Q156.1294,328.8027 155.9419,328.6152 Q155.6138,328.2402 155.0044,328.0215 Q154.395,327.8027 153.77,327.8027 Q153.0044,327.8027 152.3638,328.1309 Q151.7388,328.459 151.2388,329.209 Q150.7544,329.959 150.7544,330.9902 L150.7544,332.084 Q150.7544,333.3184 151.645,334.1465 Q152.5356,334.959 154.1294,334.959 Q155.0669,334.959 155.7231,334.709 Q156.1138,334.5527 156.5356,334.1152 Q156.8013,333.8496 156.9419,333.7715 Q157.0981,333.6934 157.3013,333.6934 Q157.6294,333.6934 157.8794,333.959 Q158.145,334.209 158.145,334.5527 Q158.145,334.8965 157.8013,335.3027 Q157.3013,335.8809 156.5044,336.209 Q155.4263,336.6621 154.1294,336.6621 Q152.6138,336.6621 151.4106,336.0371 Q150.4263,335.5371 149.7388,334.4746 Q149.0513,333.3965 149.0513,332.1152 L149.0513,330.959 Q149.0513,329.6309 149.6606,328.4902 Q150.2856,327.334 151.3794,326.7246 Q152.4731,326.0996 153.7075,326.0996 Q154.4419,326.0996 155.0825,326.2715 Q155.7388,326.4277 156.2856,326.7871 Z " fill="#000000"/><text fill="#000000" font-family="sans-serif" font-size="12" font-style="italic" lengthAdjust="spacing" textLength="53" x="243.52" y="326.5703">&#171;service&#187;</text><text fill="#000000" font-family="sans-serif" font-size="14" lengthAdjust="spacing" textLength="205" x="167.52" y="344.6895">JobOpeningManagementService</text><line style="stroke:#181818;stroke-width:0.5;" x1="139.52" x2="374.52" y1="353.2031" y2="353.2031"/><line style="stroke:#181818;stroke-width:0.5;" x1="139.52" x2="374.52" y1="361.2031" y2="361.2031"/></g><!--class JobApplicationManagementService--><g id="elem_JobApplicationManagementService"><rect codeLine="14" fill="#F1F1F1" height="60.582" id="JobApplicationManagementService" rx="2.5" ry="2.5" style="stroke:#181818;stroke-width:0.5;" width="252" x="411.02" y="308.6211"/><ellipse cx="426.02" cy="330.9121" fill="#ADD1B2" rx="11" ry="11" style="stroke:#181818;stroke-width:1.0;"/><path d="M428.7856,326.7871 Q428.9419,326.5684 429.1294,326.459 Q429.3169,326.3496 429.5356,326.3496 Q429.9106,326.3496 430.145,326.6152 Q430.3794,326.8652 430.3794,327.4746 L430.3794,328.9277 Q430.3794,329.5371 430.145,329.8027 Q429.9106,330.0684 429.5356,330.0684 Q429.1919,330.0684 428.9888,329.8652 Q428.7856,329.6777 428.6763,329.1621 Q428.6294,328.8027 428.4419,328.6152 Q428.1138,328.2402 427.5044,328.0215 Q426.895,327.8027 426.27,327.8027 Q425.5044,327.8027 424.8638,328.1309 Q424.2388,328.459 423.7388,329.209 Q423.2544,329.959 423.2544,330.9902 L423.2544,332.084 Q423.2544,333.3184 424.145,334.1465 Q425.0356,334.959 426.6294,334.959 Q427.5669,334.959 428.2231,334.709 Q428.6138,334.5527 429.0356,334.1152 Q429.3013,333.8496 429.4419,333.7715 Q429.5981,333.6934 429.8013,333.6934 Q430.1294,333.6934 430.3794,333.959 Q430.645,334.209 430.645,334.5527 Q430.645,334.8965 430.3013,335.3027 Q429.8013,335.8809 429.0044,336.209 Q427.9263,336.6621 426.6294,336.6621 Q425.1138,336.6621 423.9106,336.0371 Q422.9263,335.5371 422.2388,334.4746 Q421.5513,333.3965 421.5513,332.1152 L421.5513,330.959 Q421.5513,329.6309 422.1606,328.4902 Q422.7856,327.334 423.8794,326.7246 Q424.9731,326.0996 426.2075,326.0996 Q426.9419,326.0996 427.5825,326.2715 Q428.2388,326.4277 428.7856,326.7871 Z " fill="#000000"/><text fill="#000000" font-family="sans-serif" font-size="12" font-style="italic" lengthAdjust="spacing" textLength="53" x="523.52" y="326.5703">&#171;service&#187;</text><text fill="#000000" font-family="sans-serif" font-size="14" lengthAdjust="spacing" textLength="220" x="440.02" y="344.6895">JobApplicationManagementService</text><line style="stroke:#181818;stroke-width:0.5;" x1="412.02" x2="662.02" y1="353.2031" y2="353.2031"/><line style="stroke:#181818;stroke-width:0.5;" x1="412.02" x2="662.02" y1="361.2031" y2="361.2031"/></g><!--class JobRequirementsManagementService--><g id="elem_JobRequirementsManagementService"><rect codeLine="16" fill="#F1F1F1" height="60.582" id="JobRequirementsManagementService" rx="2.5" ry="2.5" style="stroke:#181818;stroke-width:0.5;" width="271" x="839.52" y="308.6211"/><ellipse cx="854.52" cy="330.9121" fill="#ADD1B2" rx="11" ry="11" style="stroke:#181818;stroke-width:1.0;"/><path d="M857.2856,326.7871 Q857.4419,326.5684 857.6294,326.459 Q857.8169,326.3496 858.0356,326.3496 Q858.4106,326.3496 858.645,326.6152 Q858.8794,326.8652 858.8794,327.4746 L858.8794,328.9277 Q858.8794,329.5371 858.645,329.8027 Q858.4106,330.0684 858.0356,330.0684 Q857.6919,330.0684 857.4888,329.8652 Q857.2856,329.6777 857.1763,329.1621 Q857.1294,328.8027 856.9419,328.6152 Q856.6138,328.2402 856.0044,328.0215 Q855.395,327.8027 854.77,327.8027 Q854.0044,327.8027 853.3638,328.1309 Q852.7388,328.459 852.2388,329.209 Q851.7544,329.959 851.7544,330.9902 L851.7544,332.084 Q851.7544,333.3184 852.645,334.1465 Q853.5356,334.959 855.1294,334.959 Q856.0669,334.959 856.7231,334.709 Q857.1138,334.5527 857.5356,334.1152 Q857.8013,333.8496 857.9419,333.7715 Q858.0981,333.6934 858.3013,333.6934 Q858.6294,333.6934 858.8794,333.959 Q859.145,334.209 859.145,334.5527 Q859.145,334.8965 858.8013,335.3027 Q858.3013,335.8809 857.5044,336.209 Q856.4263,336.6621 855.1294,336.6621 Q853.6138,336.6621 852.4106,336.0371 Q851.4263,335.5371 850.7388,334.4746 Q850.0513,333.3965 850.0513,332.1152 L850.0513,330.959 Q850.0513,329.6309 850.6606,328.4902 Q851.2856,327.334 852.3794,326.7246 Q853.4731,326.0996 854.7075,326.0996 Q855.4419,326.0996 856.0825,326.2715 Q856.7388,326.4277 857.2856,326.7871 Z " fill="#000000"/><text fill="#000000" font-family="sans-serif" font-size="12" font-style="italic" lengthAdjust="spacing" textLength="53" x="961.52" y="326.5703">&#171;service&#187;</text><text fill="#000000" font-family="sans-serif" font-size="14" lengthAdjust="spacing" textLength="239" x="868.52" y="344.6895">JobRequirementsManagementService</text><line style="stroke:#181818;stroke-width:0.5;" x1="840.52" x2="1109.52" y1="353.2031" y2="353.2031"/><line style="stroke:#181818;stroke-width:0.5;" x1="840.52" x2="1109.52" y1="361.2031" y2="361.2031"/></g><!--class JobOpeningRepository--><g id="elem_JobOpeningRepository"><rect codeLine="18" fill="#F1F1F1" height="60.582" id="JobOpeningRepository" rx="2.5" ry="2.5" style="stroke:#181818;stroke-width:0.5;" width="176" x="146.02" y="448.6211"/><ellipse cx="161.02" cy="470.9121" fill="#ADD1B2" rx="11" ry="11" style="stroke:#181818;stroke-width:1.0;"/><path d="M163.7856,466.7871 Q163.9419,466.5684 164.1294,466.459 Q164.3169,466.3496 164.5356,466.3496 Q164.9106,466.3496 165.145,466.6152 Q165.3794,466.8652 165.3794,467.4746 L165.3794,468.9277 Q165.3794,469.5371 165.145,469.8027 Q164.9106,470.0684 164.5356,470.0684 Q164.1919,470.0684 163.9888,469.8652 Q163.7856,469.6777 163.6763,469.1621 Q163.6294,468.8027 163.4419,468.6152 Q163.1138,468.2402 162.5044,468.0215 Q161.895,467.8027 161.27,467.8027 Q160.5044,467.8027 159.8638,468.1309 Q159.2388,468.459 158.7388,469.209 Q158.2544,469.959 158.2544,470.9902 L158.2544,472.084 Q158.2544,473.3184 159.145,474.1465 Q160.0356,474.959 161.6294,474.959 Q162.5669,474.959 163.2231,474.709 Q163.6138,474.5527 164.0356,474.1152 Q164.3013,473.8496 164.4419,473.7715 Q164.5981,473.6934 164.8013,473.6934 Q165.1294,473.6934 165.3794,473.959 Q165.645,474.209 165.645,474.5527 Q165.645,474.8965 165.3013,475.3027 Q164.8013,475.8809 164.0044,476.209 Q162.9263,476.6621 161.6294,476.6621 Q160.1138,476.6621 158.9106,476.0371 Q157.9263,475.5371 157.2388,474.4746 Q156.5513,473.3965 156.5513,472.1152 L156.5513,470.959 Q156.5513,469.6309 157.1606,468.4902 Q157.7856,467.334 158.8794,466.7246 Q159.9731,466.0996 161.2075,466.0996 Q161.9419,466.0996 162.5825,466.2715 Q163.2388,466.4277 163.7856,466.7871 Z " fill="#000000"/><text fill="#000000" font-family="sans-serif" font-size="12" font-style="italic" lengthAdjust="spacing" textLength="68" x="213.02" y="466.5703">&#171;repository&#187;</text><text fill="#000000" font-family="sans-serif" font-size="14" lengthAdjust="spacing" textLength="144" x="175.02" y="484.6895">JobOpeningRepository</text><line style="stroke:#181818;stroke-width:0.5;" x1="147.02" x2="321.02" y1="493.2031" y2="493.2031"/><line style="stroke:#181818;stroke-width:0.5;" x1="147.02" x2="321.02" y1="501.2031" y2="501.2031"/></g><!--class JobApplicationRepository--><g id="elem_JobApplicationRepository"><rect codeLine="20" fill="#F1F1F1" height="60.582" id="JobApplicationRepository" rx="2.5" ry="2.5" style="stroke:#181818;stroke-width:0.5;" width="191" x="454.52" y="448.6211"/><ellipse cx="469.52" cy="470.9121" fill="#ADD1B2" rx="11" ry="11" style="stroke:#181818;stroke-width:1.0;"/><path d="M472.2856,466.7871 Q472.4419,466.5684 472.6294,466.459 Q472.8169,466.3496 473.0356,466.3496 Q473.4106,466.3496 473.645,466.6152 Q473.8794,466.8652 473.8794,467.4746 L473.8794,468.9277 Q473.8794,469.5371 473.645,469.8027 Q473.4106,470.0684 473.0356,470.0684 Q472.6919,470.0684 472.4888,469.8652 Q472.2856,469.6777 472.1763,469.1621 Q472.1294,468.8027 471.9419,468.6152 Q471.6138,468.2402 471.0044,468.0215 Q470.395,467.8027 469.77,467.8027 Q469.0044,467.8027 468.3638,468.1309 Q467.7388,468.459 467.2388,469.209 Q466.7544,469.959 466.7544,470.9902 L466.7544,472.084 Q466.7544,473.3184 467.645,474.1465 Q468.5356,474.959 470.1294,474.959 Q471.0669,474.959 471.7231,474.709 Q472.1138,474.5527 472.5356,474.1152 Q472.8013,473.8496 472.9419,473.7715 Q473.0981,473.6934 473.3013,473.6934 Q473.6294,473.6934 473.8794,473.959 Q474.145,474.209 474.145,474.5527 Q474.145,474.8965 473.8013,475.3027 Q473.3013,475.8809 472.5044,476.209 Q471.4263,476.6621 470.1294,476.6621 Q468.6138,476.6621 467.4106,476.0371 Q466.4263,475.5371 465.7388,474.4746 Q465.0513,473.3965 465.0513,472.1152 L465.0513,470.959 Q465.0513,469.6309 465.6606,468.4902 Q466.2856,467.334 467.3794,466.7246 Q468.4731,466.0996 469.7075,466.0996 Q470.4419,466.0996 471.0825,466.2715 Q471.7388,466.4277 472.2856,466.7871 Z " fill="#000000"/><text fill="#000000" font-family="sans-serif" font-size="12" font-style="italic" lengthAdjust="spacing" textLength="68" x="529.02" y="466.5703">&#171;repository&#187;</text><text fill="#000000" font-family="sans-serif" font-size="14" lengthAdjust="spacing" textLength="159" x="483.52" y="484.6895">JobApplicationRepository</text><line style="stroke:#181818;stroke-width:0.5;" x1="455.52" x2="644.52" y1="493.2031" y2="493.2031"/><line style="stroke:#181818;stroke-width:0.5;" x1="455.52" x2="644.52" y1="501.2031" y2="501.2031"/></g><!--class RepositoryFactory--><g id="elem_RepositoryFactory"><rect codeLine="22" fill="#F1F1F1" height="60.582" id="RepositoryFactory" rx="2.5" ry="2.5" style="stroke:#181818;stroke-width:0.5;" width="148" x="386.02" y="588.6211"/><ellipse cx="401.02" cy="610.9121" fill="#ADD1B2" rx="11" ry="11" style="stroke:#181818;stroke-width:1.0;"/><path d="M403.7856,606.7871 Q403.9419,606.5684 404.1294,606.459 Q404.3169,606.3496 404.5356,606.3496 Q404.9106,606.3496 405.145,606.6152 Q405.3794,606.8652 405.3794,607.4746 L405.3794,608.9277 Q405.3794,609.5371 405.145,609.8027 Q404.9106,610.0684 404.5356,610.0684 Q404.1919,610.0684 403.9888,609.8652 Q403.7856,609.6777 403.6763,609.1621 Q403.6294,608.8027 403.4419,608.6152 Q403.1138,608.2402 402.5044,608.0215 Q401.895,607.8027 401.27,607.8027 Q400.5044,607.8027 399.8638,608.1309 Q399.2388,608.459 398.7388,609.209 Q398.2544,609.959 398.2544,610.9902 L398.2544,612.084 Q398.2544,613.3184 399.145,614.1465 Q400.0356,614.959 401.6294,614.959 Q402.5669,614.959 403.2231,614.709 Q403.6138,614.5527 404.0356,614.1152 Q404.3013,613.8496 404.4419,613.7715 Q404.5981,613.6934 404.8013,613.6934 Q405.1294,613.6934 405.3794,613.959 Q405.645,614.209 405.645,614.5527 Q405.645,614.8965 405.3013,615.3027 Q404.8013,615.8809 404.0044,616.209 Q402.9263,616.6621 401.6294,616.6621 Q400.1138,616.6621 398.9106,616.0371 Q397.9263,615.5371 397.2388,614.4746 Q396.5513,613.3965 396.5513,612.1152 L396.5513,610.959 Q396.5513,609.6309 397.1606,608.4902 Q397.7856,607.334 398.8794,606.7246 Q399.9731,606.0996 401.2075,606.0996 Q401.9419,606.0996 402.5825,606.2715 Q403.2388,606.4277 403.7856,606.7871 Z " fill="#000000"/><text fill="#000000" font-family="sans-serif" font-size="12" font-style="italic" lengthAdjust="spacing" textLength="50" x="448.02" y="606.5703">&#171;factory&#187;</text><text fill="#000000" font-family="sans-serif" font-size="14" lengthAdjust="spacing" textLength="116" x="415.02" y="624.6895">RepositoryFactory</text><line style="stroke:#181818;stroke-width:0.5;" x1="387.02" x2="533.02" y1="633.2031" y2="633.2031"/><line style="stroke:#181818;stroke-width:0.5;" x1="387.02" x2="533.02" y1="641.2031" y2="641.2031"/></g><!--class JobRequirementsParser--><g id="elem_JobRequirementsParser"><rect codeLine="24" fill="#F1F1F1" height="60.582" id="JobRequirementsParser" rx="2.5" ry="2.5" style="stroke:#181818;stroke-width:0.5;" width="184" x="883.02" y="448.6211"/><ellipse cx="898.02" cy="470.9121" fill="#ADD1B2" rx="11" ry="11" style="stroke:#181818;stroke-width:1.0;"/><path d="M900.7856,466.7871 Q900.9419,466.5684 901.1294,466.459 Q901.3169,466.3496 901.5356,466.3496 Q901.9106,466.3496 902.145,466.6152 Q902.3794,466.8652 902.3794,467.4746 L902.3794,468.9277 Q902.3794,469.5371 902.145,469.8027 Q901.9106,470.0684 901.5356,470.0684 Q901.1919,470.0684 900.9888,469.8652 Q900.7856,469.6777 900.6763,469.1621 Q900.6294,468.8027 900.4419,468.6152 Q900.1138,468.2402 899.5044,468.0215 Q898.895,467.8027 898.27,467.8027 Q897.5044,467.8027 896.8638,468.1309 Q896.2388,468.459 895.7388,469.209 Q895.2544,469.959 895.2544,470.9902 L895.2544,472.084 Q895.2544,473.3184 896.145,474.1465 Q897.0356,474.959 898.6294,474.959 Q899.5669,474.959 900.2231,474.709 Q900.6138,474.5527 901.0356,474.1152 Q901.3013,473.8496 901.4419,473.7715 Q901.5981,473.6934 901.8013,473.6934 Q902.1294,473.6934 902.3794,473.959 Q902.645,474.209 902.645,474.5527 Q902.645,474.8965 902.3013,475.3027 Q901.8013,475.8809 901.0044,476.209 Q899.9263,476.6621 898.6294,476.6621 Q897.1138,476.6621 895.9106,476.0371 Q894.9263,475.5371 894.2388,474.4746 Q893.5513,473.3965 893.5513,472.1152 L893.5513,470.959 Q893.5513,469.6309 894.1606,468.4902 Q894.7856,467.334 895.8794,466.7246 Q896.9731,466.0996 898.2075,466.0996 Q898.9419,466.0996 899.5825,466.2715 Q900.2388,466.4277 900.7856,466.7871 Z " fill="#000000"/><text fill="#000000" font-family="sans-serif" font-size="12" font-style="italic" lengthAdjust="spacing" textLength="49" x="963.52" y="466.5703">&#171;parser&#187;</text><text fill="#000000" font-family="sans-serif" font-size="14" lengthAdjust="spacing" textLength="152" x="912.02" y="484.6895">JobRequirementsParser</text><line style="stroke:#181818;stroke-width:0.5;" x1="884.02" x2="1066.02" y1="493.2031" y2="493.2031"/><line style="stroke:#181818;stroke-width:0.5;" x1="884.02" x2="1066.02" y1="501.2031" y2="501.2031"/></g><!--class JobRequirementsVisitor--><g id="elem_JobRequirementsVisitor"><rect codeLine="26" fill="#F1F1F1" height="60.582" id="JobRequirementsVisitor" rx="2.5" ry="2.5" style="stroke:#181818;stroke-width:0.5;" width="181" x="741.52" y="588.6211"/><ellipse cx="756.52" cy="610.9121" fill="#ADD1B2" rx="11" ry="11" style="stroke:#181818;stroke-width:1.0;"/><path d="M759.2856,606.7871 Q759.4419,606.5684 759.6294,606.459 Q759.8169,606.3496 760.0356,606.3496 Q760.4106,606.3496 760.645,606.6152 Q760.8794,606.8652 760.8794,607.4746 L760.8794,608.9277 Q760.8794,609.5371 760.645,609.8027 Q760.4106,610.0684 760.0356,610.0684 Q759.6919,610.0684 759.4888,609.8652 Q759.2856,609.6777 759.1763,609.1621 Q759.1294,608.8027 758.9419,608.6152 Q758.6138,608.2402 758.0044,608.0215 Q757.395,607.8027 756.77,607.8027 Q756.0044,607.8027 755.3638,608.1309 Q754.7388,608.459 754.2388,609.209 Q753.7544,609.959 753.7544,610.9902 L753.7544,612.084 Q753.7544,613.3184 754.645,614.1465 Q755.5356,614.959 757.1294,614.959 Q758.0669,614.959 758.7231,614.709 Q759.1138,614.5527 759.5356,614.1152 Q759.8013,613.8496 759.9419,613.7715 Q760.0981,613.6934 760.3013,613.6934 Q760.6294,613.6934 760.8794,613.959 Q761.145,614.209 761.145,614.5527 Q761.145,614.8965 760.8013,615.3027 Q760.3013,615.8809 759.5044,616.209 Q758.4263,616.6621 757.1294,616.6621 Q755.6138,616.6621 754.4106,616.0371 Q753.4263,615.5371 752.7388,614.4746 Q752.0513,613.3965 752.0513,612.1152 L752.0513,610.959 Q752.0513,609.6309 752.6606,608.4902 Q753.2856,607.334 754.3794,606.7246 Q755.4731,606.0996 756.7075,606.0996 Q757.4419,606.0996 758.0825,606.2715 Q758.7388,606.4277 759.2856,606.7871 Z " fill="#000000"/><text fill="#000000" font-family="sans-serif" font-size="12" font-style="italic" lengthAdjust="spacing" textLength="46" x="822.02" y="606.5703">&#171;visitor&#187;</text><text fill="#000000" font-family="sans-serif" font-size="14" lengthAdjust="spacing" textLength="149" x="770.52" y="624.6895">JobRequirementsVisitor</text><line style="stroke:#181818;stroke-width:0.5;" x1="742.52" x2="921.52" y1="633.2031" y2="633.2031"/><line style="stroke:#181818;stroke-width:0.5;" x1="742.52" x2="921.52" y1="641.2031" y2="641.2031"/></g><!--class JobOpening--><g id="elem_JobOpening"><rect codeLine="28" fill="#F1F1F1" height="60.582" id="JobOpening" rx="2.5" ry="2.5" style="stroke:#181818;stroke-width:0.5;" width="108" x="148.02" y="588.6211"/><ellipse cx="163.02" cy="610.9121" fill="#ADD1B2" rx="11" ry="11" style="stroke:#181818;stroke-width:1.0;"/><path d="M165.7856,606.7871 Q165.9419,606.5684 166.1294,606.459 Q166.3169,606.3496 166.5356,606.3496 Q166.9106,606.3496 167.145,606.6152 Q167.3794,606.8652 167.3794,607.4746 L167.3794,608.9277 Q167.3794,609.5371 167.145,609.8027 Q166.9106,610.0684 166.5356,610.0684 Q166.1919,610.0684 165.9888,609.8652 Q165.7856,609.6777 165.6763,609.1621 Q165.6294,608.8027 165.4419,608.6152 Q165.1138,608.2402 164.5044,608.0215 Q163.895,607.8027 163.27,607.8027 Q162.5044,607.8027 161.8638,608.1309 Q161.2388,608.459 160.7388,609.209 Q160.2544,609.959 160.2544,610.9902 L160.2544,612.084 Q160.2544,613.3184 161.145,614.1465 Q162.0356,614.959 163.6294,614.959 Q164.5669,614.959 165.2231,614.709 Q165.6138,614.5527 166.0356,614.1152 Q166.3013,613.8496 166.4419,613.7715 Q166.5981,613.6934 166.8013,613.6934 Q167.1294,613.6934 167.3794,613.959 Q167.645,614.209 167.645,614.5527 Q167.645,614.8965 167.3013,615.3027 Q166.8013,615.8809 166.0044,616.209 Q164.9263,616.6621 163.6294,616.6621 Q162.1138,616.6621 160.9106,616.0371 Q159.9263,615.5371 159.2388,614.4746 Q158.5513,613.3965 158.5513,612.1152 L158.5513,610.959 Q158.5513,609.6309 159.1606,608.4902 Q159.7856,607.334 160.8794,606.7246 Q161.9731,606.0996 163.2075,606.0996 Q163.9419,606.0996 164.5825,606.2715 Q165.2388,606.4277 165.7856,606.7871 Z " fill="#000000"/><text fill="#000000" font-family="sans-serif" font-size="12" font-style="italic" lengthAdjust="spacing" textLength="43" x="193.52" y="606.5703">&#171;entity&#187;</text><text fill="#000000" font-family="sans-serif" font-size="14" lengthAdjust="spacing" textLength="76" x="177.02" y="624.6895">JobOpening</text><line style="stroke:#181818;stroke-width:0.5;" x1="149.02" x2="255.02" y1="633.2031" y2="633.2031"/><line style="stroke:#181818;stroke-width:0.5;" x1="149.02" x2="255.02" y1="641.2031" y2="641.2031"/></g><!--class JobApplication--><g id="elem_JobApplication"><rect codeLine="30" fill="#F1F1F1" height="60.582" id="JobApplication" rx="2.5" ry="2.5" style="stroke:#181818;stroke-width:0.5;" width="123" x="582.52" y="588.6211"/><ellipse cx="597.52" cy="610.9121" fill="#ADD1B2" rx="11" ry="11" style="stroke:#181818;stroke-width:1.0;"/><path d="M600.2856,606.7871 Q600.4419,606.5684 600.6294,606.459 Q600.8169,606.3496 601.0356,606.3496 Q601.4106,606.3496 601.645,606.6152 Q601.8794,606.8652 601.8794,607.4746 L601.8794,608.9277 Q601.8794,609.5371 601.645,609.8027 Q601.4106,610.0684 601.0356,610.0684 Q600.6919,610.0684 600.4888,609.8652 Q600.2856,609.6777 600.1763,609.1621 Q600.1294,608.8027 599.9419,608.6152 Q599.6138,608.2402 599.0044,608.0215 Q598.395,607.8027 597.77,607.8027 Q597.0044,607.8027 596.3638,608.1309 Q595.7388,608.459 595.2388,609.209 Q594.7544,609.959 594.7544,610.9902 L594.7544,612.084 Q594.7544,613.3184 595.645,614.1465 Q596.5356,614.959 598.1294,614.959 Q599.0669,614.959 599.7231,614.709 Q600.1138,614.5527 600.5356,614.1152 Q600.8013,613.8496 600.9419,613.7715 Q601.0981,613.6934 601.3013,613.6934 Q601.6294,613.6934 601.8794,613.959 Q602.145,614.209 602.145,614.5527 Q602.145,614.8965 601.8013,615.3027 Q601.3013,615.8809 600.5044,616.209 Q599.4263,616.6621 598.1294,616.6621 Q596.6138,616.6621 595.4106,616.0371 Q594.4263,615.5371 593.7388,614.4746 Q593.0513,613.3965 593.0513,612.1152 L593.0513,610.959 Q593.0513,609.6309 593.6606,608.4902 Q594.2856,607.334 595.3794,606.7246 Q596.4731,606.0996 597.7075,606.0996 Q598.4419,606.0996 599.0825,606.2715 Q599.7388,606.4277 600.2856,606.7871 Z " fill="#000000"/><text fill="#000000" font-family="sans-serif" font-size="12" font-style="italic" lengthAdjust="spacing" textLength="43" x="635.52" y="606.5703">&#171;entity&#187;</text><text fill="#000000" font-family="sans-serif" font-size="14" lengthAdjust="spacing" textLength="91" x="611.52" y="624.6895">JobApplication</text><line style="stroke:#181818;stroke-width:0.5;" x1="583.52" x2="704.52" y1="633.2031" y2="633.2031"/><line style="stroke:#181818;stroke-width:0.5;" x1="583.52" x2="704.52" y1="641.2031" y2="641.2031"/></g><!--class JobApplicationStatus--><g id="elem_JobApplicationStatus"><rect codeLine="32" fill="#F1F1F1" height="116.4453" id="JobApplicationStatus" rx="2.5" ry="2.5" style="stroke:#181818;stroke-width:0.5;" width="163" x="562.52" y="747.6211"/><ellipse cx="577.52" cy="769.9121" fill="#EB937F" rx="11" ry="11" style="stroke:#181818;stroke-width:1.0;"/><path d="M576.3794,770.709 L576.3794,773.209 L580.7075,773.209 L580.7075,772.2871 Q580.7075,771.6777 580.9419,771.4121 Q581.1919,771.1465 581.5669,771.1465 Q581.9419,771.1465 582.1763,771.4121 Q582.4106,771.6777 582.4106,772.2871 L582.4106,774.9121 L574.4106,774.9121 Q573.7856,774.9121 573.52,774.6777 Q573.27,774.4434 573.27,774.0527 Q573.27,773.6777 573.5356,773.4434 Q573.8013,773.209 574.4106,773.209 L574.6763,773.209 L574.6763,766.5527 L574.4106,766.5527 Q573.7856,766.5527 573.52,766.3184 Q573.27,766.084 573.27,765.6934 Q573.27,765.3184 573.52,765.084 Q573.7856,764.8496 574.4106,764.8496 L582.0356,764.8496 L582.0356,767.4434 Q582.0356,768.0527 581.8013,768.3184 Q581.5825,768.5684 581.1919,768.5684 Q580.8169,768.5684 580.5825,768.3184 Q580.3481,768.0527 580.3481,767.4434 L580.3481,766.5527 L576.3794,766.5527 L576.3794,769.0059 L577.8638,769.0059 Q577.8638,768.3496 577.9888,768.1621 Q578.2544,767.7559 578.7231,767.7559 Q579.0981,767.7559 579.3325,768.0215 Q579.5669,768.2715 579.5669,768.8809 L579.5669,770.8496 Q579.5669,771.3965 579.4419,771.584 Q579.1763,771.9746 578.7231,771.9746 Q578.2544,771.9746 577.9888,771.5684 Q577.8638,771.3809 577.8638,770.709 L576.3794,770.709 Z " fill="#000000"/><text fill="#000000" font-family="sans-serif" font-size="12" font-style="italic" lengthAdjust="spacing" textLength="85" x="614.52" y="765.5703">&#171;Value Object&#187;</text><text fill="#000000" font-family="sans-serif" font-size="14" lengthAdjust="spacing" textLength="131" x="591.52" y="783.6895">JobApplicationStatus</text><line style="stroke:#181818;stroke-width:0.5;" x1="563.52" x2="724.52" y1="792.2031" y2="792.2031"/><text fill="#000000" font-family="sans-serif" font-size="14" lengthAdjust="spacing" textLength="60" x="568.52" y="811.3105">PENDING</text><text fill="#000000" font-family="sans-serif" font-size="14" lengthAdjust="spacing" textLength="76" x="568.52" y="829.9316">APPROVED</text><text fill="#000000" font-family="sans-serif" font-size="14" lengthAdjust="spacing" textLength="72" x="568.52" y="848.5527">REJECTED</text><line style="stroke:#181818;stroke-width:0.5;" x1="563.52" x2="724.52" y1="856.0664" y2="856.0664"/></g><!--class Phases--><g id="elem_Phases"><rect codeLine="38" fill="#F1F1F1" height="153.6875" id="Phases" rx="2.5" ry="2.5" style="stroke:#181818;stroke-width:0.5;" width="109" x="147.52" y="728.6211"/><ellipse cx="162.52" cy="750.9121" fill="#EB937F" rx="11" ry="11" style="stroke:#181818;stroke-width:1.0;"/><path d="M161.3794,751.709 L161.3794,754.209 L165.7075,754.209 L165.7075,753.2871 Q165.7075,752.6777 165.9419,752.4121 Q166.1919,752.1465 166.5669,752.1465 Q166.9419,752.1465 167.1763,752.4121 Q167.4106,752.6777 167.4106,753.2871 L167.4106,755.9121 L159.4106,755.9121 Q158.7856,755.9121 158.52,755.6777 Q158.27,755.4434 158.27,755.0527 Q158.27,754.6777 158.5356,754.4434 Q158.8013,754.209 159.4106,754.209 L159.6763,754.209 L159.6763,747.5527 L159.4106,747.5527 Q158.7856,747.5527 158.52,747.3184 Q158.27,747.084 158.27,746.6934 Q158.27,746.3184 158.52,746.084 Q158.7856,745.8496 159.4106,745.8496 L167.0356,745.8496 L167.0356,748.4434 Q167.0356,749.0527 166.8013,749.3184 Q166.5825,749.5684 166.1919,749.5684 Q165.8169,749.5684 165.5825,749.3184 Q165.3481,749.0527 165.3481,748.4434 L165.3481,747.5527 L161.3794,747.5527 L161.3794,750.0059 L162.8638,750.0059 Q162.8638,749.3496 162.9888,749.1621 Q163.2544,748.7559 163.7231,748.7559 Q164.0981,748.7559 164.3325,749.0215 Q164.5669,749.2715 164.5669,749.8809 L164.5669,751.8496 Q164.5669,752.3965 164.4419,752.584 Q164.1763,752.9746 163.7231,752.9746 Q163.2544,752.9746 162.9888,752.5684 Q162.8638,752.3809 162.8638,751.709 L161.3794,751.709 Z " fill="#000000"/><text fill="#000000" font-family="sans-serif" font-size="12" font-style="italic" lengthAdjust="spacing" textLength="81" x="174.52" y="746.5703">&#171;value object&#187;</text><text fill="#000000" font-family="sans-serif" font-size="14" lengthAdjust="spacing" textLength="47" x="191.52" y="764.6895">Phases</text><line style="stroke:#181818;stroke-width:0.5;" x1="148.52" x2="255.52" y1="773.2031" y2="773.2031"/><text fill="#000000" font-family="sans-serif" font-size="14" lengthAdjust="spacing" textLength="89" x="153.52" y="792.3105">APPLICATION</text><text fill="#000000" font-family="sans-serif" font-size="14" lengthAdjust="spacing" textLength="79" x="153.52" y="810.9316">SCREENING</text><text fill="#000000" font-family="sans-serif" font-size="14" lengthAdjust="spacing" textLength="74" x="153.52" y="829.5527">INTERVIEW</text><text fill="#000000" font-family="sans-serif" font-size="14" lengthAdjust="spacing" textLength="65" x="153.52" y="848.1738">ANALYSIS</text><text fill="#000000" font-family="sans-serif" font-size="14" lengthAdjust="spacing" textLength="54" x="153.52" y="866.7949">RESULT</text><line style="stroke:#181818;stroke-width:0.5;" x1="148.52" x2="255.52" y1="874.3086" y2="874.3086"/></g><!--class JobRequirements--><g id="elem_JobRequirements"><rect codeLine="46" fill="#F1F1F1" height="60.582" id="JobRequirements" rx="2.5" ry="2.5" style="stroke:#181818;stroke-width:0.5;" width="142" x="761.02" y="775.1211"/><ellipse cx="776.02" cy="797.4121" fill="#ADD1B2" rx="11" ry="11" style="stroke:#181818;stroke-width:1.0;"/><path d="M778.7856,793.2871 Q778.9419,793.0684 779.1294,792.959 Q779.3169,792.8496 779.5356,792.8496 Q779.9106,792.8496 780.145,793.1152 Q780.3794,793.3652 780.3794,793.9746 L780.3794,795.4277 Q780.3794,796.0371 780.145,796.3027 Q779.9106,796.5684 779.5356,796.5684 Q779.1919,796.5684 778.9888,796.3652 Q778.7856,796.1777 778.6763,795.6621 Q778.6294,795.3027 778.4419,795.1152 Q778.1138,794.7402 777.5044,794.5215 Q776.895,794.3027 776.27,794.3027 Q775.5044,794.3027 774.8638,794.6309 Q774.2388,794.959 773.7388,795.709 Q773.2544,796.459 773.2544,797.4902 L773.2544,798.584 Q773.2544,799.8184 774.145,800.6465 Q775.0356,801.459 776.6294,801.459 Q777.5669,801.459 778.2231,801.209 Q778.6138,801.0527 779.0356,800.6152 Q779.3013,800.3496 779.4419,800.2715 Q779.5981,800.1934 779.8013,800.1934 Q780.1294,800.1934 780.3794,800.459 Q780.645,800.709 780.645,801.0527 Q780.645,801.3965 780.3013,801.8027 Q779.8013,802.3809 779.0044,802.709 Q777.9263,803.1621 776.6294,803.1621 Q775.1138,803.1621 773.9106,802.5371 Q772.9263,802.0371 772.2388,800.9746 Q771.5513,799.8965 771.5513,798.6152 L771.5513,797.459 Q771.5513,796.1309 772.1606,794.9902 Q772.7856,793.834 773.8794,793.2246 Q774.9731,792.5996 776.2075,792.5996 Q776.9419,792.5996 777.5825,792.7715 Q778.2388,792.9277 778.7856,793.2871 Z " fill="#000000"/><text fill="#000000" font-family="sans-serif" font-size="12" font-style="italic" lengthAdjust="spacing" textLength="81" x="804.52" y="793.0703">&#171;value object&#187;</text><text fill="#000000" font-family="sans-serif" font-size="14" lengthAdjust="spacing" textLength="110" x="790.02" y="811.1895">JobRequirements</text><line style="stroke:#181818;stroke-width:0.5;" x1="762.02" x2="902.02" y1="819.7031" y2="819.7031"/><line style="stroke:#181818;stroke-width:0.5;" x1="762.02" x2="902.02" y1="827.7031" y2="827.7031"/></g><!--link VerifyJobOpeningsRequirementsUI to VerifyJobOpeningsRequirementsController--><g id="link_VerifyJobOpeningsRequirementsUI_VerifyJobOpeningsRequirementsController"><path codeLine="49" d="M537.02,107.7811 C537.02,126.2411 537.02,143.9111 537.02,162.3811 " fill="none" id="VerifyJobOpeningsRequirementsUI-to-VerifyJobOpeningsRequirementsController" style="stroke:#181818;stroke-width:1.0;stroke-dasharray:7.0,7.0;"/><polygon fill="#181818" points="537.02,168.3811,541.02,159.3811,537.02,163.3811,533.02,159.3811,537.02,168.3811" style="stroke:#181818;stroke-width:1.0;"/></g><!--link VerifyJobOpeningsRequirementsController to JobOpeningManagementService--><g id="link_VerifyJobOpeningsRequirementsController_JobOpeningManagementService"><path codeLine="51" d="M476.95,229.7211 C429.71,253.0111 369.582,282.6389 322.362,305.9089 " fill="none" id="VerifyJobOpeningsRequirementsController-to-JobOpeningManagementService" style="stroke:#181818;stroke-width:1.0;stroke-dasharray:7.0,7.0;"/><polygon fill="#181818" points="316.98,308.5611,326.8211,308.1707,321.465,306.3509,323.2848,300.9948,316.98,308.5611" style="stroke:#181818;stroke-width:1.0;"/><polygon fill="#000000" points="413.5351,271.477,422.9476,270.1145,420.3491,264.8422,413.5351,271.477" style="stroke:#000000;stroke-width:1.0;"/><text fill="#000000" font-family="sans-serif" font-size="13" lengthAdjust="spacing" textLength="28" x="427.02" y="274.6494">uses</text></g><!--link VerifyJobOpeningsRequirementsController to JobApplicationManagementService--><g id="link_VerifyJobOpeningsRequirementsController_JobApplicationManagementService"><path codeLine="52" d="M537.02,229.7211 C537.02,253.0111 537.02,279.2911 537.02,302.5611 " fill="none" id="VerifyJobOpeningsRequirementsController-to-JobApplicationManagementService" style="stroke:#181818;stroke-width:1.0;stroke-dasharray:7.0,7.0;"/><polygon fill="#181818" points="537.02,308.5611,541.02,299.5611,537.02,303.5611,533.02,299.5611,537.02,308.5611" style="stroke:#181818;stroke-width:1.0;"/><polygon fill="#000000" points="542.02,274.2666,544.9589,265.2215,539.0811,265.2215,542.02,274.2666" style="stroke:#000000;stroke-width:1.0;"/><text fill="#000000" font-family="sans-serif" font-size="13" lengthAdjust="spacing" textLength="28" x="551.02" y="274.6494">uses</text></g><!--link VerifyJobOpeningsRequirementsController to JobRequirementsManagementService--><g id="link_VerifyJobOpeningsRequirementsController_JobRequirementsManagementService"><path codeLine="53" d="M654.8,229.6511 C688.62,238.6811 725.43,249.0411 759.02,259.6211 C805.92,274.4011 852.1144,291.0279 893.2244,306.4979 " fill="none" id="VerifyJobOpeningsRequirementsController-to-JobRequirementsManagementService" style="stroke:#181818;stroke-width:1.0;stroke-dasharray:7.0,7.0;"/><polygon fill="#181818" points="898.84,308.6111,891.8254,301.6976,894.1604,306.8501,889.0079,309.185,898.84,308.6111" style="stroke:#181818;stroke-width:1.0;"/><text fill="#000000" font-family="sans-serif" font-size="13" lengthAdjust="spacing" textLength="28" x="813.02" y="274.6494">uses</text></g><!--link VerifyJobOpeningsRequirementsController to JobOpeningRepository--><g id="link_VerifyJobOpeningsRequirementsController_JobOpeningRepository"><path codeLine="55" d="M386.25,213.3211 C259.22,227.9311 91.7,256.6211 50.02,308.6211 C6,363.5211 85.9342,414.2925 154.5642,446.0325 " fill="none" id="VerifyJobOpeningsRequirementsController-to-JobOpeningRepository" style="stroke:#181818;stroke-width:1.0;stroke-dasharray:7.0,7.0;"/><polygon fill="#181818" points="160.01,448.5511,153.5203,441.1427,155.4718,446.4523,150.1622,448.4038,160.01,448.5511" style="stroke:#181818;stroke-width:1.0;"/><polygon fill="#000000" points="51.4923,342.8099,59.9567,338.4735,55.7913,334.3264,51.4923,342.8099" style="stroke:#000000;stroke-width:1.0;"/><text fill="#000000" font-family="sans-serif" font-size="13" lengthAdjust="spacing" textLength="56" x="64.02" y="344.6494">accesses</text></g><!--link VerifyJobOpeningsRequirementsController to JobApplicationRepository--><g id="link_VerifyJobOpeningsRequirementsController_JobApplicationRepository"><path codeLine="56" d="M599.32,229.6511 C629.92,247.7711 663.84,274.1611 681.02,308.6211 C693.11,332.8811 692.55,345.0911 681.02,369.6211 C665.25,403.1611 638.4694,426.6039 610.1594,445.1439 " fill="none" id="VerifyJobOpeningsRequirementsController-to-JobApplicationRepository" style="stroke:#181818;stroke-width:1.0;stroke-dasharray:7.0,7.0;"/><polygon fill="#181818" points="605.14,448.4311,614.8606,446.8466,609.3228,445.6918,610.4777,440.1541,605.14,448.4311" style="stroke:#181818;stroke-width:1.0;"/><polygon fill="#000000" points="694.2712,344.2603,696.752,335.079,690.8816,335.3743,694.2712,344.2603" style="stroke:#000000;stroke-width:1.0;"/><text fill="#000000" font-family="sans-serif" font-size="13" lengthAdjust="spacing" textLength="56" x="703.02" y="344.6494">accesses</text></g><!--link JobOpeningManagementService to JobOpeningRepository--><g id="link_JobOpeningManagementService_JobOpeningRepository"><path codeLine="58" d="M252.08,369.7211 C248.2,393.0111 243.8068,419.3728 239.9268,442.6428 " fill="none" id="JobOpeningManagementService-to-JobOpeningRepository" style="stroke:#181818;stroke-width:1.0;"/><polygon fill="#181818" points="238.94,448.5611,244.3657,440.3415,239.7623,443.6292,236.4747,439.0258,238.94,448.5611" style="stroke:#181818;stroke-width:1.0;"/><text fill="#000000" font-family="sans-serif" font-size="13" lengthAdjust="spacing" textLength="28" x="247.02" y="414.6494">uses</text></g><!--link JobApplicationManagementService to JobApplicationRepository--><g id="link_JobApplicationManagementService_JobApplicationRepository"><path codeLine="59" d="M539.8,369.7211 C542,393.0111 544.4778,419.3175 546.6678,442.5875 " fill="none" id="JobApplicationManagementService-to-JobApplicationRepository" style="stroke:#181818;stroke-width:1.0;"/><polygon fill="#181818" points="547.23,448.5611,550.3691,439.2259,546.7615,443.5831,542.4043,439.9755,547.23,448.5611" style="stroke:#181818;stroke-width:1.0;"/><text fill="#000000" font-family="sans-serif" font-size="13" lengthAdjust="spacing" textLength="28" x="545.02" y="414.6494">uses</text></g><!--link JobRequirementsManagementService to JobRequirementsParser--><g id="link_JobRequirementsManagementService_JobRequirementsParser"><path codeLine="60" d="M975.02,369.7211 C975.02,393.0111 975.02,419.2911 975.02,442.5611 " fill="none" id="JobRequirementsManagementService-to-JobRequirementsParser" style="stroke:#181818;stroke-width:1.0;"/><polygon fill="#181818" points="975.02,448.5611,979.02,439.5611,975.02,443.5611,971.02,439.5611,975.02,448.5611" style="stroke:#181818;stroke-width:1.0;"/><text fill="#000000" font-family="sans-serif" font-size="13" lengthAdjust="spacing" textLength="28" x="976.02" y="414.6494">uses</text></g><!--link JobRequirementsParser to JobRequirementsVisitor--><g id="link_JobRequirementsParser_JobRequirementsVisitor"><path codeLine="62" d="M944.34,509.7211 C920.21,533.0111 891.078,561.1252 866.958,584.3952 " fill="none" id="JobRequirementsParser-to-JobRequirementsVisitor" style="stroke:#181818;stroke-width:1.0;"/><polygon fill="#181818" points="862.64,588.5611,871.8943,585.191,866.2384,585.0895,866.3398,579.4336,862.64,588.5611" style="stroke:#181818;stroke-width:1.0;"/><polygon fill="#000000" points="913.4221,552.7386,921.9716,548.5725,917.89,544.3429,913.4221,552.7386" style="stroke:#000000;stroke-width:1.0;"/><text fill="#000000" font-family="sans-serif" font-size="13" lengthAdjust="spacing" textLength="28" x="926.02" y="554.6494">uses</text></g><!--link JobRequirementsParser to JobRequirements--><g id="link_JobRequirementsParser_JobRequirements"><path codeLine="63" d="M971.18,509.6911 C969.09,524.4511 966.27,542.5411 963.02,558.6211 C954.74,599.5111 957.03,611.5311 940.02,649.6211 C929.31,673.5911 921.93,677.0111 907.02,698.6211 C889.09,724.5911 871.8266,748.9781 856.6966,770.1681 " fill="none" id="JobRequirementsParser-to-JobRequirements" style="stroke:#181818;stroke-width:1.0;stroke-dasharray:7.0,7.0;"/><polygon fill="#181818" points="853.21,775.0511,861.6952,770.0509,856.1155,770.9819,855.1845,765.4022,853.21,775.0511" style="stroke:#181818;stroke-width:1.0;"/><polygon fill="#000000" points="960.0082,623.844,966.3381,616.7459,960.9571,614.3809,960.0082,623.844" style="stroke:#000000;stroke-width:1.0;"/><text fill="#000000" font-family="sans-serif" font-size="13" lengthAdjust="spacing" textLength="28" x="971.02" y="624.6494">uses</text></g><!--link JobRequirementsVisitor to JobRequirements--><g id="link_JobRequirementsVisitor_JobRequirements"><path codeLine="64" d="M832.02,649.7611 C832.02,684.1911 832.02,734.6511 832.02,769.0511 " fill="none" id="JobRequirementsVisitor-to-JobRequirements" style="stroke:#181818;stroke-width:1.0;"/><polygon fill="#181818" points="832.02,775.0511,836.02,766.0511,832.02,770.0511,828.02,766.0511,832.02,775.0511" style="stroke:#181818;stroke-width:1.0;"/><polygon fill="#000000" points="837.02,694.2666,839.9589,685.2215,834.0811,685.2215,837.02,694.2666" style="stroke:#000000;stroke-width:1.0;"/><text fill="#000000" font-family="sans-serif" font-size="13" lengthAdjust="spacing" textLength="52" x="846.02" y="694.6494">analyzes</text></g><!--reverse link JobOpeningRepository to RepositoryFactory--><g id="link_JobOpeningRepository_RepositoryFactory"><path codeLine="66" d="M328.1917,499.5426 C357.8317,508.5326 383.94,520.1111 409.02,539.6211 C425.43,552.3911 438.18,572.0211 446.83,588.4511 " fill="none" id="JobOpeningRepository-backto-RepositoryFactory" style="stroke:#181818;stroke-width:1.0;stroke-dasharray:7.0,7.0;"/><polygon fill="#181818" points="322.45,497.8011,329.9016,504.2411,327.2348,499.2523,332.2236,496.5855,322.45,497.8011" style="stroke:#181818;stroke-width:1.0;"/><polygon fill="#000000" points="427.0189,546.2681,432.4945,554.0442,436.0195,549.3406,427.0189,546.2681" style="stroke:#000000;stroke-width:1.0;"/><text fill="#000000" font-family="sans-serif" font-size="13" lengthAdjust="spacing" textLength="43" x="440.02" y="554.6494">creates</text></g><!--reverse link JobApplicationRepository to RepositoryFactory--><g id="link_JobApplicationRepository_RepositoryFactory"><path codeLine="67" d="M532.4419,515.1992 C524.6219,530.1692 517.31,543.0711 507.02,558.6211 C500.33,568.7211 492.38,579.2411 484.94,588.5811 " fill="none" id="JobApplicationRepository-backto-RepositoryFactory" style="stroke:#181818;stroke-width:1.0;stroke-dasharray:7.0,7.0;"/><polygon fill="#181818" points="535.22,509.8811,527.5075,516.0062,532.9049,514.3129,534.5983,519.7103,535.22,509.8811" style="stroke:#181818;stroke-width:1.0;"/><polygon fill="#000000" points="525.737,545.0693,518.3547,551.0653,523.289,554.2594,525.737,545.0693" style="stroke:#000000;stroke-width:1.0;"/><text fill="#000000" font-family="sans-serif" font-size="13" lengthAdjust="spacing" textLength="43" x="532.02" y="554.6494">creates</text></g><!--link JobOpeningRepository to JobOpening--><g id="link_JobOpeningRepository_JobOpening"><path codeLine="69" d="M212.34,509.9111 C206.9,519.0011 201.82,529.3311 199.02,539.6211 C194.72,555.4111 194.4623,567.6862 196.0823,582.6062 " fill="none" id="JobOpeningRepository-to-JobOpening" style="stroke:#181818;stroke-width:1.0;stroke-dasharray:7.0,7.0;"/><polygon fill="#181818" points="196.73,588.5711,199.7351,579.1919,196.1903,583.6003,191.7819,580.0555,196.73,588.5711" style="stroke:#181818;stroke-width:1.0;"/><polygon fill="#000000" points="202.9287,554.1461,207.7709,545.9605,202.0348,544.6776,202.9287,554.1461" style="stroke:#000000;stroke-width:1.0;"/><text fill="#000000" font-family="sans-serif" font-size="13" lengthAdjust="spacing" textLength="191" x="213.02" y="554.6494">obtain job opening from database</text></g><!--link JobApplicationRepository to JobApplication--><g id="link_JobApplicationRepository_JobApplication"><path codeLine="70" d="M570.18,509.7211 C586.04,533.0111 604.6523,560.3322 620.5023,583.6022 " fill="none" id="JobApplicationRepository-to-JobApplication" style="stroke:#181818;stroke-width:1.0;stroke-dasharray:7.0,7.0;"/><polygon fill="#181818" points="623.88,588.5611,622.1194,578.8709,621.0652,584.4286,615.5075,583.3745,623.88,588.5611" style="stroke:#181818;stroke-width:1.0;"/><polygon fill="#000000" points="609.8347,553.3991,607.1718,544.2689,602.3138,547.5778,609.8347,553.3991" style="stroke:#000000;stroke-width:1.0;"/><text fill="#000000" font-family="sans-serif" font-size="13" lengthAdjust="spacing" textLength="157" x="616.02" y="554.6494">updates status in database</text></g><!--link JobOpening to Phases--><g id="link_JobOpening_Phases"><path codeLine="72" d="M202.02,649.7611 C202.02,671.0511 202.02,694.7611 202.02,722.4811 " fill="none" id="JobOpening-to-Phases" style="stroke:#181818;stroke-width:1.0;"/><polygon fill="#181818" points="202.02,728.4811,206.02,719.4811,202.02,723.4811,198.02,719.4811,202.02,728.4811" style="stroke:#181818;stroke-width:1.0;"/><text fill="#000000" font-family="sans-serif" font-size="13" lengthAdjust="spacing" textLength="21" x="203.02" y="694.6494">has</text><text fill="#000000" font-family="sans-serif" font-size="13" lengthAdjust="spacing" textLength="7" x="194.3528" y="671.3181">1</text><text fill="#000000" font-family="sans-serif" font-size="13" lengthAdjust="spacing" textLength="22" x="178.9716" y="717.3756">4..5</text></g><!--link JobApplication to JobApplicationStatus--><g id="link_JobApplication_JobApplicationStatus"><path codeLine="74" d="M644.02,649.7611 C644.02,676.0411 644.02,709.1611 644.02,741.5011 " fill="none" id="JobApplication-to-JobApplicationStatus" style="stroke:#181818;stroke-width:1.0;"/><polygon fill="#181818" points="644.02,747.5011,648.02,738.5011,644.02,742.5011,640.02,738.5011,644.02,747.5011" style="stroke:#181818;stroke-width:1.0;"/><text fill="#000000" font-family="sans-serif" font-size="13" lengthAdjust="spacing" textLength="21" x="645.02" y="694.6494">has</text><text fill="#000000" font-family="sans-serif" font-size="13" lengthAdjust="spacing" textLength="7" x="636.3528" y="671.3181">1</text><text fill="#000000" font-family="sans-serif" font-size="13" lengthAdjust="spacing" textLength="7" x="636.5934" y="736.4007">1</text></g><!--link JobApplication to JobRequirements--><g id="link_JobApplication_JobRequirements"><path codeLine="75" d="M674.22,649.7611 C709.3,684.1911 762.5472,736.449 797.6072,770.849 " fill="none" id="JobApplication-to-JobRequirements" style="stroke:#181818;stroke-width:1.0;"/><polygon fill="#181818" points="801.89,775.0511,798.2673,765.8927,798.321,771.5493,792.6644,771.6031,801.89,775.0511" style="stroke:#181818;stroke-width:1.0;"/><text fill="#000000" font-family="sans-serif" font-size="13" lengthAdjust="spacing" textLength="21" x="722.02" y="694.6494">has</text><text fill="#000000" font-family="sans-serif" font-size="13" lengthAdjust="spacing" textLength="7" x="672.3097" y="671.3181">1</text><text fill="#000000" font-family="sans-serif" font-size="13" lengthAdjust="spacing" textLength="7" x="787.9538" y="764.0943">1</text></g><!--SRC=[fLHTRzem57tthx1uwXw8kcbx6AeYeP1DgLX02J3jySOOwZROcUqmqQd_VSudWIQ1Tdc9xNlEkH_slUg9yGGax702v0csDDI7c699YGQ-ZIbIDK0zm5hyONoBDn0hYXec4eDIOwqbYr9DFI9uo9uflaL8CstadCoE9mos6Vh6cNp0GxnqRZzzHIZduXMLR7Eu5z4ieTpuK07zdJ99TvHhjVJmtHtZcieD46hRLv4SmRKKSKob8PDwSsGVUJ-0cympLaZbdX5g6AfOdS37IH8p0fe9VYsb6T6rd3AgW2P2CItamU1alUcAw2By2FW6fCHjYbLdo7EGAYzWaYywSIkMAnlWlbYr9MIi1ijqPmed0ChJtPazrA1JPL0hY5EAPz6ZUQQsZVyYN7vprvzu_lTwFvxFWzdAdTG7WNllEelouANqCdy0HJFTVQuhJdMDnjHpnWjlvkVxq0bSrw-yUFx23LQU-xF0-kFfhz0BKU4hN4uNwAMZPg_y8OGkjO5bsTU- -WjYZVR8HFkQOOJJh3psMmLxs-MzelqDLQY-D_L62uqm44BL_-RTfOZwwZqSTWQLPtUfj2M_AunAex-IfKZBCAXgt6vjuLN3eRxoTcRR3NToAiqMTrcbESI7v_DADoUaPRNCmn4caeBEHW7g7guNgUqkJv-Q8OX80-FuKKHOb8SRANPu3HeYCv2AfDk3UFtIiaebwpm2LOn9ezsGQWI51ny7UU46dothow0QVoDi_kZCvn5h_gtJkA3riywk9_Vp3m00]--></g></svg>