<?xml version="1.0" encoding="us-ascii" standalone="no"?><svg xmlns="http://www.w3.org/2000/svg" xmlns:xlink="http://www.w3.org/1999/xlink" contentStyleType="text/css" height="794px" preserveAspectRatio="none" style="width:831px;height:794px;background:#FFFFFF;" version="1.1" viewBox="0 0 831 794" width="831px" zoomAndPan="magnify"><defs/><g><text fill="#000000" font-family="sans-serif" font-size="14" font-weight="bold" lengthAdjust="spacing" textLength="190" x="313.75" y="25.1074">Class Diagram (CD) - UC003</text><!--class DeactivateUserUI--><g id="elem_DeactivateUserUI"><rect codeLine="8" fill="#F1F1F1" height="60.582" id="DeactivateUserUI" rx="2.5" ry="2.5" style="stroke:#181818;stroke-width:0.5;" width="140" x="415.5" y="46.6211"/><ellipse cx="430.5" cy="68.9121" fill="#ADD1B2" rx="11" ry="11" style="stroke:#181818;stroke-width:1.0;"/><path d="M433.2656,64.7871 Q433.4219,64.5684 433.6094,64.459 Q433.7969,64.3496 434.0156,64.3496 Q434.3906,64.3496 434.625,64.6152 Q434.8594,64.8652 434.8594,65.4746 L434.8594,66.9277 Q434.8594,67.5371 434.625,67.8027 Q434.3906,68.0684 434.0156,68.0684 Q433.6719,68.0684 433.4688,67.8652 Q433.2656,67.6777 433.1563,67.1621 Q433.1094,66.8027 432.9219,66.6152 Q432.5938,66.2402 431.9844,66.0215 Q431.375,65.8027 430.75,65.8027 Q429.9844,65.8027 429.3438,66.1309 Q428.7188,66.459 428.2188,67.209 Q427.7344,67.959 427.7344,68.9902 L427.7344,70.084 Q427.7344,71.3184 428.625,72.1465 Q429.5156,72.959 431.1094,72.959 Q432.0469,72.959 432.7031,72.709 Q433.0938,72.5527 433.5156,72.1152 Q433.7813,71.8496 433.9219,71.7715 Q434.0781,71.6934 434.2813,71.6934 Q434.6094,71.6934 434.8594,71.959 Q435.125,72.209 435.125,72.5527 Q435.125,72.8965 434.7813,73.3027 Q434.2813,73.8809 433.4844,74.209 Q432.4063,74.6621 431.1094,74.6621 Q429.5938,74.6621 428.3906,74.0371 Q427.4063,73.5371 426.7188,72.4746 Q426.0313,71.3965 426.0313,70.1152 L426.0313,68.959 Q426.0313,67.6309 426.6406,66.4902 Q427.2656,65.334 428.3594,64.7246 Q429.4531,64.0996 430.6875,64.0996 Q431.4219,64.0996 432.0625,64.2715 Q432.7188,64.4277 433.2656,64.7871 Z " fill="#000000"/><text fill="#000000" font-family="sans-serif" font-size="12" font-style="italic" lengthAdjust="spacing" textLength="61" x="468" y="64.5703">&#171;interface&#187;</text><text fill="#000000" font-family="sans-serif" font-size="14" lengthAdjust="spacing" textLength="108" x="444.5" y="82.6895">DeactivateUserUI</text><line style="stroke:#181818;stroke-width:0.5;" x1="416.5" x2="554.5" y1="91.2031" y2="91.2031"/><line style="stroke:#181818;stroke-width:0.5;" x1="416.5" x2="554.5" y1="99.2031" y2="99.2031"/></g><!--class DeactivateUserController--><g id="elem_DeactivateUserController"><rect codeLine="10" fill="#F1F1F1" height="60.582" id="DeactivateUserController" rx="2.5" ry="2.5" style="stroke:#181818;stroke-width:0.5;" width="190" x="390.5" y="168.6211"/><ellipse cx="405.5" cy="190.9121" fill="#ADD1B2" rx="11" ry="11" style="stroke:#181818;stroke-width:1.0;"/><path d="M408.2656,186.7871 Q408.4219,186.5684 408.6094,186.459 Q408.7969,186.3496 409.0156,186.3496 Q409.3906,186.3496 409.625,186.6152 Q409.8594,186.8652 409.8594,187.4746 L409.8594,188.9277 Q409.8594,189.5371 409.625,189.8027 Q409.3906,190.0684 409.0156,190.0684 Q408.6719,190.0684 408.4688,189.8652 Q408.2656,189.6777 408.1563,189.1621 Q408.1094,188.8027 407.9219,188.6152 Q407.5938,188.2402 406.9844,188.0215 Q406.375,187.8027 405.75,187.8027 Q404.9844,187.8027 404.3438,188.1309 Q403.7188,188.459 403.2188,189.209 Q402.7344,189.959 402.7344,190.9902 L402.7344,192.084 Q402.7344,193.3184 403.625,194.1465 Q404.5156,194.959 406.1094,194.959 Q407.0469,194.959 407.7031,194.709 Q408.0938,194.5527 408.5156,194.1152 Q408.7813,193.8496 408.9219,193.7715 Q409.0781,193.6934 409.2813,193.6934 Q409.6094,193.6934 409.8594,193.959 Q410.125,194.209 410.125,194.5527 Q410.125,194.8965 409.7813,195.3027 Q409.2813,195.8809 408.4844,196.209 Q407.4063,196.6621 406.1094,196.6621 Q404.5938,196.6621 403.3906,196.0371 Q402.4063,195.5371 401.7188,194.4746 Q401.0313,193.3965 401.0313,192.1152 L401.0313,190.959 Q401.0313,189.6309 401.6406,188.4902 Q402.2656,187.334 403.3594,186.7246 Q404.4531,186.0996 405.6875,186.0996 Q406.4219,186.0996 407.0625,186.2715 Q407.7188,186.4277 408.2656,186.7871 Z " fill="#000000"/><text fill="#000000" font-family="sans-serif" font-size="12" font-style="italic" lengthAdjust="spacing" textLength="65" x="466" y="186.5703">&#171;controller&#187;</text><text fill="#000000" font-family="sans-serif" font-size="14" lengthAdjust="spacing" textLength="158" x="419.5" y="204.6895">DeactivateUserController</text><line style="stroke:#181818;stroke-width:0.5;" x1="391.5" x2="579.5" y1="213.2031" y2="213.2031"/><line style="stroke:#181818;stroke-width:0.5;" x1="391.5" x2="579.5" y1="221.2031" y2="221.2031"/></g><!--class UserManagementService--><g id="elem_UserManagementService"><rect codeLine="12" fill="#F1F1F1" height="60.582" id="UserManagementService" rx="2.5" ry="2.5" style="stroke:#181818;stroke-width:0.5;" width="190" x="390.5" y="308.6211"/><ellipse cx="405.5" cy="330.9121" fill="#ADD1B2" rx="11" ry="11" style="stroke:#181818;stroke-width:1.0;"/><path d="M408.2656,326.7871 Q408.4219,326.5684 408.6094,326.459 Q408.7969,326.3496 409.0156,326.3496 Q409.3906,326.3496 409.625,326.6152 Q409.8594,326.8652 409.8594,327.4746 L409.8594,328.9277 Q409.8594,329.5371 409.625,329.8027 Q409.3906,330.0684 409.0156,330.0684 Q408.6719,330.0684 408.4688,329.8652 Q408.2656,329.6777 408.1563,329.1621 Q408.1094,328.8027 407.9219,328.6152 Q407.5938,328.2402 406.9844,328.0215 Q406.375,327.8027 405.75,327.8027 Q404.9844,327.8027 404.3438,328.1309 Q403.7188,328.459 403.2188,329.209 Q402.7344,329.959 402.7344,330.9902 L402.7344,332.084 Q402.7344,333.3184 403.625,334.1465 Q404.5156,334.959 406.1094,334.959 Q407.0469,334.959 407.7031,334.709 Q408.0938,334.5527 408.5156,334.1152 Q408.7813,333.8496 408.9219,333.7715 Q409.0781,333.6934 409.2813,333.6934 Q409.6094,333.6934 409.8594,333.959 Q410.125,334.209 410.125,334.5527 Q410.125,334.8965 409.7813,335.3027 Q409.2813,335.8809 408.4844,336.209 Q407.4063,336.6621 406.1094,336.6621 Q404.5938,336.6621 403.3906,336.0371 Q402.4063,335.5371 401.7188,334.4746 Q401.0313,333.3965 401.0313,332.1152 L401.0313,330.959 Q401.0313,329.6309 401.6406,328.4902 Q402.2656,327.334 403.3594,326.7246 Q404.4531,326.0996 405.6875,326.0996 Q406.4219,326.0996 407.0625,326.2715 Q407.7188,326.4277 408.2656,326.7871 Z " fill="#000000"/><text fill="#000000" font-family="sans-serif" font-size="12" font-style="italic" lengthAdjust="spacing" textLength="53" x="472" y="326.5703">&#171;service&#187;</text><text fill="#000000" font-family="sans-serif" font-size="14" lengthAdjust="spacing" textLength="158" x="419.5" y="344.6895">UserManagementService</text><line style="stroke:#181818;stroke-width:0.5;" x1="391.5" x2="579.5" y1="353.2031" y2="353.2031"/><line style="stroke:#181818;stroke-width:0.5;" x1="391.5" x2="579.5" y1="361.2031" y2="361.2031"/></g><!--class SystemUserRepository--><g id="elem_SystemUserRepository"><rect codeLine="14" fill="#F1F1F1" height="60.582" id="SystemUserRepository" rx="2.5" ry="2.5" style="stroke:#181818;stroke-width:0.5;" width="175" x="398" y="448.6211"/><ellipse cx="413" cy="470.9121" fill="#ADD1B2" rx="11" ry="11" style="stroke:#181818;stroke-width:1.0;"/><path d="M415.7656,466.7871 Q415.9219,466.5684 416.1094,466.459 Q416.2969,466.3496 416.5156,466.3496 Q416.8906,466.3496 417.125,466.6152 Q417.3594,466.8652 417.3594,467.4746 L417.3594,468.9277 Q417.3594,469.5371 417.125,469.8027 Q416.8906,470.0684 416.5156,470.0684 Q416.1719,470.0684 415.9688,469.8652 Q415.7656,469.6777 415.6563,469.1621 Q415.6094,468.8027 415.4219,468.6152 Q415.0938,468.2402 414.4844,468.0215 Q413.875,467.8027 413.25,467.8027 Q412.4844,467.8027 411.8438,468.1309 Q411.2188,468.459 410.7188,469.209 Q410.2344,469.959 410.2344,470.9902 L410.2344,472.084 Q410.2344,473.3184 411.125,474.1465 Q412.0156,474.959 413.6094,474.959 Q414.5469,474.959 415.2031,474.709 Q415.5938,474.5527 416.0156,474.1152 Q416.2813,473.8496 416.4219,473.7715 Q416.5781,473.6934 416.7813,473.6934 Q417.1094,473.6934 417.3594,473.959 Q417.625,474.209 417.625,474.5527 Q417.625,474.8965 417.2813,475.3027 Q416.7813,475.8809 415.9844,476.209 Q414.9063,476.6621 413.6094,476.6621 Q412.0938,476.6621 410.8906,476.0371 Q409.9063,475.5371 409.2188,474.4746 Q408.5313,473.3965 408.5313,472.1152 L408.5313,470.959 Q408.5313,469.6309 409.1406,468.4902 Q409.7656,467.334 410.8594,466.7246 Q411.9531,466.0996 413.1875,466.0996 Q413.9219,466.0996 414.5625,466.2715 Q415.2188,466.4277 415.7656,466.7871 Z " fill="#000000"/><text fill="#000000" font-family="sans-serif" font-size="12" font-style="italic" lengthAdjust="spacing" textLength="68" x="464.5" y="466.5703">&#171;repository&#187;</text><text fill="#000000" font-family="sans-serif" font-size="14" lengthAdjust="spacing" textLength="143" x="427" y="484.6895">SystemUserRepository</text><line style="stroke:#181818;stroke-width:0.5;" x1="399" x2="572" y1="493.2031" y2="493.2031"/><line style="stroke:#181818;stroke-width:0.5;" x1="399" x2="572" y1="501.2031" y2="501.2031"/></g><!--class RepositoryFactory--><g id="elem_RepositoryFactory"><rect codeLine="16" fill="#F1F1F1" height="60.582" id="RepositoryFactory" rx="2.5" ry="2.5" style="stroke:#181818;stroke-width:0.5;" width="148" x="676.5" y="596.6211"/><ellipse cx="691.5" cy="618.9121" fill="#ADD1B2" rx="11" ry="11" style="stroke:#181818;stroke-width:1.0;"/><path d="M694.2656,614.7871 Q694.4219,614.5684 694.6094,614.459 Q694.7969,614.3496 695.0156,614.3496 Q695.3906,614.3496 695.625,614.6152 Q695.8594,614.8652 695.8594,615.4746 L695.8594,616.9277 Q695.8594,617.5371 695.625,617.8027 Q695.3906,618.0684 695.0156,618.0684 Q694.6719,618.0684 694.4688,617.8652 Q694.2656,617.6777 694.1563,617.1621 Q694.1094,616.8027 693.9219,616.6152 Q693.5938,616.2402 692.9844,616.0215 Q692.375,615.8027 691.75,615.8027 Q690.9844,615.8027 690.3438,616.1309 Q689.7188,616.459 689.2188,617.209 Q688.7344,617.959 688.7344,618.9902 L688.7344,620.084 Q688.7344,621.3184 689.625,622.1465 Q690.5156,622.959 692.1094,622.959 Q693.0469,622.959 693.7031,622.709 Q694.0938,622.5527 694.5156,622.1152 Q694.7813,621.8496 694.9219,621.7715 Q695.0781,621.6934 695.2813,621.6934 Q695.6094,621.6934 695.8594,621.959 Q696.125,622.209 696.125,622.5527 Q696.125,622.8965 695.7813,623.3027 Q695.2813,623.8809 694.4844,624.209 Q693.4063,624.6621 692.1094,624.6621 Q690.5938,624.6621 689.3906,624.0371 Q688.4063,623.5371 687.7188,622.4746 Q687.0313,621.3965 687.0313,620.1152 L687.0313,618.959 Q687.0313,617.6309 687.6406,616.4902 Q688.2656,615.334 689.3594,614.7246 Q690.4531,614.0996 691.6875,614.0996 Q692.4219,614.0996 693.0625,614.2715 Q693.7188,614.4277 694.2656,614.7871 Z " fill="#000000"/><text fill="#000000" font-family="sans-serif" font-size="12" font-style="italic" lengthAdjust="spacing" textLength="50" x="738.5" y="614.5703">&#171;factory&#187;</text><text fill="#000000" font-family="sans-serif" font-size="14" lengthAdjust="spacing" textLength="116" x="705.5" y="632.6895">RepositoryFactory</text><line style="stroke:#181818;stroke-width:0.5;" x1="677.5" x2="823.5" y1="641.2031" y2="641.2031"/><line style="stroke:#181818;stroke-width:0.5;" x1="677.5" x2="823.5" y1="649.2031" y2="649.2031"/></g><!--class EmailAddress--><g id="elem_EmailAddress"><rect codeLine="18" fill="#F1F1F1" height="76.543" id="EmailAddress" rx="2.5" ry="2.5" style="stroke:#181818;stroke-width:0.5;" width="118" x="309.5" y="588.6211"/><ellipse cx="324.5" cy="618.8926" fill="#ADD1B2" rx="11" ry="11" style="stroke:#181818;stroke-width:1.0;"/><path d="M327.2656,614.7676 Q327.4219,614.5488 327.6094,614.4395 Q327.7969,614.3301 328.0156,614.3301 Q328.3906,614.3301 328.625,614.5957 Q328.8594,614.8457 328.8594,615.4551 L328.8594,616.9082 Q328.8594,617.5176 328.625,617.7832 Q328.3906,618.0488 328.0156,618.0488 Q327.6719,618.0488 327.4688,617.8457 Q327.2656,617.6582 327.1563,617.1426 Q327.1094,616.7832 326.9219,616.5957 Q326.5938,616.2207 325.9844,616.002 Q325.375,615.7832 324.75,615.7832 Q323.9844,615.7832 323.3438,616.1113 Q322.7188,616.4395 322.2188,617.1895 Q321.7344,617.9395 321.7344,618.9707 L321.7344,620.0645 Q321.7344,621.2988 322.625,622.127 Q323.5156,622.9395 325.1094,622.9395 Q326.0469,622.9395 326.7031,622.6895 Q327.0938,622.5332 327.5156,622.0957 Q327.7813,621.8301 327.9219,621.752 Q328.0781,621.6738 328.2813,621.6738 Q328.6094,621.6738 328.8594,621.9395 Q329.125,622.1895 329.125,622.5332 Q329.125,622.877 328.7813,623.2832 Q328.2813,623.8613 327.4844,624.1895 Q326.4063,624.6426 325.1094,624.6426 Q323.5938,624.6426 322.3906,624.0176 Q321.4063,623.5176 320.7188,622.4551 Q320.0313,621.377 320.0313,620.0957 L320.0313,618.9395 Q320.0313,617.6113 320.6406,616.4707 Q321.2656,615.3145 322.3594,614.7051 Q323.4531,614.0801 324.6875,614.0801 Q325.4219,614.0801 326.0625,614.252 Q326.7188,614.4082 327.2656,614.7676 Z " fill="#000000"/><text fill="#000000" font-family="sans-serif" font-size="12" font-style="italic" lengthAdjust="spacing" textLength="44" x="359.5" y="606.5703">&#171;value&#187;</text><text fill="#000000" font-family="sans-serif" font-size="12" font-style="italic" lengthAdjust="spacing" textLength="24" x="369.5" y="622.5313">&#171;id&#187;</text><text fill="#000000" font-family="sans-serif" font-size="14" lengthAdjust="spacing" textLength="86" x="338.5" y="640.6504">EmailAddress</text><line style="stroke:#181818;stroke-width:0.5;" x1="310.5" x2="426.5" y1="649.1641" y2="649.1641"/><line style="stroke:#181818;stroke-width:0.5;" x1="310.5" x2="426.5" y1="657.1641" y2="657.1641"/></g><!--class SystemUser--><g id="elem_SystemUser"><rect codeLine="20" fill="#F1F1F1" height="60.582" id="SystemUser" rx="2.5" ry="2.5" style="stroke:#181818;stroke-width:0.5;" width="107" x="167" y="596.6211"/><ellipse cx="182" cy="618.9121" fill="#ADD1B2" rx="11" ry="11" style="stroke:#181818;stroke-width:1.0;"/><path d="M184.7656,614.7871 Q184.9219,614.5684 185.1094,614.459 Q185.2969,614.3496 185.5156,614.3496 Q185.8906,614.3496 186.125,614.6152 Q186.3594,614.8652 186.3594,615.4746 L186.3594,616.9277 Q186.3594,617.5371 186.125,617.8027 Q185.8906,618.0684 185.5156,618.0684 Q185.1719,618.0684 184.9688,617.8652 Q184.7656,617.6777 184.6563,617.1621 Q184.6094,616.8027 184.4219,616.6152 Q184.0938,616.2402 183.4844,616.0215 Q182.875,615.8027 182.25,615.8027 Q181.4844,615.8027 180.8438,616.1309 Q180.2188,616.459 179.7188,617.209 Q179.2344,617.959 179.2344,618.9902 L179.2344,620.084 Q179.2344,621.3184 180.125,622.1465 Q181.0156,622.959 182.6094,622.959 Q183.5469,622.959 184.2031,622.709 Q184.5938,622.5527 185.0156,622.1152 Q185.2813,621.8496 185.4219,621.7715 Q185.5781,621.6934 185.7813,621.6934 Q186.1094,621.6934 186.3594,621.959 Q186.625,622.209 186.625,622.5527 Q186.625,622.8965 186.2813,623.3027 Q185.7813,623.8809 184.9844,624.209 Q183.9063,624.6621 182.6094,624.6621 Q181.0938,624.6621 179.8906,624.0371 Q178.9063,623.5371 178.2188,622.4746 Q177.5313,621.3965 177.5313,620.1152 L177.5313,618.959 Q177.5313,617.6309 178.1406,616.4902 Q178.7656,615.334 179.8594,614.7246 Q180.9531,614.0996 182.1875,614.0996 Q182.9219,614.0996 183.5625,614.2715 Q184.2188,614.4277 184.7656,614.7871 Z " fill="#000000"/><text fill="#000000" font-family="sans-serif" font-size="12" font-style="italic" lengthAdjust="spacing" textLength="35" x="216" y="614.5703">&#171;root&#187;</text><text fill="#000000" font-family="sans-serif" font-size="14" lengthAdjust="spacing" textLength="75" x="196" y="632.6895">SystemUser</text><line style="stroke:#181818;stroke-width:0.5;" x1="168" x2="273" y1="641.2031" y2="641.2031"/><line style="stroke:#181818;stroke-width:0.5;" x1="168" x2="273" y1="649.2031" y2="649.2031"/></g><!--class Name--><g id="elem_Name"><rect codeLine="22" fill="#F1F1F1" height="60.582" id="Name" rx="2.5" ry="2.5" style="stroke:#181818;stroke-width:0.5;" width="72" x="462.5" y="596.6211"/><ellipse cx="477.5" cy="618.9121" fill="#ADD1B2" rx="11" ry="11" style="stroke:#181818;stroke-width:1.0;"/><path d="M480.2656,614.7871 Q480.4219,614.5684 480.6094,614.459 Q480.7969,614.3496 481.0156,614.3496 Q481.3906,614.3496 481.625,614.6152 Q481.8594,614.8652 481.8594,615.4746 L481.8594,616.9277 Q481.8594,617.5371 481.625,617.8027 Q481.3906,618.0684 481.0156,618.0684 Q480.6719,618.0684 480.4688,617.8652 Q480.2656,617.6777 480.1563,617.1621 Q480.1094,616.8027 479.9219,616.6152 Q479.5938,616.2402 478.9844,616.0215 Q478.375,615.8027 477.75,615.8027 Q476.9844,615.8027 476.3438,616.1309 Q475.7188,616.459 475.2188,617.209 Q474.7344,617.959 474.7344,618.9902 L474.7344,620.084 Q474.7344,621.3184 475.625,622.1465 Q476.5156,622.959 478.1094,622.959 Q479.0469,622.959 479.7031,622.709 Q480.0938,622.5527 480.5156,622.1152 Q480.7813,621.8496 480.9219,621.7715 Q481.0781,621.6934 481.2813,621.6934 Q481.6094,621.6934 481.8594,621.959 Q482.125,622.209 482.125,622.5527 Q482.125,622.8965 481.7813,623.3027 Q481.2813,623.8809 480.4844,624.209 Q479.4063,624.6621 478.1094,624.6621 Q476.5938,624.6621 475.3906,624.0371 Q474.4063,623.5371 473.7188,622.4746 Q473.0313,621.3965 473.0313,620.1152 L473.0313,618.959 Q473.0313,617.6309 473.6406,616.4902 Q474.2656,615.334 475.3594,614.7246 Q476.4531,614.0996 477.6875,614.0996 Q478.4219,614.0996 479.0625,614.2715 Q479.7188,614.4277 480.2656,614.7871 Z " fill="#000000"/><text fill="#000000" font-family="sans-serif" font-size="12" font-style="italic" lengthAdjust="spacing" textLength="44" x="489.5" y="614.5703">&#171;value&#187;</text><text fill="#000000" font-family="sans-serif" font-size="14" lengthAdjust="spacing" textLength="36" x="493.5" y="632.6895">Name</text><line style="stroke:#181818;stroke-width:0.5;" x1="463.5" x2="533.5" y1="641.2031" y2="641.2031"/><line style="stroke:#181818;stroke-width:0.5;" x1="463.5" x2="533.5" y1="649.2031" y2="649.2031"/></g><!--class RoleSet--><g id="elem_RoleSet"><rect codeLine="30" fill="#F1F1F1" height="60.582" id="RoleSet" rx="2.5" ry="2.5" style="stroke:#181818;stroke-width:0.5;" width="82" x="49.5" y="596.6211"/><ellipse cx="64.5" cy="618.9121" fill="#ADD1B2" rx="11" ry="11" style="stroke:#181818;stroke-width:1.0;"/><path d="M67.2656,614.7871 Q67.4219,614.5684 67.6094,614.459 Q67.7969,614.3496 68.0156,614.3496 Q68.3906,614.3496 68.625,614.6152 Q68.8594,614.8652 68.8594,615.4746 L68.8594,616.9277 Q68.8594,617.5371 68.625,617.8027 Q68.3906,618.0684 68.0156,618.0684 Q67.6719,618.0684 67.4688,617.8652 Q67.2656,617.6777 67.1563,617.1621 Q67.1094,616.8027 66.9219,616.6152 Q66.5938,616.2402 65.9844,616.0215 Q65.375,615.8027 64.75,615.8027 Q63.9844,615.8027 63.3438,616.1309 Q62.7188,616.459 62.2188,617.209 Q61.7344,617.959 61.7344,618.9902 L61.7344,620.084 Q61.7344,621.3184 62.625,622.1465 Q63.5156,622.959 65.1094,622.959 Q66.0469,622.959 66.7031,622.709 Q67.0938,622.5527 67.5156,622.1152 Q67.7813,621.8496 67.9219,621.7715 Q68.0781,621.6934 68.2813,621.6934 Q68.6094,621.6934 68.8594,621.959 Q69.125,622.209 69.125,622.5527 Q69.125,622.8965 68.7813,623.3027 Q68.2813,623.8809 67.4844,624.209 Q66.4063,624.6621 65.1094,624.6621 Q63.5938,624.6621 62.3906,624.0371 Q61.4063,623.5371 60.7188,622.4746 Q60.0313,621.3965 60.0313,620.1152 L60.0313,618.959 Q60.0313,617.6309 60.6406,616.4902 Q61.2656,615.334 62.3594,614.7246 Q63.4531,614.0996 64.6875,614.0996 Q65.4219,614.0996 66.0625,614.2715 Q66.7188,614.4277 67.2656,614.7871 Z " fill="#000000"/><text fill="#000000" font-family="sans-serif" font-size="12" font-style="italic" lengthAdjust="spacing" textLength="44" x="81.5" y="614.5703">&#171;value&#187;</text><text fill="#000000" font-family="sans-serif" font-size="14" lengthAdjust="spacing" textLength="50" x="78.5" y="632.6895">RoleSet</text><line style="stroke:#181818;stroke-width:0.5;" x1="50.5" x2="130.5" y1="641.2031" y2="641.2031"/><line style="stroke:#181818;stroke-width:0.5;" x1="50.5" x2="130.5" y1="649.2031" y2="649.2031"/></g><!--class RoleAssignment--><g id="elem_RoleAssignment"><rect codeLine="26" fill="#F1F1F1" height="60.582" id="RoleAssignment" rx="2.5" ry="2.5" style="stroke:#181818;stroke-width:0.5;" width="134" x="410.5" y="726.6211"/><ellipse cx="425.5" cy="748.9121" fill="#ADD1B2" rx="11" ry="11" style="stroke:#181818;stroke-width:1.0;"/><path d="M428.2656,744.7871 Q428.4219,744.5684 428.6094,744.459 Q428.7969,744.3496 429.0156,744.3496 Q429.3906,744.3496 429.625,744.6152 Q429.8594,744.8652 429.8594,745.4746 L429.8594,746.9277 Q429.8594,747.5371 429.625,747.8027 Q429.3906,748.0684 429.0156,748.0684 Q428.6719,748.0684 428.4688,747.8652 Q428.2656,747.6777 428.1563,747.1621 Q428.1094,746.8027 427.9219,746.6152 Q427.5938,746.2402 426.9844,746.0215 Q426.375,745.8027 425.75,745.8027 Q424.9844,745.8027 424.3438,746.1309 Q423.7188,746.459 423.2188,747.209 Q422.7344,747.959 422.7344,748.9902 L422.7344,750.084 Q422.7344,751.3184 423.625,752.1465 Q424.5156,752.959 426.1094,752.959 Q427.0469,752.959 427.7031,752.709 Q428.0938,752.5527 428.5156,752.1152 Q428.7813,751.8496 428.9219,751.7715 Q429.0781,751.6934 429.2813,751.6934 Q429.6094,751.6934 429.8594,751.959 Q430.125,752.209 430.125,752.5527 Q430.125,752.8965 429.7813,753.3027 Q429.2813,753.8809 428.4844,754.209 Q427.4063,754.6621 426.1094,754.6621 Q424.5938,754.6621 423.3906,754.0371 Q422.4063,753.5371 421.7188,752.4746 Q421.0313,751.3965 421.0313,750.1152 L421.0313,748.959 Q421.0313,747.6309 421.6406,746.4902 Q422.2656,745.334 423.3594,744.7246 Q424.4531,744.0996 425.6875,744.0996 Q426.4219,744.0996 427.0625,744.2715 Q427.7188,744.4277 428.2656,744.7871 Z " fill="#000000"/><text fill="#000000" font-family="sans-serif" font-size="12" font-style="italic" lengthAdjust="spacing" textLength="43" x="469" y="744.5703">&#171;entity&#187;</text><text fill="#000000" font-family="sans-serif" font-size="14" lengthAdjust="spacing" textLength="102" x="439.5" y="762.6895">RoleAssignment</text><line style="stroke:#181818;stroke-width:0.5;" x1="411.5" x2="543.5" y1="771.2031" y2="771.2031"/><line style="stroke:#181818;stroke-width:0.5;" x1="411.5" x2="543.5" y1="779.2031" y2="779.2031"/></g><!--class Role--><g id="elem_Role"><rect codeLine="28" fill="#F1F1F1" height="60.582" id="Role" rx="2.5" ry="2.5" style="stroke:#181818;stroke-width:0.5;" width="72" x="569.5" y="596.6211"/><ellipse cx="584.5" cy="618.9121" fill="#EB937F" rx="11" ry="11" style="stroke:#181818;stroke-width:1.0;"/><path d="M583.3594,619.709 L583.3594,622.209 L587.6875,622.209 L587.6875,621.2871 Q587.6875,620.6777 587.9219,620.4121 Q588.1719,620.1465 588.5469,620.1465 Q588.9219,620.1465 589.1563,620.4121 Q589.3906,620.6777 589.3906,621.2871 L589.3906,623.9121 L581.3906,623.9121 Q580.7656,623.9121 580.5,623.6777 Q580.25,623.4434 580.25,623.0527 Q580.25,622.6777 580.5156,622.4434 Q580.7813,622.209 581.3906,622.209 L581.6563,622.209 L581.6563,615.5527 L581.3906,615.5527 Q580.7656,615.5527 580.5,615.3184 Q580.25,615.084 580.25,614.6934 Q580.25,614.3184 580.5,614.084 Q580.7656,613.8496 581.3906,613.8496 L589.0156,613.8496 L589.0156,616.4434 Q589.0156,617.0527 588.7813,617.3184 Q588.5625,617.5684 588.1719,617.5684 Q587.7969,617.5684 587.5625,617.3184 Q587.3281,617.0527 587.3281,616.4434 L587.3281,615.5527 L583.3594,615.5527 L583.3594,618.0059 L584.8438,618.0059 Q584.8438,617.3496 584.9688,617.1621 Q585.2344,616.7559 585.7031,616.7559 Q586.0781,616.7559 586.3125,617.0215 Q586.5469,617.2715 586.5469,617.8809 L586.5469,619.8496 Q586.5469,620.3965 586.4219,620.584 Q586.1563,620.9746 585.7031,620.9746 Q585.2344,620.9746 584.9688,620.5684 Q584.8438,620.3809 584.8438,619.709 L583.3594,619.709 Z " fill="#000000"/><text fill="#000000" font-family="sans-serif" font-size="12" font-style="italic" lengthAdjust="spacing" textLength="44" x="596.5" y="614.5703">&#171;value&#187;</text><text fill="#000000" font-family="sans-serif" font-size="14" lengthAdjust="spacing" textLength="29" x="604" y="632.6895">Role</text><line style="stroke:#181818;stroke-width:0.5;" x1="570.5" x2="640.5" y1="641.2031" y2="641.2031"/><line style="stroke:#181818;stroke-width:0.5;" x1="570.5" x2="640.5" y1="649.2031" y2="649.2031"/></g><!--class Set--><g id="elem_Set"><rect codeLine="32" fill="#F1F1F1" height="60.582" id="Set" rx="2.5" ry="2.5" style="stroke:#181818;stroke-width:0.5;" width="167" x="7" y="726.6211"/><ellipse cx="22" cy="748.9121" fill="#ADD1B2" rx="11" ry="11" style="stroke:#181818;stroke-width:1.0;"/><path d="M24.7656,744.7871 Q24.9219,744.5684 25.1094,744.459 Q25.2969,744.3496 25.5156,744.3496 Q25.8906,744.3496 26.125,744.6152 Q26.3594,744.8652 26.3594,745.4746 L26.3594,746.9277 Q26.3594,747.5371 26.125,747.8027 Q25.8906,748.0684 25.5156,748.0684 Q25.1719,748.0684 24.9688,747.8652 Q24.7656,747.6777 24.6563,747.1621 Q24.6094,746.8027 24.4219,746.6152 Q24.0938,746.2402 23.4844,746.0215 Q22.875,745.8027 22.25,745.8027 Q21.4844,745.8027 20.8438,746.1309 Q20.2188,746.459 19.7188,747.209 Q19.2344,747.959 19.2344,748.9902 L19.2344,750.084 Q19.2344,751.3184 20.125,752.1465 Q21.0156,752.959 22.6094,752.959 Q23.5469,752.959 24.2031,752.709 Q24.5938,752.5527 25.0156,752.1152 Q25.2813,751.8496 25.4219,751.7715 Q25.5781,751.6934 25.7813,751.6934 Q26.1094,751.6934 26.3594,751.959 Q26.625,752.209 26.625,752.5527 Q26.625,752.8965 26.2813,753.3027 Q25.7813,753.8809 24.9844,754.209 Q23.9063,754.6621 22.6094,754.6621 Q21.0938,754.6621 19.8906,754.0371 Q18.9063,753.5371 18.2188,752.4746 Q17.5313,751.3965 17.5313,750.1152 L17.5313,748.959 Q17.5313,747.6309 18.1406,746.4902 Q18.7656,745.334 19.8594,744.7246 Q20.9531,744.0996 22.1875,744.0996 Q22.9219,744.0996 23.5625,744.2715 Q24.2188,744.4277 24.7656,744.7871 Z " fill="#000000"/><text fill="#000000" font-family="sans-serif" font-size="12" font-style="italic" lengthAdjust="spacing" textLength="44" x="34" y="744.5703">&#171;value&#187;</text><text fill="#000000" font-family="sans-serif" font-size="14" lengthAdjust="spacing" textLength="21" x="45.5" y="762.6895">Set</text><rect fill="#FFFFFF" height="17.9609" style="stroke:#181818;stroke-width:1.0;stroke-dasharray:2.0,2.0;" width="93" x="84" y="723.6211"/><text fill="#000000" font-family="sans-serif" font-size="12" font-style="italic" lengthAdjust="spacing" textLength="91" x="85" y="737.5703">RoleAssignment</text><line style="stroke:#181818;stroke-width:0.5;" x1="8" x2="173" y1="771.2031" y2="771.2031"/><line style="stroke:#181818;stroke-width:0.5;" x1="8" x2="173" y1="779.2031" y2="779.2031"/></g><!--link DeactivateUserUI to DeactivateUserController--><g id="link_DeactivateUserUI_DeactivateUserController"><path codeLine="34" d="M485.5,107.7811 C485.5,126.2411 485.5,143.9111 485.5,162.3811 " fill="none" id="DeactivateUserUI-to-DeactivateUserController" style="stroke:#181818;stroke-width:1.0;stroke-dasharray:7.0,7.0;"/><polygon fill="#181818" points="485.5,168.3811,489.5,159.3811,485.5,163.3811,481.5,159.3811,485.5,168.3811" style="stroke:#181818;stroke-width:1.0;"/></g><!--link DeactivateUserController to UserManagementService--><g id="link_DeactivateUserController_UserManagementService"><path codeLine="36" d="M485.5,229.7211 C485.5,253.0111 485.5,279.2911 485.5,302.5611 " fill="none" id="DeactivateUserController-to-UserManagementService" style="stroke:#181818;stroke-width:1.0;stroke-dasharray:7.0,7.0;"/><polygon fill="#181818" points="485.5,308.5611,489.5,299.5611,485.5,303.5611,481.5,299.5611,485.5,308.5611" style="stroke:#181818;stroke-width:1.0;"/><polygon fill="#000000" points="490.5,274.2666,493.4389,265.2215,487.5611,265.2215,490.5,274.2666" style="stroke:#000000;stroke-width:1.0;"/><text fill="#000000" font-family="sans-serif" font-size="13" lengthAdjust="spacing" textLength="28" x="499.5" y="274.6494">uses</text></g><!--link UserManagementService to SystemUserRepository--><g id="link_UserManagementService_SystemUserRepository"><path codeLine="38" d="M485.5,369.7211 C485.5,393.0111 485.5,419.2911 485.5,442.5611 " fill="none" id="UserManagementService-to-SystemUserRepository" style="stroke:#181818;stroke-width:1.0;stroke-dasharray:7.0,7.0;"/><polygon fill="#181818" points="485.5,448.5611,489.5,439.5611,485.5,443.5611,481.5,439.5611,485.5,448.5611" style="stroke:#181818;stroke-width:1.0;"/><polygon fill="#000000" points="490.5,414.2666,493.4389,405.2215,487.5611,405.2215,490.5,414.2666" style="stroke:#000000;stroke-width:1.0;"/><text fill="#000000" font-family="sans-serif" font-size="13" lengthAdjust="spacing" textLength="56" x="499.5" y="414.6494">accesses</text></g><!--reverse link SystemUserRepository to RepositoryFactory--><g id="link_SystemUserRepository_RepositoryFactory"><path codeLine="40" d="M544.385,512.5667 C590.355,537.8967 651,571.3011 696.95,596.6211 " fill="none" id="SystemUserRepository-backto-RepositoryFactory" style="stroke:#181818;stroke-width:1.0;stroke-dasharray:7.0,7.0;"/><polygon fill="#181818" points="539.13,509.6711,545.0822,517.5178,543.5092,512.0841,548.943,510.5111,539.13,509.6711" style="stroke:#181818;stroke-width:1.0;"/><polygon fill="#000000" points="627.1207,546.8538,633.6248,553.7927,636.4611,548.6445,627.1207,546.8538" style="stroke:#000000;stroke-width:1.0;"/><text fill="#000000" font-family="sans-serif" font-size="13" lengthAdjust="spacing" textLength="43" x="640.5" y="554.6494">creates</text></g><!--link SystemUserRepository to SystemUser--><g id="link_SystemUserRepository_SystemUser"><path codeLine="41" d="M431.87,509.6711 C385.9,535.0011 325.255,568.4054 279.305,593.7254 " fill="none" id="SystemUserRepository-to-SystemUser" style="stroke:#181818;stroke-width:1.0;stroke-dasharray:7.0,7.0;"/><polygon fill="#181818" points="274.05,596.6211,283.863,595.7809,278.4292,594.208,280.002,588.7742,274.05,596.6211" style="stroke:#181818;stroke-width:1.0;"/><polygon fill="#000000" points="378.1207,551.6794,387.4611,549.8888,384.6248,544.7405,378.1207,551.6794" style="stroke:#000000;stroke-width:1.0;"/><text fill="#000000" font-family="sans-serif" font-size="13" lengthAdjust="spacing" textLength="104" x="391.5" y="554.6494">saves in database</text></g><!--link SystemUser to Name--><g id="link_SystemUser_Name"><path codeLine="43" d="M245.24,596.2711 C261.32,578.8011 283.9,558.6011 309,549.1211 C358.06,530.5911 379,528.0011 427,549.1211 C449.03,558.8111 463.7251,574.1412 476.2551,591.5512 " fill="none" id="SystemUser-to-Name" style="stroke:#181818;stroke-width:1.0;"/><polygon fill="#181818" points="479.76,596.4211,477.7493,586.7797,476.8393,592.3628,471.2561,591.4528,479.76,596.4211" style="stroke:#181818;stroke-width:1.0;"/></g><!--link SystemUser to EmailAddress--><g id="link_SystemUser_EmailAddress"><path codeLine="44" d="M274.27,627.1211 C285.92,627.1211 291.58,627.1211 303.24,627.1211 " fill="none" id="SystemUser-to-EmailAddress" style="stroke:#181818;stroke-width:1.0;"/><polygon fill="#181818" points="309.24,627.1211,300.24,623.1211,304.24,627.1211,300.24,631.1211,309.24,627.1211" style="stroke:#181818;stroke-width:1.0;"/></g><!--reverse link RoleSet to SystemUser--><g id="link_RoleSet_SystemUser"><path codeLine="45" d="M137.63,627.1211 C149.32,627.1211 155.01,627.1211 166.69,627.1211 " fill="none" id="RoleSet-backto-SystemUser" style="stroke:#181818;stroke-width:1.0;"/><polygon fill="#181818" points="131.63,627.1211,140.63,631.1211,136.63,627.1211,140.63,623.1211,131.63,627.1211" style="stroke:#181818;stroke-width:1.0;"/></g><!--link RoleSet to Set--><g id="link_RoleSet_Set"><path codeLine="46" d="M90.5,657.8111 C90.5,678.4911 90.5,687.9511 90.5,708.5911 " fill="none" id="RoleSet-to-Set" style="stroke:#181818;stroke-width:1.0;stroke-dasharray:7.0,7.0;"/><polygon fill="none" points="90.5,726.5911,96.5,708.5911,84.5,708.5911,90.5,726.5911" style="stroke:#181818;stroke-width:1.0;"/></g><!--link RoleSet to RoleAssignment--><g id="link_RoleSet_RoleAssignment"><path codeLine="47" d="M131.54,656.3511 C137.42,659.7611 143.51,662.9611 149.5,665.6211 C236.02,704.0211 336.8728,728.6032 404.6028,742.5232 " fill="none" id="RoleSet-to-RoleAssignment" style="stroke:#181818;stroke-width:1.0;stroke-dasharray:7.0,7.0;"/><polygon fill="#181818" points="410.48,743.7311,402.4695,738.0012,405.5824,742.7245,400.859,745.8374,410.48,743.7311" style="stroke:#181818;stroke-width:1.0;"/></g><!--reverse link Role to RoleAssignment--><g id="link_Role_RoleAssignment"><path codeLine="48" d="M571.5674,662.0537 C550.8874,682.7337 527.67,705.9511 507.03,726.5911 " fill="none" id="Role-backto-RoleAssignment" style="stroke:#181818;stroke-width:1.0;"/><polygon fill="#181818" points="575.81,657.8111,566.6176,661.3466,572.2745,661.3466,572.2745,667.0035,575.81,657.8111" style="stroke:#181818;stroke-width:1.0;"/></g><!--SRC=[bPEnJiCm48PtFuL7619LOgkYI5KBKWSOYFe0L-SQh3fsPL-2YdXupWqqIJ43IsJx_yx_NVua7BKzWOTMda0TeS6ApWQbHqLW6uCYN87m1hLxrxQH1p01nKHI1a9O4NczxmYtojbAVw1S246Q-BfrrEL6GnFfk_NcNcPojrui7eHGWuQWIFT0k0leTrjP5DeI-WCeBCiqjNQMl3C6FTFgkXdn23s3vQbQj5IXxxL2PiEm6i7g70ZRYB_YoGLDpf-PyzVDY8x04_SoS8TXDKAFBMYpgckFl2cA7ap7Rd6cEcKQhPoZKNg15iUwgxKpM26bXLK8kh5nJjRvgUdI3zgklUZ_k8uFY_cLvHJw5LMUbtycSujFCejbwOIMiWiO97kbzLYPZ6mfGIb-vqDnEjKyJsIubCeZjyXffSlcbim7w9dMLjP0i8U0SqUPbPSKRuwc7yPCCdWWrhyp4J_PvFbdAMS7_0lQlBo9N0m9Pr7CRhKl]--></g></svg>