<?xml version="1.0" encoding="us-ascii" standalone="no"?><svg xmlns="http://www.w3.org/2000/svg" xmlns:xlink="http://www.w3.org/1999/xlink" contentStyleType="text/css" height="1191px" preserveAspectRatio="none" style="width:1233px;height:1191px;background:#FFFFFF;" version="1.1" viewBox="0 0 1233 1191" width="1233px" zoomAndPan="magnify"><defs/><g><text fill="#000000" font-family="sans-serif" font-size="14" font-weight="bold" lengthAdjust="spacing" textLength="222" x="504.75" y="30.1074">Sequence Diagram (SD) - UC003</text><rect fill="#FFFFFF" height="913.4395" style="stroke:#181818;stroke-width:1.0;" width="10" x="192.5" y="161.1543"/><rect fill="#FFFFFF" height="475.3652" style="stroke:#181818;stroke-width:1.0;" width="10" x="339.5" y="192.4453"/><rect fill="#FFFFFF" height="281.6191" style="stroke:#181818;stroke-width:1.0;" width="10" x="339.5" y="761.6836"/><rect fill="#FFFFFF" height="99.873" style="stroke:#181818;stroke-width:1.0;" width="10" x="497.5" y="223.7363"/><rect fill="#FFFFFF" height="62.582" style="stroke:#181818;stroke-width:1.0;" width="10" x="640.5" y="354.9004"/><rect fill="#FFFFFF" height="31.291" style="stroke:#181818;stroke-width:1.0;" width="10" x="790" y="480.0645"/><rect fill="#FFFFFF" height="31.291" style="stroke:#181818;stroke-width:1.0;" width="10" x="790" y="792.9746"/><rect fill="#FFFFFF" height="31.291" style="stroke:#181818;stroke-width:1.0;" width="10" x="790" y="949.4297"/><rect fill="#FFFFFF" height="187.7461" style="stroke:#181818;stroke-width:1.0;" width="10" x="960.5" y="448.7734"/><rect fill="#FFFFFF" height="156.4551" style="stroke:#181818;stroke-width:1.0;" width="10" x="960.5" y="855.5566"/><rect fill="#FFFFFF" height="31.291" style="stroke:#181818;stroke-width:1.0;" width="10" x="1139.5" y="573.9375"/><rect fill="#FFFFFF" height="31.291" style="stroke:#181818;stroke-width:1.0;" width="10" x="1139.5" y="886.8477"/><line style="stroke:#181818;stroke-width:0.5;stroke-dasharray:5.0,5.0;" x1="27" x2="27" y1="127.8633" y2="1092.5938"/><line style="stroke:#181818;stroke-width:0.5;stroke-dasharray:5.0,5.0;" x1="197.5" x2="197.5" y1="127.8633" y2="1092.5938"/><line style="stroke:#181818;stroke-width:0.5;stroke-dasharray:5.0,5.0;" x1="344.5" x2="344.5" y1="127.8633" y2="1092.5938"/><line style="stroke:#181818;stroke-width:0.5;stroke-dasharray:5.0,5.0;" x1="502.5" x2="502.5" y1="127.8633" y2="1092.5938"/><line style="stroke:#181818;stroke-width:0.5;stroke-dasharray:5.0,5.0;" x1="645.5" x2="645.5" y1="127.8633" y2="1092.5938"/><line style="stroke:#181818;stroke-width:0.5;stroke-dasharray:5.0,5.0;" x1="794.5" x2="794.5" y1="127.8633" y2="1092.5938"/><line style="stroke:#181818;stroke-width:0.5;stroke-dasharray:5.0,5.0;" x1="965.5" x2="965.5" y1="127.8633" y2="1092.5938"/><line style="stroke:#181818;stroke-width:0.5;stroke-dasharray:5.0,5.0;" x1="1144.5" x2="1144.5" y1="127.8633" y2="1092.5938"/><text fill="#000000" font-family="sans-serif" font-size="14" lengthAdjust="spacing" textLength="39" x="5" y="124.3496">Admin</text><ellipse cx="27.5" cy="57.7422" fill="#E2E2F0" rx="8" ry="8" style="stroke:#181818;stroke-width:0.5;"/><path d="M27.5,65.7422 L27.5,92.7422 M14.5,73.7422 L40.5,73.7422 M27.5,92.7422 L14.5,107.7422 M27.5,92.7422 L40.5,107.7422 " fill="none" style="stroke:#181818;stroke-width:0.5;"/><text fill="#000000" font-family="sans-serif" font-size="14" lengthAdjust="spacing" textLength="39" x="5" y="1106.7012">Admin</text><ellipse cx="27.5" cy="1118.7148" fill="#E2E2F0" rx="8" ry="8" style="stroke:#181818;stroke-width:0.5;"/><path d="M27.5,1126.7148 L27.5,1153.7148 M14.5,1134.7148 L40.5,1134.7148 M27.5,1153.7148 L14.5,1168.7148 M27.5,1153.7148 L40.5,1168.7148 " fill="none" style="stroke:#181818;stroke-width:0.5;"/><rect fill="#E2E2F0" height="51.2422" rx="2.5" ry="2.5" style="stroke:#181818;stroke-width:0.5;" width="110" x="142.5" y="75.6211"/><text fill="#000000" font-family="sans-serif" font-size="14" font-style="italic" lengthAdjust="spacing" textLength="95" x="150" y="97.7285">&#171;presentation&#187;</text><text fill="#000000" font-family="sans-serif" font-size="14" lengthAdjust="spacing" textLength="96" x="149.5" y="116.3496">DeactiveUserUI</text><rect fill="#E2E2F0" height="51.2422" rx="2.5" ry="2.5" style="stroke:#181818;stroke-width:0.5;" width="110" x="142.5" y="1091.5938"/><text fill="#000000" font-family="sans-serif" font-size="14" font-style="italic" lengthAdjust="spacing" textLength="95" x="150" y="1113.7012">&#171;presentation&#187;</text><text fill="#000000" font-family="sans-serif" font-size="14" lengthAdjust="spacing" textLength="96" x="149.5" y="1132.3223">DeactiveUserUI</text><rect fill="#E2E2F0" height="51.2422" rx="2.5" ry="2.5" style="stroke:#181818;stroke-width:0.5;" width="160" x="264.5" y="75.6211"/><text fill="#000000" font-family="sans-serif" font-size="14" font-style="italic" lengthAdjust="spacing" textLength="84" x="302.5" y="97.7285">&#171;application&#187;</text><text fill="#000000" font-family="sans-serif" font-size="14" lengthAdjust="spacing" textLength="146" x="271.5" y="116.3496">DeactiveUserController</text><rect fill="#E2E2F0" height="51.2422" rx="2.5" ry="2.5" style="stroke:#181818;stroke-width:0.5;" width="160" x="264.5" y="1091.5938"/><text fill="#000000" font-family="sans-serif" font-size="14" font-style="italic" lengthAdjust="spacing" textLength="84" x="302.5" y="1113.7012">&#171;application&#187;</text><text fill="#000000" font-family="sans-serif" font-size="14" lengthAdjust="spacing" textLength="146" x="271.5" y="1132.3223">DeactiveUserController</text><rect fill="#E2E2F0" height="51.2422" rx="2.5" ry="2.5" style="stroke:#181818;stroke-width:0.5;" width="136" x="434.5" y="75.6211"/><text fill="#000000" font-family="sans-serif" font-size="14" font-style="italic" lengthAdjust="spacing" textLength="89" x="458" y="97.7285">&#171;persistence&#187;</text><text fill="#000000" font-family="sans-serif" font-size="14" lengthAdjust="spacing" textLength="122" x="441.5" y="116.3496">PersistenceContext</text><rect fill="#E2E2F0" height="51.2422" rx="2.5" ry="2.5" style="stroke:#181818;stroke-width:0.5;" width="136" x="434.5" y="1091.5938"/><text fill="#000000" font-family="sans-serif" font-size="14" font-style="italic" lengthAdjust="spacing" textLength="89" x="458" y="1113.7012">&#171;persistence&#187;</text><text fill="#000000" font-family="sans-serif" font-size="14" lengthAdjust="spacing" textLength="122" x="441.5" y="1132.3223">PersistenceContext</text><rect fill="#E2E2F0" height="51.2422" rx="2.5" ry="2.5" style="stroke:#181818;stroke-width:0.5;" width="130" x="580.5" y="75.6211"/><text fill="#000000" font-family="sans-serif" font-size="14" font-style="italic" lengthAdjust="spacing" textLength="59" x="616" y="97.7285">&#171;factory&#187;</text><text fill="#000000" font-family="sans-serif" font-size="14" lengthAdjust="spacing" textLength="116" x="587.5" y="116.3496">RepositoryFactory</text><rect fill="#E2E2F0" height="51.2422" rx="2.5" ry="2.5" style="stroke:#181818;stroke-width:0.5;" width="130" x="580.5" y="1091.5938"/><text fill="#000000" font-family="sans-serif" font-size="14" font-style="italic" lengthAdjust="spacing" textLength="59" x="616" y="1113.7012">&#171;factory&#187;</text><text fill="#000000" font-family="sans-serif" font-size="14" lengthAdjust="spacing" textLength="116" x="587.5" y="1132.3223">RepositoryFactory</text><text fill="#000000" font-family="sans-serif" font-size="14" font-style="italic" lengthAdjust="spacing" textLength="79" x="752.5" y="105.7285">&#171;repository&#187;</text><text fill="#000000" font-family="sans-serif" font-size="14" lengthAdjust="spacing" textLength="143" x="720.5" y="124.3496">SystemUserRepository</text><path d="M777,54.6211 C777,44.6211 795,44.6211 795,44.6211 C795,44.6211 813,44.6211 813,54.6211 L813,80.6211 C813,90.6211 795,90.6211 795,90.6211 C795,90.6211 777,90.6211 777,80.6211 L777,54.6211 " fill="#E2E2F0" style="stroke:#181818;stroke-width:1.5;"/><path d="M777,54.6211 C777,64.6211 795,64.6211 795,64.6211 C795,64.6211 813,64.6211 813,54.6211 " fill="none" style="stroke:#181818;stroke-width:1.5;"/><text fill="#000000" font-family="sans-serif" font-size="14" font-style="italic" lengthAdjust="spacing" textLength="79" x="752.5" y="1106.7012">&#171;repository&#187;</text><text fill="#000000" font-family="sans-serif" font-size="14" lengthAdjust="spacing" textLength="143" x="720.5" y="1125.3223">SystemUserRepository</text><path d="M777,1138.8359 C777,1128.8359 795,1128.8359 795,1128.8359 C795,1128.8359 813,1128.8359 813,1138.8359 L813,1164.8359 C813,1174.8359 795,1174.8359 795,1174.8359 C795,1174.8359 777,1174.8359 777,1164.8359 L777,1138.8359 " fill="#E2E2F0" style="stroke:#181818;stroke-width:1.5;"/><path d="M777,1138.8359 C777,1148.8359 795,1148.8359 795,1148.8359 C795,1148.8359 813,1148.8359 813,1138.8359 " fill="none" style="stroke:#181818;stroke-width:1.5;"/><rect fill="#E2E2F0" height="51.2422" rx="2.5" ry="2.5" style="stroke:#181818;stroke-width:0.5;" width="172" x="879.5" y="75.6211"/><text fill="#000000" font-family="sans-serif" font-size="14" font-style="italic" lengthAdjust="spacing" textLength="60" x="935.5" y="97.7285">&#171;service&#187;</text><text fill="#000000" font-family="sans-serif" font-size="14" lengthAdjust="spacing" textLength="158" x="886.5" y="116.3496">UserManagementService</text><rect fill="#E2E2F0" height="51.2422" rx="2.5" ry="2.5" style="stroke:#181818;stroke-width:0.5;" width="172" x="879.5" y="1091.5938"/><text fill="#000000" font-family="sans-serif" font-size="14" font-style="italic" lengthAdjust="spacing" textLength="60" x="935.5" y="1113.7012">&#171;service&#187;</text><text fill="#000000" font-family="sans-serif" font-size="14" lengthAdjust="spacing" textLength="158" x="886.5" y="1132.3223">UserManagementService</text><rect fill="#E2E2F0" height="51.2422" rx="2.5" ry="2.5" style="stroke:#181818;stroke-width:0.5;" width="166" x="1061.5" y="75.6211"/><text fill="#000000" font-family="sans-serif" font-size="14" font-style="italic" lengthAdjust="spacing" textLength="62" x="1113.5" y="97.7285">&#171;domain&#187;</text><text fill="#000000" font-family="sans-serif" font-size="14" lengthAdjust="spacing" textLength="152" x="1068.5" y="116.3496">systemUser:SystemUser</text><rect fill="#E2E2F0" height="51.2422" rx="2.5" ry="2.5" style="stroke:#181818;stroke-width:0.5;" width="166" x="1061.5" y="1091.5938"/><text fill="#000000" font-family="sans-serif" font-size="14" font-style="italic" lengthAdjust="spacing" textLength="62" x="1113.5" y="1113.7012">&#171;domain&#187;</text><text fill="#000000" font-family="sans-serif" font-size="14" lengthAdjust="spacing" textLength="152" x="1068.5" y="1132.3223">systemUser:SystemUser</text><rect fill="#FFFFFF" height="913.4395" style="stroke:#181818;stroke-width:1.0;" width="10" x="192.5" y="161.1543"/><rect fill="#FFFFFF" height="475.3652" style="stroke:#181818;stroke-width:1.0;" width="10" x="339.5" y="192.4453"/><rect fill="#FFFFFF" height="281.6191" style="stroke:#181818;stroke-width:1.0;" width="10" x="339.5" y="761.6836"/><rect fill="#FFFFFF" height="99.873" style="stroke:#181818;stroke-width:1.0;" width="10" x="497.5" y="223.7363"/><rect fill="#FFFFFF" height="62.582" style="stroke:#181818;stroke-width:1.0;" width="10" x="640.5" y="354.9004"/><rect fill="#FFFFFF" height="31.291" style="stroke:#181818;stroke-width:1.0;" width="10" x="790" y="480.0645"/><rect fill="#FFFFFF" height="31.291" style="stroke:#181818;stroke-width:1.0;" width="10" x="790" y="792.9746"/><rect fill="#FFFFFF" height="31.291" style="stroke:#181818;stroke-width:1.0;" width="10" x="790" y="949.4297"/><rect fill="#FFFFFF" height="187.7461" style="stroke:#181818;stroke-width:1.0;" width="10" x="960.5" y="448.7734"/><rect fill="#FFFFFF" height="156.4551" style="stroke:#181818;stroke-width:1.0;" width="10" x="960.5" y="855.5566"/><rect fill="#FFFFFF" height="31.291" style="stroke:#181818;stroke-width:1.0;" width="10" x="1139.5" y="573.9375"/><rect fill="#FFFFFF" height="31.291" style="stroke:#181818;stroke-width:1.0;" width="10" x="1139.5" y="886.8477"/><polygon fill="#181818" points="180.5,157.1543,190.5,161.1543,180.5,165.1543,184.5,161.1543" style="stroke:#181818;stroke-width:1.0;"/><line style="stroke:#181818;stroke-width:1.0;stroke-dasharray:2.0,2.0;" x1="27.5" x2="186.5" y1="161.1543" y2="161.1543"/><text fill="#000000" font-family="sans-serif" font-size="13" lengthAdjust="spacing" textLength="91" x="34.5" y="155.8916">Deactivate User</text><polygon fill="#181818" points="327.5,188.4453,337.5,192.4453,327.5,196.4453,331.5,192.4453" style="stroke:#181818;stroke-width:1.0;"/><line style="stroke:#181818;stroke-width:1.0;" x1="202.5" x2="333.5" y1="192.4453" y2="192.4453"/><text fill="#000000" font-family="sans-serif" font-size="13" lengthAdjust="spacing" textLength="75" x="209.5" y="187.1826">activeUsers()</text><polygon fill="#181818" points="485.5,219.7363,495.5,223.7363,485.5,227.7363,489.5,223.7363" style="stroke:#181818;stroke-width:1.0;"/><line style="stroke:#181818;stroke-width:1.0;" x1="349.5" x2="491.5" y1="223.7363" y2="223.7363"/><text fill="#000000" font-family="sans-serif" font-size="13" lengthAdjust="spacing" textLength="75" x="356.5" y="218.4736">repositories()</text><path d="M512,236.7363 L512,263.7363 L618,263.7363 L618,246.7363 L608,236.7363 L512,236.7363 " fill="#FEFFDD" style="stroke:#181818;stroke-width:0.5;"/><path d="M608,236.7363 L608,246.7363 L618,246.7363 L608,236.7363 " fill="#FEFFDD" style="stroke:#181818;stroke-width:0.5;"/><text fill="#000000" font-family="sans-serif" font-size="13" lengthAdjust="spacing" textLength="85" x="518" y="255.7646">creates in JPA</text><polygon fill="#181818" points="633.5,288.3184,643.5,292.3184,633.5,296.3184,637.5,292.3184" style="stroke:#181818;stroke-width:1.0;"/><line style="stroke:#181818;stroke-width:1.0;" x1="507.5" x2="639.5" y1="292.3184" y2="292.3184"/><text fill="#000000" font-family="sans-serif" font-size="13" lengthAdjust="spacing" textLength="36" x="514.5" y="287.0557">create</text><polygon fill="#181818" points="360.5,319.6094,350.5,323.6094,360.5,327.6094,356.5,323.6094" style="stroke:#181818;stroke-width:1.0;"/><line style="stroke:#181818;stroke-width:1.0;stroke-dasharray:2.0,2.0;" x1="354.5" x2="501.5" y1="323.6094" y2="323.6094"/><text fill="#000000" font-family="sans-serif" font-size="13" lengthAdjust="spacing" textLength="39" x="366.5" y="318.3467">factory</text><polygon fill="#181818" points="628.5,350.9004,638.5,354.9004,628.5,358.9004,632.5,354.9004" style="stroke:#181818;stroke-width:1.0;"/><line style="stroke:#181818;stroke-width:1.0;" x1="349.5" x2="634.5" y1="354.9004" y2="354.9004"/><text fill="#000000" font-family="sans-serif" font-size="13" lengthAdjust="spacing" textLength="40" x="356.5" y="349.6377">users()</text><polygon fill="#181818" points="783,382.1914,793,386.1914,783,390.1914,787,386.1914" style="stroke:#181818;stroke-width:1.0;"/><line style="stroke:#181818;stroke-width:1.0;" x1="650.5" x2="789" y1="386.1914" y2="386.1914"/><text fill="#000000" font-family="sans-serif" font-size="13" lengthAdjust="spacing" textLength="36" x="657.5" y="380.9287">create</text><polygon fill="#181818" points="360.5,413.4824,350.5,417.4824,360.5,421.4824,356.5,417.4824" style="stroke:#181818;stroke-width:1.0;"/><line style="stroke:#181818;stroke-width:1.0;stroke-dasharray:2.0,2.0;" x1="354.5" x2="644.5" y1="417.4824" y2="417.4824"/><text fill="#000000" font-family="sans-serif" font-size="13" lengthAdjust="spacing" textLength="87" x="366.5" y="412.2197">userRepository</text><polygon fill="#181818" points="948.5,444.7734,958.5,448.7734,948.5,452.7734,952.5,448.7734" style="stroke:#181818;stroke-width:1.0;"/><line style="stroke:#181818;stroke-width:1.0;" x1="349.5" x2="954.5" y1="448.7734" y2="448.7734"/><text fill="#000000" font-family="sans-serif" font-size="13" lengthAdjust="spacing" textLength="75" x="356.5" y="443.5107">activeUsers()</text><polygon fill="#181818" points="811,476.0645,801,480.0645,811,484.0645,807,480.0645" style="stroke:#181818;stroke-width:1.0;"/><line style="stroke:#181818;stroke-width:1.0;" x1="805" x2="959.5" y1="480.0645" y2="480.0645"/><text fill="#000000" font-family="sans-serif" font-size="13" lengthAdjust="spacing" textLength="75" x="817" y="474.8018">activeUsers()</text><polygon fill="#181818" points="948.5,507.3555,958.5,511.3555,948.5,515.3555,952.5,511.3555" style="stroke:#181818;stroke-width:1.0;"/><line style="stroke:#181818;stroke-width:1.0;stroke-dasharray:2.0,2.0;" x1="795" x2="954.5" y1="511.3555" y2="511.3555"/><text fill="#000000" font-family="sans-serif" font-size="13" lengthAdjust="spacing" textLength="32" x="802" y="506.0928">users</text><polygon fill="#181818" points="1132.5,538.6465,1142.5,542.6465,1132.5,546.6465,1136.5,542.6465" style="stroke:#181818;stroke-width:1.0;"/><line style="stroke:#181818;stroke-width:1.0;" x1="970.5" x2="1138.5" y1="542.6465" y2="542.6465"/><text fill="#000000" font-family="sans-serif" font-size="13" lengthAdjust="spacing" textLength="40" x="977.5" y="537.3838">name()</text><polygon fill="#181818" points="1127.5,569.9375,1137.5,573.9375,1127.5,577.9375,1131.5,573.9375" style="stroke:#181818;stroke-width:1.0;"/><line style="stroke:#181818;stroke-width:1.0;" x1="970.5" x2="1133.5" y1="573.9375" y2="573.9375"/><text fill="#000000" font-family="sans-serif" font-size="13" lengthAdjust="spacing" textLength="39" x="977.5" y="568.6748">email()</text><polygon fill="#181818" points="981.5,601.2285,971.5,605.2285,981.5,609.2285,977.5,605.2285" style="stroke:#181818;stroke-width:1.0;"/><line style="stroke:#181818;stroke-width:1.0;stroke-dasharray:2.0,2.0;" x1="975.5" x2="1143.5" y1="605.2285" y2="605.2285"/><text fill="#000000" font-family="sans-serif" font-size="13" lengthAdjust="spacing" textLength="76" x="987.5" y="599.9658">user's details</text><polygon fill="#181818" points="360.5,632.5195,350.5,636.5195,360.5,640.5195,356.5,636.5195" style="stroke:#181818;stroke-width:1.0;"/><line style="stroke:#181818;stroke-width:1.0;stroke-dasharray:2.0,2.0;" x1="354.5" x2="964.5" y1="636.5195" y2="636.5195"/><text fill="#000000" font-family="sans-serif" font-size="13" lengthAdjust="spacing" textLength="163" x="366.5" y="631.2568">users with respective details</text><polygon fill="#181818" points="213.5,663.8105,203.5,667.8105,213.5,671.8105,209.5,667.8105" style="stroke:#181818;stroke-width:1.0;"/><line style="stroke:#181818;stroke-width:1.0;stroke-dasharray:2.0,2.0;" x1="207.5" x2="343.5" y1="667.8105" y2="667.8105"/><text fill="#000000" font-family="sans-serif" font-size="13" lengthAdjust="spacing" textLength="32" x="219.5" y="662.5479">users</text><polygon fill="#181818" points="38.5,695.1016,28.5,699.1016,38.5,703.1016,34.5,699.1016" style="stroke:#181818;stroke-width:1.0;"/><line style="stroke:#181818;stroke-width:1.0;stroke-dasharray:2.0,2.0;" x1="32.5" x2="191.5" y1="699.1016" y2="699.1016"/><text fill="#000000" font-family="sans-serif" font-size="13" lengthAdjust="spacing" textLength="77" x="44.5" y="693.8389">display users</text><polygon fill="#181818" points="180.5,726.3926,190.5,730.3926,180.5,734.3926,184.5,730.3926" style="stroke:#181818;stroke-width:1.0;"/><line style="stroke:#181818;stroke-width:1.0;" x1="27.5" x2="186.5" y1="730.3926" y2="730.3926"/><text fill="#000000" font-family="sans-serif" font-size="13" lengthAdjust="spacing" textLength="141" x="34.5" y="725.1299">select user to deactivate</text><polygon fill="#181818" points="327.5,757.6836,337.5,761.6836,327.5,765.6836,331.5,761.6836" style="stroke:#181818;stroke-width:1.0;"/><line style="stroke:#181818;stroke-width:1.0;" x1="202.5" x2="333.5" y1="761.6836" y2="761.6836"/><text fill="#000000" font-family="sans-serif" font-size="13" lengthAdjust="spacing" textLength="118" x="209.5" y="756.4209">deactivateUser(user)</text><polygon fill="#181818" points="778,788.9746,788,792.9746,778,796.9746,782,792.9746" style="stroke:#181818;stroke-width:1.0;"/><line style="stroke:#181818;stroke-width:1.0;" x1="349.5" x2="784" y1="792.9746" y2="792.9746"/><text fill="#000000" font-family="sans-serif" font-size="13" lengthAdjust="spacing" textLength="28" x="356.5" y="787.7119">find()</text><polygon fill="#181818" points="360.5,820.2656,350.5,824.2656,360.5,828.2656,356.5,824.2656" style="stroke:#181818;stroke-width:1.0;"/><line style="stroke:#181818;stroke-width:1.0;stroke-dasharray:2.0,2.0;" x1="354.5" x2="794" y1="824.2656" y2="824.2656"/><text fill="#000000" font-family="sans-serif" font-size="13" lengthAdjust="spacing" textLength="25" x="366.5" y="819.0029">user</text><polygon fill="#181818" points="948.5,851.5566,958.5,855.5566,948.5,859.5566,952.5,855.5566" style="stroke:#181818;stroke-width:1.0;"/><line style="stroke:#181818;stroke-width:1.0;" x1="349.5" x2="954.5" y1="855.5566" y2="855.5566"/><text fill="#000000" font-family="sans-serif" font-size="13" lengthAdjust="spacing" textLength="118" x="356.5" y="850.2939">deactivateUser(user)</text><polygon fill="#181818" points="1127.5,882.8477,1137.5,886.8477,1127.5,890.8477,1131.5,886.8477" style="stroke:#181818;stroke-width:1.0;"/><line style="stroke:#181818;stroke-width:1.0;" x1="970.5" x2="1133.5" y1="886.8477" y2="886.8477"/><text fill="#000000" font-family="sans-serif" font-size="13" lengthAdjust="spacing" textLength="66" x="977.5" y="881.585">deactivate()</text><polygon fill="#181818" points="981.5,914.1387,971.5,918.1387,981.5,922.1387,977.5,918.1387" style="stroke:#181818;stroke-width:1.0;"/><line style="stroke:#181818;stroke-width:1.0;stroke-dasharray:2.0,2.0;" x1="975.5" x2="1143.5" y1="918.1387" y2="918.1387"/><text fill="#000000" font-family="sans-serif" font-size="13" lengthAdjust="spacing" textLength="25" x="987.5" y="912.876">user</text><polygon fill="#181818" points="811,945.4297,801,949.4297,811,953.4297,807,949.4297" style="stroke:#181818;stroke-width:1.0;"/><line style="stroke:#181818;stroke-width:1.0;" x1="805" x2="959.5" y1="949.4297" y2="949.4297"/><text fill="#000000" font-family="sans-serif" font-size="13" lengthAdjust="spacing" textLength="34" x="817" y="944.167">save()</text><polygon fill="#181818" points="948.5,976.7207,958.5,980.7207,948.5,984.7207,952.5,980.7207" style="stroke:#181818;stroke-width:1.0;"/><line style="stroke:#181818;stroke-width:1.0;stroke-dasharray:2.0,2.0;" x1="795" x2="954.5" y1="980.7207" y2="980.7207"/><text fill="#000000" font-family="sans-serif" font-size="13" lengthAdjust="spacing" textLength="25" x="802" y="975.458">user</text><polygon fill="#181818" points="360.5,1008.0117,350.5,1012.0117,360.5,1016.0117,356.5,1012.0117" style="stroke:#181818;stroke-width:1.0;"/><line style="stroke:#181818;stroke-width:1.0;stroke-dasharray:2.0,2.0;" x1="354.5" x2="964.5" y1="1012.0117" y2="1012.0117"/><text fill="#000000" font-family="sans-serif" font-size="13" lengthAdjust="spacing" textLength="25" x="366.5" y="1006.749">user</text><polygon fill="#181818" points="213.5,1039.3027,203.5,1043.3027,213.5,1047.3027,209.5,1043.3027" style="stroke:#181818;stroke-width:1.0;"/><line style="stroke:#181818;stroke-width:1.0;stroke-dasharray:2.0,2.0;" x1="207.5" x2="343.5" y1="1043.3027" y2="1043.3027"/><text fill="#000000" font-family="sans-serif" font-size="13" lengthAdjust="spacing" textLength="25" x="219.5" y="1038.04">user</text><polygon fill="#181818" points="38.5,1070.5938,28.5,1074.5938,38.5,1078.5938,34.5,1074.5938" style="stroke:#181818;stroke-width:1.0;"/><line style="stroke:#181818;stroke-width:1.0;stroke-dasharray:2.0,2.0;" x1="32.5" x2="196.5" y1="1074.5938" y2="1074.5938"/><text fill="#000000" font-family="sans-serif" font-size="13" lengthAdjust="spacing" textLength="77" x="44.5" y="1069.3311">user disabled</text><!--SRC=[hLNTYkCW6BttAMHkjdDHAEnT28KoPQ0B2yEMFe1DldPaZ6RLTZRxzFjfywE9ARF3UD5gFUTu_7wiUUEoPffLj6R56pl3tZO2g8R2CdaMG4mFCA-iLEzSdkc92HFk22x1DZNGMed6BKYmMGXcpCPQpOyN2xj2oJt_2tH5YEKMZzh3xml80kYMixCZBFRRHxgaXwVLwZiXhB1AqqrPSKcPeHkt9AXiUS5h9YtT0aBu5Gu6z67dCFYPvxK60z8oovLShsSPJqfQhOG0xPZ1AizPNGjUf0HUG1jkh7Fj6F37EdBmgpj_M8tOlw1MXkCrccT_kSQHkscUdsup99NCiYCp6A86XIfdT-0wKh3ASzqlHkSvtaycCRSL1cGF-ihH8TAxQPwRssn4V33zkTbWuS5HjwfYc90yB_q4YSHdXYwNQun_riMOMV3das6r8nG7vWYHGxmpEkJ4B1uzfkSCCE8tt0XIXK91x3FQHu939nN91U1-qmsfS5FpywkbwXHB5XgGQIZU-SVB9cA5QKSdRI8xoZnqTFqsxJs-XAJVcVltfrw2-4MNVXxfkz4L7GeCfPHqtYD7hYzHJQRCT-VE66zhC9N-o7wB8v6hhe17_jDIaLpWEGAu4NJLCdJeGnkXWslE2GOMRpsJKSag6FbAe02_n9pz6sXglMtBYUrl1hrQ59prdrBiNIMIRkWxjw_OQgO67-x90O7u97bX3RGFnX3TW3XkVFTg8Du_DHajkQa5QmAg_sWVefki0O7-F8HQ5MWF-EbJDA1S4IqS-RzVfB0WJroMgQ9ET0wvKudZ793xTJYHdEcysTic6p1fD56_W-fN5V6dIZTEX65N-EeduTClmWSp-j7ckTCxKSxY7lADWOt4ZW9AZmaayB_w7m00]--></g></svg>