<?xml version="1.0" encoding="us-ascii" standalone="no"?><svg xmlns="http://www.w3.org/2000/svg" xmlns:xlink="http://www.w3.org/1999/xlink" contentStyleType="text/css" height="500px" preserveAspectRatio="none" style="width:765px;height:500px;background:#FFFFFF;" version="1.1" viewBox="0 0 765 500" width="765px" zoomAndPan="magnify"><defs/><g><text fill="#000000" font-family="sans-serif" font-size="14" font-weight="bold" lengthAdjust="spacing" textLength="285" x="239.75" y="30.1074">System Sequence Diagram (SSD) - UC033</text><rect fill="#FFFFFF" height="265.7461" style="stroke:#181818;stroke-width:1.0;" width="10" x="63.5" y="133.2422"/><rect fill="#FFFFFF" height="105.582" style="stroke:#181818;stroke-width:1.0;" width="10" x="382.5" y="156.5332"/><rect fill="#FFFFFF" height="28" style="stroke:#181818;stroke-width:1.0;" width="10" x="387.5" y="195.8242"/><rect fill="#FFFFFF" height="105.582" style="stroke:#181818;stroke-width:1.0;" width="10" x="382.5" y="293.4063"/><rect fill="#FFFFFF" height="28" style="stroke:#181818;stroke-width:1.0;" width="10" x="387.5" y="332.6973"/><line style="stroke:#181818;stroke-width:0.5;stroke-dasharray:5.0,5.0;" x1="68" x2="68" y1="123.2422" y2="416.9883"/><line style="stroke:#181818;stroke-width:0.5;stroke-dasharray:5.0,5.0;" x1="387.5" x2="387.5" y1="123.2422" y2="416.9883"/><text fill="#000000" font-family="sans-serif" font-size="14" lengthAdjust="spacing" textLength="121" x="5" y="119.7285">Customer Manager</text><ellipse cx="68.5" cy="53.1211" fill="#E3E3E3" rx="8" ry="8" style="stroke:#181818;stroke-width:0.5;"/><path d="M68.5,61.1211 L68.5,88.1211 M55.5,69.1211 L81.5,69.1211 M68.5,88.1211 L55.5,103.1211 M68.5,88.1211 L81.5,103.1211 " fill="none" style="stroke:#181818;stroke-width:0.5;"/><text fill="#000000" font-family="sans-serif" font-size="14" lengthAdjust="spacing" textLength="121" x="5" y="431.0957">Customer Manager</text><ellipse cx="68.5" cy="443.1094" fill="#E3E3E3" rx="8" ry="8" style="stroke:#181818;stroke-width:0.5;"/><path d="M68.5,451.1094 L68.5,478.1094 M55.5,459.1094 L81.5,459.1094 M68.5,478.1094 L55.5,493.1094 M68.5,478.1094 L81.5,493.1094 " fill="none" style="stroke:#181818;stroke-width:0.5;"/><rect fill="#E3E3E3" height="32.6211" rx="2.5" ry="2.5" style="stroke:#181818;stroke-width:0.5;" width="64" x="355.5" y="89.6211"/><text fill="#000000" font-family="sans-serif" font-size="14" lengthAdjust="spacing" textLength="50" x="362.5" y="111.7285">:System</text><rect fill="#E3E3E3" height="32.6211" rx="2.5" ry="2.5" style="stroke:#181818;stroke-width:0.5;" width="64" x="355.5" y="415.9883"/><text fill="#000000" font-family="sans-serif" font-size="14" lengthAdjust="spacing" textLength="50" x="362.5" y="438.0957">:System</text><rect fill="#FFFFFF" height="265.7461" style="stroke:#181818;stroke-width:1.0;" width="10" x="63.5" y="133.2422"/><rect fill="#FFFFFF" height="105.582" style="stroke:#181818;stroke-width:1.0;" width="10" x="382.5" y="156.5332"/><rect fill="#FFFFFF" height="28" style="stroke:#181818;stroke-width:1.0;" width="10" x="387.5" y="195.8242"/><rect fill="#FFFFFF" height="105.582" style="stroke:#181818;stroke-width:1.0;" width="10" x="382.5" y="293.4063"/><rect fill="#FFFFFF" height="28" style="stroke:#181818;stroke-width:1.0;" width="10" x="387.5" y="332.6973"/><polygon fill="#181818" points="370.5,152.5332,380.5,156.5332,370.5,160.5332,374.5,156.5332" style="stroke:#181818;stroke-width:1.0;"/><line style="stroke:#181818;stroke-width:1.0;" x1="73.5" x2="376.5" y1="156.5332" y2="156.5332"/><text fill="#000000" font-family="sans-serif" font-size="13" lengthAdjust="spacing" textLength="290" x="80.5" y="151.2705">Requests to display job opening's interview grades</text><line style="stroke:#181818;stroke-width:1.0;" x1="397.5" x2="439.5" y1="187.8242" y2="187.8242"/><line style="stroke:#181818;stroke-width:1.0;" x1="439.5" x2="439.5" y1="187.8242" y2="200.8242"/><line style="stroke:#181818;stroke-width:1.0;" x1="398.5" x2="439.5" y1="200.8242" y2="200.8242"/><polygon fill="#181818" points="408.5,196.8242,398.5,200.8242,408.5,204.8242,404.5,200.8242" style="stroke:#181818;stroke-width:1.0;"/><text fill="#000000" font-family="sans-serif" font-size="13" lengthAdjust="spacing" textLength="354" x="404.5" y="182.5615">Retrieve job openings that has Phase.INTERVIEW completed</text><polygon fill="#181818" points="84.5,258.1152,74.5,262.1152,84.5,266.1152,80.5,262.1152" style="stroke:#181818;stroke-width:1.0;"/><line style="stroke:#181818;stroke-width:1.0;stroke-dasharray:2.0,2.0;" x1="78.5" x2="386.5" y1="262.1152" y2="262.1152"/><text fill="#000000" font-family="sans-serif" font-size="13" lengthAdjust="spacing" textLength="120" x="90.5" y="256.8525">Display job openings</text><polygon fill="#181818" points="370.5,289.4063,380.5,293.4063,370.5,297.4063,374.5,293.4063" style="stroke:#181818;stroke-width:1.0;"/><line style="stroke:#181818;stroke-width:1.0;" x1="73.5" x2="376.5" y1="293.4063" y2="293.4063"/><text fill="#000000" font-family="sans-serif" font-size="13" lengthAdjust="spacing" textLength="107" x="80.5" y="288.1436">Select job opening</text><line style="stroke:#181818;stroke-width:1.0;" x1="397.5" x2="439.5" y1="324.6973" y2="324.6973"/><line style="stroke:#181818;stroke-width:1.0;" x1="439.5" x2="439.5" y1="324.6973" y2="337.6973"/><line style="stroke:#181818;stroke-width:1.0;" x1="398.5" x2="439.5" y1="337.6973" y2="337.6973"/><polygon fill="#181818" points="408.5,333.6973,398.5,337.6973,408.5,341.6973,404.5,337.6973" style="stroke:#181818;stroke-width:1.0;"/><text fill="#000000" font-family="sans-serif" font-size="13" lengthAdjust="spacing" textLength="283" x="404.5" y="319.4346">Retrieve interview grades for selected job opening</text><polygon fill="#181818" points="79.5,394.9883,69.5,398.9883,79.5,402.9883,75.5,398.9883" style="stroke:#181818;stroke-width:1.0;"/><line style="stroke:#181818;stroke-width:1.0;stroke-dasharray:2.0,2.0;" x1="73.5" x2="386.5" y1="398.9883" y2="398.9883"/><text fill="#000000" font-family="sans-serif" font-size="13" lengthAdjust="spacing" textLength="139" x="85.5" y="393.7256">Display interview grades</text><!--SRC=[hP8_JyCm4CNtV8gdBi00GkhMWINjq248DVoP3-UQc2PsiA-j-ksvj54KqGeaX0VByftVxzsTuyQwbW8rQBppfWg-OKZOSXA7I4jcGoNdSgWPWOsGA-jnGgoey7lhIgofZfmaOaLJyqCKRf3pvvQTOSmjbLtwTPxFRt2Bb_H-Eat8Y0-OfDieoWx8o2aiJ40HQPOeGQonBJd1P7QIFCPEnwHxRtSat2L3LvhXzg6Fph3gu54YnAEmiQtfW0__3j-oKyDN4TO9XvtbFTHSmV4eCeZs5FIhBsa0e2D8iBpZiQpYAX9KQlD9DxvRFZulLg_BnHkCRzgQXOj1ynAhuDySg8KqcsbFpsgAFoXSw53EjOvqBF3d3dnl9TOwsNZKv-ACy6-rNvpWkSheHh_A5m00]--></g></svg>