<?xml version="1.0" encoding="us-ascii" standalone="no"?><svg xmlns="http://www.w3.org/2000/svg" xmlns:xlink="http://www.w3.org/1999/xlink" contentStyleType="text/css" height="927px" preserveAspectRatio="none" style="width:1489px;height:927px;background:#FFFFFF;" version="1.1" viewBox="0 0 1489 927" width="1489px" zoomAndPan="magnify"><defs/><g><rect fill="#FFFFFF" height="688.4023" style="stroke:#181818;stroke-width:1.0;" width="10" x="187.5" y="121.5332"/><rect fill="#FFFFFF" height="594.5293" style="stroke:#181818;stroke-width:1.0;" width="10" x="342.5" y="184.1152"/><rect fill="#FFFFFF" height="93.873" style="stroke:#181818;stroke-width:1.0;" width="10" x="723.5" y="246.6973"/><rect fill="#FFFFFF" height="31.291" style="stroke:#181818;stroke-width:1.0;" width="10" x="855.5" y="371.8613"/><rect fill="#FFFFFF" height="281.6191" style="stroke:#181818;stroke-width:1.0;" width="10" x="998" y="465.7344"/><rect fill="#FFFFFF" height="62.582" style="stroke:#181818;stroke-width:1.0;" width="10" x="1162" y="497.0254"/><rect fill="#FFFFFF" height="62.582" style="stroke:#181818;stroke-width:1.0;" width="10" x="1305" y="590.8984"/><rect fill="#FFFFFF" height="31.291" style="stroke:#181818;stroke-width:1.0;" width="10" x="1431.5" y="684.7715"/><line style="stroke:#181818;stroke-width:0.5;stroke-dasharray:5.0,5.0;" x1="36" x2="36" y1="88.2422" y2="827.9355"/><line style="stroke:#181818;stroke-width:0.5;stroke-dasharray:5.0,5.0;" x1="192.5" x2="192.5" y1="88.2422" y2="827.9355"/><line style="stroke:#181818;stroke-width:0.5;stroke-dasharray:5.0,5.0;" x1="347.5" x2="347.5" y1="88.2422" y2="827.9355"/><line style="stroke:#181818;stroke-width:0.5;stroke-dasharray:5.0,5.0;" x1="728" x2="728" y1="88.2422" y2="827.9355"/><line style="stroke:#181818;stroke-width:0.5;stroke-dasharray:5.0,5.0;" x1="860" x2="860" y1="88.2422" y2="827.9355"/><line style="stroke:#181818;stroke-width:0.5;stroke-dasharray:5.0,5.0;" x1="1003" x2="1003" y1="88.2422" y2="827.9355"/><line style="stroke:#181818;stroke-width:0.5;stroke-dasharray:5.0,5.0;" x1="1167" x2="1167" y1="88.2422" y2="827.9355"/><line style="stroke:#181818;stroke-width:0.5;stroke-dasharray:5.0,5.0;" x1="1310" x2="1310" y1="88.2422" y2="827.9355"/><line style="stroke:#181818;stroke-width:0.5;stroke-dasharray:5.0,5.0;" x1="1436" x2="1436" y1="88.2422" y2="827.9355"/><text fill="#000000" font-family="sans-serif" font-size="14" lengthAdjust="spacing" textLength="57" x="5" y="84.7285">Operator</text><ellipse cx="36.5" cy="18.1211" fill="#E2E2F0" rx="8" ry="8" style="stroke:#181818;stroke-width:0.5;"/><path d="M36.5,26.1211 L36.5,53.1211 M23.5,34.1211 L49.5,34.1211 M36.5,53.1211 L23.5,68.1211 M36.5,53.1211 L49.5,68.1211 " fill="none" style="stroke:#181818;stroke-width:0.5;"/><text fill="#000000" font-family="sans-serif" font-size="14" lengthAdjust="spacing" textLength="57" x="5" y="842.043">Operator</text><ellipse cx="36.5" cy="854.0566" fill="#E2E2F0" rx="8" ry="8" style="stroke:#181818;stroke-width:0.5;"/><path d="M36.5,862.0566 L36.5,889.0566 M23.5,870.0566 L49.5,870.0566 M36.5,889.0566 L23.5,904.0566 M36.5,889.0566 L49.5,904.0566 " fill="none" style="stroke:#181818;stroke-width:0.5;"/><rect fill="#E2E2F0" height="51.2422" rx="2.5" ry="2.5" style="stroke:#181818;stroke-width:0.5;" width="120" x="132.5" y="36"/><text fill="#000000" font-family="sans-serif" font-size="14" font-style="italic" lengthAdjust="spacing" textLength="95" x="145" y="58.1074">&#171;presentation&#187;</text><text fill="#000000" font-family="sans-serif" font-size="14" lengthAdjust="spacing" textLength="106" x="139.5" y="76.7285">ListCandidatesUI</text><rect fill="#E2E2F0" height="51.2422" rx="2.5" ry="2.5" style="stroke:#181818;stroke-width:0.5;" width="120" x="132.5" y="826.9355"/><text fill="#000000" font-family="sans-serif" font-size="14" font-style="italic" lengthAdjust="spacing" textLength="95" x="145" y="849.043">&#171;presentation&#187;</text><text fill="#000000" font-family="sans-serif" font-size="14" lengthAdjust="spacing" textLength="106" x="139.5" y="867.6641">ListCandidatesUI</text><rect fill="#E2E2F0" height="51.2422" rx="2.5" ry="2.5" style="stroke:#181818;stroke-width:0.5;" width="170" x="262.5" y="36"/><text fill="#000000" font-family="sans-serif" font-size="14" font-style="italic" lengthAdjust="spacing" textLength="84" x="305.5" y="58.1074">&#171;application&#187;</text><text fill="#000000" font-family="sans-serif" font-size="14" lengthAdjust="spacing" textLength="156" x="269.5" y="76.7285">ListCandidatesController</text><rect fill="#E2E2F0" height="51.2422" rx="2.5" ry="2.5" style="stroke:#181818;stroke-width:0.5;" width="170" x="262.5" y="826.9355"/><text fill="#000000" font-family="sans-serif" font-size="14" font-style="italic" lengthAdjust="spacing" textLength="84" x="305.5" y="849.043">&#171;application&#187;</text><text fill="#000000" font-family="sans-serif" font-size="14" lengthAdjust="spacing" textLength="156" x="269.5" y="867.6641">ListCandidatesController</text><rect fill="#E2E2F0" height="51.2422" rx="2.5" ry="2.5" style="stroke:#181818;stroke-width:0.5;" width="151" x="653" y="36"/><text fill="#000000" font-family="sans-serif" font-size="14" font-style="italic" lengthAdjust="spacing" textLength="60" x="698.5" y="58.1074">&#171;service&#187;</text><text fill="#000000" font-family="sans-serif" font-size="14" lengthAdjust="spacing" textLength="137" x="660" y="76.7285">AuthenticationService</text><rect fill="#E2E2F0" height="51.2422" rx="2.5" ry="2.5" style="stroke:#181818;stroke-width:0.5;" width="151" x="653" y="826.9355"/><text fill="#000000" font-family="sans-serif" font-size="14" font-style="italic" lengthAdjust="spacing" textLength="60" x="698.5" y="849.043">&#171;service&#187;</text><text fill="#000000" font-family="sans-serif" font-size="14" lengthAdjust="spacing" textLength="137" x="660" y="867.6641">AuthenticationService</text><rect fill="#E2E2F0" height="51.2422" rx="2.5" ry="2.5" style="stroke:#181818;stroke-width:0.5;" width="93" x="814" y="36"/><text fill="#000000" font-family="sans-serif" font-size="14" font-style="italic" lengthAdjust="spacing" textLength="64" x="828.5" y="58.1074">&#171;session&#187;</text><text fill="#000000" font-family="sans-serif" font-size="14" lengthAdjust="spacing" textLength="79" x="821" y="76.7285">UserSession</text><rect fill="#E2E2F0" height="51.2422" rx="2.5" ry="2.5" style="stroke:#181818;stroke-width:0.5;" width="93" x="814" y="826.9355"/><text fill="#000000" font-family="sans-serif" font-size="14" font-style="italic" lengthAdjust="spacing" textLength="64" x="828.5" y="849.043">&#171;session&#187;</text><text fill="#000000" font-family="sans-serif" font-size="14" lengthAdjust="spacing" textLength="79" x="821" y="867.6641">UserSession</text><rect fill="#E2E2F0" height="51.2422" rx="2.5" ry="2.5" style="stroke:#181818;stroke-width:0.5;" width="172" x="917" y="36"/><text fill="#000000" font-family="sans-serif" font-size="14" font-style="italic" lengthAdjust="spacing" textLength="60" x="973" y="58.1074">&#171;service&#187;</text><text fill="#000000" font-family="sans-serif" font-size="14" lengthAdjust="spacing" textLength="158" x="924" y="76.7285">UserManagementService</text><rect fill="#E2E2F0" height="51.2422" rx="2.5" ry="2.5" style="stroke:#181818;stroke-width:0.5;" width="172" x="917" y="826.9355"/><text fill="#000000" font-family="sans-serif" font-size="14" font-style="italic" lengthAdjust="spacing" textLength="60" x="973" y="849.043">&#171;service&#187;</text><text fill="#000000" font-family="sans-serif" font-size="14" lengthAdjust="spacing" textLength="158" x="924" y="867.6641">UserManagementService</text><rect fill="#E2E2F0" height="51.2422" rx="2.5" ry="2.5" style="stroke:#181818;stroke-width:0.5;" width="136" x="1099" y="36"/><text fill="#000000" font-family="sans-serif" font-size="14" font-style="italic" lengthAdjust="spacing" textLength="89" x="1122.5" y="58.1074">&#171;persistence&#187;</text><text fill="#000000" font-family="sans-serif" font-size="14" lengthAdjust="spacing" textLength="122" x="1106" y="76.7285">PersistenceContext</text><rect fill="#E2E2F0" height="51.2422" rx="2.5" ry="2.5" style="stroke:#181818;stroke-width:0.5;" width="136" x="1099" y="826.9355"/><text fill="#000000" font-family="sans-serif" font-size="14" font-style="italic" lengthAdjust="spacing" textLength="89" x="1122.5" y="849.043">&#171;persistence&#187;</text><text fill="#000000" font-family="sans-serif" font-size="14" lengthAdjust="spacing" textLength="122" x="1106" y="867.6641">PersistenceContext</text><rect fill="#E2E2F0" height="51.2422" rx="2.5" ry="2.5" style="stroke:#181818;stroke-width:0.5;" width="130" x="1245" y="36"/><text fill="#000000" font-family="sans-serif" font-size="14" font-style="italic" lengthAdjust="spacing" textLength="59" x="1280.5" y="58.1074">&#171;factory&#187;</text><text fill="#000000" font-family="sans-serif" font-size="14" lengthAdjust="spacing" textLength="116" x="1252" y="76.7285">RepositoryFactory</text><rect fill="#E2E2F0" height="51.2422" rx="2.5" ry="2.5" style="stroke:#181818;stroke-width:0.5;" width="130" x="1245" y="826.9355"/><text fill="#000000" font-family="sans-serif" font-size="14" font-style="italic" lengthAdjust="spacing" textLength="59" x="1280.5" y="849.043">&#171;factory&#187;</text><text fill="#000000" font-family="sans-serif" font-size="14" lengthAdjust="spacing" textLength="116" x="1252" y="867.6641">RepositoryFactory</text><text fill="#000000" font-family="sans-serif" font-size="14" font-style="italic" lengthAdjust="spacing" textLength="79" x="1394" y="66.1074">&#171;repository&#187;</text><text fill="#000000" font-family="sans-serif" font-size="14" lengthAdjust="spacing" textLength="97" x="1385" y="84.7285">UserRepository</text><path d="M1418.5,15 C1418.5,5 1436.5,5 1436.5,5 C1436.5,5 1454.5,5 1454.5,15 L1454.5,41 C1454.5,51 1436.5,51 1436.5,51 C1436.5,51 1418.5,51 1418.5,41 L1418.5,15 " fill="#E2E2F0" style="stroke:#181818;stroke-width:1.5;"/><path d="M1418.5,15 C1418.5,25 1436.5,25 1436.5,25 C1436.5,25 1454.5,25 1454.5,15 " fill="none" style="stroke:#181818;stroke-width:1.5;"/><text fill="#000000" font-family="sans-serif" font-size="14" font-style="italic" lengthAdjust="spacing" textLength="79" x="1394" y="842.043">&#171;repository&#187;</text><text fill="#000000" font-family="sans-serif" font-size="14" lengthAdjust="spacing" textLength="97" x="1385" y="860.6641">UserRepository</text><path d="M1418.5,874.1777 C1418.5,864.1777 1436.5,864.1777 1436.5,864.1777 C1436.5,864.1777 1454.5,864.1777 1454.5,874.1777 L1454.5,900.1777 C1454.5,910.1777 1436.5,910.1777 1436.5,910.1777 C1436.5,910.1777 1418.5,910.1777 1418.5,900.1777 L1418.5,874.1777 " fill="#E2E2F0" style="stroke:#181818;stroke-width:1.5;"/><path d="M1418.5,874.1777 C1418.5,884.1777 1436.5,884.1777 1436.5,884.1777 C1436.5,884.1777 1454.5,884.1777 1454.5,874.1777 " fill="none" style="stroke:#181818;stroke-width:1.5;"/><rect fill="#FFFFFF" height="688.4023" style="stroke:#181818;stroke-width:1.0;" width="10" x="187.5" y="121.5332"/><rect fill="#FFFFFF" height="594.5293" style="stroke:#181818;stroke-width:1.0;" width="10" x="342.5" y="184.1152"/><rect fill="#FFFFFF" height="93.873" style="stroke:#181818;stroke-width:1.0;" width="10" x="723.5" y="246.6973"/><rect fill="#FFFFFF" height="31.291" style="stroke:#181818;stroke-width:1.0;" width="10" x="855.5" y="371.8613"/><rect fill="#FFFFFF" height="281.6191" style="stroke:#181818;stroke-width:1.0;" width="10" x="998" y="465.7344"/><rect fill="#FFFFFF" height="62.582" style="stroke:#181818;stroke-width:1.0;" width="10" x="1162" y="497.0254"/><rect fill="#FFFFFF" height="62.582" style="stroke:#181818;stroke-width:1.0;" width="10" x="1305" y="590.8984"/><rect fill="#FFFFFF" height="31.291" style="stroke:#181818;stroke-width:1.0;" width="10" x="1431.5" y="684.7715"/><polygon fill="#181818" points="175.5,117.5332,185.5,121.5332,175.5,125.5332,179.5,121.5332" style="stroke:#181818;stroke-width:1.0;"/><line style="stroke:#181818;stroke-width:1.0;stroke-dasharray:2.0,2.0;" x1="36.5" x2="181.5" y1="121.5332" y2="121.5332"/><text fill="#000000" font-family="sans-serif" font-size="13" lengthAdjust="spacing" textLength="105" x="43.5" y="116.2705">List all candidates</text><polygon fill="#181818" points="335.5,148.8242,345.5,152.8242,335.5,156.8242,339.5,152.8242" style="stroke:#181818;stroke-width:1.0;"/><line style="stroke:#181818;stroke-width:1.0;" x1="197.5" x2="341.5" y1="152.8242" y2="152.8242"/><text fill="#000000" font-family="sans-serif" font-size="13" lengthAdjust="spacing" textLength="44" x="204.5" y="147.5615">create()</text><polygon fill="#181818" points="330.5,180.1152,340.5,184.1152,330.5,188.1152,334.5,184.1152" style="stroke:#181818;stroke-width:1.0;"/><line style="stroke:#181818;stroke-width:1.0;" x1="197.5" x2="336.5" y1="184.1152" y2="184.1152"/><text fill="#000000" font-family="sans-serif" font-size="13" lengthAdjust="spacing" textLength="90" x="204.5" y="178.8525">listCandidates()</text><polygon fill="#181818" points="716.5,211.4063,726.5,215.4063,716.5,219.4063,720.5,215.4063" style="stroke:#181818;stroke-width:1.0;"/><line style="stroke:#181818;stroke-width:1.0;" x1="352.5" x2="722.5" y1="215.4063" y2="215.4063"/><text fill="#000000" font-family="sans-serif" font-size="13" lengthAdjust="spacing" textLength="44" x="359.5" y="210.1436">create()</text><polygon fill="#181818" points="711.5,242.6973,721.5,246.6973,711.5,250.6973,715.5,246.6973" style="stroke:#181818;stroke-width:1.0;"/><line style="stroke:#181818;stroke-width:1.0;" x1="352.5" x2="717.5" y1="246.6973" y2="246.6973"/><text fill="#000000" font-family="sans-serif" font-size="13" lengthAdjust="spacing" textLength="352" x="359.5" y="241.4346">ensureAuthenticatedUserHasAnyOf(BaseRoles.OPERATOR)</text><polygon fill="#181818" points="848.5,273.9883,858.5,277.9883,848.5,281.9883,852.5,277.9883" style="stroke:#181818;stroke-width:1.0;"/><line style="stroke:#181818;stroke-width:1.0;" x1="733.5" x2="854.5" y1="277.9883" y2="277.9883"/><text fill="#000000" font-family="sans-serif" font-size="13" lengthAdjust="spacing" textLength="44" x="740.5" y="272.7256">create()</text><polygon fill="#181818" points="711.5,305.2793,721.5,309.2793,711.5,313.2793,715.5,309.2793" style="stroke:#181818;stroke-width:1.0;"/><line style="stroke:#181818;stroke-width:1.0;" x1="352.5" x2="717.5" y1="309.2793" y2="309.2793"/><text fill="#000000" font-family="sans-serif" font-size="13" lengthAdjust="spacing" textLength="53" x="359.5" y="304.0166">session()</text><polygon fill="#181818" points="363.5,336.5703,353.5,340.5703,363.5,344.5703,359.5,340.5703" style="stroke:#181818;stroke-width:1.0;"/><line style="stroke:#181818;stroke-width:1.0;" x1="357.5" x2="727.5" y1="340.5703" y2="340.5703"/><text fill="#000000" font-family="sans-serif" font-size="13" lengthAdjust="spacing" textLength="45" x="369.5" y="335.3076">session</text><polygon fill="#181818" points="843.5,367.8613,853.5,371.8613,843.5,375.8613,847.5,371.8613" style="stroke:#181818;stroke-width:1.0;"/><line style="stroke:#181818;stroke-width:1.0;" x1="352.5" x2="849.5" y1="371.8613" y2="371.8613"/><text fill="#000000" font-family="sans-serif" font-size="13" lengthAdjust="spacing" textLength="113" x="359.5" y="366.5986">authenticatedUser()</text><polygon fill="#181818" points="363.5,399.1523,353.5,403.1523,363.5,407.1523,359.5,403.1523" style="stroke:#181818;stroke-width:1.0;"/><line style="stroke:#181818;stroke-width:1.0;" x1="357.5" x2="859.5" y1="403.1523" y2="403.1523"/><text fill="#000000" font-family="sans-serif" font-size="13" lengthAdjust="spacing" textLength="25" x="369.5" y="397.8896">user</text><polygon fill="#181818" points="991,430.4434,1001,434.4434,991,438.4434,995,434.4434" style="stroke:#181818;stroke-width:1.0;"/><line style="stroke:#181818;stroke-width:1.0;" x1="352.5" x2="997" y1="434.4434" y2="434.4434"/><text fill="#000000" font-family="sans-serif" font-size="13" lengthAdjust="spacing" textLength="44" x="359.5" y="429.1807">create()</text><polygon fill="#181818" points="986,461.7344,996,465.7344,986,469.7344,990,465.7344" style="stroke:#181818;stroke-width:1.0;"/><line style="stroke:#181818;stroke-width:1.0;" x1="352.5" x2="992" y1="465.7344" y2="465.7344"/><text fill="#000000" font-family="sans-serif" font-size="13" lengthAdjust="spacing" textLength="55" x="359.5" y="460.4717">allUsers()</text><polygon fill="#181818" points="1150,493.0254,1160,497.0254,1150,501.0254,1154,497.0254" style="stroke:#181818;stroke-width:1.0;"/><line style="stroke:#181818;stroke-width:1.0;" x1="1008" x2="1156" y1="497.0254" y2="497.0254"/><text fill="#000000" font-family="sans-serif" font-size="13" lengthAdjust="spacing" textLength="75" x="1015" y="491.7627">repositories()</text><polygon fill="#181818" points="1298,524.3164,1308,528.3164,1298,532.3164,1302,528.3164" style="stroke:#181818;stroke-width:1.0;"/><line style="stroke:#181818;stroke-width:1.0;" x1="1172" x2="1304" y1="528.3164" y2="528.3164"/><text fill="#000000" font-family="sans-serif" font-size="13" lengthAdjust="spacing" textLength="44" x="1179" y="523.0537">create()</text><polygon fill="#181818" points="1019,555.6074,1009,559.6074,1019,563.6074,1015,559.6074" style="stroke:#181818;stroke-width:1.0;"/><line style="stroke:#181818;stroke-width:1.0;" x1="1013" x2="1166" y1="559.6074" y2="559.6074"/><text fill="#000000" font-family="sans-serif" font-size="13" lengthAdjust="spacing" textLength="39" x="1025" y="554.3447">factory</text><polygon fill="#181818" points="1293,586.8984,1303,590.8984,1293,594.8984,1297,590.8984" style="stroke:#181818;stroke-width:1.0;"/><line style="stroke:#181818;stroke-width:1.0;" x1="1008" x2="1299" y1="590.8984" y2="590.8984"/><text fill="#000000" font-family="sans-serif" font-size="13" lengthAdjust="spacing" textLength="40" x="1015" y="585.6357">users()</text><polygon fill="#181818" points="1424.5,618.1895,1434.5,622.1895,1424.5,626.1895,1428.5,622.1895" style="stroke:#181818;stroke-width:1.0;"/><line style="stroke:#181818;stroke-width:1.0;" x1="1315" x2="1430.5" y1="622.1895" y2="622.1895"/><text fill="#000000" font-family="sans-serif" font-size="13" lengthAdjust="spacing" textLength="44" x="1322" y="616.9268">create()</text><polygon fill="#181818" points="1019,649.4805,1009,653.4805,1019,657.4805,1015,653.4805" style="stroke:#181818;stroke-width:1.0;"/><line style="stroke:#181818;stroke-width:1.0;" x1="1013" x2="1309" y1="653.4805" y2="653.4805"/><text fill="#000000" font-family="sans-serif" font-size="13" lengthAdjust="spacing" textLength="87" x="1025" y="648.2178">userRepository</text><polygon fill="#181818" points="1419.5,680.7715,1429.5,684.7715,1419.5,688.7715,1423.5,684.7715" style="stroke:#181818;stroke-width:1.0;"/><line style="stroke:#181818;stroke-width:1.0;" x1="1008" x2="1425.5" y1="684.7715" y2="684.7715"/><text fill="#000000" font-family="sans-serif" font-size="13" lengthAdjust="spacing" textLength="141" x="1015" y="679.5088">listCandidates = findAll()</text><polygon fill="#181818" points="1019,712.0625,1009,716.0625,1019,720.0625,1015,716.0625" style="stroke:#181818;stroke-width:1.0;"/><line style="stroke:#181818;stroke-width:1.0;stroke-dasharray:2.0,2.0;" x1="1013" x2="1435.5" y1="716.0625" y2="716.0625"/><text fill="#000000" font-family="sans-serif" font-size="13" lengthAdjust="spacing" textLength="82" x="1025" y="710.7998">listCandidates</text><polygon fill="#181818" points="363.5,743.3535,353.5,747.3535,363.5,751.3535,359.5,747.3535" style="stroke:#181818;stroke-width:1.0;"/><line style="stroke:#181818;stroke-width:1.0;stroke-dasharray:2.0,2.0;" x1="357.5" x2="1002" y1="747.3535" y2="747.3535"/><text fill="#000000" font-family="sans-serif" font-size="13" lengthAdjust="spacing" textLength="82" x="369.5" y="742.0908">listCandidates</text><polygon fill="#181818" points="208.5,774.6445,198.5,778.6445,208.5,782.6445,204.5,778.6445" style="stroke:#181818;stroke-width:1.0;"/><line style="stroke:#181818;stroke-width:1.0;stroke-dasharray:2.0,2.0;" x1="202.5" x2="346.5" y1="778.6445" y2="778.6445"/><text fill="#000000" font-family="sans-serif" font-size="13" lengthAdjust="spacing" textLength="82" x="214.5" y="773.3818">listCandidates</text><polygon fill="#181818" points="47.5,805.9355,37.5,809.9355,47.5,813.9355,43.5,809.9355" style="stroke:#181818;stroke-width:1.0;"/><line style="stroke:#181818;stroke-width:1.0;stroke-dasharray:2.0,2.0;" x1="41.5" x2="191.5" y1="809.9355" y2="809.9355"/><text fill="#000000" font-family="sans-serif" font-size="13" lengthAdjust="spacing" textLength="127" x="53.5" y="804.6729">Display all candidates</text><!--SRC=[ZLJBJiCm4BptAto4G_c0A5GgBu44QbNW0vPa2vQC4zaEedmzQyUE7uH2JXjxPdQykpOqfbDiqwC26u2UuiMY1sLumtkGXjrpRIv1jhm5W_hvpY87pkgwLwXH6Z2yawlL4Svb9utgX42NfOb_TGrzBtWp9x4Up1kf-yr7L1-yGSi7slWYgXwN2jepBJ-YriInOEr32tVH3Fm19BpYEoLBidZrN_DiKMaw9Ce6xV7mquIpsP2A4_SBvWxxJdCgy-46R0iEbhZtOLtxY4XKEtW1ZSvaP5cuYdzr7N-8j63qJKrTBbVKgyhrWu4Gh9cQue2KYt_G7u569ZMMAB555MiK4k3azBTzaRMQS9bkH8xyfFcaurfPffY5eDI3mcGciBLLkGMzbeVD_kI2whJh1EgppVPwjtxQx0eZJcTCC0uGQVkH-8S1LWLm04qY2Ne2EKIBSybpyJ2UbODaHoih6QJTQk2L-GSYbiapOfdUZVRn0amWcXzhJFzqvW31sNXll3Dx6Qeuhdn-GWWLCriAiSEDc3Fd8I5N5S3bqJFjn5dK7lo1Saz1pgq6CF6IQrVQIb3Hrf1TtD9TbYLnbsN9hnSxPtiksxKGPHaZQTHBH9QPfrnmKPfIkTt9LZbfVyY4cIZ7oRr7VzFBPyC-EqITthMANN7T2pZCFMg93Zrhtm00]--></g></svg>