<?xml version="1.0" encoding="us-ascii" standalone="no"?><svg xmlns="http://www.w3.org/2000/svg" xmlns:xlink="http://www.w3.org/1999/xlink" contentStyleType="text/css" height="902px" preserveAspectRatio="none" style="width:645px;height:902px;background:#FFFFFF;" version="1.1" viewBox="0 0 645 902" width="645px" zoomAndPan="magnify"><defs/><g><!--class ListCandidatesUI--><g id="elem_ListCandidatesUI"><rect codeLine="7" fill="#F1F1F1" height="79.2031" id="ListCandidatesUI" rx="2.5" ry="2.5" style="stroke:#181818;stroke-width:0.5;" width="138" x="354" y="7"/><ellipse cx="369" cy="29.291" fill="#C2C2C2" rx="11" ry="11" style="stroke:#181818;stroke-width:1.0;"/><path d="M371.7656,25.166 Q371.9219,24.9473 372.1094,24.8379 Q372.2969,24.7285 372.5156,24.7285 Q372.8906,24.7285 373.125,24.9941 Q373.3594,25.2441 373.3594,25.8535 L373.3594,27.3066 Q373.3594,27.916 373.125,28.1816 Q372.8906,28.4473 372.5156,28.4473 Q372.1719,28.4473 371.9688,28.2441 Q371.7656,28.0566 371.6563,27.541 Q371.6094,27.1816 371.4219,26.9941 Q371.0938,26.6191 370.4844,26.4004 Q369.875,26.1816 369.25,26.1816 Q368.4844,26.1816 367.8438,26.5098 Q367.2188,26.8379 366.7188,27.5879 Q366.2344,28.3379 366.2344,29.3691 L366.2344,30.4629 Q366.2344,31.6973 367.125,32.5254 Q368.0156,33.3379 369.6094,33.3379 Q370.5469,33.3379 371.2031,33.0879 Q371.5938,32.9316 372.0156,32.4941 Q372.2813,32.2285 372.4219,32.1504 Q372.5781,32.0723 372.7813,32.0723 Q373.1094,32.0723 373.3594,32.3379 Q373.625,32.5879 373.625,32.9316 Q373.625,33.2754 373.2813,33.6816 Q372.7813,34.2598 371.9844,34.5879 Q370.9063,35.041 369.6094,35.041 Q368.0938,35.041 366.8906,34.416 Q365.9063,33.916 365.2188,32.8535 Q364.5313,31.7754 364.5313,30.4941 L364.5313,29.3379 Q364.5313,28.0098 365.1406,26.8691 Q365.7656,25.7129 366.8594,25.1035 Q367.9531,24.4785 369.1875,24.4785 Q369.9219,24.4785 370.5625,24.6504 Q371.2188,24.8066 371.7656,25.166 Z " fill="#000000"/><text fill="#000000" font-family="FG Virgil" font-size="12" font-style="italic" lengthAdjust="spacing" textLength="82" x="395" y="24.9492">&#171;presentation&#187;</text><text fill="#000000" font-family="FG Virgil" font-size="14" lengthAdjust="spacing" textLength="106" x="383" y="43.0684">ListCandidatesUI</text><line style="stroke:#181818;stroke-width:0.5;" x1="355" x2="491" y1="51.582" y2="51.582"/><line style="stroke:#181818;stroke-width:0.5;" x1="355" x2="491" y1="59.582" y2="59.582"/><text fill="#000000" font-family="FG Virgil" font-size="14" lengthAdjust="spacing" textLength="60" x="360" y="78.6895">doShow()</text></g><!--class ListCandidatesController--><g id="elem_ListCandidatesController"><rect codeLine="10" fill="#F1F1F1" height="79.2031" id="ListCandidatesController" rx="2.5" ry="2.5" style="stroke:#181818;stroke-width:0.5;" width="188" x="329" y="165"/><ellipse cx="344" cy="187.291" fill="#C2C2C2" rx="11" ry="11" style="stroke:#181818;stroke-width:1.0;"/><path d="M346.7656,183.166 Q346.9219,182.9473 347.1094,182.8379 Q347.2969,182.7285 347.5156,182.7285 Q347.8906,182.7285 348.125,182.9941 Q348.3594,183.2441 348.3594,183.8535 L348.3594,185.3066 Q348.3594,185.916 348.125,186.1816 Q347.8906,186.4473 347.5156,186.4473 Q347.1719,186.4473 346.9688,186.2441 Q346.7656,186.0566 346.6563,185.541 Q346.6094,185.1816 346.4219,184.9941 Q346.0938,184.6191 345.4844,184.4004 Q344.875,184.1816 344.25,184.1816 Q343.4844,184.1816 342.8438,184.5098 Q342.2188,184.8379 341.7188,185.5879 Q341.2344,186.3379 341.2344,187.3691 L341.2344,188.4629 Q341.2344,189.6973 342.125,190.5254 Q343.0156,191.3379 344.6094,191.3379 Q345.5469,191.3379 346.2031,191.0879 Q346.5938,190.9316 347.0156,190.4941 Q347.2813,190.2285 347.4219,190.1504 Q347.5781,190.0723 347.7813,190.0723 Q348.1094,190.0723 348.3594,190.3379 Q348.625,190.5879 348.625,190.9316 Q348.625,191.2754 348.2813,191.6816 Q347.7813,192.2598 346.9844,192.5879 Q345.9063,193.041 344.6094,193.041 Q343.0938,193.041 341.8906,192.416 Q340.9063,191.916 340.2188,190.8535 Q339.5313,189.7754 339.5313,188.4941 L339.5313,187.3379 Q339.5313,186.0098 340.1406,184.8691 Q340.7656,183.7129 341.8594,183.1035 Q342.9531,182.4785 344.1875,182.4785 Q344.9219,182.4785 345.5625,182.6504 Q346.2188,182.8066 346.7656,183.166 Z " fill="#000000"/><text fill="#000000" font-family="FG Virgil" font-size="12" font-style="italic" lengthAdjust="spacing" textLength="74" x="399" y="182.9492">&#171;application&#187;</text><text fill="#000000" font-family="FG Virgil" font-size="14" lengthAdjust="spacing" textLength="156" x="358" y="201.0684">ListCandidatesController</text><line style="stroke:#181818;stroke-width:0.5;" x1="330" x2="516" y1="209.582" y2="209.582"/><line style="stroke:#181818;stroke-width:0.5;" x1="330" x2="516" y1="217.582" y2="217.582"/><text fill="#000000" font-family="FG Virgil" font-size="14" lengthAdjust="spacing" textLength="99" x="335" y="236.6895">listCandidates()</text></g><!--class AuthorizationService--><g id="elem_AuthorizationService"><rect codeLine="14" fill="#F1F1F1" height="97.8242" id="AuthorizationService" rx="2.5" ry="2.5" style="stroke:#181818;stroke-width:0.5;" width="286" x="7" y="323"/><ellipse cx="81.25" cy="345.291" fill="#C2C2C2" rx="11" ry="11" style="stroke:#181818;stroke-width:1.0;"/><path d="M84.0156,341.166 Q84.1719,340.9473 84.3594,340.8379 Q84.5469,340.7285 84.7656,340.7285 Q85.1406,340.7285 85.375,340.9941 Q85.6094,341.2441 85.6094,341.8535 L85.6094,343.3066 Q85.6094,343.916 85.375,344.1816 Q85.1406,344.4473 84.7656,344.4473 Q84.4219,344.4473 84.2188,344.2441 Q84.0156,344.0566 83.9063,343.541 Q83.8594,343.1816 83.6719,342.9941 Q83.3438,342.6191 82.7344,342.4004 Q82.125,342.1816 81.5,342.1816 Q80.7344,342.1816 80.0938,342.5098 Q79.4688,342.8379 78.9688,343.5879 Q78.4844,344.3379 78.4844,345.3691 L78.4844,346.4629 Q78.4844,347.6973 79.375,348.5254 Q80.2656,349.3379 81.8594,349.3379 Q82.7969,349.3379 83.4531,349.0879 Q83.8438,348.9316 84.2656,348.4941 Q84.5313,348.2285 84.6719,348.1504 Q84.8281,348.0723 85.0313,348.0723 Q85.3594,348.0723 85.6094,348.3379 Q85.875,348.5879 85.875,348.9316 Q85.875,349.2754 85.5313,349.6816 Q85.0313,350.2598 84.2344,350.5879 Q83.1563,351.041 81.8594,351.041 Q80.3438,351.041 79.1406,350.416 Q78.1563,349.916 77.4688,348.8535 Q76.7813,347.7754 76.7813,346.4941 L76.7813,345.3379 Q76.7813,344.0098 77.3906,342.8691 Q78.0156,341.7129 79.1094,341.1035 Q80.2031,340.4785 81.4375,340.4785 Q82.1719,340.4785 82.8125,340.6504 Q83.4688,340.8066 84.0156,341.166 Z " fill="#000000"/><text fill="#000000" font-family="FG Virgil" font-size="12" font-style="italic" lengthAdjust="spacing" textLength="53" x="139.75" y="340.9492">&#171;service&#187;</text><text fill="#000000" font-family="FG Virgil" font-size="14" lengthAdjust="spacing" textLength="129" x="101.75" y="359.0684">AuthorizationService</text><line style="stroke:#181818;stroke-width:0.5;" x1="8" x2="292" y1="367.582" y2="367.582"/><line style="stroke:#181818;stroke-width:0.5;" x1="8" x2="292" y1="375.582" y2="375.582"/><text fill="#000000" font-family="FG Virgil" font-size="14" lengthAdjust="spacing" textLength="274" x="13" y="394.6895">ensureAuthenticatedUserHasAnyOf(Role...)</text><text fill="#000000" font-family="FG Virgil" font-size="14" lengthAdjust="spacing" textLength="58" x="13" y="413.3105">session()</text></g><!--class UserSession--><g id="elem_UserSession"><rect codeLine="19" fill="#F1F1F1" height="66.6211" id="UserSession" rx="2.5" ry="2.5" style="stroke:#181818;stroke-width:0.5;" width="137" x="81.5" y="506"/><ellipse cx="108.2" cy="522" fill="#C2C2C2" rx="11" ry="11" style="stroke:#181818;stroke-width:1.0;"/><path d="M110.9656,517.875 Q111.1219,517.6563 111.3094,517.5469 Q111.4969,517.4375 111.7156,517.4375 Q112.0906,517.4375 112.325,517.7031 Q112.5594,517.9531 112.5594,518.5625 L112.5594,520.0156 Q112.5594,520.625 112.325,520.8906 Q112.0906,521.1563 111.7156,521.1563 Q111.3719,521.1563 111.1688,520.9531 Q110.9656,520.7656 110.8563,520.25 Q110.8094,519.8906 110.6219,519.7031 Q110.2938,519.3281 109.6844,519.1094 Q109.075,518.8906 108.45,518.8906 Q107.6844,518.8906 107.0438,519.2188 Q106.4188,519.5469 105.9188,520.2969 Q105.4344,521.0469 105.4344,522.0781 L105.4344,523.1719 Q105.4344,524.4063 106.325,525.2344 Q107.2156,526.0469 108.8094,526.0469 Q109.7469,526.0469 110.4031,525.7969 Q110.7938,525.6406 111.2156,525.2031 Q111.4813,524.9375 111.6219,524.8594 Q111.7781,524.7813 111.9813,524.7813 Q112.3094,524.7813 112.5594,525.0469 Q112.825,525.2969 112.825,525.6406 Q112.825,525.9844 112.4813,526.3906 Q111.9813,526.9688 111.1844,527.2969 Q110.1063,527.75 108.8094,527.75 Q107.2938,527.75 106.0906,527.125 Q105.1063,526.625 104.4188,525.5625 Q103.7313,524.4844 103.7313,523.2031 L103.7313,522.0469 Q103.7313,520.7188 104.3406,519.5781 Q104.9656,518.4219 106.0594,517.8125 Q107.1531,517.1875 108.3875,517.1875 Q109.1219,517.1875 109.7625,517.3594 Q110.4188,517.5156 110.9656,517.875 Z " fill="#000000"/><text fill="#000000" font-family="FG Virgil" font-size="14" lengthAdjust="spacing" textLength="79" x="124.8" y="527.7969">UserSession</text><line style="stroke:#181818;stroke-width:0.5;" x1="82.5" x2="217.5" y1="538" y2="538"/><line style="stroke:#181818;stroke-width:0.5;" x1="82.5" x2="217.5" y1="546" y2="546"/><text fill="#000000" font-family="FG Virgil" font-size="14" lengthAdjust="spacing" textLength="125" x="87.5" y="565.1074">authenticatedUser()</text></g><!--class UserManagementService--><g id="elem_UserManagementService"><rect codeLine="23" fill="#F1F1F1" height="79.2031" id="UserManagementService" rx="2.5" ry="2.5" style="stroke:#181818;stroke-width:0.5;" width="190" x="328" y="332.5"/><ellipse cx="343" cy="354.791" fill="#C2C2C2" rx="11" ry="11" style="stroke:#181818;stroke-width:1.0;"/><path d="M345.7656,350.666 Q345.9219,350.4473 346.1094,350.3379 Q346.2969,350.2285 346.5156,350.2285 Q346.8906,350.2285 347.125,350.4941 Q347.3594,350.7441 347.3594,351.3535 L347.3594,352.8066 Q347.3594,353.416 347.125,353.6816 Q346.8906,353.9473 346.5156,353.9473 Q346.1719,353.9473 345.9688,353.7441 Q345.7656,353.5566 345.6563,353.041 Q345.6094,352.6816 345.4219,352.4941 Q345.0938,352.1191 344.4844,351.9004 Q343.875,351.6816 343.25,351.6816 Q342.4844,351.6816 341.8438,352.0098 Q341.2188,352.3379 340.7188,353.0879 Q340.2344,353.8379 340.2344,354.8691 L340.2344,355.9629 Q340.2344,357.1973 341.125,358.0254 Q342.0156,358.8379 343.6094,358.8379 Q344.5469,358.8379 345.2031,358.5879 Q345.5938,358.4316 346.0156,357.9941 Q346.2813,357.7285 346.4219,357.6504 Q346.5781,357.5723 346.7813,357.5723 Q347.1094,357.5723 347.3594,357.8379 Q347.625,358.0879 347.625,358.4316 Q347.625,358.7754 347.2813,359.1816 Q346.7813,359.7598 345.9844,360.0879 Q344.9063,360.541 343.6094,360.541 Q342.0938,360.541 340.8906,359.916 Q339.9063,359.416 339.2188,358.3535 Q338.5313,357.2754 338.5313,355.9941 L338.5313,354.8379 Q338.5313,353.5098 339.1406,352.3691 Q339.7656,351.2129 340.8594,350.6035 Q341.9531,349.9785 343.1875,349.9785 Q343.9219,349.9785 344.5625,350.1504 Q345.2188,350.3066 345.7656,350.666 Z " fill="#000000"/><text fill="#000000" font-family="FG Virgil" font-size="12" font-style="italic" lengthAdjust="spacing" textLength="53" x="409.5" y="350.4492">&#171;service&#187;</text><text fill="#000000" font-family="FG Virgil" font-size="14" lengthAdjust="spacing" textLength="158" x="357" y="368.5684">UserManagementService</text><line style="stroke:#181818;stroke-width:0.5;" x1="329" x2="517" y1="377.082" y2="377.082"/><line style="stroke:#181818;stroke-width:0.5;" x1="329" x2="517" y1="385.082" y2="385.082"/><text fill="#000000" font-family="FG Virgil" font-size="14" lengthAdjust="spacing" textLength="60" x="334" y="404.1895">allUsers()</text></g><!--class PersistenceContext--><g id="elem_PersistenceContext"><rect codeLine="27" fill="#F1F1F1" height="79.2031" id="PersistenceContext" rx="2.5" ry="2.5" style="stroke:#181818;stroke-width:0.5;" width="154" x="476" y="500"/><ellipse cx="491" cy="522.291" fill="#C2C2C2" rx="11" ry="11" style="stroke:#181818;stroke-width:1.0;"/><path d="M493.7656,518.166 Q493.9219,517.9473 494.1094,517.8379 Q494.2969,517.7285 494.5156,517.7285 Q494.8906,517.7285 495.125,517.9941 Q495.3594,518.2441 495.3594,518.8535 L495.3594,520.3066 Q495.3594,520.916 495.125,521.1816 Q494.8906,521.4473 494.5156,521.4473 Q494.1719,521.4473 493.9688,521.2441 Q493.7656,521.0566 493.6563,520.541 Q493.6094,520.1816 493.4219,519.9941 Q493.0938,519.6191 492.4844,519.4004 Q491.875,519.1816 491.25,519.1816 Q490.4844,519.1816 489.8438,519.5098 Q489.2188,519.8379 488.7188,520.5879 Q488.2344,521.3379 488.2344,522.3691 L488.2344,523.4629 Q488.2344,524.6973 489.125,525.5254 Q490.0156,526.3379 491.6094,526.3379 Q492.5469,526.3379 493.2031,526.0879 Q493.5938,525.9316 494.0156,525.4941 Q494.2813,525.2285 494.4219,525.1504 Q494.5781,525.0723 494.7813,525.0723 Q495.1094,525.0723 495.3594,525.3379 Q495.625,525.5879 495.625,525.9316 Q495.625,526.2754 495.2813,526.6816 Q494.7813,527.2598 493.9844,527.5879 Q492.9063,528.041 491.6094,528.041 Q490.0938,528.041 488.8906,527.416 Q487.9063,526.916 487.2188,525.8535 Q486.5313,524.7754 486.5313,523.4941 L486.5313,522.3379 Q486.5313,521.0098 487.1406,519.8691 Q487.7656,518.7129 488.8594,518.1035 Q489.9531,517.4785 491.1875,517.4785 Q491.9219,517.4785 492.5625,517.6504 Q493.2188,517.8066 493.7656,518.166 Z " fill="#000000"/><text fill="#000000" font-family="FG Virgil" font-size="12" font-style="italic" lengthAdjust="spacing" textLength="77" x="527.5" y="517.9492">&#171;persistence&#187;</text><text fill="#000000" font-family="FG Virgil" font-size="14" lengthAdjust="spacing" textLength="122" x="505" y="536.0684">PersistenceContext</text><line style="stroke:#181818;stroke-width:0.5;" x1="477" x2="629" y1="544.582" y2="544.582"/><line style="stroke:#181818;stroke-width:0.5;" x1="477" x2="629" y1="552.582" y2="552.582"/><text fill="#000000" font-family="FG Virgil" font-size="14" lengthAdjust="spacing" textLength="84" x="482" y="571.6895">repositories()</text></g><!--class RepositoryFactory--><g id="elem_RepositoryFactory"><rect codeLine="31" fill="#F1F1F1" height="79.2031" id="RepositoryFactory" rx="2.5" ry="2.5" style="stroke:#181818;stroke-width:0.5;" width="148" x="477" y="658"/><ellipse cx="492" cy="680.291" fill="#C2C2C2" rx="11" ry="11" style="stroke:#181818;stroke-width:1.0;"/><path d="M494.7656,676.166 Q494.9219,675.9473 495.1094,675.8379 Q495.2969,675.7285 495.5156,675.7285 Q495.8906,675.7285 496.125,675.9941 Q496.3594,676.2441 496.3594,676.8535 L496.3594,678.3066 Q496.3594,678.916 496.125,679.1816 Q495.8906,679.4473 495.5156,679.4473 Q495.1719,679.4473 494.9688,679.2441 Q494.7656,679.0566 494.6563,678.541 Q494.6094,678.1816 494.4219,677.9941 Q494.0938,677.6191 493.4844,677.4004 Q492.875,677.1816 492.25,677.1816 Q491.4844,677.1816 490.8438,677.5098 Q490.2188,677.8379 489.7188,678.5879 Q489.2344,679.3379 489.2344,680.3691 L489.2344,681.4629 Q489.2344,682.6973 490.125,683.5254 Q491.0156,684.3379 492.6094,684.3379 Q493.5469,684.3379 494.2031,684.0879 Q494.5938,683.9316 495.0156,683.4941 Q495.2813,683.2285 495.4219,683.1504 Q495.5781,683.0723 495.7813,683.0723 Q496.1094,683.0723 496.3594,683.3379 Q496.625,683.5879 496.625,683.9316 Q496.625,684.2754 496.2813,684.6816 Q495.7813,685.2598 494.9844,685.5879 Q493.9063,686.041 492.6094,686.041 Q491.0938,686.041 489.8906,685.416 Q488.9063,684.916 488.2188,683.8535 Q487.5313,682.7754 487.5313,681.4941 L487.5313,680.3379 Q487.5313,679.0098 488.1406,677.8691 Q488.7656,676.7129 489.8594,676.1035 Q490.9531,675.4785 492.1875,675.4785 Q492.9219,675.4785 493.5625,675.6504 Q494.2188,675.8066 494.7656,676.166 Z " fill="#000000"/><text fill="#000000" font-family="FG Virgil" font-size="12" font-style="italic" lengthAdjust="spacing" textLength="50" x="539" y="675.9492">&#171;factory&#187;</text><text fill="#000000" font-family="FG Virgil" font-size="14" lengthAdjust="spacing" textLength="116" x="506" y="694.0684">RepositoryFactory</text><line style="stroke:#181818;stroke-width:0.5;" x1="478" x2="624" y1="702.582" y2="702.582"/><line style="stroke:#181818;stroke-width:0.5;" x1="478" x2="624" y1="710.582" y2="710.582"/><text fill="#000000" font-family="FG Virgil" font-size="14" lengthAdjust="spacing" textLength="45" x="483" y="729.6895">users()</text></g><!--class UserRepository--><g id="elem_UserRepository"><rect codeLine="35" fill="#F1F1F1" height="79.2031" id="UserRepository" rx="2.5" ry="2.5" style="stroke:#181818;stroke-width:0.5;" width="129" x="387.5" y="816"/><ellipse cx="402.5" cy="838.291" fill="#C2C2C2" rx="11" ry="11" style="stroke:#181818;stroke-width:1.0;"/><path d="M405.2656,834.166 Q405.4219,833.9473 405.6094,833.8379 Q405.7969,833.7285 406.0156,833.7285 Q406.3906,833.7285 406.625,833.9941 Q406.8594,834.2441 406.8594,834.8535 L406.8594,836.3066 Q406.8594,836.916 406.625,837.1816 Q406.3906,837.4473 406.0156,837.4473 Q405.6719,837.4473 405.4688,837.2441 Q405.2656,837.0566 405.1563,836.541 Q405.1094,836.1816 404.9219,835.9941 Q404.5938,835.6191 403.9844,835.4004 Q403.375,835.1816 402.75,835.1816 Q401.9844,835.1816 401.3438,835.5098 Q400.7188,835.8379 400.2188,836.5879 Q399.7344,837.3379 399.7344,838.3691 L399.7344,839.4629 Q399.7344,840.6973 400.625,841.5254 Q401.5156,842.3379 403.1094,842.3379 Q404.0469,842.3379 404.7031,842.0879 Q405.0938,841.9316 405.5156,841.4941 Q405.7813,841.2285 405.9219,841.1504 Q406.0781,841.0723 406.2813,841.0723 Q406.6094,841.0723 406.8594,841.3379 Q407.125,841.5879 407.125,841.9316 Q407.125,842.2754 406.7813,842.6816 Q406.2813,843.2598 405.4844,843.5879 Q404.4063,844.041 403.1094,844.041 Q401.5938,844.041 400.3906,843.416 Q399.4063,842.916 398.7188,841.8535 Q398.0313,840.7754 398.0313,839.4941 L398.0313,838.3379 Q398.0313,837.0098 398.6406,835.8691 Q399.2656,834.7129 400.3594,834.1035 Q401.4531,833.4785 402.6875,833.4785 Q403.4219,833.4785 404.0625,833.6504 Q404.7188,833.8066 405.2656,834.166 Z " fill="#000000"/><text fill="#000000" font-family="FG Virgil" font-size="12" font-style="italic" lengthAdjust="spacing" textLength="68" x="431" y="833.9492">&#171;repository&#187;</text><text fill="#000000" font-family="FG Virgil" font-size="14" lengthAdjust="spacing" textLength="97" x="416.5" y="852.0684">UserRepository</text><line style="stroke:#181818;stroke-width:0.5;" x1="388.5" x2="515.5" y1="860.582" y2="860.582"/><line style="stroke:#181818;stroke-width:0.5;" x1="388.5" x2="515.5" y1="868.582" y2="868.582"/><text fill="#000000" font-family="FG Virgil" font-size="14" lengthAdjust="spacing" textLength="48" x="393.5" y="887.6895">findAll()</text></g><!--link ListCandidatesUI to ListCandidatesController--><g id="link_ListCandidatesUI_ListCandidatesController"><path codeLine="39" d="M423,86.06 C423,110.06 423,134.82 423,158.84 " fill="none" id="ListCandidatesUI-to-ListCandidatesController" style="stroke:#181818;stroke-width:1.0;"/><polygon fill="#181818" points="423,164.84,427,155.84,423,159.84,419,155.84,423,164.84" style="stroke:#181818;stroke-width:1.0;"/><text fill="#000000" font-family="FG Virgil" font-size="13" lengthAdjust="spacing" textLength="75" x="424" y="131.0283">the controller</text></g><!--link ListCandidatesController to AuthorizationService--><g id="link_ListCandidatesController_AuthorizationService"><path codeLine="40" d="M359.34,244.09 C320.58,267.59 275.8706,294.6891 234.5406,319.7491 " fill="none" id="ListCandidatesController-to-AuthorizationService" style="stroke:#181818;stroke-width:1.0;"/><polygon fill="#181818" points="229.41,322.86,239.1797,321.6141,233.6855,320.2676,235.0319,314.7733,229.41,322.86" style="stroke:#181818;stroke-width:1.0;"/><text fill="#000000" font-family="FG Virgil" font-size="13" lengthAdjust="spacing" textLength="32" x="304" y="289.0283">authz</text></g><!--link ListCandidatesController to UserManagementService--><g id="link_ListCandidatesController_UserManagementService"><path codeLine="41" d="M423,244.3 C423,270.86 423,299.93 423,326.44 " fill="none" id="ListCandidatesController-to-UserManagementService" style="stroke:#181818;stroke-width:1.0;"/><polygon fill="#181818" points="423,332.44,427,323.44,423,327.44,419,323.44,423,332.44" style="stroke:#181818;stroke-width:1.0;"/><text fill="#000000" font-family="FG Virgil" font-size="13" lengthAdjust="spacing" textLength="40" x="424" y="289.0283">service</text></g><!--link ListCandidatesController to PersistenceContext--><g id="link_ListCandidatesController_PersistenceContext"><path codeLine="42" d="M469.96,244.09 C492.75,265.18 518.67,293.07 535,323 C566.98,381.61 572.25,403.52 566,470 C565.08,479.76 564.5384,484.3014 562.7284,494.0214 " fill="none" id="ListCandidatesController-to-PersistenceContext" style="stroke:#181818;stroke-width:1.0;"/><polygon fill="#181818" points="561.63,499.92,567.21,491.8044,562.5453,495.0045,559.3452,490.3398,561.63,499.92" style="stroke:#181818;stroke-width:1.0;"/><text fill="#000000" font-family="FG Virgil" font-size="13" lengthAdjust="spacing" textLength="67" x="570" y="377.5283">persistence</text></g><!--link AuthorizationService to UserSession--><g id="link_AuthorizationService_UserSession"><path codeLine="43" d="M150,421.31 C150,448.51 150,475.74 150,499.86 " fill="none" id="AuthorizationService-to-UserSession" style="stroke:#181818;stroke-width:1.0;"/><polygon fill="#181818" points="150,505.86,154,496.86,150,500.86,146,496.86,150,505.86" style="stroke:#181818;stroke-width:1.0;"/><text fill="#000000" font-family="FG Virgil" font-size="13" lengthAdjust="spacing" textLength="45" x="151" y="466.0283">session</text></g><!--link UserManagementService to PersistenceContext--><g id="link_UserManagementService_PersistenceContext"><path codeLine="44" d="M449.78,411.86 C462.49,429.84 478.13,451.31 493,470 C500.88,479.9 505.7463,485.7781 514.1363,495.3981 " fill="none" id="UserManagementService-to-PersistenceContext" style="stroke:#181818;stroke-width:1.0;"/><polygon fill="#181818" points="518.08,499.92,515.179,490.5081,514.7936,496.1518,509.1499,495.7663,518.08,499.92" style="stroke:#181818;stroke-width:1.0;"/><text fill="#000000" font-family="FG Virgil" font-size="13" lengthAdjust="spacing" textLength="67" x="494" y="466.0283">persistence</text></g><!--link UserManagementService to UserRepository--><g id="link_UserManagementService_UserRepository"><path codeLine="45" d="M425.32,411.59 C430.75,501.75 443.8594,719.4008 449.2994,809.7408 " fill="none" id="UserManagementService-to-UserRepository" style="stroke:#181818;stroke-width:1.0;"/><polygon fill="#181818" points="449.66,815.73,453.1118,806.5058,449.3595,810.739,445.1263,806.9867,449.66,815.73" style="stroke:#181818;stroke-width:1.0;"/><text fill="#000000" font-family="FG Virgil" font-size="13" lengthAdjust="spacing" textLength="25" x="440" y="624.0283">repo</text></g><!--link PersistenceContext to RepositoryFactory--><g id="link_PersistenceContext_RepositoryFactory"><path codeLine="46" d="M552.51,579.06 C552.2,603.06 551.8749,627.8205 551.5749,651.8405 " fill="none" id="PersistenceContext-to-RepositoryFactory" style="stroke:#181818;stroke-width:1.0;"/><polygon fill="#181818" points="551.5,657.84,555.6121,648.8907,551.5624,652.8404,547.6127,648.7907,551.5,657.84" style="stroke:#181818;stroke-width:1.0;"/><text fill="#000000" font-family="FG Virgil" font-size="13" lengthAdjust="spacing" textLength="39" x="554" y="624.0283">factory</text></g><!--link RepositoryFactory to UserRepository--><g id="link_RepositoryFactory_UserRepository"><path codeLine="47" d="M526.53,737.06 C511.3,761.06 494.9959,786.7546 479.7459,810.7746 " fill="none" id="RepositoryFactory-to-UserRepository" style="stroke:#181818;stroke-width:1.0;"/><polygon fill="#181818" points="476.53,815.84,484.7308,810.3859,479.2099,811.6189,477.977,806.098,476.53,815.84" style="stroke:#181818;stroke-width:1.0;"/><text fill="#000000" font-family="FG Virgil" font-size="13" lengthAdjust="spacing" textLength="25" x="509" y="782.0283">repo</text></g><!--SRC=[ZLBBRi8m4BpxAtmi1_Y0224X9DfAVOc8tbVE1YmSExATKgZwxrtd1Ga9QYwnrpEpkxFh3bBdO27ZcT56xAt9a7jR87FjImxY03kC_KaXjoZyrLk2AHJAhutsRq3KzIF_b7OdrHN6xI4nHwbtF0Nba36Xm3d-8frVWKva0XxTzfdFvxb5Xzg3bqOl5lo7SVeI4-_DyM72VWU9AqfjZL9eIG3oN4dHvQiElDIfXPQ5tnihpoK-Hlib1PA8gqwj06fNM0nWgYseOx8bp1EufJwzfmyRet0scqrAi4FdIEqwJG37LRXMXBvM7_uAcXpF23DU5YWLe9sEFkXExQ8M67p1RnzSlGHRiiNSEEcf-wubcoP-MeC8F-AdrQdb5lsieOmBaHYj-eMKIfqibQfeDwEVJXVZOuqukSL56s2Zo20pEDIejFnydpbiVCHhu- -J1voF-9NpRB2k9csp7b6pFsouc7zb6gVs1XMLQy0610FuTXKYNgy2ktqRbsT_]--></g></svg>