<?xml version="1.0" encoding="us-ascii" standalone="no"?><svg xmlns="http://www.w3.org/2000/svg" xmlns:xlink="http://www.w3.org/1999/xlink" contentStyleType="text/css" height="839.4px" preserveAspectRatio="none" style="width:1183px;height:839px;background:#FFFFFF;" version="1.1" viewBox="0 0 1183 839" width="1183.8px" zoomAndPan="magnify"><defs/><g><text fill="#000000" font-family="sans-serif" font-size="8.4" font-weight="bold" lengthAdjust="spacing" textLength="133.2" x="528.9" y="18.0645">Sequence Diagram (SD) - UC026</text><rect fill="#FFFFFF" height="691.5152" style="stroke:#181818;stroke-width:0.6;" width="6" x="51.9" y="82.718"/><rect fill="#FFFFFF" height="291.8191" style="stroke:#181818;stroke-width:0.6;" width="6" x="218.1" y="96.6926"/><rect fill="#FFFFFF" height="18.7746" style="stroke:#181818;stroke-width:0.6;" width="6" x="218.1" y="407.2863"/><rect fill="#FFFFFF" height="285.8484" style="stroke:#181818;stroke-width:0.6;" width="6" x="218.1" y="444.8355"/><rect fill="#FFFFFF" height="254.2699" style="stroke:#181818;stroke-width:0.6;" width="6" x="422.1" y="115.4672"/><rect fill="#FFFFFF" height="248.2992" style="stroke:#181818;stroke-width:0.6;" width="6" x="422.1" y="463.6102"/><rect fill="#FFFFFF" height="93.873" style="stroke:#181818;stroke-width:0.6;" width="6" x="672.9" y="153.0164"/><rect fill="#FFFFFF" height="138.4477" style="stroke:#181818;stroke-width:0.6;" width="6" x="672.9" y="550.4871"/><rect fill="#FFFFFF" height="18.7746" style="stroke:#181818;stroke-width:0.6;" width="6" x="824.7" y="171.791"/><rect fill="#FFFFFF" height="18.7746" style="stroke:#181818;stroke-width:0.6;" width="6" x="915" y="569.2617"/><rect fill="#FFFFFF" height="18.7746" style="stroke:#181818;stroke-width:0.6;" width="6" x="1005" y="209.3402"/><rect fill="#FFFFFF" height="63.3492" style="stroke:#181818;stroke-width:0.6;" width="6" x="1005" y="606.8109"/><rect fill="#FFFFFF" height="16.8" style="stroke:#181818;stroke-width:0.6;" width="6" x="1008" y="630.3855"/><rect fill="none" height="58.1238" style="stroke:#000000;stroke-width:0.8999999999999999;" width="193.2" x="332.1" y="293.4387"/><rect fill="none" height="38.1492" style="stroke:#000000;stroke-width:0.8999999999999999;" width="181.2" x="338.1" y="309.2133"/><rect fill="none" height="205.35" style="stroke:#000000;stroke-width:0.8999999999999999;" width="841.5" x="338.1" y="488.3848"/><rect fill="none" height="30.3492" style="stroke:#000000;stroke-width:0.8999999999999999;" width="281.1" x="12" y="739.684"/><line style="stroke:#181818;stroke-width:0.3;stroke-dasharray:5.0,5.0;" x1="54.6" x2="54.6" y1="76.718" y2="780.2332"/><line style="stroke:#181818;stroke-width:0.3;stroke-dasharray:5.0,5.0;" x1="221.1" x2="221.1" y1="76.718" y2="780.2332"/><line style="stroke:#181818;stroke-width:0.3;stroke-dasharray:5.0,5.0;" x1="425.1" x2="425.1" y1="76.718" y2="780.2332"/><line style="stroke:#181818;stroke-width:0.3;stroke-dasharray:5.0,5.0;" x1="675.6" x2="675.6" y1="76.718" y2="780.2332"/><line style="stroke:#181818;stroke-width:0.3;stroke-dasharray:5.0,5.0;" x1="827.4" x2="827.4" y1="76.718" y2="780.2332"/><line style="stroke:#181818;stroke-width:0.3;stroke-dasharray:5.0,5.0;" x1="918" x2="918" y1="76.718" y2="780.2332"/><line style="stroke:#181818;stroke-width:0.3;stroke-dasharray:5.0,5.0;" x1="1008" x2="1008" y1="76.718" y2="780.2332"/><text fill="#000000" font-family="sans-serif" font-size="8.4" lengthAdjust="spacing" textLength="70.2" x="18" y="74.6098">CustomerManager</text><ellipse cx="54.9" cy="34.6453" fill="#E2E2F0" rx="4.8" ry="4.8" style="stroke:#181818;stroke-width:0.3;"/><path d="M54.9,39.4453 L54.9,55.6453 M47.1,44.2453 L62.7,44.2453 M54.9,55.6453 L47.1,64.6453 M54.9,55.6453 L62.7,64.6453 " fill="none" style="stroke:#181818;stroke-width:0.3;"/><text fill="#000000" font-family="sans-serif" font-size="8.4" lengthAdjust="spacing" textLength="70.2" x="18" y="788.6977">CustomerManager</text><ellipse cx="54.9" cy="795.9059" fill="#E2E2F0" rx="4.8" ry="4.8" style="stroke:#181818;stroke-width:0.3;"/><path d="M54.9,800.7059 L54.9,816.9059 M47.1,805.5059 L62.7,805.5059 M54.9,816.9059 L47.1,825.9059 M54.9,816.9059 L62.7,825.9059 " fill="none" style="stroke:#181818;stroke-width:0.3;"/><rect fill="#E2E2F0" height="30.7453" rx="1.5" ry="1.5" style="stroke:#181818;stroke-width:0.3;" width="132" x="155.1" y="45.3727"/><text fill="#000000" font-family="sans-serif" font-size="8.4" font-style="italic" lengthAdjust="spacing" textLength="57" x="192.6" y="58.6371">&#171;presentation&#187;</text><text fill="#000000" font-family="sans-serif" font-size="8.4" lengthAdjust="spacing" textLength="123.6" x="159.3" y="69.8098">OpenClosePhasesJobOpeningUI</text><rect fill="#E2E2F0" height="30.7453" rx="1.5" ry="1.5" style="stroke:#181818;stroke-width:0.3;" width="132" x="155.1" y="779.6332"/><text fill="#000000" font-family="sans-serif" font-size="8.4" font-style="italic" lengthAdjust="spacing" textLength="57" x="192.6" y="792.8977">&#171;presentation&#187;</text><text fill="#000000" font-family="sans-serif" font-size="8.4" lengthAdjust="spacing" textLength="123.6" x="159.3" y="804.0703">OpenClosePhasesJobOpeningUI</text><rect fill="#E2E2F0" height="30.7453" rx="1.5" ry="1.5" style="stroke:#181818;stroke-width:0.3;" width="162" x="344.1" y="45.3727"/><text fill="#000000" font-family="sans-serif" font-size="8.4" font-style="italic" lengthAdjust="spacing" textLength="50.4" x="399.9" y="58.6371">&#171;application&#187;</text><text fill="#000000" font-family="sans-serif" font-size="8.4" lengthAdjust="spacing" textLength="153.6" x="348.3" y="69.8098">OpenClosePhasesJobOpeningController</text><rect fill="#E2E2F0" height="30.7453" rx="1.5" ry="1.5" style="stroke:#181818;stroke-width:0.3;" width="162" x="344.1" y="779.6332"/><text fill="#000000" font-family="sans-serif" font-size="8.4" font-style="italic" lengthAdjust="spacing" textLength="50.4" x="399.9" y="792.8977">&#171;application&#187;</text><text fill="#000000" font-family="sans-serif" font-size="8.4" lengthAdjust="spacing" textLength="153.6" x="348.3" y="804.0703">OpenClosePhasesJobOpeningController</text><rect fill="#E2E2F0" height="30.7453" rx="1.5" ry="1.5" style="stroke:#181818;stroke-width:0.3;" width="136.2" x="607.8" y="45.3727"/><text fill="#000000" font-family="sans-serif" font-size="8.4" font-style="italic" lengthAdjust="spacing" textLength="36" x="657.9" y="58.6371">&#171;service&#187;</text><text fill="#000000" font-family="sans-serif" font-size="8.4" lengthAdjust="spacing" textLength="127.8" x="612" y="69.8098">: JobOpeningManagementService</text><rect fill="#E2E2F0" height="30.7453" rx="1.5" ry="1.5" style="stroke:#181818;stroke-width:0.3;" width="136.2" x="607.8" y="779.6332"/><text fill="#000000" font-family="sans-serif" font-size="8.4" font-style="italic" lengthAdjust="spacing" textLength="36" x="657.9" y="792.8977">&#171;service&#187;</text><text fill="#000000" font-family="sans-serif" font-size="8.4" lengthAdjust="spacing" textLength="127.8" x="612" y="804.0703">: JobOpeningManagementService</text><rect fill="#E2E2F0" height="30.7453" rx="1.5" ry="1.5" style="stroke:#181818;stroke-width:0.3;" width="90.6" x="782.4" y="45.3727"/><text fill="#000000" font-family="sans-serif" font-size="8.4" font-style="italic" lengthAdjust="spacing" textLength="36" x="809.7" y="58.6371">&#171;service&#187;</text><text fill="#000000" font-family="sans-serif" font-size="8.4" lengthAdjust="spacing" textLength="82.2" x="786.6" y="69.8098">: AuthorizationService</text><rect fill="#E2E2F0" height="30.7453" rx="1.5" ry="1.5" style="stroke:#181818;stroke-width:0.3;" width="90.6" x="782.4" y="779.6332"/><text fill="#000000" font-family="sans-serif" font-size="8.4" font-style="italic" lengthAdjust="spacing" textLength="36" x="809.7" y="792.8977">&#171;service&#187;</text><text fill="#000000" font-family="sans-serif" font-size="8.4" lengthAdjust="spacing" textLength="82.2" x="786.6" y="804.0703">: AuthorizationService</text><rect fill="#E2E2F0" height="30.7453" rx="1.5" ry="1.5" style="stroke:#181818;stroke-width:0.3;" width="78" x="879" y="45.3727"/><text fill="#000000" font-family="sans-serif" font-size="8.4" font-style="italic" lengthAdjust="spacing" textLength="35.4" x="900.3" y="58.6371">&#171;factory&#187;</text><text fill="#000000" font-family="sans-serif" font-size="8.4" lengthAdjust="spacing" textLength="69.6" x="883.2" y="69.8098">RepositoryFactory</text><rect fill="#E2E2F0" height="30.7453" rx="1.5" ry="1.5" style="stroke:#181818;stroke-width:0.3;" width="78" x="879" y="779.6332"/><text fill="#000000" font-family="sans-serif" font-size="8.4" font-style="italic" lengthAdjust="spacing" textLength="35.4" x="900.3" y="792.8977">&#171;factory&#187;</text><text fill="#000000" font-family="sans-serif" font-size="8.4" lengthAdjust="spacing" textLength="69.6" x="883.2" y="804.0703">RepositoryFactory</text><text fill="#000000" font-family="sans-serif" font-size="8.4" font-style="italic" lengthAdjust="spacing" textLength="47.4" x="982.5" y="63.4371">&#171;repository&#187;</text><text fill="#000000" font-family="sans-serif" font-size="8.4" lengthAdjust="spacing" textLength="86.4" x="963" y="74.6098">JobOpeningRepository</text><path d="M997.2,32.7727 C997.2,26.7727 1008,26.7727 1008,26.7727 C1008,26.7727 1018.8,26.7727 1018.8,32.7727 L1018.8,48.3727 C1018.8,54.3727 1008,54.3727 1008,54.3727 C1008,54.3727 997.2,54.3727 997.2,48.3727 L997.2,32.7727 " fill="#E2E2F0" style="stroke:#181818;stroke-width:0.8999999999999999;"/><path d="M997.2,32.7727 C997.2,38.7727 1008,38.7727 1008,38.7727 C1008,38.7727 1018.8,38.7727 1018.8,32.7727 " fill="none" style="stroke:#181818;stroke-width:0.8999999999999999;"/><text fill="#000000" font-family="sans-serif" font-size="8.4" font-style="italic" lengthAdjust="spacing" textLength="47.4" x="982.5" y="788.6977">&#171;repository&#187;</text><text fill="#000000" font-family="sans-serif" font-size="8.4" lengthAdjust="spacing" textLength="86.4" x="963" y="799.8703">JobOpeningRepository</text><path d="M997.2,807.9785 C997.2,801.9785 1008,801.9785 1008,801.9785 C1008,801.9785 1018.8,801.9785 1018.8,807.9785 L1018.8,823.5785 C1018.8,829.5785 1008,829.5785 1008,829.5785 C1008,829.5785 997.2,829.5785 997.2,823.5785 L997.2,807.9785 " fill="#E2E2F0" style="stroke:#181818;stroke-width:0.8999999999999999;"/><path d="M997.2,807.9785 C997.2,813.9785 1008,813.9785 1008,813.9785 C1008,813.9785 1018.8,813.9785 1018.8,807.9785 " fill="none" style="stroke:#181818;stroke-width:0.8999999999999999;"/><rect fill="#FFFFFF" height="691.5152" style="stroke:#181818;stroke-width:0.6;" width="6" x="51.9" y="82.718"/><rect fill="#FFFFFF" height="291.8191" style="stroke:#181818;stroke-width:0.6;" width="6" x="218.1" y="96.6926"/><rect fill="#FFFFFF" height="18.7746" style="stroke:#181818;stroke-width:0.6;" width="6" x="218.1" y="407.2863"/><rect fill="#FFFFFF" height="285.8484" style="stroke:#181818;stroke-width:0.6;" width="6" x="218.1" y="444.8355"/><rect fill="#FFFFFF" height="254.2699" style="stroke:#181818;stroke-width:0.6;" width="6" x="422.1" y="115.4672"/><rect fill="#FFFFFF" height="248.2992" style="stroke:#181818;stroke-width:0.6;" width="6" x="422.1" y="463.6102"/><rect fill="#FFFFFF" height="93.873" style="stroke:#181818;stroke-width:0.6;" width="6" x="672.9" y="153.0164"/><rect fill="#FFFFFF" height="138.4477" style="stroke:#181818;stroke-width:0.6;" width="6" x="672.9" y="550.4871"/><rect fill="#FFFFFF" height="18.7746" style="stroke:#181818;stroke-width:0.6;" width="6" x="824.7" y="171.791"/><rect fill="#FFFFFF" height="18.7746" style="stroke:#181818;stroke-width:0.6;" width="6" x="915" y="569.2617"/><rect fill="#FFFFFF" height="18.7746" style="stroke:#181818;stroke-width:0.6;" width="6" x="1005" y="209.3402"/><rect fill="#FFFFFF" height="63.3492" style="stroke:#181818;stroke-width:0.6;" width="6" x="1005" y="606.8109"/><rect fill="#FFFFFF" height="16.8" style="stroke:#181818;stroke-width:0.6;" width="6" x="1008" y="630.3855"/><polygon fill="#181818" points="210.9,94.2926,216.9,96.6926,210.9,99.0926,213.3,96.6926" style="stroke:#181818;stroke-width:0.6;"/><line style="stroke:#181818;stroke-width:0.6;stroke-dasharray:2.0,2.0;" x1="57.9" x2="214.5" y1="96.6926" y2="96.6926"/><text fill="#000000" font-family="sans-serif" font-size="7.8" font-weight="bold" lengthAdjust="spacing" textLength="4.2" x="62.1" y="93.535">0</text><text fill="#000000" font-family="sans-serif" font-size="7.8" lengthAdjust="spacing" textLength="142.2" x="68.7" y="93.535">Select the option to open the job opening</text><polygon fill="#181818" points="414.9,113.0672,420.9,115.4672,414.9,117.8672,417.3,115.4672" style="stroke:#181818;stroke-width:0.6;"/><line style="stroke:#181818;stroke-width:0.6;" x1="224.1" x2="418.5" y1="115.4672" y2="115.4672"/><text fill="#000000" font-family="sans-serif" font-size="7.8" font-weight="bold" lengthAdjust="spacing" textLength="4.2" x="228.3" y="112.3096">1</text><text fill="#000000" font-family="sans-serif" font-size="7.8" lengthAdjust="spacing" textLength="26.4" x="234.9" y="112.3096">create()</text><polygon fill="#181818" points="414.9,131.8418,420.9,134.2418,414.9,136.6418,417.3,134.2418" style="stroke:#181818;stroke-width:0.6;"/><line style="stroke:#181818;stroke-width:0.6;" x1="224.1" x2="418.5" y1="134.2418" y2="134.2418"/><text fill="#000000" font-family="sans-serif" font-size="7.8" font-weight="bold" lengthAdjust="spacing" textLength="4.2" x="228.3" y="131.0842">2</text><text fill="#000000" font-family="sans-serif" font-size="7.8" lengthAdjust="spacing" textLength="101.4" x="234.9" y="131.0842">obtainJobOpeningsAvailable()</text><polygon fill="#181818" points="665.7,150.6164,671.7,153.0164,665.7,155.4164,668.1,153.0164" style="stroke:#181818;stroke-width:0.6;"/><line style="stroke:#181818;stroke-width:0.6;" x1="428.1" x2="669.3" y1="153.0164" y2="153.0164"/><text fill="#000000" font-family="sans-serif" font-size="7.8" font-weight="bold" lengthAdjust="spacing" textLength="4.2" x="432.3" y="149.8588">3</text><text fill="#000000" font-family="sans-serif" font-size="7.8" lengthAdjust="spacing" textLength="56.4" x="438.9" y="149.8588">findAllAvailable()</text><polygon fill="#181818" points="817.5,169.391,823.5,171.791,817.5,174.191,819.9,171.791" style="stroke:#181818;stroke-width:0.6;"/><line style="stroke:#181818;stroke-width:0.6;" x1="678.9" x2="821.1" y1="171.791" y2="171.791"/><text fill="#000000" font-family="sans-serif" font-size="7.8" font-weight="bold" lengthAdjust="spacing" textLength="4.2" x="683.1" y="168.6334">4</text><text fill="#000000" font-family="sans-serif" font-size="7.8" lengthAdjust="spacing" textLength="127.8" x="689.7" y="168.6334">ensureAuthenticatedUserHasAnyOf()</text><polygon fill="#181818" points="685.5,188.1656,679.5,190.5656,685.5,192.9656,683.1,190.5656" style="stroke:#181818;stroke-width:0.6;"/><line style="stroke:#181818;stroke-width:0.6;stroke-dasharray:2.0,2.0;" x1="681.9" x2="827.1" y1="190.5656" y2="190.5656"/><text fill="#000000" font-family="sans-serif" font-size="7.8" font-weight="bold" lengthAdjust="spacing" textLength="4.2" x="689.1" y="187.408">5</text><text fill="#000000" font-family="sans-serif" font-size="7.8" lengthAdjust="spacing" textLength="91.2" x="695.7" y="187.408">(in)success authentication</text><polygon fill="#181818" points="997.8,206.9402,1003.8,209.3402,997.8,211.7402,1000.2,209.3402" style="stroke:#181818;stroke-width:0.6;"/><line style="stroke:#181818;stroke-width:0.6;" x1="678.9" x2="1001.4" y1="209.3402" y2="209.3402"/><text fill="#000000" font-family="sans-serif" font-size="7.8" font-weight="bold" lengthAdjust="spacing" textLength="4.2" x="683.1" y="206.1826">6</text><text fill="#000000" font-family="sans-serif" font-size="7.8" lengthAdjust="spacing" textLength="25.8" x="689.7" y="206.1826">findAll()</text><polygon fill="#181818" points="685.5,225.7148,679.5,228.1148,685.5,230.5148,683.1,228.1148" style="stroke:#181818;stroke-width:0.6;"/><line style="stroke:#181818;stroke-width:0.6;stroke-dasharray:2.0,2.0;" x1="681.9" x2="1007.4" y1="228.1148" y2="228.1148"/><text fill="#000000" font-family="sans-serif" font-size="7.8" font-weight="bold" lengthAdjust="spacing" textLength="4.2" x="689.1" y="224.9572">7</text><text fill="#000000" font-family="sans-serif" font-size="7.8" lengthAdjust="spacing" textLength="64.8" x="695.7" y="224.9572">list of job openings</text><polygon fill="#181818" points="434.7,244.4895,428.7,246.8895,434.7,249.2895,432.3,246.8895" style="stroke:#181818;stroke-width:0.6;"/><line style="stroke:#181818;stroke-width:0.6;stroke-dasharray:2.0,2.0;" x1="431.1" x2="675.3" y1="246.8895" y2="246.8895"/><text fill="#000000" font-family="sans-serif" font-size="7.8" font-weight="bold" lengthAdjust="spacing" textLength="4.2" x="438.3" y="243.7318">8</text><text fill="#000000" font-family="sans-serif" font-size="7.8" lengthAdjust="spacing" textLength="64.8" x="444.9" y="243.7318">list of job openings</text><polygon fill="#181818" points="230.7,263.2641,224.7,265.6641,230.7,268.0641,228.3,265.6641" style="stroke:#181818;stroke-width:0.6;"/><line style="stroke:#181818;stroke-width:0.6;stroke-dasharray:2.0,2.0;" x1="227.1" x2="421.5" y1="265.6641" y2="265.6641"/><text fill="#000000" font-family="sans-serif" font-size="7.8" font-weight="bold" lengthAdjust="spacing" textLength="4.2" x="234.3" y="262.5064">9</text><text fill="#000000" font-family="sans-serif" font-size="7.8" lengthAdjust="spacing" textLength="64.8" x="240.9" y="262.5064">list of job openings</text><polygon fill="#181818" points="414.9,282.0387,420.9,284.4387,414.9,286.8387,417.3,284.4387" style="stroke:#181818;stroke-width:0.6;"/><line style="stroke:#181818;stroke-width:0.6;" x1="224.1" x2="418.5" y1="284.4387" y2="284.4387"/><text fill="#000000" font-family="sans-serif" font-size="7.8" font-weight="bold" lengthAdjust="spacing" textLength="8.4" x="228.3" y="281.2811">10</text><text fill="#000000" font-family="sans-serif" font-size="7.8" lengthAdjust="spacing" textLength="172.8" x="239.1" y="281.2811">filterJobOpenings(List&lt;JobOpening&gt; jobOpenings)</text><path d="M332.1,293.4387 L375.9,293.4387 L375.9,299.0133 L369.9,305.0133 L332.1,305.0133 L332.1,293.4387 " fill="#EEEEEE" style="stroke:#000000;stroke-width:0.8999999999999999;"/><rect fill="none" height="58.1238" style="stroke:#000000;stroke-width:0.8999999999999999;" width="193.2" x="332.1" y="293.4387"/><text fill="#000000" font-family="sans-serif" font-size="7.8" font-weight="bold" lengthAdjust="spacing" textLength="16.8" x="341.1" y="302.4557">loop</text><text fill="#000000" font-family="sans-serif" font-size="6.6" font-weight="bold" lengthAdjust="spacing" textLength="72.6" x="384.9" y="301.7607">[for each job opening]</text><path d="M338.1,309.2133 L374.7,309.2133 L374.7,314.7879 L368.7,320.7879 L338.1,320.7879 L338.1,309.2133 " fill="#EEEEEE" style="stroke:#000000;stroke-width:0.8999999999999999;"/><rect fill="none" height="38.1492" style="stroke:#000000;stroke-width:0.8999999999999999;" width="181.2" x="338.1" y="309.2133"/><text fill="#000000" font-family="sans-serif" font-size="7.8" font-weight="bold" lengthAdjust="spacing" textLength="9.6" x="347.1" y="318.2303">alt</text><text fill="#000000" font-family="sans-serif" font-size="6.6" font-weight="bold" lengthAdjust="spacing" textLength="108" x="383.7" y="317.5354">[if jobOpening.phases.isEmpty()]</text><line style="stroke:#181818;stroke-width:0.6;" x1="428.1" x2="453.3" y1="334.7625" y2="334.7625"/><line style="stroke:#181818;stroke-width:0.6;" x1="453.3" x2="453.3" y1="334.7625" y2="342.5625"/><line style="stroke:#181818;stroke-width:0.6;" x1="428.7" x2="453.3" y1="342.5625" y2="342.5625"/><polygon fill="#181818" points="434.7,340.1625,428.7,342.5625,434.7,344.9625,432.3,342.5625" style="stroke:#181818;stroke-width:0.6;"/><text fill="#000000" font-family="sans-serif" font-size="7.8" font-weight="bold" lengthAdjust="spacing" textLength="8.4" x="432.3" y="331.6049">11</text><text fill="#000000" font-family="sans-serif" font-size="7.8" lengthAdjust="spacing" textLength="69" x="443.1" y="331.6049">addList(jobOpening)</text><polygon fill="#181818" points="230.7,367.3371,224.7,369.7371,230.7,372.1371,228.3,369.7371" style="stroke:#181818;stroke-width:0.6;"/><line style="stroke:#181818;stroke-width:0.6;stroke-dasharray:2.0,2.0;" x1="227.1" x2="424.5" y1="369.7371" y2="369.7371"/><text fill="#000000" font-family="sans-serif" font-size="7.8" font-weight="bold" lengthAdjust="spacing" textLength="8.4" x="234.3" y="366.5795">12</text><text fill="#000000" font-family="sans-serif" font-size="7.8" lengthAdjust="spacing" textLength="64.8" x="245.1" y="366.5795">list of job openings</text><polygon fill="#181818" points="64.5,386.1117,58.5,388.5117,64.5,390.9117,62.1,388.5117" style="stroke:#181818;stroke-width:0.6;"/><line style="stroke:#181818;stroke-width:0.6;" x1="60.9" x2="220.5" y1="388.5117" y2="388.5117"/><text fill="#000000" font-family="sans-serif" font-size="7.8" font-weight="bold" lengthAdjust="spacing" textLength="8.4" x="68.1" y="385.3541">13</text><text fill="#000000" font-family="sans-serif" font-size="7.8" lengthAdjust="spacing" textLength="87.6" x="78.9" y="385.3541">show list of job openings.</text><polygon fill="#181818" points="210.9,404.8863,216.9,407.2863,210.9,409.6863,213.3,407.2863" style="stroke:#181818;stroke-width:0.6;"/><line style="stroke:#181818;stroke-width:0.6;" x1="57.9" x2="214.5" y1="407.2863" y2="407.2863"/><text fill="#000000" font-family="sans-serif" font-size="7.8" font-weight="bold" lengthAdjust="spacing" textLength="8.4" x="62.1" y="404.1287">14</text><text fill="#000000" font-family="sans-serif" font-size="7.8" lengthAdjust="spacing" textLength="105.6" x="72.9" y="404.1287">Select the job opening to open</text><polygon fill="#181818" points="64.5,423.6609,58.5,426.0609,64.5,428.4609,62.1,426.0609" style="stroke:#181818;stroke-width:0.6;"/><line style="stroke:#181818;stroke-width:0.6;stroke-dasharray:2.0,2.0;" x1="60.9" x2="220.5" y1="426.0609" y2="426.0609"/><text fill="#000000" font-family="sans-serif" font-size="7.8" font-weight="bold" lengthAdjust="spacing" textLength="8.4" x="68.1" y="422.9033">15</text><text fill="#000000" font-family="sans-serif" font-size="7.8" lengthAdjust="spacing" textLength="95.4" x="78.9" y="422.9033">Display job opening phases</text><polygon fill="#181818" points="210.9,442.4355,216.9,444.8355,210.9,447.2355,213.3,444.8355" style="stroke:#181818;stroke-width:0.6;"/><line style="stroke:#181818;stroke-width:0.6;" x1="57.9" x2="214.5" y1="444.8355" y2="444.8355"/><text fill="#000000" font-family="sans-serif" font-size="7.8" font-weight="bold" lengthAdjust="spacing" textLength="8.4" x="62.1" y="441.6779">16</text><text fill="#000000" font-family="sans-serif" font-size="7.8" lengthAdjust="spacing" textLength="97.8" x="72.9" y="441.6779">Select the phase to be open</text><polygon fill="#181818" points="414.9,461.2102,420.9,463.6102,414.9,466.0102,417.3,463.6102" style="stroke:#181818;stroke-width:0.6;"/><line style="stroke:#181818;stroke-width:0.6;" x1="224.1" x2="418.5" y1="463.6102" y2="463.6102"/><text fill="#000000" font-family="sans-serif" font-size="7.8" font-weight="bold" lengthAdjust="spacing" textLength="8.4" x="228.3" y="460.4525">17</text><text fill="#000000" font-family="sans-serif" font-size="7.8" lengthAdjust="spacing" textLength="48" x="239.1" y="460.4525">openPhases()</text><path d="M338.1,488.3848 L374.7,488.3848 L374.7,493.9594 L368.7,499.9594 L338.1,499.9594 L338.1,488.3848 " fill="#EEEEEE" style="stroke:#000000;stroke-width:0.8999999999999999;"/><rect fill="none" height="205.35" style="stroke:#000000;stroke-width:0.8999999999999999;" width="841.5" x="338.1" y="488.3848"/><text fill="#000000" font-family="sans-serif" font-size="7.8" font-weight="bold" lengthAdjust="spacing" textLength="9.6" x="347.1" y="497.4018">alt</text><text fill="#000000" font-family="sans-serif" font-size="6.6" font-weight="bold" lengthAdjust="spacing" textLength="90.6" x="383.7" y="496.7068">[if status != Status.PENDING]</text><line style="stroke:#181818;stroke-width:0.6;" x1="428.1" x2="453.3" y1="513.934" y2="513.934"/><line style="stroke:#181818;stroke-width:0.6;" x1="453.3" x2="453.3" y1="513.934" y2="521.734"/><line style="stroke:#181818;stroke-width:0.6;" x1="428.7" x2="453.3" y1="521.734" y2="521.734"/><polygon fill="#181818" points="434.7,519.334,428.7,521.734,434.7,524.134,432.3,521.734" style="stroke:#181818;stroke-width:0.6;"/><text fill="#000000" font-family="sans-serif" font-size="7.8" font-weight="bold" lengthAdjust="spacing" textLength="8.4" x="432.3" y="510.7764">18</text><text fill="#000000" font-family="sans-serif" font-size="7.8" lengthAdjust="spacing" textLength="57" x="443.1" y="510.7764">allPending=false</text><line style="stroke:#000000;stroke-width:0.6;stroke-dasharray:2.0,2.0;" x1="338.1" x2="1179.6" y1="527.134" y2="527.134"/><text fill="#000000" font-family="sans-serif" font-size="6.6" font-weight="bold" lengthAdjust="spacing" textLength="186.6" x="341.1" y="534.2561">[if allPending=true &amp;&amp; firstPhase == Phase.APPLICATION]</text><polygon fill="#181818" points="665.7,548.0871,671.7,550.4871,665.7,552.8871,668.1,550.4871" style="stroke:#181818;stroke-width:0.6;"/><line style="stroke:#181818;stroke-width:0.6;" x1="428.1" x2="669.3" y1="550.4871" y2="550.4871"/><text fill="#000000" font-family="sans-serif" font-size="7.8" font-weight="bold" lengthAdjust="spacing" textLength="8.4" x="432.3" y="547.3295">19</text><text fill="#000000" font-family="sans-serif" font-size="7.8" lengthAdjust="spacing" textLength="222.6" x="443.1" y="547.3295">updatePhases(jobOpening, currentPhase, Status.COMPLETED)</text><polygon fill="#181818" points="907.8,566.8617,913.8,569.2617,907.8,571.6617,910.2,569.2617" style="stroke:#181818;stroke-width:0.6;"/><line style="stroke:#181818;stroke-width:0.6;" x1="678.9" x2="911.4" y1="569.2617" y2="569.2617"/><text fill="#000000" font-family="sans-serif" font-size="7.8" font-weight="bold" lengthAdjust="spacing" textLength="8.4" x="683.1" y="566.1041">20</text><text fill="#000000" font-family="sans-serif" font-size="7.8" lengthAdjust="spacing" textLength="45" x="693.9" y="566.1041">repositories()</text><polygon fill="#181818" points="685.5,585.6363,679.5,588.0363,685.5,590.4363,683.1,588.0363" style="stroke:#181818;stroke-width:0.6;"/><line style="stroke:#181818;stroke-width:0.6;stroke-dasharray:2.0,2.0;" x1="681.9" x2="917.4" y1="588.0363" y2="588.0363"/><text fill="#000000" font-family="sans-serif" font-size="7.8" font-weight="bold" lengthAdjust="spacing" textLength="8.4" x="689.1" y="584.8787">21</text><text fill="#000000" font-family="sans-serif" font-size="7.8" lengthAdjust="spacing" textLength="76.2" x="699.9" y="584.8787">jobOpeningRepository</text><polygon fill="#181818" points="997.8,604.4109,1003.8,606.8109,997.8,609.2109,1000.2,606.8109" style="stroke:#181818;stroke-width:0.6;"/><line style="stroke:#181818;stroke-width:0.6;" x1="678.9" x2="1001.4" y1="606.8109" y2="606.8109"/><text fill="#000000" font-family="sans-serif" font-size="7.8" font-weight="bold" lengthAdjust="spacing" textLength="8.4" x="683.1" y="603.6533">22</text><text fill="#000000" font-family="sans-serif" font-size="7.8" lengthAdjust="spacing" textLength="222.6" x="693.9" y="603.6533">updatePhases(jobOpening, currentPhase, Status.COMPLETED)</text><line style="stroke:#181818;stroke-width:0.6;" x1="1014" x2="1039.2" y1="625.5855" y2="625.5855"/><line style="stroke:#181818;stroke-width:0.6;" x1="1039.2" x2="1039.2" y1="625.5855" y2="633.3855"/><line style="stroke:#181818;stroke-width:0.6;" x1="1014.6" x2="1039.2" y1="633.3855" y2="633.3855"/><polygon fill="#181818" points="1020.6,630.9855,1014.6,633.3855,1020.6,635.7855,1018.2,633.3855" style="stroke:#181818;stroke-width:0.6;"/><text fill="#000000" font-family="sans-serif" font-size="7.8" font-weight="bold" lengthAdjust="spacing" textLength="8.4" x="1018.2" y="622.4279">23</text><text fill="#000000" font-family="sans-serif" font-size="7.8" lengthAdjust="spacing" textLength="143.4" x="1029" y="622.4279">:OLD.phaseStatus := :NEW.phaseStatus</text><polygon fill="#181818" points="685.5,667.7602,679.5,670.1602,685.5,672.5602,683.1,670.1602" style="stroke:#181818;stroke-width:0.6;"/><line style="stroke:#181818;stroke-width:0.6;stroke-dasharray:2.0,2.0;" x1="681.9" x2="1007.4" y1="670.1602" y2="670.1602"/><text fill="#000000" font-family="sans-serif" font-size="7.8" font-weight="bold" lengthAdjust="spacing" textLength="8.4" x="689.1" y="667.0025">24</text><text fill="#000000" font-family="sans-serif" font-size="7.8" lengthAdjust="spacing" textLength="74.4" x="699.9" y="667.0025">(in)success operation</text><polygon fill="#181818" points="434.7,686.5348,428.7,688.9348,434.7,691.3348,432.3,688.9348" style="stroke:#181818;stroke-width:0.6;"/><line style="stroke:#181818;stroke-width:0.6;stroke-dasharray:2.0,2.0;" x1="431.1" x2="675.3" y1="688.9348" y2="688.9348"/><text fill="#000000" font-family="sans-serif" font-size="7.8" font-weight="bold" lengthAdjust="spacing" textLength="8.4" x="438.3" y="685.7771">25</text><text fill="#000000" font-family="sans-serif" font-size="7.8" lengthAdjust="spacing" textLength="74.4" x="449.1" y="685.7771">(in)success operation</text><polygon fill="#181818" points="230.7,709.5094,224.7,711.9094,230.7,714.3094,228.3,711.9094" style="stroke:#181818;stroke-width:0.6;"/><line style="stroke:#181818;stroke-width:0.6;stroke-dasharray:2.0,2.0;" x1="227.1" x2="424.5" y1="711.9094" y2="711.9094"/><text fill="#000000" font-family="sans-serif" font-size="7.8" font-weight="bold" lengthAdjust="spacing" textLength="8.4" x="234.3" y="708.7518">26</text><text fill="#000000" font-family="sans-serif" font-size="7.8" lengthAdjust="spacing" textLength="74.4" x="245.1" y="708.7518">(in)success operation</text><polygon fill="#181818" points="64.5,728.284,58.5,730.684,64.5,733.084,62.1,730.684" style="stroke:#181818;stroke-width:0.6;"/><line style="stroke:#181818;stroke-width:0.6;" x1="60.9" x2="220.5" y1="730.684" y2="730.684"/><text fill="#000000" font-family="sans-serif" font-size="7.8" font-weight="bold" lengthAdjust="spacing" textLength="8.4" x="68.1" y="727.5264">27</text><text fill="#000000" font-family="sans-serif" font-size="7.8" lengthAdjust="spacing" textLength="91.8" x="78.9" y="727.5264">phase closed successfully</text><path d="M12,739.684 L48.6,739.684 L48.6,745.2586 L42.6,751.2586 L12,751.2586 L12,739.684 " fill="#EEEEEE" style="stroke:#000000;stroke-width:0.8999999999999999;"/><rect fill="none" height="30.3492" style="stroke:#000000;stroke-width:0.8999999999999999;" width="281.1" x="12" y="739.684"/><text fill="#000000" font-family="sans-serif" font-size="7.8" font-weight="bold" lengthAdjust="spacing" textLength="9.6" x="21" y="748.701">alt</text><text fill="#000000" font-family="sans-serif" font-size="6.6" font-weight="bold" lengthAdjust="spacing" textLength="112.2" x="57.6" y="748.0061">[if allPhases = Status.COMPLETED]</text><polygon fill="#181818" points="64.5,762.8332,58.5,765.2332,64.5,767.6332,62.1,765.2332" style="stroke:#181818;stroke-width:0.6;"/><line style="stroke:#181818;stroke-width:0.6;stroke-dasharray:2.0,2.0;" x1="60.9" x2="220.5" y1="765.2332" y2="765.2332"/><text fill="#000000" font-family="sans-serif" font-size="7.8" font-weight="bold" lengthAdjust="spacing" textLength="8.4" x="68.1" y="762.0756">28</text><text fill="#000000" font-family="sans-serif" font-size="7.8" lengthAdjust="spacing" textLength="125.4" x="78.9" y="762.0756">Job opening completed successfully</text><!--SRC=[lLTHZzeu47xFhvZseMAbBghkuHuYM0a1TqUrBAXqrMSJXiMjiNEsinNzzHqd8N70WT1ApGDo77_VV3CUpnZpZSkKQRQ7b2NVs0kkx44WQ4miaoy28rCjC3ksKT-vV84j4mOZbbabi_qQDNpmbWakqHvIX5I9Wtk9l8-9OCQChDLydLcS9Kgk-0yaV6Iv9Rih_3z3cI1CE7jnWDvgSWVty3p-yDVVKSGIgpICCsFL7lMSIHAiWHaOpoCoO7d2KoOjB5AKOw4CBdVCeFcercw6f3_Ft6hw7GnIZGQbPPOh-V3G3JvMqcebH6cqVXiCM9eAdeJOtiPGCnIQzsHuXVgL9_ZMCPLZ81vJ3CyvHfdTASr_v2PyiFjm96Z3Vy9K6Kx1E_oJn_3WWCVXOB0jHWJQCClMvBGdkSOwaFSs6EZgXQ1kT_Whi-Xs8m9wndEult-WSCVaeQ2K0hj3KAdp0AoY4SfywgjQvozaBGTMJC-pWebsZ8ZgWCUGQAG5lRlYku-fLrNV8CG1CQYrPLpMhfhHA-E2hKLEt43d_jHOOZh6F8OjbvkH40sm1wkKbOXpOgZ8YDVVpnXGcaoZcwESSGc6csVQu_-O6Sd3OdjYwjocnnPUwHxVv7t3jHwNToPB4ZG6M2s2DZ3Cji6kbZsFlPogWddLiHhKxfT7t7HBS6D1RVt4CrSTkcpHZryZoQxQyam4u-MdNNwSEZaGIFSj5nQrb-wzHw8Pr1CFZk_uyMG3X58fRAdyajfTuyIU1OC92tphSVNJl93skPdkKtjeszlc-Mf8PvkDqzghEGCSA3TaDpgP-irWUhjpMbdA4CzZwetgUv2cNwpqI5n9gnIv2dbM83tyiKf6uR9u556gc72J2dPe41IH3ucug267EUjhz0IqYcXBkZW75sqqjEjNY_PP1XR-b65Uj6LW81iDjVhCm9iXhF9HVpbzcioU_hqCxfAQGYmfpKZ7iBWONIH4Mk7aU2YhCuHtx-XuQcFpMC5m2FcWFrek7sVZqUVPukcwqBR-bANKrilBZ7U2taEIQKqLFV_o_XYNyMA-V9n-daxkhbliqjekblxZ7II6wYx1mwboLK99rHtfdgFzPdlu6hZyTEVrpjdDcjgwuYzluSrX_1MFJtljYVXuyJWfMa2X3-8Xn4_JB_xSRmczHMVdXdxZbSA_AL7HqyKbwG-fQhryX5L5DyZfTB9TvwKwsxuer7OxQhlGW4_Q3hN0ecybxi_R1ahoRIQ45yj06onRXAl9HNiPdfsaOCFzw3NQHErJWJPezkmM4j3Wkqd_dtu2]--></g></svg>