<?xml version="1.0" encoding="us-ascii" standalone="no"?><svg xmlns="http://www.w3.org/2000/svg" xmlns:xlink="http://www.w3.org/1999/xlink" contentStyleType="text/css" height="701.8px" preserveAspectRatio="none" style="width:1248px;height:701px;background:#FFFFFF;" version="1.1" viewBox="0 0 1248 701" width="1248.5px" zoomAndPan="magnify"><defs/><g><text fill="#000000" font-family="sans-serif" font-size="15.4" font-weight="bold" lengthAdjust="spacing" textLength="209" x="512.325" y="27.6182">Class Diagram (CD) - UC022</text><!--class RankUserUI--><g id="elem_RankUserUI"><rect codeLine="8" fill="#F1F1F1" height="66.6402" id="RankUserUI" rx="2.75" ry="2.75" style="stroke:#181818;stroke-width:0.55;" width="116.6" x="556.6" y="51.2832"/><ellipse cx="573.1" cy="75.8033" fill="#ADD1B2" rx="12.1" ry="12.1" style="stroke:#181818;stroke-width:1.1;"/><path d="M576.1422,71.2658 Q576.3141,71.0252 576.5203,70.9049 Q576.7266,70.7846 576.9672,70.7846 Q577.3797,70.7846 577.6375,71.0768 Q577.8953,71.3518 577.8953,72.0221 L577.8953,73.6205 Q577.8953,74.2908 577.6375,74.583 Q577.3797,74.8752 576.9672,74.8752 Q576.5891,74.8752 576.3656,74.6518 Q576.1422,74.4455 576.0219,73.8783 Q575.9703,73.483 575.7641,73.2768 Q575.4031,72.8643 574.7328,72.6236 Q574.0625,72.383 573.375,72.383 Q572.5328,72.383 571.8281,72.7439 Q571.1406,73.1049 570.5906,73.9299 Q570.0578,74.7549 570.0578,75.8893 L570.0578,77.0924 Q570.0578,78.4502 571.0375,79.3611 Q572.0172,80.2549 573.7703,80.2549 Q574.8016,80.2549 575.5234,79.9799 Q575.9531,79.808 576.4172,79.3268 Q576.7094,79.0346 576.8641,78.9486 Q577.0359,78.8627 577.2594,78.8627 Q577.6203,78.8627 577.8953,79.1549 Q578.1875,79.4299 578.1875,79.808 Q578.1875,80.1861 577.8094,80.633 Q577.2594,81.2689 576.3828,81.6299 Q575.1969,82.1283 573.7703,82.1283 Q572.1031,82.1283 570.7797,81.4408 Q569.6969,80.8908 568.9406,79.7221 Q568.1844,78.5361 568.1844,77.1268 L568.1844,75.8549 Q568.1844,74.3939 568.8547,73.1393 Q569.5422,71.8674 570.7453,71.1971 Q571.9484,70.5096 573.3063,70.5096 Q574.1141,70.5096 574.8188,70.6986 Q575.5406,70.8705 576.1422,71.2658 Z " fill="#000000"/><text fill="#000000" font-family="sans-serif" font-size="13.2" font-style="italic" lengthAdjust="spacing" textLength="67.1" x="595.65" y="71.0273">&#171;interface&#187;</text><text fill="#000000" font-family="sans-serif" font-size="15.4" lengthAdjust="spacing" textLength="81.4" x="588.5" y="90.9584">RankUserUI</text><line style="stroke:#181818;stroke-width:0.55;" x1="557.7" x2="672.1" y1="100.3234" y2="100.3234"/><line style="stroke:#181818;stroke-width:0.55;" x1="557.7" x2="672.1" y1="109.1234" y2="109.1234"/></g><!--class RankUserController--><g id="elem_RankUserController"><rect codeLine="10" fill="#F1F1F1" height="66.6402" id="RankUserController" rx="2.75" ry="2.75" style="stroke:#181818;stroke-width:0.55;" width="171.6" x="529.1" y="185.4832"/><ellipse cx="545.6" cy="210.0033" fill="#ADD1B2" rx="12.1" ry="12.1" style="stroke:#181818;stroke-width:1.1;"/><path d="M548.6422,205.4658 Q548.8141,205.2252 549.0203,205.1049 Q549.2266,204.9846 549.4672,204.9846 Q549.8797,204.9846 550.1375,205.2768 Q550.3953,205.5518 550.3953,206.2221 L550.3953,207.8205 Q550.3953,208.4908 550.1375,208.783 Q549.8797,209.0752 549.4672,209.0752 Q549.0891,209.0752 548.8656,208.8518 Q548.6422,208.6455 548.5219,208.0783 Q548.4703,207.683 548.2641,207.4768 Q547.9031,207.0643 547.2328,206.8236 Q546.5625,206.583 545.875,206.583 Q545.0328,206.583 544.3281,206.9439 Q543.6406,207.3049 543.0906,208.1299 Q542.5578,208.9549 542.5578,210.0893 L542.5578,211.2924 Q542.5578,212.6502 543.5375,213.5611 Q544.5172,214.4549 546.2703,214.4549 Q547.3016,214.4549 548.0234,214.1799 Q548.4531,214.008 548.9172,213.5268 Q549.2094,213.2346 549.3641,213.1486 Q549.5359,213.0627 549.7594,213.0627 Q550.1203,213.0627 550.3953,213.3549 Q550.6875,213.6299 550.6875,214.008 Q550.6875,214.3861 550.3094,214.833 Q549.7594,215.4689 548.8828,215.8299 Q547.6969,216.3283 546.2703,216.3283 Q544.6031,216.3283 543.2797,215.6408 Q542.1969,215.0908 541.4406,213.9221 Q540.6844,212.7361 540.6844,211.3268 L540.6844,210.0549 Q540.6844,208.5939 541.3547,207.3393 Q542.0422,206.0674 543.2453,205.3971 Q544.4484,204.7096 545.8063,204.7096 Q546.6141,204.7096 547.3188,204.8986 Q548.0406,205.0705 548.6422,205.4658 Z " fill="#000000"/><text fill="#000000" font-family="sans-serif" font-size="13.2" font-style="italic" lengthAdjust="spacing" textLength="71.5" x="593.45" y="205.2273">&#171;controller&#187;</text><text fill="#000000" font-family="sans-serif" font-size="15.4" lengthAdjust="spacing" textLength="136.4" x="561" y="225.1584">RankUserController</text><line style="stroke:#181818;stroke-width:0.55;" x1="530.2" x2="699.6" y1="234.5234" y2="234.5234"/><line style="stroke:#181818;stroke-width:0.55;" x1="530.2" x2="699.6" y1="243.3234" y2="243.3234"/></g><!--class JobOpeningManagementService--><g id="elem_JobOpeningManagementService"><rect codeLine="12" fill="#F1F1F1" height="66.6402" id="JobOpeningManagementService" rx="2.75" ry="2.75" style="stroke:#181818;stroke-width:0.55;" width="260.7" x="331.65" y="339.4832"/><ellipse cx="348.15" cy="364.0033" fill="#ADD1B2" rx="12.1" ry="12.1" style="stroke:#181818;stroke-width:1.1;"/><path d="M351.1922,359.4658 Q351.3641,359.2252 351.5703,359.1049 Q351.7766,358.9846 352.0172,358.9846 Q352.4297,358.9846 352.6875,359.2768 Q352.9453,359.5518 352.9453,360.2221 L352.9453,361.8205 Q352.9453,362.4908 352.6875,362.783 Q352.4297,363.0752 352.0172,363.0752 Q351.6391,363.0752 351.4156,362.8518 Q351.1922,362.6455 351.0719,362.0783 Q351.0203,361.683 350.8141,361.4768 Q350.4531,361.0643 349.7828,360.8236 Q349.1125,360.583 348.425,360.583 Q347.5828,360.583 346.8781,360.9439 Q346.1906,361.3049 345.6406,362.1299 Q345.1078,362.9549 345.1078,364.0893 L345.1078,365.2924 Q345.1078,366.6502 346.0875,367.5611 Q347.0672,368.4549 348.8203,368.4549 Q349.8516,368.4549 350.5734,368.1799 Q351.0031,368.008 351.4672,367.5268 Q351.7594,367.2346 351.9141,367.1486 Q352.0859,367.0627 352.3094,367.0627 Q352.6703,367.0627 352.9453,367.3549 Q353.2375,367.6299 353.2375,368.008 Q353.2375,368.3861 352.8594,368.833 Q352.3094,369.4689 351.4328,369.8299 Q350.2469,370.3283 348.8203,370.3283 Q347.1531,370.3283 345.8297,369.6408 Q344.7469,369.0908 343.9906,367.9221 Q343.2344,366.7361 343.2344,365.3268 L343.2344,364.0549 Q343.2344,362.5939 343.9047,361.3393 Q344.5922,360.0674 345.7953,359.3971 Q346.9984,358.7096 348.3563,358.7096 Q349.1641,358.7096 349.8688,358.8986 Q350.5906,359.0705 351.1922,359.4658 Z " fill="#000000"/><text fill="#000000" font-family="sans-serif" font-size="13.2" font-style="italic" lengthAdjust="spacing" textLength="58.3" x="447.15" y="359.2273">&#171;service&#187;</text><text fill="#000000" font-family="sans-serif" font-size="15.4" lengthAdjust="spacing" textLength="225.5" x="363.55" y="379.1584">JobOpeningManagementService</text><line style="stroke:#181818;stroke-width:0.55;" x1="332.75" x2="591.25" y1="388.5234" y2="388.5234"/><line style="stroke:#181818;stroke-width:0.55;" x1="332.75" x2="591.25" y1="397.3234" y2="397.3234"/></g><!--class JobApplicationManagementService--><g id="elem_JobApplicationManagementService"><rect codeLine="14" fill="#F1F1F1" height="66.6402" id="JobApplicationManagementService" rx="2.75" ry="2.75" style="stroke:#181818;stroke-width:0.55;" width="277.2" x="631.4" y="339.4832"/><ellipse cx="647.9" cy="364.0033" fill="#ADD1B2" rx="12.1" ry="12.1" style="stroke:#181818;stroke-width:1.1;"/><path d="M650.9422,359.4658 Q651.1141,359.2252 651.3203,359.1049 Q651.5266,358.9846 651.7672,358.9846 Q652.1797,358.9846 652.4375,359.2768 Q652.6953,359.5518 652.6953,360.2221 L652.6953,361.8205 Q652.6953,362.4908 652.4375,362.783 Q652.1797,363.0752 651.7672,363.0752 Q651.3891,363.0752 651.1656,362.8518 Q650.9422,362.6455 650.8219,362.0783 Q650.7703,361.683 650.5641,361.4768 Q650.2031,361.0643 649.5328,360.8236 Q648.8625,360.583 648.175,360.583 Q647.3328,360.583 646.6281,360.9439 Q645.9406,361.3049 645.3906,362.1299 Q644.8578,362.9549 644.8578,364.0893 L644.8578,365.2924 Q644.8578,366.6502 645.8375,367.5611 Q646.8172,368.4549 648.5703,368.4549 Q649.6016,368.4549 650.3234,368.1799 Q650.7531,368.008 651.2172,367.5268 Q651.5094,367.2346 651.6641,367.1486 Q651.8359,367.0627 652.0594,367.0627 Q652.4203,367.0627 652.6953,367.3549 Q652.9875,367.6299 652.9875,368.008 Q652.9875,368.3861 652.6094,368.833 Q652.0594,369.4689 651.1828,369.8299 Q649.9969,370.3283 648.5703,370.3283 Q646.9031,370.3283 645.5797,369.6408 Q644.4969,369.0908 643.7406,367.9221 Q642.9844,366.7361 642.9844,365.3268 L642.9844,364.0549 Q642.9844,362.5939 643.6547,361.3393 Q644.3422,360.0674 645.5453,359.3971 Q646.7484,358.7096 648.1063,358.7096 Q648.9141,358.7096 649.6188,358.8986 Q650.3406,359.0705 650.9422,359.4658 Z " fill="#000000"/><text fill="#000000" font-family="sans-serif" font-size="13.2" font-style="italic" lengthAdjust="spacing" textLength="58.3" x="755.15" y="359.2273">&#171;service&#187;</text><text fill="#000000" font-family="sans-serif" font-size="15.4" lengthAdjust="spacing" textLength="242" x="663.3" y="379.1584">JobApplicationManagementService</text><line style="stroke:#181818;stroke-width:0.55;" x1="632.5" x2="907.5" y1="388.5234" y2="388.5234"/><line style="stroke:#181818;stroke-width:0.55;" x1="632.5" x2="907.5" y1="397.3234" y2="397.3234"/></g><!--class JobOpeningRepository--><g id="elem_JobOpeningRepository"><rect codeLine="16" fill="#F1F1F1" height="66.6402" id="JobOpeningRepository" rx="2.75" ry="2.75" style="stroke:#181818;stroke-width:0.55;" width="193.6" x="7.7" y="339.4832"/><ellipse cx="24.2" cy="364.0033" fill="#ADD1B2" rx="12.1" ry="12.1" style="stroke:#181818;stroke-width:1.1;"/><path d="M27.2422,359.4658 Q27.4141,359.2252 27.6203,359.1049 Q27.8266,358.9846 28.0672,358.9846 Q28.4797,358.9846 28.7375,359.2768 Q28.9953,359.5518 28.9953,360.2221 L28.9953,361.8205 Q28.9953,362.4908 28.7375,362.783 Q28.4797,363.0752 28.0672,363.0752 Q27.6891,363.0752 27.4656,362.8518 Q27.2422,362.6455 27.1219,362.0783 Q27.0703,361.683 26.8641,361.4768 Q26.5031,361.0643 25.8328,360.8236 Q25.1625,360.583 24.475,360.583 Q23.6328,360.583 22.9281,360.9439 Q22.2406,361.3049 21.6906,362.1299 Q21.1578,362.9549 21.1578,364.0893 L21.1578,365.2924 Q21.1578,366.6502 22.1375,367.5611 Q23.1172,368.4549 24.8703,368.4549 Q25.9016,368.4549 26.6234,368.1799 Q27.0531,368.008 27.5172,367.5268 Q27.8094,367.2346 27.9641,367.1486 Q28.1359,367.0627 28.3594,367.0627 Q28.7203,367.0627 28.9953,367.3549 Q29.2875,367.6299 29.2875,368.008 Q29.2875,368.3861 28.9094,368.833 Q28.3594,369.4689 27.4828,369.8299 Q26.2969,370.3283 24.8703,370.3283 Q23.2031,370.3283 21.8797,369.6408 Q20.7969,369.0908 20.0406,367.9221 Q19.2844,366.7361 19.2844,365.3268 L19.2844,364.0549 Q19.2844,362.5939 19.9547,361.3393 Q20.6422,360.0674 21.8453,359.3971 Q23.0484,358.7096 24.4063,358.7096 Q25.2141,358.7096 25.9188,358.8986 Q26.6406,359.0705 27.2422,359.4658 Z " fill="#000000"/><text fill="#000000" font-family="sans-serif" font-size="13.2" font-style="italic" lengthAdjust="spacing" textLength="74.8" x="81.4" y="359.2273">&#171;repository&#187;</text><text fill="#000000" font-family="sans-serif" font-size="15.4" lengthAdjust="spacing" textLength="158.4" x="39.6" y="379.1584">JobOpeningRepository</text><line style="stroke:#181818;stroke-width:0.55;" x1="8.8" x2="200.2" y1="388.5234" y2="388.5234"/><line style="stroke:#181818;stroke-width:0.55;" x1="8.8" x2="200.2" y1="397.3234" y2="397.3234"/></g><!--class JobApplicationRepository--><g id="elem_JobApplicationRepository"><rect codeLine="18" fill="#F1F1F1" height="66.6402" id="JobApplicationRepository" rx="2.75" ry="2.75" style="stroke:#181818;stroke-width:0.55;" width="210.1" x="1031.25" y="339.4832"/><ellipse cx="1047.75" cy="364.0033" fill="#ADD1B2" rx="12.1" ry="12.1" style="stroke:#181818;stroke-width:1.1;"/><path d="M1050.7922,359.4658 Q1050.9641,359.2252 1051.1703,359.1049 Q1051.3766,358.9846 1051.6172,358.9846 Q1052.0297,358.9846 1052.2875,359.2768 Q1052.5453,359.5518 1052.5453,360.2221 L1052.5453,361.8205 Q1052.5453,362.4908 1052.2875,362.783 Q1052.0297,363.0752 1051.6172,363.0752 Q1051.2391,363.0752 1051.0156,362.8518 Q1050.7922,362.6455 1050.6719,362.0783 Q1050.6203,361.683 1050.4141,361.4768 Q1050.0531,361.0643 1049.3828,360.8236 Q1048.7125,360.583 1048.025,360.583 Q1047.1828,360.583 1046.4781,360.9439 Q1045.7906,361.3049 1045.2406,362.1299 Q1044.7078,362.9549 1044.7078,364.0893 L1044.7078,365.2924 Q1044.7078,366.6502 1045.6875,367.5611 Q1046.6672,368.4549 1048.4203,368.4549 Q1049.4516,368.4549 1050.1734,368.1799 Q1050.6031,368.008 1051.0672,367.5268 Q1051.3594,367.2346 1051.5141,367.1486 Q1051.6859,367.0627 1051.9094,367.0627 Q1052.2703,367.0627 1052.5453,367.3549 Q1052.8375,367.6299 1052.8375,368.008 Q1052.8375,368.3861 1052.4594,368.833 Q1051.9094,369.4689 1051.0328,369.8299 Q1049.8469,370.3283 1048.4203,370.3283 Q1046.7531,370.3283 1045.4297,369.6408 Q1044.3469,369.0908 1043.5906,367.9221 Q1042.8344,366.7361 1042.8344,365.3268 L1042.8344,364.0549 Q1042.8344,362.5939 1043.5047,361.3393 Q1044.1922,360.0674 1045.3953,359.3971 Q1046.5984,358.7096 1047.9563,358.7096 Q1048.7641,358.7096 1049.4688,358.8986 Q1050.1906,359.0705 1050.7922,359.4658 Z " fill="#000000"/><text fill="#000000" font-family="sans-serif" font-size="13.2" font-style="italic" lengthAdjust="spacing" textLength="74.8" x="1113.2" y="359.2273">&#171;repository&#187;</text><text fill="#000000" font-family="sans-serif" font-size="15.4" lengthAdjust="spacing" textLength="174.9" x="1063.15" y="379.1584">JobApplicationRepository</text><line style="stroke:#181818;stroke-width:0.55;" x1="1032.35" x2="1240.25" y1="388.5234" y2="388.5234"/><line style="stroke:#181818;stroke-width:0.55;" x1="1032.35" x2="1240.25" y1="397.3234" y2="397.3234"/></g><!--class RepositoryFactory--><g id="elem_RepositoryFactory"><rect codeLine="20" fill="#F1F1F1" height="66.6402" id="RepositoryFactory" rx="2.75" ry="2.75" style="stroke:#181818;stroke-width:0.55;" width="162.8" x="515.9" y="493.4832"/><ellipse cx="532.4" cy="518.0033" fill="#ADD1B2" rx="12.1" ry="12.1" style="stroke:#181818;stroke-width:1.1;"/><path d="M535.4422,513.4658 Q535.6141,513.2252 535.8203,513.1049 Q536.0266,512.9846 536.2672,512.9846 Q536.6797,512.9846 536.9375,513.2768 Q537.1953,513.5518 537.1953,514.2221 L537.1953,515.8205 Q537.1953,516.4908 536.9375,516.783 Q536.6797,517.0752 536.2672,517.0752 Q535.8891,517.0752 535.6656,516.8518 Q535.4422,516.6455 535.3219,516.0783 Q535.2703,515.683 535.0641,515.4768 Q534.7031,515.0643 534.0328,514.8236 Q533.3625,514.583 532.675,514.583 Q531.8328,514.583 531.1281,514.9439 Q530.4406,515.3049 529.8906,516.1299 Q529.3578,516.9549 529.3578,518.0893 L529.3578,519.2924 Q529.3578,520.6502 530.3375,521.5611 Q531.3172,522.4549 533.0703,522.4549 Q534.1016,522.4549 534.8234,522.1799 Q535.2531,522.008 535.7172,521.5268 Q536.0094,521.2346 536.1641,521.1486 Q536.3359,521.0627 536.5594,521.0627 Q536.9203,521.0627 537.1953,521.3549 Q537.4875,521.6299 537.4875,522.008 Q537.4875,522.3861 537.1094,522.833 Q536.5594,523.4689 535.6828,523.8299 Q534.4969,524.3283 533.0703,524.3283 Q531.4031,524.3283 530.0797,523.6408 Q528.9969,523.0908 528.2406,521.9221 Q527.4844,520.7361 527.4844,519.3268 L527.4844,518.0549 Q527.4844,516.5939 528.1547,515.3393 Q528.8422,514.0674 530.0453,513.3971 Q531.2484,512.7096 532.6063,512.7096 Q533.4141,512.7096 534.1188,512.8986 Q534.8406,513.0705 535.4422,513.4658 Z " fill="#000000"/><text fill="#000000" font-family="sans-serif" font-size="13.2" font-style="italic" lengthAdjust="spacing" textLength="55" x="584.1" y="513.2273">&#171;factory&#187;</text><text fill="#000000" font-family="sans-serif" font-size="15.4" lengthAdjust="spacing" textLength="127.6" x="547.8" y="533.1584">RepositoryFactory</text><line style="stroke:#181818;stroke-width:0.55;" x1="517" x2="677.6" y1="542.5234" y2="542.5234"/><line style="stroke:#181818;stroke-width:0.55;" x1="517" x2="677.6" y1="551.3234" y2="551.3234"/></g><!--class JobOpening--><g id="elem_JobOpening"><rect codeLine="22" fill="#F1F1F1" height="66.6402" id="JobOpening" rx="2.75" ry="2.75" style="stroke:#181818;stroke-width:0.55;" width="118.8" x="286" y="493.4832"/><ellipse cx="302.5" cy="518.0033" fill="#ADD1B2" rx="12.1" ry="12.1" style="stroke:#181818;stroke-width:1.1;"/><path d="M305.5422,513.4658 Q305.7141,513.2252 305.9203,513.1049 Q306.1266,512.9846 306.3672,512.9846 Q306.7797,512.9846 307.0375,513.2768 Q307.2953,513.5518 307.2953,514.2221 L307.2953,515.8205 Q307.2953,516.4908 307.0375,516.783 Q306.7797,517.0752 306.3672,517.0752 Q305.9891,517.0752 305.7656,516.8518 Q305.5422,516.6455 305.4219,516.0783 Q305.3703,515.683 305.1641,515.4768 Q304.8031,515.0643 304.1328,514.8236 Q303.4625,514.583 302.775,514.583 Q301.9328,514.583 301.2281,514.9439 Q300.5406,515.3049 299.9906,516.1299 Q299.4578,516.9549 299.4578,518.0893 L299.4578,519.2924 Q299.4578,520.6502 300.4375,521.5611 Q301.4172,522.4549 303.1703,522.4549 Q304.2016,522.4549 304.9234,522.1799 Q305.3531,522.008 305.8172,521.5268 Q306.1094,521.2346 306.2641,521.1486 Q306.4359,521.0627 306.6594,521.0627 Q307.0203,521.0627 307.2953,521.3549 Q307.5875,521.6299 307.5875,522.008 Q307.5875,522.3861 307.2094,522.833 Q306.6594,523.4689 305.7828,523.8299 Q304.5969,524.3283 303.1703,524.3283 Q301.5031,524.3283 300.1797,523.6408 Q299.0969,523.0908 298.3406,521.9221 Q297.5844,520.7361 297.5844,519.3268 L297.5844,518.0549 Q297.5844,516.5939 298.2547,515.3393 Q298.9422,514.0674 300.1453,513.3971 Q301.3484,512.7096 302.7063,512.7096 Q303.5141,512.7096 304.2188,512.8986 Q304.9406,513.0705 305.5422,513.4658 Z " fill="#000000"/><text fill="#000000" font-family="sans-serif" font-size="13.2" font-style="italic" lengthAdjust="spacing" textLength="47.3" x="336.05" y="513.2273">&#171;entity&#187;</text><text fill="#000000" font-family="sans-serif" font-size="15.4" lengthAdjust="spacing" textLength="83.6" x="317.9" y="533.1584">JobOpening</text><line style="stroke:#181818;stroke-width:0.55;" x1="287.1" x2="403.7" y1="542.5234" y2="542.5234"/><line style="stroke:#181818;stroke-width:0.55;" x1="287.1" x2="403.7" y1="551.3234" y2="551.3234"/></g><!--class JobApplication--><g id="elem_JobApplication"><rect codeLine="24" fill="#F1F1F1" height="66.6402" id="JobApplication" rx="2.75" ry="2.75" style="stroke:#181818;stroke-width:0.55;" width="135.3" x="931.15" y="493.4832"/><ellipse cx="947.65" cy="518.0033" fill="#ADD1B2" rx="12.1" ry="12.1" style="stroke:#181818;stroke-width:1.1;"/><path d="M950.6922,513.4658 Q950.8641,513.2252 951.0703,513.1049 Q951.2766,512.9846 951.5172,512.9846 Q951.9297,512.9846 952.1875,513.2768 Q952.4453,513.5518 952.4453,514.2221 L952.4453,515.8205 Q952.4453,516.4908 952.1875,516.783 Q951.9297,517.0752 951.5172,517.0752 Q951.1391,517.0752 950.9156,516.8518 Q950.6922,516.6455 950.5719,516.0783 Q950.5203,515.683 950.3141,515.4768 Q949.9531,515.0643 949.2828,514.8236 Q948.6125,514.583 947.925,514.583 Q947.0828,514.583 946.3781,514.9439 Q945.6906,515.3049 945.1406,516.1299 Q944.6078,516.9549 944.6078,518.0893 L944.6078,519.2924 Q944.6078,520.6502 945.5875,521.5611 Q946.5672,522.4549 948.3203,522.4549 Q949.3516,522.4549 950.0734,522.1799 Q950.5031,522.008 950.9672,521.5268 Q951.2594,521.2346 951.4141,521.1486 Q951.5859,521.0627 951.8094,521.0627 Q952.1703,521.0627 952.4453,521.3549 Q952.7375,521.6299 952.7375,522.008 Q952.7375,522.3861 952.3594,522.833 Q951.8094,523.4689 950.9328,523.8299 Q949.7469,524.3283 948.3203,524.3283 Q946.6531,524.3283 945.3297,523.6408 Q944.2469,523.0908 943.4906,521.9221 Q942.7344,520.7361 942.7344,519.3268 L942.7344,518.0549 Q942.7344,516.5939 943.4047,515.3393 Q944.0922,514.0674 945.2953,513.3971 Q946.4984,512.7096 947.8563,512.7096 Q948.6641,512.7096 949.3688,512.8986 Q950.0906,513.0705 950.6922,513.4658 Z " fill="#000000"/><text fill="#000000" font-family="sans-serif" font-size="13.2" font-style="italic" lengthAdjust="spacing" textLength="47.3" x="989.45" y="513.2273">&#171;entity&#187;</text><text fill="#000000" font-family="sans-serif" font-size="15.4" lengthAdjust="spacing" textLength="100.1" x="963.05" y="533.1584">JobApplication</text><line style="stroke:#181818;stroke-width:0.55;" x1="932.25" x2="1065.35" y1="542.5234" y2="542.5234"/><line style="stroke:#181818;stroke-width:0.55;" x1="932.25" x2="1065.35" y1="551.3234" y2="551.3234"/></g><!--class SystemUser--><g id="elem_SystemUser"><rect codeLine="26" fill="#F1F1F1" height="66.6402" id="SystemUser" rx="2.75" ry="2.75" style="stroke:#181818;stroke-width:0.55;" width="117.7" x="939.95" y="627.6832"/><ellipse cx="956.45" cy="652.2033" fill="#ADD1B2" rx="12.1" ry="12.1" style="stroke:#181818;stroke-width:1.1;"/><path d="M959.4922,647.6658 Q959.6641,647.4252 959.8703,647.3049 Q960.0766,647.1846 960.3172,647.1846 Q960.7297,647.1846 960.9875,647.4768 Q961.2453,647.7518 961.2453,648.4221 L961.2453,650.0205 Q961.2453,650.6908 960.9875,650.983 Q960.7297,651.2752 960.3172,651.2752 Q959.9391,651.2752 959.7156,651.0518 Q959.4922,650.8455 959.3719,650.2783 Q959.3203,649.883 959.1141,649.6768 Q958.7531,649.2643 958.0828,649.0236 Q957.4125,648.783 956.725,648.783 Q955.8828,648.783 955.1781,649.1439 Q954.4906,649.5049 953.9406,650.3299 Q953.4078,651.1549 953.4078,652.2893 L953.4078,653.4924 Q953.4078,654.8502 954.3875,655.7611 Q955.3672,656.6549 957.1203,656.6549 Q958.1516,656.6549 958.8734,656.3799 Q959.3031,656.208 959.7672,655.7268 Q960.0594,655.4346 960.2141,655.3486 Q960.3859,655.2627 960.6094,655.2627 Q960.9703,655.2627 961.2453,655.5549 Q961.5375,655.8299 961.5375,656.208 Q961.5375,656.5861 961.1594,657.033 Q960.6094,657.6689 959.7328,658.0299 Q958.5469,658.5283 957.1203,658.5283 Q955.4531,658.5283 954.1297,657.8408 Q953.0469,657.2908 952.2906,656.1221 Q951.5344,654.9361 951.5344,653.5268 L951.5344,652.2549 Q951.5344,650.7939 952.2047,649.5393 Q952.8922,648.2674 954.0953,647.5971 Q955.2984,646.9096 956.6563,646.9096 Q957.4641,646.9096 958.1688,647.0986 Q958.8906,647.2705 959.4922,647.6658 Z " fill="#000000"/><text fill="#000000" font-family="sans-serif" font-size="13.2" font-style="italic" lengthAdjust="spacing" textLength="47.3" x="989.45" y="647.4273">&#171;entity&#187;</text><text fill="#000000" font-family="sans-serif" font-size="15.4" lengthAdjust="spacing" textLength="82.5" x="971.85" y="667.3584">SystemUser</text><line style="stroke:#181818;stroke-width:0.55;" x1="941.05" x2="1056.55" y1="676.7234" y2="676.7234"/><line style="stroke:#181818;stroke-width:0.55;" x1="941.05" x2="1056.55" y1="685.5234" y2="685.5234"/></g><!--class Rank--><g id="elem_Rank"><rect codeLine="28" fill="#F1F1F1" height="66.6402" id="Rank" rx="2.75" ry="2.75" style="stroke:#181818;stroke-width:0.55;" width="119.9" x="585.75" y="627.6832"/><ellipse cx="602.25" cy="652.2033" fill="#ADD1B2" rx="12.1" ry="12.1" style="stroke:#181818;stroke-width:1.1;"/><path d="M605.2922,647.6658 Q605.4641,647.4252 605.6703,647.3049 Q605.8766,647.1846 606.1172,647.1846 Q606.5297,647.1846 606.7875,647.4768 Q607.0453,647.7518 607.0453,648.4221 L607.0453,650.0205 Q607.0453,650.6908 606.7875,650.983 Q606.5297,651.2752 606.1172,651.2752 Q605.7391,651.2752 605.5156,651.0518 Q605.2922,650.8455 605.1719,650.2783 Q605.1203,649.883 604.9141,649.6768 Q604.5531,649.2643 603.8828,649.0236 Q603.2125,648.783 602.525,648.783 Q601.6828,648.783 600.9781,649.1439 Q600.2906,649.5049 599.7406,650.3299 Q599.2078,651.1549 599.2078,652.2893 L599.2078,653.4924 Q599.2078,654.8502 600.1875,655.7611 Q601.1672,656.6549 602.9203,656.6549 Q603.9516,656.6549 604.6734,656.3799 Q605.1031,656.208 605.5672,655.7268 Q605.8594,655.4346 606.0141,655.3486 Q606.1859,655.2627 606.4094,655.2627 Q606.7703,655.2627 607.0453,655.5549 Q607.3375,655.8299 607.3375,656.208 Q607.3375,656.5861 606.9594,657.033 Q606.4094,657.6689 605.5328,658.0299 Q604.3469,658.5283 602.9203,658.5283 Q601.2531,658.5283 599.9297,657.8408 Q598.8469,657.2908 598.0906,656.1221 Q597.3344,654.9361 597.3344,653.5268 L597.3344,652.2549 Q597.3344,650.7939 598.0047,649.5393 Q598.6922,648.2674 599.8953,647.5971 Q601.0984,646.9096 602.4563,646.9096 Q603.2641,646.9096 603.9688,647.0986 Q604.6906,647.2705 605.2922,647.6658 Z " fill="#000000"/><text fill="#000000" font-family="sans-serif" font-size="13.2" font-style="italic" lengthAdjust="spacing" textLength="89.1" x="615.45" y="647.4273">&#171;value object&#187;</text><text fill="#000000" font-family="sans-serif" font-size="15.4" lengthAdjust="spacing" textLength="36.3" x="641.85" y="667.3584">Rank</text><line style="stroke:#181818;stroke-width:0.55;" x1="586.85" x2="704.55" y1="676.7234" y2="676.7234"/><line style="stroke:#181818;stroke-width:0.55;" x1="586.85" x2="704.55" y1="685.5234" y2="685.5234"/></g><!--link RankUserUI to RankUserController--><g id="link_RankUserUI_RankUserController"><path codeLine="33" d="M614.9,118.5592 C614.9,138.8652 614.9,158.3022 614.9,178.6192 " fill="none" id="RankUserUI-to-RankUserController" style="stroke:#181818;stroke-width:1.1;stroke-dasharray:7.0,7.0;"/><polygon fill="#181818" points="614.9,185.2192,619.3,175.3192,614.9,179.7192,610.5,175.3192,614.9,185.2192" style="stroke:#181818;stroke-width:1.1;"/></g><!--link RankUserController to JobOpeningManagementService--><g id="link_RankUserController_JobOpeningManagementService"><path codeLine="35" d="M582.098,252.6932 C556.303,278.3122 525.2149,309.1703 499.4309,334.7673 " fill="none" id="RankUserController-to-JobOpeningManagementService" style="stroke:#181818;stroke-width:1.1;stroke-dasharray:7.0,7.0;"/><polygon fill="#181818" points="494.747,339.4172,504.8727,335.5649,498.6502,335.5423,498.6729,329.3198,494.747,339.4172" style="stroke:#181818;stroke-width:1.1;"/><polygon fill="#000000" points="548.2969,300.0683,557.6353,295.3524,553.0799,290.7641,548.2969,300.0683" style="stroke:#000000;stroke-width:1.1;"/><text fill="#000000" font-family="sans-serif" font-size="14.3" lengthAdjust="spacing" textLength="30.8" x="562.1" y="302.1144">uses</text></g><!--link RankUserController to JobApplicationManagementService--><g id="link_RankUserController_JobApplicationManagementService"><path codeLine="36" d="M648.175,252.6932 C674.344,278.3122 705.9048,309.2042 732.0628,334.8012 " fill="none" id="RankUserController-to-JobApplicationManagementService" style="stroke:#181818;stroke-width:1.1;stroke-dasharray:7.0,7.0;"/><polygon fill="#181818" points="736.78,339.4172,732.7815,329.3483,732.849,335.5705,726.6268,335.6379,736.78,339.4172" style="stroke:#181818;stroke-width:1.1;"/><polygon fill="#000000" points="710.1306,300.0404,705.2814,290.7705,700.7588,295.3912,710.1306,300.0404" style="stroke:#000000;stroke-width:1.1;"/><text fill="#000000" font-family="sans-serif" font-size="14.3" lengthAdjust="spacing" textLength="30.8" x="716.1" y="302.1144">uses</text></g><!--link JobOpeningManagementService to RepositoryFactory--><g id="link_JobOpeningManagementService_RepositoryFactory"><path codeLine="38" d="M491.029,406.6932 C513.854,432.3122 541.1206,462.8931 563.9346,488.4901 " fill="none" id="JobOpeningManagementService-to-RepositoryFactory" style="stroke:#181818;stroke-width:1.1;stroke-dasharray:7.0,7.0;"/><polygon fill="#181818" points="568.326,493.4172,565.0237,483.099,564.6665,489.3113,558.4542,488.9542,568.326,493.4172" style="stroke:#181818;stroke-width:1.1;"/><polygon fill="#000000" points="545.9595,454.2991,541.7527,444.7206,536.926,449.0226,545.9595,454.2991" style="stroke:#000000;stroke-width:1.1;"/><text fill="#000000" font-family="sans-serif" font-size="14.3" lengthAdjust="spacing" textLength="61.6" x="552.2" y="456.1144">accesses</text></g><!--link JobApplicationManagementService to RepositoryFactory--><g id="link_JobApplicationManagementService_RepositoryFactory"><path codeLine="39" d="M732.952,406.6932 C703.813,432.3122 668.3677,463.4635 639.2397,489.0605 " fill="none" id="JobApplicationManagementService-to-RepositoryFactory" style="stroke:#181818;stroke-width:1.1;stroke-dasharray:7.0,7.0;"/><polygon fill="#181818" points="634.282,493.4172,644.6231,490.1873,638.4134,489.7866,638.8141,483.577,634.282,493.4172" style="stroke:#181818;stroke-width:1.1;"/><polygon fill="#000000" points="694.3689,453.8242,703.9764,449.6839,699.7079,444.8275,694.3689,453.8242" style="stroke:#000000;stroke-width:1.1;"/><text fill="#000000" font-family="sans-serif" font-size="14.3" lengthAdjust="spacing" textLength="61.6" x="708.4" y="456.1144">accesses</text></g><!--link RepositoryFactory to JobOpeningRepository--><g id="link_RepositoryFactory_JobOpeningRepository"><path codeLine="41" d="M515.548,500.7542 C429.253,474.1672 299.5675,434.2223 207.8715,405.9743 " fill="none" id="RepositoryFactory-to-JobOpeningRepository" style="stroke:#181818;stroke-width:1.1;stroke-dasharray:7.0,7.0;"/><polygon fill="#181818" points="201.564,404.0312,209.7298,411.1508,206.8202,405.6504,212.3206,402.7409,201.564,404.0312" style="stroke:#181818;stroke-width:1.1;"/><polygon fill="#000000" points="380.8437,448.5741,389.4007,454.5928,391.3041,448.4137,380.8437,448.5741" style="stroke:#000000;stroke-width:1.1;"/><text fill="#000000" font-family="sans-serif" font-size="14.3" lengthAdjust="spacing" textLength="47.3" x="396" y="456.1144">creates</text></g><!--reverse link JobApplicationRepository to RepositoryFactory--><g id="link_JobApplicationRepository_RepositoryFactory"><path codeLine="42" d="M1024.7431,405.5561 C921.6511,434.5851 773.047,476.4332 678.931,502.9432 " fill="none" id="JobApplicationRepository-backto-RepositoryFactory" style="stroke:#181818;stroke-width:1.1;stroke-dasharray:7.0,7.0;"/><polygon fill="#181818" points="1031.096,403.7672,1020.374,402.2152,1025.8019,405.2579,1022.7592,410.6858,1031.096,403.7672" style="stroke:#181818;stroke-width:1.1;"/><polygon fill="#000000" points="909.4941,448.7024,899.0407,448.2877,900.7933,454.5112,909.4941,448.7024" style="stroke:#000000;stroke-width:1.1;"/><text fill="#000000" font-family="sans-serif" font-size="14.3" lengthAdjust="spacing" textLength="47.3" x="914.1" y="456.1144">creates</text></g><!--reverse link JobOpeningRepository to JobOpeningManagementService--><g id="link_JobOpeningRepository_JobOpeningManagementService"><path codeLine="44" d="M208.318,373.0332 C248.325,373.0332 288.673,373.0332 331.595,373.0332 " fill="none" id="JobOpeningRepository-backto-JobOpeningManagementService" style="stroke:#181818;stroke-width:1.1;stroke-dasharray:7.0,7.0;"/><polygon fill="#181818" points="201.718,373.0332,211.618,377.4332,207.218,373.0332,211.618,368.6332,201.718,373.0332" style="stroke:#181818;stroke-width:1.1;"/><polygon fill="#000000" points="220.275,359.4433,230.2246,362.6761,230.2246,356.2104,220.275,359.4433" style="stroke:#000000;stroke-width:1.1;"/><text fill="#000000" font-family="sans-serif" font-size="14.3" lengthAdjust="spacing" textLength="75.9" x="235.675" y="365.3644">saves ranks</text></g><!--link JobApplicationManagementService to JobApplicationRepository--><g id="link_JobApplicationManagementService_JobApplicationRepository"><path codeLine="45" d="M909.007,373.0332 C949.487,373.0332 986.425,373.0332 1024.452,373.0332 " fill="none" id="JobApplicationManagementService-to-JobApplicationRepository" style="stroke:#181818;stroke-width:1.1;stroke-dasharray:7.0,7.0;"/><polygon fill="#181818" points="1031.052,373.0332,1021.152,368.6332,1025.552,373.0332,1021.152,377.4332,1031.052,373.0332" style="stroke:#181818;stroke-width:1.1;"/><polygon fill="#000000" points="938.575,359.4433,928.6254,356.2104,928.6254,362.6761,938.575,359.4433" style="stroke:#000000;stroke-width:1.1;"/><text fill="#000000" font-family="sans-serif" font-size="14.3" lengthAdjust="spacing" textLength="68.2" x="942.975" y="365.3644">saves rank</text></g><!--link JobOpeningRepository to JobOpening--><g id="link_JobOpeningRepository_JobOpening"><path codeLine="47" d="M147.323,406.6052 C170.093,423.3692 198.825,443.7632 225.5,460.4832 C244.695,472.5062 260.4472,481.5371 279.9282,492.0531 " fill="none" id="JobOpeningRepository-to-JobOpening" style="stroke:#181818;stroke-width:1.1;stroke-dasharray:7.0,7.0;"/><polygon fill="#181818" points="285.736,495.1882,279.1143,486.6136,280.8961,492.5756,274.9342,494.3574,285.736,495.1882" style="stroke:#181818;stroke-width:1.1;"/><text fill="#000000" font-family="sans-serif" font-size="14.3" lengthAdjust="spacing" textLength="75.9" x="226.6" y="456.1144">saves ranks</text></g><!--link JobApplicationRepository to JobApplication--><g id="link_JobApplicationRepository_JobApplication"><path codeLine="48" d="M1106.798,406.6932 C1083.599,432.3122 1055.8661,462.9288 1032.6781,488.5258 " fill="none" id="JobApplicationRepository-to-JobApplication" style="stroke:#181818;stroke-width:1.1;stroke-dasharray:7.0,7.0;"/><polygon fill="#181818" points="1028.247,493.4172,1038.1545,489.0341,1031.9395,489.341,1031.6327,483.1261,1028.247,493.4172" style="stroke:#181818;stroke-width:1.1;"/><text fill="#000000" font-family="sans-serif" font-size="14.3" lengthAdjust="spacing" textLength="68.2" x="1075.8" y="456.1144">saves rank</text></g><!--link JobOpening to Rank--><g id="link_JobOpening_Rank"><path codeLine="50" d="M405.086,554.3682 C457.424,577.3802 527.1058,608.0106 579.5648,631.0666 " fill="none" id="JobOpening-to-Rank" style="stroke:#181818;stroke-width:1.1;"/><polygon fill="#181818" points="585.607,633.7222,578.3141,625.7107,580.5718,631.5092,574.7733,633.767,585.607,633.7222" style="stroke:#181818;stroke-width:1.1;"/></g><!--link JobApplication to Rank--><g id="link_JobApplication_Rank"><path codeLine="51" d="M931.139,553.4332 C865.953,577.7982 774.4662,611.9962 711.9642,635.3602 " fill="none" id="JobApplication-to-Rank" style="stroke:#181818;stroke-width:1.1;"/><polygon fill="#181818" points="705.782,637.6712,716.5959,638.3262,710.9338,635.7454,713.5146,630.0833,705.782,637.6712" style="stroke:#181818;stroke-width:1.1;"/></g><!--link JobApplication to SystemUser--><g id="link_JobApplication_SystemUser"><path codeLine="52" d="M998.8,560.7592 C998.8,581.0652 998.8,600.5022 998.8,620.8192 " fill="none" id="JobApplication-to-SystemUser" style="stroke:#181818;stroke-width:1.1;"/><polygon fill="#181818" points="998.8,627.4192,1003.2,617.5192,998.8,621.9192,994.4,617.5192,998.8,627.4192" style="stroke:#181818;stroke-width:1.1;"/></g><!--SRC=[ZLFBRi8m4BpxAtni3rY88qAHK50bAbMLYFY0nTq45sD7za95lxuEeNb07kJaU6TcDxCJVr0c1mT7deCyG8O9NJHoXvB0P1gPhm1-3r_sHvcCfw0ziaP9Ql1-IUJKxaIubjOawXVvb35I5EJYeivN2h82_HAlNlc4R-FfRCRObSitO0vRZswxvek5CeGk1ObHT5-FhI5djKONSB9wgO7lTlUPembZVe09ttD4Gmcwiv8O6BuyjU3BFDTA0YbhdgNSEcmmjrwHTPU0SzLBd_eel0QyWRpXqlBKrJvKmwIAUXjs09AB9pmMJdOK2vF3zHdq2RdTVOSG5CNmDDOZGWYCY3esKiCQM_g73-rbpayUFOz6-8EBgZJOKATg-0UdvnoaH5zgZ3LxKePrHqLeJ4bqagL3eC1TiFxe2AUo_IX_s8Rh155tbEVSmpbekB2CfymevudwqzvKxBL5jEPfJz7lXdZess8sU_79f4pjdThWVVs__040]--></g></svg>