<?xml version="1.0" encoding="us-ascii" standalone="no"?><svg xmlns="http://www.w3.org/2000/svg" xmlns:xlink="http://www.w3.org/1999/xlink" contentStyleType="text/css" height="495px" preserveAspectRatio="none" style="width:430px;height:495px;background:#FFFFFF;" version="1.1" viewBox="0 0 430 495" width="430px" zoomAndPan="magnify"><defs/><g><text fill="#000000" font-family="sans-serif" font-size="14" font-weight="bold" lengthAdjust="spacing" textLength="285" x="73.75" y="30.1074">System Sequence Diagram (SSD) - UC019</text><rect fill="#FFFFFF" height="268.959" style="stroke:#181818;stroke-width:1.0;" width="10" x="76.5" y="133.2422"/><rect fill="#FFFFFF" height="31.291" style="stroke:#181818;stroke-width:1.0;" width="10" x="376.5" y="156.5332"/><rect fill="#FFFFFF" height="57.582" style="stroke:#181818;stroke-width:1.0;" width="10" x="376.5" y="219.1152"/><rect fill="#FFFFFF" height="31.291" style="stroke:#181818;stroke-width:1.0;" width="10" x="376.5" y="307.9883"/><rect fill="none" height="161.0859" style="stroke:#000000;stroke-width:1.5;" width="413.5" x="10" y="234.1152"/><line style="stroke:#181818;stroke-width:0.5;stroke-dasharray:5.0,5.0;" x1="81" x2="81" y1="123.2422" y2="412.2012"/><line style="stroke:#181818;stroke-width:0.5;stroke-dasharray:5.0,5.0;" x1="381.5" x2="381.5" y1="123.2422" y2="412.2012"/><text fill="#000000" font-family="sans-serif" font-size="14" lengthAdjust="spacing" textLength="117" x="20" y="119.7285">CustomerManager</text><ellipse cx="81.5" cy="53.1211" fill="#E3E3E3" rx="8" ry="8" style="stroke:#181818;stroke-width:0.5;"/><path d="M81.5,61.1211 L81.5,88.1211 M68.5,69.1211 L94.5,69.1211 M81.5,88.1211 L68.5,103.1211 M81.5,88.1211 L94.5,103.1211 " fill="none" style="stroke:#181818;stroke-width:0.5;"/><text fill="#000000" font-family="sans-serif" font-size="14" lengthAdjust="spacing" textLength="117" x="20" y="426.3086">CustomerManager</text><ellipse cx="81.5" cy="438.3223" fill="#E3E3E3" rx="8" ry="8" style="stroke:#181818;stroke-width:0.5;"/><path d="M81.5,446.3223 L81.5,473.3223 M68.5,454.3223 L94.5,454.3223 M81.5,473.3223 L68.5,488.3223 M81.5,473.3223 L94.5,488.3223 " fill="none" style="stroke:#181818;stroke-width:0.5;"/><rect fill="#E3E3E3" height="32.6211" rx="2.5" ry="2.5" style="stroke:#181818;stroke-width:0.5;" width="64" x="349.5" y="89.6211"/><text fill="#000000" font-family="sans-serif" font-size="14" lengthAdjust="spacing" textLength="50" x="356.5" y="111.7285">:System</text><rect fill="#E3E3E3" height="32.6211" rx="2.5" ry="2.5" style="stroke:#181818;stroke-width:0.5;" width="64" x="349.5" y="411.2012"/><text fill="#000000" font-family="sans-serif" font-size="14" lengthAdjust="spacing" textLength="50" x="356.5" y="433.3086">:System</text><rect fill="#FFFFFF" height="268.959" style="stroke:#181818;stroke-width:1.0;" width="10" x="76.5" y="133.2422"/><rect fill="#FFFFFF" height="31.291" style="stroke:#181818;stroke-width:1.0;" width="10" x="376.5" y="156.5332"/><rect fill="#FFFFFF" height="57.582" style="stroke:#181818;stroke-width:1.0;" width="10" x="376.5" y="219.1152"/><rect fill="#FFFFFF" height="31.291" style="stroke:#181818;stroke-width:1.0;" width="10" x="376.5" y="307.9883"/><polygon fill="#181818" points="364.5,152.5332,374.5,156.5332,364.5,160.5332,368.5,156.5332" style="stroke:#181818;stroke-width:1.0;"/><line style="stroke:#181818;stroke-width:1.0;" x1="86.5" x2="370.5" y1="156.5332" y2="156.5332"/><text fill="#000000" font-family="sans-serif" font-size="13" lengthAdjust="spacing" textLength="269" x="93.5" y="151.2705">choosing the interview model for a job opening.</text><polygon fill="#181818" points="97.5,183.8242,87.5,187.8242,97.5,191.8242,93.5,187.8242" style="stroke:#181818;stroke-width:1.0;"/><line style="stroke:#181818;stroke-width:1.0;stroke-dasharray:2.0,2.0;" x1="91.5" x2="380.5" y1="187.8242" y2="187.8242"/><text fill="#000000" font-family="sans-serif" font-size="13" lengthAdjust="spacing" textLength="204" x="103.5" y="182.5615">list with job openings to select from</text><polygon fill="#181818" points="364.5,215.1152,374.5,219.1152,364.5,223.1152,368.5,219.1152" style="stroke:#181818;stroke-width:1.0;"/><line style="stroke:#181818;stroke-width:1.0;" x1="86.5" x2="370.5" y1="219.1152" y2="219.1152"/><text fill="#000000" font-family="sans-serif" font-size="13" lengthAdjust="spacing" textLength="225" x="93.5" y="213.8525">enter the job opening reference number</text><path d="M10,234.1152 L71,234.1152 L71,243.4063 L61,253.4063 L10,253.4063 L10,234.1152 " fill="#EEEEEE" style="stroke:#000000;stroke-width:1.5;"/><rect fill="none" height="161.0859" style="stroke:#000000;stroke-width:1.5;" width="413.5" x="10" y="234.1152"/><text fill="#000000" font-family="sans-serif" font-size="13" font-weight="bold" lengthAdjust="spacing" textLength="16" x="25" y="249.1436">alt</text><text fill="#000000" font-family="sans-serif" font-size="11" font-weight="bold" lengthAdjust="spacing" textLength="98" x="86" y="247.9854">[successful case]</text><polygon fill="#181818" points="97.5,272.6973,87.5,276.6973,97.5,280.6973,93.5,276.6973" style="stroke:#181818;stroke-width:1.0;"/><line style="stroke:#181818;stroke-width:1.0;stroke-dasharray:2.0,2.0;" x1="91.5" x2="380.5" y1="276.6973" y2="276.6973"/><text fill="#000000" font-family="sans-serif" font-size="13" lengthAdjust="spacing" textLength="226" x="103.5" y="271.4346">list with interview models to select from</text><polygon fill="#181818" points="364.5,303.9883,374.5,307.9883,364.5,311.9883,368.5,307.9883" style="stroke:#181818;stroke-width:1.0;"/><line style="stroke:#181818;stroke-width:1.0;" x1="86.5" x2="370.5" y1="307.9883" y2="307.9883"/><text fill="#000000" font-family="sans-serif" font-size="13" lengthAdjust="spacing" textLength="149" x="93.5" y="302.7256">select the interview model</text><polygon fill="#181818" points="97.5,335.2793,87.5,339.2793,97.5,343.2793,93.5,339.2793" style="stroke:#181818;stroke-width:1.0;"/><line style="stroke:#181818;stroke-width:1.0;stroke-dasharray:2.0,2.0;" x1="91.5" x2="380.5" y1="339.2793" y2="339.2793"/><text fill="#000000" font-family="sans-serif" font-size="13" lengthAdjust="spacing" textLength="266" x="103.5" y="334.0166">the interview model was successfully selected</text><line style="stroke:#000000;stroke-width:1.0;stroke-dasharray:2.0,2.0;" x1="10" x2="423.5" y1="348.2793" y2="348.2793"/><text fill="#000000" font-family="sans-serif" font-size="11" font-weight="bold" lengthAdjust="spacing" textLength="102" x="15" y="360.1494">[insucessful case]</text><polygon fill="#181818" points="97.5,383.2012,87.5,387.2012,97.5,391.2012,93.5,387.2012" style="stroke:#181818;stroke-width:1.0;"/><line style="stroke:#181818;stroke-width:1.0;stroke-dasharray:2.0,2.0;" x1="91.5" x2="380.5" y1="387.2012" y2="387.2012"/><text fill="#000000" font-family="sans-serif" font-size="13" lengthAdjust="spacing" textLength="245" x="103.5" y="381.9385">the job opening reference number is invalid</text><!--SRC=[fPAzSeCm3CTtdaANgHtIQySoT25h9guFe1W1ReoTMY9Sthw2KC8r91dg3IH-_m_3U-iF6B619lXWwXWQ0eaj9JnD3cZsM54k9qSGoGZwoiqNkCOYTDPNKA9ZIXAneglvYOKQoEcx9My8DXQhVlqfppVFi8RFxFNjFK4Z8KBMigXqtA9NgGZ8a6sJVcYFA3GyW9vi2-iFMALdzWfIC7K8t6jBJM2zK3nQwZHEGGvAHIDyXHs40tdTUZbZ9kv46bxtvy9UgvBgfU0i2tHMwZc9GG8mEUq3Igrj01IqGBvXd7glW-iPLVijAGvr-RRPKHpzEW5kZI7cidLWK5l-DNmdoyCyV_gwoZIH5eFDPQxpZPo5Qqd-uNtfbZlzMoxjkDCeJSK3_yDKK_T4_Nwft1iExjqOM5RU4Pqj7jT7NatEflgV_m00]--></g></svg>