<?xml version="1.0" encoding="us-ascii" standalone="no"?><svg xmlns="http://www.w3.org/2000/svg" xmlns:xlink="http://www.w3.org/1999/xlink" contentStyleType="text/css" height="1504px" preserveAspectRatio="none" style="width:2911px;height:1504px;background:#FFFFFF;" version="1.1" viewBox="0 0 2911 1504" width="2911px" zoomAndPan="magnify"><defs/><g><text fill="#000000" font-family="sans-serif" font-size="14" font-weight="bold" lengthAdjust="spacing" textLength="243" x="1333.5" y="30.1074">System Sequence Diagram - UC005</text><rect fill="#FFFFFF" height="1258.7676" style="stroke:#181818;stroke-width:1.0;" width="10" x="76.5" y="137.8633"/><rect fill="#FFFFFF" height="62.582" style="stroke:#181818;stroke-width:1.0;" width="10" x="305.5" y="161.1543"/><rect fill="#FFFFFF" height="31.291" style="stroke:#181818;stroke-width:1.0;" width="10" x="305.5" y="255.0273"/><rect fill="#FFFFFF" height="31.291" style="stroke:#181818;stroke-width:1.0;" width="10" x="305.5" y="317.6094"/><rect fill="#FFFFFF" height="127.1641" style="stroke:#181818;stroke-width:1.0;" width="10" x="305.5" y="380.1914"/><rect fill="#FFFFFF" height="848.9844" style="stroke:#181818;stroke-width:1.0;" width="10" x="305.5" y="538.6465"/><rect fill="#FFFFFF" height="786.4023" style="stroke:#181818;stroke-width:1.0;" width="10" x="757.5" y="569.9375"/><rect fill="#FFFFFF" height="28" style="stroke:#181818;stroke-width:1.0;" width="10" x="762.5" y="609.2285"/><rect fill="#FFFFFF" height="418.7832" style="stroke:#181818;stroke-width:1.0;" width="10" x="1321.5" y="675.5195"/><rect fill="#FFFFFF" height="31.291" style="stroke:#181818;stroke-width:1.0;" width="10" x="1843.5" y="744.1016"/><rect fill="#FFFFFF" height="93.873" style="stroke:#181818;stroke-width:1.0;" width="10" x="1843.5" y="837.9746"/><rect fill="#FFFFFF" height="31.291" style="stroke:#181818;stroke-width:1.0;" width="10" x="2372.5" y="869.2656"/><rect fill="#FFFFFF" height="99.873" style="stroke:#181818;stroke-width:1.0;" width="10" x="2529.5" y="963.1387"/><rect fill="#FFFFFF" height="62.582" style="stroke:#181818;stroke-width:1.0;" width="10" x="2672.5" y="1125.5938"/><rect fill="#FFFFFF" height="105.582" style="stroke:#181818;stroke-width:1.0;" width="10" x="2799" y="1219.4668"/><rect fill="#FFFFFF" height="28" style="stroke:#181818;stroke-width:1.0;" width="10" x="2804" y="1258.7578"/><rect fill="none" height="81.873" style="stroke:#000000;stroke-width:1.5;" width="365" x="10" y="395.1914"/><line style="stroke:#181818;stroke-width:0.5;stroke-dasharray:5.0,5.0;" x1="81" x2="81" y1="127.8633" y2="1405.6309"/><line style="stroke:#181818;stroke-width:0.5;stroke-dasharray:5.0,5.0;" x1="310" x2="310" y1="127.8633" y2="1405.6309"/><line style="stroke:#181818;stroke-width:0.5;stroke-dasharray:5.0,5.0;" x1="762.5" x2="762.5" y1="127.8633" y2="1405.6309"/><line style="stroke:#181818;stroke-width:0.5;stroke-dasharray:5.0,5.0;" x1="1326.5" x2="1326.5" y1="127.8633" y2="1405.6309"/><line style="stroke:#181818;stroke-width:0.5;stroke-dasharray:5.0,5.0;" x1="1848" x2="1848" y1="127.8633" y2="1405.6309"/><line style="stroke:#181818;stroke-width:0.5;stroke-dasharray:5.0,5.0;" x1="2377.5" x2="2377.5" y1="127.8633" y2="1405.6309"/><line style="stroke:#181818;stroke-width:0.5;stroke-dasharray:5.0,5.0;" x1="2534.5" x2="2534.5" y1="127.8633" y2="1405.6309"/><line style="stroke:#181818;stroke-width:0.5;stroke-dasharray:5.0,5.0;" x1="2677.5" x2="2677.5" y1="127.8633" y2="1405.6309"/><line style="stroke:#181818;stroke-width:0.5;stroke-dasharray:5.0,5.0;" x1="2803.5" x2="2803.5" y1="127.8633" y2="1405.6309"/><text fill="#000000" font-family="sans-serif" font-size="14" lengthAdjust="spacing" textLength="117" x="20" y="124.3496">CustomerManager</text><ellipse cx="81.5" cy="57.7422" fill="#E3E3E3" rx="8" ry="8" style="stroke:#181818;stroke-width:0.5;"/><path d="M81.5,65.7422 L81.5,92.7422 M68.5,73.7422 L94.5,73.7422 M81.5,92.7422 L68.5,107.7422 M81.5,92.7422 L94.5,107.7422 " fill="none" style="stroke:#181818;stroke-width:0.5;"/><text fill="#000000" font-family="sans-serif" font-size="14" lengthAdjust="spacing" textLength="117" x="20" y="1419.7383">CustomerManager</text><ellipse cx="81.5" cy="1431.752" fill="#E3E3E3" rx="8" ry="8" style="stroke:#181818;stroke-width:0.5;"/><path d="M81.5,1439.752 L81.5,1466.752 M68.5,1447.752 L94.5,1447.752 M81.5,1466.752 L68.5,1481.752 M81.5,1466.752 L94.5,1481.752 " fill="none" style="stroke:#181818;stroke-width:0.5;"/><rect fill="#E3E3E3" height="51.2422" rx="2.5" ry="2.5" style="stroke:#181818;stroke-width:0.5;" width="109" x="256" y="75.6211"/><text fill="#000000" font-family="sans-serif" font-size="14" font-style="italic" lengthAdjust="spacing" textLength="95" x="263" y="97.7285">&#171;presentation&#187;</text><text fill="#000000" font-family="sans-serif" font-size="14" lengthAdjust="spacing" textLength="66" x="277.5" y="116.3496">AddUserUI</text><rect fill="#E3E3E3" height="51.2422" rx="2.5" ry="2.5" style="stroke:#181818;stroke-width:0.5;" width="109" x="256" y="1404.6309"/><text fill="#000000" font-family="sans-serif" font-size="14" font-style="italic" lengthAdjust="spacing" textLength="95" x="263" y="1426.7383">&#171;presentation&#187;</text><text fill="#000000" font-family="sans-serif" font-size="14" lengthAdjust="spacing" textLength="66" x="277.5" y="1445.3594">AddUserUI</text><rect fill="#E3E3E3" height="51.2422" rx="2.5" ry="2.5" style="stroke:#181818;stroke-width:0.5;" width="130" x="697.5" y="75.6211"/><text fill="#000000" font-family="sans-serif" font-size="14" font-style="italic" lengthAdjust="spacing" textLength="84" x="720.5" y="97.7285">&#171;application&#187;</text><text fill="#000000" font-family="sans-serif" font-size="14" lengthAdjust="spacing" textLength="116" x="704.5" y="116.3496">AddUserController</text><rect fill="#E3E3E3" height="51.2422" rx="2.5" ry="2.5" style="stroke:#181818;stroke-width:0.5;" width="130" x="697.5" y="1404.6309"/><text fill="#000000" font-family="sans-serif" font-size="14" font-style="italic" lengthAdjust="spacing" textLength="84" x="720.5" y="1426.7383">&#171;application&#187;</text><text fill="#000000" font-family="sans-serif" font-size="14" lengthAdjust="spacing" textLength="116" x="704.5" y="1445.3594">AddUserController</text><rect fill="#E3E3E3" height="51.2422" rx="2.5" ry="2.5" style="stroke:#181818;stroke-width:0.5;" width="172" x="1240.5" y="75.6211"/><text fill="#000000" font-family="sans-serif" font-size="14" font-style="italic" lengthAdjust="spacing" textLength="60" x="1296.5" y="97.7285">&#171;service&#187;</text><text fill="#000000" font-family="sans-serif" font-size="14" lengthAdjust="spacing" textLength="158" x="1247.5" y="116.3496">UserManagementService</text><rect fill="#E3E3E3" height="51.2422" rx="2.5" ry="2.5" style="stroke:#181818;stroke-width:0.5;" width="172" x="1240.5" y="1404.6309"/><text fill="#000000" font-family="sans-serif" font-size="14" font-style="italic" lengthAdjust="spacing" textLength="60" x="1296.5" y="1426.7383">&#171;service&#187;</text><text fill="#000000" font-family="sans-serif" font-size="14" lengthAdjust="spacing" textLength="158" x="1247.5" y="1445.3594">UserManagementService</text><rect fill="#E3E3E3" height="51.2422" rx="2.5" ry="2.5" style="stroke:#181818;stroke-width:0.5;" width="133" x="1782" y="75.6211"/><text fill="#000000" font-family="sans-serif" font-size="14" font-style="italic" lengthAdjust="spacing" textLength="59" x="1819" y="97.7285">&#171;builder&#187;</text><text fill="#000000" font-family="sans-serif" font-size="14" lengthAdjust="spacing" textLength="119" x="1789" y="116.3496">SystemUserBuilder</text><rect fill="#E3E3E3" height="51.2422" rx="2.5" ry="2.5" style="stroke:#181818;stroke-width:0.5;" width="133" x="1782" y="1404.6309"/><text fill="#000000" font-family="sans-serif" font-size="14" font-style="italic" lengthAdjust="spacing" textLength="59" x="1819" y="1426.7383">&#171;builder&#187;</text><text fill="#000000" font-family="sans-serif" font-size="14" lengthAdjust="spacing" textLength="119" x="1789" y="1445.3594">SystemUserBuilder</text><text fill="#000000" font-family="sans-serif" font-size="14" font-style="italic" lengthAdjust="spacing" textLength="62" x="2343.5" y="105.7285">&#171;domain&#187;</text><text fill="#000000" font-family="sans-serif" font-size="14" lengthAdjust="spacing" textLength="152" x="2298.5" y="124.3496">systemUser:SystemUser</text><ellipse cx="2377.5" cy="74.6211" fill="#E3E3E3" rx="12" ry="12" style="stroke:#181818;stroke-width:0.5;"/><line style="stroke:#181818;stroke-width:0.5;" x1="2365.5" x2="2389.5" y1="88.6211" y2="88.6211"/><text fill="#000000" font-family="sans-serif" font-size="14" font-style="italic" lengthAdjust="spacing" textLength="62" x="2343.5" y="1419.7383">&#171;domain&#187;</text><text fill="#000000" font-family="sans-serif" font-size="14" lengthAdjust="spacing" textLength="152" x="2298.5" y="1438.3594">systemUser:SystemUser</text><ellipse cx="2377.5" cy="1457.873" fill="#E3E3E3" rx="12" ry="12" style="stroke:#181818;stroke-width:0.5;"/><line style="stroke:#181818;stroke-width:0.5;" x1="2365.5" x2="2389.5" y1="1471.873" y2="1471.873"/><rect fill="#E3E3E3" height="51.2422" rx="2.5" ry="2.5" style="stroke:#181818;stroke-width:0.5;" width="136" x="2466.5" y="75.6211"/><text fill="#000000" font-family="sans-serif" font-size="14" font-style="italic" lengthAdjust="spacing" textLength="89" x="2490" y="97.7285">&#171;persistence&#187;</text><text fill="#000000" font-family="sans-serif" font-size="14" lengthAdjust="spacing" textLength="122" x="2473.5" y="116.3496">PersistenceContext</text><rect fill="#E3E3E3" height="51.2422" rx="2.5" ry="2.5" style="stroke:#181818;stroke-width:0.5;" width="136" x="2466.5" y="1404.6309"/><text fill="#000000" font-family="sans-serif" font-size="14" font-style="italic" lengthAdjust="spacing" textLength="89" x="2490" y="1426.7383">&#171;persistence&#187;</text><text fill="#000000" font-family="sans-serif" font-size="14" lengthAdjust="spacing" textLength="122" x="2473.5" y="1445.3594">PersistenceContext</text><rect fill="#E3E3E3" height="51.2422" rx="2.5" ry="2.5" style="stroke:#181818;stroke-width:0.5;" width="130" x="2612.5" y="75.6211"/><text fill="#000000" font-family="sans-serif" font-size="14" font-style="italic" lengthAdjust="spacing" textLength="59" x="2648" y="97.7285">&#171;factory&#187;</text><text fill="#000000" font-family="sans-serif" font-size="14" lengthAdjust="spacing" textLength="116" x="2619.5" y="116.3496">RepositoryFactory</text><rect fill="#E3E3E3" height="51.2422" rx="2.5" ry="2.5" style="stroke:#181818;stroke-width:0.5;" width="130" x="2612.5" y="1404.6309"/><text fill="#000000" font-family="sans-serif" font-size="14" font-style="italic" lengthAdjust="spacing" textLength="59" x="2648" y="1426.7383">&#171;factory&#187;</text><text fill="#000000" font-family="sans-serif" font-size="14" lengthAdjust="spacing" textLength="116" x="2619.5" y="1445.3594">RepositoryFactory</text><text fill="#000000" font-family="sans-serif" font-size="14" font-style="italic" lengthAdjust="spacing" textLength="79" x="2761.5" y="105.7285">&#171;repository&#187;</text><text fill="#000000" font-family="sans-serif" font-size="14" lengthAdjust="spacing" textLength="97" x="2752.5" y="124.3496">UserRepository</text><path d="M2786,54.6211 C2786,44.6211 2804,44.6211 2804,44.6211 C2804,44.6211 2822,44.6211 2822,54.6211 L2822,80.6211 C2822,90.6211 2804,90.6211 2804,90.6211 C2804,90.6211 2786,90.6211 2786,80.6211 L2786,54.6211 " fill="#E3E3E3" style="stroke:#181818;stroke-width:1.5;"/><path d="M2786,54.6211 C2786,64.6211 2804,64.6211 2804,64.6211 C2804,64.6211 2822,64.6211 2822,54.6211 " fill="none" style="stroke:#181818;stroke-width:1.5;"/><text fill="#000000" font-family="sans-serif" font-size="14" font-style="italic" lengthAdjust="spacing" textLength="79" x="2761.5" y="1419.7383">&#171;repository&#187;</text><text fill="#000000" font-family="sans-serif" font-size="14" lengthAdjust="spacing" textLength="97" x="2752.5" y="1438.3594">UserRepository</text><path d="M2786,1451.873 C2786,1441.873 2804,1441.873 2804,1441.873 C2804,1441.873 2822,1441.873 2822,1451.873 L2822,1477.873 C2822,1487.873 2804,1487.873 2804,1487.873 C2804,1487.873 2786,1487.873 2786,1477.873 L2786,1451.873 " fill="#E3E3E3" style="stroke:#181818;stroke-width:1.5;"/><path d="M2786,1451.873 C2786,1461.873 2804,1461.873 2804,1461.873 C2804,1461.873 2822,1461.873 2822,1451.873 " fill="none" style="stroke:#181818;stroke-width:1.5;"/><rect fill="#FFFFFF" height="1258.7676" style="stroke:#181818;stroke-width:1.0;" width="10" x="76.5" y="137.8633"/><rect fill="#FFFFFF" height="62.582" style="stroke:#181818;stroke-width:1.0;" width="10" x="305.5" y="161.1543"/><rect fill="#FFFFFF" height="31.291" style="stroke:#181818;stroke-width:1.0;" width="10" x="305.5" y="255.0273"/><rect fill="#FFFFFF" height="31.291" style="stroke:#181818;stroke-width:1.0;" width="10" x="305.5" y="317.6094"/><rect fill="#FFFFFF" height="127.1641" style="stroke:#181818;stroke-width:1.0;" width="10" x="305.5" y="380.1914"/><rect fill="#FFFFFF" height="848.9844" style="stroke:#181818;stroke-width:1.0;" width="10" x="305.5" y="538.6465"/><rect fill="#FFFFFF" height="786.4023" style="stroke:#181818;stroke-width:1.0;" width="10" x="757.5" y="569.9375"/><rect fill="#FFFFFF" height="28" style="stroke:#181818;stroke-width:1.0;" width="10" x="762.5" y="609.2285"/><rect fill="#FFFFFF" height="418.7832" style="stroke:#181818;stroke-width:1.0;" width="10" x="1321.5" y="675.5195"/><rect fill="#FFFFFF" height="31.291" style="stroke:#181818;stroke-width:1.0;" width="10" x="1843.5" y="744.1016"/><rect fill="#FFFFFF" height="93.873" style="stroke:#181818;stroke-width:1.0;" width="10" x="1843.5" y="837.9746"/><rect fill="#FFFFFF" height="31.291" style="stroke:#181818;stroke-width:1.0;" width="10" x="2372.5" y="869.2656"/><rect fill="#FFFFFF" height="99.873" style="stroke:#181818;stroke-width:1.0;" width="10" x="2529.5" y="963.1387"/><rect fill="#FFFFFF" height="62.582" style="stroke:#181818;stroke-width:1.0;" width="10" x="2672.5" y="1125.5938"/><rect fill="#FFFFFF" height="105.582" style="stroke:#181818;stroke-width:1.0;" width="10" x="2799" y="1219.4668"/><rect fill="#FFFFFF" height="28" style="stroke:#181818;stroke-width:1.0;" width="10" x="2804" y="1258.7578"/><polygon fill="#181818" points="293.5,157.1543,303.5,161.1543,293.5,165.1543,297.5,161.1543" style="stroke:#181818;stroke-width:1.0;"/><line style="stroke:#181818;stroke-width:1.0;" x1="86.5" x2="299.5" y1="161.1543" y2="161.1543"/><text fill="#000000" font-family="sans-serif" font-size="13" font-weight="bold" lengthAdjust="spacing" textLength="7" x="93.5" y="155.8916">1</text><text fill="#000000" font-family="sans-serif" font-size="13" lengthAdjust="spacing" textLength="121" x="104.5" y="155.8916">requests to add User</text><polygon fill="#181818" points="750.5,188.4453,760.5,192.4453,750.5,196.4453,754.5,192.4453" style="stroke:#181818;stroke-width:1.0;"/><line style="stroke:#181818;stroke-width:1.0;" x1="315.5" x2="756.5" y1="192.4453" y2="192.4453"/><text fill="#000000" font-family="sans-serif" font-size="13" font-weight="bold" lengthAdjust="spacing" textLength="7" x="322.5" y="187.1826">2</text><text fill="#000000" font-family="sans-serif" font-size="13" lengthAdjust="spacing" textLength="36" x="333.5" y="187.1826">create</text><polygon fill="#181818" points="97.5,219.7363,87.5,223.7363,97.5,227.7363,93.5,223.7363" style="stroke:#181818;stroke-width:1.0;"/><line style="stroke:#181818;stroke-width:1.0;stroke-dasharray:2.0,2.0;" x1="91.5" x2="309.5" y1="223.7363" y2="223.7363"/><text fill="#000000" font-family="sans-serif" font-size="13" font-weight="bold" lengthAdjust="spacing" textLength="7" x="103.5" y="218.4736">3</text><text fill="#000000" font-family="sans-serif" font-size="13" lengthAdjust="spacing" textLength="78" x="114.5" y="218.4736">request email</text><polygon fill="#181818" points="293.5,251.0273,303.5,255.0273,293.5,259.0273,297.5,255.0273" style="stroke:#181818;stroke-width:1.0;"/><line style="stroke:#181818;stroke-width:1.0;" x1="86.5" x2="299.5" y1="255.0273" y2="255.0273"/><text fill="#000000" font-family="sans-serif" font-size="13" font-weight="bold" lengthAdjust="spacing" textLength="7" x="93.5" y="249.7646">4</text><text fill="#000000" font-family="sans-serif" font-size="13" lengthAdjust="spacing" textLength="31" x="104.5" y="249.7646">email</text><polygon fill="#181818" points="97.5,282.3184,87.5,286.3184,97.5,290.3184,93.5,286.3184" style="stroke:#181818;stroke-width:1.0;"/><line style="stroke:#181818;stroke-width:1.0;stroke-dasharray:2.0,2.0;" x1="91.5" x2="309.5" y1="286.3184" y2="286.3184"/><text fill="#000000" font-family="sans-serif" font-size="13" font-weight="bold" lengthAdjust="spacing" textLength="7" x="103.5" y="281.0557">5</text><text fill="#000000" font-family="sans-serif" font-size="13" lengthAdjust="spacing" textLength="104" x="114.5" y="281.0557">request first name</text><polygon fill="#181818" points="293.5,313.6094,303.5,317.6094,293.5,321.6094,297.5,317.6094" style="stroke:#181818;stroke-width:1.0;"/><line style="stroke:#181818;stroke-width:1.0;" x1="86.5" x2="299.5" y1="317.6094" y2="317.6094"/><text fill="#000000" font-family="sans-serif" font-size="13" font-weight="bold" lengthAdjust="spacing" textLength="7" x="93.5" y="312.3467">6</text><text fill="#000000" font-family="sans-serif" font-size="13" lengthAdjust="spacing" textLength="55" x="104.5" y="312.3467">firstName</text><polygon fill="#181818" points="97.5,344.9004,87.5,348.9004,97.5,352.9004,93.5,348.9004" style="stroke:#181818;stroke-width:1.0;"/><line style="stroke:#181818;stroke-width:1.0;stroke-dasharray:2.0,2.0;" x1="91.5" x2="309.5" y1="348.9004" y2="348.9004"/><text fill="#000000" font-family="sans-serif" font-size="13" font-weight="bold" lengthAdjust="spacing" textLength="7" x="103.5" y="343.6377">7</text><text fill="#000000" font-family="sans-serif" font-size="13" lengthAdjust="spacing" textLength="104" x="114.5" y="343.6377">request last name</text><polygon fill="#181818" points="293.5,376.1914,303.5,380.1914,293.5,384.1914,297.5,380.1914" style="stroke:#181818;stroke-width:1.0;"/><line style="stroke:#181818;stroke-width:1.0;" x1="86.5" x2="299.5" y1="380.1914" y2="380.1914"/><text fill="#000000" font-family="sans-serif" font-size="13" font-weight="bold" lengthAdjust="spacing" textLength="7" x="93.5" y="374.9287">8</text><text fill="#000000" font-family="sans-serif" font-size="13" lengthAdjust="spacing" textLength="55" x="104.5" y="374.9287">lastName</text><path d="M10,395.1914 L83,395.1914 L83,404.4824 L73,414.4824 L10,414.4824 L10,395.1914 " fill="#EEEEEE" style="stroke:#000000;stroke-width:1.5;"/><rect fill="none" height="81.873" style="stroke:#000000;stroke-width:1.5;" width="365" x="10" y="395.1914"/><text fill="#000000" font-family="sans-serif" font-size="13" font-weight="bold" lengthAdjust="spacing" textLength="28" x="25" y="410.2197">loop</text><text fill="#000000" font-family="sans-serif" font-size="11" font-weight="bold" lengthAdjust="spacing" textLength="64" x="98" y="409.0615">[option != 0]</text><polygon fill="#181818" points="97.5,433.7734,87.5,437.7734,97.5,441.7734,93.5,437.7734" style="stroke:#181818;stroke-width:1.0;"/><line style="stroke:#181818;stroke-width:1.0;stroke-dasharray:2.0,2.0;" x1="91.5" x2="304.5" y1="437.7734" y2="437.7734"/><text fill="#000000" font-family="sans-serif" font-size="13" font-weight="bold" lengthAdjust="spacing" textLength="7" x="103.5" y="432.5107">9</text><text fill="#000000" font-family="sans-serif" font-size="13" lengthAdjust="spacing" textLength="140" x="114.5" y="432.5107">Show List of Role Types</text><polygon fill="#181818" points="293.5,465.0645,303.5,469.0645,293.5,473.0645,297.5,469.0645" style="stroke:#181818;stroke-width:1.0;"/><line style="stroke:#181818;stroke-width:1.0;stroke-dasharray:2.0,2.0;" x1="86.5" x2="299.5" y1="469.0645" y2="469.0645"/><text fill="#000000" font-family="sans-serif" font-size="13" font-weight="bold" lengthAdjust="spacing" textLength="14" x="93.5" y="463.8018">10</text><text fill="#000000" font-family="sans-serif" font-size="13" lengthAdjust="spacing" textLength="130" x="111.5" y="463.8018">Role Type = Customer</text><polygon fill="#181818" points="97.5,503.3555,87.5,507.3555,97.5,511.3555,93.5,507.3555" style="stroke:#181818;stroke-width:1.0;"/><line style="stroke:#181818;stroke-width:1.0;stroke-dasharray:2.0,2.0;" x1="91.5" x2="309.5" y1="507.3555" y2="507.3555"/><text fill="#000000" font-family="sans-serif" font-size="13" font-weight="bold" lengthAdjust="spacing" textLength="14" x="103.5" y="502.0928">11</text><text fill="#000000" font-family="sans-serif" font-size="13" lengthAdjust="spacing" textLength="160" x="121.5" y="502.0928">request customer's address</text><polygon fill="#181818" points="293.5,534.6465,303.5,538.6465,293.5,542.6465,297.5,538.6465" style="stroke:#181818;stroke-width:1.0;"/><line style="stroke:#181818;stroke-width:1.0;" x1="86.5" x2="299.5" y1="538.6465" y2="538.6465"/><text fill="#000000" font-family="sans-serif" font-size="13" font-weight="bold" lengthAdjust="spacing" textLength="14" x="93.5" y="533.3838">12</text><text fill="#000000" font-family="sans-serif" font-size="13" lengthAdjust="spacing" textLength="46" x="111.5" y="533.3838">address</text><polygon fill="#181818" points="745.5,565.9375,755.5,569.9375,745.5,573.9375,749.5,569.9375" style="stroke:#181818;stroke-width:1.0;"/><line style="stroke:#181818;stroke-width:1.0;" x1="315.5" x2="751.5" y1="569.9375" y2="569.9375"/><text fill="#000000" font-family="sans-serif" font-size="13" font-weight="bold" lengthAdjust="spacing" textLength="14" x="322.5" y="564.6748">13</text><text fill="#000000" font-family="sans-serif" font-size="13" lengthAdjust="spacing" textLength="405" x="340.5" y="564.6748">addUser(email, password, firstName, lastName, email, roles, address)</text><line style="stroke:#181818;stroke-width:1.0;" x1="772.5" x2="814.5" y1="601.2285" y2="601.2285"/><line style="stroke:#181818;stroke-width:1.0;" x1="814.5" x2="814.5" y1="601.2285" y2="614.2285"/><line style="stroke:#181818;stroke-width:1.0;" x1="773.5" x2="814.5" y1="614.2285" y2="614.2285"/><polygon fill="#181818" points="783.5,610.2285,773.5,614.2285,783.5,618.2285,779.5,614.2285" style="stroke:#181818;stroke-width:1.0;"/><text fill="#000000" font-family="sans-serif" font-size="13" font-weight="bold" lengthAdjust="spacing" textLength="14" x="779.5" y="595.9658">14</text><text fill="#000000" font-family="sans-serif" font-size="13" lengthAdjust="spacing" textLength="104" x="797.5" y="595.9658">username = email</text><polygon fill="#181818" points="1309.5,671.5195,1319.5,675.5195,1309.5,679.5195,1313.5,675.5195" style="stroke:#181818;stroke-width:1.0;"/><line style="stroke:#181818;stroke-width:1.0;" x1="767.5" x2="1315.5" y1="675.5195" y2="675.5195"/><text fill="#000000" font-family="sans-serif" font-size="13" font-weight="bold" lengthAdjust="spacing" textLength="14" x="774.5" y="670.2568">15</text><text fill="#000000" font-family="sans-serif" font-size="13" lengthAdjust="spacing" textLength="517" x="792.5" y="670.2568">registerNewUser(username, email, password, firstName, lastName, email, roles, address)</text><path d="M1853,688.5195 L1853,715.5195 L2257,715.5195 L2257,698.5195 L2247,688.5195 L1853,688.5195 " fill="#FAFAFA" style="stroke:#181818;stroke-width:0.5;"/><path d="M2247,688.5195 L2247,698.5195 L2257,698.5195 L2247,688.5195 " fill="#FAFAFA" style="stroke:#181818;stroke-width:0.5;"/><text fill="#000000" font-family="sans-serif" font-size="13" lengthAdjust="spacing" textLength="383" x="1859" y="707.5479">UserBuilder is used to create an entity of type User in a valid state</text><polygon fill="#181818" points="1831.5,740.1016,1841.5,744.1016,1831.5,748.1016,1835.5,744.1016" style="stroke:#181818;stroke-width:1.0;"/><line style="stroke:#181818;stroke-width:1.0;" x1="1331.5" x2="1837.5" y1="744.1016" y2="744.1016"/><text fill="#000000" font-family="sans-serif" font-size="13" font-weight="bold" lengthAdjust="spacing" textLength="14" x="1338.5" y="738.8389">16</text><text fill="#000000" font-family="sans-serif" font-size="13" lengthAdjust="spacing" textLength="242" x="1356.5" y="738.8389">new SystemUserBuilder(policy, enconder)</text><polygon fill="#181818" points="1342.5,771.3926,1332.5,775.3926,1342.5,779.3926,1338.5,775.3926" style="stroke:#181818;stroke-width:1.0;"/><line style="stroke:#181818;stroke-width:1.0;stroke-dasharray:2.0,2.0;" x1="1336.5" x2="1847.5" y1="775.3926" y2="775.3926"/><text fill="#000000" font-family="sans-serif" font-size="13" font-weight="bold" lengthAdjust="spacing" textLength="14" x="1348.5" y="770.1299">17</text><text fill="#000000" font-family="sans-serif" font-size="13" lengthAdjust="spacing" textLength="65" x="1366.5" y="770.1299">userBuilder</text><polygon fill="#181818" points="1836.5,802.6836,1846.5,806.6836,1836.5,810.6836,1840.5,806.6836" style="stroke:#181818;stroke-width:1.0;"/><line style="stroke:#181818;stroke-width:1.0;" x1="1331.5" x2="1842.5" y1="806.6836" y2="806.6836"/><text fill="#000000" font-family="sans-serif" font-size="13" font-weight="bold" lengthAdjust="spacing" textLength="14" x="1338.5" y="801.4209">18</text><text fill="#000000" font-family="sans-serif" font-size="13" lengthAdjust="spacing" textLength="475" x="1356.5" y="801.4209">userBuilder.with(username, password, firstName, lastName, email, roles, address)</text><polygon fill="#181818" points="1831.5,833.9746,1841.5,837.9746,1831.5,841.9746,1835.5,837.9746" style="stroke:#181818;stroke-width:1.0;"/><line style="stroke:#181818;stroke-width:1.0;" x1="1331.5" x2="1837.5" y1="837.9746" y2="837.9746"/><text fill="#000000" font-family="sans-serif" font-size="13" font-weight="bold" lengthAdjust="spacing" textLength="14" x="1338.5" y="832.7119">19</text><text fill="#000000" font-family="sans-serif" font-size="13" lengthAdjust="spacing" textLength="104" x="1356.5" y="832.7119">userBuilder.build()</text><polygon fill="#181818" points="2360.5,865.2656,2370.5,869.2656,2360.5,873.2656,2364.5,869.2656" style="stroke:#181818;stroke-width:1.0;"/><line style="stroke:#181818;stroke-width:1.0;" x1="1853.5" x2="2366.5" y1="869.2656" y2="869.2656"/><text fill="#000000" font-family="sans-serif" font-size="13" font-weight="bold" lengthAdjust="spacing" textLength="14" x="1860.5" y="864.0029">20</text><text fill="#000000" font-family="sans-serif" font-size="13" lengthAdjust="spacing" textLength="482" x="1878.5" y="864.0029">new SystemUser(username, password, firstName, lastName, email, roles, address)</text><polygon fill="#181818" points="1864.5,896.5566,1854.5,900.5566,1864.5,904.5566,1860.5,900.5566" style="stroke:#181818;stroke-width:1.0;"/><line style="stroke:#181818;stroke-width:1.0;stroke-dasharray:2.0,2.0;" x1="1858.5" x2="2376.5" y1="900.5566" y2="900.5566"/><text fill="#000000" font-family="sans-serif" font-size="13" font-weight="bold" lengthAdjust="spacing" textLength="14" x="1870.5" y="895.2939">21</text><text fill="#000000" font-family="sans-serif" font-size="13" lengthAdjust="spacing" textLength="25" x="1888.5" y="895.2939">user</text><polygon fill="#181818" points="1342.5,927.8477,1332.5,931.8477,1342.5,935.8477,1338.5,931.8477" style="stroke:#181818;stroke-width:1.0;"/><line style="stroke:#181818;stroke-width:1.0;stroke-dasharray:2.0,2.0;" x1="1336.5" x2="1847.5" y1="931.8477" y2="931.8477"/><text fill="#000000" font-family="sans-serif" font-size="13" font-weight="bold" lengthAdjust="spacing" textLength="14" x="1348.5" y="926.585">22</text><text fill="#000000" font-family="sans-serif" font-size="13" lengthAdjust="spacing" textLength="50" x="1366.5" y="926.585">newUser</text><polygon fill="#181818" points="2517.5,959.1387,2527.5,963.1387,2517.5,967.1387,2521.5,963.1387" style="stroke:#181818;stroke-width:1.0;"/><line style="stroke:#181818;stroke-width:1.0;" x1="1331.5" x2="2523.5" y1="963.1387" y2="963.1387"/><text fill="#000000" font-family="sans-serif" font-size="13" font-weight="bold" lengthAdjust="spacing" textLength="14" x="1338.5" y="957.876">23</text><text fill="#000000" font-family="sans-serif" font-size="13" lengthAdjust="spacing" textLength="75" x="1356.5" y="957.876">repositories()</text><path d="M2544,976.1387 L2544,1003.1387 L2650,1003.1387 L2650,986.1387 L2640,976.1387 L2544,976.1387 " fill="#FAFAFA" style="stroke:#181818;stroke-width:0.5;"/><path d="M2640,976.1387 L2640,986.1387 L2650,986.1387 L2640,976.1387 " fill="#FAFAFA" style="stroke:#181818;stroke-width:0.5;"/><text fill="#000000" font-family="sans-serif" font-size="13" lengthAdjust="spacing" textLength="85" x="2550" y="995.167">creates in JPA</text><polygon fill="#181818" points="2665.5,1027.7207,2675.5,1031.7207,2665.5,1035.7207,2669.5,1031.7207" style="stroke:#181818;stroke-width:1.0;"/><line style="stroke:#181818;stroke-width:1.0;" x1="2539.5" x2="2671.5" y1="1031.7207" y2="1031.7207"/><text fill="#000000" font-family="sans-serif" font-size="13" font-weight="bold" lengthAdjust="spacing" textLength="14" x="2546.5" y="1026.458">24</text><text fill="#000000" font-family="sans-serif" font-size="13" lengthAdjust="spacing" textLength="36" x="2564.5" y="1026.458">create</text><polygon fill="#181818" points="1342.5,1059.0117,1332.5,1063.0117,1342.5,1067.0117,1338.5,1063.0117" style="stroke:#181818;stroke-width:1.0;"/><line style="stroke:#181818;stroke-width:1.0;stroke-dasharray:2.0,2.0;" x1="1336.5" x2="2533.5" y1="1063.0117" y2="1063.0117"/><text fill="#000000" font-family="sans-serif" font-size="13" font-weight="bold" lengthAdjust="spacing" textLength="14" x="1348.5" y="1057.749">25</text><text fill="#000000" font-family="sans-serif" font-size="13" lengthAdjust="spacing" textLength="39" x="1366.5" y="1057.749">factory</text><polygon fill="#181818" points="778.5,1090.3027,768.5,1094.3027,778.5,1098.3027,774.5,1094.3027" style="stroke:#181818;stroke-width:1.0;"/><line style="stroke:#181818;stroke-width:1.0;stroke-dasharray:2.0,2.0;" x1="772.5" x2="1325.5" y1="1094.3027" y2="1094.3027"/><text fill="#000000" font-family="sans-serif" font-size="13" font-weight="bold" lengthAdjust="spacing" textLength="14" x="784.5" y="1089.04">26</text><text fill="#000000" font-family="sans-serif" font-size="13" lengthAdjust="spacing" textLength="67" x="802.5" y="1089.04">repositories</text><polygon fill="#181818" points="2660.5,1121.5938,2670.5,1125.5938,2660.5,1129.5938,2664.5,1125.5938" style="stroke:#181818;stroke-width:1.0;"/><line style="stroke:#181818;stroke-width:1.0;" x1="767.5" x2="2666.5" y1="1125.5938" y2="1125.5938"/><text fill="#000000" font-family="sans-serif" font-size="13" font-weight="bold" lengthAdjust="spacing" textLength="14" x="774.5" y="1120.3311">27</text><text fill="#000000" font-family="sans-serif" font-size="13" lengthAdjust="spacing" textLength="40" x="792.5" y="1120.3311">users()</text><polygon fill="#181818" points="2792,1152.8848,2802,1156.8848,2792,1160.8848,2796,1156.8848" style="stroke:#181818;stroke-width:1.0;"/><line style="stroke:#181818;stroke-width:1.0;" x1="2682.5" x2="2798" y1="1156.8848" y2="1156.8848"/><text fill="#000000" font-family="sans-serif" font-size="13" font-weight="bold" lengthAdjust="spacing" textLength="14" x="2689.5" y="1151.6221">28</text><text fill="#000000" font-family="sans-serif" font-size="13" lengthAdjust="spacing" textLength="36" x="2707.5" y="1151.6221">create</text><polygon fill="#181818" points="778.5,1184.1758,768.5,1188.1758,778.5,1192.1758,774.5,1188.1758" style="stroke:#181818;stroke-width:1.0;"/><line style="stroke:#181818;stroke-width:1.0;stroke-dasharray:2.0,2.0;" x1="772.5" x2="2676.5" y1="1188.1758" y2="1188.1758"/><text fill="#000000" font-family="sans-serif" font-size="13" font-weight="bold" lengthAdjust="spacing" textLength="14" x="784.5" y="1182.9131">29</text><text fill="#000000" font-family="sans-serif" font-size="13" lengthAdjust="spacing" textLength="87" x="802.5" y="1182.9131">userRepository</text><polygon fill="#181818" points="2787,1215.4668,2797,1219.4668,2787,1223.4668,2791,1219.4668" style="stroke:#181818;stroke-width:1.0;"/><line style="stroke:#181818;stroke-width:1.0;" x1="767.5" x2="2793" y1="1219.4668" y2="1219.4668"/><text fill="#000000" font-family="sans-serif" font-size="13" font-weight="bold" lengthAdjust="spacing" textLength="14" x="774.5" y="1214.2041">30</text><text fill="#000000" font-family="sans-serif" font-size="13" lengthAdjust="spacing" textLength="59" x="792.5" y="1214.2041">save(user)</text><line style="stroke:#181818;stroke-width:1.0;" x1="2814" x2="2856" y1="1250.7578" y2="1250.7578"/><line style="stroke:#181818;stroke-width:1.0;" x1="2856" x2="2856" y1="1250.7578" y2="1263.7578"/><line style="stroke:#181818;stroke-width:1.0;" x1="2815" x2="2856" y1="1263.7578" y2="1263.7578"/><polygon fill="#181818" points="2825,1259.7578,2815,1263.7578,2825,1267.7578,2821,1263.7578" style="stroke:#181818;stroke-width:1.0;"/><text fill="#000000" font-family="sans-serif" font-size="13" font-weight="bold" lengthAdjust="spacing" textLength="14" x="2821" y="1245.4951">31</text><text fill="#000000" font-family="sans-serif" font-size="13" lengthAdjust="spacing" textLength="65" x="2839" y="1245.4951">insert(user)</text><polygon fill="#181818" points="778.5,1321.0488,768.5,1325.0488,778.5,1329.0488,774.5,1325.0488" style="stroke:#181818;stroke-width:1.0;"/><line style="stroke:#181818;stroke-width:1.0;stroke-dasharray:2.0,2.0;" x1="772.5" x2="2803" y1="1325.0488" y2="1325.0488"/><text fill="#000000" font-family="sans-serif" font-size="13" font-weight="bold" lengthAdjust="spacing" textLength="14" x="784.5" y="1319.7861">32</text><text fill="#000000" font-family="sans-serif" font-size="13" lengthAdjust="spacing" textLength="25" x="802.5" y="1319.7861">user</text><polygon fill="#181818" points="326.5,1352.3398,316.5,1356.3398,326.5,1360.3398,322.5,1356.3398" style="stroke:#181818;stroke-width:1.0;"/><line style="stroke:#181818;stroke-width:1.0;" x1="320.5" x2="761.5" y1="1356.3398" y2="1356.3398"/><text fill="#000000" font-family="sans-serif" font-size="13" font-weight="bold" lengthAdjust="spacing" textLength="14" x="332.5" y="1351.0771">33</text><text fill="#000000" font-family="sans-serif" font-size="13" lengthAdjust="spacing" textLength="25" x="350.5" y="1351.0771">user</text><polygon fill="#181818" points="97.5,1383.6309,87.5,1387.6309,97.5,1391.6309,93.5,1387.6309" style="stroke:#181818;stroke-width:1.0;"/><line style="stroke:#181818;stroke-width:1.0;stroke-dasharray:2.0,2.0;" x1="91.5" x2="309.5" y1="1387.6309" y2="1387.6309"/><text fill="#000000" font-family="sans-serif" font-size="13" font-weight="bold" lengthAdjust="spacing" textLength="14" x="103.5" y="1382.3682">34</text><text fill="#000000" font-family="sans-serif" font-size="13" lengthAdjust="spacing" textLength="177" x="121.5" y="1382.3682">inform (in)success of operation</text><!--SRC=[hLTDRzim3BtxLt2xD0MIePTT2Yz0rw90XwqObkK7gBQI2BCbJrAQvj-Fb2rPTfKFjFCXa2s-H_9HeXJpHyY6QLP3hQGgDbhL7ApUyio4cOOLVzYQB-o-ug1vOPbSLx61sR1IxOHSmufLXcSPsrebj_KJrrbcXKNOOcyihs71_swvB3ZS2ROcw0oMjrTNdxFiOYDA3Ykbx9DwoLXXbORRhR4OZ_x19FhNm0pSq4I6RgqeHCEaXPkoN1gkbmyqZRzvtcXkkBJC2YNdyvJnhP9MgwfgEQEtF6TDKuaYXILW6qcDx0kkdmKcWdW_p7FJZaR0DdU2VzsAgcoT-c6UFxKZ126ji7luQ0BWkiT-9DITgfcG22hTOEJe9zT6e3qAJ3dn5qkOw2k9qx-DqBzueun0UVVtJluzWVqmprVj244bi-o96UuKwL5a7htbkGul2AAIYcTcULT2zmkpEPRi6XSLBWjZ3LW5h2mTSGzOFcI03zOMpVjYNKEXESw7IPnrh84FE8fKkVcIntG3vwrHofidX9vn9JJ-IbRpKxJEyf4CpwIks9dCP9WahfHgG3MqTk735xXo7r-hizYe7Np7HG1g1RyKxixV-uQRODqvwxm50_WIDgGpvR8y8dtHcLuOgYZkI7CgBMyM6nmeF6ktySILReeDofYTqkMq5tqQL9f2PuLWRgRUpQMZ3hvwzY13r1P6xhVecmg5YlGhx1HTbFb9Prr78JNNj5dr8z-vXBtdaDJRKn_4spaC4_H8XHDQh3TkdNJzwZfkOyAG52NjsdOh0fFGDJ64M5eqP0_OiXWyiqgKOApVilxnxHFpzav0yjthjZbf5BRcFMOb2oNnm-M09oJJcGycwV5Xptg5eItc8KHKivH9AlA8xjDEs4rKilVLwXo7xYYPl5MMkJzUnlh_rnm6CRKENytJqyKo6-UQD8uATO0oKNoNvjAyg-xHuKgxjJlm13UJ8rb7e6GsmvqtSD7kCqCxwjlFcoGwFkynmku47voMHo6nGDsXVqhpOma5iKPDD1OhEy3hszA1DXbIetKHAnu8xXFn-oiD4lJNbQGymJBH_tjegiDxlud0P_F8gs7FtEskHEm93_JqdmTCGYAB7N6TmpUA_BJNsNoiHNQQ2o_uiT61uuxQpkZId-hzhlLV99FqA-RYt6LO9DsznYTMvJaPfUdxa-7o6Cj8YaZE8w3XfTpTbJpFRqMtliae9WmXkKpfJXQgcxwzH1TCrBMx0GgvKhg6YP2NPbiKU01G5rFunyFzgyg6Ly1_]--></g></svg>