<?xml version="1.0" encoding="us-ascii" standalone="no"?><svg xmlns="http://www.w3.org/2000/svg" xmlns:xlink="http://www.w3.org/1999/xlink" contentStyleType="text/css" height="812px" preserveAspectRatio="none" style="width:1052px;height:812px;background:#FFFFFF;" version="1.1" viewBox="0 0 1052 812" width="1052px" zoomAndPan="magnify"><defs/><g><text fill="#000000" font-family="sans-serif" font-size="14" font-weight="bold" lengthAdjust="spacing" textLength="190" x="424.25" y="25.1074">Class Diagram (CD) - UC005</text><!--class AddUserUI--><g id="elem_AddUserUI"><rect codeLine="8" fill="#F1F1F1" height="60.582" id="AddUserUI" rx="2.5" ry="2.5" style="stroke:#181818;stroke-width:0.5;" width="98" x="494.5" y="46.6211"/><ellipse cx="509.5" cy="68.9121" fill="#ADD1B2" rx="11" ry="11" style="stroke:#181818;stroke-width:1.0;"/><path d="M512.2656,64.7871 Q512.4219,64.5684 512.6094,64.459 Q512.7969,64.3496 513.0156,64.3496 Q513.3906,64.3496 513.625,64.6152 Q513.8594,64.8652 513.8594,65.4746 L513.8594,66.9277 Q513.8594,67.5371 513.625,67.8027 Q513.3906,68.0684 513.0156,68.0684 Q512.6719,68.0684 512.4688,67.8652 Q512.2656,67.6777 512.1563,67.1621 Q512.1094,66.8027 511.9219,66.6152 Q511.5938,66.2402 510.9844,66.0215 Q510.375,65.8027 509.75,65.8027 Q508.9844,65.8027 508.3438,66.1309 Q507.7188,66.459 507.2188,67.209 Q506.7344,67.959 506.7344,68.9902 L506.7344,70.084 Q506.7344,71.3184 507.625,72.1465 Q508.5156,72.959 510.1094,72.959 Q511.0469,72.959 511.7031,72.709 Q512.0938,72.5527 512.5156,72.1152 Q512.7813,71.8496 512.9219,71.7715 Q513.0781,71.6934 513.2813,71.6934 Q513.6094,71.6934 513.8594,71.959 Q514.125,72.209 514.125,72.5527 Q514.125,72.8965 513.7813,73.3027 Q513.2813,73.8809 512.4844,74.209 Q511.4063,74.6621 510.1094,74.6621 Q508.5938,74.6621 507.3906,74.0371 Q506.4063,73.5371 505.7188,72.4746 Q505.0313,71.3965 505.0313,70.1152 L505.0313,68.959 Q505.0313,67.6309 505.6406,66.4902 Q506.2656,65.334 507.3594,64.7246 Q508.4531,64.0996 509.6875,64.0996 Q510.4219,64.0996 511.0625,64.2715 Q511.7188,64.4277 512.2656,64.7871 Z " fill="#000000"/><text fill="#000000" font-family="sans-serif" font-size="12" font-style="italic" lengthAdjust="spacing" textLength="61" x="526" y="64.5703">&#171;interface&#187;</text><text fill="#000000" font-family="sans-serif" font-size="14" lengthAdjust="spacing" textLength="66" x="523.5" y="82.6895">AddUserUI</text><line style="stroke:#181818;stroke-width:0.5;" x1="495.5" x2="591.5" y1="91.2031" y2="91.2031"/><line style="stroke:#181818;stroke-width:0.5;" x1="495.5" x2="591.5" y1="99.2031" y2="99.2031"/></g><!--class AddUserController--><g id="elem_AddUserController"><rect codeLine="10" fill="#F1F1F1" height="60.582" id="AddUserController" rx="2.5" ry="2.5" style="stroke:#181818;stroke-width:0.5;" width="148" x="469.5" y="168.6211"/><ellipse cx="484.5" cy="190.9121" fill="#ADD1B2" rx="11" ry="11" style="stroke:#181818;stroke-width:1.0;"/><path d="M487.2656,186.7871 Q487.4219,186.5684 487.6094,186.459 Q487.7969,186.3496 488.0156,186.3496 Q488.3906,186.3496 488.625,186.6152 Q488.8594,186.8652 488.8594,187.4746 L488.8594,188.9277 Q488.8594,189.5371 488.625,189.8027 Q488.3906,190.0684 488.0156,190.0684 Q487.6719,190.0684 487.4688,189.8652 Q487.2656,189.6777 487.1563,189.1621 Q487.1094,188.8027 486.9219,188.6152 Q486.5938,188.2402 485.9844,188.0215 Q485.375,187.8027 484.75,187.8027 Q483.9844,187.8027 483.3438,188.1309 Q482.7188,188.459 482.2188,189.209 Q481.7344,189.959 481.7344,190.9902 L481.7344,192.084 Q481.7344,193.3184 482.625,194.1465 Q483.5156,194.959 485.1094,194.959 Q486.0469,194.959 486.7031,194.709 Q487.0938,194.5527 487.5156,194.1152 Q487.7813,193.8496 487.9219,193.7715 Q488.0781,193.6934 488.2813,193.6934 Q488.6094,193.6934 488.8594,193.959 Q489.125,194.209 489.125,194.5527 Q489.125,194.8965 488.7813,195.3027 Q488.2813,195.8809 487.4844,196.209 Q486.4063,196.6621 485.1094,196.6621 Q483.5938,196.6621 482.3906,196.0371 Q481.4063,195.5371 480.7188,194.4746 Q480.0313,193.3965 480.0313,192.1152 L480.0313,190.959 Q480.0313,189.6309 480.6406,188.4902 Q481.2656,187.334 482.3594,186.7246 Q483.4531,186.0996 484.6875,186.0996 Q485.4219,186.0996 486.0625,186.2715 Q486.7188,186.4277 487.2656,186.7871 Z " fill="#000000"/><text fill="#000000" font-family="sans-serif" font-size="12" font-style="italic" lengthAdjust="spacing" textLength="65" x="524" y="186.5703">&#171;controller&#187;</text><text fill="#000000" font-family="sans-serif" font-size="14" lengthAdjust="spacing" textLength="116" x="498.5" y="204.6895">AddUserController</text><line style="stroke:#181818;stroke-width:0.5;" x1="470.5" x2="616.5" y1="213.2031" y2="213.2031"/><line style="stroke:#181818;stroke-width:0.5;" x1="470.5" x2="616.5" y1="221.2031" y2="221.2031"/></g><!--class UserManagementService--><g id="elem_UserManagementService"><rect codeLine="12" fill="#F1F1F1" height="60.582" id="UserManagementService" rx="2.5" ry="2.5" style="stroke:#181818;stroke-width:0.5;" width="190" x="546.5" y="308.6211"/><ellipse cx="561.5" cy="330.9121" fill="#ADD1B2" rx="11" ry="11" style="stroke:#181818;stroke-width:1.0;"/><path d="M564.2656,326.7871 Q564.4219,326.5684 564.6094,326.459 Q564.7969,326.3496 565.0156,326.3496 Q565.3906,326.3496 565.625,326.6152 Q565.8594,326.8652 565.8594,327.4746 L565.8594,328.9277 Q565.8594,329.5371 565.625,329.8027 Q565.3906,330.0684 565.0156,330.0684 Q564.6719,330.0684 564.4688,329.8652 Q564.2656,329.6777 564.1563,329.1621 Q564.1094,328.8027 563.9219,328.6152 Q563.5938,328.2402 562.9844,328.0215 Q562.375,327.8027 561.75,327.8027 Q560.9844,327.8027 560.3438,328.1309 Q559.7188,328.459 559.2188,329.209 Q558.7344,329.959 558.7344,330.9902 L558.7344,332.084 Q558.7344,333.3184 559.625,334.1465 Q560.5156,334.959 562.1094,334.959 Q563.0469,334.959 563.7031,334.709 Q564.0938,334.5527 564.5156,334.1152 Q564.7813,333.8496 564.9219,333.7715 Q565.0781,333.6934 565.2813,333.6934 Q565.6094,333.6934 565.8594,333.959 Q566.125,334.209 566.125,334.5527 Q566.125,334.8965 565.7813,335.3027 Q565.2813,335.8809 564.4844,336.209 Q563.4063,336.6621 562.1094,336.6621 Q560.5938,336.6621 559.3906,336.0371 Q558.4063,335.5371 557.7188,334.4746 Q557.0313,333.3965 557.0313,332.1152 L557.0313,330.959 Q557.0313,329.6309 557.6406,328.4902 Q558.2656,327.334 559.3594,326.7246 Q560.4531,326.0996 561.6875,326.0996 Q562.4219,326.0996 563.0625,326.2715 Q563.7188,326.4277 564.2656,326.7871 Z " fill="#000000"/><text fill="#000000" font-family="sans-serif" font-size="12" font-style="italic" lengthAdjust="spacing" textLength="53" x="628" y="326.5703">&#171;service&#187;</text><text fill="#000000" font-family="sans-serif" font-size="14" lengthAdjust="spacing" textLength="158" x="575.5" y="344.6895">UserManagementService</text><line style="stroke:#181818;stroke-width:0.5;" x1="547.5" x2="735.5" y1="353.2031" y2="353.2031"/><line style="stroke:#181818;stroke-width:0.5;" x1="547.5" x2="735.5" y1="361.2031" y2="361.2031"/></g><!--class UserRepository--><g id="elem_UserRepository"><rect codeLine="14" fill="#F1F1F1" height="60.582" id="UserRepository" rx="2.5" ry="2.5" style="stroke:#181818;stroke-width:0.5;" width="129" x="382" y="308.6211"/><ellipse cx="397" cy="330.9121" fill="#ADD1B2" rx="11" ry="11" style="stroke:#181818;stroke-width:1.0;"/><path d="M399.7656,326.7871 Q399.9219,326.5684 400.1094,326.459 Q400.2969,326.3496 400.5156,326.3496 Q400.8906,326.3496 401.125,326.6152 Q401.3594,326.8652 401.3594,327.4746 L401.3594,328.9277 Q401.3594,329.5371 401.125,329.8027 Q400.8906,330.0684 400.5156,330.0684 Q400.1719,330.0684 399.9688,329.8652 Q399.7656,329.6777 399.6563,329.1621 Q399.6094,328.8027 399.4219,328.6152 Q399.0938,328.2402 398.4844,328.0215 Q397.875,327.8027 397.25,327.8027 Q396.4844,327.8027 395.8438,328.1309 Q395.2188,328.459 394.7188,329.209 Q394.2344,329.959 394.2344,330.9902 L394.2344,332.084 Q394.2344,333.3184 395.125,334.1465 Q396.0156,334.959 397.6094,334.959 Q398.5469,334.959 399.2031,334.709 Q399.5938,334.5527 400.0156,334.1152 Q400.2813,333.8496 400.4219,333.7715 Q400.5781,333.6934 400.7813,333.6934 Q401.1094,333.6934 401.3594,333.959 Q401.625,334.209 401.625,334.5527 Q401.625,334.8965 401.2813,335.3027 Q400.7813,335.8809 399.9844,336.209 Q398.9063,336.6621 397.6094,336.6621 Q396.0938,336.6621 394.8906,336.0371 Q393.9063,335.5371 393.2188,334.4746 Q392.5313,333.3965 392.5313,332.1152 L392.5313,330.959 Q392.5313,329.6309 393.1406,328.4902 Q393.7656,327.334 394.8594,326.7246 Q395.9531,326.0996 397.1875,326.0996 Q397.9219,326.0996 398.5625,326.2715 Q399.2188,326.4277 399.7656,326.7871 Z " fill="#000000"/><text fill="#000000" font-family="sans-serif" font-size="12" font-style="italic" lengthAdjust="spacing" textLength="68" x="425.5" y="326.5703">&#171;repository&#187;</text><text fill="#000000" font-family="sans-serif" font-size="14" lengthAdjust="spacing" textLength="97" x="411" y="344.6895">UserRepository</text><line style="stroke:#181818;stroke-width:0.5;" x1="383" x2="510" y1="353.2031" y2="353.2031"/><line style="stroke:#181818;stroke-width:0.5;" x1="383" x2="510" y1="361.2031" y2="361.2031"/></g><!--class RepositoryFactory--><g id="elem_RepositoryFactory"><rect codeLine="16" fill="#F1F1F1" height="60.582" id="RepositoryFactory" rx="2.5" ry="2.5" style="stroke:#181818;stroke-width:0.5;" width="148" x="382.5" y="448.6211"/><ellipse cx="397.5" cy="470.9121" fill="#ADD1B2" rx="11" ry="11" style="stroke:#181818;stroke-width:1.0;"/><path d="M400.2656,466.7871 Q400.4219,466.5684 400.6094,466.459 Q400.7969,466.3496 401.0156,466.3496 Q401.3906,466.3496 401.625,466.6152 Q401.8594,466.8652 401.8594,467.4746 L401.8594,468.9277 Q401.8594,469.5371 401.625,469.8027 Q401.3906,470.0684 401.0156,470.0684 Q400.6719,470.0684 400.4688,469.8652 Q400.2656,469.6777 400.1563,469.1621 Q400.1094,468.8027 399.9219,468.6152 Q399.5938,468.2402 398.9844,468.0215 Q398.375,467.8027 397.75,467.8027 Q396.9844,467.8027 396.3438,468.1309 Q395.7188,468.459 395.2188,469.209 Q394.7344,469.959 394.7344,470.9902 L394.7344,472.084 Q394.7344,473.3184 395.625,474.1465 Q396.5156,474.959 398.1094,474.959 Q399.0469,474.959 399.7031,474.709 Q400.0938,474.5527 400.5156,474.1152 Q400.7813,473.8496 400.9219,473.7715 Q401.0781,473.6934 401.2813,473.6934 Q401.6094,473.6934 401.8594,473.959 Q402.125,474.209 402.125,474.5527 Q402.125,474.8965 401.7813,475.3027 Q401.2813,475.8809 400.4844,476.209 Q399.4063,476.6621 398.1094,476.6621 Q396.5938,476.6621 395.3906,476.0371 Q394.4063,475.5371 393.7188,474.4746 Q393.0313,473.3965 393.0313,472.1152 L393.0313,470.959 Q393.0313,469.6309 393.6406,468.4902 Q394.2656,467.334 395.3594,466.7246 Q396.4531,466.0996 397.6875,466.0996 Q398.4219,466.0996 399.0625,466.2715 Q399.7188,466.4277 400.2656,466.7871 Z " fill="#000000"/><text fill="#000000" font-family="sans-serif" font-size="12" font-style="italic" lengthAdjust="spacing" textLength="50" x="444.5" y="466.5703">&#171;factory&#187;</text><text fill="#000000" font-family="sans-serif" font-size="14" lengthAdjust="spacing" textLength="116" x="411.5" y="484.6895">RepositoryFactory</text><line style="stroke:#181818;stroke-width:0.5;" x1="383.5" x2="529.5" y1="493.2031" y2="493.2031"/><line style="stroke:#181818;stroke-width:0.5;" x1="383.5" x2="529.5" y1="501.2031" y2="501.2031"/></g><!--class EmailAddress--><g id="elem_EmailAddress"><rect codeLine="18" fill="#F1F1F1" height="76.543" id="EmailAddress" rx="2.5" ry="2.5" style="stroke:#181818;stroke-width:0.5;" width="118" x="614.5" y="588.6211"/><ellipse cx="629.5" cy="618.8926" fill="#ADD1B2" rx="11" ry="11" style="stroke:#181818;stroke-width:1.0;"/><path d="M632.2656,614.7676 Q632.4219,614.5488 632.6094,614.4395 Q632.7969,614.3301 633.0156,614.3301 Q633.3906,614.3301 633.625,614.5957 Q633.8594,614.8457 633.8594,615.4551 L633.8594,616.9082 Q633.8594,617.5176 633.625,617.7832 Q633.3906,618.0488 633.0156,618.0488 Q632.6719,618.0488 632.4688,617.8457 Q632.2656,617.6582 632.1563,617.1426 Q632.1094,616.7832 631.9219,616.5957 Q631.5938,616.2207 630.9844,616.002 Q630.375,615.7832 629.75,615.7832 Q628.9844,615.7832 628.3438,616.1113 Q627.7188,616.4395 627.2188,617.1895 Q626.7344,617.9395 626.7344,618.9707 L626.7344,620.0645 Q626.7344,621.2988 627.625,622.127 Q628.5156,622.9395 630.1094,622.9395 Q631.0469,622.9395 631.7031,622.6895 Q632.0938,622.5332 632.5156,622.0957 Q632.7813,621.8301 632.9219,621.752 Q633.0781,621.6738 633.2813,621.6738 Q633.6094,621.6738 633.8594,621.9395 Q634.125,622.1895 634.125,622.5332 Q634.125,622.877 633.7813,623.2832 Q633.2813,623.8613 632.4844,624.1895 Q631.4063,624.6426 630.1094,624.6426 Q628.5938,624.6426 627.3906,624.0176 Q626.4063,623.5176 625.7188,622.4551 Q625.0313,621.377 625.0313,620.0957 L625.0313,618.9395 Q625.0313,617.6113 625.6406,616.4707 Q626.2656,615.3145 627.3594,614.7051 Q628.4531,614.0801 629.6875,614.0801 Q630.4219,614.0801 631.0625,614.252 Q631.7188,614.4082 632.2656,614.7676 Z " fill="#000000"/><text fill="#000000" font-family="sans-serif" font-size="12" font-style="italic" lengthAdjust="spacing" textLength="44" x="664.5" y="606.5703">&#171;value&#187;</text><text fill="#000000" font-family="sans-serif" font-size="12" font-style="italic" lengthAdjust="spacing" textLength="24" x="674.5" y="622.5313">&#171;id&#187;</text><text fill="#000000" font-family="sans-serif" font-size="14" lengthAdjust="spacing" textLength="86" x="643.5" y="640.6504">EmailAddress</text><line style="stroke:#181818;stroke-width:0.5;" x1="615.5" x2="731.5" y1="649.1641" y2="649.1641"/><line style="stroke:#181818;stroke-width:0.5;" x1="615.5" x2="731.5" y1="657.1641" y2="657.1641"/></g><!--class SystemUser--><g id="elem_SystemUser"><rect codeLine="20" fill="#F1F1F1" height="60.582" id="SystemUser" rx="2.5" ry="2.5" style="stroke:#181818;stroke-width:0.5;" width="107" x="348" y="596.6211"/><ellipse cx="363" cy="618.9121" fill="#ADD1B2" rx="11" ry="11" style="stroke:#181818;stroke-width:1.0;"/><path d="M365.7656,614.7871 Q365.9219,614.5684 366.1094,614.459 Q366.2969,614.3496 366.5156,614.3496 Q366.8906,614.3496 367.125,614.6152 Q367.3594,614.8652 367.3594,615.4746 L367.3594,616.9277 Q367.3594,617.5371 367.125,617.8027 Q366.8906,618.0684 366.5156,618.0684 Q366.1719,618.0684 365.9688,617.8652 Q365.7656,617.6777 365.6563,617.1621 Q365.6094,616.8027 365.4219,616.6152 Q365.0938,616.2402 364.4844,616.0215 Q363.875,615.8027 363.25,615.8027 Q362.4844,615.8027 361.8438,616.1309 Q361.2188,616.459 360.7188,617.209 Q360.2344,617.959 360.2344,618.9902 L360.2344,620.084 Q360.2344,621.3184 361.125,622.1465 Q362.0156,622.959 363.6094,622.959 Q364.5469,622.959 365.2031,622.709 Q365.5938,622.5527 366.0156,622.1152 Q366.2813,621.8496 366.4219,621.7715 Q366.5781,621.6934 366.7813,621.6934 Q367.1094,621.6934 367.3594,621.959 Q367.625,622.209 367.625,622.5527 Q367.625,622.8965 367.2813,623.3027 Q366.7813,623.8809 365.9844,624.209 Q364.9063,624.6621 363.6094,624.6621 Q362.0938,624.6621 360.8906,624.0371 Q359.9063,623.5371 359.2188,622.4746 Q358.5313,621.3965 358.5313,620.1152 L358.5313,618.959 Q358.5313,617.6309 359.1406,616.4902 Q359.7656,615.334 360.8594,614.7246 Q361.9531,614.0996 363.1875,614.0996 Q363.9219,614.0996 364.5625,614.2715 Q365.2188,614.4277 365.7656,614.7871 Z " fill="#000000"/><text fill="#000000" font-family="sans-serif" font-size="12" font-style="italic" lengthAdjust="spacing" textLength="35" x="397" y="614.5703">&#171;root&#187;</text><text fill="#000000" font-family="sans-serif" font-size="14" lengthAdjust="spacing" textLength="75" x="377" y="632.6895">SystemUser</text><line style="stroke:#181818;stroke-width:0.5;" x1="349" x2="454" y1="641.2031" y2="641.2031"/><line style="stroke:#181818;stroke-width:0.5;" x1="349" x2="454" y1="649.2031" y2="649.2031"/></g><!--class Password--><g id="elem_Password"><rect codeLine="22" fill="#F1F1F1" height="60.582" id="Password" rx="2.5" ry="2.5" style="stroke:#181818;stroke-width:0.5;" width="93" x="768" y="596.6211"/><ellipse cx="783" cy="618.9121" fill="#ADD1B2" rx="11" ry="11" style="stroke:#181818;stroke-width:1.0;"/><path d="M785.7656,614.7871 Q785.9219,614.5684 786.1094,614.459 Q786.2969,614.3496 786.5156,614.3496 Q786.8906,614.3496 787.125,614.6152 Q787.3594,614.8652 787.3594,615.4746 L787.3594,616.9277 Q787.3594,617.5371 787.125,617.8027 Q786.8906,618.0684 786.5156,618.0684 Q786.1719,618.0684 785.9688,617.8652 Q785.7656,617.6777 785.6563,617.1621 Q785.6094,616.8027 785.4219,616.6152 Q785.0938,616.2402 784.4844,616.0215 Q783.875,615.8027 783.25,615.8027 Q782.4844,615.8027 781.8438,616.1309 Q781.2188,616.459 780.7188,617.209 Q780.2344,617.959 780.2344,618.9902 L780.2344,620.084 Q780.2344,621.3184 781.125,622.1465 Q782.0156,622.959 783.6094,622.959 Q784.5469,622.959 785.2031,622.709 Q785.5938,622.5527 786.0156,622.1152 Q786.2813,621.8496 786.4219,621.7715 Q786.5781,621.6934 786.7813,621.6934 Q787.1094,621.6934 787.3594,621.959 Q787.625,622.209 787.625,622.5527 Q787.625,622.8965 787.2813,623.3027 Q786.7813,623.8809 785.9844,624.209 Q784.9063,624.6621 783.6094,624.6621 Q782.0938,624.6621 780.8906,624.0371 Q779.9063,623.5371 779.2188,622.4746 Q778.5313,621.3965 778.5313,620.1152 L778.5313,618.959 Q778.5313,617.6309 779.1406,616.4902 Q779.7656,615.334 780.8594,614.7246 Q781.9531,614.0996 783.1875,614.0996 Q783.9219,614.0996 784.5625,614.2715 Q785.2188,614.4277 785.7656,614.7871 Z " fill="#000000"/><text fill="#000000" font-family="sans-serif" font-size="12" font-style="italic" lengthAdjust="spacing" textLength="44" x="805.5" y="614.5703">&#171;value&#187;</text><text fill="#000000" font-family="sans-serif" font-size="14" lengthAdjust="spacing" textLength="61" x="797" y="632.6895">Password</text><line style="stroke:#181818;stroke-width:0.5;" x1="769" x2="860" y1="641.2031" y2="641.2031"/><line style="stroke:#181818;stroke-width:0.5;" x1="769" x2="860" y1="649.2031" y2="649.2031"/></g><!--class Name--><g id="elem_Name"><rect codeLine="24" fill="#F1F1F1" height="60.582" id="Name" rx="2.5" ry="2.5" style="stroke:#181818;stroke-width:0.5;" width="72" x="896.5" y="596.6211"/><ellipse cx="911.5" cy="618.9121" fill="#ADD1B2" rx="11" ry="11" style="stroke:#181818;stroke-width:1.0;"/><path d="M914.2656,614.7871 Q914.4219,614.5684 914.6094,614.459 Q914.7969,614.3496 915.0156,614.3496 Q915.3906,614.3496 915.625,614.6152 Q915.8594,614.8652 915.8594,615.4746 L915.8594,616.9277 Q915.8594,617.5371 915.625,617.8027 Q915.3906,618.0684 915.0156,618.0684 Q914.6719,618.0684 914.4688,617.8652 Q914.2656,617.6777 914.1563,617.1621 Q914.1094,616.8027 913.9219,616.6152 Q913.5938,616.2402 912.9844,616.0215 Q912.375,615.8027 911.75,615.8027 Q910.9844,615.8027 910.3438,616.1309 Q909.7188,616.459 909.2188,617.209 Q908.7344,617.959 908.7344,618.9902 L908.7344,620.084 Q908.7344,621.3184 909.625,622.1465 Q910.5156,622.959 912.1094,622.959 Q913.0469,622.959 913.7031,622.709 Q914.0938,622.5527 914.5156,622.1152 Q914.7813,621.8496 914.9219,621.7715 Q915.0781,621.6934 915.2813,621.6934 Q915.6094,621.6934 915.8594,621.959 Q916.125,622.209 916.125,622.5527 Q916.125,622.8965 915.7813,623.3027 Q915.2813,623.8809 914.4844,624.209 Q913.4063,624.6621 912.1094,624.6621 Q910.5938,624.6621 909.3906,624.0371 Q908.4063,623.5371 907.7188,622.4746 Q907.0313,621.3965 907.0313,620.1152 L907.0313,618.959 Q907.0313,617.6309 907.6406,616.4902 Q908.2656,615.334 909.3594,614.7246 Q910.4531,614.0996 911.6875,614.0996 Q912.4219,614.0996 913.0625,614.2715 Q913.7188,614.4277 914.2656,614.7871 Z " fill="#000000"/><text fill="#000000" font-family="sans-serif" font-size="12" font-style="italic" lengthAdjust="spacing" textLength="44" x="923.5" y="614.5703">&#171;value&#187;</text><text fill="#000000" font-family="sans-serif" font-size="14" lengthAdjust="spacing" textLength="36" x="927.5" y="632.6895">Name</text><line style="stroke:#181818;stroke-width:0.5;" x1="897.5" x2="967.5" y1="641.2031" y2="641.2031"/><line style="stroke:#181818;stroke-width:0.5;" x1="897.5" x2="967.5" y1="649.2031" y2="649.2031"/></g><!--class RoleSet--><g id="elem_RoleSet"><rect codeLine="32" fill="#F1F1F1" height="60.582" id="RoleSet" rx="2.5" ry="2.5" style="stroke:#181818;stroke-width:0.5;" width="82" x="123.5" y="596.6211"/><ellipse cx="138.5" cy="618.9121" fill="#ADD1B2" rx="11" ry="11" style="stroke:#181818;stroke-width:1.0;"/><path d="M141.2656,614.7871 Q141.4219,614.5684 141.6094,614.459 Q141.7969,614.3496 142.0156,614.3496 Q142.3906,614.3496 142.625,614.6152 Q142.8594,614.8652 142.8594,615.4746 L142.8594,616.9277 Q142.8594,617.5371 142.625,617.8027 Q142.3906,618.0684 142.0156,618.0684 Q141.6719,618.0684 141.4688,617.8652 Q141.2656,617.6777 141.1563,617.1621 Q141.1094,616.8027 140.9219,616.6152 Q140.5938,616.2402 139.9844,616.0215 Q139.375,615.8027 138.75,615.8027 Q137.9844,615.8027 137.3438,616.1309 Q136.7188,616.459 136.2188,617.209 Q135.7344,617.959 135.7344,618.9902 L135.7344,620.084 Q135.7344,621.3184 136.625,622.1465 Q137.5156,622.959 139.1094,622.959 Q140.0469,622.959 140.7031,622.709 Q141.0938,622.5527 141.5156,622.1152 Q141.7813,621.8496 141.9219,621.7715 Q142.0781,621.6934 142.2813,621.6934 Q142.6094,621.6934 142.8594,621.959 Q143.125,622.209 143.125,622.5527 Q143.125,622.8965 142.7813,623.3027 Q142.2813,623.8809 141.4844,624.209 Q140.4063,624.6621 139.1094,624.6621 Q137.5938,624.6621 136.3906,624.0371 Q135.4063,623.5371 134.7188,622.4746 Q134.0313,621.3965 134.0313,620.1152 L134.0313,618.959 Q134.0313,617.6309 134.6406,616.4902 Q135.2656,615.334 136.3594,614.7246 Q137.4531,614.0996 138.6875,614.0996 Q139.4219,614.0996 140.0625,614.2715 Q140.7188,614.4277 141.2656,614.7871 Z " fill="#000000"/><text fill="#000000" font-family="sans-serif" font-size="12" font-style="italic" lengthAdjust="spacing" textLength="44" x="155.5" y="614.5703">&#171;value&#187;</text><text fill="#000000" font-family="sans-serif" font-size="14" lengthAdjust="spacing" textLength="50" x="152.5" y="632.6895">RoleSet</text><line style="stroke:#181818;stroke-width:0.5;" x1="124.5" x2="204.5" y1="641.2031" y2="641.2031"/><line style="stroke:#181818;stroke-width:0.5;" x1="124.5" x2="204.5" y1="649.2031" y2="649.2031"/></g><!--class RoleAssignment--><g id="elem_RoleAssignment"><rect codeLine="28" fill="#F1F1F1" height="60.582" id="RoleAssignment" rx="2.5" ry="2.5" style="stroke:#181818;stroke-width:0.5;" width="134" x="209.5" y="744.6211"/><ellipse cx="224.5" cy="766.9121" fill="#ADD1B2" rx="11" ry="11" style="stroke:#181818;stroke-width:1.0;"/><path d="M227.2656,762.7871 Q227.4219,762.5684 227.6094,762.459 Q227.7969,762.3496 228.0156,762.3496 Q228.3906,762.3496 228.625,762.6152 Q228.8594,762.8652 228.8594,763.4746 L228.8594,764.9277 Q228.8594,765.5371 228.625,765.8027 Q228.3906,766.0684 228.0156,766.0684 Q227.6719,766.0684 227.4688,765.8652 Q227.2656,765.6777 227.1563,765.1621 Q227.1094,764.8027 226.9219,764.6152 Q226.5938,764.2402 225.9844,764.0215 Q225.375,763.8027 224.75,763.8027 Q223.9844,763.8027 223.3438,764.1309 Q222.7188,764.459 222.2188,765.209 Q221.7344,765.959 221.7344,766.9902 L221.7344,768.084 Q221.7344,769.3184 222.625,770.1465 Q223.5156,770.959 225.1094,770.959 Q226.0469,770.959 226.7031,770.709 Q227.0938,770.5527 227.5156,770.1152 Q227.7813,769.8496 227.9219,769.7715 Q228.0781,769.6934 228.2813,769.6934 Q228.6094,769.6934 228.8594,769.959 Q229.125,770.209 229.125,770.5527 Q229.125,770.8965 228.7813,771.3027 Q228.2813,771.8809 227.4844,772.209 Q226.4063,772.6621 225.1094,772.6621 Q223.5938,772.6621 222.3906,772.0371 Q221.4063,771.5371 220.7188,770.4746 Q220.0313,769.3965 220.0313,768.1152 L220.0313,766.959 Q220.0313,765.6309 220.6406,764.4902 Q221.2656,763.334 222.3594,762.7246 Q223.4531,762.0996 224.6875,762.0996 Q225.4219,762.0996 226.0625,762.2715 Q226.7188,762.4277 227.2656,762.7871 Z " fill="#000000"/><text fill="#000000" font-family="sans-serif" font-size="12" font-style="italic" lengthAdjust="spacing" textLength="43" x="268" y="762.5703">&#171;entity&#187;</text><text fill="#000000" font-family="sans-serif" font-size="14" lengthAdjust="spacing" textLength="102" x="238.5" y="780.6895">RoleAssignment</text><line style="stroke:#181818;stroke-width:0.5;" x1="210.5" x2="342.5" y1="789.2031" y2="789.2031"/><line style="stroke:#181818;stroke-width:0.5;" x1="210.5" x2="342.5" y1="797.2031" y2="797.2031"/></g><!--class Role--><g id="elem_Role"><rect codeLine="30" fill="#F1F1F1" height="60.582" id="Role" rx="2.5" ry="2.5" style="stroke:#181818;stroke-width:0.5;" width="72" x="240.5" y="596.6211"/><ellipse cx="255.5" cy="618.9121" fill="#EB937F" rx="11" ry="11" style="stroke:#181818;stroke-width:1.0;"/><path d="M254.3594,619.709 L254.3594,622.209 L258.6875,622.209 L258.6875,621.2871 Q258.6875,620.6777 258.9219,620.4121 Q259.1719,620.1465 259.5469,620.1465 Q259.9219,620.1465 260.1563,620.4121 Q260.3906,620.6777 260.3906,621.2871 L260.3906,623.9121 L252.3906,623.9121 Q251.7656,623.9121 251.5,623.6777 Q251.25,623.4434 251.25,623.0527 Q251.25,622.6777 251.5156,622.4434 Q251.7813,622.209 252.3906,622.209 L252.6563,622.209 L252.6563,615.5527 L252.3906,615.5527 Q251.7656,615.5527 251.5,615.3184 Q251.25,615.084 251.25,614.6934 Q251.25,614.3184 251.5,614.084 Q251.7656,613.8496 252.3906,613.8496 L260.0156,613.8496 L260.0156,616.4434 Q260.0156,617.0527 259.7813,617.3184 Q259.5625,617.5684 259.1719,617.5684 Q258.7969,617.5684 258.5625,617.3184 Q258.3281,617.0527 258.3281,616.4434 L258.3281,615.5527 L254.3594,615.5527 L254.3594,618.0059 L255.8438,618.0059 Q255.8438,617.3496 255.9688,617.1621 Q256.2344,616.7559 256.7031,616.7559 Q257.0781,616.7559 257.3125,617.0215 Q257.5469,617.2715 257.5469,617.8809 L257.5469,619.8496 Q257.5469,620.3965 257.4219,620.584 Q257.1563,620.9746 256.7031,620.9746 Q256.2344,620.9746 255.9688,620.5684 Q255.8438,620.3809 255.8438,619.709 L254.3594,619.709 Z " fill="#000000"/><text fill="#000000" font-family="sans-serif" font-size="12" font-style="italic" lengthAdjust="spacing" textLength="44" x="267.5" y="614.5703">&#171;value&#187;</text><text fill="#000000" font-family="sans-serif" font-size="14" lengthAdjust="spacing" textLength="29" x="275" y="632.6895">Role</text><line style="stroke:#181818;stroke-width:0.5;" x1="241.5" x2="311.5" y1="641.2031" y2="641.2031"/><line style="stroke:#181818;stroke-width:0.5;" x1="241.5" x2="311.5" y1="649.2031" y2="649.2031"/></g><!--class Set--><g id="elem_Set"><rect codeLine="34" fill="#F1F1F1" height="60.582" id="Set" rx="2.5" ry="2.5" style="stroke:#181818;stroke-width:0.5;" width="167" x="7" y="744.6211"/><ellipse cx="22" cy="766.9121" fill="#ADD1B2" rx="11" ry="11" style="stroke:#181818;stroke-width:1.0;"/><path d="M24.7656,762.7871 Q24.9219,762.5684 25.1094,762.459 Q25.2969,762.3496 25.5156,762.3496 Q25.8906,762.3496 26.125,762.6152 Q26.3594,762.8652 26.3594,763.4746 L26.3594,764.9277 Q26.3594,765.5371 26.125,765.8027 Q25.8906,766.0684 25.5156,766.0684 Q25.1719,766.0684 24.9688,765.8652 Q24.7656,765.6777 24.6563,765.1621 Q24.6094,764.8027 24.4219,764.6152 Q24.0938,764.2402 23.4844,764.0215 Q22.875,763.8027 22.25,763.8027 Q21.4844,763.8027 20.8438,764.1309 Q20.2188,764.459 19.7188,765.209 Q19.2344,765.959 19.2344,766.9902 L19.2344,768.084 Q19.2344,769.3184 20.125,770.1465 Q21.0156,770.959 22.6094,770.959 Q23.5469,770.959 24.2031,770.709 Q24.5938,770.5527 25.0156,770.1152 Q25.2813,769.8496 25.4219,769.7715 Q25.5781,769.6934 25.7813,769.6934 Q26.1094,769.6934 26.3594,769.959 Q26.625,770.209 26.625,770.5527 Q26.625,770.8965 26.2813,771.3027 Q25.7813,771.8809 24.9844,772.209 Q23.9063,772.6621 22.6094,772.6621 Q21.0938,772.6621 19.8906,772.0371 Q18.9063,771.5371 18.2188,770.4746 Q17.5313,769.3965 17.5313,768.1152 L17.5313,766.959 Q17.5313,765.6309 18.1406,764.4902 Q18.7656,763.334 19.8594,762.7246 Q20.9531,762.0996 22.1875,762.0996 Q22.9219,762.0996 23.5625,762.2715 Q24.2188,762.4277 24.7656,762.7871 Z " fill="#000000"/><text fill="#000000" font-family="sans-serif" font-size="12" font-style="italic" lengthAdjust="spacing" textLength="44" x="34" y="762.5703">&#171;value&#187;</text><text fill="#000000" font-family="sans-serif" font-size="14" lengthAdjust="spacing" textLength="21" x="45.5" y="780.6895">Set</text><rect fill="#FFFFFF" height="17.9609" style="stroke:#181818;stroke-width:1.0;stroke-dasharray:2.0,2.0;" width="93" x="84" y="741.6211"/><text fill="#000000" font-family="sans-serif" font-size="12" font-style="italic" lengthAdjust="spacing" textLength="91" x="85" y="755.5703">RoleAssignment</text><line style="stroke:#181818;stroke-width:0.5;" x1="8" x2="173" y1="789.2031" y2="789.2031"/><line style="stroke:#181818;stroke-width:0.5;" x1="8" x2="173" y1="797.2031" y2="797.2031"/></g><!--class PasswordPolicy--><g id="elem_PasswordPolicy"><rect codeLine="36" fill="#F1F1F1" height="60.582" id="PasswordPolicy" rx="2.5" ry="2.5" style="stroke:#181818;stroke-width:0.5;" width="130" x="599.5" y="744.6211"/><ellipse cx="614.5" cy="766.9121" fill="#ADD1B2" rx="11" ry="11" style="stroke:#181818;stroke-width:1.0;"/><path d="M617.2656,762.7871 Q617.4219,762.5684 617.6094,762.459 Q617.7969,762.3496 618.0156,762.3496 Q618.3906,762.3496 618.625,762.6152 Q618.8594,762.8652 618.8594,763.4746 L618.8594,764.9277 Q618.8594,765.5371 618.625,765.8027 Q618.3906,766.0684 618.0156,766.0684 Q617.6719,766.0684 617.4688,765.8652 Q617.2656,765.6777 617.1563,765.1621 Q617.1094,764.8027 616.9219,764.6152 Q616.5938,764.2402 615.9844,764.0215 Q615.375,763.8027 614.75,763.8027 Q613.9844,763.8027 613.3438,764.1309 Q612.7188,764.459 612.2188,765.209 Q611.7344,765.959 611.7344,766.9902 L611.7344,768.084 Q611.7344,769.3184 612.625,770.1465 Q613.5156,770.959 615.1094,770.959 Q616.0469,770.959 616.7031,770.709 Q617.0938,770.5527 617.5156,770.1152 Q617.7813,769.8496 617.9219,769.7715 Q618.0781,769.6934 618.2813,769.6934 Q618.6094,769.6934 618.8594,769.959 Q619.125,770.209 619.125,770.5527 Q619.125,770.8965 618.7813,771.3027 Q618.2813,771.8809 617.4844,772.209 Q616.4063,772.6621 615.1094,772.6621 Q613.5938,772.6621 612.3906,772.0371 Q611.4063,771.5371 610.7188,770.4746 Q610.0313,769.3965 610.0313,768.1152 L610.0313,766.959 Q610.0313,765.6309 610.6406,764.4902 Q611.2656,763.334 612.3594,762.7246 Q613.4531,762.0996 614.6875,762.0996 Q615.4219,762.0996 616.0625,762.2715 Q616.7188,762.4277 617.2656,762.7871 Z " fill="#000000"/><text fill="#000000" font-family="sans-serif" font-size="12" font-style="italic" lengthAdjust="spacing" textLength="53" x="651" y="762.5703">&#171;service&#187;</text><text fill="#000000" font-family="sans-serif" font-size="14" lengthAdjust="spacing" textLength="98" x="628.5" y="780.6895">PasswordPolicy</text><line style="stroke:#181818;stroke-width:0.5;" x1="600.5" x2="728.5" y1="789.2031" y2="789.2031"/><line style="stroke:#181818;stroke-width:0.5;" x1="600.5" x2="728.5" y1="797.2031" y2="797.2031"/></g><!--class PasswordEncoder--><g id="elem_PasswordEncoder"><rect codeLine="38" fill="#F1F1F1" height="60.582" id="PasswordEncoder" rx="2.5" ry="2.5" style="stroke:#181818;stroke-width:0.5;" width="146" x="889.5" y="744.6211"/><ellipse cx="904.5" cy="766.9121" fill="#ADD1B2" rx="11" ry="11" style="stroke:#181818;stroke-width:1.0;"/><path d="M907.2656,762.7871 Q907.4219,762.5684 907.6094,762.459 Q907.7969,762.3496 908.0156,762.3496 Q908.3906,762.3496 908.625,762.6152 Q908.8594,762.8652 908.8594,763.4746 L908.8594,764.9277 Q908.8594,765.5371 908.625,765.8027 Q908.3906,766.0684 908.0156,766.0684 Q907.6719,766.0684 907.4688,765.8652 Q907.2656,765.6777 907.1563,765.1621 Q907.1094,764.8027 906.9219,764.6152 Q906.5938,764.2402 905.9844,764.0215 Q905.375,763.8027 904.75,763.8027 Q903.9844,763.8027 903.3438,764.1309 Q902.7188,764.459 902.2188,765.209 Q901.7344,765.959 901.7344,766.9902 L901.7344,768.084 Q901.7344,769.3184 902.625,770.1465 Q903.5156,770.959 905.1094,770.959 Q906.0469,770.959 906.7031,770.709 Q907.0938,770.5527 907.5156,770.1152 Q907.7813,769.8496 907.9219,769.7715 Q908.0781,769.6934 908.2813,769.6934 Q908.6094,769.6934 908.8594,769.959 Q909.125,770.209 909.125,770.5527 Q909.125,770.8965 908.7813,771.3027 Q908.2813,771.8809 907.4844,772.209 Q906.4063,772.6621 905.1094,772.6621 Q903.5938,772.6621 902.3906,772.0371 Q901.4063,771.5371 900.7188,770.4746 Q900.0313,769.3965 900.0313,768.1152 L900.0313,766.959 Q900.0313,765.6309 900.6406,764.4902 Q901.2656,763.334 902.3594,762.7246 Q903.4531,762.0996 904.6875,762.0996 Q905.4219,762.0996 906.0625,762.2715 Q906.7188,762.4277 907.2656,762.7871 Z " fill="#000000"/><text fill="#000000" font-family="sans-serif" font-size="12" font-style="italic" lengthAdjust="spacing" textLength="53" x="949" y="762.5703">&#171;service&#187;</text><text fill="#000000" font-family="sans-serif" font-size="14" lengthAdjust="spacing" textLength="114" x="918.5" y="780.6895">PasswordEncoder</text><line style="stroke:#181818;stroke-width:0.5;" x1="890.5" x2="1034.5" y1="789.2031" y2="789.2031"/><line style="stroke:#181818;stroke-width:0.5;" x1="890.5" x2="1034.5" y1="797.2031" y2="797.2031"/></g><!--class SystemUserBuilder--><g id="elem_SystemUserBuilder"><rect codeLine="40" fill="#F1F1F1" height="60.582" id="SystemUserBuilder" rx="2.5" ry="2.5" style="stroke:#181818;stroke-width:0.5;" width="151" x="566" y="448.6211"/><ellipse cx="581" cy="470.9121" fill="#ADD1B2" rx="11" ry="11" style="stroke:#181818;stroke-width:1.0;"/><path d="M583.7656,466.7871 Q583.9219,466.5684 584.1094,466.459 Q584.2969,466.3496 584.5156,466.3496 Q584.8906,466.3496 585.125,466.6152 Q585.3594,466.8652 585.3594,467.4746 L585.3594,468.9277 Q585.3594,469.5371 585.125,469.8027 Q584.8906,470.0684 584.5156,470.0684 Q584.1719,470.0684 583.9688,469.8652 Q583.7656,469.6777 583.6563,469.1621 Q583.6094,468.8027 583.4219,468.6152 Q583.0938,468.2402 582.4844,468.0215 Q581.875,467.8027 581.25,467.8027 Q580.4844,467.8027 579.8438,468.1309 Q579.2188,468.459 578.7188,469.209 Q578.2344,469.959 578.2344,470.9902 L578.2344,472.084 Q578.2344,473.3184 579.125,474.1465 Q580.0156,474.959 581.6094,474.959 Q582.5469,474.959 583.2031,474.709 Q583.5938,474.5527 584.0156,474.1152 Q584.2813,473.8496 584.4219,473.7715 Q584.5781,473.6934 584.7813,473.6934 Q585.1094,473.6934 585.3594,473.959 Q585.625,474.209 585.625,474.5527 Q585.625,474.8965 585.2813,475.3027 Q584.7813,475.8809 583.9844,476.209 Q582.9063,476.6621 581.6094,476.6621 Q580.0938,476.6621 578.8906,476.0371 Q577.9063,475.5371 577.2188,474.4746 Q576.5313,473.3965 576.5313,472.1152 L576.5313,470.959 Q576.5313,469.6309 577.1406,468.4902 Q577.7656,467.334 578.8594,466.7246 Q579.9531,466.0996 581.1875,466.0996 Q581.9219,466.0996 582.5625,466.2715 Q583.2188,466.4277 583.7656,466.7871 Z " fill="#000000"/><text fill="#000000" font-family="sans-serif" font-size="12" font-style="italic" lengthAdjust="spacing" textLength="50" x="629.5" y="466.5703">&#171;factory&#187;</text><text fill="#000000" font-family="sans-serif" font-size="14" lengthAdjust="spacing" textLength="119" x="595" y="484.6895">SystemUserBuilder</text><line style="stroke:#181818;stroke-width:0.5;" x1="567" x2="716" y1="493.2031" y2="493.2031"/><line style="stroke:#181818;stroke-width:0.5;" x1="567" x2="716" y1="501.2031" y2="501.2031"/></g><!--link AddUserUI to AddUserController--><g id="link_AddUserUI_AddUserController"><path codeLine="42" d="M543.5,107.7811 C543.5,126.2411 543.5,143.9111 543.5,162.3811 " fill="none" id="AddUserUI-to-AddUserController" style="stroke:#181818;stroke-width:1.0;stroke-dasharray:7.0,7.0;"/><polygon fill="#181818" points="543.5,168.3811,547.5,159.3811,543.5,163.3811,539.5,159.3811,543.5,168.3811" style="stroke:#181818;stroke-width:1.0;"/></g><!--link AddUserController to UserManagementService--><g id="link_AddUserController_UserManagementService"><path codeLine="44" d="M564.52,229.7211 C581.06,253.0111 600.5167,280.3986 617.0367,303.6686 " fill="none" id="AddUserController-to-UserManagementService" style="stroke:#181818;stroke-width:1.0;stroke-dasharray:7.0,7.0;"/><polygon fill="#181818" points="620.51,308.5611,618.5617,298.9069,617.6156,304.484,612.0384,303.5379,620.51,308.5611" style="stroke:#181818;stroke-width:1.0;"/><polygon fill="#000000" points="606.3951,273.3432,603.5539,264.2669,598.7617,267.6703,606.3951,273.3432" style="stroke:#000000;stroke-width:1.0;"/><text fill="#000000" font-family="sans-serif" font-size="13" lengthAdjust="spacing" textLength="28" x="612.5" y="274.6494">uses</text></g><!--link AddUserController to UserRepository--><g id="link_AddUserController_UserRepository"><path codeLine="45" d="M522.69,229.7211 C506.32,253.0111 487.0808,280.3827 470.7208,303.6527 " fill="none" id="AddUserController-to-UserRepository" style="stroke:#181818;stroke-width:1.0;stroke-dasharray:7.0,7.0;"/><polygon fill="#181818" points="467.27,308.5611,475.7185,303.4991,470.1457,304.4708,469.174,298.898,467.27,308.5611" style="stroke:#181818;stroke-width:1.0;"/><polygon fill="#000000" points="503.6246,273.3571,511.2306,267.6474,506.4219,264.2672,503.6246,273.3571" style="stroke:#000000;stroke-width:1.0;"/><text fill="#000000" font-family="sans-serif" font-size="13" lengthAdjust="spacing" textLength="56" x="515.5" y="274.6494">accesses</text></g><!--link UserManagementService to SystemUserBuilder--><g id="link_UserManagementService_SystemUserBuilder"><path codeLine="47" d="M641.5,369.7211 C641.5,393.0111 641.5,419.2911 641.5,442.5611 " fill="none" id="UserManagementService-to-SystemUserBuilder" style="stroke:#181818;stroke-width:1.0;stroke-dasharray:7.0,7.0;"/><polygon fill="#181818" points="641.5,448.5611,645.5,439.5611,641.5,443.5611,637.5,439.5611,641.5,448.5611" style="stroke:#181818;stroke-width:1.0;"/><text fill="#000000" font-family="sans-serif" font-size="13" lengthAdjust="spacing" textLength="28" x="642.5" y="414.6494">uses</text></g><!--reverse link UserRepository to RepositoryFactory--><g id="link_UserRepository_RepositoryFactory"><path codeLine="49" d="M449.0817,375.7055 C450.7617,398.9955 452.67,425.2911 454.36,448.5611 " fill="none" id="UserRepository-backto-RepositoryFactory" style="stroke:#181818;stroke-width:1.0;stroke-dasharray:7.0,7.0;"/><polygon fill="#181818" points="448.65,369.7211,445.3079,378.9856,449.0097,374.7081,453.2872,378.41,448.65,369.7211" style="stroke:#181818;stroke-width:1.0;"/><polygon fill="#000000" points="457.1387,404.2797,454.8611,413.5135,460.7235,413.0887,457.1387,404.2797" style="stroke:#000000;stroke-width:1.0;"/><text fill="#000000" font-family="sans-serif" font-size="13" lengthAdjust="spacing" textLength="43" x="466.5" y="414.6494">creates</text></g><!--link UserRepository to SystemUser--><g id="link_UserRepository_SystemUser"><path codeLine="50" d="M381.55,356.0911 C334.7,371.3811 274.76,399.5811 245.5,448.6211 C209.87,508.3411 284.5807,563.8492 342.6707,596.5292 " fill="none" id="UserRepository-to-SystemUser" style="stroke:#181818;stroke-width:1.0;stroke-dasharray:7.0,7.0;"/><polygon fill="#181818" points="347.9,599.4711,342.0173,591.5721,343.5423,597.0195,338.0948,598.5445,347.9,599.4711" style="stroke:#181818;stroke-width:1.0;"/><polygon fill="#000000" points="249.7019,484.2025,254.047,475.7425,248.2445,474.8043,249.7019,484.2025" style="stroke:#000000;stroke-width:1.0;"/><text fill="#000000" font-family="sans-serif" font-size="13" lengthAdjust="spacing" textLength="104" x="259.5" y="484.6494">saves in database</text></g><!--link SystemUserBuilder to SystemUser--><g id="link_SystemUserBuilder_SystemUser"><path codeLine="52" d="M565.88,504.0611 C559.67,505.9611 553.48,507.8411 547.5,509.6211 C500.58,523.6211 478.73,507.8311 441.5,539.6211 C424.39,554.2311 415.9426,571.9989 410.1226,590.8189 " fill="none" id="SystemUserBuilder-to-SystemUser" style="stroke:#181818;stroke-width:1.0;stroke-dasharray:7.0,7.0;"/><polygon fill="#181818" points="408.35,596.5511,414.8304,589.1346,409.8272,591.7743,407.1875,586.7711,408.35,596.5511" style="stroke:#181818;stroke-width:1.0;"/><polygon fill="#000000" points="442.1319,551.6997,451.464,549.8657,448.6037,544.7307,442.1319,551.6997" style="stroke:#000000;stroke-width:1.0;"/><text fill="#000000" font-family="sans-serif" font-size="13" lengthAdjust="spacing" textLength="43" x="455.5" y="554.6494">creates</text></g><!--link SystemUserBuilder to PasswordPolicy--><g id="link_SystemUserBuilder_PasswordPolicy"><path codeLine="54" d="M602.88,509.7411 C580.61,529.3711 554.67,557.2411 542.5,588.6211 C530.13,620.5311 528.48,634.4011 542.5,665.6211 C557.3,698.5911 582.717,722.1727 609.427,741.0127 " fill="none" id="SystemUserBuilder-to-PasswordPolicy" style="stroke:#181818;stroke-width:1.0;stroke-dasharray:7.0,7.0;"/><polygon fill="#181818" points="614.33,744.4711,609.281,736.0149,610.2441,741.5891,604.6699,742.5522,614.33,744.4711" style="stroke:#181818;stroke-width:1.0;"/><polygon fill="#000000" points="547.6415,632.2646,550.3233,623.14,544.4478,623.3063,547.6415,632.2646" style="stroke:#000000;stroke-width:1.0;"/><text fill="#000000" font-family="sans-serif" font-size="13" lengthAdjust="spacing" textLength="39" x="556.5" y="632.6494">follows</text></g><!--link SystemUserBuilder to PasswordEncoder--><g id="link_SystemUserBuilder_PasswordEncoder"><path codeLine="55" d="M717.05,493.2111 C808.53,510.7811 954.42,544.9011 986.5,588.6211 C1020.31,634.7011 998.8145,699.658 980.4945,739.158 " fill="none" id="SystemUserBuilder-to-PasswordEncoder" style="stroke:#181818;stroke-width:1.0;stroke-dasharray:7.0,7.0;"/><polygon fill="#181818" points="977.97,744.6011,985.3854,738.1195,980.0737,740.0652,978.128,734.7535,977.97,744.6011" style="stroke:#181818;stroke-width:1.0;"/><polygon fill="#000000" points="1011.1548,630.6787,1006.5488,622.3579,1002.5376,626.6544,1011.1548,630.6787" style="stroke:#000000;stroke-width:1.0;"/><text fill="#000000" font-family="sans-serif" font-size="13" lengthAdjust="spacing" textLength="28" x="1016.5" y="632.6494">uses</text></g><!--link SystemUser to Name--><g id="link_SystemUser_Name"><path codeLine="57" d="M429.3,596.6111 C447.47,579.0311 472.81,558.5811 500,549.1211 C575.77,522.7511 787.57,516.8211 861,549.1211 C883.03,558.8111 897.7251,574.1412 910.2551,591.5512 " fill="none" id="SystemUser-to-Name" style="stroke:#181818;stroke-width:1.0;"/><polygon fill="#181818" points="913.76,596.4211,911.7493,586.7797,910.8393,592.3628,905.2561,591.4528,913.76,596.4211" style="stroke:#181818;stroke-width:1.0;"/></g><!--link SystemUser to Password--><g id="link_SystemUser_Password"><path codeLine="58" d="M429.3,596.6111 C447.47,579.0311 472.81,558.5811 500,549.1211 C597.8,515.0911 636.9,510.5411 733,549.1211 C756.81,558.6811 773.7367,574.2819 788.3567,591.7319 " fill="none" id="SystemUser-to-Password" style="stroke:#181818;stroke-width:1.0;"/><polygon fill="#181818" points="792.21,596.3311,789.4962,586.8635,788.9989,592.4985,783.364,592.0012,792.21,596.3311" style="stroke:#181818;stroke-width:1.0;"/></g><!--link SystemUser to EmailAddress--><g id="link_SystemUser_EmailAddress"><path codeLine="59" d="M429.3,596.6111 C447.47,579.0311 472.81,558.5811 500,549.1211 C529.38,538.9011 540.5,539.2511 570,549.1211 C593.9,557.1211 612.1311,569.162 630.2111,584.552 " fill="none" id="SystemUser-to-EmailAddress" style="stroke:#181818;stroke-width:1.0;"/><polygon fill="#181818" points="634.78,588.4411,630.5194,579.5615,630.9726,585.2002,625.3339,585.6533,634.78,588.4411" style="stroke:#181818;stroke-width:1.0;"/></g><!--reverse link RoleSet to SystemUser--><g id="link_RoleSet_SystemUser"><path codeLine="60" d="M188.3118,591.6204 C201.6818,574.1904 217.27,558.7511 240,549.1211 C269.46,536.6311 282.03,537.8911 312,549.1211 C337.28,558.5911 360.13,578.7911 376.41,596.2711 " fill="none" id="RoleSet-backto-SystemUser" style="stroke:#181818;stroke-width:1.0;"/><polygon fill="#181818" points="184.66,596.3811,193.3115,591.6746,187.7032,592.4138,186.9639,586.8055,184.66,596.3811" style="stroke:#181818;stroke-width:1.0;"/></g><!--link RoleSet to Set--><g id="link_RoleSet_Set"><path codeLine="61" d="M149.52,657.6711 C136.69,683.0011 126.416,703.2448 113.586,728.5648 " fill="none" id="RoleSet-to-Set" style="stroke:#181818;stroke-width:1.0;stroke-dasharray:7.0,7.0;"/><polygon fill="none" points="105.45,744.6211,118.9381,731.2767,108.2339,725.8528,105.45,744.6211" style="stroke:#181818;stroke-width:1.0;"/></g><!--link RoleSet to RoleAssignment--><g id="link_RoleSet_RoleAssignment"><path codeLine="62" d="M187.16,657.6711 C206.6,683.0011 230.7985,714.5402 250.2185,739.8602 " fill="none" id="RoleSet-to-RoleAssignment" style="stroke:#181818;stroke-width:1.0;stroke-dasharray:7.0,7.0;"/><polygon fill="#181818" points="253.87,744.6211,251.5666,735.0454,250.8271,740.6537,245.2188,739.9141,253.87,744.6211" style="stroke:#181818;stroke-width:1.0;"/></g><!--reverse link Role to RoleAssignment--><g id="link_Role_RoleAssignment"><path codeLine="63" d="M276.5,663.6711 C276.5,689.0011 276.5,719.3011 276.5,744.6211 " fill="none" id="Role-backto-RoleAssignment" style="stroke:#181818;stroke-width:1.0;"/><polygon fill="#181818" points="276.5,657.6711,272.5,666.6711,276.5,662.6711,280.5,666.6711,276.5,657.6711" style="stroke:#181818;stroke-width:1.0;"/></g><!--link Password to PasswordPolicy--><g id="link_Password_PasswordPolicy"><path codeLine="64" d="M784.15,657.6711 C758.12,683.0011 725.1193,715.1159 699.1093,740.4359 " fill="none" id="Password-to-PasswordPolicy" style="stroke:#181818;stroke-width:1.0;stroke-dasharray:7.0,7.0;"/><polygon fill="#181818" points="694.81,744.6211,704.0491,741.2094,698.3927,741.1334,698.4688,735.4771,694.81,744.6211" style="stroke:#181818;stroke-width:1.0;"/></g><!--link Password to PasswordEncoder--><g id="link_Password_PasswordEncoder"><path codeLine="65" d="M844.45,657.6711 C870.13,683.0011 902.6592,715.0868 928.3192,740.4068 " fill="none" id="Password-to-PasswordEncoder" style="stroke:#181818;stroke-width:1.0;stroke-dasharray:7.0,7.0;"/><polygon fill="#181818" points="932.59,744.6211,928.9932,735.4525,929.031,741.1092,923.3742,741.1469,932.59,744.6211" style="stroke:#181818;stroke-width:1.0;"/><polygon fill="#000000" points="902.9405,701.7552,907.3157,710.1996,911.4436,706.0152,902.9405,701.7552" style="stroke:#000000;stroke-width:1.0;"/><text fill="#000000" font-family="sans-serif" font-size="13" lengthAdjust="spacing" textLength="43" x="915.5" y="710.6494">creates</text></g><!--SRC=[bPJFRjim3CRlVWeTjqECN7O930DPsW4zR2Xgv05OcVQ4ob8WqGaoxE57sRNbVolGYo7f-r4KgK_sRyfSm44ZBY3VeCQ2xXg5GqbWQes97m7_6qfxKwOM5MYFoKII6hm_4ZdrsX8-IMiAzGV5Fab84Mzt2hfuK507-ilfuQlOYVDfl_-M95siE9RbsQCxFuaiKuRGLI0npnVooHfoLcjqZCbn4ha0_GJ3TJHeg41tLHAPzVre3hxWnNf5rjsPSECaGX7u0VATg_fHX1uRK9hFvv0dMNO5tNAUK4OPeUBk2PkGDAIobgBqp9-RTMMC7PHVqE1wzSLgB92sXQFtgZQXTjRvgwWxAPgswVHFRCUBsNpBV0qDXt-sMidxLgC7uj58MtRbhv3OdE-jqZqqQNEqHfhcQoUCmCGS0Tosma6q7ht8FmYQsE8WG4g-rouYsTunXAqhwFFqCLEVfUc6gmv2EWJYBDaoOBuxanwkp2aZIY1u1O_XPElygxWXmt_fnLKUHCLjiRSGyN70SBDZQoUysEMTZHTBG-XYUVgKPfB6YbX_zseoU3PD_-PYji0_A9FcYwUGzCxV1N6trCRdj-x1jXRBZPVs3m00]--></g></svg>