<?xml version="1.0" encoding="us-ascii" standalone="no"?><svg xmlns="http://www.w3.org/2000/svg" xmlns:xlink="http://www.w3.org/1999/xlink" contentStyleType="text/css" height="1700px" preserveAspectRatio="none" style="width:3028px;height:1700px;background:#FFFFFF;" version="1.1" viewBox="0 0 3028 1700" width="3028px" zoomAndPan="magnify"><defs/><g><text fill="#000000" font-family="sans-serif" font-size="14" font-weight="bold" lengthAdjust="spacing" textLength="222" x="1402.25" y="30.1074">Sequence Diagram (SD) - UC038</text><rect fill="#FFFFFF" height="1422.5137" style="stroke:#181818;stroke-width:1.0;" width="10" x="213.5" y="161.1543"/><rect fill="#FFFFFF" height="481.3652" style="stroke:#181818;stroke-width:1.0;" width="10" x="542.5" y="192.4453"/><rect fill="#FFFFFF" height="250.3281" style="stroke:#181818;stroke-width:1.0;" width="10" x="542.5" y="705.1016"/><rect fill="#FFFFFF" height="565.6563" style="stroke:#181818;stroke-width:1.0;" width="10" x="542.5" y="986.7207"/><rect fill="#FFFFFF" height="93.873" style="stroke:#181818;stroke-width:1.0;" width="10" x="786" y="736.3926"/><rect fill="#FFFFFF" height="31.291" style="stroke:#181818;stroke-width:1.0;" width="10" x="956.5" y="767.6836"/><rect fill="#FFFFFF" height="62.582" style="stroke:#181818;stroke-width:1.0;" width="10" x="1074.5" y="861.5566"/><rect fill="#FFFFFF" height="471.7832" style="stroke:#181818;stroke-width:1.0;" width="10" x="1343.5" y="1018.0117"/><rect fill="#FFFFFF" height="125.873" style="stroke:#181818;stroke-width:1.0;" width="10" x="1753.5" y="1124.8848"/><rect fill="#FFFFFF" height="37.291" style="stroke:#181818;stroke-width:1.0;" width="10" x="2063.5" y="1049.3027"/><rect fill="#FFFFFF" height="99.873" style="stroke:#181818;stroke-width:1.0;" width="10" x="2227.5" y="223.7363"/><rect fill="#FFFFFF" height="99.873" style="stroke:#181818;stroke-width:1.0;" width="10" x="2227.5" y="448.7734"/><rect fill="#FFFFFF" height="62.582" style="stroke:#181818;stroke-width:1.0;" width="10" x="2370.5" y="354.9004"/><rect fill="#FFFFFF" height="62.582" style="stroke:#181818;stroke-width:1.0;" width="10" x="2370.5" y="579.9375"/><line style="stroke:#181818;stroke-width:0.5;stroke-dasharray:5.0,5.0;" x1="40" x2="40" y1="127.8633" y2="1601.668"/><line style="stroke:#181818;stroke-width:0.5;stroke-dasharray:5.0,5.0;" x1="218" x2="218" y1="127.8633" y2="1601.668"/><line style="stroke:#181818;stroke-width:0.5;stroke-dasharray:5.0,5.0;" x1="547" x2="547" y1="127.8633" y2="1601.668"/><line style="stroke:#181818;stroke-width:0.5;stroke-dasharray:5.0,5.0;" x1="791" x2="791" y1="127.8633" y2="1601.668"/><line style="stroke:#181818;stroke-width:0.5;stroke-dasharray:5.0,5.0;" x1="961" x2="961" y1="127.8633" y2="1601.668"/><line style="stroke:#181818;stroke-width:0.5;stroke-dasharray:5.0,5.0;" x1="1079" x2="1079" y1="127.8633" y2="1601.668"/><line style="stroke:#181818;stroke-width:0.5;stroke-dasharray:5.0,5.0;" x1="1223" x2="1223" y1="127.8633" y2="1601.668"/><line style="stroke:#181818;stroke-width:0.5;stroke-dasharray:5.0,5.0;" x1="1348" x2="1348" y1="127.8633" y2="1601.668"/><line style="stroke:#181818;stroke-width:0.5;stroke-dasharray:5.0,5.0;" x1="1758.5" x2="1758.5" y1="127.8633" y2="1601.668"/><line style="stroke:#181818;stroke-width:0.5;stroke-dasharray:5.0,5.0;" x1="2068" x2="2068" y1="127.8633" y2="1601.668"/><line style="stroke:#181818;stroke-width:0.5;stroke-dasharray:5.0,5.0;" x1="2232.5" x2="2232.5" y1="127.8633" y2="1601.668"/><line style="stroke:#181818;stroke-width:0.5;stroke-dasharray:5.0,5.0;" x1="2375.5" x2="2375.5" y1="127.8633" y2="1601.668"/><line style="stroke:#181818;stroke-width:0.5;stroke-dasharray:5.0,5.0;" x1="2532.5" x2="2532.5" y1="127.8633" y2="1601.668"/><line style="stroke:#181818;stroke-width:0.5;stroke-dasharray:5.0,5.0;" x1="2713.5" x2="2713.5" y1="127.8633" y2="1601.668"/><line style="stroke:#181818;stroke-width:0.5;stroke-dasharray:5.0,5.0;" x1="2881.5" x2="2881.5" y1="127.8633" y2="1601.668"/><line style="stroke:#181818;stroke-width:0.5;stroke-dasharray:5.0,5.0;" x1="2991.5" x2="2991.5" y1="127.8633" y2="1601.668"/><text fill="#000000" font-family="sans-serif" font-size="14" lengthAdjust="spacing" textLength="65" x="5" y="124.3496">Candidate</text><ellipse cx="40.5" cy="57.7422" fill="#E2E2F0" rx="8" ry="8" style="stroke:#181818;stroke-width:0.5;"/><path d="M40.5,65.7422 L40.5,92.7422 M27.5,73.7422 L53.5,73.7422 M40.5,92.7422 L27.5,107.7422 M40.5,92.7422 L53.5,107.7422 " fill="none" style="stroke:#181818;stroke-width:0.5;"/><text fill="#000000" font-family="sans-serif" font-size="14" lengthAdjust="spacing" textLength="65" x="5" y="1615.7754">Candidate</text><ellipse cx="40.5" cy="1627.7891" fill="#E2E2F0" rx="8" ry="8" style="stroke:#181818;stroke-width:0.5;"/><path d="M40.5,1635.7891 L40.5,1662.7891 M27.5,1643.7891 L53.5,1643.7891 M40.5,1662.7891 L27.5,1677.7891 M40.5,1662.7891 L53.5,1677.7891 " fill="none" style="stroke:#181818;stroke-width:0.5;"/><rect fill="#E2E2F0" height="51.2422" rx="2.5" ry="2.5" style="stroke:#181818;stroke-width:0.5;" width="189" x="124" y="75.6211"/><text fill="#000000" font-family="sans-serif" font-size="14" font-style="italic" lengthAdjust="spacing" textLength="95" x="171" y="97.7285">&#171;presentation&#187;</text><text fill="#000000" font-family="sans-serif" font-size="14" lengthAdjust="spacing" textLength="175" x="131" y="116.3496">ListCandidateApplicationsUI</text><rect fill="#E2E2F0" height="51.2422" rx="2.5" ry="2.5" style="stroke:#181818;stroke-width:0.5;" width="189" x="124" y="1600.668"/><text fill="#000000" font-family="sans-serif" font-size="14" font-style="italic" lengthAdjust="spacing" textLength="95" x="171" y="1622.7754">&#171;presentation&#187;</text><text fill="#000000" font-family="sans-serif" font-size="14" lengthAdjust="spacing" textLength="175" x="131" y="1641.3965">ListCandidateApplicationsUI</text><rect fill="#E2E2F0" height="51.2422" rx="2.5" ry="2.5" style="stroke:#181818;stroke-width:0.5;" width="239" x="428" y="75.6211"/><text fill="#000000" font-family="sans-serif" font-size="14" font-style="italic" lengthAdjust="spacing" textLength="84" x="505.5" y="97.7285">&#171;application&#187;</text><text fill="#000000" font-family="sans-serif" font-size="14" lengthAdjust="spacing" textLength="225" x="435" y="116.3496">ListCandidateApplicationsController</text><rect fill="#E2E2F0" height="51.2422" rx="2.5" ry="2.5" style="stroke:#181818;stroke-width:0.5;" width="239" x="428" y="1600.668"/><text fill="#000000" font-family="sans-serif" font-size="14" font-style="italic" lengthAdjust="spacing" textLength="84" x="505.5" y="1622.7754">&#171;application&#187;</text><text fill="#000000" font-family="sans-serif" font-size="14" lengthAdjust="spacing" textLength="225" x="435" y="1641.3965">ListCandidateApplicationsController</text><rect fill="#E2E2F0" height="51.2422" rx="2.5" ry="2.5" style="stroke:#181818;stroke-width:0.5;" width="228" x="677" y="75.6211"/><text fill="#000000" font-family="sans-serif" font-size="14" font-style="italic" lengthAdjust="spacing" textLength="60" x="761" y="97.7285">&#171;service&#187;</text><text fill="#000000" font-family="sans-serif" font-size="14" lengthAdjust="spacing" textLength="214" x="684" y="116.3496">authzService:AuthorizationService</text><rect fill="#E2E2F0" height="51.2422" rx="2.5" ry="2.5" style="stroke:#181818;stroke-width:0.5;" width="228" x="677" y="1600.668"/><text fill="#000000" font-family="sans-serif" font-size="14" font-style="italic" lengthAdjust="spacing" textLength="60" x="761" y="1622.7754">&#171;service&#187;</text><text fill="#000000" font-family="sans-serif" font-size="14" lengthAdjust="spacing" textLength="214" x="684" y="1641.3965">authzService:AuthorizationService</text><rect fill="#E2E2F0" height="51.2422" rx="2.5" ry="2.5" style="stroke:#181818;stroke-width:0.5;" width="93" x="915" y="75.6211"/><text fill="#000000" font-family="sans-serif" font-size="14" font-style="italic" lengthAdjust="spacing" textLength="60" x="931.5" y="97.7285">&#171;service&#187;</text><text fill="#000000" font-family="sans-serif" font-size="14" lengthAdjust="spacing" textLength="79" x="922" y="116.3496">UserSession</text><rect fill="#E2E2F0" height="51.2422" rx="2.5" ry="2.5" style="stroke:#181818;stroke-width:0.5;" width="93" x="915" y="1600.668"/><text fill="#000000" font-family="sans-serif" font-size="14" font-style="italic" lengthAdjust="spacing" textLength="60" x="931.5" y="1622.7754">&#171;service&#187;</text><text fill="#000000" font-family="sans-serif" font-size="14" lengthAdjust="spacing" textLength="79" x="922" y="1641.3965">UserSession</text><rect fill="#E2E2F0" height="51.2422" rx="2.5" ry="2.5" style="stroke:#181818;stroke-width:0.5;" width="123" x="1018" y="75.6211"/><text fill="#000000" font-family="sans-serif" font-size="14" font-style="italic" lengthAdjust="spacing" textLength="60" x="1049.5" y="97.7285">&#171;service&#187;</text><text fill="#000000" font-family="sans-serif" font-size="14" lengthAdjust="spacing" textLength="109" x="1025" y="116.3496">CandidateBuilder</text><rect fill="#E2E2F0" height="51.2422" rx="2.5" ry="2.5" style="stroke:#181818;stroke-width:0.5;" width="123" x="1018" y="1600.668"/><text fill="#000000" font-family="sans-serif" font-size="14" font-style="italic" lengthAdjust="spacing" textLength="60" x="1049.5" y="1622.7754">&#171;service&#187;</text><text fill="#000000" font-family="sans-serif" font-size="14" lengthAdjust="spacing" textLength="109" x="1025" y="1641.3965">CandidateBuilder</text><rect fill="#E2E2F0" height="51.2422" rx="2.5" ry="2.5" style="stroke:#181818;stroke-width:0.5;" width="145" x="1151" y="75.6211"/><text fill="#000000" font-family="sans-serif" font-size="14" font-style="italic" lengthAdjust="spacing" textLength="62" x="1192.5" y="97.7285">&#171;domain&#187;</text><text fill="#000000" font-family="sans-serif" font-size="14" lengthAdjust="spacing" textLength="131" x="1158" y="116.3496">candidate:Candidate</text><rect fill="#E2E2F0" height="51.2422" rx="2.5" ry="2.5" style="stroke:#181818;stroke-width:0.5;" width="145" x="1151" y="1600.668"/><text fill="#000000" font-family="sans-serif" font-size="14" font-style="italic" lengthAdjust="spacing" textLength="62" x="1192.5" y="1622.7754">&#171;domain&#187;</text><text fill="#000000" font-family="sans-serif" font-size="14" lengthAdjust="spacing" textLength="131" x="1158" y="1641.3965">candidate:Candidate</text><rect fill="#E2E2F0" height="51.2422" rx="2.5" ry="2.5" style="stroke:#181818;stroke-width:0.5;" width="85" x="1306" y="75.6211"/><text fill="#000000" font-family="sans-serif" font-size="14" font-style="italic" lengthAdjust="spacing" textLength="60" x="1318.5" y="97.7285">&#171;service&#187;</text><text fill="#000000" font-family="sans-serif" font-size="14" lengthAdjust="spacing" textLength="71" x="1313" y="116.3496">TcpService</text><rect fill="#E2E2F0" height="51.2422" rx="2.5" ry="2.5" style="stroke:#181818;stroke-width:0.5;" width="85" x="1306" y="1600.668"/><text fill="#000000" font-family="sans-serif" font-size="14" font-style="italic" lengthAdjust="spacing" textLength="60" x="1318.5" y="1622.7754">&#171;service&#187;</text><text fill="#000000" font-family="sans-serif" font-size="14" lengthAdjust="spacing" textLength="71" x="1313" y="1641.3965">TcpService</text><rect fill="#E2E2F0" height="51.2422" rx="2.5" ry="2.5" style="stroke:#181818;stroke-width:0.5;" width="84" x="1716.5" y="75.6211"/><text fill="#000000" font-family="sans-serif" font-size="14" font-style="italic" lengthAdjust="spacing" textLength="60" x="1728.5" y="97.7285">&#171;service&#187;</text><text fill="#000000" font-family="sans-serif" font-size="14" lengthAdjust="spacing" textLength="70" x="1723.5" y="116.3496">TcpChatCli</text><rect fill="#E2E2F0" height="51.2422" rx="2.5" ry="2.5" style="stroke:#181818;stroke-width:0.5;" width="84" x="1716.5" y="1600.668"/><text fill="#000000" font-family="sans-serif" font-size="14" font-style="italic" lengthAdjust="spacing" textLength="60" x="1728.5" y="1622.7754">&#171;service&#187;</text><text fill="#000000" font-family="sans-serif" font-size="14" lengthAdjust="spacing" textLength="70" x="1723.5" y="1641.3965">TcpChatCli</text><rect fill="#E2E2F0" height="51.2422" rx="2.5" ry="2.5" style="stroke:#181818;stroke-width:0.5;" width="89" x="2024" y="75.6211"/><text fill="#000000" font-family="sans-serif" font-size="14" font-style="italic" lengthAdjust="spacing" textLength="60" x="2038.5" y="97.7285">&#171;service&#187;</text><text fill="#000000" font-family="sans-serif" font-size="14" lengthAdjust="spacing" textLength="75" x="2031" y="116.3496">TcpChatSrv</text><rect fill="#E2E2F0" height="51.2422" rx="2.5" ry="2.5" style="stroke:#181818;stroke-width:0.5;" width="89" x="2024" y="1600.668"/><text fill="#000000" font-family="sans-serif" font-size="14" font-style="italic" lengthAdjust="spacing" textLength="60" x="2038.5" y="1622.7754">&#171;service&#187;</text><text fill="#000000" font-family="sans-serif" font-size="14" lengthAdjust="spacing" textLength="75" x="2031" y="1641.3965">TcpChatSrv</text><rect fill="#E2E2F0" height="51.2422" rx="2.5" ry="2.5" style="stroke:#181818;stroke-width:0.5;" width="136" x="2164.5" y="75.6211"/><text fill="#000000" font-family="sans-serif" font-size="14" font-style="italic" lengthAdjust="spacing" textLength="89" x="2188" y="97.7285">&#171;persistence&#187;</text><text fill="#000000" font-family="sans-serif" font-size="14" lengthAdjust="spacing" textLength="122" x="2171.5" y="116.3496">PersistenceContext</text><rect fill="#E2E2F0" height="51.2422" rx="2.5" ry="2.5" style="stroke:#181818;stroke-width:0.5;" width="136" x="2164.5" y="1600.668"/><text fill="#000000" font-family="sans-serif" font-size="14" font-style="italic" lengthAdjust="spacing" textLength="89" x="2188" y="1622.7754">&#171;persistence&#187;</text><text fill="#000000" font-family="sans-serif" font-size="14" lengthAdjust="spacing" textLength="122" x="2171.5" y="1641.3965">PersistenceContext</text><rect fill="#E2E2F0" height="51.2422" rx="2.5" ry="2.5" style="stroke:#181818;stroke-width:0.5;" width="130" x="2310.5" y="75.6211"/><text fill="#000000" font-family="sans-serif" font-size="14" font-style="italic" lengthAdjust="spacing" textLength="59" x="2346" y="97.7285">&#171;factory&#187;</text><text fill="#000000" font-family="sans-serif" font-size="14" lengthAdjust="spacing" textLength="116" x="2317.5" y="116.3496">RepositoryFactory</text><rect fill="#E2E2F0" height="51.2422" rx="2.5" ry="2.5" style="stroke:#181818;stroke-width:0.5;" width="130" x="2310.5" y="1600.668"/><text fill="#000000" font-family="sans-serif" font-size="14" font-style="italic" lengthAdjust="spacing" textLength="59" x="2346" y="1622.7754">&#171;factory&#187;</text><text fill="#000000" font-family="sans-serif" font-size="14" lengthAdjust="spacing" textLength="116" x="2317.5" y="1641.3965">RepositoryFactory</text><text fill="#000000" font-family="sans-serif" font-size="14" font-style="italic" lengthAdjust="spacing" textLength="79" x="2490.5" y="105.7285">&#171;repository&#187;</text><text fill="#000000" font-family="sans-serif" font-size="14" lengthAdjust="spacing" textLength="159" x="2450.5" y="124.3496">JobApplicationRepository</text><path d="M2515,54.6211 C2515,44.6211 2533,44.6211 2533,44.6211 C2533,44.6211 2551,44.6211 2551,54.6211 L2551,80.6211 C2551,90.6211 2533,90.6211 2533,90.6211 C2533,90.6211 2515,90.6211 2515,80.6211 L2515,54.6211 " fill="#E2E2F0" style="stroke:#181818;stroke-width:1.5;"/><path d="M2515,54.6211 C2515,64.6211 2533,64.6211 2533,64.6211 C2533,64.6211 2551,64.6211 2551,54.6211 " fill="none" style="stroke:#181818;stroke-width:1.5;"/><text fill="#000000" font-family="sans-serif" font-size="14" font-style="italic" lengthAdjust="spacing" textLength="79" x="2490.5" y="1615.7754">&#171;repository&#187;</text><text fill="#000000" font-family="sans-serif" font-size="14" lengthAdjust="spacing" textLength="159" x="2450.5" y="1634.3965">JobApplicationRepository</text><path d="M2515,1647.9102 C2515,1637.9102 2533,1637.9102 2533,1637.9102 C2533,1637.9102 2551,1637.9102 2551,1647.9102 L2551,1673.9102 C2551,1683.9102 2533,1683.9102 2533,1683.9102 C2533,1683.9102 2515,1683.9102 2515,1673.9102 L2515,1647.9102 " fill="#E2E2F0" style="stroke:#181818;stroke-width:1.5;"/><path d="M2515,1647.9102 C2515,1657.9102 2533,1657.9102 2533,1657.9102 C2533,1657.9102 2551,1657.9102 2551,1647.9102 " fill="none" style="stroke:#181818;stroke-width:1.5;"/><rect fill="#E2E2F0" height="51.2422" rx="2.5" ry="2.5" style="stroke:#181818;stroke-width:0.5;" width="177" x="2625.5" y="75.6211"/><text fill="#000000" font-family="sans-serif" font-size="14" font-style="italic" lengthAdjust="spacing" textLength="62" x="2683" y="97.7285">&#171;domain&#187;</text><text fill="#000000" font-family="sans-serif" font-size="14" lengthAdjust="spacing" textLength="163" x="2632.5" y="116.3496">application:JobApplication</text><rect fill="#E2E2F0" height="51.2422" rx="2.5" ry="2.5" style="stroke:#181818;stroke-width:0.5;" width="177" x="2625.5" y="1600.668"/><text fill="#000000" font-family="sans-serif" font-size="14" font-style="italic" lengthAdjust="spacing" textLength="62" x="2683" y="1622.7754">&#171;domain&#187;</text><text fill="#000000" font-family="sans-serif" font-size="14" lengthAdjust="spacing" textLength="163" x="2632.5" y="1641.3965">application:JobApplication</text><text fill="#000000" font-family="sans-serif" font-size="14" font-style="italic" lengthAdjust="spacing" textLength="79" x="2839.5" y="105.7285">&#171;repository&#187;</text><text fill="#000000" font-family="sans-serif" font-size="14" lengthAdjust="spacing" textLength="133" x="2812.5" y="124.3496">CandidateRepository</text><path d="M2864,54.6211 C2864,44.6211 2882,44.6211 2882,44.6211 C2882,44.6211 2900,44.6211 2900,54.6211 L2900,80.6211 C2900,90.6211 2882,90.6211 2882,90.6211 C2882,90.6211 2864,90.6211 2864,80.6211 L2864,54.6211 " fill="#E2E2F0" style="stroke:#181818;stroke-width:1.5;"/><path d="M2864,54.6211 C2864,64.6211 2882,64.6211 2882,64.6211 C2882,64.6211 2900,64.6211 2900,54.6211 " fill="none" style="stroke:#181818;stroke-width:1.5;"/><text fill="#000000" font-family="sans-serif" font-size="14" font-style="italic" lengthAdjust="spacing" textLength="79" x="2839.5" y="1615.7754">&#171;repository&#187;</text><text fill="#000000" font-family="sans-serif" font-size="14" lengthAdjust="spacing" textLength="133" x="2812.5" y="1634.3965">CandidateRepository</text><path d="M2864,1647.9102 C2864,1637.9102 2882,1637.9102 2882,1637.9102 C2882,1637.9102 2900,1637.9102 2900,1647.9102 L2900,1673.9102 C2900,1683.9102 2882,1683.9102 2882,1683.9102 C2882,1683.9102 2864,1683.9102 2864,1673.9102 L2864,1647.9102 " fill="#E2E2F0" style="stroke:#181818;stroke-width:1.5;"/><path d="M2864,1647.9102 C2864,1657.9102 2882,1657.9102 2882,1657.9102 C2882,1657.9102 2900,1657.9102 2900,1647.9102 " fill="none" style="stroke:#181818;stroke-width:1.5;"/><rect fill="#E2E2F0" height="32.6211" rx="2.5" ry="2.5" style="stroke:#181818;stroke-width:0.5;" width="61" x="2961.5" y="94.2422"/><text fill="#000000" font-family="sans-serif" font-size="14" lengthAdjust="spacing" textLength="47" x="2968.5" y="116.3496">Service</text><rect fill="#E2E2F0" height="32.6211" rx="2.5" ry="2.5" style="stroke:#181818;stroke-width:0.5;" width="61" x="2961.5" y="1600.668"/><text fill="#000000" font-family="sans-serif" font-size="14" lengthAdjust="spacing" textLength="47" x="2968.5" y="1622.7754">Service</text><rect fill="#FFFFFF" height="1422.5137" style="stroke:#181818;stroke-width:1.0;" width="10" x="213.5" y="161.1543"/><rect fill="#FFFFFF" height="481.3652" style="stroke:#181818;stroke-width:1.0;" width="10" x="542.5" y="192.4453"/><rect fill="#FFFFFF" height="250.3281" style="stroke:#181818;stroke-width:1.0;" width="10" x="542.5" y="705.1016"/><rect fill="#FFFFFF" height="565.6563" style="stroke:#181818;stroke-width:1.0;" width="10" x="542.5" y="986.7207"/><rect fill="#FFFFFF" height="93.873" style="stroke:#181818;stroke-width:1.0;" width="10" x="786" y="736.3926"/><rect fill="#FFFFFF" height="31.291" style="stroke:#181818;stroke-width:1.0;" width="10" x="956.5" y="767.6836"/><rect fill="#FFFFFF" height="62.582" style="stroke:#181818;stroke-width:1.0;" width="10" x="1074.5" y="861.5566"/><rect fill="#FFFFFF" height="471.7832" style="stroke:#181818;stroke-width:1.0;" width="10" x="1343.5" y="1018.0117"/><rect fill="#FFFFFF" height="125.873" style="stroke:#181818;stroke-width:1.0;" width="10" x="1753.5" y="1124.8848"/><rect fill="#FFFFFF" height="37.291" style="stroke:#181818;stroke-width:1.0;" width="10" x="2063.5" y="1049.3027"/><rect fill="#FFFFFF" height="99.873" style="stroke:#181818;stroke-width:1.0;" width="10" x="2227.5" y="223.7363"/><rect fill="#FFFFFF" height="99.873" style="stroke:#181818;stroke-width:1.0;" width="10" x="2227.5" y="448.7734"/><rect fill="#FFFFFF" height="62.582" style="stroke:#181818;stroke-width:1.0;" width="10" x="2370.5" y="354.9004"/><rect fill="#FFFFFF" height="62.582" style="stroke:#181818;stroke-width:1.0;" width="10" x="2370.5" y="579.9375"/><polygon fill="#181818" points="201.5,157.1543,211.5,161.1543,201.5,165.1543,205.5,161.1543" style="stroke:#181818;stroke-width:1.0;"/><line style="stroke:#181818;stroke-width:1.0;stroke-dasharray:2.0,2.0;" x1="40.5" x2="207.5" y1="161.1543" y2="161.1543"/><text fill="#000000" font-family="sans-serif" font-size="13" lengthAdjust="spacing" textLength="154" x="47.5" y="155.8916">List candidate applications</text><polygon fill="#181818" points="530.5,188.4453,540.5,192.4453,530.5,196.4453,534.5,192.4453" style="stroke:#181818;stroke-width:1.0;"/><line style="stroke:#181818;stroke-width:1.0;" x1="223.5" x2="536.5" y1="192.4453" y2="192.4453"/><text fill="#000000" font-family="sans-serif" font-size="13" lengthAdjust="spacing" textLength="240" x="230.5" y="187.1826">new ListCandidateApplicationsController()</text><polygon fill="#181818" points="2215.5,219.7363,2225.5,223.7363,2215.5,227.7363,2219.5,223.7363" style="stroke:#181818;stroke-width:1.0;"/><line style="stroke:#181818;stroke-width:1.0;" x1="552.5" x2="2221.5" y1="223.7363" y2="223.7363"/><text fill="#000000" font-family="sans-serif" font-size="13" lengthAdjust="spacing" textLength="75" x="559.5" y="218.4736">repositories()</text><path d="M2242,236.7363 L2242,263.7363 L2348,263.7363 L2348,246.7363 L2338,236.7363 L2242,236.7363 " fill="#FEFFDD" style="stroke:#181818;stroke-width:0.5;"/><path d="M2338,236.7363 L2338,246.7363 L2348,246.7363 L2338,236.7363 " fill="#FEFFDD" style="stroke:#181818;stroke-width:0.5;"/><text fill="#000000" font-family="sans-serif" font-size="13" lengthAdjust="spacing" textLength="85" x="2248" y="255.7646">creates in JPA</text><polygon fill="#181818" points="2363.5,288.3184,2373.5,292.3184,2363.5,296.3184,2367.5,292.3184" style="stroke:#181818;stroke-width:1.0;"/><line style="stroke:#181818;stroke-width:1.0;" x1="2237.5" x2="2369.5" y1="292.3184" y2="292.3184"/><text fill="#000000" font-family="sans-serif" font-size="13" lengthAdjust="spacing" textLength="36" x="2244.5" y="287.0557">create</text><polygon fill="#181818" points="563.5,319.6094,553.5,323.6094,563.5,327.6094,559.5,323.6094" style="stroke:#181818;stroke-width:1.0;"/><line style="stroke:#181818;stroke-width:1.0;stroke-dasharray:2.0,2.0;" x1="557.5" x2="2231.5" y1="323.6094" y2="323.6094"/><text fill="#000000" font-family="sans-serif" font-size="13" lengthAdjust="spacing" textLength="39" x="569.5" y="318.3467">factory</text><polygon fill="#181818" points="2358.5,350.9004,2368.5,354.9004,2358.5,358.9004,2362.5,354.9004" style="stroke:#181818;stroke-width:1.0;"/><line style="stroke:#181818;stroke-width:1.0;" x1="552.5" x2="2364.5" y1="354.9004" y2="354.9004"/><text fill="#000000" font-family="sans-serif" font-size="13" lengthAdjust="spacing" textLength="96" x="559.5" y="349.6377">jobApplications()</text><polygon fill="#181818" points="2521,382.1914,2531,386.1914,2521,390.1914,2525,386.1914" style="stroke:#181818;stroke-width:1.0;"/><line style="stroke:#181818;stroke-width:1.0;" x1="2380.5" x2="2527" y1="386.1914" y2="386.1914"/><text fill="#000000" font-family="sans-serif" font-size="13" lengthAdjust="spacing" textLength="36" x="2387.5" y="380.9287">create</text><polygon fill="#181818" points="563.5,413.4824,553.5,417.4824,563.5,421.4824,559.5,417.4824" style="stroke:#181818;stroke-width:1.0;"/><line style="stroke:#181818;stroke-width:1.0;stroke-dasharray:2.0,2.0;" x1="557.5" x2="2374.5" y1="417.4824" y2="417.4824"/><text fill="#000000" font-family="sans-serif" font-size="13" lengthAdjust="spacing" textLength="143" x="569.5" y="412.2197">jobApplicationRepository</text><polygon fill="#181818" points="2215.5,444.7734,2225.5,448.7734,2215.5,452.7734,2219.5,448.7734" style="stroke:#181818;stroke-width:1.0;"/><line style="stroke:#181818;stroke-width:1.0;" x1="552.5" x2="2221.5" y1="448.7734" y2="448.7734"/><text fill="#000000" font-family="sans-serif" font-size="13" lengthAdjust="spacing" textLength="75" x="559.5" y="443.5107">repositories()</text><path d="M2242,461.7734 L2242,488.7734 L2348,488.7734 L2348,471.7734 L2338,461.7734 L2242,461.7734 " fill="#FEFFDD" style="stroke:#181818;stroke-width:0.5;"/><path d="M2338,461.7734 L2338,471.7734 L2348,471.7734 L2338,461.7734 " fill="#FEFFDD" style="stroke:#181818;stroke-width:0.5;"/><text fill="#000000" font-family="sans-serif" font-size="13" lengthAdjust="spacing" textLength="85" x="2248" y="480.8018">creates in JPA</text><polygon fill="#181818" points="2363.5,513.3555,2373.5,517.3555,2363.5,521.3555,2367.5,517.3555" style="stroke:#181818;stroke-width:1.0;"/><line style="stroke:#181818;stroke-width:1.0;" x1="2237.5" x2="2369.5" y1="517.3555" y2="517.3555"/><text fill="#000000" font-family="sans-serif" font-size="13" lengthAdjust="spacing" textLength="36" x="2244.5" y="512.0928">create</text><polygon fill="#181818" points="563.5,544.6465,553.5,548.6465,563.5,552.6465,559.5,548.6465" style="stroke:#181818;stroke-width:1.0;"/><line style="stroke:#181818;stroke-width:1.0;stroke-dasharray:2.0,2.0;" x1="557.5" x2="2231.5" y1="548.6465" y2="548.6465"/><text fill="#000000" font-family="sans-serif" font-size="13" lengthAdjust="spacing" textLength="39" x="569.5" y="543.3838">factory</text><polygon fill="#181818" points="2358.5,575.9375,2368.5,579.9375,2358.5,583.9375,2362.5,579.9375" style="stroke:#181818;stroke-width:1.0;"/><line style="stroke:#181818;stroke-width:1.0;" x1="552.5" x2="2364.5" y1="579.9375" y2="579.9375"/><text fill="#000000" font-family="sans-serif" font-size="13" lengthAdjust="spacing" textLength="71" x="559.5" y="574.6748">candidates()</text><polygon fill="#181818" points="2521,607.2285,2531,611.2285,2521,615.2285,2525,611.2285" style="stroke:#181818;stroke-width:1.0;"/><line style="stroke:#181818;stroke-width:1.0;" x1="2380.5" x2="2527" y1="611.2285" y2="611.2285"/><text fill="#000000" font-family="sans-serif" font-size="13" lengthAdjust="spacing" textLength="36" x="2387.5" y="605.9658">create</text><polygon fill="#181818" points="563.5,638.5195,553.5,642.5195,563.5,646.5195,559.5,642.5195" style="stroke:#181818;stroke-width:1.0;"/><line style="stroke:#181818;stroke-width:1.0;stroke-dasharray:2.0,2.0;" x1="557.5" x2="2374.5" y1="642.5195" y2="642.5195"/><text fill="#000000" font-family="sans-serif" font-size="13" lengthAdjust="spacing" textLength="118" x="569.5" y="637.2568">candidateRepository</text><polygon fill="#181818" points="1336.5,669.8105,1346.5,673.8105,1336.5,677.8105,1340.5,673.8105" style="stroke:#181818;stroke-width:1.0;"/><line style="stroke:#181818;stroke-width:1.0;" x1="547.5" x2="1342.5" y1="673.8105" y2="673.8105"/><text fill="#000000" font-family="sans-serif" font-size="13" lengthAdjust="spacing" textLength="367" x="554.5" y="668.5479">new TcpService(candidateRepository, jobApplicationRepository)</text><polygon fill="#181818" points="530.5,701.1016,540.5,705.1016,530.5,709.1016,534.5,705.1016" style="stroke:#181818;stroke-width:1.0;"/><line style="stroke:#181818;stroke-width:1.0;" x1="223.5" x2="536.5" y1="705.1016" y2="705.1016"/><text fill="#000000" font-family="sans-serif" font-size="13" lengthAdjust="spacing" textLength="126" x="230.5" y="699.8389">getLoggedCandidate()</text><polygon fill="#181818" points="774,732.3926,784,736.3926,774,740.3926,778,736.3926" style="stroke:#181818;stroke-width:1.0;"/><line style="stroke:#181818;stroke-width:1.0;" x1="552.5" x2="780" y1="736.3926" y2="736.3926"/><text fill="#000000" font-family="sans-serif" font-size="13" lengthAdjust="spacing" textLength="126" x="559.5" y="731.1299">getLoggedCandidate()</text><polygon fill="#181818" points="944.5,763.6836,954.5,767.6836,944.5,771.6836,948.5,767.6836" style="stroke:#181818;stroke-width:1.0;"/><line style="stroke:#181818;stroke-width:1.0;" x1="796" x2="950.5" y1="767.6836" y2="767.6836"/><text fill="#000000" font-family="sans-serif" font-size="13" lengthAdjust="spacing" textLength="26" x="803" y="762.4209">get()</text><polygon fill="#181818" points="807,794.9746,797,798.9746,807,802.9746,803,798.9746" style="stroke:#181818;stroke-width:1.0;"/><line style="stroke:#181818;stroke-width:1.0;stroke-dasharray:2.0,2.0;" x1="801" x2="960.5" y1="798.9746" y2="798.9746"/><text fill="#000000" font-family="sans-serif" font-size="13" lengthAdjust="spacing" textLength="25" x="813" y="793.7119">user</text><polygon fill="#181818" points="563.5,826.2656,553.5,830.2656,563.5,834.2656,559.5,830.2656" style="stroke:#181818;stroke-width:1.0;"/><line style="stroke:#181818;stroke-width:1.0;stroke-dasharray:2.0,2.0;" x1="557.5" x2="790" y1="830.2656" y2="830.2656"/><text fill="#000000" font-family="sans-serif" font-size="13" lengthAdjust="spacing" textLength="25" x="569.5" y="825.0029">user</text><polygon fill="#181818" points="1062.5,857.5566,1072.5,861.5566,1062.5,865.5566,1066.5,861.5566" style="stroke:#181818;stroke-width:1.0;"/><line style="stroke:#181818;stroke-width:1.0;" x1="552.5" x2="1068.5" y1="861.5566" y2="861.5566"/><text fill="#000000" font-family="sans-serif" font-size="13" lengthAdjust="spacing" textLength="35" x="559.5" y="856.2939">build()</text><polygon fill="#181818" points="1211.5,888.8477,1221.5,892.8477,1211.5,896.8477,1215.5,892.8477" style="stroke:#181818;stroke-width:1.0;"/><line style="stroke:#181818;stroke-width:1.0;" x1="1084.5" x2="1217.5" y1="892.8477" y2="892.8477"/><text fill="#000000" font-family="sans-serif" font-size="13" lengthAdjust="spacing" textLength="36" x="1091.5" y="887.585">create</text><polygon fill="#181818" points="563.5,920.1387,553.5,924.1387,563.5,928.1387,559.5,924.1387" style="stroke:#181818;stroke-width:1.0;"/><line style="stroke:#181818;stroke-width:1.0;stroke-dasharray:2.0,2.0;" x1="557.5" x2="1078.5" y1="924.1387" y2="924.1387"/><text fill="#000000" font-family="sans-serif" font-size="13" lengthAdjust="spacing" textLength="56" x="569.5" y="918.876">candidate</text><polygon fill="#181818" points="234.5,951.4297,224.5,955.4297,234.5,959.4297,230.5,955.4297" style="stroke:#181818;stroke-width:1.0;"/><line style="stroke:#181818;stroke-width:1.0;stroke-dasharray:2.0,2.0;" x1="228.5" x2="546.5" y1="955.4297" y2="955.4297"/><text fill="#000000" font-family="sans-serif" font-size="13" lengthAdjust="spacing" textLength="56" x="240.5" y="950.167">candidate</text><polygon fill="#181818" points="530.5,982.7207,540.5,986.7207,530.5,990.7207,534.5,986.7207" style="stroke:#181818;stroke-width:1.0;"/><line style="stroke:#181818;stroke-width:1.0;" x1="223.5" x2="536.5" y1="986.7207" y2="986.7207"/><text fill="#000000" font-family="sans-serif" font-size="13" lengthAdjust="spacing" textLength="300" x="230.5" y="981.458">retrieveCandidateApplicationsFromServer(candidate)</text><polygon fill="#181818" points="1331.5,1014.0117,1341.5,1018.0117,1331.5,1022.0117,1335.5,1018.0117" style="stroke:#181818;stroke-width:1.0;"/><line style="stroke:#181818;stroke-width:1.0;" x1="552.5" x2="1337.5" y1="1018.0117" y2="1018.0117"/><text fill="#000000" font-family="sans-serif" font-size="13" lengthAdjust="spacing" textLength="494" x="559.5" y="1012.749">communicate(MessageCode.LIST_CANDIDATE_APPLICATIONS, candidateEmail, "")</text><polygon fill="#181818" points="2051.5,1045.3027,2061.5,1049.3027,2051.5,1053.3027,2055.5,1049.3027" style="stroke:#181818;stroke-width:1.0;"/><line style="stroke:#181818;stroke-width:1.0;" x1="1353.5" x2="2057.5" y1="1049.3027" y2="1049.3027"/><text fill="#000000" font-family="sans-serif" font-size="13" lengthAdjust="spacing" textLength="339" x="1360.5" y="1044.04">startServer(jobApplicationRepository, candidateRepository)</text><line style="stroke:#181818;stroke-width:1.0;" x1="2073.5" x2="2115.5" y1="1085.5938" y2="1085.5938"/><line style="stroke:#181818;stroke-width:1.0;" x1="2115.5" x2="2115.5" y1="1085.5938" y2="1098.5938"/><line style="stroke:#181818;stroke-width:1.0;" x1="2068.5" x2="2115.5" y1="1098.5938" y2="1098.5938"/><polygon fill="#181818" points="2078.5,1094.5938,2068.5,1098.5938,2078.5,1102.5938,2074.5,1098.5938" style="stroke:#181818;stroke-width:1.0;"/><text fill="#000000" font-family="sans-serif" font-size="13" lengthAdjust="spacing" textLength="140" x="2080.5" y="1080.3311">new ServerSocket(8080)</text><polygon fill="#181818" points="1741.5,1120.8848,1751.5,1124.8848,1741.5,1128.8848,1745.5,1124.8848" style="stroke:#181818;stroke-width:1.0;"/><line style="stroke:#181818;stroke-width:1.0;" x1="1353.5" x2="1747.5" y1="1124.8848" y2="1124.8848"/><text fill="#000000" font-family="sans-serif" font-size="13" lengthAdjust="spacing" textLength="54" x="1360.5" y="1119.6221">connect()</text><line style="stroke:#181818;stroke-width:1.0;" x1="1763.5" x2="1805.5" y1="1156.1758" y2="1156.1758"/><line style="stroke:#181818;stroke-width:1.0;" x1="1805.5" x2="1805.5" y1="1156.1758" y2="1169.1758"/><line style="stroke:#181818;stroke-width:1.0;" x1="1764.5" x2="1805.5" y1="1169.1758" y2="1169.1758"/><polygon fill="#181818" points="1774.5,1165.1758,1764.5,1169.1758,1774.5,1173.1758,1770.5,1169.1758" style="stroke:#181818;stroke-width:1.0;"/><text fill="#000000" font-family="sans-serif" font-size="13" lengthAdjust="spacing" textLength="273" x="1770.5" y="1150.9131">new Socket(InetAddress.getLocalHost(), 8080);</text><line style="stroke:#181818;stroke-width:1.0;" x1="1763.5" x2="1805.5" y1="1200.4668" y2="1200.4668"/><line style="stroke:#181818;stroke-width:1.0;" x1="1805.5" x2="1805.5" y1="1200.4668" y2="1213.4668"/><line style="stroke:#181818;stroke-width:1.0;" x1="1764.5" x2="1805.5" y1="1213.4668" y2="1213.4668"/><polygon fill="#181818" points="1774.5,1209.4668,1764.5,1213.4668,1774.5,1217.4668,1770.5,1213.4668" style="stroke:#181818;stroke-width:1.0;"/><text fill="#000000" font-family="sans-serif" font-size="13" lengthAdjust="spacing" textLength="286" x="1770.5" y="1195.2041">new DataOutputStream(sock.getOutputStream());</text><line style="stroke:#181818;stroke-width:1.0;" x1="1763.5" x2="1805.5" y1="1249.7578" y2="1249.7578"/><line style="stroke:#181818;stroke-width:1.0;" x1="1805.5" x2="1805.5" y1="1249.7578" y2="1262.7578"/><line style="stroke:#181818;stroke-width:1.0;" x1="1758.5" x2="1805.5" y1="1262.7578" y2="1262.7578"/><polygon fill="#181818" points="1768.5,1258.7578,1758.5,1262.7578,1768.5,1266.7578,1764.5,1262.7578" style="stroke:#181818;stroke-width:1.0;"/><text fill="#000000" font-family="sans-serif" font-size="13" lengthAdjust="spacing" textLength="264" x="1770.5" y="1244.4951">new DataInputStream(sock.getInputStream());</text><polygon fill="#181818" points="1746.5,1285.0488,1756.5,1289.0488,1746.5,1293.0488,1750.5,1289.0488" style="stroke:#181818;stroke-width:1.0;"/><line style="stroke:#181818;stroke-width:1.0;" x1="1353.5" x2="1752.5" y1="1289.0488" y2="1289.0488"/><text fill="#000000" font-family="sans-serif" font-size="13" lengthAdjust="spacing" textLength="116" x="1360.5" y="1283.7861">listenForResponse()</text><polygon fill="#181818" points="1746.5,1316.3398,1756.5,1320.3398,1746.5,1324.3398,1750.5,1320.3398" style="stroke:#181818;stroke-width:1.0;"/><line style="stroke:#181818;stroke-width:1.0;" x1="1353.5" x2="1752.5" y1="1320.3398" y2="1320.3398"/><text fill="#000000" font-family="sans-serif" font-size="13" lengthAdjust="spacing" textLength="381" x="1360.5" y="1315.0771">sendMessage(versionBytes, codeBytes, data1Bytes, data2Bytes)</text><polygon fill="#181818" points="1746.5,1347.6309,1756.5,1351.6309,1746.5,1355.6309,1750.5,1351.6309" style="stroke:#181818;stroke-width:1.0;"/><line style="stroke:#181818;stroke-width:1.0;" x1="1353.5" x2="1752.5" y1="1351.6309" y2="1351.6309"/><text fill="#000000" font-family="sans-serif" font-size="13" lengthAdjust="spacing" textLength="101" x="1360.5" y="1346.3682">receiveMessage()</text><polygon fill="#181818" points="1746.5,1378.9219,1756.5,1382.9219,1746.5,1386.9219,1750.5,1382.9219" style="stroke:#181818;stroke-width:1.0;"/><line style="stroke:#181818;stroke-width:1.0;" x1="1353.5" x2="1752.5" y1="1382.9219" y2="1382.9219"/><text fill="#000000" font-family="sans-serif" font-size="13" lengthAdjust="spacing" textLength="39" x="1360.5" y="1377.6592">close()</text><polygon fill="#181818" points="2980,1410.2129,2990,1414.2129,2980,1418.2129,2984,1414.2129" style="stroke:#181818;stroke-width:1.0;"/><line style="stroke:#181818;stroke-width:1.0;" x1="1353.5" x2="2986" y1="1414.2129" y2="1414.2129"/><text fill="#000000" font-family="sans-serif" font-size="13" lengthAdjust="spacing" textLength="69" x="1360.5" y="1408.9502">stopServer()</text><line style="stroke:#181818;stroke-width:1.0;" x1="1353.5" x2="1395.5" y1="1445.5039" y2="1445.5039"/><line style="stroke:#181818;stroke-width:1.0;" x1="1395.5" x2="1395.5" y1="1445.5039" y2="1458.5039"/><line style="stroke:#181818;stroke-width:1.0;" x1="1354.5" x2="1395.5" y1="1458.5039" y2="1458.5039"/><polygon fill="#181818" points="1364.5,1454.5039,1354.5,1458.5039,1364.5,1462.5039,1360.5,1458.5039" style="stroke:#181818;stroke-width:1.0;"/><text fill="#000000" font-family="sans-serif" font-size="13" lengthAdjust="spacing" textLength="105" x="1360.5" y="1440.2412">serverThread.join()</text><polygon fill="#181818" points="563.5,1485.7949,553.5,1489.7949,563.5,1493.7949,559.5,1489.7949" style="stroke:#181818;stroke-width:1.0;"/><line style="stroke:#181818;stroke-width:1.0;stroke-dasharray:2.0,2.0;" x1="557.5" x2="1347.5" y1="1489.7949" y2="1489.7949"/><text fill="#000000" font-family="sans-serif" font-size="13" lengthAdjust="spacing" textLength="53" x="569.5" y="1484.5322">response</text><polygon fill="#181818" points="1336.5,1517.0859,1346.5,1521.0859,1336.5,1525.0859,1340.5,1521.0859" style="stroke:#181818;stroke-width:1.0;"/><line style="stroke:#181818;stroke-width:1.0;" x1="552.5" x2="1342.5" y1="1521.0859" y2="1521.0859"/><text fill="#000000" font-family="sans-serif" font-size="13" lengthAdjust="spacing" textLength="229" x="559.5" y="1515.8232">findApplicationsByCandidate(candidate)</text><polygon fill="#181818" points="234.5,1548.377,224.5,1552.377,234.5,1556.377,230.5,1552.377" style="stroke:#181818;stroke-width:1.0;"/><line style="stroke:#181818;stroke-width:1.0;stroke-dasharray:2.0,2.0;" x1="228.5" x2="546.5" y1="1552.377" y2="1552.377"/><text fill="#000000" font-family="sans-serif" font-size="13" lengthAdjust="spacing" textLength="69" x="240.5" y="1547.1143">applications</text><polygon fill="#181818" points="51.5,1579.668,41.5,1583.668,51.5,1587.668,47.5,1583.668" style="stroke:#181818;stroke-width:1.0;"/><line style="stroke:#181818;stroke-width:1.0;stroke-dasharray:2.0,2.0;" x1="45.5" x2="217.5" y1="1583.668" y2="1583.668"/><text fill="#000000" font-family="sans-serif" font-size="13" lengthAdjust="spacing" textLength="116" x="57.5" y="1578.4053">Display applications</text><!--SRC=[xLTDR-Cs4BthLn0-EO0JfEqbK8q0Yhr1jKXtWvLpNZ3Kn6OYawf8U-ly-WufMI8boklqqajzC4XgtfiFpWn9zSP5IIkw9ILbRtGDcJuKG2fWcefr0P5g1TI6vl875sloGWlbVYcu07qeWPIoE9X9v7na1LKgqRhYppiDAPCYu-z0hgD8SusgClXh1u81MNAwDe1fjhmWb-HfSVtRJHHHfcL55bJaFASQ25KaCKiHiclEU4c59WzSwLOaASk2Cwgv5EefDG3ydy_B2XG8RTTlRy-3BwJGbImAg0oDCvlFQIVMOvlGdTwyPr3jEOCumOci-BkLR1OdrWj72lbKFUfnFU5o1aeXrZhYJCSWhIDtErxaZUNzjJ7mX1qbunOpyHYMSakvqPxRGG-_OkNH9GGvip65ABBOKBqekDLISDoYdmbdrTu86-eJhZn2fN1VJMgPZOE_jG4vgoOdkbaF_GrAgJZcsU7UPk31W8_3-Vob7Y48OqAVgGBoMJuxgTFX3N3qstnUjPD16dM8s2UO33c7sz8QrcwTRrDekMTEP2kDN5xUOWd5jam8wohHAHHJfdnlLf_IA2Bumvf3M5SoCH7muvnAcrvOV4lOVQc9pS-fH5JYx6bCMWSug8RAetE4su_c9oH-hFXweubyyIbP1OXK1EFx-J7nK6uweILDWXmXuwAzq3JfrChd4BHtnFzMwwkN4a7txtkQpE-OraWrbgX1ZrfSpvlN4PAGUqTx_j_QqrlRbjr_jgjis2_-nOPsHqBT4BhvDA1WDffBTH0SlVqsCUm_Qz0FShs6l6r07syrxg5zWj5ZTJ6H5shl2c2QR7UyMtA7pMDqv7n2wxXpHxWScBp3hnx42U4ehMzdBwmUeyCMTjiFP_zU4fDdCmX5iI_gMpYuuBZazTaOJFOXRYphGowEs-IwsPoUFjE7ChS2l3t37e8dvtqbj_LLgAkW3-UrMvPCRhSxOUXX-YUc0puA5ZA7guSqMtrV95-MwJ9PVVgUF3u-f8jabNxzaiqwxpvXh8iPcKm2UzXfyNVFkIUYBRKpCL4QRqEDPsDjO1PgIoDLKrCD2wQvHpgQJMEgnvbaRrY7DzStrnTZPHFYzJsghxKciaBWmsgih6kneO7DhTWXiWRMfgNuz4ho71ytwihs8qQBFwH29JDYpVxzJBubtXU_xdIvqvd6GjbE5IembDxYnOVuKZ6aSzVwR6vL188HZcfXpz1xMNq3LM91c2Py1WmVWtcJtjEzEOcbk3lW-OefXTdU3Cqb-XTd_AiTdyMFJsZWUpYgE0l32lapyzioLLgMJNMS1BYbhQpyQeF1pwzU9HUde8CcL4Str0X3XJtUO5wuoDqETdVepa-dXPrgfjxRuun-Qiv1So-9oPAhig07dy4z1DFe7m00]--></g></svg>