<?xml version="1.0" encoding="us-ascii" standalone="no"?><svg xmlns="http://www.w3.org/2000/svg" xmlns:xlink="http://www.w3.org/1999/xlink" contentStyleType="text/css" height="1076px" preserveAspectRatio="none" style="width:726px;height:1076px;background:#FFFFFF;" version="1.1" viewBox="0 0 726 1076" width="726px" zoomAndPan="magnify"><defs/><g><text fill="#000000" font-family="sans-serif" font-size="14" font-weight="bold" lengthAdjust="spacing" textLength="190" x="261" y="25.1074">Class Diagram (CD) - UC038</text><!--class ListCandidateApplicationsUI--><g id="elem_ListCandidateApplicationsUI"><rect codeLine="8" fill="#F1F1F1" height="60.582" id="ListCandidateApplicationsUI" rx="2.5" ry="2.5" style="stroke:#181818;stroke-width:0.5;" width="207" x="148.5" y="46.6211"/><ellipse cx="163.5" cy="68.9121" fill="#ADD1B2" rx="11" ry="11" style="stroke:#181818;stroke-width:1.0;"/><path d="M166.2656,64.7871 Q166.4219,64.5684 166.6094,64.459 Q166.7969,64.3496 167.0156,64.3496 Q167.3906,64.3496 167.625,64.6152 Q167.8594,64.8652 167.8594,65.4746 L167.8594,66.9277 Q167.8594,67.5371 167.625,67.8027 Q167.3906,68.0684 167.0156,68.0684 Q166.6719,68.0684 166.4688,67.8652 Q166.2656,67.6777 166.1563,67.1621 Q166.1094,66.8027 165.9219,66.6152 Q165.5938,66.2402 164.9844,66.0215 Q164.375,65.8027 163.75,65.8027 Q162.9844,65.8027 162.3438,66.1309 Q161.7188,66.459 161.2188,67.209 Q160.7344,67.959 160.7344,68.9902 L160.7344,70.084 Q160.7344,71.3184 161.625,72.1465 Q162.5156,72.959 164.1094,72.959 Q165.0469,72.959 165.7031,72.709 Q166.0938,72.5527 166.5156,72.1152 Q166.7813,71.8496 166.9219,71.7715 Q167.0781,71.6934 167.2813,71.6934 Q167.6094,71.6934 167.8594,71.959 Q168.125,72.209 168.125,72.5527 Q168.125,72.8965 167.7813,73.3027 Q167.2813,73.8809 166.4844,74.209 Q165.4063,74.6621 164.1094,74.6621 Q162.5938,74.6621 161.3906,74.0371 Q160.4063,73.5371 159.7188,72.4746 Q159.0313,71.3965 159.0313,70.1152 L159.0313,68.959 Q159.0313,67.6309 159.6406,66.4902 Q160.2656,65.334 161.3594,64.7246 Q162.4531,64.0996 163.6875,64.0996 Q164.4219,64.0996 165.0625,64.2715 Q165.7188,64.4277 166.2656,64.7871 Z " fill="#000000"/><text fill="#000000" font-family="sans-serif" font-size="12" font-style="italic" lengthAdjust="spacing" textLength="82" x="224" y="64.5703">&#171;presentation&#187;</text><text fill="#000000" font-family="sans-serif" font-size="14" lengthAdjust="spacing" textLength="175" x="177.5" y="82.6895">ListCandidateApplicationsUI</text><line style="stroke:#181818;stroke-width:0.5;" x1="149.5" x2="354.5" y1="91.2031" y2="91.2031"/><line style="stroke:#181818;stroke-width:0.5;" x1="149.5" x2="354.5" y1="99.2031" y2="99.2031"/></g><!--class ListCandidateApplicationsController--><g id="elem_ListCandidateApplicationsController"><rect codeLine="10" fill="#F1F1F1" height="60.582" id="ListCandidateApplicationsController" rx="2.5" ry="2.5" style="stroke:#181818;stroke-width:0.5;" width="257" x="123.5" y="168.6211"/><ellipse cx="138.5" cy="190.9121" fill="#ADD1B2" rx="11" ry="11" style="stroke:#181818;stroke-width:1.0;"/><path d="M141.2656,186.7871 Q141.4219,186.5684 141.6094,186.459 Q141.7969,186.3496 142.0156,186.3496 Q142.3906,186.3496 142.625,186.6152 Q142.8594,186.8652 142.8594,187.4746 L142.8594,188.9277 Q142.8594,189.5371 142.625,189.8027 Q142.3906,190.0684 142.0156,190.0684 Q141.6719,190.0684 141.4688,189.8652 Q141.2656,189.6777 141.1563,189.1621 Q141.1094,188.8027 140.9219,188.6152 Q140.5938,188.2402 139.9844,188.0215 Q139.375,187.8027 138.75,187.8027 Q137.9844,187.8027 137.3438,188.1309 Q136.7188,188.459 136.2188,189.209 Q135.7344,189.959 135.7344,190.9902 L135.7344,192.084 Q135.7344,193.3184 136.625,194.1465 Q137.5156,194.959 139.1094,194.959 Q140.0469,194.959 140.7031,194.709 Q141.0938,194.5527 141.5156,194.1152 Q141.7813,193.8496 141.9219,193.7715 Q142.0781,193.6934 142.2813,193.6934 Q142.6094,193.6934 142.8594,193.959 Q143.125,194.209 143.125,194.5527 Q143.125,194.8965 142.7813,195.3027 Q142.2813,195.8809 141.4844,196.209 Q140.4063,196.6621 139.1094,196.6621 Q137.5938,196.6621 136.3906,196.0371 Q135.4063,195.5371 134.7188,194.4746 Q134.0313,193.3965 134.0313,192.1152 L134.0313,190.959 Q134.0313,189.6309 134.6406,188.4902 Q135.2656,187.334 136.3594,186.7246 Q137.4531,186.0996 138.6875,186.0996 Q139.4219,186.0996 140.0625,186.2715 Q140.7188,186.4277 141.2656,186.7871 Z " fill="#000000"/><text fill="#000000" font-family="sans-serif" font-size="12" font-style="italic" lengthAdjust="spacing" textLength="65" x="232.5" y="186.5703">&#171;controller&#187;</text><text fill="#000000" font-family="sans-serif" font-size="14" lengthAdjust="spacing" textLength="225" x="152.5" y="204.6895">ListCandidateApplicationsController</text><line style="stroke:#181818;stroke-width:0.5;" x1="124.5" x2="379.5" y1="213.2031" y2="213.2031"/><line style="stroke:#181818;stroke-width:0.5;" x1="124.5" x2="379.5" y1="221.2031" y2="221.2031"/></g><!--class TcpService--><g id="elem_TcpService"><rect codeLine="12" fill="#F1F1F1" height="60.582" id="TcpService" rx="2.5" ry="2.5" style="stroke:#181818;stroke-width:0.5;" width="103" x="200.5" y="308.6211"/><ellipse cx="215.5" cy="330.9121" fill="#ADD1B2" rx="11" ry="11" style="stroke:#181818;stroke-width:1.0;"/><path d="M218.2656,326.7871 Q218.4219,326.5684 218.6094,326.459 Q218.7969,326.3496 219.0156,326.3496 Q219.3906,326.3496 219.625,326.6152 Q219.8594,326.8652 219.8594,327.4746 L219.8594,328.9277 Q219.8594,329.5371 219.625,329.8027 Q219.3906,330.0684 219.0156,330.0684 Q218.6719,330.0684 218.4688,329.8652 Q218.2656,329.6777 218.1563,329.1621 Q218.1094,328.8027 217.9219,328.6152 Q217.5938,328.2402 216.9844,328.0215 Q216.375,327.8027 215.75,327.8027 Q214.9844,327.8027 214.3438,328.1309 Q213.7188,328.459 213.2188,329.209 Q212.7344,329.959 212.7344,330.9902 L212.7344,332.084 Q212.7344,333.3184 213.625,334.1465 Q214.5156,334.959 216.1094,334.959 Q217.0469,334.959 217.7031,334.709 Q218.0938,334.5527 218.5156,334.1152 Q218.7813,333.8496 218.9219,333.7715 Q219.0781,333.6934 219.2813,333.6934 Q219.6094,333.6934 219.8594,333.959 Q220.125,334.209 220.125,334.5527 Q220.125,334.8965 219.7813,335.3027 Q219.2813,335.8809 218.4844,336.209 Q217.4063,336.6621 216.1094,336.6621 Q214.5938,336.6621 213.3906,336.0371 Q212.4063,335.5371 211.7188,334.4746 Q211.0313,333.3965 211.0313,332.1152 L211.0313,330.959 Q211.0313,329.6309 211.6406,328.4902 Q212.2656,327.334 213.3594,326.7246 Q214.4531,326.0996 215.6875,326.0996 Q216.4219,326.0996 217.0625,326.2715 Q217.7188,326.4277 218.2656,326.7871 Z " fill="#000000"/><text fill="#000000" font-family="sans-serif" font-size="12" font-style="italic" lengthAdjust="spacing" textLength="53" x="238.5" y="326.5703">&#171;service&#187;</text><text fill="#000000" font-family="sans-serif" font-size="14" lengthAdjust="spacing" textLength="71" x="229.5" y="344.6895">TcpService</text><line style="stroke:#181818;stroke-width:0.5;" x1="201.5" x2="302.5" y1="353.2031" y2="353.2031"/><line style="stroke:#181818;stroke-width:0.5;" x1="201.5" x2="302.5" y1="361.2031" y2="361.2031"/></g><!--class TcpChatCli--><g id="elem_TcpChatCli"><rect codeLine="14" fill="#F1F1F1" height="60.582" id="TcpChatCli" rx="2.5" ry="2.5" style="stroke:#181818;stroke-width:0.5;" width="102" x="7" y="448.6211"/><ellipse cx="22" cy="470.9121" fill="#ADD1B2" rx="11" ry="11" style="stroke:#181818;stroke-width:1.0;"/><path d="M24.7656,466.7871 Q24.9219,466.5684 25.1094,466.459 Q25.2969,466.3496 25.5156,466.3496 Q25.8906,466.3496 26.125,466.6152 Q26.3594,466.8652 26.3594,467.4746 L26.3594,468.9277 Q26.3594,469.5371 26.125,469.8027 Q25.8906,470.0684 25.5156,470.0684 Q25.1719,470.0684 24.9688,469.8652 Q24.7656,469.6777 24.6563,469.1621 Q24.6094,468.8027 24.4219,468.6152 Q24.0938,468.2402 23.4844,468.0215 Q22.875,467.8027 22.25,467.8027 Q21.4844,467.8027 20.8438,468.1309 Q20.2188,468.459 19.7188,469.209 Q19.2344,469.959 19.2344,470.9902 L19.2344,472.084 Q19.2344,473.3184 20.125,474.1465 Q21.0156,474.959 22.6094,474.959 Q23.5469,474.959 24.2031,474.709 Q24.5938,474.5527 25.0156,474.1152 Q25.2813,473.8496 25.4219,473.7715 Q25.5781,473.6934 25.7813,473.6934 Q26.1094,473.6934 26.3594,473.959 Q26.625,474.209 26.625,474.5527 Q26.625,474.8965 26.2813,475.3027 Q25.7813,475.8809 24.9844,476.209 Q23.9063,476.6621 22.6094,476.6621 Q21.0938,476.6621 19.8906,476.0371 Q18.9063,475.5371 18.2188,474.4746 Q17.5313,473.3965 17.5313,472.1152 L17.5313,470.959 Q17.5313,469.6309 18.1406,468.4902 Q18.7656,467.334 19.8594,466.7246 Q20.9531,466.0996 22.1875,466.0996 Q22.9219,466.0996 23.5625,466.2715 Q24.2188,466.4277 24.7656,466.7871 Z " fill="#000000"/><text fill="#000000" font-family="sans-serif" font-size="12" font-style="italic" lengthAdjust="spacing" textLength="53" x="44.5" y="466.5703">&#171;service&#187;</text><text fill="#000000" font-family="sans-serif" font-size="14" lengthAdjust="spacing" textLength="70" x="36" y="484.6895">TcpChatCli</text><line style="stroke:#181818;stroke-width:0.5;" x1="8" x2="108" y1="493.2031" y2="493.2031"/><line style="stroke:#181818;stroke-width:0.5;" x1="8" x2="108" y1="501.2031" y2="501.2031"/></g><!--class TcpChatSrv--><g id="elem_TcpChatSrv"><rect codeLine="16" fill="#F1F1F1" height="60.582" id="TcpChatSrv" rx="2.5" ry="2.5" style="stroke:#181818;stroke-width:0.5;" width="107" x="144.5" y="448.6211"/><ellipse cx="159.5" cy="470.9121" fill="#ADD1B2" rx="11" ry="11" style="stroke:#181818;stroke-width:1.0;"/><path d="M162.2656,466.7871 Q162.4219,466.5684 162.6094,466.459 Q162.7969,466.3496 163.0156,466.3496 Q163.3906,466.3496 163.625,466.6152 Q163.8594,466.8652 163.8594,467.4746 L163.8594,468.9277 Q163.8594,469.5371 163.625,469.8027 Q163.3906,470.0684 163.0156,470.0684 Q162.6719,470.0684 162.4688,469.8652 Q162.2656,469.6777 162.1563,469.1621 Q162.1094,468.8027 161.9219,468.6152 Q161.5938,468.2402 160.9844,468.0215 Q160.375,467.8027 159.75,467.8027 Q158.9844,467.8027 158.3438,468.1309 Q157.7188,468.459 157.2188,469.209 Q156.7344,469.959 156.7344,470.9902 L156.7344,472.084 Q156.7344,473.3184 157.625,474.1465 Q158.5156,474.959 160.1094,474.959 Q161.0469,474.959 161.7031,474.709 Q162.0938,474.5527 162.5156,474.1152 Q162.7813,473.8496 162.9219,473.7715 Q163.0781,473.6934 163.2813,473.6934 Q163.6094,473.6934 163.8594,473.959 Q164.125,474.209 164.125,474.5527 Q164.125,474.8965 163.7813,475.3027 Q163.2813,475.8809 162.4844,476.209 Q161.4063,476.6621 160.1094,476.6621 Q158.5938,476.6621 157.3906,476.0371 Q156.4063,475.5371 155.7188,474.4746 Q155.0313,473.3965 155.0313,472.1152 L155.0313,470.959 Q155.0313,469.6309 155.6406,468.4902 Q156.2656,467.334 157.3594,466.7246 Q158.4531,466.0996 159.6875,466.0996 Q160.4219,466.0996 161.0625,466.2715 Q161.7188,466.4277 162.2656,466.7871 Z " fill="#000000"/><text fill="#000000" font-family="sans-serif" font-size="12" font-style="italic" lengthAdjust="spacing" textLength="53" x="184.5" y="466.5703">&#171;service&#187;</text><text fill="#000000" font-family="sans-serif" font-size="14" lengthAdjust="spacing" textLength="75" x="173.5" y="484.6895">TcpChatSrv</text><line style="stroke:#181818;stroke-width:0.5;" x1="145.5" x2="250.5" y1="493.2031" y2="493.2031"/><line style="stroke:#181818;stroke-width:0.5;" x1="145.5" x2="250.5" y1="501.2031" y2="501.2031"/></g><!--class RepositoryFactory--><g id="elem_RepositoryFactory"><rect codeLine="18" fill="#F1F1F1" height="60.582" id="RepositoryFactory" rx="2.5" ry="2.5" style="stroke:#181818;stroke-width:0.5;" width="148" x="412" y="588.6211"/><ellipse cx="427" cy="610.9121" fill="#ADD1B2" rx="11" ry="11" style="stroke:#181818;stroke-width:1.0;"/><path d="M429.7656,606.7871 Q429.9219,606.5684 430.1094,606.459 Q430.2969,606.3496 430.5156,606.3496 Q430.8906,606.3496 431.125,606.6152 Q431.3594,606.8652 431.3594,607.4746 L431.3594,608.9277 Q431.3594,609.5371 431.125,609.8027 Q430.8906,610.0684 430.5156,610.0684 Q430.1719,610.0684 429.9688,609.8652 Q429.7656,609.6777 429.6563,609.1621 Q429.6094,608.8027 429.4219,608.6152 Q429.0938,608.2402 428.4844,608.0215 Q427.875,607.8027 427.25,607.8027 Q426.4844,607.8027 425.8438,608.1309 Q425.2188,608.459 424.7188,609.209 Q424.2344,609.959 424.2344,610.9902 L424.2344,612.084 Q424.2344,613.3184 425.125,614.1465 Q426.0156,614.959 427.6094,614.959 Q428.5469,614.959 429.2031,614.709 Q429.5938,614.5527 430.0156,614.1152 Q430.2813,613.8496 430.4219,613.7715 Q430.5781,613.6934 430.7813,613.6934 Q431.1094,613.6934 431.3594,613.959 Q431.625,614.209 431.625,614.5527 Q431.625,614.8965 431.2813,615.3027 Q430.7813,615.8809 429.9844,616.209 Q428.9063,616.6621 427.6094,616.6621 Q426.0938,616.6621 424.8906,616.0371 Q423.9063,615.5371 423.2188,614.4746 Q422.5313,613.3965 422.5313,612.1152 L422.5313,610.959 Q422.5313,609.6309 423.1406,608.4902 Q423.7656,607.334 424.8594,606.7246 Q425.9531,606.0996 427.1875,606.0996 Q427.9219,606.0996 428.5625,606.2715 Q429.2188,606.4277 429.7656,606.7871 Z " fill="#000000"/><text fill="#000000" font-family="sans-serif" font-size="12" font-style="italic" lengthAdjust="spacing" textLength="50" x="474" y="606.5703">&#171;factory&#187;</text><text fill="#000000" font-family="sans-serif" font-size="14" lengthAdjust="spacing" textLength="116" x="441" y="624.6895">RepositoryFactory</text><line style="stroke:#181818;stroke-width:0.5;" x1="413" x2="559" y1="633.2031" y2="633.2031"/><line style="stroke:#181818;stroke-width:0.5;" x1="413" x2="559" y1="641.2031" y2="641.2031"/></g><!--class JobApplication--><g id="elem_JobApplication"><rect codeLine="20" fill="#F1F1F1" height="60.582" id="JobApplication" rx="2.5" ry="2.5" style="stroke:#181818;stroke-width:0.5;" width="123" x="196.5" y="728.6211"/><ellipse cx="211.5" cy="750.9121" fill="#ADD1B2" rx="11" ry="11" style="stroke:#181818;stroke-width:1.0;"/><path d="M214.2656,746.7871 Q214.4219,746.5684 214.6094,746.459 Q214.7969,746.3496 215.0156,746.3496 Q215.3906,746.3496 215.625,746.6152 Q215.8594,746.8652 215.8594,747.4746 L215.8594,748.9277 Q215.8594,749.5371 215.625,749.8027 Q215.3906,750.0684 215.0156,750.0684 Q214.6719,750.0684 214.4688,749.8652 Q214.2656,749.6777 214.1563,749.1621 Q214.1094,748.8027 213.9219,748.6152 Q213.5938,748.2402 212.9844,748.0215 Q212.375,747.8027 211.75,747.8027 Q210.9844,747.8027 210.3438,748.1309 Q209.7188,748.459 209.2188,749.209 Q208.7344,749.959 208.7344,750.9902 L208.7344,752.084 Q208.7344,753.3184 209.625,754.1465 Q210.5156,754.959 212.1094,754.959 Q213.0469,754.959 213.7031,754.709 Q214.0938,754.5527 214.5156,754.1152 Q214.7813,753.8496 214.9219,753.7715 Q215.0781,753.6934 215.2813,753.6934 Q215.6094,753.6934 215.8594,753.959 Q216.125,754.209 216.125,754.5527 Q216.125,754.8965 215.7813,755.3027 Q215.2813,755.8809 214.4844,756.209 Q213.4063,756.6621 212.1094,756.6621 Q210.5938,756.6621 209.3906,756.0371 Q208.4063,755.5371 207.7188,754.4746 Q207.0313,753.3965 207.0313,752.1152 L207.0313,750.959 Q207.0313,749.6309 207.6406,748.4902 Q208.2656,747.334 209.3594,746.7246 Q210.4531,746.0996 211.6875,746.0996 Q212.4219,746.0996 213.0625,746.2715 Q213.7188,746.4277 214.2656,746.7871 Z " fill="#000000"/><text fill="#000000" font-family="sans-serif" font-size="12" font-style="italic" lengthAdjust="spacing" textLength="67" x="237.5" y="746.5703">&#171;root entity&#187;</text><text fill="#000000" font-family="sans-serif" font-size="14" lengthAdjust="spacing" textLength="91" x="225.5" y="764.6895">JobApplication</text><line style="stroke:#181818;stroke-width:0.5;" x1="197.5" x2="318.5" y1="773.2031" y2="773.2031"/><line style="stroke:#181818;stroke-width:0.5;" x1="197.5" x2="318.5" y1="781.2031" y2="781.2031"/></g><!--class JobApplicationReference--><g id="elem_JobApplicationReference"><rect codeLine="22" fill="#F1F1F1" height="60.582" id="JobApplicationReference" rx="2.5" ry="2.5" style="stroke:#181818;stroke-width:0.5;" width="189" x="318.5" y="868.6211"/><ellipse cx="333.5" cy="890.9121" fill="#ADD1B2" rx="11" ry="11" style="stroke:#181818;stroke-width:1.0;"/><path d="M336.2656,886.7871 Q336.4219,886.5684 336.6094,886.459 Q336.7969,886.3496 337.0156,886.3496 Q337.3906,886.3496 337.625,886.6152 Q337.8594,886.8652 337.8594,887.4746 L337.8594,888.9277 Q337.8594,889.5371 337.625,889.8027 Q337.3906,890.0684 337.0156,890.0684 Q336.6719,890.0684 336.4688,889.8652 Q336.2656,889.6777 336.1563,889.1621 Q336.1094,888.8027 335.9219,888.6152 Q335.5938,888.2402 334.9844,888.0215 Q334.375,887.8027 333.75,887.8027 Q332.9844,887.8027 332.3438,888.1309 Q331.7188,888.459 331.2188,889.209 Q330.7344,889.959 330.7344,890.9902 L330.7344,892.084 Q330.7344,893.3184 331.625,894.1465 Q332.5156,894.959 334.1094,894.959 Q335.0469,894.959 335.7031,894.709 Q336.0938,894.5527 336.5156,894.1152 Q336.7813,893.8496 336.9219,893.7715 Q337.0781,893.6934 337.2813,893.6934 Q337.6094,893.6934 337.8594,893.959 Q338.125,894.209 338.125,894.5527 Q338.125,894.8965 337.7813,895.3027 Q337.2813,895.8809 336.4844,896.209 Q335.4063,896.6621 334.1094,896.6621 Q332.5938,896.6621 331.3906,896.0371 Q330.4063,895.5371 329.7188,894.4746 Q329.0313,893.3965 329.0313,892.1152 L329.0313,890.959 Q329.0313,889.6309 329.6406,888.4902 Q330.2656,887.334 331.3594,886.7246 Q332.4531,886.0996 333.6875,886.0996 Q334.4219,886.0996 335.0625,886.2715 Q335.7188,886.4277 336.2656,886.7871 Z " fill="#000000"/><text fill="#000000" font-family="sans-serif" font-size="12" font-style="italic" lengthAdjust="spacing" textLength="81" x="385.5" y="886.5703">&#171;value object&#187;</text><text fill="#000000" font-family="sans-serif" font-size="14" lengthAdjust="spacing" textLength="157" x="347.5" y="904.6895">JobApplicationReference</text><line style="stroke:#181818;stroke-width:0.5;" x1="319.5" x2="506.5" y1="913.2031" y2="913.2031"/><line style="stroke:#181818;stroke-width:0.5;" x1="319.5" x2="506.5" y1="921.2031" y2="921.2031"/></g><!--class ApprovalStatus--><g id="elem_ApprovalStatus"><rect codeLine="24" fill="#F1F1F1" height="60.582" id="ApprovalStatus" rx="2.5" ry="2.5" style="stroke:#181818;stroke-width:0.5;" width="128" x="12" y="868.6211"/><ellipse cx="27" cy="890.9121" fill="#ADD1B2" rx="11" ry="11" style="stroke:#181818;stroke-width:1.0;"/><path d="M29.7656,886.7871 Q29.9219,886.5684 30.1094,886.459 Q30.2969,886.3496 30.5156,886.3496 Q30.8906,886.3496 31.125,886.6152 Q31.3594,886.8652 31.3594,887.4746 L31.3594,888.9277 Q31.3594,889.5371 31.125,889.8027 Q30.8906,890.0684 30.5156,890.0684 Q30.1719,890.0684 29.9688,889.8652 Q29.7656,889.6777 29.6563,889.1621 Q29.6094,888.8027 29.4219,888.6152 Q29.0938,888.2402 28.4844,888.0215 Q27.875,887.8027 27.25,887.8027 Q26.4844,887.8027 25.8438,888.1309 Q25.2188,888.459 24.7188,889.209 Q24.2344,889.959 24.2344,890.9902 L24.2344,892.084 Q24.2344,893.3184 25.125,894.1465 Q26.0156,894.959 27.6094,894.959 Q28.5469,894.959 29.2031,894.709 Q29.5938,894.5527 30.0156,894.1152 Q30.2813,893.8496 30.4219,893.7715 Q30.5781,893.6934 30.7813,893.6934 Q31.1094,893.6934 31.3594,893.959 Q31.625,894.209 31.625,894.5527 Q31.625,894.8965 31.2813,895.3027 Q30.7813,895.8809 29.9844,896.209 Q28.9063,896.6621 27.6094,896.6621 Q26.0938,896.6621 24.8906,896.0371 Q23.9063,895.5371 23.2188,894.4746 Q22.5313,893.3965 22.5313,892.1152 L22.5313,890.959 Q22.5313,889.6309 23.1406,888.4902 Q23.7656,887.334 24.8594,886.7246 Q25.9531,886.0996 27.1875,886.0996 Q27.9219,886.0996 28.5625,886.2715 Q29.2188,886.4277 29.7656,886.7871 Z " fill="#000000"/><text fill="#000000" font-family="sans-serif" font-size="12" font-style="italic" lengthAdjust="spacing" textLength="81" x="48.5" y="886.5703">&#171;value object&#187;</text><text fill="#000000" font-family="sans-serif" font-size="14" lengthAdjust="spacing" textLength="96" x="41" y="904.6895">ApprovalStatus</text><line style="stroke:#181818;stroke-width:0.5;" x1="13" x2="139" y1="913.2031" y2="913.2031"/><line style="stroke:#181818;stroke-width:0.5;" x1="13" x2="139" y1="921.2031" y2="921.2031"/></g><!--class JobApplicationRepository--><g id="elem_JobApplicationRepository"><rect codeLine="26" fill="#F1F1F1" height="60.582" id="JobApplicationRepository" rx="2.5" ry="2.5" style="stroke:#181818;stroke-width:0.5;" width="191" x="286.5" y="448.6211"/><ellipse cx="301.5" cy="470.9121" fill="#ADD1B2" rx="11" ry="11" style="stroke:#181818;stroke-width:1.0;"/><path d="M304.2656,466.7871 Q304.4219,466.5684 304.6094,466.459 Q304.7969,466.3496 305.0156,466.3496 Q305.3906,466.3496 305.625,466.6152 Q305.8594,466.8652 305.8594,467.4746 L305.8594,468.9277 Q305.8594,469.5371 305.625,469.8027 Q305.3906,470.0684 305.0156,470.0684 Q304.6719,470.0684 304.4688,469.8652 Q304.2656,469.6777 304.1563,469.1621 Q304.1094,468.8027 303.9219,468.6152 Q303.5938,468.2402 302.9844,468.0215 Q302.375,467.8027 301.75,467.8027 Q300.9844,467.8027 300.3438,468.1309 Q299.7188,468.459 299.2188,469.209 Q298.7344,469.959 298.7344,470.9902 L298.7344,472.084 Q298.7344,473.3184 299.625,474.1465 Q300.5156,474.959 302.1094,474.959 Q303.0469,474.959 303.7031,474.709 Q304.0938,474.5527 304.5156,474.1152 Q304.7813,473.8496 304.9219,473.7715 Q305.0781,473.6934 305.2813,473.6934 Q305.6094,473.6934 305.8594,473.959 Q306.125,474.209 306.125,474.5527 Q306.125,474.8965 305.7813,475.3027 Q305.2813,475.8809 304.4844,476.209 Q303.4063,476.6621 302.1094,476.6621 Q300.5938,476.6621 299.3906,476.0371 Q298.4063,475.5371 297.7188,474.4746 Q297.0313,473.3965 297.0313,472.1152 L297.0313,470.959 Q297.0313,469.6309 297.6406,468.4902 Q298.2656,467.334 299.3594,466.7246 Q300.4531,466.0996 301.6875,466.0996 Q302.4219,466.0996 303.0625,466.2715 Q303.7188,466.4277 304.2656,466.7871 Z " fill="#000000"/><text fill="#000000" font-family="sans-serif" font-size="12" font-style="italic" lengthAdjust="spacing" textLength="68" x="361" y="466.5703">&#171;repository&#187;</text><text fill="#000000" font-family="sans-serif" font-size="14" lengthAdjust="spacing" textLength="159" x="315.5" y="484.6895">JobApplicationRepository</text><line style="stroke:#181818;stroke-width:0.5;" x1="287.5" x2="476.5" y1="493.2031" y2="493.2031"/><line style="stroke:#181818;stroke-width:0.5;" x1="287.5" x2="476.5" y1="501.2031" y2="501.2031"/></g><!--class JobOpening--><g id="elem_JobOpening"><rect codeLine="28" fill="#F1F1F1" height="60.582" id="JobOpening" rx="2.5" ry="2.5" style="stroke:#181818;stroke-width:0.5;" width="108" x="175" y="868.6211"/><ellipse cx="190" cy="890.9121" fill="#ADD1B2" rx="11" ry="11" style="stroke:#181818;stroke-width:1.0;"/><path d="M192.7656,886.7871 Q192.9219,886.5684 193.1094,886.459 Q193.2969,886.3496 193.5156,886.3496 Q193.8906,886.3496 194.125,886.6152 Q194.3594,886.8652 194.3594,887.4746 L194.3594,888.9277 Q194.3594,889.5371 194.125,889.8027 Q193.8906,890.0684 193.5156,890.0684 Q193.1719,890.0684 192.9688,889.8652 Q192.7656,889.6777 192.6563,889.1621 Q192.6094,888.8027 192.4219,888.6152 Q192.0938,888.2402 191.4844,888.0215 Q190.875,887.8027 190.25,887.8027 Q189.4844,887.8027 188.8438,888.1309 Q188.2188,888.459 187.7188,889.209 Q187.2344,889.959 187.2344,890.9902 L187.2344,892.084 Q187.2344,893.3184 188.125,894.1465 Q189.0156,894.959 190.6094,894.959 Q191.5469,894.959 192.2031,894.709 Q192.5938,894.5527 193.0156,894.1152 Q193.2813,893.8496 193.4219,893.7715 Q193.5781,893.6934 193.7813,893.6934 Q194.1094,893.6934 194.3594,893.959 Q194.625,894.209 194.625,894.5527 Q194.625,894.8965 194.2813,895.3027 Q193.7813,895.8809 192.9844,896.209 Q191.9063,896.6621 190.6094,896.6621 Q189.0938,896.6621 187.8906,896.0371 Q186.9063,895.5371 186.2188,894.4746 Q185.5313,893.3965 185.5313,892.1152 L185.5313,890.959 Q185.5313,889.6309 186.1406,888.4902 Q186.7656,887.334 187.8594,886.7246 Q188.9531,886.0996 190.1875,886.0996 Q190.9219,886.0996 191.5625,886.2715 Q192.2188,886.4277 192.7656,886.7871 Z " fill="#000000"/><text fill="#000000" font-family="sans-serif" font-size="12" font-style="italic" lengthAdjust="spacing" textLength="67" x="208.5" y="886.5703">&#171;root entity&#187;</text><text fill="#000000" font-family="sans-serif" font-size="14" lengthAdjust="spacing" textLength="76" x="204" y="904.6895">JobOpening</text><line style="stroke:#181818;stroke-width:0.5;" x1="176" x2="282" y1="913.2031" y2="913.2031"/><line style="stroke:#181818;stroke-width:0.5;" x1="176" x2="282" y1="921.2031" y2="921.2031"/></g><!--class JobReference--><g id="elem_JobReference"><rect codeLine="30" fill="#F1F1F1" height="60.582" id="JobReference" rx="2.5" ry="2.5" style="stroke:#181818;stroke-width:0.5;" width="120" x="169" y="1008.6211"/><ellipse cx="184" cy="1030.9121" fill="#ADD1B2" rx="11" ry="11" style="stroke:#181818;stroke-width:1.0;"/><path d="M186.7656,1026.7871 Q186.9219,1026.5684 187.1094,1026.459 Q187.2969,1026.3496 187.5156,1026.3496 Q187.8906,1026.3496 188.125,1026.6152 Q188.3594,1026.8652 188.3594,1027.4746 L188.3594,1028.9277 Q188.3594,1029.5371 188.125,1029.8027 Q187.8906,1030.0684 187.5156,1030.0684 Q187.1719,1030.0684 186.9688,1029.8652 Q186.7656,1029.6777 186.6563,1029.1621 Q186.6094,1028.8027 186.4219,1028.6152 Q186.0938,1028.2402 185.4844,1028.0215 Q184.875,1027.8027 184.25,1027.8027 Q183.4844,1027.8027 182.8438,1028.1309 Q182.2188,1028.459 181.7188,1029.209 Q181.2344,1029.959 181.2344,1030.9902 L181.2344,1032.084 Q181.2344,1033.3184 182.125,1034.1465 Q183.0156,1034.959 184.6094,1034.959 Q185.5469,1034.959 186.2031,1034.709 Q186.5938,1034.5527 187.0156,1034.1152 Q187.2813,1033.8496 187.4219,1033.7715 Q187.5781,1033.6934 187.7813,1033.6934 Q188.1094,1033.6934 188.3594,1033.959 Q188.625,1034.209 188.625,1034.5527 Q188.625,1034.8965 188.2813,1035.3027 Q187.7813,1035.8809 186.9844,1036.209 Q185.9063,1036.6621 184.6094,1036.6621 Q183.0938,1036.6621 181.8906,1036.0371 Q180.9063,1035.5371 180.2188,1034.4746 Q179.5313,1033.3965 179.5313,1032.1152 L179.5313,1030.959 Q179.5313,1029.6309 180.1406,1028.4902 Q180.7656,1027.334 181.8594,1026.7246 Q182.9531,1026.0996 184.1875,1026.0996 Q184.9219,1026.0996 185.5625,1026.2715 Q186.2188,1026.4277 186.7656,1026.7871 Z " fill="#000000"/><text fill="#000000" font-family="sans-serif" font-size="12" font-style="italic" lengthAdjust="spacing" textLength="81" x="201.5" y="1026.5703">&#171;value object&#187;</text><text fill="#000000" font-family="sans-serif" font-size="14" lengthAdjust="spacing" textLength="88" x="198" y="1044.6895">JobReference</text><line style="stroke:#181818;stroke-width:0.5;" x1="170" x2="288" y1="1053.2031" y2="1053.2031"/><line style="stroke:#181818;stroke-width:0.5;" x1="170" x2="288" y1="1061.2031" y2="1061.2031"/></g><!--class CandidateRepository--><g id="elem_CandidateRepository"><rect codeLine="32" fill="#F1F1F1" height="60.582" id="CandidateRepository" rx="2.5" ry="2.5" style="stroke:#181818;stroke-width:0.5;" width="165" x="512.5" y="448.6211"/><ellipse cx="527.5" cy="470.9121" fill="#ADD1B2" rx="11" ry="11" style="stroke:#181818;stroke-width:1.0;"/><path d="M530.2656,466.7871 Q530.4219,466.5684 530.6094,466.459 Q530.7969,466.3496 531.0156,466.3496 Q531.3906,466.3496 531.625,466.6152 Q531.8594,466.8652 531.8594,467.4746 L531.8594,468.9277 Q531.8594,469.5371 531.625,469.8027 Q531.3906,470.0684 531.0156,470.0684 Q530.6719,470.0684 530.4688,469.8652 Q530.2656,469.6777 530.1563,469.1621 Q530.1094,468.8027 529.9219,468.6152 Q529.5938,468.2402 528.9844,468.0215 Q528.375,467.8027 527.75,467.8027 Q526.9844,467.8027 526.3438,468.1309 Q525.7188,468.459 525.2188,469.209 Q524.7344,469.959 524.7344,470.9902 L524.7344,472.084 Q524.7344,473.3184 525.625,474.1465 Q526.5156,474.959 528.1094,474.959 Q529.0469,474.959 529.7031,474.709 Q530.0938,474.5527 530.5156,474.1152 Q530.7813,473.8496 530.9219,473.7715 Q531.0781,473.6934 531.2813,473.6934 Q531.6094,473.6934 531.8594,473.959 Q532.125,474.209 532.125,474.5527 Q532.125,474.8965 531.7813,475.3027 Q531.2813,475.8809 530.4844,476.209 Q529.4063,476.6621 528.1094,476.6621 Q526.5938,476.6621 525.3906,476.0371 Q524.4063,475.5371 523.7188,474.4746 Q523.0313,473.3965 523.0313,472.1152 L523.0313,470.959 Q523.0313,469.6309 523.6406,468.4902 Q524.2656,467.334 525.3594,466.7246 Q526.4531,466.0996 527.6875,466.0996 Q528.4219,466.0996 529.0625,466.2715 Q529.7188,466.4277 530.2656,466.7871 Z " fill="#000000"/><text fill="#000000" font-family="sans-serif" font-size="12" font-style="italic" lengthAdjust="spacing" textLength="68" x="574" y="466.5703">&#171;repository&#187;</text><text fill="#000000" font-family="sans-serif" font-size="14" lengthAdjust="spacing" textLength="133" x="541.5" y="484.6895">CandidateRepository</text><line style="stroke:#181818;stroke-width:0.5;" x1="513.5" x2="676.5" y1="493.2031" y2="493.2031"/><line style="stroke:#181818;stroke-width:0.5;" x1="513.5" x2="676.5" y1="501.2031" y2="501.2031"/></g><!--class Candidate--><g id="elem_Candidate"><rect codeLine="34" fill="#F1F1F1" height="60.582" id="Candidate" rx="2.5" ry="2.5" style="stroke:#181818;stroke-width:0.5;" width="97" x="557.5" y="868.6211"/><ellipse cx="572.5" cy="890.9121" fill="#ADD1B2" rx="11" ry="11" style="stroke:#181818;stroke-width:1.0;"/><path d="M575.2656,886.7871 Q575.4219,886.5684 575.6094,886.459 Q575.7969,886.3496 576.0156,886.3496 Q576.3906,886.3496 576.625,886.6152 Q576.8594,886.8652 576.8594,887.4746 L576.8594,888.9277 Q576.8594,889.5371 576.625,889.8027 Q576.3906,890.0684 576.0156,890.0684 Q575.6719,890.0684 575.4688,889.8652 Q575.2656,889.6777 575.1563,889.1621 Q575.1094,888.8027 574.9219,888.6152 Q574.5938,888.2402 573.9844,888.0215 Q573.375,887.8027 572.75,887.8027 Q571.9844,887.8027 571.3438,888.1309 Q570.7188,888.459 570.2188,889.209 Q569.7344,889.959 569.7344,890.9902 L569.7344,892.084 Q569.7344,893.3184 570.625,894.1465 Q571.5156,894.959 573.1094,894.959 Q574.0469,894.959 574.7031,894.709 Q575.0938,894.5527 575.5156,894.1152 Q575.7813,893.8496 575.9219,893.7715 Q576.0781,893.6934 576.2813,893.6934 Q576.6094,893.6934 576.8594,893.959 Q577.125,894.209 577.125,894.5527 Q577.125,894.8965 576.7813,895.3027 Q576.2813,895.8809 575.4844,896.209 Q574.4063,896.6621 573.1094,896.6621 Q571.5938,896.6621 570.3906,896.0371 Q569.4063,895.5371 568.7188,894.4746 Q568.0313,893.3965 568.0313,892.1152 L568.0313,890.959 Q568.0313,889.6309 568.6406,888.4902 Q569.2656,887.334 570.3594,886.7246 Q571.4531,886.0996 572.6875,886.0996 Q573.4219,886.0996 574.0625,886.2715 Q574.7188,886.4277 575.2656,886.7871 Z " fill="#000000"/><text fill="#000000" font-family="sans-serif" font-size="12" font-style="italic" lengthAdjust="spacing" textLength="67" x="585.5" y="886.5703">&#171;root entity&#187;</text><text fill="#000000" font-family="sans-serif" font-size="14" lengthAdjust="spacing" textLength="65" x="586.5" y="904.6895">Candidate</text><line style="stroke:#181818;stroke-width:0.5;" x1="558.5" x2="653.5" y1="913.2031" y2="913.2031"/><line style="stroke:#181818;stroke-width:0.5;" x1="558.5" x2="653.5" y1="921.2031" y2="921.2031"/></g><!--link ListCandidateApplicationsUI to ListCandidateApplicationsController--><g id="link_ListCandidateApplicationsUI_ListCandidateApplicationsController"><path codeLine="36" d="M252,107.7811 C252,126.2411 252,143.9111 252,162.3811 " fill="none" id="ListCandidateApplicationsUI-to-ListCandidateApplicationsController" style="stroke:#181818;stroke-width:1.0;stroke-dasharray:7.0,7.0;"/><polygon fill="#181818" points="252,168.3811,256,159.3811,252,163.3811,248,159.3811,252,168.3811" style="stroke:#181818;stroke-width:1.0;"/></g><!--link ListCandidateApplicationsController to TcpService--><g id="link_ListCandidateApplicationsController_TcpService"><path codeLine="38" d="M252,229.7211 C252,253.0111 252,279.2911 252,302.5611 " fill="none" id="ListCandidateApplicationsController-to-TcpService" style="stroke:#181818;stroke-width:1.0;stroke-dasharray:7.0,7.0;"/><polygon fill="#181818" points="252,308.5611,256,299.5611,252,303.5611,248,299.5611,252,308.5611" style="stroke:#181818;stroke-width:1.0;"/><polygon fill="#000000" points="257,274.2666,259.9389,265.2215,254.0611,265.2215,257,274.2666" style="stroke:#000000;stroke-width:1.0;"/><text fill="#000000" font-family="sans-serif" font-size="13" lengthAdjust="spacing" textLength="28" x="266" y="274.6494">uses</text></g><!--link TcpService to CandidateRepository--><g id="link_TcpService_CandidateRepository"><path codeLine="40" d="M303.79,360.1511 C333.22,371.5911 370.73,386.2711 404,399.6211 C443.76,415.5711 482.4748,431.4498 518.3648,446.2798 " fill="none" id="TcpService-to-CandidateRepository" style="stroke:#181818;stroke-width:1.0;stroke-dasharray:7.0,7.0;"/><polygon fill="#181818" points="523.91,448.5711,517.1197,441.4373,519.289,446.6616,514.0646,448.8309,523.91,448.5711" style="stroke:#181818;stroke-width:1.0;"/><polygon fill="#000000" points="455.6402,411.1291,448.3408,405.0324,446.1513,410.4872,455.6402,411.1291" style="stroke:#000000;stroke-width:1.0;"/><text fill="#000000" font-family="sans-serif" font-size="13" lengthAdjust="spacing" textLength="56" x="460" y="414.6494">accesses</text></g><!--link TcpService to JobApplicationRepository--><g id="link_TcpService_JobApplicationRepository"><path codeLine="41" d="M279.89,369.7211 C301.82,393.0111 328.1259,420.9237 350.0459,444.1937 " fill="none" id="TcpService-to-JobApplicationRepository" style="stroke:#181818;stroke-width:1.0;stroke-dasharray:7.0,7.0;"/><polygon fill="#181818" points="354.16,448.5611,350.9005,439.2672,350.7316,444.9216,345.0773,444.7526,354.16,448.5611" style="stroke:#181818;stroke-width:1.0;"/><polygon fill="#000000" points="333.4285,412.906,329.3655,404.307,325.0871,408.3374,333.4285,412.906" style="stroke:#000000;stroke-width:1.0;"/><text fill="#000000" font-family="sans-serif" font-size="13" lengthAdjust="spacing" textLength="56" x="339" y="414.6494">accesses</text></g><!--reverse link JobApplicationRepository to RepositoryFactory--><g id="link_JobApplicationRepository_RepositoryFactory"><path codeLine="43" d="M386.6437,515.6149 C389.6237,531.2449 393.97,544.2211 404,558.6211 C411.94,570.0211 422.79,580.0611 433.99,588.4811 " fill="none" id="JobApplicationRepository-backto-RepositoryFactory" style="stroke:#181818;stroke-width:1.0;stroke-dasharray:7.0,7.0;"/><polygon fill="#181818" points="385.52,509.7211,383.2763,519.311,386.4564,514.6326,391.1348,517.8127,385.52,509.7211" style="stroke:#181818;stroke-width:1.0;"/><polygon fill="#000000" points="406.2757,545.0739,408.7396,554.2598,413.6684,551.0572,406.2757,545.0739" style="stroke:#000000;stroke-width:1.0;"/><text fill="#000000" font-family="sans-serif" font-size="13" lengthAdjust="spacing" textLength="43" x="418" y="554.6494">creates</text></g><!--link JobApplicationRepository to JobApplication--><g id="link_JobApplicationRepository_JobApplication"><path codeLine="44" d="M341.19,509.8011 C317.62,529.3611 289.79,557.1311 275,588.6211 C253.75,633.8611 252.8022,687.2512 254.8422,722.3812 " fill="none" id="JobApplicationRepository-to-JobApplication" style="stroke:#181818;stroke-width:1.0;stroke-dasharray:7.0,7.0;"/><polygon fill="#181818" points="255.19,728.3711,258.6615,719.1543,254.9001,723.3795,250.675,719.6181,255.19,728.3711" style="stroke:#181818;stroke-width:1.0;"/><polygon fill="#000000" points="278.1184,623.899,284.2452,616.6249,278.7994,614.4129,278.1184,623.899" style="stroke:#000000;stroke-width:1.0;"/><text fill="#000000" font-family="sans-serif" font-size="13" lengthAdjust="spacing" textLength="104" x="289" y="624.6494">saves in database</text></g><!--link TcpService to TcpChatCli--><g id="link_TcpService_TcpChatCli"><path codeLine="46" d="M200.48,366.1111 C182.71,375.8311 163,387.4811 146,399.6211 C125.5,414.2511 108.7545,428.8239 92.3445,444.3039 " fill="none" id="TcpService-to-TcpChatCli" style="stroke:#181818;stroke-width:1.0;"/><polygon fill="#181818" points="87.98,448.4211,97.2715,445.155,91.6171,444.9901,91.782,439.3357,87.98,448.4211" style="stroke:#181818;stroke-width:1.0;"/><polygon fill="#000000" points="146.9483,412.1964,156,409.2779,152.5558,404.5148,146.9483,412.1964" style="stroke:#000000;stroke-width:1.0;"/><text fill="#000000" font-family="sans-serif" font-size="13" lengthAdjust="spacing" textLength="53" x="160" y="414.6494">connects</text></g><!--link TcpService to TcpChatSrv--><g id="link_TcpService_TcpChatSrv"><path codeLine="47" d="M240.42,369.7211 C231.3,393.0111 220.8552,419.7032 211.7552,442.9732 " fill="none" id="TcpService-to-TcpChatSrv" style="stroke:#181818;stroke-width:1.0;"/><polygon fill="#181818" points="209.57,448.5611,216.5731,441.636,211.391,443.9045,209.1226,438.7224,209.57,448.5611" style="stroke:#181818;stroke-width:1.0;"/><polygon fill="#000000" points="232.178,413.9228,238.2109,406.5706,232.7372,404.4287,232.178,413.9228" style="stroke:#000000;stroke-width:1.0;"/><text fill="#000000" font-family="sans-serif" font-size="13" lengthAdjust="spacing" textLength="53" x="243" y="414.6494">connects</text></g><!--reverse link CandidateRepository to RepositoryFactory--><g id="link_CandidateRepository_RepositoryFactory"><path codeLine="49" d="M553.1049,513.9189 C543.1449,522.8589 537.33,529.0911 529,539.6211 C517.24,554.4911 506.92,573.0111 499.34,588.3311 " fill="none" id="CandidateRepository-backto-RepositoryFactory" style="stroke:#181818;stroke-width:1.0;stroke-dasharray:7.0,7.0;"/><polygon fill="#181818" points="557.57,509.9111,548.2004,512.9461,553.8491,513.251,553.5442,518.8996,557.57,509.9111" style="stroke:#181818;stroke-width:1.0;"/><polygon fill="#000000" points="536.9283,545.2138,529.2488,550.8242,534.0132,554.2666,536.9283,545.2138" style="stroke:#000000;stroke-width:1.0;"/><text fill="#000000" font-family="sans-serif" font-size="13" lengthAdjust="spacing" textLength="43" x="543" y="554.6494">creates</text></g><!--link CandidateRepository to Candidate--><g id="link_CandidateRepository_Candidate"><path codeLine="50" d="M595.78,509.8511 C597.81,586.7811 603.0422,785.7832 605.0622,862.5532 " fill="none" id="CandidateRepository-to-Candidate" style="stroke:#181818;stroke-width:1.0;stroke-dasharray:7.0,7.0;"/><polygon fill="#181818" points="605.22,868.5511,608.9819,859.449,605.0885,863.5528,600.9847,859.6594,605.22,868.5511" style="stroke:#181818;stroke-width:1.0;"/><polygon fill="#000000" points="605.1315,694.2649,607.8315,685.1456,601.9557,685.3002,605.1315,694.2649" style="stroke:#000000;stroke-width:1.0;"/><text fill="#000000" font-family="sans-serif" font-size="13" lengthAdjust="spacing" textLength="104" x="614" y="694.6494">saves in database</text></g><!--link JobApplication to Candidate--><g id="link_JobApplication_Candidate"><path codeLine="52" d="M319.51,778.6611 C354.34,789.6311 398.5,804.3411 437,819.6211 C478.34,836.0311 518.6379,854.8295 552.0779,871.1495 " fill="none" id="JobApplication-to-Candidate" style="stroke:#181818;stroke-width:1.0;"/><polygon fill="#181818" points="557.47,873.7811,551.1362,866.239,552.9766,871.5881,547.6275,873.4285,557.47,873.7811" style="stroke:#181818;stroke-width:1.0;"/><polygon fill="#000000" points="479.3539,827.4189,486.6727,833.4923,488.8448,828.0305,479.3539,827.4189" style="stroke:#000000;stroke-width:1.0;"/><text fill="#000000" font-family="sans-serif" font-size="13" lengthAdjust="spacing" textLength="46" x="493" y="834.6494">submits</text></g><!--link JobApplication to JobApplicationReference--><g id="link_JobApplication_JobApplicationReference"><path codeLine="53" d="M291.25,789.7211 C317.4,813.0111 349.1892,841.3008 375.3192,864.5708 " fill="none" id="JobApplication-to-JobApplicationReference" style="stroke:#181818;stroke-width:1.0;"/><polygon fill="#181818" points="379.8,868.5611,375.7391,859.5884,376.066,865.2358,370.4186,865.5628,379.8,868.5611" style="stroke:#181818;stroke-width:1.0;"/><polygon fill="#000000" points="353.7344,832.5914,348.9331,824.3818,345.0245,828.7718,353.7344,832.5914" style="stroke:#000000;stroke-width:1.0;"/><text fill="#000000" font-family="sans-serif" font-size="13" lengthAdjust="spacing" textLength="69" x="359" y="834.6494">identified by</text></g><!--link JobApplication to ApprovalStatus--><g id="link_JobApplication_ApprovalStatus"><path codeLine="54" d="M218.96,789.7211 C188.25,813.0111 150.4511,841.666 119.7611,864.936 " fill="none" id="JobApplication-to-ApprovalStatus" style="stroke:#181818;stroke-width:1.0;"/><polygon fill="#181818" points="114.98,868.5611,124.5683,866.3108,118.9642,865.5402,119.7348,859.936,114.98,868.5611" style="stroke:#181818;stroke-width:1.0;"/><polygon fill="#000000" points="179.0158,832.2875,187.999,829.1645,184.4476,824.4808,179.0158,832.2875" style="stroke:#000000;stroke-width:1.0;"/><text fill="#000000" font-family="sans-serif" font-size="13" lengthAdjust="spacing" textLength="21" x="192" y="834.6494">has</text></g><!--link JobApplication to JobOpening--><g id="link_JobApplication_JobOpening"><path codeLine="55" d="M251.78,789.7211 C246.89,813.0111 241.3339,839.4193 236.4439,862.6893 " fill="none" id="JobApplication-to-JobOpening" style="stroke:#181818;stroke-width:1.0;"/><polygon fill="#181818" points="235.21,868.5611,240.9754,860.5761,236.2383,863.668,233.1463,858.9309,235.21,868.5611" style="stroke:#181818;stroke-width:1.0;"/><polygon fill="#000000" points="249.9716,834.1597,254.7081,825.9125,248.9559,824.7035,249.9716,834.1597" style="stroke:#000000;stroke-width:1.0;"/><text fill="#000000" font-family="sans-serif" font-size="13" lengthAdjust="spacing" textLength="11" x="260" y="834.6494">to</text></g><!--link JobOpening to JobReference--><g id="link_JobOpening_JobReference"><path codeLine="57" d="M229,929.7211 C229,953.0111 229,979.2911 229,1002.5611 " fill="none" id="JobOpening-to-JobReference" style="stroke:#181818;stroke-width:1.0;"/><polygon fill="#181818" points="229,1008.5611,233,999.5611,229,1003.5611,225,999.5611,229,1008.5611" style="stroke:#181818;stroke-width:1.0;"/><polygon fill="#000000" points="234,974.2666,236.9389,965.2215,231.0611,965.2215,234,974.2666" style="stroke:#000000;stroke-width:1.0;"/><text fill="#000000" font-family="sans-serif" font-size="13" lengthAdjust="spacing" textLength="69" x="243" y="974.6494">identified by</text></g><!--SRC=[ZPF1Rjim38RlVWeUjqEC0hiCHX6WS36Wmu01zVe0jCmaN5N94EKCsTEFIbh7Tkna9ylYzui_HKfUsRKOy0rQDA-ufIeUB44W4z5jBMNI0xB3nlzXjuKDMg5i438MHHvY35ntaPwCTnN_9RZBiiXHZojJ71uPjud-L3v-XXMyb7TVlcRPKGi_M6A9hk468psqhMM3aRsJboUulsy32Rbut5clRsfAxsBmrb9GhUb_pifVfgqexDcG0d9QZQBb3cDf-Kgq2lkvw3ErNZZwSFY69dqKsfnMP-YxhmTsbGZUHz02EIvIpxIXGExeU8-s8_3rR-tIcLSuU0rLUa-TB6BJOp_y9XlzpmZ_sP9BRL_sUTjStwUR2NloCj-r8SdpzVyCn9L31bEJ3XlCI06Ta80w66mcPgwg0j0OafDWmY_U_KYKBRSepsSch00JI4repvUb-ML-5GhkLSOEj0YiKMXIv6gr7Zu7pUITqyPEQXjWwLsCi6oszJSBcLFbepjViZyfCdaRQRhwZUFbNHt1fJTN03Tf3ZTC3TG7JJCZdZp00dOey-JWKHKG_RlhZwrtuahsVm00]--></g></svg>