<?xml version="1.0" encoding="us-ascii" standalone="no"?><svg xmlns="http://www.w3.org/2000/svg" xmlns:xlink="http://www.w3.org/1999/xlink" contentStyleType="text/css" height="361.2px" preserveAspectRatio="none" style="width:728px;height:361px;background:#FFFFFF;" version="1.1" viewBox="0 0 728 361" width="728.7px" zoomAndPan="magnify"><defs/><g><text fill="#000000" font-family="sans-serif" font-size="9.8" font-weight="bold" lengthAdjust="spacing" textLength="109.2" x="304.85" y="17.5752">Class Diagram - UC037</text><!--class UploadTextJobRequirementsUI--><g id="elem_UploadTextJobRequirementsUI"><rect codeLine="7" fill="#F1F1F1" height="42.4074" id="UploadTextJobRequirementsUI" rx="1.75" ry="1.75" style="stroke:#181818;stroke-width:0.3499999999999999;" width="157.5" x="257.6" y="32.6348"/><ellipse cx="268.1" cy="48.2385" fill="#ADD1B2" rx="7.7" ry="7.7" style="stroke:#181818;stroke-width:0.6999999999999998;"/><path d="M270.0359,45.351 Q270.1453,45.1979 270.2766,45.1213 Q270.4078,45.0447 270.5609,45.0447 Q270.8234,45.0447 270.9875,45.2307 Q271.1516,45.4057 271.1516,45.8322 L271.1516,46.8494 Q271.1516,47.276 270.9875,47.4619 Q270.8234,47.6479 270.5609,47.6479 Q270.3203,47.6479 270.1781,47.5057 Q270.0359,47.3744 269.9594,47.0135 Q269.9266,46.7619 269.7953,46.6307 Q269.5656,46.3682 269.1391,46.215 Q268.7125,46.0619 268.275,46.0619 Q267.7391,46.0619 267.2906,46.2916 Q266.8531,46.5213 266.5031,47.0463 Q266.1641,47.5713 266.1641,48.2932 L266.1641,49.0588 Q266.1641,49.9229 266.7875,50.5025 Q267.4109,51.0713 268.5266,51.0713 Q269.1828,51.0713 269.6422,50.8963 Q269.9156,50.7869 270.2109,50.4807 Q270.3969,50.2947 270.4953,50.24 Q270.6047,50.1854 270.7469,50.1854 Q270.9766,50.1854 271.1516,50.3713 Q271.3375,50.5463 271.3375,50.7869 Q271.3375,51.0275 271.0969,51.3119 Q270.7469,51.7166 270.1891,51.9463 Q269.4344,52.2635 268.5266,52.2635 Q267.4656,52.2635 266.6234,51.826 Q265.9344,51.476 265.4531,50.7322 Q264.9719,49.9775 264.9719,49.0807 L264.9719,48.2713 Q264.9719,47.3416 265.3984,46.5432 Q265.8359,45.7338 266.6016,45.3072 Q267.3672,44.8697 268.2312,44.8697 Q268.7453,44.8697 269.1937,44.99 Q269.6531,45.0994 270.0359,45.351 Z " fill="#000000"/><text fill="#000000" font-family="sans-serif" font-size="8.4" font-style="italic" lengthAdjust="spacing" textLength="57.4" x="316.75" y="45.1992">&#171;presentation&#187;</text><text fill="#000000" font-family="sans-serif" font-size="9.8" lengthAdjust="spacing" textLength="135.1" x="277.9" y="57.8826">UploadTextJobRequirementsUI</text><line style="stroke:#181818;stroke-width:0.3499999999999999;" x1="258.3" x2="414.4" y1="63.8422" y2="63.8422"/><line style="stroke:#181818;stroke-width:0.3499999999999999;" x1="258.3" x2="414.4" y1="69.4422" y2="69.4422"/></g><!--class UploadTextJobRequirementsController--><g id="elem_UploadTextJobRequirementsController"><rect codeLine="11" fill="#F1F1F1" height="42.4074" id="UploadTextJobRequirementsController" rx="1.75" ry="1.75" style="stroke:#181818;stroke-width:0.3499999999999999;" width="192.5" x="240.1" y="118.0348"/><ellipse cx="250.6" cy="133.6385" fill="#ADD1B2" rx="7.7" ry="7.7" style="stroke:#181818;stroke-width:0.6999999999999998;"/><path d="M252.5359,130.751 Q252.6453,130.5979 252.7766,130.5213 Q252.9078,130.4447 253.0609,130.4447 Q253.3234,130.4447 253.4875,130.6307 Q253.6516,130.8057 253.6516,131.2322 L253.6516,132.2494 Q253.6516,132.676 253.4875,132.8619 Q253.3234,133.0479 253.0609,133.0479 Q252.8203,133.0479 252.6781,132.9057 Q252.5359,132.7744 252.4594,132.4135 Q252.4266,132.1619 252.2953,132.0307 Q252.0656,131.7682 251.6391,131.615 Q251.2125,131.4619 250.775,131.4619 Q250.2391,131.4619 249.7906,131.6916 Q249.3531,131.9213 249.0031,132.4463 Q248.6641,132.9713 248.6641,133.6932 L248.6641,134.4588 Q248.6641,135.3229 249.2875,135.9025 Q249.9109,136.4713 251.0266,136.4713 Q251.6828,136.4713 252.1422,136.2963 Q252.4156,136.1869 252.7109,135.8807 Q252.8969,135.6947 252.9953,135.64 Q253.1047,135.5854 253.2469,135.5854 Q253.4766,135.5854 253.6516,135.7713 Q253.8375,135.9463 253.8375,136.1869 Q253.8375,136.4275 253.5969,136.7119 Q253.2469,137.1166 252.6891,137.3463 Q251.9344,137.6635 251.0266,137.6635 Q249.9656,137.6635 249.1234,137.226 Q248.4344,136.876 247.9531,136.1322 Q247.4719,135.3775 247.4719,134.4807 L247.4719,133.6713 Q247.4719,132.7416 247.8984,131.9432 Q248.3359,131.1338 249.1016,130.7072 Q249.8672,130.2697 250.7312,130.2697 Q251.2453,130.2697 251.6937,130.39 Q252.1531,130.4994 252.5359,130.751 Z " fill="#000000"/><text fill="#000000" font-family="sans-serif" font-size="8.4" font-style="italic" lengthAdjust="spacing" textLength="45.5" x="322.7" y="130.5992">&#171;controller&#187;</text><text fill="#000000" font-family="sans-serif" font-size="9.8" lengthAdjust="spacing" textLength="170.1" x="260.4" y="143.2826">UploadTextJobRequirementsController</text><line style="stroke:#181818;stroke-width:0.3499999999999999;" x1="240.8" x2="431.9" y1="149.2422" y2="149.2422"/><line style="stroke:#181818;stroke-width:0.3499999999999999;" x1="240.8" x2="431.9" y1="154.8422" y2="154.8422"/></g><!--class JobOpeningManagementService--><g id="elem_JobOpeningManagementService"><rect codeLine="14" fill="#F1F1F1" height="42.4074" id="JobOpeningManagementService" rx="1.75" ry="1.75" style="stroke:#181818;stroke-width:0.3499999999999999;" width="165.9" x="4.9" y="216.0348"/><ellipse cx="15.4" cy="231.6385" fill="#ADD1B2" rx="7.7" ry="7.7" style="stroke:#181818;stroke-width:0.6999999999999998;"/><path d="M17.3359,228.751 Q17.4453,228.5979 17.5766,228.5213 Q17.7078,228.4447 17.8609,228.4447 Q18.1234,228.4447 18.2875,228.6307 Q18.4516,228.8057 18.4516,229.2322 L18.4516,230.2494 Q18.4516,230.676 18.2875,230.8619 Q18.1234,231.0479 17.8609,231.0479 Q17.6203,231.0479 17.4781,230.9057 Q17.3359,230.7744 17.2594,230.4135 Q17.2266,230.1619 17.0953,230.0307 Q16.8656,229.7682 16.4391,229.615 Q16.0125,229.4619 15.575,229.4619 Q15.0391,229.4619 14.5906,229.6916 Q14.1531,229.9213 13.8031,230.4463 Q13.4641,230.9713 13.4641,231.6932 L13.4641,232.4588 Q13.4641,233.3229 14.0875,233.9025 Q14.7109,234.4713 15.8266,234.4713 Q16.4828,234.4713 16.9422,234.2963 Q17.2156,234.1869 17.5109,233.8807 Q17.6969,233.6947 17.7953,233.64 Q17.9047,233.5854 18.0469,233.5854 Q18.2766,233.5854 18.4516,233.7713 Q18.6375,233.9463 18.6375,234.1869 Q18.6375,234.4275 18.3969,234.7119 Q18.0469,235.1166 17.4891,235.3463 Q16.7344,235.6635 15.8266,235.6635 Q14.7656,235.6635 13.9234,235.226 Q13.2344,234.876 12.7531,234.1322 Q12.2719,233.3775 12.2719,232.4807 L12.2719,231.6713 Q12.2719,230.7416 12.6984,229.9432 Q13.1359,229.1338 13.9016,228.7072 Q14.6672,228.2697 15.5312,228.2697 Q16.0453,228.2697 16.4937,228.39 Q16.9531,228.4994 17.3359,228.751 Z " fill="#000000"/><text fill="#000000" font-family="sans-serif" font-size="8.4" font-style="italic" lengthAdjust="spacing" textLength="37.1" x="78.4" y="228.5992">&#171;service&#187;</text><text fill="#000000" font-family="sans-serif" font-size="9.8" lengthAdjust="spacing" textLength="143.5" x="25.2" y="241.2826">JobOpeningManagementService</text><line style="stroke:#181818;stroke-width:0.3499999999999999;" x1="5.6" x2="170.1" y1="247.2422" y2="247.2422"/><line style="stroke:#181818;stroke-width:0.3499999999999999;" x1="5.6" x2="170.1" y1="252.8422" y2="252.8422"/></g><!--class AuthorizationService--><g id="elem_AuthorizationService"><rect codeLine="17" fill="#F1F1F1" height="42.4074" id="AuthorizationService" rx="1.75" ry="1.75" style="stroke:#181818;stroke-width:0.3499999999999999;" width="112.7" x="195.3" y="216.0348"/><ellipse cx="205.8" cy="231.6385" fill="#ADD1B2" rx="7.7" ry="7.7" style="stroke:#181818;stroke-width:0.6999999999999998;"/><path d="M207.7359,228.751 Q207.8453,228.5979 207.9766,228.5213 Q208.1078,228.4447 208.2609,228.4447 Q208.5234,228.4447 208.6875,228.6307 Q208.8516,228.8057 208.8516,229.2322 L208.8516,230.2494 Q208.8516,230.676 208.6875,230.8619 Q208.5234,231.0479 208.2609,231.0479 Q208.0203,231.0479 207.8781,230.9057 Q207.7359,230.7744 207.6594,230.4135 Q207.6266,230.1619 207.4953,230.0307 Q207.2656,229.7682 206.8391,229.615 Q206.4125,229.4619 205.975,229.4619 Q205.4391,229.4619 204.9906,229.6916 Q204.5531,229.9213 204.2031,230.4463 Q203.8641,230.9713 203.8641,231.6932 L203.8641,232.4588 Q203.8641,233.3229 204.4875,233.9025 Q205.1109,234.4713 206.2266,234.4713 Q206.8828,234.4713 207.3422,234.2963 Q207.6156,234.1869 207.9109,233.8807 Q208.0969,233.6947 208.1953,233.64 Q208.3047,233.5854 208.4469,233.5854 Q208.6766,233.5854 208.8516,233.7713 Q209.0375,233.9463 209.0375,234.1869 Q209.0375,234.4275 208.7969,234.7119 Q208.4469,235.1166 207.8891,235.3463 Q207.1344,235.6635 206.2266,235.6635 Q205.1656,235.6635 204.3234,235.226 Q203.6344,234.876 203.1531,234.1322 Q202.6719,233.3775 202.6719,232.4807 L202.6719,231.6713 Q202.6719,230.7416 203.0984,229.9432 Q203.5359,229.1338 204.3016,228.7072 Q205.0672,228.2697 205.9312,228.2697 Q206.4453,228.2697 206.8937,228.39 Q207.3531,228.4994 207.7359,228.751 Z " fill="#000000"/><text fill="#000000" font-family="sans-serif" font-size="8.4" font-style="italic" lengthAdjust="spacing" textLength="37.1" x="242.2" y="228.5992">&#171;service&#187;</text><text fill="#000000" font-family="sans-serif" font-size="9.8" lengthAdjust="spacing" textLength="90.3" x="215.6" y="241.2826">AuthorizationService</text><line style="stroke:#181818;stroke-width:0.3499999999999999;" x1="196" x2="307.3" y1="247.2422" y2="247.2422"/><line style="stroke:#181818;stroke-width:0.3499999999999999;" x1="196" x2="307.3" y1="252.8422" y2="252.8422"/></g><!--class JobApplicationManagementService--><g id="elem_JobApplicationManagementService"><rect codeLine="20" fill="#F1F1F1" height="42.4074" id="JobApplicationManagementService" rx="1.75" ry="1.75" style="stroke:#181818;stroke-width:0.3499999999999999;" width="176.4" x="332.85" y="216.0348"/><ellipse cx="343.35" cy="231.6385" fill="#ADD1B2" rx="7.7" ry="7.7" style="stroke:#181818;stroke-width:0.6999999999999998;"/><path d="M345.2859,228.751 Q345.3953,228.5979 345.5266,228.5213 Q345.6578,228.4447 345.8109,228.4447 Q346.0734,228.4447 346.2375,228.6307 Q346.4016,228.8057 346.4016,229.2322 L346.4016,230.2494 Q346.4016,230.676 346.2375,230.8619 Q346.0734,231.0479 345.8109,231.0479 Q345.5703,231.0479 345.4281,230.9057 Q345.2859,230.7744 345.2094,230.4135 Q345.1766,230.1619 345.0453,230.0307 Q344.8156,229.7682 344.3891,229.615 Q343.9625,229.4619 343.525,229.4619 Q342.9891,229.4619 342.5406,229.6916 Q342.1031,229.9213 341.7531,230.4463 Q341.4141,230.9713 341.4141,231.6932 L341.4141,232.4588 Q341.4141,233.3229 342.0375,233.9025 Q342.6609,234.4713 343.7766,234.4713 Q344.4328,234.4713 344.8922,234.2963 Q345.1656,234.1869 345.4609,233.8807 Q345.6469,233.6947 345.7453,233.64 Q345.8547,233.5854 345.9969,233.5854 Q346.2266,233.5854 346.4016,233.7713 Q346.5875,233.9463 346.5875,234.1869 Q346.5875,234.4275 346.3469,234.7119 Q345.9969,235.1166 345.4391,235.3463 Q344.6844,235.6635 343.7766,235.6635 Q342.7156,235.6635 341.8734,235.226 Q341.1844,234.876 340.7031,234.1322 Q340.2219,233.3775 340.2219,232.4807 L340.2219,231.6713 Q340.2219,230.7416 340.6484,229.9432 Q341.0859,229.1338 341.8516,228.7072 Q342.6172,228.2697 343.4812,228.2697 Q343.9953,228.2697 344.4437,228.39 Q344.9031,228.4994 345.2859,228.751 Z " fill="#000000"/><text fill="#000000" font-family="sans-serif" font-size="8.4" font-style="italic" lengthAdjust="spacing" textLength="37.1" x="411.6" y="228.5992">&#171;service&#187;</text><text fill="#000000" font-family="sans-serif" font-size="9.8" lengthAdjust="spacing" textLength="154" x="353.15" y="241.2826">JobApplicationManagementService</text><line style="stroke:#181818;stroke-width:0.3499999999999999;" x1="333.55" x2="508.55" y1="247.2422" y2="247.2422"/><line style="stroke:#181818;stroke-width:0.3499999999999999;" x1="333.55" x2="508.55" y1="252.8422" y2="252.8422"/></g><!--class JobRequirementsManagementService--><g id="elem_JobRequirementsManagementService"><rect codeLine="23" fill="#F1F1F1" height="42.4074" id="JobRequirementsManagementService" rx="1.75" ry="1.75" style="stroke:#181818;stroke-width:0.3499999999999999;" width="189.7" x="534.1" y="216.0348"/><ellipse cx="544.6" cy="231.6385" fill="#ADD1B2" rx="7.7" ry="7.7" style="stroke:#181818;stroke-width:0.6999999999999998;"/><path d="M546.5359,228.751 Q546.6453,228.5979 546.7766,228.5213 Q546.9078,228.4447 547.0609,228.4447 Q547.3234,228.4447 547.4875,228.6307 Q547.6516,228.8057 547.6516,229.2322 L547.6516,230.2494 Q547.6516,230.676 547.4875,230.8619 Q547.3234,231.0479 547.0609,231.0479 Q546.8203,231.0479 546.6781,230.9057 Q546.5359,230.7744 546.4594,230.4135 Q546.4266,230.1619 546.2953,230.0307 Q546.0656,229.7682 545.6391,229.615 Q545.2125,229.4619 544.775,229.4619 Q544.2391,229.4619 543.7906,229.6916 Q543.3531,229.9213 543.0031,230.4463 Q542.6641,230.9713 542.6641,231.6932 L542.6641,232.4588 Q542.6641,233.3229 543.2875,233.9025 Q543.9109,234.4713 545.0266,234.4713 Q545.6828,234.4713 546.1422,234.2963 Q546.4156,234.1869 546.7109,233.8807 Q546.8969,233.6947 546.9953,233.64 Q547.1047,233.5854 547.2469,233.5854 Q547.4766,233.5854 547.6516,233.7713 Q547.8375,233.9463 547.8375,234.1869 Q547.8375,234.4275 547.5969,234.7119 Q547.2469,235.1166 546.6891,235.3463 Q545.9344,235.6635 545.0266,235.6635 Q543.9656,235.6635 543.1234,235.226 Q542.4344,234.876 541.9531,234.1322 Q541.4719,233.3775 541.4719,232.4807 L541.4719,231.6713 Q541.4719,230.7416 541.8984,229.9432 Q542.3359,229.1338 543.1016,228.7072 Q543.8672,228.2697 544.7312,228.2697 Q545.2453,228.2697 545.6937,228.39 Q546.1531,228.4994 546.5359,228.751 Z " fill="#000000"/><text fill="#000000" font-family="sans-serif" font-size="8.4" font-style="italic" lengthAdjust="spacing" textLength="37.1" x="619.5" y="228.5992">&#171;service&#187;</text><text fill="#000000" font-family="sans-serif" font-size="9.8" lengthAdjust="spacing" textLength="167.3" x="554.4" y="241.2826">JobRequirementsManagementService</text><line style="stroke:#181818;stroke-width:0.3499999999999999;" x1="534.8" x2="723.1" y1="247.2422" y2="247.2422"/><line style="stroke:#181818;stroke-width:0.3499999999999999;" x1="534.8" x2="723.1" y1="252.8422" y2="252.8422"/></g><!--class JobOpeningRepository--><g id="elem_JobOpeningRepository"><rect codeLine="27" fill="#F1F1F1" height="42.4074" id="JobOpeningRepository" rx="1.75" ry="1.75" style="stroke:#181818;stroke-width:0.3499999999999999;" width="123.2" x="26.25" y="314.0348"/><ellipse cx="36.75" cy="329.6385" fill="#ADD1B2" rx="7.7" ry="7.7" style="stroke:#181818;stroke-width:0.6999999999999998;"/><path d="M38.6859,326.751 Q38.7953,326.5979 38.9266,326.5213 Q39.0578,326.4447 39.2109,326.4447 Q39.4734,326.4447 39.6375,326.6307 Q39.8016,326.8057 39.8016,327.2322 L39.8016,328.2494 Q39.8016,328.676 39.6375,328.8619 Q39.4734,329.0479 39.2109,329.0479 Q38.9703,329.0479 38.8281,328.9057 Q38.6859,328.7744 38.6094,328.4135 Q38.5766,328.1619 38.4453,328.0307 Q38.2156,327.7682 37.7891,327.615 Q37.3625,327.4619 36.925,327.4619 Q36.3891,327.4619 35.9406,327.6916 Q35.5031,327.9213 35.1531,328.4463 Q34.8141,328.9713 34.8141,329.6932 L34.8141,330.4588 Q34.8141,331.3229 35.4375,331.9025 Q36.0609,332.4713 37.1766,332.4713 Q37.8328,332.4713 38.2922,332.2963 Q38.5656,332.1869 38.8609,331.8807 Q39.0469,331.6947 39.1453,331.64 Q39.2547,331.5854 39.3969,331.5854 Q39.6266,331.5854 39.8016,331.7713 Q39.9875,331.9463 39.9875,332.1869 Q39.9875,332.4275 39.7469,332.7119 Q39.3969,333.1166 38.8391,333.3463 Q38.0844,333.6635 37.1766,333.6635 Q36.1156,333.6635 35.2734,333.226 Q34.5844,332.876 34.1031,332.1322 Q33.6219,331.3775 33.6219,330.4807 L33.6219,329.6713 Q33.6219,328.7416 34.0484,327.9432 Q34.4859,327.1338 35.2516,326.7072 Q36.0172,326.2697 36.8812,326.2697 Q37.3953,326.2697 37.8437,326.39 Q38.3031,326.4994 38.6859,326.751 Z " fill="#000000"/><text fill="#000000" font-family="sans-serif" font-size="8.4" font-style="italic" lengthAdjust="spacing" textLength="47.6" x="73.15" y="326.5992">&#171;repository&#187;</text><text fill="#000000" font-family="sans-serif" font-size="9.8" lengthAdjust="spacing" textLength="100.8" x="46.55" y="339.2826">JobOpeningRepository</text><line style="stroke:#181818;stroke-width:0.3499999999999999;" x1="26.95" x2="148.75" y1="345.2422" y2="345.2422"/><line style="stroke:#181818;stroke-width:0.3499999999999999;" x1="26.95" x2="148.75" y1="350.8422" y2="350.8422"/></g><!--class JobApplicationRepository--><g id="elem_JobApplicationRepository"><rect codeLine="30" fill="#F1F1F1" height="42.4074" id="JobApplicationRepository" rx="1.75" ry="1.75" style="stroke:#181818;stroke-width:0.3499999999999999;" width="133.7" x="354.2" y="314.0348"/><ellipse cx="364.7" cy="329.6385" fill="#ADD1B2" rx="7.7" ry="7.7" style="stroke:#181818;stroke-width:0.6999999999999998;"/><path d="M366.6359,326.751 Q366.7453,326.5979 366.8766,326.5213 Q367.0078,326.4447 367.1609,326.4447 Q367.4234,326.4447 367.5875,326.6307 Q367.7516,326.8057 367.7516,327.2322 L367.7516,328.2494 Q367.7516,328.676 367.5875,328.8619 Q367.4234,329.0479 367.1609,329.0479 Q366.9203,329.0479 366.7781,328.9057 Q366.6359,328.7744 366.5594,328.4135 Q366.5266,328.1619 366.3953,328.0307 Q366.1656,327.7682 365.7391,327.615 Q365.3125,327.4619 364.875,327.4619 Q364.3391,327.4619 363.8906,327.6916 Q363.4531,327.9213 363.1031,328.4463 Q362.7641,328.9713 362.7641,329.6932 L362.7641,330.4588 Q362.7641,331.3229 363.3875,331.9025 Q364.0109,332.4713 365.1266,332.4713 Q365.7828,332.4713 366.2422,332.2963 Q366.5156,332.1869 366.8109,331.8807 Q366.9969,331.6947 367.0953,331.64 Q367.2047,331.5854 367.3469,331.5854 Q367.5766,331.5854 367.7516,331.7713 Q367.9375,331.9463 367.9375,332.1869 Q367.9375,332.4275 367.6969,332.7119 Q367.3469,333.1166 366.7891,333.3463 Q366.0344,333.6635 365.1266,333.6635 Q364.0656,333.6635 363.2234,333.226 Q362.5344,332.876 362.0531,332.1322 Q361.5719,331.3775 361.5719,330.4807 L361.5719,329.6713 Q361.5719,328.7416 361.9984,327.9432 Q362.4359,327.1338 363.2016,326.7072 Q363.9672,326.2697 364.8312,326.2697 Q365.3453,326.2697 365.7937,326.39 Q366.2531,326.4994 366.6359,326.751 Z " fill="#000000"/><text fill="#000000" font-family="sans-serif" font-size="8.4" font-style="italic" lengthAdjust="spacing" textLength="47.6" x="406.35" y="326.5992">&#171;repository&#187;</text><text fill="#000000" font-family="sans-serif" font-size="9.8" lengthAdjust="spacing" textLength="111.3" x="374.5" y="339.2826">JobApplicationRepository</text><line style="stroke:#181818;stroke-width:0.3499999999999999;" x1="354.9" x2="487.2" y1="345.2422" y2="345.2422"/><line style="stroke:#181818;stroke-width:0.3499999999999999;" x1="354.9" x2="487.2" y1="350.8422" y2="350.8422"/></g><!--link UploadTextJobRequirementsUI to UploadTextJobRequirementsController--><g id="link_UploadTextJobRequirementsUI_UploadTextJobRequirementsController"><path codeLine="37" d="M336.35,75.4468 C336.35,88.3688 336.35,100.7378 336.35,113.6668 " fill="none" id="UploadTextJobRequirementsUI-to-UploadTextJobRequirementsController" style="stroke:#181818;stroke-width:0.6999999999999998;stroke-dasharray:7.0,7.0;"/><polygon fill="#181818" points="336.35,117.8668,339.15,111.5668,336.35,114.3668,333.55,111.5668,336.35,117.8668" style="stroke:#181818;stroke-width:0.6999999999999998;"/></g><!--link UploadTextJobRequirementsController to JobOpeningManagementService--><g id="link_UploadTextJobRequirementsController_JobOpeningManagementService"><path codeLine="38" d="M283.038,160.8048 C241.115,177.1078 186.8947,198.1822 144.9857,214.4712 " fill="none" id="UploadTextJobRequirementsController-to-JobOpeningManagementService" style="stroke:#181818;stroke-width:0.6999999999999998;stroke-dasharray:7.0,7.0;"/><polygon fill="#181818" points="141.071,215.9928,147.9574,216.3202,144.3333,214.7248,145.9287,211.1006,141.071,215.9928" style="stroke:#181818;stroke-width:0.6999999999999998;"/><polygon fill="#000000" points="227.3878,189.7548,234.0346,189.3781,232.5438,185.5432,227.3878,189.7548" style="stroke:#000000;stroke-width:0.6999999999999998;"/><text fill="#000000" font-family="sans-serif" font-size="9.1" lengthAdjust="spacing" textLength="19.6" x="236.95" y="192.2546">uses</text></g><!--link UploadTextJobRequirementsController to AuthorizationService--><g id="link_UploadTextJobRequirementsController_AuthorizationService"><path codeLine="39" d="M318.178,160.8048 C303.891,177.1078 286.8435,196.5462 272.5565,212.8352 " fill="none" id="UploadTextJobRequirementsController-to-AuthorizationService" style="stroke:#181818;stroke-width:0.6999999999999998;stroke-dasharray:7.0,7.0;"/><polygon fill="#181818" points="269.787,215.9928,276.0462,213.1028,272.0949,213.3615,271.8362,209.4101,269.787,215.9928" style="stroke:#181818;stroke-width:0.6999999999999998;"/><polygon fill="#000000" points="300.4425,191.1183,306.1636,187.7139,303.07,185.0013,300.4425,191.1183" style="stroke:#000000;stroke-width:0.6999999999999998;"/><text fill="#000000" font-family="sans-serif" font-size="9.1" lengthAdjust="spacing" textLength="19.6" x="309.05" y="192.2546">uses</text></g><!--link UploadTextJobRequirementsController to JobApplicationManagementService--><g id="link_UploadTextJobRequirementsController_JobApplicationManagementService"><path codeLine="40" d="M354.522,160.8048 C368.809,177.1078 385.8565,196.5462 400.1435,212.8352 " fill="none" id="UploadTextJobRequirementsController-to-JobApplicationManagementService" style="stroke:#181818;stroke-width:0.6999999999999998;stroke-dasharray:7.0,7.0;"/><polygon fill="#181818" points="402.913,215.9928,400.8638,209.4101,400.6051,213.3615,396.6538,213.1028,402.913,215.9928" style="stroke:#181818;stroke-width:0.6999999999999998;"/><polygon fill="#000000" points="389.7575,191.1183,387.13,185.0013,384.0364,187.7139,389.7575,191.1183" style="stroke:#000000;stroke-width:0.6999999999999998;"/><text fill="#000000" font-family="sans-serif" font-size="9.1" lengthAdjust="spacing" textLength="19.6" x="393.75" y="192.2546">uses</text></g><!--link UploadTextJobRequirementsController to JobRequirementsManagementService--><g id="link_UploadTextJobRequirementsController_JobRequirementsManagementService"><path codeLine="41" d="M398.944,160.7488 C448.294,177.0448 512.8218,198.345 562.2208,214.655 " fill="none" id="UploadTextJobRequirementsController-to-JobRequirementsManagementService" style="stroke:#181818;stroke-width:0.6999999999999998;stroke-dasharray:7.0,7.0;"/><polygon fill="#181818" points="566.209,215.9718,561.1045,211.3378,562.8855,214.8744,559.3488,216.6554,566.209,215.9718" style="stroke:#181818;stroke-width:0.6999999999999998;"/><polygon fill="#000000" points="507.6735,189.5839,502.3062,185.6454,501.0162,189.5524,507.6735,189.5839" style="stroke:#000000;stroke-width:0.6999999999999998;"/><text fill="#000000" font-family="sans-serif" font-size="9.1" lengthAdjust="spacing" textLength="19.6" x="510.65" y="192.2546">uses</text></g><!--link JobOpeningManagementService to JobOpeningRepository--><g id="link_JobOpeningManagementService_JobOpeningRepository"><path codeLine="43" d="M87.85,258.8048 C87.85,275.1078 87.85,293.5038 87.85,309.7928 " fill="none" id="JobOpeningManagementService-to-JobOpeningRepository" style="stroke:#181818;stroke-width:0.6999999999999998;stroke-dasharray:7.0,7.0;"/><polygon fill="#181818" points="87.85,313.9928,90.65,307.6928,87.85,310.4928,85.05,307.6928,87.85,313.9928" style="stroke:#181818;stroke-width:0.6999999999999998;"/><polygon fill="#000000" points="91.35,289.9866,93.4072,283.6551,89.2928,283.6551,91.35,289.9866" style="stroke:#000000;stroke-width:0.6999999999999998;"/><text fill="#000000" font-family="sans-serif" font-size="9.1" lengthAdjust="spacing" textLength="29.4" x="97.65" y="290.2546">access</text></g><!--link JobApplicationManagementService to JobApplicationRepository--><g id="link_JobApplicationManagementService_JobApplicationRepository"><path codeLine="44" d="M421.05,258.8048 C421.05,275.1078 421.05,293.5038 421.05,309.7928 " fill="none" id="JobApplicationManagementService-to-JobApplicationRepository" style="stroke:#181818;stroke-width:0.6999999999999998;stroke-dasharray:7.0,7.0;"/><polygon fill="#181818" points="421.05,313.9928,423.85,307.6928,421.05,310.4928,418.25,307.6928,421.05,313.9928" style="stroke:#181818;stroke-width:0.6999999999999998;"/><polygon fill="#000000" points="424.55,289.9866,426.6072,283.6551,422.4928,283.6551,424.55,289.9866" style="stroke:#000000;stroke-width:0.6999999999999998;"/><text fill="#000000" font-family="sans-serif" font-size="9.1" lengthAdjust="spacing" textLength="29.4" x="430.85" y="290.2546">access</text></g><!--SRC=[dP71QW8n48RlUOfvWOhGGq5aGUp5GYbeVO0nJjTWJDBCR5ijVVTc5RRRTbcZUyaEoVTb9ZzlZGiOSGS1zHPBMiZU4aJIWgwqfBWvm1jS-tVZIdX1o-qTRP5v8XBDgXAQQUyMva0mL4gC9DkqteTxWsLz-WQMq-7jdL809nAMmNfSFzE7FFZLd5uh4sb7JdWvW_4uHE9Ke1ZlYW8-Zo1ydPOpWgbt4hsr59D8DqLRysD9x5CWboPyH9UUeZOiABuPJOdcqrytEgbauwCv79lCPD9ran2iqKVeuYl_J9h9Tuuxf-3PY8_x1CMco6ax0ws_leG7Wo8dG9KJSktgYt445HD3aIth3FPYoxcehn7sXzyOLTzp_7wkLfOZGAs9Qy6vtl_Fr-tv1W00]--></g></svg>