<?xml version="1.0" encoding="us-ascii" standalone="no"?><svg xmlns="http://www.w3.org/2000/svg" xmlns:xlink="http://www.w3.org/1999/xlink" contentStyleType="text/css" height="1242.5px" preserveAspectRatio="none" style="width:2202px;height:1242px;background:#FFFFFF;" version="1.1" viewBox="0 0 2202 1242" width="2202.42px" zoomAndPan="magnify"><defs/><g><text fill="#000000" font-family="sans-serif" font-size="9.94" font-weight="bold" lengthAdjust="spacing" textLength="157.62" x="1023.11" y="21.3763">Sequence Diagram (SD) - UC037</text><rect fill="#FFFFFF" height="1067.3838" style="stroke:#181818;stroke-width:0.71;" width="7.1" x="40.115" y="97.8829"/><rect fill="#FFFFFF" height="222.1662" style="stroke:#181818;stroke-width:0.71;" width="7.1" x="341.155" y="114.4196"/><rect fill="#FFFFFF" height="155.5163" style="stroke:#181818;stroke-width:0.71;" width="7.1" x="341.155" y="358.8024"/><rect fill="#FFFFFF" height="330.2027" style="stroke:#181818;stroke-width:0.71;" width="7.1" x="341.155" y="536.5354"/><rect fill="#FFFFFF" height="257.6454" style="stroke:#181818;stroke-width:0.71;" width="7.1" x="341.155" y="907.6213"/><rect fill="#FFFFFF" height="177.733" style="stroke:#181818;stroke-width:0.71;" width="7.1" x="610.955" y="136.6362"/><rect fill="#FFFFFF" height="111.0831" style="stroke:#181818;stroke-width:0.71;" width="7.1" x="610.955" y="381.019"/><rect fill="#FFFFFF" height="98.0965" style="stroke:#181818;stroke-width:0.71;" width="7.1" x="610.955" y="585.2286"/><rect fill="#FFFFFF" height="98.0965" style="stroke:#181818;stroke-width:0.71;" width="7.1" x="610.955" y="705.5417"/><rect fill="#FFFFFF" height="129.5431" style="stroke:#181818;stroke-width:0.71;" width="7.1" x="610.955" y="929.8379"/><rect fill="#FFFFFF" height="111.0831" style="stroke:#181818;stroke-width:0.71;" width="7.1" x="789.875" y="181.0694"/><rect fill="#FFFFFF" height="22.2166" style="stroke:#181818;stroke-width:0.71;" width="7.1" x="961.695" y="203.286"/><rect fill="#FFFFFF" height="66.6499" style="stroke:#181818;stroke-width:0.71;" width="7.1" x="1108.31" y="403.2356"/><rect fill="#FFFFFF" height="22.2166" style="stroke:#181818;stroke-width:0.71;" width="7.1" x="1446.98" y="247.7193"/><rect fill="#FFFFFF" height="22.2166" style="stroke:#181818;stroke-width:0.71;" width="7.1" x="1567.325" y="425.4522"/><rect fill="#FFFFFF" height="53.6632" style="stroke:#181818;stroke-width:0.71;" width="7.1" x="1822.57" y="607.4452"/><rect fill="#FFFFFF" height="53.6632" style="stroke:#181818;stroke-width:0.71;" width="7.1" x="1822.57" y="727.7583"/><rect fill="#FFFFFF" height="85.1099" style="stroke:#181818;stroke-width:0.71;" width="7.1" x="1822.57" y="952.0545"/><rect fill="none" height="323.7919" style="stroke:#000000;stroke-width:1.065;" width="2190.35" x="7.1" y="836.5048"/><rect fill="none" height="243.9141" style="stroke:#000000;stroke-width:1.065;" width="2176.15" x="14.2" y="877.388"/><line style="stroke:#181818;stroke-width:0.355;stroke-dasharray:5.0,5.0;" x1="43.31" x2="43.31" y1="90.7829" y2="1172.3667"/><line style="stroke:#181818;stroke-width:0.355;stroke-dasharray:5.0,5.0;" x1="344.35" x2="344.35" y1="90.7829" y2="1172.3667"/><line style="stroke:#181818;stroke-width:0.355;stroke-dasharray:5.0,5.0;" x1="614.15" x2="614.15" y1="90.7829" y2="1172.3667"/><line style="stroke:#181818;stroke-width:0.355;stroke-dasharray:5.0,5.0;" x1="793.07" x2="793.07" y1="90.7829" y2="1172.3667"/><line style="stroke:#181818;stroke-width:0.355;stroke-dasharray:5.0,5.0;" x1="964.89" x2="964.89" y1="90.7829" y2="1172.3667"/><line style="stroke:#181818;stroke-width:0.355;stroke-dasharray:5.0,5.0;" x1="1111.86" x2="1111.86" y1="90.7829" y2="1172.3667"/><line style="stroke:#181818;stroke-width:0.355;stroke-dasharray:5.0,5.0;" x1="1297.17" x2="1297.17" y1="90.7829" y2="1172.3667"/><line style="stroke:#181818;stroke-width:0.355;stroke-dasharray:5.0,5.0;" x1="1450.53" x2="1450.53" y1="90.7829" y2="1172.3667"/><line style="stroke:#181818;stroke-width:0.355;stroke-dasharray:5.0,5.0;" x1="1570.52" x2="1570.52" y1="90.7829" y2="1172.3667"/><line style="stroke:#181818;stroke-width:0.355;stroke-dasharray:5.0,5.0;" x1="1703.29" x2="1703.29" y1="90.7829" y2="1172.3667"/><line style="stroke:#181818;stroke-width:0.355;stroke-dasharray:5.0,5.0;" x1="1826.12" x2="1826.12" y1="90.7829" y2="1172.3667"/><text fill="#000000" font-family="sans-serif" font-size="9.94" lengthAdjust="spacing" textLength="40.47" x="21.3" y="88.2882">Operator</text><ellipse cx="43.665" cy="40.997" fill="#E2E2F0" rx="5.68" ry="5.68" style="stroke:#181818;stroke-width:0.355;"/><path d="M43.665,46.677 L43.665,65.847 M34.435,52.357 L52.895,52.357 M43.665,65.847 L34.435,76.497 M43.665,65.847 L52.895,76.497 " fill="none" style="stroke:#181818;stroke-width:0.355;"/><text fill="#000000" font-family="sans-serif" font-size="9.94" lengthAdjust="spacing" textLength="40.47" x="21.3" y="1182.383">Operator</text><ellipse cx="43.665" cy="1190.9127" fill="#E2E2F0" rx="5.68" ry="5.68" style="stroke:#181818;stroke-width:0.355;"/><path d="M43.665,1196.5927 L43.665,1215.7627 M34.435,1202.2727 L52.895,1202.2727 M43.665,1215.7627 L34.435,1226.4127 M43.665,1215.7627 L52.895,1226.4127 " fill="none" style="stroke:#181818;stroke-width:0.355;"/><rect fill="#E2E2F0" height="36.382" rx="1.775" ry="1.775" style="stroke:#181818;stroke-width:0.355;" width="146.97" x="271.22" y="53.691"/><text fill="#000000" font-family="sans-serif" font-size="9.94" font-style="italic" lengthAdjust="spacing" textLength="67.45" x="310.98" y="69.3872">&#171;presentation&#187;</text><text fill="#000000" font-family="sans-serif" font-size="9.94" lengthAdjust="spacing" textLength="137.03" x="276.19" y="82.6082">UploadTextJobRequirementsUI</text><rect fill="#E2E2F0" height="36.382" rx="1.775" ry="1.775" style="stroke:#181818;stroke-width:0.355;" width="146.97" x="271.22" y="1171.6567"/><text fill="#000000" font-family="sans-serif" font-size="9.94" font-style="italic" lengthAdjust="spacing" textLength="67.45" x="310.98" y="1187.353">&#171;presentation&#187;</text><text fill="#000000" font-family="sans-serif" font-size="9.94" lengthAdjust="spacing" textLength="137.03" x="276.19" y="1200.5739">UploadTextJobRequirementsUI</text><rect fill="#E2E2F0" height="36.382" rx="1.775" ry="1.775" style="stroke:#181818;stroke-width:0.355;" width="182.47" x="523.27" y="53.691"/><text fill="#000000" font-family="sans-serif" font-size="9.94" font-style="italic" lengthAdjust="spacing" textLength="59.64" x="584.685" y="69.3872">&#171;application&#187;</text><text fill="#000000" font-family="sans-serif" font-size="9.94" lengthAdjust="spacing" textLength="172.53" x="528.24" y="82.6082">UploadTextJobRequirementsController</text><rect fill="#E2E2F0" height="36.382" rx="1.775" ry="1.775" style="stroke:#181818;stroke-width:0.355;" width="182.47" x="523.27" y="1171.6567"/><text fill="#000000" font-family="sans-serif" font-size="9.94" font-style="italic" lengthAdjust="spacing" textLength="59.64" x="584.685" y="1187.353">&#171;application&#187;</text><text fill="#000000" font-family="sans-serif" font-size="9.94" lengthAdjust="spacing" textLength="172.53" x="528.24" y="1200.5739">UploadTextJobRequirementsController</text><rect fill="#E2E2F0" height="36.382" rx="1.775" ry="1.775" style="stroke:#181818;stroke-width:0.355;" width="161.17" x="712.84" y="53.691"/><text fill="#000000" font-family="sans-serif" font-size="9.94" font-style="italic" lengthAdjust="spacing" textLength="42.6" x="772.125" y="69.3872">&#171;service&#187;</text><text fill="#000000" font-family="sans-serif" font-size="9.94" lengthAdjust="spacing" textLength="151.23" x="717.81" y="82.6082">: JobOpeningManagementService</text><rect fill="#E2E2F0" height="36.382" rx="1.775" ry="1.775" style="stroke:#181818;stroke-width:0.355;" width="161.17" x="712.84" y="1171.6567"/><text fill="#000000" font-family="sans-serif" font-size="9.94" font-style="italic" lengthAdjust="spacing" textLength="42.6" x="772.125" y="1187.353">&#171;service&#187;</text><text fill="#000000" font-family="sans-serif" font-size="9.94" lengthAdjust="spacing" textLength="151.23" x="717.81" y="1200.5739">: JobOpeningManagementService</text><rect fill="#E2E2F0" height="36.382" rx="1.775" ry="1.775" style="stroke:#181818;stroke-width:0.355;" width="107.21" x="911.64" y="53.691"/><text fill="#000000" font-family="sans-serif" font-size="9.94" font-style="italic" lengthAdjust="spacing" textLength="42.6" x="943.945" y="69.3872">&#171;service&#187;</text><text fill="#000000" font-family="sans-serif" font-size="9.94" lengthAdjust="spacing" textLength="97.27" x="916.61" y="82.6082">: AuthorizationService</text><rect fill="#E2E2F0" height="36.382" rx="1.775" ry="1.775" style="stroke:#181818;stroke-width:0.355;" width="107.21" x="911.64" y="1171.6567"/><text fill="#000000" font-family="sans-serif" font-size="9.94" font-style="italic" lengthAdjust="spacing" textLength="42.6" x="943.945" y="1187.353">&#171;service&#187;</text><text fill="#000000" font-family="sans-serif" font-size="9.94" lengthAdjust="spacing" textLength="97.27" x="916.61" y="1200.5739">: AuthorizationService</text><rect fill="#E2E2F0" height="36.382" rx="1.775" ry="1.775" style="stroke:#181818;stroke-width:0.355;" width="171.82" x="1025.95" y="53.691"/><text fill="#000000" font-family="sans-serif" font-size="9.94" font-style="italic" lengthAdjust="spacing" textLength="42.6" x="1090.56" y="69.3872">&#171;service&#187;</text><text fill="#000000" font-family="sans-serif" font-size="9.94" lengthAdjust="spacing" textLength="161.88" x="1030.92" y="82.6082">: JobApplicationManagementService</text><rect fill="#E2E2F0" height="36.382" rx="1.775" ry="1.775" style="stroke:#181818;stroke-width:0.355;" width="171.82" x="1025.95" y="1171.6567"/><text fill="#000000" font-family="sans-serif" font-size="9.94" font-style="italic" lengthAdjust="spacing" textLength="42.6" x="1090.56" y="1187.353">&#171;service&#187;</text><text fill="#000000" font-family="sans-serif" font-size="9.94" lengthAdjust="spacing" textLength="161.88" x="1030.92" y="1200.5739">: JobApplicationManagementService</text><rect fill="#E2E2F0" height="36.382" rx="1.775" ry="1.775" style="stroke:#181818;stroke-width:0.355;" width="185.31" x="1204.87" y="53.691"/><text fill="#000000" font-family="sans-serif" font-size="9.94" font-style="italic" lengthAdjust="spacing" textLength="42.6" x="1276.225" y="69.3872">&#171;service&#187;</text><text fill="#000000" font-family="sans-serif" font-size="9.94" lengthAdjust="spacing" textLength="175.37" x="1209.84" y="82.6082">: JobRequirementsManagementService</text><rect fill="#E2E2F0" height="36.382" rx="1.775" ry="1.775" style="stroke:#181818;stroke-width:0.355;" width="185.31" x="1204.87" y="1171.6567"/><text fill="#000000" font-family="sans-serif" font-size="9.94" font-style="italic" lengthAdjust="spacing" textLength="42.6" x="1276.225" y="1187.353">&#171;service&#187;</text><text fill="#000000" font-family="sans-serif" font-size="9.94" lengthAdjust="spacing" textLength="175.37" x="1209.84" y="1200.5739">: JobRequirementsManagementService</text><text fill="#000000" font-family="sans-serif" font-size="9.94" font-style="italic" lengthAdjust="spacing" textLength="56.09" x="1420.355" y="75.0672">&#171;repository&#187;</text><text fill="#000000" font-family="sans-serif" font-size="9.94" lengthAdjust="spacing" textLength="102.24" x="1397.28" y="88.2882">JobOpeningRepository</text><path d="M1437.75,38.781 C1437.75,31.681 1450.53,31.681 1450.53,31.681 C1450.53,31.681 1463.31,31.681 1463.31,38.781 L1463.31,57.241 C1463.31,64.341 1450.53,64.341 1450.53,64.341 C1450.53,64.341 1437.75,64.341 1437.75,57.241 L1437.75,38.781 " fill="#E2E2F0" style="stroke:#181818;stroke-width:1.065;"/><path d="M1437.75,38.781 C1437.75,45.881 1450.53,45.881 1450.53,45.881 C1450.53,45.881 1463.31,45.881 1463.31,38.781 " fill="none" style="stroke:#181818;stroke-width:1.065;"/><text fill="#000000" font-family="sans-serif" font-size="9.94" font-style="italic" lengthAdjust="spacing" textLength="56.09" x="1420.355" y="1182.383">&#171;repository&#187;</text><text fill="#000000" font-family="sans-serif" font-size="9.94" lengthAdjust="spacing" textLength="102.24" x="1397.28" y="1195.6039">JobOpeningRepository</text><path d="M1437.75,1205.1987 C1437.75,1198.0987 1450.53,1198.0987 1450.53,1198.0987 C1450.53,1198.0987 1463.31,1198.0987 1463.31,1205.1987 L1463.31,1223.6587 C1463.31,1230.7587 1450.53,1230.7587 1450.53,1230.7587 C1450.53,1230.7587 1437.75,1230.7587 1437.75,1223.6587 L1437.75,1205.1987 " fill="#E2E2F0" style="stroke:#181818;stroke-width:1.065;"/><path d="M1437.75,1205.1987 C1437.75,1212.2987 1450.53,1212.2987 1450.53,1212.2987 C1450.53,1212.2987 1463.31,1212.2987 1463.31,1205.1987 " fill="none" style="stroke:#181818;stroke-width:1.065;"/><text fill="#000000" font-family="sans-serif" font-size="9.94" font-style="italic" lengthAdjust="spacing" textLength="56.09" x="1540.7" y="75.0672">&#171;repository&#187;</text><text fill="#000000" font-family="sans-serif" font-size="9.94" lengthAdjust="spacing" textLength="115.73" x="1510.88" y="88.2882">JobApplicatitonRepository</text><path d="M1558.095,38.781 C1558.095,31.681 1570.875,31.681 1570.875,31.681 C1570.875,31.681 1583.655,31.681 1583.655,38.781 L1583.655,57.241 C1583.655,64.341 1570.875,64.341 1570.875,64.341 C1570.875,64.341 1558.095,64.341 1558.095,57.241 L1558.095,38.781 " fill="#E2E2F0" style="stroke:#181818;stroke-width:1.065;"/><path d="M1558.095,38.781 C1558.095,45.881 1570.875,45.881 1570.875,45.881 C1570.875,45.881 1583.655,45.881 1583.655,38.781 " fill="none" style="stroke:#181818;stroke-width:1.065;"/><text fill="#000000" font-family="sans-serif" font-size="9.94" font-style="italic" lengthAdjust="spacing" textLength="56.09" x="1540.7" y="1182.383">&#171;repository&#187;</text><text fill="#000000" font-family="sans-serif" font-size="9.94" lengthAdjust="spacing" textLength="115.73" x="1510.88" y="1195.6039">JobApplicatitonRepository</text><path d="M1558.095,1205.1987 C1558.095,1198.0987 1570.875,1198.0987 1570.875,1198.0987 C1570.875,1198.0987 1583.655,1198.0987 1583.655,1205.1987 L1583.655,1223.6587 C1583.655,1230.7587 1570.875,1230.7587 1570.875,1230.7587 C1570.875,1230.7587 1558.095,1230.7587 1558.095,1223.6587 L1558.095,1205.1987 " fill="#E2E2F0" style="stroke:#181818;stroke-width:1.065;"/><path d="M1558.095,1205.1987 C1558.095,1212.2987 1570.875,1212.2987 1570.875,1212.2987 C1570.875,1212.2987 1583.655,1212.2987 1583.655,1205.1987 " fill="none" style="stroke:#181818;stroke-width:1.065;"/><text fill="#000000" font-family="sans-serif" font-size="9.94" font-style="italic" lengthAdjust="spacing" textLength="56.09" x="1673.115" y="75.0672">&#171;repository&#187;</text><text fill="#000000" font-family="sans-serif" font-size="9.94" lengthAdjust="spacing" textLength="126.38" x="1637.97" y="88.2882">JobRequirementsRepository</text><path d="M1690.51,38.781 C1690.51,31.681 1703.29,31.681 1703.29,31.681 C1703.29,31.681 1716.07,31.681 1716.07,38.781 L1716.07,57.241 C1716.07,64.341 1703.29,64.341 1703.29,64.341 C1703.29,64.341 1690.51,64.341 1690.51,57.241 L1690.51,38.781 " fill="#E2E2F0" style="stroke:#181818;stroke-width:1.065;"/><path d="M1690.51,38.781 C1690.51,45.881 1703.29,45.881 1703.29,45.881 C1703.29,45.881 1716.07,45.881 1716.07,38.781 " fill="none" style="stroke:#181818;stroke-width:1.065;"/><text fill="#000000" font-family="sans-serif" font-size="9.94" font-style="italic" lengthAdjust="spacing" textLength="56.09" x="1673.115" y="1182.383">&#171;repository&#187;</text><text fill="#000000" font-family="sans-serif" font-size="9.94" lengthAdjust="spacing" textLength="126.38" x="1637.97" y="1195.6039">JobRequirementsRepository</text><path d="M1690.51,1205.1987 C1690.51,1198.0987 1703.29,1198.0987 1703.29,1198.0987 C1703.29,1198.0987 1716.07,1198.0987 1716.07,1205.1987 L1716.07,1223.6587 C1716.07,1230.7587 1703.29,1230.7587 1703.29,1230.7587 C1703.29,1230.7587 1690.51,1230.7587 1690.51,1223.6587 L1690.51,1205.1987 " fill="#E2E2F0" style="stroke:#181818;stroke-width:1.065;"/><path d="M1690.51,1205.1987 C1690.51,1212.2987 1703.29,1212.2987 1703.29,1212.2987 C1703.29,1212.2987 1716.07,1212.2987 1716.07,1205.1987 " fill="none" style="stroke:#181818;stroke-width:1.065;"/><rect fill="#E2E2F0" height="23.161" rx="1.775" ry="1.775" style="stroke:#181818;stroke-width:0.355;" width="100.82" x="1775.71" y="66.912"/><text fill="#000000" font-family="sans-serif" font-size="9.94" lengthAdjust="spacing" textLength="90.88" x="1780.68" y="82.6082">RequirementService</text><rect fill="#E2E2F0" height="23.161" rx="1.775" ry="1.775" style="stroke:#181818;stroke-width:0.355;" width="100.82" x="1775.71" y="1171.6567"/><text fill="#000000" font-family="sans-serif" font-size="9.94" lengthAdjust="spacing" textLength="90.88" x="1780.68" y="1187.353">RequirementService</text><rect fill="#FFFFFF" height="1067.3838" style="stroke:#181818;stroke-width:0.71;" width="7.1" x="40.115" y="97.8829"/><rect fill="#FFFFFF" height="222.1662" style="stroke:#181818;stroke-width:0.71;" width="7.1" x="341.155" y="114.4196"/><rect fill="#FFFFFF" height="155.5163" style="stroke:#181818;stroke-width:0.71;" width="7.1" x="341.155" y="358.8024"/><rect fill="#FFFFFF" height="330.2027" style="stroke:#181818;stroke-width:0.71;" width="7.1" x="341.155" y="536.5354"/><rect fill="#FFFFFF" height="257.6454" style="stroke:#181818;stroke-width:0.71;" width="7.1" x="341.155" y="907.6213"/><rect fill="#FFFFFF" height="177.733" style="stroke:#181818;stroke-width:0.71;" width="7.1" x="610.955" y="136.6362"/><rect fill="#FFFFFF" height="111.0831" style="stroke:#181818;stroke-width:0.71;" width="7.1" x="610.955" y="381.019"/><rect fill="#FFFFFF" height="98.0965" style="stroke:#181818;stroke-width:0.71;" width="7.1" x="610.955" y="585.2286"/><rect fill="#FFFFFF" height="98.0965" style="stroke:#181818;stroke-width:0.71;" width="7.1" x="610.955" y="705.5417"/><rect fill="#FFFFFF" height="129.5431" style="stroke:#181818;stroke-width:0.71;" width="7.1" x="610.955" y="929.8379"/><rect fill="#FFFFFF" height="111.0831" style="stroke:#181818;stroke-width:0.71;" width="7.1" x="789.875" y="181.0694"/><rect fill="#FFFFFF" height="22.2166" style="stroke:#181818;stroke-width:0.71;" width="7.1" x="961.695" y="203.286"/><rect fill="#FFFFFF" height="66.6499" style="stroke:#181818;stroke-width:0.71;" width="7.1" x="1108.31" y="403.2356"/><rect fill="#FFFFFF" height="22.2166" style="stroke:#181818;stroke-width:0.71;" width="7.1" x="1446.98" y="247.7193"/><rect fill="#FFFFFF" height="22.2166" style="stroke:#181818;stroke-width:0.71;" width="7.1" x="1567.325" y="425.4522"/><rect fill="#FFFFFF" height="53.6632" style="stroke:#181818;stroke-width:0.71;" width="7.1" x="1822.57" y="607.4452"/><rect fill="#FFFFFF" height="53.6632" style="stroke:#181818;stroke-width:0.71;" width="7.1" x="1822.57" y="727.7583"/><rect fill="#FFFFFF" height="85.1099" style="stroke:#181818;stroke-width:0.71;" width="7.1" x="1822.57" y="952.0545"/><polygon fill="#181818" points="332.635,111.5796,339.735,114.4196,332.635,117.2596,335.475,114.4196" style="stroke:#181818;stroke-width:0.71;"/><line style="stroke:#181818;stroke-width:0.71;stroke-dasharray:2.0,2.0;" x1="47.215" x2="336.895" y1="114.4196" y2="114.4196"/><text fill="#000000" font-family="sans-serif" font-size="9.23" lengthAdjust="spacing" textLength="186.73" x="52.185" y="110.683">Select the import file with response candidate</text><polygon fill="#181818" points="602.435,133.7962,609.535,136.6362,602.435,139.4762,605.275,136.6362" style="stroke:#181818;stroke-width:0.71;"/><line style="stroke:#181818;stroke-width:0.71;" x1="348.255" x2="606.695" y1="136.6362" y2="136.6362"/><text fill="#000000" font-family="sans-serif" font-size="9.23" lengthAdjust="spacing" textLength="31.24" x="353.225" y="132.8997">create()</text><polygon fill="#181818" points="602.435,156.0128,609.535,158.8528,602.435,161.6928,605.275,158.8528" style="stroke:#181818;stroke-width:0.71;"/><line style="stroke:#181818;stroke-width:0.71;" x1="348.255" x2="606.695" y1="158.8528" y2="158.8528"/><text fill="#000000" font-family="sans-serif" font-size="9.23" lengthAdjust="spacing" textLength="63.19" x="353.225" y="155.1163">allJobOpening()</text><polygon fill="#181818" points="781.355,178.2294,788.455,181.0694,781.355,183.9094,784.195,181.0694" style="stroke:#181818;stroke-width:0.71;"/><line style="stroke:#181818;stroke-width:0.71;" x1="618.055" x2="785.615" y1="181.0694" y2="181.0694"/><text fill="#000000" font-family="sans-serif" font-size="9.23" lengthAdjust="spacing" textLength="66.74" x="623.025" y="177.3329">findAllAvailable()</text><polygon fill="#181818" points="953.175,200.446,960.275,203.286,953.175,206.126,956.015,203.286" style="stroke:#181818;stroke-width:0.71;"/><line style="stroke:#181818;stroke-width:0.71;" x1="796.975" x2="957.435" y1="203.286" y2="203.286"/><text fill="#000000" font-family="sans-serif" font-size="9.23" lengthAdjust="spacing" textLength="151.23" x="801.945" y="199.5495">ensureAuthenticatedUserHasAnyOf()</text><polygon fill="#181818" points="804.785,222.6627,797.685,225.5027,804.785,228.3427,801.945,225.5027" style="stroke:#181818;stroke-width:0.71;"/><line style="stroke:#181818;stroke-width:0.71;stroke-dasharray:2.0,2.0;" x1="800.525" x2="964.535" y1="225.5027" y2="225.5027"/><text fill="#000000" font-family="sans-serif" font-size="9.23" lengthAdjust="spacing" textLength="107.92" x="809.045" y="221.7661">(in)success authentication</text><polygon fill="#181818" points="1438.46,244.8793,1445.56,247.7193,1438.46,250.5593,1441.3,247.7193" style="stroke:#181818;stroke-width:0.71;"/><line style="stroke:#181818;stroke-width:0.71;" x1="796.975" x2="1442.72" y1="247.7193" y2="247.7193"/><text fill="#000000" font-family="sans-serif" font-size="9.23" lengthAdjust="spacing" textLength="30.53" x="801.945" y="243.9828">findAll()</text><polygon fill="#181818" points="804.785,267.0959,797.685,269.9359,804.785,272.7759,801.945,269.9359" style="stroke:#181818;stroke-width:0.71;"/><line style="stroke:#181818;stroke-width:0.71;stroke-dasharray:2.0,2.0;" x1="800.525" x2="1449.82" y1="269.9359" y2="269.9359"/><text fill="#000000" font-family="sans-serif" font-size="9.23" lengthAdjust="spacing" textLength="51.12" x="809.045" y="266.1994">jobOpenings</text><polygon fill="#181818" points="625.865,289.3125,618.765,292.1525,625.865,294.9925,623.025,292.1525" style="stroke:#181818;stroke-width:0.71;"/><line style="stroke:#181818;stroke-width:0.71;stroke-dasharray:2.0,2.0;" x1="621.605" x2="792.715" y1="292.1525" y2="292.1525"/><text fill="#000000" font-family="sans-serif" font-size="9.23" lengthAdjust="spacing" textLength="51.12" x="630.125" y="288.416">jobOpenings</text><polygon fill="#181818" points="356.065,311.5291,348.965,314.3691,356.065,317.2091,353.225,314.3691" style="stroke:#181818;stroke-width:0.71;"/><line style="stroke:#181818;stroke-width:0.71;stroke-dasharray:2.0,2.0;" x1="351.805" x2="613.795" y1="314.3691" y2="314.3691"/><text fill="#000000" font-family="sans-serif" font-size="9.23" lengthAdjust="spacing" textLength="51.12" x="360.325" y="310.6326">jobOpenings</text><polygon fill="#181818" points="55.025,333.7458,47.925,336.5858,55.025,339.4258,52.185,336.5858" style="stroke:#181818;stroke-width:0.71;"/><line style="stroke:#181818;stroke-width:0.71;stroke-dasharray:2.0,2.0;" x1="50.765" x2="343.995" y1="336.5858" y2="336.5858"/><text fill="#000000" font-family="sans-serif" font-size="9.23" lengthAdjust="spacing" textLength="76.68" x="59.285" y="332.8492">list of job openings</text><polygon fill="#181818" points="332.635,355.9624,339.735,358.8024,332.635,361.6424,335.475,358.8024" style="stroke:#181818;stroke-width:0.71;"/><line style="stroke:#181818;stroke-width:0.71;" x1="47.215" x2="336.895" y1="358.8024" y2="358.8024"/><text fill="#000000" font-family="sans-serif" font-size="9.23" lengthAdjust="spacing" textLength="83.07" x="52.185" y="355.0659">Select a jobOpening</text><polygon fill="#181818" points="602.435,378.179,609.535,381.019,602.435,383.859,605.275,381.019" style="stroke:#181818;stroke-width:0.71;"/><line style="stroke:#181818;stroke-width:0.71;" x1="348.255" x2="606.695" y1="381.019" y2="381.019"/><text fill="#000000" font-family="sans-serif" font-size="9.23" lengthAdjust="spacing" textLength="222.23" x="353.225" y="377.2825">allJobApplicationsByJobOpening(selectedJobOpening)</text><polygon fill="#181818" points="1099.79,400.3956,1106.89,403.2356,1099.79,406.0756,1102.63,403.2356" style="stroke:#181818;stroke-width:0.71;"/><line style="stroke:#181818;stroke-width:0.71;" x1="618.055" x2="1104.05" y1="403.2356" y2="403.2356"/><text fill="#000000" font-family="sans-serif" font-size="9.23" lengthAdjust="spacing" textLength="118.57" x="623.025" y="399.4991">jobApplicationOf(jobOpening)</text><polygon fill="#181818" points="1558.805,422.6122,1565.905,425.4522,1558.805,428.2922,1561.645,425.4522" style="stroke:#181818;stroke-width:0.71;"/><line style="stroke:#181818;stroke-width:0.71;" x1="1115.41" x2="1563.065" y1="425.4522" y2="425.4522"/><text fill="#000000" font-family="sans-serif" font-size="9.23" lengthAdjust="spacing" textLength="190.28" x="1120.38" y="421.7157">findJobApplicationsByJobOpening(jobOpening)</text><polygon fill="#181818" points="1123.22,444.8289,1116.12,447.6689,1123.22,450.5089,1120.38,447.6689" style="stroke:#181818;stroke-width:0.71;"/><line style="stroke:#181818;stroke-width:0.71;stroke-dasharray:2.0,2.0;" x1="1118.96" x2="1570.165" y1="447.6689" y2="447.6689"/><text fill="#000000" font-family="sans-serif" font-size="9.23" lengthAdjust="spacing" textLength="62.48" x="1127.48" y="443.9324">jobApplications</text><polygon fill="#181818" points="625.865,467.0455,618.765,469.8855,625.865,472.7255,623.025,469.8855" style="stroke:#181818;stroke-width:0.71;"/><line style="stroke:#181818;stroke-width:0.71;stroke-dasharray:2.0,2.0;" x1="621.605" x2="1111.15" y1="469.8855" y2="469.8855"/><text fill="#000000" font-family="sans-serif" font-size="9.23" lengthAdjust="spacing" textLength="62.48" x="630.125" y="466.149">jobApplications</text><polygon fill="#181818" points="356.065,489.2621,348.965,492.1021,356.065,494.9421,353.225,492.1021" style="stroke:#181818;stroke-width:0.71;"/><line style="stroke:#181818;stroke-width:0.71;stroke-dasharray:2.0,2.0;" x1="351.805" x2="613.795" y1="492.1021" y2="492.1021"/><text fill="#000000" font-family="sans-serif" font-size="9.23" lengthAdjust="spacing" textLength="62.48" x="360.325" y="488.3656">jobApplications</text><polygon fill="#181818" points="55.025,511.4787,47.925,514.3187,55.025,517.1587,52.185,514.3187" style="stroke:#181818;stroke-width:0.71;"/><line style="stroke:#181818;stroke-width:0.71;stroke-dasharray:2.0,2.0;" x1="50.765" x2="343.995" y1="514.3187" y2="514.3187"/><text fill="#000000" font-family="sans-serif" font-size="9.23" lengthAdjust="spacing" textLength="88.75" x="59.285" y="510.5822">list of job applications</text><polygon fill="#181818" points="332.635,533.6954,339.735,536.5354,332.635,539.3754,335.475,536.5354" style="stroke:#181818;stroke-width:0.71;"/><line style="stroke:#181818;stroke-width:0.71;" x1="47.215" x2="336.895" y1="536.5354" y2="536.5354"/><text fill="#000000" font-family="sans-serif" font-size="9.23" lengthAdjust="spacing" textLength="94.43" x="52.185" y="532.7988">Select a jobApplication</text><path d="M50.41,545.7654 L50.41,564.9354 L239.98,564.9354 L239.98,552.8654 L232.88,545.7654 L50.41,545.7654 " fill="#FEFFDD" style="stroke:#181818;stroke-width:0.355;"/><path d="M232.88,545.7654 L232.88,552.8654 L239.98,552.8654 L232.88,545.7654 " fill="#FEFFDD" style="stroke:#181818;stroke-width:0.355;"/><text fill="#000000" font-family="sans-serif" font-size="9.23" lengthAdjust="spacing" textLength="174.66" x="54.67" y="559.2755">Export automatically the text requirements</text><polygon fill="#181818" points="602.435,582.3886,609.535,585.2286,602.435,588.0686,605.275,585.2286" style="stroke:#181818;stroke-width:0.71;"/><line style="stroke:#181818;stroke-width:0.71;" x1="348.255" x2="606.695" y1="585.2286" y2="585.2286"/><text fill="#000000" font-family="sans-serif" font-size="9.23" lengthAdjust="spacing" textLength="139.87" x="353.225" y="581.4921">searchJobRequirements(fileName)</text><polygon fill="#181818" points="1814.05,604.6052,1821.15,607.4452,1814.05,610.2852,1816.89,607.4452" style="stroke:#181818;stroke-width:0.71;"/><line style="stroke:#181818;stroke-width:0.71;" x1="618.055" x2="1818.31" y1="607.4452" y2="607.4452"/><text fill="#000000" font-family="sans-serif" font-size="9.23" lengthAdjust="spacing" textLength="104.37" x="623.025" y="603.7087">searchJobRequirements()</text><line style="stroke:#181818;stroke-width:0.71;" x1="1829.67" x2="1859.49" y1="629.6618" y2="629.6618"/><line style="stroke:#181818;stroke-width:0.71;" x1="1859.49" x2="1859.49" y1="629.6618" y2="638.8918"/><line style="stroke:#181818;stroke-width:0.71;" x1="1830.38" x2="1859.49" y1="638.8918" y2="638.8918"/><polygon fill="#181818" points="1837.48,636.0518,1830.38,638.8918,1837.48,641.7318,1834.64,638.8918" style="stroke:#181818;stroke-width:0.71;"/><text fill="#000000" font-family="sans-serif" font-size="9.23" lengthAdjust="spacing" textLength="71" x="1834.64" y="625.9253">fullPath.toString()</text><polygon fill="#181818" points="625.865,658.2685,618.765,661.1085,625.865,663.9485,623.025,661.1085" style="stroke:#181818;stroke-width:0.71;"/><line style="stroke:#181818;stroke-width:0.71;stroke-dasharray:2.0,2.0;" x1="621.605" x2="1825.41" y1="661.1085" y2="661.1085"/><text fill="#000000" font-family="sans-serif" font-size="9.23" lengthAdjust="spacing" textLength="71" x="630.125" y="657.3719">fullPath.toString()</text><polygon fill="#181818" points="356.065,680.4851,348.965,683.3251,356.065,686.1651,353.225,683.3251" style="stroke:#181818;stroke-width:0.71;"/><line style="stroke:#181818;stroke-width:0.71;stroke-dasharray:2.0,2.0;" x1="351.805" x2="613.795" y1="683.3251" y2="683.3251"/><text fill="#000000" font-family="sans-serif" font-size="9.23" lengthAdjust="spacing" textLength="71" x="360.325" y="679.5886">fullPath.toString()</text><polygon fill="#181818" points="602.435,702.7017,609.535,705.5417,602.435,708.3817,605.275,705.5417" style="stroke:#181818;stroke-width:0.71;"/><line style="stroke:#181818;stroke-width:0.71;" x1="348.255" x2="606.695" y1="705.5417" y2="705.5417"/><text fill="#000000" font-family="sans-serif" font-size="9.23" lengthAdjust="spacing" textLength="179.63" x="353.225" y="701.8052">exportTextRequirements(filePath, nameFile)</text><polygon fill="#181818" points="1814.05,724.9183,1821.15,727.7583,1814.05,730.5983,1816.89,727.7583" style="stroke:#181818;stroke-width:0.71;"/><line style="stroke:#181818;stroke-width:0.71;" x1="618.055" x2="1818.31" y1="727.7583" y2="727.7583"/><text fill="#000000" font-family="sans-serif" font-size="9.23" lengthAdjust="spacing" textLength="179.63" x="623.025" y="724.0218">exportTextRequirements(filePath, nameFile)</text><line style="stroke:#181818;stroke-width:0.71;" x1="1829.67" x2="1859.49" y1="749.9749" y2="749.9749"/><line style="stroke:#181818;stroke-width:0.71;" x1="1859.49" x2="1859.49" y1="749.9749" y2="759.2049"/><line style="stroke:#181818;stroke-width:0.71;" x1="1830.38" x2="1859.49" y1="759.2049" y2="759.2049"/><polygon fill="#181818" points="1837.48,756.3649,1830.38,759.2049,1837.48,762.0449,1834.64,759.2049" style="stroke:#181818;stroke-width:0.71;"/><text fill="#000000" font-family="sans-serif" font-size="9.23" lengthAdjust="spacing" textLength="347.19" x="1834.64" y="746.2384">Files.copy(sourcePath. destinationPath. StandardCopyOption.REPLACE_EXISTING)</text><polygon fill="#181818" points="625.865,778.5816,618.765,781.4216,625.865,784.2616,623.025,781.4216" style="stroke:#181818;stroke-width:0.71;"/><line style="stroke:#181818;stroke-width:0.71;stroke-dasharray:2.0,2.0;" x1="621.605" x2="1825.41" y1="781.4216" y2="781.4216"/><text fill="#000000" font-family="sans-serif" font-size="9.23" lengthAdjust="spacing" textLength="178.92" x="630.125" y="777.685">file (not)exported to downloads successfully</text><polygon fill="#181818" points="356.065,800.7982,348.965,803.6382,356.065,806.4782,353.225,803.6382" style="stroke:#181818;stroke-width:0.71;"/><line style="stroke:#181818;stroke-width:0.71;stroke-dasharray:2.0,2.0;" x1="351.805" x2="613.795" y1="803.6382" y2="803.6382"/><text fill="#000000" font-family="sans-serif" font-size="9.23" lengthAdjust="spacing" textLength="178.92" x="360.325" y="799.9017">file (not)exported to downloads successfully</text><polygon fill="#181818" points="55.025,823.0148,47.925,825.8548,55.025,828.6948,52.185,825.8548" style="stroke:#181818;stroke-width:0.71;"/><line style="stroke:#181818;stroke-width:0.71;stroke-dasharray:2.0,2.0;" x1="50.765" x2="340.445" y1="825.8548" y2="825.8548"/><text fill="#000000" font-family="sans-serif" font-size="9.23" lengthAdjust="spacing" textLength="178.92" x="59.285" y="822.1183">file (not)exported to downloads successfully</text><path d="M7.1,836.5048 L50.41,836.5048 L50.41,843.1014 L43.31,850.2014 L7.1,850.2014 L7.1,836.5048 " fill="#EEEEEE" style="stroke:#000000;stroke-width:1.065;"/><rect fill="none" height="323.7919" style="stroke:#000000;stroke-width:1.065;" width="2190.35" x="7.1" y="836.5048"/><text fill="#000000" font-family="sans-serif" font-size="9.23" font-weight="bold" lengthAdjust="spacing" textLength="11.36" x="17.75" y="847.1749">alt</text><text fill="#000000" font-family="sans-serif" font-size="7.81" font-weight="bold" lengthAdjust="spacing" textLength="114.31" x="61.06" y="846.3526">[if file exported successfully]</text><polygon fill="#181818" points="55.025,863.898,47.925,866.738,55.025,869.578,52.185,866.738" style="stroke:#181818;stroke-width:0.71;"/><line style="stroke:#181818;stroke-width:0.71;" x1="50.765" x2="343.995" y1="866.738" y2="866.738"/><text fill="#000000" font-family="sans-serif" font-size="9.23" lengthAdjust="spacing" textLength="276.9" x="59.285" y="863.0015">File exported successfully and Display if you want to import the file.</text><path d="M14.2,877.388 L57.51,877.388 L57.51,883.9847 L50.41,891.0847 L14.2,891.0847 L14.2,877.388 " fill="#EEEEEE" style="stroke:#000000;stroke-width:1.065;"/><rect fill="none" height="243.9141" style="stroke:#000000;stroke-width:1.065;" width="2176.15" x="14.2" y="877.388"/><text fill="#000000" font-family="sans-serif" font-size="9.23" font-weight="bold" lengthAdjust="spacing" textLength="11.36" x="24.85" y="888.0582">alt</text><text fill="#000000" font-family="sans-serif" font-size="7.81" font-weight="bold" lengthAdjust="spacing" textLength="68.87" x="68.16" y="887.2358">[if answer="Yes"]</text><polygon fill="#181818" points="332.635,904.7813,339.735,907.6213,332.635,910.4613,335.475,907.6213" style="stroke:#181818;stroke-width:0.71;"/><line style="stroke:#181818;stroke-width:0.71;" x1="47.215" x2="336.895" y1="907.6213" y2="907.6213"/><text fill="#000000" font-family="sans-serif" font-size="9.23" lengthAdjust="spacing" textLength="111.47" x="52.185" y="903.8848">Enter the file path to import</text><polygon fill="#181818" points="602.435,926.9979,609.535,929.8379,602.435,932.6779,605.275,929.8379" style="stroke:#181818;stroke-width:0.71;"/><line style="stroke:#181818;stroke-width:0.71;" x1="348.255" x2="606.695" y1="929.8379" y2="929.8379"/><text fill="#000000" font-family="sans-serif" font-size="9.23" lengthAdjust="spacing" textLength="249.21" x="353.225" y="926.1014">importTextRequirements(filePath, destinationPath, nameFile)</text><polygon fill="#181818" points="1814.05,949.2145,1821.15,952.0545,1814.05,954.8945,1816.89,952.0545" style="stroke:#181818;stroke-width:0.71;"/><line style="stroke:#181818;stroke-width:0.71;" x1="618.055" x2="1818.31" y1="952.0545" y2="952.0545"/><text fill="#000000" font-family="sans-serif" font-size="9.23" lengthAdjust="spacing" textLength="281.16" x="623.025" y="948.318">importTextRequirements(downloadsPath, destinationPath, nameFile)</text><line style="stroke:#181818;stroke-width:0.71;" x1="1829.67" x2="1859.49" y1="974.2712" y2="974.2712"/><line style="stroke:#181818;stroke-width:0.71;" x1="1859.49" x2="1859.49" y1="974.2712" y2="983.5012"/><line style="stroke:#181818;stroke-width:0.71;" x1="1830.38" x2="1859.49" y1="983.5012" y2="983.5012"/><polygon fill="#181818" points="1837.48,980.6612,1830.38,983.5012,1837.48,986.3412,1834.64,983.5012" style="stroke:#181818;stroke-width:0.71;"/><text fill="#000000" font-family="sans-serif" font-size="9.23" lengthAdjust="spacing" textLength="275.48" x="1834.64" y="970.5346">copyFile(destination, pathdownloadsPath, nameFile, newFileName)</text><line style="stroke:#181818;stroke-width:0.71;" x1="1829.67" x2="1859.49" y1="1005.7178" y2="1005.7178"/><line style="stroke:#181818;stroke-width:0.71;" x1="1859.49" x2="1859.49" y1="1005.7178" y2="1014.9478"/><line style="stroke:#181818;stroke-width:0.71;" x1="1830.38" x2="1859.49" y1="1014.9478" y2="1014.9478"/><polygon fill="#181818" points="1837.48,1012.1078,1830.38,1014.9478,1837.48,1017.7878,1834.64,1014.9478" style="stroke:#181818;stroke-width:0.71;"/><text fill="#000000" font-family="sans-serif" font-size="9.23" lengthAdjust="spacing" textLength="347.19" x="1834.64" y="1001.9813">Files.copy(sourcePath, destinationPath, StandardCopyOption.REPLACE_EXISTING)</text><polygon fill="#181818" points="625.865,1034.3244,618.765,1037.1644,625.865,1040.0044,623.025,1037.1644" style="stroke:#181818;stroke-width:0.71;"/><line style="stroke:#181818;stroke-width:0.71;stroke-dasharray:2.0,2.0;" x1="621.605" x2="1825.41" y1="1037.1644" y2="1037.1644"/><text fill="#000000" font-family="sans-serif" font-size="9.23" lengthAdjust="spacing" textLength="190.28" x="630.125" y="1033.4279">file (not)imported to path SCOMP successfully</text><polygon fill="#181818" points="356.065,1056.541,348.965,1059.381,356.065,1062.221,353.225,1059.381" style="stroke:#181818;stroke-width:0.71;"/><line style="stroke:#181818;stroke-width:0.71;stroke-dasharray:2.0,2.0;" x1="351.805" x2="613.795" y1="1059.381" y2="1059.381"/><text fill="#000000" font-family="sans-serif" font-size="9.23" lengthAdjust="spacing" textLength="190.28" x="360.325" y="1055.6445">file (not)imported to path SCOMP successfully</text><polygon fill="#181818" points="55.025,1078.7576,47.925,1081.5976,55.025,1084.4376,52.185,1081.5976" style="stroke:#181818;stroke-width:0.71;"/><line style="stroke:#181818;stroke-width:0.71;stroke-dasharray:2.0,2.0;" x1="50.765" x2="340.445" y1="1081.5976" y2="1081.5976"/><text fill="#000000" font-family="sans-serif" font-size="9.23" lengthAdjust="spacing" textLength="49.7" x="59.285" y="1077.8611">file imported</text><line style="stroke:#000000;stroke-width:0.71;stroke-dasharray:2.0,2.0;" x1="14.2" x2="2190.35" y1="1087.9876" y2="1087.9876"/><text fill="#000000" font-family="sans-serif" font-size="7.81" font-weight="bold" lengthAdjust="spacing" textLength="63.9" x="17.75" y="1096.4154">[if answer="No"]</text><polygon fill="#181818" points="55.025,1112.7822,47.925,1115.6222,55.025,1118.4622,52.185,1115.6222" style="stroke:#181818;stroke-width:0.71;"/><line style="stroke:#181818;stroke-width:0.71;stroke-dasharray:2.0,2.0;" x1="50.765" x2="340.445" y1="1115.6222" y2="1115.6222"/><text fill="#000000" font-family="sans-serif" font-size="9.23" lengthAdjust="spacing" textLength="68.87" x="59.285" y="1111.8857">File not imported</text><line style="stroke:#000000;stroke-width:0.71;stroke-dasharray:2.0,2.0;" x1="7.1" x2="2197.45" y1="1126.9822" y2="1126.9822"/><text fill="#000000" font-family="sans-serif" font-size="7.81" font-weight="bold" lengthAdjust="spacing" textLength="129.22" x="10.65" y="1135.41">[if file not exported successfully]</text><polygon fill="#181818" points="55.025,1151.7767,47.925,1154.6167,55.025,1157.4567,52.185,1154.6167" style="stroke:#181818;stroke-width:0.71;"/><line style="stroke:#181818;stroke-width:0.71;stroke-dasharray:2.0,2.0;" x1="50.765" x2="340.445" y1="1154.6167" y2="1154.6167"/><text fill="#000000" font-family="sans-serif" font-size="9.23" lengthAdjust="spacing" textLength="122.83" x="59.285" y="1150.8802">File not exported successfully</text><!--SRC=[jLZVZ-8s47xFNs7n1DA1Jkf39KHNeYpRKlLsLyiXjKydRsB0TyPEOxDSxg_lE874IUp4OJaU4F6FRxuPppVZ8BzH7kC47r2CmszuHzOgPGGb95IOxnW9PB50xd4aJfJlq1OpQSumoebAOu9YmLBz41YJ8SDIpfLAwEjHaLKe-9h-8EXZ42YgmDIQ_7SaF2JedkATtZ1Stu_G66qM7t_vDGXmg4I2dcAIOFq3o-9t0FYAXZJ6NA5Dp0IEFfFlwY_n-WAGD247mfNShFGU-9xDueH86CAA2dvtvxTz8RXA16CaCsqypMOuZXaDRMY3AG8OuCaXMfymXx1gi3L9tcX81Xgfd3-F8a2K-SycsloezYAXFp9Z9eoUk02qx0ThyvAjav6nnW_KZ9GTrLnXmmmYhF0hbiI8o0k9XQHmmcarKiRuR9OK3u1YWXHEAC4RI8x95ZZJWGQSOx86ftEOlc55ojGD47oAf1wFxo13fo051hf3QayGFSGYKMXBGI4dglQWI1aB3fn2p2CA34c6KK1lLa6E2gaES6McJb6O45Wn7ENpvgPoLJ67R1XeYZ1ZvKbehCe6_J6Mm-PcWa_16nxD6Pk_OShmApCfLMWrzZQD8Oi1i6hgOOe8byU4w34u87ti9Df0wls9vPodJzkQ-IOF0ys-KdzCasE7uqFAH_8OXaHAX4iwe3CxRaHyELYZO9LC4VvEjstRtVvRZRa2yRKOavsU-zAmXA2Ul2wpLclMQ9l9dQdLWMeWMiIbTGMx2-5FeNLAXSHMOo5H0JEGjBRF26NDE9Curmnii36Oso2wLMxq0VbxQiXUPiP8L0xPSgcplBJK34iBoW9jZ8DmlxRQT-Hq4xfzxpctB8ngLAkz9DTPMnIzsRTwKR7gXrFtg4fyx7q2qizSLLtN4dSSWKNY_WmTp3eJmr45EWotruIA7Dt50Jjjs0j5TxKmM5SsSG582TtjCzl5bQLET_azkw50EnC7hDiPOsbsTL5mYuRhIdapgcmbFCeiL8dshLEIu2JSrsvWGtrRUiG7qjNWkkjIlJ8PPafHs4duLgGcPBSMB3HSvBP7nfwnsa-KMCExb-FEvcEW7dihigVQ-ZXj4vktRK_DjQKPt1-p5DTlXOqqqoG-80x9zW1F7dMyDvqUYNXBdZV9qojpLbEKar34wL2AOn9cx2Tmbb9HdXMgV62ju1q89z42LZx5Udpoidp-UxvOVbd-irf_NZt-CNe_oKRUwtUn8TIkKHvl4Y4bK2HENFzt8D7vWgzJj4S_lb8SdKAvATahr6JlQBUbXPb2T9k35dZzZo4Nli7omGc88F7GFPKnmwasdOeZEkd_Gy2ByokxRe6QqQJt9SdM-rhSnboUIFBRu5yY1tuR6zU19LUGD1V6A0PrbPxql9lwidTqzDncImshLO7t5RM-HRX7CNOuKkJuxRovQPdkMQfraTPqXuOZ7x84gZbwyGj-aTD3-mNjPxOHIyZzsiXDcBfxIPukUHtCzBTUF7rwlhAPtAYX-3MMcpA_iiDqT9eBHSzJ94mIix8-Yi5xA6Hj129bqF1YmJqMNgXkBpRUsVySpAz4RNN1EEhg_-6z5rPxfstv_m00]--></g></svg>