<?xml version="1.0" encoding="us-ascii" standalone="no"?><svg xmlns="http://www.w3.org/2000/svg" xmlns:xlink="http://www.w3.org/1999/xlink" contentStyleType="text/css" height="604px" preserveAspectRatio="none" style="width:688px;height:604px;background:#FFFFFF;" version="1.1" viewBox="0 0 688 604" width="688px" zoomAndPan="magnify"><defs/><g><text fill="#000000" font-family="sans-serif" font-size="14" font-weight="bold" lengthAdjust="spacing" textLength="194" x="240" y="25.1074">Domain Model (DM) - UC040</text><!--cluster CandidateAggregate--><g id="cluster_CandidateAggregate"><rect fill="none" height="106" rx="2.5" ry="2.5" style="stroke:#000000;stroke-width:1.5;" width="160" x="210" y="46.6211"/><text fill="#000000" font-family="sans-serif" font-size="14" font-weight="bold" lengthAdjust="spacing" textLength="144" x="218" y="63.7285">CandidateAggregate</text></g><!--cluster JobApplicationAggregate--><g id="cluster_JobApplicationAggregate"><rect fill="none" height="261" rx="2.5" ry="2.5" style="stroke:#000000;stroke-width:1.5;" width="368" x="7" y="203.6211"/><text fill="#000000" font-family="sans-serif" font-size="14" font-weight="bold" lengthAdjust="spacing" textLength="177" x="102.5" y="220.7285">JobApplicationAggregate</text></g><!--cluster JobOpeningAggregate--><g id="cluster_JobOpeningAggregate"><rect fill="none" height="240" rx="2.5" ry="2.5" style="stroke:#000000;stroke-width:1.5;" width="283" x="399" y="358.6211"/><text fill="#000000" font-family="sans-serif" font-size="14" font-weight="bold" lengthAdjust="spacing" textLength="159" x="461" y="375.7285">JobOpeningAggregate</text></g><!--class Candidate--><g id="elem_Candidate"><rect codeLine="12" fill="#F1F1F1" height="52.582" id="Candidate" rx="2.5" ry="2.5" style="stroke:#181818;stroke-width:0.5;" width="71" x="254.5" y="83.6211"/><text fill="#000000" font-family="sans-serif" font-size="12" font-style="italic" lengthAdjust="spacing" textLength="35" x="272.5" y="101.5703">&#171;root&#187;</text><text fill="#000000" font-family="sans-serif" font-size="14" lengthAdjust="spacing" textLength="65" x="257.5" y="119.6895">Candidate</text><line style="stroke:#181818;stroke-width:0.5;" x1="255.5" x2="324.5" y1="128.2031" y2="128.2031"/></g><!--class JobApplication--><g id="elem_JobApplication"><rect codeLine="16" fill="#F1F1F1" height="52.582" id="JobApplication" rx="2.5" ry="2.5" style="stroke:#181818;stroke-width:0.5;" width="97" x="241.5" y="240.6211"/><text fill="#000000" font-family="sans-serif" font-size="12" font-style="italic" lengthAdjust="spacing" textLength="35" x="272.5" y="258.5703">&#171;root&#187;</text><text fill="#000000" font-family="sans-serif" font-size="14" lengthAdjust="spacing" textLength="91" x="244.5" y="276.6895">JobApplication</text><line style="stroke:#181818;stroke-width:0.5;" x1="242.5" x2="337.5" y1="285.2031" y2="285.2031"/></g><!--class JobApplicationReference--><g id="elem_JobApplicationReference"><rect codeLine="18" fill="#F1F1F1" height="52.582" id="JobApplicationReference" rx="2.5" ry="2.5" style="stroke:#181818;stroke-width:0.5;" width="163" x="23.5" y="395.6211"/><text fill="#000000" font-family="sans-serif" font-size="12" font-style="italic" lengthAdjust="spacing" textLength="81" x="64.5" y="413.5703">&#171;value object&#187;</text><text fill="#000000" font-family="sans-serif" font-size="14" lengthAdjust="spacing" textLength="157" x="26.5" y="431.6895">JobApplicationReference</text><line style="stroke:#181818;stroke-width:0.5;" x1="24.5" x2="185.5" y1="440.2031" y2="440.2031"/></g><!--class JobApplicationStatus--><g id="elem_JobApplicationStatus"><rect codeLine="20" fill="#F1F1F1" height="52.582" id="JobApplicationStatus" rx="2.5" ry="2.5" style="stroke:#181818;stroke-width:0.5;" width="137" x="221.5" y="395.6211"/><text fill="#000000" font-family="sans-serif" font-size="12" font-style="italic" lengthAdjust="spacing" textLength="81" x="249.5" y="413.5703">&#171;value object&#187;</text><text fill="#000000" font-family="sans-serif" font-size="14" lengthAdjust="spacing" textLength="131" x="224.5" y="431.6895">JobApplicationStatus</text><line style="stroke:#181818;stroke-width:0.5;" x1="222.5" x2="357.5" y1="440.2031" y2="440.2031"/></g><!--class JobOpening--><g id="elem_JobOpening"><rect codeLine="24" fill="#F1F1F1" height="52.582" id="JobOpening" rx="2.5" ry="2.5" style="stroke:#181818;stroke-width:0.5;" width="82" x="421" y="395.6211"/><text fill="#000000" font-family="sans-serif" font-size="12" font-style="italic" lengthAdjust="spacing" textLength="35" x="444.5" y="413.5703">&#171;root&#187;</text><text fill="#000000" font-family="sans-serif" font-size="14" lengthAdjust="spacing" textLength="76" x="424" y="431.6895">JobOpening</text><line style="stroke:#181818;stroke-width:0.5;" x1="422" x2="502" y1="440.2031" y2="440.2031"/></g><!--class JobReference--><g id="elem_JobReference"><rect codeLine="26" fill="#F1F1F1" height="52.582" id="JobReference" rx="2.5" ry="2.5" style="stroke:#181818;stroke-width:0.5;" width="94" x="415" y="529.6211"/><text fill="#000000" font-family="sans-serif" font-size="12" font-style="italic" lengthAdjust="spacing" textLength="81" x="421.5" y="547.5703">&#171;value object&#187;</text><text fill="#000000" font-family="sans-serif" font-size="14" lengthAdjust="spacing" textLength="88" x="418" y="565.6895">JobReference</text><line style="stroke:#181818;stroke-width:0.5;" x1="416" x2="508" y1="574.2031" y2="574.2031"/></g><!--class JobOpeningStatus--><g id="elem_JobOpeningStatus"><rect codeLine="28" fill="#F1F1F1" height="52.582" id="JobOpeningStatus" rx="2.5" ry="2.5" style="stroke:#181818;stroke-width:0.5;" width="122" x="544" y="529.6211"/><text fill="#000000" font-family="sans-serif" font-size="12" font-style="italic" lengthAdjust="spacing" textLength="81" x="564.5" y="547.5703">&#171;value object&#187;</text><text fill="#000000" font-family="sans-serif" font-size="14" lengthAdjust="spacing" textLength="116" x="547" y="565.6895">JobOpeningStatus</text><line style="stroke:#181818;stroke-width:0.5;" x1="545" x2="665" y1="574.2031" y2="574.2031"/></g><!--link Candidate to JobApplication--><g id="link_Candidate_JobApplication"><path codeLine="31" d="M290,136.7211 C290,165.4311 290,205.7511 290,234.4911 " fill="none" id="Candidate-to-JobApplication" style="stroke:#181818;stroke-width:1.0;"/><polygon fill="#181818" points="290,240.4911,294,231.4911,290,235.4911,286,231.4911,290,240.4911" style="stroke:#181818;stroke-width:1.0;"/><polygon fill="#000000" points="295,183.2666,297.9389,174.2215,292.0611,174.2215,295,183.2666" style="stroke:#000000;stroke-width:1.0;"/><text fill="#000000" font-family="sans-serif" font-size="13" lengthAdjust="spacing" textLength="46" x="304" y="183.6494">submits</text></g><!--link JobApplication to JobApplicationStatus--><g id="link_JobApplication_JobApplicationStatus"><path codeLine="33" d="M290,293.7311 C290,321.9711 290,361.1511 290,389.4311 " fill="none" id="JobApplication-to-JobApplicationStatus" style="stroke:#181818;stroke-width:1.0;"/><polygon fill="#181818" points="290,395.4311,294,386.4311,290,390.4311,286,386.4311,290,395.4311" style="stroke:#181818;stroke-width:1.0;"/><polygon fill="#000000" points="295,338.2666,297.9389,329.2215,292.0611,329.2215,295,338.2666" style="stroke:#000000;stroke-width:1.0;"/><text fill="#000000" font-family="sans-serif" font-size="13" lengthAdjust="spacing" textLength="21" x="304" y="338.6494">has</text></g><!--link JobApplication to JobApplicationReference--><g id="link_JobApplication_JobApplicationReference"><path codeLine="34" d="M242.06,293.7711 C227.38,302.4711 211.53,312.7711 198,323.6211 C170.99,345.2811 148.0398,369.9299 130.1798,390.7199 " fill="none" id="JobApplication-to-JobApplicationReference" style="stroke:#181818;stroke-width:1.0;"/><polygon fill="#181818" points="126.27,395.2711,135.1688,391.0508,129.5282,391.4784,129.1006,385.8377,126.27,395.2711" style="stroke:#181818;stroke-width:1.0;"/><polygon fill="#000000" points="199.2213,336.541,207.9816,332.8386,204.1324,328.3965,199.2213,336.541" style="stroke:#000000;stroke-width:1.0;"/><text fill="#000000" font-family="sans-serif" font-size="13" lengthAdjust="spacing" textLength="69" x="212" y="338.6494">identified by</text></g><!--link JobApplication to JobOpening--><g id="link_JobApplication_JobOpening"><path codeLine="35" d="M318.79,293.7311 C350.54,321.9711 396.8471,363.1632 428.6371,391.4432 " fill="none" id="JobApplication-to-JobOpening" style="stroke:#181818;stroke-width:1.0;"/><polygon fill="#181818" points="433.12,395.4311,429.0543,386.4606,429.3843,392.1078,423.737,392.4378,433.12,395.4311" style="stroke:#181818;stroke-width:1.0;"/><polygon fill="#000000" points="378.7359,336.5898,373.9309,328.3822,370.0243,332.774,378.7359,336.5898" style="stroke:#000000;stroke-width:1.0;"/><text fill="#000000" font-family="sans-serif" font-size="13" lengthAdjust="spacing" textLength="11" x="384" y="338.6494">to</text></g><!--link JobOpening to JobReference--><g id="link_JobOpening_JobReference"><path codeLine="37" d="M462,448.8811 C462,472.1411 462,500.1811 462,523.4211 " fill="none" id="JobOpening-to-JobReference" style="stroke:#181818;stroke-width:1.0;"/><polygon fill="#181818" points="462,529.4211,466,520.4211,462,524.4211,458,520.4211,462,529.4211" style="stroke:#181818;stroke-width:1.0;"/><polygon fill="#000000" points="467,495.2666,469.9389,486.2215,464.0611,486.2215,467,495.2666" style="stroke:#000000;stroke-width:1.0;"/><text fill="#000000" font-family="sans-serif" font-size="13" lengthAdjust="spacing" textLength="69" x="476" y="495.6494">identified by</text></g><!--link JobOpening to JobOpeningStatus--><g id="link_JobOpening_JobOpeningStatus"><path codeLine="38" d="M503.05,443.9011 C519.96,453.6511 539.05,466.2811 554,480.6211 C568.82,494.8311 578.7514,508.8611 587.9214,524.2011 " fill="none" id="JobOpening-to-JobOpeningStatus" style="stroke:#181818;stroke-width:1.0;"/><polygon fill="#181818" points="591,529.3511,589.8155,519.5737,588.4345,525.0594,582.9488,523.6785,591,529.3511" style="stroke:#181818;stroke-width:1.0;"/><polygon fill="#000000" points="578.632,493.703,574.0815,485.3517,570.0418,489.6214,578.632,493.703" style="stroke:#000000;stroke-width:1.0;"/><text fill="#000000" font-family="sans-serif" font-size="13" lengthAdjust="spacing" textLength="21" x="584" y="495.6494">has</text></g><!--SRC=[ZLAzQiCm4Dxr53UsGo139nCC9bbQ2866Fi1PkjZNo9AHpYrfwRjN2KxT97LIJOVk-zE7ufPTYm4RQ55liQArx2n182teAaig_W1YZSQ_iwjWWpQI-hNI5cCiH0ANdT2ZzcxD7mHJfMes19g3JbA7kI6flObA2KioMlW6sS7I6x9mjrZUmmHUvjE7HEq3mHoTOOD2HLK5gj80dmhIERWEQvZDWlUIv-fh83_vicXRong5lVjRuHGpo8n2dcb3WPpUMxwXxGXy-PeQkyPP2qeNBmcdMLSjkTJmQCv-FvRnty5wdIkXXbeda_oyeWnYLpOi4PBmsUuIthjaKEEUS1C_l2A3z6MSy8R9GBaR9HzhoK1y7-burIDkQ9wXJ-iv1ly6]--></g></svg>