<?xml version="1.0" encoding="us-ascii" standalone="no"?><svg xmlns="http://www.w3.org/2000/svg" xmlns:xlink="http://www.w3.org/1999/xlink" contentStyleType="text/css" height="936px" preserveAspectRatio="none" style="width:680px;height:936px;background:#FFFFFF;" version="1.1" viewBox="0 0 680 936" width="680px" zoomAndPan="magnify"><defs/><g><text fill="#000000" font-family="sans-serif" font-size="14" font-weight="bold" lengthAdjust="spacing" textLength="190" x="238" y="25.1074">Class Diagram (CD) - UC038</text><!--class ListCustomerJobOpeningsUI--><g id="elem_ListCustomerJobOpeningsUI"><rect codeLine="8" fill="#F1F1F1" height="60.582" id="ListCustomerJobOpeningsUI" rx="2.5" ry="2.5" style="stroke:#181818;stroke-width:0.5;" width="210" x="147" y="46.6211"/><ellipse cx="162" cy="68.9121" fill="#ADD1B2" rx="11" ry="11" style="stroke:#181818;stroke-width:1.0;"/><path d="M164.7656,64.7871 Q164.9219,64.5684 165.1094,64.459 Q165.2969,64.3496 165.5156,64.3496 Q165.8906,64.3496 166.125,64.6152 Q166.3594,64.8652 166.3594,65.4746 L166.3594,66.9277 Q166.3594,67.5371 166.125,67.8027 Q165.8906,68.0684 165.5156,68.0684 Q165.1719,68.0684 164.9688,67.8652 Q164.7656,67.6777 164.6563,67.1621 Q164.6094,66.8027 164.4219,66.6152 Q164.0938,66.2402 163.4844,66.0215 Q162.875,65.8027 162.25,65.8027 Q161.4844,65.8027 160.8438,66.1309 Q160.2188,66.459 159.7188,67.209 Q159.2344,67.959 159.2344,68.9902 L159.2344,70.084 Q159.2344,71.3184 160.125,72.1465 Q161.0156,72.959 162.6094,72.959 Q163.5469,72.959 164.2031,72.709 Q164.5938,72.5527 165.0156,72.1152 Q165.2813,71.8496 165.4219,71.7715 Q165.5781,71.6934 165.7813,71.6934 Q166.1094,71.6934 166.3594,71.959 Q166.625,72.209 166.625,72.5527 Q166.625,72.8965 166.2813,73.3027 Q165.7813,73.8809 164.9844,74.209 Q163.9063,74.6621 162.6094,74.6621 Q161.0938,74.6621 159.8906,74.0371 Q158.9063,73.5371 158.2188,72.4746 Q157.5313,71.3965 157.5313,70.1152 L157.5313,68.959 Q157.5313,67.6309 158.1406,66.4902 Q158.7656,65.334 159.8594,64.7246 Q160.9531,64.0996 162.1875,64.0996 Q162.9219,64.0996 163.5625,64.2715 Q164.2188,64.4277 164.7656,64.7871 Z " fill="#000000"/><text fill="#000000" font-family="sans-serif" font-size="12" font-style="italic" lengthAdjust="spacing" textLength="82" x="224" y="64.5703">&#171;presentation&#187;</text><text fill="#000000" font-family="sans-serif" font-size="14" lengthAdjust="spacing" textLength="178" x="176" y="82.6895">ListCustomerJobOpeningsUI</text><line style="stroke:#181818;stroke-width:0.5;" x1="148" x2="356" y1="91.2031" y2="91.2031"/><line style="stroke:#181818;stroke-width:0.5;" x1="148" x2="356" y1="99.2031" y2="99.2031"/></g><!--class ListCustomerJobOpeningsController--><g id="elem_ListCustomerJobOpeningsController"><rect codeLine="10" fill="#F1F1F1" height="60.582" id="ListCustomerJobOpeningsController" rx="2.5" ry="2.5" style="stroke:#181818;stroke-width:0.5;" width="260" x="122" y="168.6211"/><ellipse cx="137" cy="190.9121" fill="#ADD1B2" rx="11" ry="11" style="stroke:#181818;stroke-width:1.0;"/><path d="M139.7656,186.7871 Q139.9219,186.5684 140.1094,186.459 Q140.2969,186.3496 140.5156,186.3496 Q140.8906,186.3496 141.125,186.6152 Q141.3594,186.8652 141.3594,187.4746 L141.3594,188.9277 Q141.3594,189.5371 141.125,189.8027 Q140.8906,190.0684 140.5156,190.0684 Q140.1719,190.0684 139.9688,189.8652 Q139.7656,189.6777 139.6563,189.1621 Q139.6094,188.8027 139.4219,188.6152 Q139.0938,188.2402 138.4844,188.0215 Q137.875,187.8027 137.25,187.8027 Q136.4844,187.8027 135.8438,188.1309 Q135.2188,188.459 134.7188,189.209 Q134.2344,189.959 134.2344,190.9902 L134.2344,192.084 Q134.2344,193.3184 135.125,194.1465 Q136.0156,194.959 137.6094,194.959 Q138.5469,194.959 139.2031,194.709 Q139.5938,194.5527 140.0156,194.1152 Q140.2813,193.8496 140.4219,193.7715 Q140.5781,193.6934 140.7813,193.6934 Q141.1094,193.6934 141.3594,193.959 Q141.625,194.209 141.625,194.5527 Q141.625,194.8965 141.2813,195.3027 Q140.7813,195.8809 139.9844,196.209 Q138.9063,196.6621 137.6094,196.6621 Q136.0938,196.6621 134.8906,196.0371 Q133.9063,195.5371 133.2188,194.4746 Q132.5313,193.3965 132.5313,192.1152 L132.5313,190.959 Q132.5313,189.6309 133.1406,188.4902 Q133.7656,187.334 134.8594,186.7246 Q135.9531,186.0996 137.1875,186.0996 Q137.9219,186.0996 138.5625,186.2715 Q139.2188,186.4277 139.7656,186.7871 Z " fill="#000000"/><text fill="#000000" font-family="sans-serif" font-size="12" font-style="italic" lengthAdjust="spacing" textLength="65" x="232.5" y="186.5703">&#171;controller&#187;</text><text fill="#000000" font-family="sans-serif" font-size="14" lengthAdjust="spacing" textLength="228" x="151" y="204.6895">ListCustomerJobOpeningsController</text><line style="stroke:#181818;stroke-width:0.5;" x1="123" x2="381" y1="213.2031" y2="213.2031"/><line style="stroke:#181818;stroke-width:0.5;" x1="123" x2="381" y1="221.2031" y2="221.2031"/></g><!--class TcpService--><g id="elem_TcpService"><rect codeLine="12" fill="#F1F1F1" height="60.582" id="TcpService" rx="2.5" ry="2.5" style="stroke:#181818;stroke-width:0.5;" width="103" x="200.5" y="308.6211"/><ellipse cx="215.5" cy="330.9121" fill="#ADD1B2" rx="11" ry="11" style="stroke:#181818;stroke-width:1.0;"/><path d="M218.2656,326.7871 Q218.4219,326.5684 218.6094,326.459 Q218.7969,326.3496 219.0156,326.3496 Q219.3906,326.3496 219.625,326.6152 Q219.8594,326.8652 219.8594,327.4746 L219.8594,328.9277 Q219.8594,329.5371 219.625,329.8027 Q219.3906,330.0684 219.0156,330.0684 Q218.6719,330.0684 218.4688,329.8652 Q218.2656,329.6777 218.1563,329.1621 Q218.1094,328.8027 217.9219,328.6152 Q217.5938,328.2402 216.9844,328.0215 Q216.375,327.8027 215.75,327.8027 Q214.9844,327.8027 214.3438,328.1309 Q213.7188,328.459 213.2188,329.209 Q212.7344,329.959 212.7344,330.9902 L212.7344,332.084 Q212.7344,333.3184 213.625,334.1465 Q214.5156,334.959 216.1094,334.959 Q217.0469,334.959 217.7031,334.709 Q218.0938,334.5527 218.5156,334.1152 Q218.7813,333.8496 218.9219,333.7715 Q219.0781,333.6934 219.2813,333.6934 Q219.6094,333.6934 219.8594,333.959 Q220.125,334.209 220.125,334.5527 Q220.125,334.8965 219.7813,335.3027 Q219.2813,335.8809 218.4844,336.209 Q217.4063,336.6621 216.1094,336.6621 Q214.5938,336.6621 213.3906,336.0371 Q212.4063,335.5371 211.7188,334.4746 Q211.0313,333.3965 211.0313,332.1152 L211.0313,330.959 Q211.0313,329.6309 211.6406,328.4902 Q212.2656,327.334 213.3594,326.7246 Q214.4531,326.0996 215.6875,326.0996 Q216.4219,326.0996 217.0625,326.2715 Q217.7188,326.4277 218.2656,326.7871 Z " fill="#000000"/><text fill="#000000" font-family="sans-serif" font-size="12" font-style="italic" lengthAdjust="spacing" textLength="53" x="238.5" y="326.5703">&#171;service&#187;</text><text fill="#000000" font-family="sans-serif" font-size="14" lengthAdjust="spacing" textLength="71" x="229.5" y="344.6895">TcpService</text><line style="stroke:#181818;stroke-width:0.5;" x1="201.5" x2="302.5" y1="353.2031" y2="353.2031"/><line style="stroke:#181818;stroke-width:0.5;" x1="201.5" x2="302.5" y1="361.2031" y2="361.2031"/></g><!--class TcpChatCli--><g id="elem_TcpChatCli"><rect codeLine="14" fill="#F1F1F1" height="60.582" id="TcpChatCli" rx="2.5" ry="2.5" style="stroke:#181818;stroke-width:0.5;" width="102" x="7" y="448.6211"/><ellipse cx="22" cy="470.9121" fill="#ADD1B2" rx="11" ry="11" style="stroke:#181818;stroke-width:1.0;"/><path d="M24.7656,466.7871 Q24.9219,466.5684 25.1094,466.459 Q25.2969,466.3496 25.5156,466.3496 Q25.8906,466.3496 26.125,466.6152 Q26.3594,466.8652 26.3594,467.4746 L26.3594,468.9277 Q26.3594,469.5371 26.125,469.8027 Q25.8906,470.0684 25.5156,470.0684 Q25.1719,470.0684 24.9688,469.8652 Q24.7656,469.6777 24.6563,469.1621 Q24.6094,468.8027 24.4219,468.6152 Q24.0938,468.2402 23.4844,468.0215 Q22.875,467.8027 22.25,467.8027 Q21.4844,467.8027 20.8438,468.1309 Q20.2188,468.459 19.7188,469.209 Q19.2344,469.959 19.2344,470.9902 L19.2344,472.084 Q19.2344,473.3184 20.125,474.1465 Q21.0156,474.959 22.6094,474.959 Q23.5469,474.959 24.2031,474.709 Q24.5938,474.5527 25.0156,474.1152 Q25.2813,473.8496 25.4219,473.7715 Q25.5781,473.6934 25.7813,473.6934 Q26.1094,473.6934 26.3594,473.959 Q26.625,474.209 26.625,474.5527 Q26.625,474.8965 26.2813,475.3027 Q25.7813,475.8809 24.9844,476.209 Q23.9063,476.6621 22.6094,476.6621 Q21.0938,476.6621 19.8906,476.0371 Q18.9063,475.5371 18.2188,474.4746 Q17.5313,473.3965 17.5313,472.1152 L17.5313,470.959 Q17.5313,469.6309 18.1406,468.4902 Q18.7656,467.334 19.8594,466.7246 Q20.9531,466.0996 22.1875,466.0996 Q22.9219,466.0996 23.5625,466.2715 Q24.2188,466.4277 24.7656,466.7871 Z " fill="#000000"/><text fill="#000000" font-family="sans-serif" font-size="12" font-style="italic" lengthAdjust="spacing" textLength="53" x="44.5" y="466.5703">&#171;service&#187;</text><text fill="#000000" font-family="sans-serif" font-size="14" lengthAdjust="spacing" textLength="70" x="36" y="484.6895">TcpChatCli</text><line style="stroke:#181818;stroke-width:0.5;" x1="8" x2="108" y1="493.2031" y2="493.2031"/><line style="stroke:#181818;stroke-width:0.5;" x1="8" x2="108" y1="501.2031" y2="501.2031"/></g><!--class TcpChatSrv--><g id="elem_TcpChatSrv"><rect codeLine="16" fill="#F1F1F1" height="60.582" id="TcpChatSrv" rx="2.5" ry="2.5" style="stroke:#181818;stroke-width:0.5;" width="107" x="144.5" y="448.6211"/><ellipse cx="159.5" cy="470.9121" fill="#ADD1B2" rx="11" ry="11" style="stroke:#181818;stroke-width:1.0;"/><path d="M162.2656,466.7871 Q162.4219,466.5684 162.6094,466.459 Q162.7969,466.3496 163.0156,466.3496 Q163.3906,466.3496 163.625,466.6152 Q163.8594,466.8652 163.8594,467.4746 L163.8594,468.9277 Q163.8594,469.5371 163.625,469.8027 Q163.3906,470.0684 163.0156,470.0684 Q162.6719,470.0684 162.4688,469.8652 Q162.2656,469.6777 162.1563,469.1621 Q162.1094,468.8027 161.9219,468.6152 Q161.5938,468.2402 160.9844,468.0215 Q160.375,467.8027 159.75,467.8027 Q158.9844,467.8027 158.3438,468.1309 Q157.7188,468.459 157.2188,469.209 Q156.7344,469.959 156.7344,470.9902 L156.7344,472.084 Q156.7344,473.3184 157.625,474.1465 Q158.5156,474.959 160.1094,474.959 Q161.0469,474.959 161.7031,474.709 Q162.0938,474.5527 162.5156,474.1152 Q162.7813,473.8496 162.9219,473.7715 Q163.0781,473.6934 163.2813,473.6934 Q163.6094,473.6934 163.8594,473.959 Q164.125,474.209 164.125,474.5527 Q164.125,474.8965 163.7813,475.3027 Q163.2813,475.8809 162.4844,476.209 Q161.4063,476.6621 160.1094,476.6621 Q158.5938,476.6621 157.3906,476.0371 Q156.4063,475.5371 155.7188,474.4746 Q155.0313,473.3965 155.0313,472.1152 L155.0313,470.959 Q155.0313,469.6309 155.6406,468.4902 Q156.2656,467.334 157.3594,466.7246 Q158.4531,466.0996 159.6875,466.0996 Q160.4219,466.0996 161.0625,466.2715 Q161.7188,466.4277 162.2656,466.7871 Z " fill="#000000"/><text fill="#000000" font-family="sans-serif" font-size="12" font-style="italic" lengthAdjust="spacing" textLength="53" x="184.5" y="466.5703">&#171;service&#187;</text><text fill="#000000" font-family="sans-serif" font-size="14" lengthAdjust="spacing" textLength="75" x="173.5" y="484.6895">TcpChatSrv</text><line style="stroke:#181818;stroke-width:0.5;" x1="145.5" x2="250.5" y1="493.2031" y2="493.2031"/><line style="stroke:#181818;stroke-width:0.5;" x1="145.5" x2="250.5" y1="501.2031" y2="501.2031"/></g><!--class RepositoryFactory--><g id="elem_RepositoryFactory"><rect codeLine="18" fill="#F1F1F1" height="60.582" id="RepositoryFactory" rx="2.5" ry="2.5" style="stroke:#181818;stroke-width:0.5;" width="148" x="397" y="588.6211"/><ellipse cx="412" cy="610.9121" fill="#ADD1B2" rx="11" ry="11" style="stroke:#181818;stroke-width:1.0;"/><path d="M414.7656,606.7871 Q414.9219,606.5684 415.1094,606.459 Q415.2969,606.3496 415.5156,606.3496 Q415.8906,606.3496 416.125,606.6152 Q416.3594,606.8652 416.3594,607.4746 L416.3594,608.9277 Q416.3594,609.5371 416.125,609.8027 Q415.8906,610.0684 415.5156,610.0684 Q415.1719,610.0684 414.9688,609.8652 Q414.7656,609.6777 414.6563,609.1621 Q414.6094,608.8027 414.4219,608.6152 Q414.0938,608.2402 413.4844,608.0215 Q412.875,607.8027 412.25,607.8027 Q411.4844,607.8027 410.8438,608.1309 Q410.2188,608.459 409.7188,609.209 Q409.2344,609.959 409.2344,610.9902 L409.2344,612.084 Q409.2344,613.3184 410.125,614.1465 Q411.0156,614.959 412.6094,614.959 Q413.5469,614.959 414.2031,614.709 Q414.5938,614.5527 415.0156,614.1152 Q415.2813,613.8496 415.4219,613.7715 Q415.5781,613.6934 415.7813,613.6934 Q416.1094,613.6934 416.3594,613.959 Q416.625,614.209 416.625,614.5527 Q416.625,614.8965 416.2813,615.3027 Q415.7813,615.8809 414.9844,616.209 Q413.9063,616.6621 412.6094,616.6621 Q411.0938,616.6621 409.8906,616.0371 Q408.9063,615.5371 408.2188,614.4746 Q407.5313,613.3965 407.5313,612.1152 L407.5313,610.959 Q407.5313,609.6309 408.1406,608.4902 Q408.7656,607.334 409.8594,606.7246 Q410.9531,606.0996 412.1875,606.0996 Q412.9219,606.0996 413.5625,606.2715 Q414.2188,606.4277 414.7656,606.7871 Z " fill="#000000"/><text fill="#000000" font-family="sans-serif" font-size="12" font-style="italic" lengthAdjust="spacing" textLength="50" x="459" y="606.5703">&#171;factory&#187;</text><text fill="#000000" font-family="sans-serif" font-size="14" lengthAdjust="spacing" textLength="116" x="426" y="624.6895">RepositoryFactory</text><line style="stroke:#181818;stroke-width:0.5;" x1="398" x2="544" y1="633.2031" y2="633.2031"/><line style="stroke:#181818;stroke-width:0.5;" x1="398" x2="544" y1="641.2031" y2="641.2031"/></g><!--class JobApplication--><g id="elem_JobApplication"><rect codeLine="20" fill="#F1F1F1" height="60.582" id="JobApplication" rx="2.5" ry="2.5" style="stroke:#181818;stroke-width:0.5;" width="123" x="392.5" y="46.6211"/><ellipse cx="407.5" cy="68.9121" fill="#ADD1B2" rx="11" ry="11" style="stroke:#181818;stroke-width:1.0;"/><path d="M410.2656,64.7871 Q410.4219,64.5684 410.6094,64.459 Q410.7969,64.3496 411.0156,64.3496 Q411.3906,64.3496 411.625,64.6152 Q411.8594,64.8652 411.8594,65.4746 L411.8594,66.9277 Q411.8594,67.5371 411.625,67.8027 Q411.3906,68.0684 411.0156,68.0684 Q410.6719,68.0684 410.4688,67.8652 Q410.2656,67.6777 410.1563,67.1621 Q410.1094,66.8027 409.9219,66.6152 Q409.5938,66.2402 408.9844,66.0215 Q408.375,65.8027 407.75,65.8027 Q406.9844,65.8027 406.3438,66.1309 Q405.7188,66.459 405.2188,67.209 Q404.7344,67.959 404.7344,68.9902 L404.7344,70.084 Q404.7344,71.3184 405.625,72.1465 Q406.5156,72.959 408.1094,72.959 Q409.0469,72.959 409.7031,72.709 Q410.0938,72.5527 410.5156,72.1152 Q410.7813,71.8496 410.9219,71.7715 Q411.0781,71.6934 411.2813,71.6934 Q411.6094,71.6934 411.8594,71.959 Q412.125,72.209 412.125,72.5527 Q412.125,72.8965 411.7813,73.3027 Q411.2813,73.8809 410.4844,74.209 Q409.4063,74.6621 408.1094,74.6621 Q406.5938,74.6621 405.3906,74.0371 Q404.4063,73.5371 403.7188,72.4746 Q403.0313,71.3965 403.0313,70.1152 L403.0313,68.959 Q403.0313,67.6309 403.6406,66.4902 Q404.2656,65.334 405.3594,64.7246 Q406.4531,64.0996 407.6875,64.0996 Q408.4219,64.0996 409.0625,64.2715 Q409.7188,64.4277 410.2656,64.7871 Z " fill="#000000"/><text fill="#000000" font-family="sans-serif" font-size="12" font-style="italic" lengthAdjust="spacing" textLength="67" x="433.5" y="64.5703">&#171;root entity&#187;</text><text fill="#000000" font-family="sans-serif" font-size="14" lengthAdjust="spacing" textLength="91" x="421.5" y="82.6895">JobApplication</text><line style="stroke:#181818;stroke-width:0.5;" x1="393.5" x2="514.5" y1="91.2031" y2="91.2031"/><line style="stroke:#181818;stroke-width:0.5;" x1="393.5" x2="514.5" y1="99.2031" y2="99.2031"/></g><!--class JobOpeningRepository--><g id="elem_JobOpeningRepository"><rect codeLine="23" fill="#F1F1F1" height="60.582" id="JobOpeningRepository" rx="2.5" ry="2.5" style="stroke:#181818;stroke-width:0.5;" width="176" x="287" y="448.6211"/><ellipse cx="302" cy="470.9121" fill="#ADD1B2" rx="11" ry="11" style="stroke:#181818;stroke-width:1.0;"/><path d="M304.7656,466.7871 Q304.9219,466.5684 305.1094,466.459 Q305.2969,466.3496 305.5156,466.3496 Q305.8906,466.3496 306.125,466.6152 Q306.3594,466.8652 306.3594,467.4746 L306.3594,468.9277 Q306.3594,469.5371 306.125,469.8027 Q305.8906,470.0684 305.5156,470.0684 Q305.1719,470.0684 304.9688,469.8652 Q304.7656,469.6777 304.6563,469.1621 Q304.6094,468.8027 304.4219,468.6152 Q304.0938,468.2402 303.4844,468.0215 Q302.875,467.8027 302.25,467.8027 Q301.4844,467.8027 300.8438,468.1309 Q300.2188,468.459 299.7188,469.209 Q299.2344,469.959 299.2344,470.9902 L299.2344,472.084 Q299.2344,473.3184 300.125,474.1465 Q301.0156,474.959 302.6094,474.959 Q303.5469,474.959 304.2031,474.709 Q304.5938,474.5527 305.0156,474.1152 Q305.2813,473.8496 305.4219,473.7715 Q305.5781,473.6934 305.7813,473.6934 Q306.1094,473.6934 306.3594,473.959 Q306.625,474.209 306.625,474.5527 Q306.625,474.8965 306.2813,475.3027 Q305.7813,475.8809 304.9844,476.209 Q303.9063,476.6621 302.6094,476.6621 Q301.0938,476.6621 299.8906,476.0371 Q298.9063,475.5371 298.2188,474.4746 Q297.5313,473.3965 297.5313,472.1152 L297.5313,470.959 Q297.5313,469.6309 298.1406,468.4902 Q298.7656,467.334 299.8594,466.7246 Q300.9531,466.0996 302.1875,466.0996 Q302.9219,466.0996 303.5625,466.2715 Q304.2188,466.4277 304.7656,466.7871 Z " fill="#000000"/><text fill="#000000" font-family="sans-serif" font-size="12" font-style="italic" lengthAdjust="spacing" textLength="68" x="354" y="466.5703">&#171;repository&#187;</text><text fill="#000000" font-family="sans-serif" font-size="14" lengthAdjust="spacing" textLength="144" x="316" y="484.6895">JobOpeningRepository</text><line style="stroke:#181818;stroke-width:0.5;" x1="288" x2="462" y1="493.2031" y2="493.2031"/><line style="stroke:#181818;stroke-width:0.5;" x1="288" x2="462" y1="501.2031" y2="501.2031"/></g><!--class JobOpening--><g id="elem_JobOpening"><rect codeLine="25" fill="#F1F1F1" height="60.582" id="JobOpening" rx="2.5" ry="2.5" style="stroke:#181818;stroke-width:0.5;" width="108" x="250" y="728.6211"/><ellipse cx="265" cy="750.9121" fill="#ADD1B2" rx="11" ry="11" style="stroke:#181818;stroke-width:1.0;"/><path d="M267.7656,746.7871 Q267.9219,746.5684 268.1094,746.459 Q268.2969,746.3496 268.5156,746.3496 Q268.8906,746.3496 269.125,746.6152 Q269.3594,746.8652 269.3594,747.4746 L269.3594,748.9277 Q269.3594,749.5371 269.125,749.8027 Q268.8906,750.0684 268.5156,750.0684 Q268.1719,750.0684 267.9688,749.8652 Q267.7656,749.6777 267.6563,749.1621 Q267.6094,748.8027 267.4219,748.6152 Q267.0938,748.2402 266.4844,748.0215 Q265.875,747.8027 265.25,747.8027 Q264.4844,747.8027 263.8438,748.1309 Q263.2188,748.459 262.7188,749.209 Q262.2344,749.959 262.2344,750.9902 L262.2344,752.084 Q262.2344,753.3184 263.125,754.1465 Q264.0156,754.959 265.6094,754.959 Q266.5469,754.959 267.2031,754.709 Q267.5938,754.5527 268.0156,754.1152 Q268.2813,753.8496 268.4219,753.7715 Q268.5781,753.6934 268.7813,753.6934 Q269.1094,753.6934 269.3594,753.959 Q269.625,754.209 269.625,754.5527 Q269.625,754.8965 269.2813,755.3027 Q268.7813,755.8809 267.9844,756.209 Q266.9063,756.6621 265.6094,756.6621 Q264.0938,756.6621 262.8906,756.0371 Q261.9063,755.5371 261.2188,754.4746 Q260.5313,753.3965 260.5313,752.1152 L260.5313,750.959 Q260.5313,749.6309 261.1406,748.4902 Q261.7656,747.334 262.8594,746.7246 Q263.9531,746.0996 265.1875,746.0996 Q265.9219,746.0996 266.5625,746.2715 Q267.2188,746.4277 267.7656,746.7871 Z " fill="#000000"/><text fill="#000000" font-family="sans-serif" font-size="12" font-style="italic" lengthAdjust="spacing" textLength="67" x="283.5" y="746.5703">&#171;root entity&#187;</text><text fill="#000000" font-family="sans-serif" font-size="14" lengthAdjust="spacing" textLength="76" x="279" y="764.6895">JobOpening</text><line style="stroke:#181818;stroke-width:0.5;" x1="251" x2="357" y1="773.2031" y2="773.2031"/><line style="stroke:#181818;stroke-width:0.5;" x1="251" x2="357" y1="781.2031" y2="781.2031"/></g><!--class JobReference--><g id="elem_JobReference"><rect codeLine="27" fill="#F1F1F1" height="60.582" id="JobReference" rx="2.5" ry="2.5" style="stroke:#181818;stroke-width:0.5;" width="120" x="244" y="868.6211"/><ellipse cx="259" cy="890.9121" fill="#ADD1B2" rx="11" ry="11" style="stroke:#181818;stroke-width:1.0;"/><path d="M261.7656,886.7871 Q261.9219,886.5684 262.1094,886.459 Q262.2969,886.3496 262.5156,886.3496 Q262.8906,886.3496 263.125,886.6152 Q263.3594,886.8652 263.3594,887.4746 L263.3594,888.9277 Q263.3594,889.5371 263.125,889.8027 Q262.8906,890.0684 262.5156,890.0684 Q262.1719,890.0684 261.9688,889.8652 Q261.7656,889.6777 261.6563,889.1621 Q261.6094,888.8027 261.4219,888.6152 Q261.0938,888.2402 260.4844,888.0215 Q259.875,887.8027 259.25,887.8027 Q258.4844,887.8027 257.8438,888.1309 Q257.2188,888.459 256.7188,889.209 Q256.2344,889.959 256.2344,890.9902 L256.2344,892.084 Q256.2344,893.3184 257.125,894.1465 Q258.0156,894.959 259.6094,894.959 Q260.5469,894.959 261.2031,894.709 Q261.5938,894.5527 262.0156,894.1152 Q262.2813,893.8496 262.4219,893.7715 Q262.5781,893.6934 262.7813,893.6934 Q263.1094,893.6934 263.3594,893.959 Q263.625,894.209 263.625,894.5527 Q263.625,894.8965 263.2813,895.3027 Q262.7813,895.8809 261.9844,896.209 Q260.9063,896.6621 259.6094,896.6621 Q258.0938,896.6621 256.8906,896.0371 Q255.9063,895.5371 255.2188,894.4746 Q254.5313,893.3965 254.5313,892.1152 L254.5313,890.959 Q254.5313,889.6309 255.1406,888.4902 Q255.7656,887.334 256.8594,886.7246 Q257.9531,886.0996 259.1875,886.0996 Q259.9219,886.0996 260.5625,886.2715 Q261.2188,886.4277 261.7656,886.7871 Z " fill="#000000"/><text fill="#000000" font-family="sans-serif" font-size="12" font-style="italic" lengthAdjust="spacing" textLength="81" x="276.5" y="886.5703">&#171;value object&#187;</text><text fill="#000000" font-family="sans-serif" font-size="14" lengthAdjust="spacing" textLength="88" x="273" y="904.6895">JobReference</text><line style="stroke:#181818;stroke-width:0.5;" x1="245" x2="363" y1="913.2031" y2="913.2031"/><line style="stroke:#181818;stroke-width:0.5;" x1="245" x2="363" y1="921.2031" y2="921.2031"/></g><!--class CustomerRepository--><g id="elem_CustomerRepository"><rect codeLine="29" fill="#F1F1F1" height="60.582" id="CustomerRepository" rx="2.5" ry="2.5" style="stroke:#181818;stroke-width:0.5;" width="161" x="498.5" y="448.6211"/><ellipse cx="513.5" cy="470.9121" fill="#ADD1B2" rx="11" ry="11" style="stroke:#181818;stroke-width:1.0;"/><path d="M516.2656,466.7871 Q516.4219,466.5684 516.6094,466.459 Q516.7969,466.3496 517.0156,466.3496 Q517.3906,466.3496 517.625,466.6152 Q517.8594,466.8652 517.8594,467.4746 L517.8594,468.9277 Q517.8594,469.5371 517.625,469.8027 Q517.3906,470.0684 517.0156,470.0684 Q516.6719,470.0684 516.4688,469.8652 Q516.2656,469.6777 516.1563,469.1621 Q516.1094,468.8027 515.9219,468.6152 Q515.5938,468.2402 514.9844,468.0215 Q514.375,467.8027 513.75,467.8027 Q512.9844,467.8027 512.3438,468.1309 Q511.7188,468.459 511.2188,469.209 Q510.7344,469.959 510.7344,470.9902 L510.7344,472.084 Q510.7344,473.3184 511.625,474.1465 Q512.5156,474.959 514.1094,474.959 Q515.0469,474.959 515.7031,474.709 Q516.0938,474.5527 516.5156,474.1152 Q516.7813,473.8496 516.9219,473.7715 Q517.0781,473.6934 517.2813,473.6934 Q517.6094,473.6934 517.8594,473.959 Q518.125,474.209 518.125,474.5527 Q518.125,474.8965 517.7813,475.3027 Q517.2813,475.8809 516.4844,476.209 Q515.4063,476.6621 514.1094,476.6621 Q512.5938,476.6621 511.3906,476.0371 Q510.4063,475.5371 509.7188,474.4746 Q509.0313,473.3965 509.0313,472.1152 L509.0313,470.959 Q509.0313,469.6309 509.6406,468.4902 Q510.2656,467.334 511.3594,466.7246 Q512.4531,466.0996 513.6875,466.0996 Q514.4219,466.0996 515.0625,466.2715 Q515.7188,466.4277 516.2656,466.7871 Z " fill="#000000"/><text fill="#000000" font-family="sans-serif" font-size="12" font-style="italic" lengthAdjust="spacing" textLength="68" x="558" y="466.5703">&#171;repository&#187;</text><text fill="#000000" font-family="sans-serif" font-size="14" lengthAdjust="spacing" textLength="129" x="527.5" y="484.6895">CustomerRepository</text><line style="stroke:#181818;stroke-width:0.5;" x1="499.5" x2="658.5" y1="493.2031" y2="493.2031"/><line style="stroke:#181818;stroke-width:0.5;" x1="499.5" x2="658.5" y1="501.2031" y2="501.2031"/></g><!--class Customer--><g id="elem_Customer"><rect codeLine="31" fill="#F1F1F1" height="60.582" id="Customer" rx="2.5" ry="2.5" style="stroke:#181818;stroke-width:0.5;" width="95" x="431.5" y="868.6211"/><ellipse cx="446.5" cy="890.9121" fill="#ADD1B2" rx="11" ry="11" style="stroke:#181818;stroke-width:1.0;"/><path d="M449.2656,886.7871 Q449.4219,886.5684 449.6094,886.459 Q449.7969,886.3496 450.0156,886.3496 Q450.3906,886.3496 450.625,886.6152 Q450.8594,886.8652 450.8594,887.4746 L450.8594,888.9277 Q450.8594,889.5371 450.625,889.8027 Q450.3906,890.0684 450.0156,890.0684 Q449.6719,890.0684 449.4688,889.8652 Q449.2656,889.6777 449.1563,889.1621 Q449.1094,888.8027 448.9219,888.6152 Q448.5938,888.2402 447.9844,888.0215 Q447.375,887.8027 446.75,887.8027 Q445.9844,887.8027 445.3438,888.1309 Q444.7188,888.459 444.2188,889.209 Q443.7344,889.959 443.7344,890.9902 L443.7344,892.084 Q443.7344,893.3184 444.625,894.1465 Q445.5156,894.959 447.1094,894.959 Q448.0469,894.959 448.7031,894.709 Q449.0938,894.5527 449.5156,894.1152 Q449.7813,893.8496 449.9219,893.7715 Q450.0781,893.6934 450.2813,893.6934 Q450.6094,893.6934 450.8594,893.959 Q451.125,894.209 451.125,894.5527 Q451.125,894.8965 450.7813,895.3027 Q450.2813,895.8809 449.4844,896.209 Q448.4063,896.6621 447.1094,896.6621 Q445.5938,896.6621 444.3906,896.0371 Q443.4063,895.5371 442.7188,894.4746 Q442.0313,893.3965 442.0313,892.1152 L442.0313,890.959 Q442.0313,889.6309 442.6406,888.4902 Q443.2656,887.334 444.3594,886.7246 Q445.4531,886.0996 446.6875,886.0996 Q447.4219,886.0996 448.0625,886.2715 Q448.7188,886.4277 449.2656,886.7871 Z " fill="#000000"/><text fill="#000000" font-family="sans-serif" font-size="12" font-style="italic" lengthAdjust="spacing" textLength="67" x="458.5" y="886.5703">&#171;root entity&#187;</text><text fill="#000000" font-family="sans-serif" font-size="14" lengthAdjust="spacing" textLength="61" x="461.5" y="904.6895">Customer</text><line style="stroke:#181818;stroke-width:0.5;" x1="432.5" x2="525.5" y1="913.2031" y2="913.2031"/><line style="stroke:#181818;stroke-width:0.5;" x1="432.5" x2="525.5" y1="921.2031" y2="921.2031"/></g><!--link ListCustomerJobOpeningsUI to ListCustomerJobOpeningsController--><g id="link_ListCustomerJobOpeningsUI_ListCustomerJobOpeningsController"><path codeLine="33" d="M252,107.7811 C252,126.2411 252,143.9111 252,162.3811 " fill="none" id="ListCustomerJobOpeningsUI-to-ListCustomerJobOpeningsController" style="stroke:#181818;stroke-width:1.0;stroke-dasharray:7.0,7.0;"/><polygon fill="#181818" points="252,168.3811,256,159.3811,252,163.3811,248,159.3811,252,168.3811" style="stroke:#181818;stroke-width:1.0;"/></g><!--link ListCustomerJobOpeningsController to TcpService--><g id="link_ListCustomerJobOpeningsController_TcpService"><path codeLine="35" d="M252,229.7211 C252,253.0111 252,279.2911 252,302.5611 " fill="none" id="ListCustomerJobOpeningsController-to-TcpService" style="stroke:#181818;stroke-width:1.0;stroke-dasharray:7.0,7.0;"/><polygon fill="#181818" points="252,308.5611,256,299.5611,252,303.5611,248,299.5611,252,308.5611" style="stroke:#181818;stroke-width:1.0;"/><polygon fill="#000000" points="257,274.2666,259.9389,265.2215,254.0611,265.2215,257,274.2666" style="stroke:#000000;stroke-width:1.0;"/><text fill="#000000" font-family="sans-serif" font-size="13" lengthAdjust="spacing" textLength="28" x="266" y="274.6494">uses</text></g><!--link TcpService to CustomerRepository--><g id="link_TcpService_CustomerRepository"><path codeLine="37" d="M303.53,360.3811 C332.05,371.7111 368.09,386.2111 400,399.6211 C437.54,415.3911 473.7339,431.2015 507.4239,446.1215 " fill="none" id="TcpService-to-CustomerRepository" style="stroke:#181818;stroke-width:1.0;stroke-dasharray:7.0,7.0;"/><polygon fill="#181818" points="512.91,448.5511,506.3006,441.2493,508.3383,446.5264,503.0612,448.5641,512.91,448.5511" style="stroke:#181818;stroke-width:1.0;"/><polygon fill="#000000" points="454.6091,411.2048,447.4104,404.9894,445.132,410.4077,454.6091,411.2048" style="stroke:#000000;stroke-width:1.0;"/><text fill="#000000" font-family="sans-serif" font-size="13" lengthAdjust="spacing" textLength="56" x="459" y="414.6494">accesses</text></g><!--link TcpService to JobOpeningRepository--><g id="link_TcpService_JobOpeningRepository"><path codeLine="38" d="M278.39,369.7211 C299.14,393.0111 323.9278,420.812 344.6678,444.082 " fill="none" id="TcpService-to-JobOpeningRepository" style="stroke:#181818;stroke-width:1.0;stroke-dasharray:7.0,7.0;"/><polygon fill="#181818" points="348.66,448.5611,345.6579,439.1809,345.3332,444.8285,339.6857,444.5038,348.66,448.5611" style="stroke:#181818;stroke-width:1.0;"/><polygon fill="#000000" points="329.3268,412.9992,325.5025,404.2914,321.1146,408.2024,329.3268,412.9992" style="stroke:#000000;stroke-width:1.0;"/><text fill="#000000" font-family="sans-serif" font-size="13" lengthAdjust="spacing" textLength="56" x="335" y="414.6494">accesses</text></g><!--reverse link JobOpeningRepository to RepositoryFactory--><g id="link_JobOpeningRepository_RepositoryFactory"><path codeLine="40" d="M376.141,515.9529 C377.651,531.4729 380.89,544.1911 390,558.6211 C397.26,570.1311 407.62,580.1511 418.51,588.5211 " fill="none" id="JobOpeningRepository-backto-RepositoryFactory" style="stroke:#181818;stroke-width:1.0;stroke-dasharray:7.0,7.0;"/><polygon fill="#181818" points="375.56,509.9811,372.4503,519.3261,376.0442,514.9576,380.4127,518.5515,375.56,509.9811" style="stroke:#181818;stroke-width:1.0;"/><polygon fill="#000000" points="392.479,544.9487,394.5015,554.2417,399.5776,551.2781,392.479,544.9487" style="stroke:#000000;stroke-width:1.0;"/><text fill="#000000" font-family="sans-serif" font-size="13" lengthAdjust="spacing" textLength="43" x="404" y="554.6494">creates</text></g><!--link JobOpeningRepository to JobOpening--><g id="link_JobOpeningRepository_JobOpening"><path codeLine="41" d="M328.53,509.7311 C303.12,528.8111 274.02,556.1111 260,588.6211 C239.77,635.5211 262.0614,688.6527 281.8314,723.2227 " fill="none" id="JobOpeningRepository-to-JobOpening" style="stroke:#181818;stroke-width:1.0;stroke-dasharray:7.0,7.0;"/><polygon fill="#181818" points="284.81,728.4311,283.8144,718.6327,282.3278,724.0907,276.8698,722.6042,284.81,728.4311" style="stroke:#181818;stroke-width:1.0;"/><polygon fill="#000000" points="263.9316,624.1511,268.7354,615.943,262.9933,614.6869,263.9316,624.1511" style="stroke:#000000;stroke-width:1.0;"/><text fill="#000000" font-family="sans-serif" font-size="13" lengthAdjust="spacing" textLength="104" x="274" y="624.6494">saves in database</text></g><!--link TcpService to TcpChatCli--><g id="link_TcpService_TcpChatCli"><path codeLine="43" d="M200.48,366.1111 C182.71,375.8311 163,387.4811 146,399.6211 C125.5,414.2511 108.7545,428.8239 92.3445,444.3039 " fill="none" id="TcpService-to-TcpChatCli" style="stroke:#181818;stroke-width:1.0;"/><polygon fill="#181818" points="87.98,448.4211,97.2715,445.155,91.6171,444.9901,91.782,439.3357,87.98,448.4211" style="stroke:#181818;stroke-width:1.0;"/><polygon fill="#000000" points="146.9483,412.1964,156,409.2779,152.5558,404.5148,146.9483,412.1964" style="stroke:#000000;stroke-width:1.0;"/><text fill="#000000" font-family="sans-serif" font-size="13" lengthAdjust="spacing" textLength="53" x="160" y="414.6494">connects</text></g><!--link TcpService to TcpChatSrv--><g id="link_TcpService_TcpChatSrv"><path codeLine="44" d="M240.42,369.7211 C231.3,393.0111 220.8552,419.7032 211.7552,442.9732 " fill="none" id="TcpService-to-TcpChatSrv" style="stroke:#181818;stroke-width:1.0;"/><polygon fill="#181818" points="209.57,448.5611,216.5731,441.636,211.391,443.9045,209.1226,438.7224,209.57,448.5611" style="stroke:#181818;stroke-width:1.0;"/><polygon fill="#000000" points="232.178,413.9228,238.2109,406.5706,232.7372,404.4287,232.178,413.9228" style="stroke:#000000;stroke-width:1.0;"/><text fill="#000000" font-family="sans-serif" font-size="13" lengthAdjust="spacing" textLength="53" x="243" y="414.6494">connects</text></g><!--reverse link CustomerRepository to RepositoryFactory--><g id="link_CustomerRepository_RepositoryFactory"><path codeLine="46" d="M538.0606,513.7174 C528.1506,522.7274 522.31,529.0311 514,539.6211 C502.3,554.5311 491.98,573.0611 484.39,588.3711 " fill="none" id="CustomerRepository-backto-RepositoryFactory" style="stroke:#181818;stroke-width:1.0;stroke-dasharray:7.0,7.0;"/><polygon fill="#181818" points="542.5,509.6811,533.15,512.7759,538.8005,513.0446,538.5317,518.6951,542.5,509.6811" style="stroke:#181818;stroke-width:1.0;"/><polygon fill="#000000" points="521.9187,545.2069,514.2525,550.8355,519.025,554.2665,521.9187,545.2069" style="stroke:#000000;stroke-width:1.0;"/><text fill="#000000" font-family="sans-serif" font-size="13" lengthAdjust="spacing" textLength="43" x="528" y="554.6494">creates</text></g><!--link CustomerRepository to Customer--><g id="link_CustomerRepository_Customer"><path codeLine="47" d="M578.59,509.9911 C578.2,524.6611 577.45,542.5911 576,558.6211 C572.33,599.3111 572.47,609.8811 563,649.6211 C543.73,730.4711 511.4562,816.7614 493.2362,862.8414 " fill="none" id="CustomerRepository-to-Customer" style="stroke:#181818;stroke-width:1.0;stroke-dasharray:7.0,7.0;"/><polygon fill="#181818" points="491.03,868.4211,498.0591,861.5224,492.8685,863.7714,490.6195,858.5808,491.03,868.4211" style="stroke:#181818;stroke-width:1.0;"/><polygon fill="#000000" points="557.8244,694.1264,562.8076,686.0259,557.0945,684.6439,557.8244,694.1264" style="stroke:#000000;stroke-width:1.0;"/><text fill="#000000" font-family="sans-serif" font-size="13" lengthAdjust="spacing" textLength="104" x="568" y="694.6494">saves in database</text></g><!--link JobOpening to Customer--><g id="link_JobOpening_Customer"><path codeLine="49" d="M353.38,789.7011 C367.51,798.7911 382.69,809.1611 396,819.6211 C415.03,834.5711 430.5053,848.8806 445.9653,864.1806 " fill="none" id="JobOpening-to-Customer" style="stroke:#181818;stroke-width:1.0;"/><polygon fill="#181818" points="450.23,868.4011,446.6467,859.2272,446.6761,864.884,441.0193,864.9134,450.23,868.4011" style="stroke:#181818;stroke-width:1.0;"/><polygon fill="#000000" points="419.1041,826.1326,424.3097,834.092,427.994,829.5121,419.1041,826.1326" style="stroke:#000000;stroke-width:1.0;"/><text fill="#000000" font-family="sans-serif" font-size="13" lengthAdjust="spacing" textLength="46" x="432" y="834.6494">submits</text></g><!--link JobOpening to JobReference--><g id="link_JobOpening_JobReference"><path codeLine="51" d="M304,789.7211 C304,813.0111 304,839.2911 304,862.5611 " fill="none" id="JobOpening-to-JobReference" style="stroke:#181818;stroke-width:1.0;"/><polygon fill="#181818" points="304,868.5611,308,859.5611,304,863.5611,300,859.5611,304,868.5611" style="stroke:#181818;stroke-width:1.0;"/><polygon fill="#000000" points="309,834.2666,311.9389,825.2215,306.0611,825.2215,309,834.2666" style="stroke:#000000;stroke-width:1.0;"/><text fill="#000000" font-family="sans-serif" font-size="13" lengthAdjust="spacing" textLength="69" x="318" y="834.6494">identified by</text></g><!--SRC=[XPBDJkim48NtUOfPmg8H4XjKLP5Gq9L0I4WK7c3YJik0QqUUIL5vUkmM6gUajwlOcU_CZy_81xiM0wwXHVE1AvhhrX84CefkPQcG0o1lkF2Vx5QmH2jKP25ZKUHMDN3JATqRx-RyHN1L5CeQqzKf3dUCgqHVr7UNC87N-khwfYXsMdXaqReJzMiA3xvvQid5Il9w3xDP6qZ8AIfxLrLd5BLt6hor5ABI72wzxiMqSmeRDXG1sPy6qVeDjRRyd-WyRCQYpzHwOVLX-mzD-aHekJ_rK6prjcqjczquaGZUAyJnM7TKZ_rCr6TDyE4ooFY3_irs89vfIO7SRkWDsex0D-_Hv1xwVSkpzNx1lzLEcrYMrNd3JYR8F4s9CWUdq0a9nDhPpyICJ3C5D8Papn_Xeyyz41JZZfJbYErJC85GesusBYk7DQD0S1DnTh10nGQ5ZcQQJAfyDsC5xrpqxsYM34jBEi2ACOVFzZyYAlC7FjLxDbrgAiUxPisQSXz3WpsT0Y_IQYsP5j1ieVe6]--></g></svg>