<?xml version="1.0" encoding="us-ascii" standalone="no"?><svg xmlns="http://www.w3.org/2000/svg" xmlns:xlink="http://www.w3.org/1999/xlink" contentStyleType="text/css" height="850px" preserveAspectRatio="none" style="width:1498px;height:850px;background:#FFFFFF;" version="1.1" viewBox="0 0 1498 850" width="1498px" zoomAndPan="magnify"><defs/><g><text fill="#000000" font-family="sans-serif" font-size="7" font-weight="bold" lengthAdjust="spacing" textLength="111" x="693" y="15.0537">Sequence Diagram (SD) - UC038</text><rect fill="#FFFFFF" height="711.2568" style="stroke:#181818;stroke-width:0.5;" width="5" x="106.75" y="80.5771"/><rect fill="#FFFFFF" height="240.6826" style="stroke:#181818;stroke-width:0.5;" width="5" x="271.25" y="96.2227"/><rect fill="#FFFFFF" height="125.1641" style="stroke:#181818;stroke-width:0.5;" width="5" x="271.25" y="352.5508"/><rect fill="#FFFFFF" height="282.8281" style="stroke:#181818;stroke-width:0.5;" width="5" x="271.25" y="493.3604"/><rect fill="#FFFFFF" height="46.9365" style="stroke:#181818;stroke-width:0.5;" width="5" x="393.75" y="368.1963"/><rect fill="#FFFFFF" height="15.6455" style="stroke:#181818;stroke-width:0.5;" width="5" x="479" y="383.8418"/><rect fill="#FFFFFF" height="31.291" style="stroke:#181818;stroke-width:0.5;" width="5" x="537" y="430.7783"/><rect fill="#FFFFFF" height="235.8916" style="stroke:#181818;stroke-width:0.5;" width="5" x="665" y="509.0059"/><rect fill="#FFFFFF" height="62.9365" style="stroke:#181818;stroke-width:0.5;" width="5" x="870" y="562.4424"/><rect fill="#FFFFFF" height="18.6455" style="stroke:#181818;stroke-width:0.5;" width="5" x="1025" y="524.6514"/><rect fill="#FFFFFF" height="49.9365" style="stroke:#181818;stroke-width:0.5;" width="5" x="1107" y="111.8682"/><rect fill="#FFFFFF" height="49.9365" style="stroke:#181818;stroke-width:0.5;" width="5" x="1107" y="224.3867"/><rect fill="#FFFFFF" height="31.291" style="stroke:#181818;stroke-width:0.5;" width="5" x="1178.5" y="177.4502"/><rect fill="#FFFFFF" height="31.291" style="stroke:#181818;stroke-width:0.5;" width="5" x="1178.5" y="289.9688"/><line style="stroke:#181818;stroke-width:0.25;stroke-dasharray:5.0,5.0;" x1="20" x2="20" y1="63.9316" y2="800.834"/><line style="stroke:#181818;stroke-width:0.25;stroke-dasharray:5.0,5.0;" x1="109.25" x2="109.25" y1="63.9316" y2="800.834"/><line style="stroke:#181818;stroke-width:0.25;stroke-dasharray:5.0,5.0;" x1="273.75" x2="273.75" y1="63.9316" y2="800.834"/><line style="stroke:#181818;stroke-width:0.25;stroke-dasharray:5.0,5.0;" x1="396.25" x2="396.25" y1="63.9316" y2="800.834"/><line style="stroke:#181818;stroke-width:0.25;stroke-dasharray:5.0,5.0;" x1="481.25" x2="481.25" y1="63.9316" y2="800.834"/><line style="stroke:#181818;stroke-width:0.25;stroke-dasharray:5.0,5.0;" x1="539.25" x2="539.25" y1="63.9316" y2="800.834"/><line style="stroke:#181818;stroke-width:0.25;stroke-dasharray:5.0,5.0;" x1="607.75" x2="607.75" y1="63.9316" y2="800.834"/><line style="stroke:#181818;stroke-width:0.25;stroke-dasharray:5.0,5.0;" x1="667.25" x2="667.25" y1="63.9316" y2="800.834"/><line style="stroke:#181818;stroke-width:0.25;stroke-dasharray:5.0,5.0;" x1="872.5" x2="872.5" y1="63.9316" y2="800.834"/><line style="stroke:#181818;stroke-width:0.25;stroke-dasharray:5.0,5.0;" x1="1027.25" x2="1027.25" y1="63.9316" y2="800.834"/><line style="stroke:#181818;stroke-width:0.25;stroke-dasharray:5.0,5.0;" x1="1109.5" x2="1109.5" y1="63.9316" y2="800.834"/><line style="stroke:#181818;stroke-width:0.25;stroke-dasharray:5.0,5.0;" x1="1181" x2="1181" y1="63.9316" y2="800.834"/><line style="stroke:#181818;stroke-width:0.25;stroke-dasharray:5.0,5.0;" x1="1256" x2="1256" y1="63.9316" y2="800.834"/><line style="stroke:#181818;stroke-width:0.25;stroke-dasharray:5.0,5.0;" x1="1342.5" x2="1342.5" y1="63.9316" y2="800.834"/><line style="stroke:#181818;stroke-width:0.25;stroke-dasharray:5.0,5.0;" x1="1425.5" x2="1425.5" y1="63.9316" y2="800.834"/><line style="stroke:#181818;stroke-width:0.25;stroke-dasharray:5.0,5.0;" x1="1479.5" x2="1479.5" y1="63.9316" y2="800.834"/><text fill="#000000" font-family="sans-serif" font-size="7" lengthAdjust="spacing" textLength="32.5" x="2.5" y="62.1748">Candidate</text><ellipse cx="20.25" cy="28.8711" fill="#E2E2F0" rx="4" ry="4" style="stroke:#181818;stroke-width:0.25;"/><path d="M20.25,32.8711 L20.25,46.3711 M13.75,36.8711 L26.75,36.8711 M20.25,46.3711 L13.75,53.8711 M20.25,46.3711 L26.75,53.8711 " fill="none" style="stroke:#181818;stroke-width:0.25;"/><text fill="#000000" font-family="sans-serif" font-size="7" lengthAdjust="spacing" textLength="32.5" x="2.5" y="807.8877">Candidate</text><ellipse cx="20.25" cy="813.8945" fill="#E2E2F0" rx="4" ry="4" style="stroke:#181818;stroke-width:0.25;"/><path d="M20.25,817.8945 L20.25,831.3945 M13.75,821.8945 L26.75,821.8945 M20.25,831.3945 L13.75,838.8945 M20.25,831.3945 L26.75,838.8945 " fill="none" style="stroke:#181818;stroke-width:0.25;"/><rect fill="#E2E2F0" height="25.6211" rx="1.25" ry="1.25" style="stroke:#181818;stroke-width:0.25;" width="96" x="61.25" y="37.8105"/><text fill="#000000" font-family="sans-serif" font-size="7" font-style="italic" lengthAdjust="spacing" textLength="47.5" x="85.5" y="48.8643">&#171;presentation&#187;</text><text fill="#000000" font-family="sans-serif" font-size="7" lengthAdjust="spacing" textLength="89" x="64.75" y="58.1748">ListCustomerJobOpeningsUI</text><rect fill="#E2E2F0" height="25.6211" rx="1.25" ry="1.25" style="stroke:#181818;stroke-width:0.25;" width="96" x="61.25" y="800.334"/><text fill="#000000" font-family="sans-serif" font-size="7" font-style="italic" lengthAdjust="spacing" textLength="47.5" x="85.5" y="811.3877">&#171;presentation&#187;</text><text fill="#000000" font-family="sans-serif" font-size="7" lengthAdjust="spacing" textLength="89" x="64.75" y="820.6982">ListCustomerJobOpeningsUI</text><rect fill="#E2E2F0" height="25.6211" rx="1.25" ry="1.25" style="stroke:#181818;stroke-width:0.25;" width="121" x="213.25" y="37.8105"/><text fill="#000000" font-family="sans-serif" font-size="7" font-style="italic" lengthAdjust="spacing" textLength="42" x="252.75" y="48.8643">&#171;application&#187;</text><text fill="#000000" font-family="sans-serif" font-size="7" lengthAdjust="spacing" textLength="114" x="216.75" y="58.1748">ListCustomerJobOpeningsController</text><rect fill="#E2E2F0" height="25.6211" rx="1.25" ry="1.25" style="stroke:#181818;stroke-width:0.25;" width="121" x="213.25" y="800.334"/><text fill="#000000" font-family="sans-serif" font-size="7" font-style="italic" lengthAdjust="spacing" textLength="42" x="252.75" y="811.3877">&#171;application&#187;</text><text fill="#000000" font-family="sans-serif" font-size="7" lengthAdjust="spacing" textLength="114" x="216.75" y="820.6982">ListCustomerJobOpeningsController</text><rect fill="#E2E2F0" height="25.6211" rx="1.25" ry="1.25" style="stroke:#181818;stroke-width:0.25;" width="114" x="339.25" y="37.8105"/><text fill="#000000" font-family="sans-serif" font-size="7" font-style="italic" lengthAdjust="spacing" textLength="30" x="381.25" y="48.8643">&#171;service&#187;</text><text fill="#000000" font-family="sans-serif" font-size="7" lengthAdjust="spacing" textLength="107" x="342.75" y="58.1748">authzService:AuthorizationService</text><rect fill="#E2E2F0" height="25.6211" rx="1.25" ry="1.25" style="stroke:#181818;stroke-width:0.25;" width="114" x="339.25" y="800.334"/><text fill="#000000" font-family="sans-serif" font-size="7" font-style="italic" lengthAdjust="spacing" textLength="30" x="381.25" y="811.3877">&#171;service&#187;</text><text fill="#000000" font-family="sans-serif" font-size="7" lengthAdjust="spacing" textLength="107" x="342.75" y="820.6982">authzService:AuthorizationService</text><rect fill="#E2E2F0" height="25.6211" rx="1.25" ry="1.25" style="stroke:#181818;stroke-width:0.25;" width="46.5" x="458.25" y="37.8105"/><text fill="#000000" font-family="sans-serif" font-size="7" font-style="italic" lengthAdjust="spacing" textLength="30" x="466.5" y="48.8643">&#171;service&#187;</text><text fill="#000000" font-family="sans-serif" font-size="7" lengthAdjust="spacing" textLength="39.5" x="461.75" y="58.1748">UserSession</text><rect fill="#E2E2F0" height="25.6211" rx="1.25" ry="1.25" style="stroke:#181818;stroke-width:0.25;" width="46.5" x="458.25" y="800.334"/><text fill="#000000" font-family="sans-serif" font-size="7" font-style="italic" lengthAdjust="spacing" textLength="30" x="466.5" y="811.3877">&#171;service&#187;</text><text fill="#000000" font-family="sans-serif" font-size="7" lengthAdjust="spacing" textLength="39.5" x="461.75" y="820.6982">UserSession</text><rect fill="#E2E2F0" height="25.6211" rx="1.25" ry="1.25" style="stroke:#181818;stroke-width:0.25;" width="59.5" x="509.75" y="37.8105"/><text fill="#000000" font-family="sans-serif" font-size="7" font-style="italic" lengthAdjust="spacing" textLength="30" x="524.5" y="48.8643">&#171;service&#187;</text><text fill="#000000" font-family="sans-serif" font-size="7" lengthAdjust="spacing" textLength="52.5" x="513.25" y="58.1748">CustomerBuilder</text><rect fill="#E2E2F0" height="25.6211" rx="1.25" ry="1.25" style="stroke:#181818;stroke-width:0.25;" width="59.5" x="509.75" y="800.334"/><text fill="#000000" font-family="sans-serif" font-size="7" font-style="italic" lengthAdjust="spacing" textLength="30" x="524.5" y="811.3877">&#171;service&#187;</text><text fill="#000000" font-family="sans-serif" font-size="7" lengthAdjust="spacing" textLength="52.5" x="513.25" y="820.6982">CustomerBuilder</text><rect fill="#E2E2F0" height="25.6211" rx="1.25" ry="1.25" style="stroke:#181818;stroke-width:0.25;" width="67" x="574.25" y="37.8105"/><text fill="#000000" font-family="sans-serif" font-size="7" font-style="italic" lengthAdjust="spacing" textLength="31" x="592.25" y="48.8643">&#171;domain&#187;</text><text fill="#000000" font-family="sans-serif" font-size="7" lengthAdjust="spacing" textLength="60" x="577.75" y="58.1748">customer:customer</text><rect fill="#E2E2F0" height="25.6211" rx="1.25" ry="1.25" style="stroke:#181818;stroke-width:0.25;" width="67" x="574.25" y="800.334"/><text fill="#000000" font-family="sans-serif" font-size="7" font-style="italic" lengthAdjust="spacing" textLength="31" x="592.25" y="811.3877">&#171;domain&#187;</text><text fill="#000000" font-family="sans-serif" font-size="7" lengthAdjust="spacing" textLength="60" x="577.75" y="820.6982">customer:customer</text><rect fill="#E2E2F0" height="25.6211" rx="1.25" ry="1.25" style="stroke:#181818;stroke-width:0.25;" width="42.5" x="646.25" y="37.8105"/><text fill="#000000" font-family="sans-serif" font-size="7" font-style="italic" lengthAdjust="spacing" textLength="30" x="652.5" y="48.8643">&#171;service&#187;</text><text fill="#000000" font-family="sans-serif" font-size="7" lengthAdjust="spacing" textLength="35.5" x="649.75" y="58.1748">TcpService</text><rect fill="#E2E2F0" height="25.6211" rx="1.25" ry="1.25" style="stroke:#181818;stroke-width:0.25;" width="42.5" x="646.25" y="800.334"/><text fill="#000000" font-family="sans-serif" font-size="7" font-style="italic" lengthAdjust="spacing" textLength="30" x="652.5" y="811.3877">&#171;service&#187;</text><text fill="#000000" font-family="sans-serif" font-size="7" lengthAdjust="spacing" textLength="35.5" x="649.75" y="820.6982">TcpService</text><rect fill="#E2E2F0" height="25.6211" rx="1.25" ry="1.25" style="stroke:#181818;stroke-width:0.25;" width="42" x="851.5" y="37.8105"/><text fill="#000000" font-family="sans-serif" font-size="7" font-style="italic" lengthAdjust="spacing" textLength="30" x="857.5" y="48.8643">&#171;service&#187;</text><text fill="#000000" font-family="sans-serif" font-size="7" lengthAdjust="spacing" textLength="35" x="855" y="58.1748">TcpChatCli</text><rect fill="#E2E2F0" height="25.6211" rx="1.25" ry="1.25" style="stroke:#181818;stroke-width:0.25;" width="42" x="851.5" y="800.334"/><text fill="#000000" font-family="sans-serif" font-size="7" font-style="italic" lengthAdjust="spacing" textLength="30" x="857.5" y="811.3877">&#171;service&#187;</text><text fill="#000000" font-family="sans-serif" font-size="7" lengthAdjust="spacing" textLength="35" x="855" y="820.6982">TcpChatCli</text><rect fill="#E2E2F0" height="25.6211" rx="1.25" ry="1.25" style="stroke:#181818;stroke-width:0.25;" width="44.5" x="1005.25" y="37.8105"/><text fill="#000000" font-family="sans-serif" font-size="7" font-style="italic" lengthAdjust="spacing" textLength="30" x="1012.5" y="48.8643">&#171;service&#187;</text><text fill="#000000" font-family="sans-serif" font-size="7" lengthAdjust="spacing" textLength="37.5" x="1008.75" y="58.1748">TcpChatSrv</text><rect fill="#E2E2F0" height="25.6211" rx="1.25" ry="1.25" style="stroke:#181818;stroke-width:0.25;" width="44.5" x="1005.25" y="800.334"/><text fill="#000000" font-family="sans-serif" font-size="7" font-style="italic" lengthAdjust="spacing" textLength="30" x="1012.5" y="811.3877">&#171;service&#187;</text><text fill="#000000" font-family="sans-serif" font-size="7" lengthAdjust="spacing" textLength="37.5" x="1008.75" y="820.6982">TcpChatSrv</text><rect fill="#E2E2F0" height="25.6211" rx="1.25" ry="1.25" style="stroke:#181818;stroke-width:0.25;" width="68" x="1075.5" y="37.8105"/><text fill="#000000" font-family="sans-serif" font-size="7" font-style="italic" lengthAdjust="spacing" textLength="44.5" x="1087.25" y="48.8643">&#171;persistence&#187;</text><text fill="#000000" font-family="sans-serif" font-size="7" lengthAdjust="spacing" textLength="61" x="1079" y="58.1748">PersistenceContext</text><rect fill="#E2E2F0" height="25.6211" rx="1.25" ry="1.25" style="stroke:#181818;stroke-width:0.25;" width="68" x="1075.5" y="800.334"/><text fill="#000000" font-family="sans-serif" font-size="7" font-style="italic" lengthAdjust="spacing" textLength="44.5" x="1087.25" y="811.3877">&#171;persistence&#187;</text><text fill="#000000" font-family="sans-serif" font-size="7" lengthAdjust="spacing" textLength="61" x="1079" y="820.6982">PersistenceContext</text><rect fill="#E2E2F0" height="25.6211" rx="1.25" ry="1.25" style="stroke:#181818;stroke-width:0.25;" width="65" x="1148.5" y="37.8105"/><text fill="#000000" font-family="sans-serif" font-size="7" font-style="italic" lengthAdjust="spacing" textLength="29.5" x="1166.25" y="48.8643">&#171;factory&#187;</text><text fill="#000000" font-family="sans-serif" font-size="7" lengthAdjust="spacing" textLength="58" x="1152" y="58.1748">RepositoryFactory</text><rect fill="#E2E2F0" height="25.6211" rx="1.25" ry="1.25" style="stroke:#181818;stroke-width:0.25;" width="65" x="1148.5" y="800.334"/><text fill="#000000" font-family="sans-serif" font-size="7" font-style="italic" lengthAdjust="spacing" textLength="29.5" x="1166.25" y="811.3877">&#171;factory&#187;</text><text fill="#000000" font-family="sans-serif" font-size="7" lengthAdjust="spacing" textLength="58" x="1152" y="820.6982">RepositoryFactory</text><text fill="#000000" font-family="sans-serif" font-size="7" font-style="italic" lengthAdjust="spacing" textLength="39.5" x="1234.75" y="52.8643">&#171;repository&#187;</text><text fill="#000000" font-family="sans-serif" font-size="7" lengthAdjust="spacing" textLength="72" x="1218.5" y="62.1748">JobOpeningRepository</text><path d="M1247,27.3105 C1247,22.3105 1256,22.3105 1256,22.3105 C1256,22.3105 1265,22.3105 1265,27.3105 L1265,40.3105 C1265,45.3105 1256,45.3105 1256,45.3105 C1256,45.3105 1247,45.3105 1247,40.3105 L1247,27.3105 " fill="#E2E2F0" style="stroke:#181818;stroke-width:0.75;"/><path d="M1247,27.3105 C1247,32.3105 1256,32.3105 1256,32.3105 C1256,32.3105 1265,32.3105 1265,27.3105 " fill="none" style="stroke:#181818;stroke-width:0.75;"/><text fill="#000000" font-family="sans-serif" font-size="7" font-style="italic" lengthAdjust="spacing" textLength="39.5" x="1234.75" y="807.8877">&#171;repository&#187;</text><text fill="#000000" font-family="sans-serif" font-size="7" lengthAdjust="spacing" textLength="72" x="1218.5" y="817.1982">JobOpeningRepository</text><path d="M1247,823.9551 C1247,818.9551 1256,818.9551 1256,818.9551 C1256,818.9551 1265,818.9551 1265,823.9551 L1265,836.9551 C1265,841.9551 1256,841.9551 1256,841.9551 C1256,841.9551 1247,841.9551 1247,836.9551 L1247,823.9551 " fill="#E2E2F0" style="stroke:#181818;stroke-width:0.75;"/><path d="M1247,823.9551 C1247,828.9551 1256,828.9551 1256,828.9551 C1256,828.9551 1265,828.9551 1265,823.9551 " fill="none" style="stroke:#181818;stroke-width:0.75;"/><rect fill="#E2E2F0" height="25.6211" rx="1.25" ry="1.25" style="stroke:#181818;stroke-width:0.25;" width="88.5" x="1298.5" y="37.8105"/><text fill="#000000" font-family="sans-serif" font-size="7" font-style="italic" lengthAdjust="spacing" textLength="31" x="1327.25" y="48.8643">&#171;domain&#187;</text><text fill="#000000" font-family="sans-serif" font-size="7" lengthAdjust="spacing" textLength="81.5" x="1302" y="58.1748">application:JobApplication</text><rect fill="#E2E2F0" height="25.6211" rx="1.25" ry="1.25" style="stroke:#181818;stroke-width:0.25;" width="88.5" x="1298.5" y="800.334"/><text fill="#000000" font-family="sans-serif" font-size="7" font-style="italic" lengthAdjust="spacing" textLength="31" x="1327.25" y="811.3877">&#171;domain&#187;</text><text fill="#000000" font-family="sans-serif" font-size="7" lengthAdjust="spacing" textLength="81.5" x="1302" y="820.6982">application:JobApplication</text><text fill="#000000" font-family="sans-serif" font-size="7" font-style="italic" lengthAdjust="spacing" textLength="39.5" x="1404.5" y="52.8643">&#171;repository&#187;</text><text fill="#000000" font-family="sans-serif" font-size="7" lengthAdjust="spacing" textLength="64.5" x="1392" y="62.1748">CustomerRepository</text><path d="M1416.75,27.3105 C1416.75,22.3105 1425.75,22.3105 1425.75,22.3105 C1425.75,22.3105 1434.75,22.3105 1434.75,27.3105 L1434.75,40.3105 C1434.75,45.3105 1425.75,45.3105 1425.75,45.3105 C1425.75,45.3105 1416.75,45.3105 1416.75,40.3105 L1416.75,27.3105 " fill="#E2E2F0" style="stroke:#181818;stroke-width:0.75;"/><path d="M1416.75,27.3105 C1416.75,32.3105 1425.75,32.3105 1425.75,32.3105 C1425.75,32.3105 1434.75,32.3105 1434.75,27.3105 " fill="none" style="stroke:#181818;stroke-width:0.75;"/><text fill="#000000" font-family="sans-serif" font-size="7" font-style="italic" lengthAdjust="spacing" textLength="39.5" x="1404.5" y="807.8877">&#171;repository&#187;</text><text fill="#000000" font-family="sans-serif" font-size="7" lengthAdjust="spacing" textLength="64.5" x="1392" y="817.1982">CustomerRepository</text><path d="M1416.75,823.9551 C1416.75,818.9551 1425.75,818.9551 1425.75,818.9551 C1425.75,818.9551 1434.75,818.9551 1434.75,823.9551 L1434.75,836.9551 C1434.75,841.9551 1425.75,841.9551 1425.75,841.9551 C1425.75,841.9551 1416.75,841.9551 1416.75,836.9551 L1416.75,823.9551 " fill="#E2E2F0" style="stroke:#181818;stroke-width:0.75;"/><path d="M1416.75,823.9551 C1416.75,828.9551 1425.75,828.9551 1425.75,828.9551 C1425.75,828.9551 1434.75,828.9551 1434.75,823.9551 " fill="none" style="stroke:#181818;stroke-width:0.75;"/><rect fill="#E2E2F0" height="16.3105" rx="1.25" ry="1.25" style="stroke:#181818;stroke-width:0.25;" width="30.5" x="1464.5" y="47.1211"/><text fill="#000000" font-family="sans-serif" font-size="7" lengthAdjust="spacing" textLength="23.5" x="1468" y="58.1748">Service</text><rect fill="#E2E2F0" height="16.3105" rx="1.25" ry="1.25" style="stroke:#181818;stroke-width:0.25;" width="30.5" x="1464.5" y="800.334"/><text fill="#000000" font-family="sans-serif" font-size="7" lengthAdjust="spacing" textLength="23.5" x="1468" y="811.3877">Service</text><rect fill="#FFFFFF" height="711.2568" style="stroke:#181818;stroke-width:0.5;" width="5" x="106.75" y="80.5771"/><rect fill="#FFFFFF" height="240.6826" style="stroke:#181818;stroke-width:0.5;" width="5" x="271.25" y="96.2227"/><rect fill="#FFFFFF" height="125.1641" style="stroke:#181818;stroke-width:0.5;" width="5" x="271.25" y="352.5508"/><rect fill="#FFFFFF" height="282.8281" style="stroke:#181818;stroke-width:0.5;" width="5" x="271.25" y="493.3604"/><rect fill="#FFFFFF" height="46.9365" style="stroke:#181818;stroke-width:0.5;" width="5" x="393.75" y="368.1963"/><rect fill="#FFFFFF" height="15.6455" style="stroke:#181818;stroke-width:0.5;" width="5" x="479" y="383.8418"/><rect fill="#FFFFFF" height="31.291" style="stroke:#181818;stroke-width:0.5;" width="5" x="537" y="430.7783"/><rect fill="#FFFFFF" height="235.8916" style="stroke:#181818;stroke-width:0.5;" width="5" x="665" y="509.0059"/><rect fill="#FFFFFF" height="62.9365" style="stroke:#181818;stroke-width:0.5;" width="5" x="870" y="562.4424"/><rect fill="#FFFFFF" height="18.6455" style="stroke:#181818;stroke-width:0.5;" width="5" x="1025" y="524.6514"/><rect fill="#FFFFFF" height="49.9365" style="stroke:#181818;stroke-width:0.5;" width="5" x="1107" y="111.8682"/><rect fill="#FFFFFF" height="49.9365" style="stroke:#181818;stroke-width:0.5;" width="5" x="1107" y="224.3867"/><rect fill="#FFFFFF" height="31.291" style="stroke:#181818;stroke-width:0.5;" width="5" x="1178.5" y="177.4502"/><rect fill="#FFFFFF" height="31.291" style="stroke:#181818;stroke-width:0.5;" width="5" x="1178.5" y="289.9688"/><polygon fill="#181818" points="100.75,78.5771,105.75,80.5771,100.75,82.5771,102.75,80.5771" style="stroke:#181818;stroke-width:0.5;"/><line style="stroke:#181818;stroke-width:0.5;stroke-dasharray:2.0,2.0;" x1="20.25" x2="103.75" y1="80.5771" y2="80.5771"/><text fill="#000000" font-family="sans-serif" font-size="6.5" lengthAdjust="spacing" textLength="77" x="23.75" y="77.9458">List candidate applications</text><polygon fill="#181818" points="265.25,94.2227,270.25,96.2227,265.25,98.2227,267.25,96.2227" style="stroke:#181818;stroke-width:0.5;"/><line style="stroke:#181818;stroke-width:0.5;" x1="111.75" x2="268.25" y1="96.2227" y2="96.2227"/><text fill="#000000" font-family="sans-serif" font-size="6.5" lengthAdjust="spacing" textLength="121" x="115.25" y="93.5913">new ListCustomerJobOpeningsController()</text><polygon fill="#181818" points="1101,109.8682,1106,111.8682,1101,113.8682,1103,111.8682" style="stroke:#181818;stroke-width:0.5;"/><line style="stroke:#181818;stroke-width:0.5;" x1="276.25" x2="1104" y1="111.8682" y2="111.8682"/><text fill="#000000" font-family="sans-serif" font-size="6.5" lengthAdjust="spacing" textLength="37.5" x="279.75" y="109.2368">repositories()</text><path d="M1114.5,118.3682 L1114.5,131.8682 L1167.5,131.8682 L1167.5,123.3682 L1162.5,118.3682 L1114.5,118.3682 " fill="#FEFFDD" style="stroke:#181818;stroke-width:0.25;"/><path d="M1162.5,118.3682 L1162.5,123.3682 L1167.5,123.3682 L1162.5,118.3682 " fill="#FEFFDD" style="stroke:#181818;stroke-width:0.25;"/><text fill="#000000" font-family="sans-serif" font-size="6.5" lengthAdjust="spacing" textLength="42.5" x="1117.5" y="127.8823">creates in JPA</text><polygon fill="#181818" points="1175,144.1592,1180,146.1592,1175,148.1592,1177,146.1592" style="stroke:#181818;stroke-width:0.5;"/><line style="stroke:#181818;stroke-width:0.5;" x1="1112" x2="1178" y1="146.1592" y2="146.1592"/><text fill="#000000" font-family="sans-serif" font-size="6.5" lengthAdjust="spacing" textLength="18" x="1115.5" y="143.5278">create</text><polygon fill="#181818" points="281.75,159.8047,276.75,161.8047,281.75,163.8047,279.75,161.8047" style="stroke:#181818;stroke-width:0.5;"/><line style="stroke:#181818;stroke-width:0.5;stroke-dasharray:2.0,2.0;" x1="278.75" x2="1109" y1="161.8047" y2="161.8047"/><text fill="#000000" font-family="sans-serif" font-size="6.5" lengthAdjust="spacing" textLength="19.5" x="284.75" y="159.1733">factory</text><polygon fill="#181818" points="1172.5,175.4502,1177.5,177.4502,1172.5,179.4502,1174.5,177.4502" style="stroke:#181818;stroke-width:0.5;"/><line style="stroke:#181818;stroke-width:0.5;" x1="276.25" x2="1175.5" y1="177.4502" y2="177.4502"/><text fill="#000000" font-family="sans-serif" font-size="6.5" lengthAdjust="spacing" textLength="40" x="279.75" y="174.8188">jobOpenings()</text><polygon fill="#181818" points="1250,191.0957,1255,193.0957,1250,195.0957,1252,193.0957" style="stroke:#181818;stroke-width:0.5;"/><line style="stroke:#181818;stroke-width:0.5;" x1="1183.5" x2="1253" y1="193.0957" y2="193.0957"/><text fill="#000000" font-family="sans-serif" font-size="6.5" lengthAdjust="spacing" textLength="18" x="1187" y="190.4644">create</text><polygon fill="#181818" points="281.75,206.7412,276.75,208.7412,281.75,210.7412,279.75,208.7412" style="stroke:#181818;stroke-width:0.5;"/><line style="stroke:#181818;stroke-width:0.5;stroke-dasharray:2.0,2.0;" x1="278.75" x2="1180.5" y1="208.7412" y2="208.7412"/><text fill="#000000" font-family="sans-serif" font-size="6.5" lengthAdjust="spacing" textLength="65" x="284.75" y="206.1099">JobOpeningRepository</text><polygon fill="#181818" points="1101,222.3867,1106,224.3867,1101,226.3867,1103,224.3867" style="stroke:#181818;stroke-width:0.5;"/><line style="stroke:#181818;stroke-width:0.5;" x1="276.25" x2="1104" y1="224.3867" y2="224.3867"/><text fill="#000000" font-family="sans-serif" font-size="6.5" lengthAdjust="spacing" textLength="37.5" x="279.75" y="221.7554">repositories()</text><path d="M1114.5,230.8867 L1114.5,244.3867 L1167.5,244.3867 L1167.5,235.8867 L1162.5,230.8867 L1114.5,230.8867 " fill="#FEFFDD" style="stroke:#181818;stroke-width:0.25;"/><path d="M1162.5,230.8867 L1162.5,235.8867 L1167.5,235.8867 L1162.5,230.8867 " fill="#FEFFDD" style="stroke:#181818;stroke-width:0.25;"/><text fill="#000000" font-family="sans-serif" font-size="6.5" lengthAdjust="spacing" textLength="42.5" x="1117.5" y="240.4009">creates in JPA</text><polygon fill="#181818" points="1175,256.6777,1180,258.6777,1175,260.6777,1177,258.6777" style="stroke:#181818;stroke-width:0.5;"/><line style="stroke:#181818;stroke-width:0.5;" x1="1112" x2="1178" y1="258.6777" y2="258.6777"/><text fill="#000000" font-family="sans-serif" font-size="6.5" lengthAdjust="spacing" textLength="18" x="1115.5" y="256.0464">create</text><polygon fill="#181818" points="281.75,272.3232,276.75,274.3232,281.75,276.3232,279.75,274.3232" style="stroke:#181818;stroke-width:0.5;"/><line style="stroke:#181818;stroke-width:0.5;stroke-dasharray:2.0,2.0;" x1="278.75" x2="1109" y1="274.3232" y2="274.3232"/><text fill="#000000" font-family="sans-serif" font-size="6.5" lengthAdjust="spacing" textLength="19.5" x="284.75" y="271.6919">factory</text><polygon fill="#181818" points="1172.5,287.9688,1177.5,289.9688,1172.5,291.9688,1174.5,289.9688" style="stroke:#181818;stroke-width:0.5;"/><line style="stroke:#181818;stroke-width:0.5;" x1="276.25" x2="1175.5" y1="289.9688" y2="289.9688"/><text fill="#000000" font-family="sans-serif" font-size="6.5" lengthAdjust="spacing" textLength="34.5" x="279.75" y="287.3374">customers()</text><polygon fill="#181818" points="1250,303.6143,1255,305.6143,1250,307.6143,1252,305.6143" style="stroke:#181818;stroke-width:0.5;"/><line style="stroke:#181818;stroke-width:0.5;" x1="1183.5" x2="1253" y1="305.6143" y2="305.6143"/><text fill="#000000" font-family="sans-serif" font-size="6.5" lengthAdjust="spacing" textLength="18" x="1187" y="302.9829">create</text><polygon fill="#181818" points="281.75,319.2598,276.75,321.2598,281.75,323.2598,279.75,321.2598" style="stroke:#181818;stroke-width:0.5;"/><line style="stroke:#181818;stroke-width:0.5;stroke-dasharray:2.0,2.0;" x1="278.75" x2="1180.5" y1="321.2598" y2="321.2598"/><text fill="#000000" font-family="sans-serif" font-size="6.5" lengthAdjust="spacing" textLength="59" x="284.75" y="318.6284">CustomerRepository</text><polygon fill="#181818" points="661.5,334.9053,666.5,336.9053,661.5,338.9053,663.5,336.9053" style="stroke:#181818;stroke-width:0.5;"/><line style="stroke:#181818;stroke-width:0.5;" x1="273.75" x2="664.5" y1="336.9053" y2="336.9053"/><text fill="#000000" font-family="sans-serif" font-size="6.5" lengthAdjust="spacing" textLength="177" x="277.25" y="334.2739">new TcpService(CustomerRepository, JobOpeningRepository)</text><polygon fill="#181818" points="265.25,350.5508,270.25,352.5508,265.25,354.5508,267.25,352.5508" style="stroke:#181818;stroke-width:0.5;"/><line style="stroke:#181818;stroke-width:0.5;" x1="111.75" x2="268.25" y1="352.5508" y2="352.5508"/><text fill="#000000" font-family="sans-serif" font-size="6.5" lengthAdjust="spacing" textLength="63" x="115.25" y="349.9194">getLoggedCandidate()</text><polygon fill="#181818" points="387.75,366.1963,392.75,368.1963,387.75,370.1963,389.75,368.1963" style="stroke:#181818;stroke-width:0.5;"/><line style="stroke:#181818;stroke-width:0.5;" x1="276.25" x2="390.75" y1="368.1963" y2="368.1963"/><text fill="#000000" font-family="sans-serif" font-size="6.5" lengthAdjust="spacing" textLength="62" x="279.75" y="365.5649">getLoggedCustomer()</text><polygon fill="#181818" points="473,381.8418,478,383.8418,473,385.8418,475,383.8418" style="stroke:#181818;stroke-width:0.5;"/><line style="stroke:#181818;stroke-width:0.5;" x1="398.75" x2="476" y1="383.8418" y2="383.8418"/><text fill="#000000" font-family="sans-serif" font-size="6.5" lengthAdjust="spacing" textLength="13" x="402.25" y="381.2104">get()</text><polygon fill="#181818" points="404.25,397.4873,399.25,399.4873,404.25,401.4873,402.25,399.4873" style="stroke:#181818;stroke-width:0.5;"/><line style="stroke:#181818;stroke-width:0.5;stroke-dasharray:2.0,2.0;" x1="401.25" x2="481" y1="399.4873" y2="399.4873"/><text fill="#000000" font-family="sans-serif" font-size="6.5" lengthAdjust="spacing" textLength="12.5" x="407.25" y="396.856">user</text><polygon fill="#181818" points="281.75,413.1328,276.75,415.1328,281.75,417.1328,279.75,415.1328" style="stroke:#181818;stroke-width:0.5;"/><line style="stroke:#181818;stroke-width:0.5;stroke-dasharray:2.0,2.0;" x1="278.75" x2="395.75" y1="415.1328" y2="415.1328"/><text fill="#000000" font-family="sans-serif" font-size="6.5" lengthAdjust="spacing" textLength="12.5" x="284.75" y="412.5015">user</text><polygon fill="#181818" points="531,428.7783,536,430.7783,531,432.7783,533,430.7783" style="stroke:#181818;stroke-width:0.5;"/><line style="stroke:#181818;stroke-width:0.5;" x1="276.25" x2="534" y1="430.7783" y2="430.7783"/><text fill="#000000" font-family="sans-serif" font-size="6.5" lengthAdjust="spacing" textLength="17.5" x="279.75" y="428.147">build()</text><polygon fill="#181818" points="601.75,444.4238,606.75,446.4238,601.75,448.4238,603.75,446.4238" style="stroke:#181818;stroke-width:0.5;"/><line style="stroke:#181818;stroke-width:0.5;" x1="542" x2="604.75" y1="446.4238" y2="446.4238"/><text fill="#000000" font-family="sans-serif" font-size="6.5" lengthAdjust="spacing" textLength="18" x="545.5" y="443.7925">create</text><polygon fill="#181818" points="281.75,460.0693,276.75,462.0693,281.75,464.0693,279.75,462.0693" style="stroke:#181818;stroke-width:0.5;"/><line style="stroke:#181818;stroke-width:0.5;stroke-dasharray:2.0,2.0;" x1="278.75" x2="539" y1="462.0693" y2="462.0693"/><text fill="#000000" font-family="sans-serif" font-size="6.5" lengthAdjust="spacing" textLength="27" x="284.75" y="459.438">customer</text><polygon fill="#181818" points="117.25,475.7148,112.25,477.7148,117.25,479.7148,115.25,477.7148" style="stroke:#181818;stroke-width:0.5;"/><line style="stroke:#181818;stroke-width:0.5;stroke-dasharray:2.0,2.0;" x1="114.25" x2="273.25" y1="477.7148" y2="477.7148"/><text fill="#000000" font-family="sans-serif" font-size="6.5" lengthAdjust="spacing" textLength="27" x="120.25" y="475.0835">customer</text><polygon fill="#181818" points="265.25,491.3604,270.25,493.3604,265.25,495.3604,267.25,493.3604" style="stroke:#181818;stroke-width:0.5;"/><line style="stroke:#181818;stroke-width:0.5;" x1="111.75" x2="268.25" y1="493.3604" y2="493.3604"/><text fill="#000000" font-family="sans-serif" font-size="6.5" lengthAdjust="spacing" textLength="150" x="115.25" y="490.729">retrieveCustomerJobOpeningsFromServer(customer)</text><polygon fill="#181818" points="659,507.0059,664,509.0059,659,511.0059,661,509.0059" style="stroke:#181818;stroke-width:0.5;"/><line style="stroke:#181818;stroke-width:0.5;" x1="276.25" x2="662" y1="509.0059" y2="509.0059"/><text fill="#000000" font-family="sans-serif" font-size="6.5" lengthAdjust="spacing" textLength="260" x="279.75" y="506.3745">communicate(MessageCode.LIST_CUSTOMER_ALL_JOB_OPENING, customerEmail, "")</text><polygon fill="#181818" points="1019,522.6514,1024,524.6514,1019,526.6514,1021,524.6514" style="stroke:#181818;stroke-width:0.5;"/><line style="stroke:#181818;stroke-width:0.5;" x1="670" x2="1022" y1="524.6514" y2="524.6514"/><text fill="#000000" font-family="sans-serif" font-size="6.5" lengthAdjust="spacing" textLength="163" x="673.5" y="522.02">startServer(JobOpeningRepository, CustomerRepository)</text><line style="stroke:#181818;stroke-width:0.5;" x1="1030" x2="1051" y1="542.7969" y2="542.7969"/><line style="stroke:#181818;stroke-width:0.5;" x1="1051" x2="1051" y1="542.7969" y2="549.2969"/><line style="stroke:#181818;stroke-width:0.5;" x1="1027.5" x2="1051" y1="549.2969" y2="549.2969"/><polygon fill="#181818" points="1032.5,547.2969,1027.5,549.2969,1032.5,551.2969,1030.5,549.2969" style="stroke:#181818;stroke-width:0.5;"/><text fill="#000000" font-family="sans-serif" font-size="6.5" lengthAdjust="spacing" textLength="70" x="1033.5" y="540.1655">new ServerSocket(8080)</text><polygon fill="#181818" points="864,560.4424,869,562.4424,864,564.4424,866,562.4424" style="stroke:#181818;stroke-width:0.5;"/><line style="stroke:#181818;stroke-width:0.5;" x1="670" x2="867" y1="562.4424" y2="562.4424"/><text fill="#000000" font-family="sans-serif" font-size="6.5" lengthAdjust="spacing" textLength="27" x="673.5" y="559.811">connect()</text><line style="stroke:#181818;stroke-width:0.5;" x1="875" x2="896" y1="578.0879" y2="578.0879"/><line style="stroke:#181818;stroke-width:0.5;" x1="896" x2="896" y1="578.0879" y2="584.5879"/><line style="stroke:#181818;stroke-width:0.5;" x1="875.5" x2="896" y1="584.5879" y2="584.5879"/><polygon fill="#181818" points="880.5,582.5879,875.5,584.5879,880.5,586.5879,878.5,584.5879" style="stroke:#181818;stroke-width:0.5;"/><text fill="#000000" font-family="sans-serif" font-size="6.5" lengthAdjust="spacing" textLength="136.5" x="878.5" y="575.4565">new Socket(InetAddress.getLocalHost(), 8080);</text><line style="stroke:#181818;stroke-width:0.5;" x1="875" x2="896" y1="600.2334" y2="600.2334"/><line style="stroke:#181818;stroke-width:0.5;" x1="896" x2="896" y1="600.2334" y2="606.7334"/><line style="stroke:#181818;stroke-width:0.5;" x1="875.5" x2="896" y1="606.7334" y2="606.7334"/><polygon fill="#181818" points="880.5,604.7334,875.5,606.7334,880.5,608.7334,878.5,606.7334" style="stroke:#181818;stroke-width:0.5;"/><text fill="#000000" font-family="sans-serif" font-size="6.5" lengthAdjust="spacing" textLength="143" x="878.5" y="597.6021">new DataOutputStream(sock.getOutputStream());</text><line style="stroke:#181818;stroke-width:0.5;" x1="875" x2="896" y1="624.8789" y2="624.8789"/><line style="stroke:#181818;stroke-width:0.5;" x1="896" x2="896" y1="624.8789" y2="631.3789"/><line style="stroke:#181818;stroke-width:0.5;" x1="872.5" x2="896" y1="631.3789" y2="631.3789"/><polygon fill="#181818" points="877.5,629.3789,872.5,631.3789,877.5,633.3789,875.5,631.3789" style="stroke:#181818;stroke-width:0.5;"/><text fill="#000000" font-family="sans-serif" font-size="6.5" lengthAdjust="spacing" textLength="132" x="878.5" y="622.2476">new DataInputStream(sock.getInputStream());</text><polygon fill="#181818" points="866.5,642.5244,871.5,644.5244,866.5,646.5244,868.5,644.5244" style="stroke:#181818;stroke-width:0.5;"/><line style="stroke:#181818;stroke-width:0.5;" x1="670" x2="869.5" y1="644.5244" y2="644.5244"/><text fill="#000000" font-family="sans-serif" font-size="6.5" lengthAdjust="spacing" textLength="58" x="673.5" y="641.8931">listenForResponse()</text><polygon fill="#181818" points="866.5,658.1699,871.5,660.1699,866.5,662.1699,868.5,660.1699" style="stroke:#181818;stroke-width:0.5;"/><line style="stroke:#181818;stroke-width:0.5;" x1="670" x2="869.5" y1="660.1699" y2="660.1699"/><text fill="#000000" font-family="sans-serif" font-size="6.5" lengthAdjust="spacing" textLength="190.5" x="673.5" y="657.5386">sendMessage(versionBytes, codeBytes, data1Bytes, data2Bytes)</text><polygon fill="#181818" points="866.5,673.8154,871.5,675.8154,866.5,677.8154,868.5,675.8154" style="stroke:#181818;stroke-width:0.5;"/><line style="stroke:#181818;stroke-width:0.5;" x1="670" x2="869.5" y1="675.8154" y2="675.8154"/><text fill="#000000" font-family="sans-serif" font-size="6.5" lengthAdjust="spacing" textLength="50.5" x="673.5" y="673.1841">receiveMessage()</text><polygon fill="#181818" points="866.5,689.4609,871.5,691.4609,866.5,693.4609,868.5,691.4609" style="stroke:#181818;stroke-width:0.5;"/><line style="stroke:#181818;stroke-width:0.5;" x1="670" x2="869.5" y1="691.4609" y2="691.4609"/><text fill="#000000" font-family="sans-serif" font-size="6.5" lengthAdjust="spacing" textLength="19.5" x="673.5" y="688.8296">close()</text><polygon fill="#181818" points="1473.75,705.1064,1478.75,707.1064,1473.75,709.1064,1475.75,707.1064" style="stroke:#181818;stroke-width:0.5;"/><line style="stroke:#181818;stroke-width:0.5;" x1="670" x2="1476.75" y1="707.1064" y2="707.1064"/><text fill="#000000" font-family="sans-serif" font-size="6.5" lengthAdjust="spacing" textLength="34.5" x="673.5" y="704.4751">stopServer()</text><line style="stroke:#181818;stroke-width:0.5;" x1="670" x2="691" y1="722.752" y2="722.752"/><line style="stroke:#181818;stroke-width:0.5;" x1="691" x2="691" y1="722.752" y2="729.252"/><line style="stroke:#181818;stroke-width:0.5;" x1="670.5" x2="691" y1="729.252" y2="729.252"/><polygon fill="#181818" points="675.5,727.252,670.5,729.252,675.5,731.252,673.5,729.252" style="stroke:#181818;stroke-width:0.5;"/><text fill="#000000" font-family="sans-serif" font-size="6.5" lengthAdjust="spacing" textLength="52.5" x="673.5" y="720.1206">serverThread.join()</text><polygon fill="#181818" points="281.75,742.8975,276.75,744.8975,281.75,746.8975,279.75,744.8975" style="stroke:#181818;stroke-width:0.5;"/><line style="stroke:#181818;stroke-width:0.5;stroke-dasharray:2.0,2.0;" x1="278.75" x2="667" y1="744.8975" y2="744.8975"/><text fill="#000000" font-family="sans-serif" font-size="6.5" lengthAdjust="spacing" textLength="26.5" x="284.75" y="742.2661">response</text><polygon fill="#181818" points="661.5,758.543,666.5,760.543,661.5,762.543,663.5,760.543" style="stroke:#181818;stroke-width:0.5;"/><line style="stroke:#181818;stroke-width:0.5;" x1="276.25" x2="664.5" y1="760.543" y2="760.543"/><text fill="#000000" font-family="sans-serif" font-size="6.5" lengthAdjust="spacing" textLength="114.5" x="279.75" y="757.9116">findJobOpeningsByCustomer(customer)</text><polygon fill="#181818" points="117.25,774.1885,112.25,776.1885,117.25,778.1885,115.25,776.1885" style="stroke:#181818;stroke-width:0.5;"/><line style="stroke:#181818;stroke-width:0.5;stroke-dasharray:2.0,2.0;" x1="114.25" x2="273.25" y1="776.1885" y2="776.1885"/><text fill="#000000" font-family="sans-serif" font-size="6.5" lengthAdjust="spacing" textLength="34.5" x="120.25" y="773.5571">applications</text><polygon fill="#181818" points="25.75,789.834,20.75,791.834,25.75,793.834,23.75,791.834" style="stroke:#181818;stroke-width:0.5;"/><line style="stroke:#181818;stroke-width:0.5;stroke-dasharray:2.0,2.0;" x1="22.75" x2="108.75" y1="791.834" y2="791.834"/><text fill="#000000" font-family="sans-serif" font-size="6.5" lengthAdjust="spacing" textLength="58" x="28.75" y="789.2026">Display applications</text><!--SRC=[xLTBKzim4BxxLsXo2ZE1eUs5SJFCX0JQC6d3O79cXBqaAexaMdBQyEkxybEovH1wwQKvP2Hvzzk7zYNvmdX2Kxeb2GrVw1e2jO-1f10gojSnUB8ca1iQYL-ChyapZQNv9MOSr3u1aeXuhpUUyJ6CgPGJfLBsb2cOXu87x1N8kUSffb1K03ypu26G6QDhpJ0CPYVabAocvvykF8-6IgHaIdd48gg0K4ac-iX3TCL2bb2ko899DSsa4bj8RyNJCW6EUihLN9FZ_tYSf221AwgOu9UNnp1F1LUfY6D8DOYn6uzfaiGiT64DQAOshm6aEnQ2Fy6DIDbhJbaU3d8B32h4ayMgXRN2um2aHDxS36FRnrAPSPMnE2eLRntriGx2aj2l5WEJVIQsb6d1KRveCJ-4IMKDyXYxFcb8CjrGDOrPBYHcU3Tl4GVfJXDhw0Dst44gyK9rHEaxWzzACncdEXYQNOlx7X8X6ORN_YOFlBrchfRZyNEnGYQCHVf49P0cOXfUpUGy7u_JUjE9d2QeV6IUDDj1YMSSTQ-ZLgYwCLiTnsbB6IzFAt9wUeaPu-TPGS8cxHhPKkSas-dJrTpp2FumnP2joH6VSFZrTc8DJtBk6gxvKi3gdv5uACAuHv_KwZEG9PG5Pn3N7_MF2_oOilL64V5iGuOf8ASawDlRkud5POOGQb86HSNIJzfoJ1b2DNq4JdrxxA-b_cZywJBzfYL5_wemHXXNS3ejgNbQLhW0N2PLUlo_piFNMTNSVtAPtThm5rVP5FqY-Plzi8i_SYfTc6w8RDU3RfbPWrg8zHgYUa1uVqqncx69M6hjkX6JnRDyR7LsNKgRhfrZ6sWMea5d0-Ps6wt_jADnXbyj5iE3lR2sdYslMeW6cjjisvkjUSCdJthXScABqjQlFROOo4NlSqPuXwjbM9LcBkDwrJ7jAvkZXVEkW4q11s7OWQCltgHYMmmtmmh_tR5iPc4ejjkCwwODmsyO0pZSJqK4PujvyF0uNGKFos_Nzu-JnUBnTddrkBox_Zx__cLKstQDNev7P31mN5qZnhurO_93PGfZV28LpZcbPQwy7pagK4-Q52ZT32c7GaEeha75EX3X2oRUnVd5-KbVdhXmRMEA6LLxbNDy7FNbSK7MLR0SSGsWNC52jJa-doPHX4yKUPRNdv36NuL48IEIg_tvIBmP3e7BJ2MP2XHcntOeKO26j0vFteKtvrquywoDPgQ3mnbkhyPvexmH604omH5Jb_4ZsF195vMXFTpfTYlurHuRFaOnHdgvr9Fn1sFzCLyVXO_FO60xg4GSnHF6uYtrwnJ5g4_An3Z8OAQrpEaVDkZywEo7OFmGQwVw5DvrrJzNJlSNbsV68wDsNUthTjdKhaCLr7fF7555TTVJyuTFPamcCTtR26RBctj_0000]--></g></svg>