<?xml version="1.0" encoding="us-ascii" standalone="no"?><svg xmlns="http://www.w3.org/2000/svg" xmlns:xlink="http://www.w3.org/1999/xlink" contentStyleType="text/css" height="638px" preserveAspectRatio="none" style="width:586px;height:638px;background:#FFFFFF;" version="1.1" viewBox="0 0 586 638" width="586px" zoomAndPan="magnify"><defs/><g><text fill="#000000" font-family="sans-serif" font-size="14" font-weight="bold" lengthAdjust="spacing" textLength="190" x="191" y="25.1074">Class Diagram (CD) - UC027</text><!--class ClosePhasesJobOpeningUI--><g id="elem_ClosePhasesJobOpeningUI"><rect codeLine="8" fill="#F1F1F1" height="60.582" id="ClosePhasesJobOpeningUI" rx="2.5" ry="2.5" style="stroke:#181818;stroke-width:0.5;" width="203" x="144" y="46.6211"/><ellipse cx="159" cy="68.9121" fill="#ADD1B2" rx="11" ry="11" style="stroke:#181818;stroke-width:1.0;"/><path d="M161.7656,64.7871 Q161.9219,64.5684 162.1094,64.459 Q162.2969,64.3496 162.5156,64.3496 Q162.8906,64.3496 163.125,64.6152 Q163.3594,64.8652 163.3594,65.4746 L163.3594,66.9277 Q163.3594,67.5371 163.125,67.8027 Q162.8906,68.0684 162.5156,68.0684 Q162.1719,68.0684 161.9688,67.8652 Q161.7656,67.6777 161.6563,67.1621 Q161.6094,66.8027 161.4219,66.6152 Q161.0938,66.2402 160.4844,66.0215 Q159.875,65.8027 159.25,65.8027 Q158.4844,65.8027 157.8438,66.1309 Q157.2188,66.459 156.7188,67.209 Q156.2344,67.959 156.2344,68.9902 L156.2344,70.084 Q156.2344,71.3184 157.125,72.1465 Q158.0156,72.959 159.6094,72.959 Q160.5469,72.959 161.2031,72.709 Q161.5938,72.5527 162.0156,72.1152 Q162.2813,71.8496 162.4219,71.7715 Q162.5781,71.6934 162.7813,71.6934 Q163.1094,71.6934 163.3594,71.959 Q163.625,72.209 163.625,72.5527 Q163.625,72.8965 163.2813,73.3027 Q162.7813,73.8809 161.9844,74.209 Q160.9063,74.6621 159.6094,74.6621 Q158.0938,74.6621 156.8906,74.0371 Q155.9063,73.5371 155.2188,72.4746 Q154.5313,71.3965 154.5313,70.1152 L154.5313,68.959 Q154.5313,67.6309 155.1406,66.4902 Q155.7656,65.334 156.8594,64.7246 Q157.9531,64.0996 159.1875,64.0996 Q159.9219,64.0996 160.5625,64.2715 Q161.2188,64.4277 161.7656,64.7871 Z " fill="#000000"/><text fill="#000000" font-family="sans-serif" font-size="12" font-style="italic" lengthAdjust="spacing" textLength="61" x="228" y="64.5703">&#171;interface&#187;</text><text fill="#000000" font-family="sans-serif" font-size="14" lengthAdjust="spacing" textLength="171" x="173" y="82.6895">ClosePhasesJobOpeningUI</text><line style="stroke:#181818;stroke-width:0.5;" x1="145" x2="346" y1="91.2031" y2="91.2031"/><line style="stroke:#181818;stroke-width:0.5;" x1="145" x2="346" y1="99.2031" y2="99.2031"/></g><!--class SetupJobOpeningPhasesController--><g id="elem_SetupJobOpeningPhasesController"><rect codeLine="10" fill="#F1F1F1" height="60.582" id="SetupJobOpeningPhasesController" rx="2.5" ry="2.5" style="stroke:#181818;stroke-width:0.5;" width="254" x="118.5" y="168.6211"/><ellipse cx="133.5" cy="190.9121" fill="#ADD1B2" rx="11" ry="11" style="stroke:#181818;stroke-width:1.0;"/><path d="M136.2656,186.7871 Q136.4219,186.5684 136.6094,186.459 Q136.7969,186.3496 137.0156,186.3496 Q137.3906,186.3496 137.625,186.6152 Q137.8594,186.8652 137.8594,187.4746 L137.8594,188.9277 Q137.8594,189.5371 137.625,189.8027 Q137.3906,190.0684 137.0156,190.0684 Q136.6719,190.0684 136.4688,189.8652 Q136.2656,189.6777 136.1563,189.1621 Q136.1094,188.8027 135.9219,188.6152 Q135.5938,188.2402 134.9844,188.0215 Q134.375,187.8027 133.75,187.8027 Q132.9844,187.8027 132.3438,188.1309 Q131.7188,188.459 131.2188,189.209 Q130.7344,189.959 130.7344,190.9902 L130.7344,192.084 Q130.7344,193.3184 131.625,194.1465 Q132.5156,194.959 134.1094,194.959 Q135.0469,194.959 135.7031,194.709 Q136.0938,194.5527 136.5156,194.1152 Q136.7813,193.8496 136.9219,193.7715 Q137.0781,193.6934 137.2813,193.6934 Q137.6094,193.6934 137.8594,193.959 Q138.125,194.209 138.125,194.5527 Q138.125,194.8965 137.7813,195.3027 Q137.2813,195.8809 136.4844,196.209 Q135.4063,196.6621 134.1094,196.6621 Q132.5938,196.6621 131.3906,196.0371 Q130.4063,195.5371 129.7188,194.4746 Q129.0313,193.3965 129.0313,192.1152 L129.0313,190.959 Q129.0313,189.6309 129.6406,188.4902 Q130.2656,187.334 131.3594,186.7246 Q132.4531,186.0996 133.6875,186.0996 Q134.4219,186.0996 135.0625,186.2715 Q135.7188,186.4277 136.2656,186.7871 Z " fill="#000000"/><text fill="#000000" font-family="sans-serif" font-size="12" font-style="italic" lengthAdjust="spacing" textLength="65" x="226" y="186.5703">&#171;controller&#187;</text><text fill="#000000" font-family="sans-serif" font-size="14" lengthAdjust="spacing" textLength="222" x="147.5" y="204.6895">SetupJobOpeningPhasesController</text><line style="stroke:#181818;stroke-width:0.5;" x1="119.5" x2="371.5" y1="213.2031" y2="213.2031"/><line style="stroke:#181818;stroke-width:0.5;" x1="119.5" x2="371.5" y1="221.2031" y2="221.2031"/></g><!--class JobOpeningManagementService--><g id="elem_JobOpeningManagementService"><rect codeLine="12" fill="#F1F1F1" height="60.582" id="JobOpeningManagementService" rx="2.5" ry="2.5" style="stroke:#181818;stroke-width:0.5;" width="237" x="7" y="308.6211"/><ellipse cx="22" cy="330.9121" fill="#ADD1B2" rx="11" ry="11" style="stroke:#181818;stroke-width:1.0;"/><path d="M24.7656,326.7871 Q24.9219,326.5684 25.1094,326.459 Q25.2969,326.3496 25.5156,326.3496 Q25.8906,326.3496 26.125,326.6152 Q26.3594,326.8652 26.3594,327.4746 L26.3594,328.9277 Q26.3594,329.5371 26.125,329.8027 Q25.8906,330.0684 25.5156,330.0684 Q25.1719,330.0684 24.9688,329.8652 Q24.7656,329.6777 24.6563,329.1621 Q24.6094,328.8027 24.4219,328.6152 Q24.0938,328.2402 23.4844,328.0215 Q22.875,327.8027 22.25,327.8027 Q21.4844,327.8027 20.8438,328.1309 Q20.2188,328.459 19.7188,329.209 Q19.2344,329.959 19.2344,330.9902 L19.2344,332.084 Q19.2344,333.3184 20.125,334.1465 Q21.0156,334.959 22.6094,334.959 Q23.5469,334.959 24.2031,334.709 Q24.5938,334.5527 25.0156,334.1152 Q25.2813,333.8496 25.4219,333.7715 Q25.5781,333.6934 25.7813,333.6934 Q26.1094,333.6934 26.3594,333.959 Q26.625,334.209 26.625,334.5527 Q26.625,334.8965 26.2813,335.3027 Q25.7813,335.8809 24.9844,336.209 Q23.9063,336.6621 22.6094,336.6621 Q21.0938,336.6621 19.8906,336.0371 Q18.9063,335.5371 18.2188,334.4746 Q17.5313,333.3965 17.5313,332.1152 L17.5313,330.959 Q17.5313,329.6309 18.1406,328.4902 Q18.7656,327.334 19.8594,326.7246 Q20.9531,326.0996 22.1875,326.0996 Q22.9219,326.0996 23.5625,326.2715 Q24.2188,326.4277 24.7656,326.7871 Z " fill="#000000"/><text fill="#000000" font-family="sans-serif" font-size="12" font-style="italic" lengthAdjust="spacing" textLength="53" x="112" y="326.5703">&#171;service&#187;</text><text fill="#000000" font-family="sans-serif" font-size="14" lengthAdjust="spacing" textLength="205" x="36" y="344.6895">JobOpeningManagementService</text><line style="stroke:#181818;stroke-width:0.5;" x1="8" x2="243" y1="353.2031" y2="353.2031"/><line style="stroke:#181818;stroke-width:0.5;" x1="8" x2="243" y1="361.2031" y2="361.2031"/></g><!--class JobOpeningBuilder--><g id="elem_JobOpeningBuilder"><rect codeLine="14" fill="#F1F1F1" height="60.582" id="JobOpeningBuilder" rx="2.5" ry="2.5" style="stroke:#181818;stroke-width:0.5;" width="152" x="49.5" y="448.6211"/><ellipse cx="64.5" cy="470.9121" fill="#ADD1B2" rx="11" ry="11" style="stroke:#181818;stroke-width:1.0;"/><path d="M67.2656,466.7871 Q67.4219,466.5684 67.6094,466.459 Q67.7969,466.3496 68.0156,466.3496 Q68.3906,466.3496 68.625,466.6152 Q68.8594,466.8652 68.8594,467.4746 L68.8594,468.9277 Q68.8594,469.5371 68.625,469.8027 Q68.3906,470.0684 68.0156,470.0684 Q67.6719,470.0684 67.4688,469.8652 Q67.2656,469.6777 67.1563,469.1621 Q67.1094,468.8027 66.9219,468.6152 Q66.5938,468.2402 65.9844,468.0215 Q65.375,467.8027 64.75,467.8027 Q63.9844,467.8027 63.3438,468.1309 Q62.7188,468.459 62.2188,469.209 Q61.7344,469.959 61.7344,470.9902 L61.7344,472.084 Q61.7344,473.3184 62.625,474.1465 Q63.5156,474.959 65.1094,474.959 Q66.0469,474.959 66.7031,474.709 Q67.0938,474.5527 67.5156,474.1152 Q67.7813,473.8496 67.9219,473.7715 Q68.0781,473.6934 68.2813,473.6934 Q68.6094,473.6934 68.8594,473.959 Q69.125,474.209 69.125,474.5527 Q69.125,474.8965 68.7813,475.3027 Q68.2813,475.8809 67.4844,476.209 Q66.4063,476.6621 65.1094,476.6621 Q63.5938,476.6621 62.3906,476.0371 Q61.4063,475.5371 60.7188,474.4746 Q60.0313,473.3965 60.0313,472.1152 L60.0313,470.959 Q60.0313,469.6309 60.6406,468.4902 Q61.2656,467.334 62.3594,466.7246 Q63.4531,466.0996 64.6875,466.0996 Q65.4219,466.0996 66.0625,466.2715 Q66.7188,466.4277 67.2656,466.7871 Z " fill="#000000"/><text fill="#000000" font-family="sans-serif" font-size="12" font-style="italic" lengthAdjust="spacing" textLength="53" x="112" y="466.5703">&#171;builder&#187;</text><text fill="#000000" font-family="sans-serif" font-size="14" lengthAdjust="spacing" textLength="120" x="78.5" y="484.6895">JobOpeningBuilder</text><line style="stroke:#181818;stroke-width:0.5;" x1="50.5" x2="200.5" y1="493.2031" y2="493.2031"/><line style="stroke:#181818;stroke-width:0.5;" x1="50.5" x2="200.5" y1="501.2031" y2="501.2031"/></g><!--class JobOpeningRepository--><g id="elem_JobOpeningRepository"><rect codeLine="16" fill="#F1F1F1" height="60.582" id="JobOpeningRepository" rx="2.5" ry="2.5" style="stroke:#181818;stroke-width:0.5;" width="176" x="279.5" y="308.6211"/><ellipse cx="294.5" cy="330.9121" fill="#ADD1B2" rx="11" ry="11" style="stroke:#181818;stroke-width:1.0;"/><path d="M297.2656,326.7871 Q297.4219,326.5684 297.6094,326.459 Q297.7969,326.3496 298.0156,326.3496 Q298.3906,326.3496 298.625,326.6152 Q298.8594,326.8652 298.8594,327.4746 L298.8594,328.9277 Q298.8594,329.5371 298.625,329.8027 Q298.3906,330.0684 298.0156,330.0684 Q297.6719,330.0684 297.4688,329.8652 Q297.2656,329.6777 297.1563,329.1621 Q297.1094,328.8027 296.9219,328.6152 Q296.5938,328.2402 295.9844,328.0215 Q295.375,327.8027 294.75,327.8027 Q293.9844,327.8027 293.3438,328.1309 Q292.7188,328.459 292.2188,329.209 Q291.7344,329.959 291.7344,330.9902 L291.7344,332.084 Q291.7344,333.3184 292.625,334.1465 Q293.5156,334.959 295.1094,334.959 Q296.0469,334.959 296.7031,334.709 Q297.0938,334.5527 297.5156,334.1152 Q297.7813,333.8496 297.9219,333.7715 Q298.0781,333.6934 298.2813,333.6934 Q298.6094,333.6934 298.8594,333.959 Q299.125,334.209 299.125,334.5527 Q299.125,334.8965 298.7813,335.3027 Q298.2813,335.8809 297.4844,336.209 Q296.4063,336.6621 295.1094,336.6621 Q293.5938,336.6621 292.3906,336.0371 Q291.4063,335.5371 290.7188,334.4746 Q290.0313,333.3965 290.0313,332.1152 L290.0313,330.959 Q290.0313,329.6309 290.6406,328.4902 Q291.2656,327.334 292.3594,326.7246 Q293.4531,326.0996 294.6875,326.0996 Q295.4219,326.0996 296.0625,326.2715 Q296.7188,326.4277 297.2656,326.7871 Z " fill="#000000"/><text fill="#000000" font-family="sans-serif" font-size="12" font-style="italic" lengthAdjust="spacing" textLength="68" x="346.5" y="326.5703">&#171;repository&#187;</text><text fill="#000000" font-family="sans-serif" font-size="14" lengthAdjust="spacing" textLength="144" x="308.5" y="344.6895">JobOpeningRepository</text><line style="stroke:#181818;stroke-width:0.5;" x1="280.5" x2="454.5" y1="353.2031" y2="353.2031"/><line style="stroke:#181818;stroke-width:0.5;" x1="280.5" x2="454.5" y1="361.2031" y2="361.2031"/></g><!--class RepositoryFactory--><g id="elem_RepositoryFactory"><rect codeLine="18" fill="#F1F1F1" height="60.582" id="RepositoryFactory" rx="2.5" ry="2.5" style="stroke:#181818;stroke-width:0.5;" width="148" x="264.5" y="448.6211"/><ellipse cx="279.5" cy="470.9121" fill="#ADD1B2" rx="11" ry="11" style="stroke:#181818;stroke-width:1.0;"/><path d="M282.2656,466.7871 Q282.4219,466.5684 282.6094,466.459 Q282.7969,466.3496 283.0156,466.3496 Q283.3906,466.3496 283.625,466.6152 Q283.8594,466.8652 283.8594,467.4746 L283.8594,468.9277 Q283.8594,469.5371 283.625,469.8027 Q283.3906,470.0684 283.0156,470.0684 Q282.6719,470.0684 282.4688,469.8652 Q282.2656,469.6777 282.1563,469.1621 Q282.1094,468.8027 281.9219,468.6152 Q281.5938,468.2402 280.9844,468.0215 Q280.375,467.8027 279.75,467.8027 Q278.9844,467.8027 278.3438,468.1309 Q277.7188,468.459 277.2188,469.209 Q276.7344,469.959 276.7344,470.9902 L276.7344,472.084 Q276.7344,473.3184 277.625,474.1465 Q278.5156,474.959 280.1094,474.959 Q281.0469,474.959 281.7031,474.709 Q282.0938,474.5527 282.5156,474.1152 Q282.7813,473.8496 282.9219,473.7715 Q283.0781,473.6934 283.2813,473.6934 Q283.6094,473.6934 283.8594,473.959 Q284.125,474.209 284.125,474.5527 Q284.125,474.8965 283.7813,475.3027 Q283.2813,475.8809 282.4844,476.209 Q281.4063,476.6621 280.1094,476.6621 Q278.5938,476.6621 277.3906,476.0371 Q276.4063,475.5371 275.7188,474.4746 Q275.0313,473.3965 275.0313,472.1152 L275.0313,470.959 Q275.0313,469.6309 275.6406,468.4902 Q276.2656,467.334 277.3594,466.7246 Q278.4531,466.0996 279.6875,466.0996 Q280.4219,466.0996 281.0625,466.2715 Q281.7188,466.4277 282.2656,466.7871 Z " fill="#000000"/><text fill="#000000" font-family="sans-serif" font-size="12" font-style="italic" lengthAdjust="spacing" textLength="50" x="326.5" y="466.5703">&#171;factory&#187;</text><text fill="#000000" font-family="sans-serif" font-size="14" lengthAdjust="spacing" textLength="116" x="293.5" y="484.6895">RepositoryFactory</text><line style="stroke:#181818;stroke-width:0.5;" x1="265.5" x2="411.5" y1="493.2031" y2="493.2031"/><line style="stroke:#181818;stroke-width:0.5;" x1="265.5" x2="411.5" y1="501.2031" y2="501.2031"/></g><!--class JobOpening--><g id="elem_JobOpening"><rect codeLine="20" fill="#F1F1F1" height="60.582" id="JobOpening" rx="2.5" ry="2.5" style="stroke:#181818;stroke-width:0.5;" width="108" x="447.5" y="448.6211"/><ellipse cx="462.5" cy="470.9121" fill="#ADD1B2" rx="11" ry="11" style="stroke:#181818;stroke-width:1.0;"/><path d="M465.2656,466.7871 Q465.4219,466.5684 465.6094,466.459 Q465.7969,466.3496 466.0156,466.3496 Q466.3906,466.3496 466.625,466.6152 Q466.8594,466.8652 466.8594,467.4746 L466.8594,468.9277 Q466.8594,469.5371 466.625,469.8027 Q466.3906,470.0684 466.0156,470.0684 Q465.6719,470.0684 465.4688,469.8652 Q465.2656,469.6777 465.1563,469.1621 Q465.1094,468.8027 464.9219,468.6152 Q464.5938,468.2402 463.9844,468.0215 Q463.375,467.8027 462.75,467.8027 Q461.9844,467.8027 461.3438,468.1309 Q460.7188,468.459 460.2188,469.209 Q459.7344,469.959 459.7344,470.9902 L459.7344,472.084 Q459.7344,473.3184 460.625,474.1465 Q461.5156,474.959 463.1094,474.959 Q464.0469,474.959 464.7031,474.709 Q465.0938,474.5527 465.5156,474.1152 Q465.7813,473.8496 465.9219,473.7715 Q466.0781,473.6934 466.2813,473.6934 Q466.6094,473.6934 466.8594,473.959 Q467.125,474.209 467.125,474.5527 Q467.125,474.8965 466.7813,475.3027 Q466.2813,475.8809 465.4844,476.209 Q464.4063,476.6621 463.1094,476.6621 Q461.5938,476.6621 460.3906,476.0371 Q459.4063,475.5371 458.7188,474.4746 Q458.0313,473.3965 458.0313,472.1152 L458.0313,470.959 Q458.0313,469.6309 458.6406,468.4902 Q459.2656,467.334 460.3594,466.7246 Q461.4531,466.0996 462.6875,466.0996 Q463.4219,466.0996 464.0625,466.2715 Q464.7188,466.4277 465.2656,466.7871 Z " fill="#000000"/><text fill="#000000" font-family="sans-serif" font-size="12" font-style="italic" lengthAdjust="spacing" textLength="35" x="497" y="466.5703">&#171;root&#187;</text><text fill="#000000" font-family="sans-serif" font-size="14" lengthAdjust="spacing" textLength="76" x="476.5" y="484.6895">JobOpening</text><line style="stroke:#181818;stroke-width:0.5;" x1="448.5" x2="554.5" y1="493.2031" y2="493.2031"/><line style="stroke:#181818;stroke-width:0.5;" x1="448.5" x2="554.5" y1="501.2031" y2="501.2031"/></g><!--class JobOpeningPhases--><g id="elem_JobOpeningPhases"><rect codeLine="22" fill="#F1F1F1" height="60.582" id="JobOpeningPhases" rx="2.5" ry="2.5" style="stroke:#181818;stroke-width:0.5;" width="155" x="424" y="570.6211"/><ellipse cx="439" cy="592.9121" fill="#EB937F" rx="11" ry="11" style="stroke:#181818;stroke-width:1.0;"/><path d="M437.8594,593.709 L437.8594,596.209 L442.1875,596.209 L442.1875,595.2871 Q442.1875,594.6777 442.4219,594.4121 Q442.6719,594.1465 443.0469,594.1465 Q443.4219,594.1465 443.6563,594.4121 Q443.8906,594.6777 443.8906,595.2871 L443.8906,597.9121 L435.8906,597.9121 Q435.2656,597.9121 435,597.6777 Q434.75,597.4434 434.75,597.0527 Q434.75,596.6777 435.0156,596.4434 Q435.2813,596.209 435.8906,596.209 L436.1563,596.209 L436.1563,589.5527 L435.8906,589.5527 Q435.2656,589.5527 435,589.3184 Q434.75,589.084 434.75,588.6934 Q434.75,588.3184 435,588.084 Q435.2656,587.8496 435.8906,587.8496 L443.5156,587.8496 L443.5156,590.4434 Q443.5156,591.0527 443.2813,591.3184 Q443.0625,591.5684 442.6719,591.5684 Q442.2969,591.5684 442.0625,591.3184 Q441.8281,591.0527 441.8281,590.4434 L441.8281,589.5527 L437.8594,589.5527 L437.8594,592.0059 L439.3438,592.0059 Q439.3438,591.3496 439.4688,591.1621 Q439.7344,590.7559 440.2031,590.7559 Q440.5781,590.7559 440.8125,591.0215 Q441.0469,591.2715 441.0469,591.8809 L441.0469,593.8496 Q441.0469,594.3965 440.9219,594.584 Q440.6563,594.9746 440.2031,594.9746 Q439.7344,594.9746 439.4688,594.5684 Q439.3438,594.3809 439.3438,593.709 L437.8594,593.709 Z " fill="#000000"/><text fill="#000000" font-family="sans-serif" font-size="12" font-style="italic" lengthAdjust="spacing" textLength="44" x="492.5" y="588.5703">&#171;value&#187;</text><text fill="#000000" font-family="sans-serif" font-size="14" lengthAdjust="spacing" textLength="123" x="453" y="606.6895">JobOpeningPhases</text><line style="stroke:#181818;stroke-width:0.5;" x1="425" x2="578" y1="615.2031" y2="615.2031"/><line style="stroke:#181818;stroke-width:0.5;" x1="425" x2="578" y1="623.2031" y2="623.2031"/></g><!--link ClosePhasesJobOpeningUI to SetupJobOpeningPhasesController--><g id="link_ClosePhasesJobOpeningUI_SetupJobOpeningPhasesController"><path codeLine="24" d="M245.5,107.7811 C245.5,126.2411 245.5,143.9111 245.5,162.3811 " fill="none" id="ClosePhasesJobOpeningUI-to-SetupJobOpeningPhasesController" style="stroke:#181818;stroke-width:1.0;stroke-dasharray:7.0,7.0;"/><polygon fill="#181818" points="245.5,168.3811,249.5,159.3811,245.5,163.3811,241.5,159.3811,245.5,168.3811" style="stroke:#181818;stroke-width:1.0;"/></g><!--link SetupJobOpeningPhasesController to JobOpeningManagementService--><g id="link_SetupJobOpeningPhasesController_JobOpeningManagementService"><path codeLine="26" d="M219.76,229.7211 C199.51,253.0111 175.3777,280.764 155.1377,304.034 " fill="none" id="SetupJobOpeningPhasesController-to-JobOpeningManagementService" style="stroke:#181818;stroke-width:1.0;stroke-dasharray:7.0,7.0;"/><polygon fill="#181818" points="151.2,308.5611,160.1246,304.3955,154.4814,304.7885,154.0884,299.1453,151.2,308.5611" style="stroke:#181818;stroke-width:1.0;"/><polygon fill="#000000" points="195.219,273.0396,203.372,268.1427,198.9367,264.2857,195.219,273.0396" style="stroke:#000000;stroke-width:1.0;"/><text fill="#000000" font-family="sans-serif" font-size="13" lengthAdjust="spacing" textLength="28" x="207.5" y="274.6494">uses</text></g><!--link SetupJobOpeningPhasesController to JobOpeningRepository--><g id="link_SetupJobOpeningPhasesController_JobOpeningRepository"><path codeLine="27" d="M271.67,229.7211 C292.26,253.0111 316.8262,280.7957 337.3962,304.0657 " fill="none" id="SetupJobOpeningPhasesController-to-JobOpeningRepository" style="stroke:#181818;stroke-width:1.0;stroke-dasharray:7.0,7.0;"/><polygon fill="#181818" points="341.37,308.5611,338.4062,299.1688,338.0585,304.8149,332.4123,304.4672,341.37,308.5611" style="stroke:#181818;stroke-width:1.0;"/><polygon fill="#000000" points="322.8117,273.0126,319.0226,264.2894,314.6189,268.1826,322.8117,273.0126" style="stroke:#000000;stroke-width:1.0;"/><text fill="#000000" font-family="sans-serif" font-size="13" lengthAdjust="spacing" textLength="56" x="328.5" y="274.6494">accesses</text></g><!--link JobOpeningManagementService to JobOpeningBuilder--><g id="link_JobOpeningManagementService_JobOpeningBuilder"><path codeLine="29" d="M125.5,369.7211 C125.5,393.0111 125.5,419.2911 125.5,442.5611 " fill="none" id="JobOpeningManagementService-to-JobOpeningBuilder" style="stroke:#181818;stroke-width:1.0;stroke-dasharray:7.0,7.0;"/><polygon fill="#181818" points="125.5,448.5611,129.5,439.5611,125.5,443.5611,121.5,439.5611,125.5,448.5611" style="stroke:#181818;stroke-width:1.0;"/><text fill="#000000" font-family="sans-serif" font-size="13" lengthAdjust="spacing" textLength="28" x="126.5" y="414.6494">uses</text></g><!--reverse link JobOpeningRepository to RepositoryFactory--><g id="link_JobOpeningRepository_RepositoryFactory"><path codeLine="31" d="M360.0471,375.5931 C355.1571,398.8831 349.6,425.2911 344.71,448.5611 " fill="none" id="JobOpeningRepository-backto-RepositoryFactory" style="stroke:#181818;stroke-width:1.0;stroke-dasharray:7.0,7.0;"/><polygon fill="#181818" points="361.28,369.7211,355.516,377.7071,360.2526,374.6144,363.3453,379.351,361.28,369.7211" style="stroke:#181818;stroke-width:1.0;"/><polygon fill="#000000" points="360.5285,404.3735,355.7919,412.6207,361.544,413.8297,360.5285,404.3735" style="stroke:#000000;stroke-width:1.0;"/><text fill="#000000" font-family="sans-serif" font-size="13" lengthAdjust="spacing" textLength="43" x="368.5" y="414.6494">creates</text></g><!--link JobOpeningRepository to JobOpening--><g id="link_JobOpeningRepository_JobOpening"><path codeLine="32" d="M396.25,369.7211 C418.86,393.0111 446.0198,420.9869 468.6198,444.2569 " fill="none" id="JobOpeningRepository-to-JobOpening" style="stroke:#181818;stroke-width:1.0;stroke-dasharray:7.0,7.0;"/><polygon fill="#181818" points="472.8,448.5611,469.3991,439.318,469.3165,444.9743,463.6602,444.8917,472.8,448.5611" style="stroke:#181818;stroke-width:1.0;"/><polygon fill="#000000" points="450.983,412.8539,446.7907,404.3172,442.5736,408.4117,450.983,412.8539" style="stroke:#000000;stroke-width:1.0;"/><text fill="#000000" font-family="sans-serif" font-size="13" lengthAdjust="spacing" textLength="104" x="456.5" y="414.6494">saves in database</text></g><!--link JobOpening to JobOpeningPhases--><g id="link_JobOpening_JobOpeningPhases"><path codeLine="34" d="M501.5,509.7811 C501.5,528.2411 501.5,545.9111 501.5,564.3811 " fill="none" id="JobOpening-to-JobOpeningPhases" style="stroke:#181818;stroke-width:1.0;"/><polygon fill="#181818" points="501.5,570.3811,505.5,561.3811,501.5,565.3811,497.5,561.3811,501.5,570.3811" style="stroke:#181818;stroke-width:1.0;"/></g><!--SRC=[bP71QiCm38RlVWeTjqD3sMKGIc1B6NGmDXRw08ghfgQk7MmbetlwsStQf5lMifkCll-tzCjlbQdHuGvgb5kigE2z9d0a6KsbIVWJu3UuiX_ALB16xKaCMbAZzm_CJfKDqq9QKwXFWgaGh3ZOvR4FSuLLf6_o-IrCO9bFx-w5E6W3OJszRT2JVxRbQqqcVBHSm6oc39DRewGiEy85SLFtM2VBhM5djIONHFBqw5Mzu0LDs7H7XWjohP8K5Bwhnl37HkdLmRRigZ7edMhh5Lkt3vmxFNgq1vvGVdFhhXhpYoxMScoHQNRmSztGRr4tXu7_2Yz9icjP2N4jp6XoAReKcZXEza-ZGLufe9JaEnTnwQzpY-DTkWc6ok4nacGa-XIa8-GOuxZi_AV0Usm3hGoiaB4CgvtF2fD9zkj6uWi0]--></g></svg>