<?xml version="1.0" encoding="us-ascii" standalone="no"?><svg xmlns="http://www.w3.org/2000/svg" xmlns:xlink="http://www.w3.org/1999/xlink" contentStyleType="text/css" height="442px" preserveAspectRatio="none" style="width:857px;height:442px;background:#FFFFFF;" version="1.1" viewBox="0 0 857 442" width="857px" zoomAndPan="magnify"><defs/><g><text fill="#000000" font-family="sans-serif" font-size="14" font-weight="bold" lengthAdjust="spacing" textLength="285" x="289.75" y="30.1074">System Sequence Diagram (SSD) - UC001</text><rect fill="#FFFFFF" height="215.7461" style="stroke:#181818;stroke-width:1.0;" width="10" x="76.5" y="133.2422"/><rect fill="#FFFFFF" height="167.1641" style="stroke:#181818;stroke-width:1.0;" width="10" x="440.5" y="182.8242"/><rect fill="none" height="201.7461" style="stroke:#000000;stroke-width:1.5;" width="713.5" x="10" y="140.2422"/><line style="stroke:#181818;stroke-width:0.5;stroke-dasharray:5.0,5.0;" x1="81" x2="81" y1="123.2422" y2="358.9883"/><line style="stroke:#181818;stroke-width:0.5;stroke-dasharray:5.0,5.0;" x1="445.5" x2="445.5" y1="123.2422" y2="358.9883"/><text fill="#000000" font-family="sans-serif" font-size="14" lengthAdjust="spacing" textLength="117" x="20" y="119.7285">CustomerManager</text><ellipse cx="81.5" cy="53.1211" fill="#E3E3E3" rx="8" ry="8" style="stroke:#181818;stroke-width:0.5;"/><path d="M81.5,61.1211 L81.5,88.1211 M68.5,69.1211 L94.5,69.1211 M81.5,88.1211 L68.5,103.1211 M81.5,88.1211 L94.5,103.1211 " fill="none" style="stroke:#181818;stroke-width:0.5;"/><text fill="#000000" font-family="sans-serif" font-size="14" lengthAdjust="spacing" textLength="117" x="20" y="373.0957">CustomerManager</text><ellipse cx="81.5" cy="385.1094" fill="#E3E3E3" rx="8" ry="8" style="stroke:#181818;stroke-width:0.5;"/><path d="M81.5,393.1094 L81.5,420.1094 M68.5,401.1094 L94.5,401.1094 M81.5,420.1094 L68.5,435.1094 M81.5,420.1094 L94.5,435.1094 " fill="none" style="stroke:#181818;stroke-width:0.5;"/><rect fill="#E3E3E3" height="32.6211" rx="2.5" ry="2.5" style="stroke:#181818;stroke-width:0.5;" width="64" x="413.5" y="89.6211"/><text fill="#000000" font-family="sans-serif" font-size="14" lengthAdjust="spacing" textLength="50" x="420.5" y="111.7285">:System</text><rect fill="#E3E3E3" height="32.6211" rx="2.5" ry="2.5" style="stroke:#181818;stroke-width:0.5;" width="64" x="413.5" y="357.9883"/><text fill="#000000" font-family="sans-serif" font-size="14" lengthAdjust="spacing" textLength="50" x="420.5" y="380.0957">:System</text><rect fill="#FFFFFF" height="215.7461" style="stroke:#181818;stroke-width:1.0;" width="10" x="76.5" y="133.2422"/><rect fill="#FFFFFF" height="167.1641" style="stroke:#181818;stroke-width:1.0;" width="10" x="440.5" y="182.8242"/><path d="M10,140.2422 L83,140.2422 L83,149.5332 L73,159.5332 L10,159.5332 L10,140.2422 " fill="#EEEEEE" style="stroke:#000000;stroke-width:1.5;"/><rect fill="none" height="201.7461" style="stroke:#000000;stroke-width:1.5;" width="713.5" x="10" y="140.2422"/><text fill="#000000" font-family="sans-serif" font-size="13" font-weight="bold" lengthAdjust="spacing" textLength="28" x="25" y="155.2705">loop</text><text fill="#000000" font-family="sans-serif" font-size="11" font-weight="bold" lengthAdjust="spacing" textLength="90" x="98" y="154.1123">[for each phase]</text><path d="M728.5,145.2422 L728.5,172.2422 L850.5,172.2422 L850.5,155.2422 L840.5,145.2422 L728.5,145.2422 " fill="#FAFAFA" style="stroke:#181818;stroke-width:0.5;"/><path d="M840.5,145.2422 L840.5,155.2422 L850.5,155.2422 L840.5,145.2422 " fill="#FAFAFA" style="stroke:#181818;stroke-width:0.5;"/><text fill="#000000" font-family="sans-serif" font-size="13" lengthAdjust="spacing" textLength="101" x="734.5" y="164.2705">[UC026 e UC027]</text><polygon fill="#181818" points="428.5,178.8242,438.5,182.8242,428.5,186.8242,432.5,182.8242" style="stroke:#181818;stroke-width:1.0;"/><line style="stroke:#181818;stroke-width:1.0;" x1="86.5" x2="434.5" y1="182.8242" y2="182.8242"/><text fill="#000000" font-family="sans-serif" font-size="13" lengthAdjust="spacing" textLength="244" x="93.5" y="177.5615">Select the phase to be opened and closed</text><line style="stroke:#181818;stroke-width:1.0;" x1="450.5" x2="492.5" y1="214.1152" y2="214.1152"/><line style="stroke:#181818;stroke-width:1.0;" x1="492.5" x2="492.5" y1="214.1152" y2="227.1152"/><line style="stroke:#181818;stroke-width:1.0;" x1="451.5" x2="492.5" y1="227.1152" y2="227.1152"/><polygon fill="#181818" points="461.5,223.1152,451.5,227.1152,461.5,231.1152,457.5,227.1152" style="stroke:#181818;stroke-width:1.0;"/><text fill="#000000" font-family="sans-serif" font-size="13" lengthAdjust="spacing" textLength="254" x="457.5" y="208.8525">Validate the phase to be opened and closed</text><line style="stroke:#181818;stroke-width:1.0;" x1="450.5" x2="492.5" y1="258.4063" y2="258.4063"/><line style="stroke:#181818;stroke-width:1.0;" x1="492.5" x2="492.5" y1="258.4063" y2="271.4063"/><line style="stroke:#181818;stroke-width:1.0;" x1="451.5" x2="492.5" y1="271.4063" y2="271.4063"/><polygon fill="#181818" points="461.5,267.4063,451.5,271.4063,461.5,275.4063,457.5,271.4063" style="stroke:#181818;stroke-width:1.0;"/><text fill="#000000" font-family="sans-serif" font-size="13" lengthAdjust="spacing" textLength="110" x="457.5" y="253.1436">Updated the status</text><polygon fill="#181818" points="97.5,298.6973,87.5,302.6973,97.5,306.6973,93.5,302.6973" style="stroke:#181818;stroke-width:1.0;"/><line style="stroke:#181818;stroke-width:1.0;stroke-dasharray:2.0,2.0;" x1="91.5" x2="439.5" y1="302.6973" y2="302.6973"/><text fill="#000000" font-family="sans-serif" font-size="13" lengthAdjust="spacing" textLength="330" x="103.5" y="297.4346">Status da phase of the process for a job opening updated</text><polygon fill="#181818" points="97.5,329.9883,87.5,333.9883,97.5,337.9883,93.5,333.9883" style="stroke:#181818;stroke-width:1.0;"/><line style="stroke:#181818;stroke-width:1.0;stroke-dasharray:2.0,2.0;" x1="91.5" x2="439.5" y1="333.9883" y2="333.9883"/><text fill="#000000" font-family="sans-serif" font-size="13" lengthAdjust="spacing" textLength="330" x="103.5" y="328.7256">Status da phase of the process for a job opening updated</text><!--SRC=[jP4nJyCm48Lt_ufJ9nWgGGUGEh2aQwQeB8ZXQbyIKyTdx0ke_nux2L4b65ZmPElUVU_EBvsj3nXnW84zwpxoG21n99NMIa1zneuQkJY2I5hGT-vQa7eq_6bz1oswH4g9bInjBabeW8RUH_AQu62nA_ARfZdSmXQErTtTlK8j7A4QasJhMAFFLX4mGLMhZ1UhRK0liDdFl4sfpLTLckq72XMnWdmSSu0s0mbr3w77F0uifwfX-xIqxlDOBgy2qjCi0s4u4N0WJmRG6z2E4vcPknejpj_CPSShxZCwQuhoZ-JVAB27OoWGCr6Ie8pffpphgpflCfN1u6B7xUmTMLDAqsyWlF5fcg2aDCxiVm9INh34CByyvwzmrCfgzf9ptpq0bVntZwzhJr4gPUWwqoy0]--></g></svg>