<?xml version="1.0" encoding="us-ascii" standalone="no"?><svg xmlns="http://www.w3.org/2000/svg" xmlns:xlink="http://www.w3.org/1999/xlink" contentStyleType="text/css" height="697px" preserveAspectRatio="none" style="width:869px;height:697px;background:#FFFFFF;" version="1.1" viewBox="0 0 869 697" width="869px" zoomAndPan="magnify"><defs/><g><text fill="#000000" font-family="sans-serif" font-size="14" font-weight="bold" lengthAdjust="spacing" textLength="222" x="325.25" y="30.1074">Sequence Diagram (SD) - UC021</text><rect fill="#FFFFFF" height="440.0742" style="stroke:#181818;stroke-width:1.0;" width="10" x="231.5" y="156.5332"/><rect fill="#FFFFFF" height="93.873" style="stroke:#181818;stroke-width:1.0;" width="10" x="462.5" y="250.4063"/><rect fill="#FFFFFF" height="93.873" style="stroke:#181818;stroke-width:1.0;" width="10" x="462.5" y="464.4434"/><rect fill="#FFFFFF" height="31.291" style="stroke:#181818;stroke-width:1.0;" width="10" x="722" y="281.6973"/><rect fill="#FFFFFF" height="31.291" style="stroke:#181818;stroke-width:1.0;" width="10" x="722" y="495.7344"/><rect fill="none" height="144.4551" style="stroke:#000000;stroke-width:1.5;" width="735" x="128.5" y="421.8613"/><line style="stroke:#181818;stroke-width:0.5;stroke-dasharray:5.0,5.0;" x1="36" x2="36" y1="123.2422" y2="614.6074"/><line style="stroke:#181818;stroke-width:0.5;stroke-dasharray:5.0,5.0;" x1="236.5" x2="236.5" y1="123.2422" y2="614.6074"/><line style="stroke:#181818;stroke-width:0.5;stroke-dasharray:5.0,5.0;" x1="467.5" x2="467.5" y1="123.2422" y2="614.6074"/><line style="stroke:#181818;stroke-width:0.5;stroke-dasharray:5.0,5.0;" x1="726.5" x2="726.5" y1="123.2422" y2="614.6074"/><text fill="#000000" font-family="sans-serif" font-size="14" lengthAdjust="spacing" textLength="57" x="5" y="119.7285">Operator</text><ellipse cx="36.5" cy="53.1211" fill="#E2E2F0" rx="8" ry="8" style="stroke:#181818;stroke-width:0.5;"/><path d="M36.5,61.1211 L36.5,88.1211 M23.5,69.1211 L49.5,69.1211 M36.5,88.1211 L23.5,103.1211 M36.5,88.1211 L49.5,103.1211 " fill="none" style="stroke:#181818;stroke-width:0.5;"/><text fill="#000000" font-family="sans-serif" font-size="14" lengthAdjust="spacing" textLength="57" x="5" y="628.7148">Operator</text><ellipse cx="36.5" cy="640.7285" fill="#E2E2F0" rx="8" ry="8" style="stroke:#181818;stroke-width:0.5;"/><path d="M36.5,648.7285 L36.5,675.7285 M23.5,656.7285 L49.5,656.7285 M36.5,675.7285 L23.5,690.7285 M36.5,675.7285 L49.5,690.7285 " fill="none" style="stroke:#181818;stroke-width:0.5;"/><rect fill="#E2E2F0" height="51.2422" rx="2.5" ry="2.5" style="stroke:#181818;stroke-width:0.5;" width="196" x="138.5" y="71"/><text fill="#000000" font-family="sans-serif" font-size="14" font-style="italic" lengthAdjust="spacing" textLength="95" x="189" y="93.1074">&#171;presentation&#187;</text><text fill="#000000" font-family="sans-serif" font-size="14" lengthAdjust="spacing" textLength="182" x="145.5" y="111.7285">GenerateJobRequirementsUI</text><rect fill="#E2E2F0" height="51.2422" rx="2.5" ry="2.5" style="stroke:#181818;stroke-width:0.5;" width="196" x="138.5" y="613.6074"/><text fill="#000000" font-family="sans-serif" font-size="14" font-style="italic" lengthAdjust="spacing" textLength="95" x="189" y="635.7148">&#171;presentation&#187;</text><text fill="#000000" font-family="sans-serif" font-size="14" lengthAdjust="spacing" textLength="182" x="145.5" y="654.3359">GenerateJobRequirementsUI</text><rect fill="#E2E2F0" height="51.2422" rx="2.5" ry="2.5" style="stroke:#181818;stroke-width:0.5;" width="246" x="344.5" y="71"/><text fill="#000000" font-family="sans-serif" font-size="14" font-style="italic" lengthAdjust="spacing" textLength="84" x="425.5" y="93.1074">&#171;application&#187;</text><text fill="#000000" font-family="sans-serif" font-size="14" lengthAdjust="spacing" textLength="232" x="351.5" y="111.7285">GenerateJobRequirementsController</text><rect fill="#E2E2F0" height="51.2422" rx="2.5" ry="2.5" style="stroke:#181818;stroke-width:0.5;" width="246" x="344.5" y="613.6074"/><text fill="#000000" font-family="sans-serif" font-size="14" font-style="italic" lengthAdjust="spacing" textLength="84" x="425.5" y="635.7148">&#171;application&#187;</text><text fill="#000000" font-family="sans-serif" font-size="14" lengthAdjust="spacing" textLength="232" x="351.5" y="654.3359">GenerateJobRequirementsController</text><rect fill="#E2E2F0" height="51.2422" rx="2.5" ry="2.5" style="stroke:#181818;stroke-width:0.5;" width="253" x="600.5" y="71"/><text fill="#000000" font-family="sans-serif" font-size="14" font-style="italic" lengthAdjust="spacing" textLength="60" x="697" y="93.1074">&#171;service&#187;</text><text fill="#000000" font-family="sans-serif" font-size="14" lengthAdjust="spacing" textLength="239" x="607.5" y="111.7285">JobRequirementsManagementService</text><rect fill="#E2E2F0" height="51.2422" rx="2.5" ry="2.5" style="stroke:#181818;stroke-width:0.5;" width="253" x="600.5" y="613.6074"/><text fill="#000000" font-family="sans-serif" font-size="14" font-style="italic" lengthAdjust="spacing" textLength="60" x="697" y="635.7148">&#171;service&#187;</text><text fill="#000000" font-family="sans-serif" font-size="14" lengthAdjust="spacing" textLength="239" x="607.5" y="654.3359">JobRequirementsManagementService</text><rect fill="#FFFFFF" height="440.0742" style="stroke:#181818;stroke-width:1.0;" width="10" x="231.5" y="156.5332"/><rect fill="#FFFFFF" height="93.873" style="stroke:#181818;stroke-width:1.0;" width="10" x="462.5" y="250.4063"/><rect fill="#FFFFFF" height="93.873" style="stroke:#181818;stroke-width:1.0;" width="10" x="462.5" y="464.4434"/><rect fill="#FFFFFF" height="31.291" style="stroke:#181818;stroke-width:1.0;" width="10" x="722" y="281.6973"/><rect fill="#FFFFFF" height="31.291" style="stroke:#181818;stroke-width:1.0;" width="10" x="722" y="495.7344"/><polygon fill="#181818" points="219.5,152.5332,229.5,156.5332,219.5,160.5332,223.5,156.5332" style="stroke:#181818;stroke-width:1.0;"/><line style="stroke:#181818;stroke-width:1.0;" x1="36.5" x2="225.5" y1="156.5332" y2="156.5332"/><text fill="#000000" font-family="sans-serif" font-size="13" lengthAdjust="spacing" textLength="161" x="43.5" y="151.2705">Generate Job Requirements</text><polygon fill="#181818" points="47.5,183.8242,37.5,187.8242,47.5,191.8242,43.5,187.8242" style="stroke:#181818;stroke-width:1.0;"/><line style="stroke:#181818;stroke-width:1.0;stroke-dasharray:2.0,2.0;" x1="41.5" x2="230.5" y1="187.8242" y2="187.8242"/><text fill="#000000" font-family="sans-serif" font-size="13" lengthAdjust="spacing" textLength="171" x="53.5" y="182.5615">Ask for Interview Model Name</text><polygon fill="#181818" points="219.5,215.1152,229.5,219.1152,219.5,223.1152,223.5,219.1152" style="stroke:#181818;stroke-width:1.0;"/><line style="stroke:#181818;stroke-width:1.0;" x1="36.5" x2="225.5" y1="219.1152" y2="219.1152"/><text fill="#000000" font-family="sans-serif" font-size="13" lengthAdjust="spacing" textLength="142" x="43.5" y="213.8525">Job Requirements Name</text><polygon fill="#181818" points="450.5,246.4063,460.5,250.4063,450.5,254.4063,454.5,250.4063" style="stroke:#181818;stroke-width:1.0;"/><line style="stroke:#181818;stroke-width:1.0;" x1="241.5" x2="456.5" y1="250.4063" y2="250.4063"/><text fill="#000000" font-family="sans-serif" font-size="13" lengthAdjust="spacing" textLength="65" x="248.5" y="245.1436">createFile()</text><polygon fill="#181818" points="710,277.6973,720,281.6973,710,285.6973,714,281.6973" style="stroke:#181818;stroke-width:1.0;"/><line style="stroke:#181818;stroke-width:1.0;" x1="472.5" x2="716" y1="281.6973" y2="281.6973"/><text fill="#000000" font-family="sans-serif" font-size="13" lengthAdjust="spacing" textLength="65" x="479.5" y="276.4346">createFile()</text><polygon fill="#181818" points="483.5,308.9883,473.5,312.9883,483.5,316.9883,479.5,312.9883" style="stroke:#181818;stroke-width:1.0;"/><line style="stroke:#181818;stroke-width:1.0;stroke-dasharray:2.0,2.0;" x1="477.5" x2="726" y1="312.9883" y2="312.9883"/><text fill="#000000" font-family="sans-serif" font-size="13" lengthAdjust="spacing" textLength="61" x="489.5" y="307.7256">fileCreated</text><polygon fill="#181818" points="252.5,340.2793,242.5,344.2793,252.5,348.2793,248.5,344.2793" style="stroke:#181818;stroke-width:1.0;"/><line style="stroke:#181818;stroke-width:1.0;stroke-dasharray:2.0,2.0;" x1="246.5" x2="466.5" y1="344.2793" y2="344.2793"/><text fill="#000000" font-family="sans-serif" font-size="13" lengthAdjust="spacing" textLength="61" x="258.5" y="339.0166">fileCreated</text><polygon fill="#181818" points="47.5,371.5703,37.5,375.5703,47.5,379.5703,43.5,375.5703" style="stroke:#181818;stroke-width:1.0;"/><line style="stroke:#181818;stroke-width:1.0;stroke-dasharray:2.0,2.0;" x1="41.5" x2="230.5" y1="375.5703" y2="375.5703"/><text fill="#000000" font-family="sans-serif" font-size="13" lengthAdjust="spacing" textLength="136" x="53.5" y="370.3076">Ask for question details</text><polygon fill="#181818" points="219.5,402.8613,229.5,406.8613,219.5,410.8613,223.5,406.8613" style="stroke:#181818;stroke-width:1.0;"/><line style="stroke:#181818;stroke-width:1.0;" x1="36.5" x2="225.5" y1="406.8613" y2="406.8613"/><text fill="#000000" font-family="sans-serif" font-size="13" lengthAdjust="spacing" textLength="91" x="43.5" y="401.5986">Writes question</text><path d="M128.5,421.8613 L201.5,421.8613 L201.5,431.1523 L191.5,441.1523 L128.5,441.1523 L128.5,421.8613 " fill="#EEEEEE" style="stroke:#000000;stroke-width:1.5;"/><rect fill="none" height="144.4551" style="stroke:#000000;stroke-width:1.5;" width="735" x="128.5" y="421.8613"/><text fill="#000000" font-family="sans-serif" font-size="13" font-weight="bold" lengthAdjust="spacing" textLength="28" x="143.5" y="436.8896">loop</text><text fill="#000000" font-family="sans-serif" font-size="11" font-weight="bold" lengthAdjust="spacing" textLength="185" x="216.5" y="435.7314">[while (more questions) is (true)]</text><polygon fill="#181818" points="450.5,460.4434,460.5,464.4434,450.5,468.4434,454.5,464.4434" style="stroke:#181818;stroke-width:1.0;"/><line style="stroke:#181818;stroke-width:1.0;" x1="241.5" x2="456.5" y1="464.4434" y2="464.4434"/><text fill="#000000" font-family="sans-serif" font-size="13" lengthAdjust="spacing" textLength="102" x="248.5" y="459.1807">appendQuestion()</text><polygon fill="#181818" points="710,491.7344,720,495.7344,710,499.7344,714,495.7344" style="stroke:#181818;stroke-width:1.0;"/><line style="stroke:#181818;stroke-width:1.0;" x1="472.5" x2="716" y1="495.7344" y2="495.7344"/><text fill="#000000" font-family="sans-serif" font-size="13" lengthAdjust="spacing" textLength="102" x="479.5" y="490.4717">appendQuestion()</text><polygon fill="#181818" points="483.5,523.0254,473.5,527.0254,483.5,531.0254,479.5,527.0254" style="stroke:#181818;stroke-width:1.0;"/><line style="stroke:#181818;stroke-width:1.0;stroke-dasharray:2.0,2.0;" x1="477.5" x2="726" y1="527.0254" y2="527.0254"/><text fill="#000000" font-family="sans-serif" font-size="13" lengthAdjust="spacing" textLength="107" x="489.5" y="521.7627">questionAppended</text><polygon fill="#181818" points="252.5,554.3164,242.5,558.3164,252.5,562.3164,248.5,558.3164" style="stroke:#181818;stroke-width:1.0;"/><line style="stroke:#181818;stroke-width:1.0;stroke-dasharray:2.0,2.0;" x1="246.5" x2="466.5" y1="558.3164" y2="558.3164"/><text fill="#000000" font-family="sans-serif" font-size="13" lengthAdjust="spacing" textLength="107" x="258.5" y="553.0537">questionAppended</text><polygon fill="#181818" points="47.5,592.6074,37.5,596.6074,47.5,600.6074,43.5,596.6074" style="stroke:#181818;stroke-width:1.0;"/><line style="stroke:#181818;stroke-width:1.0;stroke-dasharray:2.0,2.0;" x1="41.5" x2="235.5" y1="596.6074" y2="596.6074"/><text fill="#000000" font-family="sans-serif" font-size="13" lengthAdjust="spacing" textLength="160" x="53.5" y="591.3447">(in)success of the operation</text><!--SRC=[ZPJ1Zjem48RlUOevXWFIjaSK8I5MNQNIjceZrBFN6M24iLsFMKIVlkC0mPk6tVeGEPb_ll7CRuLtPBqAQWzUwPtQO1DF1Y6WZifk31RS2tYhMdSaku6rCfn735cC9u_WdJcbbo8BQgEO5p46UZb4hBMp3Vr1U2YAI55ADVZxW5OZF9BQf8IoUPp055RBXy-VYaBfw09yznXKsYY6HVfI23oI9gziX2UqAOnVtSjFeL70FTh8gph9vLbLFY3B9nN9sVdyVvANpiRWZC6kPlPMLSfxGtgCDM0yAoiJJTi6moj9ZuAwRgkAppjX55rFC9tBQMVzYH8ESbuQ1hscoAek2f0bpKqbgqkVmO9ti1PERMD2un6UNOi6lgazdlLlwWpncIvnvrdNCz01fV0NCbXEEab_bflgd9jMDY_XN5eUWRm1NMGtIbhNSKq7vraBPDdXsbxVudrMVg9B_qD4bZxiQNpESd4vtGB9Z8eCZypuLw28t2lF2kESX-DMoaEvTm7xC4-06CeO3dYRpxzUo0L4s_wu98sDSioJTtov2_pOd_SykhQrwF2PKH-PTSUmkxnnvr94T6CEbcGdVD0QcS6j8MuHNFUBwJpASAlwBm00]--></g></svg>