<?xml version="1.0" encoding="us-ascii" standalone="no"?><svg xmlns="http://www.w3.org/2000/svg" xmlns:xlink="http://www.w3.org/1999/xlink" contentStyleType="text/css" height="293px" preserveAspectRatio="none" style="width:530px;height:293px;background:#FFFFFF;" version="1.1" viewBox="0 0 530 293" width="530px" zoomAndPan="magnify"><defs/><g><text fill="#000000" font-family="sans-serif" font-size="14" font-weight="bold" lengthAdjust="spacing" textLength="190" x="163.25" y="25.1074">Class Diagram (CD) - UC021</text><!--class GenerateJobRequirementsUI--><g id="elem_GenerateJobRequirementsUI"><rect codeLine="10" fill="#F1F1F1" height="40" id="GenerateJobRequirementsUI" rx="2.5" ry="2.5" style="stroke:#181818;stroke-width:0.5;" width="214" x="7" y="46.6211"/><ellipse cx="22" cy="62.6211" fill="#ADD1B2" rx="11" ry="11" style="stroke:#181818;stroke-width:1.0;"/><path d="M24.7656,58.4961 Q24.9219,58.2773 25.1094,58.168 Q25.2969,58.0586 25.5156,58.0586 Q25.8906,58.0586 26.125,58.3242 Q26.3594,58.5742 26.3594,59.1836 L26.3594,60.6367 Q26.3594,61.2461 26.125,61.5117 Q25.8906,61.7773 25.5156,61.7773 Q25.1719,61.7773 24.9688,61.5742 Q24.7656,61.3867 24.6563,60.8711 Q24.6094,60.5117 24.4219,60.3242 Q24.0938,59.9492 23.4844,59.7305 Q22.875,59.5117 22.25,59.5117 Q21.4844,59.5117 20.8438,59.8398 Q20.2188,60.168 19.7188,60.918 Q19.2344,61.668 19.2344,62.6992 L19.2344,63.793 Q19.2344,65.0273 20.125,65.8555 Q21.0156,66.668 22.6094,66.668 Q23.5469,66.668 24.2031,66.418 Q24.5938,66.2617 25.0156,65.8242 Q25.2813,65.5586 25.4219,65.4805 Q25.5781,65.4023 25.7813,65.4023 Q26.1094,65.4023 26.3594,65.668 Q26.625,65.918 26.625,66.2617 Q26.625,66.6055 26.2813,67.0117 Q25.7813,67.5898 24.9844,67.918 Q23.9063,68.3711 22.6094,68.3711 Q21.0938,68.3711 19.8906,67.7461 Q18.9063,67.2461 18.2188,66.1836 Q17.5313,65.1055 17.5313,63.8242 L17.5313,62.668 Q17.5313,61.3398 18.1406,60.1992 Q18.7656,59.043 19.8594,58.4336 Q20.9531,57.8086 22.1875,57.8086 Q22.9219,57.8086 23.5625,57.9805 Q24.2188,58.1367 24.7656,58.4961 Z " fill="#000000"/><text fill="#000000" font-family="sans-serif" font-size="14" lengthAdjust="spacing" textLength="182" x="36" y="68.418">GenerateJobRequirementsUI</text><line style="stroke:#181818;stroke-width:0.5;" x1="8" x2="220" y1="78.6211" y2="78.6211"/></g><!--class GenerateJobRequirementsController--><g id="elem_GenerateJobRequirementsController"><rect codeLine="13" fill="#F1F1F1" height="40" id="GenerateJobRequirementsController" rx="2.5" ry="2.5" style="stroke:#181818;stroke-width:0.5;" width="264" x="256" y="46.6211"/><ellipse cx="271" cy="62.6211" fill="#ADD1B2" rx="11" ry="11" style="stroke:#181818;stroke-width:1.0;"/><path d="M273.7656,58.4961 Q273.9219,58.2773 274.1094,58.168 Q274.2969,58.0586 274.5156,58.0586 Q274.8906,58.0586 275.125,58.3242 Q275.3594,58.5742 275.3594,59.1836 L275.3594,60.6367 Q275.3594,61.2461 275.125,61.5117 Q274.8906,61.7773 274.5156,61.7773 Q274.1719,61.7773 273.9688,61.5742 Q273.7656,61.3867 273.6563,60.8711 Q273.6094,60.5117 273.4219,60.3242 Q273.0938,59.9492 272.4844,59.7305 Q271.875,59.5117 271.25,59.5117 Q270.4844,59.5117 269.8438,59.8398 Q269.2188,60.168 268.7188,60.918 Q268.2344,61.668 268.2344,62.6992 L268.2344,63.793 Q268.2344,65.0273 269.125,65.8555 Q270.0156,66.668 271.6094,66.668 Q272.5469,66.668 273.2031,66.418 Q273.5938,66.2617 274.0156,65.8242 Q274.2813,65.5586 274.4219,65.4805 Q274.5781,65.4023 274.7813,65.4023 Q275.1094,65.4023 275.3594,65.668 Q275.625,65.918 275.625,66.2617 Q275.625,66.6055 275.2813,67.0117 Q274.7813,67.5898 273.9844,67.918 Q272.9063,68.3711 271.6094,68.3711 Q270.0938,68.3711 268.8906,67.7461 Q267.9063,67.2461 267.2188,66.1836 Q266.5313,65.1055 266.5313,63.8242 L266.5313,62.668 Q266.5313,61.3398 267.1406,60.1992 Q267.7656,59.043 268.8594,58.4336 Q269.9531,57.8086 271.1875,57.8086 Q271.9219,57.8086 272.5625,57.9805 Q273.2188,58.1367 273.7656,58.4961 Z " fill="#000000"/><text fill="#000000" font-family="sans-serif" font-size="14" lengthAdjust="spacing" textLength="232" x="285" y="68.418">GenerateJobRequirementsController</text><line style="stroke:#181818;stroke-width:0.5;" x1="257" x2="519" y1="78.6211" y2="78.6211"/></g><!--class JobRequirementsManagementService--><g id="elem_JobRequirementsManagementService"><rect codeLine="16" fill="#F1F1F1" height="40" id="JobRequirementsManagementService" rx="2.5" ry="2.5" style="stroke:#181818;stroke-width:0.5;" width="271" x="252.5" y="146.6211"/><ellipse cx="267.5" cy="162.6211" fill="#ADD1B2" rx="11" ry="11" style="stroke:#181818;stroke-width:1.0;"/><path d="M270.2656,158.4961 Q270.4219,158.2773 270.6094,158.168 Q270.7969,158.0586 271.0156,158.0586 Q271.3906,158.0586 271.625,158.3242 Q271.8594,158.5742 271.8594,159.1836 L271.8594,160.6367 Q271.8594,161.2461 271.625,161.5117 Q271.3906,161.7773 271.0156,161.7773 Q270.6719,161.7773 270.4688,161.5742 Q270.2656,161.3867 270.1563,160.8711 Q270.1094,160.5117 269.9219,160.3242 Q269.5938,159.9492 268.9844,159.7305 Q268.375,159.5117 267.75,159.5117 Q266.9844,159.5117 266.3438,159.8398 Q265.7188,160.168 265.2188,160.918 Q264.7344,161.668 264.7344,162.6992 L264.7344,163.793 Q264.7344,165.0273 265.625,165.8555 Q266.5156,166.668 268.1094,166.668 Q269.0469,166.668 269.7031,166.418 Q270.0938,166.2617 270.5156,165.8242 Q270.7813,165.5586 270.9219,165.4805 Q271.0781,165.4023 271.2813,165.4023 Q271.6094,165.4023 271.8594,165.668 Q272.125,165.918 272.125,166.2617 Q272.125,166.6055 271.7813,167.0117 Q271.2813,167.5898 270.4844,167.918 Q269.4063,168.3711 268.1094,168.3711 Q266.5938,168.3711 265.3906,167.7461 Q264.4063,167.2461 263.7188,166.1836 Q263.0313,165.1055 263.0313,163.8242 L263.0313,162.668 Q263.0313,161.3398 263.6406,160.1992 Q264.2656,159.043 265.3594,158.4336 Q266.4531,157.8086 267.6875,157.8086 Q268.4219,157.8086 269.0625,157.9805 Q269.7188,158.1367 270.2656,158.4961 Z " fill="#000000"/><text fill="#000000" font-family="sans-serif" font-size="14" lengthAdjust="spacing" textLength="239" x="281.5" y="168.418">JobRequirementsManagementService</text><line style="stroke:#181818;stroke-width:0.5;" x1="253.5" x2="522.5" y1="178.6211" y2="178.6211"/></g><!--class InterviewModel--><g id="elem_InterviewModel"><rect codeLine="19" fill="#F1F1F1" height="40" id="InterviewModel" rx="2.5" ry="2.5" style="stroke:#181818;stroke-width:0.5;" width="125" x="325.5" y="246.6211"/><ellipse cx="340.5" cy="262.6211" fill="#ADD1B2" rx="11" ry="11" style="stroke:#181818;stroke-width:1.0;"/><path d="M343.2656,258.4961 Q343.4219,258.2773 343.6094,258.168 Q343.7969,258.0586 344.0156,258.0586 Q344.3906,258.0586 344.625,258.3242 Q344.8594,258.5742 344.8594,259.1836 L344.8594,260.6367 Q344.8594,261.2461 344.625,261.5117 Q344.3906,261.7773 344.0156,261.7773 Q343.6719,261.7773 343.4688,261.5742 Q343.2656,261.3867 343.1563,260.8711 Q343.1094,260.5117 342.9219,260.3242 Q342.5938,259.9492 341.9844,259.7305 Q341.375,259.5117 340.75,259.5117 Q339.9844,259.5117 339.3438,259.8398 Q338.7188,260.168 338.2188,260.918 Q337.7344,261.668 337.7344,262.6992 L337.7344,263.793 Q337.7344,265.0273 338.625,265.8555 Q339.5156,266.668 341.1094,266.668 Q342.0469,266.668 342.7031,266.418 Q343.0938,266.2617 343.5156,265.8242 Q343.7813,265.5586 343.9219,265.4805 Q344.0781,265.4023 344.2813,265.4023 Q344.6094,265.4023 344.8594,265.668 Q345.125,265.918 345.125,266.2617 Q345.125,266.6055 344.7813,267.0117 Q344.2813,267.5898 343.4844,267.918 Q342.4063,268.3711 341.1094,268.3711 Q339.5938,268.3711 338.3906,267.7461 Q337.4063,267.2461 336.7188,266.1836 Q336.0313,265.1055 336.0313,263.8242 L336.0313,262.668 Q336.0313,261.3398 336.6406,260.1992 Q337.2656,259.043 338.3594,258.4336 Q339.4531,257.8086 340.6875,257.8086 Q341.4219,257.8086 342.0625,257.9805 Q342.7188,258.1367 343.2656,258.4961 Z " fill="#000000"/><text fill="#000000" font-family="sans-serif" font-size="14" lengthAdjust="spacing" textLength="93" x="354.5" y="268.418">InterviewModel</text><line style="stroke:#181818;stroke-width:0.5;" x1="326.5" x2="449.5" y1="278.6211" y2="278.6211"/></g><!--link GenerateJobRequirementsUI to GenerateJobRequirementsController--><g id="link_GenerateJobRequirementsUI_GenerateJobRequirementsController"><path codeLine="24" d="M221.03,66.6211 C232.66,66.6211 238.29,66.6211 249.93,66.6211 " fill="none" id="GenerateJobRequirementsUI-to-GenerateJobRequirementsController" style="stroke:#181818;stroke-width:1.0;stroke-dasharray:7.0,7.0;"/><polygon fill="#181818" points="255.93,66.6211,246.93,62.6211,250.93,66.6211,246.93,70.6211,255.93,66.6211" style="stroke:#181818;stroke-width:1.0;"/></g><!--link GenerateJobRequirementsController to JobRequirementsManagementService--><g id="link_GenerateJobRequirementsController_JobRequirementsManagementService"><path codeLine="26" d="M388,86.9811 C388,104.1611 388,123.1311 388,140.3011 " fill="none" id="GenerateJobRequirementsController-to-JobRequirementsManagementService" style="stroke:#181818;stroke-width:1.0;stroke-dasharray:7.0,7.0;"/><polygon fill="#181818" points="388,146.3011,392,137.3011,388,141.3011,384,137.3011,388,146.3011" style="stroke:#181818;stroke-width:1.0;"/></g><!--link JobRequirementsManagementService to InterviewModel--><g id="link_JobRequirementsManagementService_InterviewModel"><path codeLine="28" d="M388,186.9811 C388,204.1611 388,223.1311 388,240.3011 " fill="none" id="JobRequirementsManagementService-to-InterviewModel" style="stroke:#181818;stroke-width:1.0;"/><polygon fill="#181818" points="388,246.3011,392,237.3011,388,241.3011,384,237.3011,388,246.3011" style="stroke:#181818;stroke-width:1.0;"/></g><!--SRC=[XP3HIiD044NVvolcKHzIQZz0a1GaXRuqz0EcoNMpT3DRTwSM5V_TH4MYKF8sp9mztBlvwFKaINe-INCKXzfU0pYXCL4NGFaNo9sqyUBLyPE439gScY0vFvWbVpWRgYPgxT_0IwBEj-0UriKs4vctGLwEDA-zkF7jJRc-vOBtvN9rH_HbuaSeaXWsyR33yzadz53B-uhVwMC6AgDQYY4WJU5_q5Pqw3gEDTABRp1bAxLnYSisjWZV5wBhcHR9kywA-_b4LosJq8lXatMGpIKcckrK_AZ-5YBw1000]--></g></svg>