<?xml version="1.0" encoding="us-ascii" standalone="no"?><svg xmlns="http://www.w3.org/2000/svg" xmlns:xlink="http://www.w3.org/1999/xlink" contentStyleType="text/css" height="776px" preserveAspectRatio="none" style="width:411px;height:776px;background:#FFFFFF;" version="1.1" viewBox="0 0 411 776" width="411px" zoomAndPan="magnify"><defs/><g><text fill="#000000" font-family="sans-serif" font-size="14" font-weight="bold" lengthAdjust="spacing" textLength="285" x="64.25" y="30.1074">System Sequence Diagram (SSD) - UC016</text><rect fill="#FFFFFF" height="551.5781" style="stroke:#181818;stroke-width:1.0;" width="10" x="76.5" y="133.2422"/><rect fill="#FFFFFF" height="31.291" style="stroke:#181818;stroke-width:1.0;" width="10" x="357.5" y="156.5332"/><rect fill="#FFFFFF" height="31.291" style="stroke:#181818;stroke-width:1.0;" width="10" x="357.5" y="219.1152"/><rect fill="#FFFFFF" height="31.291" style="stroke:#181818;stroke-width:1.0;" width="10" x="357.5" y="281.6973"/><rect fill="#FFFFFF" height="31.291" style="stroke:#181818;stroke-width:1.0;" width="10" x="357.5" y="344.2793"/><rect fill="#FFFFFF" height="143.7949" style="stroke:#181818;stroke-width:1.0;" width="10" x="357.5" y="406.8613"/><rect fill="#FFFFFF" height="31.291" style="stroke:#181818;stroke-width:1.0;" width="10" x="357.5" y="581.9473"/><rect fill="#FFFFFF" height="31.291" style="stroke:#181818;stroke-width:1.0;" width="10" x="357.5" y="644.5293"/><rect fill="none" height="98.5039" style="stroke:#000000;stroke-width:1.5;" width="394.5" x="10" y="421.8613"/><line style="stroke:#181818;stroke-width:0.5;stroke-dasharray:5.0,5.0;" x1="81" x2="81" y1="123.2422" y2="693.8203"/><line style="stroke:#181818;stroke-width:0.5;stroke-dasharray:5.0,5.0;" x1="362.5" x2="362.5" y1="123.2422" y2="693.8203"/><text fill="#000000" font-family="sans-serif" font-size="14" lengthAdjust="spacing" textLength="117" x="20" y="119.7285">CustomerManager</text><ellipse cx="81.5" cy="53.1211" fill="#E3E3E3" rx="8" ry="8" style="stroke:#181818;stroke-width:0.5;"/><path d="M81.5,61.1211 L81.5,88.1211 M68.5,69.1211 L94.5,69.1211 M81.5,88.1211 L68.5,103.1211 M81.5,88.1211 L94.5,103.1211 " fill="none" style="stroke:#181818;stroke-width:0.5;"/><text fill="#000000" font-family="sans-serif" font-size="14" lengthAdjust="spacing" textLength="117" x="20" y="707.9277">CustomerManager</text><ellipse cx="81.5" cy="719.9414" fill="#E3E3E3" rx="8" ry="8" style="stroke:#181818;stroke-width:0.5;"/><path d="M81.5,727.9414 L81.5,754.9414 M68.5,735.9414 L94.5,735.9414 M81.5,754.9414 L68.5,769.9414 M81.5,754.9414 L94.5,769.9414 " fill="none" style="stroke:#181818;stroke-width:0.5;"/><rect fill="#E3E3E3" height="32.6211" rx="2.5" ry="2.5" style="stroke:#181818;stroke-width:0.5;" width="64" x="330.5" y="89.6211"/><text fill="#000000" font-family="sans-serif" font-size="14" lengthAdjust="spacing" textLength="50" x="337.5" y="111.7285">:System</text><rect fill="#E3E3E3" height="32.6211" rx="2.5" ry="2.5" style="stroke:#181818;stroke-width:0.5;" width="64" x="330.5" y="692.8203"/><text fill="#000000" font-family="sans-serif" font-size="14" lengthAdjust="spacing" textLength="50" x="337.5" y="714.9277">:System</text><rect fill="#FFFFFF" height="551.5781" style="stroke:#181818;stroke-width:1.0;" width="10" x="76.5" y="133.2422"/><rect fill="#FFFFFF" height="31.291" style="stroke:#181818;stroke-width:1.0;" width="10" x="357.5" y="156.5332"/><rect fill="#FFFFFF" height="31.291" style="stroke:#181818;stroke-width:1.0;" width="10" x="357.5" y="219.1152"/><rect fill="#FFFFFF" height="31.291" style="stroke:#181818;stroke-width:1.0;" width="10" x="357.5" y="281.6973"/><rect fill="#FFFFFF" height="31.291" style="stroke:#181818;stroke-width:1.0;" width="10" x="357.5" y="344.2793"/><rect fill="#FFFFFF" height="143.7949" style="stroke:#181818;stroke-width:1.0;" width="10" x="357.5" y="406.8613"/><rect fill="#FFFFFF" height="31.291" style="stroke:#181818;stroke-width:1.0;" width="10" x="357.5" y="581.9473"/><rect fill="#FFFFFF" height="31.291" style="stroke:#181818;stroke-width:1.0;" width="10" x="357.5" y="644.5293"/><polygon fill="#181818" points="345.5,152.5332,355.5,156.5332,345.5,160.5332,349.5,156.5332" style="stroke:#181818;stroke-width:1.0;"/><line style="stroke:#181818;stroke-width:1.0;" x1="86.5" x2="351.5" y1="156.5332" y2="156.5332"/><text fill="#000000" font-family="sans-serif" font-size="13" lengthAdjust="spacing" textLength="252" x="93.5" y="151.2705">wants to setup the phases for a job opening</text><polygon fill="#181818" points="97.5,183.8242,87.5,187.8242,97.5,191.8242,93.5,187.8242" style="stroke:#181818;stroke-width:1.0;"/><line style="stroke:#181818;stroke-width:1.0;stroke-dasharray:2.0,2.0;" x1="91.5" x2="361.5" y1="187.8242" y2="187.8242"/><text fill="#000000" font-family="sans-serif" font-size="13" lengthAdjust="spacing" textLength="146" x="103.5" y="182.5615">show list of job openings.</text><polygon fill="#181818" points="345.5,215.1152,355.5,219.1152,345.5,223.1152,349.5,219.1152" style="stroke:#181818;stroke-width:1.0;"/><line style="stroke:#181818;stroke-width:1.0;" x1="86.5" x2="351.5" y1="219.1152" y2="219.1152"/><text fill="#000000" font-family="sans-serif" font-size="13" lengthAdjust="spacing" textLength="120" x="93.5" y="213.8525">select a job opening.</text><polygon fill="#181818" points="97.5,246.4063,87.5,250.4063,97.5,254.4063,93.5,250.4063" style="stroke:#181818;stroke-width:1.0;"/><line style="stroke:#181818;stroke-width:1.0;stroke-dasharray:2.0,2.0;" x1="91.5" x2="361.5" y1="250.4063" y2="250.4063"/><text fill="#000000" font-family="sans-serif" font-size="13" lengthAdjust="spacing" textLength="162" x="103.5" y="245.1436">show phases of the process</text><polygon fill="#181818" points="97.5,277.6973,87.5,281.6973,97.5,285.6973,93.5,281.6973" style="stroke:#181818;stroke-width:1.0;"/><line style="stroke:#181818;stroke-width:1.0;stroke-dasharray:2.0,2.0;" x1="91.5" x2="356.5" y1="281.6973" y2="281.6973"/><text fill="#000000" font-family="sans-serif" font-size="13" lengthAdjust="spacing" textLength="206" x="103.5" y="276.4346">request date for Application's phase</text><polygon fill="#181818" points="350.5,308.9883,360.5,312.9883,350.5,316.9883,354.5,312.9883" style="stroke:#181818;stroke-width:1.0;"/><line style="stroke:#181818;stroke-width:1.0;" x1="86.5" x2="356.5" y1="312.9883" y2="312.9883"/><text fill="#000000" font-family="sans-serif" font-size="13" lengthAdjust="spacing" textLength="72" x="93.5" y="307.7256">enters dates</text><polygon fill="#181818" points="97.5,340.2793,87.5,344.2793,97.5,348.2793,93.5,344.2793" style="stroke:#181818;stroke-width:1.0;"/><line style="stroke:#181818;stroke-width:1.0;stroke-dasharray:2.0,2.0;" x1="91.5" x2="356.5" y1="344.2793" y2="344.2793"/><text fill="#000000" font-family="sans-serif" font-size="13" lengthAdjust="spacing" textLength="200" x="103.5" y="339.0166">request date for Screening's phase</text><polygon fill="#181818" points="350.5,371.5703,360.5,375.5703,350.5,379.5703,354.5,375.5703" style="stroke:#181818;stroke-width:1.0;"/><line style="stroke:#181818;stroke-width:1.0;" x1="86.5" x2="356.5" y1="375.5703" y2="375.5703"/><text fill="#000000" font-family="sans-serif" font-size="13" lengthAdjust="spacing" textLength="72" x="93.5" y="370.3076">enters dates</text><polygon fill="#181818" points="97.5,402.8613,87.5,406.8613,97.5,410.8613,93.5,406.8613" style="stroke:#181818;stroke-width:1.0;"/><line style="stroke:#181818;stroke-width:1.0;stroke-dasharray:2.0,2.0;" x1="91.5" x2="356.5" y1="406.8613" y2="406.8613"/><text fill="#000000" font-family="sans-serif" font-size="13" lengthAdjust="spacing" textLength="191" x="103.5" y="401.5986">request date for Interview's phase</text><path d="M10,421.8613 L71,421.8613 L71,431.1523 L61,441.1523 L10,441.1523 L10,421.8613 " fill="#EEEEEE" style="stroke:#000000;stroke-width:1.5;"/><rect fill="none" height="98.5039" style="stroke:#000000;stroke-width:1.5;" width="394.5" x="10" y="421.8613"/><text fill="#000000" font-family="sans-serif" font-size="13" font-weight="bold" lengthAdjust="spacing" textLength="16" x="25" y="436.8896">alt</text><text fill="#000000" font-family="sans-serif" font-size="11" font-weight="bold" lengthAdjust="spacing" textLength="97" x="86" y="435.7314">[exists Interview]</text><polygon fill="#181818" points="345.5,460.4434,355.5,464.4434,345.5,468.4434,349.5,464.4434" style="stroke:#181818;stroke-width:1.0;"/><line style="stroke:#181818;stroke-width:1.0;" x1="86.5" x2="351.5" y1="464.4434" y2="464.4434"/><text fill="#000000" font-family="sans-serif" font-size="13" lengthAdjust="spacing" textLength="72" x="93.5" y="459.1807">enters dates</text><line style="stroke:#000000;stroke-width:1.0;stroke-dasharray:2.0,2.0;" x1="10" x2="404.5" y1="473.4434" y2="473.4434"/><text fill="#000000" font-family="sans-serif" font-size="11" font-weight="bold" lengthAdjust="spacing" textLength="118" x="15" y="485.3135">[not exists Interview]</text><polygon fill="#181818" points="345.5,508.3652,355.5,512.3652,345.5,516.3652,349.5,512.3652" style="stroke:#181818;stroke-width:1.0;"/><line style="stroke:#181818;stroke-width:1.0;" x1="86.5" x2="351.5" y1="512.3652" y2="512.3652"/><text fill="#000000" font-family="sans-serif" font-size="13" lengthAdjust="spacing" textLength="114" x="93.5" y="507.1025">skips to next phase</text><polygon fill="#181818" points="97.5,546.6563,87.5,550.6563,97.5,554.6563,93.5,550.6563" style="stroke:#181818;stroke-width:1.0;"/><line style="stroke:#181818;stroke-width:1.0;stroke-dasharray:2.0,2.0;" x1="91.5" x2="361.5" y1="550.6563" y2="550.6563"/><text fill="#000000" font-family="sans-serif" font-size="13" lengthAdjust="spacing" textLength="185" x="103.5" y="545.3936">request date for Analysis' phase</text><polygon fill="#181818" points="345.5,577.9473,355.5,581.9473,345.5,585.9473,349.5,581.9473" style="stroke:#181818;stroke-width:1.0;"/><line style="stroke:#181818;stroke-width:1.0;" x1="86.5" x2="351.5" y1="581.9473" y2="581.9473"/><text fill="#000000" font-family="sans-serif" font-size="13" lengthAdjust="spacing" textLength="72" x="93.5" y="576.6846">enters dates</text><polygon fill="#181818" points="97.5,609.2383,87.5,613.2383,97.5,617.2383,93.5,613.2383" style="stroke:#181818;stroke-width:1.0;"/><line style="stroke:#181818;stroke-width:1.0;stroke-dasharray:2.0,2.0;" x1="91.5" x2="361.5" y1="613.2383" y2="613.2383"/><text fill="#000000" font-family="sans-serif" font-size="13" lengthAdjust="spacing" textLength="179" x="103.5" y="607.9756">request date for Result's phase</text><polygon fill="#181818" points="345.5,640.5293,355.5,644.5293,345.5,648.5293,349.5,644.5293" style="stroke:#181818;stroke-width:1.0;"/><line style="stroke:#181818;stroke-width:1.0;" x1="86.5" x2="351.5" y1="644.5293" y2="644.5293"/><text fill="#000000" font-family="sans-serif" font-size="13" lengthAdjust="spacing" textLength="72" x="93.5" y="639.2666">enters dates</text><polygon fill="#181818" points="97.5,671.8203,87.5,675.8203,97.5,679.8203,93.5,675.8203" style="stroke:#181818;stroke-width:1.0;"/><line style="stroke:#181818;stroke-width:1.0;stroke-dasharray:2.0,2.0;" x1="91.5" x2="361.5" y1="675.8203" y2="675.8203"/><text fill="#000000" font-family="sans-serif" font-size="13" lengthAdjust="spacing" textLength="158" x="103.5" y="670.5576">shows (in)sucess message</text><!--SRC=[pPIzReCm481tdkAK9ScGg5qwPAXKaQK3Ir4Vu0gNuDROr7U4vErhGvKVaIWWTQW7Is3ptNTd7_obJ8KEIoYjiLdXR4aWhgQ8ZoiLPb-ufLGEci1H9cYs-dm35vZRHfajR50pHP4eyLlJ0mkLaD9tJIOZM2lSXkspD5tFOG7lySFZKuIPM0TnpU93kmID3-K06U8a2ejgXqBj0_WH9x1uXicgOqzW1GqQOH0BJ59N80L1LI0JmyPp4Jxj1zYAZDVh44VcaTA-RgSmJl253nKdAv-VRK0h5h2RSnulEs9ELvX7Nb-PIVigNhejRyhT4_lDrgkrkJkR4VCGiJxFXQFoQURXYr2-bwhIAaDHraovYtJVivym6I77BVQlpDBCKLkuV-Rr6f0xHSrmBzG2jFVNYqzVZxCEWtpdWR7ZKBw7gxPv3EtbtBSbcdnOnmowIGRrWHLFpwDShVO5UaZsunkwP_T6N6kvFBAnNJr8x4upCyoKcNCTMXXAF_cVuMsP7m00]--></g></svg>