<?xml version="1.0" encoding="us-ascii" standalone="no"?><svg xmlns="http://www.w3.org/2000/svg" xmlns:xlink="http://www.w3.org/1999/xlink" contentStyleType="text/css" height="430px" preserveAspectRatio="none" style="width:484px;height:430px;background:#FFFFFF;" version="1.1" viewBox="0 0 484 430" width="484px" zoomAndPan="magnify"><defs/><g><!--cluster JobOpeningAggregate--><g id="cluster_JobOpeningAggregate"><rect fill="none" height="106" rx="2.5" ry="2.5" style="stroke:#000000;stroke-width:1.5;" width="175" x="81.5" y="144"/><text fill="#000000" font-family="sans-serif" font-size="14" font-weight="bold" lengthAdjust="spacing" textLength="159" x="89.5" y="161.1074">JobOpeningAggregate</text></g><!--cluster JobRequirementsAggregate--><g id="cluster_JobRequirementsAggregate"><rect fill="none" height="106" rx="2.5" ry="2.5" style="stroke:#000000;stroke-width:1.5;" width="214" x="142.5" y="318"/><text fill="#000000" font-family="sans-serif" font-size="14" font-weight="bold" lengthAdjust="spacing" textLength="198" x="150.5" y="335.1074">JobRequirementsAggregate</text></g><!--class JobOpening--><g id="elem_JobOpening"><rect codeLine="18" fill="#F1F1F1" height="52.582" id="JobOpening" rx="2.5" ry="2.5" style="stroke:#181818;stroke-width:0.5;" width="82" x="156.5" y="181"/><text fill="#000000" font-family="sans-serif" font-size="12" font-style="italic" lengthAdjust="spacing" textLength="73" x="161" y="198.9492">&#171;Root Entity&#187;</text><text fill="#000000" font-family="sans-serif" font-size="14" lengthAdjust="spacing" textLength="76" x="159.5" y="217.0684">JobOpening</text><line style="stroke:#181818;stroke-width:0.5;" x1="157.5" x2="237.5" y1="225.582" y2="225.582"/></g><!--class JobRequirements--><g id="elem_JobRequirements"><rect codeLine="22" fill="#F1F1F1" height="52.582" id="JobRequirements" rx="2.5" ry="2.5" style="stroke:#181818;stroke-width:0.5;" width="116" x="191.5" y="355"/><text fill="#000000" font-family="sans-serif" font-size="12" font-style="italic" lengthAdjust="spacing" textLength="73" x="213" y="372.9492">&#171;Root Entity&#187;</text><text fill="#000000" font-family="sans-serif" font-size="14" lengthAdjust="spacing" textLength="110" x="194.5" y="391.0684">JobRequirements</text><line style="stroke:#181818;stroke-width:0.5;" x1="192.5" x2="306.5" y1="399.582" y2="399.582"/></g><!--class Operator--><g id="elem_Operator"><rect codeLine="11" fill="#F1F1F1" height="52.582" id="Operator" rx="2.5" ry="2.5" style="stroke:#181818;stroke-width:0.5;" width="75" x="160" y="7"/><text fill="#000000" font-family="sans-serif" font-size="12" font-style="italic" lengthAdjust="spacing" textLength="73" x="161" y="24.9492">&#171;Root Entity&#187;</text><text fill="#000000" font-family="sans-serif" font-size="14" lengthAdjust="spacing" textLength="57" x="169" y="43.0684">Operator</text><line style="stroke:#181818;stroke-width:0.5;" x1="161" x2="234" y1="51.582" y2="51.582"/></g><g id="elem_GMN3"><path d="M6,20 L6,47.291 A0,0 0 0 0 6,47.291 L125,47.291 A0,0 0 0 0 125,47.291 L125,38 L159.81,34 L125,30 L125,30 L115,20 L6,20 A0,0 0 0 0 6,20 " fill="#FEFFDD" style="stroke:#181818;stroke-width:0.5;"/><path d="M115,20 L115,30 L125,30 L115,20 " fill="#FEFFDD" style="stroke:#181818;stroke-width:0.5;"/><text fill="#000000" font-family="sans-serif" font-size="13" lengthAdjust="spacing" textLength="98" x="12" y="39.0283">conceptual class</text></g><!--class ANTLR--><g id="elem_ANTLR"><rect codeLine="14" fill="#F1F1F1" height="52.582" id="ANTLR" rx="2.5" ry="2.5" style="stroke:#181818;stroke-width:0.5;" width="57" x="274" y="181"/><text fill="#000000" font-family="sans-serif" font-size="12" font-style="italic" lengthAdjust="spacing" textLength="55" x="275" y="198.9492">&#171;Service&#187;</text><text fill="#000000" font-family="sans-serif" font-size="14" lengthAdjust="spacing" textLength="45" x="280" y="217.0684">ANTLR</text><line style="stroke:#181818;stroke-width:0.5;" x1="275" x2="330" y1="225.582" y2="225.582"/></g><g id="elem_GMN7"><path d="M366,194 L366,204 L331,208 L366,212 L366,221.291 A0,0 0 0 0 366,221.291 L477,221.291 A0,0 0 0 0 477,221.291 L477,204 L467,194 L366,194 A0,0 0 0 0 366,194 " fill="#FEFFDD" style="stroke:#181818;stroke-width:0.5;"/><path d="M467,194 L467,204 L477,204 L467,194 " fill="#FEFFDD" style="stroke:#181818;stroke-width:0.5;"/><text fill="#000000" font-family="sans-serif" font-size="13" lengthAdjust="spacing" textLength="90" x="372" y="213.0283">external service</text></g><!--link Operator to JobOpening--><g id="link_Operator_JobOpening"><path codeLine="25" d="M197.5,60.31 C197.5,93.1 197.5,148.27 197.5,180.95 " fill="none" id="Operator-JobOpening" style="stroke:#181818;stroke-width:1.0;"/><polygon fill="#000000" points="134.5,116.2755,137.4389,107.2304,131.5611,107.2304,134.5,116.2755" style="stroke:#000000;stroke-width:1.0;"/><text fill="#000000" font-family="sans-serif" font-size="13" lengthAdjust="spacing" textLength="53" x="143.5" y="116.6583">manages</text><text fill="#000000" font-family="sans-serif" font-size="13" lengthAdjust="spacing" textLength="7" x="189.7781" y="81.6941">1</text><text fill="#000000" font-family="sans-serif" font-size="13" lengthAdjust="spacing" textLength="5" x="191.8906" y="169.5213">*</text></g><!--link JobOpening to JobRequirements--><g id="link_JobOpening_JobRequirements"><path codeLine="26" d="M215,234.31 C215,267.1 215,322.27 215,354.95 " fill="none" id="JobOpening-JobRequirements" style="stroke:#181818;stroke-width:1.0;"/><polygon fill="#000000" points="166,290.2755,168.9389,281.2304,163.0611,281.2304,166,290.2755" style="stroke:#000000;stroke-width:1.0;"/><text fill="#000000" font-family="sans-serif" font-size="13" lengthAdjust="spacing" textLength="39" x="175" y="290.6583">follows</text><text fill="#000000" font-family="sans-serif" font-size="13" lengthAdjust="spacing" textLength="7" x="210.8875" y="255.6941">1</text><text fill="#000000" font-family="sans-serif" font-size="13" lengthAdjust="spacing" textLength="7" x="198.7375" y="343.5213">1</text></g><!--link ANTLR to JobRequirements--><g id="link_ANTLR_JobRequirements"><path codeLine="27" d="M290.75,234.31 C290.75,267.1 290.75,322.27 290.75,354.95 " fill="none" id="ANTLR-JobRequirements" style="stroke:#181818;stroke-width:1.0;"/><polygon fill="#000000" points="241.75,290.2755,244.6889,281.2304,238.8111,281.2304,241.75,290.2755" style="stroke:#000000;stroke-width:1.0;"/><text fill="#000000" font-family="sans-serif" font-size="13" lengthAdjust="spacing" textLength="39" x="250.75" y="290.6583">parses</text><text fill="#000000" font-family="sans-serif" font-size="13" lengthAdjust="spacing" textLength="7" x="280.6047" y="255.6941">1</text><text fill="#000000" font-family="sans-serif" font-size="13" lengthAdjust="spacing" textLength="5" x="295.1953" y="343.5213">*</text></g><!--SRC=[TP71JeGm48RlVOe9HnCIzqe82GSF6hCcu0jqor2QBHri1rSqlhiLt1LHUsew___zCzDmD6wGNlOmI7MK6ckUB897nT9fYo9S1A6J3PsCqz1A6zOLQnpoD22Gvux4ggAi3A5azkOmCjugShLvHRWMeZCDWZ9UnOpvtcFqDa68sGCF0th9vFEy8cAuSMnuAWhXY14ijWpKNaGPHBB2WKTfbympfjm_tbUGvpNwPwFm3F16TpDXgMU0BupUHNTOX49yxGFkw11ZN9oxrDgZbj7-9Y2U9U6x3jjUttzGAdmQZSSU7OT_KMlHNxppn93i4aZJ59AhPDr21hrqCJ108LRF5_Kk-PMIGKlMqkdJignZmzweuy-6cVy1]--></g></svg>