<?xml version="1.0" encoding="us-ascii" standalone="no"?><svg xmlns="http://www.w3.org/2000/svg" xmlns:xlink="http://www.w3.org/1999/xlink" contentStyleType="text/css" height="771px" preserveAspectRatio="none" style="width:604px;height:771px;background:#FFFFFF;" version="1.1" viewBox="0 0 604 771" width="604px" zoomAndPan="magnify"><defs/><g><text fill="#000000" font-family="sans-serif" font-size="14" font-weight="bold" lengthAdjust="spacing" textLength="285" x="161.75" y="30.1074">System Sequence Diagram (SSD) - UC001</text><rect fill="#FFFFFF" height="545.2871" style="stroke:#181818;stroke-width:1.0;" width="10" x="37.5" y="133.2422"/><rect fill="#FFFFFF" height="75.582" style="stroke:#181818;stroke-width:1.0;" width="10" x="453.5" y="156.5332"/><rect fill="#FFFFFF" height="31.291" style="stroke:#181818;stroke-width:1.0;" width="10" x="453.5" y="263.4063"/><rect fill="#FFFFFF" height="31.291" style="stroke:#181818;stroke-width:1.0;" width="10" x="453.5" y="325.9883"/><rect fill="#FFFFFF" height="31.291" style="stroke:#181818;stroke-width:1.0;" width="10" x="453.5" y="388.5703"/><rect fill="#FFFFFF" height="31.291" style="stroke:#181818;stroke-width:1.0;" width="10" x="453.5" y="451.1523"/><rect fill="#FFFFFF" height="164.7949" style="stroke:#181818;stroke-width:1.0;" width="10" x="453.5" y="513.7344"/><rect fill="none" height="98.5039" style="stroke:#000000;stroke-width:1.5;" width="490.5" x="10" y="573.0254"/><line style="stroke:#181818;stroke-width:0.5;stroke-dasharray:5.0,5.0;" x1="42" x2="42" y1="123.2422" y2="688.5293"/><line style="stroke:#181818;stroke-width:0.5;stroke-dasharray:5.0,5.0;" x1="458.5" x2="458.5" y1="123.2422" y2="688.5293"/><text fill="#000000" font-family="sans-serif" font-size="14" lengthAdjust="spacing" textLength="39" x="20" y="119.7285">Admin</text><ellipse cx="42.5" cy="53.1211" fill="#E3E3E3" rx="8" ry="8" style="stroke:#181818;stroke-width:0.5;"/><path d="M42.5,61.1211 L42.5,88.1211 M29.5,69.1211 L55.5,69.1211 M42.5,88.1211 L29.5,103.1211 M42.5,88.1211 L55.5,103.1211 " fill="none" style="stroke:#181818;stroke-width:0.5;"/><text fill="#000000" font-family="sans-serif" font-size="14" lengthAdjust="spacing" textLength="39" x="20" y="702.6367">Admin</text><ellipse cx="42.5" cy="714.6504" fill="#E3E3E3" rx="8" ry="8" style="stroke:#181818;stroke-width:0.5;"/><path d="M42.5,722.6504 L42.5,749.6504 M29.5,730.6504 L55.5,730.6504 M42.5,749.6504 L29.5,764.6504 M42.5,749.6504 L55.5,764.6504 " fill="none" style="stroke:#181818;stroke-width:0.5;"/><rect fill="#E3E3E3" height="32.6211" rx="2.5" ry="2.5" style="stroke:#181818;stroke-width:0.5;" width="64" x="426.5" y="89.6211"/><text fill="#000000" font-family="sans-serif" font-size="14" lengthAdjust="spacing" textLength="50" x="433.5" y="111.7285">:System</text><rect fill="#E3E3E3" height="32.6211" rx="2.5" ry="2.5" style="stroke:#181818;stroke-width:0.5;" width="64" x="426.5" y="687.5293"/><text fill="#000000" font-family="sans-serif" font-size="14" lengthAdjust="spacing" textLength="50" x="433.5" y="709.6367">:System</text><rect fill="#FFFFFF" height="545.2871" style="stroke:#181818;stroke-width:1.0;" width="10" x="37.5" y="133.2422"/><rect fill="#FFFFFF" height="75.582" style="stroke:#181818;stroke-width:1.0;" width="10" x="453.5" y="156.5332"/><rect fill="#FFFFFF" height="31.291" style="stroke:#181818;stroke-width:1.0;" width="10" x="453.5" y="263.4063"/><rect fill="#FFFFFF" height="31.291" style="stroke:#181818;stroke-width:1.0;" width="10" x="453.5" y="325.9883"/><rect fill="#FFFFFF" height="31.291" style="stroke:#181818;stroke-width:1.0;" width="10" x="453.5" y="388.5703"/><rect fill="#FFFFFF" height="31.291" style="stroke:#181818;stroke-width:1.0;" width="10" x="453.5" y="451.1523"/><rect fill="#FFFFFF" height="164.7949" style="stroke:#181818;stroke-width:1.0;" width="10" x="453.5" y="513.7344"/><polygon fill="#181818" points="441.5,152.5332,451.5,156.5332,441.5,160.5332,445.5,156.5332" style="stroke:#181818;stroke-width:1.0;"/><line style="stroke:#181818;stroke-width:1.0;" x1="47.5" x2="447.5" y1="156.5332" y2="156.5332"/><text fill="#000000" font-family="sans-serif" font-size="13" lengthAdjust="spacing" textLength="31" x="54.5" y="151.2705">Login</text><line style="stroke:#181818;stroke-width:1.0;" x1="463.5" x2="505.5" y1="187.8242" y2="187.8242"/><line style="stroke:#181818;stroke-width:1.0;" x1="505.5" x2="505.5" y1="187.8242" y2="200.8242"/><line style="stroke:#181818;stroke-width:1.0;" x1="464.5" x2="505.5" y1="200.8242" y2="200.8242"/><polygon fill="#181818" points="474.5,196.8242,464.5,200.8242,474.5,204.8242,470.5,200.8242" style="stroke:#181818;stroke-width:1.0;"/><text fill="#000000" font-family="sans-serif" font-size="13" lengthAdjust="spacing" textLength="78" x="470.5" y="182.5615">Validate login</text><polygon fill="#181818" points="58.5,228.1152,48.5,232.1152,58.5,236.1152,54.5,232.1152" style="stroke:#181818;stroke-width:1.0;"/><line style="stroke:#181818;stroke-width:1.0;stroke-dasharray:2.0,2.0;" x1="52.5" x2="457.5" y1="232.1152" y2="232.1152"/><text fill="#000000" font-family="sans-serif" font-size="13" lengthAdjust="spacing" textLength="382" x="64.5" y="226.8525">Allow access to the backoffice application with admin permissions</text><polygon fill="#181818" points="441.5,259.4063,451.5,263.4063,441.5,267.4063,445.5,263.4063" style="stroke:#181818;stroke-width:1.0;"/><line style="stroke:#181818;stroke-width:1.0;" x1="47.5" x2="447.5" y1="263.4063" y2="263.4063"/><text fill="#000000" font-family="sans-serif" font-size="13" lengthAdjust="spacing" textLength="156" x="54.5" y="258.1436">Create new backoffice user</text><polygon fill="#181818" points="58.5,290.6973,48.5,294.6973,58.5,298.6973,54.5,294.6973" style="stroke:#181818;stroke-width:1.0;"/><line style="stroke:#181818;stroke-width:1.0;stroke-dasharray:2.0,2.0;" x1="52.5" x2="457.5" y1="294.6973" y2="294.6973"/><text fill="#000000" font-family="sans-serif" font-size="13" lengthAdjust="spacing" textLength="115" x="64.5" y="289.4346">Ask for user's name</text><polygon fill="#181818" points="441.5,321.9883,451.5,325.9883,441.5,329.9883,445.5,325.9883" style="stroke:#181818;stroke-width:1.0;"/><line style="stroke:#181818;stroke-width:1.0;" x1="47.5" x2="447.5" y1="325.9883" y2="325.9883"/><text fill="#000000" font-family="sans-serif" font-size="13" lengthAdjust="spacing" textLength="105" x="54.5" y="320.7256">Enter user's name</text><polygon fill="#181818" points="58.5,353.2793,48.5,357.2793,58.5,361.2793,54.5,357.2793" style="stroke:#181818;stroke-width:1.0;"/><line style="stroke:#181818;stroke-width:1.0;stroke-dasharray:2.0,2.0;" x1="52.5" x2="457.5" y1="357.2793" y2="357.2793"/><text fill="#000000" font-family="sans-serif" font-size="13" lengthAdjust="spacing" textLength="114" x="64.5" y="352.0166">Ask for user's email</text><polygon fill="#181818" points="441.5,384.5703,451.5,388.5703,441.5,392.5703,445.5,388.5703" style="stroke:#181818;stroke-width:1.0;"/><line style="stroke:#181818;stroke-width:1.0;" x1="47.5" x2="447.5" y1="388.5703" y2="388.5703"/><text fill="#000000" font-family="sans-serif" font-size="13" lengthAdjust="spacing" textLength="104" x="54.5" y="383.3076">Enter user's email</text><polygon fill="#181818" points="58.5,415.8613,48.5,419.8613,58.5,423.8613,54.5,419.8613" style="stroke:#181818;stroke-width:1.0;"/><line style="stroke:#181818;stroke-width:1.0;stroke-dasharray:2.0,2.0;" x1="52.5" x2="457.5" y1="419.8613" y2="419.8613"/><text fill="#000000" font-family="sans-serif" font-size="13" lengthAdjust="spacing" textLength="138" x="64.5" y="414.5986">Ask for user's password</text><polygon fill="#181818" points="441.5,447.1523,451.5,451.1523,441.5,455.1523,445.5,451.1523" style="stroke:#181818;stroke-width:1.0;"/><line style="stroke:#181818;stroke-width:1.0;" x1="47.5" x2="447.5" y1="451.1523" y2="451.1523"/><text fill="#000000" font-family="sans-serif" font-size="13" lengthAdjust="spacing" textLength="128" x="54.5" y="445.8896">Enter user's password</text><polygon fill="#181818" points="58.5,478.4434,48.5,482.4434,58.5,486.4434,54.5,482.4434" style="stroke:#181818;stroke-width:1.0;"/><line style="stroke:#181818;stroke-width:1.0;stroke-dasharray:2.0,2.0;" x1="52.5" x2="457.5" y1="482.4434" y2="482.4434"/><text fill="#000000" font-family="sans-serif" font-size="13" lengthAdjust="spacing" textLength="119" x="64.5" y="477.1807">Ask for user's role(s)</text><polygon fill="#181818" points="441.5,509.7344,451.5,513.7344,441.5,517.7344,445.5,513.7344" style="stroke:#181818;stroke-width:1.0;"/><line style="stroke:#181818;stroke-width:1.0;" x1="47.5" x2="447.5" y1="513.7344" y2="513.7344"/><text fill="#000000" font-family="sans-serif" font-size="13" lengthAdjust="spacing" textLength="109" x="54.5" y="508.4717">Enter user's role(s)</text><line style="stroke:#181818;stroke-width:1.0;" x1="463.5" x2="505.5" y1="545.0254" y2="545.0254"/><line style="stroke:#181818;stroke-width:1.0;" x1="505.5" x2="505.5" y1="545.0254" y2="558.0254"/><line style="stroke:#181818;stroke-width:1.0;" x1="464.5" x2="505.5" y1="558.0254" y2="558.0254"/><polygon fill="#181818" points="474.5,554.0254,464.5,558.0254,474.5,562.0254,470.5,558.0254" style="stroke:#181818;stroke-width:1.0;"/><text fill="#000000" font-family="sans-serif" font-size="13" lengthAdjust="spacing" textLength="127" x="470.5" y="539.7627">Validate user's details</text><path d="M10,573.0254 L71,573.0254 L71,582.3164 L61,592.3164 L10,592.3164 L10,573.0254 " fill="#EEEEEE" style="stroke:#000000;stroke-width:1.5;"/><rect fill="none" height="98.5039" style="stroke:#000000;stroke-width:1.5;" width="490.5" x="10" y="573.0254"/><text fill="#000000" font-family="sans-serif" font-size="13" font-weight="bold" lengthAdjust="spacing" textLength="16" x="25" y="588.0537">alt</text><text fill="#000000" font-family="sans-serif" font-size="11" font-weight="bold" lengthAdjust="spacing" textLength="55" x="86" y="586.8955">[Success]</text><polygon fill="#181818" points="58.5,611.6074,48.5,615.6074,58.5,619.6074,54.5,615.6074" style="stroke:#181818;stroke-width:1.0;"/><line style="stroke:#181818;stroke-width:1.0;stroke-dasharray:2.0,2.0;" x1="52.5" x2="452.5" y1="615.6074" y2="615.6074"/><text fill="#000000" font-family="sans-serif" font-size="13" lengthAdjust="spacing" textLength="111" x="64.5" y="610.3447">Inform user created</text><line style="stroke:#000000;stroke-width:1.0;stroke-dasharray:2.0,2.0;" x1="10" x2="500.5" y1="624.6074" y2="624.6074"/><text fill="#000000" font-family="sans-serif" font-size="11" font-weight="bold" lengthAdjust="spacing" textLength="36" x="15" y="636.4775">[Error]</text><polygon fill="#181818" points="58.5,659.5293,48.5,663.5293,58.5,667.5293,54.5,663.5293" style="stroke:#181818;stroke-width:1.0;"/><line style="stroke:#181818;stroke-width:1.0;stroke-dasharray:2.0,2.0;" x1="52.5" x2="452.5" y1="663.5293" y2="663.5293"/><text fill="#000000" font-family="sans-serif" font-size="13" lengthAdjust="spacing" textLength="65" x="64.5" y="658.2666">Inform error</text><!--SRC=[dLIxRiCm3Dpz5KIM9aE0TCrG84Ww5EXcj3ihqxOGFLoHhf6_h_oewy0fa9gJGDuTZxGiFcjNOK0BrZklok0jWOIQ4Xuh5Qep5fJAnH04KeAkC5C0bvZvHhi2SZHCII9Q8ZIzi925b3vhSehWfB5euUiqFMrW2s_7tUunGIK-m26psW5oVqYYhcYbAtG2gtqlj6hB_J5fMVeBXGOynEWbjay3PW-llXXA8_g73aCC5YUaTpGwQw5cPBSnOqHArt0F1sDy4rieOWRn82N1HroPptCTfyQgCbgXQE-WqL82TZuh2bOpnontsXdTD3aRwXYenJXgfargfd3Vf1FVV8OyhhxbFZ0ujFGl9yzEQCvURe0iQhFSmIzzkOKAcHiVikKkhXIM6mdUq9etotrC1PRS_a4c8ubRvVblW4OWhRixF-PkJ_RYubos4mJLNTviP51yBU0v11_k4w4hABa_FzGarJyGtm00]--></g></svg>