<?xml version="1.0" encoding="us-ascii" standalone="no"?><svg xmlns="http://www.w3.org/2000/svg" xmlns:xlink="http://www.w3.org/1999/xlink" contentStyleType="text/css" height="900px" preserveAspectRatio="none" style="width:659px;height:900px;background:#FFFFFF;" version="1.1" viewBox="0 0 659 900" width="659px" zoomAndPan="magnify"><defs/><g><text fill="#000000" font-family="sans-serif" font-size="14" font-weight="bold" lengthAdjust="spacing" textLength="285" x="188.25" y="30.1074">System Sequence Diagram (SSD) - UC031</text><rect fill="#FFFFFF" height="674.082" style="stroke:#181818;stroke-width:1.0;" width="10" x="86.5" y="133.2422"/><rect fill="#FFFFFF" height="75.582" style="stroke:#181818;stroke-width:1.0;" width="10" x="504.5" y="156.5332"/><rect fill="#FFFFFF" height="31.291" style="stroke:#181818;stroke-width:1.0;" width="10" x="504.5" y="263.4063"/><rect fill="#FFFFFF" height="31.291" style="stroke:#181818;stroke-width:1.0;" width="10" x="504.5" y="325.9883"/><rect fill="#FFFFFF" height="133.1641" style="stroke:#181818;stroke-width:1.0;" width="10" x="504.5" y="388.5703"/><rect fill="#FFFFFF" height="213.0078" style="stroke:#181818;stroke-width:1.0;" width="10" x="504.5" y="579.3164"/><rect fill="none" height="321.1719" style="stroke:#000000;stroke-width:1.5;" width="642.5" x="10" y="479.1523"/><rect fill="none" height="208.668" style="stroke:#000000;stroke-width:1.5;" width="622.5" x="20" y="536.7344"/><line style="stroke:#181818;stroke-width:0.5;stroke-dasharray:5.0,5.0;" x1="91" x2="91" y1="123.2422" y2="817.3242"/><line style="stroke:#181818;stroke-width:0.5;stroke-dasharray:5.0,5.0;" x1="509.5" x2="509.5" y1="123.2422" y2="817.3242"/><text fill="#000000" font-family="sans-serif" font-size="14" lengthAdjust="spacing" textLength="117" x="30" y="119.7285">CustomerManager</text><ellipse cx="91.5" cy="53.1211" fill="#E3E3E3" rx="8" ry="8" style="stroke:#181818;stroke-width:0.5;"/><path d="M91.5,61.1211 L91.5,88.1211 M78.5,69.1211 L104.5,69.1211 M91.5,88.1211 L78.5,103.1211 M91.5,88.1211 L104.5,103.1211 " fill="none" style="stroke:#181818;stroke-width:0.5;"/><text fill="#000000" font-family="sans-serif" font-size="14" lengthAdjust="spacing" textLength="117" x="30" y="831.4316">CustomerManager</text><ellipse cx="91.5" cy="843.4453" fill="#E3E3E3" rx="8" ry="8" style="stroke:#181818;stroke-width:0.5;"/><path d="M91.5,851.4453 L91.5,878.4453 M78.5,859.4453 L104.5,859.4453 M91.5,878.4453 L78.5,893.4453 M91.5,878.4453 L104.5,893.4453 " fill="none" style="stroke:#181818;stroke-width:0.5;"/><rect fill="#E3E3E3" height="32.6211" rx="2.5" ry="2.5" style="stroke:#181818;stroke-width:0.5;" width="64" x="477.5" y="89.6211"/><text fill="#000000" font-family="sans-serif" font-size="14" lengthAdjust="spacing" textLength="50" x="484.5" y="111.7285">:System</text><rect fill="#E3E3E3" height="32.6211" rx="2.5" ry="2.5" style="stroke:#181818;stroke-width:0.5;" width="64" x="477.5" y="816.3242"/><text fill="#000000" font-family="sans-serif" font-size="14" lengthAdjust="spacing" textLength="50" x="484.5" y="838.4316">:System</text><rect fill="#FFFFFF" height="674.082" style="stroke:#181818;stroke-width:1.0;" width="10" x="86.5" y="133.2422"/><rect fill="#FFFFFF" height="75.582" style="stroke:#181818;stroke-width:1.0;" width="10" x="504.5" y="156.5332"/><rect fill="#FFFFFF" height="31.291" style="stroke:#181818;stroke-width:1.0;" width="10" x="504.5" y="263.4063"/><rect fill="#FFFFFF" height="31.291" style="stroke:#181818;stroke-width:1.0;" width="10" x="504.5" y="325.9883"/><rect fill="#FFFFFF" height="133.1641" style="stroke:#181818;stroke-width:1.0;" width="10" x="504.5" y="388.5703"/><rect fill="#FFFFFF" height="213.0078" style="stroke:#181818;stroke-width:1.0;" width="10" x="504.5" y="579.3164"/><polygon fill="#181818" points="492.5,152.5332,502.5,156.5332,492.5,160.5332,496.5,156.5332" style="stroke:#181818;stroke-width:1.0;"/><line style="stroke:#181818;stroke-width:1.0;" x1="96.5" x2="498.5" y1="156.5332" y2="156.5332"/><text fill="#000000" font-family="sans-serif" font-size="13" lengthAdjust="spacing" textLength="31" x="103.5" y="151.2705">Login</text><line style="stroke:#181818;stroke-width:1.0;" x1="514.5" x2="556.5" y1="187.8242" y2="187.8242"/><line style="stroke:#181818;stroke-width:1.0;" x1="556.5" x2="556.5" y1="187.8242" y2="200.8242"/><line style="stroke:#181818;stroke-width:1.0;" x1="515.5" x2="556.5" y1="200.8242" y2="200.8242"/><polygon fill="#181818" points="525.5,196.8242,515.5,200.8242,525.5,204.8242,521.5,200.8242" style="stroke:#181818;stroke-width:1.0;"/><text fill="#000000" font-family="sans-serif" font-size="13" lengthAdjust="spacing" textLength="78" x="521.5" y="182.5615">Validate login</text><polygon fill="#181818" points="107.5,228.1152,97.5,232.1152,107.5,236.1152,103.5,232.1152" style="stroke:#181818;stroke-width:1.0;"/><line style="stroke:#181818;stroke-width:1.0;stroke-dasharray:2.0,2.0;" x1="101.5" x2="508.5" y1="232.1152" y2="232.1152"/><text fill="#000000" font-family="sans-serif" font-size="13" lengthAdjust="spacing" textLength="382" x="113.5" y="226.8525">Allow access to the backoffice application with admin permissions</text><polygon fill="#181818" points="492.5,259.4063,502.5,263.4063,492.5,267.4063,496.5,263.4063" style="stroke:#181818;stroke-width:1.0;"/><line style="stroke:#181818;stroke-width:1.0;" x1="96.5" x2="498.5" y1="263.4063" y2="263.4063"/><text fill="#000000" font-family="sans-serif" font-size="13" lengthAdjust="spacing" textLength="318" x="103.5" y="258.1436">Want to upload a text file with the candidate responses</text><polygon fill="#181818" points="107.5,290.6973,97.5,294.6973,107.5,298.6973,103.5,294.6973" style="stroke:#181818;stroke-width:1.0;"/><line style="stroke:#181818;stroke-width:1.0;stroke-dasharray:2.0,2.0;" x1="101.5" x2="508.5" y1="294.6973" y2="294.6973"/><text fill="#000000" font-family="sans-serif" font-size="13" lengthAdjust="spacing" textLength="140" x="113.5" y="289.4346">Display Job Opening list</text><polygon fill="#181818" points="492.5,321.9883,502.5,325.9883,492.5,329.9883,496.5,325.9883" style="stroke:#181818;stroke-width:1.0;"/><line style="stroke:#181818;stroke-width:1.0;" x1="96.5" x2="498.5" y1="325.9883" y2="325.9883"/><text fill="#000000" font-family="sans-serif" font-size="13" lengthAdjust="spacing" textLength="117" x="103.5" y="320.7256">Select a jobOpening</text><polygon fill="#181818" points="107.5,353.2793,97.5,357.2793,107.5,361.2793,103.5,357.2793" style="stroke:#181818;stroke-width:1.0;"/><line style="stroke:#181818;stroke-width:1.0;stroke-dasharray:2.0,2.0;" x1="101.5" x2="508.5" y1="357.2793" y2="357.2793"/><text fill="#000000" font-family="sans-serif" font-size="13" lengthAdjust="spacing" textLength="358" x="113.5" y="352.0166">Display Job Application list according to selected job opening.</text><polygon fill="#181818" points="492.5,384.5703,502.5,388.5703,492.5,392.5703,496.5,388.5703" style="stroke:#181818;stroke-width:1.0;"/><line style="stroke:#181818;stroke-width:1.0;" x1="96.5" x2="498.5" y1="388.5703" y2="388.5703"/><text fill="#000000" font-family="sans-serif" font-size="13" lengthAdjust="spacing" textLength="133" x="103.5" y="383.3076">Select a jobApplication</text><line style="stroke:#181818;stroke-width:1.0;" x1="514.5" x2="556.5" y1="419.8613" y2="419.8613"/><line style="stroke:#181818;stroke-width:1.0;" x1="556.5" x2="556.5" y1="419.8613" y2="432.8613"/><line style="stroke:#181818;stroke-width:1.0;" x1="515.5" x2="556.5" y1="432.8613" y2="432.8613"/><polygon fill="#181818" points="525.5,428.8613,515.5,432.8613,525.5,436.8613,521.5,432.8613" style="stroke:#181818;stroke-width:1.0;"/><text fill="#000000" font-family="sans-serif" font-size="13" lengthAdjust="spacing" textLength="111" x="521.5" y="414.5986">Export file interview</text><polygon fill="#181818" points="107.5,460.1523,97.5,464.1523,107.5,468.1523,103.5,464.1523" style="stroke:#181818;stroke-width:1.0;"/><line style="stroke:#181818;stroke-width:1.0;stroke-dasharray:2.0,2.0;" x1="101.5" x2="503.5" y1="464.1523" y2="464.1523"/><text fill="#000000" font-family="sans-serif" font-size="13" lengthAdjust="spacing" textLength="257" x="113.5" y="458.8896">File (not)exported to downloads successfully</text><path d="M10,479.1523 L71,479.1523 L71,488.4434 L61,498.4434 L10,498.4434 L10,479.1523 " fill="#EEEEEE" style="stroke:#000000;stroke-width:1.5;"/><rect fill="none" height="321.1719" style="stroke:#000000;stroke-width:1.5;" width="642.5" x="10" y="479.1523"/><text fill="#000000" font-family="sans-serif" font-size="13" font-weight="bold" lengthAdjust="spacing" textLength="16" x="25" y="494.1807">alt</text><text fill="#000000" font-family="sans-serif" font-size="11" font-weight="bold" lengthAdjust="spacing" textLength="151" x="86" y="493.0225">[file exported successfully]</text><polygon fill="#181818" points="107.5,517.7344,97.5,521.7344,107.5,525.7344,103.5,521.7344" style="stroke:#181818;stroke-width:1.0;"/><line style="stroke:#181818;stroke-width:1.0;stroke-dasharray:2.0,2.0;" x1="101.5" x2="508.5" y1="521.7344" y2="521.7344"/><text fill="#000000" font-family="sans-serif" font-size="13" lengthAdjust="spacing" textLength="384" x="113.5" y="516.4717">File exported successfully and display if you want to import the file</text><path d="M20,536.7344 L81,536.7344 L81,546.0254 L71,556.0254 L20,556.0254 L20,536.7344 " fill="#EEEEEE" style="stroke:#000000;stroke-width:1.5;"/><rect fill="none" height="208.668" style="stroke:#000000;stroke-width:1.5;" width="622.5" x="20" y="536.7344"/><text fill="#000000" font-family="sans-serif" font-size="13" font-weight="bold" lengthAdjust="spacing" textLength="16" x="35" y="551.7627">alt</text><text fill="#000000" font-family="sans-serif" font-size="11" font-weight="bold" lengthAdjust="spacing" textLength="104" x="96" y="550.6045">[if asnswer="Yes"]</text><polygon fill="#181818" points="492.5,575.3164,502.5,579.3164,492.5,583.3164,496.5,579.3164" style="stroke:#181818;stroke-width:1.0;"/><line style="stroke:#181818;stroke-width:1.0;" x1="96.5" x2="498.5" y1="579.3164" y2="579.3164"/><text fill="#000000" font-family="sans-serif" font-size="13" lengthAdjust="spacing" textLength="157" x="103.5" y="574.0537">Enter the file path to import</text><line style="stroke:#181818;stroke-width:1.0;" x1="514.5" x2="556.5" y1="645.1895" y2="645.1895"/><line style="stroke:#181818;stroke-width:1.0;" x1="556.5" x2="556.5" y1="645.1895" y2="658.1895"/><line style="stroke:#181818;stroke-width:1.0;" x1="515.5" x2="556.5" y1="658.1895" y2="658.1895"/><polygon fill="#181818" points="525.5,654.1895,515.5,658.1895,525.5,662.1895,521.5,658.1895" style="stroke:#181818;stroke-width:1.0;"/><text fill="#000000" font-family="sans-serif" font-size="13" lengthAdjust="spacing" textLength="109" x="521.5" y="605.3447">Import file interview</text><text fill="#000000" font-family="sans-serif" font-size="13" lengthAdjust="spacing" textLength="89" x="521.5" y="622.6357">Validate the file</text><text fill="#000000" font-family="sans-serif" font-size="13" lengthAdjust="spacing" textLength="99" x="521.5" y="639.9268">Save in database</text><polygon fill="#181818" points="107.5,685.4805,97.5,689.4805,107.5,693.4805,103.5,689.4805" style="stroke:#181818;stroke-width:1.0;"/><line style="stroke:#181818;stroke-width:1.0;" x1="101.5" x2="503.5" y1="689.4805" y2="689.4805"/><text fill="#000000" font-family="sans-serif" font-size="13" lengthAdjust="spacing" textLength="75" x="113.5" y="684.2178">File imported</text><line style="stroke:#000000;stroke-width:1.0;stroke-dasharray:2.0,2.0;" x1="20" x2="642.5" y1="698.4805" y2="698.4805"/><text fill="#000000" font-family="sans-serif" font-size="11" font-weight="bold" lengthAdjust="spacing" textLength="97" x="25" y="710.3506">[if asnswer="No"]</text><polygon fill="#181818" points="107.5,733.4023,97.5,737.4023,107.5,741.4023,103.5,737.4023" style="stroke:#181818;stroke-width:1.0;"/><line style="stroke:#181818;stroke-width:1.0;" x1="101.5" x2="503.5" y1="737.4023" y2="737.4023"/><text fill="#000000" font-family="sans-serif" font-size="13" lengthAdjust="spacing" textLength="97" x="113.5" y="732.1396">File not imported</text><line style="stroke:#000000;stroke-width:1.0;stroke-dasharray:2.0,2.0;" x1="10" x2="652.5" y1="753.4023" y2="753.4023"/><text fill="#000000" font-family="sans-serif" font-size="11" font-weight="bold" lengthAdjust="spacing" textLength="182" x="15" y="765.2725">[if file not exported successfully]</text><polygon fill="#181818" points="107.5,788.3242,97.5,792.3242,107.5,796.3242,103.5,792.3242" style="stroke:#181818;stroke-width:1.0;"/><line style="stroke:#181818;stroke-width:1.0;stroke-dasharray:2.0,2.0;" x1="101.5" x2="508.5" y1="792.3242" y2="792.3242"/><text fill="#000000" font-family="sans-serif" font-size="13" lengthAdjust="spacing" textLength="173" x="113.5" y="787.0615">File not exported successfully</text><!--SRC=[dLJ1Rjim3BtxAuYSsaE75hi5s80YwO0DotOmjc50BunD9sfbIHFbkFdxKOxjE8Zh1jKfi1xVUtnanC_AEFHOGccDpRRUbWJ1LvHmV-CmUyODfM6l2Jnb0Sr63m6ynTpMocoWGCsK9445WQPx3bH2IlygCXd1Kk4cmg_IT7aDD_1hSVlnBi4iM0-BYeD8-nKQaVA038jL8lH1PSgX2J2R7_XcyUxmCud5QeU18XZaB5PmyxczdSDtkr6c-TxZka9eJ-jnKFGRjSeZL3VLPqY1BbPpkDVQriAR4JC42s5Bi9QWR54ewHMTqoh3eAo1MeKjO5ug0uvygPZbApV4EOqwEstZJsnV92gdBUQ04EWbGA4aueOwIcTeyeDjJ-o4dlYonjjsbegTnZryisluwSZ4OMh5uNANAMbP3N7tPDSjmxI3DrpS3nACJcBMrkVHc6J1ZHhbKGtiGUx3-ymEX4ODZ_djc60E3o_E-dOSoWJoEqNrP9TV8lJAs71DJQrq8Ht9FyZ4-J9mrMnLKMczJuvCg5kLlkeK-AeYj9AZTI2B0tcRkofWRokesuLJPTDQtAyed4pbEppHgL0X6wx9Vvhz9PwTexfpEfc7664lAMzFNF3EoZZ9ctucflUr79dUe-aVWSx8eqbn5o4Wdt6DJ9V87BC_-AVyl8hanJn9wuTz9QmnNjcYAMwPhGpZUD695LtjUtVfmjg9PUcz3J3oYly7]--></g></svg>