<?xml version="1.0" encoding="us-ascii" standalone="no"?><svg xmlns="http://www.w3.org/2000/svg" xmlns:xlink="http://www.w3.org/1999/xlink" contentStyleType="text/css" height="486.6px" preserveAspectRatio="none" style="width:939px;height:486px;background:#FFFFFF;" version="1.1" viewBox="0 0 939 486" width="939px" zoomAndPan="magnify"><defs/><g><text fill="#000000" font-family="sans-serif" font-size="8.4" font-weight="bold" lengthAdjust="spacing" textLength="133.2" x="403.95" y="18.0645">Sequence Diagram (SD) - UC030</text><rect fill="#FFFFFF" height="338.3684" style="stroke:#181818;stroke-width:0.6;" width="6" x="45.9" y="82.718"/><rect fill="#FFFFFF" height="324.3938" style="stroke:#181818;stroke-width:0.6;" width="6" x="249.9" y="96.6926"/><rect fill="#FFFFFF" height="82.8984" style="stroke:#181818;stroke-width:0.6;" width="6" x="460.5" y="115.4672"/><rect fill="#FFFFFF" height="156.1969" style="stroke:#181818;stroke-width:0.6;" width="6" x="460.5" y="232.9148"/><rect fill="#FFFFFF" height="45.3492" style="stroke:#181818;stroke-width:0.6;" width="6" x="671.1" y="134.2418"/><rect fill="#FFFFFF" height="98.673" style="stroke:#181818;stroke-width:0.6;" width="6" x="671.1" y="251.6895"/><rect fill="#FFFFFF" height="37.5492" style="stroke:#181818;stroke-width:0.6;" width="6" x="674.1" y="275.2641"/><rect fill="#FFFFFF" height="18.7746" style="stroke:#181818;stroke-width:0.6;" width="6" x="875.7" y="312.8133"/><rect fill="none" height="209.5207" style="stroke:#000000;stroke-width:0.8999999999999999;" width="929.7" x="6" y="207.3656"/><rect fill="none" height="106.6477" style="stroke:#000000;stroke-width:0.8999999999999999;" width="738.6" x="191.1" y="287.2641"/><line style="stroke:#181818;stroke-width:0.3;stroke-dasharray:5.0,5.0;" x1="48.6" x2="48.6" y1="76.718" y2="427.0863"/><line style="stroke:#181818;stroke-width:0.3;stroke-dasharray:5.0,5.0;" x1="252.9" x2="252.9" y1="76.718" y2="427.0863"/><line style="stroke:#181818;stroke-width:0.3;stroke-dasharray:5.0,5.0;" x1="463.5" x2="463.5" y1="76.718" y2="427.0863"/><line style="stroke:#181818;stroke-width:0.3;stroke-dasharray:5.0,5.0;" x1="673.8" x2="673.8" y1="76.718" y2="427.0863"/><line style="stroke:#181818;stroke-width:0.3;stroke-dasharray:5.0,5.0;" x1="878.7" x2="878.7" y1="76.718" y2="427.0863"/><text fill="#000000" font-family="sans-serif" font-size="8.4" lengthAdjust="spacing" textLength="70.2" x="12" y="74.6098">CustomerManager</text><ellipse cx="48.9" cy="34.6453" fill="#E2E2F0" rx="4.8" ry="4.8" style="stroke:#181818;stroke-width:0.3;"/><path d="M48.9,39.4453 L48.9,55.6453 M41.1,44.2453 L56.7,44.2453 M48.9,55.6453 L41.1,64.6453 M48.9,55.6453 L56.7,64.6453 " fill="none" style="stroke:#181818;stroke-width:0.3;"/><text fill="#000000" font-family="sans-serif" font-size="8.4" lengthAdjust="spacing" textLength="70.2" x="12" y="435.5508">CustomerManager</text><ellipse cx="48.9" cy="442.759" fill="#E2E2F0" rx="4.8" ry="4.8" style="stroke:#181818;stroke-width:0.3;"/><path d="M48.9,447.559 L48.9,463.759 M41.1,452.359 L56.7,452.359 M48.9,463.759 L41.1,472.759 M48.9,463.759 L56.7,472.759 " fill="none" style="stroke:#181818;stroke-width:0.3;"/><rect fill="#E2E2F0" height="30.7453" rx="1.5" ry="1.5" style="stroke:#181818;stroke-width:0.3;" width="111.6" x="197.1" y="45.3727"/><text fill="#000000" font-family="sans-serif" font-size="8.4" font-style="italic" lengthAdjust="spacing" textLength="57" x="224.4" y="58.6371">&#171;presentation&#187;</text><text fill="#000000" font-family="sans-serif" font-size="8.4" lengthAdjust="spacing" textLength="103.2" x="201.3" y="69.8098">ResultProcessNotificationUI</text><rect fill="#E2E2F0" height="30.7453" rx="1.5" ry="1.5" style="stroke:#181818;stroke-width:0.3;" width="111.6" x="197.1" y="426.4863"/><text fill="#000000" font-family="sans-serif" font-size="8.4" font-style="italic" lengthAdjust="spacing" textLength="57" x="224.4" y="439.7508">&#171;presentation&#187;</text><text fill="#000000" font-family="sans-serif" font-size="8.4" lengthAdjust="spacing" textLength="103.2" x="201.3" y="450.9234">ResultProcessNotificationUI</text><rect fill="#E2E2F0" height="30.7453" rx="1.5" ry="1.5" style="stroke:#181818;stroke-width:0.3;" width="141.6" x="392.7" y="45.3727"/><text fill="#000000" font-family="sans-serif" font-size="8.4" font-style="italic" lengthAdjust="spacing" textLength="50.4" x="438.3" y="58.6371">&#171;application&#187;</text><text fill="#000000" font-family="sans-serif" font-size="8.4" lengthAdjust="spacing" textLength="133.2" x="396.9" y="69.8098">ResultProcessNotificationController</text><rect fill="#E2E2F0" height="30.7453" rx="1.5" ry="1.5" style="stroke:#181818;stroke-width:0.3;" width="141.6" x="392.7" y="426.4863"/><text fill="#000000" font-family="sans-serif" font-size="8.4" font-style="italic" lengthAdjust="spacing" textLength="50.4" x="438.3" y="439.7508">&#171;application&#187;</text><text fill="#000000" font-family="sans-serif" font-size="8.4" lengthAdjust="spacing" textLength="133.2" x="396.9" y="450.9234">ResultProcessNotificationController</text><rect fill="#E2E2F0" height="30.7453" rx="1.5" ry="1.5" style="stroke:#181818;stroke-width:0.3;" width="131.4" x="608.4" y="45.3727"/><text fill="#000000" font-family="sans-serif" font-size="8.4" font-style="italic" lengthAdjust="spacing" textLength="53.4" x="647.4" y="58.6371">&#171;persistence&#187;</text><text fill="#000000" font-family="sans-serif" font-size="8.4" lengthAdjust="spacing" textLength="123" x="612.6" y="69.8098">JobOpeningManagementService</text><rect fill="#E2E2F0" height="30.7453" rx="1.5" ry="1.5" style="stroke:#181818;stroke-width:0.3;" width="131.4" x="608.4" y="426.4863"/><text fill="#000000" font-family="sans-serif" font-size="8.4" font-style="italic" lengthAdjust="spacing" textLength="53.4" x="647.4" y="439.7508">&#171;persistence&#187;</text><text fill="#000000" font-family="sans-serif" font-size="8.4" lengthAdjust="spacing" textLength="123" x="612.6" y="450.9234">JobOpeningManagementService</text><text fill="#000000" font-family="sans-serif" font-size="8.4" font-style="italic" lengthAdjust="spacing" textLength="47.4" x="853.2" y="63.4371">&#171;repository&#187;</text><text fill="#000000" font-family="sans-serif" font-size="8.4" lengthAdjust="spacing" textLength="86.4" x="833.7" y="74.6098">JobOpeningRepository</text><path d="M867.9,32.7727 C867.9,26.7727 878.7,26.7727 878.7,26.7727 C878.7,26.7727 889.5,26.7727 889.5,32.7727 L889.5,48.3727 C889.5,54.3727 878.7,54.3727 878.7,54.3727 C878.7,54.3727 867.9,54.3727 867.9,48.3727 L867.9,32.7727 " fill="#E2E2F0" style="stroke:#181818;stroke-width:0.8999999999999999;"/><path d="M867.9,32.7727 C867.9,38.7727 878.7,38.7727 878.7,38.7727 C878.7,38.7727 889.5,38.7727 889.5,32.7727 " fill="none" style="stroke:#181818;stroke-width:0.8999999999999999;"/><text fill="#000000" font-family="sans-serif" font-size="8.4" font-style="italic" lengthAdjust="spacing" textLength="47.4" x="853.2" y="435.5508">&#171;repository&#187;</text><text fill="#000000" font-family="sans-serif" font-size="8.4" lengthAdjust="spacing" textLength="86.4" x="833.7" y="446.7234">JobOpeningRepository</text><path d="M867.9,454.8316 C867.9,448.8316 878.7,448.8316 878.7,448.8316 C878.7,448.8316 889.5,448.8316 889.5,454.8316 L889.5,470.4316 C889.5,476.4316 878.7,476.4316 878.7,476.4316 C878.7,476.4316 867.9,476.4316 867.9,470.4316 L867.9,454.8316 " fill="#E2E2F0" style="stroke:#181818;stroke-width:0.8999999999999999;"/><path d="M867.9,454.8316 C867.9,460.8316 878.7,460.8316 878.7,460.8316 C878.7,460.8316 889.5,460.8316 889.5,454.8316 " fill="none" style="stroke:#181818;stroke-width:0.8999999999999999;"/><rect fill="#FFFFFF" height="338.3684" style="stroke:#181818;stroke-width:0.6;" width="6" x="45.9" y="82.718"/><rect fill="#FFFFFF" height="324.3938" style="stroke:#181818;stroke-width:0.6;" width="6" x="249.9" y="96.6926"/><rect fill="#FFFFFF" height="82.8984" style="stroke:#181818;stroke-width:0.6;" width="6" x="460.5" y="115.4672"/><rect fill="#FFFFFF" height="156.1969" style="stroke:#181818;stroke-width:0.6;" width="6" x="460.5" y="232.9148"/><rect fill="#FFFFFF" height="45.3492" style="stroke:#181818;stroke-width:0.6;" width="6" x="671.1" y="134.2418"/><rect fill="#FFFFFF" height="98.673" style="stroke:#181818;stroke-width:0.6;" width="6" x="671.1" y="251.6895"/><rect fill="#FFFFFF" height="37.5492" style="stroke:#181818;stroke-width:0.6;" width="6" x="674.1" y="275.2641"/><rect fill="#FFFFFF" height="18.7746" style="stroke:#181818;stroke-width:0.6;" width="6" x="875.7" y="312.8133"/><polygon fill="#181818" points="242.7,94.2926,248.7,96.6926,242.7,99.0926,245.1,96.6926" style="stroke:#181818;stroke-width:0.6;"/><line style="stroke:#181818;stroke-width:0.6;" x1="51.9" x2="246.3" y1="96.6926" y2="96.6926"/><text fill="#000000" font-family="sans-serif" font-size="7.8" lengthAdjust="spacing" textLength="40.2" x="56.1" y="93.535">Send Email</text><polygon fill="#181818" points="453.3,113.0672,459.3,115.4672,453.3,117.8672,455.7,115.4672" style="stroke:#181818;stroke-width:0.6;"/><line style="stroke:#181818;stroke-width:0.6;" x1="255.9" x2="456.9" y1="115.4672" y2="115.4672"/><text fill="#000000" font-family="sans-serif" font-size="7.8" lengthAdjust="spacing" textLength="109.8" x="260.1" y="112.3096">updatedJobOpeningAndStatus()</text><polygon fill="#181818" points="663.9,131.8418,669.9,134.2418,663.9,136.6418,666.3,134.2418" style="stroke:#181818;stroke-width:0.6;"/><line style="stroke:#181818;stroke-width:0.6;" x1="466.5" x2="667.5" y1="134.2418" y2="134.2418"/><text fill="#000000" font-family="sans-serif" font-size="7.8" lengthAdjust="spacing" textLength="109.8" x="470.7" y="131.0842">updatedJobOpeningAndStatus()</text><line style="stroke:#181818;stroke-width:0.6;stroke-dasharray:2.0,2.0;" x1="677.1" x2="702.3" y1="153.0164" y2="153.0164"/><line style="stroke:#181818;stroke-width:0.6;stroke-dasharray:2.0,2.0;" x1="702.3" x2="702.3" y1="153.0164" y2="160.8164"/><line style="stroke:#181818;stroke-width:0.6;stroke-dasharray:2.0,2.0;" x1="677.7" x2="702.3" y1="160.8164" y2="160.8164"/><polygon fill="#181818" points="683.7,158.4164,677.7,160.8164,683.7,163.2164,681.3,160.8164" style="stroke:#181818;stroke-width:0.6;"/><text fill="#000000" font-family="sans-serif" font-size="7.8" lengthAdjust="spacing" textLength="190.2" x="681.3" y="149.8588">return new Pair&lt;&gt;(updatedJobOpening, updatedStatus)</text><polygon fill="#181818" points="473.1,177.191,467.1,179.591,473.1,181.991,470.7,179.591" style="stroke:#181818;stroke-width:0.6;"/><line style="stroke:#181818;stroke-width:0.6;stroke-dasharray:2.0,2.0;" x1="469.5" x2="673.5" y1="179.591" y2="179.591"/><text fill="#000000" font-family="sans-serif" font-size="7.8" lengthAdjust="spacing" textLength="190.2" x="476.7" y="176.4334">return new Pair&lt;&gt;(updatedJobOpening, updatedStatus)</text><polygon fill="#181818" points="262.5,195.9656,256.5,198.3656,262.5,200.7656,260.1,198.3656" style="stroke:#181818;stroke-width:0.6;"/><line style="stroke:#181818;stroke-width:0.6;" x1="258.9" x2="462.9" y1="198.3656" y2="198.3656"/><text fill="#000000" font-family="sans-serif" font-size="7.8" lengthAdjust="spacing" textLength="190.2" x="266.1" y="195.208">return new Pair&lt;&gt;(updatedJobOpening, updatedStatus)</text><path d="M6,207.3656 L42.6,207.3656 L42.6,212.9402 L36.6,218.9402 L6,218.9402 L6,207.3656 " fill="#EEEEEE" style="stroke:#000000;stroke-width:0.8999999999999999;"/><rect fill="none" height="209.5207" style="stroke:#000000;stroke-width:0.8999999999999999;" width="929.7" x="6" y="207.3656"/><text fill="#000000" font-family="sans-serif" font-size="7.8" font-weight="bold" lengthAdjust="spacing" textLength="9.6" x="15" y="216.3826">alt</text><text fill="#000000" font-family="sans-serif" font-size="6.6" font-weight="bold" lengthAdjust="spacing" textLength="138" x="51.6" y="215.6877">[if Phase.SCREENING = Status.COMPLETED]</text><polygon fill="#181818" points="453.3,230.5148,459.3,232.9148,453.3,235.3148,455.7,232.9148" style="stroke:#181818;stroke-width:0.6;"/><line style="stroke:#181818;stroke-width:0.6;" x1="255.9" x2="456.9" y1="232.9148" y2="232.9148"/><text fill="#000000" font-family="sans-serif" font-size="7.8" lengthAdjust="spacing" textLength="41.4" x="260.1" y="229.7572">sendEmail()</text><polygon fill="#181818" points="663.9,249.2895,669.9,251.6895,663.9,254.0895,666.3,251.6895" style="stroke:#181818;stroke-width:0.6;"/><line style="stroke:#181818;stroke-width:0.6;" x1="466.5" x2="667.5" y1="251.6895" y2="251.6895"/><text fill="#000000" font-family="sans-serif" font-size="7.8" lengthAdjust="spacing" textLength="41.4" x="470.7" y="248.5318">sendEmail()</text><line style="stroke:#181818;stroke-width:0.6;stroke-dasharray:2.0,2.0;" x1="677.1" x2="705.3" y1="267.4641" y2="267.4641"/><line style="stroke:#181818;stroke-width:0.6;stroke-dasharray:2.0,2.0;" x1="705.3" x2="705.3" y1="267.4641" y2="275.2641"/><line style="stroke:#181818;stroke-width:0.6;stroke-dasharray:2.0,2.0;" x1="680.7" x2="705.3" y1="275.2641" y2="275.2641"/><polygon fill="#181818" points="686.7,272.8641,680.7,275.2641,686.7,277.6641,684.3,275.2641" style="stroke:#181818;stroke-width:0.6;"/><text fill="#000000" font-family="sans-serif" font-size="7.8" lengthAdjust="spacing" textLength="60" x="684.3" y="264.3064">sendNotification()</text><path d="M191.1,287.2641 L227.7,287.2641 L227.7,292.8387 L221.7,298.8387 L191.1,298.8387 L191.1,287.2641 " fill="#EEEEEE" style="stroke:#000000;stroke-width:0.8999999999999999;"/><rect fill="none" height="106.6477" style="stroke:#000000;stroke-width:0.8999999999999999;" width="738.6" x="191.1" y="287.2641"/><text fill="#000000" font-family="sans-serif" font-size="7.8" font-weight="bold" lengthAdjust="spacing" textLength="9.6" x="200.1" y="296.2811">alt</text><text fill="#000000" font-family="sans-serif" font-size="6.6" font-weight="bold" lengthAdjust="spacing" textLength="93.6" x="236.7" y="295.5861">[if send email with success]</text><polygon fill="#181818" points="868.5,310.4133,874.5,312.8133,868.5,315.2133,870.9,312.8133" style="stroke:#181818;stroke-width:0.6;"/><line style="stroke:#181818;stroke-width:0.6;" x1="677.1" x2="872.1" y1="312.8133" y2="312.8133"/><text fill="#000000" font-family="sans-serif" font-size="7.8" lengthAdjust="spacing" textLength="59.4" x="681.3" y="309.6557">save(jobOpening)</text><polygon fill="#181818" points="683.7,329.1879,677.7,331.5879,683.7,333.9879,681.3,331.5879" style="stroke:#181818;stroke-width:0.6;"/><line style="stroke:#181818;stroke-width:0.6;stroke-dasharray:2.0,2.0;" x1="680.1" x2="878.1" y1="331.5879" y2="331.5879"/><text fill="#000000" font-family="sans-serif" font-size="7.8" lengthAdjust="spacing" textLength="167.4" x="687.3" y="328.4303">Job opening successfully saved in the repository</text><polygon fill="#181818" points="473.1,347.9625,467.1,350.3625,473.1,352.7625,470.7,350.3625" style="stroke:#181818;stroke-width:0.6;"/><line style="stroke:#181818;stroke-width:0.6;stroke-dasharray:2.0,2.0;" x1="469.5" x2="673.5" y1="350.3625" y2="350.3625"/><text fill="#000000" font-family="sans-serif" font-size="7.8" lengthAdjust="spacing" textLength="183.6" x="476.7" y="347.2049">Email successfully sent and notification record saved</text><polygon fill="#181818" points="262.5,366.7371,256.5,369.1371,262.5,371.5371,260.1,369.1371" style="stroke:#181818;stroke-width:0.6;"/><line style="stroke:#181818;stroke-width:0.6;stroke-dasharray:2.0,2.0;" x1="258.9" x2="459.9" y1="369.1371" y2="369.1371"/><text fill="#000000" font-family="sans-serif" font-size="7.8" lengthAdjust="spacing" textLength="183.6" x="266.1" y="365.9795">Email successfully sent and notification record saved</text><line style="stroke:#000000;stroke-width:0.6;stroke-dasharray:2.0,2.0;" x1="191.1" x2="929.7" y1="374.5371" y2="374.5371"/><polygon fill="#181818" points="262.5,386.7117,256.5,389.1117,262.5,391.5117,260.1,389.1117" style="stroke:#181818;stroke-width:0.6;"/><line style="stroke:#181818;stroke-width:0.6;stroke-dasharray:2.0,2.0;" x1="258.9" x2="462.9" y1="389.1117" y2="389.1117"/><text fill="#000000" font-family="sans-serif" font-size="7.8" lengthAdjust="spacing" textLength="164.4" x="266.1" y="385.9541">Email not sent and notification record not saved</text><polygon fill="#181818" points="58.5,409.6863,52.5,412.0863,58.5,414.4863,56.1,412.0863" style="stroke:#181818;stroke-width:0.6;"/><line style="stroke:#181818;stroke-width:0.6;stroke-dasharray:2.0,2.0;" x1="54.9" x2="249.3" y1="412.0863" y2="412.0863"/><text fill="#000000" font-family="sans-serif" font-size="7.8" lengthAdjust="spacing" textLength="183.6" x="62.1" y="408.9287">Email successfully sent and notification record saved</text><!--SRC=[fLNRZjem47tFLymZI6MrKjzMAT8ge8ggi8YK3p390EuQExKd8Fhr7HCW9bnL_81mF7FEcUEnxJwbBeGLAoX4zYaMcD9M8LZCIEY5miWT0znIv6OZzGBcGhbmHKcDj2qG2gEsVX85YvaIphqJMJah2GUPqQdyY_0QHII9gLByKwBE47fIB7n2A-sreGFJvFKh1ucCZ8MaT6HMQ8T2iqOBma4oZ9Y0P2OBeGacw4f5OsioT6vaICvb9aWQFHtuQFwDuyAYGqsxpztkO-c9qMIDKdlIUXR7eYZKFgg1ziFCFWhKx5KbUCMiATgrv38PvV2N5Q5rqf6ldo5oGM8c70Rv4ooCasp1rYS6ipYsnmcdUf_aMX1wNw9a29qkr_p6L3g7_af85OHC1r44FDWK3gjhUeEoO0sOr_plEa_PiDArsbLEpNDCgnRy2EnXu7sPZw2U8E_pwXK_3fvrGc2BL5eD6ZSm5jB6tTOPrPS3UqNOleuQY7yIESVhjPnQn3lm15V0SsatX2AGSnWlkQLUqcJIxuy6e-_m3IgGb-HZEFxP_zNldNhIx0fMoASctpLHg-7VJVwRNT50RURSReORJR773OzmK_HrZijXbOqU5T3BXOsa9RWoytV5vPmJSTtmtB8yiSRMx-FMjYy2t6gXgtNKDDU3_GZad3hdBnumbQv3WVDIgUrET0vI0otzwt2V9oZWdgohXt3N70qTV9E2u9tGmGRxvyhOl19vpl68bs6F7ixbVzBNuEYVoUWn6WQyZRuBE2_mpXtWcvOR-Fo4Uw-7ptjyn0zq-ESbb3MC_W40]--></g></svg>