<?xml version="1.0" encoding="us-ascii" standalone="no"?><svg xmlns="http://www.w3.org/2000/svg" xmlns:xlink="http://www.w3.org/1999/xlink" contentStyleType="text/css" height="363px" preserveAspectRatio="none" style="width:886px;height:363px;background:#FFFFFF;" version="1.1" viewBox="0 0 886 363" width="886px" zoomAndPan="magnify"><defs/><g><text fill="#000000" font-family="sans-serif" font-size="14" font-weight="bold" lengthAdjust="spacing" textLength="194" x="339" y="25.1074">Domain Model (DM) - UC001</text><!--cluster SystemUserAggregate--><g id="cluster_SystemUserAggregate"><rect fill="none" height="235" rx="2.5" ry="2.5" style="stroke:#000000;stroke-width:1.5;" width="597" x="7" y="122.6211"/><text fill="#000000" font-family="sans-serif" font-size="14" font-weight="bold" lengthAdjust="spacing" textLength="156" x="227.5" y="139.7285">SystemUserAggregate</text></g><!--class EmailAddress--><g id="elem_EmailAddress"><rect codeLine="13" fill="#F1F1F1" height="68.543" id="EmailAddress" rx="2.5" ry="2.5" style="stroke:#181818;stroke-width:0.5;" width="92" x="312" y="159.6211"/><text fill="#000000" font-family="sans-serif" font-size="12" font-style="italic" lengthAdjust="spacing" textLength="44" x="336" y="177.5703">&#171;value&#187;</text><text fill="#000000" font-family="sans-serif" font-size="12" font-style="italic" lengthAdjust="spacing" textLength="24" x="346" y="193.5313">&#171;id&#187;</text><text fill="#000000" font-family="sans-serif" font-size="14" lengthAdjust="spacing" textLength="86" x="315" y="211.6504">EmailAddress</text><line style="stroke:#181818;stroke-width:0.5;" x1="313" x2="403" y1="220.1641" y2="220.1641"/></g><!--class SystemUser--><g id="elem_SystemUser"><rect codeLine="15" fill="#F1F1F1" height="52.582" id="SystemUser" rx="2.5" ry="2.5" style="stroke:#181818;stroke-width:0.5;" width="81" x="195.5" y="167.6211"/><text fill="#000000" font-family="sans-serif" font-size="12" font-style="italic" lengthAdjust="spacing" textLength="35" x="218.5" y="185.5703">&#171;root&#187;</text><text fill="#000000" font-family="sans-serif" font-size="14" lengthAdjust="spacing" textLength="75" x="198.5" y="203.6895">SystemUser</text><line style="stroke:#181818;stroke-width:0.5;" x1="196.5" x2="275.5" y1="212.2031" y2="212.2031"/></g><!--class Password--><g id="elem_Password"><rect codeLine="17" fill="#F1F1F1" height="52.582" id="Password" rx="2.5" ry="2.5" style="stroke:#181818;stroke-width:0.5;" width="67" x="439.5" y="167.6211"/><text fill="#000000" font-family="sans-serif" font-size="12" font-style="italic" lengthAdjust="spacing" textLength="44" x="451" y="185.5703">&#171;value&#187;</text><text fill="#000000" font-family="sans-serif" font-size="14" lengthAdjust="spacing" textLength="61" x="442.5" y="203.6895">Password</text><line style="stroke:#181818;stroke-width:0.5;" x1="440.5" x2="505.5" y1="212.2031" y2="212.2031"/></g><!--class Name--><g id="elem_Name"><rect codeLine="19" fill="#F1F1F1" height="52.582" id="Name" rx="2.5" ry="2.5" style="stroke:#181818;stroke-width:0.5;" width="46" x="542" y="167.6211"/><text fill="#000000" font-family="sans-serif" font-size="12" font-style="italic" lengthAdjust="spacing" textLength="44" x="543" y="185.5703">&#171;value&#187;</text><text fill="#000000" font-family="sans-serif" font-size="14" lengthAdjust="spacing" textLength="36" x="547" y="203.6895">Name</text><line style="stroke:#181818;stroke-width:0.5;" x1="543" x2="587" y1="212.2031" y2="212.2031"/></g><!--class RoleSet--><g id="elem_RoleSet"><rect codeLine="27" fill="#F1F1F1" height="52.582" id="RoleSet" rx="2.5" ry="2.5" style="stroke:#181818;stroke-width:0.5;" width="56" x="104" y="167.6211"/><text fill="#000000" font-family="sans-serif" font-size="12" font-style="italic" lengthAdjust="spacing" textLength="44" x="110" y="185.5703">&#171;value&#187;</text><text fill="#000000" font-family="sans-serif" font-size="14" lengthAdjust="spacing" textLength="50" x="107" y="203.6895">RoleSet</text><line style="stroke:#181818;stroke-width:0.5;" x1="105" x2="159" y1="212.2031" y2="212.2031"/></g><!--class RoleAssignment--><g id="elem_RoleAssignment"><rect codeLine="23" fill="#F1F1F1" height="52.582" id="RoleAssignment" rx="2.5" ry="2.5" style="stroke:#181818;stroke-width:0.5;" width="108" x="23" y="288.6211"/><text fill="#000000" font-family="sans-serif" font-size="12" font-style="italic" lengthAdjust="spacing" textLength="43" x="55.5" y="306.5703">&#171;entity&#187;</text><text fill="#000000" font-family="sans-serif" font-size="14" lengthAdjust="spacing" textLength="102" x="26" y="324.6895">RoleAssignment</text><line style="stroke:#181818;stroke-width:0.5;" x1="24" x2="130" y1="333.2031" y2="333.2031"/></g><!--class Role--><g id="elem_Role"><rect codeLine="25" fill="#F1F1F1" height="52.582" id="Role" rx="2.5" ry="2.5" style="stroke:#181818;stroke-width:0.5;" width="46" x="23" y="167.6211"/><text fill="#000000" font-family="sans-serif" font-size="12" font-style="italic" lengthAdjust="spacing" textLength="44" x="24" y="185.5703">&#171;value&#187;</text><text fill="#000000" font-family="sans-serif" font-size="14" lengthAdjust="spacing" textLength="29" x="31.5" y="203.6895">Role</text><line style="stroke:#181818;stroke-width:0.5;" x1="24" x2="68" y1="212.2031" y2="212.2031"/></g><!--class Set--><g id="elem_Set"><rect codeLine="29" fill="#F1F1F1" height="52.582" id="Set" rx="2.5" ry="2.5" style="stroke:#181818;stroke-width:0.5;" width="141" x="166.5" y="288.6211"/><text fill="#000000" font-family="sans-serif" font-size="12" font-style="italic" lengthAdjust="spacing" textLength="44" x="167.5" y="306.5703">&#171;value&#187;</text><text fill="#000000" font-family="sans-serif" font-size="14" lengthAdjust="spacing" textLength="21" x="179" y="324.6895">Set</text><rect fill="#FFFFFF" height="17.9609" style="stroke:#181818;stroke-width:1.0;stroke-dasharray:2.0,2.0;" width="93" x="217.5" y="285.6211"/><text fill="#000000" font-family="sans-serif" font-size="12" font-style="italic" lengthAdjust="spacing" textLength="91" x="218.5" y="299.5703">RoleAssignment</text><line style="stroke:#181818;stroke-width:0.5;" x1="167.5" x2="306.5" y1="333.2031" y2="333.2031"/></g><!--class PasswordPolicy--><g id="elem_PasswordPolicy"><rect codeLine="32" fill="#F1F1F1" height="52.582" id="PasswordPolicy" rx="2.5" ry="2.5" style="stroke:#181818;stroke-width:0.5;" width="104" x="620" y="288.6211"/><text fill="#000000" font-family="sans-serif" font-size="12" font-style="italic" lengthAdjust="spacing" textLength="53" x="645.5" y="306.5703">&#171;service&#187;</text><text fill="#000000" font-family="sans-serif" font-size="14" lengthAdjust="spacing" textLength="98" x="623" y="324.6895">PasswordPolicy</text><line style="stroke:#181818;stroke-width:0.5;" x1="621" x2="723" y1="333.2031" y2="333.2031"/></g><!--class PasswordEncoder--><g id="elem_PasswordEncoder"><rect codeLine="34" fill="#F1F1F1" height="52.582" id="PasswordEncoder" rx="2.5" ry="2.5" style="stroke:#181818;stroke-width:0.5;" width="120" x="759" y="288.6211"/><text fill="#000000" font-family="sans-serif" font-size="12" font-style="italic" lengthAdjust="spacing" textLength="53" x="792.5" y="306.5703">&#171;service&#187;</text><text fill="#000000" font-family="sans-serif" font-size="14" lengthAdjust="spacing" textLength="114" x="762" y="324.6895">PasswordEncoder</text><line style="stroke:#181818;stroke-width:0.5;" x1="760" x2="878" y1="333.2031" y2="333.2031"/></g><!--class SystemUserBuilder--><g id="elem_SystemUserBuilder"><rect codeLine="36" fill="#F1F1F1" height="52.582" id="SystemUserBuilder" rx="2.5" ry="2.5" style="stroke:#181818;stroke-width:0.5;" width="125" x="609.5" y="46.6211"/><text fill="#000000" font-family="sans-serif" font-size="12" font-style="italic" lengthAdjust="spacing" textLength="50" x="647" y="64.5703">&#171;factory&#187;</text><text fill="#000000" font-family="sans-serif" font-size="14" lengthAdjust="spacing" textLength="119" x="612.5" y="82.6895">SystemUserBuilder</text><line style="stroke:#181818;stroke-width:0.5;" x1="610.5" x2="733.5" y1="91.2031" y2="91.2031"/></g><!--link SystemUserBuilder to SystemUser--><g id="link_SystemUserBuilder_SystemUser"><path codeLine="38" d="M609.33,74.8111 C516.11,76.8411 346.25,84.6611 294,114.6211 C273.13,126.5911 260.4146,144.1537 250.6946,162.1237 " fill="none" id="SystemUserBuilder-to-SystemUser" style="stroke:#181818;stroke-width:1.0;stroke-dasharray:7.0,7.0;"/><polygon fill="#181818" points="247.84,167.4011,255.6402,161.388,250.2188,163.0032,248.6036,157.5819,247.84,167.4011" style="stroke:#181818;stroke-width:1.0;"/></g><!--link SystemUserBuilder to PasswordPolicy--><g id="link_SystemUserBuilder_PasswordPolicy"><path codeLine="39" d="M672,99.8011 C672,145.8811 672,236.0611 672,282.2611 " fill="none" id="SystemUserBuilder-to-PasswordPolicy" style="stroke:#181818;stroke-width:1.0;stroke-dasharray:7.0,7.0;"/><polygon fill="#181818" points="672,288.2611,676,279.2611,672,283.2611,668,279.2611,672,288.2611" style="stroke:#181818;stroke-width:1.0;"/></g><!--link SystemUserBuilder to PasswordEncoder--><g id="link_SystemUserBuilder_PasswordEncoder"><path codeLine="40" d="M688.6,99.7711 C691.75,104.6811 694.99,109.8011 698,114.6211 C736.71,176.6511 777.9134,245.2399 800.6634,283.3299 " fill="none" id="SystemUserBuilder-to-PasswordEncoder" style="stroke:#181818;stroke-width:1.0;stroke-dasharray:7.0,7.0;"/><polygon fill="#181818" points="803.74,288.4811,802.5592,278.7033,801.1761,284.1885,795.691,282.8055,803.74,288.4811" style="stroke:#181818;stroke-width:1.0;"/></g><!--link SystemUser to Name--><g id="link_SystemUser_Name"><path codeLine="42" d="M247.57,167.5411 C259.59,144.3311 280.94,113.3911 311.5,107.1211 C353.95,98.4111 464.05,98.4111 506.5,107.1211 C514.79,108.8211 517.81,108.8511 524,114.6211 C539.46,129.0111 547.9061,144.951 554.4561,161.981 " fill="none" id="SystemUser-to-Name" style="stroke:#181818;stroke-width:1.0;"/><polygon fill="#181818" points="556.61,167.5811,557.1126,157.7451,554.8151,162.9144,549.6458,160.6169,556.61,167.5811" style="stroke:#181818;stroke-width:1.0;"/></g><!--link SystemUser to Password--><g id="link_SystemUser_Password"><path codeLine="43" d="M247.57,167.5411 C259.59,144.3311 280.94,113.3911 311.5,107.1211 C335.39,102.2211 402.32,98.9411 421,114.6211 C438.18,129.0411 448.9814,145.2637 457.9614,162.2937 " fill="none" id="SystemUser-to-Password" style="stroke:#181818;stroke-width:1.0;"/><polygon fill="#181818" points="460.76,167.6011,460.1003,157.7744,458.4278,163.1783,453.0239,161.5058,460.76,167.6011" style="stroke:#181818;stroke-width:1.0;"/></g><!--link SystemUser to EmailAddress--><g id="link_SystemUser_EmailAddress"><path codeLine="44" d="M276.51,194.1211 C288.29,194.1211 294.06,194.1211 305.84,194.1211 " fill="none" id="SystemUser-to-EmailAddress" style="stroke:#181818;stroke-width:1.0;"/><polygon fill="#181818" points="311.84,194.1211,302.84,190.1211,306.84,194.1211,302.84,198.1211,311.84,194.1211" style="stroke:#181818;stroke-width:1.0;"/></g><!--reverse link RoleSet to SystemUser--><g id="link_RoleSet_SystemUser"><path codeLine="45" d="M166.03,194.1211 C177.8,194.1211 183.57,194.1211 195.34,194.1211 " fill="none" id="RoleSet-backto-SystemUser" style="stroke:#181818;stroke-width:1.0;"/><polygon fill="#181818" points="160.03,194.1211,169.03,198.1211,165.03,194.1211,169.03,190.1211,160.03,194.1211" style="stroke:#181818;stroke-width:1.0;"/></g><!--link RoleSet to Set--><g id="link_RoleSet_Set"><path codeLine="46" d="M154.53,220.6511 C172.12,240.5911 184.5584,254.6962 202.2384,274.7262 " fill="none" id="RoleSet-to-Set" style="stroke:#181818;stroke-width:1.0;stroke-dasharray:7.0,7.0;"/><polygon fill="none" points="214.15,288.2211,206.7367,270.7556,197.7401,278.6967,214.15,288.2211" style="stroke:#181818;stroke-width:1.0;"/></g><!--link RoleSet to RoleAssignment--><g id="link_RoleSet_RoleAssignment"><path codeLine="47" d="M120.2,220.6511 C110.98,240.5911 100.7478,262.7449 91.4878,282.7749 " fill="none" id="RoleSet-to-RoleAssignment" style="stroke:#181818;stroke-width:1.0;stroke-dasharray:7.0,7.0;"/><polygon fill="#181818" points="88.97,288.2211,96.3775,281.7304,91.0682,283.6826,89.1159,278.3733,88.97,288.2211" style="stroke:#181818;stroke-width:1.0;"/></g><!--reverse link Role to RoleAssignment--><g id="link_Role_RoleAssignment"><path codeLine="48" d="M54.1641,226.4569 C59.3641,246.3969 65.03,268.1911 70.25,288.2211 " fill="none" id="Role-backto-RoleAssignment" style="stroke:#181818;stroke-width:1.0;"/><polygon fill="#181818" points="52.65,220.6511,51.0505,230.3692,53.9117,225.4893,58.7916,228.3505,52.65,220.6511" style="stroke:#181818;stroke-width:1.0;"/></g><!--link Password to PasswordPolicy--><g id="link_Password_PasswordPolicy"><path codeLine="49" d="M506.57,217.5611 C512.35,221.3111 518.32,225.1211 524,228.6211 C557.85,249.4911 591.587,268.9882 621.037,285.6382 " fill="none" id="Password-to-PasswordPolicy" style="stroke:#181818;stroke-width:1.0;stroke-dasharray:7.0,7.0;"/><polygon fill="#181818" points="626.26,288.5911,620.394,280.6797,621.9075,286.1303,616.4568,287.6437,626.26,288.5911" style="stroke:#181818;stroke-width:1.0;"/></g><!--link Password to PasswordEncoder--><g id="link_Password_PasswordEncoder"><path codeLine="50" d="M506.73,219.3511 C512.33,222.7711 518.21,226.0011 524,228.6211 C615.56,270.0411 645.83,259.4811 742,288.6211 C747.53,290.2911 747.5453,290.2628 753.2653,292.0928 " fill="none" id="Password-to-PasswordEncoder" style="stroke:#181818;stroke-width:1.0;stroke-dasharray:7.0,7.0;"/><polygon fill="#181818" points="758.98,293.9211,751.6269,287.3689,754.2178,292.3975,749.1891,294.9884,758.98,293.9211" style="stroke:#181818;stroke-width:1.0;"/></g><!--SRC=[fPExRiCW58RtynHdR0TRwHuXkKs63gcYMda02YSE2eO8I2BtykubpWqxRZlK0yBytxc3NokpuOxNkE5YpIigGwC97Od0JQK9_0NmAoxjNfaAbrnxWaGIcdjVXE3KspRGix2cLE-48u2LaeH2EH5TjVkQmifA3n1KY84cjkRAuCnAqdWtcTrZXekdqUW1u9GGbeqFL2yykQAg75Ky47u0OFpQk3YDBdGXfQFuCnxlkDuIOt6d96Cjby1NRn5mrePRP1wNlNNowYkDzi9hIfIUxQlLL5Bu7IYyLvMfoHoukAhG38F_Y1F5SJSMI-0lW6wjSwkLQ28H6xDJegsvIqoDY4DoGyYrfuzRfO_GaejWtQ4kk9Npd2L6Fm3TrFw0JjcbmJ1ZxR1wHsUBtd5wYJgIfcM8-gdXS6vyddyox1p4ns5orXim7CUO7SIihrqksa2vWzgvocy0]--></g></svg>