<?xml version="1.0" encoding="us-ascii" standalone="no"?><svg xmlns="http://www.w3.org/2000/svg" xmlns:xlink="http://www.w3.org/1999/xlink" contentStyleType="text/css" height="1311px" preserveAspectRatio="none" style="width:2350px;height:1311px;background:#FFFFFF;" version="1.1" viewBox="0 0 2350 1311" width="2350px" zoomAndPan="magnify"><defs/><g><text fill="#000000" font-family="sans-serif" font-size="14" font-weight="bold" lengthAdjust="spacing" textLength="222" x="1065.5" y="30.1074">Sequence Diagram (SD) - UC036</text><rect fill="#FFFFFF" height="1032.6035" style="stroke:#181818;stroke-width:1.0;" width="10" x="346.5" y="161.1543"/><rect fill="#FFFFFF" height="594.5293" style="stroke:#181818;stroke-width:1.0;" width="10" x="620.5" y="223.7363"/><rect fill="#FFFFFF" height="187.7461" style="stroke:#181818;stroke-width:1.0;" width="10" x="620.5" y="912.1387"/><rect fill="#FFFFFF" height="93.873" style="stroke:#181818;stroke-width:1.0;" width="10" x="1075.5" y="286.3184"/><rect fill="#FFFFFF" height="31.291" style="stroke:#181818;stroke-width:1.0;" width="10" x="1203.5" y="411.4824"/><rect fill="#FFFFFF" height="281.6191" style="stroke:#181818;stroke-width:1.0;" width="10" x="1369.5" y="505.3555"/><rect fill="#FFFFFF" height="93.873" style="stroke:#181818;stroke-width:1.0;" width="10" x="1606" y="974.7207"/><rect fill="#FFFFFF" height="62.582" style="stroke:#181818;stroke-width:1.0;" width="10" x="1801" y="536.6465"/><rect fill="#FFFFFF" height="62.582" style="stroke:#181818;stroke-width:1.0;" width="10" x="1944" y="630.5195"/><rect fill="#FFFFFF" height="31.291" style="stroke:#181818;stroke-width:1.0;" width="10" x="2094" y="724.3926"/><rect fill="#FFFFFF" height="31.291" style="stroke:#181818;stroke-width:1.0;" width="10" x="2261.5" y="1006.0117"/><line style="stroke:#181818;stroke-width:0.5;stroke-dasharray:5.0,5.0;" x1="27" x2="27" y1="127.8633" y2="1211.7578"/><line style="stroke:#181818;stroke-width:0.5;stroke-dasharray:5.0,5.0;" x1="351" x2="351" y1="127.8633" y2="1211.7578"/><line style="stroke:#181818;stroke-width:0.5;stroke-dasharray:5.0,5.0;" x1="625" x2="625" y1="127.8633" y2="1211.7578"/><line style="stroke:#181818;stroke-width:0.5;stroke-dasharray:5.0,5.0;" x1="1080" x2="1080" y1="127.8633" y2="1211.7578"/><line style="stroke:#181818;stroke-width:0.5;stroke-dasharray:5.0,5.0;" x1="1208" x2="1208" y1="127.8633" y2="1211.7578"/><line style="stroke:#181818;stroke-width:0.5;stroke-dasharray:5.0,5.0;" x1="1374" x2="1374" y1="127.8633" y2="1211.7578"/><line style="stroke:#181818;stroke-width:0.5;stroke-dasharray:5.0,5.0;" x1="1611" x2="1611" y1="127.8633" y2="1211.7578"/><line style="stroke:#181818;stroke-width:0.5;stroke-dasharray:5.0,5.0;" x1="1806" x2="1806" y1="127.8633" y2="1211.7578"/><line style="stroke:#181818;stroke-width:0.5;stroke-dasharray:5.0,5.0;" x1="1949" x2="1949" y1="127.8633" y2="1211.7578"/><line style="stroke:#181818;stroke-width:0.5;stroke-dasharray:5.0,5.0;" x1="2099" x2="2099" y1="127.8633" y2="1211.7578"/><line style="stroke:#181818;stroke-width:0.5;stroke-dasharray:5.0,5.0;" x1="2266" x2="2266" y1="127.8633" y2="1211.7578"/><text fill="#000000" font-family="sans-serif" font-size="14" lengthAdjust="spacing" textLength="39" x="5" y="124.3496">Admin</text><ellipse cx="27.5" cy="57.7422" fill="#E2E2F0" rx="8" ry="8" style="stroke:#181818;stroke-width:0.5;"/><path d="M27.5,65.7422 L27.5,92.7422 M14.5,73.7422 L40.5,73.7422 M27.5,92.7422 L14.5,107.7422 M27.5,92.7422 L40.5,107.7422 " fill="none" style="stroke:#181818;stroke-width:0.5;"/><text fill="#000000" font-family="sans-serif" font-size="14" lengthAdjust="spacing" textLength="39" x="5" y="1225.8652">Admin</text><ellipse cx="27.5" cy="1237.8789" fill="#E2E2F0" rx="8" ry="8" style="stroke:#181818;stroke-width:0.5;"/><path d="M27.5,1245.8789 L27.5,1272.8789 M14.5,1253.8789 L40.5,1253.8789 M27.5,1272.8789 L14.5,1287.8789 M27.5,1272.8789 L40.5,1287.8789 " fill="none" style="stroke:#181818;stroke-width:0.5;"/><rect fill="#E2E2F0" height="51.2422" rx="2.5" ry="2.5" style="stroke:#181818;stroke-width:0.5;" width="193" x="255" y="75.6211"/><text fill="#000000" font-family="sans-serif" font-size="14" font-style="italic" lengthAdjust="spacing" textLength="95" x="304" y="97.7285">&#171;presentation&#187;</text><text fill="#000000" font-family="sans-serif" font-size="14" lengthAdjust="spacing" textLength="179" x="262" y="116.3496">DisplayJobApplicationDataUI</text><rect fill="#E2E2F0" height="51.2422" rx="2.5" ry="2.5" style="stroke:#181818;stroke-width:0.5;" width="193" x="255" y="1210.7578"/><text fill="#000000" font-family="sans-serif" font-size="14" font-style="italic" lengthAdjust="spacing" textLength="95" x="304" y="1232.8652">&#171;presentation&#187;</text><text fill="#000000" font-family="sans-serif" font-size="14" lengthAdjust="spacing" textLength="179" x="262" y="1251.4863">DisplayJobApplicationDataUI</text><rect fill="#E2E2F0" height="51.2422" rx="2.5" ry="2.5" style="stroke:#181818;stroke-width:0.5;" width="243" x="504" y="75.6211"/><text fill="#000000" font-family="sans-serif" font-size="14" font-style="italic" lengthAdjust="spacing" textLength="84" x="583.5" y="97.7285">&#171;application&#187;</text><text fill="#000000" font-family="sans-serif" font-size="14" lengthAdjust="spacing" textLength="229" x="511" y="116.3496">DisplayJobApplicationDataController</text><rect fill="#E2E2F0" height="51.2422" rx="2.5" ry="2.5" style="stroke:#181818;stroke-width:0.5;" width="243" x="504" y="1210.7578"/><text fill="#000000" font-family="sans-serif" font-size="14" font-style="italic" lengthAdjust="spacing" textLength="84" x="583.5" y="1232.8652">&#171;application&#187;</text><text fill="#000000" font-family="sans-serif" font-size="14" lengthAdjust="spacing" textLength="229" x="511" y="1251.4863">DisplayJobApplicationDataController</text><rect fill="#E2E2F0" height="51.2422" rx="2.5" ry="2.5" style="stroke:#181818;stroke-width:0.5;" width="143" x="1009" y="75.6211"/><text fill="#000000" font-family="sans-serif" font-size="14" font-style="italic" lengthAdjust="spacing" textLength="60" x="1050.5" y="97.7285">&#171;service&#187;</text><text fill="#000000" font-family="sans-serif" font-size="14" lengthAdjust="spacing" textLength="129" x="1016" y="116.3496">AuthorizationService</text><rect fill="#E2E2F0" height="51.2422" rx="2.5" ry="2.5" style="stroke:#181818;stroke-width:0.5;" width="143" x="1009" y="1210.7578"/><text fill="#000000" font-family="sans-serif" font-size="14" font-style="italic" lengthAdjust="spacing" textLength="60" x="1050.5" y="1232.8652">&#171;service&#187;</text><text fill="#000000" font-family="sans-serif" font-size="14" lengthAdjust="spacing" textLength="129" x="1016" y="1251.4863">AuthorizationService</text><rect fill="#E2E2F0" height="51.2422" rx="2.5" ry="2.5" style="stroke:#181818;stroke-width:0.5;" width="93" x="1162" y="75.6211"/><text fill="#000000" font-family="sans-serif" font-size="14" font-style="italic" lengthAdjust="spacing" textLength="66" x="1175.5" y="97.7285">&#171;Session&#187;</text><text fill="#000000" font-family="sans-serif" font-size="14" lengthAdjust="spacing" textLength="79" x="1169" y="116.3496">UserSession</text><rect fill="#E2E2F0" height="51.2422" rx="2.5" ry="2.5" style="stroke:#181818;stroke-width:0.5;" width="93" x="1162" y="1210.7578"/><text fill="#000000" font-family="sans-serif" font-size="14" font-style="italic" lengthAdjust="spacing" textLength="66" x="1175.5" y="1232.8652">&#171;Session&#187;</text><text fill="#000000" font-family="sans-serif" font-size="14" lengthAdjust="spacing" textLength="79" x="1169" y="1251.4863">UserSession</text><rect fill="#E2E2F0" height="51.2422" rx="2.5" ry="2.5" style="stroke:#181818;stroke-width:0.5;" width="219" x="1265" y="75.6211"/><text fill="#000000" font-family="sans-serif" font-size="14" font-style="italic" lengthAdjust="spacing" textLength="60" x="1344.5" y="97.7285">&#171;service&#187;</text><text fill="#000000" font-family="sans-serif" font-size="14" lengthAdjust="spacing" textLength="205" x="1272" y="116.3496">JobOpeningManagementService</text><rect fill="#E2E2F0" height="51.2422" rx="2.5" ry="2.5" style="stroke:#181818;stroke-width:0.5;" width="219" x="1265" y="1210.7578"/><text fill="#000000" font-family="sans-serif" font-size="14" font-style="italic" lengthAdjust="spacing" textLength="60" x="1344.5" y="1232.8652">&#171;service&#187;</text><text fill="#000000" font-family="sans-serif" font-size="14" lengthAdjust="spacing" textLength="205" x="1272" y="1251.4863">JobOpeningManagementService</text><rect fill="#E2E2F0" height="51.2422" rx="2.5" ry="2.5" style="stroke:#181818;stroke-width:0.5;" width="234" x="1494" y="75.6211"/><text fill="#000000" font-family="sans-serif" font-size="14" font-style="italic" lengthAdjust="spacing" textLength="60" x="1581" y="97.7285">&#171;service&#187;</text><text fill="#000000" font-family="sans-serif" font-size="14" lengthAdjust="spacing" textLength="220" x="1501" y="116.3496">JobApplicationManagementService</text><rect fill="#E2E2F0" height="51.2422" rx="2.5" ry="2.5" style="stroke:#181818;stroke-width:0.5;" width="234" x="1494" y="1210.7578"/><text fill="#000000" font-family="sans-serif" font-size="14" font-style="italic" lengthAdjust="spacing" textLength="60" x="1581" y="1232.8652">&#171;service&#187;</text><text fill="#000000" font-family="sans-serif" font-size="14" lengthAdjust="spacing" textLength="220" x="1501" y="1251.4863">JobApplicationManagementService</text><rect fill="#E2E2F0" height="51.2422" rx="2.5" ry="2.5" style="stroke:#181818;stroke-width:0.5;" width="136" x="1738" y="75.6211"/><text fill="#000000" font-family="sans-serif" font-size="14" font-style="italic" lengthAdjust="spacing" textLength="89" x="1761.5" y="97.7285">&#171;persistence&#187;</text><text fill="#000000" font-family="sans-serif" font-size="14" lengthAdjust="spacing" textLength="122" x="1745" y="116.3496">PersistenceContext</text><rect fill="#E2E2F0" height="51.2422" rx="2.5" ry="2.5" style="stroke:#181818;stroke-width:0.5;" width="136" x="1738" y="1210.7578"/><text fill="#000000" font-family="sans-serif" font-size="14" font-style="italic" lengthAdjust="spacing" textLength="89" x="1761.5" y="1232.8652">&#171;persistence&#187;</text><text fill="#000000" font-family="sans-serif" font-size="14" lengthAdjust="spacing" textLength="122" x="1745" y="1251.4863">PersistenceContext</text><rect fill="#E2E2F0" height="51.2422" rx="2.5" ry="2.5" style="stroke:#181818;stroke-width:0.5;" width="130" x="1884" y="75.6211"/><text fill="#000000" font-family="sans-serif" font-size="14" font-style="italic" lengthAdjust="spacing" textLength="59" x="1919.5" y="97.7285">&#171;factory&#187;</text><text fill="#000000" font-family="sans-serif" font-size="14" lengthAdjust="spacing" textLength="116" x="1891" y="116.3496">RepositoryFactory</text><rect fill="#E2E2F0" height="51.2422" rx="2.5" ry="2.5" style="stroke:#181818;stroke-width:0.5;" width="130" x="1884" y="1210.7578"/><text fill="#000000" font-family="sans-serif" font-size="14" font-style="italic" lengthAdjust="spacing" textLength="59" x="1919.5" y="1232.8652">&#171;factory&#187;</text><text fill="#000000" font-family="sans-serif" font-size="14" lengthAdjust="spacing" textLength="116" x="1891" y="1251.4863">RepositoryFactory</text><text fill="#000000" font-family="sans-serif" font-size="14" font-style="italic" lengthAdjust="spacing" textLength="79" x="2056.5" y="105.7285">&#171;repository&#187;</text><text fill="#000000" font-family="sans-serif" font-size="14" lengthAdjust="spacing" textLength="144" x="2024" y="124.3496">JobOpeningRepository</text><path d="M2081,54.6211 C2081,44.6211 2099,44.6211 2099,44.6211 C2099,44.6211 2117,44.6211 2117,54.6211 L2117,80.6211 C2117,90.6211 2099,90.6211 2099,90.6211 C2099,90.6211 2081,90.6211 2081,80.6211 L2081,54.6211 " fill="#E2E2F0" style="stroke:#181818;stroke-width:1.5;"/><path d="M2081,54.6211 C2081,64.6211 2099,64.6211 2099,64.6211 C2099,64.6211 2117,64.6211 2117,54.6211 " fill="none" style="stroke:#181818;stroke-width:1.5;"/><text fill="#000000" font-family="sans-serif" font-size="14" font-style="italic" lengthAdjust="spacing" textLength="79" x="2056.5" y="1225.8652">&#171;repository&#187;</text><text fill="#000000" font-family="sans-serif" font-size="14" lengthAdjust="spacing" textLength="144" x="2024" y="1244.4863">JobOpeningRepository</text><path d="M2081,1258 C2081,1248 2099,1248 2099,1248 C2099,1248 2117,1248 2117,1258 L2117,1284 C2117,1294 2099,1294 2099,1294 C2099,1294 2081,1294 2081,1284 L2081,1258 " fill="#E2E2F0" style="stroke:#181818;stroke-width:1.5;"/><path d="M2081,1258 C2081,1268 2099,1268 2099,1268 C2099,1268 2117,1268 2117,1258 " fill="none" style="stroke:#181818;stroke-width:1.5;"/><text fill="#000000" font-family="sans-serif" font-size="14" font-style="italic" lengthAdjust="spacing" textLength="79" x="2224" y="105.7285">&#171;repository&#187;</text><text fill="#000000" font-family="sans-serif" font-size="14" lengthAdjust="spacing" textLength="159" x="2184" y="124.3496">JobApplicationRepository</text><path d="M2248.5,54.6211 C2248.5,44.6211 2266.5,44.6211 2266.5,44.6211 C2266.5,44.6211 2284.5,44.6211 2284.5,54.6211 L2284.5,80.6211 C2284.5,90.6211 2266.5,90.6211 2266.5,90.6211 C2266.5,90.6211 2248.5,90.6211 2248.5,80.6211 L2248.5,54.6211 " fill="#E2E2F0" style="stroke:#181818;stroke-width:1.5;"/><path d="M2248.5,54.6211 C2248.5,64.6211 2266.5,64.6211 2266.5,64.6211 C2266.5,64.6211 2284.5,64.6211 2284.5,54.6211 " fill="none" style="stroke:#181818;stroke-width:1.5;"/><text fill="#000000" font-family="sans-serif" font-size="14" font-style="italic" lengthAdjust="spacing" textLength="79" x="2224" y="1225.8652">&#171;repository&#187;</text><text fill="#000000" font-family="sans-serif" font-size="14" lengthAdjust="spacing" textLength="159" x="2184" y="1244.4863">JobApplicationRepository</text><path d="M2248.5,1258 C2248.5,1248 2266.5,1248 2266.5,1248 C2266.5,1248 2284.5,1248 2284.5,1258 L2284.5,1284 C2284.5,1294 2266.5,1294 2266.5,1294 C2266.5,1294 2248.5,1294 2248.5,1284 L2248.5,1258 " fill="#E2E2F0" style="stroke:#181818;stroke-width:1.5;"/><path d="M2248.5,1258 C2248.5,1268 2266.5,1268 2266.5,1268 C2266.5,1268 2284.5,1268 2284.5,1258 " fill="none" style="stroke:#181818;stroke-width:1.5;"/><rect fill="#FFFFFF" height="1032.6035" style="stroke:#181818;stroke-width:1.0;" width="10" x="346.5" y="161.1543"/><rect fill="#FFFFFF" height="594.5293" style="stroke:#181818;stroke-width:1.0;" width="10" x="620.5" y="223.7363"/><rect fill="#FFFFFF" height="187.7461" style="stroke:#181818;stroke-width:1.0;" width="10" x="620.5" y="912.1387"/><rect fill="#FFFFFF" height="93.873" style="stroke:#181818;stroke-width:1.0;" width="10" x="1075.5" y="286.3184"/><rect fill="#FFFFFF" height="31.291" style="stroke:#181818;stroke-width:1.0;" width="10" x="1203.5" y="411.4824"/><rect fill="#FFFFFF" height="281.6191" style="stroke:#181818;stroke-width:1.0;" width="10" x="1369.5" y="505.3555"/><rect fill="#FFFFFF" height="93.873" style="stroke:#181818;stroke-width:1.0;" width="10" x="1606" y="974.7207"/><rect fill="#FFFFFF" height="62.582" style="stroke:#181818;stroke-width:1.0;" width="10" x="1801" y="536.6465"/><rect fill="#FFFFFF" height="62.582" style="stroke:#181818;stroke-width:1.0;" width="10" x="1944" y="630.5195"/><rect fill="#FFFFFF" height="31.291" style="stroke:#181818;stroke-width:1.0;" width="10" x="2094" y="724.3926"/><rect fill="#FFFFFF" height="31.291" style="stroke:#181818;stroke-width:1.0;" width="10" x="2261.5" y="1006.0117"/><polygon fill="#181818" points="334.5,157.1543,344.5,161.1543,334.5,165.1543,338.5,161.1543" style="stroke:#181818;stroke-width:1.0;"/><line style="stroke:#181818;stroke-width:1.0;stroke-dasharray:2.0,2.0;" x1="27.5" x2="340.5" y1="161.1543" y2="161.1543"/><text fill="#000000" font-family="sans-serif" font-size="13" lengthAdjust="spacing" textLength="209" x="34.5" y="155.8916">Display all the data of an application</text><polygon fill="#181818" points="613.5,188.4453,623.5,192.4453,613.5,196.4453,617.5,192.4453" style="stroke:#181818;stroke-width:1.0;"/><line style="stroke:#181818;stroke-width:1.0;" x1="356.5" x2="619.5" y1="192.4453" y2="192.4453"/><text fill="#000000" font-family="sans-serif" font-size="13" lengthAdjust="spacing" textLength="44" x="363.5" y="187.1826">create()</text><polygon fill="#181818" points="608.5,219.7363,618.5,223.7363,608.5,227.7363,612.5,223.7363" style="stroke:#181818;stroke-width:1.0;"/><line style="stroke:#181818;stroke-width:1.0;" x1="356.5" x2="614.5" y1="223.7363" y2="223.7363"/><text fill="#000000" font-family="sans-serif" font-size="13" lengthAdjust="spacing" textLength="80" x="363.5" y="218.4736">jobOpenings()</text><polygon fill="#181818" points="1068.5,251.0273,1078.5,255.0273,1068.5,259.0273,1072.5,255.0273" style="stroke:#181818;stroke-width:1.0;"/><line style="stroke:#181818;stroke-width:1.0;" x1="630.5" x2="1074.5" y1="255.0273" y2="255.0273"/><text fill="#000000" font-family="sans-serif" font-size="13" lengthAdjust="spacing" textLength="44" x="637.5" y="249.7646">create()</text><polygon fill="#181818" points="1063.5,282.3184,1073.5,286.3184,1063.5,290.3184,1067.5,286.3184" style="stroke:#181818;stroke-width:1.0;"/><line style="stroke:#181818;stroke-width:1.0;" x1="630.5" x2="1069.5" y1="286.3184" y2="286.3184"/><text fill="#000000" font-family="sans-serif" font-size="13" lengthAdjust="spacing" textLength="426" x="637.5" y="281.0557">ensureAuthenticatedUserHasAnyOf(BaseRoles.CUSTOMER_MANAGER)</text><polygon fill="#181818" points="1196.5,313.6094,1206.5,317.6094,1196.5,321.6094,1200.5,317.6094" style="stroke:#181818;stroke-width:1.0;"/><line style="stroke:#181818;stroke-width:1.0;" x1="1085.5" x2="1202.5" y1="317.6094" y2="317.6094"/><text fill="#000000" font-family="sans-serif" font-size="13" lengthAdjust="spacing" textLength="44" x="1092.5" y="312.3467">create()</text><polygon fill="#181818" points="1063.5,344.9004,1073.5,348.9004,1063.5,352.9004,1067.5,348.9004" style="stroke:#181818;stroke-width:1.0;"/><line style="stroke:#181818;stroke-width:1.0;" x1="630.5" x2="1069.5" y1="348.9004" y2="348.9004"/><text fill="#000000" font-family="sans-serif" font-size="13" lengthAdjust="spacing" textLength="53" x="637.5" y="343.6377">session()</text><polygon fill="#181818" points="641.5,376.1914,631.5,380.1914,641.5,384.1914,637.5,380.1914" style="stroke:#181818;stroke-width:1.0;"/><line style="stroke:#181818;stroke-width:1.0;" x1="635.5" x2="1079.5" y1="380.1914" y2="380.1914"/><text fill="#000000" font-family="sans-serif" font-size="13" lengthAdjust="spacing" textLength="45" x="647.5" y="374.9287">session</text><polygon fill="#181818" points="1191.5,407.4824,1201.5,411.4824,1191.5,415.4824,1195.5,411.4824" style="stroke:#181818;stroke-width:1.0;"/><line style="stroke:#181818;stroke-width:1.0;" x1="630.5" x2="1197.5" y1="411.4824" y2="411.4824"/><text fill="#000000" font-family="sans-serif" font-size="13" lengthAdjust="spacing" textLength="113" x="637.5" y="406.2197">authenticatedUser()</text><polygon fill="#181818" points="641.5,438.7734,631.5,442.7734,641.5,446.7734,637.5,442.7734" style="stroke:#181818;stroke-width:1.0;"/><line style="stroke:#181818;stroke-width:1.0;" x1="635.5" x2="1207.5" y1="442.7734" y2="442.7734"/><text fill="#000000" font-family="sans-serif" font-size="13" lengthAdjust="spacing" textLength="25" x="647.5" y="437.5107">user</text><polygon fill="#181818" points="1362.5,470.0645,1372.5,474.0645,1362.5,478.0645,1366.5,474.0645" style="stroke:#181818;stroke-width:1.0;"/><line style="stroke:#181818;stroke-width:1.0;" x1="630.5" x2="1368.5" y1="474.0645" y2="474.0645"/><text fill="#000000" font-family="sans-serif" font-size="13" lengthAdjust="spacing" textLength="44" x="637.5" y="468.8018">create()</text><polygon fill="#181818" points="1357.5,501.3555,1367.5,505.3555,1357.5,509.3555,1361.5,505.3555" style="stroke:#181818;stroke-width:1.0;"/><line style="stroke:#181818;stroke-width:1.0;" x1="630.5" x2="1363.5" y1="505.3555" y2="505.3555"/><text fill="#000000" font-family="sans-serif" font-size="13" lengthAdjust="spacing" textLength="43" x="637.5" y="500.0928">findAll()</text><polygon fill="#181818" points="1789,532.6465,1799,536.6465,1789,540.6465,1793,536.6465" style="stroke:#181818;stroke-width:1.0;"/><line style="stroke:#181818;stroke-width:1.0;" x1="1379.5" x2="1795" y1="536.6465" y2="536.6465"/><text fill="#000000" font-family="sans-serif" font-size="13" lengthAdjust="spacing" textLength="75" x="1386.5" y="531.3838">repositories()</text><polygon fill="#181818" points="1937,563.9375,1947,567.9375,1937,571.9375,1941,567.9375" style="stroke:#181818;stroke-width:1.0;"/><line style="stroke:#181818;stroke-width:1.0;" x1="1811" x2="1943" y1="567.9375" y2="567.9375"/><text fill="#000000" font-family="sans-serif" font-size="13" lengthAdjust="spacing" textLength="44" x="1818" y="562.6748">create()</text><polygon fill="#181818" points="1390.5,595.2285,1380.5,599.2285,1390.5,603.2285,1386.5,599.2285" style="stroke:#181818;stroke-width:1.0;"/><line style="stroke:#181818;stroke-width:1.0;" x1="1384.5" x2="1805" y1="599.2285" y2="599.2285"/><text fill="#000000" font-family="sans-serif" font-size="13" lengthAdjust="spacing" textLength="39" x="1396.5" y="593.9658">factory</text><polygon fill="#181818" points="1932,626.5195,1942,630.5195,1932,634.5195,1936,630.5195" style="stroke:#181818;stroke-width:1.0;"/><line style="stroke:#181818;stroke-width:1.0;" x1="1379.5" x2="1938" y1="630.5195" y2="630.5195"/><text fill="#000000" font-family="sans-serif" font-size="13" lengthAdjust="spacing" textLength="80" x="1386.5" y="625.2568">jobOpenings()</text><polygon fill="#181818" points="2087,657.8105,2097,661.8105,2087,665.8105,2091,661.8105" style="stroke:#181818;stroke-width:1.0;"/><line style="stroke:#181818;stroke-width:1.0;" x1="1954" x2="2093" y1="661.8105" y2="661.8105"/><text fill="#000000" font-family="sans-serif" font-size="13" lengthAdjust="spacing" textLength="44" x="1961" y="656.5479">create()</text><polygon fill="#181818" points="1390.5,689.1016,1380.5,693.1016,1390.5,697.1016,1386.5,693.1016" style="stroke:#181818;stroke-width:1.0;"/><line style="stroke:#181818;stroke-width:1.0;" x1="1384.5" x2="1948" y1="693.1016" y2="693.1016"/><text fill="#000000" font-family="sans-serif" font-size="13" lengthAdjust="spacing" textLength="127" x="1396.5" y="687.8389">jobOpeningRepository</text><polygon fill="#181818" points="2082,720.3926,2092,724.3926,2082,728.3926,2086,724.3926" style="stroke:#181818;stroke-width:1.0;"/><line style="stroke:#181818;stroke-width:1.0;" x1="1379.5" x2="2088" y1="724.3926" y2="724.3926"/><text fill="#000000" font-family="sans-serif" font-size="13" lengthAdjust="spacing" textLength="78" x="1386.5" y="719.1299">findAllActive()</text><polygon fill="#181818" points="1390.5,751.6836,1380.5,755.6836,1390.5,759.6836,1386.5,755.6836" style="stroke:#181818;stroke-width:1.0;"/><line style="stroke:#181818;stroke-width:1.0;" x1="1384.5" x2="2098" y1="755.6836" y2="755.6836"/><text fill="#000000" font-family="sans-serif" font-size="13" lengthAdjust="spacing" textLength="72" x="1396.5" y="750.4209">jobOpenings</text><polygon fill="#181818" points="641.5,782.9746,631.5,786.9746,641.5,790.9746,637.5,786.9746" style="stroke:#181818;stroke-width:1.0;"/><line style="stroke:#181818;stroke-width:1.0;" x1="635.5" x2="1373.5" y1="786.9746" y2="786.9746"/><text fill="#000000" font-family="sans-serif" font-size="13" lengthAdjust="spacing" textLength="72" x="647.5" y="781.7119">jobOpenings</text><polygon fill="#181818" points="367.5,814.2656,357.5,818.2656,367.5,822.2656,363.5,818.2656" style="stroke:#181818;stroke-width:1.0;"/><line style="stroke:#181818;stroke-width:1.0;" x1="361.5" x2="624.5" y1="818.2656" y2="818.2656"/><text fill="#000000" font-family="sans-serif" font-size="13" lengthAdjust="spacing" textLength="72" x="373.5" y="813.0029">jobOpenings</text><polygon fill="#181818" points="38.5,845.5566,28.5,849.5566,38.5,853.5566,34.5,849.5566" style="stroke:#181818;stroke-width:1.0;"/><line style="stroke:#181818;stroke-width:1.0;" x1="32.5" x2="345.5" y1="849.5566" y2="849.5566"/><text fill="#000000" font-family="sans-serif" font-size="13" lengthAdjust="spacing" textLength="295" x="44.5" y="844.2939">Display all job openings and ask user to select one</text><polygon fill="#181818" points="334.5,876.8477,344.5,880.8477,334.5,884.8477,338.5,880.8477" style="stroke:#181818;stroke-width:1.0;"/><line style="stroke:#181818;stroke-width:1.0;" x1="27.5" x2="340.5" y1="880.8477" y2="880.8477"/><text fill="#000000" font-family="sans-serif" font-size="13" lengthAdjust="spacing" textLength="114" x="34.5" y="875.585">Choose job opening</text><polygon fill="#181818" points="608.5,908.1387,618.5,912.1387,608.5,916.1387,612.5,912.1387" style="stroke:#181818;stroke-width:1.0;"/><line style="stroke:#181818;stroke-width:1.0;" x1="356.5" x2="614.5" y1="912.1387" y2="912.1387"/><text fill="#000000" font-family="sans-serif" font-size="13" lengthAdjust="spacing" textLength="245" x="363.5" y="906.876">jobApplicationsByJobOpening(jobOpening)</text><polygon fill="#181818" points="1599,939.4297,1609,943.4297,1599,947.4297,1603,943.4297" style="stroke:#181818;stroke-width:1.0;"/><line style="stroke:#181818;stroke-width:1.0;" x1="630.5" x2="1605" y1="943.4297" y2="943.4297"/><text fill="#000000" font-family="sans-serif" font-size="13" lengthAdjust="spacing" textLength="44" x="637.5" y="938.167">create()</text><polygon fill="#181818" points="1594,970.7207,1604,974.7207,1594,978.7207,1598,974.7207" style="stroke:#181818;stroke-width:1.0;"/><line style="stroke:#181818;stroke-width:1.0;" x1="630.5" x2="1600" y1="974.7207" y2="974.7207"/><text fill="#000000" font-family="sans-serif" font-size="13" lengthAdjust="spacing" textLength="174" x="637.5" y="969.458">jobApplicationsOf(jobOpening)</text><polygon fill="#181818" points="2249.5,1002.0117,2259.5,1006.0117,2249.5,1010.0117,2253.5,1006.0117" style="stroke:#181818;stroke-width:1.0;"/><line style="stroke:#181818;stroke-width:1.0;" x1="1616" x2="2255.5" y1="1006.0117" y2="1006.0117"/><text fill="#000000" font-family="sans-serif" font-size="13" lengthAdjust="spacing" textLength="226" x="1623" y="1000.749">applicationsByJobOpening(jobOpening)</text><polygon fill="#181818" points="1627,1033.3027,1617,1037.3027,1627,1041.3027,1623,1037.3027" style="stroke:#181818;stroke-width:1.0;"/><line style="stroke:#181818;stroke-width:1.0;" x1="1621" x2="2265.5" y1="1037.3027" y2="1037.3027"/><text fill="#000000" font-family="sans-serif" font-size="13" lengthAdjust="spacing" textLength="88" x="1633" y="1032.04">jobApplications</text><polygon fill="#181818" points="641.5,1064.5938,631.5,1068.5938,641.5,1072.5938,637.5,1068.5938" style="stroke:#181818;stroke-width:1.0;"/><line style="stroke:#181818;stroke-width:1.0;" x1="635.5" x2="1610" y1="1068.5938" y2="1068.5938"/><text fill="#000000" font-family="sans-serif" font-size="13" lengthAdjust="spacing" textLength="88" x="647.5" y="1063.3311">jobApplications</text><polygon fill="#181818" points="367.5,1095.8848,357.5,1099.8848,367.5,1103.8848,363.5,1099.8848" style="stroke:#181818;stroke-width:1.0;"/><line style="stroke:#181818;stroke-width:1.0;" x1="361.5" x2="624.5" y1="1099.8848" y2="1099.8848"/><text fill="#000000" font-family="sans-serif" font-size="13" lengthAdjust="spacing" textLength="88" x="373.5" y="1094.6221">jobApplications</text><polygon fill="#181818" points="38.5,1127.1758,28.5,1131.1758,38.5,1135.1758,34.5,1131.1758" style="stroke:#181818;stroke-width:1.0;"/><line style="stroke:#181818;stroke-width:1.0;" x1="32.5" x2="345.5" y1="1131.1758" y2="1131.1758"/><text fill="#000000" font-family="sans-serif" font-size="13" lengthAdjust="spacing" textLength="289" x="44.5" y="1125.9131">Show job applications for the selected job opening</text><polygon fill="#181818" points="334.5,1158.4668,344.5,1162.4668,334.5,1166.4668,338.5,1162.4668" style="stroke:#181818;stroke-width:1.0;"/><line style="stroke:#181818;stroke-width:1.0;" x1="27.5" x2="340.5" y1="1162.4668" y2="1162.4668"/><text fill="#000000" font-family="sans-serif" font-size="13" lengthAdjust="spacing" textLength="131" x="34.5" y="1157.2041">Choose job application</text><polygon fill="#181818" points="38.5,1189.7578,28.5,1193.7578,38.5,1197.7578,34.5,1193.7578" style="stroke:#181818;stroke-width:1.0;"/><line style="stroke:#181818;stroke-width:1.0;" x1="32.5" x2="350.5" y1="1193.7578" y2="1193.7578"/><text fill="#000000" font-family="sans-serif" font-size="13" lengthAdjust="spacing" textLength="266" x="44.5" y="1188.4951">Display all the data of the selected application</text><!--SRC=[bLRBRjim4BphAtXq3YvY5EZ1408eJjgcG9h2giy58wrj9ZIfYdHIvUkx5FLOqPQGv128uipia1okR9w5AdZ93wpWsJFVGMeh2Qo4p7Aran2P3c3sFDUlGktObaj3PwHGOAi2MA5bvGOHcSmaDoQnjXIFHmjtcLQfU0Ds6KLMM2oLmjyZg0pOZU0xHvYbDnTipZQhoyzVeeXdLfSioGz2CMvOueOHAbkHYO8hYpHJI5xzq8z9KKYHSIkqkk6MR-uS0V_7SL620MNhgQkhzz5NMjbIImcbao6ZEEOzCb1BZdQlI_5MpwLGlWXScBEDxz-GQVohWBN1roaOWnm7RX_Zk7aAuEZreG259t7F5HxP0PT6QhMFOzM6IvsIM8ng_8BI26FTkRcTWN_MqSXRj-dzA62leT16u45MN-lZhHovVOpZhNz2KexdyCWDa2NtN4SYepWkkq509SiTeoz2VbGdZStdLnYXPHiJngLaTW_CoJEzPHnFh5TtQHKlt09oeeZX7yOF5VhqB5bM0W9c5sFpJzrI3O8SfXFjOPvCGeaYTSP2_RCGKEPOWXlWiJlhaBi8VkScKTN3TdQD-xRM4iodrIRz_N1_k_vpd_nCljsk0qErdY_a4uurcio-mmXRCkF1BQWJ8UWEL2DoE5TyADxUdoNZuHB37MsWNgNbXVMFI0oB3uXX-Vh6J6z01zeAbITIdXghvrjZ_cOYZron9Ui2A-0aAmJeHUZbHA7ckeKk0rHlqyF3RJYfGgns5IOItM0yj-q0oEqlPcYGW3fpJsUwG-XqK8cuf9MQiqWS1qAhHBgU89tal1SJMWWLY8kH1d2QEfAAOQ1SavfWXgt3zvswnmsR6semtOXWTyknJJxNDu1PZJTHuWy3fbLZeUcHllfghpNsMo8mqU98IpRNLT_UP_qQFjJysY_MksxTuiG2DhtHmYrfS6YBONPGaNzuHOGUHcenwNOyM6TCJcpyIBmM4_cQeazcBDthrpeRT9_O5kFZFgS-M92VfcSiOlIhEvre-haUr1f8a7NWj_i_]--></g></svg>