<?xml version="1.0" encoding="us-ascii" standalone="no"?><svg xmlns="http://www.w3.org/2000/svg" xmlns:xlink="http://www.w3.org/1999/xlink" contentStyleType="text/css" height="1014px" preserveAspectRatio="none" style="width:1045px;height:1014px;background:#FFFFFF;" version="1.1" viewBox="0 0 1045 1014" width="1045px" zoomAndPan="magnify"><defs/><g><text fill="#000000" font-family="sans-serif" font-size="14" font-weight="bold" lengthAdjust="spacing" textLength="190" x="420.5" y="25.1074">Class Diagram (CD) - UC036</text><!--class DisplayJobApplicationDataUI--><g id="elem_DisplayJobApplicationDataUI"><rect codeLine="6" fill="#F1F1F1" height="85.2422" id="DisplayJobApplicationDataUI" rx="2.5" ry="2.5" style="stroke:#181818;stroke-width:0.5;" width="290" x="297" y="46.6211"/><ellipse cx="348.25" cy="62.6211" fill="#ADD1B2" rx="11" ry="11" style="stroke:#181818;stroke-width:1.0;"/><path d="M351.0156,58.4961 Q351.1719,58.2773 351.3594,58.168 Q351.5469,58.0586 351.7656,58.0586 Q352.1406,58.0586 352.375,58.3242 Q352.6094,58.5742 352.6094,59.1836 L352.6094,60.6367 Q352.6094,61.2461 352.375,61.5117 Q352.1406,61.7773 351.7656,61.7773 Q351.4219,61.7773 351.2188,61.5742 Q351.0156,61.3867 350.9063,60.8711 Q350.8594,60.5117 350.6719,60.3242 Q350.3438,59.9492 349.7344,59.7305 Q349.125,59.5117 348.5,59.5117 Q347.7344,59.5117 347.0938,59.8398 Q346.4688,60.168 345.9688,60.918 Q345.4844,61.668 345.4844,62.6992 L345.4844,63.793 Q345.4844,65.0273 346.375,65.8555 Q347.2656,66.668 348.8594,66.668 Q349.7969,66.668 350.4531,66.418 Q350.8438,66.2617 351.2656,65.8242 Q351.5313,65.5586 351.6719,65.4805 Q351.8281,65.4023 352.0313,65.4023 Q352.3594,65.4023 352.6094,65.668 Q352.875,65.918 352.875,66.2617 Q352.875,66.6055 352.5313,67.0117 Q352.0313,67.5898 351.2344,67.918 Q350.1563,68.3711 348.8594,68.3711 Q347.3438,68.3711 346.1406,67.7461 Q345.1563,67.2461 344.4688,66.1836 Q343.7813,65.1055 343.7813,63.8242 L343.7813,62.668 Q343.7813,61.3398 344.3906,60.1992 Q345.0156,59.043 346.1094,58.4336 Q347.2031,57.8086 348.4375,57.8086 Q349.1719,57.8086 349.8125,57.9805 Q350.4688,58.1367 351.0156,58.4961 Z " fill="#000000"/><text fill="#000000" font-family="sans-serif" font-size="14" lengthAdjust="spacing" textLength="179" x="368.75" y="68.418">DisplayJobApplicationDataUI</text><line style="stroke:#181818;stroke-width:0.5;" x1="298" x2="586" y1="78.6211" y2="78.6211"/><line style="stroke:#181818;stroke-width:0.5;" x1="298" x2="586" y1="86.6211" y2="86.6211"/><text fill="#000000" font-family="sans-serif" font-size="14" lengthAdjust="spacing" textLength="98" x="303" y="105.7285">+jobOpenings()</text><text fill="#000000" font-family="sans-serif" font-size="14" lengthAdjust="spacing" textLength="278" x="303" y="124.3496">+jobApplicationsByJobOpening(jobOpening)</text></g><!--class DisplayJobApplicationDataController--><g id="elem_DisplayJobApplicationDataController"><rect codeLine="11" fill="#F1F1F1" height="122.4844" id="DisplayJobApplicationDataController" rx="2.5" ry="2.5" style="stroke:#181818;stroke-width:0.5;" width="290" x="297" y="210.6211"/><ellipse cx="325.05" cy="226.6211" fill="#ADD1B2" rx="11" ry="11" style="stroke:#181818;stroke-width:1.0;"/><path d="M327.8156,222.4961 Q327.9719,222.2773 328.1594,222.168 Q328.3469,222.0586 328.5656,222.0586 Q328.9406,222.0586 329.175,222.3242 Q329.4094,222.5742 329.4094,223.1836 L329.4094,224.6367 Q329.4094,225.2461 329.175,225.5117 Q328.9406,225.7773 328.5656,225.7773 Q328.2219,225.7773 328.0188,225.5742 Q327.8156,225.3867 327.7063,224.8711 Q327.6594,224.5117 327.4719,224.3242 Q327.1438,223.9492 326.5344,223.7305 Q325.925,223.5117 325.3,223.5117 Q324.5344,223.5117 323.8938,223.8398 Q323.2688,224.168 322.7688,224.918 Q322.2844,225.668 322.2844,226.6992 L322.2844,227.793 Q322.2844,229.0273 323.175,229.8555 Q324.0656,230.668 325.6594,230.668 Q326.5969,230.668 327.2531,230.418 Q327.6438,230.2617 328.0656,229.8242 Q328.3313,229.5586 328.4719,229.4805 Q328.6281,229.4023 328.8313,229.4023 Q329.1594,229.4023 329.4094,229.668 Q329.675,229.918 329.675,230.2617 Q329.675,230.6055 329.3313,231.0117 Q328.8313,231.5898 328.0344,231.918 Q326.9563,232.3711 325.6594,232.3711 Q324.1438,232.3711 322.9406,231.7461 Q321.9563,231.2461 321.2688,230.1836 Q320.5813,229.1055 320.5813,227.8242 L320.5813,226.668 Q320.5813,225.3398 321.1906,224.1992 Q321.8156,223.043 322.9094,222.4336 Q324.0031,221.8086 325.2375,221.8086 Q325.9719,221.8086 326.6125,221.9805 Q327.2688,222.1367 327.8156,222.4961 Z " fill="#000000"/><text fill="#000000" font-family="sans-serif" font-size="14" lengthAdjust="spacing" textLength="229" x="341.95" y="232.418">DisplayJobApplicationDataController</text><line style="stroke:#181818;stroke-width:0.5;" x1="298" x2="586" y1="242.6211" y2="242.6211"/><line style="stroke:#181818;stroke-width:0.5;" x1="298" x2="586" y1="250.6211" y2="250.6211"/><text fill="#000000" font-family="sans-serif" font-size="14" lengthAdjust="spacing" textLength="98" x="303" y="269.7285">+jobOpenings()</text><text fill="#000000" font-family="sans-serif" font-size="14" lengthAdjust="spacing" textLength="278" x="303" y="288.3496">+jobApplicationsByJobOpening(jobOpening)</text><text fill="#000000" font-family="sans-serif" font-size="14" lengthAdjust="spacing" textLength="66" x="303" y="306.9707">+session()</text><text fill="#000000" font-family="sans-serif" font-size="14" lengthAdjust="spacing" textLength="133" x="303" y="325.5918">+authenticatedUser()</text></g><!--class AuthorizationService--><g id="elem_AuthorizationService"><rect codeLine="18" fill="#F1F1F1" height="66.6211" id="AuthorizationService" rx="2.5" ry="2.5" style="stroke:#181818;stroke-width:0.5;" width="284" x="7" y="439.1211"/><ellipse cx="80.25" cy="455.1211" fill="#ADD1B2" rx="11" ry="11" style="stroke:#181818;stroke-width:1.0;"/><path d="M83.0156,450.9961 Q83.1719,450.7773 83.3594,450.668 Q83.5469,450.5586 83.7656,450.5586 Q84.1406,450.5586 84.375,450.8242 Q84.6094,451.0742 84.6094,451.6836 L84.6094,453.1367 Q84.6094,453.7461 84.375,454.0117 Q84.1406,454.2773 83.7656,454.2773 Q83.4219,454.2773 83.2188,454.0742 Q83.0156,453.8867 82.9063,453.3711 Q82.8594,453.0117 82.6719,452.8242 Q82.3438,452.4492 81.7344,452.2305 Q81.125,452.0117 80.5,452.0117 Q79.7344,452.0117 79.0938,452.3398 Q78.4688,452.668 77.9688,453.418 Q77.4844,454.168 77.4844,455.1992 L77.4844,456.293 Q77.4844,457.5273 78.375,458.3555 Q79.2656,459.168 80.8594,459.168 Q81.7969,459.168 82.4531,458.918 Q82.8438,458.7617 83.2656,458.3242 Q83.5313,458.0586 83.6719,457.9805 Q83.8281,457.9023 84.0313,457.9023 Q84.3594,457.9023 84.6094,458.168 Q84.875,458.418 84.875,458.7617 Q84.875,459.1055 84.5313,459.5117 Q84.0313,460.0898 83.2344,460.418 Q82.1563,460.8711 80.8594,460.8711 Q79.3438,460.8711 78.1406,460.2461 Q77.1563,459.7461 76.4688,458.6836 Q75.7813,457.6055 75.7813,456.3242 L75.7813,455.168 Q75.7813,453.8398 76.3906,452.6992 Q77.0156,451.543 78.1094,450.9336 Q79.2031,450.3086 80.4375,450.3086 Q81.1719,450.3086 81.8125,450.4805 Q82.4688,450.6367 83.0156,450.9961 Z " fill="#000000"/><text fill="#000000" font-family="sans-serif" font-size="14" lengthAdjust="spacing" textLength="129" x="100.75" y="460.918">AuthorizationService</text><line style="stroke:#181818;stroke-width:0.5;" x1="8" x2="290" y1="471.1211" y2="471.1211"/><line style="stroke:#181818;stroke-width:0.5;" x1="8" x2="290" y1="479.1211" y2="479.1211"/><text fill="#000000" font-family="sans-serif" font-size="14" lengthAdjust="spacing" textLength="272" x="13" y="498.2285">+ensureAuthenticatedUserHasAnyOf(roles)</text></g><!--class UserSession--><g id="elem_UserSession"><rect codeLine="22" fill="#F1F1F1" height="66.6211" id="UserSession" rx="2.5" ry="2.5" style="stroke:#181818;stroke-width:0.5;" width="145" x="326.5" y="439.1211"/><ellipse cx="356.8" cy="455.1211" fill="#ADD1B2" rx="11" ry="11" style="stroke:#181818;stroke-width:1.0;"/><path d="M359.5656,450.9961 Q359.7219,450.7773 359.9094,450.668 Q360.0969,450.5586 360.3156,450.5586 Q360.6906,450.5586 360.925,450.8242 Q361.1594,451.0742 361.1594,451.6836 L361.1594,453.1367 Q361.1594,453.7461 360.925,454.0117 Q360.6906,454.2773 360.3156,454.2773 Q359.9719,454.2773 359.7688,454.0742 Q359.5656,453.8867 359.4563,453.3711 Q359.4094,453.0117 359.2219,452.8242 Q358.8938,452.4492 358.2844,452.2305 Q357.675,452.0117 357.05,452.0117 Q356.2844,452.0117 355.6438,452.3398 Q355.0188,452.668 354.5188,453.418 Q354.0344,454.168 354.0344,455.1992 L354.0344,456.293 Q354.0344,457.5273 354.925,458.3555 Q355.8156,459.168 357.4094,459.168 Q358.3469,459.168 359.0031,458.918 Q359.3938,458.7617 359.8156,458.3242 Q360.0813,458.0586 360.2219,457.9805 Q360.3781,457.9023 360.5813,457.9023 Q360.9094,457.9023 361.1594,458.168 Q361.425,458.418 361.425,458.7617 Q361.425,459.1055 361.0813,459.5117 Q360.5813,460.0898 359.7844,460.418 Q358.7063,460.8711 357.4094,460.8711 Q355.8938,460.8711 354.6906,460.2461 Q353.7063,459.7461 353.0188,458.6836 Q352.3313,457.6055 352.3313,456.3242 L352.3313,455.168 Q352.3313,453.8398 352.9406,452.6992 Q353.5656,451.543 354.6594,450.9336 Q355.7531,450.3086 356.9875,450.3086 Q357.7219,450.3086 358.3625,450.4805 Q359.0188,450.6367 359.5656,450.9961 Z " fill="#000000"/><text fill="#000000" font-family="sans-serif" font-size="14" lengthAdjust="spacing" textLength="79" x="374.2" y="460.918">UserSession</text><line style="stroke:#181818;stroke-width:0.5;" x1="327.5" x2="470.5" y1="471.1211" y2="471.1211"/><line style="stroke:#181818;stroke-width:0.5;" x1="327.5" x2="470.5" y1="479.1211" y2="479.1211"/><text fill="#000000" font-family="sans-serif" font-size="14" lengthAdjust="spacing" textLength="133" x="332.5" y="498.2285">+authenticatedUser()</text></g><!--class JobOpeningManagementService--><g id="elem_JobOpeningManagementService"><rect codeLine="26" fill="#F1F1F1" height="122.4844" id="JobOpeningManagementService" rx="2.5" ry="2.5" style="stroke:#181818;stroke-width:0.5;" width="237" x="506.5" y="411.6211"/><ellipse cx="521.5" cy="427.6211" fill="#ADD1B2" rx="11" ry="11" style="stroke:#181818;stroke-width:1.0;"/><path d="M524.2656,423.4961 Q524.4219,423.2773 524.6094,423.168 Q524.7969,423.0586 525.0156,423.0586 Q525.3906,423.0586 525.625,423.3242 Q525.8594,423.5742 525.8594,424.1836 L525.8594,425.6367 Q525.8594,426.2461 525.625,426.5117 Q525.3906,426.7773 525.0156,426.7773 Q524.6719,426.7773 524.4688,426.5742 Q524.2656,426.3867 524.1563,425.8711 Q524.1094,425.5117 523.9219,425.3242 Q523.5938,424.9492 522.9844,424.7305 Q522.375,424.5117 521.75,424.5117 Q520.9844,424.5117 520.3438,424.8398 Q519.7188,425.168 519.2188,425.918 Q518.7344,426.668 518.7344,427.6992 L518.7344,428.793 Q518.7344,430.0273 519.625,430.8555 Q520.5156,431.668 522.1094,431.668 Q523.0469,431.668 523.7031,431.418 Q524.0938,431.2617 524.5156,430.8242 Q524.7813,430.5586 524.9219,430.4805 Q525.0781,430.4023 525.2813,430.4023 Q525.6094,430.4023 525.8594,430.668 Q526.125,430.918 526.125,431.2617 Q526.125,431.6055 525.7813,432.0117 Q525.2813,432.5898 524.4844,432.918 Q523.4063,433.3711 522.1094,433.3711 Q520.5938,433.3711 519.3906,432.7461 Q518.4063,432.2461 517.7188,431.1836 Q517.0313,430.1055 517.0313,428.8242 L517.0313,427.668 Q517.0313,426.3398 517.6406,425.1992 Q518.2656,424.043 519.3594,423.4336 Q520.4531,422.8086 521.6875,422.8086 Q522.4219,422.8086 523.0625,422.9805 Q523.7188,423.1367 524.2656,423.4961 Z " fill="#000000"/><text fill="#000000" font-family="sans-serif" font-size="14" lengthAdjust="spacing" textLength="205" x="535.5" y="433.418">JobOpeningManagementService</text><line style="stroke:#181818;stroke-width:0.5;" x1="507.5" x2="742.5" y1="443.6211" y2="443.6211"/><line style="stroke:#181818;stroke-width:0.5;" x1="507.5" x2="742.5" y1="451.6211" y2="451.6211"/><text fill="#000000" font-family="sans-serif" font-size="14" lengthAdjust="spacing" textLength="56" x="512.5" y="470.7285">+findAll()</text><text fill="#000000" font-family="sans-serif" font-size="14" lengthAdjust="spacing" textLength="92" x="512.5" y="489.3496">+repositories()</text><text fill="#000000" font-family="sans-serif" font-size="14" lengthAdjust="spacing" textLength="61" x="512.5" y="507.9707">+factory()</text><text fill="#000000" font-family="sans-serif" font-size="14" lengthAdjust="spacing" textLength="159" x="512.5" y="526.5918">+jobOpeningRepository()</text></g><!--class JobApplicationManagementService--><g id="elem_JobApplicationManagementService"><rect codeLine="33" fill="#F1F1F1" height="66.6211" id="JobApplicationManagementService" rx="2.5" ry="2.5" style="stroke:#181818;stroke-width:0.5;" width="252" x="779" y="439.1211"/><ellipse cx="794" cy="455.1211" fill="#ADD1B2" rx="11" ry="11" style="stroke:#181818;stroke-width:1.0;"/><path d="M796.7656,450.9961 Q796.9219,450.7773 797.1094,450.668 Q797.2969,450.5586 797.5156,450.5586 Q797.8906,450.5586 798.125,450.8242 Q798.3594,451.0742 798.3594,451.6836 L798.3594,453.1367 Q798.3594,453.7461 798.125,454.0117 Q797.8906,454.2773 797.5156,454.2773 Q797.1719,454.2773 796.9688,454.0742 Q796.7656,453.8867 796.6563,453.3711 Q796.6094,453.0117 796.4219,452.8242 Q796.0938,452.4492 795.4844,452.2305 Q794.875,452.0117 794.25,452.0117 Q793.4844,452.0117 792.8438,452.3398 Q792.2188,452.668 791.7188,453.418 Q791.2344,454.168 791.2344,455.1992 L791.2344,456.293 Q791.2344,457.5273 792.125,458.3555 Q793.0156,459.168 794.6094,459.168 Q795.5469,459.168 796.2031,458.918 Q796.5938,458.7617 797.0156,458.3242 Q797.2813,458.0586 797.4219,457.9805 Q797.5781,457.9023 797.7813,457.9023 Q798.1094,457.9023 798.3594,458.168 Q798.625,458.418 798.625,458.7617 Q798.625,459.1055 798.2813,459.5117 Q797.7813,460.0898 796.9844,460.418 Q795.9063,460.8711 794.6094,460.8711 Q793.0938,460.8711 791.8906,460.2461 Q790.9063,459.7461 790.2188,458.6836 Q789.5313,457.6055 789.5313,456.3242 L789.5313,455.168 Q789.5313,453.8398 790.1406,452.6992 Q790.7656,451.543 791.8594,450.9336 Q792.9531,450.3086 794.1875,450.3086 Q794.9219,450.3086 795.5625,450.4805 Q796.2188,450.6367 796.7656,450.9961 Z " fill="#000000"/><text fill="#000000" font-family="sans-serif" font-size="14" lengthAdjust="spacing" textLength="220" x="808" y="460.918">JobApplicationManagementService</text><line style="stroke:#181818;stroke-width:0.5;" x1="780" x2="1030" y1="471.1211" y2="471.1211"/><line style="stroke:#181818;stroke-width:0.5;" x1="780" x2="1030" y1="479.1211" y2="479.1211"/><text fill="#000000" font-family="sans-serif" font-size="14" lengthAdjust="spacing" textLength="201" x="785" y="498.2285">+jobApplicationsOf(jobOpening)</text></g><!--class PersistenceContext--><g id="elem_PersistenceContext"><rect codeLine="37" fill="#F1F1F1" height="85.2422" id="PersistenceContext" rx="2.5" ry="2.5" style="stroke:#181818;stroke-width:0.5;" width="154" x="688" y="612.6211"/><ellipse cx="703" cy="628.6211" fill="#ADD1B2" rx="11" ry="11" style="stroke:#181818;stroke-width:1.0;"/><path d="M705.7656,624.4961 Q705.9219,624.2773 706.1094,624.168 Q706.2969,624.0586 706.5156,624.0586 Q706.8906,624.0586 707.125,624.3242 Q707.3594,624.5742 707.3594,625.1836 L707.3594,626.6367 Q707.3594,627.2461 707.125,627.5117 Q706.8906,627.7773 706.5156,627.7773 Q706.1719,627.7773 705.9688,627.5742 Q705.7656,627.3867 705.6563,626.8711 Q705.6094,626.5117 705.4219,626.3242 Q705.0938,625.9492 704.4844,625.7305 Q703.875,625.5117 703.25,625.5117 Q702.4844,625.5117 701.8438,625.8398 Q701.2188,626.168 700.7188,626.918 Q700.2344,627.668 700.2344,628.6992 L700.2344,629.793 Q700.2344,631.0273 701.125,631.8555 Q702.0156,632.668 703.6094,632.668 Q704.5469,632.668 705.2031,632.418 Q705.5938,632.2617 706.0156,631.8242 Q706.2813,631.5586 706.4219,631.4805 Q706.5781,631.4023 706.7813,631.4023 Q707.1094,631.4023 707.3594,631.668 Q707.625,631.918 707.625,632.2617 Q707.625,632.6055 707.2813,633.0117 Q706.7813,633.5898 705.9844,633.918 Q704.9063,634.3711 703.6094,634.3711 Q702.0938,634.3711 700.8906,633.7461 Q699.9063,633.2461 699.2188,632.1836 Q698.5313,631.1055 698.5313,629.8242 L698.5313,628.668 Q698.5313,627.3398 699.1406,626.1992 Q699.7656,625.043 700.8594,624.4336 Q701.9531,623.8086 703.1875,623.8086 Q703.9219,623.8086 704.5625,623.9805 Q705.2188,624.1367 705.7656,624.4961 Z " fill="#000000"/><text fill="#000000" font-family="sans-serif" font-size="14" lengthAdjust="spacing" textLength="122" x="717" y="634.418">PersistenceContext</text><line style="stroke:#181818;stroke-width:0.5;" x1="689" x2="841" y1="644.6211" y2="644.6211"/><line style="stroke:#181818;stroke-width:0.5;" x1="689" x2="841" y1="652.6211" y2="652.6211"/><text fill="#000000" font-family="sans-serif" font-size="14" lengthAdjust="spacing" textLength="92" x="694" y="671.7285">+repositories()</text><text fill="#000000" font-family="sans-serif" font-size="14" lengthAdjust="spacing" textLength="61" x="694" y="690.3496">+factory()</text></g><!--class RepositoryFactory--><g id="elem_RepositoryFactory"><rect codeLine="42" fill="#F1F1F1" height="85.2422" id="RepositoryFactory" rx="2.5" ry="2.5" style="stroke:#181818;stroke-width:0.5;" width="186" x="672" y="776.6211"/><ellipse cx="704.1" cy="792.6211" fill="#ADD1B2" rx="11" ry="11" style="stroke:#181818;stroke-width:1.0;"/><path d="M706.8656,788.4961 Q707.0219,788.2773 707.2094,788.168 Q707.3969,788.0586 707.6156,788.0586 Q707.9906,788.0586 708.225,788.3242 Q708.4594,788.5742 708.4594,789.1836 L708.4594,790.6367 Q708.4594,791.2461 708.225,791.5117 Q707.9906,791.7773 707.6156,791.7773 Q707.2719,791.7773 707.0688,791.5742 Q706.8656,791.3867 706.7563,790.8711 Q706.7094,790.5117 706.5219,790.3242 Q706.1938,789.9492 705.5844,789.7305 Q704.975,789.5117 704.35,789.5117 Q703.5844,789.5117 702.9438,789.8398 Q702.3188,790.168 701.8188,790.918 Q701.3344,791.668 701.3344,792.6992 L701.3344,793.793 Q701.3344,795.0273 702.225,795.8555 Q703.1156,796.668 704.7094,796.668 Q705.6469,796.668 706.3031,796.418 Q706.6938,796.2617 707.1156,795.8242 Q707.3813,795.5586 707.5219,795.4805 Q707.6781,795.4023 707.8813,795.4023 Q708.2094,795.4023 708.4594,795.668 Q708.725,795.918 708.725,796.2617 Q708.725,796.6055 708.3813,797.0117 Q707.8813,797.5898 707.0844,797.918 Q706.0063,798.3711 704.7094,798.3711 Q703.1938,798.3711 701.9906,797.7461 Q701.0063,797.2461 700.3188,796.1836 Q699.6313,795.1055 699.6313,793.8242 L699.6313,792.668 Q699.6313,791.3398 700.2406,790.1992 Q700.8656,789.043 701.9594,788.4336 Q703.0531,787.8086 704.2875,787.8086 Q705.0219,787.8086 705.6625,787.9805 Q706.3188,788.1367 706.8656,788.4961 Z " fill="#000000"/><text fill="#000000" font-family="sans-serif" font-size="14" lengthAdjust="spacing" textLength="116" x="721.9" y="798.418">RepositoryFactory</text><line style="stroke:#181818;stroke-width:0.5;" x1="673" x2="857" y1="808.6211" y2="808.6211"/><line style="stroke:#181818;stroke-width:0.5;" x1="673" x2="857" y1="816.6211" y2="816.6211"/><text fill="#000000" font-family="sans-serif" font-size="14" lengthAdjust="spacing" textLength="98" x="678" y="835.7285">+jobOpenings()</text><text fill="#000000" font-family="sans-serif" font-size="14" lengthAdjust="spacing" textLength="174" x="678" y="854.3496">+jobApplicationRepository()</text></g><!--class JobOpeningRepository--><g id="elem_JobOpeningRepository"><rect codeLine="47" fill="#F1F1F1" height="66.6211" id="JobOpeningRepository" rx="2.5" ry="2.5" style="stroke:#181818;stroke-width:0.5;" width="176" x="540" y="940.6211"/><ellipse cx="555" cy="956.6211" fill="#ADD1B2" rx="11" ry="11" style="stroke:#181818;stroke-width:1.0;"/><path d="M557.7656,952.4961 Q557.9219,952.2773 558.1094,952.168 Q558.2969,952.0586 558.5156,952.0586 Q558.8906,952.0586 559.125,952.3242 Q559.3594,952.5742 559.3594,953.1836 L559.3594,954.6367 Q559.3594,955.2461 559.125,955.5117 Q558.8906,955.7773 558.5156,955.7773 Q558.1719,955.7773 557.9688,955.5742 Q557.7656,955.3867 557.6563,954.8711 Q557.6094,954.5117 557.4219,954.3242 Q557.0938,953.9492 556.4844,953.7305 Q555.875,953.5117 555.25,953.5117 Q554.4844,953.5117 553.8438,953.8398 Q553.2188,954.168 552.7188,954.918 Q552.2344,955.668 552.2344,956.6992 L552.2344,957.793 Q552.2344,959.0273 553.125,959.8555 Q554.0156,960.668 555.6094,960.668 Q556.5469,960.668 557.2031,960.418 Q557.5938,960.2617 558.0156,959.8242 Q558.2813,959.5586 558.4219,959.4805 Q558.5781,959.4023 558.7813,959.4023 Q559.1094,959.4023 559.3594,959.668 Q559.625,959.918 559.625,960.2617 Q559.625,960.6055 559.2813,961.0117 Q558.7813,961.5898 557.9844,961.918 Q556.9063,962.3711 555.6094,962.3711 Q554.0938,962.3711 552.8906,961.7461 Q551.9063,961.2461 551.2188,960.1836 Q550.5313,959.1055 550.5313,957.8242 L550.5313,956.668 Q550.5313,955.3398 551.1406,954.1992 Q551.7656,953.043 552.8594,952.4336 Q553.9531,951.8086 555.1875,951.8086 Q555.9219,951.8086 556.5625,951.9805 Q557.2188,952.1367 557.7656,952.4961 Z " fill="#000000"/><text fill="#000000" font-family="sans-serif" font-size="14" lengthAdjust="spacing" textLength="144" x="569" y="962.418">JobOpeningRepository</text><line style="stroke:#181818;stroke-width:0.5;" x1="541" x2="715" y1="972.6211" y2="972.6211"/><line style="stroke:#181818;stroke-width:0.5;" x1="541" x2="715" y1="980.6211" y2="980.6211"/><text fill="#000000" font-family="sans-serif" font-size="14" lengthAdjust="spacing" textLength="94" x="546" y="999.7285">+findAllActive()</text></g><!--class JobApplicationRepository--><g id="elem_JobApplicationRepository"><rect codeLine="51" fill="#F1F1F1" height="66.6211" id="JobApplicationRepository" rx="2.5" ry="2.5" style="stroke:#181818;stroke-width:0.5;" width="270" x="768" y="940.6211"/><ellipse cx="819.25" cy="956.6211" fill="#ADD1B2" rx="11" ry="11" style="stroke:#181818;stroke-width:1.0;"/><path d="M822.0156,952.4961 Q822.1719,952.2773 822.3594,952.168 Q822.5469,952.0586 822.7656,952.0586 Q823.1406,952.0586 823.375,952.3242 Q823.6094,952.5742 823.6094,953.1836 L823.6094,954.6367 Q823.6094,955.2461 823.375,955.5117 Q823.1406,955.7773 822.7656,955.7773 Q822.4219,955.7773 822.2188,955.5742 Q822.0156,955.3867 821.9063,954.8711 Q821.8594,954.5117 821.6719,954.3242 Q821.3438,953.9492 820.7344,953.7305 Q820.125,953.5117 819.5,953.5117 Q818.7344,953.5117 818.0938,953.8398 Q817.4688,954.168 816.9688,954.918 Q816.4844,955.668 816.4844,956.6992 L816.4844,957.793 Q816.4844,959.0273 817.375,959.8555 Q818.2656,960.668 819.8594,960.668 Q820.7969,960.668 821.4531,960.418 Q821.8438,960.2617 822.2656,959.8242 Q822.5313,959.5586 822.6719,959.4805 Q822.8281,959.4023 823.0313,959.4023 Q823.3594,959.4023 823.6094,959.668 Q823.875,959.918 823.875,960.2617 Q823.875,960.6055 823.5313,961.0117 Q823.0313,961.5898 822.2344,961.918 Q821.1563,962.3711 819.8594,962.3711 Q818.3438,962.3711 817.1406,961.7461 Q816.1563,961.2461 815.4688,960.1836 Q814.7813,959.1055 814.7813,957.8242 L814.7813,956.668 Q814.7813,955.3398 815.3906,954.1992 Q816.0156,953.043 817.1094,952.4336 Q818.2031,951.8086 819.4375,951.8086 Q820.1719,951.8086 820.8125,951.9805 Q821.4688,952.1367 822.0156,952.4961 Z " fill="#000000"/><text fill="#000000" font-family="sans-serif" font-size="14" lengthAdjust="spacing" textLength="159" x="839.75" y="962.418">JobApplicationRepository</text><line style="stroke:#181818;stroke-width:0.5;" x1="769" x2="1037" y1="972.6211" y2="972.6211"/><line style="stroke:#181818;stroke-width:0.5;" x1="769" x2="1037" y1="980.6211" y2="980.6211"/><text fill="#000000" font-family="sans-serif" font-size="14" lengthAdjust="spacing" textLength="258" x="774" y="999.7285">+applicationsByJobOpening(jobOpening)</text></g><!--link DisplayJobApplicationDataUI to DisplayJobApplicationDataController--><g id="link_DisplayJobApplicationDataUI_DisplayJobApplicationDataController"><path codeLine="55" d="M442,131.9811 C442,155.3111 442,178.7611 442,204.5211 " fill="none" id="DisplayJobApplicationDataUI-to-DisplayJobApplicationDataController" style="stroke:#181818;stroke-width:1.0;"/><polygon fill="#181818" points="442,210.5211,446,201.5211,442,205.5211,438,201.5211,442,210.5211" style="stroke:#181818;stroke-width:1.0;"/><text fill="#000000" font-family="sans-serif" font-size="13" lengthAdjust="spacing" textLength="53" x="443" y="176.6494">controller</text></g><!--link DisplayJobApplicationDataController to AuthorizationService--><g id="link_DisplayJobApplicationDataController_AuthorizationService"><path codeLine="56" d="M353.3,332.8711 C301.92,367.7611 244.2234,406.9499 201.9534,435.6599 " fill="none" id="DisplayJobApplicationDataController-to-AuthorizationService" style="stroke:#181818;stroke-width:1.0;"/><polygon fill="#181818" points="196.99,439.0311,206.6825,437.2833,201.1262,436.2218,202.1876,430.6654,196.99,439.0311" style="stroke:#181818;stroke-width:1.0;"/><text fill="#000000" font-family="sans-serif" font-size="13" lengthAdjust="spacing" textLength="32" x="306" y="377.6494">authz</text></g><!--link DisplayJobApplicationDataController to UserSession--><g id="link_DisplayJobApplicationDataController_UserSession"><path codeLine="57" d="M428.98,332.8711 C421.44,367.7611 413.5185,404.4567 407.3085,433.1667 " fill="none" id="DisplayJobApplicationDataController-to-UserSession" style="stroke:#181818;stroke-width:1.0;"/><polygon fill="#181818" points="406.04,439.0311,411.8523,431.0802,407.0971,434.1441,404.0331,429.3889,406.04,439.0311" style="stroke:#181818;stroke-width:1.0;"/><text fill="#000000" font-family="sans-serif" font-size="13" lengthAdjust="spacing" textLength="45" x="423" y="377.6494">session</text></g><!--link DisplayJobApplicationDataController to JobOpeningManagementService--><g id="link_DisplayJobApplicationDataController_JobOpeningManagementService"><path codeLine="58" d="M497.4,332.8711 C520.34,357.8011 542.8083,382.2449 565.7283,407.1649 " fill="none" id="DisplayJobApplicationDataController-to-JobOpeningManagementService" style="stroke:#181818;stroke-width:1.0;"/><polygon fill="#181818" points="569.79,411.5811,566.6415,402.2491,566.4052,407.901,560.7533,407.6647,569.79,411.5811" style="stroke:#181818;stroke-width:1.0;"/><text fill="#000000" font-family="sans-serif" font-size="13" lengthAdjust="spacing" textLength="40" x="540" y="377.6494">service</text></g><!--link DisplayJobApplicationDataController to JobApplicationManagementService--><g id="link_DisplayJobApplicationDataController_JobApplicationManagementService"><path codeLine="59" d="M581.86,332.7311 C663.05,367.6311 756.6673,407.8725 823.5573,436.6125 " fill="none" id="DisplayJobApplicationDataController-to-JobApplicationManagementService" style="stroke:#181818;stroke-width:1.0;"/><polygon fill="#181818" points="829.07,438.9811,822.38,431.7531,824.4761,437.0073,819.2219,439.1033,829.07,438.9811" style="stroke:#181818;stroke-width:1.0;"/><text fill="#000000" font-family="sans-serif" font-size="13" lengthAdjust="spacing" textLength="40" x="689" y="377.6494">service</text></g><!--link JobOpeningManagementService to PersistenceContext--><g id="link_JobOpeningManagementService_PersistenceContext"><path codeLine="60" d="M663.57,533.8811 C674.55,550.0611 686.84,567.3011 699,582.6211 C706.88,592.5411 711.7573,598.3576 720.4473,607.8876 " fill="none" id="JobOpeningManagementService-to-PersistenceContext" style="stroke:#181818;stroke-width:1.0;"/><polygon fill="#181818" points="724.49,612.3211,721.3816,602.9756,721.121,608.6265,715.4702,608.366,724.49,612.3211" style="stroke:#181818;stroke-width:1.0;"/><text fill="#000000" font-family="sans-serif" font-size="13" lengthAdjust="spacing" textLength="67" x="700" y="578.6494">persistence</text></g><!--link PersistenceContext to RepositoryFactory--><g id="link_PersistenceContext_RepositoryFactory"><path codeLine="61" d="M765,697.8411 C765,722.0311 765,746.3811 765,770.5411 " fill="none" id="PersistenceContext-to-RepositoryFactory" style="stroke:#181818;stroke-width:1.0;"/><polygon fill="#181818" points="765,776.5411,769,767.5411,765,771.5411,761,767.5411,765,776.5411" style="stroke:#181818;stroke-width:1.0;"/><text fill="#000000" font-family="sans-serif" font-size="13" lengthAdjust="spacing" textLength="39" x="766" y="742.6494">factory</text></g><!--link RepositoryFactory to JobOpeningRepository--><g id="link_RepositoryFactory_JobOpeningRepository"><path codeLine="62" d="M727.56,861.9311 C705.38,886.7011 681.6814,913.1602 661.1414,936.1102 " fill="none" id="RepositoryFactory-to-JobOpeningRepository" style="stroke:#181818;stroke-width:1.0;"/><polygon fill="#181818" points="657.14,940.5811,666.1227,936.5424,660.4745,936.8554,660.1615,931.2072,657.14,940.5811" style="stroke:#181818;stroke-width:1.0;"/><text fill="#000000" font-family="sans-serif" font-size="13" lengthAdjust="spacing" textLength="57" x="702" y="906.6494">repository</text></g><!--link RepositoryFactory to JobApplicationRepository--><g id="link_RepositoryFactory_JobApplicationRepository"><path codeLine="63" d="M789.32,861.6611 C799.65,877.7411 812.44,895.8011 826,910.6211 C835.65,921.1611 842.4805,927.6487 853.6005,936.7187 " fill="none" id="RepositoryFactory-to-JobApplicationRepository" style="stroke:#181818;stroke-width:1.0;"/><polygon fill="#181818" points="858.25,940.5111,853.804,931.7229,854.3754,937.3508,848.7475,937.9222,858.25,940.5111" style="stroke:#181818;stroke-width:1.0;"/><text fill="#000000" font-family="sans-serif" font-size="13" lengthAdjust="spacing" textLength="57" x="827" y="906.6494">repository</text></g><!--link JobOpeningManagementService to JobOpeningRepository--><g id="link_JobOpeningManagementService_JobOpeningRepository"><path codeLine="64" d="M625.36,533.8711 C626,640.2611 627.2744,851.9312 627.7644,934.4312 " fill="none" id="JobOpeningManagementService-to-JobOpeningRepository" style="stroke:#181818;stroke-width:1.0;"/><polygon fill="#181818" points="627.8,940.4311,631.7465,931.4075,627.7703,935.4312,623.7466,931.455,627.8,940.4311" style="stroke:#181818;stroke-width:1.0;"/><text fill="#000000" font-family="sans-serif" font-size="13" lengthAdjust="spacing" textLength="57" x="628" y="742.6494">repository</text></g><!--link JobApplicationManagementService to JobApplicationRepository--><g id="link_JobApplicationManagementService_JobApplicationRepository"><path codeLine="65" d="M904.87,506.3911 C904.51,597.0111 903.5139,844.1811 903.1539,934.5511 " fill="none" id="JobApplicationManagementService-to-JobApplicationRepository" style="stroke:#181818;stroke-width:1.0;"/><polygon fill="#181818" points="903.13,940.5511,907.1658,931.5671,903.1499,935.5511,899.1659,931.5352,903.13,940.5511" style="stroke:#181818;stroke-width:1.0;"/><text fill="#000000" font-family="sans-serif" font-size="13" lengthAdjust="spacing" textLength="57" x="905" y="742.6494">repository</text></g><!--link JobApplicationManagementService to PersistenceContext--><g id="link_JobApplicationManagementService_PersistenceContext"><path codeLine="66" d="M868.48,506.2611 C851.41,522.5411 831.49,543.1011 816,563.6211 C804.59,578.7411 796.8068,591.3994 788.2368,607.2994 " fill="none" id="JobApplicationManagementService-to-PersistenceContext" style="stroke:#181818;stroke-width:1.0;"/><polygon fill="#181818" points="785.39,612.5811,793.1813,606.5565,787.7623,608.1797,786.1391,602.7608,785.39,612.5811" style="stroke:#181818;stroke-width:1.0;"/><text fill="#000000" font-family="sans-serif" font-size="13" lengthAdjust="spacing" textLength="67" x="817" y="578.6494">persistence</text></g><!--SRC=[hLFBQiCm4BphAtHqA852eGSV2gv3QGebfI4Ve2YRLAqY6QqIwfJ-UwN4hzYExK1zibSpixlZaHLM0eqbGwGJmJQ6RMaGJqPqJ1VnxTqz8VWbLC9ydNjKPAqHovs5ATTgBWv0RmdX6HyJoT8NlOoIH0hEhD1gmYnRJEaFeUwv-TJBMG9Ag0q6ew9KWUEZvsUOe8IFo6zlcrWhQxIKOFwXtH6CWEXGEPVjx0SewxcmMY2Oe39Mv0wr4OUZxXpCNd38vm25EmDHdVxCC5BfR1sugG4hMlvmVkgTItJsBdTuPOfjOEkGjH7MGgqYAVDL32GQXNK3Gs7Dcd5NI2jEPQBlEJYjDQquUR5npN2tRUjVVGE30Yqe3lu_mhVD1Rf7BGJA8PzEXuD3S76znlerCoDknHukUz8aie59xxfAu_73e3iGKbvya244BzoQuf3wz1q6YrJZ6zBi4WrcTuNPgntVhb7hJ6cfsDNNAxKaDAH9MIGj0Czh1ZEaMNv9y-pSWKg2GbfSX0vUU_hEk7rxzdVly_IgMNgLUdt_0m00]--></g></svg>