<?xml version="1.0" encoding="us-ascii" standalone="no"?><svg xmlns="http://www.w3.org/2000/svg" xmlns:xlink="http://www.w3.org/1999/xlink" contentStyleType="text/css" height="666px" preserveAspectRatio="none" style="width:1206px;height:666px;background:#FFFFFF;" version="1.1" viewBox="0 0 1206 666" width="1206px" zoomAndPan="magnify"><defs/><g><text fill="#000000" font-family="sans-serif" font-size="14" font-weight="bold" lengthAdjust="spacing" textLength="222" x="494" y="30.1074">Sequence Diagram (SD) - UC014</text><rect fill="#FFFFFF" height="411.7832" style="stroke:#181818;stroke-width:1.0;" width="10" x="61.5" y="137.8633"/><rect fill="#FFFFFF" height="31.291" style="stroke:#181818;stroke-width:1.0;" width="10" x="344.5" y="161.1543"/><rect fill="#FFFFFF" height="325.9102" style="stroke:#181818;stroke-width:1.0;" width="10" x="344.5" y="223.7363"/><rect fill="#FFFFFF" height="263.3281" style="stroke:#181818;stroke-width:1.0;" width="10" x="532.5" y="255.0273"/><rect fill="#FFFFFF" height="200.7461" style="stroke:#181818;stroke-width:1.0;" width="10" x="802.5" y="286.3184"/><rect fill="#FFFFFF" height="138.1641" style="stroke:#181818;stroke-width:1.0;" width="10" x="978" y="317.6094"/><rect fill="#FFFFFF" height="75.582" style="stroke:#181818;stroke-width:1.0;" width="10" x="1139" y="348.9004"/><line style="stroke:#181818;stroke-width:0.5;stroke-dasharray:5.0,5.0;" x1="66" x2="66" y1="127.8633" y2="567.6465"/><line style="stroke:#181818;stroke-width:0.5;stroke-dasharray:5.0,5.0;" x1="349" x2="349" y1="127.8633" y2="567.6465"/><line style="stroke:#181818;stroke-width:0.5;stroke-dasharray:5.0,5.0;" x1="537.5" x2="537.5" y1="127.8633" y2="567.6465"/><line style="stroke:#181818;stroke-width:0.5;stroke-dasharray:5.0,5.0;" x1="807" x2="807" y1="127.8633" y2="567.6465"/><line style="stroke:#181818;stroke-width:0.5;stroke-dasharray:5.0,5.0;" x1="983" x2="983" y1="127.8633" y2="567.6465"/><line style="stroke:#181818;stroke-width:0.5;stroke-dasharray:5.0,5.0;" x1="1144" x2="1144" y1="127.8633" y2="567.6465"/><text fill="#000000" font-family="sans-serif" font-size="14" lengthAdjust="spacing" textLength="117" x="5" y="124.3496">CustomerManager</text><ellipse cx="66.5" cy="57.7422" fill="#E2E2F0" rx="8" ry="8" style="stroke:#181818;stroke-width:0.5;"/><path d="M66.5,65.7422 L66.5,92.7422 M53.5,73.7422 L79.5,73.7422 M66.5,92.7422 L53.5,107.7422 M66.5,92.7422 L79.5,107.7422 " fill="none" style="stroke:#181818;stroke-width:0.5;"/><text fill="#000000" font-family="sans-serif" font-size="14" lengthAdjust="spacing" textLength="117" x="5" y="581.7539">CustomerManager</text><ellipse cx="66.5" cy="593.7676" fill="#E2E2F0" rx="8" ry="8" style="stroke:#181818;stroke-width:0.5;"/><path d="M66.5,601.7676 L66.5,628.7676 M53.5,609.7676 L79.5,609.7676 M66.5,628.7676 L53.5,643.7676 M66.5,628.7676 L79.5,643.7676 " fill="none" style="stroke:#181818;stroke-width:0.5;"/><rect fill="#E2E2F0" height="51.2422" rx="2.5" ry="2.5" style="stroke:#181818;stroke-width:0.5;" width="207" x="246" y="75.6211"/><text fill="#000000" font-family="sans-serif" font-size="14" font-style="italic" lengthAdjust="spacing" textLength="95" x="302" y="97.7285">&#171;presentation&#187;</text><text fill="#000000" font-family="sans-serif" font-size="14" lengthAdjust="spacing" textLength="193" x="253" y="116.3496">: ListPersonalDataCandidateUI</text><rect fill="#E2E2F0" height="51.2422" rx="2.5" ry="2.5" style="stroke:#181818;stroke-width:0.5;" width="207" x="246" y="566.6465"/><text fill="#000000" font-family="sans-serif" font-size="14" font-style="italic" lengthAdjust="spacing" textLength="95" x="302" y="588.7539">&#171;presentation&#187;</text><text fill="#000000" font-family="sans-serif" font-size="14" lengthAdjust="spacing" textLength="193" x="253" y="607.375">: ListPersonalDataCandidateUI</text><rect fill="#E2E2F0" height="51.2422" rx="2.5" ry="2.5" style="stroke:#181818;stroke-width:0.5;" width="142" x="466.5" y="75.6211"/><text fill="#000000" font-family="sans-serif" font-size="14" font-style="italic" lengthAdjust="spacing" textLength="84" x="495.5" y="97.7285">&#171;application&#187;</text><text fill="#000000" font-family="sans-serif" font-size="14" lengthAdjust="spacing" textLength="128" x="473.5" y="116.3496">: ListUsersController</text><rect fill="#E2E2F0" height="51.2422" rx="2.5" ry="2.5" style="stroke:#181818;stroke-width:0.5;" width="142" x="466.5" y="566.6465"/><text fill="#000000" font-family="sans-serif" font-size="14" font-style="italic" lengthAdjust="spacing" textLength="84" x="495.5" y="588.7539">&#171;application&#187;</text><text fill="#000000" font-family="sans-serif" font-size="14" lengthAdjust="spacing" textLength="128" x="473.5" y="607.375">: ListUsersController</text><rect fill="#E2E2F0" height="51.2422" rx="2.5" ry="2.5" style="stroke:#181818;stroke-width:0.5;" width="151" x="732" y="75.6211"/><text fill="#000000" font-family="sans-serif" font-size="14" font-style="italic" lengthAdjust="spacing" textLength="60" x="777.5" y="97.7285">&#171;service&#187;</text><text fill="#000000" font-family="sans-serif" font-size="14" lengthAdjust="spacing" textLength="137" x="739" y="116.3496">: AuthorizationService</text><rect fill="#E2E2F0" height="51.2422" rx="2.5" ry="2.5" style="stroke:#181818;stroke-width:0.5;" width="151" x="732" y="566.6465"/><text fill="#000000" font-family="sans-serif" font-size="14" font-style="italic" lengthAdjust="spacing" textLength="60" x="777.5" y="588.7539">&#171;service&#187;</text><text fill="#000000" font-family="sans-serif" font-size="14" lengthAdjust="spacing" textLength="137" x="739" y="607.375">: AuthorizationService</text><rect fill="#E2E2F0" height="51.2422" rx="2.5" ry="2.5" style="stroke:#181818;stroke-width:0.5;" width="180" x="893" y="75.6211"/><text fill="#000000" font-family="sans-serif" font-size="14" font-style="italic" lengthAdjust="spacing" textLength="60" x="953" y="97.7285">&#171;service&#187;</text><text fill="#000000" font-family="sans-serif" font-size="14" lengthAdjust="spacing" textLength="166" x="900" y="116.3496">: UserManagementService</text><rect fill="#E2E2F0" height="51.2422" rx="2.5" ry="2.5" style="stroke:#181818;stroke-width:0.5;" width="180" x="893" y="566.6465"/><text fill="#000000" font-family="sans-serif" font-size="14" font-style="italic" lengthAdjust="spacing" textLength="60" x="953" y="588.7539">&#171;service&#187;</text><text fill="#000000" font-family="sans-serif" font-size="14" lengthAdjust="spacing" textLength="166" x="900" y="607.375">: UserManagementService</text><text fill="#000000" font-family="sans-serif" font-size="14" font-style="italic" lengthAdjust="spacing" textLength="79" x="1101.5" y="105.7285">&#171;repository&#187;</text><text fill="#000000" font-family="sans-serif" font-size="14" lengthAdjust="spacing" textLength="116" x="1083" y="124.3496">DomainRepository</text><path d="M1126,54.6211 C1126,44.6211 1144,44.6211 1144,44.6211 C1144,44.6211 1162,44.6211 1162,54.6211 L1162,80.6211 C1162,90.6211 1144,90.6211 1144,90.6211 C1144,90.6211 1126,90.6211 1126,80.6211 L1126,54.6211 " fill="#E2E2F0" style="stroke:#181818;stroke-width:1.5;"/><path d="M1126,54.6211 C1126,64.6211 1144,64.6211 1144,64.6211 C1144,64.6211 1162,64.6211 1162,54.6211 " fill="none" style="stroke:#181818;stroke-width:1.5;"/><text fill="#000000" font-family="sans-serif" font-size="14" font-style="italic" lengthAdjust="spacing" textLength="79" x="1101.5" y="581.7539">&#171;repository&#187;</text><text fill="#000000" font-family="sans-serif" font-size="14" lengthAdjust="spacing" textLength="116" x="1083" y="600.375">DomainRepository</text><path d="M1126,613.8887 C1126,603.8887 1144,603.8887 1144,603.8887 C1144,603.8887 1162,603.8887 1162,613.8887 L1162,639.8887 C1162,649.8887 1144,649.8887 1144,649.8887 C1144,649.8887 1126,649.8887 1126,639.8887 L1126,613.8887 " fill="#E2E2F0" style="stroke:#181818;stroke-width:1.5;"/><path d="M1126,613.8887 C1126,623.8887 1144,623.8887 1144,623.8887 C1144,623.8887 1162,623.8887 1162,613.8887 " fill="none" style="stroke:#181818;stroke-width:1.5;"/><rect fill="#FFFFFF" height="411.7832" style="stroke:#181818;stroke-width:1.0;" width="10" x="61.5" y="137.8633"/><rect fill="#FFFFFF" height="31.291" style="stroke:#181818;stroke-width:1.0;" width="10" x="344.5" y="161.1543"/><rect fill="#FFFFFF" height="325.9102" style="stroke:#181818;stroke-width:1.0;" width="10" x="344.5" y="223.7363"/><rect fill="#FFFFFF" height="263.3281" style="stroke:#181818;stroke-width:1.0;" width="10" x="532.5" y="255.0273"/><rect fill="#FFFFFF" height="200.7461" style="stroke:#181818;stroke-width:1.0;" width="10" x="802.5" y="286.3184"/><rect fill="#FFFFFF" height="138.1641" style="stroke:#181818;stroke-width:1.0;" width="10" x="978" y="317.6094"/><rect fill="#FFFFFF" height="75.582" style="stroke:#181818;stroke-width:1.0;" width="10" x="1139" y="348.9004"/><polygon fill="#181818" points="332.5,157.1543,342.5,161.1543,332.5,165.1543,336.5,161.1543" style="stroke:#181818;stroke-width:1.0;"/><line style="stroke:#181818;stroke-width:1.0;" x1="71.5" x2="338.5" y1="161.1543" y2="161.1543"/><text fill="#000000" font-family="sans-serif" font-size="13" lengthAdjust="spacing" textLength="254" x="78.5" y="155.8916">want to display personal data of a candidate</text><polygon fill="#181818" points="82.5,188.4453,72.5,192.4453,82.5,196.4453,78.5,192.4453" style="stroke:#181818;stroke-width:1.0;"/><line style="stroke:#181818;stroke-width:1.0;stroke-dasharray:2.0,2.0;" x1="76.5" x2="348.5" y1="192.4453" y2="192.4453"/><text fill="#000000" font-family="sans-serif" font-size="13" lengthAdjust="spacing" textLength="122" x="88.5" y="187.1826">request for username</text><polygon fill="#181818" points="332.5,219.7363,342.5,223.7363,332.5,227.7363,336.5,223.7363" style="stroke:#181818;stroke-width:1.0;"/><line style="stroke:#181818;stroke-width:1.0;" x1="71.5" x2="338.5" y1="223.7363" y2="223.7363"/><text fill="#000000" font-family="sans-serif" font-size="13" lengthAdjust="spacing" textLength="89" x="78.5" y="218.4736">send username</text><polygon fill="#181818" points="520.5,251.0273,530.5,255.0273,520.5,259.0273,524.5,255.0273" style="stroke:#181818;stroke-width:1.0;"/><line style="stroke:#181818;stroke-width:1.0;" x1="354.5" x2="526.5" y1="255.0273" y2="255.0273"/><text fill="#000000" font-family="sans-serif" font-size="13" lengthAdjust="spacing" textLength="159" x="361.5" y="249.7646">selectUserCandidate(email)</text><polygon fill="#181818" points="790.5,282.3184,800.5,286.3184,790.5,290.3184,794.5,286.3184" style="stroke:#181818;stroke-width:1.0;"/><line style="stroke:#181818;stroke-width:1.0;" x1="542.5" x2="796.5" y1="286.3184" y2="286.3184"/><text fill="#000000" font-family="sans-serif" font-size="13" lengthAdjust="spacing" textLength="241" x="549.5" y="281.0557">ensureAuthenticatedUserHasAnyOf(roles)</text><polygon fill="#181818" points="966,313.6094,976,317.6094,966,321.6094,970,317.6094" style="stroke:#181818;stroke-width:1.0;"/><line style="stroke:#181818;stroke-width:1.0;" x1="812.5" x2="972" y1="317.6094" y2="317.6094"/><text fill="#000000" font-family="sans-serif" font-size="13" lengthAdjust="spacing" textLength="145" x="819.5" y="312.3467">userOfIdentity(username)</text><polygon fill="#181818" points="1127,344.9004,1137,348.9004,1127,352.9004,1131,348.9004" style="stroke:#181818;stroke-width:1.0;"/><line style="stroke:#181818;stroke-width:1.0;" x1="988" x2="1133" y1="348.9004" y2="348.9004"/><text fill="#000000" font-family="sans-serif" font-size="13" lengthAdjust="spacing" textLength="102" x="995" y="343.6377">ofIdentity(identity)</text><line style="stroke:#181818;stroke-width:1.0;" x1="1149" x2="1191" y1="380.1914" y2="380.1914"/><line style="stroke:#181818;stroke-width:1.0;" x1="1191" x2="1191" y1="380.1914" y2="393.1914"/><line style="stroke:#181818;stroke-width:1.0;" x1="1150" x2="1191" y1="393.1914" y2="393.1914"/><polygon fill="#181818" points="1160,389.1914,1150,393.1914,1160,397.1914,1156,393.1914" style="stroke:#181818;stroke-width:1.0;"/><text fill="#000000" font-family="sans-serif" font-size="13" lengthAdjust="spacing" textLength="43" x="1156" y="374.9287">select()</text><polygon fill="#181818" points="999,420.4824,989,424.4824,999,428.4824,995,424.4824" style="stroke:#181818;stroke-width:1.0;"/><line style="stroke:#181818;stroke-width:1.0;stroke-dasharray:2.0,2.0;" x1="993" x2="1143" y1="424.4824" y2="424.4824"/><text fill="#000000" font-family="sans-serif" font-size="13" lengthAdjust="spacing" textLength="56" x="1005" y="419.2197">candidate</text><polygon fill="#181818" points="823.5,451.7734,813.5,455.7734,823.5,459.7734,819.5,455.7734" style="stroke:#181818;stroke-width:1.0;"/><line style="stroke:#181818;stroke-width:1.0;stroke-dasharray:2.0,2.0;" x1="817.5" x2="982" y1="455.7734" y2="455.7734"/><text fill="#000000" font-family="sans-serif" font-size="13" lengthAdjust="spacing" textLength="56" x="829.5" y="450.5107">candidate</text><polygon fill="#181818" points="553.5,483.0645,543.5,487.0645,553.5,491.0645,549.5,487.0645" style="stroke:#181818;stroke-width:1.0;"/><line style="stroke:#181818;stroke-width:1.0;stroke-dasharray:2.0,2.0;" x1="547.5" x2="806.5" y1="487.0645" y2="487.0645"/><text fill="#000000" font-family="sans-serif" font-size="13" lengthAdjust="spacing" textLength="56" x="559.5" y="481.8018">candidate</text><polygon fill="#181818" points="365.5,514.3555,355.5,518.3555,365.5,522.3555,361.5,518.3555" style="stroke:#181818;stroke-width:1.0;"/><line style="stroke:#181818;stroke-width:1.0;stroke-dasharray:2.0,2.0;" x1="359.5" x2="536.5" y1="518.3555" y2="518.3555"/><text fill="#000000" font-family="sans-serif" font-size="13" lengthAdjust="spacing" textLength="56" x="371.5" y="513.0928">candidate</text><polygon fill="#181818" points="77.5,545.6465,67.5,549.6465,77.5,553.6465,73.5,549.6465" style="stroke:#181818;stroke-width:1.0;"/><line style="stroke:#181818;stroke-width:1.0;stroke-dasharray:2.0,2.0;" x1="71.5" x2="348.5" y1="549.6465" y2="549.6465"/><text fill="#000000" font-family="sans-serif" font-size="13" lengthAdjust="spacing" textLength="208" x="83.5" y="544.3838">display personal data of a candidate</text><!--SRC=[hLHDZzem4BtdLuoub1oGjb9F226XS2XIqLP5_80X6S1QOwUsizlih- -OZs30IODKd-ACvxqtupUsRqALQF009UPlkAELgoM1eToXsabAR7F0xh7G7qBjO8lIXX4f5Bcw92YrhFqc2OAvH6jdpXcngHmjSgrMufFW9KcSS4orejyLgPnWBd3d4uQhUGeZM6SlNxybN_QY8DXgxJRwJuAvqmO6MMMTFf1PecB5PW1e8LicpET4BafK3WPZ-26i-qd6QeLoZWupL8KeqD5wSSpeYCDaKXgof1mweTLq6iDUMqxEj796ItbHqMmP0ijIYhm5OLQvlJRYynXUaNaNEHqXOW46iwUlHo0luzI80-iDaQAH6wY4oyKDMcw-Fg1GlwZKLd2Fwqj-y6SoCSt6v_9bY7TkbszzaYrXDEriwHW-l6AdeH2sb5X3UJu9NWNeBI3abuGa0LuDHGVmwQHVNUmZLiSQn-nijfjrR2a35HUey70cA-WvkZubiuMAEvh_NDSqz9mdb3ow_kQQKqFYgvLf0tSZu9gSt1mu5dW5PfgeByT0obQ6V90zvjrEXMV_ZdQcwjVja078fW_OZO0OxACKlw82M5ZSvkDZsr-tYyBhSlNmSWjf5BpH4qMB2_8hJdvM5GpFcFtTI17dZxGLzaRE5QPTnqLBG1aJSRB7C7qEgAF9ru5j0ml6gcynBKrjDs6tYZi5FMytRhVxUMjd3bZxUJmSjty-B77UW3CssBqUo5wlynFlPQXf-HS0]--></g></svg>