<?xml version="1.0" encoding="us-ascii" standalone="no"?><svg xmlns="http://www.w3.org/2000/svg" xmlns:xlink="http://www.w3.org/1999/xlink" contentStyleType="text/css" height="1068px" preserveAspectRatio="none" style="width:1220px;height:1068px;background:#FFFFFF;" version="1.1" viewBox="0 0 1220 1068" width="1220px" zoomAndPan="magnify"><defs/><g><text fill="#000000" font-family="sans-serif" font-size="14" font-weight="bold" lengthAdjust="spacing" textLength="222" x="500.75" y="30.1074">Sequence Diagram (SD) - UC001</text><rect fill="#FFFFFF" height="790.1484" style="stroke:#181818;stroke-width:1.0;" width="10" x="228.5" y="161.1543"/><rect fill="#FFFFFF" height="484.6563" style="stroke:#181818;stroke-width:1.0;" width="10" x="431.5" y="435.3555"/><rect fill="#FFFFFF" height="128.4551" style="stroke:#181818;stroke-width:1.0;" width="10" x="573" y="503.9375"/><rect fill="#FFFFFF" height="99.873" style="stroke:#181818;stroke-width:1.0;" width="10" x="893.5" y="663.6836"/><rect fill="#FFFFFF" height="62.582" style="stroke:#181818;stroke-width:1.0;" width="10" x="1036.5" y="794.8477"/><line style="stroke:#181818;stroke-width:0.5;stroke-dasharray:5.0,5.0;" x1="27" x2="27" y1="127.8633" y2="969.3027"/><line style="stroke:#181818;stroke-width:0.5;stroke-dasharray:5.0,5.0;" x1="233" x2="233" y1="127.8633" y2="969.3027"/><line style="stroke:#181818;stroke-width:0.5;stroke-dasharray:5.0,5.0;" x1="436.5" x2="436.5" y1="127.8633" y2="969.3027"/><line style="stroke:#181818;stroke-width:0.5;stroke-dasharray:5.0,5.0;" x1="577.5" x2="577.5" y1="127.8633" y2="969.3027"/><line style="stroke:#181818;stroke-width:0.5;stroke-dasharray:5.0,5.0;" x1="737.5" x2="737.5" y1="127.8633" y2="969.3027"/><line style="stroke:#181818;stroke-width:0.5;stroke-dasharray:5.0,5.0;" x1="898.5" x2="898.5" y1="127.8633" y2="969.3027"/><line style="stroke:#181818;stroke-width:0.5;stroke-dasharray:5.0,5.0;" x1="1041.5" x2="1041.5" y1="127.8633" y2="969.3027"/><line style="stroke:#181818;stroke-width:0.5;stroke-dasharray:5.0,5.0;" x1="1167.5" x2="1167.5" y1="127.8633" y2="969.3027"/><text fill="#000000" font-family="sans-serif" font-size="14" lengthAdjust="spacing" textLength="39" x="5" y="124.3496">Admin</text><ellipse cx="27.5" cy="57.7422" fill="#E2E2F0" rx="8" ry="8" style="stroke:#181818;stroke-width:0.5;"/><path d="M27.5,65.7422 L27.5,92.7422 M14.5,73.7422 L40.5,73.7422 M27.5,92.7422 L14.5,107.7422 M27.5,92.7422 L40.5,107.7422 " fill="none" style="stroke:#181818;stroke-width:0.5;"/><text fill="#000000" font-family="sans-serif" font-size="14" lengthAdjust="spacing" textLength="39" x="5" y="983.4102">Admin</text><ellipse cx="27.5" cy="995.4238" fill="#E2E2F0" rx="8" ry="8" style="stroke:#181818;stroke-width:0.5;"/><path d="M27.5,1003.4238 L27.5,1030.4238 M14.5,1011.4238 L40.5,1011.4238 M27.5,1030.4238 L14.5,1045.4238 M27.5,1030.4238 L40.5,1045.4238 " fill="none" style="stroke:#181818;stroke-width:0.5;"/><rect fill="#E2E2F0" height="51.2422" rx="2.5" ry="2.5" style="stroke:#181818;stroke-width:0.5;" width="109" x="179" y="75.6211"/><text fill="#000000" font-family="sans-serif" font-size="14" font-style="italic" lengthAdjust="spacing" textLength="95" x="186" y="97.7285">&#171;presentation&#187;</text><text fill="#000000" font-family="sans-serif" font-size="14" lengthAdjust="spacing" textLength="66" x="200.5" y="116.3496">AddUserUI</text><rect fill="#E2E2F0" height="51.2422" rx="2.5" ry="2.5" style="stroke:#181818;stroke-width:0.5;" width="109" x="179" y="968.3027"/><text fill="#000000" font-family="sans-serif" font-size="14" font-style="italic" lengthAdjust="spacing" textLength="95" x="186" y="990.4102">&#171;presentation&#187;</text><text fill="#000000" font-family="sans-serif" font-size="14" lengthAdjust="spacing" textLength="66" x="200.5" y="1009.0313">AddUserUI</text><rect fill="#E2E2F0" height="51.2422" rx="2.5" ry="2.5" style="stroke:#181818;stroke-width:0.5;" width="130" x="371.5" y="75.6211"/><text fill="#000000" font-family="sans-serif" font-size="14" font-style="italic" lengthAdjust="spacing" textLength="84" x="394.5" y="97.7285">&#171;application&#187;</text><text fill="#000000" font-family="sans-serif" font-size="14" lengthAdjust="spacing" textLength="116" x="378.5" y="116.3496">AddUserController</text><rect fill="#E2E2F0" height="51.2422" rx="2.5" ry="2.5" style="stroke:#181818;stroke-width:0.5;" width="130" x="371.5" y="968.3027"/><text fill="#000000" font-family="sans-serif" font-size="14" font-style="italic" lengthAdjust="spacing" textLength="84" x="394.5" y="990.4102">&#171;application&#187;</text><text fill="#000000" font-family="sans-serif" font-size="14" lengthAdjust="spacing" textLength="116" x="378.5" y="1009.0313">AddUserController</text><rect fill="#E2E2F0" height="51.2422" rx="2.5" ry="2.5" style="stroke:#181818;stroke-width:0.5;" width="133" x="511.5" y="75.6211"/><text fill="#000000" font-family="sans-serif" font-size="14" font-style="italic" lengthAdjust="spacing" textLength="59" x="548.5" y="97.7285">&#171;builder&#187;</text><text fill="#000000" font-family="sans-serif" font-size="14" lengthAdjust="spacing" textLength="119" x="518.5" y="116.3496">SystemUserBuilder</text><rect fill="#E2E2F0" height="51.2422" rx="2.5" ry="2.5" style="stroke:#181818;stroke-width:0.5;" width="133" x="511.5" y="968.3027"/><text fill="#000000" font-family="sans-serif" font-size="14" font-style="italic" lengthAdjust="spacing" textLength="59" x="548.5" y="990.4102">&#171;builder&#187;</text><text fill="#000000" font-family="sans-serif" font-size="14" lengthAdjust="spacing" textLength="119" x="518.5" y="1009.0313">SystemUserBuilder</text><rect fill="#E2E2F0" height="51.2422" rx="2.5" ry="2.5" style="stroke:#181818;stroke-width:0.5;" width="166" x="654.5" y="75.6211"/><text fill="#000000" font-family="sans-serif" font-size="14" font-style="italic" lengthAdjust="spacing" textLength="62" x="706.5" y="97.7285">&#171;domain&#187;</text><text fill="#000000" font-family="sans-serif" font-size="14" lengthAdjust="spacing" textLength="152" x="661.5" y="116.3496">systemUser:SystemUser</text><rect fill="#E2E2F0" height="51.2422" rx="2.5" ry="2.5" style="stroke:#181818;stroke-width:0.5;" width="166" x="654.5" y="968.3027"/><text fill="#000000" font-family="sans-serif" font-size="14" font-style="italic" lengthAdjust="spacing" textLength="62" x="706.5" y="990.4102">&#171;domain&#187;</text><text fill="#000000" font-family="sans-serif" font-size="14" lengthAdjust="spacing" textLength="152" x="661.5" y="1009.0313">systemUser:SystemUser</text><rect fill="#E2E2F0" height="51.2422" rx="2.5" ry="2.5" style="stroke:#181818;stroke-width:0.5;" width="136" x="830.5" y="75.6211"/><text fill="#000000" font-family="sans-serif" font-size="14" font-style="italic" lengthAdjust="spacing" textLength="89" x="854" y="97.7285">&#171;persistence&#187;</text><text fill="#000000" font-family="sans-serif" font-size="14" lengthAdjust="spacing" textLength="122" x="837.5" y="116.3496">PersistenceContext</text><rect fill="#E2E2F0" height="51.2422" rx="2.5" ry="2.5" style="stroke:#181818;stroke-width:0.5;" width="136" x="830.5" y="968.3027"/><text fill="#000000" font-family="sans-serif" font-size="14" font-style="italic" lengthAdjust="spacing" textLength="89" x="854" y="990.4102">&#171;persistence&#187;</text><text fill="#000000" font-family="sans-serif" font-size="14" lengthAdjust="spacing" textLength="122" x="837.5" y="1009.0313">PersistenceContext</text><rect fill="#E2E2F0" height="51.2422" rx="2.5" ry="2.5" style="stroke:#181818;stroke-width:0.5;" width="130" x="976.5" y="75.6211"/><text fill="#000000" font-family="sans-serif" font-size="14" font-style="italic" lengthAdjust="spacing" textLength="59" x="1012" y="97.7285">&#171;factory&#187;</text><text fill="#000000" font-family="sans-serif" font-size="14" lengthAdjust="spacing" textLength="116" x="983.5" y="116.3496">RepositoryFactory</text><rect fill="#E2E2F0" height="51.2422" rx="2.5" ry="2.5" style="stroke:#181818;stroke-width:0.5;" width="130" x="976.5" y="968.3027"/><text fill="#000000" font-family="sans-serif" font-size="14" font-style="italic" lengthAdjust="spacing" textLength="59" x="1012" y="990.4102">&#171;factory&#187;</text><text fill="#000000" font-family="sans-serif" font-size="14" lengthAdjust="spacing" textLength="116" x="983.5" y="1009.0313">RepositoryFactory</text><text fill="#000000" font-family="sans-serif" font-size="14" font-style="italic" lengthAdjust="spacing" textLength="79" x="1125.5" y="105.7285">&#171;repository&#187;</text><text fill="#000000" font-family="sans-serif" font-size="14" lengthAdjust="spacing" textLength="97" x="1116.5" y="124.3496">UserRepository</text><path d="M1150,54.6211 C1150,44.6211 1168,44.6211 1168,44.6211 C1168,44.6211 1186,44.6211 1186,54.6211 L1186,80.6211 C1186,90.6211 1168,90.6211 1168,90.6211 C1168,90.6211 1150,90.6211 1150,80.6211 L1150,54.6211 " fill="#E2E2F0" style="stroke:#181818;stroke-width:1.5;"/><path d="M1150,54.6211 C1150,64.6211 1168,64.6211 1168,64.6211 C1168,64.6211 1186,64.6211 1186,54.6211 " fill="none" style="stroke:#181818;stroke-width:1.5;"/><text fill="#000000" font-family="sans-serif" font-size="14" font-style="italic" lengthAdjust="spacing" textLength="79" x="1125.5" y="983.4102">&#171;repository&#187;</text><text fill="#000000" font-family="sans-serif" font-size="14" lengthAdjust="spacing" textLength="97" x="1116.5" y="1002.0313">UserRepository</text><path d="M1150,1015.5449 C1150,1005.5449 1168,1005.5449 1168,1005.5449 C1168,1005.5449 1186,1005.5449 1186,1015.5449 L1186,1041.5449 C1186,1051.5449 1168,1051.5449 1168,1051.5449 C1168,1051.5449 1150,1051.5449 1150,1041.5449 L1150,1015.5449 " fill="#E2E2F0" style="stroke:#181818;stroke-width:1.5;"/><path d="M1150,1015.5449 C1150,1025.5449 1168,1025.5449 1168,1025.5449 C1168,1025.5449 1186,1025.5449 1186,1015.5449 " fill="none" style="stroke:#181818;stroke-width:1.5;"/><rect fill="#FFFFFF" height="790.1484" style="stroke:#181818;stroke-width:1.0;" width="10" x="228.5" y="161.1543"/><rect fill="#FFFFFF" height="484.6563" style="stroke:#181818;stroke-width:1.0;" width="10" x="431.5" y="435.3555"/><rect fill="#FFFFFF" height="128.4551" style="stroke:#181818;stroke-width:1.0;" width="10" x="573" y="503.9375"/><rect fill="#FFFFFF" height="99.873" style="stroke:#181818;stroke-width:1.0;" width="10" x="893.5" y="663.6836"/><rect fill="#FFFFFF" height="62.582" style="stroke:#181818;stroke-width:1.0;" width="10" x="1036.5" y="794.8477"/><polygon fill="#181818" points="216.5,157.1543,226.5,161.1543,216.5,165.1543,220.5,161.1543" style="stroke:#181818;stroke-width:1.0;"/><line style="stroke:#181818;stroke-width:1.0;stroke-dasharray:2.0,2.0;" x1="27.5" x2="222.5" y1="161.1543" y2="161.1543"/><text fill="#000000" font-family="sans-serif" font-size="13" lengthAdjust="spacing" textLength="54" x="34.5" y="155.8916">Add User</text><polygon fill="#181818" points="424.5,188.4453,434.5,192.4453,424.5,196.4453,428.5,192.4453" style="stroke:#181818;stroke-width:1.0;"/><line style="stroke:#181818;stroke-width:1.0;" x1="238.5" x2="430.5" y1="192.4453" y2="192.4453"/><text fill="#000000" font-family="sans-serif" font-size="13" lengthAdjust="spacing" textLength="36" x="245.5" y="187.1826">create</text><polygon fill="#181818" points="38.5,219.7363,28.5,223.7363,38.5,227.7363,34.5,223.7363" style="stroke:#181818;stroke-width:1.0;"/><line style="stroke:#181818;stroke-width:1.0;stroke-dasharray:2.0,2.0;" x1="32.5" x2="227.5" y1="223.7363" y2="223.7363"/><text fill="#000000" font-family="sans-serif" font-size="13" lengthAdjust="spacing" textLength="119" x="44.5" y="218.4736">Ask user information</text><polygon fill="#181818" points="216.5,285.6094,226.5,289.6094,216.5,293.6094,220.5,289.6094" style="stroke:#181818;stroke-width:1.0;"/><line style="stroke:#181818;stroke-width:1.0;stroke-dasharray:2.0,2.0;" x1="27.5" x2="222.5" y1="289.6094" y2="289.6094"/><text fill="#000000" font-family="sans-serif" font-size="13" lengthAdjust="spacing" textLength="102" x="34.5" y="249.7646">Email, Password,</text><text fill="#000000" font-family="sans-serif" font-size="13" lengthAdjust="spacing" textLength="68" x="34.5" y="267.0557">First Name,</text><text fill="#000000" font-family="sans-serif" font-size="13" lengthAdjust="spacing" textLength="63" x="34.5" y="284.3467">Last Name</text><polygon fill="#181818" points="38.5,334.1914,28.5,338.1914,38.5,342.1914,34.5,338.1914" style="stroke:#181818;stroke-width:1.0;"/><line style="stroke:#181818;stroke-width:1.0;stroke-dasharray:2.0,2.0;" x1="32.5" x2="227.5" y1="338.1914" y2="338.1914"/><text fill="#000000" font-family="sans-serif" font-size="13" lengthAdjust="spacing" textLength="57" x="44.5" y="315.6377">Show List</text><text fill="#000000" font-family="sans-serif" font-size="13" lengthAdjust="spacing" textLength="79" x="44.5" y="332.9287">of Role Types</text><polygon fill="#181818" points="216.5,365.4824,226.5,369.4824,216.5,373.4824,220.5,369.4824" style="stroke:#181818;stroke-width:1.0;"/><line style="stroke:#181818;stroke-width:1.0;stroke-dasharray:2.0,2.0;" x1="27.5" x2="222.5" y1="369.4824" y2="369.4824"/><text fill="#000000" font-family="sans-serif" font-size="13" lengthAdjust="spacing" textLength="58" x="34.5" y="364.2197">Role Type</text><polygon fill="#181818" points="419.5,431.3555,429.5,435.3555,419.5,439.3555,423.5,435.3555" style="stroke:#181818;stroke-width:1.0;"/><line style="stroke:#181818;stroke-width:1.0;" x1="238.5" x2="425.5" y1="435.3555" y2="435.3555"/><text fill="#000000" font-family="sans-serif" font-size="13" lengthAdjust="spacing" textLength="174" x="245.5" y="395.5107">addUser(password, firstName,</text><text fill="#000000" font-family="sans-serif" font-size="13" lengthAdjust="spacing" textLength="98" x="245.5" y="412.8018">lastName, email,</text><text fill="#000000" font-family="sans-serif" font-size="13" lengthAdjust="spacing" textLength="32" x="245.5" y="430.0928">roles)</text><path d="M583,448.3555 L583,475.3555 L987,475.3555 L987,458.3555 L977,448.3555 L583,448.3555 " fill="#FEFFDD" style="stroke:#181818;stroke-width:0.5;"/><path d="M977,448.3555 L977,458.3555 L987,458.3555 L977,448.3555 " fill="#FEFFDD" style="stroke:#181818;stroke-width:0.5;"/><text fill="#000000" font-family="sans-serif" font-size="13" lengthAdjust="spacing" textLength="383" x="589" y="467.3838">UserBuilder is used to create an entity of type User in a valid state</text><polygon fill="#181818" points="561,499.9375,571,503.9375,561,507.9375,565,503.9375" style="stroke:#181818;stroke-width:1.0;"/><line style="stroke:#181818;stroke-width:1.0;" x1="441.5" x2="567" y1="503.9375" y2="503.9375"/><text fill="#000000" font-family="sans-serif" font-size="13" lengthAdjust="spacing" textLength="71" x="448.5" y="498.6748">createUser()</text><polygon fill="#181818" points="725.5,565.8105,735.5,569.8105,725.5,573.8105,729.5,569.8105" style="stroke:#181818;stroke-width:1.0;"/><line style="stroke:#181818;stroke-width:1.0;" x1="583" x2="731.5" y1="569.8105" y2="569.8105"/><text fill="#000000" font-family="sans-serif" font-size="13" lengthAdjust="spacing" textLength="79" x="590" y="529.9658">create (email,</text><text fill="#000000" font-family="sans-serif" font-size="13" lengthAdjust="spacing" textLength="122" x="590" y="547.2568">password, firstName,</text><text fill="#000000" font-family="sans-serif" font-size="13" lengthAdjust="spacing" textLength="130" x="590" y="564.5479">lastName,email, roles)</text><polygon fill="#181818" points="594,597.1016,584,601.1016,594,605.1016,590,601.1016" style="stroke:#181818;stroke-width:1.0;"/><line style="stroke:#181818;stroke-width:1.0;" x1="588" x2="736.5" y1="601.1016" y2="601.1016"/><text fill="#000000" font-family="sans-serif" font-size="13" lengthAdjust="spacing" textLength="25" x="600" y="595.8389">user</text><polygon fill="#181818" points="452.5,628.3926,442.5,632.3926,452.5,636.3926,448.5,632.3926" style="stroke:#181818;stroke-width:1.0;"/><line style="stroke:#181818;stroke-width:1.0;" x1="446.5" x2="577" y1="632.3926" y2="632.3926"/><text fill="#000000" font-family="sans-serif" font-size="13" lengthAdjust="spacing" textLength="25" x="458.5" y="627.1299">user</text><polygon fill="#181818" points="881.5,659.6836,891.5,663.6836,881.5,667.6836,885.5,663.6836" style="stroke:#181818;stroke-width:1.0;"/><line style="stroke:#181818;stroke-width:1.0;" x1="441.5" x2="887.5" y1="663.6836" y2="663.6836"/><text fill="#000000" font-family="sans-serif" font-size="13" lengthAdjust="spacing" textLength="75" x="448.5" y="658.4209">repositories()</text><path d="M908,676.6836 L908,703.6836 L1014,703.6836 L1014,686.6836 L1004,676.6836 L908,676.6836 " fill="#FEFFDD" style="stroke:#181818;stroke-width:0.5;"/><path d="M1004,676.6836 L1004,686.6836 L1014,686.6836 L1004,676.6836 " fill="#FEFFDD" style="stroke:#181818;stroke-width:0.5;"/><text fill="#000000" font-family="sans-serif" font-size="13" lengthAdjust="spacing" textLength="85" x="914" y="695.7119">creates in JPA</text><polygon fill="#181818" points="1029.5,728.2656,1039.5,732.2656,1029.5,736.2656,1033.5,732.2656" style="stroke:#181818;stroke-width:1.0;"/><line style="stroke:#181818;stroke-width:1.0;" x1="903.5" x2="1035.5" y1="732.2656" y2="732.2656"/><text fill="#000000" font-family="sans-serif" font-size="13" lengthAdjust="spacing" textLength="36" x="910.5" y="727.0029">create</text><polygon fill="#181818" points="452.5,759.5566,442.5,763.5566,452.5,767.5566,448.5,763.5566" style="stroke:#181818;stroke-width:1.0;"/><line style="stroke:#181818;stroke-width:1.0;" x1="446.5" x2="897.5" y1="763.5566" y2="763.5566"/><text fill="#000000" font-family="sans-serif" font-size="13" lengthAdjust="spacing" textLength="39" x="458.5" y="758.2939">factory</text><polygon fill="#181818" points="1024.5,790.8477,1034.5,794.8477,1024.5,798.8477,1028.5,794.8477" style="stroke:#181818;stroke-width:1.0;"/><line style="stroke:#181818;stroke-width:1.0;" x1="441.5" x2="1030.5" y1="794.8477" y2="794.8477"/><text fill="#000000" font-family="sans-serif" font-size="13" lengthAdjust="spacing" textLength="40" x="448.5" y="789.585">users()</text><polygon fill="#181818" points="1156,822.1387,1166,826.1387,1156,830.1387,1160,826.1387" style="stroke:#181818;stroke-width:1.0;"/><line style="stroke:#181818;stroke-width:1.0;" x1="1046.5" x2="1162" y1="826.1387" y2="826.1387"/><text fill="#000000" font-family="sans-serif" font-size="13" lengthAdjust="spacing" textLength="36" x="1053.5" y="820.876">create</text><polygon fill="#181818" points="452.5,853.4297,442.5,857.4297,452.5,861.4297,448.5,857.4297" style="stroke:#181818;stroke-width:1.0;"/><line style="stroke:#181818;stroke-width:1.0;" x1="446.5" x2="1040.5" y1="857.4297" y2="857.4297"/><text fill="#000000" font-family="sans-serif" font-size="13" lengthAdjust="spacing" textLength="87" x="458.5" y="852.167">userRepository</text><polygon fill="#181818" points="1156,884.7207,1166,888.7207,1156,892.7207,1160,888.7207" style="stroke:#181818;stroke-width:1.0;"/><line style="stroke:#181818;stroke-width:1.0;" x1="441.5" x2="1162" y1="888.7207" y2="888.7207"/><text fill="#000000" font-family="sans-serif" font-size="13" lengthAdjust="spacing" textLength="59" x="448.5" y="883.458">save(user)</text><polygon fill="#181818" points="249.5,916.0117,239.5,920.0117,249.5,924.0117,245.5,920.0117" style="stroke:#181818;stroke-width:1.0;"/><line style="stroke:#181818;stroke-width:1.0;" x1="243.5" x2="435.5" y1="920.0117" y2="920.0117"/><text fill="#000000" font-family="sans-serif" font-size="13" lengthAdjust="spacing" textLength="25" x="255.5" y="914.749">user</text><polygon fill="#181818" points="38.5,947.3027,28.5,951.3027,38.5,955.3027,34.5,951.3027" style="stroke:#181818;stroke-width:1.0;"/><line style="stroke:#181818;stroke-width:1.0;stroke-dasharray:2.0,2.0;" x1="32.5" x2="232.5" y1="951.3027" y2="951.3027"/><text fill="#000000" font-family="sans-serif" font-size="13" lengthAdjust="spacing" textLength="177" x="44.5" y="946.04">inform (in)success of operation</text><!--SRC=[XLJ1Rjim3BtxAuYU4g01kcjW1CZQ5SXG346pt79HRIOLuaYUgBJpldwaPIjovc0w69B9Hpu-KQIZDhLowWIrAexgW1lVL0WE2w_CeSACeWEzgz9-QdE0lQeejLJQe6zgXDfMZHoon5XKYcZflTDlPu-hmfgD_eFma6LUUqwrmLzdD0N2arO70KmsJrEOmVRnuU5Bbgd2MmVBygGDA8Ab73EEx7MXQsKycyejeTkknCpVFAyT4XgllBPciHXpVhJ6ErjLw0IKdF9SrNMbYp7ifY6F9u5_FUkg3DX-c-TlONS5kgE8cby2t0dqoPuK5vNdPRkv0gxHaMP_LaRuuMylcEIl57evNQ5ViRQaMQhckHMm4N2_pVDzs36eL5wzAK8GMXUKk2UdF7VnmA2ilGMOpHOi-5n4RU5oL_f3UGwsoe0NtmQxNEITG-6GxT78rZOKnw0Zd3a6QBEtxjJgtxeDKtrZfQfxM7DBVLfNtk_CitRauOSw8HzULBVFHb9itkqdlB1UEsFty6gvztvoqz98ccZCRjIXGXzDwfu8x8L7HuCxFcm10z-TOI3Ij8qMLRe4RF_BCfR_Etruzy0Sk-QQfpsdINGgmTjEJ506kDkrRmJIFiDj418KVAXAbq1UH8z9adxdilea8LfRrJIwHgwTLpJ8wYbnaD3B_Vt29DIzC__HfvCd4QTV8U1iqRDhc-DMzkHc1cub_iF_XWZ9kvf3x7MDDAP5uZnWDBoyGSYW2ycbV5yl1wZqIJEJxf4EdieDrxGXknSzLdfAzqRvCQd8DrhpyrLyMVqyuG2NMJ5AFF5CIPy7CsUCUvzsXFTiaIGbzO4J2JSTzPGt7JiZ2P-ym8ZRhdWAT2CZ32EOQ3EbSr4WaToivRaR1bGIYaVUNm00]--></g></svg>