<?xml version="1.0" encoding="us-ascii" standalone="no"?><svg xmlns="http://www.w3.org/2000/svg" xmlns:xlink="http://www.w3.org/1999/xlink" contentStyleType="text/css" height="1171px" preserveAspectRatio="none" style="width:2747px;height:1171px;background:#FFFFFF;" version="1.1" viewBox="0 0 2747 1171" width="2747px" zoomAndPan="magnify"><defs/><g><text fill="#000000" font-family="sans-serif" font-size="14" font-weight="bold" lengthAdjust="spacing" textLength="194" x="1269.5" y="25.1074">Domain Model (DM) - UC031</text><!--cluster SystemUserAggregate--><g id="cluster_SystemUserAggregate"><rect fill="none" height="371" rx="2.5" ry="2.5" style="stroke:#000000;stroke-width:1.5;" width="350" x="474" y="574.6211"/><text fill="#000000" font-family="sans-serif" font-size="14" font-weight="bold" lengthAdjust="spacing" textLength="156" x="571" y="591.7285">SystemUserAggregate</text></g><!--cluster CandidateAggregate--><g id="cluster_CandidateAggregate"><rect fill="none" height="107" rx="2.5" ry="2.5" style="stroke:#000000;stroke-width:1.5;" width="160" x="852" y="829.6211"/><text fill="#000000" font-family="sans-serif" font-size="14" font-weight="bold" lengthAdjust="spacing" textLength="144" x="860" y="846.7285">CandidateAggregate</text></g><!--cluster JobOpeningAggregate--><g id="cluster_JobOpeningAggregate"><rect fill="none" height="504" rx="2.5" ry="2.5" style="stroke:#000000;stroke-width:1.5;" width="782" x="668" y="46.6211"/><text fill="#000000" font-family="sans-serif" font-size="14" font-weight="bold" lengthAdjust="spacing" textLength="159" x="979.5" y="63.7285">JobOpeningAggregate</text></g><!--cluster InterviewModelPackage--><g id="cluster_InterviewModelPackage"><rect fill="none" height="371" rx="2.5" ry="2.5" style="stroke:#000000;stroke-width:1.5;" width="386" x="1040" y="91.6211"/><text fill="#000000" font-family="sans-serif" font-size="14" font-weight="bold" lengthAdjust="spacing" textLength="169" x="1148.5" y="108.7285">InterviewModelPackage</text></g><!--cluster JobApplicationAggregate--><g id="cluster_JobApplicationAggregate"><rect fill="none" height="420" rx="2.5" ry="2.5" style="stroke:#000000;stroke-width:1.5;" width="1084.5" x="1248" y="638.6211"/><text fill="#000000" font-family="sans-serif" font-size="14" font-weight="bold" lengthAdjust="spacing" textLength="177" x="1701.75" y="655.7285">JobApplicationAggregate</text></g><!--cluster InterviewPackage--><g id="cluster_InterviewPackage"><rect fill="none" height="144" rx="2.5" ry="2.5" style="stroke:#000000;stroke-width:1.5;" width="740.5" x="1568" y="683.6211"/><text fill="#000000" font-family="sans-serif" font-size="14" font-weight="bold" lengthAdjust="spacing" textLength="125" x="1875.75" y="700.7285">InterviewPackage</text></g><!--class SystemUser--><g id="elem_SystemUser"><rect codeLine="17" fill="#F1F1F1" height="52.582" id="SystemUser" rx="2.5" ry="2.5" style="stroke:#181818;stroke-width:0.5;" width="81" x="495.5" y="876.1211"/><text fill="#000000" font-family="sans-serif" font-size="12" font-style="italic" lengthAdjust="spacing" textLength="73" x="499.5" y="894.0703">&#171;Root Entity&#187;</text><text fill="#000000" font-family="sans-serif" font-size="14" lengthAdjust="spacing" textLength="75" x="498.5" y="912.1895">SystemUser</text><line style="stroke:#181818;stroke-width:0.5;" x1="496.5" x2="575.5" y1="920.7031" y2="920.7031"/></g><!--class Username--><g id="elem_Username"><rect codeLine="18" fill="#F1F1F1" height="52.582" id="Username" rx="2.5" ry="2.5" style="stroke:#181818;stroke-width:0.5;" width="87" x="492.5" y="788.1211"/><text fill="#000000" font-family="sans-serif" font-size="12" font-style="italic" lengthAdjust="spacing" textLength="85" x="493.5" y="806.0703">&#171;Value Object&#187;</text><text fill="#000000" font-family="sans-serif" font-size="14" lengthAdjust="spacing" textLength="64" x="504" y="824.1895">Username</text><line style="stroke:#181818;stroke-width:0.5;" x1="493.5" x2="578.5" y1="832.7031" y2="832.7031"/></g><!--class Name--><g id="elem_Name"><rect codeLine="19" fill="#F1F1F1" height="52.582" id="Name" rx="2.5" ry="2.5" style="stroke:#181818;stroke-width:0.5;" width="87" x="492.5" y="700.1211"/><text fill="#000000" font-family="sans-serif" font-size="12" font-style="italic" lengthAdjust="spacing" textLength="85" x="493.5" y="718.0703">&#171;Value Object&#187;</text><text fill="#000000" font-family="sans-serif" font-size="14" lengthAdjust="spacing" textLength="36" x="518" y="736.1895">Name</text><line style="stroke:#181818;stroke-width:0.5;" x1="493.5" x2="578.5" y1="744.7031" y2="744.7031"/></g><!--class EmailAddress--><g id="elem_EmailAddress"><rect codeLine="20" fill="#F1F1F1" height="52.582" id="EmailAddress" rx="2.5" ry="2.5" style="stroke:#181818;stroke-width:0.5;" width="92" x="490" y="612.1211"/><text fill="#000000" font-family="sans-serif" font-size="12" font-style="italic" lengthAdjust="spacing" textLength="85" x="493.5" y="630.0703">&#171;Value Object&#187;</text><text fill="#000000" font-family="sans-serif" font-size="14" lengthAdjust="spacing" textLength="86" x="493" y="648.1895">EmailAddress</text><line style="stroke:#181818;stroke-width:0.5;" x1="491" x2="581" y1="656.7031" y2="656.7031"/></g><!--class Password--><g id="elem_Password"><rect codeLine="21" fill="#F1F1F1" height="52.582" id="Password" rx="2.5" ry="2.5" style="stroke:#181818;stroke-width:0.5;" width="87" x="681.5" y="793.1211"/><text fill="#000000" font-family="sans-serif" font-size="12" font-style="italic" lengthAdjust="spacing" textLength="85" x="682.5" y="811.0703">&#171;Value Object&#187;</text><text fill="#000000" font-family="sans-serif" font-size="14" lengthAdjust="spacing" textLength="61" x="694.5" y="829.1895">Password</text><line style="stroke:#181818;stroke-width:0.5;" x1="682.5" x2="767.5" y1="837.7031" y2="837.7031"/></g><!--class Role--><g id="elem_Role"><rect codeLine="22" fill="#F1F1F1" height="145.6875" id="Role" rx="2.5" ry="2.5" style="stroke:#181818;stroke-width:0.5;" width="166" x="642" y="611.6211"/><text fill="#000000" font-family="sans-serif" font-size="12" font-style="italic" lengthAdjust="spacing" textLength="85" x="682.5" y="629.5703">&#171;Value Object&#187;</text><text fill="#000000" font-family="sans-serif" font-size="14" lengthAdjust="spacing" textLength="29" x="710.5" y="647.6895">Role</text><line style="stroke:#181818;stroke-width:0.5;" x1="643" x2="807" y1="656.2031" y2="656.2031"/><text fill="#000000" font-family="sans-serif" font-size="14" lengthAdjust="spacing" textLength="42" x="648" y="675.3105">ADMIN</text><text fill="#000000" font-family="sans-serif" font-size="14" lengthAdjust="spacing" textLength="154" x="648" y="693.9316">CUSTOMER_MANAGER</text><text fill="#000000" font-family="sans-serif" font-size="14" lengthAdjust="spacing" textLength="78" x="648" y="712.5527">OPERATOR</text><text fill="#000000" font-family="sans-serif" font-size="14" lengthAdjust="spacing" textLength="78" x="648" y="731.1738">CUSTOMER</text><text fill="#000000" font-family="sans-serif" font-size="14" lengthAdjust="spacing" textLength="78" x="648" y="749.7949">CANDIDATE</text></g><!--class Candidate--><g id="elem_Candidate"><rect codeLine="38" fill="#F1F1F1" height="52.582" id="Candidate" rx="2.5" ry="2.5" style="stroke:#181818;stroke-width:0.5;" width="75" x="894" y="867.1211"/><text fill="#000000" font-family="sans-serif" font-size="12" font-style="italic" lengthAdjust="spacing" textLength="73" x="895" y="885.0703">&#171;Root Entity&#187;</text><text fill="#000000" font-family="sans-serif" font-size="14" lengthAdjust="spacing" textLength="65" x="899" y="903.1895">Candidate</text><line style="stroke:#181818;stroke-width:0.5;" x1="895" x2="968" y1="911.7031" y2="911.7031"/></g><!--class JobOpening--><g id="elem_JobOpening"><rect codeLine="42" fill="#F1F1F1" height="52.582" id="JobOpening" rx="2.5" ry="2.5" style="stroke:#181818;stroke-width:0.5;" width="82" x="684" y="481.1211"/><text fill="#000000" font-family="sans-serif" font-size="12" font-style="italic" lengthAdjust="spacing" textLength="73" x="688.5" y="499.0703">&#171;Root Entity&#187;</text><text fill="#000000" font-family="sans-serif" font-size="14" lengthAdjust="spacing" textLength="76" x="687" y="517.1895">JobOpening</text><line style="stroke:#181818;stroke-width:0.5;" x1="685" x2="765" y1="525.7031" y2="525.7031"/></g><!--class JobReference--><g id="elem_JobReference"><rect codeLine="43" fill="#F1F1F1" height="52.582" id="JobReference" rx="2.5" ry="2.5" style="stroke:#181818;stroke-width:0.5;" width="94" x="1265.5" y="481.1211"/><text fill="#000000" font-family="sans-serif" font-size="12" font-style="italic" lengthAdjust="spacing" textLength="85" x="1270" y="499.0703">&#171;Value Object&#187;</text><text fill="#000000" font-family="sans-serif" font-size="14" lengthAdjust="spacing" textLength="88" x="1268.5" y="517.1895">JobReference</text><line style="stroke:#181818;stroke-width:0.5;" x1="1266.5" x2="1358.5" y1="525.7031" y2="525.7031"/></g><!--class InterviewModel--><g id="elem_InterviewModel"><rect codeLine="45" fill="#F1F1F1" height="52.582" id="InterviewModel" rx="2.5" ry="2.5" style="stroke:#181818;stroke-width:0.5;" width="99" x="1056" y="349.1211"/><text fill="#000000" font-family="sans-serif" font-size="12" font-style="italic" lengthAdjust="spacing" textLength="85" x="1063" y="367.0703">&#171;Value Object&#187;</text><text fill="#000000" font-family="sans-serif" font-size="14" lengthAdjust="spacing" textLength="93" x="1059" y="385.1895">InterviewModel</text><line style="stroke:#181818;stroke-width:0.5;" x1="1057" x2="1154" y1="393.7031" y2="393.7031"/></g><!--class InterviewModelDesignation--><g id="elem_InterviewModelDesignation"><rect codeLine="46" fill="#F1F1F1" height="52.582" id="InterviewModelDesignation" rx="2.5" ry="2.5" style="stroke:#181818;stroke-width:0.5;" width="174" x="1225.5" y="217.1211"/><text fill="#000000" font-family="sans-serif" font-size="12" font-style="italic" lengthAdjust="spacing" textLength="85" x="1270" y="235.0703">&#171;Value Object&#187;</text><text fill="#000000" font-family="sans-serif" font-size="14" lengthAdjust="spacing" textLength="168" x="1228.5" y="253.1895">InterviewModelDesignation</text><line style="stroke:#181818;stroke-width:0.5;" x1="1226.5" x2="1398.5" y1="261.7031" y2="261.7031"/></g><!--class InterviewModelDescription--><g id="elem_InterviewModelDescription"><rect codeLine="47" fill="#F1F1F1" height="52.582" id="InterviewModelDescription" rx="2.5" ry="2.5" style="stroke:#181818;stroke-width:0.5;" width="170" x="1227.5" y="305.1211"/><text fill="#000000" font-family="sans-serif" font-size="12" font-style="italic" lengthAdjust="spacing" textLength="85" x="1270" y="323.0703">&#171;Value Object&#187;</text><text fill="#000000" font-family="sans-serif" font-size="14" lengthAdjust="spacing" textLength="164" x="1230.5" y="341.1895">InterviewModelDescription</text><line style="stroke:#181818;stroke-width:0.5;" x1="1228.5" x2="1396.5" y1="349.7031" y2="349.7031"/></g><!--class InterviewModelFileExtension--><g id="elem_InterviewModelFileExtension"><rect codeLine="48" fill="#F1F1F1" height="52.582" id="InterviewModelFileExtension" rx="2.5" ry="2.5" style="stroke:#181818;stroke-width:0.5;" width="183" x="1221" y="393.1211"/><text fill="#000000" font-family="sans-serif" font-size="12" font-style="italic" lengthAdjust="spacing" textLength="85" x="1270" y="411.0703">&#171;Value Object&#187;</text><text fill="#000000" font-family="sans-serif" font-size="14" lengthAdjust="spacing" textLength="177" x="1224" y="429.1895">InterviewModelFileExtension</text><line style="stroke:#181818;stroke-width:0.5;" x1="1222" x2="1403" y1="437.7031" y2="437.7031"/></g><!--class InterviewModelFQCLassName--><g id="elem_InterviewModelFQCLassName"><rect codeLine="49" fill="#F1F1F1" height="52.582" id="InterviewModelFQCLassName" rx="2.5" ry="2.5" style="stroke:#181818;stroke-width:0.5;" width="195" x="1215" y="129.1211"/><text fill="#000000" font-family="sans-serif" font-size="12" font-style="italic" lengthAdjust="spacing" textLength="85" x="1270" y="147.0703">&#171;Value Object&#187;</text><text fill="#000000" font-family="sans-serif" font-size="14" lengthAdjust="spacing" textLength="189" x="1218" y="165.1895">InterviewModelFQCLassName</text><line style="stroke:#181818;stroke-width:0.5;" x1="1216" x2="1409" y1="173.7031" y2="173.7031"/></g><!--class JobApplication--><g id="elem_JobApplication"><rect codeLine="58" fill="#F1F1F1" height="52.582" id="JobApplication" rx="2.5" ry="2.5" style="stroke:#181818;stroke-width:0.5;" width="97" x="1264" y="846.1211"/><text fill="#000000" font-family="sans-serif" font-size="12" font-style="italic" lengthAdjust="spacing" textLength="73" x="1276" y="864.0703">&#171;Root Entity&#187;</text><text fill="#000000" font-family="sans-serif" font-size="14" lengthAdjust="spacing" textLength="91" x="1267" y="882.1895">JobApplication</text><line style="stroke:#181818;stroke-width:0.5;" x1="1265" x2="1360" y1="890.7031" y2="890.7031"/></g><!--class JobApplicationReference--><g id="elem_JobApplicationReference"><rect codeLine="59" fill="#F1F1F1" height="52.582" id="JobApplicationReference" rx="2.5" ry="2.5" style="stroke:#181818;stroke-width:0.5;" width="163" x="1845" y="846.1211"/><text fill="#000000" font-family="sans-serif" font-size="12" font-style="italic" lengthAdjust="spacing" textLength="85" x="1884" y="864.0703">&#171;Value Object&#187;</text><text fill="#000000" font-family="sans-serif" font-size="14" lengthAdjust="spacing" textLength="157" x="1848" y="882.1895">JobApplicationReference</text><line style="stroke:#181818;stroke-width:0.5;" x1="1846" x2="2007" y1="890.7031" y2="890.7031"/></g><!--class JobApplicationStatus--><g id="elem_JobApplicationStatus"><rect codeLine="60" fill="#F1F1F1" height="108.4453" id="JobApplicationStatus" rx="2.5" ry="2.5" style="stroke:#181818;stroke-width:0.5;" width="137" x="1858" y="934.6211"/><text fill="#000000" font-family="sans-serif" font-size="12" font-style="italic" lengthAdjust="spacing" textLength="85" x="1884" y="952.5703">&#171;Value Object&#187;</text><text fill="#000000" font-family="sans-serif" font-size="14" lengthAdjust="spacing" textLength="131" x="1861" y="970.6895">JobApplicationStatus</text><line style="stroke:#181818;stroke-width:0.5;" x1="1859" x2="1994" y1="979.2031" y2="979.2031"/><text fill="#000000" font-family="sans-serif" font-size="14" lengthAdjust="spacing" textLength="60" x="1864" y="998.3105">PENDING</text><text fill="#000000" font-family="sans-serif" font-size="14" lengthAdjust="spacing" textLength="76" x="1864" y="1016.9316">APPROVED</text><text fill="#000000" font-family="sans-serif" font-size="14" lengthAdjust="spacing" textLength="72" x="1864" y="1035.5527">REJECTED</text></g><!--class Interview--><g id="elem_Interview"><rect codeLine="66" fill="#F1F1F1" height="52.582" id="Interview" rx="2.5" ry="2.5" style="stroke:#181818;stroke-width:0.5;" width="87" x="1584" y="758.1211"/><text fill="#000000" font-family="sans-serif" font-size="12" font-style="italic" lengthAdjust="spacing" textLength="85" x="1585" y="776.0703">&#171;Value Object&#187;</text><text fill="#000000" font-family="sans-serif" font-size="14" lengthAdjust="spacing" textLength="55" x="1600" y="794.1895">Interview</text><line style="stroke:#181818;stroke-width:0.5;" x1="1585" x2="1670" y1="802.7031" y2="802.7031"/></g><!--class InterviewName--><g id="elem_InterviewName"><rect codeLine="67" fill="#F1F1F1" height="52.582" id="InterviewName" rx="2.5" ry="2.5" style="stroke:#181818;stroke-width:0.5;" width="97" x="1878" y="758.1211"/><text fill="#000000" font-family="sans-serif" font-size="12" font-style="italic" lengthAdjust="spacing" textLength="85" x="1884" y="776.0703">&#171;Value Object&#187;</text><text fill="#000000" font-family="sans-serif" font-size="14" lengthAdjust="spacing" textLength="91" x="1881" y="794.1895">InterviewName</text><line style="stroke:#181818;stroke-width:0.5;" x1="1879" x2="1974" y1="802.7031" y2="802.7031"/></g><!--class InterviewDescription--><g id="elem_InterviewDescription"><rect codeLine="68" fill="#F1F1F1" height="52.582" id="InterviewDescription" rx="2.5" ry="2.5" style="stroke:#181818;stroke-width:0.5;" width="132" x="2160.5" y="721.1211"/><text fill="#000000" font-family="sans-serif" font-size="12" font-style="italic" lengthAdjust="spacing" textLength="85" x="2184" y="739.0703">&#171;Value Object&#187;</text><text fill="#000000" font-family="sans-serif" font-size="14" lengthAdjust="spacing" textLength="126" x="2163.5" y="757.1895">InterviewDescription</text><line style="stroke:#181818;stroke-width:0.5;" x1="2161.5" x2="2291.5" y1="765.7031" y2="765.7031"/></g><!--class Admin--><g id="elem_Admin"><rect codeLine="31" fill="#F1F1F1" height="36.6211" id="Admin" rx="2.5" ry="2.5" style="stroke:#181818;stroke-width:0.5;" width="45" x="43" y="489.1211"/><text fill="#000000" font-family="sans-serif" font-size="14" lengthAdjust="spacing" textLength="39" x="46" y="509.2285">Admin</text><line style="stroke:#181818;stroke-width:0.5;" x1="44" x2="87" y1="517.7422" y2="517.7422"/></g><g id="elem_GMN10"><path d="M6,427.1211 L6,454.4121 A0,0 0 0 0 6,454.4121 L62,454.4121 L66,489.0011 L70,454.4121 L125,454.4121 A0,0 0 0 0 125,454.4121 L125,437.1211 L115,427.1211 L6,427.1211 A0,0 0 0 0 6,427.1211 " fill="#FEFFDD" style="stroke:#181818;stroke-width:0.5;"/><path d="M115,427.1211 L115,437.1211 L125,437.1211 L115,427.1211 " fill="#FEFFDD" style="stroke:#181818;stroke-width:0.5;"/><text fill="#000000" font-family="sans-serif" font-size="13" lengthAdjust="spacing" textLength="98" x="12" y="446.1494">conceptual class</text></g><!--class CustomerManager--><g id="elem_CustomerManager"><rect codeLine="34" fill="#F1F1F1" height="36.6211" id="CustomerManager" rx="2.5" ry="2.5" style="stroke:#181818;stroke-width:0.5;" width="123" x="246" y="489.1211"/><text fill="#000000" font-family="sans-serif" font-size="14" lengthAdjust="spacing" textLength="117" x="249" y="509.2285">CustomerManager</text><line style="stroke:#181818;stroke-width:0.5;" x1="247" x2="368" y1="517.7422" y2="517.7422"/></g><g id="elem_GMN14"><path d="M248,427.1211 L248,454.4121 A0,0 0 0 0 248,454.4121 L304,454.4121 L308,489.0011 L312,454.4121 L367,454.4121 A0,0 0 0 0 367,454.4121 L367,437.1211 L357,427.1211 L248,427.1211 A0,0 0 0 0 248,427.1211 " fill="#FEFFDD" style="stroke:#181818;stroke-width:0.5;"/><path d="M357,427.1211 L357,437.1211 L367,437.1211 L357,427.1211 " fill="#FEFFDD" style="stroke:#181818;stroke-width:0.5;"/><text fill="#000000" font-family="sans-serif" font-size="13" lengthAdjust="spacing" textLength="98" x="254" y="446.1494">conceptual class</text></g><g id="elem_GMN28"><path d="M1478.5,230.1211 L1478.5,239.6211 L1399.83,243.6211 L1478.5,247.6211 L1478.5,257.4121 A0,0 0 0 0 1478.5,257.4121 L1776.5,257.4121 A0,0 0 0 0 1776.5,257.4121 L1776.5,240.1211 L1766.5,230.1211 L1478.5,230.1211 A0,0 0 0 0 1478.5,230.1211 " fill="#FEFFDD" style="stroke:#181818;stroke-width:0.5;"/><path d="M1766.5,230.1211 L1766.5,240.1211 L1776.5,240.1211 L1766.5,230.1211 " fill="#FEFFDD" style="stroke:#181818;stroke-width:0.5;"/><text fill="#000000" font-family="sans-serif" font-size="13" lengthAdjust="spacing" textLength="277" x="1484.5" y="249.1494">Designation (provided by EAPLI FRAMEWORK)</text></g><g id="elem_GMN31"><path d="M1480,318.1211 L1480,327.6211 L1397.74,331.6211 L1480,335.6211 L1480,345.4121 A0,0 0 0 0 1480,345.4121 L1775,345.4121 A0,0 0 0 0 1775,345.4121 L1775,328.1211 L1765,318.1211 L1480,318.1211 A0,0 0 0 0 1480,318.1211 " fill="#FEFFDD" style="stroke:#181818;stroke-width:0.5;"/><path d="M1765,318.1211 L1765,328.1211 L1775,328.1211 L1765,318.1211 " fill="#FEFFDD" style="stroke:#181818;stroke-width:0.5;"/><text fill="#000000" font-family="sans-serif" font-size="13" lengthAdjust="spacing" textLength="274" x="1486" y="337.1494">Description (provided by EAPLI FRAMEWORK)</text></g><g id="elem_GMN34"><path d="M1473,406.1211 L1473,415.6211 L1404.03,419.6211 L1473,423.6211 L1473,433.4121 A0,0 0 0 0 1473,433.4121 L1782,433.4121 A0,0 0 0 0 1782,433.4121 L1782,416.1211 L1772,406.1211 L1473,406.1211 A0,0 0 0 0 1473,406.1211 " fill="#FEFFDD" style="stroke:#181818;stroke-width:0.5;"/><path d="M1772,406.1211 L1772,416.1211 L1782,416.1211 L1772,406.1211 " fill="#FEFFDD" style="stroke:#181818;stroke-width:0.5;"/><text fill="#000000" font-family="sans-serif" font-size="13" lengthAdjust="spacing" textLength="288" x="1479" y="425.1494">FileExtension (provided by EAPLI FRAMEWORK)</text></g><g id="elem_GMN37"><path d="M1470,142.1211 L1470,151.6211 L1410.01,155.6211 L1470,159.6211 L1470,169.4121 A0,0 0 0 0 1470,169.4121 L1785,169.4121 A0,0 0 0 0 1785,169.4121 L1785,152.1211 L1775,142.1211 L1470,142.1211 A0,0 0 0 0 1470,142.1211 " fill="#FEFFDD" style="stroke:#181818;stroke-width:0.5;"/><path d="M1775,142.1211 L1775,152.1211 L1785,152.1211 L1775,142.1211 " fill="#FEFFDD" style="stroke:#181818;stroke-width:0.5;"/><text fill="#000000" font-family="sans-serif" font-size="13" lengthAdjust="spacing" textLength="294" x="1476" y="161.1494">FQClassName (provided by EAPLI FRAMEWORK)</text></g><g id="elem_GMN48"><path d="M2068,1137.1211 L2068,1164.4121 L2385,1164.4121 L2385,1147.1211 L2375,1137.1211 L2068,1137.1211 " fill="#FEFFDD" style="stroke:#181818;stroke-width:0.5;"/><path d="M2375,1137.1211 L2375,1147.1211 L2385,1147.1211 L2375,1137.1211 " fill="#FEFFDD" style="stroke:#181818;stroke-width:1.0;"/><text fill="#000000" font-family="sans-serif" font-size="13" lengthAdjust="spacing" textLength="296" x="2074" y="1156.1494">ApprovalStatus (provided by EAPLI FRAMEWORK)</text></g><g id="elem_GMN51"><path d="M2077.5,1075.1211 L2077.5,1102.4121 L2375.5,1102.4121 L2375.5,1085.1211 L2365.5,1075.1211 L2077.5,1075.1211 " fill="#FEFFDD" style="stroke:#181818;stroke-width:0.5;"/><path d="M2365.5,1075.1211 L2365.5,1085.1211 L2375.5,1085.1211 L2365.5,1075.1211 " fill="#FEFFDD" style="stroke:#181818;stroke-width:1.0;"/><text fill="#000000" font-family="sans-serif" font-size="13" lengthAdjust="spacing" textLength="277" x="2083.5" y="1094.1494">Designation (provided by EAPLI FRAMEWORK)</text></g><g id="elem_GMN54"><path d="M2445,734.1211 L2445,743.6211 L2292.78,747.6211 L2445,751.6211 L2445,761.4121 A0,0 0 0 0 2445,761.4121 L2740,761.4121 A0,0 0 0 0 2740,761.4121 L2740,744.1211 L2730,734.1211 L2445,734.1211 A0,0 0 0 0 2445,734.1211 " fill="#FEFFDD" style="stroke:#181818;stroke-width:0.5;"/><path d="M2730,734.1211 L2730,744.1211 L2740,744.1211 L2730,734.1211 " fill="#FEFFDD" style="stroke:#181818;stroke-width:0.5;"/><text fill="#000000" font-family="sans-serif" font-size="13" lengthAdjust="spacing" textLength="274" x="2451" y="753.1494">Description (provided by EAPLI FRAMEWORK)</text></g><!--class ANTLR--><g id="elem_ANTLR"><rect codeLine="75" fill="#F1F1F1" height="52.582" id="ANTLR" rx="2.5" ry="2.5" style="stroke:#181818;stroke-width:0.5;" width="57" x="1284" y="569.1211"/><text fill="#000000" font-family="sans-serif" font-size="12" font-style="italic" lengthAdjust="spacing" textLength="55" x="1285" y="587.0703">&#171;Service&#187;</text><text fill="#000000" font-family="sans-serif" font-size="14" lengthAdjust="spacing" textLength="45" x="1290" y="605.1895">ANTLR</text><line style="stroke:#181818;stroke-width:0.5;" x1="1285" x2="1340" y1="613.7031" y2="613.7031"/></g><!--link JobApplicationStatus to GMN48--><g id="link_JobApplicationStatus_GMN48"><path d="M1995.03,988.6211 C2033.16,988.6211 2073,988.6211 2073,988.6211 C2073,988.6211 2073,1098.1511 2073,1137.0911 " fill="none" id="JobApplicationStatus-GMN48" style="stroke:#181818;stroke-width:1.0;stroke-dasharray:7.0,7.0;"/></g><!--link InterviewName to GMN51--><g id="link_InterviewName_GMN51"><path d="M1975.08,792.6211 C2032.1,792.6211 2119,792.6211 2119,792.6211 C2119,792.6211 2119,1016.2211 2119,1074.7411 " fill="none" id="InterviewName-GMN51" style="stroke:#181818;stroke-width:1.0;stroke-dasharray:7.0,7.0;"/></g><!--reverse link SystemUser to Candidate--><g id="link_SystemUser_Candidate"><path codeLine="77" d="M582.84,898.1211 C659.81,898.1211 819.3,898.1211 893.8,898.1211 " fill="none" id="SystemUser-backto-Candidate" style="stroke:#181818;stroke-width:1.0;"/><polygon fill="#181818" points="576.84,898.1211,585.84,902.1211,581.84,898.1211,585.84,894.1211,576.84,898.1211" style="stroke:#181818;stroke-width:1.0;"/><polygon fill="#000000" points="699.32,907.7666,708.3651,910.7055,708.3651,904.8277,699.32,907.7666" style="stroke:#000000;stroke-width:1.0;"/><text fill="#000000" font-family="sans-serif" font-size="13" lengthAdjust="spacing" textLength="21" x="713.32" y="913.1494">is a</text></g><!--link Admin to CustomerManager--><g id="link_Admin_CustomerManager"><path codeLine="79" d="M88.27,507.6211 C123.98,507.6211 194.39,507.6211 245.81,507.6211 " fill="none" id="Admin-CustomerManager" style="stroke:#181818;stroke-width:1.0;"/><polygon fill="#000000" points="109.04,517.2666,99.9949,514.3277,99.9949,520.2055,109.04,517.2666" style="stroke:#000000;stroke-width:1.0;"/><text fill="#000000" font-family="sans-serif" font-size="13" lengthAdjust="spacing" textLength="53" x="113.04" y="522.6494">manages</text><text fill="#000000" font-family="sans-serif" font-size="13" lengthAdjust="spacing" textLength="7" x="95.9868" y="524.2447">1</text><text fill="#000000" font-family="sans-serif" font-size="13" lengthAdjust="spacing" textLength="5" x="232.9868" y="522.7262">*</text></g><!--link CustomerManager to JobOpening--><g id="link_CustomerManager_JobOpening"><path codeLine="81" d="M369.1,507.6211 C455.52,507.6211 610.4,507.6211 684,507.6211 " fill="none" id="CustomerManager-JobOpening" style="stroke:#181818;stroke-width:1.0;"/><polygon fill="#000000" points="478.55,517.2666,469.5049,514.3277,469.5049,520.2055,478.55,517.2666" style="stroke:#000000;stroke-width:1.0;"/><text fill="#000000" font-family="sans-serif" font-size="13" lengthAdjust="spacing" textLength="43" x="482.55" y="522.6494">creates</text><text fill="#000000" font-family="sans-serif" font-size="13" lengthAdjust="spacing" textLength="7" x="377.0341" y="522.7262">1</text><text fill="#000000" font-family="sans-serif" font-size="13" lengthAdjust="spacing" textLength="5" x="670.9797" y="523.282">*</text></g><!--link Candidate to JobApplication--><g id="link_Candidate_JobApplication"><path codeLine="83" d="M969.07,883.1211 C1038.54,883.1211 1186.95,883.1211 1263.93,883.1211 " fill="none" id="Candidate-JobApplication" style="stroke:#181818;stroke-width:1.0;"/><polygon fill="#000000" points="1055.5,892.7666,1046.4549,889.8277,1046.4549,895.7055,1055.5,892.7666" style="stroke:#000000;stroke-width:1.0;"/><text fill="#000000" font-family="sans-serif" font-size="13" lengthAdjust="spacing" textLength="56" x="1059.5" y="898.1494">applies to</text><text fill="#000000" font-family="sans-serif" font-size="13" lengthAdjust="spacing" textLength="7" x="976.899" y="896.8357">1</text><text fill="#000000" font-family="sans-serif" font-size="13" lengthAdjust="spacing" textLength="5" x="1251.1099" y="900.1131">*</text></g><!--link JobOpening to JobApplication--><g id="link_JobOpening_JobApplication"><path codeLine="85" d="M766.26,516.4511 C803,516.4511 851,516.4511 851,516.4511 C851,516.4511 851,856.6211 851,856.6211 C851,856.6211 1145.5,856.6211 1263.98,856.6211 " fill="none" id="JobOpening-JobApplication" style="stroke:#181818;stroke-width:1.0;"/><polygon fill="#000000" points="825.872,857.4853,831.6813,865.0155,834.9979,860.1627,825.872,857.4853" style="stroke:#000000;stroke-width:1.0;"/><text fill="#000000" font-family="sans-serif" font-size="13" lengthAdjust="spacing" textLength="11" x="839" y="865.6894">to</text><text fill="#000000" font-family="sans-serif" font-size="13" lengthAdjust="spacing" textLength="7" x="773.9531" y="533.5189">1</text><text fill="#000000" font-family="sans-serif" font-size="13" lengthAdjust="spacing" textLength="5" x="1250.8487" y="869.5106">*</text></g><!--link JobOpening to InterviewModel--><g id="link_JobOpening_InterviewModel"><path codeLine="86" d="M725,480.9111 C725,442.3411 725,375.6211 725,375.6211 C725,375.6211 952.62,375.6211 1055.76,375.6211 " fill="none" id="JobOpening-InterviewModel" style="stroke:#181818;stroke-width:1.0;"/><polygon fill="#000000" points="811.4944,383.75,801.984,383.6931,803.767,389.2941,811.4944,383.75" style="stroke:#000000;stroke-width:1.0;"/><text fill="#000000" font-family="sans-serif" font-size="13" lengthAdjust="spacing" textLength="21" x="815.73" y="390.6494">has</text><text fill="#000000" font-family="sans-serif" font-size="13" lengthAdjust="spacing" textLength="7" x="717.1906" y="469.8791">1</text><text fill="#000000" font-family="sans-serif" font-size="13" lengthAdjust="spacing" textLength="22" x="1025.9777" y="390.7839">0..1</text></g><!--link JobOpening to JobReference--><g id="link_JobOpening_JobReference"><path codeLine="87" d="M766.31,498.7911 C872.22,498.7911 1152.97,498.7911 1265.18,498.7911 " fill="none" id="JobOpening-JobReference" style="stroke:#181818;stroke-width:1.0;"/><polygon fill="#000000" points="941.75,508.4366,932.7049,505.4977,932.7049,511.3755,941.75,508.4366" style="stroke:#000000;stroke-width:1.0;"/><text fill="#000000" font-family="sans-serif" font-size="13" lengthAdjust="spacing" textLength="69" x="945.75" y="513.8194">identified by</text><text fill="#000000" font-family="sans-serif" font-size="13" lengthAdjust="spacing" textLength="7" x="774.0117" y="512.8236">1</text><text fill="#000000" font-family="sans-serif" font-size="13" lengthAdjust="spacing" textLength="7" x="1250.3982" y="512.8232">1</text></g><!--link JobApplication to JobApplicationReference--><g id="link_JobApplication_JobApplicationReference"><path codeLine="89" d="M1361.19,872.6211 C1466.28,872.6211 1715.3,872.6211 1844.91,872.6211 " fill="none" id="JobApplication-JobApplicationReference" style="stroke:#181818;stroke-width:1.0;"/><polygon fill="#000000" points="1529.05,882.2666,1520.0049,879.3277,1520.0049,885.2055,1529.05,882.2666" style="stroke:#000000;stroke-width:1.0;"/><text fill="#000000" font-family="sans-serif" font-size="13" lengthAdjust="spacing" textLength="69" x="1533.05" y="887.6494">identified by</text><text fill="#000000" font-family="sans-serif" font-size="13" lengthAdjust="spacing" textLength="7" x="1368.8554" y="887.9499">1</text><text fill="#000000" font-family="sans-serif" font-size="13" lengthAdjust="spacing" textLength="7" x="1830.0658" y="887.4657">1</text></g><!--link JobApplication to JobApplicationStatus--><g id="link_JobApplication_JobApplicationStatus"><path codeLine="90" d="M1313,899.2311 C1313,933.4811 1313,988.6211 1313,988.6211 C1313,988.6211 1697.82,988.6211 1857.91,988.6211 " fill="none" id="JobApplication-JobApplicationStatus" style="stroke:#181818;stroke-width:1.0;"/><polygon fill="#000000" points="1512.6941,999.076,1504.244,994.7116,1503.2925,1000.5119,1512.6941,999.076" style="stroke:#000000;stroke-width:1.0;"/><text fill="#000000" font-family="sans-serif" font-size="13" lengthAdjust="spacing" textLength="23" x="1516.76" y="1003.6494">with</text><text fill="#000000" font-family="sans-serif" font-size="13" lengthAdjust="spacing" textLength="7" x="1305.3813" y="920.574">1</text><text fill="#000000" font-family="sans-serif" font-size="13" lengthAdjust="spacing" textLength="7" x="1843.0252" y="1003.5707">1</text></g><!--link JobApplication to Interview--><g id="link_JobApplication_Interview"><path codeLine="91" d="M1351,845.9711 C1351,826.0011 1351,802.1211 1351,802.1211 C1351,802.1211 1506.13,802.1211 1583.99,802.1211 " fill="none" id="JobApplication-Interview" style="stroke:#181818;stroke-width:1.0;"/><polygon fill="#000000" points="1419.4837,810.8418,1410.0511,809.6266,1411.1383,815.403,1419.4837,810.8418" style="stroke:#000000;stroke-width:1.0;"/><text fill="#000000" font-family="sans-serif" font-size="13" lengthAdjust="spacing" textLength="21" x="1423.57" y="817.1494">has</text><text fill="#000000" font-family="sans-serif" font-size="13" lengthAdjust="spacing" textLength="7" x="1352.0938" y="834.953">1</text><text fill="#000000" font-family="sans-serif" font-size="13" lengthAdjust="spacing" textLength="22" x="1553.9838" y="820.0202">0..1</text></g><!--link Interview to InterviewName--><g id="link_Interview_InterviewName"><path codeLine="93" d="M1671.3,784.6211 C1726.37,784.6211 1820.61,784.6211 1877.87,784.6211 " fill="none" id="Interview-InterviewName" style="stroke:#181818;stroke-width:1.0;"/><polygon fill="#000000" points="1700.58,794.2666,1691.5349,791.3277,1691.5349,797.2055,1700.58,794.2666" style="stroke:#000000;stroke-width:1.0;"/><text fill="#000000" font-family="sans-serif" font-size="13" lengthAdjust="spacing" textLength="69" x="1704.58" y="799.6494">identified by</text><text fill="#000000" font-family="sans-serif" font-size="13" lengthAdjust="spacing" textLength="7" x="1679.1341" y="800.1159">1</text><text fill="#000000" font-family="sans-serif" font-size="13" lengthAdjust="spacing" textLength="7" x="1862.8876" y="800.0053">1</text></g><!--link Interview to InterviewDescription--><g id="link_Interview_InterviewDescription"><path codeLine="94" d="M1628,758.0411 C1628,748.1911 1628,739.3711 1628,739.3711 C1628,739.3711 2004.8,739.3711 2160.45,739.3711 " fill="none" id="Interview-InterviewDescription" style="stroke:#181818;stroke-width:1.0;"/><polygon fill="#000000" points="1856.8869,748.8414,1847.7444,746.2212,1847.9504,752.0955,1856.8869,748.8414" style="stroke:#000000;stroke-width:1.0;"/><text fill="#000000" font-family="sans-serif" font-size="13" lengthAdjust="spacing" textLength="23" x="1860.89" y="754.3994">with</text><text fill="#000000" font-family="sans-serif" font-size="13" lengthAdjust="spacing" textLength="7" x="1620.3063" y="747.0391">1</text><text fill="#000000" font-family="sans-serif" font-size="13" lengthAdjust="spacing" textLength="7" x="2145.4083" y="753.4693">1</text></g><!--link InterviewModel to InterviewModelDesignation--><g id="link_InterviewModel_InterviewModelDesignation"><path codeLine="96" d="M1122,348.9111 C1122,310.3411 1122,243.6211 1122,243.6211 C1122,243.6211 1175.17,243.6211 1225.33,243.6211 " fill="none" id="InterviewModel-InterviewModelDesignation" style="stroke:#181818;stroke-width:1.0;"/><polygon fill="#000000" points="1046.5022,250.678,1038.0691,255.0751,1042.2643,259.1922,1046.5022,250.678" style="stroke:#000000;stroke-width:1.0;"/><text fill="#000000" font-family="sans-serif" font-size="13" lengthAdjust="spacing" textLength="69" x="1052" y="259.6294">identified by</text><text fill="#000000" font-family="sans-serif" font-size="13" lengthAdjust="spacing" textLength="7" x="1118.0063" y="337.8791">1</text><text fill="#000000" font-family="sans-serif" font-size="13" lengthAdjust="spacing" textLength="7" x="1210.538" y="258.4103">1</text></g><!--link InterviewModel to InterviewModelDescription--><g id="link_InterviewModel_InterviewModelDescription"><path codeLine="97" d="M1155.08,353.6211 C1176.73,353.6211 1202.75,353.6211 1227.34,353.6211 " fill="none" id="InterviewModel-InterviewModelDescription" style="stroke:#181818;stroke-width:1.0;"/><polygon fill="#000000" points="1163.21,344.2666,1154.1649,341.3277,1154.1649,347.2055,1163.21,344.2666" style="stroke:#000000;stroke-width:1.0;"/><text fill="#000000" font-family="sans-serif" font-size="13" lengthAdjust="spacing" textLength="23" x="1167.21" y="349.6494">with</text><text fill="#000000" font-family="sans-serif" font-size="13" lengthAdjust="spacing" textLength="7" x="1162.8761" y="365.7187">1</text><text fill="#000000" font-family="sans-serif" font-size="13" lengthAdjust="spacing" textLength="7" x="1212.4437" y="370.3974">1</text></g><!--link InterviewModel to InterviewModelFileExtension--><g id="link_InterviewModel_InterviewModelFileExtension"><path codeLine="98" d="M1155.08,397.6211 C1174.82,397.6211 1198.18,397.6211 1220.79,397.6211 " fill="none" id="InterviewModel-InterviewModelFileExtension" style="stroke:#181818;stroke-width:1.0;"/><polygon fill="#000000" points="1197.93,388.2666,1188.8849,385.3277,1188.8849,391.2055,1197.93,388.2666" style="stroke:#000000;stroke-width:1.0;"/><text fill="#000000" font-family="sans-serif" font-size="13" lengthAdjust="spacing" textLength="23" x="1201.93" y="393.6494">with</text><text fill="#000000" font-family="sans-serif" font-size="13" lengthAdjust="spacing" textLength="7" x="1162.8761" y="416.1812">1</text><text fill="#000000" font-family="sans-serif" font-size="13" lengthAdjust="spacing" textLength="7" x="1205.9054" y="410.5608">1</text></g><!--link InterviewModel to InterviewModelFQCLassName--><g id="link_InterviewModel_InterviewModelFQCLassName"><path codeLine="99" d="M1089,349.0811 C1089,290.5711 1089,155.6211 1089,155.6211 C1089,155.6211 1154.65,155.6211 1214.79,155.6211 " fill="none" id="InterviewModel-InterviewModelFQCLassName" style="stroke:#181818;stroke-width:1.0;"/><polygon fill="#000000" points="1058.7256,194.9048,1051.3311,200.8858,1056.2589,204.0899,1058.7256,194.9048" style="stroke:#000000;stroke-width:1.0;"/><text fill="#000000" font-family="sans-serif" font-size="13" lengthAdjust="spacing" textLength="23" x="1065" y="204.4794">with</text><text fill="#000000" font-family="sans-serif" font-size="13" lengthAdjust="spacing" textLength="7" x="1077.125" y="337.6548">1</text><text fill="#000000" font-family="sans-serif" font-size="13" lengthAdjust="spacing" textLength="7" x="1200.0411" y="170.3273">1</text></g><!--reverse link InterviewModel to ANTLR--><g id="link_InterviewModel_ANTLR"><path codeLine="101" d="M1106,408.3811 C1106,465.9511 1106,590.3711 1106,590.3711 C1106,590.3711 1227.05,590.3711 1283.79,590.3711 " fill="none" id="InterviewModel-backto-ANTLR" style="stroke:#181818;stroke-width:1.0;stroke-dasharray:7.0,7.0;"/><polygon fill="#181818" points="1106,402.3811,1102,411.3811,1106,407.3811,1110,411.3811,1106,402.3811" style="stroke:#181818;stroke-width:1.0;"/><polygon fill="#000000" points="1094.506,588.1945,1098.7245,596.7183,1102.929,592.6109,1094.506,588.1945" style="stroke:#000000;stroke-width:1.0;"/></g><!--SRC=[fLPBRzf04BxlhnXnIYiH9UhDGfKiS2BQyAWXwR5Qx06siNUjzPAKLldl7TjWrWyW3n-GFVFDDxFpMj978HEkUGm93nxv2cTc6o5e30oNgmXPMWBIDG_Liv0hMF8eHMQfWeYdgMkC5ekDmM6Wv4pyHRYo896GQBO9Wj9chHWpAW6ZOA6CKJ648lCeb6GHBascq6ArDfQShKM842CPXsdn4GWTK8JC24CX3rJCXOIH2Z62Yy7e4tJXld_rvPenjZiRpBQfmVW-HUskLXfNt23yOq1FVW9B3xsUhvG1JnBxzkjN2vIf9O-H80yysY1C5hyfo0fcV4RlKQoH6uOQwUC4Rae_pqg7xHYKcnXy5JLTxKwLFUvWD1oNN_txsNmoylnV8tVitdf-gPXCFT-TJ_m6yY1mnuFXm9rxkUI5lJ1M1Ec6iP1CAafcLbMrB2GEK1y4c9WDZuhZx0twcvIAZdh49LL5LqnhkZQIVJNxN8OYf1gs5xDKDshvSk3ufXQJ12LrTJl9GN-Y8mZaun8rKgJjbTgx6qg3-adWSzwcqvtqKAo2hufgPpo67c0gLf9dC_Dcmq2BvEs6Do92xuz1cRxTz4V_ZgJ7foNhihmxYdL0_N7qj0xOHxz8j7gY9H72OWkUExqRmetlZhoV4__xftEK-ppab6LItazPoP03rOHzWFQGFIBzqO_sgJnDQVU-coIH2FAK7Ur_2tDw1YpWcN785rVLOcQusQId5jdKe_qplZqijkdKdpnuWrBWUz-y_dmdU6cVkxCZz-e6FjwqBU2pmzLizBRqE40YgYsFTkbwL_CK3VFXQNddeEmlZV7ypgTSp3Ao02aDpBvzkzskjS0T42bmw36MtopGkUv0XkXyxjGl3CB6-LiAH5bNxWmBIsktqpMZaJmLHgLVsqzj4XpWsHTPq9yLChB8wawgPWJljQ2XStLvIQ-rtU_0ccT1jT9VTwfN3wKfH1hDfIXoNuHbko-TNNUEJcoJvTKakwvqu5cOzJ73nadBGxA3Q0-rSVd4DQEh6zMixCui0sErDBUvQrod9roVPsd6y5hZwdNnTdFhZZrw_bxtSZUH3dNdVm00]--></g></svg>