<?xml version="1.0" encoding="us-ascii" standalone="no"?><svg xmlns="http://www.w3.org/2000/svg" xmlns:xlink="http://www.w3.org/1999/xlink" contentStyleType="text/css" height="598px" preserveAspectRatio="none" style="width:632px;height:598px;background:#FFFFFF;" version="1.1" viewBox="0 0 632 598" width="632px" zoomAndPan="magnify"><defs/><g><!--class ListApplicationsUI--><g id="elem_ListApplicationsUI"><rect codeLine="8" fill="#F1F1F1" height="60.582" id="ListApplicationsUI" rx="2.5" ry="2.5" style="stroke:#181818;stroke-width:0.5;" width="142" x="321.5" y="7"/><ellipse cx="336.5" cy="29.291" fill="#ADD1B2" rx="11" ry="11" style="stroke:#181818;stroke-width:1.0;"/><path d="M339.2656,25.166 Q339.4219,24.9473 339.6094,24.8379 Q339.7969,24.7285 340.0156,24.7285 Q340.3906,24.7285 340.625,24.9941 Q340.8594,25.2441 340.8594,25.8535 L340.8594,27.3066 Q340.8594,27.916 340.625,28.1816 Q340.3906,28.4473 340.0156,28.4473 Q339.6719,28.4473 339.4688,28.2441 Q339.2656,28.0566 339.1563,27.541 Q339.1094,27.1816 338.9219,26.9941 Q338.5938,26.6191 337.9844,26.4004 Q337.375,26.1816 336.75,26.1816 Q335.9844,26.1816 335.3438,26.5098 Q334.7188,26.8379 334.2188,27.5879 Q333.7344,28.3379 333.7344,29.3691 L333.7344,30.4629 Q333.7344,31.6973 334.625,32.5254 Q335.5156,33.3379 337.1094,33.3379 Q338.0469,33.3379 338.7031,33.0879 Q339.0938,32.9316 339.5156,32.4941 Q339.7813,32.2285 339.9219,32.1504 Q340.0781,32.0723 340.2813,32.0723 Q340.6094,32.0723 340.8594,32.3379 Q341.125,32.5879 341.125,32.9316 Q341.125,33.2754 340.7813,33.6816 Q340.2813,34.2598 339.4844,34.5879 Q338.4063,35.041 337.1094,35.041 Q335.5938,35.041 334.3906,34.416 Q333.4063,33.916 332.7188,32.8535 Q332.0313,31.7754 332.0313,30.4941 L332.0313,29.3379 Q332.0313,28.0098 332.6406,26.8691 Q333.2656,25.7129 334.3594,25.1035 Q335.4531,24.4785 336.6875,24.4785 Q337.4219,24.4785 338.0625,24.6504 Q338.7188,24.8066 339.2656,25.166 Z " fill="#000000"/><text fill="#000000" font-family="sans-serif" font-size="12" font-style="italic" lengthAdjust="spacing" textLength="61" x="375" y="24.9492">&#171;interface&#187;</text><text fill="#000000" font-family="sans-serif" font-size="14" lengthAdjust="spacing" textLength="110" x="350.5" y="43.0684">ListApplicationsUI</text><line style="stroke:#181818;stroke-width:0.5;" x1="322.5" x2="462.5" y1="51.582" y2="51.582"/><line style="stroke:#181818;stroke-width:0.5;" x1="322.5" x2="462.5" y1="59.582" y2="59.582"/></g><!--class ListApplicationController--><g id="elem_ListApplicationController"><rect codeLine="10" fill="#F1F1F1" height="60.582" id="ListApplicationController" rx="2.5" ry="2.5" style="stroke:#181818;stroke-width:0.5;" width="185" x="300" y="129"/><ellipse cx="315" cy="151.291" fill="#ADD1B2" rx="11" ry="11" style="stroke:#181818;stroke-width:1.0;"/><path d="M317.7656,147.166 Q317.9219,146.9473 318.1094,146.8379 Q318.2969,146.7285 318.5156,146.7285 Q318.8906,146.7285 319.125,146.9941 Q319.3594,147.2441 319.3594,147.8535 L319.3594,149.3066 Q319.3594,149.916 319.125,150.1816 Q318.8906,150.4473 318.5156,150.4473 Q318.1719,150.4473 317.9688,150.2441 Q317.7656,150.0566 317.6563,149.541 Q317.6094,149.1816 317.4219,148.9941 Q317.0938,148.6191 316.4844,148.4004 Q315.875,148.1816 315.25,148.1816 Q314.4844,148.1816 313.8438,148.5098 Q313.2188,148.8379 312.7188,149.5879 Q312.2344,150.3379 312.2344,151.3691 L312.2344,152.4629 Q312.2344,153.6973 313.125,154.5254 Q314.0156,155.3379 315.6094,155.3379 Q316.5469,155.3379 317.2031,155.0879 Q317.5938,154.9316 318.0156,154.4941 Q318.2813,154.2285 318.4219,154.1504 Q318.5781,154.0723 318.7813,154.0723 Q319.1094,154.0723 319.3594,154.3379 Q319.625,154.5879 319.625,154.9316 Q319.625,155.2754 319.2813,155.6816 Q318.7813,156.2598 317.9844,156.5879 Q316.9063,157.041 315.6094,157.041 Q314.0938,157.041 312.8906,156.416 Q311.9063,155.916 311.2188,154.8535 Q310.5313,153.7754 310.5313,152.4941 L310.5313,151.3379 Q310.5313,150.0098 311.1406,148.8691 Q311.7656,147.7129 312.8594,147.1035 Q313.9531,146.4785 315.1875,146.4785 Q315.9219,146.4785 316.5625,146.6504 Q317.2188,146.8066 317.7656,147.166 Z " fill="#000000"/><text fill="#000000" font-family="sans-serif" font-size="12" font-style="italic" lengthAdjust="spacing" textLength="65" x="373" y="146.9492">&#171;controller&#187;</text><text fill="#000000" font-family="sans-serif" font-size="14" lengthAdjust="spacing" textLength="153" x="329" y="165.0684">ListApplicationController</text><line style="stroke:#181818;stroke-width:0.5;" x1="301" x2="484" y1="173.582" y2="173.582"/><line style="stroke:#181818;stroke-width:0.5;" x1="301" x2="484" y1="181.582" y2="181.582"/></g><!--class ApplicationRepository--><g id="elem_ApplicationRepository"><rect codeLine="12" fill="#F1F1F1" height="60.582" id="ApplicationRepository" rx="2.5" ry="2.5" style="stroke:#181818;stroke-width:0.5;" width="169" x="191" y="269"/><ellipse cx="206" cy="291.291" fill="#ADD1B2" rx="11" ry="11" style="stroke:#181818;stroke-width:1.0;"/><path d="M208.7656,287.166 Q208.9219,286.9473 209.1094,286.8379 Q209.2969,286.7285 209.5156,286.7285 Q209.8906,286.7285 210.125,286.9941 Q210.3594,287.2441 210.3594,287.8535 L210.3594,289.3066 Q210.3594,289.916 210.125,290.1816 Q209.8906,290.4473 209.5156,290.4473 Q209.1719,290.4473 208.9688,290.2441 Q208.7656,290.0566 208.6563,289.541 Q208.6094,289.1816 208.4219,288.9941 Q208.0938,288.6191 207.4844,288.4004 Q206.875,288.1816 206.25,288.1816 Q205.4844,288.1816 204.8438,288.5098 Q204.2188,288.8379 203.7188,289.5879 Q203.2344,290.3379 203.2344,291.3691 L203.2344,292.4629 Q203.2344,293.6973 204.125,294.5254 Q205.0156,295.3379 206.6094,295.3379 Q207.5469,295.3379 208.2031,295.0879 Q208.5938,294.9316 209.0156,294.4941 Q209.2813,294.2285 209.4219,294.1504 Q209.5781,294.0723 209.7813,294.0723 Q210.1094,294.0723 210.3594,294.3379 Q210.625,294.5879 210.625,294.9316 Q210.625,295.2754 210.2813,295.6816 Q209.7813,296.2598 208.9844,296.5879 Q207.9063,297.041 206.6094,297.041 Q205.0938,297.041 203.8906,296.416 Q202.9063,295.916 202.2188,294.8535 Q201.5313,293.7754 201.5313,292.4941 L201.5313,291.3379 Q201.5313,290.0098 202.1406,288.8691 Q202.7656,287.7129 203.8594,287.1035 Q204.9531,286.4785 206.1875,286.4785 Q206.9219,286.4785 207.5625,286.6504 Q208.2188,286.8066 208.7656,287.166 Z " fill="#000000"/><text fill="#000000" font-family="sans-serif" font-size="12" font-style="italic" lengthAdjust="spacing" textLength="68" x="254.5" y="286.9492">&#171;repository&#187;</text><text fill="#000000" font-family="sans-serif" font-size="14" lengthAdjust="spacing" textLength="137" x="220" y="305.0684">ApplicationRepository</text><line style="stroke:#181818;stroke-width:0.5;" x1="192" x2="359" y1="313.582" y2="313.582"/><line style="stroke:#181818;stroke-width:0.5;" x1="192" x2="359" y1="321.582" y2="321.582"/></g><!--class ApplicationManagementService--><g id="elem_ApplicationManagementService"><rect codeLine="14" fill="#F1F1F1" height="60.582" id="ApplicationManagementService" rx="2.5" ry="2.5" style="stroke:#181818;stroke-width:0.5;" width="230" x="395.5" y="269"/><ellipse cx="410.5" cy="291.291" fill="#ADD1B2" rx="11" ry="11" style="stroke:#181818;stroke-width:1.0;"/><path d="M413.2656,287.166 Q413.4219,286.9473 413.6094,286.8379 Q413.7969,286.7285 414.0156,286.7285 Q414.3906,286.7285 414.625,286.9941 Q414.8594,287.2441 414.8594,287.8535 L414.8594,289.3066 Q414.8594,289.916 414.625,290.1816 Q414.3906,290.4473 414.0156,290.4473 Q413.6719,290.4473 413.4688,290.2441 Q413.2656,290.0566 413.1563,289.541 Q413.1094,289.1816 412.9219,288.9941 Q412.5938,288.6191 411.9844,288.4004 Q411.375,288.1816 410.75,288.1816 Q409.9844,288.1816 409.3438,288.5098 Q408.7188,288.8379 408.2188,289.5879 Q407.7344,290.3379 407.7344,291.3691 L407.7344,292.4629 Q407.7344,293.6973 408.625,294.5254 Q409.5156,295.3379 411.1094,295.3379 Q412.0469,295.3379 412.7031,295.0879 Q413.0938,294.9316 413.5156,294.4941 Q413.7813,294.2285 413.9219,294.1504 Q414.0781,294.0723 414.2813,294.0723 Q414.6094,294.0723 414.8594,294.3379 Q415.125,294.5879 415.125,294.9316 Q415.125,295.2754 414.7813,295.6816 Q414.2813,296.2598 413.4844,296.5879 Q412.4063,297.041 411.1094,297.041 Q409.5938,297.041 408.3906,296.416 Q407.4063,295.916 406.7188,294.8535 Q406.0313,293.7754 406.0313,292.4941 L406.0313,291.3379 Q406.0313,290.0098 406.6406,288.8691 Q407.2656,287.7129 408.3594,287.1035 Q409.4531,286.4785 410.6875,286.4785 Q411.4219,286.4785 412.0625,286.6504 Q412.7188,286.8066 413.2656,287.166 Z " fill="#000000"/><text fill="#000000" font-family="sans-serif" font-size="12" font-style="italic" lengthAdjust="spacing" textLength="53" x="497" y="286.9492">&#171;service&#187;</text><text fill="#000000" font-family="sans-serif" font-size="14" lengthAdjust="spacing" textLength="198" x="424.5" y="305.0684">ApplicationManagementService</text><line style="stroke:#181818;stroke-width:0.5;" x1="396.5" x2="624.5" y1="313.582" y2="313.582"/><line style="stroke:#181818;stroke-width:0.5;" x1="396.5" x2="624.5" y1="321.582" y2="321.582"/></g><!--class Application--><g id="elem_Application"><rect codeLine="17" fill="#F1F1F1" height="60.582" id="Application" rx="2.5" ry="2.5" style="stroke:#181818;stroke-width:0.5;" width="101" x="225" y="409"/><ellipse cx="240" cy="431.291" fill="#ADD1B2" rx="11" ry="11" style="stroke:#181818;stroke-width:1.0;"/><path d="M242.7656,427.166 Q242.9219,426.9473 243.1094,426.8379 Q243.2969,426.7285 243.5156,426.7285 Q243.8906,426.7285 244.125,426.9941 Q244.3594,427.2441 244.3594,427.8535 L244.3594,429.3066 Q244.3594,429.916 244.125,430.1816 Q243.8906,430.4473 243.5156,430.4473 Q243.1719,430.4473 242.9688,430.2441 Q242.7656,430.0566 242.6563,429.541 Q242.6094,429.1816 242.4219,428.9941 Q242.0938,428.6191 241.4844,428.4004 Q240.875,428.1816 240.25,428.1816 Q239.4844,428.1816 238.8438,428.5098 Q238.2188,428.8379 237.7188,429.5879 Q237.2344,430.3379 237.2344,431.3691 L237.2344,432.4629 Q237.2344,433.6973 238.125,434.5254 Q239.0156,435.3379 240.6094,435.3379 Q241.5469,435.3379 242.2031,435.0879 Q242.5938,434.9316 243.0156,434.4941 Q243.2813,434.2285 243.4219,434.1504 Q243.5781,434.0723 243.7813,434.0723 Q244.1094,434.0723 244.3594,434.3379 Q244.625,434.5879 244.625,434.9316 Q244.625,435.2754 244.2813,435.6816 Q243.7813,436.2598 242.9844,436.5879 Q241.9063,437.041 240.6094,437.041 Q239.0938,437.041 237.8906,436.416 Q236.9063,435.916 236.2188,434.8535 Q235.5313,433.7754 235.5313,432.4941 L235.5313,431.3379 Q235.5313,430.0098 236.1406,428.8691 Q236.7656,427.7129 237.8594,427.1035 Q238.9531,426.4785 240.1875,426.4785 Q240.9219,426.4785 241.5625,426.6504 Q242.2188,426.8066 242.7656,427.166 Z " fill="#000000"/><text fill="#000000" font-family="sans-serif" font-size="12" font-style="italic" lengthAdjust="spacing" textLength="35" x="271" y="426.9492">&#171;root&#187;</text><text fill="#000000" font-family="sans-serif" font-size="14" lengthAdjust="spacing" textLength="69" x="254" y="445.0684">Application</text><line style="stroke:#181818;stroke-width:0.5;" x1="226" x2="325" y1="453.582" y2="453.582"/><line style="stroke:#181818;stroke-width:0.5;" x1="226" x2="325" y1="461.582" y2="461.582"/></g><!--class ApplicationReference--><g id="elem_ApplicationReference"><rect codeLine="19" fill="#F1F1F1" height="60.582" id="ApplicationReference" rx="2.5" ry="2.5" style="stroke:#181818;stroke-width:0.5;" width="167" x="7" y="531"/><ellipse cx="22" cy="553.291" fill="#ADD1B2" rx="11" ry="11" style="stroke:#181818;stroke-width:1.0;"/><path d="M24.7656,549.166 Q24.9219,548.9473 25.1094,548.8379 Q25.2969,548.7285 25.5156,548.7285 Q25.8906,548.7285 26.125,548.9941 Q26.3594,549.2441 26.3594,549.8535 L26.3594,551.3066 Q26.3594,551.916 26.125,552.1816 Q25.8906,552.4473 25.5156,552.4473 Q25.1719,552.4473 24.9688,552.2441 Q24.7656,552.0566 24.6563,551.541 Q24.6094,551.1816 24.4219,550.9941 Q24.0938,550.6191 23.4844,550.4004 Q22.875,550.1816 22.25,550.1816 Q21.4844,550.1816 20.8438,550.5098 Q20.2188,550.8379 19.7188,551.5879 Q19.2344,552.3379 19.2344,553.3691 L19.2344,554.4629 Q19.2344,555.6973 20.125,556.5254 Q21.0156,557.3379 22.6094,557.3379 Q23.5469,557.3379 24.2031,557.0879 Q24.5938,556.9316 25.0156,556.4941 Q25.2813,556.2285 25.4219,556.1504 Q25.5781,556.0723 25.7813,556.0723 Q26.1094,556.0723 26.3594,556.3379 Q26.625,556.5879 26.625,556.9316 Q26.625,557.2754 26.2813,557.6816 Q25.7813,558.2598 24.9844,558.5879 Q23.9063,559.041 22.6094,559.041 Q21.0938,559.041 19.8906,558.416 Q18.9063,557.916 18.2188,556.8535 Q17.5313,555.7754 17.5313,554.4941 L17.5313,553.3379 Q17.5313,552.0098 18.1406,550.8691 Q18.7656,549.7129 19.8594,549.1035 Q20.9531,548.4785 22.1875,548.4785 Q22.9219,548.4785 23.5625,548.6504 Q24.2188,548.8066 24.7656,549.166 Z " fill="#000000"/><text fill="#000000" font-family="sans-serif" font-size="12" font-style="italic" lengthAdjust="spacing" textLength="85" x="61" y="548.9492">&#171;Value Object&#187;</text><text fill="#000000" font-family="sans-serif" font-size="14" lengthAdjust="spacing" textLength="135" x="36" y="567.0684">ApplicationReference</text><line style="stroke:#181818;stroke-width:0.5;" x1="8" x2="173" y1="575.582" y2="575.582"/><line style="stroke:#181818;stroke-width:0.5;" x1="8" x2="173" y1="583.582" y2="583.582"/></g><!--class CurriculumVitae--><g id="elem_CurriculumVitae"><rect codeLine="20" fill="#F1F1F1" height="60.582" id="CurriculumVitae" rx="2.5" ry="2.5" style="stroke:#181818;stroke-width:0.5;" width="132" x="209.5" y="531"/><ellipse cx="224.5" cy="553.291" fill="#ADD1B2" rx="11" ry="11" style="stroke:#181818;stroke-width:1.0;"/><path d="M227.2656,549.166 Q227.4219,548.9473 227.6094,548.8379 Q227.7969,548.7285 228.0156,548.7285 Q228.3906,548.7285 228.625,548.9941 Q228.8594,549.2441 228.8594,549.8535 L228.8594,551.3066 Q228.8594,551.916 228.625,552.1816 Q228.3906,552.4473 228.0156,552.4473 Q227.6719,552.4473 227.4688,552.2441 Q227.2656,552.0566 227.1563,551.541 Q227.1094,551.1816 226.9219,550.9941 Q226.5938,550.6191 225.9844,550.4004 Q225.375,550.1816 224.75,550.1816 Q223.9844,550.1816 223.3438,550.5098 Q222.7188,550.8379 222.2188,551.5879 Q221.7344,552.3379 221.7344,553.3691 L221.7344,554.4629 Q221.7344,555.6973 222.625,556.5254 Q223.5156,557.3379 225.1094,557.3379 Q226.0469,557.3379 226.7031,557.0879 Q227.0938,556.9316 227.5156,556.4941 Q227.7813,556.2285 227.9219,556.1504 Q228.0781,556.0723 228.2813,556.0723 Q228.6094,556.0723 228.8594,556.3379 Q229.125,556.5879 229.125,556.9316 Q229.125,557.2754 228.7813,557.6816 Q228.2813,558.2598 227.4844,558.5879 Q226.4063,559.041 225.1094,559.041 Q223.5938,559.041 222.3906,558.416 Q221.4063,557.916 220.7188,556.8535 Q220.0313,555.7754 220.0313,554.4941 L220.0313,553.3379 Q220.0313,552.0098 220.6406,550.8691 Q221.2656,549.7129 222.3594,549.1035 Q223.4531,548.4785 224.6875,548.4785 Q225.4219,548.4785 226.0625,548.6504 Q226.7188,548.8066 227.2656,549.166 Z " fill="#000000"/><text fill="#000000" font-family="sans-serif" font-size="12" font-style="italic" lengthAdjust="spacing" textLength="85" x="246" y="548.9492">&#171;Value Object&#187;</text><text fill="#000000" font-family="sans-serif" font-size="14" lengthAdjust="spacing" textLength="100" x="238.5" y="567.0684">CurriculumVitae</text><line style="stroke:#181818;stroke-width:0.5;" x1="210.5" x2="340.5" y1="575.582" y2="575.582"/><line style="stroke:#181818;stroke-width:0.5;" x1="210.5" x2="340.5" y1="583.582" y2="583.582"/></g><!--class JobApplicationStatus--><g id="elem_JobApplicationStatus"><rect codeLine="22" fill="#F1F1F1" height="60.582" id="JobApplicationStatus" rx="2.5" ry="2.5" style="stroke:#181818;stroke-width:0.5;" width="163" x="377" y="531"/><ellipse cx="392" cy="553.291" fill="#ADD1B2" rx="11" ry="11" style="stroke:#181818;stroke-width:1.0;"/><path d="M394.7656,549.166 Q394.9219,548.9473 395.1094,548.8379 Q395.2969,548.7285 395.5156,548.7285 Q395.8906,548.7285 396.125,548.9941 Q396.3594,549.2441 396.3594,549.8535 L396.3594,551.3066 Q396.3594,551.916 396.125,552.1816 Q395.8906,552.4473 395.5156,552.4473 Q395.1719,552.4473 394.9688,552.2441 Q394.7656,552.0566 394.6563,551.541 Q394.6094,551.1816 394.4219,550.9941 Q394.0938,550.6191 393.4844,550.4004 Q392.875,550.1816 392.25,550.1816 Q391.4844,550.1816 390.8438,550.5098 Q390.2188,550.8379 389.7188,551.5879 Q389.2344,552.3379 389.2344,553.3691 L389.2344,554.4629 Q389.2344,555.6973 390.125,556.5254 Q391.0156,557.3379 392.6094,557.3379 Q393.5469,557.3379 394.2031,557.0879 Q394.5938,556.9316 395.0156,556.4941 Q395.2813,556.2285 395.4219,556.1504 Q395.5781,556.0723 395.7813,556.0723 Q396.1094,556.0723 396.3594,556.3379 Q396.625,556.5879 396.625,556.9316 Q396.625,557.2754 396.2813,557.6816 Q395.7813,558.2598 394.9844,558.5879 Q393.9063,559.041 392.6094,559.041 Q391.0938,559.041 389.8906,558.416 Q388.9063,557.916 388.2188,556.8535 Q387.5313,555.7754 387.5313,554.4941 L387.5313,553.3379 Q387.5313,552.0098 388.1406,550.8691 Q388.7656,549.7129 389.8594,549.1035 Q390.9531,548.4785 392.1875,548.4785 Q392.9219,548.4785 393.5625,548.6504 Q394.2188,548.8066 394.7656,549.166 Z " fill="#000000"/><text fill="#000000" font-family="sans-serif" font-size="12" font-style="italic" lengthAdjust="spacing" textLength="44" x="449.5" y="548.9492">&#171;Entity&#187;</text><text fill="#000000" font-family="sans-serif" font-size="14" lengthAdjust="spacing" textLength="131" x="406" y="567.0684">JobApplicationStatus</text><line style="stroke:#181818;stroke-width:0.5;" x1="378" x2="539" y1="575.582" y2="575.582"/><line style="stroke:#181818;stroke-width:0.5;" x1="378" x2="539" y1="583.582" y2="583.582"/></g><!--link ListApplicationsUI to ListApplicationController--><g id="link_ListApplicationsUI_ListApplicationController"><path codeLine="24" d="M392.5,68.16 C392.5,86.62 392.5,104.29 392.5,122.76 " fill="none" id="ListApplicationsUI-to-ListApplicationController" style="stroke:#181818;stroke-width:1.0;stroke-dasharray:7.0,7.0;"/><polygon fill="#181818" points="392.5,128.76,396.5,119.76,392.5,123.76,388.5,119.76,392.5,128.76" style="stroke:#181818;stroke-width:1.0;"/></g><!--link ListApplicationController to ApplicationRepository--><g id="link_ListApplicationController_ApplicationRepository"><path codeLine="26" d="M367.4,190.1 C347.66,213.39 324.1702,241.0936 304.4402,264.3636 " fill="none" id="ListApplicationController-to-ApplicationRepository" style="stroke:#181818;stroke-width:1.0;stroke-dasharray:7.0,7.0;"/><polygon fill="#181818" points="300.56,268.94,309.4313,264.6622,303.7935,265.1263,303.3294,259.4885,300.56,268.94" style="stroke:#181818;stroke-width:1.0;"/><polygon fill="#000000" points="343.2667,233.4594,351.3576,228.4605,346.8741,224.6595,343.2667,233.4594" style="stroke:#000000;stroke-width:1.0;"/><text fill="#000000" font-family="sans-serif" font-size="13" lengthAdjust="spacing" textLength="56" x="355.5" y="235.0283">accesses</text></g><!--link ApplicationRepository to Application--><g id="link_ApplicationRepository_Application"><path codeLine="28" d="M275.5,330.1 C275.5,353.39 275.5,379.67 275.5,402.94 " fill="none" id="ApplicationRepository-to-Application" style="stroke:#181818;stroke-width:1.0;stroke-dasharray:7.0,7.0;"/><polygon fill="#181818" points="275.5,408.94,279.5,399.94,275.5,403.94,271.5,399.94,275.5,408.94" style="stroke:#181818;stroke-width:1.0;"/><polygon fill="#000000" points="280.5,374.6455,283.4389,365.6004,277.5611,365.6004,280.5,374.6455" style="stroke:#000000;stroke-width:1.0;"/><text fill="#000000" font-family="sans-serif" font-size="13" lengthAdjust="spacing" textLength="104" x="289.5" y="375.0283">saves in database</text></g><!--link ListApplicationController to ApplicationManagementService--><g id="link_ListApplicationController_ApplicationManagementService"><path codeLine="29" d="M417.81,190.1 C437.72,213.39 461.4304,241.11 481.3304,264.38 " fill="none" id="ListApplicationController-to-ApplicationManagementService" style="stroke:#181818;stroke-width:1.0;stroke-dasharray:7.0,7.0;"/><polygon fill="#181818" points="485.23,268.94,482.4206,259.5003,481.9803,265.14,476.3407,264.6998,485.23,268.94" style="stroke:#181818;stroke-width:1.0;"/><polygon fill="#000000" points="467.7496,233.4455,464.1046,224.6612,459.6374,228.4813,467.7496,233.4455" style="stroke:#000000;stroke-width:1.0;"/><text fill="#000000" font-family="sans-serif" font-size="13" lengthAdjust="spacing" textLength="28" x="473.5" y="235.0283">uses</text></g><!--link Application to ApplicationReference--><g id="link_Application_ApplicationReference"><path codeLine="32" d="M229.77,470.16 C201.2,488.69 169.5834,509.1943 141.0534,527.7043 " fill="none" id="Application-to-ApplicationReference" style="stroke:#181818;stroke-width:1.0;stroke-dasharray:7.0,7.0;"/><polygon fill="#181818" points="136.02,530.97,145.7473,529.4272,140.2145,528.2486,141.3931,522.7159,136.02,530.97" style="stroke:#181818;stroke-width:1.0;"/></g><!--link Application to CurriculumVitae--><g id="link_Application_CurriculumVitae"><path codeLine="33" d="M275.5,470.16 C275.5,488.62 275.5,506.29 275.5,524.76 " fill="none" id="Application-to-CurriculumVitae" style="stroke:#181818;stroke-width:1.0;stroke-dasharray:7.0,7.0;"/><polygon fill="#181818" points="275.5,530.76,279.5,521.76,275.5,525.76,271.5,521.76,275.5,530.76" style="stroke:#181818;stroke-width:1.0;"/></g><!--link Application to JobApplicationStatus--><g id="link_Application_JobApplicationStatus"><path codeLine="35" d="M320.74,470.16 C349,488.69 380.2329,509.1692 408.4529,527.6792 " fill="none" id="Application-to-JobApplicationStatus" style="stroke:#181818;stroke-width:1.0;stroke-dasharray:7.0,7.0;"/><polygon fill="#181818" points="413.47,530.97,408.1383,522.6891,409.2891,528.2277,403.7506,529.3785,413.47,530.97" style="stroke:#181818;stroke-width:1.0;"/></g><!--SRC=[ZP71QiCm38RlVWe_GTcvb48fEtHi31hMk-AgcLPNDfRSaJtzdBHqeKbXjmXzloH_aIDnX0Gd6y4TeS5AMuyseLFWngEH6o2Vi0_Vn8qzW9TXnnEZjX5j3Bxj2ZDeEWyYAzL4TLRSkC0L_Q1zCiRqBVjAegiOFJbG2YmV6xjO42kc0pXSBXzmwy2QWlUO2kvknHy_OBSOWv26r1OstOf9zWsuQ3WXQuNfJ0vBH2vV7JyET2D3q0UB3vYG-o4xy1djU_rLt1RumgvpIkIopwSTAKnWL-ubr8EnbO9cAV0pAsd_ZWcBizdoiRHHOk2p2qxRcrjm3aLGRDavpTobIqRWN0B4TWyADGYMyB-tZ__7tERh0SCBnbTVrO-WE-VZALEoZVa5]--></g></svg>