<?xml version="1.0" encoding="us-ascii" standalone="no"?><svg xmlns="http://www.w3.org/2000/svg" xmlns:xlink="http://www.w3.org/1999/xlink" contentStyleType="text/css" height="645px" preserveAspectRatio="none" style="width:1147px;height:645px;background:#FFFFFF;" version="1.1" viewBox="0 0 1147 645" width="1147px" zoomAndPan="magnify"><defs/><g><rect fill="#FFFFFF" height="438.4141" style="stroke:#181818;stroke-width:1.0;" width="10" x="76.5" y="98.2422"/><rect fill="#FFFFFF" height="31.291" style="stroke:#181818;stroke-width:1.0;" width="10" x="426.5" y="121.5332"/><rect fill="#FFFFFF" height="31.291" style="stroke:#181818;stroke-width:1.0;" width="10" x="426.5" y="184.1152"/><rect fill="#FFFFFF" height="105.5039" style="stroke:#181818;stroke-width:1.0;" width="10" x="426.5" y="416.1523"/><rect fill="#FFFFFF" height="200.7461" style="stroke:#181818;stroke-width:1.0;" width="10" x="593.5" y="215.4063"/><rect fill="#FFFFFF" height="169.4551" style="stroke:#181818;stroke-width:1.0;" width="10" x="804" y="215.4063"/><rect fill="#FFFFFF" height="106.873" style="stroke:#181818;stroke-width:1.0;" width="10" x="998.5" y="277.9883"/><rect fill="none" height="98.5039" style="stroke:#000000;stroke-width:1.5;" width="497.5" x="10" y="431.1523"/><line style="stroke:#181818;stroke-width:0.5;stroke-dasharray:5.0,5.0;" x1="81" x2="81" y1="88.2422" y2="546.6563"/><line style="stroke:#181818;stroke-width:0.5;stroke-dasharray:5.0,5.0;" x1="431.5" x2="431.5" y1="88.2422" y2="546.6563"/><line style="stroke:#181818;stroke-width:0.5;stroke-dasharray:5.0,5.0;" x1="598.5" x2="598.5" y1="88.2422" y2="546.6563"/><line style="stroke:#181818;stroke-width:0.5;stroke-dasharray:5.0,5.0;" x1="808.5" x2="808.5" y1="88.2422" y2="546.6563"/><line style="stroke:#181818;stroke-width:0.5;stroke-dasharray:5.0,5.0;" x1="1003.5" x2="1003.5" y1="88.2422" y2="546.6563"/><text fill="#000000" font-family="sans-serif" font-size="14" lengthAdjust="spacing" textLength="117" x="20" y="84.7285">CustomerManager</text><ellipse cx="81.5" cy="18.1211" fill="#E3E3E3" rx="8" ry="8" style="stroke:#181818;stroke-width:0.5;"/><path d="M81.5,26.1211 L81.5,53.1211 M68.5,34.1211 L94.5,34.1211 M81.5,53.1211 L68.5,68.1211 M81.5,53.1211 L94.5,68.1211 " fill="none" style="stroke:#181818;stroke-width:0.5;"/><text fill="#000000" font-family="sans-serif" font-size="14" lengthAdjust="spacing" textLength="117" x="20" y="560.7637">CustomerManager</text><ellipse cx="81.5" cy="572.7773" fill="#E3E3E3" rx="8" ry="8" style="stroke:#181818;stroke-width:0.5;"/><path d="M81.5,580.7773 L81.5,607.7773 M68.5,588.7773 L94.5,588.7773 M81.5,607.7773 L68.5,622.7773 M81.5,607.7773 L94.5,622.7773 " fill="none" style="stroke:#181818;stroke-width:0.5;"/><rect fill="#E3E3E3" height="51.2422" rx="2.5" ry="2.5" style="stroke:#181818;stroke-width:0.5;" width="132" x="365.5" y="36"/><text fill="#000000" font-family="sans-serif" font-size="14" font-style="italic" lengthAdjust="spacing" textLength="95" x="384" y="58.1074">&#171;presentation&#187;</text><text fill="#000000" font-family="sans-serif" font-size="14" lengthAdjust="spacing" textLength="118" x="372.5" y="76.7285">: ListApplicationsUI</text><rect fill="#E3E3E3" height="51.2422" rx="2.5" ry="2.5" style="stroke:#181818;stroke-width:0.5;" width="132" x="365.5" y="545.6563"/><text fill="#000000" font-family="sans-serif" font-size="14" font-style="italic" lengthAdjust="spacing" textLength="95" x="384" y="567.7637">&#171;presentation&#187;</text><text fill="#000000" font-family="sans-serif" font-size="14" lengthAdjust="spacing" textLength="118" x="372.5" y="586.3848">: ListApplicationsUI</text><rect fill="#E3E3E3" height="51.2422" rx="2.5" ry="2.5" style="stroke:#181818;stroke-width:0.5;" width="182" x="507.5" y="36"/><text fill="#000000" font-family="sans-serif" font-size="14" font-style="italic" lengthAdjust="spacing" textLength="84" x="556.5" y="58.1074">&#171;application&#187;</text><text fill="#000000" font-family="sans-serif" font-size="14" lengthAdjust="spacing" textLength="168" x="514.5" y="76.7285">: ListApplicationsController</text><rect fill="#E3E3E3" height="51.2422" rx="2.5" ry="2.5" style="stroke:#181818;stroke-width:0.5;" width="182" x="507.5" y="545.6563"/><text fill="#000000" font-family="sans-serif" font-size="14" font-style="italic" lengthAdjust="spacing" textLength="84" x="556.5" y="567.7637">&#171;application&#187;</text><text fill="#000000" font-family="sans-serif" font-size="14" lengthAdjust="spacing" textLength="168" x="514.5" y="586.3848">: ListApplicationsController</text><rect fill="#E3E3E3" height="51.2422" rx="2.5" ry="2.5" style="stroke:#181818;stroke-width:0.5;" width="219" x="699.5" y="36"/><text fill="#000000" font-family="sans-serif" font-size="14" font-style="italic" lengthAdjust="spacing" textLength="60" x="779" y="58.1074">&#171;service&#187;</text><text fill="#000000" font-family="sans-serif" font-size="14" lengthAdjust="spacing" textLength="205" x="706.5" y="76.7285">ApplicationsManagementService</text><rect fill="#E3E3E3" height="51.2422" rx="2.5" ry="2.5" style="stroke:#181818;stroke-width:0.5;" width="219" x="699.5" y="545.6563"/><text fill="#000000" font-family="sans-serif" font-size="14" font-style="italic" lengthAdjust="spacing" textLength="60" x="779" y="567.7637">&#171;service&#187;</text><text fill="#000000" font-family="sans-serif" font-size="14" lengthAdjust="spacing" textLength="205" x="706.5" y="586.3848">ApplicationsManagementService</text><text fill="#000000" font-family="sans-serif" font-size="14" font-style="italic" lengthAdjust="spacing" textLength="79" x="961" y="66.1074">&#171;repository&#187;</text><text fill="#000000" font-family="sans-serif" font-size="14" lengthAdjust="spacing" textLength="144" x="928.5" y="84.7285">ApplicationsRepository</text><path d="M985.5,15 C985.5,5 1003.5,5 1003.5,5 C1003.5,5 1021.5,5 1021.5,15 L1021.5,41 C1021.5,51 1003.5,51 1003.5,51 C1003.5,51 985.5,51 985.5,41 L985.5,15 " fill="#E3E3E3" style="stroke:#181818;stroke-width:1.5;"/><path d="M985.5,15 C985.5,25 1003.5,25 1003.5,25 C1003.5,25 1021.5,25 1021.5,15 " fill="none" style="stroke:#181818;stroke-width:1.5;"/><text fill="#000000" font-family="sans-serif" font-size="14" font-style="italic" lengthAdjust="spacing" textLength="79" x="961" y="560.7637">&#171;repository&#187;</text><text fill="#000000" font-family="sans-serif" font-size="14" lengthAdjust="spacing" textLength="144" x="928.5" y="579.3848">ApplicationsRepository</text><path d="M985.5,592.8984 C985.5,582.8984 1003.5,582.8984 1003.5,582.8984 C1003.5,582.8984 1021.5,582.8984 1021.5,592.8984 L1021.5,618.8984 C1021.5,628.8984 1003.5,628.8984 1003.5,628.8984 C1003.5,628.8984 985.5,628.8984 985.5,618.8984 L985.5,592.8984 " fill="#E3E3E3" style="stroke:#181818;stroke-width:1.5;"/><path d="M985.5,592.8984 C985.5,602.8984 1003.5,602.8984 1003.5,602.8984 C1003.5,602.8984 1021.5,602.8984 1021.5,592.8984 " fill="none" style="stroke:#181818;stroke-width:1.5;"/><rect fill="#FFFFFF" height="438.4141" style="stroke:#181818;stroke-width:1.0;" width="10" x="76.5" y="98.2422"/><rect fill="#FFFFFF" height="31.291" style="stroke:#181818;stroke-width:1.0;" width="10" x="426.5" y="121.5332"/><rect fill="#FFFFFF" height="31.291" style="stroke:#181818;stroke-width:1.0;" width="10" x="426.5" y="184.1152"/><rect fill="#FFFFFF" height="105.5039" style="stroke:#181818;stroke-width:1.0;" width="10" x="426.5" y="416.1523"/><rect fill="#FFFFFF" height="200.7461" style="stroke:#181818;stroke-width:1.0;" width="10" x="593.5" y="215.4063"/><rect fill="#FFFFFF" height="169.4551" style="stroke:#181818;stroke-width:1.0;" width="10" x="804" y="215.4063"/><rect fill="#FFFFFF" height="106.873" style="stroke:#181818;stroke-width:1.0;" width="10" x="998.5" y="277.9883"/><polygon fill="#181818" points="414.5,117.5332,424.5,121.5332,414.5,125.5332,418.5,121.5332" style="stroke:#181818;stroke-width:1.0;"/><line style="stroke:#181818;stroke-width:1.0;" x1="86.5" x2="420.5" y1="121.5332" y2="121.5332"/><text fill="#000000" font-family="sans-serif" font-size="13" font-weight="bold" lengthAdjust="spacing" textLength="7" x="93.5" y="116.2705">1</text><text fill="#000000" font-family="sans-serif" font-size="13" lengthAdjust="spacing" textLength="261" x="104.5" y="116.2705">asks to  list all applications for a job opening.</text><polygon fill="#181818" points="97.5,148.8242,87.5,152.8242,97.5,156.8242,93.5,152.8242" style="stroke:#181818;stroke-width:1.0;"/><line style="stroke:#181818;stroke-width:1.0;" x1="91.5" x2="430.5" y1="152.8242" y2="152.8242"/><text fill="#000000" font-family="sans-serif" font-size="13" font-weight="bold" lengthAdjust="spacing" textLength="7" x="103.5" y="147.5615">2</text><text fill="#000000" font-family="sans-serif" font-size="13" lengthAdjust="spacing" textLength="117" x="114.5" y="147.5615">display Job Opening</text><polygon fill="#181818" points="414.5,180.1152,424.5,184.1152,414.5,188.1152,418.5,184.1152" style="stroke:#181818;stroke-width:1.0;"/><line style="stroke:#181818;stroke-width:1.0;" x1="86.5" x2="420.5" y1="184.1152" y2="184.1152"/><text fill="#000000" font-family="sans-serif" font-size="13" font-weight="bold" lengthAdjust="spacing" textLength="7" x="93.5" y="178.8525">3</text><text fill="#000000" font-family="sans-serif" font-size="13" lengthAdjust="spacing" textLength="116" x="104.5" y="178.8525">select a job opening</text><polygon fill="#181818" points="581.5,211.4063,591.5,215.4063,581.5,219.4063,585.5,215.4063" style="stroke:#181818;stroke-width:1.0;"/><line style="stroke:#181818;stroke-width:1.0;" x1="431.5" x2="587.5" y1="215.4063" y2="215.4063"/><text fill="#000000" font-family="sans-serif" font-size="13" font-weight="bold" lengthAdjust="spacing" textLength="7" x="438.5" y="210.1436">4</text><text fill="#000000" font-family="sans-serif" font-size="13" lengthAdjust="spacing" textLength="92" x="449.5" y="210.1436">allApplications()</text><polygon fill="#181818" points="792,242.6973,802,246.6973,792,250.6973,796,246.6973" style="stroke:#181818;stroke-width:1.0;"/><line style="stroke:#181818;stroke-width:1.0;" x1="603.5" x2="798" y1="246.6973" y2="246.6973"/><text fill="#000000" font-family="sans-serif" font-size="13" font-weight="bold" lengthAdjust="spacing" textLength="7" x="610.5" y="241.4346">5</text><text fill="#000000" font-family="sans-serif" font-size="13" lengthAdjust="spacing" textLength="92" x="621.5" y="241.4346">allApplications()</text><polygon fill="#181818" points="986.5,273.9883,996.5,277.9883,986.5,281.9883,990.5,277.9883" style="stroke:#181818;stroke-width:1.0;"/><line style="stroke:#181818;stroke-width:1.0;" x1="814" x2="992.5" y1="277.9883" y2="277.9883"/><text fill="#000000" font-family="sans-serif" font-size="13" font-weight="bold" lengthAdjust="spacing" textLength="7" x="821" y="272.7256">6</text><text fill="#000000" font-family="sans-serif" font-size="13" lengthAdjust="spacing" textLength="96" x="832" y="272.7256">allJobOpenings()</text><line style="stroke:#181818;stroke-width:1.0;stroke-dasharray:2.0,2.0;" x1="1008.5" x2="1050.5" y1="309.2793" y2="309.2793"/><line style="stroke:#181818;stroke-width:1.0;stroke-dasharray:2.0,2.0;" x1="1050.5" x2="1050.5" y1="309.2793" y2="322.2793"/><line style="stroke:#181818;stroke-width:1.0;stroke-dasharray:2.0,2.0;" x1="1009.5" x2="1050.5" y1="322.2793" y2="322.2793"/><polygon fill="#181818" points="1019.5,318.2793,1009.5,322.2793,1019.5,326.2793,1015.5,322.2793" style="stroke:#181818;stroke-width:1.0;"/><text fill="#000000" font-family="sans-serif" font-size="13" font-weight="bold" lengthAdjust="spacing" textLength="7" x="1015.5" y="304.0166">7</text><text fill="#000000" font-family="sans-serif" font-size="13" lengthAdjust="spacing" textLength="114" x="1026.5" y="304.0166">select(Applications)</text><polygon fill="#181818" points="825,349.5703,815,353.5703,825,357.5703,821,353.5703" style="stroke:#181818;stroke-width:1.0;"/><line style="stroke:#181818;stroke-width:1.0;stroke-dasharray:2.0,2.0;" x1="819" x2="997.5" y1="353.5703" y2="353.5703"/><text fill="#000000" font-family="sans-serif" font-size="13" font-weight="bold" lengthAdjust="spacing" textLength="7" x="831" y="348.3076">8</text><text fill="#000000" font-family="sans-serif" font-size="13" lengthAdjust="spacing" textLength="71" x="842" y="348.3076">Applications</text><polygon fill="#181818" points="614.5,380.8613,604.5,384.8613,614.5,388.8613,610.5,384.8613" style="stroke:#181818;stroke-width:1.0;"/><line style="stroke:#181818;stroke-width:1.0;" x1="608.5" x2="808" y1="384.8613" y2="384.8613"/><text fill="#000000" font-family="sans-serif" font-size="13" font-weight="bold" lengthAdjust="spacing" textLength="7" x="620.5" y="379.5986">9</text><text fill="#000000" font-family="sans-serif" font-size="13" lengthAdjust="spacing" textLength="71" x="631.5" y="379.5986">Applications</text><polygon fill="#181818" points="447.5,412.1523,437.5,416.1523,447.5,420.1523,443.5,416.1523" style="stroke:#181818;stroke-width:1.0;"/><line style="stroke:#181818;stroke-width:1.0;stroke-dasharray:2.0,2.0;" x1="441.5" x2="597.5" y1="416.1523" y2="416.1523"/><text fill="#000000" font-family="sans-serif" font-size="13" font-weight="bold" lengthAdjust="spacing" textLength="14" x="453.5" y="410.8896">10</text><text fill="#000000" font-family="sans-serif" font-size="13" lengthAdjust="spacing" textLength="71" x="471.5" y="410.8896">Applications</text><path d="M10,431.1523 L71,431.1523 L71,440.4434 L61,450.4434 L10,450.4434 L10,431.1523 " fill="#EEEEEE" style="stroke:#000000;stroke-width:1.5;"/><rect fill="none" height="98.5039" style="stroke:#000000;stroke-width:1.5;" width="497.5" x="10" y="431.1523"/><text fill="#000000" font-family="sans-serif" font-size="13" font-weight="bold" lengthAdjust="spacing" textLength="16" x="25" y="446.1807">alt</text><text fill="#000000" font-family="sans-serif" font-size="11" font-weight="bold" lengthAdjust="spacing" textLength="98" x="86" y="445.0225">[successful case]</text><polygon fill="#181818" points="97.5,469.7344,87.5,473.7344,97.5,477.7344,93.5,473.7344" style="stroke:#181818;stroke-width:1.0;"/><line style="stroke:#181818;stroke-width:1.0;" x1="91.5" x2="425.5" y1="473.7344" y2="473.7344"/><text fill="#000000" font-family="sans-serif" font-size="13" font-weight="bold" lengthAdjust="spacing" textLength="14" x="103.5" y="468.4717">11</text><text fill="#000000" font-family="sans-serif" font-size="13" lengthAdjust="spacing" textLength="298" x="121.5" y="468.4717">display all applications for the selected job opening.</text><line style="stroke:#000000;stroke-width:1.0;stroke-dasharray:2.0,2.0;" x1="10" x2="507.5" y1="482.7344" y2="482.7344"/><text fill="#000000" font-family="sans-serif" font-size="11" font-weight="bold" lengthAdjust="spacing" textLength="72" x="15" y="494.6045">[failure case]</text><polygon fill="#181818" points="97.5,517.6563,87.5,521.6563,97.5,525.6563,93.5,521.6563" style="stroke:#181818;stroke-width:1.0;"/><line style="stroke:#181818;stroke-width:1.0;" x1="91.5" x2="430.5" y1="521.6563" y2="521.6563"/><text fill="#000000" font-family="sans-serif" font-size="13" font-weight="bold" lengthAdjust="spacing" textLength="14" x="103.5" y="516.3936">12</text><text fill="#000000" font-family="sans-serif" font-size="13" lengthAdjust="spacing" textLength="229" x="121.5" y="516.3936">show message "No applications found."</text><!--SRC=[fLN1Zfim4BtxAqPSkdlO_O08HQfoQjLjfQxw0HCpIRmnDlAOtURlEuG4305IjJuWi3tlFRyP3tmqhiA09PJUUNq8lYI8eIR5tKg5-eXxUeqdIn18HtHxcsxW0nR-mxWzxD0oAOLrzAukjnIK-dGm1S7E-xZrlnNgw0DacvgZC8KNT88SCa26pOiIk6YqgT15o5RmpN3yN5NMQ8p6E_xrvRpnTXhol0h4vE9vPhs-XxJnBWPlxPMw-nGaxFUDW5A4LdafbAyKtesc1kVwckVSlWc0KWL6t2BJ8FudLPwDc75g0cTMyZnq7sSe6UAWUST8ZLy0yeIdzPGbAy4zCaGFO6KLq5f8ZiQIaW08RtuBlY8dsNlkiM_nr0I540lz2Wh3bSKJV1Mi7osMI2je2QxHtes5Gp1PgRYXq7_HsMTurLYHxdXuLCjQeVUyWqacBraVdAWzLayg4gx5CSL_4zhjbi2PuZZZYEKNnwTXHgFJF8sfxYFCY7bQqjdcy25TV_m_gjxBT9DQSd5G0SjHuv5KnunlIo6pvR5KBdFNOI1S_OtYf6INQzn6u5fhOjxL5ZGsZLoWvkvzV-qdEqiyq2NlL0oRJ8DAyfkGduMnTQ2MQe673_u3Ij4b3HUoxtvCLhlYERjtXONJ5MhapLHVQXesfKts3m00]--></g></svg>