<?xml version="1.0" encoding="us-ascii" standalone="no"?><svg xmlns="http://www.w3.org/2000/svg" xmlns:xlink="http://www.w3.org/1999/xlink" contentStyleType="text/css" height="1273px" preserveAspectRatio="none" style="width:1665px;height:1273px;background:#FFFFFF;" version="1.1" viewBox="0 0 1665 1273" width="1665px" zoomAndPan="magnify"><defs/><g><text fill="#000000" font-family="sans-serif" font-size="14" font-weight="bold" lengthAdjust="spacing" textLength="222" x="730.75" y="30.1074">Sequence Diagram (SD) - UC034</text><rect fill="#FFFFFF" height="1018.3125" style="stroke:#181818;stroke-width:1.0;" width="10" x="76.5" y="137.8633"/><rect fill="#FFFFFF" height="995.0215" style="stroke:#181818;stroke-width:1.0;" width="10" x="416.5" y="161.1543"/><rect fill="#FFFFFF" height="125.1641" style="stroke:#181818;stroke-width:1.0;" width="10" x="756.5" y="223.7363"/><rect fill="#FFFFFF" height="156.4551" style="stroke:#181818;stroke-width:1.0;" width="10" x="756.5" y="411.4824"/><rect fill="#FFFFFF" height="200.7461" style="stroke:#181818;stroke-width:1.0;" width="10" x="756.5" y="625.5195"/><rect fill="#FFFFFF" height="260.3281" style="stroke:#181818;stroke-width:1.0;" width="10" x="756.5" y="857.5566"/><rect fill="#FFFFFF" height="93.873" style="stroke:#181818;stroke-width:1.0;" width="10" x="1096.5" y="255.0273"/><rect fill="#FFFFFF" height="93.873" style="stroke:#181818;stroke-width:1.0;" width="10" x="1096.5" y="442.7734"/><rect fill="#FFFFFF" height="138.1641" style="stroke:#181818;stroke-width:1.0;" width="10" x="1096.5" y="656.8105"/><rect fill="#FFFFFF" height="36.291" style="stroke:#181818;stroke-width:1.0;" width="10" x="1101.5" y="758.6836"/><rect fill="#FFFFFF" height="164.4551" style="stroke:#181818;stroke-width:1.0;" width="10" x="1096.5" y="888.8477"/><rect fill="#FFFFFF" height="62.582" style="stroke:#181818;stroke-width:1.0;" width="10" x="1101.5" y="928.1387"/><rect fill="#FFFFFF" height="31.291" style="stroke:#181818;stroke-width:1.0;" width="10" x="1409.5" y="286.3184"/><rect fill="#FFFFFF" height="31.291" style="stroke:#181818;stroke-width:1.0;" width="10" x="1409.5" y="990.7207"/><rect fill="#FFFFFF" height="31.291" style="stroke:#181818;stroke-width:1.0;" width="10" x="1577" y="474.0645"/><rect fill="#FFFFFF" height="31.291" style="stroke:#181818;stroke-width:1.0;" width="10" x="1577" y="688.1016"/><rect fill="none" height="177.7461" style="stroke:#000000;stroke-width:1.5;" width="1191.5" x="308" y="948.1387"/><line style="stroke:#181818;stroke-width:0.5;stroke-dasharray:5.0,5.0;" x1="81" x2="81" y1="127.8633" y2="1174.1758"/><line style="stroke:#181818;stroke-width:0.5;stroke-dasharray:5.0,5.0;" x1="421" x2="421" y1="127.8633" y2="1174.1758"/><line style="stroke:#181818;stroke-width:0.5;stroke-dasharray:5.0,5.0;" x1="761" x2="761" y1="127.8633" y2="1174.1758"/><line style="stroke:#181818;stroke-width:0.5;stroke-dasharray:5.0,5.0;" x1="1101" x2="1101" y1="127.8633" y2="1174.1758"/><line style="stroke:#181818;stroke-width:0.5;stroke-dasharray:5.0,5.0;" x1="1414.5" x2="1414.5" y1="127.8633" y2="1174.1758"/><line style="stroke:#181818;stroke-width:0.5;stroke-dasharray:5.0,5.0;" x1="1581.5" x2="1581.5" y1="127.8633" y2="1174.1758"/><text fill="#000000" font-family="sans-serif" font-size="14" lengthAdjust="spacing" textLength="117" x="20" y="124.3496">CustomerManager</text><ellipse cx="81.5" cy="57.7422" fill="#E2E2F0" rx="8" ry="8" style="stroke:#181818;stroke-width:0.5;"/><path d="M81.5,65.7422 L81.5,92.7422 M68.5,73.7422 L94.5,73.7422 M81.5,92.7422 L68.5,107.7422 M81.5,92.7422 L94.5,107.7422 " fill="none" style="stroke:#181818;stroke-width:0.5;"/><text fill="#000000" font-family="sans-serif" font-size="14" lengthAdjust="spacing" textLength="117" x="20" y="1188.2832">CustomerManager</text><ellipse cx="81.5" cy="1200.2969" fill="#E2E2F0" rx="8" ry="8" style="stroke:#181818;stroke-width:0.5;"/><path d="M81.5,1208.2969 L81.5,1235.2969 M68.5,1216.2969 L94.5,1216.2969 M81.5,1235.2969 L68.5,1250.2969 M81.5,1235.2969 L94.5,1250.2969 " fill="none" style="stroke:#181818;stroke-width:0.5;"/><rect fill="#E2E2F0" height="51.2422" rx="2.5" ry="2.5" style="stroke:#181818;stroke-width:0.5;" width="207" x="318" y="75.6211"/><text fill="#000000" font-family="sans-serif" font-size="14" font-style="italic" lengthAdjust="spacing" textLength="95" x="374" y="97.7285">&#171;presentation&#187;</text><text fill="#000000" font-family="sans-serif" font-size="14" lengthAdjust="spacing" textLength="193" x="325" y="116.3496">ResultCandidatesNotificationUI</text><rect fill="#E2E2F0" height="51.2422" rx="2.5" ry="2.5" style="stroke:#181818;stroke-width:0.5;" width="207" x="318" y="1173.1758"/><text fill="#000000" font-family="sans-serif" font-size="14" font-style="italic" lengthAdjust="spacing" textLength="95" x="374" y="1195.2832">&#171;presentation&#187;</text><text fill="#000000" font-family="sans-serif" font-size="14" lengthAdjust="spacing" textLength="193" x="325" y="1213.9043">ResultCandidatesNotificationUI</text><rect fill="#E2E2F0" height="51.2422" rx="2.5" ry="2.5" style="stroke:#181818;stroke-width:0.5;" width="257" x="633" y="75.6211"/><text fill="#000000" font-family="sans-serif" font-size="14" font-style="italic" lengthAdjust="spacing" textLength="84" x="719.5" y="97.7285">&#171;application&#187;</text><text fill="#000000" font-family="sans-serif" font-size="14" lengthAdjust="spacing" textLength="243" x="640" y="116.3496">ResultCandidatesNotificationController</text><rect fill="#E2E2F0" height="51.2422" rx="2.5" ry="2.5" style="stroke:#181818;stroke-width:0.5;" width="257" x="633" y="1173.1758"/><text fill="#000000" font-family="sans-serif" font-size="14" font-style="italic" lengthAdjust="spacing" textLength="84" x="719.5" y="1195.2832">&#171;application&#187;</text><text fill="#000000" font-family="sans-serif" font-size="14" lengthAdjust="spacing" textLength="243" x="640" y="1213.9043">ResultCandidatesNotificationController</text><rect fill="#E2E2F0" height="51.2422" rx="2.5" ry="2.5" style="stroke:#181818;stroke-width:0.5;" width="219" x="992" y="75.6211"/><text fill="#000000" font-family="sans-serif" font-size="14" font-style="italic" lengthAdjust="spacing" textLength="60" x="1071.5" y="97.7285">&#171;service&#187;</text><text fill="#000000" font-family="sans-serif" font-size="14" lengthAdjust="spacing" textLength="205" x="999" y="116.3496">JobOpeningManagementService</text><rect fill="#E2E2F0" height="51.2422" rx="2.5" ry="2.5" style="stroke:#181818;stroke-width:0.5;" width="219" x="992" y="1173.1758"/><text fill="#000000" font-family="sans-serif" font-size="14" font-style="italic" lengthAdjust="spacing" textLength="60" x="1071.5" y="1195.2832">&#171;service&#187;</text><text fill="#000000" font-family="sans-serif" font-size="14" lengthAdjust="spacing" textLength="205" x="999" y="1213.9043">JobOpeningManagementService</text><text fill="#000000" font-family="sans-serif" font-size="14" font-style="italic" lengthAdjust="spacing" textLength="79" x="1372" y="105.7285">&#171;repository&#187;</text><text fill="#000000" font-family="sans-serif" font-size="14" lengthAdjust="spacing" textLength="144" x="1339.5" y="124.3496">JobOpeningRepository</text><path d="M1396.5,54.6211 C1396.5,44.6211 1414.5,44.6211 1414.5,44.6211 C1414.5,44.6211 1432.5,44.6211 1432.5,54.6211 L1432.5,80.6211 C1432.5,90.6211 1414.5,90.6211 1414.5,90.6211 C1414.5,90.6211 1396.5,90.6211 1396.5,80.6211 L1396.5,54.6211 " fill="#E2E2F0" style="stroke:#181818;stroke-width:1.5;"/><path d="M1396.5,54.6211 C1396.5,64.6211 1414.5,64.6211 1414.5,64.6211 C1414.5,64.6211 1432.5,64.6211 1432.5,54.6211 " fill="none" style="stroke:#181818;stroke-width:1.5;"/><text fill="#000000" font-family="sans-serif" font-size="14" font-style="italic" lengthAdjust="spacing" textLength="79" x="1372" y="1188.2832">&#171;repository&#187;</text><text fill="#000000" font-family="sans-serif" font-size="14" lengthAdjust="spacing" textLength="144" x="1339.5" y="1206.9043">JobOpeningRepository</text><path d="M1396.5,1220.418 C1396.5,1210.418 1414.5,1210.418 1414.5,1210.418 C1414.5,1210.418 1432.5,1210.418 1432.5,1220.418 L1432.5,1246.418 C1432.5,1256.418 1414.5,1256.418 1414.5,1256.418 C1414.5,1256.418 1396.5,1256.418 1396.5,1246.418 L1396.5,1220.418 " fill="#E2E2F0" style="stroke:#181818;stroke-width:1.5;"/><path d="M1396.5,1220.418 C1396.5,1230.418 1414.5,1230.418 1414.5,1230.418 C1414.5,1230.418 1432.5,1230.418 1432.5,1220.418 " fill="none" style="stroke:#181818;stroke-width:1.5;"/><text fill="#000000" font-family="sans-serif" font-size="14" font-style="italic" lengthAdjust="spacing" textLength="79" x="1539.5" y="105.7285">&#171;repository&#187;</text><text fill="#000000" font-family="sans-serif" font-size="14" lengthAdjust="spacing" textLength="159" x="1499.5" y="124.3496">JobApplicationRepository</text><path d="M1564,54.6211 C1564,44.6211 1582,44.6211 1582,44.6211 C1582,44.6211 1600,44.6211 1600,54.6211 L1600,80.6211 C1600,90.6211 1582,90.6211 1582,90.6211 C1582,90.6211 1564,90.6211 1564,80.6211 L1564,54.6211 " fill="#E2E2F0" style="stroke:#181818;stroke-width:1.5;"/><path d="M1564,54.6211 C1564,64.6211 1582,64.6211 1582,64.6211 C1582,64.6211 1600,64.6211 1600,54.6211 " fill="none" style="stroke:#181818;stroke-width:1.5;"/><text fill="#000000" font-family="sans-serif" font-size="14" font-style="italic" lengthAdjust="spacing" textLength="79" x="1539.5" y="1188.2832">&#171;repository&#187;</text><text fill="#000000" font-family="sans-serif" font-size="14" lengthAdjust="spacing" textLength="159" x="1499.5" y="1206.9043">JobApplicationRepository</text><path d="M1564,1220.418 C1564,1210.418 1582,1210.418 1582,1210.418 C1582,1210.418 1600,1210.418 1600,1220.418 L1600,1246.418 C1600,1256.418 1582,1256.418 1582,1256.418 C1582,1256.418 1564,1256.418 1564,1246.418 L1564,1220.418 " fill="#E2E2F0" style="stroke:#181818;stroke-width:1.5;"/><path d="M1564,1220.418 C1564,1230.418 1582,1230.418 1582,1230.418 C1582,1230.418 1600,1230.418 1600,1220.418 " fill="none" style="stroke:#181818;stroke-width:1.5;"/><rect fill="#FFFFFF" height="1018.3125" style="stroke:#181818;stroke-width:1.0;" width="10" x="76.5" y="137.8633"/><rect fill="#FFFFFF" height="995.0215" style="stroke:#181818;stroke-width:1.0;" width="10" x="416.5" y="161.1543"/><rect fill="#FFFFFF" height="125.1641" style="stroke:#181818;stroke-width:1.0;" width="10" x="756.5" y="223.7363"/><rect fill="#FFFFFF" height="156.4551" style="stroke:#181818;stroke-width:1.0;" width="10" x="756.5" y="411.4824"/><rect fill="#FFFFFF" height="200.7461" style="stroke:#181818;stroke-width:1.0;" width="10" x="756.5" y="625.5195"/><rect fill="#FFFFFF" height="260.3281" style="stroke:#181818;stroke-width:1.0;" width="10" x="756.5" y="857.5566"/><rect fill="#FFFFFF" height="93.873" style="stroke:#181818;stroke-width:1.0;" width="10" x="1096.5" y="255.0273"/><rect fill="#FFFFFF" height="93.873" style="stroke:#181818;stroke-width:1.0;" width="10" x="1096.5" y="442.7734"/><rect fill="#FFFFFF" height="138.1641" style="stroke:#181818;stroke-width:1.0;" width="10" x="1096.5" y="656.8105"/><rect fill="#FFFFFF" height="36.291" style="stroke:#181818;stroke-width:1.0;" width="10" x="1101.5" y="758.6836"/><rect fill="#FFFFFF" height="164.4551" style="stroke:#181818;stroke-width:1.0;" width="10" x="1096.5" y="888.8477"/><rect fill="#FFFFFF" height="62.582" style="stroke:#181818;stroke-width:1.0;" width="10" x="1101.5" y="928.1387"/><rect fill="#FFFFFF" height="31.291" style="stroke:#181818;stroke-width:1.0;" width="10" x="1409.5" y="286.3184"/><rect fill="#FFFFFF" height="31.291" style="stroke:#181818;stroke-width:1.0;" width="10" x="1409.5" y="990.7207"/><rect fill="#FFFFFF" height="31.291" style="stroke:#181818;stroke-width:1.0;" width="10" x="1577" y="474.0645"/><rect fill="#FFFFFF" height="31.291" style="stroke:#181818;stroke-width:1.0;" width="10" x="1577" y="688.1016"/><polygon fill="#181818" points="404.5,157.1543,414.5,161.1543,404.5,165.1543,408.5,161.1543" style="stroke:#181818;stroke-width:1.0;"/><line style="stroke:#181818;stroke-width:1.0;" x1="86.5" x2="410.5" y1="161.1543" y2="161.1543"/><text fill="#000000" font-family="sans-serif" font-size="13" lengthAdjust="spacing" textLength="67" x="93.5" y="155.8916">Send Email</text><polygon fill="#181818" points="749.5,188.4453,759.5,192.4453,749.5,196.4453,753.5,192.4453" style="stroke:#181818;stroke-width:1.0;"/><line style="stroke:#181818;stroke-width:1.0;" x1="426.5" x2="755.5" y1="192.4453" y2="192.4453"/><text fill="#000000" font-family="sans-serif" font-size="13" lengthAdjust="spacing" textLength="44" x="433.5" y="187.1826">create()</text><polygon fill="#181818" points="744.5,219.7363,754.5,223.7363,744.5,227.7363,748.5,223.7363" style="stroke:#181818;stroke-width:1.0;"/><line style="stroke:#181818;stroke-width:1.0;" x1="426.5" x2="750.5" y1="223.7363" y2="223.7363"/><text fill="#000000" font-family="sans-serif" font-size="13" lengthAdjust="spacing" textLength="89" x="433.5" y="218.4736">allJobOpening()</text><polygon fill="#181818" points="1084.5,251.0273,1094.5,255.0273,1084.5,259.0273,1088.5,255.0273" style="stroke:#181818;stroke-width:1.0;"/><line style="stroke:#181818;stroke-width:1.0;" x1="766.5" x2="1090.5" y1="255.0273" y2="255.0273"/><text fill="#000000" font-family="sans-serif" font-size="13" lengthAdjust="spacing" textLength="94" x="773.5" y="249.7646">findAllAvailable()</text><polygon fill="#181818" points="1397.5,282.3184,1407.5,286.3184,1397.5,290.3184,1401.5,286.3184" style="stroke:#181818;stroke-width:1.0;"/><line style="stroke:#181818;stroke-width:1.0;" x1="1106.5" x2="1403.5" y1="286.3184" y2="286.3184"/><text fill="#000000" font-family="sans-serif" font-size="13" lengthAdjust="spacing" textLength="43" x="1113.5" y="281.0557">findAll()</text><polygon fill="#181818" points="1117.5,313.6094,1107.5,317.6094,1117.5,321.6094,1113.5,317.6094" style="stroke:#181818;stroke-width:1.0;"/><line style="stroke:#181818;stroke-width:1.0;stroke-dasharray:2.0,2.0;" x1="1111.5" x2="1413.5" y1="317.6094" y2="317.6094"/><text fill="#000000" font-family="sans-serif" font-size="13" lengthAdjust="spacing" textLength="65" x="1123.5" y="312.3467">jobOpening</text><polygon fill="#181818" points="772.5,344.9004,762.5,348.9004,772.5,352.9004,768.5,348.9004" style="stroke:#181818;stroke-width:1.0;"/><line style="stroke:#181818;stroke-width:1.0;stroke-dasharray:2.0,2.0;" x1="766.5" x2="1100.5" y1="348.9004" y2="348.9004"/><text fill="#000000" font-family="sans-serif" font-size="13" lengthAdjust="spacing" textLength="65" x="778.5" y="343.6377">jobOpening</text><polygon fill="#181818" points="437.5,376.1914,427.5,380.1914,437.5,384.1914,433.5,380.1914" style="stroke:#181818;stroke-width:1.0;"/><line style="stroke:#181818;stroke-width:1.0;stroke-dasharray:2.0,2.0;" x1="431.5" x2="760.5" y1="380.1914" y2="380.1914"/><text fill="#000000" font-family="sans-serif" font-size="13" lengthAdjust="spacing" textLength="65" x="443.5" y="374.9287">jobOpening</text><polygon fill="#181818" points="744.5,407.4824,754.5,411.4824,744.5,415.4824,748.5,411.4824" style="stroke:#181818;stroke-width:1.0;"/><line style="stroke:#181818;stroke-width:1.0;" x1="426.5" x2="750.5" y1="411.4824" y2="411.4824"/><text fill="#000000" font-family="sans-serif" font-size="13" lengthAdjust="spacing" textLength="109" x="433.5" y="406.2197">jobApplicationsOf()</text><polygon fill="#181818" points="1084.5,438.7734,1094.5,442.7734,1084.5,446.7734,1088.5,442.7734" style="stroke:#181818;stroke-width:1.0;"/><line style="stroke:#181818;stroke-width:1.0;" x1="766.5" x2="1090.5" y1="442.7734" y2="442.7734"/><text fill="#000000" font-family="sans-serif" font-size="13" lengthAdjust="spacing" textLength="109" x="773.5" y="437.5107">jobApplicationsOf()</text><polygon fill="#181818" points="1565,470.0645,1575,474.0645,1565,478.0645,1569,474.0645" style="stroke:#181818;stroke-width:1.0;"/><line style="stroke:#181818;stroke-width:1.0;" x1="1106.5" x2="1571" y1="474.0645" y2="474.0645"/><text fill="#000000" font-family="sans-serif" font-size="13" lengthAdjust="spacing" textLength="161" x="1113.5" y="468.8018">applicationsByJobOpening()</text><polygon fill="#181818" points="1117.5,501.3555,1107.5,505.3555,1117.5,509.3555,1113.5,505.3555" style="stroke:#181818;stroke-width:1.0;"/><line style="stroke:#181818;stroke-width:1.0;stroke-dasharray:2.0,2.0;" x1="1111.5" x2="1581" y1="505.3555" y2="505.3555"/><text fill="#000000" font-family="sans-serif" font-size="13" lengthAdjust="spacing" textLength="88" x="1123.5" y="500.0928">jobApplications</text><polygon fill="#181818" points="777.5,532.6465,767.5,536.6465,777.5,540.6465,773.5,536.6465" style="stroke:#181818;stroke-width:1.0;"/><line style="stroke:#181818;stroke-width:1.0;stroke-dasharray:2.0,2.0;" x1="771.5" x2="1100.5" y1="536.6465" y2="536.6465"/><text fill="#000000" font-family="sans-serif" font-size="13" lengthAdjust="spacing" textLength="88" x="783.5" y="531.3838">jobApplications</text><polygon fill="#181818" points="437.5,563.9375,427.5,567.9375,437.5,571.9375,433.5,567.9375" style="stroke:#181818;stroke-width:1.0;"/><line style="stroke:#181818;stroke-width:1.0;stroke-dasharray:2.0,2.0;" x1="431.5" x2="760.5" y1="567.9375" y2="567.9375"/><text fill="#000000" font-family="sans-serif" font-size="13" lengthAdjust="spacing" textLength="88" x="443.5" y="562.6748">jobApplications</text><polygon fill="#181818" points="744.5,621.5195,754.5,625.5195,744.5,629.5195,748.5,625.5195" style="stroke:#181818;stroke-width:1.0;"/><line style="stroke:#181818;stroke-width:1.0;" x1="426.5" x2="750.5" y1="625.5195" y2="625.5195"/><text fill="#000000" font-family="sans-serif" font-size="13" lengthAdjust="spacing" textLength="216" x="433.5" y="620.2568">iscandidateAcceptedForJobOpening()</text><polygon fill="#181818" points="1084.5,652.8105,1094.5,656.8105,1084.5,660.8105,1088.5,656.8105" style="stroke:#181818;stroke-width:1.0;"/><line style="stroke:#181818;stroke-width:1.0;" x1="766.5" x2="1090.5" y1="656.8105" y2="656.8105"/><text fill="#000000" font-family="sans-serif" font-size="13" lengthAdjust="spacing" textLength="216" x="773.5" y="651.5479">iscandidateAcceptedForJobOpening()</text><polygon fill="#181818" points="1565,684.1016,1575,688.1016,1565,692.1016,1569,688.1016" style="stroke:#181818;stroke-width:1.0;"/><line style="stroke:#181818;stroke-width:1.0;stroke-dasharray:2.0,2.0;" x1="1106.5" x2="1571" y1="688.1016" y2="688.1016"/><text fill="#000000" font-family="sans-serif" font-size="13" lengthAdjust="spacing" textLength="151" x="1113.5" y="682.8389">applicationsByCandidate()</text><polygon fill="#181818" points="1117.5,715.3926,1107.5,719.3926,1117.5,723.3926,1113.5,719.3926" style="stroke:#181818;stroke-width:1.0;"/><line style="stroke:#181818;stroke-width:1.0;stroke-dasharray:2.0,2.0;" x1="1111.5" x2="1581" y1="719.3926" y2="719.3926"/><text fill="#000000" font-family="sans-serif" font-size="13" lengthAdjust="spacing" textLength="88" x="1123.5" y="714.1299">jobApplications</text><line style="stroke:#181818;stroke-width:1.0;stroke-dasharray:2.0,2.0;" x1="1106.5" x2="1153.5" y1="745.6836" y2="745.6836"/><line style="stroke:#181818;stroke-width:1.0;stroke-dasharray:2.0,2.0;" x1="1153.5" x2="1153.5" y1="745.6836" y2="758.6836"/><line style="stroke:#181818;stroke-width:1.0;stroke-dasharray:2.0,2.0;" x1="1112.5" x2="1153.5" y1="758.6836" y2="758.6836"/><polygon fill="#181818" points="1122.5,754.6836,1112.5,758.6836,1122.5,762.6836,1118.5,758.6836" style="stroke:#181818;stroke-width:1.0;"/><text fill="#000000" font-family="sans-serif" font-size="13" lengthAdjust="spacing" textLength="254" x="1118.5" y="740.4209">return candidate with RankStatus=RANKED</text><polygon fill="#181818" points="777.5,790.9746,767.5,794.9746,777.5,798.9746,773.5,794.9746" style="stroke:#181818;stroke-width:1.0;"/><line style="stroke:#181818;stroke-width:1.0;stroke-dasharray:2.0,2.0;" x1="771.5" x2="1100.5" y1="794.9746" y2="794.9746"/><text fill="#000000" font-family="sans-serif" font-size="13" lengthAdjust="spacing" textLength="254" x="783.5" y="789.7119">return candidate with RankStatus=RANKED</text><polygon fill="#181818" points="437.5,822.2656,427.5,826.2656,437.5,830.2656,433.5,826.2656" style="stroke:#181818;stroke-width:1.0;"/><line style="stroke:#181818;stroke-width:1.0;stroke-dasharray:2.0,2.0;" x1="431.5" x2="760.5" y1="826.2656" y2="826.2656"/><text fill="#000000" font-family="sans-serif" font-size="13" lengthAdjust="spacing" textLength="254" x="443.5" y="821.0029">return candidate with RankStatus=RANKED</text><polygon fill="#181818" points="744.5,853.5566,754.5,857.5566,744.5,861.5566,748.5,857.5566" style="stroke:#181818;stroke-width:1.0;"/><line style="stroke:#181818;stroke-width:1.0;" x1="426.5" x2="750.5" y1="857.5566" y2="857.5566"/><text fill="#000000" font-family="sans-serif" font-size="13" lengthAdjust="spacing" textLength="69" x="433.5" y="852.2939">sendEmail()</text><polygon fill="#181818" points="1084.5,884.8477,1094.5,888.8477,1084.5,892.8477,1088.5,888.8477" style="stroke:#181818;stroke-width:1.0;"/><line style="stroke:#181818;stroke-width:1.0;" x1="766.5" x2="1090.5" y1="888.8477" y2="888.8477"/><text fill="#000000" font-family="sans-serif" font-size="13" lengthAdjust="spacing" textLength="69" x="773.5" y="883.585">sendEmail()</text><line style="stroke:#181818;stroke-width:1.0;stroke-dasharray:2.0,2.0;" x1="1106.5" x2="1153.5" y1="915.1387" y2="915.1387"/><line style="stroke:#181818;stroke-width:1.0;stroke-dasharray:2.0,2.0;" x1="1153.5" x2="1153.5" y1="915.1387" y2="928.1387"/><line style="stroke:#181818;stroke-width:1.0;stroke-dasharray:2.0,2.0;" x1="1112.5" x2="1153.5" y1="928.1387" y2="928.1387"/><polygon fill="#181818" points="1122.5,924.1387,1112.5,928.1387,1122.5,932.1387,1118.5,928.1387" style="stroke:#181818;stroke-width:1.0;"/><text fill="#000000" font-family="sans-serif" font-size="13" lengthAdjust="spacing" textLength="100" x="1118.5" y="909.876">sendNotification()</text><path d="M308,948.1387 L369,948.1387 L369,957.4297 L359,967.4297 L308,967.4297 L308,948.1387 " fill="#EEEEEE" style="stroke:#000000;stroke-width:1.5;"/><rect fill="none" height="177.7461" style="stroke:#000000;stroke-width:1.5;" width="1191.5" x="308" y="948.1387"/><text fill="#000000" font-family="sans-serif" font-size="13" font-weight="bold" lengthAdjust="spacing" textLength="16" x="323" y="963.167">alt</text><text fill="#000000" font-family="sans-serif" font-size="11" font-weight="bold" lengthAdjust="spacing" textLength="156" x="384" y="962.0088">[if send email with success]</text><polygon fill="#181818" points="1397.5,986.7207,1407.5,990.7207,1397.5,994.7207,1401.5,990.7207" style="stroke:#181818;stroke-width:1.0;"/><line style="stroke:#181818;stroke-width:1.0;" x1="1106.5" x2="1403.5" y1="990.7207" y2="990.7207"/><text fill="#000000" font-family="sans-serif" font-size="13" lengthAdjust="spacing" textLength="99" x="1113.5" y="985.458">save(jobOpening)</text><polygon fill="#181818" points="1117.5,1018.0117,1107.5,1022.0117,1117.5,1026.0117,1113.5,1022.0117" style="stroke:#181818;stroke-width:1.0;"/><line style="stroke:#181818;stroke-width:1.0;stroke-dasharray:2.0,2.0;" x1="1111.5" x2="1413.5" y1="1022.0117" y2="1022.0117"/><text fill="#000000" font-family="sans-serif" font-size="13" lengthAdjust="spacing" textLength="279" x="1123.5" y="1016.749">Job opening successfully saved in the repository</text><polygon fill="#181818" points="777.5,1049.3027,767.5,1053.3027,777.5,1057.3027,773.5,1053.3027" style="stroke:#181818;stroke-width:1.0;"/><line style="stroke:#181818;stroke-width:1.0;stroke-dasharray:2.0,2.0;" x1="771.5" x2="1100.5" y1="1053.3027" y2="1053.3027"/><text fill="#000000" font-family="sans-serif" font-size="13" lengthAdjust="spacing" textLength="306" x="783.5" y="1048.04">Email successfully sent and notification record saved</text><polygon fill="#181818" points="437.5,1080.5938,427.5,1084.5938,437.5,1088.5938,433.5,1084.5938" style="stroke:#181818;stroke-width:1.0;"/><line style="stroke:#181818;stroke-width:1.0;stroke-dasharray:2.0,2.0;" x1="431.5" x2="755.5" y1="1084.5938" y2="1084.5938"/><text fill="#000000" font-family="sans-serif" font-size="13" lengthAdjust="spacing" textLength="306" x="443.5" y="1079.3311">Email successfully sent and notification record saved</text><line style="stroke:#000000;stroke-width:1.0;stroke-dasharray:2.0,2.0;" x1="308" x2="1499.5" y1="1093.5938" y2="1093.5938"/><polygon fill="#181818" points="437.5,1113.8848,427.5,1117.8848,437.5,1121.8848,433.5,1117.8848" style="stroke:#181818;stroke-width:1.0;"/><line style="stroke:#181818;stroke-width:1.0;stroke-dasharray:2.0,2.0;" x1="431.5" x2="760.5" y1="1117.8848" y2="1117.8848"/><text fill="#000000" font-family="sans-serif" font-size="13" lengthAdjust="spacing" textLength="274" x="443.5" y="1112.6221">Email not sent and notification record not saved</text><polygon fill="#181818" points="92.5,1152.1758,82.5,1156.1758,92.5,1160.1758,88.5,1156.1758" style="stroke:#181818;stroke-width:1.0;"/><line style="stroke:#181818;stroke-width:1.0;stroke-dasharray:2.0,2.0;" x1="86.5" x2="420.5" y1="1156.1758" y2="1156.1758"/><text fill="#000000" font-family="sans-serif" font-size="13" lengthAdjust="spacing" textLength="306" x="98.5" y="1150.9131">Email successfully sent and notification record saved</text><!--SRC=[lLTDZzem4BtdLynnEI2jr9vGYaHXAz6ANGd43p3905wCdTeEA_hhEmwGE24VmAhD0P5u_DxupPlOCJik4wRP7X8MxTW65_Oe43H6bicDmC3a0MRBOlN1vGRMJ1X_H729zfWW94eStKtW3KQ26JEoLlDLQd4QARdWVn2UWy1oIrGB_9sYZ10cd6tSXAV5f0TzM8wVltmD0XPPfM6S6glsg6TCKeuQc87nB202ooEUC6bXZYOLTinap6DcqRmgozSyOfOhkPow2VGRXeb6Wz9cZuV3cn76IbgjX3XJ5tTXo994dACgW3_LwYr1IOgTqjuJyGBrWTDY2UNoDmpDwHzD9sAsOWQzkNDCbE4amj5Dykx2KEStbQcZ8gVozCQn2bYcEp-G34xdO3o3_f04753ICeQNFUF22rbEWm3e8eKfh51d09562dZgDOqp8OgLNi8AwZpoDE0kJtl2EciuW3MNyKY8qO4oOokHKvRmpj75YBikPI0qJuySqGSgWHN1vG1tUK3z8ai2VSyN6vHdnTW9d2TQqh02MeFdhzfxt2LkLl06zEj2lfUCPTxMjGMeusmfQYjeTsKhrMtoFhdG8_b-l3PaBMKJtFKKTpKsNhzbmTTGNlsQ-Pj5Q2zQeoDhrRtookruTJOGIYKL0E2oygJDWTn4brVtA8emiHZ_KBg-c8yQyXwEE_tPOb2eEZJVe_wpGU6VERGgHK6eqQPQGguxV72xXJcJkmNjugdvDX-z_dgPr29soz_vRhsLlXQvguNkRh574khek_fceZDIdEtoZOvkmgfl7IX3FjuZPJp_YDRQ2pdsTOYmmDSP6g1BxoIeIQc_ZUbmQkN8ODW1duhziXVSQuYx3XcTXmtNWA1EkLmMj4w5E6Q9nkxrQhVkhD_ESSFHfBM5ig9N-Eaa3EHWa5u1tKU7ql4fkSytoYTfqNtYt4X2SEtOMK1bMVLzMT0vGxfDiRpdEN5d3o_EutHdTZ-5sLy0]--></g></svg>