<?xml version="1.0" encoding="us-ascii" standalone="no"?><svg xmlns="http://www.w3.org/2000/svg" xmlns:xlink="http://www.w3.org/1999/xlink" contentStyleType="text/css" height="516px" preserveAspectRatio="none" style="width:553px;height:516px;background:#FFFFFF;" version="1.1" viewBox="0 0 553 516" width="553px" zoomAndPan="magnify"><defs/><g><text fill="#000000" font-family="sans-serif" font-size="14" font-weight="bold" lengthAdjust="spacing" textLength="190" x="174.75" y="25.1074">Class Diagram (CD) - UC034</text><!--class ResultCandidatesNotificationUI--><g id="elem_ResultCandidatesNotificationUI"><rect codeLine="8" fill="#F1F1F1" height="60.582" id="ResultCandidatesNotificationUI" rx="2.5" ry="2.5" style="stroke:#181818;stroke-width:0.5;" width="225" x="133" y="46.6211"/><ellipse cx="148" cy="68.9121" fill="#ADD1B2" rx="11" ry="11" style="stroke:#181818;stroke-width:1.0;"/><path d="M150.7656,64.7871 Q150.9219,64.5684 151.1094,64.459 Q151.2969,64.3496 151.5156,64.3496 Q151.8906,64.3496 152.125,64.6152 Q152.3594,64.8652 152.3594,65.4746 L152.3594,66.9277 Q152.3594,67.5371 152.125,67.8027 Q151.8906,68.0684 151.5156,68.0684 Q151.1719,68.0684 150.9688,67.8652 Q150.7656,67.6777 150.6563,67.1621 Q150.6094,66.8027 150.4219,66.6152 Q150.0938,66.2402 149.4844,66.0215 Q148.875,65.8027 148.25,65.8027 Q147.4844,65.8027 146.8438,66.1309 Q146.2188,66.459 145.7188,67.209 Q145.2344,67.959 145.2344,68.9902 L145.2344,70.084 Q145.2344,71.3184 146.125,72.1465 Q147.0156,72.959 148.6094,72.959 Q149.5469,72.959 150.2031,72.709 Q150.5938,72.5527 151.0156,72.1152 Q151.2813,71.8496 151.4219,71.7715 Q151.5781,71.6934 151.7813,71.6934 Q152.1094,71.6934 152.3594,71.959 Q152.625,72.209 152.625,72.5527 Q152.625,72.8965 152.2813,73.3027 Q151.7813,73.8809 150.9844,74.209 Q149.9063,74.6621 148.6094,74.6621 Q147.0938,74.6621 145.8906,74.0371 Q144.9063,73.5371 144.2188,72.4746 Q143.5313,71.3965 143.5313,70.1152 L143.5313,68.959 Q143.5313,67.6309 144.1406,66.4902 Q144.7656,65.334 145.8594,64.7246 Q146.9531,64.0996 148.1875,64.0996 Q148.9219,64.0996 149.5625,64.2715 Q150.2188,64.4277 150.7656,64.7871 Z " fill="#000000"/><text fill="#000000" font-family="sans-serif" font-size="12" font-style="italic" lengthAdjust="spacing" textLength="61" x="228" y="64.5703">&#171;interface&#187;</text><text fill="#000000" font-family="sans-serif" font-size="14" lengthAdjust="spacing" textLength="193" x="162" y="82.6895">ResultCandidatesNotificationUI</text><line style="stroke:#181818;stroke-width:0.5;" x1="134" x2="357" y1="91.2031" y2="91.2031"/><line style="stroke:#181818;stroke-width:0.5;" x1="134" x2="357" y1="99.2031" y2="99.2031"/></g><!--class ResultCandidatesNotificationController--><g id="elem_ResultCandidatesNotificationController"><rect codeLine="10" fill="#F1F1F1" height="60.582" id="ResultCandidatesNotificationController" rx="2.5" ry="2.5" style="stroke:#181818;stroke-width:0.5;" width="275" x="108" y="168.6211"/><ellipse cx="123" cy="190.9121" fill="#ADD1B2" rx="11" ry="11" style="stroke:#181818;stroke-width:1.0;"/><path d="M125.7656,186.7871 Q125.9219,186.5684 126.1094,186.459 Q126.2969,186.3496 126.5156,186.3496 Q126.8906,186.3496 127.125,186.6152 Q127.3594,186.8652 127.3594,187.4746 L127.3594,188.9277 Q127.3594,189.5371 127.125,189.8027 Q126.8906,190.0684 126.5156,190.0684 Q126.1719,190.0684 125.9688,189.8652 Q125.7656,189.6777 125.6563,189.1621 Q125.6094,188.8027 125.4219,188.6152 Q125.0938,188.2402 124.4844,188.0215 Q123.875,187.8027 123.25,187.8027 Q122.4844,187.8027 121.8438,188.1309 Q121.2188,188.459 120.7188,189.209 Q120.2344,189.959 120.2344,190.9902 L120.2344,192.084 Q120.2344,193.3184 121.125,194.1465 Q122.0156,194.959 123.6094,194.959 Q124.5469,194.959 125.2031,194.709 Q125.5938,194.5527 126.0156,194.1152 Q126.2813,193.8496 126.4219,193.7715 Q126.5781,193.6934 126.7813,193.6934 Q127.1094,193.6934 127.3594,193.959 Q127.625,194.209 127.625,194.5527 Q127.625,194.8965 127.2813,195.3027 Q126.7813,195.8809 125.9844,196.209 Q124.9063,196.6621 123.6094,196.6621 Q122.0938,196.6621 120.8906,196.0371 Q119.9063,195.5371 119.2188,194.4746 Q118.5313,193.3965 118.5313,192.1152 L118.5313,190.959 Q118.5313,189.6309 119.1406,188.4902 Q119.7656,187.334 120.8594,186.7246 Q121.9531,186.0996 123.1875,186.0996 Q123.9219,186.0996 124.5625,186.2715 Q125.2188,186.4277 125.7656,186.7871 Z " fill="#000000"/><text fill="#000000" font-family="sans-serif" font-size="12" font-style="italic" lengthAdjust="spacing" textLength="65" x="226" y="186.5703">&#171;controller&#187;</text><text fill="#000000" font-family="sans-serif" font-size="14" lengthAdjust="spacing" textLength="243" x="137" y="204.6895">ResultCandidatesNotificationController</text><line style="stroke:#181818;stroke-width:0.5;" x1="109" x2="382" y1="213.2031" y2="213.2031"/><line style="stroke:#181818;stroke-width:0.5;" x1="109" x2="382" y1="221.2031" y2="221.2031"/></g><!--class JobOpeningManagementService--><g id="elem_JobOpeningManagementService"><rect codeLine="12" fill="#F1F1F1" height="60.582" id="JobOpeningManagementService" rx="2.5" ry="2.5" style="stroke:#181818;stroke-width:0.5;" width="237" x="7" y="308.6211"/><ellipse cx="22" cy="330.9121" fill="#ADD1B2" rx="11" ry="11" style="stroke:#181818;stroke-width:1.0;"/><path d="M24.7656,326.7871 Q24.9219,326.5684 25.1094,326.459 Q25.2969,326.3496 25.5156,326.3496 Q25.8906,326.3496 26.125,326.6152 Q26.3594,326.8652 26.3594,327.4746 L26.3594,328.9277 Q26.3594,329.5371 26.125,329.8027 Q25.8906,330.0684 25.5156,330.0684 Q25.1719,330.0684 24.9688,329.8652 Q24.7656,329.6777 24.6563,329.1621 Q24.6094,328.8027 24.4219,328.6152 Q24.0938,328.2402 23.4844,328.0215 Q22.875,327.8027 22.25,327.8027 Q21.4844,327.8027 20.8438,328.1309 Q20.2188,328.459 19.7188,329.209 Q19.2344,329.959 19.2344,330.9902 L19.2344,332.084 Q19.2344,333.3184 20.125,334.1465 Q21.0156,334.959 22.6094,334.959 Q23.5469,334.959 24.2031,334.709 Q24.5938,334.5527 25.0156,334.1152 Q25.2813,333.8496 25.4219,333.7715 Q25.5781,333.6934 25.7813,333.6934 Q26.1094,333.6934 26.3594,333.959 Q26.625,334.209 26.625,334.5527 Q26.625,334.8965 26.2813,335.3027 Q25.7813,335.8809 24.9844,336.209 Q23.9063,336.6621 22.6094,336.6621 Q21.0938,336.6621 19.8906,336.0371 Q18.9063,335.5371 18.2188,334.4746 Q17.5313,333.3965 17.5313,332.1152 L17.5313,330.959 Q17.5313,329.6309 18.1406,328.4902 Q18.7656,327.334 19.8594,326.7246 Q20.9531,326.0996 22.1875,326.0996 Q22.9219,326.0996 23.5625,326.2715 Q24.2188,326.4277 24.7656,326.7871 Z " fill="#000000"/><text fill="#000000" font-family="sans-serif" font-size="12" font-style="italic" lengthAdjust="spacing" textLength="53" x="112" y="326.5703">&#171;service&#187;</text><text fill="#000000" font-family="sans-serif" font-size="14" lengthAdjust="spacing" textLength="205" x="36" y="344.6895">JobOpeningManagementService</text><line style="stroke:#181818;stroke-width:0.5;" x1="8" x2="243" y1="353.2031" y2="353.2031"/><line style="stroke:#181818;stroke-width:0.5;" x1="8" x2="243" y1="361.2031" y2="361.2031"/></g><!--class JobOpeningRepository--><g id="elem_JobOpeningRepository"><rect codeLine="14" fill="#F1F1F1" height="60.582" id="JobOpeningRepository" rx="2.5" ry="2.5" style="stroke:#181818;stroke-width:0.5;" width="176" x="279.5" y="308.6211"/><ellipse cx="294.5" cy="330.9121" fill="#ADD1B2" rx="11" ry="11" style="stroke:#181818;stroke-width:1.0;"/><path d="M297.2656,326.7871 Q297.4219,326.5684 297.6094,326.459 Q297.7969,326.3496 298.0156,326.3496 Q298.3906,326.3496 298.625,326.6152 Q298.8594,326.8652 298.8594,327.4746 L298.8594,328.9277 Q298.8594,329.5371 298.625,329.8027 Q298.3906,330.0684 298.0156,330.0684 Q297.6719,330.0684 297.4688,329.8652 Q297.2656,329.6777 297.1563,329.1621 Q297.1094,328.8027 296.9219,328.6152 Q296.5938,328.2402 295.9844,328.0215 Q295.375,327.8027 294.75,327.8027 Q293.9844,327.8027 293.3438,328.1309 Q292.7188,328.459 292.2188,329.209 Q291.7344,329.959 291.7344,330.9902 L291.7344,332.084 Q291.7344,333.3184 292.625,334.1465 Q293.5156,334.959 295.1094,334.959 Q296.0469,334.959 296.7031,334.709 Q297.0938,334.5527 297.5156,334.1152 Q297.7813,333.8496 297.9219,333.7715 Q298.0781,333.6934 298.2813,333.6934 Q298.6094,333.6934 298.8594,333.959 Q299.125,334.209 299.125,334.5527 Q299.125,334.8965 298.7813,335.3027 Q298.2813,335.8809 297.4844,336.209 Q296.4063,336.6621 295.1094,336.6621 Q293.5938,336.6621 292.3906,336.0371 Q291.4063,335.5371 290.7188,334.4746 Q290.0313,333.3965 290.0313,332.1152 L290.0313,330.959 Q290.0313,329.6309 290.6406,328.4902 Q291.2656,327.334 292.3594,326.7246 Q293.4531,326.0996 294.6875,326.0996 Q295.4219,326.0996 296.0625,326.2715 Q296.7188,326.4277 297.2656,326.7871 Z " fill="#000000"/><text fill="#000000" font-family="sans-serif" font-size="12" font-style="italic" lengthAdjust="spacing" textLength="68" x="346.5" y="326.5703">&#171;repository&#187;</text><text fill="#000000" font-family="sans-serif" font-size="14" lengthAdjust="spacing" textLength="144" x="308.5" y="344.6895">JobOpeningRepository</text><line style="stroke:#181818;stroke-width:0.5;" x1="280.5" x2="454.5" y1="353.2031" y2="353.2031"/><line style="stroke:#181818;stroke-width:0.5;" x1="280.5" x2="454.5" y1="361.2031" y2="361.2031"/></g><!--class StatusEmail--><g id="elem_StatusEmail"><rect codeLine="16" fill="#F1F1F1" height="60.582" id="StatusEmail" rx="2.5" ry="2.5" style="stroke:#181818;stroke-width:0.5;" width="106" x="257.5" y="448.6211"/><ellipse cx="272.5" cy="470.9121" fill="#ADD1B2" rx="11" ry="11" style="stroke:#181818;stroke-width:1.0;"/><path d="M275.2656,466.7871 Q275.4219,466.5684 275.6094,466.459 Q275.7969,466.3496 276.0156,466.3496 Q276.3906,466.3496 276.625,466.6152 Q276.8594,466.8652 276.8594,467.4746 L276.8594,468.9277 Q276.8594,469.5371 276.625,469.8027 Q276.3906,470.0684 276.0156,470.0684 Q275.6719,470.0684 275.4688,469.8652 Q275.2656,469.6777 275.1563,469.1621 Q275.1094,468.8027 274.9219,468.6152 Q274.5938,468.2402 273.9844,468.0215 Q273.375,467.8027 272.75,467.8027 Q271.9844,467.8027 271.3438,468.1309 Q270.7188,468.459 270.2188,469.209 Q269.7344,469.959 269.7344,470.9902 L269.7344,472.084 Q269.7344,473.3184 270.625,474.1465 Q271.5156,474.959 273.1094,474.959 Q274.0469,474.959 274.7031,474.709 Q275.0938,474.5527 275.5156,474.1152 Q275.7813,473.8496 275.9219,473.7715 Q276.0781,473.6934 276.2813,473.6934 Q276.6094,473.6934 276.8594,473.959 Q277.125,474.209 277.125,474.5527 Q277.125,474.8965 276.7813,475.3027 Q276.2813,475.8809 275.4844,476.209 Q274.4063,476.6621 273.1094,476.6621 Q271.5938,476.6621 270.3906,476.0371 Q269.4063,475.5371 268.7188,474.4746 Q268.0313,473.3965 268.0313,472.1152 L268.0313,470.959 Q268.0313,469.6309 268.6406,468.4902 Q269.2656,467.334 270.3594,466.7246 Q271.4531,466.0996 272.6875,466.0996 Q273.4219,466.0996 274.0625,466.2715 Q274.7188,466.4277 275.2656,466.7871 Z " fill="#000000"/><text fill="#000000" font-family="sans-serif" font-size="12" font-style="italic" lengthAdjust="spacing" textLength="44" x="301.5" y="466.5703">&#171;value&#187;</text><text fill="#000000" font-family="sans-serif" font-size="14" lengthAdjust="spacing" textLength="74" x="286.5" y="484.6895">StatusEmail</text><line style="stroke:#181818;stroke-width:0.5;" x1="258.5" x2="362.5" y1="493.2031" y2="493.2031"/><line style="stroke:#181818;stroke-width:0.5;" x1="258.5" x2="362.5" y1="501.2031" y2="501.2031"/></g><!--class SMTP--><g id="elem_SMTP"><rect codeLine="18" fill="#F1F1F1" height="60.582" id="SMTP" rx="2.5" ry="2.5" style="stroke:#181818;stroke-width:0.5;" width="81" x="85" y="448.6211"/><ellipse cx="100" cy="470.9121" fill="#ADD1B2" rx="11" ry="11" style="stroke:#181818;stroke-width:1.0;"/><path d="M102.7656,466.7871 Q102.9219,466.5684 103.1094,466.459 Q103.2969,466.3496 103.5156,466.3496 Q103.8906,466.3496 104.125,466.6152 Q104.3594,466.8652 104.3594,467.4746 L104.3594,468.9277 Q104.3594,469.5371 104.125,469.8027 Q103.8906,470.0684 103.5156,470.0684 Q103.1719,470.0684 102.9688,469.8652 Q102.7656,469.6777 102.6563,469.1621 Q102.6094,468.8027 102.4219,468.6152 Q102.0938,468.2402 101.4844,468.0215 Q100.875,467.8027 100.25,467.8027 Q99.4844,467.8027 98.8438,468.1309 Q98.2188,468.459 97.7188,469.209 Q97.2344,469.959 97.2344,470.9902 L97.2344,472.084 Q97.2344,473.3184 98.125,474.1465 Q99.0156,474.959 100.6094,474.959 Q101.5469,474.959 102.2031,474.709 Q102.5938,474.5527 103.0156,474.1152 Q103.2813,473.8496 103.4219,473.7715 Q103.5781,473.6934 103.7813,473.6934 Q104.1094,473.6934 104.3594,473.959 Q104.625,474.209 104.625,474.5527 Q104.625,474.8965 104.2813,475.3027 Q103.7813,475.8809 102.9844,476.209 Q101.9063,476.6621 100.6094,476.6621 Q99.0938,476.6621 97.8906,476.0371 Q96.9063,475.5371 96.2188,474.4746 Q95.5313,473.3965 95.5313,472.1152 L95.5313,470.959 Q95.5313,469.6309 96.1406,468.4902 Q96.7656,467.334 97.8594,466.7246 Q98.9531,466.0996 100.1875,466.0996 Q100.9219,466.0996 101.5625,466.2715 Q102.2188,466.4277 102.7656,466.7871 Z " fill="#000000"/><text fill="#000000" font-family="sans-serif" font-size="12" font-style="italic" lengthAdjust="spacing" textLength="53" x="112" y="466.5703">&#171;service&#187;</text><text fill="#000000" font-family="sans-serif" font-size="14" lengthAdjust="spacing" textLength="38" x="119.5" y="484.6895">SMTP</text><line style="stroke:#181818;stroke-width:0.5;" x1="86" x2="165" y1="493.2031" y2="493.2031"/><line style="stroke:#181818;stroke-width:0.5;" x1="86" x2="165" y1="501.2031" y2="501.2031"/></g><!--class RepositoryFactory--><g id="elem_RepositoryFactory"><rect fill="#F1F1F1" height="48" id="RepositoryFactory" rx="2.5" ry="2.5" style="stroke:#181818;stroke-width:0.5;" width="148" x="398.5" y="455.1211"/><ellipse cx="413.5" cy="471.1211" fill="#ADD1B2" rx="11" ry="11" style="stroke:#181818;stroke-width:1.0;"/><path d="M416.2656,466.9961 Q416.4219,466.7773 416.6094,466.668 Q416.7969,466.5586 417.0156,466.5586 Q417.3906,466.5586 417.625,466.8242 Q417.8594,467.0742 417.8594,467.6836 L417.8594,469.1367 Q417.8594,469.7461 417.625,470.0117 Q417.3906,470.2773 417.0156,470.2773 Q416.6719,470.2773 416.4688,470.0742 Q416.2656,469.8867 416.1563,469.3711 Q416.1094,469.0117 415.9219,468.8242 Q415.5938,468.4492 414.9844,468.2305 Q414.375,468.0117 413.75,468.0117 Q412.9844,468.0117 412.3438,468.3398 Q411.7188,468.668 411.2188,469.418 Q410.7344,470.168 410.7344,471.1992 L410.7344,472.293 Q410.7344,473.5273 411.625,474.3555 Q412.5156,475.168 414.1094,475.168 Q415.0469,475.168 415.7031,474.918 Q416.0938,474.7617 416.5156,474.3242 Q416.7813,474.0586 416.9219,473.9805 Q417.0781,473.9023 417.2813,473.9023 Q417.6094,473.9023 417.8594,474.168 Q418.125,474.418 418.125,474.7617 Q418.125,475.1055 417.7813,475.5117 Q417.2813,476.0898 416.4844,476.418 Q415.4063,476.8711 414.1094,476.8711 Q412.5938,476.8711 411.3906,476.2461 Q410.4063,475.7461 409.7188,474.6836 Q409.0313,473.6055 409.0313,472.3242 L409.0313,471.168 Q409.0313,469.8398 409.6406,468.6992 Q410.2656,467.543 411.3594,466.9336 Q412.4531,466.3086 413.6875,466.3086 Q414.4219,466.3086 415.0625,466.4805 Q415.7188,466.6367 416.2656,466.9961 Z " fill="#000000"/><text fill="#000000" font-family="sans-serif" font-size="14" lengthAdjust="spacing" textLength="116" x="427.5" y="476.918">RepositoryFactory</text><line style="stroke:#181818;stroke-width:0.5;" x1="399.5" x2="545.5" y1="487.1211" y2="487.1211"/><line style="stroke:#181818;stroke-width:0.5;" x1="399.5" x2="545.5" y1="495.1211" y2="495.1211"/></g><!--link ResultCandidatesNotificationUI to ResultCandidatesNotificationController--><g id="link_ResultCandidatesNotificationUI_ResultCandidatesNotificationController"><path codeLine="21" d="M245.5,107.7811 C245.5,126.2411 245.5,143.9111 245.5,162.3811 " fill="none" id="ResultCandidatesNotificationUI-to-ResultCandidatesNotificationController" style="stroke:#181818;stroke-width:1.0;stroke-dasharray:7.0,7.0;"/><polygon fill="#181818" points="245.5,168.3811,249.5,159.3811,245.5,163.3811,241.5,159.3811,245.5,168.3811" style="stroke:#181818;stroke-width:1.0;"/></g><!--link ResultCandidatesNotificationController to JobOpeningManagementService--><g id="link_ResultCandidatesNotificationController_JobOpeningManagementService"><path codeLine="23" d="M219.76,229.7211 C199.51,253.0111 175.3777,280.764 155.1377,304.034 " fill="none" id="ResultCandidatesNotificationController-to-JobOpeningManagementService" style="stroke:#181818;stroke-width:1.0;stroke-dasharray:7.0,7.0;"/><polygon fill="#181818" points="151.2,308.5611,160.1246,304.3955,154.4814,304.7885,154.0884,299.1453,151.2,308.5611" style="stroke:#181818;stroke-width:1.0;"/><polygon fill="#000000" points="195.219,273.0396,203.372,268.1427,198.9367,264.2857,195.219,273.0396" style="stroke:#000000;stroke-width:1.0;"/><text fill="#000000" font-family="sans-serif" font-size="13" lengthAdjust="spacing" textLength="28" x="207.5" y="274.6494">uses</text></g><!--link ResultCandidatesNotificationController to JobOpeningRepository--><g id="link_ResultCandidatesNotificationController_JobOpeningRepository"><path codeLine="24" d="M271.67,229.7211 C292.26,253.0111 316.8262,280.7957 337.3962,304.0657 " fill="none" id="ResultCandidatesNotificationController-to-JobOpeningRepository" style="stroke:#181818;stroke-width:1.0;stroke-dasharray:7.0,7.0;"/><polygon fill="#181818" points="341.37,308.5611,338.4062,299.1688,338.0585,304.8149,332.4123,304.4672,341.37,308.5611" style="stroke:#181818;stroke-width:1.0;"/><polygon fill="#000000" points="321.8117,273.0126,318.0226,264.2894,313.6189,268.1826,321.8117,273.0126" style="stroke:#000000;stroke-width:1.0;"/><text fill="#000000" font-family="sans-serif" font-size="13" lengthAdjust="spacing" textLength="56" x="327.5" y="274.6494">accesses</text></g><!--reverse link JobOpeningRepository to RepositoryFactory--><g id="link_JobOpeningRepository_RepositoryFactory"><path codeLine="26" d="M409.6773,373.7064 C419.6373,382.6364 425.39,388.9311 433.5,399.6211 C446.38,416.5911 456.83,438.4811 463.67,454.8311 " fill="none" id="JobOpeningRepository-backto-RepositoryFactory" style="stroke:#181818;stroke-width:1.0;stroke-dasharray:7.0,7.0;"/><polygon fill="#181818" points="405.21,369.7011,409.2408,378.6874,408.9328,373.0389,414.5812,372.7309,405.21,369.7011" style="stroke:#181818;stroke-width:1.0;"/><polygon fill="#000000" points="446.7297,405.1042,449.2946,414.2624,454.1878,411.0057,446.7297,405.1042" style="stroke:#000000;stroke-width:1.0;"/><text fill="#000000" font-family="sans-serif" font-size="13" lengthAdjust="spacing" textLength="43" x="458.5" y="414.6494">creates</text></g><!--link JobOpeningRepository to StatusEmail--><g id="link_JobOpeningRepository_StatusEmail"><path codeLine="27" d="M330.65,369.8211 C322.47,378.4711 314.93,388.6011 310.5,399.6211 C304.35,414.9211 303.4864,427.3249 304.8364,442.4449 " fill="none" id="JobOpeningRepository-to-StatusEmail" style="stroke:#181818;stroke-width:1.0;stroke-dasharray:7.0,7.0;"/><polygon fill="#181818" points="305.37,448.4211,308.5538,439.101,304.9253,443.4409,300.5855,439.8125,305.37,448.4211" style="stroke:#181818;stroke-width:1.0;"/><polygon fill="#000000" points="313.8254,413.9778,319.624,406.4394,314.0856,404.4708,313.8254,413.9778" style="stroke:#000000;stroke-width:1.0;"/><text fill="#000000" font-family="sans-serif" font-size="13" lengthAdjust="spacing" textLength="104" x="324.5" y="414.6494">saves in database</text></g><!--link JobOpeningManagementService to SMTP--><g id="link_JobOpeningManagementService_SMTP"><path codeLine="29" d="M125.5,369.7211 C125.5,393.0111 125.5,419.2911 125.5,442.5611 " fill="none" id="JobOpeningManagementService-to-SMTP" style="stroke:#181818;stroke-width:1.0;stroke-dasharray:7.0,7.0;"/><polygon fill="#181818" points="125.5,448.5611,129.5,439.5611,125.5,443.5611,121.5,439.5611,125.5,448.5611" style="stroke:#181818;stroke-width:1.0;"/><polygon fill="#000000" points="130.5,414.2666,133.4389,405.2215,127.5611,405.2215,130.5,414.2666" style="stroke:#000000;stroke-width:1.0;"/><text fill="#000000" font-family="sans-serif" font-size="13" lengthAdjust="spacing" textLength="70" x="139.5" y="414.6494">sends email</text></g><!--SRC=[dP51ImCn48Nl-HLpr8EBeATI5cIhKA4gNVi3fjdfEZHDbinifVvwiwsqMoorUCkGzxx9Uv4b-mOZhg11kyIQIjquWaXMqTUEZEm5ye5L-6HVmmATaEbTMOSY3wgHvwtIs0PVyXV1hJ7Acd15TmyZnhfJNnMZQxY1MN5xTs_CrWjJajPfWRxY2fNa9IWlsA9oyBCn38VibU82BUNv9PuYU8t1EOh9Q_V3mVmSvgyD-HHdWZxbNf7NakAQBIM7x4wdv5DgWh26k4cwk1yEqb9HMtbS8RkaMADhUvnoylvsp3T_HC-o_CAavr6zHZhakVm3Q8K4yl_nUWKD0AqbsS7CwGwp30xZ4zeVeutKROJXQLktib_q00JNISuUqajnZaB7At-dt2AwxqXUyfK0RKcv-GO0]--></g></svg>