<?xml version="1.0" encoding="us-ascii" standalone="no"?><svg xmlns="http://www.w3.org/2000/svg" xmlns:xlink="http://www.w3.org/1999/xlink" contentStyleType="text/css" height="469px" preserveAspectRatio="none" style="width:504px;height:469px;background:#FFFFFF;" version="1.1" viewBox="0 0 504 469" width="504px" zoomAndPan="magnify"><defs/><g><text fill="#000000" font-family="sans-serif" font-size="14" font-weight="bold" lengthAdjust="spacing" textLength="194" x="148" y="25.1074">Domain Model (DM) - UC020</text><!--cluster InterviewAggregate--><g id="cluster_InterviewAggregate"><rect fill="none" height="106" rx="2.5" ry="2.5" style="stroke:#000000;stroke-width:1.5;" width="155" x="121.5" y="183.6211"/><text fill="#000000" font-family="sans-serif" font-size="14" font-weight="bold" lengthAdjust="spacing" textLength="139" x="129.5" y="200.7285">InterviewAggregate</text></g><!--cluster InterviewModelAggregate--><g id="cluster_InterviewModelAggregate"><rect fill="none" height="106" rx="2.5" ry="2.5" style="stroke:#000000;stroke-width:1.5;" width="199" x="172.5" y="357.6211"/><text fill="#000000" font-family="sans-serif" font-size="14" font-weight="bold" lengthAdjust="spacing" textLength="183" x="180.5" y="374.7285">InterviewModelAggregate</text></g><!--class Interview--><g id="elem_Interview"><rect codeLine="20" fill="#F1F1F1" height="52.582" id="Interview" rx="2.5" ry="2.5" style="stroke:#181818;stroke-width:0.5;" width="75" x="184" y="220.6211"/><text fill="#000000" font-family="sans-serif" font-size="12" font-style="italic" lengthAdjust="spacing" textLength="73" x="185" y="238.5703">&#171;Root Entity&#187;</text><text fill="#000000" font-family="sans-serif" font-size="14" lengthAdjust="spacing" textLength="55" x="194" y="256.6895">Interview</text><line style="stroke:#181818;stroke-width:0.5;" x1="185" x2="258" y1="265.2031" y2="265.2031"/></g><!--class InterviewModel--><g id="elem_InterviewModel"><rect codeLine="24" fill="#F1F1F1" height="52.582" id="InterviewModel" rx="2.5" ry="2.5" style="stroke:#181818;stroke-width:0.5;" width="99" x="222" y="394.6211"/><text fill="#000000" font-family="sans-serif" font-size="12" font-style="italic" lengthAdjust="spacing" textLength="73" x="235" y="412.5703">&#171;Root Entity&#187;</text><text fill="#000000" font-family="sans-serif" font-size="14" lengthAdjust="spacing" textLength="93" x="225" y="430.6895">InterviewModel</text><line style="stroke:#181818;stroke-width:0.5;" x1="223" x2="320" y1="439.2031" y2="439.2031"/></g><!--class CustomerManager--><g id="elem_CustomerManager"><rect codeLine="13" fill="#F1F1F1" height="52.582" id="CustomerManager" rx="2.5" ry="2.5" style="stroke:#181818;stroke-width:0.5;" width="123" x="160" y="46.6211"/><text fill="#000000" font-family="sans-serif" font-size="12" font-style="italic" lengthAdjust="spacing" textLength="73" x="185" y="64.5703">&#171;Root Entity&#187;</text><text fill="#000000" font-family="sans-serif" font-size="14" lengthAdjust="spacing" textLength="117" x="163" y="82.6895">CustomerManager</text><line style="stroke:#181818;stroke-width:0.5;" x1="161" x2="282" y1="91.2031" y2="91.2031"/></g><g id="elem_GMN3"><path d="M6,59.6211 L6,86.9121 A0,0 0 0 0 6,86.9121 L125,86.9121 A0,0 0 0 0 125,86.9121 L125,77.6211 L159.98,73.6211 L125,69.6211 L125,69.6211 L115,59.6211 L6,59.6211 A0,0 0 0 0 6,59.6211 " fill="#FEFFDD" style="stroke:#181818;stroke-width:0.5;"/><path d="M115,59.6211 L115,69.6211 L125,69.6211 L115,59.6211 " fill="#FEFFDD" style="stroke:#181818;stroke-width:0.5;"/><text fill="#000000" font-family="sans-serif" font-size="13" lengthAdjust="spacing" textLength="98" x="12" y="78.6494">conceptual class</text></g><!--class ANTLR--><g id="elem_ANTLR"><rect codeLine="16" fill="#F1F1F1" height="52.582" id="ANTLR" rx="2.5" ry="2.5" style="stroke:#181818;stroke-width:0.5;" width="57" x="294" y="220.6211"/><text fill="#000000" font-family="sans-serif" font-size="12" font-style="italic" lengthAdjust="spacing" textLength="55" x="295" y="238.5703">&#171;Service&#187;</text><text fill="#000000" font-family="sans-serif" font-size="14" lengthAdjust="spacing" textLength="45" x="300" y="256.6895">ANTLR</text><line style="stroke:#181818;stroke-width:0.5;" x1="295" x2="350" y1="265.2031" y2="265.2031"/></g><g id="elem_GMN7"><path d="M386,233.6211 L386,243.6211 L351,247.6211 L386,251.6211 L386,260.9121 A0,0 0 0 0 386,260.9121 L497,260.9121 A0,0 0 0 0 497,260.9121 L497,243.6211 L487,233.6211 L386,233.6211 A0,0 0 0 0 386,233.6211 " fill="#FEFFDD" style="stroke:#181818;stroke-width:0.5;"/><path d="M487,233.6211 L487,243.6211 L497,243.6211 L487,233.6211 " fill="#FEFFDD" style="stroke:#181818;stroke-width:0.5;"/><text fill="#000000" font-family="sans-serif" font-size="13" lengthAdjust="spacing" textLength="90" x="392" y="252.6494">external service</text></g><!--link CustomerManager to Interview--><g id="link_CustomerManager_Interview"><path codeLine="27" d="M221.5,99.9311 C221.5,132.7211 221.5,187.8911 221.5,220.5711 " fill="none" id="CustomerManager-Interview" style="stroke:#181818;stroke-width:1.0;"/><polygon fill="#000000" points="158.5,155.8966,161.4389,146.8515,155.5611,146.8515,158.5,155.8966" style="stroke:#000000;stroke-width:1.0;"/><text fill="#000000" font-family="sans-serif" font-size="13" lengthAdjust="spacing" textLength="53" x="167.5" y="156.2794">manages</text><text fill="#000000" font-family="sans-serif" font-size="13" lengthAdjust="spacing" textLength="7" x="213.7781" y="121.3152">1</text><text fill="#000000" font-family="sans-serif" font-size="13" lengthAdjust="spacing" textLength="5" x="215.8906" y="209.1424">*</text></g><!--link Interview to InterviewModel--><g id="link_Interview_InterviewModel"><path codeLine="28" d="M240.5,273.9311 C240.5,306.7211 240.5,361.8911 240.5,394.5711 " fill="none" id="Interview-InterviewModel" style="stroke:#181818;stroke-width:1.0;"/><polygon fill="#000000" points="191.5,329.8966,194.4389,320.8515,188.5611,320.8515,191.5,329.8966" style="stroke:#000000;stroke-width:1.0;"/><text fill="#000000" font-family="sans-serif" font-size="13" lengthAdjust="spacing" textLength="39" x="200.5" y="330.2794">follows</text><text fill="#000000" font-family="sans-serif" font-size="13" lengthAdjust="spacing" textLength="7" x="236.6969" y="295.3152">1</text><text fill="#000000" font-family="sans-serif" font-size="13" lengthAdjust="spacing" textLength="7" x="225.0906" y="383.1424">1</text></g><!--link ANTLR to InterviewModel--><g id="link_ANTLR_InterviewModel"><path codeLine="29" d="M307.5,273.9311 C307.5,306.7211 307.5,361.8911 307.5,394.5711 " fill="none" id="ANTLR-InterviewModel" style="stroke:#181818;stroke-width:1.0;"/><polygon fill="#000000" points="258.5,329.8966,261.4389,320.8515,255.5611,320.8515,258.5,329.8966" style="stroke:#000000;stroke-width:1.0;"/><text fill="#000000" font-family="sans-serif" font-size="13" lengthAdjust="spacing" textLength="39" x="267.5" y="330.2794">parses</text><text fill="#000000" font-family="sans-serif" font-size="13" lengthAdjust="spacing" textLength="7" x="296.6844" y="295.3152">1</text><text fill="#000000" font-family="sans-serif" font-size="13" lengthAdjust="spacing" textLength="5" x="310.6656" y="383.1424">*</text></g><!--SRC=[XPB1QiCm44Jl-eh5fxPWI7eq8H2I7W9D3t7x0QgybaLahP4sTTtIVwzYDsb83F59Q6RUZXQ7dN6DzBA6HggTr9XpPn4yAfPEMnJXP0YLBAWrJaCfRJXNh778NOD0dYiIPugoCeG5ipVlUyQr8fURBuI949Kf49JnAixeppN6R164OCEnmOfgQHnig40BTwlDFQJmjfmyncWFXUK-CDNeDzB5sXvcioqHmvEB-Mu-5uuOmMB9GEMLEODOHM73Usc7aaViukNrUHjXEVeFe_08yaPNFMdGCy1FHkzYEWn68VuM26l7Xoji5rfxr3AclmN4RnXmagyQ_umm-lVV00qx6g5TlZgP9f2cAIGFoLcD3EfU3p0N_xSdxpIvd9H1ITPIUmWCwnW57ytnJmWz_1S0]--></g></svg>