<?xml version="1.0" encoding="us-ascii" standalone="no"?><svg xmlns="http://www.w3.org/2000/svg" xmlns:xlink="http://www.w3.org/1999/xlink" contentStyleType="text/css" height="796px" preserveAspectRatio="none" style="width:1058px;height:796px;background:#FFFFFF;" version="1.1" viewBox="0 0 1058 796" width="1058px" zoomAndPan="magnify"><defs/><g><text fill="#000000" font-family="sans-serif" font-size="14" font-weight="bold" lengthAdjust="spacing" textLength="190" x="427.25" y="25.1074">Class Diagram (CD) - UC001</text><!--class ListJobOpeningsInterviewGradesUI--><g id="elem_ListJobOpeningsInterviewGradesUI"><rect codeLine="8" fill="#F1F1F1" height="60.582" id="ListJobOpeningsInterviewGradesUI" rx="2.5" ry="2.5" style="stroke:#181818;stroke-width:0.5;" width="251" x="321" y="46.6211"/><ellipse cx="336" cy="68.9121" fill="#ADD1B2" rx="11" ry="11" style="stroke:#181818;stroke-width:1.0;"/><path d="M338.7656,64.7871 Q338.9219,64.5684 339.1094,64.459 Q339.2969,64.3496 339.5156,64.3496 Q339.8906,64.3496 340.125,64.6152 Q340.3594,64.8652 340.3594,65.4746 L340.3594,66.9277 Q340.3594,67.5371 340.125,67.8027 Q339.8906,68.0684 339.5156,68.0684 Q339.1719,68.0684 338.9688,67.8652 Q338.7656,67.6777 338.6563,67.1621 Q338.6094,66.8027 338.4219,66.6152 Q338.0938,66.2402 337.4844,66.0215 Q336.875,65.8027 336.25,65.8027 Q335.4844,65.8027 334.8438,66.1309 Q334.2188,66.459 333.7188,67.209 Q333.2344,67.959 333.2344,68.9902 L333.2344,70.084 Q333.2344,71.3184 334.125,72.1465 Q335.0156,72.959 336.6094,72.959 Q337.5469,72.959 338.2031,72.709 Q338.5938,72.5527 339.0156,72.1152 Q339.2813,71.8496 339.4219,71.7715 Q339.5781,71.6934 339.7813,71.6934 Q340.1094,71.6934 340.3594,71.959 Q340.625,72.209 340.625,72.5527 Q340.625,72.8965 340.2813,73.3027 Q339.7813,73.8809 338.9844,74.209 Q337.9063,74.6621 336.6094,74.6621 Q335.0938,74.6621 333.8906,74.0371 Q332.9063,73.5371 332.2188,72.4746 Q331.5313,71.3965 331.5313,70.1152 L331.5313,68.959 Q331.5313,67.6309 332.1406,66.4902 Q332.7656,65.334 333.8594,64.7246 Q334.9531,64.0996 336.1875,64.0996 Q336.9219,64.0996 337.5625,64.2715 Q338.2188,64.4277 338.7656,64.7871 Z " fill="#000000"/><text fill="#000000" font-family="sans-serif" font-size="12" font-style="italic" lengthAdjust="spacing" textLength="61" x="429" y="64.5703">&#171;interface&#187;</text><text fill="#000000" font-family="sans-serif" font-size="14" lengthAdjust="spacing" textLength="219" x="350" y="82.6895">ListJobOpeningsInterviewGradesUI</text><line style="stroke:#181818;stroke-width:0.5;" x1="322" x2="571" y1="91.2031" y2="91.2031"/><line style="stroke:#181818;stroke-width:0.5;" x1="322" x2="571" y1="99.2031" y2="99.2031"/></g><!--class ListJobOpeningsInterviewGradesController--><g id="elem_ListJobOpeningsInterviewGradesController"><rect codeLine="10" fill="#F1F1F1" height="60.582" id="ListJobOpeningsInterviewGradesController" rx="2.5" ry="2.5" style="stroke:#181818;stroke-width:0.5;" width="301" x="296" y="168.6211"/><ellipse cx="311" cy="190.9121" fill="#ADD1B2" rx="11" ry="11" style="stroke:#181818;stroke-width:1.0;"/><path d="M313.7656,186.7871 Q313.9219,186.5684 314.1094,186.459 Q314.2969,186.3496 314.5156,186.3496 Q314.8906,186.3496 315.125,186.6152 Q315.3594,186.8652 315.3594,187.4746 L315.3594,188.9277 Q315.3594,189.5371 315.125,189.8027 Q314.8906,190.0684 314.5156,190.0684 Q314.1719,190.0684 313.9688,189.8652 Q313.7656,189.6777 313.6563,189.1621 Q313.6094,188.8027 313.4219,188.6152 Q313.0938,188.2402 312.4844,188.0215 Q311.875,187.8027 311.25,187.8027 Q310.4844,187.8027 309.8438,188.1309 Q309.2188,188.459 308.7188,189.209 Q308.2344,189.959 308.2344,190.9902 L308.2344,192.084 Q308.2344,193.3184 309.125,194.1465 Q310.0156,194.959 311.6094,194.959 Q312.5469,194.959 313.2031,194.709 Q313.5938,194.5527 314.0156,194.1152 Q314.2813,193.8496 314.4219,193.7715 Q314.5781,193.6934 314.7813,193.6934 Q315.1094,193.6934 315.3594,193.959 Q315.625,194.209 315.625,194.5527 Q315.625,194.8965 315.2813,195.3027 Q314.7813,195.8809 313.9844,196.209 Q312.9063,196.6621 311.6094,196.6621 Q310.0938,196.6621 308.8906,196.0371 Q307.9063,195.5371 307.2188,194.4746 Q306.5313,193.3965 306.5313,192.1152 L306.5313,190.959 Q306.5313,189.6309 307.1406,188.4902 Q307.7656,187.334 308.8594,186.7246 Q309.9531,186.0996 311.1875,186.0996 Q311.9219,186.0996 312.5625,186.2715 Q313.2188,186.4277 313.7656,186.7871 Z " fill="#000000"/><text fill="#000000" font-family="sans-serif" font-size="12" font-style="italic" lengthAdjust="spacing" textLength="65" x="427" y="186.5703">&#171;controller&#187;</text><text fill="#000000" font-family="sans-serif" font-size="14" lengthAdjust="spacing" textLength="269" x="325" y="204.6895">ListJobOpeningsInterviewGradesController</text><line style="stroke:#181818;stroke-width:0.5;" x1="297" x2="596" y1="213.2031" y2="213.2031"/><line style="stroke:#181818;stroke-width:0.5;" x1="297" x2="596" y1="221.2031" y2="221.2031"/></g><!--class JobOpeningManagementService--><g id="elem_JobOpeningManagementService"><rect codeLine="12" fill="#F1F1F1" height="60.582" id="JobOpeningManagementService" rx="2.5" ry="2.5" style="stroke:#181818;stroke-width:0.5;" width="237" x="7" y="308.6211"/><ellipse cx="22" cy="330.9121" fill="#ADD1B2" rx="11" ry="11" style="stroke:#181818;stroke-width:1.0;"/><path d="M24.7656,326.7871 Q24.9219,326.5684 25.1094,326.459 Q25.2969,326.3496 25.5156,326.3496 Q25.8906,326.3496 26.125,326.6152 Q26.3594,326.8652 26.3594,327.4746 L26.3594,328.9277 Q26.3594,329.5371 26.125,329.8027 Q25.8906,330.0684 25.5156,330.0684 Q25.1719,330.0684 24.9688,329.8652 Q24.7656,329.6777 24.6563,329.1621 Q24.6094,328.8027 24.4219,328.6152 Q24.0938,328.2402 23.4844,328.0215 Q22.875,327.8027 22.25,327.8027 Q21.4844,327.8027 20.8438,328.1309 Q20.2188,328.459 19.7188,329.209 Q19.2344,329.959 19.2344,330.9902 L19.2344,332.084 Q19.2344,333.3184 20.125,334.1465 Q21.0156,334.959 22.6094,334.959 Q23.5469,334.959 24.2031,334.709 Q24.5938,334.5527 25.0156,334.1152 Q25.2813,333.8496 25.4219,333.7715 Q25.5781,333.6934 25.7813,333.6934 Q26.1094,333.6934 26.3594,333.959 Q26.625,334.209 26.625,334.5527 Q26.625,334.8965 26.2813,335.3027 Q25.7813,335.8809 24.9844,336.209 Q23.9063,336.6621 22.6094,336.6621 Q21.0938,336.6621 19.8906,336.0371 Q18.9063,335.5371 18.2188,334.4746 Q17.5313,333.3965 17.5313,332.1152 L17.5313,330.959 Q17.5313,329.6309 18.1406,328.4902 Q18.7656,327.334 19.8594,326.7246 Q20.9531,326.0996 22.1875,326.0996 Q22.9219,326.0996 23.5625,326.2715 Q24.2188,326.4277 24.7656,326.7871 Z " fill="#000000"/><text fill="#000000" font-family="sans-serif" font-size="12" font-style="italic" lengthAdjust="spacing" textLength="53" x="112" y="326.5703">&#171;service&#187;</text><text fill="#000000" font-family="sans-serif" font-size="14" lengthAdjust="spacing" textLength="205" x="36" y="344.6895">JobOpeningManagementService</text><line style="stroke:#181818;stroke-width:0.5;" x1="8" x2="243" y1="353.2031" y2="353.2031"/><line style="stroke:#181818;stroke-width:0.5;" x1="8" x2="243" y1="361.2031" y2="361.2031"/></g><!--class JobApplicationManagementService--><g id="elem_JobApplicationManagementService"><rect codeLine="14" fill="#F1F1F1" height="60.582" id="JobApplicationManagementService" rx="2.5" ry="2.5" style="stroke:#181818;stroke-width:0.5;" width="252" x="279.5" y="308.6211"/><ellipse cx="294.5" cy="330.9121" fill="#ADD1B2" rx="11" ry="11" style="stroke:#181818;stroke-width:1.0;"/><path d="M297.2656,326.7871 Q297.4219,326.5684 297.6094,326.459 Q297.7969,326.3496 298.0156,326.3496 Q298.3906,326.3496 298.625,326.6152 Q298.8594,326.8652 298.8594,327.4746 L298.8594,328.9277 Q298.8594,329.5371 298.625,329.8027 Q298.3906,330.0684 298.0156,330.0684 Q297.6719,330.0684 297.4688,329.8652 Q297.2656,329.6777 297.1563,329.1621 Q297.1094,328.8027 296.9219,328.6152 Q296.5938,328.2402 295.9844,328.0215 Q295.375,327.8027 294.75,327.8027 Q293.9844,327.8027 293.3438,328.1309 Q292.7188,328.459 292.2188,329.209 Q291.7344,329.959 291.7344,330.9902 L291.7344,332.084 Q291.7344,333.3184 292.625,334.1465 Q293.5156,334.959 295.1094,334.959 Q296.0469,334.959 296.7031,334.709 Q297.0938,334.5527 297.5156,334.1152 Q297.7813,333.8496 297.9219,333.7715 Q298.0781,333.6934 298.2813,333.6934 Q298.6094,333.6934 298.8594,333.959 Q299.125,334.209 299.125,334.5527 Q299.125,334.8965 298.7813,335.3027 Q298.2813,335.8809 297.4844,336.209 Q296.4063,336.6621 295.1094,336.6621 Q293.5938,336.6621 292.3906,336.0371 Q291.4063,335.5371 290.7188,334.4746 Q290.0313,333.3965 290.0313,332.1152 L290.0313,330.959 Q290.0313,329.6309 290.6406,328.4902 Q291.2656,327.334 292.3594,326.7246 Q293.4531,326.0996 294.6875,326.0996 Q295.4219,326.0996 296.0625,326.2715 Q296.7188,326.4277 297.2656,326.7871 Z " fill="#000000"/><text fill="#000000" font-family="sans-serif" font-size="12" font-style="italic" lengthAdjust="spacing" textLength="53" x="392" y="326.5703">&#171;service&#187;</text><text fill="#000000" font-family="sans-serif" font-size="14" lengthAdjust="spacing" textLength="220" x="308.5" y="344.6895">JobApplicationManagementService</text><line style="stroke:#181818;stroke-width:0.5;" x1="280.5" x2="530.5" y1="353.2031" y2="353.2031"/><line style="stroke:#181818;stroke-width:0.5;" x1="280.5" x2="530.5" y1="361.2031" y2="361.2031"/></g><!--class JobOpeningRepository--><g id="elem_JobOpeningRepository"><rect codeLine="16" fill="#F1F1F1" height="60.582" id="JobOpeningRepository" rx="2.5" ry="2.5" style="stroke:#181818;stroke-width:0.5;" width="176" x="566.5" y="308.6211"/><ellipse cx="581.5" cy="330.9121" fill="#ADD1B2" rx="11" ry="11" style="stroke:#181818;stroke-width:1.0;"/><path d="M584.2656,326.7871 Q584.4219,326.5684 584.6094,326.459 Q584.7969,326.3496 585.0156,326.3496 Q585.3906,326.3496 585.625,326.6152 Q585.8594,326.8652 585.8594,327.4746 L585.8594,328.9277 Q585.8594,329.5371 585.625,329.8027 Q585.3906,330.0684 585.0156,330.0684 Q584.6719,330.0684 584.4688,329.8652 Q584.2656,329.6777 584.1563,329.1621 Q584.1094,328.8027 583.9219,328.6152 Q583.5938,328.2402 582.9844,328.0215 Q582.375,327.8027 581.75,327.8027 Q580.9844,327.8027 580.3438,328.1309 Q579.7188,328.459 579.2188,329.209 Q578.7344,329.959 578.7344,330.9902 L578.7344,332.084 Q578.7344,333.3184 579.625,334.1465 Q580.5156,334.959 582.1094,334.959 Q583.0469,334.959 583.7031,334.709 Q584.0938,334.5527 584.5156,334.1152 Q584.7813,333.8496 584.9219,333.7715 Q585.0781,333.6934 585.2813,333.6934 Q585.6094,333.6934 585.8594,333.959 Q586.125,334.209 586.125,334.5527 Q586.125,334.8965 585.7813,335.3027 Q585.2813,335.8809 584.4844,336.209 Q583.4063,336.6621 582.1094,336.6621 Q580.5938,336.6621 579.3906,336.0371 Q578.4063,335.5371 577.7188,334.4746 Q577.0313,333.3965 577.0313,332.1152 L577.0313,330.959 Q577.0313,329.6309 577.6406,328.4902 Q578.2656,327.334 579.3594,326.7246 Q580.4531,326.0996 581.6875,326.0996 Q582.4219,326.0996 583.0625,326.2715 Q583.7188,326.4277 584.2656,326.7871 Z " fill="#000000"/><text fill="#000000" font-family="sans-serif" font-size="12" font-style="italic" lengthAdjust="spacing" textLength="68" x="633.5" y="326.5703">&#171;repository&#187;</text><text fill="#000000" font-family="sans-serif" font-size="14" lengthAdjust="spacing" textLength="144" x="595.5" y="344.6895">JobOpeningRepository</text><line style="stroke:#181818;stroke-width:0.5;" x1="567.5" x2="741.5" y1="353.2031" y2="353.2031"/><line style="stroke:#181818;stroke-width:0.5;" x1="567.5" x2="741.5" y1="361.2031" y2="361.2031"/></g><!--class JobApplicationRepository--><g id="elem_JobApplicationRepository"><rect codeLine="18" fill="#F1F1F1" height="60.582" id="JobApplicationRepository" rx="2.5" ry="2.5" style="stroke:#181818;stroke-width:0.5;" width="191" x="778" y="308.6211"/><ellipse cx="793" cy="330.9121" fill="#ADD1B2" rx="11" ry="11" style="stroke:#181818;stroke-width:1.0;"/><path d="M795.7656,326.7871 Q795.9219,326.5684 796.1094,326.459 Q796.2969,326.3496 796.5156,326.3496 Q796.8906,326.3496 797.125,326.6152 Q797.3594,326.8652 797.3594,327.4746 L797.3594,328.9277 Q797.3594,329.5371 797.125,329.8027 Q796.8906,330.0684 796.5156,330.0684 Q796.1719,330.0684 795.9688,329.8652 Q795.7656,329.6777 795.6563,329.1621 Q795.6094,328.8027 795.4219,328.6152 Q795.0938,328.2402 794.4844,328.0215 Q793.875,327.8027 793.25,327.8027 Q792.4844,327.8027 791.8438,328.1309 Q791.2188,328.459 790.7188,329.209 Q790.2344,329.959 790.2344,330.9902 L790.2344,332.084 Q790.2344,333.3184 791.125,334.1465 Q792.0156,334.959 793.6094,334.959 Q794.5469,334.959 795.2031,334.709 Q795.5938,334.5527 796.0156,334.1152 Q796.2813,333.8496 796.4219,333.7715 Q796.5781,333.6934 796.7813,333.6934 Q797.1094,333.6934 797.3594,333.959 Q797.625,334.209 797.625,334.5527 Q797.625,334.8965 797.2813,335.3027 Q796.7813,335.8809 795.9844,336.209 Q794.9063,336.6621 793.6094,336.6621 Q792.0938,336.6621 790.8906,336.0371 Q789.9063,335.5371 789.2188,334.4746 Q788.5313,333.3965 788.5313,332.1152 L788.5313,330.959 Q788.5313,329.6309 789.1406,328.4902 Q789.7656,327.334 790.8594,326.7246 Q791.9531,326.0996 793.1875,326.0996 Q793.9219,326.0996 794.5625,326.2715 Q795.2188,326.4277 795.7656,326.7871 Z " fill="#000000"/><text fill="#000000" font-family="sans-serif" font-size="12" font-style="italic" lengthAdjust="spacing" textLength="68" x="852.5" y="326.5703">&#171;repository&#187;</text><text fill="#000000" font-family="sans-serif" font-size="14" lengthAdjust="spacing" textLength="159" x="807" y="344.6895">JobApplicationRepository</text><line style="stroke:#181818;stroke-width:0.5;" x1="779" x2="968" y1="353.2031" y2="353.2031"/><line style="stroke:#181818;stroke-width:0.5;" x1="779" x2="968" y1="361.2031" y2="361.2031"/></g><!--class RepositoryFactory--><g id="elem_RepositoryFactory"><rect codeLine="20" fill="#F1F1F1" height="60.582" id="RepositoryFactory" rx="2.5" ry="2.5" style="stroke:#181818;stroke-width:0.5;" width="148" x="677.5" y="448.6211"/><ellipse cx="692.5" cy="470.9121" fill="#ADD1B2" rx="11" ry="11" style="stroke:#181818;stroke-width:1.0;"/><path d="M695.2656,466.7871 Q695.4219,466.5684 695.6094,466.459 Q695.7969,466.3496 696.0156,466.3496 Q696.3906,466.3496 696.625,466.6152 Q696.8594,466.8652 696.8594,467.4746 L696.8594,468.9277 Q696.8594,469.5371 696.625,469.8027 Q696.3906,470.0684 696.0156,470.0684 Q695.6719,470.0684 695.4688,469.8652 Q695.2656,469.6777 695.1563,469.1621 Q695.1094,468.8027 694.9219,468.6152 Q694.5938,468.2402 693.9844,468.0215 Q693.375,467.8027 692.75,467.8027 Q691.9844,467.8027 691.3438,468.1309 Q690.7188,468.459 690.2188,469.209 Q689.7344,469.959 689.7344,470.9902 L689.7344,472.084 Q689.7344,473.3184 690.625,474.1465 Q691.5156,474.959 693.1094,474.959 Q694.0469,474.959 694.7031,474.709 Q695.0938,474.5527 695.5156,474.1152 Q695.7813,473.8496 695.9219,473.7715 Q696.0781,473.6934 696.2813,473.6934 Q696.6094,473.6934 696.8594,473.959 Q697.125,474.209 697.125,474.5527 Q697.125,474.8965 696.7813,475.3027 Q696.2813,475.8809 695.4844,476.209 Q694.4063,476.6621 693.1094,476.6621 Q691.5938,476.6621 690.3906,476.0371 Q689.4063,475.5371 688.7188,474.4746 Q688.0313,473.3965 688.0313,472.1152 L688.0313,470.959 Q688.0313,469.6309 688.6406,468.4902 Q689.2656,467.334 690.3594,466.7246 Q691.4531,466.0996 692.6875,466.0996 Q693.4219,466.0996 694.0625,466.2715 Q694.7188,466.4277 695.2656,466.7871 Z " fill="#000000"/><text fill="#000000" font-family="sans-serif" font-size="12" font-style="italic" lengthAdjust="spacing" textLength="50" x="739.5" y="466.5703">&#171;factory&#187;</text><text fill="#000000" font-family="sans-serif" font-size="14" lengthAdjust="spacing" textLength="116" x="706.5" y="484.6895">RepositoryFactory</text><line style="stroke:#181818;stroke-width:0.5;" x1="678.5" x2="824.5" y1="493.2031" y2="493.2031"/><line style="stroke:#181818;stroke-width:0.5;" x1="678.5" x2="824.5" y1="501.2031" y2="501.2031"/></g><!--class JobOpening--><g id="elem_JobOpening"><rect codeLine="22" fill="#F1F1F1" height="60.582" id="JobOpening" rx="2.5" ry="2.5" style="stroke:#181818;stroke-width:0.5;" width="108" x="508.5" y="448.6211"/><ellipse cx="523.5" cy="470.9121" fill="#ADD1B2" rx="11" ry="11" style="stroke:#181818;stroke-width:1.0;"/><path d="M526.2656,466.7871 Q526.4219,466.5684 526.6094,466.459 Q526.7969,466.3496 527.0156,466.3496 Q527.3906,466.3496 527.625,466.6152 Q527.8594,466.8652 527.8594,467.4746 L527.8594,468.9277 Q527.8594,469.5371 527.625,469.8027 Q527.3906,470.0684 527.0156,470.0684 Q526.6719,470.0684 526.4688,469.8652 Q526.2656,469.6777 526.1563,469.1621 Q526.1094,468.8027 525.9219,468.6152 Q525.5938,468.2402 524.9844,468.0215 Q524.375,467.8027 523.75,467.8027 Q522.9844,467.8027 522.3438,468.1309 Q521.7188,468.459 521.2188,469.209 Q520.7344,469.959 520.7344,470.9902 L520.7344,472.084 Q520.7344,473.3184 521.625,474.1465 Q522.5156,474.959 524.1094,474.959 Q525.0469,474.959 525.7031,474.709 Q526.0938,474.5527 526.5156,474.1152 Q526.7813,473.8496 526.9219,473.7715 Q527.0781,473.6934 527.2813,473.6934 Q527.6094,473.6934 527.8594,473.959 Q528.125,474.209 528.125,474.5527 Q528.125,474.8965 527.7813,475.3027 Q527.2813,475.8809 526.4844,476.209 Q525.4063,476.6621 524.1094,476.6621 Q522.5938,476.6621 521.3906,476.0371 Q520.4063,475.5371 519.7188,474.4746 Q519.0313,473.3965 519.0313,472.1152 L519.0313,470.959 Q519.0313,469.6309 519.6406,468.4902 Q520.2656,467.334 521.3594,466.7246 Q522.4531,466.0996 523.6875,466.0996 Q524.4219,466.0996 525.0625,466.2715 Q525.7188,466.4277 526.2656,466.7871 Z " fill="#000000"/><text fill="#000000" font-family="sans-serif" font-size="12" font-style="italic" lengthAdjust="spacing" textLength="43" x="554" y="466.5703">&#171;entity&#187;</text><text fill="#000000" font-family="sans-serif" font-size="14" lengthAdjust="spacing" textLength="76" x="537.5" y="484.6895">JobOpening</text><line style="stroke:#181818;stroke-width:0.5;" x1="509.5" x2="615.5" y1="493.2031" y2="493.2031"/><line style="stroke:#181818;stroke-width:0.5;" x1="509.5" x2="615.5" y1="501.2031" y2="501.2031"/></g><!--class JobApplication--><g id="elem_JobApplication"><rect codeLine="24" fill="#F1F1F1" height="60.582" id="JobApplication" rx="2.5" ry="2.5" style="stroke:#181818;stroke-width:0.5;" width="123" x="681" y="588.6211"/><ellipse cx="696" cy="610.9121" fill="#ADD1B2" rx="11" ry="11" style="stroke:#181818;stroke-width:1.0;"/><path d="M698.7656,606.7871 Q698.9219,606.5684 699.1094,606.459 Q699.2969,606.3496 699.5156,606.3496 Q699.8906,606.3496 700.125,606.6152 Q700.3594,606.8652 700.3594,607.4746 L700.3594,608.9277 Q700.3594,609.5371 700.125,609.8027 Q699.8906,610.0684 699.5156,610.0684 Q699.1719,610.0684 698.9688,609.8652 Q698.7656,609.6777 698.6563,609.1621 Q698.6094,608.8027 698.4219,608.6152 Q698.0938,608.2402 697.4844,608.0215 Q696.875,607.8027 696.25,607.8027 Q695.4844,607.8027 694.8438,608.1309 Q694.2188,608.459 693.7188,609.209 Q693.2344,609.959 693.2344,610.9902 L693.2344,612.084 Q693.2344,613.3184 694.125,614.1465 Q695.0156,614.959 696.6094,614.959 Q697.5469,614.959 698.2031,614.709 Q698.5938,614.5527 699.0156,614.1152 Q699.2813,613.8496 699.4219,613.7715 Q699.5781,613.6934 699.7813,613.6934 Q700.1094,613.6934 700.3594,613.959 Q700.625,614.209 700.625,614.5527 Q700.625,614.8965 700.2813,615.3027 Q699.7813,615.8809 698.9844,616.209 Q697.9063,616.6621 696.6094,616.6621 Q695.0938,616.6621 693.8906,616.0371 Q692.9063,615.5371 692.2188,614.4746 Q691.5313,613.3965 691.5313,612.1152 L691.5313,610.959 Q691.5313,609.6309 692.1406,608.4902 Q692.7656,607.334 693.8594,606.7246 Q694.9531,606.0996 696.1875,606.0996 Q696.9219,606.0996 697.5625,606.2715 Q698.2188,606.4277 698.7656,606.7871 Z " fill="#000000"/><text fill="#000000" font-family="sans-serif" font-size="12" font-style="italic" lengthAdjust="spacing" textLength="43" x="734" y="606.5703">&#171;entity&#187;</text><text fill="#000000" font-family="sans-serif" font-size="14" lengthAdjust="spacing" textLength="91" x="710" y="624.6895">JobApplication</text><line style="stroke:#181818;stroke-width:0.5;" x1="682" x2="803" y1="633.2031" y2="633.2031"/><line style="stroke:#181818;stroke-width:0.5;" x1="682" x2="803" y1="641.2031" y2="641.2031"/></g><!--class Interview--><g id="elem_Interview"><rect codeLine="26" fill="#F1F1F1" height="60.582" id="Interview" rx="2.5" ry="2.5" style="stroke:#181818;stroke-width:0.5;" width="109" x="612" y="728.6211"/><ellipse cx="627" cy="750.9121" fill="#ADD1B2" rx="11" ry="11" style="stroke:#181818;stroke-width:1.0;"/><path d="M629.7656,746.7871 Q629.9219,746.5684 630.1094,746.459 Q630.2969,746.3496 630.5156,746.3496 Q630.8906,746.3496 631.125,746.6152 Q631.3594,746.8652 631.3594,747.4746 L631.3594,748.9277 Q631.3594,749.5371 631.125,749.8027 Q630.8906,750.0684 630.5156,750.0684 Q630.1719,750.0684 629.9688,749.8652 Q629.7656,749.6777 629.6563,749.1621 Q629.6094,748.8027 629.4219,748.6152 Q629.0938,748.2402 628.4844,748.0215 Q627.875,747.8027 627.25,747.8027 Q626.4844,747.8027 625.8438,748.1309 Q625.2188,748.459 624.7188,749.209 Q624.2344,749.959 624.2344,750.9902 L624.2344,752.084 Q624.2344,753.3184 625.125,754.1465 Q626.0156,754.959 627.6094,754.959 Q628.5469,754.959 629.2031,754.709 Q629.5938,754.5527 630.0156,754.1152 Q630.2813,753.8496 630.4219,753.7715 Q630.5781,753.6934 630.7813,753.6934 Q631.1094,753.6934 631.3594,753.959 Q631.625,754.209 631.625,754.5527 Q631.625,754.8965 631.2813,755.3027 Q630.7813,755.8809 629.9844,756.209 Q628.9063,756.6621 627.6094,756.6621 Q626.0938,756.6621 624.8906,756.0371 Q623.9063,755.5371 623.2188,754.4746 Q622.5313,753.3965 622.5313,752.1152 L622.5313,750.959 Q622.5313,749.6309 623.1406,748.4902 Q623.7656,747.334 624.8594,746.7246 Q625.9531,746.0996 627.1875,746.0996 Q627.9219,746.0996 628.5625,746.2715 Q629.2188,746.4277 629.7656,746.7871 Z " fill="#000000"/><text fill="#000000" font-family="sans-serif" font-size="12" font-style="italic" lengthAdjust="spacing" textLength="81" x="639" y="746.5703">&#171;value object&#187;</text><text fill="#000000" font-family="sans-serif" font-size="14" lengthAdjust="spacing" textLength="55" x="652" y="764.6895">Interview</text><line style="stroke:#181818;stroke-width:0.5;" x1="613" x2="720" y1="773.2031" y2="773.2031"/><line style="stroke:#181818;stroke-width:0.5;" x1="613" x2="720" y1="781.2031" y2="781.2031"/></g><!--class InterviewGrade--><g id="elem_InterviewGrade"><rect codeLine="28" fill="#F1F1F1" height="60.582" id="InterviewGrade" rx="2.5" ry="2.5" style="stroke:#181818;stroke-width:0.5;" width="127" x="756" y="728.6211"/><ellipse cx="771" cy="750.9121" fill="#ADD1B2" rx="11" ry="11" style="stroke:#181818;stroke-width:1.0;"/><path d="M773.7656,746.7871 Q773.9219,746.5684 774.1094,746.459 Q774.2969,746.3496 774.5156,746.3496 Q774.8906,746.3496 775.125,746.6152 Q775.3594,746.8652 775.3594,747.4746 L775.3594,748.9277 Q775.3594,749.5371 775.125,749.8027 Q774.8906,750.0684 774.5156,750.0684 Q774.1719,750.0684 773.9688,749.8652 Q773.7656,749.6777 773.6563,749.1621 Q773.6094,748.8027 773.4219,748.6152 Q773.0938,748.2402 772.4844,748.0215 Q771.875,747.8027 771.25,747.8027 Q770.4844,747.8027 769.8438,748.1309 Q769.2188,748.459 768.7188,749.209 Q768.2344,749.959 768.2344,750.9902 L768.2344,752.084 Q768.2344,753.3184 769.125,754.1465 Q770.0156,754.959 771.6094,754.959 Q772.5469,754.959 773.2031,754.709 Q773.5938,754.5527 774.0156,754.1152 Q774.2813,753.8496 774.4219,753.7715 Q774.5781,753.6934 774.7813,753.6934 Q775.1094,753.6934 775.3594,753.959 Q775.625,754.209 775.625,754.5527 Q775.625,754.8965 775.2813,755.3027 Q774.7813,755.8809 773.9844,756.209 Q772.9063,756.6621 771.6094,756.6621 Q770.0938,756.6621 768.8906,756.0371 Q767.9063,755.5371 767.2188,754.4746 Q766.5313,753.3965 766.5313,752.1152 L766.5313,750.959 Q766.5313,749.6309 767.1406,748.4902 Q767.7656,747.334 768.8594,746.7246 Q769.9531,746.0996 771.1875,746.0996 Q771.9219,746.0996 772.5625,746.2715 Q773.2188,746.4277 773.7656,746.7871 Z " fill="#000000"/><text fill="#000000" font-family="sans-serif" font-size="12" font-style="italic" lengthAdjust="spacing" textLength="81" x="792" y="746.5703">&#171;value object&#187;</text><text fill="#000000" font-family="sans-serif" font-size="14" lengthAdjust="spacing" textLength="95" x="785" y="764.6895">InterviewGrade</text><line style="stroke:#181818;stroke-width:0.5;" x1="757" x2="882" y1="773.2031" y2="773.2031"/><line style="stroke:#181818;stroke-width:0.5;" x1="757" x2="882" y1="781.2031" y2="781.2031"/></g><!--link ListJobOpeningsInterviewGradesUI to ListJobOpeningsInterviewGradesController--><g id="link_ListJobOpeningsInterviewGradesUI_ListJobOpeningsInterviewGradesController"><path codeLine="30" d="M446.5,107.7811 C446.5,126.2411 446.5,143.9111 446.5,162.3811 " fill="none" id="ListJobOpeningsInterviewGradesUI-to-ListJobOpeningsInterviewGradesController" style="stroke:#181818;stroke-width:1.0;stroke-dasharray:7.0,7.0;"/><polygon fill="#181818" points="446.5,168.3811,450.5,159.3811,446.5,163.3811,442.5,159.3811,446.5,168.3811" style="stroke:#181818;stroke-width:1.0;"/></g><!--link ListJobOpeningsInterviewGradesController to JobOpeningManagementService--><g id="link_ListJobOpeningsInterviewGradesController_JobOpeningManagementService"><path codeLine="32" d="M377.64,229.7211 C323.48,253.0111 253.8922,282.9214 199.7622,306.1914 " fill="none" id="ListJobOpeningsInterviewGradesController-to-JobOpeningManagementService" style="stroke:#181818;stroke-width:1.0;stroke-dasharray:7.0,7.0;"/><polygon fill="#181818" points="194.25,308.5611,204.0981,308.6814,198.8435,306.5864,200.9386,301.3318,194.25,308.5611" style="stroke:#181818;stroke-width:1.0;"/><polygon fill="#000000" points="305.9065,271.2414,315.377,270.369,313.0555,264.969,305.9065,271.2414" style="stroke:#000000;stroke-width:1.0;"/><text fill="#000000" font-family="sans-serif" font-size="13" lengthAdjust="spacing" textLength="28" x="319.5" y="274.6494">uses</text></g><!--link ListJobOpeningsInterviewGradesController to JobApplicationManagementService--><g id="link_ListJobOpeningsInterviewGradesController_JobApplicationManagementService"><path codeLine="33" d="M437.7,229.7211 C430.79,253.0111 422.898,279.5393 415.988,302.8093 " fill="none" id="ListJobOpeningsInterviewGradesController-to-JobApplicationManagementService" style="stroke:#181818;stroke-width:1.0;stroke-dasharray:7.0,7.0;"/><polygon fill="#181818" points="414.28,308.5611,420.6765,301.0721,415.7033,303.768,413.0075,298.7948,414.28,308.5611" style="stroke:#181818;stroke-width:1.0;"/><polygon fill="#000000" points="432.0762,274.0596,437.4692,266.2259,431.8347,264.5521,432.0762,274.0596" style="stroke:#000000;stroke-width:1.0;"/><text fill="#000000" font-family="sans-serif" font-size="13" lengthAdjust="spacing" textLength="28" x="442.5" y="274.6494">uses</text></g><!--link ListJobOpeningsInterviewGradesController to JobOpeningRepository--><g id="link_ListJobOpeningsInterviewGradesController_JobOpeningRepository"><path codeLine="34" d="M491.12,229.7211 C526.22,253.0111 569.8805,281.9738 604.9505,305.2438 " fill="none" id="ListJobOpeningsInterviewGradesController-to-JobOpeningRepository" style="stroke:#181818;stroke-width:1.0;stroke-dasharray:7.0,7.0;"/><polygon fill="#181818" points="609.95,308.5611,604.6623,300.2521,605.7837,305.7966,600.2392,306.9181,609.95,308.5611" style="stroke:#181818;stroke-width:1.0;"/><polygon fill="#000000" points="572.6664,272.0309,566.7541,264.5813,563.5045,269.4792,572.6664,272.0309" style="stroke:#000000;stroke-width:1.0;"/><text fill="#000000" font-family="sans-serif" font-size="13" lengthAdjust="spacing" textLength="56" x="577.5" y="274.6494">accesses</text></g><!--link ListJobOpeningsInterviewGradesController to JobApplicationRepository--><g id="link_ListJobOpeningsInterviewGradesController_JobApplicationRepository"><path codeLine="35" d="M546.16,229.6811 C577.1,239.0411 611.27,249.5811 642.5,259.6211 C691.09,275.2511 739.4471,291.5972 783.0271,306.6072 " fill="none" id="ListJobOpeningsInterviewGradesController-to-JobApplicationRepository" style="stroke:#181818;stroke-width:1.0;stroke-dasharray:7.0,7.0;"/><polygon fill="#181818" points="788.7,308.5611,781.4932,301.8483,783.9725,306.9328,778.888,309.4122,788.7,308.5611" style="stroke:#181818;stroke-width:1.0;"/><polygon fill="#000000" points="710.2555,270.811,702.5605,265.2219,700.7449,270.8124,710.2555,270.811" style="stroke:#000000;stroke-width:1.0;"/><text fill="#000000" font-family="sans-serif" font-size="13" lengthAdjust="spacing" textLength="56" x="714.5" y="274.6494">accesses</text></g><!--reverse link JobOpeningRepository to RepositoryFactory--><g id="link_JobOpeningRepository_RepositoryFactory"><path codeLine="37" d="M678.7602,374.6298 C695.1302,397.9198 714.37,425.2911 730.73,448.5611 " fill="none" id="JobOpeningRepository-backto-RepositoryFactory" style="stroke:#181818;stroke-width:1.0;stroke-dasharray:7.0,7.0;"/><polygon fill="#181818" points="675.31,369.7211,677.2129,379.3844,678.1852,373.8117,683.7579,374.7841,675.31,369.7211" style="stroke:#181818;stroke-width:1.0;"/><polygon fill="#000000" points="711.6246,405.1761,714.4219,414.266,719.2306,410.8858,711.6246,405.1761" style="stroke:#000000;stroke-width:1.0;"/><text fill="#000000" font-family="sans-serif" font-size="13" lengthAdjust="spacing" textLength="43" x="723.5" y="414.6494">creates</text></g><!--link JobOpeningRepository to JobOpening--><g id="link_JobOpeningRepository_JobOpening"><path codeLine="38" d="M566.49,368.9211 C543.06,378.4511 522.33,389.2711 515.5,399.6211 C505.09,415.4011 510.5414,428.9711 523.6114,443.7911 " fill="none" id="JobOpeningRepository-to-JobOpening" style="stroke:#181818;stroke-width:1.0;stroke-dasharray:7.0,7.0;"/><polygon fill="#181818" points="527.58,448.2911,524.6271,438.8953,524.2728,444.5411,518.6271,444.1868,527.58,448.2911" style="stroke:#181818;stroke-width:1.0;"/><polygon fill="#000000" points="518.0151,413.6054,525.0606,407.217,519.96,404.2958,518.0151,413.6054" style="stroke:#000000;stroke-width:1.0;"/><text fill="#000000" font-family="sans-serif" font-size="13" lengthAdjust="spacing" textLength="161" x="529.5" y="414.6494">obtains it from the database</text></g><!--reverse link JobApplicationRepository to RepositoryFactory--><g id="link_JobApplicationRepository_RepositoryFactory"><path codeLine="40" d="M843.3559,374.2163 C822.7659,397.5063 798.2,425.2911 777.63,448.5611 " fill="none" id="JobApplicationRepository-backto-RepositoryFactory" style="stroke:#181818;stroke-width:1.0;stroke-dasharray:7.0,7.0;"/><polygon fill="#181818" points="847.33,369.7211,838.3721,373.8145,844.0183,373.4671,844.3657,379.1133,847.33,369.7211" style="stroke:#181818;stroke-width:1.0;"/><polygon fill="#000000" points="827.8117,405.5206,819.6189,410.3506,824.0226,414.2438,827.8117,405.5206" style="stroke:#000000;stroke-width:1.0;"/><text fill="#000000" font-family="sans-serif" font-size="13" lengthAdjust="spacing" textLength="43" x="833.5" y="414.6494">creates</text></g><!--link JobApplicationRepository to JobApplication--><g id="link_JobApplicationRepository_JobApplication"><path codeLine="41" d="M883.16,369.7411 C886.67,384.5111 889.02,402.6011 885.5,418.6211 C870.14,488.5411 817.686,548.4535 780.456,584.2335 " fill="none" id="JobApplicationRepository-to-JobApplication" style="stroke:#181818;stroke-width:1.0;stroke-dasharray:7.0,7.0;"/><polygon fill="#181818" points="776.13,588.3911,785.3908,585.0388,779.735,584.9265,779.8474,579.2707,776.13,588.3911" style="stroke:#181818;stroke-width:1.0;"/><polygon fill="#000000" points="878.3407,483.7763,884.8977,476.8874,879.5962,474.349,878.3407,483.7763" style="stroke:#000000;stroke-width:1.0;"/><text fill="#000000" font-family="sans-serif" font-size="13" lengthAdjust="spacing" textLength="161" x="889.5" y="484.6494">obtains it from the database</text></g><!--link JobOpening to JobApplication--><g id="link_JobOpening_JobApplication"><path codeLine="43" d="M601.11,509.7211 C631.48,533.0111 668.8385,561.6403 699.1885,584.9103 " fill="none" id="JobOpening-to-JobApplication" style="stroke:#181818;stroke-width:1.0;"/><polygon fill="#181818" points="703.95,588.5611,699.2416,579.9106,699.9821,585.5188,694.3739,586.2593,703.95,588.5611" style="stroke:#181818;stroke-width:1.0;"/><polygon fill="#000000" points="672.4681,552.3087,667.0778,544.4731,663.5017,549.1379,672.4681,552.3087" style="stroke:#000000;stroke-width:1.0;"/><text fill="#000000" font-family="sans-serif" font-size="13" lengthAdjust="spacing" textLength="21" x="677.5" y="554.6494">has</text><text fill="#000000" font-family="sans-serif" font-size="13" lengthAdjust="spacing" textLength="7" x="600.8028" y="531.2704">1</text><text fill="#000000" font-family="sans-serif" font-size="13" lengthAdjust="spacing" textLength="5" x="689.9703" y="577.1226">*</text></g><!--link JobApplication to Interview--><g id="link_JobApplication_Interview"><path codeLine="45" d="M726.2,649.7211 C713.37,673.0111 698.4835,700.0349 685.6735,723.3049 " fill="none" id="JobApplication-to-Interview" style="stroke:#181818;stroke-width:1.0;"/><polygon fill="#181818" points="682.78,728.5611,690.6244,722.6058,685.1913,724.1809,683.6161,718.7478,682.78,728.5611" style="stroke:#181818;stroke-width:1.0;"/><polygon fill="#000000" points="712.0879,693.6463,719.0258,687.1412,713.8771,684.3055,712.0879,693.6463" style="stroke:#000000;stroke-width:1.0;"/><text fill="#000000" font-family="sans-serif" font-size="13" lengthAdjust="spacing" textLength="21" x="723.5" y="694.6494">has</text><text fill="#000000" font-family="sans-serif" font-size="13" lengthAdjust="spacing" textLength="7" x="715.4256" y="671.2704">1</text><text fill="#000000" font-family="sans-serif" font-size="13" lengthAdjust="spacing" textLength="7" x="678.5756" y="717.1226">1</text></g><!--link JobApplication to InterviewGrade--><g id="link_JobApplication_InterviewGrade"><path codeLine="47" d="M759.02,649.7211 C772.01,673.0111 787.0954,700.0521 800.0854,723.3221 " fill="none" id="JobApplication-to-InterviewGrade" style="stroke:#181818;stroke-width:1.0;"/><polygon fill="#181818" points="803.01,728.5611,802.1158,718.7529,800.5729,724.1953,795.1305,722.6523,803.01,728.5611" style="stroke:#181818;stroke-width:1.0;"/><polygon fill="#000000" points="793.9362,693.6329,792.0956,684.3022,786.9626,687.1661,793.9362,693.6329" style="stroke:#000000;stroke-width:1.0;"/><text fill="#000000" font-family="sans-serif" font-size="13" lengthAdjust="spacing" textLength="21" x="800.5" y="694.6494">has</text><text fill="#000000" font-family="sans-serif" font-size="13" lengthAdjust="spacing" textLength="7" x="754.5019" y="671.2704">1</text><text fill="#000000" font-family="sans-serif" font-size="13" lengthAdjust="spacing" textLength="7" x="791.6372" y="717.1226">1</text></g><!--SRC=[fLFBRi8m4BpdArQSsaf4S4Ke4WArecfLgOWFs9WDk0GxyYuW-lLrU2HK2H3QK-pipEpOE-QbDXawN466QebpciWk9N2a1CqyfO0B02zmPhVQp271b2auAwaKcGSYJiTheR6oPgA_2Jf185gyt32lmqZZF4S_34UFq8RfiDFf1i6U2s-QvTN67naPtu77HiXjD6rV7Cw8fsFeztN-Bq55KTICDRH6d4rJSfwjYar9BwdlQFpPLsHaaYieyWm-h7x11rcMQeMYhMbAENRufCoo5kjs7kUApINrc_0Iy8pgY4iEgxhslkgTQhdOi0PGNAUlRJ1T4zZuomUZ1h6_y1hOpR66OTHuYhVapkQTorwRRW_MJ0pHtOfN0_1drMf6Ue1A4V_Rv2N9e3wPOLWJh1ueHoYUrw-d_Jw5nzjOK1i6BP0ukm9P4CnGC4QcO_CBMMzYe9vQFNip8oVNhMuBskq8Ma-jgiu2kUgxfFXl-LZkGXyUpedo0m00]--></g></svg>