<?xml version="1.0" encoding="us-ascii" standalone="no"?><svg xmlns="http://www.w3.org/2000/svg" xmlns:xlink="http://www.w3.org/1999/xlink" contentStyleType="text/css" height="1313px" preserveAspectRatio="none" style="width:3015px;height:1313px;background:#FFFFFF;" version="1.1" viewBox="0 0 3015 1313" width="3015px" zoomAndPan="magnify"><defs/><g><text fill="#000000" font-family="sans-serif" font-size="14" font-weight="bold" lengthAdjust="spacing" textLength="231" x="1391" y="30.1074">Sequence Diagram (SSD) - UC033</text><rect fill="#FFFFFF" height="1087.3125" style="stroke:#181818;stroke-width:1.0;" width="10" x="78.5" y="133.2422"/><rect fill="#FFFFFF" height="509.0742" style="stroke:#181818;stroke-width:1.0;" width="10" x="408.5" y="156.5332"/><rect fill="#FFFFFF" height="508.6563" style="stroke:#181818;stroke-width:1.0;" width="10" x="408.5" y="696.8984"/><rect fill="#FFFFFF" height="446.4922" style="stroke:#181818;stroke-width:1.0;" width="10" x="823.5" y="187.8242"/><rect fill="#FFFFFF" height="250.3281" style="stroke:#181818;stroke-width:1.0;" width="10" x="823.5" y="728.1895"/><rect fill="#FFFFFF" height="138.1641" style="stroke:#181818;stroke-width:1.0;" width="10" x="823.5" y="1009.8086"/><rect fill="#FFFFFF" height="290.0371" style="stroke:#181818;stroke-width:1.0;" width="10" x="1122.5" y="312.9883"/><rect fill="#FFFFFF" height="153.1641" style="stroke:#181818;stroke-width:1.0;" width="10" x="1127.5" y="352.2793"/><rect fill="#FFFFFF" height="28" style="stroke:#181818;stroke-width:1.0;" width="10" x="1127.5" y="536.7344"/><rect fill="#FFFFFF" height="93.873" style="stroke:#181818;stroke-width:1.0;" width="10" x="1702.5" y="853.3535"/><rect fill="#FFFFFF" height="180.4551" style="stroke:#181818;stroke-width:1.0;" width="10" x="1702.5" y="1041.0996"/><rect fill="#FFFFFF" height="36.291" style="stroke:#181818;stroke-width:1.0;" width="10" x="1707.5" y="1080.3906"/><rect fill="#FFFFFF" height="31.291" style="stroke:#181818;stroke-width:1.0;" width="10" x="2567.5" y="250.4063"/><rect fill="#FFFFFF" height="31.291" style="stroke:#181818;stroke-width:1.0;" width="10" x="2567.5" y="790.7715"/><rect fill="#FFFFFF" height="31.291" style="stroke:#181818;stroke-width:1.0;" width="10" x="2742" y="388.5703"/><rect fill="#FFFFFF" height="31.291" style="stroke:#181818;stroke-width:1.0;" width="10" x="2917.5" y="884.6445"/><rect fill="none" height="63.582" style="stroke:#000000;stroke-width:1.5;" width="671.5" x="1008" y="434.8613"/><rect fill="none" height="50.582" style="stroke:#000000;stroke-width:1.5;" width="530" x="10" y="1162.9727"/><line style="stroke:#181818;stroke-width:0.5;stroke-dasharray:5.0,5.0;" x1="83" x2="83" y1="123.2422" y2="1230.5547"/><line style="stroke:#181818;stroke-width:0.5;stroke-dasharray:5.0,5.0;" x1="413" x2="413" y1="123.2422" y2="1230.5547"/><line style="stroke:#181818;stroke-width:0.5;stroke-dasharray:5.0,5.0;" x1="828" x2="828" y1="123.2422" y2="1230.5547"/><line style="stroke:#181818;stroke-width:0.5;stroke-dasharray:5.0,5.0;" x1="1127" x2="1127" y1="123.2422" y2="1230.5547"/><line style="stroke:#181818;stroke-width:0.5;stroke-dasharray:5.0,5.0;" x1="1707.5" x2="1707.5" y1="123.2422" y2="1230.5547"/><line style="stroke:#181818;stroke-width:0.5;stroke-dasharray:5.0,5.0;" x1="2572" x2="2572" y1="123.2422" y2="1230.5547"/><line style="stroke:#181818;stroke-width:0.5;stroke-dasharray:5.0,5.0;" x1="2747" x2="2747" y1="123.2422" y2="1230.5547"/><line style="stroke:#181818;stroke-width:0.5;stroke-dasharray:5.0,5.0;" x1="2922" x2="2922" y1="123.2422" y2="1230.5547"/><text fill="#000000" font-family="sans-serif" font-size="14" lengthAdjust="spacing" textLength="121" x="20" y="119.7285">Customer Manager</text><ellipse cx="83.5" cy="53.1211" fill="#E3E3E3" rx="8" ry="8" style="stroke:#181818;stroke-width:0.5;"/><path d="M83.5,61.1211 L83.5,88.1211 M70.5,69.1211 L96.5,69.1211 M83.5,88.1211 L70.5,103.1211 M83.5,88.1211 L96.5,103.1211 " fill="none" style="stroke:#181818;stroke-width:0.5;"/><text fill="#000000" font-family="sans-serif" font-size="14" lengthAdjust="spacing" textLength="121" x="20" y="1244.6621">Customer Manager</text><ellipse cx="83.5" cy="1256.6758" fill="#E3E3E3" rx="8" ry="8" style="stroke:#181818;stroke-width:0.5;"/><path d="M83.5,1264.6758 L83.5,1291.6758 M70.5,1272.6758 L96.5,1272.6758 M83.5,1291.6758 L70.5,1306.6758 M83.5,1291.6758 L96.5,1306.6758 " fill="none" style="stroke:#181818;stroke-width:0.5;"/><rect fill="#E3E3E3" height="32.6211" rx="2.5" ry="2.5" style="stroke:#181818;stroke-width:0.5;" width="233" x="297" y="89.6211"/><text fill="#000000" font-family="sans-serif" font-size="14" lengthAdjust="spacing" textLength="219" x="304" y="111.7285">ListJobOpeningsInterviewGradesUI</text><rect fill="#E3E3E3" height="32.6211" rx="2.5" ry="2.5" style="stroke:#181818;stroke-width:0.5;" width="233" x="297" y="1229.5547"/><text fill="#000000" font-family="sans-serif" font-size="14" lengthAdjust="spacing" textLength="219" x="304" y="1251.6621">ListJobOpeningsInterviewGradesUI</text><rect fill="#E3E3E3" height="32.6211" rx="2.5" ry="2.5" style="stroke:#181818;stroke-width:0.5;" width="283" x="687" y="89.6211"/><text fill="#000000" font-family="sans-serif" font-size="14" lengthAdjust="spacing" textLength="269" x="694" y="111.7285">ListJobOpeningsInterviewGradesController</text><rect fill="#E3E3E3" height="32.6211" rx="2.5" ry="2.5" style="stroke:#181818;stroke-width:0.5;" width="283" x="687" y="1229.5547"/><text fill="#000000" font-family="sans-serif" font-size="14" lengthAdjust="spacing" textLength="269" x="694" y="1251.6621">ListJobOpeningsInterviewGradesController</text><rect fill="#E3E3E3" height="32.6211" rx="2.5" ry="2.5" style="stroke:#181818;stroke-width:0.5;" width="219" x="1018" y="89.6211"/><text fill="#000000" font-family="sans-serif" font-size="14" lengthAdjust="spacing" textLength="205" x="1025" y="111.7285">JobOpeningManagementService</text><rect fill="#E3E3E3" height="32.6211" rx="2.5" ry="2.5" style="stroke:#181818;stroke-width:0.5;" width="219" x="1018" y="1229.5547"/><text fill="#000000" font-family="sans-serif" font-size="14" lengthAdjust="spacing" textLength="205" x="1025" y="1251.6621">JobOpeningManagementService</text><rect fill="#E3E3E3" height="32.6211" rx="2.5" ry="2.5" style="stroke:#181818;stroke-width:0.5;" width="234" x="1590.5" y="89.6211"/><text fill="#000000" font-family="sans-serif" font-size="14" lengthAdjust="spacing" textLength="220" x="1597.5" y="111.7285">JobApplicationManagementService</text><rect fill="#E3E3E3" height="32.6211" rx="2.5" ry="2.5" style="stroke:#181818;stroke-width:0.5;" width="234" x="1590.5" y="1229.5547"/><text fill="#000000" font-family="sans-serif" font-size="14" lengthAdjust="spacing" textLength="220" x="1597.5" y="1251.6621">JobApplicationManagementService</text><rect fill="#E3E3E3" height="32.6211" rx="2.5" ry="2.5" style="stroke:#181818;stroke-width:0.5;" width="171" x="2487" y="89.6211"/><text fill="#000000" font-family="sans-serif" font-size="14" lengthAdjust="spacing" textLength="157" x="2494" y="111.7285">repositories:Repositories</text><rect fill="#E3E3E3" height="32.6211" rx="2.5" ry="2.5" style="stroke:#181818;stroke-width:0.5;" width="171" x="2487" y="1229.5547"/><text fill="#000000" font-family="sans-serif" font-size="14" lengthAdjust="spacing" textLength="157" x="2494" y="1251.6621">repositories:Repositories</text><rect fill="#E3E3E3" height="32.6211" rx="2.5" ry="2.5" style="stroke:#181818;stroke-width:0.5;" width="158" x="2668" y="89.6211"/><text fill="#000000" font-family="sans-serif" font-size="14" lengthAdjust="spacing" textLength="144" x="2675" y="111.7285">JobOpeningRepository</text><rect fill="#E3E3E3" height="32.6211" rx="2.5" ry="2.5" style="stroke:#181818;stroke-width:0.5;" width="158" x="2668" y="1229.5547"/><text fill="#000000" font-family="sans-serif" font-size="14" lengthAdjust="spacing" textLength="144" x="2675" y="1251.6621">JobOpeningRepository</text><rect fill="#E3E3E3" height="32.6211" rx="2.5" ry="2.5" style="stroke:#181818;stroke-width:0.5;" width="173" x="2836" y="89.6211"/><text fill="#000000" font-family="sans-serif" font-size="14" lengthAdjust="spacing" textLength="159" x="2843" y="111.7285">JobApplicationRepository</text><rect fill="#E3E3E3" height="32.6211" rx="2.5" ry="2.5" style="stroke:#181818;stroke-width:0.5;" width="173" x="2836" y="1229.5547"/><text fill="#000000" font-family="sans-serif" font-size="14" lengthAdjust="spacing" textLength="159" x="2843" y="1251.6621">JobApplicationRepository</text><rect fill="#FFFFFF" height="1087.3125" style="stroke:#181818;stroke-width:1.0;" width="10" x="78.5" y="133.2422"/><rect fill="#FFFFFF" height="509.0742" style="stroke:#181818;stroke-width:1.0;" width="10" x="408.5" y="156.5332"/><rect fill="#FFFFFF" height="508.6563" style="stroke:#181818;stroke-width:1.0;" width="10" x="408.5" y="696.8984"/><rect fill="#FFFFFF" height="446.4922" style="stroke:#181818;stroke-width:1.0;" width="10" x="823.5" y="187.8242"/><rect fill="#FFFFFF" height="250.3281" style="stroke:#181818;stroke-width:1.0;" width="10" x="823.5" y="728.1895"/><rect fill="#FFFFFF" height="138.1641" style="stroke:#181818;stroke-width:1.0;" width="10" x="823.5" y="1009.8086"/><rect fill="#FFFFFF" height="290.0371" style="stroke:#181818;stroke-width:1.0;" width="10" x="1122.5" y="312.9883"/><rect fill="#FFFFFF" height="153.1641" style="stroke:#181818;stroke-width:1.0;" width="10" x="1127.5" y="352.2793"/><rect fill="#FFFFFF" height="28" style="stroke:#181818;stroke-width:1.0;" width="10" x="1127.5" y="536.7344"/><rect fill="#FFFFFF" height="93.873" style="stroke:#181818;stroke-width:1.0;" width="10" x="1702.5" y="853.3535"/><rect fill="#FFFFFF" height="180.4551" style="stroke:#181818;stroke-width:1.0;" width="10" x="1702.5" y="1041.0996"/><rect fill="#FFFFFF" height="36.291" style="stroke:#181818;stroke-width:1.0;" width="10" x="1707.5" y="1080.3906"/><rect fill="#FFFFFF" height="31.291" style="stroke:#181818;stroke-width:1.0;" width="10" x="2567.5" y="250.4063"/><rect fill="#FFFFFF" height="31.291" style="stroke:#181818;stroke-width:1.0;" width="10" x="2567.5" y="790.7715"/><rect fill="#FFFFFF" height="31.291" style="stroke:#181818;stroke-width:1.0;" width="10" x="2742" y="388.5703"/><rect fill="#FFFFFF" height="31.291" style="stroke:#181818;stroke-width:1.0;" width="10" x="2917.5" y="884.6445"/><polygon fill="#181818" points="396.5,152.5332,406.5,156.5332,396.5,160.5332,400.5,156.5332" style="stroke:#181818;stroke-width:1.0;"/><line style="stroke:#181818;stroke-width:1.0;" x1="88.5" x2="402.5" y1="156.5332" y2="156.5332"/><text fill="#000000" font-family="sans-serif" font-size="13" font-weight="bold" lengthAdjust="spacing" textLength="7" x="95.5" y="151.2705">1</text><text fill="#000000" font-family="sans-serif" font-size="13" lengthAdjust="spacing" textLength="290" x="106.5" y="151.2705">Requests to display job opening's interview grades</text><polygon fill="#181818" points="811.5,183.8242,821.5,187.8242,811.5,191.8242,815.5,187.8242" style="stroke:#181818;stroke-width:1.0;"/><line style="stroke:#181818;stroke-width:1.0;" x1="418.5" x2="817.5" y1="187.8242" y2="187.8242"/><text fill="#000000" font-family="sans-serif" font-size="13" font-weight="bold" lengthAdjust="spacing" textLength="7" x="425.5" y="182.5615">2</text><text fill="#000000" font-family="sans-serif" font-size="13" lengthAdjust="spacing" textLength="255" x="436.5" y="182.5615">jobOpeningsWithPhaseInterviewCompleted()</text><polygon fill="#181818" points="2560.5,215.1152,2570.5,219.1152,2560.5,223.1152,2564.5,219.1152" style="stroke:#181818;stroke-width:1.0;"/><line style="stroke:#181818;stroke-width:1.0;" x1="833.5" x2="2566.5" y1="219.1152" y2="219.1152"/><text fill="#000000" font-family="sans-serif" font-size="13" font-weight="bold" lengthAdjust="spacing" textLength="7" x="840.5" y="213.8525">3</text><text fill="#000000" font-family="sans-serif" font-size="13" lengthAdjust="spacing" textLength="75" x="851.5" y="213.8525">repositories()</text><polygon fill="#181818" points="2555.5,246.4063,2565.5,250.4063,2555.5,254.4063,2559.5,250.4063" style="stroke:#181818;stroke-width:1.0;"/><line style="stroke:#181818;stroke-width:1.0;" x1="833.5" x2="2561.5" y1="250.4063" y2="250.4063"/><text fill="#000000" font-family="sans-serif" font-size="13" font-weight="bold" lengthAdjust="spacing" textLength="7" x="840.5" y="245.1436">4</text><text fill="#000000" font-family="sans-serif" font-size="13" lengthAdjust="spacing" textLength="80" x="851.5" y="245.1436">jobOpenings()</text><polygon fill="#181818" points="844.5,277.6973,834.5,281.6973,844.5,285.6973,840.5,281.6973" style="stroke:#181818;stroke-width:1.0;"/><line style="stroke:#181818;stroke-width:1.0;stroke-dasharray:2.0,2.0;" x1="838.5" x2="2571.5" y1="281.6973" y2="281.6973"/><text fill="#000000" font-family="sans-serif" font-size="13" font-weight="bold" lengthAdjust="spacing" textLength="7" x="850.5" y="276.4346">5</text><text fill="#000000" font-family="sans-serif" font-size="13" lengthAdjust="spacing" textLength="72" x="861.5" y="276.4346">jobOpenings</text><polygon fill="#181818" points="1110.5,308.9883,1120.5,312.9883,1110.5,316.9883,1114.5,312.9883" style="stroke:#181818;stroke-width:1.0;"/><line style="stroke:#181818;stroke-width:1.0;" x1="833.5" x2="1116.5" y1="312.9883" y2="312.9883"/><text fill="#000000" font-family="sans-serif" font-size="13" font-weight="bold" lengthAdjust="spacing" textLength="7" x="840.5" y="307.7256">6</text><text fill="#000000" font-family="sans-serif" font-size="13" lengthAdjust="spacing" textLength="255" x="851.5" y="307.7256">jobOpeningsWithPhaseInterviewCompleted()</text><line style="stroke:#181818;stroke-width:1.0;" x1="1132.5" x2="1179.5" y1="339.2793" y2="339.2793"/><line style="stroke:#181818;stroke-width:1.0;" x1="1179.5" x2="1179.5" y1="339.2793" y2="352.2793"/><line style="stroke:#181818;stroke-width:1.0;" x1="1138.5" x2="1179.5" y1="352.2793" y2="352.2793"/><polygon fill="#181818" points="1148.5,348.2793,1138.5,352.2793,1148.5,356.2793,1144.5,352.2793" style="stroke:#181818;stroke-width:1.0;"/><text fill="#000000" font-family="sans-serif" font-size="13" font-weight="bold" lengthAdjust="spacing" textLength="7" x="1144.5" y="334.0166">7</text><text fill="#000000" font-family="sans-serif" font-size="13" lengthAdjust="spacing" textLength="266" x="1155.5" y="334.0166">jobOpeningsWithPhaseOn(Phase.ANALYSIS)</text><polygon fill="#181818" points="2730,384.5703,2740,388.5703,2730,392.5703,2734,388.5703" style="stroke:#181818;stroke-width:1.0;"/><line style="stroke:#181818;stroke-width:1.0;" x1="1137.5" x2="2736" y1="388.5703" y2="388.5703"/><text fill="#000000" font-family="sans-serif" font-size="13" font-weight="bold" lengthAdjust="spacing" textLength="7" x="1144.5" y="383.3076">8</text><text fill="#000000" font-family="sans-serif" font-size="13" lengthAdjust="spacing" textLength="43" x="1155.5" y="383.3076">findAll()</text><polygon fill="#181818" points="1148.5,415.8613,1138.5,419.8613,1148.5,423.8613,1144.5,419.8613" style="stroke:#181818;stroke-width:1.0;"/><line style="stroke:#181818;stroke-width:1.0;stroke-dasharray:2.0,2.0;" x1="1142.5" x2="2746" y1="419.8613" y2="419.8613"/><text fill="#000000" font-family="sans-serif" font-size="13" font-weight="bold" lengthAdjust="spacing" textLength="7" x="1154.5" y="414.5986">9</text><text fill="#000000" font-family="sans-serif" font-size="13" lengthAdjust="spacing" textLength="88" x="1165.5" y="414.5986">allJobOpenings</text><path d="M1008,434.8613 L1081,434.8613 L1081,444.1523 L1071,454.1523 L1008,454.1523 L1008,434.8613 " fill="#EEEEEE" style="stroke:#000000;stroke-width:1.5;"/><rect fill="none" height="63.582" style="stroke:#000000;stroke-width:1.5;" width="671.5" x="1008" y="434.8613"/><text fill="#000000" font-family="sans-serif" font-size="13" font-weight="bold" lengthAdjust="spacing" textLength="28" x="1023" y="449.8896">loop</text><text fill="#000000" font-family="sans-serif" font-size="11" font-weight="bold" lengthAdjust="spacing" textLength="227" x="1096" y="448.7314">[JobOpening jobOpening : allJobOpening]</text><line style="stroke:#181818;stroke-width:1.0;" x1="1137.5" x2="1179.5" y1="477.4434" y2="477.4434"/><line style="stroke:#181818;stroke-width:1.0;" x1="1179.5" x2="1179.5" y1="477.4434" y2="490.4434"/><line style="stroke:#181818;stroke-width:1.0;" x1="1138.5" x2="1179.5" y1="490.4434" y2="490.4434"/><polygon fill="#181818" points="1148.5,486.4434,1138.5,490.4434,1148.5,494.4434,1144.5,490.4434" style="stroke:#181818;stroke-width:1.0;"/><text fill="#000000" font-family="sans-serif" font-size="13" font-weight="bold" lengthAdjust="spacing" textLength="14" x="1144.5" y="472.1807">10</text><text fill="#000000" font-family="sans-serif" font-size="13" lengthAdjust="spacing" textLength="505" x="1162.5" y="472.1807">jobOpenings = jobOpening.phases().get(phase).status().equals(Status.IN_PROGRESS)</text><line style="stroke:#181818;stroke-width:1.0;" x1="1137.5" x2="1179.5" y1="528.7344" y2="528.7344"/><line style="stroke:#181818;stroke-width:1.0;" x1="1179.5" x2="1179.5" y1="528.7344" y2="541.7344"/><line style="stroke:#181818;stroke-width:1.0;" x1="1138.5" x2="1179.5" y1="541.7344" y2="541.7344"/><polygon fill="#181818" points="1148.5,537.7344,1138.5,541.7344,1148.5,545.7344,1144.5,541.7344" style="stroke:#181818;stroke-width:1.0;"/><text fill="#000000" font-family="sans-serif" font-size="13" font-weight="bold" lengthAdjust="spacing" textLength="14" x="1144.5" y="523.4717">11</text><text fill="#000000" font-family="sans-serif" font-size="13" lengthAdjust="spacing" textLength="538" x="1162.5" y="523.4717">jobOpenings.removeIf(jobOpening -&gt; !jobOpening.phases().containsKey(Phase.INTERVIEW));</text><polygon fill="#181818" points="844.5,599.0254,834.5,603.0254,844.5,607.0254,840.5,603.0254" style="stroke:#181818;stroke-width:1.0;"/><line style="stroke:#181818;stroke-width:1.0;stroke-dasharray:2.0,2.0;" x1="838.5" x2="1126.5" y1="603.0254" y2="603.0254"/><text fill="#000000" font-family="sans-serif" font-size="13" font-weight="bold" lengthAdjust="spacing" textLength="14" x="850.5" y="597.7627">12</text><text fill="#000000" font-family="sans-serif" font-size="13" lengthAdjust="spacing" textLength="247" x="868.5" y="597.7627">jobOpeningsWithPhaseInterviewCompleted</text><polygon fill="#181818" points="429.5,630.3164,419.5,634.3164,429.5,638.3164,425.5,634.3164" style="stroke:#181818;stroke-width:1.0;"/><line style="stroke:#181818;stroke-width:1.0;stroke-dasharray:2.0,2.0;" x1="423.5" x2="827.5" y1="634.3164" y2="634.3164"/><text fill="#000000" font-family="sans-serif" font-size="13" font-weight="bold" lengthAdjust="spacing" textLength="14" x="435.5" y="629.0537">13</text><text fill="#000000" font-family="sans-serif" font-size="13" lengthAdjust="spacing" textLength="247" x="453.5" y="629.0537">jobOpeningsWithPhaseInterviewCompleted</text><polygon fill="#181818" points="99.5,661.6074,89.5,665.6074,99.5,669.6074,95.5,665.6074" style="stroke:#181818;stroke-width:1.0;"/><line style="stroke:#181818;stroke-width:1.0;stroke-dasharray:2.0,2.0;" x1="93.5" x2="412.5" y1="665.6074" y2="665.6074"/><text fill="#000000" font-family="sans-serif" font-size="13" font-weight="bold" lengthAdjust="spacing" textLength="14" x="105.5" y="660.3447">14</text><text fill="#000000" font-family="sans-serif" font-size="13" lengthAdjust="spacing" textLength="120" x="123.5" y="660.3447">Display job openings</text><polygon fill="#181818" points="396.5,692.8984,406.5,696.8984,396.5,700.8984,400.5,696.8984" style="stroke:#181818;stroke-width:1.0;"/><line style="stroke:#181818;stroke-width:1.0;" x1="88.5" x2="402.5" y1="696.8984" y2="696.8984"/><text fill="#000000" font-family="sans-serif" font-size="13" font-weight="bold" lengthAdjust="spacing" textLength="14" x="95.5" y="691.6357">15</text><text fill="#000000" font-family="sans-serif" font-size="13" lengthAdjust="spacing" textLength="107" x="113.5" y="691.6357">Select job opening</text><polygon fill="#181818" points="811.5,724.1895,821.5,728.1895,811.5,732.1895,815.5,728.1895" style="stroke:#181818;stroke-width:1.0;"/><line style="stroke:#181818;stroke-width:1.0;" x1="418.5" x2="817.5" y1="728.1895" y2="728.1895"/><text fill="#000000" font-family="sans-serif" font-size="13" font-weight="bold" lengthAdjust="spacing" textLength="14" x="425.5" y="722.9268">16</text><text fill="#000000" font-family="sans-serif" font-size="13" lengthAdjust="spacing" textLength="174" x="443.5" y="722.9268">jobApplicationsOf(jobOpening)</text><polygon fill="#181818" points="2560.5,755.4805,2570.5,759.4805,2560.5,763.4805,2564.5,759.4805" style="stroke:#181818;stroke-width:1.0;"/><line style="stroke:#181818;stroke-width:1.0;" x1="833.5" x2="2566.5" y1="759.4805" y2="759.4805"/><text fill="#000000" font-family="sans-serif" font-size="13" font-weight="bold" lengthAdjust="spacing" textLength="14" x="840.5" y="754.2178">17</text><text fill="#000000" font-family="sans-serif" font-size="13" lengthAdjust="spacing" textLength="67" x="858.5" y="754.2178">repositories</text><polygon fill="#181818" points="2555.5,786.7715,2565.5,790.7715,2555.5,794.7715,2559.5,790.7715" style="stroke:#181818;stroke-width:1.0;"/><line style="stroke:#181818;stroke-width:1.0;" x1="833.5" x2="2561.5" y1="790.7715" y2="790.7715"/><text fill="#000000" font-family="sans-serif" font-size="13" font-weight="bold" lengthAdjust="spacing" textLength="14" x="840.5" y="785.5088">18</text><text fill="#000000" font-family="sans-serif" font-size="13" lengthAdjust="spacing" textLength="96" x="858.5" y="785.5088">jobApplications()</text><polygon fill="#181818" points="844.5,818.0625,834.5,822.0625,844.5,826.0625,840.5,822.0625" style="stroke:#181818;stroke-width:1.0;"/><line style="stroke:#181818;stroke-width:1.0;stroke-dasharray:2.0,2.0;" x1="838.5" x2="2571.5" y1="822.0625" y2="822.0625"/><text fill="#000000" font-family="sans-serif" font-size="13" font-weight="bold" lengthAdjust="spacing" textLength="14" x="850.5" y="816.7998">19</text><text fill="#000000" font-family="sans-serif" font-size="13" lengthAdjust="spacing" textLength="88" x="868.5" y="816.7998">jobApplications</text><polygon fill="#181818" points="1690.5,849.3535,1700.5,853.3535,1690.5,857.3535,1694.5,853.3535" style="stroke:#181818;stroke-width:1.0;"/><line style="stroke:#181818;stroke-width:1.0;" x1="833.5" x2="1696.5" y1="853.3535" y2="853.3535"/><text fill="#000000" font-family="sans-serif" font-size="13" font-weight="bold" lengthAdjust="spacing" textLength="14" x="840.5" y="848.0908">20</text><text fill="#000000" font-family="sans-serif" font-size="13" lengthAdjust="spacing" textLength="174" x="858.5" y="848.0908">jobApplicationsOf(jobOpening)</text><polygon fill="#181818" points="2905.5,880.6445,2915.5,884.6445,2905.5,888.6445,2909.5,884.6445" style="stroke:#181818;stroke-width:1.0;"/><line style="stroke:#181818;stroke-width:1.0;" x1="1712.5" x2="2911.5" y1="884.6445" y2="884.6445"/><text fill="#000000" font-family="sans-serif" font-size="13" font-weight="bold" lengthAdjust="spacing" textLength="14" x="1719.5" y="879.3818">21</text><text fill="#000000" font-family="sans-serif" font-size="13" lengthAdjust="spacing" textLength="161" x="1737.5" y="879.3818">applicationsByJobOpening()</text><polygon fill="#181818" points="1723.5,911.9355,1713.5,915.9355,1723.5,919.9355,1719.5,915.9355" style="stroke:#181818;stroke-width:1.0;"/><line style="stroke:#181818;stroke-width:1.0;stroke-dasharray:2.0,2.0;" x1="1717.5" x2="2921.5" y1="915.9355" y2="915.9355"/><text fill="#000000" font-family="sans-serif" font-size="13" font-weight="bold" lengthAdjust="spacing" textLength="14" x="1729.5" y="910.6729">22</text><text fill="#000000" font-family="sans-serif" font-size="13" lengthAdjust="spacing" textLength="169" x="1747.5" y="910.6729">jobApplicationsOfJobOpening</text><polygon fill="#181818" points="844.5,943.2266,834.5,947.2266,844.5,951.2266,840.5,947.2266" style="stroke:#181818;stroke-width:1.0;"/><line style="stroke:#181818;stroke-width:1.0;" x1="838.5" x2="1706.5" y1="947.2266" y2="947.2266"/><text fill="#000000" font-family="sans-serif" font-size="13" font-weight="bold" lengthAdjust="spacing" textLength="14" x="850.5" y="941.9639">23</text><text fill="#000000" font-family="sans-serif" font-size="13" lengthAdjust="spacing" textLength="169" x="868.5" y="941.9639">jobApplicationsOfJobOpening</text><polygon fill="#181818" points="429.5,974.5176,419.5,978.5176,429.5,982.5176,425.5,978.5176" style="stroke:#181818;stroke-width:1.0;"/><line style="stroke:#181818;stroke-width:1.0;stroke-dasharray:2.0,2.0;" x1="423.5" x2="827.5" y1="978.5176" y2="978.5176"/><text fill="#000000" font-family="sans-serif" font-size="13" font-weight="bold" lengthAdjust="spacing" textLength="14" x="435.5" y="973.2549">24</text><text fill="#000000" font-family="sans-serif" font-size="13" lengthAdjust="spacing" textLength="169" x="453.5" y="973.2549">jobApplicationsOfJobOpening</text><polygon fill="#181818" points="811.5,1005.8086,821.5,1009.8086,811.5,1013.8086,815.5,1009.8086" style="stroke:#181818;stroke-width:1.0;"/><line style="stroke:#181818;stroke-width:1.0;" x1="418.5" x2="817.5" y1="1009.8086" y2="1009.8086"/><text fill="#000000" font-family="sans-serif" font-size="13" font-weight="bold" lengthAdjust="spacing" textLength="14" x="425.5" y="1004.5459">25</text><text fill="#000000" font-family="sans-serif" font-size="13" lengthAdjust="spacing" textLength="368" x="443.5" y="1004.5459">filterJobApplicationsWithInterview(jobApplicationsOfJobOpening)</text><polygon fill="#181818" points="1690.5,1037.0996,1700.5,1041.0996,1690.5,1045.0996,1694.5,1041.0996" style="stroke:#181818;stroke-width:1.0;"/><line style="stroke:#181818;stroke-width:1.0;" x1="833.5" x2="1696.5" y1="1041.0996" y2="1041.0996"/><text fill="#000000" font-family="sans-serif" font-size="13" font-weight="bold" lengthAdjust="spacing" textLength="14" x="840.5" y="1035.8369">26</text><text fill="#000000" font-family="sans-serif" font-size="13" lengthAdjust="spacing" textLength="472" x="858.5" y="1035.8369">jobApplications = filterJobApplicationsWithInterview(jobApplicationsOfJobOpening)</text><line style="stroke:#181818;stroke-width:1.0;" x1="1712.5" x2="1759.5" y1="1067.3906" y2="1067.3906"/><line style="stroke:#181818;stroke-width:1.0;" x1="1759.5" x2="1759.5" y1="1067.3906" y2="1080.3906"/><line style="stroke:#181818;stroke-width:1.0;" x1="1718.5" x2="1759.5" y1="1080.3906" y2="1080.3906"/><polygon fill="#181818" points="1728.5,1076.3906,1718.5,1080.3906,1728.5,1084.3906,1724.5,1080.3906" style="stroke:#181818;stroke-width:1.0;"/><text fill="#000000" font-family="sans-serif" font-size="13" font-weight="bold" lengthAdjust="spacing" textLength="14" x="1724.5" y="1062.1279">27</text><text fill="#000000" font-family="sans-serif" font-size="13" lengthAdjust="spacing" textLength="823" x="1742.5" y="1062.1279">jobApplications = jobApplicationsOfJobOpening.stream().filter(jobApplication -&gt; jobApplication.interview().isPresent()).collect(Collectors.toList())</text><polygon fill="#181818" points="844.5,1112.6816,834.5,1116.6816,844.5,1120.6816,840.5,1116.6816" style="stroke:#181818;stroke-width:1.0;"/><line style="stroke:#181818;stroke-width:1.0;stroke-dasharray:2.0,2.0;" x1="838.5" x2="1701.5" y1="1116.6816" y2="1116.6816"/><text fill="#000000" font-family="sans-serif" font-size="13" font-weight="bold" lengthAdjust="spacing" textLength="14" x="850.5" y="1111.4189">28</text><text fill="#000000" font-family="sans-serif" font-size="13" lengthAdjust="spacing" textLength="88" x="868.5" y="1111.4189">jobApplications</text><polygon fill="#181818" points="429.5,1143.9727,419.5,1147.9727,429.5,1151.9727,425.5,1147.9727" style="stroke:#181818;stroke-width:1.0;"/><line style="stroke:#181818;stroke-width:1.0;stroke-dasharray:2.0,2.0;" x1="423.5" x2="827.5" y1="1147.9727" y2="1147.9727"/><text fill="#000000" font-family="sans-serif" font-size="13" font-weight="bold" lengthAdjust="spacing" textLength="14" x="435.5" y="1142.71">29</text><text fill="#000000" font-family="sans-serif" font-size="13" lengthAdjust="spacing" textLength="88" x="453.5" y="1142.71">jobApplications</text><path d="M10,1162.9727 L83,1162.9727 L83,1172.2637 L73,1182.2637 L10,1182.2637 L10,1162.9727 " fill="#EEEEEE" style="stroke:#000000;stroke-width:1.5;"/><rect fill="none" height="50.582" style="stroke:#000000;stroke-width:1.5;" width="530" x="10" y="1162.9727"/><text fill="#000000" font-family="sans-serif" font-size="13" font-weight="bold" lengthAdjust="spacing" textLength="28" x="25" y="1178.001">loop</text><text fill="#000000" font-family="sans-serif" font-size="11" font-weight="bold" lengthAdjust="spacing" textLength="264" x="98" y="1176.8428">[JobApplication jobApplication : jobApplications]</text><polygon fill="#181818" points="99.5,1201.5547,89.5,1205.5547,99.5,1209.5547,95.5,1205.5547" style="stroke:#181818;stroke-width:1.0;"/><line style="stroke:#181818;stroke-width:1.0;stroke-dasharray:2.0,2.0;" x1="93.5" x2="412.5" y1="1205.5547" y2="1205.5547"/><text fill="#000000" font-family="sans-serif" font-size="13" font-weight="bold" lengthAdjust="spacing" textLength="14" x="105.5" y="1200.292">30</text><text fill="#000000" font-family="sans-serif" font-size="13" lengthAdjust="spacing" textLength="186" x="123.5" y="1200.292">jobApplication.interview().grade()</text><!--SRC=[hLTRRzem57xFh_3wil10DAblJ9l4Q5MbAwKYOzMU9ZSSmAjZPxRfnB-VdK1YvqQ0vYLoxFDzvtuS-KfOYWLEKC8PZpU29u2Ks88dYvqKnwzu3P7QKK02OeNPcje7v0Ol-J_2rcY5gGJFmrl5sJPv0U5vYYWj5i7VBR0Oq0t1QoFZHz7D00tHOlBf-jh3iU82NKssKca519fYfXd55S8IJQQUfb4a9Ybc2bqz4Adk-Sii1QOfPSWKY3S2_-u4Ne9SX9dG8Zn5QCAP4fpI0sEnT45AW5o_19YA34uCcTmVix__K9CSfoabCLQ4irPfVQPHN43A9T4k8Y17SskH2TgxRGeNGhjIK_EjIyswZDxCX4oyo1jMO8A3z3EPek5NxVGHcfj0IoMHucX9P4hnpaWYdklnKI9oy3rQPyxF00f07JYqVnQX0Is3WKQvtda8dudQF6smX2AM4vwa51Gi_K61uM1RSRNtBGRDPtjJCzhB2cwddALfHSnHoObTzPG3EUpmXIEvXEFehkfstfxhPCSgfn2gfnosVkmpvcVlOFmuVlWLXL6T-q9-azQQV4NOSaoftmS_guIcOoNWi6uUflI-9N2LuBMJKCvJLA9OBgiINE1yzCLQ1QbnlyxaO0tApnQ3G2gijkQRBddTz_qeMmVXu- -d-UnkVXirX0dOCbF_gE6NPqyW8E5l4AvyopzQuaEJMR4k24oO_0wxVQg5Zpzkvp_3s-V1uFC5sNQUNUVrFUzKOhiDPFtxT2gBfg6zcXPkR9cEzE2l3OCy_Iq4tVmhuoG2gYySjj29uyAQPt9cfqAPcrq6z9uDNj-fO2lKDgXQ-_RHYM2ZUtqdGcqQbFUGtawiLeHrbQcakGLUiEtRBxPulktADdParXok9GqrTS0UzZ6ifM-wbTH4LhEgEmiRU6eSLUUrb6edS7jjDjJAYb1TvEuDCEi0HV7x7NpdLDEHUEW1z5uwNPQSNHfsqElvA00dUhZaPbHKBV4FNuBYPgnbY7mI8FKlWZymqucQDkXFyZSNCb3S_DBepMELqSFGldtalHArn_3mx7kExRMA4zknYz5JE-FuEVi7sVSNTn8vrnLRqwdt7m00]--></g></svg>