<?xml version="1.0" encoding="us-ascii" standalone="no"?><svg xmlns="http://www.w3.org/2000/svg" xmlns:xlink="http://www.w3.org/1999/xlink" contentStyleType="text/css" height="648px" preserveAspectRatio="none" style="width:693px;height:648px;background:#FFFFFF;" version="1.1" viewBox="0 0 693 648" width="693px" zoomAndPan="magnify"><defs/><g><text fill="#000000" font-family="sans-serif" font-size="14" font-weight="bold" lengthAdjust="spacing" textLength="284" x="206.75" y="30.1074">system Sequence Diagram (SSD) - UC023</text><rect fill="#FFFFFF" height="413.7832" style="stroke:#181818;stroke-width:1.0;" width="10" x="78.5" y="133.2422"/><rect fill="#FFFFFF" height="75.582" style="stroke:#181818;stroke-width:1.0;" width="10" x="580.5" y="156.5332"/><rect fill="#FFFFFF" height="31.291" style="stroke:#181818;stroke-width:1.0;" width="10" x="580.5" y="263.4063"/><rect fill="#FFFFFF" height="57.582" style="stroke:#181818;stroke-width:1.0;" width="10" x="580.5" y="325.9883"/><rect fill="#FFFFFF" height="31.291" style="stroke:#181818;stroke-width:1.0;" width="10" x="580.5" y="414.8613"/><rect fill="#FFFFFF" height="69.582" style="stroke:#181818;stroke-width:1.0;" width="10" x="580.5" y="477.4434"/><rect fill="none" height="175.7461" style="stroke:#000000;stroke-width:1.5;" width="617.5" x="10" y="340.9883"/><line style="stroke:#181818;stroke-width:0.5;stroke-dasharray:5.0,5.0;" x1="83" x2="83" y1="123.2422" y2="565.0254"/><line style="stroke:#181818;stroke-width:0.5;stroke-dasharray:5.0,5.0;" x1="585.5" x2="585.5" y1="123.2422" y2="565.0254"/><text fill="#000000" font-family="sans-serif" font-size="14" lengthAdjust="spacing" textLength="121" x="20" y="119.7285">Customer Manager</text><ellipse cx="83.5" cy="53.1211" fill="#E3E3E3" rx="8" ry="8" style="stroke:#181818;stroke-width:0.5;"/><path d="M83.5,61.1211 L83.5,88.1211 M70.5,69.1211 L96.5,69.1211 M83.5,88.1211 L70.5,103.1211 M83.5,88.1211 L96.5,103.1211 " fill="none" style="stroke:#181818;stroke-width:0.5;"/><text fill="#000000" font-family="sans-serif" font-size="14" lengthAdjust="spacing" textLength="121" x="20" y="579.1328">Customer Manager</text><ellipse cx="83.5" cy="591.1465" fill="#E3E3E3" rx="8" ry="8" style="stroke:#181818;stroke-width:0.5;"/><path d="M83.5,599.1465 L83.5,626.1465 M70.5,607.1465 L96.5,607.1465 M83.5,626.1465 L70.5,641.1465 M83.5,626.1465 L96.5,641.1465 " fill="none" style="stroke:#181818;stroke-width:0.5;"/><rect fill="#E3E3E3" height="32.6211" rx="2.5" ry="2.5" style="stroke:#181818;stroke-width:0.5;" width="64" x="553.5" y="89.6211"/><text fill="#000000" font-family="sans-serif" font-size="14" lengthAdjust="spacing" textLength="50" x="560.5" y="111.7285">:System</text><rect fill="#E3E3E3" height="32.6211" rx="2.5" ry="2.5" style="stroke:#181818;stroke-width:0.5;" width="64" x="553.5" y="564.0254"/><text fill="#000000" font-family="sans-serif" font-size="14" lengthAdjust="spacing" textLength="50" x="560.5" y="586.1328">:System</text><rect fill="#FFFFFF" height="413.7832" style="stroke:#181818;stroke-width:1.0;" width="10" x="78.5" y="133.2422"/><rect fill="#FFFFFF" height="75.582" style="stroke:#181818;stroke-width:1.0;" width="10" x="580.5" y="156.5332"/><rect fill="#FFFFFF" height="31.291" style="stroke:#181818;stroke-width:1.0;" width="10" x="580.5" y="263.4063"/><rect fill="#FFFFFF" height="57.582" style="stroke:#181818;stroke-width:1.0;" width="10" x="580.5" y="325.9883"/><rect fill="#FFFFFF" height="31.291" style="stroke:#181818;stroke-width:1.0;" width="10" x="580.5" y="414.8613"/><rect fill="#FFFFFF" height="69.582" style="stroke:#181818;stroke-width:1.0;" width="10" x="580.5" y="477.4434"/><polygon fill="#181818" points="568.5,152.5332,578.5,156.5332,568.5,160.5332,572.5,156.5332" style="stroke:#181818;stroke-width:1.0;"/><line style="stroke:#181818;stroke-width:1.0;" x1="88.5" x2="574.5" y1="156.5332" y2="156.5332"/><text fill="#000000" font-family="sans-serif" font-size="13" font-weight="bold" lengthAdjust="spacing" textLength="7" x="95.5" y="151.2705">1</text><text fill="#000000" font-family="sans-serif" font-size="13" lengthAdjust="spacing" textLength="31" x="106.5" y="151.2705">Login</text><line style="stroke:#181818;stroke-width:1.0;stroke-dasharray:2.0,2.0;" x1="590.5" x2="632.5" y1="187.8242" y2="187.8242"/><line style="stroke:#181818;stroke-width:1.0;stroke-dasharray:2.0,2.0;" x1="632.5" x2="632.5" y1="187.8242" y2="200.8242"/><line style="stroke:#181818;stroke-width:1.0;stroke-dasharray:2.0,2.0;" x1="591.5" x2="632.5" y1="200.8242" y2="200.8242"/><polygon fill="#181818" points="601.5,196.8242,591.5,200.8242,601.5,204.8242,597.5,200.8242" style="stroke:#181818;stroke-width:1.0;"/><text fill="#000000" font-family="sans-serif" font-size="13" font-weight="bold" lengthAdjust="spacing" textLength="7" x="597.5" y="182.5615">2</text><text fill="#000000" font-family="sans-serif" font-size="13" lengthAdjust="spacing" textLength="78" x="608.5" y="182.5615">Validate login</text><polygon fill="#181818" points="99.5,228.1152,89.5,232.1152,99.5,236.1152,95.5,232.1152" style="stroke:#181818;stroke-width:1.0;"/><line style="stroke:#181818;stroke-width:1.0;" x1="93.5" x2="584.5" y1="232.1152" y2="232.1152"/><text fill="#000000" font-family="sans-serif" font-size="13" font-weight="bold" lengthAdjust="spacing" textLength="7" x="105.5" y="226.8525">3</text><text fill="#000000" font-family="sans-serif" font-size="13" lengthAdjust="spacing" textLength="457" x="116.5" y="226.8525">Allow access to the backoffice application with Customer Manager permissions</text><polygon fill="#181818" points="568.5,259.4063,578.5,263.4063,568.5,267.4063,572.5,263.4063" style="stroke:#181818;stroke-width:1.0;"/><line style="stroke:#181818;stroke-width:1.0;" x1="88.5" x2="574.5" y1="263.4063" y2="263.4063"/><text fill="#000000" font-family="sans-serif" font-size="13" font-weight="bold" lengthAdjust="spacing" textLength="7" x="95.5" y="258.1436">4</text><text fill="#000000" font-family="sans-serif" font-size="13" lengthAdjust="spacing" textLength="93" x="106.5" y="258.1436">Edit job opening</text><polygon fill="#181818" points="99.5,290.6973,89.5,294.6973,99.5,298.6973,95.5,294.6973" style="stroke:#181818;stroke-width:1.0;"/><line style="stroke:#181818;stroke-width:1.0;" x1="93.5" x2="584.5" y1="294.6973" y2="294.6973"/><text fill="#000000" font-family="sans-serif" font-size="13" font-weight="bold" lengthAdjust="spacing" textLength="7" x="105.5" y="289.4346">5</text><text fill="#000000" font-family="sans-serif" font-size="13" lengthAdjust="spacing" textLength="123" x="116.5" y="289.4346">Show job opening list</text><polygon fill="#181818" points="568.5,321.9883,578.5,325.9883,568.5,329.9883,572.5,325.9883" style="stroke:#181818;stroke-width:1.0;"/><line style="stroke:#181818;stroke-width:1.0;" x1="88.5" x2="574.5" y1="325.9883" y2="325.9883"/><text fill="#000000" font-family="sans-serif" font-size="13" font-weight="bold" lengthAdjust="spacing" textLength="7" x="95.5" y="320.7256">6</text><text fill="#000000" font-family="sans-serif" font-size="13" lengthAdjust="spacing" textLength="107" x="106.5" y="320.7256">Select job opening</text><path d="M10,340.9883 L83,340.9883 L83,350.2793 L73,360.2793 L10,360.2793 L10,340.9883 " fill="#EEEEEE" style="stroke:#000000;stroke-width:1.5;"/><rect fill="none" height="175.7461" style="stroke:#000000;stroke-width:1.5;" width="617.5" x="10" y="340.9883"/><text fill="#000000" font-family="sans-serif" font-size="13" font-weight="bold" lengthAdjust="spacing" textLength="28" x="25" y="356.0166">loop</text><text fill="#000000" font-family="sans-serif" font-size="11" font-weight="bold" lengthAdjust="spacing" textLength="164" x="98" y="354.8584">[wants to edit more sections]</text><polygon fill="#181818" points="99.5,379.5703,89.5,383.5703,99.5,387.5703,95.5,383.5703" style="stroke:#181818;stroke-width:1.0;"/><line style="stroke:#181818;stroke-width:1.0;" x1="93.5" x2="584.5" y1="383.5703" y2="383.5703"/><text fill="#000000" font-family="sans-serif" font-size="13" font-weight="bold" lengthAdjust="spacing" textLength="7" x="105.5" y="378.3076">7</text><text fill="#000000" font-family="sans-serif" font-size="13" lengthAdjust="spacing" textLength="200" x="116.5" y="378.3076">Ask to select which section to edit</text><polygon fill="#181818" points="568.5,410.8613,578.5,414.8613,568.5,418.8613,572.5,414.8613" style="stroke:#181818;stroke-width:1.0;"/><line style="stroke:#181818;stroke-width:1.0;" x1="88.5" x2="574.5" y1="414.8613" y2="414.8613"/><text fill="#000000" font-family="sans-serif" font-size="13" font-weight="bold" lengthAdjust="spacing" textLength="7" x="95.5" y="409.5986">8</text><text fill="#000000" font-family="sans-serif" font-size="13" lengthAdjust="spacing" textLength="44" x="106.5" y="409.5986">Selects</text><polygon fill="#181818" points="99.5,442.1523,89.5,446.1523,99.5,450.1523,95.5,446.1523" style="stroke:#181818;stroke-width:1.0;"/><line style="stroke:#181818;stroke-width:1.0;" x1="93.5" x2="584.5" y1="446.1523" y2="446.1523"/><text fill="#000000" font-family="sans-serif" font-size="13" font-weight="bold" lengthAdjust="spacing" textLength="7" x="105.5" y="440.8896">9</text><text fill="#000000" font-family="sans-serif" font-size="13" lengthAdjust="spacing" textLength="70" x="116.5" y="440.8896">Ask for data</text><polygon fill="#181818" points="568.5,473.4434,578.5,477.4434,568.5,481.4434,572.5,477.4434" style="stroke:#181818;stroke-width:1.0;"/><line style="stroke:#181818;stroke-width:1.0;" x1="88.5" x2="574.5" y1="477.4434" y2="477.4434"/><text fill="#000000" font-family="sans-serif" font-size="13" font-weight="bold" lengthAdjust="spacing" textLength="14" x="95.5" y="472.1807">10</text><text fill="#000000" font-family="sans-serif" font-size="13" lengthAdjust="spacing" textLength="64" x="113.5" y="472.1807">Inputs data</text><polygon fill="#181818" points="99.5,504.7344,89.5,508.7344,99.5,512.7344,95.5,508.7344" style="stroke:#181818;stroke-width:1.0;"/><line style="stroke:#181818;stroke-width:1.0;" x1="93.5" x2="579.5" y1="508.7344" y2="508.7344"/><text fill="#000000" font-family="sans-serif" font-size="13" font-weight="bold" lengthAdjust="spacing" textLength="14" x="105.5" y="503.4717">11</text><text fill="#000000" font-family="sans-serif" font-size="13" lengthAdjust="spacing" textLength="226" x="123.5" y="503.4717">Ask if user wants to edit more sections</text><polygon fill="#181818" points="94.5,543.0254,84.5,547.0254,94.5,551.0254,90.5,547.0254" style="stroke:#181818;stroke-width:1.0;"/><line style="stroke:#181818;stroke-width:1.0;" x1="88.5" x2="584.5" y1="547.0254" y2="547.0254"/><text fill="#000000" font-family="sans-serif" font-size="13" font-weight="bold" lengthAdjust="spacing" textLength="14" x="100.5" y="541.7627">12</text><text fill="#000000" font-family="sans-serif" font-size="13" lengthAdjust="spacing" textLength="164" x="118.5" y="541.7627">(un)success of the operation</text><!--SRC=[dLDDRzim3BthLn0vjOS0-xZbK61eTnYmdOpjpiYqpKQMF96QqNy_Maw2R6lNPRv9V8_lyOcM0yS9CuumffZyaDD8eBcGatDbGd_0dXfz2WIPl6BimoL01cpJpB673eEGSyfgK7aIfH4Q-bueUe87ndw1tpJDmoriuUlzctVl7NfD6JRtHTIqCtp1Q69v0oXGQyv4b3rF61KskwPshULLm3aicc8PzyP-wvQ6_0ELZcm7zgqYsxiZPGUVKy_nL5hXfsxBvT7wzeBn3GEt2ovKwY-mkrLW1nz2IBCTF8c09j21O6_nfQvZIm2dAR17vHHXPXtWzwbXeZooY06aAhJqhBy_vldOii9ZsaEQADfBl3xQsNCpcEKBAWGMlKgyeM1RyRgy2obDCDixrd1eyJocR02Zrv5VI5KE2rvMcNbWFvmefpx_uLUko6Xnq5aJMm2yIkfJd8fDU-RzknntKCGsugznEOejBAa-t-Ucn5ifwpQchcwZFL2k2_ZI61TNwm_q4m00]--></g></svg>