<?xml version="1.0" encoding="us-ascii" standalone="no"?><svg xmlns="http://www.w3.org/2000/svg" xmlns:xlink="http://www.w3.org/1999/xlink" contentStyleType="text/css" height="1005px" preserveAspectRatio="none" style="width:737px;height:1005px;background:#FFFFFF;" version="1.1" viewBox="0 0 737 1005" width="737px" zoomAndPan="magnify"><defs/><g><text fill="#000000" font-family="sans-serif" font-size="14" font-weight="bold" lengthAdjust="spacing" textLength="285" x="225.75" y="30.1074">System Sequence Diagram (SSD) - UC032</text><rect fill="#FFFFFF" height="771.2871" style="stroke:#181818;stroke-width:1.0;" width="10" x="78.5" y="133.2422"/><rect fill="#FFFFFF" height="179.873" style="stroke:#181818;stroke-width:1.0;" width="10" x="389.5" y="156.5332"/><rect fill="#FFFFFF" height="28" style="stroke:#181818;stroke-width:1.0;" width="10" x="394.5" y="195.8242"/><rect fill="#FFFFFF" height="28" style="stroke:#181818;stroke-width:1.0;" width="10" x="394.5" y="270.1152"/><rect fill="#FFFFFF" height="318.7461" style="stroke:#181818;stroke-width:1.0;" width="10" x="389.5" y="367.6973"/><rect fill="#FFFFFF" height="28" style="stroke:#181818;stroke-width:1.0;" width="10" x="394.5" y="406.9883"/><rect fill="#FFFFFF" height="28" style="stroke:#181818;stroke-width:1.0;" width="10" x="394.5" y="507.5703"/><rect fill="#FFFFFF" height="28" style="stroke:#181818;stroke-width:1.0;" width="10" x="394.5" y="581.8613"/><rect fill="#FFFFFF" height="160.5039" style="stroke:#181818;stroke-width:1.0;" width="10" x="389.5" y="744.0254"/><rect fill="#FFFFFF" height="28" style="stroke:#181818;stroke-width:1.0;" width="10" x="394.5" y="783.3164"/><rect fill="none" height="167.873" style="stroke:#000000;stroke-width:1.5;" width="284" x="352.5" y="456.9883"/><rect fill="none" height="172.7949" style="stroke:#000000;stroke-width:1.5;" width="564.5" x="10" y="701.4434"/><line style="stroke:#181818;stroke-width:0.5;stroke-dasharray:5.0,5.0;" x1="83" x2="83" y1="123.2422" y2="922.5293"/><line style="stroke:#181818;stroke-width:0.5;stroke-dasharray:5.0,5.0;" x1="394.5" x2="394.5" y1="123.2422" y2="922.5293"/><text fill="#000000" font-family="sans-serif" font-size="14" lengthAdjust="spacing" textLength="121" x="20" y="119.7285">Customer Manager</text><ellipse cx="83.5" cy="53.1211" fill="#E3E3E3" rx="8" ry="8" style="stroke:#181818;stroke-width:0.5;"/><path d="M83.5,61.1211 L83.5,88.1211 M70.5,69.1211 L96.5,69.1211 M83.5,88.1211 L70.5,103.1211 M83.5,88.1211 L96.5,103.1211 " fill="none" style="stroke:#181818;stroke-width:0.5;"/><text fill="#000000" font-family="sans-serif" font-size="14" lengthAdjust="spacing" textLength="121" x="20" y="936.6367">Customer Manager</text><ellipse cx="83.5" cy="948.6504" fill="#E3E3E3" rx="8" ry="8" style="stroke:#181818;stroke-width:0.5;"/><path d="M83.5,956.6504 L83.5,983.6504 M70.5,964.6504 L96.5,964.6504 M83.5,983.6504 L70.5,998.6504 M83.5,983.6504 L96.5,998.6504 " fill="none" style="stroke:#181818;stroke-width:0.5;"/><rect fill="#E3E3E3" height="32.6211" rx="2.5" ry="2.5" style="stroke:#181818;stroke-width:0.5;" width="64" x="362.5" y="89.6211"/><text fill="#000000" font-family="sans-serif" font-size="14" lengthAdjust="spacing" textLength="50" x="369.5" y="111.7285">:System</text><rect fill="#E3E3E3" height="32.6211" rx="2.5" ry="2.5" style="stroke:#181818;stroke-width:0.5;" width="64" x="362.5" y="921.5293"/><text fill="#000000" font-family="sans-serif" font-size="14" lengthAdjust="spacing" textLength="50" x="369.5" y="943.6367">:System</text><rect fill="#FFFFFF" height="771.2871" style="stroke:#181818;stroke-width:1.0;" width="10" x="78.5" y="133.2422"/><rect fill="#FFFFFF" height="179.873" style="stroke:#181818;stroke-width:1.0;" width="10" x="389.5" y="156.5332"/><rect fill="#FFFFFF" height="28" style="stroke:#181818;stroke-width:1.0;" width="10" x="394.5" y="195.8242"/><rect fill="#FFFFFF" height="28" style="stroke:#181818;stroke-width:1.0;" width="10" x="394.5" y="270.1152"/><rect fill="#FFFFFF" height="318.7461" style="stroke:#181818;stroke-width:1.0;" width="10" x="389.5" y="367.6973"/><rect fill="#FFFFFF" height="28" style="stroke:#181818;stroke-width:1.0;" width="10" x="394.5" y="406.9883"/><rect fill="#FFFFFF" height="28" style="stroke:#181818;stroke-width:1.0;" width="10" x="394.5" y="507.5703"/><rect fill="#FFFFFF" height="28" style="stroke:#181818;stroke-width:1.0;" width="10" x="394.5" y="581.8613"/><rect fill="#FFFFFF" height="160.5039" style="stroke:#181818;stroke-width:1.0;" width="10" x="389.5" y="744.0254"/><rect fill="#FFFFFF" height="28" style="stroke:#181818;stroke-width:1.0;" width="10" x="394.5" y="783.3164"/><polygon fill="#181818" points="377.5,152.5332,387.5,156.5332,377.5,160.5332,381.5,156.5332" style="stroke:#181818;stroke-width:1.0;"/><line style="stroke:#181818;stroke-width:1.0;" x1="88.5" x2="383.5" y1="156.5332" y2="156.5332"/><text fill="#000000" font-family="sans-serif" font-size="13" font-weight="bold" lengthAdjust="spacing" textLength="7" x="95.5" y="151.2705">1</text><text fill="#000000" font-family="sans-serif" font-size="13" lengthAdjust="spacing" textLength="271" x="106.5" y="151.2705">Requests to evaluate a job opening's interviews</text><line style="stroke:#181818;stroke-width:1.0;" x1="404.5" x2="446.5" y1="187.8242" y2="187.8242"/><line style="stroke:#181818;stroke-width:1.0;" x1="446.5" x2="446.5" y1="187.8242" y2="200.8242"/><line style="stroke:#181818;stroke-width:1.0;" x1="405.5" x2="446.5" y1="200.8242" y2="200.8242"/><polygon fill="#181818" points="415.5,196.8242,405.5,200.8242,415.5,204.8242,411.5,200.8242" style="stroke:#181818;stroke-width:1.0;"/><text fill="#000000" font-family="sans-serif" font-size="13" font-weight="bold" lengthAdjust="spacing" textLength="7" x="411.5" y="182.5615">2</text><text fill="#000000" font-family="sans-serif" font-size="13" lengthAdjust="spacing" textLength="146" x="422.5" y="182.5615">Retrieve job opening's list</text><line style="stroke:#181818;stroke-width:1.0;" x1="404.5" x2="446.5" y1="262.1152" y2="262.1152"/><line style="stroke:#181818;stroke-width:1.0;" x1="446.5" x2="446.5" y1="262.1152" y2="275.1152"/><line style="stroke:#181818;stroke-width:1.0;" x1="405.5" x2="446.5" y1="275.1152" y2="275.1152"/><polygon fill="#181818" points="415.5,271.1152,405.5,275.1152,415.5,279.1152,411.5,275.1152" style="stroke:#181818;stroke-width:1.0;"/><text fill="#000000" font-family="sans-serif" font-size="13" font-weight="bold" lengthAdjust="spacing" textLength="7" x="411.5" y="256.8525">3</text><text fill="#000000" font-family="sans-serif" font-size="13" lengthAdjust="spacing" textLength="308" x="422.5" y="256.8525">Select job opening's with phase's interview completed</text><polygon fill="#181818" points="99.5,332.4063,89.5,336.4063,99.5,340.4063,95.5,336.4063" style="stroke:#181818;stroke-width:1.0;"/><line style="stroke:#181818;stroke-width:1.0;stroke-dasharray:2.0,2.0;" x1="93.5" x2="393.5" y1="336.4063" y2="336.4063"/><text fill="#000000" font-family="sans-serif" font-size="13" font-weight="bold" lengthAdjust="spacing" textLength="7" x="105.5" y="331.1436">4</text><text fill="#000000" font-family="sans-serif" font-size="13" lengthAdjust="spacing" textLength="143" x="116.5" y="331.1436">Display job opening's list</text><polygon fill="#181818" points="377.5,363.6973,387.5,367.6973,377.5,371.6973,381.5,367.6973" style="stroke:#181818;stroke-width:1.0;"/><line style="stroke:#181818;stroke-width:1.0;" x1="88.5" x2="383.5" y1="367.6973" y2="367.6973"/><text fill="#000000" font-family="sans-serif" font-size="13" font-weight="bold" lengthAdjust="spacing" textLength="7" x="95.5" y="362.4346">5</text><text fill="#000000" font-family="sans-serif" font-size="13" lengthAdjust="spacing" textLength="236" x="106.5" y="362.4346">Select one job opening to rank interviews</text><line style="stroke:#181818;stroke-width:1.0;" x1="404.5" x2="446.5" y1="398.9883" y2="398.9883"/><line style="stroke:#181818;stroke-width:1.0;" x1="446.5" x2="446.5" y1="398.9883" y2="411.9883"/><line style="stroke:#181818;stroke-width:1.0;" x1="405.5" x2="446.5" y1="411.9883" y2="411.9883"/><polygon fill="#181818" points="415.5,407.9883,405.5,411.9883,415.5,415.9883,411.5,411.9883" style="stroke:#181818;stroke-width:1.0;"/><text fill="#000000" font-family="sans-serif" font-size="13" font-weight="bold" lengthAdjust="spacing" textLength="7" x="411.5" y="393.7256">6</text><text fill="#000000" font-family="sans-serif" font-size="13" lengthAdjust="spacing" textLength="219" x="422.5" y="393.7256">Retrieve job opening's job applications</text><path d="M352.5,456.9883 L425.5,456.9883 L425.5,466.2793 L415.5,476.2793 L352.5,476.2793 L352.5,456.9883 " fill="#EEEEEE" style="stroke:#000000;stroke-width:1.5;"/><rect fill="none" height="167.873" style="stroke:#000000;stroke-width:1.5;" width="284" x="352.5" y="456.9883"/><text fill="#000000" font-family="sans-serif" font-size="13" font-weight="bold" lengthAdjust="spacing" textLength="28" x="367.5" y="472.0166">loop</text><text fill="#000000" font-family="sans-serif" font-size="11" font-weight="bold" lengthAdjust="spacing" textLength="135" x="440.5" y="470.8584">[for each job application]</text><line style="stroke:#181818;stroke-width:1.0;" x1="404.5" x2="446.5" y1="499.5703" y2="499.5703"/><line style="stroke:#181818;stroke-width:1.0;" x1="446.5" x2="446.5" y1="499.5703" y2="512.5703"/><line style="stroke:#181818;stroke-width:1.0;" x1="405.5" x2="446.5" y1="512.5703" y2="512.5703"/><polygon fill="#181818" points="415.5,508.5703,405.5,512.5703,415.5,516.5703,411.5,512.5703" style="stroke:#181818;stroke-width:1.0;"/><text fill="#000000" font-family="sans-serif" font-size="13" font-weight="bold" lengthAdjust="spacing" textLength="7" x="411.5" y="494.3076">7</text><text fill="#000000" font-family="sans-serif" font-size="13" lengthAdjust="spacing" textLength="202" x="422.5" y="494.3076">Retrieve job application's interviews</text><line style="stroke:#181818;stroke-width:1.0;" x1="404.5" x2="446.5" y1="573.8613" y2="573.8613"/><line style="stroke:#181818;stroke-width:1.0;" x1="446.5" x2="446.5" y1="573.8613" y2="586.8613"/><line style="stroke:#181818;stroke-width:1.0;" x1="405.5" x2="446.5" y1="586.8613" y2="586.8613"/><polygon fill="#181818" points="415.5,582.8613,405.5,586.8613,415.5,590.8613,411.5,586.8613" style="stroke:#181818;stroke-width:1.0;"/><text fill="#000000" font-family="sans-serif" font-size="13" font-weight="bold" lengthAdjust="spacing" textLength="7" x="411.5" y="568.5986">8</text><text fill="#000000" font-family="sans-serif" font-size="13" lengthAdjust="spacing" textLength="144" x="422.5" y="568.5986">Retrieve interview's grade</text><polygon fill="#181818" points="99.5,651.1523,89.5,655.1523,99.5,659.1523,95.5,655.1523" style="stroke:#181818;stroke-width:1.0;"/><line style="stroke:#181818;stroke-width:1.0;stroke-dasharray:2.0,2.0;" x1="93.5" x2="388.5" y1="655.1523" y2="655.1523"/><text fill="#000000" font-family="sans-serif" font-size="13" font-weight="bold" lengthAdjust="spacing" textLength="7" x="105.5" y="649.8896">9</text><text fill="#000000" font-family="sans-serif" font-size="13" lengthAdjust="spacing" textLength="148" x="116.5" y="649.8896">Display interview's grades</text><polygon fill="#181818" points="99.5,682.4434,89.5,686.4434,99.5,690.4434,95.5,686.4434" style="stroke:#181818;stroke-width:1.0;"/><line style="stroke:#181818;stroke-width:1.0;stroke-dasharray:2.0,2.0;" x1="93.5" x2="393.5" y1="686.4434" y2="686.4434"/><text fill="#000000" font-family="sans-serif" font-size="13" font-weight="bold" lengthAdjust="spacing" textLength="14" x="105.5" y="681.1807">10</text><text fill="#000000" font-family="sans-serif" font-size="13" lengthAdjust="spacing" textLength="140" x="123.5" y="681.1807">Save interview's grades?</text><path d="M10,701.4434 L71,701.4434 L71,710.7344 L61,720.7344 L10,720.7344 L10,701.4434 " fill="#EEEEEE" style="stroke:#000000;stroke-width:1.5;"/><rect fill="none" height="172.7949" style="stroke:#000000;stroke-width:1.5;" width="564.5" x="10" y="701.4434"/><text fill="#000000" font-family="sans-serif" font-size="13" font-weight="bold" lengthAdjust="spacing" textLength="16" x="25" y="716.4717">alt</text><text fill="#000000" font-family="sans-serif" font-size="11" font-weight="bold" lengthAdjust="spacing" textLength="51" x="86" y="715.3135">[confirm]</text><polygon fill="#181818" points="377.5,740.0254,387.5,744.0254,377.5,748.0254,381.5,744.0254" style="stroke:#181818;stroke-width:1.0;"/><line style="stroke:#181818;stroke-width:1.0;" x1="88.5" x2="383.5" y1="744.0254" y2="744.0254"/><text fill="#000000" font-family="sans-serif" font-size="13" font-weight="bold" lengthAdjust="spacing" textLength="14" x="95.5" y="738.7627">11</text><text fill="#000000" font-family="sans-serif" font-size="13" lengthAdjust="spacing" textLength="201" x="113.5" y="738.7627">Confirms to save interview's grades</text><line style="stroke:#181818;stroke-width:1.0;" x1="404.5" x2="446.5" y1="775.3164" y2="775.3164"/><line style="stroke:#181818;stroke-width:1.0;" x1="446.5" x2="446.5" y1="775.3164" y2="788.3164"/><line style="stroke:#181818;stroke-width:1.0;" x1="405.5" x2="446.5" y1="788.3164" y2="788.3164"/><polygon fill="#181818" points="415.5,784.3164,405.5,788.3164,415.5,792.3164,411.5,788.3164" style="stroke:#181818;stroke-width:1.0;"/><text fill="#000000" font-family="sans-serif" font-size="13" font-weight="bold" lengthAdjust="spacing" textLength="14" x="411.5" y="770.0537">12</text><text fill="#000000" font-family="sans-serif" font-size="13" lengthAdjust="spacing" textLength="133" x="429.5" y="770.0537">Save interview's grades</text><line style="stroke:#000000;stroke-width:1.0;stroke-dasharray:2.0,2.0;" x1="10" x2="574.5" y1="827.3164" y2="827.3164"/><text fill="#000000" font-family="sans-serif" font-size="11" font-weight="bold" lengthAdjust="spacing" textLength="43" x="15" y="839.1865">[cancel]</text><polygon fill="#181818" points="377.5,862.2383,387.5,866.2383,377.5,870.2383,381.5,866.2383" style="stroke:#181818;stroke-width:1.0;"/><line style="stroke:#181818;stroke-width:1.0;" x1="88.5" x2="383.5" y1="866.2383" y2="866.2383"/><text fill="#000000" font-family="sans-serif" font-size="13" font-weight="bold" lengthAdjust="spacing" textLength="14" x="95.5" y="860.9756">13</text><text fill="#000000" font-family="sans-serif" font-size="13" lengthAdjust="spacing" textLength="197" x="113.5" y="860.9756">Cancels to save interview's grades</text><polygon fill="#181818" points="94.5,900.5293,84.5,904.5293,94.5,908.5293,90.5,904.5293" style="stroke:#181818;stroke-width:1.0;"/><line style="stroke:#181818;stroke-width:1.0;stroke-dasharray:2.0,2.0;" x1="88.5" x2="393.5" y1="904.5293" y2="904.5293"/><text fill="#000000" font-family="sans-serif" font-size="13" font-weight="bold" lengthAdjust="spacing" textLength="14" x="100.5" y="899.2666">14</text><text fill="#000000" font-family="sans-serif" font-size="13" lengthAdjust="spacing" textLength="184" x="118.5" y="899.2666">Shows (un)successful message</text><!--SRC=[fLHDazem3BtxLsYuTFUmC_suSMWFsIkNPle3j8uWBexjMZ8C_xuoP1XW0wLBBeajwRtd5rcyTY5XnW666ABjSnm891SoV8maj6jSKIixJv392eQLFqtW7hkuTM45I_HCneWJJMrtB3H0ItyA1Klmwd1Lqv_QzlKPNk1Ny_dRLuDMOePPKrYKEyC2WvBb6I13ip3A8CwwX45WDZz0xcE7JsEmI0nbUDFIBwQYkGqArT9c0I_Vnxmv_AmoM1Wa0ctGbvg5y3k-GKmKLFqd1XU4yiRHbWsCpn5n9AnxuydEq2Kxsj05ddSiDv4wkW-_9Q_6Nw1ldVIGUcGwbGus3icJKFS0ir8tYxd-CauUTrEdUbz_xlUeE8OpJwhx6SFwqkc7NAuhJCaxY-9Yu0-SsyUOOAcDgD7-4l28TuUgaxBfVhgcwxgsEvYFFCgfTwoZ1-WeT7ixRlN3EpwUocvnIXh_kF4Vq8lsRrYwV5YVzrHpYEplC4-3_-UzRJ-0SiKsdNnWKGUTdrA-3_nJUFLUBPWqiuzRXgSIdhbOIypBuc7GjqxBAx9ETdGS_WK0]--></g></svg>