<?xml version="1.0" encoding="us-ascii" standalone="no"?><svg xmlns="http://www.w3.org/2000/svg" xmlns:xlink="http://www.w3.org/1999/xlink" contentStyleType="text/css" height="912px" preserveAspectRatio="none" style="width:1352px;height:912px;background:#FFFFFF;" version="1.1" viewBox="0 0 1352 912" width="1352px" zoomAndPan="magnify"><defs/><g><text fill="#000000" font-family="sans-serif" font-size="14" font-weight="bold" lengthAdjust="spacing" textLength="222" x="564" y="30.1074">Sequence Diagram (SD) - UC004</text><rect fill="#FFFFFF" height="633.8203" style="stroke:#181818;stroke-width:1.0;" width="10" x="208.5" y="161.1543"/><rect fill="#FFFFFF" height="571.2383" style="stroke:#181818;stroke-width:1.0;" width="10" x="379" y="192.4453"/><rect fill="#FFFFFF" height="99.873" style="stroke:#181818;stroke-width:1.0;" width="10" x="524" y="223.7363"/><rect fill="#FFFFFF" height="62.582" style="stroke:#181818;stroke-width:1.0;" width="10" x="667" y="354.9004"/><rect fill="#FFFFFF" height="31.291" style="stroke:#181818;stroke-width:1.0;" width="10" x="816.5" y="480.0645"/><rect fill="#FFFFFF" height="283.6191" style="stroke:#181818;stroke-width:1.0;" width="10" x="987" y="448.7734"/><rect fill="#FFFFFF" height="31.291" style="stroke:#181818;stroke-width:1.0;" width="10" x="1166" y="631.5195"/><rect fill="none" height="144.4551" style="stroke:#000000;stroke-width:1.5;" width="368" x="896" y="526.3555"/><line style="stroke:#181818;stroke-width:0.5;stroke-dasharray:5.0,5.0;" x1="27" x2="27" y1="127.8633" y2="812.9746"/><line style="stroke:#181818;stroke-width:0.5;stroke-dasharray:5.0,5.0;" x1="213" x2="213" y1="127.8633" y2="812.9746"/><line style="stroke:#181818;stroke-width:0.5;stroke-dasharray:5.0,5.0;" x1="384" x2="384" y1="127.8633" y2="812.9746"/><line style="stroke:#181818;stroke-width:0.5;stroke-dasharray:5.0,5.0;" x1="529" x2="529" y1="127.8633" y2="812.9746"/><line style="stroke:#181818;stroke-width:0.5;stroke-dasharray:5.0,5.0;" x1="672" x2="672" y1="127.8633" y2="812.9746"/><line style="stroke:#181818;stroke-width:0.5;stroke-dasharray:5.0,5.0;" x1="821" x2="821" y1="127.8633" y2="812.9746"/><line style="stroke:#181818;stroke-width:0.5;stroke-dasharray:5.0,5.0;" x1="992" x2="992" y1="127.8633" y2="812.9746"/><line style="stroke:#181818;stroke-width:0.5;stroke-dasharray:5.0,5.0;" x1="1171" x2="1171" y1="127.8633" y2="812.9746"/><line style="stroke:#181818;stroke-width:0.5;stroke-dasharray:5.0,5.0;" x1="1305" x2="1305" y1="127.8633" y2="812.9746"/><text fill="#000000" font-family="sans-serif" font-size="14" lengthAdjust="spacing" textLength="39" x="5" y="124.3496">Admin</text><ellipse cx="27.5" cy="57.7422" fill="#E2E2F0" rx="8" ry="8" style="stroke:#181818;stroke-width:0.5;"/><path d="M27.5,65.7422 L27.5,92.7422 M14.5,73.7422 L40.5,73.7422 M27.5,92.7422 L14.5,107.7422 M27.5,92.7422 L40.5,107.7422 " fill="none" style="stroke:#181818;stroke-width:0.5;"/><text fill="#000000" font-family="sans-serif" font-size="14" lengthAdjust="spacing" textLength="39" x="5" y="827.082">Admin</text><ellipse cx="27.5" cy="839.0957" fill="#E2E2F0" rx="8" ry="8" style="stroke:#181818;stroke-width:0.5;"/><path d="M27.5,847.0957 L27.5,874.0957 M14.5,855.0957 L40.5,855.0957 M27.5,874.0957 L14.5,889.0957 M27.5,874.0957 L40.5,889.0957 " fill="none" style="stroke:#181818;stroke-width:0.5;"/><rect fill="#E2E2F0" height="51.2422" rx="2.5" ry="2.5" style="stroke:#181818;stroke-width:0.5;" width="187" x="120" y="75.6211"/><text fill="#000000" font-family="sans-serif" font-size="14" font-style="italic" lengthAdjust="spacing" textLength="95" x="166" y="97.7285">&#171;presentation&#187;</text><text fill="#000000" font-family="sans-serif" font-size="14" lengthAdjust="spacing" textLength="173" x="127" y="116.3496">ListActiveBackofficeUsersUI</text><rect fill="#E2E2F0" height="51.2422" rx="2.5" ry="2.5" style="stroke:#181818;stroke-width:0.5;" width="187" x="120" y="811.9746"/><text fill="#000000" font-family="sans-serif" font-size="14" font-style="italic" lengthAdjust="spacing" textLength="95" x="166" y="834.082">&#171;presentation&#187;</text><text fill="#000000" font-family="sans-serif" font-size="14" lengthAdjust="spacing" textLength="173" x="127" y="852.7031">ListActiveBackofficeUsersUI</text><rect fill="#E2E2F0" height="51.2422" rx="2.5" ry="2.5" style="stroke:#181818;stroke-width:0.5;" width="134" x="317" y="75.6211"/><text fill="#000000" font-family="sans-serif" font-size="14" font-style="italic" lengthAdjust="spacing" textLength="84" x="342" y="97.7285">&#171;application&#187;</text><text fill="#000000" font-family="sans-serif" font-size="14" lengthAdjust="spacing" textLength="120" x="324" y="116.3496">ListUsersController</text><rect fill="#E2E2F0" height="51.2422" rx="2.5" ry="2.5" style="stroke:#181818;stroke-width:0.5;" width="134" x="317" y="811.9746"/><text fill="#000000" font-family="sans-serif" font-size="14" font-style="italic" lengthAdjust="spacing" textLength="84" x="342" y="834.082">&#171;application&#187;</text><text fill="#000000" font-family="sans-serif" font-size="14" lengthAdjust="spacing" textLength="120" x="324" y="852.7031">ListUsersController</text><rect fill="#E2E2F0" height="51.2422" rx="2.5" ry="2.5" style="stroke:#181818;stroke-width:0.5;" width="136" x="461" y="75.6211"/><text fill="#000000" font-family="sans-serif" font-size="14" font-style="italic" lengthAdjust="spacing" textLength="89" x="484.5" y="97.7285">&#171;persistence&#187;</text><text fill="#000000" font-family="sans-serif" font-size="14" lengthAdjust="spacing" textLength="122" x="468" y="116.3496">PersistenceContext</text><rect fill="#E2E2F0" height="51.2422" rx="2.5" ry="2.5" style="stroke:#181818;stroke-width:0.5;" width="136" x="461" y="811.9746"/><text fill="#000000" font-family="sans-serif" font-size="14" font-style="italic" lengthAdjust="spacing" textLength="89" x="484.5" y="834.082">&#171;persistence&#187;</text><text fill="#000000" font-family="sans-serif" font-size="14" lengthAdjust="spacing" textLength="122" x="468" y="852.7031">PersistenceContext</text><rect fill="#E2E2F0" height="51.2422" rx="2.5" ry="2.5" style="stroke:#181818;stroke-width:0.5;" width="130" x="607" y="75.6211"/><text fill="#000000" font-family="sans-serif" font-size="14" font-style="italic" lengthAdjust="spacing" textLength="59" x="642.5" y="97.7285">&#171;factory&#187;</text><text fill="#000000" font-family="sans-serif" font-size="14" lengthAdjust="spacing" textLength="116" x="614" y="116.3496">RepositoryFactory</text><rect fill="#E2E2F0" height="51.2422" rx="2.5" ry="2.5" style="stroke:#181818;stroke-width:0.5;" width="130" x="607" y="811.9746"/><text fill="#000000" font-family="sans-serif" font-size="14" font-style="italic" lengthAdjust="spacing" textLength="59" x="642.5" y="834.082">&#171;factory&#187;</text><text fill="#000000" font-family="sans-serif" font-size="14" lengthAdjust="spacing" textLength="116" x="614" y="852.7031">RepositoryFactory</text><text fill="#000000" font-family="sans-serif" font-size="14" font-style="italic" lengthAdjust="spacing" textLength="79" x="779" y="105.7285">&#171;repository&#187;</text><text fill="#000000" font-family="sans-serif" font-size="14" lengthAdjust="spacing" textLength="143" x="747" y="124.3496">SystemUserRepository</text><path d="M803.5,54.6211 C803.5,44.6211 821.5,44.6211 821.5,44.6211 C821.5,44.6211 839.5,44.6211 839.5,54.6211 L839.5,80.6211 C839.5,90.6211 821.5,90.6211 821.5,90.6211 C821.5,90.6211 803.5,90.6211 803.5,80.6211 L803.5,54.6211 " fill="#E2E2F0" style="stroke:#181818;stroke-width:1.5;"/><path d="M803.5,54.6211 C803.5,64.6211 821.5,64.6211 821.5,64.6211 C821.5,64.6211 839.5,64.6211 839.5,54.6211 " fill="none" style="stroke:#181818;stroke-width:1.5;"/><text fill="#000000" font-family="sans-serif" font-size="14" font-style="italic" lengthAdjust="spacing" textLength="79" x="779" y="827.082">&#171;repository&#187;</text><text fill="#000000" font-family="sans-serif" font-size="14" lengthAdjust="spacing" textLength="143" x="747" y="845.7031">SystemUserRepository</text><path d="M803.5,859.2168 C803.5,849.2168 821.5,849.2168 821.5,849.2168 C821.5,849.2168 839.5,849.2168 839.5,859.2168 L839.5,885.2168 C839.5,895.2168 821.5,895.2168 821.5,895.2168 C821.5,895.2168 803.5,895.2168 803.5,885.2168 L803.5,859.2168 " fill="#E2E2F0" style="stroke:#181818;stroke-width:1.5;"/><path d="M803.5,859.2168 C803.5,869.2168 821.5,869.2168 821.5,869.2168 C821.5,869.2168 839.5,869.2168 839.5,859.2168 " fill="none" style="stroke:#181818;stroke-width:1.5;"/><rect fill="#E2E2F0" height="51.2422" rx="2.5" ry="2.5" style="stroke:#181818;stroke-width:0.5;" width="172" x="906" y="75.6211"/><text fill="#000000" font-family="sans-serif" font-size="14" font-style="italic" lengthAdjust="spacing" textLength="60" x="962" y="97.7285">&#171;service&#187;</text><text fill="#000000" font-family="sans-serif" font-size="14" lengthAdjust="spacing" textLength="158" x="913" y="116.3496">UserManagementService</text><rect fill="#E2E2F0" height="51.2422" rx="2.5" ry="2.5" style="stroke:#181818;stroke-width:0.5;" width="172" x="906" y="811.9746"/><text fill="#000000" font-family="sans-serif" font-size="14" font-style="italic" lengthAdjust="spacing" textLength="60" x="962" y="834.082">&#171;service&#187;</text><text fill="#000000" font-family="sans-serif" font-size="14" lengthAdjust="spacing" textLength="158" x="913" y="852.7031">UserManagementService</text><rect fill="#E2E2F0" height="51.2422" rx="2.5" ry="2.5" style="stroke:#181818;stroke-width:0.5;" width="166" x="1088" y="75.6211"/><text fill="#000000" font-family="sans-serif" font-size="14" font-style="italic" lengthAdjust="spacing" textLength="62" x="1140" y="97.7285">&#171;domain&#187;</text><text fill="#000000" font-family="sans-serif" font-size="14" lengthAdjust="spacing" textLength="152" x="1095" y="116.3496">systemUser:SystemUser</text><rect fill="#E2E2F0" height="51.2422" rx="2.5" ry="2.5" style="stroke:#181818;stroke-width:0.5;" width="166" x="1088" y="811.9746"/><text fill="#000000" font-family="sans-serif" font-size="14" font-style="italic" lengthAdjust="spacing" textLength="62" x="1140" y="834.082">&#171;domain&#187;</text><text fill="#000000" font-family="sans-serif" font-size="14" lengthAdjust="spacing" textLength="152" x="1095" y="852.7031">systemUser:SystemUser</text><rect fill="#E2E2F0" height="51.2422" rx="2.5" ry="2.5" style="stroke:#181818;stroke-width:0.5;" width="82" x="1264" y="75.6211"/><text fill="#000000" font-family="sans-serif" font-size="14" font-style="italic" lengthAdjust="spacing" textLength="62" x="1274" y="97.7285">&#171;domain&#187;</text><text fill="#000000" font-family="sans-serif" font-size="14" lengthAdjust="spacing" textLength="68" x="1271" y="116.3496">BaseRoles</text><rect fill="#E2E2F0" height="51.2422" rx="2.5" ry="2.5" style="stroke:#181818;stroke-width:0.5;" width="82" x="1264" y="811.9746"/><text fill="#000000" font-family="sans-serif" font-size="14" font-style="italic" lengthAdjust="spacing" textLength="62" x="1274" y="834.082">&#171;domain&#187;</text><text fill="#000000" font-family="sans-serif" font-size="14" lengthAdjust="spacing" textLength="68" x="1271" y="852.7031">BaseRoles</text><rect fill="#FFFFFF" height="633.8203" style="stroke:#181818;stroke-width:1.0;" width="10" x="208.5" y="161.1543"/><rect fill="#FFFFFF" height="571.2383" style="stroke:#181818;stroke-width:1.0;" width="10" x="379" y="192.4453"/><rect fill="#FFFFFF" height="99.873" style="stroke:#181818;stroke-width:1.0;" width="10" x="524" y="223.7363"/><rect fill="#FFFFFF" height="62.582" style="stroke:#181818;stroke-width:1.0;" width="10" x="667" y="354.9004"/><rect fill="#FFFFFF" height="31.291" style="stroke:#181818;stroke-width:1.0;" width="10" x="816.5" y="480.0645"/><rect fill="#FFFFFF" height="283.6191" style="stroke:#181818;stroke-width:1.0;" width="10" x="987" y="448.7734"/><rect fill="#FFFFFF" height="31.291" style="stroke:#181818;stroke-width:1.0;" width="10" x="1166" y="631.5195"/><polygon fill="#181818" points="196.5,157.1543,206.5,161.1543,196.5,165.1543,200.5,161.1543" style="stroke:#181818;stroke-width:1.0;"/><line style="stroke:#181818;stroke-width:1.0;stroke-dasharray:2.0,2.0;" x1="27.5" x2="202.5" y1="161.1543" y2="161.1543"/><text fill="#000000" font-family="sans-serif" font-size="13" lengthAdjust="spacing" textLength="162" x="34.5" y="155.8916">List Active Backoffice Users</text><polygon fill="#181818" points="367,188.4453,377,192.4453,367,196.4453,371,192.4453" style="stroke:#181818;stroke-width:1.0;"/><line style="stroke:#181818;stroke-width:1.0;" x1="218.5" x2="373" y1="192.4453" y2="192.4453"/><text fill="#000000" font-family="sans-serif" font-size="13" lengthAdjust="spacing" textLength="135" x="225.5" y="187.1826">activeBackofficeUsers()</text><polygon fill="#181818" points="512,219.7363,522,223.7363,512,227.7363,516,223.7363" style="stroke:#181818;stroke-width:1.0;"/><line style="stroke:#181818;stroke-width:1.0;" x1="389" x2="518" y1="223.7363" y2="223.7363"/><text fill="#000000" font-family="sans-serif" font-size="13" lengthAdjust="spacing" textLength="75" x="396" y="218.4736">repositories()</text><path d="M539,236.7363 L539,263.7363 L645,263.7363 L645,246.7363 L635,236.7363 L539,236.7363 " fill="#FEFFDD" style="stroke:#181818;stroke-width:0.5;"/><path d="M635,236.7363 L635,246.7363 L645,246.7363 L635,236.7363 " fill="#FEFFDD" style="stroke:#181818;stroke-width:0.5;"/><text fill="#000000" font-family="sans-serif" font-size="13" lengthAdjust="spacing" textLength="85" x="545" y="255.7646">creates in JPA</text><polygon fill="#181818" points="660,288.3184,670,292.3184,660,296.3184,664,292.3184" style="stroke:#181818;stroke-width:1.0;"/><line style="stroke:#181818;stroke-width:1.0;" x1="534" x2="666" y1="292.3184" y2="292.3184"/><text fill="#000000" font-family="sans-serif" font-size="13" lengthAdjust="spacing" textLength="36" x="541" y="287.0557">create</text><polygon fill="#181818" points="400,319.6094,390,323.6094,400,327.6094,396,323.6094" style="stroke:#181818;stroke-width:1.0;"/><line style="stroke:#181818;stroke-width:1.0;stroke-dasharray:2.0,2.0;" x1="394" x2="528" y1="323.6094" y2="323.6094"/><text fill="#000000" font-family="sans-serif" font-size="13" lengthAdjust="spacing" textLength="39" x="406" y="318.3467">factory</text><polygon fill="#181818" points="655,350.9004,665,354.9004,655,358.9004,659,354.9004" style="stroke:#181818;stroke-width:1.0;"/><line style="stroke:#181818;stroke-width:1.0;" x1="389" x2="661" y1="354.9004" y2="354.9004"/><text fill="#000000" font-family="sans-serif" font-size="13" lengthAdjust="spacing" textLength="40" x="396" y="349.6377">users()</text><polygon fill="#181818" points="809.5,382.1914,819.5,386.1914,809.5,390.1914,813.5,386.1914" style="stroke:#181818;stroke-width:1.0;"/><line style="stroke:#181818;stroke-width:1.0;" x1="677" x2="815.5" y1="386.1914" y2="386.1914"/><text fill="#000000" font-family="sans-serif" font-size="13" lengthAdjust="spacing" textLength="36" x="684" y="380.9287">create</text><polygon fill="#181818" points="400,413.4824,390,417.4824,400,421.4824,396,417.4824" style="stroke:#181818;stroke-width:1.0;"/><line style="stroke:#181818;stroke-width:1.0;stroke-dasharray:2.0,2.0;" x1="394" x2="671" y1="417.4824" y2="417.4824"/><text fill="#000000" font-family="sans-serif" font-size="13" lengthAdjust="spacing" textLength="87" x="406" y="412.2197">userRepository</text><polygon fill="#181818" points="975,444.7734,985,448.7734,975,452.7734,979,448.7734" style="stroke:#181818;stroke-width:1.0;"/><line style="stroke:#181818;stroke-width:1.0;" x1="389" x2="981" y1="448.7734" y2="448.7734"/><text fill="#000000" font-family="sans-serif" font-size="13" lengthAdjust="spacing" textLength="75" x="396" y="443.5107">activeUsers()</text><polygon fill="#181818" points="837.5,476.0645,827.5,480.0645,837.5,484.0645,833.5,480.0645" style="stroke:#181818;stroke-width:1.0;"/><line style="stroke:#181818;stroke-width:1.0;" x1="831.5" x2="986" y1="480.0645" y2="480.0645"/><text fill="#000000" font-family="sans-serif" font-size="13" lengthAdjust="spacing" textLength="75" x="843.5" y="474.8018">activeUsers()</text><polygon fill="#181818" points="975,507.3555,985,511.3555,975,515.3555,979,511.3555" style="stroke:#181818;stroke-width:1.0;"/><line style="stroke:#181818;stroke-width:1.0;stroke-dasharray:2.0,2.0;" x1="821.5" x2="981" y1="511.3555" y2="511.3555"/><text fill="#000000" font-family="sans-serif" font-size="13" lengthAdjust="spacing" textLength="32" x="828.5" y="506.0928">users</text><path d="M896,526.3555 L969,526.3555 L969,535.6465 L959,545.6465 L896,545.6465 L896,526.3555 " fill="#EEEEEE" style="stroke:#000000;stroke-width:1.5;"/><rect fill="none" height="144.4551" style="stroke:#000000;stroke-width:1.5;" width="368" x="896" y="526.3555"/><text fill="#000000" font-family="sans-serif" font-size="13" font-weight="bold" lengthAdjust="spacing" textLength="28" x="911" y="541.3838">loop</text><text fill="#000000" font-family="sans-serif" font-size="11" font-weight="bold" lengthAdjust="spacing" textLength="75" x="984" y="540.2256">[for all users]</text><polygon fill="#181818" points="1159,564.9375,1169,568.9375,1159,572.9375,1163,568.9375" style="stroke:#181818;stroke-width:1.0;"/><line style="stroke:#181818;stroke-width:1.0;" x1="997" x2="1165" y1="568.9375" y2="568.9375"/><text fill="#000000" font-family="sans-serif" font-size="13" lengthAdjust="spacing" textLength="40" x="1004" y="563.6748">name()</text><polygon fill="#181818" points="1159,596.2285,1169,600.2285,1159,604.2285,1163,600.2285" style="stroke:#181818;stroke-width:1.0;"/><line style="stroke:#181818;stroke-width:1.0;" x1="997" x2="1165" y1="600.2285" y2="600.2285"/><text fill="#000000" font-family="sans-serif" font-size="13" lengthAdjust="spacing" textLength="39" x="1004" y="594.9658">email()</text><polygon fill="#181818" points="1154,627.5195,1164,631.5195,1154,635.5195,1158,631.5195" style="stroke:#181818;stroke-width:1.0;"/><line style="stroke:#181818;stroke-width:1.0;" x1="997" x2="1160" y1="631.5195" y2="631.5195"/><text fill="#000000" font-family="sans-serif" font-size="13" lengthAdjust="spacing" textLength="64" x="1004" y="626.2568">roleTypes()</text><polygon fill="#181818" points="1008,658.8105,998,662.8105,1008,666.8105,1004,662.8105" style="stroke:#181818;stroke-width:1.0;"/><line style="stroke:#181818;stroke-width:1.0;stroke-dasharray:2.0,2.0;" x1="1002" x2="1170" y1="662.8105" y2="662.8105"/><text fill="#000000" font-family="sans-serif" font-size="13" lengthAdjust="spacing" textLength="76" x="1014" y="657.5479">user's details</text><polygon fill="#181818" points="1008,697.1016,998,701.1016,1008,705.1016,1004,701.1016" style="stroke:#181818;stroke-width:1.0;"/><line style="stroke:#181818;stroke-width:1.0;stroke-dasharray:2.0,2.0;" x1="1002" x2="1170" y1="701.1016" y2="701.1016"/><text fill="#000000" font-family="sans-serif" font-size="13" lengthAdjust="spacing" textLength="76" x="1014" y="695.8389">user's details</text><polygon fill="#181818" points="400,728.3926,390,732.3926,400,736.3926,396,732.3926" style="stroke:#181818;stroke-width:1.0;"/><line style="stroke:#181818;stroke-width:1.0;stroke-dasharray:2.0,2.0;" x1="394" x2="991" y1="732.3926" y2="732.3926"/><text fill="#000000" font-family="sans-serif" font-size="13" lengthAdjust="spacing" textLength="163" x="406" y="727.1299">users with respective details</text><polygon fill="#181818" points="229.5,759.6836,219.5,763.6836,229.5,767.6836,225.5,763.6836" style="stroke:#181818;stroke-width:1.0;"/><line style="stroke:#181818;stroke-width:1.0;stroke-dasharray:2.0,2.0;" x1="223.5" x2="383" y1="763.6836" y2="763.6836"/><text fill="#000000" font-family="sans-serif" font-size="13" lengthAdjust="spacing" textLength="32" x="235.5" y="758.4209">users</text><polygon fill="#181818" points="38.5,790.9746,28.5,794.9746,38.5,798.9746,34.5,794.9746" style="stroke:#181818;stroke-width:1.0;"/><line style="stroke:#181818;stroke-width:1.0;stroke-dasharray:2.0,2.0;" x1="32.5" x2="212.5" y1="794.9746" y2="794.9746"/><text fill="#000000" font-family="sans-serif" font-size="13" lengthAdjust="spacing" textLength="77" x="44.5" y="789.7119">display users</text><!--SRC=[bLJBRjim4BphAuXScXmC-D2JG1XmOWHmqG91N7y08wqS8XJ9ahHJzUkxf5uK9G4j3pOfpkpEFhZsWqlD3Ak9PiK7ky39DGA8WS8nUH6GsG5WtrcfFhcya8e96zy8Bi4r6eXMel67BBei1BDsxvpXRrS7nqB94_y3P9jbZZjqTO9VLv05a0Dd5q-uFnqUo8QSdxRRhrd62gSCsPSrbuHPilV732qxNd3Df2FVkNNubT_W4IDGLSKBE5imzdpq1FobL1km81rpNCdTRaOFy2SbdL52WF6qw4GfqrhmOedzWaGquFLx1lnsdXnzzSx7Ky9-1Qqinu2Qvn1cuydzbjAgtI6fP8wzCOl9Qj1GxVMEN4-AJfIQuP3uyxmVJ6ALQyp62SmDS-Nf_PPIs-uIufqT_EQZX3jFFQYQOMaeBSCc8JwYw5Sbm0QHOHCXir1Dijdii4nvA0LfIqd6MWRLrlS1lp67nsD6S65TaJQMAITigGdk7m9wO8-4B5pu5TKQJKR5oycGIWwzgOcv23nS-YKLNXf-UNT4LLEJXG5aMe99-_Qodx3Yla4bNIVqb7LeaeYkRmPy2OjwL-8Vl5wZ_4s2Vaxi-zLtBHeOUt5H-O1CL5ydJRqallUx8hnhuhuHpcloErmsKTM_W4J_igc9kKZp1E1Nz2mtiSAGsWaw2dFDe51AamhV2nDYmK8IHVikSo9P3Odq5IJWd_WtA2OTVkB0jmlm8OuM7Evd8B-woJ5Bp1UBsN2ePHvVbAN8Uhz0bY59yphyfwkvc-LUMUXWIpwvUyUvOJMqaonr41cVTMBSqDrG70iT4TCfveSXuiCupKd9hHQiwQWH3KVdNm00]--></g></svg>