<?xml version="1.0" encoding="us-ascii" standalone="no"?><svg xmlns="http://www.w3.org/2000/svg" xmlns:xlink="http://www.w3.org/1999/xlink" contentStyleType="text/css" height="654px" preserveAspectRatio="none" style="width:831px;height:654px;background:#FFFFFF;" version="1.1" viewBox="0 0 831 654" width="831px" zoomAndPan="magnify"><defs/><g><text fill="#000000" font-family="sans-serif" font-size="14" font-weight="bold" lengthAdjust="spacing" textLength="190" x="313.75" y="25.1074">Class Diagram (CD) - UC004</text><!--class ListActiveBackofficeUsersUI--><g id="elem_ListActiveBackofficeUsersUI"><rect codeLine="8" fill="#F1F1F1" height="60.582" id="ListActiveBackofficeUsersUI" rx="2.5" ry="2.5" style="stroke:#181818;stroke-width:0.5;" width="205" x="299" y="46.6211"/><ellipse cx="314" cy="68.9121" fill="#ADD1B2" rx="11" ry="11" style="stroke:#181818;stroke-width:1.0;"/><path d="M316.7656,64.7871 Q316.9219,64.5684 317.1094,64.459 Q317.2969,64.3496 317.5156,64.3496 Q317.8906,64.3496 318.125,64.6152 Q318.3594,64.8652 318.3594,65.4746 L318.3594,66.9277 Q318.3594,67.5371 318.125,67.8027 Q317.8906,68.0684 317.5156,68.0684 Q317.1719,68.0684 316.9688,67.8652 Q316.7656,67.6777 316.6563,67.1621 Q316.6094,66.8027 316.4219,66.6152 Q316.0938,66.2402 315.4844,66.0215 Q314.875,65.8027 314.25,65.8027 Q313.4844,65.8027 312.8438,66.1309 Q312.2188,66.459 311.7188,67.209 Q311.2344,67.959 311.2344,68.9902 L311.2344,70.084 Q311.2344,71.3184 312.125,72.1465 Q313.0156,72.959 314.6094,72.959 Q315.5469,72.959 316.2031,72.709 Q316.5938,72.5527 317.0156,72.1152 Q317.2813,71.8496 317.4219,71.7715 Q317.5781,71.6934 317.7813,71.6934 Q318.1094,71.6934 318.3594,71.959 Q318.625,72.209 318.625,72.5527 Q318.625,72.8965 318.2813,73.3027 Q317.7813,73.8809 316.9844,74.209 Q315.9063,74.6621 314.6094,74.6621 Q313.0938,74.6621 311.8906,74.0371 Q310.9063,73.5371 310.2188,72.4746 Q309.5313,71.3965 309.5313,70.1152 L309.5313,68.959 Q309.5313,67.6309 310.1406,66.4902 Q310.7656,65.334 311.8594,64.7246 Q312.9531,64.0996 314.1875,64.0996 Q314.9219,64.0996 315.5625,64.2715 Q316.2188,64.4277 316.7656,64.7871 Z " fill="#000000"/><text fill="#000000" font-family="sans-serif" font-size="12" font-style="italic" lengthAdjust="spacing" textLength="61" x="384" y="64.5703">&#171;interface&#187;</text><text fill="#000000" font-family="sans-serif" font-size="14" lengthAdjust="spacing" textLength="173" x="328" y="82.6895">ListActiveBackofficeUsersUI</text><line style="stroke:#181818;stroke-width:0.5;" x1="300" x2="503" y1="91.2031" y2="91.2031"/><line style="stroke:#181818;stroke-width:0.5;" x1="300" x2="503" y1="99.2031" y2="99.2031"/></g><!--class ListUsersController--><g id="elem_ListUsersController"><rect codeLine="10" fill="#F1F1F1" height="60.582" id="ListUsersController" rx="2.5" ry="2.5" style="stroke:#181818;stroke-width:0.5;" width="152" x="325.5" y="168.6211"/><ellipse cx="340.5" cy="190.9121" fill="#ADD1B2" rx="11" ry="11" style="stroke:#181818;stroke-width:1.0;"/><path d="M343.2656,186.7871 Q343.4219,186.5684 343.6094,186.459 Q343.7969,186.3496 344.0156,186.3496 Q344.3906,186.3496 344.625,186.6152 Q344.8594,186.8652 344.8594,187.4746 L344.8594,188.9277 Q344.8594,189.5371 344.625,189.8027 Q344.3906,190.0684 344.0156,190.0684 Q343.6719,190.0684 343.4688,189.8652 Q343.2656,189.6777 343.1563,189.1621 Q343.1094,188.8027 342.9219,188.6152 Q342.5938,188.2402 341.9844,188.0215 Q341.375,187.8027 340.75,187.8027 Q339.9844,187.8027 339.3438,188.1309 Q338.7188,188.459 338.2188,189.209 Q337.7344,189.959 337.7344,190.9902 L337.7344,192.084 Q337.7344,193.3184 338.625,194.1465 Q339.5156,194.959 341.1094,194.959 Q342.0469,194.959 342.7031,194.709 Q343.0938,194.5527 343.5156,194.1152 Q343.7813,193.8496 343.9219,193.7715 Q344.0781,193.6934 344.2813,193.6934 Q344.6094,193.6934 344.8594,193.959 Q345.125,194.209 345.125,194.5527 Q345.125,194.8965 344.7813,195.3027 Q344.2813,195.8809 343.4844,196.209 Q342.4063,196.6621 341.1094,196.6621 Q339.5938,196.6621 338.3906,196.0371 Q337.4063,195.5371 336.7188,194.4746 Q336.0313,193.3965 336.0313,192.1152 L336.0313,190.959 Q336.0313,189.6309 336.6406,188.4902 Q337.2656,187.334 338.3594,186.7246 Q339.4531,186.0996 340.6875,186.0996 Q341.4219,186.0996 342.0625,186.2715 Q342.7188,186.4277 343.2656,186.7871 Z " fill="#000000"/><text fill="#000000" font-family="sans-serif" font-size="12" font-style="italic" lengthAdjust="spacing" textLength="65" x="382" y="186.5703">&#171;controller&#187;</text><text fill="#000000" font-family="sans-serif" font-size="14" lengthAdjust="spacing" textLength="120" x="354.5" y="204.6895">ListUsersController</text><line style="stroke:#181818;stroke-width:0.5;" x1="326.5" x2="476.5" y1="213.2031" y2="213.2031"/><line style="stroke:#181818;stroke-width:0.5;" x1="326.5" x2="476.5" y1="221.2031" y2="221.2031"/></g><!--class UserManagementService--><g id="elem_UserManagementService"><rect codeLine="12" fill="#F1F1F1" height="60.582" id="UserManagementService" rx="2.5" ry="2.5" style="stroke:#181818;stroke-width:0.5;" width="190" x="265.5" y="308.6211"/><ellipse cx="280.5" cy="330.9121" fill="#ADD1B2" rx="11" ry="11" style="stroke:#181818;stroke-width:1.0;"/><path d="M283.2656,326.7871 Q283.4219,326.5684 283.6094,326.459 Q283.7969,326.3496 284.0156,326.3496 Q284.3906,326.3496 284.625,326.6152 Q284.8594,326.8652 284.8594,327.4746 L284.8594,328.9277 Q284.8594,329.5371 284.625,329.8027 Q284.3906,330.0684 284.0156,330.0684 Q283.6719,330.0684 283.4688,329.8652 Q283.2656,329.6777 283.1563,329.1621 Q283.1094,328.8027 282.9219,328.6152 Q282.5938,328.2402 281.9844,328.0215 Q281.375,327.8027 280.75,327.8027 Q279.9844,327.8027 279.3438,328.1309 Q278.7188,328.459 278.2188,329.209 Q277.7344,329.959 277.7344,330.9902 L277.7344,332.084 Q277.7344,333.3184 278.625,334.1465 Q279.5156,334.959 281.1094,334.959 Q282.0469,334.959 282.7031,334.709 Q283.0938,334.5527 283.5156,334.1152 Q283.7813,333.8496 283.9219,333.7715 Q284.0781,333.6934 284.2813,333.6934 Q284.6094,333.6934 284.8594,333.959 Q285.125,334.209 285.125,334.5527 Q285.125,334.8965 284.7813,335.3027 Q284.2813,335.8809 283.4844,336.209 Q282.4063,336.6621 281.1094,336.6621 Q279.5938,336.6621 278.3906,336.0371 Q277.4063,335.5371 276.7188,334.4746 Q276.0313,333.3965 276.0313,332.1152 L276.0313,330.959 Q276.0313,329.6309 276.6406,328.4902 Q277.2656,327.334 278.3594,326.7246 Q279.4531,326.0996 280.6875,326.0996 Q281.4219,326.0996 282.0625,326.2715 Q282.7188,326.4277 283.2656,326.7871 Z " fill="#000000"/><text fill="#000000" font-family="sans-serif" font-size="12" font-style="italic" lengthAdjust="spacing" textLength="53" x="347" y="326.5703">&#171;service&#187;</text><text fill="#000000" font-family="sans-serif" font-size="14" lengthAdjust="spacing" textLength="158" x="294.5" y="344.6895">UserManagementService</text><line style="stroke:#181818;stroke-width:0.5;" x1="266.5" x2="454.5" y1="353.2031" y2="353.2031"/><line style="stroke:#181818;stroke-width:0.5;" x1="266.5" x2="454.5" y1="361.2031" y2="361.2031"/></g><!--class SystemUserRepository--><g id="elem_SystemUserRepository"><rect codeLine="14" fill="#F1F1F1" height="60.582" id="SystemUserRepository" rx="2.5" ry="2.5" style="stroke:#181818;stroke-width:0.5;" width="175" x="491" y="308.6211"/><ellipse cx="506" cy="330.9121" fill="#ADD1B2" rx="11" ry="11" style="stroke:#181818;stroke-width:1.0;"/><path d="M508.7656,326.7871 Q508.9219,326.5684 509.1094,326.459 Q509.2969,326.3496 509.5156,326.3496 Q509.8906,326.3496 510.125,326.6152 Q510.3594,326.8652 510.3594,327.4746 L510.3594,328.9277 Q510.3594,329.5371 510.125,329.8027 Q509.8906,330.0684 509.5156,330.0684 Q509.1719,330.0684 508.9688,329.8652 Q508.7656,329.6777 508.6563,329.1621 Q508.6094,328.8027 508.4219,328.6152 Q508.0938,328.2402 507.4844,328.0215 Q506.875,327.8027 506.25,327.8027 Q505.4844,327.8027 504.8438,328.1309 Q504.2188,328.459 503.7188,329.209 Q503.2344,329.959 503.2344,330.9902 L503.2344,332.084 Q503.2344,333.3184 504.125,334.1465 Q505.0156,334.959 506.6094,334.959 Q507.5469,334.959 508.2031,334.709 Q508.5938,334.5527 509.0156,334.1152 Q509.2813,333.8496 509.4219,333.7715 Q509.5781,333.6934 509.7813,333.6934 Q510.1094,333.6934 510.3594,333.959 Q510.625,334.209 510.625,334.5527 Q510.625,334.8965 510.2813,335.3027 Q509.7813,335.8809 508.9844,336.209 Q507.9063,336.6621 506.6094,336.6621 Q505.0938,336.6621 503.8906,336.0371 Q502.9063,335.5371 502.2188,334.4746 Q501.5313,333.3965 501.5313,332.1152 L501.5313,330.959 Q501.5313,329.6309 502.1406,328.4902 Q502.7656,327.334 503.8594,326.7246 Q504.9531,326.0996 506.1875,326.0996 Q506.9219,326.0996 507.5625,326.2715 Q508.2188,326.4277 508.7656,326.7871 Z " fill="#000000"/><text fill="#000000" font-family="sans-serif" font-size="12" font-style="italic" lengthAdjust="spacing" textLength="68" x="557.5" y="326.5703">&#171;repository&#187;</text><text fill="#000000" font-family="sans-serif" font-size="14" lengthAdjust="spacing" textLength="143" x="520" y="344.6895">SystemUserRepository</text><line style="stroke:#181818;stroke-width:0.5;" x1="492" x2="665" y1="353.2031" y2="353.2031"/><line style="stroke:#181818;stroke-width:0.5;" x1="492" x2="665" y1="361.2031" y2="361.2031"/></g><!--class RepositoryFactory--><g id="elem_RepositoryFactory"><rect codeLine="16" fill="#F1F1F1" height="60.582" id="RepositoryFactory" rx="2.5" ry="2.5" style="stroke:#181818;stroke-width:0.5;" width="148" x="676.5" y="456.6211"/><ellipse cx="691.5" cy="478.9121" fill="#ADD1B2" rx="11" ry="11" style="stroke:#181818;stroke-width:1.0;"/><path d="M694.2656,474.7871 Q694.4219,474.5684 694.6094,474.459 Q694.7969,474.3496 695.0156,474.3496 Q695.3906,474.3496 695.625,474.6152 Q695.8594,474.8652 695.8594,475.4746 L695.8594,476.9277 Q695.8594,477.5371 695.625,477.8027 Q695.3906,478.0684 695.0156,478.0684 Q694.6719,478.0684 694.4688,477.8652 Q694.2656,477.6777 694.1563,477.1621 Q694.1094,476.8027 693.9219,476.6152 Q693.5938,476.2402 692.9844,476.0215 Q692.375,475.8027 691.75,475.8027 Q690.9844,475.8027 690.3438,476.1309 Q689.7188,476.459 689.2188,477.209 Q688.7344,477.959 688.7344,478.9902 L688.7344,480.084 Q688.7344,481.3184 689.625,482.1465 Q690.5156,482.959 692.1094,482.959 Q693.0469,482.959 693.7031,482.709 Q694.0938,482.5527 694.5156,482.1152 Q694.7813,481.8496 694.9219,481.7715 Q695.0781,481.6934 695.2813,481.6934 Q695.6094,481.6934 695.8594,481.959 Q696.125,482.209 696.125,482.5527 Q696.125,482.8965 695.7813,483.3027 Q695.2813,483.8809 694.4844,484.209 Q693.4063,484.6621 692.1094,484.6621 Q690.5938,484.6621 689.3906,484.0371 Q688.4063,483.5371 687.7188,482.4746 Q687.0313,481.3965 687.0313,480.1152 L687.0313,478.959 Q687.0313,477.6309 687.6406,476.4902 Q688.2656,475.334 689.3594,474.7246 Q690.4531,474.0996 691.6875,474.0996 Q692.4219,474.0996 693.0625,474.2715 Q693.7188,474.4277 694.2656,474.7871 Z " fill="#000000"/><text fill="#000000" font-family="sans-serif" font-size="12" font-style="italic" lengthAdjust="spacing" textLength="50" x="738.5" y="474.5703">&#171;factory&#187;</text><text fill="#000000" font-family="sans-serif" font-size="14" lengthAdjust="spacing" textLength="116" x="705.5" y="492.6895">RepositoryFactory</text><line style="stroke:#181818;stroke-width:0.5;" x1="677.5" x2="823.5" y1="501.2031" y2="501.2031"/><line style="stroke:#181818;stroke-width:0.5;" x1="677.5" x2="823.5" y1="509.2031" y2="509.2031"/></g><!--class EmailAddress--><g id="elem_EmailAddress"><rect codeLine="18" fill="#F1F1F1" height="76.543" id="EmailAddress" rx="2.5" ry="2.5" style="stroke:#181818;stroke-width:0.5;" width="118" x="309.5" y="448.6211"/><ellipse cx="324.5" cy="478.8926" fill="#ADD1B2" rx="11" ry="11" style="stroke:#181818;stroke-width:1.0;"/><path d="M327.2656,474.7676 Q327.4219,474.5488 327.6094,474.4395 Q327.7969,474.3301 328.0156,474.3301 Q328.3906,474.3301 328.625,474.5957 Q328.8594,474.8457 328.8594,475.4551 L328.8594,476.9082 Q328.8594,477.5176 328.625,477.7832 Q328.3906,478.0488 328.0156,478.0488 Q327.6719,478.0488 327.4688,477.8457 Q327.2656,477.6582 327.1563,477.1426 Q327.1094,476.7832 326.9219,476.5957 Q326.5938,476.2207 325.9844,476.002 Q325.375,475.7832 324.75,475.7832 Q323.9844,475.7832 323.3438,476.1113 Q322.7188,476.4395 322.2188,477.1895 Q321.7344,477.9395 321.7344,478.9707 L321.7344,480.0645 Q321.7344,481.2988 322.625,482.127 Q323.5156,482.9395 325.1094,482.9395 Q326.0469,482.9395 326.7031,482.6895 Q327.0938,482.5332 327.5156,482.0957 Q327.7813,481.8301 327.9219,481.752 Q328.0781,481.6738 328.2813,481.6738 Q328.6094,481.6738 328.8594,481.9395 Q329.125,482.1895 329.125,482.5332 Q329.125,482.877 328.7813,483.2832 Q328.2813,483.8613 327.4844,484.1895 Q326.4063,484.6426 325.1094,484.6426 Q323.5938,484.6426 322.3906,484.0176 Q321.4063,483.5176 320.7188,482.4551 Q320.0313,481.377 320.0313,480.0957 L320.0313,478.9395 Q320.0313,477.6113 320.6406,476.4707 Q321.2656,475.3145 322.3594,474.7051 Q323.4531,474.0801 324.6875,474.0801 Q325.4219,474.0801 326.0625,474.252 Q326.7188,474.4082 327.2656,474.7676 Z " fill="#000000"/><text fill="#000000" font-family="sans-serif" font-size="12" font-style="italic" lengthAdjust="spacing" textLength="44" x="359.5" y="466.5703">&#171;value&#187;</text><text fill="#000000" font-family="sans-serif" font-size="12" font-style="italic" lengthAdjust="spacing" textLength="24" x="369.5" y="482.5313">&#171;id&#187;</text><text fill="#000000" font-family="sans-serif" font-size="14" lengthAdjust="spacing" textLength="86" x="338.5" y="500.6504">EmailAddress</text><line style="stroke:#181818;stroke-width:0.5;" x1="310.5" x2="426.5" y1="509.1641" y2="509.1641"/><line style="stroke:#181818;stroke-width:0.5;" x1="310.5" x2="426.5" y1="517.1641" y2="517.1641"/></g><!--class SystemUser--><g id="elem_SystemUser"><rect codeLine="20" fill="#F1F1F1" height="60.582" id="SystemUser" rx="2.5" ry="2.5" style="stroke:#181818;stroke-width:0.5;" width="107" x="167" y="456.6211"/><ellipse cx="182" cy="478.9121" fill="#ADD1B2" rx="11" ry="11" style="stroke:#181818;stroke-width:1.0;"/><path d="M184.7656,474.7871 Q184.9219,474.5684 185.1094,474.459 Q185.2969,474.3496 185.5156,474.3496 Q185.8906,474.3496 186.125,474.6152 Q186.3594,474.8652 186.3594,475.4746 L186.3594,476.9277 Q186.3594,477.5371 186.125,477.8027 Q185.8906,478.0684 185.5156,478.0684 Q185.1719,478.0684 184.9688,477.8652 Q184.7656,477.6777 184.6563,477.1621 Q184.6094,476.8027 184.4219,476.6152 Q184.0938,476.2402 183.4844,476.0215 Q182.875,475.8027 182.25,475.8027 Q181.4844,475.8027 180.8438,476.1309 Q180.2188,476.459 179.7188,477.209 Q179.2344,477.959 179.2344,478.9902 L179.2344,480.084 Q179.2344,481.3184 180.125,482.1465 Q181.0156,482.959 182.6094,482.959 Q183.5469,482.959 184.2031,482.709 Q184.5938,482.5527 185.0156,482.1152 Q185.2813,481.8496 185.4219,481.7715 Q185.5781,481.6934 185.7813,481.6934 Q186.1094,481.6934 186.3594,481.959 Q186.625,482.209 186.625,482.5527 Q186.625,482.8965 186.2813,483.3027 Q185.7813,483.8809 184.9844,484.209 Q183.9063,484.6621 182.6094,484.6621 Q181.0938,484.6621 179.8906,484.0371 Q178.9063,483.5371 178.2188,482.4746 Q177.5313,481.3965 177.5313,480.1152 L177.5313,478.959 Q177.5313,477.6309 178.1406,476.4902 Q178.7656,475.334 179.8594,474.7246 Q180.9531,474.0996 182.1875,474.0996 Q182.9219,474.0996 183.5625,474.2715 Q184.2188,474.4277 184.7656,474.7871 Z " fill="#000000"/><text fill="#000000" font-family="sans-serif" font-size="12" font-style="italic" lengthAdjust="spacing" textLength="35" x="216" y="474.5703">&#171;root&#187;</text><text fill="#000000" font-family="sans-serif" font-size="14" lengthAdjust="spacing" textLength="75" x="196" y="492.6895">SystemUser</text><line style="stroke:#181818;stroke-width:0.5;" x1="168" x2="273" y1="501.2031" y2="501.2031"/><line style="stroke:#181818;stroke-width:0.5;" x1="168" x2="273" y1="509.2031" y2="509.2031"/></g><!--class Name--><g id="elem_Name"><rect codeLine="22" fill="#F1F1F1" height="60.582" id="Name" rx="2.5" ry="2.5" style="stroke:#181818;stroke-width:0.5;" width="72" x="462.5" y="456.6211"/><ellipse cx="477.5" cy="478.9121" fill="#ADD1B2" rx="11" ry="11" style="stroke:#181818;stroke-width:1.0;"/><path d="M480.2656,474.7871 Q480.4219,474.5684 480.6094,474.459 Q480.7969,474.3496 481.0156,474.3496 Q481.3906,474.3496 481.625,474.6152 Q481.8594,474.8652 481.8594,475.4746 L481.8594,476.9277 Q481.8594,477.5371 481.625,477.8027 Q481.3906,478.0684 481.0156,478.0684 Q480.6719,478.0684 480.4688,477.8652 Q480.2656,477.6777 480.1563,477.1621 Q480.1094,476.8027 479.9219,476.6152 Q479.5938,476.2402 478.9844,476.0215 Q478.375,475.8027 477.75,475.8027 Q476.9844,475.8027 476.3438,476.1309 Q475.7188,476.459 475.2188,477.209 Q474.7344,477.959 474.7344,478.9902 L474.7344,480.084 Q474.7344,481.3184 475.625,482.1465 Q476.5156,482.959 478.1094,482.959 Q479.0469,482.959 479.7031,482.709 Q480.0938,482.5527 480.5156,482.1152 Q480.7813,481.8496 480.9219,481.7715 Q481.0781,481.6934 481.2813,481.6934 Q481.6094,481.6934 481.8594,481.959 Q482.125,482.209 482.125,482.5527 Q482.125,482.8965 481.7813,483.3027 Q481.2813,483.8809 480.4844,484.209 Q479.4063,484.6621 478.1094,484.6621 Q476.5938,484.6621 475.3906,484.0371 Q474.4063,483.5371 473.7188,482.4746 Q473.0313,481.3965 473.0313,480.1152 L473.0313,478.959 Q473.0313,477.6309 473.6406,476.4902 Q474.2656,475.334 475.3594,474.7246 Q476.4531,474.0996 477.6875,474.0996 Q478.4219,474.0996 479.0625,474.2715 Q479.7188,474.4277 480.2656,474.7871 Z " fill="#000000"/><text fill="#000000" font-family="sans-serif" font-size="12" font-style="italic" lengthAdjust="spacing" textLength="44" x="489.5" y="474.5703">&#171;value&#187;</text><text fill="#000000" font-family="sans-serif" font-size="14" lengthAdjust="spacing" textLength="36" x="493.5" y="492.6895">Name</text><line style="stroke:#181818;stroke-width:0.5;" x1="463.5" x2="533.5" y1="501.2031" y2="501.2031"/><line style="stroke:#181818;stroke-width:0.5;" x1="463.5" x2="533.5" y1="509.2031" y2="509.2031"/></g><!--class RoleSet--><g id="elem_RoleSet"><rect codeLine="30" fill="#F1F1F1" height="60.582" id="RoleSet" rx="2.5" ry="2.5" style="stroke:#181818;stroke-width:0.5;" width="82" x="49.5" y="456.6211"/><ellipse cx="64.5" cy="478.9121" fill="#ADD1B2" rx="11" ry="11" style="stroke:#181818;stroke-width:1.0;"/><path d="M67.2656,474.7871 Q67.4219,474.5684 67.6094,474.459 Q67.7969,474.3496 68.0156,474.3496 Q68.3906,474.3496 68.625,474.6152 Q68.8594,474.8652 68.8594,475.4746 L68.8594,476.9277 Q68.8594,477.5371 68.625,477.8027 Q68.3906,478.0684 68.0156,478.0684 Q67.6719,478.0684 67.4688,477.8652 Q67.2656,477.6777 67.1563,477.1621 Q67.1094,476.8027 66.9219,476.6152 Q66.5938,476.2402 65.9844,476.0215 Q65.375,475.8027 64.75,475.8027 Q63.9844,475.8027 63.3438,476.1309 Q62.7188,476.459 62.2188,477.209 Q61.7344,477.959 61.7344,478.9902 L61.7344,480.084 Q61.7344,481.3184 62.625,482.1465 Q63.5156,482.959 65.1094,482.959 Q66.0469,482.959 66.7031,482.709 Q67.0938,482.5527 67.5156,482.1152 Q67.7813,481.8496 67.9219,481.7715 Q68.0781,481.6934 68.2813,481.6934 Q68.6094,481.6934 68.8594,481.959 Q69.125,482.209 69.125,482.5527 Q69.125,482.8965 68.7813,483.3027 Q68.2813,483.8809 67.4844,484.209 Q66.4063,484.6621 65.1094,484.6621 Q63.5938,484.6621 62.3906,484.0371 Q61.4063,483.5371 60.7188,482.4746 Q60.0313,481.3965 60.0313,480.1152 L60.0313,478.959 Q60.0313,477.6309 60.6406,476.4902 Q61.2656,475.334 62.3594,474.7246 Q63.4531,474.0996 64.6875,474.0996 Q65.4219,474.0996 66.0625,474.2715 Q66.7188,474.4277 67.2656,474.7871 Z " fill="#000000"/><text fill="#000000" font-family="sans-serif" font-size="12" font-style="italic" lengthAdjust="spacing" textLength="44" x="81.5" y="474.5703">&#171;value&#187;</text><text fill="#000000" font-family="sans-serif" font-size="14" lengthAdjust="spacing" textLength="50" x="78.5" y="492.6895">RoleSet</text><line style="stroke:#181818;stroke-width:0.5;" x1="50.5" x2="130.5" y1="501.2031" y2="501.2031"/><line style="stroke:#181818;stroke-width:0.5;" x1="50.5" x2="130.5" y1="509.2031" y2="509.2031"/></g><!--class RoleAssignment--><g id="elem_RoleAssignment"><rect codeLine="26" fill="#F1F1F1" height="60.582" id="RoleAssignment" rx="2.5" ry="2.5" style="stroke:#181818;stroke-width:0.5;" width="134" x="410.5" y="586.6211"/><ellipse cx="425.5" cy="608.9121" fill="#ADD1B2" rx="11" ry="11" style="stroke:#181818;stroke-width:1.0;"/><path d="M428.2656,604.7871 Q428.4219,604.5684 428.6094,604.459 Q428.7969,604.3496 429.0156,604.3496 Q429.3906,604.3496 429.625,604.6152 Q429.8594,604.8652 429.8594,605.4746 L429.8594,606.9277 Q429.8594,607.5371 429.625,607.8027 Q429.3906,608.0684 429.0156,608.0684 Q428.6719,608.0684 428.4688,607.8652 Q428.2656,607.6777 428.1563,607.1621 Q428.1094,606.8027 427.9219,606.6152 Q427.5938,606.2402 426.9844,606.0215 Q426.375,605.8027 425.75,605.8027 Q424.9844,605.8027 424.3438,606.1309 Q423.7188,606.459 423.2188,607.209 Q422.7344,607.959 422.7344,608.9902 L422.7344,610.084 Q422.7344,611.3184 423.625,612.1465 Q424.5156,612.959 426.1094,612.959 Q427.0469,612.959 427.7031,612.709 Q428.0938,612.5527 428.5156,612.1152 Q428.7813,611.8496 428.9219,611.7715 Q429.0781,611.6934 429.2813,611.6934 Q429.6094,611.6934 429.8594,611.959 Q430.125,612.209 430.125,612.5527 Q430.125,612.8965 429.7813,613.3027 Q429.2813,613.8809 428.4844,614.209 Q427.4063,614.6621 426.1094,614.6621 Q424.5938,614.6621 423.3906,614.0371 Q422.4063,613.5371 421.7188,612.4746 Q421.0313,611.3965 421.0313,610.1152 L421.0313,608.959 Q421.0313,607.6309 421.6406,606.4902 Q422.2656,605.334 423.3594,604.7246 Q424.4531,604.0996 425.6875,604.0996 Q426.4219,604.0996 427.0625,604.2715 Q427.7188,604.4277 428.2656,604.7871 Z " fill="#000000"/><text fill="#000000" font-family="sans-serif" font-size="12" font-style="italic" lengthAdjust="spacing" textLength="43" x="469" y="604.5703">&#171;entity&#187;</text><text fill="#000000" font-family="sans-serif" font-size="14" lengthAdjust="spacing" textLength="102" x="439.5" y="622.6895">RoleAssignment</text><line style="stroke:#181818;stroke-width:0.5;" x1="411.5" x2="543.5" y1="631.2031" y2="631.2031"/><line style="stroke:#181818;stroke-width:0.5;" x1="411.5" x2="543.5" y1="639.2031" y2="639.2031"/></g><!--class Role--><g id="elem_Role"><rect codeLine="28" fill="#F1F1F1" height="60.582" id="Role" rx="2.5" ry="2.5" style="stroke:#181818;stroke-width:0.5;" width="72" x="569.5" y="456.6211"/><ellipse cx="584.5" cy="478.9121" fill="#EB937F" rx="11" ry="11" style="stroke:#181818;stroke-width:1.0;"/><path d="M583.3594,479.709 L583.3594,482.209 L587.6875,482.209 L587.6875,481.2871 Q587.6875,480.6777 587.9219,480.4121 Q588.1719,480.1465 588.5469,480.1465 Q588.9219,480.1465 589.1563,480.4121 Q589.3906,480.6777 589.3906,481.2871 L589.3906,483.9121 L581.3906,483.9121 Q580.7656,483.9121 580.5,483.6777 Q580.25,483.4434 580.25,483.0527 Q580.25,482.6777 580.5156,482.4434 Q580.7813,482.209 581.3906,482.209 L581.6563,482.209 L581.6563,475.5527 L581.3906,475.5527 Q580.7656,475.5527 580.5,475.3184 Q580.25,475.084 580.25,474.6934 Q580.25,474.3184 580.5,474.084 Q580.7656,473.8496 581.3906,473.8496 L589.0156,473.8496 L589.0156,476.4434 Q589.0156,477.0527 588.7813,477.3184 Q588.5625,477.5684 588.1719,477.5684 Q587.7969,477.5684 587.5625,477.3184 Q587.3281,477.0527 587.3281,476.4434 L587.3281,475.5527 L583.3594,475.5527 L583.3594,478.0059 L584.8438,478.0059 Q584.8438,477.3496 584.9688,477.1621 Q585.2344,476.7559 585.7031,476.7559 Q586.0781,476.7559 586.3125,477.0215 Q586.5469,477.2715 586.5469,477.8809 L586.5469,479.8496 Q586.5469,480.3965 586.4219,480.584 Q586.1563,480.9746 585.7031,480.9746 Q585.2344,480.9746 584.9688,480.5684 Q584.8438,480.3809 584.8438,479.709 L583.3594,479.709 Z " fill="#000000"/><text fill="#000000" font-family="sans-serif" font-size="12" font-style="italic" lengthAdjust="spacing" textLength="44" x="596.5" y="474.5703">&#171;value&#187;</text><text fill="#000000" font-family="sans-serif" font-size="14" lengthAdjust="spacing" textLength="29" x="604" y="492.6895">Role</text><line style="stroke:#181818;stroke-width:0.5;" x1="570.5" x2="640.5" y1="501.2031" y2="501.2031"/><line style="stroke:#181818;stroke-width:0.5;" x1="570.5" x2="640.5" y1="509.2031" y2="509.2031"/></g><!--class Set--><g id="elem_Set"><rect codeLine="32" fill="#F1F1F1" height="60.582" id="Set" rx="2.5" ry="2.5" style="stroke:#181818;stroke-width:0.5;" width="167" x="7" y="586.6211"/><ellipse cx="22" cy="608.9121" fill="#ADD1B2" rx="11" ry="11" style="stroke:#181818;stroke-width:1.0;"/><path d="M24.7656,604.7871 Q24.9219,604.5684 25.1094,604.459 Q25.2969,604.3496 25.5156,604.3496 Q25.8906,604.3496 26.125,604.6152 Q26.3594,604.8652 26.3594,605.4746 L26.3594,606.9277 Q26.3594,607.5371 26.125,607.8027 Q25.8906,608.0684 25.5156,608.0684 Q25.1719,608.0684 24.9688,607.8652 Q24.7656,607.6777 24.6563,607.1621 Q24.6094,606.8027 24.4219,606.6152 Q24.0938,606.2402 23.4844,606.0215 Q22.875,605.8027 22.25,605.8027 Q21.4844,605.8027 20.8438,606.1309 Q20.2188,606.459 19.7188,607.209 Q19.2344,607.959 19.2344,608.9902 L19.2344,610.084 Q19.2344,611.3184 20.125,612.1465 Q21.0156,612.959 22.6094,612.959 Q23.5469,612.959 24.2031,612.709 Q24.5938,612.5527 25.0156,612.1152 Q25.2813,611.8496 25.4219,611.7715 Q25.5781,611.6934 25.7813,611.6934 Q26.1094,611.6934 26.3594,611.959 Q26.625,612.209 26.625,612.5527 Q26.625,612.8965 26.2813,613.3027 Q25.7813,613.8809 24.9844,614.209 Q23.9063,614.6621 22.6094,614.6621 Q21.0938,614.6621 19.8906,614.0371 Q18.9063,613.5371 18.2188,612.4746 Q17.5313,611.3965 17.5313,610.1152 L17.5313,608.959 Q17.5313,607.6309 18.1406,606.4902 Q18.7656,605.334 19.8594,604.7246 Q20.9531,604.0996 22.1875,604.0996 Q22.9219,604.0996 23.5625,604.2715 Q24.2188,604.4277 24.7656,604.7871 Z " fill="#000000"/><text fill="#000000" font-family="sans-serif" font-size="12" font-style="italic" lengthAdjust="spacing" textLength="44" x="34" y="604.5703">&#171;value&#187;</text><text fill="#000000" font-family="sans-serif" font-size="14" lengthAdjust="spacing" textLength="21" x="45.5" y="622.6895">Set</text><rect fill="#FFFFFF" height="17.9609" style="stroke:#181818;stroke-width:1.0;stroke-dasharray:2.0,2.0;" width="93" x="84" y="583.6211"/><text fill="#000000" font-family="sans-serif" font-size="12" font-style="italic" lengthAdjust="spacing" textLength="91" x="85" y="597.5703">RoleAssignment</text><line style="stroke:#181818;stroke-width:0.5;" x1="8" x2="173" y1="631.2031" y2="631.2031"/><line style="stroke:#181818;stroke-width:0.5;" x1="8" x2="173" y1="639.2031" y2="639.2031"/></g><!--link ListActiveBackofficeUsersUI to ListUsersController--><g id="link_ListActiveBackofficeUsersUI_ListUsersController"><path codeLine="34" d="M401.5,107.7811 C401.5,126.2411 401.5,143.9111 401.5,162.3811 " fill="none" id="ListActiveBackofficeUsersUI-to-ListUsersController" style="stroke:#181818;stroke-width:1.0;stroke-dasharray:7.0,7.0;"/><polygon fill="#181818" points="401.5,168.3811,405.5,159.3811,401.5,163.3811,397.5,159.3811,401.5,168.3811" style="stroke:#181818;stroke-width:1.0;"/></g><!--link ListUsersController to UserManagementService--><g id="link_ListUsersController_UserManagementService"><path codeLine="36" d="M392.7,229.7211 C385.79,253.0111 377.898,279.5393 370.988,302.8093 " fill="none" id="ListUsersController-to-UserManagementService" style="stroke:#181818;stroke-width:1.0;stroke-dasharray:7.0,7.0;"/><polygon fill="#181818" points="369.28,308.5611,375.6765,301.0721,370.7033,303.768,368.0075,298.7948,369.28,308.5611" style="stroke:#181818;stroke-width:1.0;"/><polygon fill="#000000" points="387.0762,274.0596,392.4692,266.2259,386.8347,264.5521,387.0762,274.0596" style="stroke:#000000;stroke-width:1.0;"/><text fill="#000000" font-family="sans-serif" font-size="13" lengthAdjust="spacing" textLength="28" x="397.5" y="274.6494">uses</text></g><!--link ListUsersController to SystemUserRepository--><g id="link_ListUsersController_SystemUserRepository"><path codeLine="37" d="M439.47,229.7211 C469.34,253.0111 506.008,281.6022 535.858,304.8722 " fill="none" id="ListUsersController-to-SystemUserRepository" style="stroke:#181818;stroke-width:1.0;stroke-dasharray:7.0,7.0;"/><polygon fill="#181818" points="540.59,308.5611,535.9513,299.8731,536.6467,305.487,531.0327,306.1824,540.59,308.5611" style="stroke:#181818;stroke-width:1.0;"/><polygon fill="#000000" points="509.4431,272.341,504.117,264.4617,500.5029,269.0971,509.4431,272.341" style="stroke:#000000;stroke-width:1.0;"/><text fill="#000000" font-family="sans-serif" font-size="13" lengthAdjust="spacing" textLength="56" x="514.5" y="274.6494">accesses</text></g><!--reverse link SystemUserRepository to RepositoryFactory--><g id="link_SystemUserRepository_RepositoryFactory"><path codeLine="39" d="M617.8842,373.554 C647.7242,398.884 685.92,431.3011 715.74,456.6211 " fill="none" id="SystemUserRepository-backto-RepositoryFactory" style="stroke:#181818;stroke-width:1.0;stroke-dasharray:7.0,7.0;"/><polygon fill="#181818" points="613.31,369.6711,617.5827,378.5449,617.1218,372.9068,622.7599,372.4459,613.31,369.6711" style="stroke:#181818;stroke-width:1.0;"/><polygon fill="#000000" points="670.6882,406.0309,675.6819,414.1249,679.4857,409.6438,670.6882,406.0309" style="stroke:#000000;stroke-width:1.0;"/><text fill="#000000" font-family="sans-serif" font-size="13" lengthAdjust="spacing" textLength="43" x="683.5" y="414.6494">creates</text></g><!--link SystemUserRepository to SystemUser--><g id="link_SystemUserRepository_SystemUser"><path codeLine="40" d="M491.97,369.6611 C434.41,390.0811 357.54,418.8411 291.5,448.6211 C285.78,451.2011 285.2502,451.3552 279.4102,454.2652 " fill="none" id="SystemUserRepository-to-SystemUser" style="stroke:#181818;stroke-width:1.0;stroke-dasharray:7.0,7.0;"/><polygon fill="#181818" points="274.04,456.9411,283.8793,456.5074,278.5152,454.7112,280.3114,449.3471,274.04,456.9411" style="stroke:#181818;stroke-width:1.0;"/><polygon fill="#000000" points="408.8545,411.1156,418.3452,410.5013,416.1715,405.0401,408.8545,411.1156" style="stroke:#000000;stroke-width:1.0;"/><text fill="#000000" font-family="sans-serif" font-size="13" lengthAdjust="spacing" textLength="104" x="422.5" y="414.6494">saves in database</text></g><!--link SystemUser to Name--><g id="link_SystemUser_Name"><path codeLine="42" d="M245.24,456.2711 C261.32,438.8011 283.9,418.6011 309,409.1211 C358.06,390.5911 379,388.0011 427,409.1211 C449.03,418.8111 463.7251,434.1412 476.2551,451.5512 " fill="none" id="SystemUser-to-Name" style="stroke:#181818;stroke-width:1.0;"/><polygon fill="#181818" points="479.76,456.4211,477.7493,446.7797,476.8393,452.3628,471.2561,451.4528,479.76,456.4211" style="stroke:#181818;stroke-width:1.0;"/></g><!--link SystemUser to EmailAddress--><g id="link_SystemUser_EmailAddress"><path codeLine="43" d="M274.27,487.1211 C285.92,487.1211 291.58,487.1211 303.24,487.1211 " fill="none" id="SystemUser-to-EmailAddress" style="stroke:#181818;stroke-width:1.0;"/><polygon fill="#181818" points="309.24,487.1211,300.24,483.1211,304.24,487.1211,300.24,491.1211,309.24,487.1211" style="stroke:#181818;stroke-width:1.0;"/></g><!--reverse link RoleSet to SystemUser--><g id="link_RoleSet_SystemUser"><path codeLine="44" d="M137.63,487.1211 C149.32,487.1211 155.01,487.1211 166.69,487.1211 " fill="none" id="RoleSet-backto-SystemUser" style="stroke:#181818;stroke-width:1.0;"/><polygon fill="#181818" points="131.63,487.1211,140.63,491.1211,136.63,487.1211,140.63,483.1211,131.63,487.1211" style="stroke:#181818;stroke-width:1.0;"/></g><!--link RoleSet to Set--><g id="link_RoleSet_Set"><path codeLine="45" d="M90.5,517.8111 C90.5,538.4911 90.5,547.9511 90.5,568.5911 " fill="none" id="RoleSet-to-Set" style="stroke:#181818;stroke-width:1.0;stroke-dasharray:7.0,7.0;"/><polygon fill="none" points="90.5,586.5911,96.5,568.5911,84.5,568.5911,90.5,586.5911" style="stroke:#181818;stroke-width:1.0;"/></g><!--link RoleSet to RoleAssignment--><g id="link_RoleSet_RoleAssignment"><path codeLine="46" d="M131.54,516.3511 C137.42,519.7611 143.51,522.9611 149.5,525.6211 C236.02,564.0211 336.8728,588.6032 404.6028,602.5232 " fill="none" id="RoleSet-to-RoleAssignment" style="stroke:#181818;stroke-width:1.0;stroke-dasharray:7.0,7.0;"/><polygon fill="#181818" points="410.48,603.7311,402.4695,598.0012,405.5824,602.7245,400.859,605.8374,410.48,603.7311" style="stroke:#181818;stroke-width:1.0;"/></g><!--reverse link Role to RoleAssignment--><g id="link_Role_RoleAssignment"><path codeLine="47" d="M571.5674,522.0537 C550.8874,542.7337 527.67,565.9511 507.03,586.5911 " fill="none" id="Role-backto-RoleAssignment" style="stroke:#181818;stroke-width:1.0;"/><polygon fill="#181818" points="575.81,517.8111,566.6176,521.3466,572.2745,521.3466,572.2745,527.0035,575.81,517.8111" style="stroke:#181818;stroke-width:1.0;"/></g><!--SRC=[bPF1JiCm38RlUOeSuR1g1qvJLMaCa2O11wezW9Uw9LgQJB4tDCJ3utHZNQU2nALA_7-_dVHlQMFz5YAqUWjc0msMV72e8ne6tpXKT0Re7QhmONsZQt24wa8o3eZcpD6kTunB4tnfFr5FbMBBqcwHTFrWeKdqpUBXLa_qQZ6TtYdLUVMp9PuRjdkybtE4khO6LuIHLakTvzOpnXeC5iMbeGCMmNCCpc4Kq9mtFPce5_1ojnOzbnZtqbjOEgvwi3mGOvlmDzm6iXpYGRXutlHe3po1EN7rSTL3ZorODw-gYBB9ypsudKnBrwd6XgPH8N0llKABlUyyEZWiaSU5EP5jVBgdwFAqt9q7_Qxjz7-qas8-R5bSGdy5bcN5M3v7qtLe2HwFQAPtXAIBNssZWSqq62Dll7EgyKopR2J1cJOHWSMNZzk68uKds0jjlQw0OGs4mubwKdGPNfKkFuk1vB1cqK-9g9zaikohq8E2_8O-Awu2LyTy9qcSN6lV]--></g></svg>