<?xml version="1.0" encoding="us-ascii" standalone="no"?><svg xmlns="http://www.w3.org/2000/svg" xmlns:xlink="http://www.w3.org/1999/xlink" contentStyleType="text/css" height="615px" preserveAspectRatio="none" style="width:426px;height:615px;background:#FFFFFF;" version="1.1" viewBox="0 0 426 615" width="426px" zoomAndPan="magnify"><defs><filter height="300%" id="f1eits9dih5jlc" width="300%" x="-1" y="-1"><feGaussianBlur result="blurOut" stdDeviation="2.0"/><feColorMatrix in="blurOut" result="blurOut2" type="matrix" values="0 0 0 0 0 0 0 0 0 0 0 0 0 0 0 0 0 0 .4 0"/><feOffset dx="4.0" dy="4.0" in="blurOut2" result="blurOut3"/><feBlend in="SourceGraphic" in2="blurOut3" jobMode="normal"/></filter></defs><g><text fill="#000000" font-family="sans-serif" font-size="14" font-weight="bold" lengthAdjust="spacing" textLength="157" x="127.5" y="25.1074">Domain Model - UC005</text><!--class SystemUser--><g id="elem_SystemUser"><rect codeLine="15" fill="#F1F1F1" filter="url(#f1eits9dih5jlc)" height="36.6211" id="SystemUser" rx="2.5" ry="2.5" style="stroke:#181818;stroke-width:0.5;" width="81" x="151.5" y="278.6211"/><text fill="#000000" font-family="sans-serif" font-size="14" lengthAdjust="spacing" textLength="75" x="154.5" y="298.7285">SystemUser</text><line style="stroke:#181818;stroke-width:0.5;" x1="152.5" x2="231.5" y1="307.2422" y2="307.2422"/></g><!--class Name--><g id="elem_Name"><rect codeLine="17" fill="#F1F1F1" filter="url(#f1eits9dih5jlc)" height="73.8633" id="Name" rx="2.5" ry="2.5" style="stroke:#181818;stroke-width:0.5;" width="76" x="7" y="376.6211"/><text fill="#000000" font-family="sans-serif" font-size="14" lengthAdjust="spacing" textLength="36" x="27" y="396.7285">Name</text><line style="stroke:#181818;stroke-width:0.5;" x1="8" x2="82" y1="405.2422" y2="405.2422"/><text fill="#000000" font-family="sans-serif" font-size="14" lengthAdjust="spacing" textLength="64" x="13" y="424.3496">-firstName</text><text fill="#000000" font-family="sans-serif" font-size="14" lengthAdjust="spacing" textLength="63" x="13" y="442.9707">-lastName</text></g><!--class Email--><g id="elem_Email"><rect codeLine="22" fill="#F1F1F1" filter="url(#f1eits9dih5jlc)" height="55.2422" id="Email" rx="2.5" ry="2.5" style="stroke:#181818;stroke-width:0.5;" width="50" x="118" y="386.1211"/><text fill="#000000" font-family="sans-serif" font-size="14" lengthAdjust="spacing" textLength="34" x="126" y="406.2285">Email</text><line style="stroke:#181818;stroke-width:0.5;" x1="119" x2="167" y1="414.7422" y2="414.7422"/><text fill="#000000" font-family="sans-serif" font-size="14" lengthAdjust="spacing" textLength="38" x="124" y="433.8496">-email</text></g><!--class Password--><g id="elem_Password"><rect codeLine="26" fill="#F1F1F1" filter="url(#f1eits9dih5jlc)" height="55.2422" id="Password" rx="2.5" ry="2.5" style="stroke:#181818;stroke-width:0.5;" width="77" x="203.5" y="386.1211"/><text fill="#000000" font-family="sans-serif" font-size="14" lengthAdjust="spacing" textLength="61" x="211.5" y="406.2285">Password</text><line style="stroke:#181818;stroke-width:0.5;" x1="204.5" x2="279.5" y1="414.7422" y2="414.7422"/><text fill="#000000" font-family="sans-serif" font-size="14" lengthAdjust="spacing" textLength="65" x="209.5" y="433.8496">-password</text></g><!--class CustomerManager--><g id="elem_CustomerManager"><rect codeLine="30" fill="#F1F1F1" filter="url(#f1eits9dih5jlc)" height="36.6211" id="CustomerManager" rx="2.5" ry="2.5" style="stroke:#181818;stroke-width:0.5;" width="123" x="130.5" y="46.6211"/><text fill="#000000" font-family="sans-serif" font-size="14" lengthAdjust="spacing" textLength="117" x="133.5" y="66.7285">CustomerManager</text><line style="stroke:#181818;stroke-width:0.5;" x1="131.5" x2="252.5" y1="75.2422" y2="75.2422"/></g><!--class Customer--><g id="elem_Customer"><rect codeLine="32" fill="#F1F1F1" filter="url(#f1eits9dih5jlc)" height="36.6211" id="Customer" rx="2.5" ry="2.5" style="stroke:#181818;stroke-width:0.5;" width="67" x="234.5" y="162.6211"/><text fill="#000000" font-family="sans-serif" font-size="14" lengthAdjust="spacing" textLength="61" x="237.5" y="182.7285">Customer</text><line style="stroke:#181818;stroke-width:0.5;" x1="235.5" x2="300.5" y1="191.2422" y2="191.2422"/></g><!--class Role--><g id="elem_Role"><rect codeLine="34" fill="#F1F1F1" filter="url(#f1eits9dih5jlc)" height="36.6211" id="Role" rx="2.5" ry="2.5" style="stroke:#181818;stroke-width:0.5;" width="35" x="315.5" y="395.1211"/><text fill="#000000" font-family="sans-serif" font-size="14" lengthAdjust="spacing" textLength="29" x="318.5" y="415.2285">Role</text><line style="stroke:#181818;stroke-width:0.5;" x1="316.5" x2="349.5" y1="423.7422" y2="423.7422"/></g><g id="elem_GMN9"><path d="M247,511.6211 L247,608.0762 A0,0 0 0 0 247,608.0762 L419,608.0762 A0,0 0 0 0 419,608.0762 L419,521.6211 L409,511.6211 L337,511.6211 L333,432.2811 L329,511.6211 L247,511.6211 A0,0 0 0 0 247,511.6211 " fill="#FEFFDD" filter="url(#f1eits9dih5jlc)" style="stroke:#181818;stroke-width:0.5;"/><path d="M409,511.6211 L409,521.6211 L419,521.6211 L409,511.6211 " fill="#FEFFDD" style="stroke:#181818;stroke-width:0.5;"/><text fill="#000000" font-family="sans-serif" font-size="13" lengthAdjust="spacing" textLength="49" x="253" y="530.6494">-ADMIN;</text><text fill="#000000" font-family="sans-serif" font-size="13" lengthAdjust="spacing" textLength="151" x="253" y="547.9404">-LANGUAGE ENGINEER;</text><text fill="#000000" font-family="sans-serif" font-size="13" lengthAdjust="spacing" textLength="80" x="253" y="565.2314">-OPERATOR;</text><text fill="#000000" font-family="sans-serif" font-size="13" lengthAdjust="spacing" textLength="151" x="253" y="582.5225">-CUSTOMER MANAGER;</text><text fill="#000000" font-family="sans-serif" font-size="13" lengthAdjust="spacing" textLength="81" x="253" y="599.8135">-CUSTOMER.</text></g><!--link CustomerManager to Customer--><g id="link_CustomerManager_Customer"><path codeLine="38" d="M203.88,83.9311 C218.15,105.3511 241.97,141.0711 256.21,162.4311 " fill="none" id="CustomerManager-Customer" style="stroke:#181818;stroke-width:1.0;"/><polygon fill="#000000" points="242.7734,127.4269,240.2017,118.2707,235.3109,121.531,242.7734,127.4269" style="stroke:#000000;stroke-width:1.0;"/><text fill="#000000" font-family="sans-serif" font-size="13" lengthAdjust="spacing" textLength="43" x="249" y="128.6494">creates</text><text fill="#000000" font-family="sans-serif" font-size="13" lengthAdjust="spacing" textLength="7" x="199.1321" y="105.389">1</text><text fill="#000000" font-family="sans-serif" font-size="13" lengthAdjust="spacing" textLength="5" x="246.8337" y="151.2351">*</text></g><!--link Customer to SystemUser--><g id="link_Customer_SystemUser"><path codeLine="39" d="M256.12,199.9311 C241.85,221.3511 218.03,257.0711 203.79,278.4311 " fill="none" id="Customer-SystemUser" style="stroke:#181818;stroke-width:1.0;"/><polygon fill="#000000" points="237.2266,243.4269,244.6891,237.531,239.7983,234.2707,237.2266,243.4269" style="stroke:#000000;stroke-width:1.0;"/><text fill="#000000" font-family="sans-serif" font-size="13" lengthAdjust="spacing" textLength="21" x="249" y="244.6494">is a</text><text fill="#000000" font-family="sans-serif" font-size="13" lengthAdjust="spacing" textLength="7" x="244.9866" y="221.389">1</text><text fill="#000000" font-family="sans-serif" font-size="13" lengthAdjust="spacing" textLength="7" x="199.3288" y="267.2351">1</text></g><!--link CustomerManager to SystemUser--><g id="link_CustomerManager_SystemUser"><path codeLine="40" d="M188.97,83.8111 C184.96,109.3511 178.64,158.0611 181,199.6211 C182.57,227.2311 186.64,259.0711 189.37,278.3911 " fill="none" id="CustomerManager-SystemUser" style="stroke:#181818;stroke-width:1.0;"/><polygon fill="#000000" points="186.0103,186.2666,188.9306,177.2155,183.0528,177.2276,186.0103,186.2666" style="stroke:#000000;stroke-width:1.0;"/><text fill="#000000" font-family="sans-serif" font-size="13" lengthAdjust="spacing" textLength="21" x="195" y="186.6494">is a</text><text fill="#000000" font-family="sans-serif" font-size="13" lengthAdjust="spacing" textLength="7" x="180.2151" y="105.2367">1</text><text fill="#000000" font-family="sans-serif" font-size="13" lengthAdjust="spacing" textLength="7" x="180.5693" y="267.519">1</text></g><!--reverse link SystemUser to Name--><g id="link_SystemUser_Name"><path codeLine="41" d="M159.8838,323.1361 C136.9338,341.0161 110.47,361.6211 83.12,382.9311 " fill="none" id="SystemUser-backto-Name" style="stroke:#181818;stroke-width:1.0;"/><polygon fill="#181818" points="169.35,315.7611,162.1586,316.2932,159.8838,323.1361,167.0752,322.604,169.35,315.7611" style="stroke:#181818;stroke-width:1.0;"/><text fill="#000000" font-family="sans-serif" font-size="13" lengthAdjust="spacing" textLength="7" x="155.3222" y="337.1733">1</text><text fill="#000000" font-family="sans-serif" font-size="13" lengthAdjust="spacing" textLength="7" x="91.0538" y="372.5296">1</text></g><!--reverse link SystemUser to Email--><g id="link_SystemUser_Email"><path codeLine="42" d="M179.6187,327.0433 C171.5987,345.7833 163.63,364.4111 154.43,385.9211 " fill="none" id="SystemUser-backto-Email" style="stroke:#181818;stroke-width:1.0;"/><polygon fill="#181818" points="184.34,316.0111,178.3019,319.9534,179.6187,327.0433,185.6567,323.101,184.34,316.0111" style="stroke:#181818;stroke-width:1.0;"/><text fill="#000000" font-family="sans-serif" font-size="13" lengthAdjust="spacing" textLength="7" x="174.4803" y="337.1439">1</text><text fill="#000000" font-family="sans-serif" font-size="13" lengthAdjust="spacing" textLength="7" x="149.1647" y="375.036">1</text></g><!--reverse link SystemUser to Password--><g id="link_SystemUser_Password"><path codeLine="43" d="M204.6155,327.0069 C212.8055,345.7469 220.95,364.4111 230.34,385.9211 " fill="none" id="SystemUser-backto-Password" style="stroke:#181818;stroke-width:1.0;"/><polygon fill="#181818" points="199.81,316.0111,198.5475,323.1108,204.6155,327.0069,205.878,319.9071,199.81,316.0111" style="stroke:#181818;stroke-width:1.0;"/><text fill="#000000" font-family="sans-serif" font-size="13" lengthAdjust="spacing" textLength="7" x="193.9144" y="337.1439">1</text><text fill="#000000" font-family="sans-serif" font-size="13" lengthAdjust="spacing" textLength="7" x="220.0238" y="375.036">1</text></g><!--link SystemUser to Role--><g id="link_SystemUser_Role"><path codeLine="44" d="M218.17,315.7211 C240.19,330.9511 272.14,354.0111 298,376.6211 C304.43,382.2411 311.07,388.8411 316.81,394.8311 " fill="none" id="SystemUser-Role" style="stroke:#181818;stroke-width:1.0;"/><text fill="#000000" font-family="sans-serif" font-size="13" lengthAdjust="spacing" textLength="7" x="217.2626" y="337.1226">1</text><text fill="#000000" font-family="sans-serif" font-size="13" lengthAdjust="spacing" textLength="20" x="289.1167" y="383.9414">1..*</text></g><!--SRC=[TP4nRy8m48Lt_ufJHgGWEdIXKgM8HWYf2IZ0riKa1x58V95z257K_ruxXP3IijZFxtiwdyzshtGZZQoX9arvQQX6sChAeh0TQcI-bpjSygb2C9YprBkg7x2bBEYez0xO753qI5v9QoDcepO7nbbEUga-4KP2LBXbO0AZTYL3eNnTHLemDTxU43FLFL-Kga38bSdTrQskaKigh12is3NsHhLK6X8gi88GrfFHw5c8jW5OdYnZlRPepbzNBvKrdaK8MsKi-uFJ3lp8BXMxefMFeHStV-6M8vd2e-QYRtHoiAvxD8dKRd06pdz8pygeGd_In7XzDsrRUmnXz9RCqfSF7Rv7wNGTJME8q-aiZUFCc_D5d4MhUQidw-LgdiGP957gSh-yeH3tFGLF0OGX18EWQseCkK79QE6rYtSvjzt6E0PbGVPYzrN_Jz-iDZ6u9DkHFs3j1po2rr-uvoqU3jtJ_1I_0G00]--></g></svg>