<?xml version="1.0" encoding="us-ascii" standalone="no"?><svg xmlns="http://www.w3.org/2000/svg" xmlns:xlink="http://www.w3.org/1999/xlink" contentStyleType="text/css" height="713px" preserveAspectRatio="none" style="width:621px;height:713px;background:#FFFFFF;" version="1.1" viewBox="0 0 621 713" width="621px" zoomAndPan="magnify"><defs/><g><text fill="#000000" font-family="sans-serif" font-size="14" font-weight="bold" lengthAdjust="spacing" textLength="292" x="164.25" y="30.1074">System Sequence Diagram (SSD) - US1001</text><rect fill="#FFFFFF" height="488.4922" style="stroke:#181818;stroke-width:1.0;" width="10" x="61.5" y="133.2422"/><rect fill="#FFFFFF" height="31.291" style="stroke:#181818;stroke-width:1.0;" width="10" x="307.5" y="156.5332"/><rect fill="#FFFFFF" height="31.291" style="stroke:#181818;stroke-width:1.0;" width="10" x="307.5" y="219.1152"/><rect fill="#FFFFFF" height="31.291" style="stroke:#181818;stroke-width:1.0;" width="10" x="307.5" y="281.6973"/><rect fill="#FFFFFF" height="268.4551" style="stroke:#181818;stroke-width:1.0;" width="10" x="307.5" y="344.2793"/><rect fill="#FFFFFF" height="28" style="stroke:#181818;stroke-width:1.0;" width="10" x="312.5" y="383.5703"/><rect fill="#FFFFFF" height="28" style="stroke:#181818;stroke-width:1.0;" width="10" x="312.5" y="457.8613"/><rect fill="#FFFFFF" height="80.582" style="stroke:#181818;stroke-width:1.0;" width="10" x="312.5" y="532.1523"/><line style="stroke:#181818;stroke-width:0.5;stroke-dasharray:5.0,5.0;" x1="66" x2="66" y1="123.2422" y2="630.7344"/><line style="stroke:#181818;stroke-width:0.5;stroke-dasharray:5.0,5.0;" x1="312.5" x2="312.5" y1="123.2422" y2="630.7344"/><text fill="#000000" font-family="sans-serif" font-size="14" lengthAdjust="spacing" textLength="117" x="5" y="119.7285">CustomerManager</text><ellipse cx="66.5" cy="53.1211" fill="#E3E3E3" rx="8" ry="8" style="stroke:#181818;stroke-width:0.5;"/><path d="M66.5,61.1211 L66.5,88.1211 M53.5,69.1211 L79.5,69.1211 M66.5,88.1211 L53.5,103.1211 M66.5,88.1211 L79.5,103.1211 " fill="none" style="stroke:#181818;stroke-width:0.5;"/><text fill="#000000" font-family="sans-serif" font-size="14" lengthAdjust="spacing" textLength="117" x="5" y="644.8418">CustomerManager</text><ellipse cx="66.5" cy="656.8555" fill="#E3E3E3" rx="8" ry="8" style="stroke:#181818;stroke-width:0.5;"/><path d="M66.5,664.8555 L66.5,691.8555 M53.5,672.8555 L79.5,672.8555 M66.5,691.8555 L53.5,706.8555 M66.5,691.8555 L79.5,706.8555 " fill="none" style="stroke:#181818;stroke-width:0.5;"/><rect fill="#E3E3E3" height="32.6211" rx="2.5" ry="2.5" style="stroke:#181818;stroke-width:0.5;" width="64" x="280.5" y="89.6211"/><text fill="#000000" font-family="sans-serif" font-size="14" lengthAdjust="spacing" textLength="50" x="287.5" y="111.7285">:System</text><rect fill="#E3E3E3" height="32.6211" rx="2.5" ry="2.5" style="stroke:#181818;stroke-width:0.5;" width="64" x="280.5" y="629.7344"/><text fill="#000000" font-family="sans-serif" font-size="14" lengthAdjust="spacing" textLength="50" x="287.5" y="651.8418">:System</text><rect fill="#FFFFFF" height="488.4922" style="stroke:#181818;stroke-width:1.0;" width="10" x="61.5" y="133.2422"/><rect fill="#FFFFFF" height="31.291" style="stroke:#181818;stroke-width:1.0;" width="10" x="307.5" y="156.5332"/><rect fill="#FFFFFF" height="31.291" style="stroke:#181818;stroke-width:1.0;" width="10" x="307.5" y="219.1152"/><rect fill="#FFFFFF" height="31.291" style="stroke:#181818;stroke-width:1.0;" width="10" x="307.5" y="281.6973"/><rect fill="#FFFFFF" height="268.4551" style="stroke:#181818;stroke-width:1.0;" width="10" x="307.5" y="344.2793"/><rect fill="#FFFFFF" height="28" style="stroke:#181818;stroke-width:1.0;" width="10" x="312.5" y="383.5703"/><rect fill="#FFFFFF" height="28" style="stroke:#181818;stroke-width:1.0;" width="10" x="312.5" y="457.8613"/><rect fill="#FFFFFF" height="80.582" style="stroke:#181818;stroke-width:1.0;" width="10" x="312.5" y="532.1523"/><polygon fill="#181818" points="295.5,152.5332,305.5,156.5332,295.5,160.5332,299.5,156.5332" style="stroke:#181818;stroke-width:1.0;"/><line style="stroke:#181818;stroke-width:1.0;" x1="71.5" x2="301.5" y1="156.5332" y2="156.5332"/><text fill="#000000" font-family="sans-serif" font-size="13" lengthAdjust="spacing" textLength="154" x="78.5" y="151.2705">asks to create a Customer</text><polygon fill="#181818" points="82.5,183.8242,72.5,187.8242,82.5,191.8242,78.5,187.8242" style="stroke:#181818;stroke-width:1.0;"/><line style="stroke:#181818;stroke-width:1.0;stroke-dasharray:2.0,2.0;" x1="76.5" x2="311.5" y1="187.8242" y2="187.8242"/><text fill="#000000" font-family="sans-serif" font-size="13" lengthAdjust="spacing" textLength="75" x="88.5" y="182.5615">requests role</text><polygon fill="#181818" points="295.5,215.1152,305.5,219.1152,295.5,223.1152,299.5,219.1152" style="stroke:#181818;stroke-width:1.0;"/><line style="stroke:#181818;stroke-width:1.0;" x1="71.5" x2="301.5" y1="219.1152" y2="219.1152"/><text fill="#000000" font-family="sans-serif" font-size="13" lengthAdjust="spacing" textLength="106" x="78.5" y="213.8525">selects 'Customer'</text><polygon fill="#181818" points="82.5,246.4063,72.5,250.4063,82.5,254.4063,78.5,250.4063" style="stroke:#181818;stroke-width:1.0;"/><line style="stroke:#181818;stroke-width:1.0;stroke-dasharray:2.0,2.0;" x1="76.5" x2="311.5" y1="250.4063" y2="250.4063"/><text fill="#000000" font-family="sans-serif" font-size="13" lengthAdjust="spacing" textLength="86" x="88.5" y="245.1436">requests name</text><polygon fill="#181818" points="295.5,277.6973,305.5,281.6973,295.5,285.6973,299.5,281.6973" style="stroke:#181818;stroke-width:1.0;"/><line style="stroke:#181818;stroke-width:1.0;" x1="71.5" x2="301.5" y1="281.6973" y2="281.6973"/><text fill="#000000" font-family="sans-serif" font-size="13" lengthAdjust="spacing" textLength="217" x="78.5" y="276.4346">provides name (first name, last name)</text><polygon fill="#181818" points="82.5,308.9883,72.5,312.9883,82.5,316.9883,78.5,312.9883" style="stroke:#181818;stroke-width:1.0;"/><line style="stroke:#181818;stroke-width:1.0;stroke-dasharray:2.0,2.0;" x1="76.5" x2="311.5" y1="312.9883" y2="312.9883"/><text fill="#000000" font-family="sans-serif" font-size="13" lengthAdjust="spacing" textLength="85" x="88.5" y="307.7256">requests email</text><polygon fill="#181818" points="295.5,340.2793,305.5,344.2793,295.5,348.2793,299.5,344.2793" style="stroke:#181818;stroke-width:1.0;"/><line style="stroke:#181818;stroke-width:1.0;" x1="71.5" x2="301.5" y1="344.2793" y2="344.2793"/><text fill="#000000" font-family="sans-serif" font-size="13" lengthAdjust="spacing" textLength="82" x="78.5" y="339.0166">provides email</text><line style="stroke:#181818;stroke-width:1.0;" x1="322.5" x2="364.5" y1="375.5703" y2="375.5703"/><line style="stroke:#181818;stroke-width:1.0;" x1="364.5" x2="364.5" y1="375.5703" y2="388.5703"/><line style="stroke:#181818;stroke-width:1.0;" x1="323.5" x2="364.5" y1="388.5703" y2="388.5703"/><polygon fill="#181818" points="333.5,384.5703,323.5,388.5703,333.5,392.5703,329.5,388.5703" style="stroke:#181818;stroke-width:1.0;"/><text fill="#000000" font-family="sans-serif" font-size="13" lengthAdjust="spacing" textLength="116" x="329.5" y="370.3076">generates password</text><line style="stroke:#181818;stroke-width:1.0;" x1="322.5" x2="364.5" y1="449.8613" y2="449.8613"/><line style="stroke:#181818;stroke-width:1.0;" x1="364.5" x2="364.5" y1="449.8613" y2="462.8613"/><line style="stroke:#181818;stroke-width:1.0;" x1="323.5" x2="364.5" y1="462.8613" y2="462.8613"/><polygon fill="#181818" points="333.5,458.8613,323.5,462.8613,333.5,466.8613,329.5,462.8613" style="stroke:#181818;stroke-width:1.0;"/><text fill="#000000" font-family="sans-serif" font-size="13" lengthAdjust="spacing" textLength="149" x="329.5" y="444.5986">defines username = email</text><line style="stroke:#181818;stroke-width:1.0;" x1="317.5" x2="364.5" y1="519.1523" y2="519.1523"/><line style="stroke:#181818;stroke-width:1.0;" x1="364.5" x2="364.5" y1="519.1523" y2="532.1523"/><line style="stroke:#181818;stroke-width:1.0;" x1="323.5" x2="364.5" y1="532.1523" y2="532.1523"/><polygon fill="#181818" points="333.5,528.1523,323.5,532.1523,333.5,536.1523,329.5,532.1523" style="stroke:#181818;stroke-width:1.0;"/><text fill="#000000" font-family="sans-serif" font-size="13" lengthAdjust="spacing" textLength="285" x="329.5" y="513.8896">creates User (username, name, email, password)</text><line style="stroke:#181818;stroke-width:1.0;" x1="322.5" x2="364.5" y1="568.4434" y2="568.4434"/><line style="stroke:#181818;stroke-width:1.0;" x1="364.5" x2="364.5" y1="568.4434" y2="581.4434"/><line style="stroke:#181818;stroke-width:1.0;" x1="323.5" x2="364.5" y1="581.4434" y2="581.4434"/><polygon fill="#181818" points="333.5,577.4434,323.5,581.4434,333.5,585.4434,329.5,581.4434" style="stroke:#181818;stroke-width:1.0;"/><text fill="#000000" font-family="sans-serif" font-size="13" lengthAdjust="spacing" textLength="142" x="329.5" y="563.1807">creates Customer (User)</text><polygon fill="#181818" points="82.5,608.7344,72.5,612.7344,82.5,616.7344,78.5,612.7344" style="stroke:#181818;stroke-width:1.0;"/><line style="stroke:#181818;stroke-width:1.0;stroke-dasharray:2.0,2.0;" x1="76.5" x2="311.5" y1="612.7344" y2="612.7344"/><text fill="#000000" font-family="sans-serif" font-size="13" lengthAdjust="spacing" textLength="119" x="88.5" y="607.4717">operation successful</text><!--SRC=[hP9DRi8m48NtESMe6n899DX6QZUmPHLnW94p2HQEdNeS4BVlE241jVn8g5xPclVUDsER3zgswB61nbcdzjur1C5tbF1KQL4TiAOYd0s19nNGrkPMm7iitKdR6YeqJ4aIT11fSUP03HJqtP5L11kDTPIdHR79O06xOhLShX9KmNbOTno4xRTeXUK16TRR91Rr4GF50yXQRs7n1H_vaFq1kGWF3C61yXHrE2LTlPEyZxYQ5n8bWRaC9IroOF1E1ekYakwu_yAPZDm7mso4pjwXMcoUKdz1M- -EkgJ11scbFOT-FmU3bstsJX_Ke3RlD38ONnDlx3dKPCcBdEM3CP-SBtlvWvIx7JsBBwdILi8x9jzVrEVDVFy56JuTmquWa8we-UKrUjvy6Y_hevxWn_MADdusI2CtU-JjtpS7ryPhriu2TqeHSzMPoV9mudk57m00]--></g></svg>