<?xml version="1.0" encoding="us-ascii" standalone="no"?><svg xmlns="http://www.w3.org/2000/svg" xmlns:xlink="http://www.w3.org/1999/xlink" contentStyleType="text/css" height="558px" preserveAspectRatio="none" style="width:956px;height:558px;background:#FFFFFF;" version="1.1" viewBox="0 0 956 558" width="956px" zoomAndPan="magnify"><defs/><g><rect fill="#FFFFFF" height="357.2012" style="stroke:#181818;stroke-width:1.0;" width="10" x="46.5" y="93.6211"/><rect fill="#FFFFFF" height="75.582" style="stroke:#181818;stroke-width:1.0;" width="10" x="671.5" y="116.9121"/><rect fill="#FFFFFF" height="57.582" style="stroke:#181818;stroke-width:1.0;" width="10" x="671.5" y="223.7852"/><rect fill="#FFFFFF" height="31.291" style="stroke:#181818;stroke-width:1.0;" width="10" x="671.5" y="312.6582"/><rect fill="#FFFFFF" height="31.291" style="stroke:#181818;stroke-width:1.0;" width="10" x="671.5" y="375.2402"/><rect fill="none" height="175.7461" style="stroke:#000000;stroke-width:1.5;" width="708.5" x="10" y="238.7852"/><line style="stroke:#181818;stroke-width:0.5;stroke-dasharray:5.0,5.0;" x1="51" x2="51" y1="83.6211" y2="475.8223"/><line style="stroke:#181818;stroke-width:0.5;stroke-dasharray:5.0,5.0;" x1="676.5" x2="676.5" y1="83.6211" y2="475.8223"/><text fill="#000000" font-family="sans-serif" font-size="14" lengthAdjust="spacing" textLength="57" x="20" y="80.1074">Operator</text><ellipse cx="51.5" cy="13.5" fill="#E3E3E3" rx="8" ry="8" style="stroke:#181818;stroke-width:0.5;"/><path d="M51.5,21.5 L51.5,48.5 M38.5,29.5 L64.5,29.5 M51.5,48.5 L38.5,63.5 M51.5,48.5 L64.5,63.5 " fill="none" style="stroke:#181818;stroke-width:0.5;"/><text fill="#000000" font-family="sans-serif" font-size="14" lengthAdjust="spacing" textLength="57" x="20" y="489.9297">Operator</text><ellipse cx="51.5" cy="501.9434" fill="#E3E3E3" rx="8" ry="8" style="stroke:#181818;stroke-width:0.5;"/><path d="M51.5,509.9434 L51.5,536.9434 M38.5,517.9434 L64.5,517.9434 M51.5,536.9434 L38.5,551.9434 M51.5,536.9434 L64.5,551.9434 " fill="none" style="stroke:#181818;stroke-width:0.5;"/><rect fill="#E3E3E3" height="32.6211" rx="2.5" ry="2.5" style="stroke:#181818;stroke-width:0.5;" width="64" x="644.5" y="50"/><text fill="#000000" font-family="sans-serif" font-size="14" lengthAdjust="spacing" textLength="50" x="651.5" y="72.1074">:System</text><rect fill="#E3E3E3" height="32.6211" rx="2.5" ry="2.5" style="stroke:#181818;stroke-width:0.5;" width="64" x="644.5" y="474.8223"/><text fill="#000000" font-family="sans-serif" font-size="14" lengthAdjust="spacing" textLength="50" x="651.5" y="496.9297">:System</text><rect fill="#FFFFFF" height="357.2012" style="stroke:#181818;stroke-width:1.0;" width="10" x="46.5" y="93.6211"/><rect fill="#FFFFFF" height="75.582" style="stroke:#181818;stroke-width:1.0;" width="10" x="671.5" y="116.9121"/><rect fill="#FFFFFF" height="57.582" style="stroke:#181818;stroke-width:1.0;" width="10" x="671.5" y="223.7852"/><rect fill="#FFFFFF" height="31.291" style="stroke:#181818;stroke-width:1.0;" width="10" x="671.5" y="312.6582"/><rect fill="#FFFFFF" height="31.291" style="stroke:#181818;stroke-width:1.0;" width="10" x="671.5" y="375.2402"/><polygon fill="#181818" points="659.5,112.9121,669.5,116.9121,659.5,120.9121,663.5,116.9121" style="stroke:#181818;stroke-width:1.0;"/><line style="stroke:#181818;stroke-width:1.0;" x1="56.5" x2="665.5" y1="116.9121" y2="116.9121"/><text fill="#000000" font-family="sans-serif" font-size="13" lengthAdjust="spacing" textLength="31" x="63.5" y="111.6494">Login</text><line style="stroke:#181818;stroke-width:1.0;" x1="681.5" x2="723.5" y1="148.2031" y2="148.2031"/><line style="stroke:#181818;stroke-width:1.0;" x1="723.5" x2="723.5" y1="148.2031" y2="161.2031"/><line style="stroke:#181818;stroke-width:1.0;" x1="682.5" x2="723.5" y1="161.2031" y2="161.2031"/><polygon fill="#181818" points="692.5,157.2031,682.5,161.2031,692.5,165.2031,688.5,161.2031" style="stroke:#181818;stroke-width:1.0;"/><text fill="#000000" font-family="sans-serif" font-size="13" lengthAdjust="spacing" textLength="78" x="688.5" y="142.9404">Validate login</text><polygon fill="#181818" points="67.5,188.4941,57.5,192.4941,67.5,196.4941,63.5,192.4941" style="stroke:#181818;stroke-width:1.0;"/><line style="stroke:#181818;stroke-width:1.0;stroke-dasharray:2.0,2.0;" x1="61.5" x2="675.5" y1="192.4941" y2="192.4941"/><text fill="#000000" font-family="sans-serif" font-size="13" lengthAdjust="spacing" textLength="455" x="73.5" y="187.2314">Allow access to the backoffice application with customer manager permissions</text><polygon fill="#181818" points="659.5,219.7852,669.5,223.7852,659.5,227.7852,663.5,223.7852" style="stroke:#181818;stroke-width:1.0;"/><line style="stroke:#181818;stroke-width:1.0;" x1="56.5" x2="665.5" y1="223.7852" y2="223.7852"/><text fill="#000000" font-family="sans-serif" font-size="13" lengthAdjust="spacing" textLength="596" x="63.5" y="218.5225">Select the option to generate and export a template text file with candidate answers during an interview.</text><path d="M10,238.7852 L83,238.7852 L83,248.0762 L73,258.0762 L10,258.0762 L10,238.7852 " fill="#EEEEEE" style="stroke:#000000;stroke-width:1.5;"/><rect fill="none" height="175.7461" style="stroke:#000000;stroke-width:1.5;" width="708.5" x="10" y="238.7852"/><text fill="#000000" font-family="sans-serif" font-size="13" font-weight="bold" lengthAdjust="spacing" textLength="28" x="25" y="253.8135">loop</text><text fill="#000000" font-family="sans-serif" font-size="11" font-weight="bold" lengthAdjust="spacing" textLength="280" x="98" y="252.6553">[while customer manager wants to add questions]</text><polygon fill="#181818" points="67.5,277.3672,57.5,281.3672,67.5,285.3672,63.5,281.3672" style="stroke:#181818;stroke-width:1.0;"/><line style="stroke:#181818;stroke-width:1.0;stroke-dasharray:2.0,2.0;" x1="61.5" x2="675.5" y1="281.3672" y2="281.3672"/><text fill="#000000" font-family="sans-serif" font-size="13" lengthAdjust="spacing" textLength="395" x="73.5" y="276.1045">Ask for question type, after showing a list of available question types</text><polygon fill="#181818" points="659.5,308.6582,669.5,312.6582,659.5,316.6582,663.5,312.6582" style="stroke:#181818;stroke-width:1.0;"/><line style="stroke:#181818;stroke-width:1.0;" x1="56.5" x2="665.5" y1="312.6582" y2="312.6582"/><text fill="#000000" font-family="sans-serif" font-size="13" lengthAdjust="spacing" textLength="141" x="63.5" y="307.3955">Select the question type</text><polygon fill="#181818" points="67.5,339.9492,57.5,343.9492,67.5,347.9492,63.5,343.9492" style="stroke:#181818;stroke-width:1.0;"/><line style="stroke:#181818;stroke-width:1.0;stroke-dasharray:2.0,2.0;" x1="61.5" x2="675.5" y1="343.9492" y2="343.9492"/><text fill="#000000" font-family="sans-serif" font-size="13" lengthAdjust="spacing" textLength="142" x="73.5" y="338.6865">Ask for the question text</text><polygon fill="#181818" points="659.5,371.2402,669.5,375.2402,659.5,379.2402,663.5,375.2402" style="stroke:#181818;stroke-width:1.0;"/><line style="stroke:#181818;stroke-width:1.0;" x1="56.5" x2="665.5" y1="375.2402" y2="375.2402"/><text fill="#000000" font-family="sans-serif" font-size="13" lengthAdjust="spacing" textLength="132" x="63.5" y="369.9775">Enter the question text</text><polygon fill="#181818" points="67.5,402.5313,57.5,406.5313,67.5,410.5313,63.5,406.5313" style="stroke:#181818;stroke-width:1.0;"/><line style="stroke:#181818;stroke-width:1.0;stroke-dasharray:2.0,2.0;" x1="61.5" x2="675.5" y1="406.5313" y2="406.5313"/><text fill="#000000" font-family="sans-serif" font-size="13" lengthAdjust="spacing" textLength="229" x="73.5" y="401.2686">Ask if he wants to add another question</text><line style="stroke:#181818;stroke-width:1.0;" x1="676.5" x2="718.5" y1="449.8223" y2="449.8223"/><line style="stroke:#181818;stroke-width:1.0;" x1="718.5" x2="718.5" y1="449.8223" y2="462.8223"/><line style="stroke:#181818;stroke-width:1.0;" x1="671.5" x2="718.5" y1="462.8223" y2="462.8223"/><polygon fill="#181818" points="681.5,458.8223,671.5,462.8223,681.5,466.8223,677.5,462.8223" style="stroke:#181818;stroke-width:1.0;"/><text fill="#000000" font-family="sans-serif" font-size="13" lengthAdjust="spacing" textLength="266" x="683.5" y="444.5596">Create the file with the questions and answers</text><!--SRC=[dLDDJyCm3BtlLrYSWH-m0n92t90uJEBkfMvhBKr2xAtit-EaOnyQ7H8zfSwpdz-p8niE2JCECCGGNP_ZGA1vImivtYHq6-nefNjFaCafXiwV0wJ79euSEcZH2oqMw3HcU4-KiHnGuBb45WPNTfmmADmjLtjH6kxAzNIiYRn3fGCUxAidU7WwO9Rm5ZiEzUg8_ac7mpVzdoTzeEUcG7tDla8Qj18juTdxE5ffHoAW4RGdM9i3iMtP4M1AdXqgnm0ZQmzkAsgcPHWmc4iPJFN08WQGIjFGhtrUwLgHDsyhNqorlh5t58g9nXiQeAyKimA2uPClKQKlXPPjBbClXffaOf2Hia2ppMKk6823KjunZO_ptlaO4unzgNSbQxIXLKEmQU1pIw97XJVCb0sq9lC73xfFT0_OMY-sDjFI87WMXTW2xf0zhet-8k74CkFbNtvUL3jcp9QwhUMoe0tWNzszbd7SgFMFvhW5AtSn9mpHA4x-tsYrH2aqlox7_BjwoLJtq8XFQtYkIkhc7jPnvZsSHQgSRm00]--></g></svg>