<?xml version="1.0" encoding="us-ascii" standalone="no"?><svg xmlns="http://www.w3.org/2000/svg" xmlns:xlink="http://www.w3.org/1999/xlink" contentStyleType="text/css" height="450px" preserveAspectRatio="none" style="width:469px;height:450px;background:#FFFFFF;" version="1.1" viewBox="0 0 469 450" width="469px" zoomAndPan="magnify"><defs/><g><text fill="#000000" font-family="sans-serif" font-size="14" font-weight="bold" lengthAdjust="spacing" textLength="285" x="93.25" y="30.1074">System Sequence Diagram (SSD) - UC015</text><rect fill="#FFFFFF" height="223.668" style="stroke:#181818;stroke-width:1.0;" width="10" x="76.5" y="133.2422"/><rect fill="#FFFFFF" height="31.291" style="stroke:#181818;stroke-width:1.0;" width="10" x="415.5" y="156.5332"/><rect fill="#FFFFFF" height="137.7949" style="stroke:#181818;stroke-width:1.0;" width="10" x="415.5" y="219.1152"/><rect fill="none" height="115.7949" style="stroke:#000000;stroke-width:1.5;" width="452.5" x="10" y="234.1152"/><line style="stroke:#181818;stroke-width:0.5;stroke-dasharray:5.0,5.0;" x1="81" x2="81" y1="123.2422" y2="366.9102"/><line style="stroke:#181818;stroke-width:0.5;stroke-dasharray:5.0,5.0;" x1="420.5" x2="420.5" y1="123.2422" y2="366.9102"/><text fill="#000000" font-family="sans-serif" font-size="14" lengthAdjust="spacing" textLength="117" x="20" y="119.7285">CustomerManager</text><ellipse cx="81.5" cy="53.1211" fill="#E3E3E3" rx="8" ry="8" style="stroke:#181818;stroke-width:0.5;"/><path d="M81.5,61.1211 L81.5,88.1211 M68.5,69.1211 L94.5,69.1211 M81.5,88.1211 L68.5,103.1211 M81.5,88.1211 L94.5,103.1211 " fill="none" style="stroke:#181818;stroke-width:0.5;"/><text fill="#000000" font-family="sans-serif" font-size="14" lengthAdjust="spacing" textLength="117" x="20" y="381.0176">CustomerManager</text><ellipse cx="81.5" cy="393.0313" fill="#E3E3E3" rx="8" ry="8" style="stroke:#181818;stroke-width:0.5;"/><path d="M81.5,401.0313 L81.5,428.0313 M68.5,409.0313 L94.5,409.0313 M81.5,428.0313 L68.5,443.0313 M81.5,428.0313 L94.5,443.0313 " fill="none" style="stroke:#181818;stroke-width:0.5;"/><rect fill="#E3E3E3" height="32.6211" rx="2.5" ry="2.5" style="stroke:#181818;stroke-width:0.5;" width="64" x="388.5" y="89.6211"/><text fill="#000000" font-family="sans-serif" font-size="14" lengthAdjust="spacing" textLength="50" x="395.5" y="111.7285">:System</text><rect fill="#E3E3E3" height="32.6211" rx="2.5" ry="2.5" style="stroke:#181818;stroke-width:0.5;" width="64" x="388.5" y="365.9102"/><text fill="#000000" font-family="sans-serif" font-size="14" lengthAdjust="spacing" textLength="50" x="395.5" y="388.0176">:System</text><rect fill="#FFFFFF" height="223.668" style="stroke:#181818;stroke-width:1.0;" width="10" x="76.5" y="133.2422"/><rect fill="#FFFFFF" height="31.291" style="stroke:#181818;stroke-width:1.0;" width="10" x="415.5" y="156.5332"/><rect fill="#FFFFFF" height="137.7949" style="stroke:#181818;stroke-width:1.0;" width="10" x="415.5" y="219.1152"/><polygon fill="#181818" points="403.5,152.5332,413.5,156.5332,403.5,160.5332,407.5,156.5332" style="stroke:#181818;stroke-width:1.0;"/><line style="stroke:#181818;stroke-width:1.0;" x1="86.5" x2="409.5" y1="156.5332" y2="156.5332"/><text fill="#000000" font-family="sans-serif" font-size="13" lengthAdjust="spacing" textLength="310" x="93.5" y="151.2705">want to display details candidates with application list</text><polygon fill="#181818" points="97.5,183.8242,87.5,187.8242,97.5,191.8242,93.5,187.8242" style="stroke:#181818;stroke-width:1.0;"/><line style="stroke:#181818;stroke-width:1.0;stroke-dasharray:2.0,2.0;" x1="91.5" x2="419.5" y1="187.8242" y2="187.8242"/><text fill="#000000" font-family="sans-serif" font-size="13" lengthAdjust="spacing" textLength="122" x="103.5" y="182.5615">request for username</text><polygon fill="#181818" points="403.5,215.1152,413.5,219.1152,403.5,223.1152,407.5,219.1152" style="stroke:#181818;stroke-width:1.0;"/><line style="stroke:#181818;stroke-width:1.0;" x1="86.5" x2="409.5" y1="219.1152" y2="219.1152"/><text fill="#000000" font-family="sans-serif" font-size="13" lengthAdjust="spacing" textLength="89" x="93.5" y="213.8525">send username</text><path d="M10,234.1152 L71,234.1152 L71,243.4063 L61,253.4063 L10,253.4063 L10,234.1152 " fill="#EEEEEE" style="stroke:#000000;stroke-width:1.5;"/><rect fill="none" height="115.7949" style="stroke:#000000;stroke-width:1.5;" width="452.5" x="10" y="234.1152"/><text fill="#000000" font-family="sans-serif" font-size="13" font-weight="bold" lengthAdjust="spacing" textLength="16" x="25" y="249.1436">alt</text><text fill="#000000" font-family="sans-serif" font-size="11" font-weight="bold" lengthAdjust="spacing" textLength="98" x="86" y="247.9854">[successful case]</text><polygon fill="#181818" points="97.5,289.9883,87.5,293.9883,97.5,297.9883,93.5,293.9883" style="stroke:#181818;stroke-width:1.0;"/><line style="stroke:#181818;stroke-width:1.0;stroke-dasharray:2.0,2.0;" x1="91.5" x2="414.5" y1="293.9883" y2="293.9883"/><text fill="#000000" font-family="sans-serif" font-size="13" lengthAdjust="spacing" textLength="208" x="103.5" y="271.4346">display personal data of a candidate</text><text fill="#000000" font-family="sans-serif" font-size="13" lengthAdjust="spacing" textLength="171" x="103.5" y="288.7256">including his/her applications.</text><line style="stroke:#000000;stroke-width:1.0;stroke-dasharray:2.0,2.0;" x1="10" x2="462.5" y1="302.9883" y2="302.9883"/><text fill="#000000" font-family="sans-serif" font-size="11" font-weight="bold" lengthAdjust="spacing" textLength="72" x="15" y="314.8584">[failure case]</text><polygon fill="#181818" points="97.5,337.9102,87.5,341.9102,97.5,345.9102,93.5,341.9102" style="stroke:#181818;stroke-width:1.0;"/><line style="stroke:#181818;stroke-width:1.0;stroke-dasharray:2.0,2.0;" x1="91.5" x2="414.5" y1="341.9102" y2="341.9102"/><text fill="#000000" font-family="sans-serif" font-size="13" lengthAdjust="spacing" textLength="223" x="103.5" y="336.6475">show message "No candidates found."</text><!--SRC=[XL8zKyCm3DtpAtITO6Y1WQK3Ixg69SV6ehELnbT73fPCh_yUXPOsV5pHPaj-x-azooxmY1a7618dr-Sq46WkLCcvCwBRuPPQFKI2J4wHjt4-83twj0-yXGwZK5LfK1jj3w8qG4jlXTWHR09kf_6RjjtSmX9Uwlk7nmgTfWnr4JNgt20RLGOKg9jgQePtLFeym5Hr0yidMAoFu0jOmnvPGHFu86F40tXI35708VlWxR70FcWFE8unEDIG668GFG6UASwOfyPK5vwbiTRDslQtRKIXCz55A3CET7hWwIhMR-L2x7-2N8N0g235EHBfIhGDXMRTlmL_sJ9IbiGOmIn1I1tWnI5uvS0k5Zzbs0UvwwS8Bdx9wZiBMSgMTOWbqr75FoAaJtiOJBQ52uldD0-dIuNzQhwcsNBDqTcjVOiF]--></g></svg>