<?xml version="1.0" encoding="us-ascii" standalone="no"?><svg xmlns="http://www.w3.org/2000/svg" xmlns:xlink="http://www.w3.org/1999/xlink" contentStyleType="text/css" height="1461px" preserveAspectRatio="none" style="width:2471px;height:1461px;background:#FFFFFF;" version="1.1" viewBox="0 0 2471 1461" width="2471px" zoomAndPan="magnify"><defs/><g><text fill="#000000" font-family="sans-serif" font-size="14" font-weight="bold" lengthAdjust="spacing" textLength="222" x="1124.25" y="30.1074">Sequence Diagram (SD) - UC016</text><rect fill="#FFFFFF" height="1215.4766" style="stroke:#181818;stroke-width:1.0;" width="10" x="76.5" y="137.8633"/><rect fill="#FFFFFF" height="187.7461" style="stroke:#181818;stroke-width:1.0;" width="10" x="418.5" y="161.1543"/><rect fill="#FFFFFF" height="31.291" style="stroke:#181818;stroke-width:1.0;" width="10" x="418.5" y="380.1914"/><rect fill="#FFFFFF" height="31.291" style="stroke:#181818;stroke-width:1.0;" width="10" x="418.5" y="442.7734"/><rect fill="#FFFFFF" height="127.1641" style="stroke:#181818;stroke-width:1.0;" width="10" x="418.5" y="505.3555"/><rect fill="#FFFFFF" height="31.291" style="stroke:#181818;stroke-width:1.0;" width="10" x="418.5" y="663.8105"/><rect fill="#FFFFFF" height="617.9473" style="stroke:#181818;stroke-width:1.0;" width="10" x="418.5" y="726.3926"/><rect fill="#FFFFFF" height="28" style="stroke:#181818;stroke-width:1.0;" width="10" x="423.5" y="765.6836"/><rect fill="#FFFFFF" height="125.1641" style="stroke:#181818;stroke-width:1.0;" width="10" x="943.5" y="192.4453"/><rect fill="#FFFFFF" height="481.0742" style="stroke:#181818;stroke-width:1.0;" width="10" x="943.5" y="831.9746"/><rect fill="#FFFFFF" height="62.582" style="stroke:#181818;stroke-width:1.0;" width="10" x="1256.5" y="223.7363"/><rect fill="#FFFFFF" height="31.291" style="stroke:#181818;stroke-width:1.0;" width="10" x="1256.5" y="863.2656"/><rect fill="#FFFFFF" height="355.9102" style="stroke:#181818;stroke-width:1.0;" width="10" x="1256.5" y="925.8477"/><rect fill="#FFFFFF" height="31.291" style="stroke:#181818;stroke-width:1.0;" width="10" x="1636.5" y="957.1387"/><rect fill="#FFFFFF" height="31.291" style="stroke:#181818;stroke-width:1.0;" width="10" x="1636.5" y="1019.7207"/><rect fill="#FFFFFF" height="31.291" style="stroke:#181818;stroke-width:1.0;" width="10" x="1963.5" y="1082.3027"/><rect fill="#FFFFFF" height="105.582" style="stroke:#181818;stroke-width:1.0;" width="10" x="2113.5" y="1144.8848"/><rect fill="#FFFFFF" height="28" style="stroke:#181818;stroke-width:1.0;" width="10" x="2118.5" y="1184.1758"/><rect fill="none" height="81.873" style="stroke:#000000;stroke-width:1.5;" width="521" x="10" y="520.3555"/><line style="stroke:#181818;stroke-width:0.5;stroke-dasharray:5.0,5.0;" x1="81" x2="81" y1="127.8633" y2="1362.3398"/><line style="stroke:#181818;stroke-width:0.5;stroke-dasharray:5.0,5.0;" x1="423" x2="423" y1="127.8633" y2="1362.3398"/><line style="stroke:#181818;stroke-width:0.5;stroke-dasharray:5.0,5.0;" x1="948" x2="948" y1="127.8633" y2="1362.3398"/><line style="stroke:#181818;stroke-width:0.5;stroke-dasharray:5.0,5.0;" x1="1261" x2="1261" y1="127.8633" y2="1362.3398"/><line style="stroke:#181818;stroke-width:0.5;stroke-dasharray:5.0,5.0;" x1="1641.5" x2="1641.5" y1="127.8633" y2="1362.3398"/><line style="stroke:#181818;stroke-width:0.5;stroke-dasharray:5.0,5.0;" x1="1807.5" x2="1807.5" y1="127.8633" y2="1362.3398"/><line style="stroke:#181818;stroke-width:0.5;stroke-dasharray:5.0,5.0;" x1="1968.5" x2="1968.5" y1="127.8633" y2="1362.3398"/><line style="stroke:#181818;stroke-width:0.5;stroke-dasharray:5.0,5.0;" x1="2118.5" x2="2118.5" y1="127.8633" y2="1362.3398"/><text fill="#000000" font-family="sans-serif" font-size="14" lengthAdjust="spacing" textLength="117" x="20" y="124.3496">CustomerManager</text><ellipse cx="81.5" cy="57.7422" fill="#E2E2F0" rx="8" ry="8" style="stroke:#181818;stroke-width:0.5;"/><path d="M81.5,65.7422 L81.5,92.7422 M68.5,73.7422 L94.5,73.7422 M81.5,92.7422 L68.5,107.7422 M81.5,92.7422 L94.5,107.7422 " fill="none" style="stroke:#181818;stroke-width:0.5;"/><text fill="#000000" font-family="sans-serif" font-size="14" lengthAdjust="spacing" textLength="117" x="20" y="1376.4473">CustomerManager</text><ellipse cx="81.5" cy="1388.4609" fill="#E2E2F0" rx="8" ry="8" style="stroke:#181818;stroke-width:0.5;"/><path d="M81.5,1396.4609 L81.5,1423.4609 M68.5,1404.4609 L94.5,1404.4609 M81.5,1423.4609 L68.5,1438.4609 M81.5,1423.4609 L94.5,1438.4609 " fill="none" style="stroke:#181818;stroke-width:0.5;"/><rect fill="#E2E2F0" height="51.2422" rx="2.5" ry="2.5" style="stroke:#181818;stroke-width:0.5;" width="195" x="326" y="75.6211"/><text fill="#000000" font-family="sans-serif" font-size="14" font-style="italic" lengthAdjust="spacing" textLength="95" x="376" y="97.7285">&#171;presentation&#187;</text><text fill="#000000" font-family="sans-serif" font-size="14" lengthAdjust="spacing" textLength="181" x="333" y="116.3496">: SetUpJobOpeningPhasesUI</text><rect fill="#E2E2F0" height="51.2422" rx="2.5" ry="2.5" style="stroke:#181818;stroke-width:0.5;" width="195" x="326" y="1361.3398"/><text fill="#000000" font-family="sans-serif" font-size="14" font-style="italic" lengthAdjust="spacing" textLength="95" x="376" y="1383.4473">&#171;presentation&#187;</text><text fill="#000000" font-family="sans-serif" font-size="14" lengthAdjust="spacing" textLength="181" x="333" y="1402.0684">: SetUpJobOpeningPhasesUI</text><rect fill="#E2E2F0" height="51.2422" rx="2.5" ry="2.5" style="stroke:#181818;stroke-width:0.5;" width="169" x="864" y="75.6211"/><text fill="#000000" font-family="sans-serif" font-size="14" font-style="italic" lengthAdjust="spacing" textLength="84" x="906.5" y="97.7285">&#171;application&#187;</text><text fill="#000000" font-family="sans-serif" font-size="14" lengthAdjust="spacing" textLength="155" x="871" y="116.3496">: SetUpPhasesController</text><rect fill="#E2E2F0" height="51.2422" rx="2.5" ry="2.5" style="stroke:#181818;stroke-width:0.5;" width="169" x="864" y="1361.3398"/><text fill="#000000" font-family="sans-serif" font-size="14" font-style="italic" lengthAdjust="spacing" textLength="84" x="906.5" y="1383.4473">&#171;application&#187;</text><text fill="#000000" font-family="sans-serif" font-size="14" lengthAdjust="spacing" textLength="155" x="871" y="1402.0684">: SetUpPhasesController</text><rect fill="#E2E2F0" height="51.2422" rx="2.5" ry="2.5" style="stroke:#181818;stroke-width:0.5;" width="227" x="1148" y="75.6211"/><text fill="#000000" font-family="sans-serif" font-size="14" font-style="italic" lengthAdjust="spacing" textLength="60" x="1231.5" y="97.7285">&#171;service&#187;</text><text fill="#000000" font-family="sans-serif" font-size="14" lengthAdjust="spacing" textLength="213" x="1155" y="116.3496">: JobOpeningManagementService</text><rect fill="#E2E2F0" height="51.2422" rx="2.5" ry="2.5" style="stroke:#181818;stroke-width:0.5;" width="227" x="1148" y="1361.3398"/><text fill="#000000" font-family="sans-serif" font-size="14" font-style="italic" lengthAdjust="spacing" textLength="60" x="1231.5" y="1383.4473">&#171;service&#187;</text><text fill="#000000" font-family="sans-serif" font-size="14" lengthAdjust="spacing" textLength="213" x="1155" y="1402.0684">: JobOpeningManagementService</text><rect fill="#E2E2F0" height="51.2422" rx="2.5" ry="2.5" style="stroke:#181818;stroke-width:0.5;" width="142" x="1570.5" y="75.6211"/><text fill="#000000" font-family="sans-serif" font-size="14" font-style="italic" lengthAdjust="spacing" textLength="59" x="1612" y="97.7285">&#171;factory&#187;</text><text fill="#000000" font-family="sans-serif" font-size="14" lengthAdjust="spacing" textLength="128" x="1577.5" y="116.3496">: JobOpeningBuilder</text><rect fill="#E2E2F0" height="51.2422" rx="2.5" ry="2.5" style="stroke:#181818;stroke-width:0.5;" width="142" x="1570.5" y="1361.3398"/><text fill="#000000" font-family="sans-serif" font-size="14" font-style="italic" lengthAdjust="spacing" textLength="59" x="1612" y="1383.4473">&#171;factory&#187;</text><text fill="#000000" font-family="sans-serif" font-size="14" lengthAdjust="spacing" textLength="128" x="1577.5" y="1402.0684">: JobOpeningBuilder</text><text fill="#000000" font-family="sans-serif" font-size="14" font-style="italic" lengthAdjust="spacing" textLength="50" x="1780" y="105.7285">&#171;entity&#187;</text><text fill="#000000" font-family="sans-serif" font-size="14" lengthAdjust="spacing" textLength="165" x="1722.5" y="124.3496">jobOpening :  JobOpening</text><ellipse cx="1808" cy="74.6211" fill="#E2E2F0" rx="12" ry="12" style="stroke:#181818;stroke-width:0.5;"/><line style="stroke:#181818;stroke-width:0.5;" x1="1796" x2="1820" y1="88.6211" y2="88.6211"/><text fill="#000000" font-family="sans-serif" font-size="14" font-style="italic" lengthAdjust="spacing" textLength="50" x="1780" y="1376.4473">&#171;entity&#187;</text><text fill="#000000" font-family="sans-serif" font-size="14" lengthAdjust="spacing" textLength="165" x="1722.5" y="1395.0684">jobOpening :  JobOpening</text><ellipse cx="1808" cy="1414.582" fill="#E2E2F0" rx="12" ry="12" style="stroke:#181818;stroke-width:0.5;"/><line style="stroke:#181818;stroke-width:0.5;" x1="1796" x2="1820" y1="1428.582" y2="1428.582"/><rect fill="#E2E2F0" height="51.2422" rx="2.5" ry="2.5" style="stroke:#181818;stroke-width:0.5;" width="130" x="1903.5" y="75.6211"/><text fill="#000000" font-family="sans-serif" font-size="14" font-style="italic" lengthAdjust="spacing" textLength="59" x="1939" y="97.7285">&#171;factory&#187;</text><text fill="#000000" font-family="sans-serif" font-size="14" lengthAdjust="spacing" textLength="116" x="1910.5" y="116.3496">RepositoryFactory</text><rect fill="#E2E2F0" height="51.2422" rx="2.5" ry="2.5" style="stroke:#181818;stroke-width:0.5;" width="130" x="1903.5" y="1361.3398"/><text fill="#000000" font-family="sans-serif" font-size="14" font-style="italic" lengthAdjust="spacing" textLength="59" x="1939" y="1383.4473">&#171;factory&#187;</text><text fill="#000000" font-family="sans-serif" font-size="14" lengthAdjust="spacing" textLength="116" x="1910.5" y="1402.0684">RepositoryFactory</text><text fill="#000000" font-family="sans-serif" font-size="14" font-style="italic" lengthAdjust="spacing" textLength="79" x="2076" y="105.7285">&#171;repository&#187;</text><text fill="#000000" font-family="sans-serif" font-size="14" lengthAdjust="spacing" textLength="144" x="2043.5" y="124.3496">JobOpeningRepository</text><path d="M2100.5,54.6211 C2100.5,44.6211 2118.5,44.6211 2118.5,44.6211 C2118.5,44.6211 2136.5,44.6211 2136.5,54.6211 L2136.5,80.6211 C2136.5,90.6211 2118.5,90.6211 2118.5,90.6211 C2118.5,90.6211 2100.5,90.6211 2100.5,80.6211 L2100.5,54.6211 " fill="#E2E2F0" style="stroke:#181818;stroke-width:1.5;"/><path d="M2100.5,54.6211 C2100.5,64.6211 2118.5,64.6211 2118.5,64.6211 C2118.5,64.6211 2136.5,64.6211 2136.5,54.6211 " fill="none" style="stroke:#181818;stroke-width:1.5;"/><text fill="#000000" font-family="sans-serif" font-size="14" font-style="italic" lengthAdjust="spacing" textLength="79" x="2076" y="1376.4473">&#171;repository&#187;</text><text fill="#000000" font-family="sans-serif" font-size="14" lengthAdjust="spacing" textLength="144" x="2043.5" y="1395.0684">JobOpeningRepository</text><path d="M2100.5,1408.582 C2100.5,1398.582 2118.5,1398.582 2118.5,1398.582 C2118.5,1398.582 2136.5,1398.582 2136.5,1408.582 L2136.5,1434.582 C2136.5,1444.582 2118.5,1444.582 2118.5,1444.582 C2118.5,1444.582 2100.5,1444.582 2100.5,1434.582 L2100.5,1408.582 " fill="#E2E2F0" style="stroke:#181818;stroke-width:1.5;"/><path d="M2100.5,1408.582 C2100.5,1418.582 2118.5,1418.582 2118.5,1418.582 C2118.5,1418.582 2136.5,1418.582 2136.5,1408.582 " fill="none" style="stroke:#181818;stroke-width:1.5;"/><rect fill="#FFFFFF" height="1215.4766" style="stroke:#181818;stroke-width:1.0;" width="10" x="76.5" y="137.8633"/><rect fill="#FFFFFF" height="187.7461" style="stroke:#181818;stroke-width:1.0;" width="10" x="418.5" y="161.1543"/><rect fill="#FFFFFF" height="31.291" style="stroke:#181818;stroke-width:1.0;" width="10" x="418.5" y="380.1914"/><rect fill="#FFFFFF" height="31.291" style="stroke:#181818;stroke-width:1.0;" width="10" x="418.5" y="442.7734"/><rect fill="#FFFFFF" height="127.1641" style="stroke:#181818;stroke-width:1.0;" width="10" x="418.5" y="505.3555"/><rect fill="#FFFFFF" height="31.291" style="stroke:#181818;stroke-width:1.0;" width="10" x="418.5" y="663.8105"/><rect fill="#FFFFFF" height="617.9473" style="stroke:#181818;stroke-width:1.0;" width="10" x="418.5" y="726.3926"/><rect fill="#FFFFFF" height="28" style="stroke:#181818;stroke-width:1.0;" width="10" x="423.5" y="765.6836"/><rect fill="#FFFFFF" height="125.1641" style="stroke:#181818;stroke-width:1.0;" width="10" x="943.5" y="192.4453"/><rect fill="#FFFFFF" height="481.0742" style="stroke:#181818;stroke-width:1.0;" width="10" x="943.5" y="831.9746"/><rect fill="#FFFFFF" height="62.582" style="stroke:#181818;stroke-width:1.0;" width="10" x="1256.5" y="223.7363"/><rect fill="#FFFFFF" height="31.291" style="stroke:#181818;stroke-width:1.0;" width="10" x="1256.5" y="863.2656"/><rect fill="#FFFFFF" height="355.9102" style="stroke:#181818;stroke-width:1.0;" width="10" x="1256.5" y="925.8477"/><rect fill="#FFFFFF" height="31.291" style="stroke:#181818;stroke-width:1.0;" width="10" x="1636.5" y="957.1387"/><rect fill="#FFFFFF" height="31.291" style="stroke:#181818;stroke-width:1.0;" width="10" x="1636.5" y="1019.7207"/><rect fill="#FFFFFF" height="31.291" style="stroke:#181818;stroke-width:1.0;" width="10" x="1963.5" y="1082.3027"/><rect fill="#FFFFFF" height="105.582" style="stroke:#181818;stroke-width:1.0;" width="10" x="2113.5" y="1144.8848"/><rect fill="#FFFFFF" height="28" style="stroke:#181818;stroke-width:1.0;" width="10" x="2118.5" y="1184.1758"/><polygon fill="#181818" points="406.5,157.1543,416.5,161.1543,406.5,165.1543,410.5,161.1543" style="stroke:#181818;stroke-width:1.0;"/><line style="stroke:#181818;stroke-width:1.0;" x1="86.5" x2="412.5" y1="161.1543" y2="161.1543"/><text fill="#000000" font-family="sans-serif" font-size="13" font-weight="bold" lengthAdjust="spacing" textLength="7" x="93.5" y="155.8916">0</text><text fill="#000000" font-family="sans-serif" font-size="13" lengthAdjust="spacing" textLength="302" x="104.5" y="155.8916">want to setup the phases of the job opening process</text><polygon fill="#181818" points="931.5,188.4453,941.5,192.4453,931.5,196.4453,935.5,192.4453" style="stroke:#181818;stroke-width:1.0;"/><line style="stroke:#181818;stroke-width:1.0;" x1="428.5" x2="937.5" y1="192.4453" y2="192.4453"/><text fill="#000000" font-family="sans-serif" font-size="13" font-weight="bold" lengthAdjust="spacing" textLength="7" x="435.5" y="187.1826">1</text><text fill="#000000" font-family="sans-serif" font-size="13" lengthAdjust="spacing" textLength="169" x="446.5" y="187.1826">obtainJobOpeningsAvailable()</text><polygon fill="#181818" points="1244.5,219.7363,1254.5,223.7363,1244.5,227.7363,1248.5,223.7363" style="stroke:#181818;stroke-width:1.0;"/><line style="stroke:#181818;stroke-width:1.0;" x1="953.5" x2="1250.5" y1="223.7363" y2="223.7363"/><text fill="#000000" font-family="sans-serif" font-size="13" font-weight="bold" lengthAdjust="spacing" textLength="7" x="960.5" y="218.4736">2</text><text fill="#000000" font-family="sans-serif" font-size="13" lengthAdjust="spacing" textLength="43" x="971.5" y="218.4736">findAll()</text><polygon fill="#181818" points="2106.5,251.0273,2116.5,255.0273,2106.5,259.0273,2110.5,255.0273" style="stroke:#181818;stroke-width:1.0;"/><line style="stroke:#181818;stroke-width:1.0;" x1="1266.5" x2="2112.5" y1="255.0273" y2="255.0273"/><text fill="#000000" font-family="sans-serif" font-size="13" font-weight="bold" lengthAdjust="spacing" textLength="7" x="1273.5" y="249.7646">3</text><text fill="#000000" font-family="sans-serif" font-size="13" lengthAdjust="spacing" textLength="52" x="1284.5" y="249.7646">select all</text><polygon fill="#181818" points="964.5,282.3184,954.5,286.3184,964.5,290.3184,960.5,286.3184" style="stroke:#181818;stroke-width:1.0;"/><line style="stroke:#181818;stroke-width:1.0;stroke-dasharray:2.0,2.0;" x1="958.5" x2="1260.5" y1="286.3184" y2="286.3184"/><text fill="#000000" font-family="sans-serif" font-size="13" font-weight="bold" lengthAdjust="spacing" textLength="7" x="970.5" y="281.0557">4</text><text fill="#000000" font-family="sans-serif" font-size="13" lengthAdjust="spacing" textLength="72" x="981.5" y="281.0557">jobOpenings</text><polygon fill="#181818" points="439.5,313.6094,429.5,317.6094,439.5,321.6094,435.5,317.6094" style="stroke:#181818;stroke-width:1.0;"/><line style="stroke:#181818;stroke-width:1.0;stroke-dasharray:2.0,2.0;" x1="433.5" x2="947.5" y1="317.6094" y2="317.6094"/><text fill="#000000" font-family="sans-serif" font-size="13" font-weight="bold" lengthAdjust="spacing" textLength="7" x="445.5" y="312.3467">5</text><text fill="#000000" font-family="sans-serif" font-size="13" lengthAdjust="spacing" textLength="72" x="456.5" y="312.3467">jobOpenings</text><polygon fill="#181818" points="97.5,344.9004,87.5,348.9004,97.5,352.9004,93.5,348.9004" style="stroke:#181818;stroke-width:1.0;"/><line style="stroke:#181818;stroke-width:1.0;stroke-dasharray:2.0,2.0;" x1="91.5" x2="422.5" y1="348.9004" y2="348.9004"/><text fill="#000000" font-family="sans-serif" font-size="13" font-weight="bold" lengthAdjust="spacing" textLength="7" x="103.5" y="343.6377">6</text><text fill="#000000" font-family="sans-serif" font-size="13" lengthAdjust="spacing" textLength="146" x="114.5" y="343.6377">show list of job openings.</text><polygon fill="#181818" points="406.5,376.1914,416.5,380.1914,406.5,384.1914,410.5,380.1914" style="stroke:#181818;stroke-width:1.0;"/><line style="stroke:#181818;stroke-width:1.0;" x1="86.5" x2="412.5" y1="380.1914" y2="380.1914"/><text fill="#000000" font-family="sans-serif" font-size="13" font-weight="bold" lengthAdjust="spacing" textLength="7" x="93.5" y="374.9287">7</text><text fill="#000000" font-family="sans-serif" font-size="13" lengthAdjust="spacing" textLength="116" x="104.5" y="374.9287">select a job opening</text><polygon fill="#181818" points="97.5,407.4824,87.5,411.4824,97.5,415.4824,93.5,411.4824" style="stroke:#181818;stroke-width:1.0;"/><line style="stroke:#181818;stroke-width:1.0;stroke-dasharray:2.0,2.0;" x1="91.5" x2="422.5" y1="411.4824" y2="411.4824"/><text fill="#000000" font-family="sans-serif" font-size="13" font-weight="bold" lengthAdjust="spacing" textLength="7" x="103.5" y="406.2197">8</text><text fill="#000000" font-family="sans-serif" font-size="13" lengthAdjust="spacing" textLength="206" x="114.5" y="406.2197">request date for Application's phase</text><polygon fill="#181818" points="406.5,438.7734,416.5,442.7734,406.5,446.7734,410.5,442.7734" style="stroke:#181818;stroke-width:1.0;"/><line style="stroke:#181818;stroke-width:1.0;" x1="86.5" x2="412.5" y1="442.7734" y2="442.7734"/><text fill="#000000" font-family="sans-serif" font-size="13" font-weight="bold" lengthAdjust="spacing" textLength="7" x="93.5" y="437.5107">9</text><text fill="#000000" font-family="sans-serif" font-size="13" lengthAdjust="spacing" textLength="72" x="104.5" y="437.5107">enters dates</text><polygon fill="#181818" points="97.5,470.0645,87.5,474.0645,97.5,478.0645,93.5,474.0645" style="stroke:#181818;stroke-width:1.0;"/><line style="stroke:#181818;stroke-width:1.0;stroke-dasharray:2.0,2.0;" x1="91.5" x2="422.5" y1="474.0645" y2="474.0645"/><text fill="#000000" font-family="sans-serif" font-size="13" font-weight="bold" lengthAdjust="spacing" textLength="14" x="103.5" y="468.8018">10</text><text fill="#000000" font-family="sans-serif" font-size="13" lengthAdjust="spacing" textLength="200" x="121.5" y="468.8018">request date for Screening's phase</text><polygon fill="#181818" points="406.5,501.3555,416.5,505.3555,406.5,509.3555,410.5,505.3555" style="stroke:#181818;stroke-width:1.0;"/><line style="stroke:#181818;stroke-width:1.0;" x1="86.5" x2="412.5" y1="505.3555" y2="505.3555"/><text fill="#000000" font-family="sans-serif" font-size="13" font-weight="bold" lengthAdjust="spacing" textLength="14" x="93.5" y="500.0928">11</text><text fill="#000000" font-family="sans-serif" font-size="13" lengthAdjust="spacing" textLength="72" x="111.5" y="500.0928">enters dates</text><path d="M10,520.3555 L71,520.3555 L71,529.6465 L61,539.6465 L10,539.6465 L10,520.3555 " fill="#EEEEEE" style="stroke:#000000;stroke-width:1.5;"/><rect fill="none" height="81.873" style="stroke:#000000;stroke-width:1.5;" width="521" x="10" y="520.3555"/><text fill="#000000" font-family="sans-serif" font-size="13" font-weight="bold" lengthAdjust="spacing" textLength="16" x="25" y="535.3838">alt</text><text fill="#000000" font-family="sans-serif" font-size="11" font-weight="bold" lengthAdjust="spacing" textLength="97" x="86" y="534.2256">[exists Interview]</text><polygon fill="#181818" points="97.5,558.9375,87.5,562.9375,97.5,566.9375,93.5,562.9375" style="stroke:#181818;stroke-width:1.0;"/><line style="stroke:#181818;stroke-width:1.0;stroke-dasharray:2.0,2.0;" x1="91.5" x2="417.5" y1="562.9375" y2="562.9375"/><text fill="#000000" font-family="sans-serif" font-size="13" font-weight="bold" lengthAdjust="spacing" textLength="14" x="103.5" y="557.6748">12</text><text fill="#000000" font-family="sans-serif" font-size="13" lengthAdjust="spacing" textLength="191" x="121.5" y="557.6748">request date for Interview's phase</text><polygon fill="#181818" points="406.5,590.2285,416.5,594.2285,406.5,598.2285,410.5,594.2285" style="stroke:#181818;stroke-width:1.0;"/><line style="stroke:#181818;stroke-width:1.0;" x1="86.5" x2="412.5" y1="594.2285" y2="594.2285"/><text fill="#000000" font-family="sans-serif" font-size="13" font-weight="bold" lengthAdjust="spacing" textLength="14" x="93.5" y="588.9658">13</text><text fill="#000000" font-family="sans-serif" font-size="13" lengthAdjust="spacing" textLength="72" x="111.5" y="588.9658">enters dates</text><polygon fill="#181818" points="97.5,628.5195,87.5,632.5195,97.5,636.5195,93.5,632.5195" style="stroke:#181818;stroke-width:1.0;"/><line style="stroke:#181818;stroke-width:1.0;stroke-dasharray:2.0,2.0;" x1="91.5" x2="422.5" y1="632.5195" y2="632.5195"/><text fill="#000000" font-family="sans-serif" font-size="13" font-weight="bold" lengthAdjust="spacing" textLength="14" x="103.5" y="627.2568">14</text><text fill="#000000" font-family="sans-serif" font-size="13" lengthAdjust="spacing" textLength="185" x="121.5" y="627.2568">request date for Analysis' phase</text><polygon fill="#181818" points="406.5,659.8105,416.5,663.8105,406.5,667.8105,410.5,663.8105" style="stroke:#181818;stroke-width:1.0;"/><line style="stroke:#181818;stroke-width:1.0;" x1="86.5" x2="412.5" y1="663.8105" y2="663.8105"/><text fill="#000000" font-family="sans-serif" font-size="13" font-weight="bold" lengthAdjust="spacing" textLength="14" x="93.5" y="658.5479">15</text><text fill="#000000" font-family="sans-serif" font-size="13" lengthAdjust="spacing" textLength="72" x="111.5" y="658.5479">enters dates</text><polygon fill="#181818" points="97.5,691.1016,87.5,695.1016,97.5,699.1016,93.5,695.1016" style="stroke:#181818;stroke-width:1.0;"/><line style="stroke:#181818;stroke-width:1.0;stroke-dasharray:2.0,2.0;" x1="91.5" x2="422.5" y1="695.1016" y2="695.1016"/><text fill="#000000" font-family="sans-serif" font-size="13" font-weight="bold" lengthAdjust="spacing" textLength="14" x="103.5" y="689.8389">16</text><text fill="#000000" font-family="sans-serif" font-size="13" lengthAdjust="spacing" textLength="179" x="121.5" y="689.8389">request date for Result's phase</text><polygon fill="#181818" points="406.5,722.3926,416.5,726.3926,406.5,730.3926,410.5,726.3926" style="stroke:#181818;stroke-width:1.0;"/><line style="stroke:#181818;stroke-width:1.0;" x1="86.5" x2="412.5" y1="726.3926" y2="726.3926"/><text fill="#000000" font-family="sans-serif" font-size="13" font-weight="bold" lengthAdjust="spacing" textLength="14" x="93.5" y="721.1299">17</text><text fill="#000000" font-family="sans-serif" font-size="13" lengthAdjust="spacing" textLength="72" x="111.5" y="721.1299">enters dates</text><line style="stroke:#181818;stroke-width:1.0;" x1="433.5" x2="475.5" y1="757.6836" y2="757.6836"/><line style="stroke:#181818;stroke-width:1.0;" x1="475.5" x2="475.5" y1="757.6836" y2="770.6836"/><line style="stroke:#181818;stroke-width:1.0;" x1="434.5" x2="475.5" y1="770.6836" y2="770.6836"/><polygon fill="#181818" points="444.5,766.6836,434.5,770.6836,444.5,774.6836,440.5,770.6836" style="stroke:#181818;stroke-width:1.0;"/><text fill="#000000" font-family="sans-serif" font-size="13" font-weight="bold" lengthAdjust="spacing" textLength="14" x="440.5" y="752.4209">18</text><text fill="#000000" font-family="sans-serif" font-size="13" lengthAdjust="spacing" textLength="483" x="458.5" y="752.4209">jobOpeningPhases  = new Map&lt;Phases, Pair&lt;Calendar, Calendar&gt;&gt; with the dates</text><polygon fill="#181818" points="931.5,827.9746,941.5,831.9746,931.5,835.9746,935.5,831.9746" style="stroke:#181818;stroke-width:1.0;"/><line style="stroke:#181818;stroke-width:1.0;" x1="428.5" x2="937.5" y1="831.9746" y2="831.9746"/><text fill="#000000" font-family="sans-serif" font-size="13" font-weight="bold" lengthAdjust="spacing" textLength="14" x="435.5" y="826.7119">19</text><text fill="#000000" font-family="sans-serif" font-size="13" lengthAdjust="spacing" textLength="266" x="453.5" y="826.7119">setupPhases(jobOpening, jobOpeningPhases)</text><polygon fill="#181818" points="1244.5,859.2656,1254.5,863.2656,1244.5,867.2656,1248.5,863.2656" style="stroke:#181818;stroke-width:1.0;"/><line style="stroke:#181818;stroke-width:1.0;" x1="953.5" x2="1250.5" y1="863.2656" y2="863.2656"/><text fill="#000000" font-family="sans-serif" font-size="13" font-weight="bold" lengthAdjust="spacing" textLength="14" x="960.5" y="858.0029">20</text><text fill="#000000" font-family="sans-serif" font-size="13" lengthAdjust="spacing" textLength="213" x="978.5" y="858.0029">new JobOpeningManagmentService()</text><polygon fill="#181818" points="964.5,890.5566,954.5,894.5566,964.5,898.5566,960.5,894.5566" style="stroke:#181818;stroke-width:1.0;"/><line style="stroke:#181818;stroke-width:1.0;stroke-dasharray:2.0,2.0;" x1="958.5" x2="1260.5" y1="894.5566" y2="894.5566"/><text fill="#000000" font-family="sans-serif" font-size="13" font-weight="bold" lengthAdjust="spacing" textLength="14" x="970.5" y="889.2939">21</text><text fill="#000000" font-family="sans-serif" font-size="13" lengthAdjust="spacing" textLength="40" x="988.5" y="889.2939">service</text><polygon fill="#181818" points="1244.5,921.8477,1254.5,925.8477,1244.5,929.8477,1248.5,925.8477" style="stroke:#181818;stroke-width:1.0;"/><line style="stroke:#181818;stroke-width:1.0;" x1="953.5" x2="1250.5" y1="925.8477" y2="925.8477"/><text fill="#000000" font-family="sans-serif" font-size="13" font-weight="bold" lengthAdjust="spacing" textLength="14" x="960.5" y="920.585">22</text><text fill="#000000" font-family="sans-serif" font-size="13" lengthAdjust="spacing" textLength="266" x="978.5" y="920.585">setupPhases(jobOpening, jobOpeningPhases)</text><polygon fill="#181818" points="1624.5,953.1387,1634.5,957.1387,1624.5,961.1387,1628.5,957.1387" style="stroke:#181818;stroke-width:1.0;"/><line style="stroke:#181818;stroke-width:1.0;" x1="1266.5" x2="1630.5" y1="957.1387" y2="957.1387"/><text fill="#000000" font-family="sans-serif" font-size="13" font-weight="bold" lengthAdjust="spacing" textLength="14" x="1273.5" y="951.876">23</text><text fill="#000000" font-family="sans-serif" font-size="13" lengthAdjust="spacing" textLength="75" x="1291.5" y="951.876">new Builder()</text><polygon fill="#181818" points="1277.5,984.4297,1267.5,988.4297,1277.5,992.4297,1273.5,988.4297" style="stroke:#181818;stroke-width:1.0;"/><line style="stroke:#181818;stroke-width:1.0;stroke-dasharray:2.0,2.0;" x1="1271.5" x2="1640.5" y1="988.4297" y2="988.4297"/><text fill="#000000" font-family="sans-serif" font-size="13" font-weight="bold" lengthAdjust="spacing" textLength="14" x="1283.5" y="983.167">24</text><text fill="#000000" font-family="sans-serif" font-size="13" lengthAdjust="spacing" textLength="38" x="1301.5" y="983.167">builder</text><polygon fill="#181818" points="1624.5,1015.7207,1634.5,1019.7207,1624.5,1023.7207,1628.5,1019.7207" style="stroke:#181818;stroke-width:1.0;"/><line style="stroke:#181818;stroke-width:1.0;" x1="1266.5" x2="1630.5" y1="1019.7207" y2="1019.7207"/><text fill="#000000" font-family="sans-serif" font-size="13" font-weight="bold" lengthAdjust="spacing" textLength="14" x="1273.5" y="1014.458">25</text><text fill="#000000" font-family="sans-serif" font-size="13" lengthAdjust="spacing" textLength="333" x="1291.5" y="1014.458">builder.withSetupPhases(jobOpening, jobOpeningPhases)</text><polygon fill="#181818" points="1277.5,1047.0117,1267.5,1051.0117,1277.5,1055.0117,1273.5,1051.0117" style="stroke:#181818;stroke-width:1.0;"/><line style="stroke:#181818;stroke-width:1.0;stroke-dasharray:2.0,2.0;" x1="1271.5" x2="1640.5" y1="1051.0117" y2="1051.0117"/><text fill="#000000" font-family="sans-serif" font-size="13" font-weight="bold" lengthAdjust="spacing" textLength="14" x="1283.5" y="1045.749">26</text><text fill="#000000" font-family="sans-serif" font-size="13" lengthAdjust="spacing" textLength="65" x="1301.5" y="1045.749">jobOpening</text><polygon fill="#181818" points="1951.5,1078.3027,1961.5,1082.3027,1951.5,1086.3027,1955.5,1082.3027" style="stroke:#181818;stroke-width:1.0;"/><line style="stroke:#181818;stroke-width:1.0;" x1="1266.5" x2="1957.5" y1="1082.3027" y2="1082.3027"/><text fill="#000000" font-family="sans-serif" font-size="13" font-weight="bold" lengthAdjust="spacing" textLength="14" x="1273.5" y="1077.04">27</text><text fill="#000000" font-family="sans-serif" font-size="13" lengthAdjust="spacing" textLength="75" x="1291.5" y="1077.04">repositories()</text><polygon fill="#181818" points="1277.5,1109.5938,1267.5,1113.5938,1277.5,1117.5938,1273.5,1113.5938" style="stroke:#181818;stroke-width:1.0;"/><line style="stroke:#181818;stroke-width:1.0;stroke-dasharray:2.0,2.0;" x1="1271.5" x2="1967.5" y1="1113.5938" y2="1113.5938"/><text fill="#000000" font-family="sans-serif" font-size="13" font-weight="bold" lengthAdjust="spacing" textLength="14" x="1283.5" y="1108.3311">28</text><text fill="#000000" font-family="sans-serif" font-size="13" lengthAdjust="spacing" textLength="127" x="1301.5" y="1108.3311">jobOpeningRepository</text><polygon fill="#181818" points="2101.5,1140.8848,2111.5,1144.8848,2101.5,1148.8848,2105.5,1144.8848" style="stroke:#181818;stroke-width:1.0;"/><line style="stroke:#181818;stroke-width:1.0;" x1="1266.5" x2="2107.5" y1="1144.8848" y2="1144.8848"/><text fill="#000000" font-family="sans-serif" font-size="13" font-weight="bold" lengthAdjust="spacing" textLength="14" x="1273.5" y="1139.6221">29</text><text fill="#000000" font-family="sans-serif" font-size="13" lengthAdjust="spacing" textLength="112" x="1291.5" y="1139.6221">update(jobOpening)</text><line style="stroke:#181818;stroke-width:1.0;" x1="2128.5" x2="2170.5" y1="1176.1758" y2="1176.1758"/><line style="stroke:#181818;stroke-width:1.0;" x1="2170.5" x2="2170.5" y1="1176.1758" y2="1189.1758"/><line style="stroke:#181818;stroke-width:1.0;" x1="2129.5" x2="2170.5" y1="1189.1758" y2="1189.1758"/><polygon fill="#181818" points="2139.5,1185.1758,2129.5,1189.1758,2139.5,1193.1758,2135.5,1189.1758" style="stroke:#181818;stroke-width:1.0;"/><text fill="#000000" font-family="sans-serif" font-size="13" font-weight="bold" lengthAdjust="spacing" textLength="14" x="2135.5" y="1170.9131">30</text><text fill="#000000" font-family="sans-serif" font-size="13" lengthAdjust="spacing" textLength="311" x="2153.5" y="1170.9131">:OLD.jobOpeningPhases := :NEW.jobOpeningPhases</text><polygon fill="#181818" points="1277.5,1246.4668,1267.5,1250.4668,1277.5,1254.4668,1273.5,1250.4668" style="stroke:#181818;stroke-width:1.0;"/><line style="stroke:#181818;stroke-width:1.0;stroke-dasharray:2.0,2.0;" x1="1271.5" x2="2117.5" y1="1250.4668" y2="1250.4668"/><text fill="#000000" font-family="sans-serif" font-size="13" font-weight="bold" lengthAdjust="spacing" textLength="14" x="1283.5" y="1245.2041">31</text><text fill="#000000" font-family="sans-serif" font-size="13" lengthAdjust="spacing" textLength="117" x="1301.5" y="1245.2041">(in)sucess operation</text><polygon fill="#181818" points="964.5,1277.7578,954.5,1281.7578,964.5,1285.7578,960.5,1281.7578" style="stroke:#181818;stroke-width:1.0;"/><line style="stroke:#181818;stroke-width:1.0;stroke-dasharray:2.0,2.0;" x1="958.5" x2="1260.5" y1="1281.7578" y2="1281.7578"/><text fill="#000000" font-family="sans-serif" font-size="13" font-weight="bold" lengthAdjust="spacing" textLength="14" x="970.5" y="1276.4951">32</text><text fill="#000000" font-family="sans-serif" font-size="13" lengthAdjust="spacing" textLength="117" x="988.5" y="1276.4951">(in)sucess operation</text><polygon fill="#181818" points="439.5,1309.0488,429.5,1313.0488,439.5,1317.0488,435.5,1313.0488" style="stroke:#181818;stroke-width:1.0;"/><line style="stroke:#181818;stroke-width:1.0;stroke-dasharray:2.0,2.0;" x1="433.5" x2="947.5" y1="1313.0488" y2="1313.0488"/><text fill="#000000" font-family="sans-serif" font-size="13" font-weight="bold" lengthAdjust="spacing" textLength="14" x="445.5" y="1307.7861">33</text><text fill="#000000" font-family="sans-serif" font-size="13" lengthAdjust="spacing" textLength="117" x="463.5" y="1307.7861">(in)sucess operation</text><polygon fill="#181818" points="97.5,1340.3398,87.5,1344.3398,97.5,1348.3398,93.5,1344.3398" style="stroke:#181818;stroke-width:1.0;"/><line style="stroke:#181818;stroke-width:1.0;stroke-dasharray:2.0,2.0;" x1="91.5" x2="422.5" y1="1344.3398" y2="1344.3398"/><text fill="#000000" font-family="sans-serif" font-size="13" font-weight="bold" lengthAdjust="spacing" textLength="14" x="103.5" y="1339.0771">34</text><text fill="#000000" font-family="sans-serif" font-size="13" lengthAdjust="spacing" textLength="158" x="121.5" y="1339.0771">shows (in)sucess operation</text><!--SRC=[nLPDRzim3BtxLn2vj07QehliO6G1idG3KYnhqI3OMR6PHgigUPASDFlre_mf9tQQVc4wIJRVuoDfKpGFN2PCiqT8MFJ0xd5cjm91OsIPl1SOcCh0h5YiDbpUmv89uxyHNABT9WY94bjt25XgbKmV5wZXqZEC13DcPAtcYzJY959onlyYcGIMMt8xmpyfoWZXYhDx1pYTNVNX7ERZoq-VWvCLZn6MIjc5UWfOP9M6tZWrLZsYdZ99wdKFc87nD21_baSyOT92BoHYEq-krU8cGKaHtAwOGJEVPDRp2Gm6YKQ3qZBBbHmEM-4vQAoarKg8qbLr91AM98977Horzrpg8xcReLxp23EcOW_4O_Bj8OwlAHTneQ7O4t2P9MLBG2BdTWkztnK2Gl3m6R0-4ZP7xFYymqGPxZY_vzGELcvzVp6pR47vyJXhRDENztmmqDM1I5nD-PfPT1KSJ-5yw8eJmiP9iGeCsZG1kw8FBQi5g6LseY115O4aMaLeJ100hOflFidERX4ZyNfr2q4jBEEoLcX6QyO5MmWyxGSLi45OunlltVAeoL5PrX2MNCOZ8NOf6xI5zPw1MoKJaROcCwJy2FflWGaH76ROJK3zbPWzO8nxwWw6N1QjYzFZyvBOA8-JDwLmLcf3lSLOLsUlnkOYD_UOgBurXVVbb1dnuRLX0zuYGBjsHEvZPxEaRZEgV_0Jat-4DN17JeiQ-iLGcupEl475BDAOHVB16fYmW4-KVmCJXrfpt3HhVqXb1TbNUPGabB67E5WLoSJMS7FotofoXoOLzeFBKJUl-SJ_lV9x2U0BIDp0b2M3_CaPt3Ak1sCcA9LCdq6v6mvXm-qgQvsvuzPUvFNC0x5qjDIiLUSwJckfPtko-y-sr-FwQvW5ltF7UbViKLttPKtJTA5UsZ7zI-BulBqrd64rD-IvAqvjYMgm5tRjLcwLjEUDm1Q7O5x63jAtYY-OBzmtFNjz-juZoDhDs-BSYRKSk5pdAQvxJW7sky6LcmBQRUbMoTyLJ3raTFDueJthy_b99arSO_9AU4oiroyIx5QhzsvLuSsFgukznXj-WV3djrzxBruf-8W4lrUWZNAVSjatgPkTtQ2aio7dVSLqTj9Mr-ysY3xFtZwITaoafZjJpIlo7m00]--></g></svg>