<?xml version="1.0" encoding="us-ascii" standalone="no"?><svg xmlns="http://www.w3.org/2000/svg" xmlns:xlink="http://www.w3.org/1999/xlink" contentStyleType="text/css" height="796px" preserveAspectRatio="none" style="width:584px;height:796px;background:#FFFFFF;" version="1.1" viewBox="0 0 584 796" width="584px" zoomAndPan="magnify"><defs/><g><text fill="#000000" font-family="sans-serif" font-size="14" font-weight="bold" lengthAdjust="spacing" textLength="190" x="190.25" y="25.1074">Class Diagram (CD) - UC016</text><!--class SetupJobOpeningPhasesUI--><g id="elem_SetupJobOpeningPhasesUI"><rect codeLine="8" fill="#F1F1F1" height="60.582" id="SetupJobOpeningPhasesUI" rx="2.5" ry="2.5" style="stroke:#181818;stroke-width:0.5;" width="204" x="235" y="46.6211"/><ellipse cx="250" cy="68.9121" fill="#ADD1B2" rx="11" ry="11" style="stroke:#181818;stroke-width:1.0;"/><path d="M252.7656,64.7871 Q252.9219,64.5684 253.1094,64.459 Q253.2969,64.3496 253.5156,64.3496 Q253.8906,64.3496 254.125,64.6152 Q254.3594,64.8652 254.3594,65.4746 L254.3594,66.9277 Q254.3594,67.5371 254.125,67.8027 Q253.8906,68.0684 253.5156,68.0684 Q253.1719,68.0684 252.9688,67.8652 Q252.7656,67.6777 252.6563,67.1621 Q252.6094,66.8027 252.4219,66.6152 Q252.0938,66.2402 251.4844,66.0215 Q250.875,65.8027 250.25,65.8027 Q249.4844,65.8027 248.8438,66.1309 Q248.2188,66.459 247.7188,67.209 Q247.2344,67.959 247.2344,68.9902 L247.2344,70.084 Q247.2344,71.3184 248.125,72.1465 Q249.0156,72.959 250.6094,72.959 Q251.5469,72.959 252.2031,72.709 Q252.5938,72.5527 253.0156,72.1152 Q253.2813,71.8496 253.4219,71.7715 Q253.5781,71.6934 253.7813,71.6934 Q254.1094,71.6934 254.3594,71.959 Q254.625,72.209 254.625,72.5527 Q254.625,72.8965 254.2813,73.3027 Q253.7813,73.8809 252.9844,74.209 Q251.9063,74.6621 250.6094,74.6621 Q249.0938,74.6621 247.8906,74.0371 Q246.9063,73.5371 246.2188,72.4746 Q245.5313,71.3965 245.5313,70.1152 L245.5313,68.959 Q245.5313,67.6309 246.1406,66.4902 Q246.7656,65.334 247.8594,64.7246 Q248.9531,64.0996 250.1875,64.0996 Q250.9219,64.0996 251.5625,64.2715 Q252.2188,64.4277 252.7656,64.7871 Z " fill="#000000"/><text fill="#000000" font-family="sans-serif" font-size="12" font-style="italic" lengthAdjust="spacing" textLength="61" x="319.5" y="64.5703">&#171;interface&#187;</text><text fill="#000000" font-family="sans-serif" font-size="14" lengthAdjust="spacing" textLength="172" x="264" y="82.6895">SetupJobOpeningPhasesUI</text><line style="stroke:#181818;stroke-width:0.5;" x1="236" x2="438" y1="91.2031" y2="91.2031"/><line style="stroke:#181818;stroke-width:0.5;" x1="236" x2="438" y1="99.2031" y2="99.2031"/></g><!--class SetupJobOpeningPhasesController--><g id="elem_SetupJobOpeningPhasesController"><rect codeLine="10" fill="#F1F1F1" height="60.582" id="SetupJobOpeningPhasesController" rx="2.5" ry="2.5" style="stroke:#181818;stroke-width:0.5;" width="254" x="210" y="168.6211"/><ellipse cx="225" cy="190.9121" fill="#ADD1B2" rx="11" ry="11" style="stroke:#181818;stroke-width:1.0;"/><path d="M227.7656,186.7871 Q227.9219,186.5684 228.1094,186.459 Q228.2969,186.3496 228.5156,186.3496 Q228.8906,186.3496 229.125,186.6152 Q229.3594,186.8652 229.3594,187.4746 L229.3594,188.9277 Q229.3594,189.5371 229.125,189.8027 Q228.8906,190.0684 228.5156,190.0684 Q228.1719,190.0684 227.9688,189.8652 Q227.7656,189.6777 227.6563,189.1621 Q227.6094,188.8027 227.4219,188.6152 Q227.0938,188.2402 226.4844,188.0215 Q225.875,187.8027 225.25,187.8027 Q224.4844,187.8027 223.8438,188.1309 Q223.2188,188.459 222.7188,189.209 Q222.2344,189.959 222.2344,190.9902 L222.2344,192.084 Q222.2344,193.3184 223.125,194.1465 Q224.0156,194.959 225.6094,194.959 Q226.5469,194.959 227.2031,194.709 Q227.5938,194.5527 228.0156,194.1152 Q228.2813,193.8496 228.4219,193.7715 Q228.5781,193.6934 228.7813,193.6934 Q229.1094,193.6934 229.3594,193.959 Q229.625,194.209 229.625,194.5527 Q229.625,194.8965 229.2813,195.3027 Q228.7813,195.8809 227.9844,196.209 Q226.9063,196.6621 225.6094,196.6621 Q224.0938,196.6621 222.8906,196.0371 Q221.9063,195.5371 221.2188,194.4746 Q220.5313,193.3965 220.5313,192.1152 L220.5313,190.959 Q220.5313,189.6309 221.1406,188.4902 Q221.7656,187.334 222.8594,186.7246 Q223.9531,186.0996 225.1875,186.0996 Q225.9219,186.0996 226.5625,186.2715 Q227.2188,186.4277 227.7656,186.7871 Z " fill="#000000"/><text fill="#000000" font-family="sans-serif" font-size="12" font-style="italic" lengthAdjust="spacing" textLength="65" x="317.5" y="186.5703">&#171;controller&#187;</text><text fill="#000000" font-family="sans-serif" font-size="14" lengthAdjust="spacing" textLength="222" x="239" y="204.6895">SetupJobOpeningPhasesController</text><line style="stroke:#181818;stroke-width:0.5;" x1="211" x2="463" y1="213.2031" y2="213.2031"/><line style="stroke:#181818;stroke-width:0.5;" x1="211" x2="463" y1="221.2031" y2="221.2031"/></g><!--class JobOpeningManagementService--><g id="elem_JobOpeningManagementService"><rect codeLine="12" fill="#F1F1F1" height="60.582" id="JobOpeningManagementService" rx="2.5" ry="2.5" style="stroke:#181818;stroke-width:0.5;" width="237" x="340.5" y="308.6211"/><ellipse cx="355.5" cy="330.9121" fill="#ADD1B2" rx="11" ry="11" style="stroke:#181818;stroke-width:1.0;"/><path d="M358.2656,326.7871 Q358.4219,326.5684 358.6094,326.459 Q358.7969,326.3496 359.0156,326.3496 Q359.3906,326.3496 359.625,326.6152 Q359.8594,326.8652 359.8594,327.4746 L359.8594,328.9277 Q359.8594,329.5371 359.625,329.8027 Q359.3906,330.0684 359.0156,330.0684 Q358.6719,330.0684 358.4688,329.8652 Q358.2656,329.6777 358.1563,329.1621 Q358.1094,328.8027 357.9219,328.6152 Q357.5938,328.2402 356.9844,328.0215 Q356.375,327.8027 355.75,327.8027 Q354.9844,327.8027 354.3438,328.1309 Q353.7188,328.459 353.2188,329.209 Q352.7344,329.959 352.7344,330.9902 L352.7344,332.084 Q352.7344,333.3184 353.625,334.1465 Q354.5156,334.959 356.1094,334.959 Q357.0469,334.959 357.7031,334.709 Q358.0938,334.5527 358.5156,334.1152 Q358.7813,333.8496 358.9219,333.7715 Q359.0781,333.6934 359.2813,333.6934 Q359.6094,333.6934 359.8594,333.959 Q360.125,334.209 360.125,334.5527 Q360.125,334.8965 359.7813,335.3027 Q359.2813,335.8809 358.4844,336.209 Q357.4063,336.6621 356.1094,336.6621 Q354.5938,336.6621 353.3906,336.0371 Q352.4063,335.5371 351.7188,334.4746 Q351.0313,333.3965 351.0313,332.1152 L351.0313,330.959 Q351.0313,329.6309 351.6406,328.4902 Q352.2656,327.334 353.3594,326.7246 Q354.4531,326.0996 355.6875,326.0996 Q356.4219,326.0996 357.0625,326.2715 Q357.7188,326.4277 358.2656,326.7871 Z " fill="#000000"/><text fill="#000000" font-family="sans-serif" font-size="12" font-style="italic" lengthAdjust="spacing" textLength="53" x="445.5" y="326.5703">&#171;service&#187;</text><text fill="#000000" font-family="sans-serif" font-size="14" lengthAdjust="spacing" textLength="205" x="369.5" y="344.6895">JobOpeningManagementService</text><line style="stroke:#181818;stroke-width:0.5;" x1="341.5" x2="576.5" y1="353.2031" y2="353.2031"/><line style="stroke:#181818;stroke-width:0.5;" x1="341.5" x2="576.5" y1="361.2031" y2="361.2031"/></g><!--class JobOpeningRepository--><g id="elem_JobOpeningRepository"><rect codeLine="14" fill="#F1F1F1" height="60.582" id="JobOpeningRepository" rx="2.5" ry="2.5" style="stroke:#181818;stroke-width:0.5;" width="176" x="129" y="308.6211"/><ellipse cx="144" cy="330.9121" fill="#ADD1B2" rx="11" ry="11" style="stroke:#181818;stroke-width:1.0;"/><path d="M146.7656,326.7871 Q146.9219,326.5684 147.1094,326.459 Q147.2969,326.3496 147.5156,326.3496 Q147.8906,326.3496 148.125,326.6152 Q148.3594,326.8652 148.3594,327.4746 L148.3594,328.9277 Q148.3594,329.5371 148.125,329.8027 Q147.8906,330.0684 147.5156,330.0684 Q147.1719,330.0684 146.9688,329.8652 Q146.7656,329.6777 146.6563,329.1621 Q146.6094,328.8027 146.4219,328.6152 Q146.0938,328.2402 145.4844,328.0215 Q144.875,327.8027 144.25,327.8027 Q143.4844,327.8027 142.8438,328.1309 Q142.2188,328.459 141.7188,329.209 Q141.2344,329.959 141.2344,330.9902 L141.2344,332.084 Q141.2344,333.3184 142.125,334.1465 Q143.0156,334.959 144.6094,334.959 Q145.5469,334.959 146.2031,334.709 Q146.5938,334.5527 147.0156,334.1152 Q147.2813,333.8496 147.4219,333.7715 Q147.5781,333.6934 147.7813,333.6934 Q148.1094,333.6934 148.3594,333.959 Q148.625,334.209 148.625,334.5527 Q148.625,334.8965 148.2813,335.3027 Q147.7813,335.8809 146.9844,336.209 Q145.9063,336.6621 144.6094,336.6621 Q143.0938,336.6621 141.8906,336.0371 Q140.9063,335.5371 140.2188,334.4746 Q139.5313,333.3965 139.5313,332.1152 L139.5313,330.959 Q139.5313,329.6309 140.1406,328.4902 Q140.7656,327.334 141.8594,326.7246 Q142.9531,326.0996 144.1875,326.0996 Q144.9219,326.0996 145.5625,326.2715 Q146.2188,326.4277 146.7656,326.7871 Z " fill="#000000"/><text fill="#000000" font-family="sans-serif" font-size="12" font-style="italic" lengthAdjust="spacing" textLength="68" x="196" y="326.5703">&#171;repository&#187;</text><text fill="#000000" font-family="sans-serif" font-size="14" lengthAdjust="spacing" textLength="144" x="158" y="344.6895">JobOpeningRepository</text><line style="stroke:#181818;stroke-width:0.5;" x1="130" x2="304" y1="353.2031" y2="353.2031"/><line style="stroke:#181818;stroke-width:0.5;" x1="130" x2="304" y1="361.2031" y2="361.2031"/></g><!--class RepositoryFactory--><g id="elem_RepositoryFactory"><rect codeLine="16" fill="#F1F1F1" height="60.582" id="RepositoryFactory" rx="2.5" ry="2.5" style="stroke:#181818;stroke-width:0.5;" width="148" x="11" y="448.6211"/><ellipse cx="26" cy="470.9121" fill="#ADD1B2" rx="11" ry="11" style="stroke:#181818;stroke-width:1.0;"/><path d="M28.7656,466.7871 Q28.9219,466.5684 29.1094,466.459 Q29.2969,466.3496 29.5156,466.3496 Q29.8906,466.3496 30.125,466.6152 Q30.3594,466.8652 30.3594,467.4746 L30.3594,468.9277 Q30.3594,469.5371 30.125,469.8027 Q29.8906,470.0684 29.5156,470.0684 Q29.1719,470.0684 28.9688,469.8652 Q28.7656,469.6777 28.6563,469.1621 Q28.6094,468.8027 28.4219,468.6152 Q28.0938,468.2402 27.4844,468.0215 Q26.875,467.8027 26.25,467.8027 Q25.4844,467.8027 24.8438,468.1309 Q24.2188,468.459 23.7188,469.209 Q23.2344,469.959 23.2344,470.9902 L23.2344,472.084 Q23.2344,473.3184 24.125,474.1465 Q25.0156,474.959 26.6094,474.959 Q27.5469,474.959 28.2031,474.709 Q28.5938,474.5527 29.0156,474.1152 Q29.2813,473.8496 29.4219,473.7715 Q29.5781,473.6934 29.7813,473.6934 Q30.1094,473.6934 30.3594,473.959 Q30.625,474.209 30.625,474.5527 Q30.625,474.8965 30.2813,475.3027 Q29.7813,475.8809 28.9844,476.209 Q27.9063,476.6621 26.6094,476.6621 Q25.0938,476.6621 23.8906,476.0371 Q22.9063,475.5371 22.2188,474.4746 Q21.5313,473.3965 21.5313,472.1152 L21.5313,470.959 Q21.5313,469.6309 22.1406,468.4902 Q22.7656,467.334 23.8594,466.7246 Q24.9531,466.0996 26.1875,466.0996 Q26.9219,466.0996 27.5625,466.2715 Q28.2188,466.4277 28.7656,466.7871 Z " fill="#000000"/><text fill="#000000" font-family="sans-serif" font-size="12" font-style="italic" lengthAdjust="spacing" textLength="50" x="73" y="466.5703">&#171;factory&#187;</text><text fill="#000000" font-family="sans-serif" font-size="14" lengthAdjust="spacing" textLength="116" x="40" y="484.6895">RepositoryFactory</text><line style="stroke:#181818;stroke-width:0.5;" x1="12" x2="158" y1="493.2031" y2="493.2031"/><line style="stroke:#181818;stroke-width:0.5;" x1="12" x2="158" y1="501.2031" y2="501.2031"/></g><!--class JobOpeningBuilder--><g id="elem_JobOpeningBuilder"><rect codeLine="18" fill="#F1F1F1" height="60.582" id="JobOpeningBuilder" rx="2.5" ry="2.5" style="stroke:#181818;stroke-width:0.5;" width="152" x="383" y="448.6211"/><ellipse cx="398" cy="470.9121" fill="#ADD1B2" rx="11" ry="11" style="stroke:#181818;stroke-width:1.0;"/><path d="M400.7656,466.7871 Q400.9219,466.5684 401.1094,466.459 Q401.2969,466.3496 401.5156,466.3496 Q401.8906,466.3496 402.125,466.6152 Q402.3594,466.8652 402.3594,467.4746 L402.3594,468.9277 Q402.3594,469.5371 402.125,469.8027 Q401.8906,470.0684 401.5156,470.0684 Q401.1719,470.0684 400.9688,469.8652 Q400.7656,469.6777 400.6563,469.1621 Q400.6094,468.8027 400.4219,468.6152 Q400.0938,468.2402 399.4844,468.0215 Q398.875,467.8027 398.25,467.8027 Q397.4844,467.8027 396.8438,468.1309 Q396.2188,468.459 395.7188,469.209 Q395.2344,469.959 395.2344,470.9902 L395.2344,472.084 Q395.2344,473.3184 396.125,474.1465 Q397.0156,474.959 398.6094,474.959 Q399.5469,474.959 400.2031,474.709 Q400.5938,474.5527 401.0156,474.1152 Q401.2813,473.8496 401.4219,473.7715 Q401.5781,473.6934 401.7813,473.6934 Q402.1094,473.6934 402.3594,473.959 Q402.625,474.209 402.625,474.5527 Q402.625,474.8965 402.2813,475.3027 Q401.7813,475.8809 400.9844,476.209 Q399.9063,476.6621 398.6094,476.6621 Q397.0938,476.6621 395.8906,476.0371 Q394.9063,475.5371 394.2188,474.4746 Q393.5313,473.3965 393.5313,472.1152 L393.5313,470.959 Q393.5313,469.6309 394.1406,468.4902 Q394.7656,467.334 395.8594,466.7246 Q396.9531,466.0996 398.1875,466.0996 Q398.9219,466.0996 399.5625,466.2715 Q400.2188,466.4277 400.7656,466.7871 Z " fill="#000000"/><text fill="#000000" font-family="sans-serif" font-size="12" font-style="italic" lengthAdjust="spacing" textLength="53" x="445.5" y="466.5703">&#171;builder&#187;</text><text fill="#000000" font-family="sans-serif" font-size="14" lengthAdjust="spacing" textLength="120" x="412" y="484.6895">JobOpeningBuilder</text><line style="stroke:#181818;stroke-width:0.5;" x1="384" x2="534" y1="493.2031" y2="493.2031"/><line style="stroke:#181818;stroke-width:0.5;" x1="384" x2="534" y1="501.2031" y2="501.2031"/></g><!--class JobOpening--><g id="elem_JobOpening"><rect codeLine="20" fill="#F1F1F1" height="60.582" id="JobOpening" rx="2.5" ry="2.5" style="stroke:#181818;stroke-width:0.5;" width="108" x="247" y="588.6211"/><ellipse cx="262" cy="610.9121" fill="#ADD1B2" rx="11" ry="11" style="stroke:#181818;stroke-width:1.0;"/><path d="M264.7656,606.7871 Q264.9219,606.5684 265.1094,606.459 Q265.2969,606.3496 265.5156,606.3496 Q265.8906,606.3496 266.125,606.6152 Q266.3594,606.8652 266.3594,607.4746 L266.3594,608.9277 Q266.3594,609.5371 266.125,609.8027 Q265.8906,610.0684 265.5156,610.0684 Q265.1719,610.0684 264.9688,609.8652 Q264.7656,609.6777 264.6563,609.1621 Q264.6094,608.8027 264.4219,608.6152 Q264.0938,608.2402 263.4844,608.0215 Q262.875,607.8027 262.25,607.8027 Q261.4844,607.8027 260.8438,608.1309 Q260.2188,608.459 259.7188,609.209 Q259.2344,609.959 259.2344,610.9902 L259.2344,612.084 Q259.2344,613.3184 260.125,614.1465 Q261.0156,614.959 262.6094,614.959 Q263.5469,614.959 264.2031,614.709 Q264.5938,614.5527 265.0156,614.1152 Q265.2813,613.8496 265.4219,613.7715 Q265.5781,613.6934 265.7813,613.6934 Q266.1094,613.6934 266.3594,613.959 Q266.625,614.209 266.625,614.5527 Q266.625,614.8965 266.2813,615.3027 Q265.7813,615.8809 264.9844,616.209 Q263.9063,616.6621 262.6094,616.6621 Q261.0938,616.6621 259.8906,616.0371 Q258.9063,615.5371 258.2188,614.4746 Q257.5313,613.3965 257.5313,612.1152 L257.5313,610.959 Q257.5313,609.6309 258.1406,608.4902 Q258.7656,607.334 259.8594,606.7246 Q260.9531,606.0996 262.1875,606.0996 Q262.9219,606.0996 263.5625,606.2715 Q264.2188,606.4277 264.7656,606.7871 Z " fill="#000000"/><text fill="#000000" font-family="sans-serif" font-size="12" font-style="italic" lengthAdjust="spacing" textLength="43" x="292.5" y="606.5703">&#171;entity&#187;</text><text fill="#000000" font-family="sans-serif" font-size="14" lengthAdjust="spacing" textLength="76" x="276" y="624.6895">JobOpening</text><line style="stroke:#181818;stroke-width:0.5;" x1="248" x2="354" y1="633.2031" y2="633.2031"/><line style="stroke:#181818;stroke-width:0.5;" x1="248" x2="354" y1="641.2031" y2="641.2031"/></g><!--class JobOpeningPhases--><g id="elem_JobOpeningPhases"><rect codeLine="22" fill="#F1F1F1" height="60.582" id="JobOpeningPhases" rx="2.5" ry="2.5" style="stroke:#181818;stroke-width:0.5;" width="155" x="94.5" y="728.6211"/><ellipse cx="109.5" cy="750.9121" fill="#ADD1B2" rx="11" ry="11" style="stroke:#181818;stroke-width:1.0;"/><path d="M112.2656,746.7871 Q112.4219,746.5684 112.6094,746.459 Q112.7969,746.3496 113.0156,746.3496 Q113.3906,746.3496 113.625,746.6152 Q113.8594,746.8652 113.8594,747.4746 L113.8594,748.9277 Q113.8594,749.5371 113.625,749.8027 Q113.3906,750.0684 113.0156,750.0684 Q112.6719,750.0684 112.4688,749.8652 Q112.2656,749.6777 112.1563,749.1621 Q112.1094,748.8027 111.9219,748.6152 Q111.5938,748.2402 110.9844,748.0215 Q110.375,747.8027 109.75,747.8027 Q108.9844,747.8027 108.3438,748.1309 Q107.7188,748.459 107.2188,749.209 Q106.7344,749.959 106.7344,750.9902 L106.7344,752.084 Q106.7344,753.3184 107.625,754.1465 Q108.5156,754.959 110.1094,754.959 Q111.0469,754.959 111.7031,754.709 Q112.0938,754.5527 112.5156,754.1152 Q112.7813,753.8496 112.9219,753.7715 Q113.0781,753.6934 113.2813,753.6934 Q113.6094,753.6934 113.8594,753.959 Q114.125,754.209 114.125,754.5527 Q114.125,754.8965 113.7813,755.3027 Q113.2813,755.8809 112.4844,756.209 Q111.4063,756.6621 110.1094,756.6621 Q108.5938,756.6621 107.3906,756.0371 Q106.4063,755.5371 105.7188,754.4746 Q105.0313,753.3965 105.0313,752.1152 L105.0313,750.959 Q105.0313,749.6309 105.6406,748.4902 Q106.2656,747.334 107.3594,746.7246 Q108.4531,746.0996 109.6875,746.0996 Q110.4219,746.0996 111.0625,746.2715 Q111.7188,746.4277 112.2656,746.7871 Z " fill="#000000"/><text fill="#000000" font-family="sans-serif" font-size="12" font-style="italic" lengthAdjust="spacing" textLength="44" x="163" y="746.5703">&#171;value&#187;</text><text fill="#000000" font-family="sans-serif" font-size="14" lengthAdjust="spacing" textLength="123" x="123.5" y="764.6895">JobOpeningPhases</text><line style="stroke:#181818;stroke-width:0.5;" x1="95.5" x2="248.5" y1="773.2031" y2="773.2031"/><line style="stroke:#181818;stroke-width:0.5;" x1="95.5" x2="248.5" y1="781.2031" y2="781.2031"/></g><!--class Phases--><g id="elem_Phases"><rect codeLine="24" fill="#F1F1F1" height="60.582" id="Phases" rx="2.5" ry="2.5" style="stroke:#181818;stroke-width:0.5;" width="79" x="132.5" y="588.6211"/><ellipse cx="147.5" cy="610.9121" fill="#EB937F" rx="11" ry="11" style="stroke:#181818;stroke-width:1.0;"/><path d="M146.3594,611.709 L146.3594,614.209 L150.6875,614.209 L150.6875,613.2871 Q150.6875,612.6777 150.9219,612.4121 Q151.1719,612.1465 151.5469,612.1465 Q151.9219,612.1465 152.1563,612.4121 Q152.3906,612.6777 152.3906,613.2871 L152.3906,615.9121 L144.3906,615.9121 Q143.7656,615.9121 143.5,615.6777 Q143.25,615.4434 143.25,615.0527 Q143.25,614.6777 143.5156,614.4434 Q143.7813,614.209 144.3906,614.209 L144.6563,614.209 L144.6563,607.5527 L144.3906,607.5527 Q143.7656,607.5527 143.5,607.3184 Q143.25,607.084 143.25,606.6934 Q143.25,606.3184 143.5,606.084 Q143.7656,605.8496 144.3906,605.8496 L152.0156,605.8496 L152.0156,608.4434 Q152.0156,609.0527 151.7813,609.3184 Q151.5625,609.5684 151.1719,609.5684 Q150.7969,609.5684 150.5625,609.3184 Q150.3281,609.0527 150.3281,608.4434 L150.3281,607.5527 L146.3594,607.5527 L146.3594,610.0059 L147.8438,610.0059 Q147.8438,609.3496 147.9688,609.1621 Q148.2344,608.7559 148.7031,608.7559 Q149.0781,608.7559 149.3125,609.0215 Q149.5469,609.2715 149.5469,609.8809 L149.5469,611.8496 Q149.5469,612.3965 149.4219,612.584 Q149.1563,612.9746 148.7031,612.9746 Q148.2344,612.9746 147.9688,612.5684 Q147.8438,612.3809 147.8438,611.709 L146.3594,611.709 Z " fill="#000000"/><text fill="#000000" font-family="sans-serif" font-size="12" font-style="italic" lengthAdjust="spacing" textLength="44" x="163" y="606.5703">&#171;value&#187;</text><text fill="#000000" font-family="sans-serif" font-size="14" lengthAdjust="spacing" textLength="47" x="161.5" y="624.6895">Phases</text><line style="stroke:#181818;stroke-width:0.5;" x1="133.5" x2="210.5" y1="633.2031" y2="633.2031"/><line style="stroke:#181818;stroke-width:0.5;" x1="133.5" x2="210.5" y1="641.2031" y2="641.2031"/></g><!--class Calendar--><g id="elem_Calendar"><rect codeLine="26" fill="#F1F1F1" height="60.582" id="Calendar" rx="2.5" ry="2.5" style="stroke:#181818;stroke-width:0.5;" width="90" x="7" y="588.6211"/><ellipse cx="22" cy="610.9121" fill="#ADD1B2" rx="11" ry="11" style="stroke:#181818;stroke-width:1.0;"/><path d="M24.7656,606.7871 Q24.9219,606.5684 25.1094,606.459 Q25.2969,606.3496 25.5156,606.3496 Q25.8906,606.3496 26.125,606.6152 Q26.3594,606.8652 26.3594,607.4746 L26.3594,608.9277 Q26.3594,609.5371 26.125,609.8027 Q25.8906,610.0684 25.5156,610.0684 Q25.1719,610.0684 24.9688,609.8652 Q24.7656,609.6777 24.6563,609.1621 Q24.6094,608.8027 24.4219,608.6152 Q24.0938,608.2402 23.4844,608.0215 Q22.875,607.8027 22.25,607.8027 Q21.4844,607.8027 20.8438,608.1309 Q20.2188,608.459 19.7188,609.209 Q19.2344,609.959 19.2344,610.9902 L19.2344,612.084 Q19.2344,613.3184 20.125,614.1465 Q21.0156,614.959 22.6094,614.959 Q23.5469,614.959 24.2031,614.709 Q24.5938,614.5527 25.0156,614.1152 Q25.2813,613.8496 25.4219,613.7715 Q25.5781,613.6934 25.7813,613.6934 Q26.1094,613.6934 26.3594,613.959 Q26.625,614.209 26.625,614.5527 Q26.625,614.8965 26.2813,615.3027 Q25.7813,615.8809 24.9844,616.209 Q23.9063,616.6621 22.6094,616.6621 Q21.0938,616.6621 19.8906,616.0371 Q18.9063,615.5371 18.2188,614.4746 Q17.5313,613.3965 17.5313,612.1152 L17.5313,610.959 Q17.5313,609.6309 18.1406,608.4902 Q18.7656,607.334 19.8594,606.7246 Q20.9531,606.0996 22.1875,606.0996 Q22.9219,606.0996 23.5625,606.2715 Q24.2188,606.4277 24.7656,606.7871 Z " fill="#000000"/><text fill="#000000" font-family="sans-serif" font-size="12" font-style="italic" lengthAdjust="spacing" textLength="44" x="43" y="606.5703">&#171;value&#187;</text><text fill="#000000" font-family="sans-serif" font-size="14" lengthAdjust="spacing" textLength="58" x="36" y="624.6895">Calendar</text><line style="stroke:#181818;stroke-width:0.5;" x1="8" x2="96" y1="633.2031" y2="633.2031"/><line style="stroke:#181818;stroke-width:0.5;" x1="8" x2="96" y1="641.2031" y2="641.2031"/></g><!--link SetupJobOpeningPhasesUI to SetupJobOpeningPhasesController--><g id="link_SetupJobOpeningPhasesUI_SetupJobOpeningPhasesController"><path codeLine="28" d="M337,107.7811 C337,126.2411 337,143.9111 337,162.3811 " fill="none" id="SetupJobOpeningPhasesUI-to-SetupJobOpeningPhasesController" style="stroke:#181818;stroke-width:1.0;stroke-dasharray:7.0,7.0;"/><polygon fill="#181818" points="337,168.3811,341,159.3811,337,163.3811,333,159.3811,337,168.3811" style="stroke:#181818;stroke-width:1.0;"/></g><!--link SetupJobOpeningPhasesController to JobOpeningManagementService--><g id="link_SetupJobOpeningPhasesController_JobOpeningManagementService"><path codeLine="30" d="M363.17,229.7211 C383.76,253.0111 408.3262,280.7957 428.8962,304.0657 " fill="none" id="SetupJobOpeningPhasesController-to-JobOpeningManagementService" style="stroke:#181818;stroke-width:1.0;stroke-dasharray:7.0,7.0;"/><polygon fill="#181818" points="432.87,308.5611,429.9062,299.1688,429.5585,304.8149,423.9123,304.4672,432.87,308.5611" style="stroke:#181818;stroke-width:1.0;"/><polygon fill="#000000" points="414.3117,273.0126,410.5226,264.2894,406.1189,268.1826,414.3117,273.0126" style="stroke:#000000;stroke-width:1.0;"/><text fill="#000000" font-family="sans-serif" font-size="13" lengthAdjust="spacing" textLength="28" x="420" y="274.6494">uses</text></g><!--link SetupJobOpeningPhasesController to JobOpeningRepository--><g id="link_SetupJobOpeningPhasesController_JobOpeningRepository"><path codeLine="31" d="M311.26,229.7211 C291.01,253.0111 266.8777,280.764 246.6377,304.034 " fill="none" id="SetupJobOpeningPhasesController-to-JobOpeningRepository" style="stroke:#181818;stroke-width:1.0;stroke-dasharray:7.0,7.0;"/><polygon fill="#181818" points="242.7,308.5611,251.6246,304.3955,245.9814,304.7885,245.5884,299.1453,242.7,308.5611" style="stroke:#181818;stroke-width:1.0;"/><polygon fill="#000000" points="286.719,273.0396,294.872,268.1427,290.4367,264.2857,286.719,273.0396" style="stroke:#000000;stroke-width:1.0;"/><text fill="#000000" font-family="sans-serif" font-size="13" lengthAdjust="spacing" textLength="56" x="299" y="274.6494">accesses</text></g><!--link JobOpeningManagementService to JobOpeningBuilder--><g id="link_JobOpeningManagementService_JobOpeningBuilder"><path codeLine="33" d="M459,369.7211 C459,393.0111 459,419.2911 459,442.5611 " fill="none" id="JobOpeningManagementService-to-JobOpeningBuilder" style="stroke:#181818;stroke-width:1.0;stroke-dasharray:7.0,7.0;"/><polygon fill="#181818" points="459,448.5611,463,439.5611,459,443.5611,455,439.5611,459,448.5611" style="stroke:#181818;stroke-width:1.0;"/><text fill="#000000" font-family="sans-serif" font-size="13" lengthAdjust="spacing" textLength="28" x="460" y="414.6494">uses</text></g><!--reverse link JobOpeningRepository to RepositoryFactory--><g id="link_JobOpeningRepository_RepositoryFactory"><path codeLine="35" d="M184.5334,374.0576 C162.2634,397.3476 135.53,425.2911 113.27,448.5611 " fill="none" id="JobOpeningRepository-backto-RepositoryFactory" style="stroke:#181818;stroke-width:1.0;stroke-dasharray:7.0,7.0;"/><polygon fill="#181818" points="188.68,369.7211,179.569,373.4615,185.2245,373.3349,185.3511,378.9903,188.68,369.7211" style="stroke:#181818;stroke-width:1.0;"/></g><!--link JobOpeningRepository to JobOpening--><g id="link_JobOpeningRepository_JobOpening"><path codeLine="37" d="M219.37,369.8611 C222.73,404.2311 230.3,462.1411 246,509.6211 C255.21,537.4911 267.656,561.8757 279.826,583.1057 " fill="none" id="JobOpeningRepository-to-JobOpening" style="stroke:#181818;stroke-width:1.0;stroke-dasharray:7.0,7.0;"/><polygon fill="#181818" points="282.81,588.3111,281.8043,578.5137,280.3234,583.9733,274.8638,582.4923,282.81,588.3111" style="stroke:#181818;stroke-width:1.0;"/><polygon fill="#000000" points="252.3638,484.077,252.7242,474.5733,247.0692,476.1765,252.3638,484.077" style="stroke:#000000;stroke-width:1.0;"/><text fill="#000000" font-family="sans-serif" font-size="13" lengthAdjust="spacing" textLength="104" x="260" y="484.6494">saves in database</text></g><!--link JobOpeningBuilder to JobOpening--><g id="link_JobOpeningBuilder_JobOpening"><path codeLine="39" d="M425.11,509.7211 C398.45,533.0111 365.9988,561.3439 339.3588,584.6139 " fill="none" id="JobOpeningBuilder-to-JobOpening" style="stroke:#181818;stroke-width:1.0;stroke-dasharray:7.0,7.0;"/><polygon fill="#181818" points="334.84,588.5611,344.2497,585.6529,338.6057,585.2718,338.9868,579.6278,334.84,588.5611" style="stroke:#181818;stroke-width:1.0;"/><polygon fill="#000000" points="391.2341,552.5557,399.9799,548.8193,396.1134,544.3922,391.2341,552.5557" style="stroke:#000000;stroke-width:1.0;"/><text fill="#000000" font-family="sans-serif" font-size="13" lengthAdjust="spacing" textLength="46" x="404" y="554.6494">updates</text></g><!--link JobOpening to JobOpeningPhases--><g id="link_JobOpening_JobOpeningPhases"><path codeLine="41" d="M273.33,649.7211 C251.56,673.0111 225.4771,700.9077 203.7271,724.1777 " fill="none" id="JobOpening-to-JobOpeningPhases" style="stroke:#181818;stroke-width:1.0;stroke-dasharray:7.0,7.0;"/><polygon fill="#181818" points="199.63,728.5611,208.6979,724.7174,203.0442,724.9083,202.8533,719.2546,199.63,728.5611" style="stroke:#181818;stroke-width:1.0;"/><polygon fill="#000000" points="246.5855,692.9192,254.9093,688.3186,250.6154,684.3046,246.5855,692.9192" style="stroke:#000000;stroke-width:1.0;"/><text fill="#000000" font-family="sans-serif" font-size="13" lengthAdjust="spacing" textLength="43" x="259" y="694.6494">creates</text></g><!--reverse link Phases to JobOpeningPhases--><g id="link_Phases_JobOpeningPhases"><path codeLine="43" d="M172,655.7211 C172,679.0111 172,705.2911 172,728.5611 " fill="none" id="Phases-backto-JobOpeningPhases" style="stroke:#181818;stroke-width:1.0;"/><polygon fill="#181818" points="172,649.7211,168,658.7211,172,654.7211,176,658.7211,172,649.7211" style="stroke:#181818;stroke-width:1.0;"/></g><!--reverse link Calendar to JobOpeningPhases--><g id="link_Calendar_JobOpeningPhases"><path codeLine="44" d="M81.6768,654.2489 C101.9268,677.5389 126.06,705.2911 146.3,728.5611 " fill="none" id="Calendar-backto-JobOpeningPhases" style="stroke:#181818;stroke-width:1.0;"/><polygon fill="#181818" points="77.74,649.7211,80.6267,659.1374,81.0207,653.4943,86.6638,653.8883,77.74,649.7211" style="stroke:#181818;stroke-width:1.0;"/></g><!--SRC=[bLBDRi8m3BxdANBS3Y1ssG6XIblH92PDcrRn06vgIaH8eiHXOa-_b1PQrfPfjoJVZp_RyJkfBJZOSmjY1oLcT5J87Ge2NIfa_aBmMoZCbzGbtu3oo3gGKE3z4v6JUI1S2QCp-OrynXX9YdPfXVEbXB9YtwNBUpxXwtJsyCZOISipf61VJVvkKSSI7rlmwDShlbX8JUWs8319Rf9JeyaPfT15aRXSMbKhU0CTEzsZfWpTGGgC2b-VXkYVQ8sNPDmnyjpbqb9RmWk8XhUfJqD-pq6guXGphqz3f8Z6V9867UgE8-K0Afmoemvxtd-kXIaer0MuBZ8syEaq-Mk-8-BE0YgJM-EUyr05JVvfr5d4d8CGw6iNTglMjSLvzdK2nlghcmOxKhHRfnFbka1qzd28iQJc1H3aiQFhYES8FLsmKV2xeL-qPiLpBXpsoGqw2NQIDBzX33t_YHy0]--></g></svg>