<?xml version="1.0" encoding="us-ascii" standalone="no"?><svg xmlns="http://www.w3.org/2000/svg" xmlns:xlink="http://www.w3.org/1999/xlink" contentStyleType="text/css" height="376.5px" preserveAspectRatio="none" style="width:784px;height:376px;background:#FFFFFF;" version="1.1" viewBox="0 0 784 376" width="784.5px" zoomAndPan="magnify"><defs/><g><text fill="#000000" font-family="sans-serif" font-size="7" font-weight="bold" lengthAdjust="spacing" textLength="97" x="340.25" y="12.5537">Domain Model (DM) - UC034</text><!--cluster SystemUserAggregate--><g id="cluster_SystemUserAggregate"><rect fill="none" height="188" rx="1.25" ry="1.25" style="stroke:#000000;stroke-width:0.75;" width="170" x="3.5" y="132.8105"/><text fill="#000000" font-family="sans-serif" font-size="7" font-weight="bold" lengthAdjust="spacing" textLength="78" x="49.5" y="141.3643">SystemUserAggregate</text></g><!--cluster CustomerAggregate--><g id="cluster_CustomerAggregate"><rect fill="none" height="53.5" rx="1.25" ry="1.25" style="stroke:#000000;stroke-width:0.75;" width="78.5" x="349.25" y="23.3105"/><text fill="#000000" font-family="sans-serif" font-size="7" font-weight="bold" lengthAdjust="spacing" textLength="70.5" x="353.25" y="31.8643">CustomerAggregate</text></g><!--cluster CandidateAggregate--><g id="cluster_CandidateAggregate"><rect fill="none" height="53.5" rx="1.25" ry="1.25" style="stroke:#000000;stroke-width:0.75;" width="80" x="348.75" y="307.3105"/><text fill="#000000" font-family="sans-serif" font-size="7" font-weight="bold" lengthAdjust="spacing" textLength="72" x="352.75" y="315.8643">CandidateAggregate</text></g><!--cluster JobOpeningAggregate--><g id="cluster_JobOpeningAggregate"><rect fill="none" height="206.5" rx="1.25" ry="1.25" style="stroke:#000000;stroke-width:0.75;" width="421.5" x="360" y="88.8105"/><text fill="#000000" font-family="sans-serif" font-size="7" font-weight="bold" lengthAdjust="spacing" textLength="79.5" x="531" y="97.3643">JobOpeningAggregate</text></g><!--cluster JobApplicationAggregate--><g id="cluster_JobApplicationAggregate"><rect fill="none" height="53.5" rx="1.25" ry="1.25" style="stroke:#000000;stroke-width:0.75;" width="96.5" x="487.5" y="307.3105"/><text fill="#000000" font-family="sans-serif" font-size="7" font-weight="bold" lengthAdjust="spacing" textLength="88.5" x="491.5" y="315.8643">JobApplicationAggregate</text></g><!--class SystemUser--><g id="elem_SystemUser"><rect codeLine="15" fill="#F1F1F1" height="26.291" id="SystemUser" rx="1.25" ry="1.25" style="stroke:#181818;stroke-width:0.25;" width="40.5" x="11.5" y="242.0605"/><text fill="#000000" font-family="sans-serif" font-size="6" font-style="italic" lengthAdjust="spacing" textLength="36.5" x="13.5" y="251.0352">&#171;Root Entity&#187;</text><text fill="#000000" font-family="sans-serif" font-size="7" lengthAdjust="spacing" textLength="37.5" x="13" y="260.0947">SystemUser</text><line style="stroke:#181818;stroke-width:0.25;" x1="12" x2="51.5" y1="264.3516" y2="264.3516"/></g><!--class Name--><g id="elem_Name"><rect codeLine="16" fill="#F1F1F1" height="26.291" id="Name" rx="1.25" ry="1.25" style="stroke:#181818;stroke-width:0.25;" width="43.5" x="102.25" y="286.0605"/><text fill="#000000" font-family="sans-serif" font-size="6" font-style="italic" lengthAdjust="spacing" textLength="42.5" x="102.75" y="295.0352">&#171;Value Object&#187;</text><text fill="#000000" font-family="sans-serif" font-size="7" lengthAdjust="spacing" textLength="18" x="115" y="304.0947">Name</text><line style="stroke:#181818;stroke-width:0.25;" x1="102.75" x2="145.25" y1="308.3516" y2="308.3516"/></g><!--class EmailAddress--><g id="elem_EmailAddress"><rect codeLine="17" fill="#F1F1F1" height="26.291" id="EmailAddress" rx="1.25" ry="1.25" style="stroke:#181818;stroke-width:0.25;" width="46" x="101" y="242.0605"/><text fill="#000000" font-family="sans-serif" font-size="6" font-style="italic" lengthAdjust="spacing" textLength="42.5" x="102.75" y="251.0352">&#171;Value Object&#187;</text><text fill="#000000" font-family="sans-serif" font-size="7" lengthAdjust="spacing" textLength="43" x="102.5" y="260.0947">EmailAddress</text><line style="stroke:#181818;stroke-width:0.25;" x1="101.5" x2="146.5" y1="264.3516" y2="264.3516"/></g><!--class Role--><g id="elem_Role"><rect codeLine="18" fill="#F1F1F1" height="72.8438" id="Role" rx="1.25" ry="1.25" style="stroke:#181818;stroke-width:0.25;" width="83" x="82.5" y="151.3105"/><text fill="#000000" font-family="sans-serif" font-size="6" font-style="italic" lengthAdjust="spacing" textLength="42.5" x="102.75" y="160.2852">&#171;Value Object&#187;</text><text fill="#000000" font-family="sans-serif" font-size="7" lengthAdjust="spacing" textLength="14.5" x="116.75" y="169.3447">Role</text><line style="stroke:#181818;stroke-width:0.25;" x1="83" x2="165" y1="173.6016" y2="173.6016"/><text fill="#000000" font-family="sans-serif" font-size="7" lengthAdjust="spacing" textLength="21" x="85.5" y="183.1553">ADMIN</text><text fill="#000000" font-family="sans-serif" font-size="7" lengthAdjust="spacing" textLength="77" x="85.5" y="192.4658">CUSTOMER_MANAGER</text><text fill="#000000" font-family="sans-serif" font-size="7" lengthAdjust="spacing" textLength="39" x="85.5" y="201.7764">OPERATOR</text><text fill="#000000" font-family="sans-serif" font-size="7" lengthAdjust="spacing" textLength="39" x="85.5" y="211.0869">CUSTOMER</text><text fill="#000000" font-family="sans-serif" font-size="7" lengthAdjust="spacing" textLength="39" x="85.5" y="220.3975">CANDIDATE</text></g><!--class Customer--><g id="elem_Customer"><rect codeLine="32" fill="#F1F1F1" height="26.291" id="Customer" rx="1.25" ry="1.25" style="stroke:#181818;stroke-width:0.25;" width="37.5" x="369.75" y="42.0605"/><text fill="#000000" font-family="sans-serif" font-size="6" font-style="italic" lengthAdjust="spacing" textLength="36.5" x="370.25" y="51.0352">&#171;Root Entity&#187;</text><text fill="#000000" font-family="sans-serif" font-size="7" lengthAdjust="spacing" textLength="30.5" x="373.25" y="60.0947">Customer</text><line style="stroke:#181818;stroke-width:0.25;" x1="370.25" x2="406.75" y1="64.3516" y2="64.3516"/></g><!--class Candidate--><g id="elem_Candidate"><rect codeLine="36" fill="#F1F1F1" height="26.291" id="Candidate" rx="1.25" ry="1.25" style="stroke:#181818;stroke-width:0.25;" width="37.5" x="369.75" y="326.0605"/><text fill="#000000" font-family="sans-serif" font-size="6" font-style="italic" lengthAdjust="spacing" textLength="36.5" x="370.25" y="335.0352">&#171;Root Entity&#187;</text><text fill="#000000" font-family="sans-serif" font-size="7" lengthAdjust="spacing" textLength="32.5" x="372.25" y="344.0947">Candidate</text><line style="stroke:#181818;stroke-width:0.25;" x1="370.25" x2="406.75" y1="348.3516" y2="348.3516"/></g><!--class JobOpening--><g id="elem_JobOpening"><rect codeLine="41" fill="#F1F1F1" height="26.291" id="JobOpening" rx="1.25" ry="1.25" style="stroke:#181818;stroke-width:0.25;" width="41" x="368" y="175.5605"/><text fill="#000000" font-family="sans-serif" font-size="6" font-style="italic" lengthAdjust="spacing" textLength="36.5" x="370.25" y="184.5352">&#171;Root Entity&#187;</text><text fill="#000000" font-family="sans-serif" font-size="7" lengthAdjust="spacing" textLength="38" x="369.5" y="193.5947">JobOpening</text><line style="stroke:#181818;stroke-width:0.25;" x1="368.5" x2="408.5" y1="197.8516" y2="197.8516"/></g><!--class JobReference--><g id="elem_JobReference"><rect codeLine="42" fill="#F1F1F1" height="26.291" id="JobReference" rx="1.25" ry="1.25" style="stroke:#181818;stroke-width:0.25;" width="47" x="512.25" y="260.5605"/><text fill="#000000" font-family="sans-serif" font-size="6" font-style="italic" lengthAdjust="spacing" textLength="42.5" x="514.5" y="269.5352">&#171;Value Object&#187;</text><text fill="#000000" font-family="sans-serif" font-size="7" lengthAdjust="spacing" textLength="44" x="513.75" y="278.5947">JobReference</text><line style="stroke:#181818;stroke-width:0.25;" x1="512.75" x2="558.75" y1="282.8516" y2="282.8516"/></g><!--class JobFunction--><g id="elem_JobFunction"><rect codeLine="43" fill="#F1F1F1" height="26.291" id="JobFunction" rx="1.25" ry="1.25" style="stroke:#181818;stroke-width:0.25;" width="43.5" x="514" y="216.5605"/><text fill="#000000" font-family="sans-serif" font-size="6" font-style="italic" lengthAdjust="spacing" textLength="42.5" x="514.5" y="225.5352">&#171;Value Object&#187;</text><text fill="#000000" font-family="sans-serif" font-size="7" lengthAdjust="spacing" textLength="38.5" x="516.5" y="234.5947">JobFunction</text><line style="stroke:#181818;stroke-width:0.25;" x1="514.5" x2="557" y1="238.8516" y2="238.8516"/></g><!--class Phase--><g id="elem_Phase"><rect codeLine="44" fill="#F1F1F1" height="72.8438" id="Phase" rx="1.25" ry="1.25" style="stroke:#181818;stroke-width:0.25;" width="50.5" x="510.5" y="125.8105"/><text fill="#000000" font-family="sans-serif" font-size="6" font-style="italic" lengthAdjust="spacing" textLength="42.5" x="514.5" y="134.7852">&#171;Value Object&#187;</text><text fill="#000000" font-family="sans-serif" font-size="7" lengthAdjust="spacing" textLength="20" x="525.75" y="143.8447">Phase</text><line style="stroke:#181818;stroke-width:0.25;" x1="511" x2="560.5" y1="148.1016" y2="148.1016"/><text fill="#000000" font-family="sans-serif" font-size="7" lengthAdjust="spacing" textLength="44.5" x="513.5" y="157.6553">APPLICATION</text><text fill="#000000" font-family="sans-serif" font-size="7" lengthAdjust="spacing" textLength="39.5" x="513.5" y="166.9658">SCREENING</text><text fill="#000000" font-family="sans-serif" font-size="7" lengthAdjust="spacing" textLength="41.5" x="513.5" y="176.2764">INTERVIEWS</text><text fill="#000000" font-family="sans-serif" font-size="7" lengthAdjust="spacing" textLength="32.5" x="513.5" y="185.5869">ANALYSIS</text><text fill="#000000" font-family="sans-serif" font-size="7" lengthAdjust="spacing" textLength="27" x="513.5" y="194.8975">RESULT</text></g><!--class Status--><g id="elem_Status"><rect codeLine="51" fill="#F1F1F1" height="54.2227" id="Status" rx="1.25" ry="1.25" style="stroke:#181818;stroke-width:0.25;" width="55" x="718.5" y="109.3105"/><text fill="#000000" font-family="sans-serif" font-size="6" font-style="italic" lengthAdjust="spacing" textLength="42.5" x="724.75" y="118.2852">&#171;Value Object&#187;</text><text fill="#000000" font-family="sans-serif" font-size="7" lengthAdjust="spacing" textLength="20" x="736" y="127.3447">Status</text><line style="stroke:#181818;stroke-width:0.25;" x1="719" x2="773" y1="131.6016" y2="131.6016"/><text fill="#000000" font-family="sans-serif" font-size="7" lengthAdjust="spacing" textLength="30" x="721.5" y="141.1553">PENDING</text><text fill="#000000" font-family="sans-serif" font-size="7" lengthAdjust="spacing" textLength="49" x="721.5" y="150.4658">IN_PROGRESS</text><text fill="#000000" font-family="sans-serif" font-size="7" lengthAdjust="spacing" textLength="43" x="721.5" y="159.7764">COMPLETED</text></g><!--class PhaseDetails--><g id="elem_PhaseDetails"><rect codeLine="56" fill="#F1F1F1" height="26.291" id="PhaseDetails" rx="1.25" ry="1.25" style="stroke:#181818;stroke-width:0.25;" width="44.5" x="626" y="144.0605"/><text fill="#000000" font-family="sans-serif" font-size="6" font-style="italic" lengthAdjust="spacing" textLength="42.5" x="627" y="153.0352">&#171;Value Object&#187;</text><text fill="#000000" font-family="sans-serif" font-size="7" lengthAdjust="spacing" textLength="41.5" x="627.5" y="162.0947">PhaseDetails</text><line style="stroke:#181818;stroke-width:0.25;" x1="626.5" x2="670" y1="166.3516" y2="166.3516"/></g><!--class JobApplication--><g id="elem_JobApplication"><rect codeLine="60" fill="#F1F1F1" height="26.291" id="JobApplication" rx="1.25" ry="1.25" style="stroke:#181818;stroke-width:0.25;" width="48.5" x="511.5" y="326.0605"/><text fill="#000000" font-family="sans-serif" font-size="6" font-style="italic" lengthAdjust="spacing" textLength="36.5" x="517.5" y="335.0352">&#171;Root Entity&#187;</text><text fill="#000000" font-family="sans-serif" font-size="7" lengthAdjust="spacing" textLength="45.5" x="513" y="344.0947">JobApplication</text><line style="stroke:#181818;stroke-width:0.25;" x1="512" x2="559.5" y1="348.3516" y2="348.3516"/></g><!--class CustomerManager--><g id="elem_CustomerManager"><rect codeLine="27" fill="#F1F1F1" height="18.3105" id="CustomerManager" rx="1.25" ry="1.25" style="stroke:#181818;stroke-width:0.25;" width="61.5" x="230.5" y="70.5605"/><text fill="#000000" font-family="sans-serif" font-size="7" lengthAdjust="spacing" textLength="58.5" x="232" y="80.6143">CustomerManager</text><line style="stroke:#181818;stroke-width:0.25;" x1="231" x2="291.5" y1="84.8711" y2="84.8711"/></g><g id="elem_GMN8"><path d="M94.25,39.5605 L94.25,53.2061 L153.75,53.2061 L153.75,44.5605 L148.75,39.5605 L94.25,39.5605 " fill="#FEFFDD" style="stroke:#181818;stroke-width:0.25;"/><path d="M148.75,39.5605 L148.75,44.5605 L153.75,44.5605 L148.75,39.5605 " fill="#FEFFDD" style="stroke:#181818;stroke-width:0.5;"/><text fill="#000000" font-family="sans-serif" font-size="6.5" lengthAdjust="spacing" textLength="49" x="97.25" y="49.0747">conceptual class</text></g><!--class Admin--><g id="elem_Admin"><rect fill="#F1F1F1" height="18.3105" id="Admin" rx="1.25" ry="1.25" style="stroke:#181818;stroke-width:0.25;" width="22.5" x="112.75" y="70.5605"/><text fill="#000000" font-family="sans-serif" font-size="7" lengthAdjust="spacing" textLength="19.5" x="114.25" y="80.6143">Admin</text><line style="stroke:#181818;stroke-width:0.25;" x1="113.25" x2="134.75" y1="84.8711" y2="84.8711"/></g><!--link GMN8 to CustomerManager--><g id="link_GMN8_CustomerManager"><path d="M153.935,52.2055 C171.815,55.9305 195.065,61.0255 215.5,66.3105 C220.42,67.5855 225.61,69.0305 230.655,70.4955 " fill="none" id="GMN8-CustomerManager" style="stroke:#181818;stroke-width:0.5;stroke-dasharray:7.0,7.0;"/></g><!--link SystemUser to Name--><g id="link_SystemUser_Name"><path codeLine="63" d="M52.05,264.8555 C66.83,271.9855 87.005,281.7155 102.145,289.0155 " fill="none" id="SystemUser-Name" style="stroke:#181818;stroke-width:0.5;"/><text fill="#000000" font-family="sans-serif" font-size="6.5" lengthAdjust="spacing" textLength="3.5" x="55.9777" y="274.3585">1</text><text fill="#000000" font-family="sans-serif" font-size="6.5" lengthAdjust="spacing" textLength="3.5" x="94.7354" y="295.0579">1</text></g><!--link SystemUser to EmailAddress--><g id="link_SystemUser_EmailAddress"><path codeLine="64" d="M52.05,255.3105 C66.41,255.3105 85.865,255.3105 100.845,255.3105 " fill="none" id="SystemUser-EmailAddress" style="stroke:#181818;stroke-width:0.5;"/><text fill="#000000" font-family="sans-serif" font-size="6.5" lengthAdjust="spacing" textLength="3.5" x="55.9777" y="263.1133">1</text><text fill="#000000" font-family="sans-serif" font-size="6.5" lengthAdjust="spacing" textLength="3.5" x="93.5314" y="263.0026">1</text></g><!--link SystemUser to Role--><g id="link_SystemUser_Role"><path codeLine="65" d="M50.28,241.9755 C59.525,235.1355 71.19,226.5055 82.475,218.1555 " fill="none" id="SystemUser-Role" style="stroke:#181818;stroke-width:0.5;"/><text fill="#000000" font-family="sans-serif" font-size="6.5" lengthAdjust="spacing" textLength="3.5" x="50.6604" y="236.4642">1</text><text fill="#000000" font-family="sans-serif" font-size="6.5" lengthAdjust="spacing" textLength="2.5" x="76.0317" y="228.3728">*</text></g><!--reverse link SystemUser to CustomerManager--><g id="link_SystemUser_CustomerManager"><path codeLine="67" d="M35.2096,239.0421 C40.0296,215.6171 52.585,169.8905 82.5,142.3105 C88.225,137.0305 183.64,105.1605 232.455,89.0805 " fill="none" id="SystemUser-backto-CustomerManager" style="stroke:#181818;stroke-width:0.5;"/><polygon fill="#181818" points="34.605,241.9805,37.4709,237.976,35.1089,239.5318,33.553,237.1698,34.605,241.9805" style="stroke:#181818;stroke-width:0.5;"/><polygon fill="#000000" points="115.5099,104.6464,119.9994,103.079,118.2207,100.7394,115.5099,104.6464" style="stroke:#000000;stroke-width:0.5;"/><text fill="#000000" font-family="sans-serif" font-size="6.5" lengthAdjust="spacing" textLength="10.5" x="122" y="105.8247">is a</text></g><!--reverse link SystemUser to Candidate--><g id="link_SystemUser_Candidate"><path codeLine="68" d="M39.3855,271.3117 C47.0505,287.0217 60.83,309.7655 82.5,321.3105 C179.8,373.1405 320.075,352.7755 369.735,343.2005 " fill="none" id="SystemUser-backto-Candidate" style="stroke:#181818;stroke-width:0.5;"/><polygon fill="#181818" points="38.07,268.6155,38.2458,273.5368,39.1662,270.8624,41.8407,271.7829,38.07,268.6155" style="stroke:#181818;stroke-width:0.5;"/><polygon fill="#000000" points="189.5572,346.6017,193.6638,348.9992,194.2888,346.1275,189.5572,346.6017" style="stroke:#000000;stroke-width:0.5;"/><text fill="#000000" font-family="sans-serif" font-size="6.5" lengthAdjust="spacing" textLength="10.5" x="196.5" y="349.8247">is a</text></g><!--link Admin to CustomerManager--><g id="link_Admin_CustomerManager"><path codeLine="70" d="M135.42,79.8105 C155.815,79.8105 200.36,79.8105 230.46,79.8105 " fill="none" id="Admin-CustomerManager" style="stroke:#181818;stroke-width:0.5;"/><polygon fill="#000000" points="186.5,75.1333,181.9775,73.6638,181.9775,76.6028,186.5,75.1333" style="stroke:#000000;stroke-width:0.5;"/><text fill="#000000" font-family="sans-serif" font-size="6.5" lengthAdjust="spacing" textLength="26.5" x="188.5" y="77.8247">manages</text><text fill="#000000" font-family="sans-serif" font-size="6.5" lengthAdjust="spacing" textLength="3.5" x="139.2887" y="88.1223">1</text><text fill="#000000" font-family="sans-serif" font-size="6.5" lengthAdjust="spacing" textLength="2.5" x="224.0551" y="87.3631">*</text></g><!--link CustomerManager to Customer--><g id="link_CustomerManager_Customer"><path codeLine="72" d="M292.15,73.9105 C316.3,69.2255 349.285,62.8255 369.59,58.8855 " fill="none" id="CustomerManager-Customer" style="stroke:#181818;stroke-width:0.5;"/><polygon fill="#000000" points="311.9542,59.6571,307.2346,59.076,307.7944,61.9611,311.9542,59.6571" style="stroke:#000000;stroke-width:0.5;"/><text fill="#000000" font-family="sans-serif" font-size="6.5" lengthAdjust="spacing" textLength="26.5" x="314" y="62.8247">manages</text><text fill="#000000" font-family="sans-serif" font-size="6.5" lengthAdjust="spacing" textLength="3.5" x="295.9252" y="80.7533">1</text><text fill="#000000" font-family="sans-serif" font-size="6.5" lengthAdjust="spacing" textLength="2.5" x="363.247" y="67.4251">*</text></g><!--link Candidate to JobApplication--><g id="link_Candidate_JobApplication"><path codeLine="75" d="M407.375,339.3105 C433.725,339.3105 482.275,339.3105 511.38,339.3105 " fill="none" id="Candidate-JobApplication" style="stroke:#181818;stroke-width:0.5;"/><polygon fill="#000000" points="445.75,334.6333,441.2275,333.1638,441.2275,336.1028,445.75,334.6333" style="stroke:#000000;stroke-width:0.5;"/><text fill="#000000" font-family="sans-serif" font-size="6.5" lengthAdjust="spacing" textLength="28" x="447.75" y="337.3247">applies to</text><text fill="#000000" font-family="sans-serif" font-size="6.5" lengthAdjust="spacing" textLength="3.5" x="411.3066" y="347.1687">1</text><text fill="#000000" font-family="sans-serif" font-size="6.5" lengthAdjust="spacing" textLength="2.5" x="504.9569" y="347.0026">*</text></g><!--link CustomerManager to JobOpening--><g id="link_CustomerManager_JobOpening"><path codeLine="77" d="M272.515,89.1055 C294.935,108.4605 346.71,153.1605 372.63,175.5405 " fill="none" id="CustomerManager-JobOpening" style="stroke:#181818;stroke-width:0.5;"/><polygon fill="#000000" points="313.8923,118.767,311.4294,114.6993,309.5088,116.9238,313.8923,118.767" style="stroke:#000000;stroke-width:0.5;"/><text fill="#000000" font-family="sans-serif" font-size="6.5" lengthAdjust="spacing" textLength="21.5" x="316.5" y="119.8247">creates</text><text fill="#000000" font-family="sans-serif" font-size="6.5" lengthAdjust="spacing" textLength="3.5" x="271.5722" y="99.8049">1</text><text fill="#000000" font-family="sans-serif" font-size="6.5" lengthAdjust="spacing" textLength="2.5" x="365.957" y="169.8274">*</text></g><!--link JobOpening to JobApplication--><g id="link_JobOpening_JobApplication"><path codeLine="80" d="M395.88,202.1205 C404.365,217.7955 419.845,244.1105 437.5,263.3105 C460.78,288.6255 493.145,311.9855 514.145,325.9455 " fill="none" id="JobOpening-JobApplication" style="stroke:#181818;stroke-width:0.5;"/><polygon fill="#000000" points="452.7733,256.8254,454.8343,261.1109,456.9596,259.081,452.7733,256.8254" style="stroke:#000000;stroke-width:0.5;"/><text fill="#000000" font-family="sans-serif" font-size="6.5" lengthAdjust="spacing" textLength="5.5" x="459" y="261.3247">to</text><text fill="#000000" font-family="sans-serif" font-size="6.5" lengthAdjust="spacing" textLength="3.5" x="393.5412" y="212.793">1</text><text fill="#000000" font-family="sans-serif" font-size="6.5" lengthAdjust="spacing" textLength="2.5" x="506.3598" y="320.4272">*</text></g><!--link JobOpening to JobReference--><g id="link_JobOpening_JobReference"><path codeLine="81" d="M404.665,202.1705 C413.93,209.7955 426.055,219.2955 437.5,226.8105 C456.95,239.5855 462.545,241.6905 483.5,251.8105 C492.775,256.2905 503.195,260.8155 512.24,264.5855 " fill="none" id="JobOpening-JobReference" style="stroke:#181818;stroke-width:0.5;"/><polygon fill="#000000" points="442.1624,223.3879,438.988,219.8473,437.5131,222.3893,442.1624,223.3879" style="stroke:#000000;stroke-width:0.5;"/><text fill="#000000" font-family="sans-serif" font-size="6.5" lengthAdjust="spacing" textLength="34.5" x="444.5" y="224.8247">identified by</text><text fill="#000000" font-family="sans-serif" font-size="6.5" lengthAdjust="spacing" textLength="3.5" x="404.1381" y="212.8533">1</text><text fill="#000000" font-family="sans-serif" font-size="6.5" lengthAdjust="spacing" textLength="3.5" x="504.7142" y="270.8351">1</text></g><!--link JobOpening to Status--><g id="link_JobOpening_Status"><path codeLine="82" d="M400.84,175.5105 C417.335,158.0955 449.105,128.4205 483.5,116.8105 C565.505,89.1305 669.885,113.1955 718.42,127.5055 " fill="none" id="JobOpening-Status" style="stroke:#181818;stroke-width:0.5;"/><polygon fill="#000000" points="597.4719,100.2596,592.7805,99.4826,593.2198,102.3885,597.4719,100.2596" style="stroke:#000000;stroke-width:0.5;"/><text fill="#000000" font-family="sans-serif" font-size="6.5" lengthAdjust="spacing" textLength="10.5" x="599.5" y="103.3247">has</text><text fill="#000000" font-family="sans-serif" font-size="6.5" lengthAdjust="spacing" textLength="3.5" x="399.7889" y="170.0073">1</text><text fill="#000000" font-family="sans-serif" font-size="6.5" lengthAdjust="spacing" textLength="3.5" x="710.9788" y="133.9024">1</text></g><!--link JobOpening to Phase--><g id="link_JobOpening_Phase"><path codeLine="83" d="M409.03,185.1805 C435.43,180.3955 481.87,171.9805 510.46,166.8005 " fill="none" id="JobOpening-Phase" style="stroke:#181818;stroke-width:0.5;"/><polygon fill="#000000" points="454.4599,168.1875,449.7479,167.548,450.2719,170.4398,454.4599,168.1875" style="stroke:#000000;stroke-width:0.5;"/><text fill="#000000" font-family="sans-serif" font-size="6.5" lengthAdjust="spacing" textLength="10.5" x="456.5" y="171.3247">has</text><text fill="#000000" font-family="sans-serif" font-size="6.5" lengthAdjust="spacing" textLength="3.5" x="412.9986" y="192.3367">1</text><text fill="#000000" font-family="sans-serif" font-size="6.5" lengthAdjust="spacing" textLength="11" x="495.515" y="174.9539">4..5</text></g><!--link JobOpening to JobFunction--><g id="link_JobOpening_JobFunction"><path codeLine="84" d="M409.03,194.4255 C436.49,202.1255 485.62,215.8955 513.8,223.7955 " fill="none" id="JobOpening-JobFunction" style="stroke:#181818;stroke-width:0.5;"/><polygon fill="#000000" points="453.9072,199.3081,449.9492,196.6725,449.1559,199.5023,453.9072,199.3081" style="stroke:#000000;stroke-width:0.5;"/><text fill="#000000" font-family="sans-serif" font-size="6.5" lengthAdjust="spacing" textLength="11.5" x="456" y="201.3247">with</text><text fill="#000000" font-family="sans-serif" font-size="6.5" lengthAdjust="spacing" textLength="3.5" x="412.9986" y="203.2285">1</text><text fill="#000000" font-family="sans-serif" font-size="6.5" lengthAdjust="spacing" textLength="3.5" x="506.5228" y="230.5567">1</text></g><!--link Phase to PhaseDetails--><g id="link_Phase_PhaseDetails"><path codeLine="86" d="M561.135,161.1955 C580.58,160.3205 607.345,159.1205 625.955,158.2855 " fill="none" id="Phase-PhaseDetails" style="stroke:#181818;stroke-width:0.5;"/><polygon fill="#000000" points="596.9975,154.5212,592.4136,153.256,592.5454,156.192,596.9975,154.5212" style="stroke:#000000;stroke-width:0.5;"/><text fill="#000000" font-family="sans-serif" font-size="6.5" lengthAdjust="spacing" textLength="11.5" x="599" y="157.3247">with</text><text fill="#000000" font-family="sans-serif" font-size="6.5" lengthAdjust="spacing" textLength="3.5" x="564.9509" y="168.6718">1</text><text fill="#000000" font-family="sans-serif" font-size="6.5" lengthAdjust="spacing" textLength="3.5" x="618.4725" y="166.1945">1</text></g><!--link PhaseDetails to Status--><g id="link_PhaseDetails_Status"><path codeLine="87" d="M670.705,152.5455 C684.865,149.4705 703.385,145.4505 718.45,142.1805 " fill="none" id="PhaseDetails-Status" style="stroke:#181818;stroke-width:0.5;"/><polygon fill="#000000" points="690.4431,140.6029,685.7118,140.1264,686.3352,142.9984,690.4431,140.6029" style="stroke:#000000;stroke-width:0.5;"/><text fill="#000000" font-family="sans-serif" font-size="6.5" lengthAdjust="spacing" textLength="10.5" x="692.5" y="143.8247">has</text><text fill="#000000" font-family="sans-serif" font-size="6.5" lengthAdjust="spacing" textLength="3.5" x="674.5627" y="159.5059">1</text><text fill="#000000" font-family="sans-serif" font-size="6.5" lengthAdjust="spacing" textLength="3.5" x="711.0128" y="150.5494">1</text></g><!--SRC=[VLJRRfj047tVhnZvgQtaA57J5ykAX0oDgCn5W1FrALh366y3B895aLlvtpjWXukDuGLspfapitEXV1TPpWkUGix3TnwZhmu9Ge6XubcS82jRGhddaVmGMGmxdfJ8Ub2OyBBKb2h4jb9eXZBpnL-4UyQKp459s4gbP0gHg8M5p5Y2ErK3XOZtgcTdUn4XXA88ANRpdQBQowWaAQ4eCrscN6HWoGWJ-A9RNs4EczNzzqV6pZS0_r0gJ3Sb5beS5nXpXV2F0JrDdZqSbajFIWL6HkA7fwSUoUOf4lp2amh1sVwX_0QuGMaaMXGLI8TH7cPL2fvChcNEsTIFfbkctPvM6pzmBCDxipHRUpQy5d1SmzC2nxjYTWRDrarT2up6ScH7naw9hggIIe-5nJCgJi4oIULeoYztb-02g7KXvghYoUcUh2lh9tUyg9_eLKcFFGMUHI8YpniId_2OHYloIswT73EQmt6L3f_eBf4yt661TDkfBXFlPvKrepdHP7VFo-akk-xQN6c1wNIzzbUUOTYc_TnQJ3iml1VJUFKxHrjR__RDpk0P_cOTd7lS9k0hhgfoAWFNeF4On7fpFUUPv3hjbMEvQoCmz9xygGpD1NLKDF8ZmtuSD4VByqI4l2xPpGRrE6EzxYtex646ytdpgZVo1jHVnZ7AjrcpY0FbvPoGY_c71OWIE2olYUrijXIcHIdzYNenhjNIvgk49yOkmH6_eGFhOlQu5zLR0AzFv44_q-aelSMWFI-GX4znUi1K80gm7EC-p8RhH0MAaBgv4nZ1za0XnftEGxi06gvnqkFTtO_PURicQAS4sZrTm8TG-_fc9yyURJ37BMzWlPqW-my0]--></g></svg>