<?xml version="1.0" encoding="us-ascii" standalone="no"?><svg xmlns="http://www.w3.org/2000/svg" xmlns:xlink="http://www.w3.org/1999/xlink" contentStyleType="text/css" height="351.4px" preserveAspectRatio="none" style="width:685px;height:351px;background:#FFFFFF;" version="1.1" viewBox="0 0 685 351" width="685.3px" zoomAndPan="magnify"><defs/><g><rect fill="#FFFFFF" height="200.6334" style="stroke:#181818;stroke-width:0.6999999999999998;" width="7" x="43.05" y="68.7695"/><rect fill="#FFFFFF" height="190.6297" style="stroke:#181818;stroke-width:0.6999999999999998;" width="7" x="175.35" y="85.0732"/><rect fill="#FFFFFF" height="140.5223" style="stroke:#181818;stroke-width:0.6999999999999998;" width="7" x="294.7" y="106.977"/><rect fill="#FFFFFF" height="118.6186" style="stroke:#181818;stroke-width:0.6999999999999998;" width="7" x="442.05" y="106.977"/><rect fill="#FFFFFF" height="74.8111" style="stroke:#181818;stroke-width:0.6999999999999998;" width="7" x="578.2" y="150.7844"/><line style="stroke:#181818;stroke-width:0.3499999999999999;stroke-dasharray:5.0,5.0;" x1="46.2" x2="46.2" y1="61.7695" y2="282.0029"/><line style="stroke:#181818;stroke-width:0.3499999999999999;stroke-dasharray:5.0,5.0;" x1="178.5" x2="178.5" y1="61.7695" y2="282.0029"/><line style="stroke:#181818;stroke-width:0.3499999999999999;stroke-dasharray:5.0,5.0;" x1="298.2" x2="298.2" y1="61.7695" y2="282.0029"/><line style="stroke:#181818;stroke-width:0.3499999999999999;stroke-dasharray:5.0,5.0;" x1="445.2" x2="445.2" y1="61.7695" y2="282.0029"/><line style="stroke:#181818;stroke-width:0.3499999999999999;stroke-dasharray:5.0,5.0;" x1="581.7" x2="581.7" y1="61.7695" y2="282.0029"/><text fill="#000000" font-family="sans-serif" font-size="9.8" lengthAdjust="spacing" textLength="81.9" x="3.5" y="59.31">CustomerManager</text><ellipse cx="46.55" cy="12.6848" fill="#E3E3E3" rx="5.6" ry="5.6" style="stroke:#181818;stroke-width:0.3499999999999999;"/><path d="M46.55,18.2848 L46.55,37.1848 M37.45,23.8848 L55.65,23.8848 M46.55,37.1848 L37.45,47.6848 M46.55,37.1848 L55.65,47.6848 " fill="none" style="stroke:#181818;stroke-width:0.3499999999999999;"/><text fill="#000000" font-family="sans-serif" font-size="9.8" lengthAdjust="spacing" textLength="81.9" x="3.5" y="291.8781">CustomerManager</text><ellipse cx="46.55" cy="300.2877" fill="#E3E3E3" rx="5.6" ry="5.6" style="stroke:#181818;stroke-width:0.3499999999999999;"/><path d="M46.55,305.8877 L46.55,324.7877 M37.45,311.4877 L55.65,311.4877 M46.55,324.7877 L37.45,335.2877 M46.55,324.7877 L55.65,335.2877 " fill="none" style="stroke:#181818;stroke-width:0.3499999999999999;"/><rect fill="#E3E3E3" height="35.8695" rx="1.75" ry="1.75" style="stroke:#181818;stroke-width:0.3499999999999999;" width="97.3" x="130.2" y="25.2"/><text fill="#000000" font-family="sans-serif" font-size="9.8" font-style="italic" lengthAdjust="spacing" textLength="66.5" x="145.6" y="40.6752">&#171;presentation&#187;</text><text fill="#000000" font-family="sans-serif" font-size="9.8" lengthAdjust="spacing" textLength="87.5" x="135.1" y="53.71">: ListJobOpeningsUI</text><rect fill="#E3E3E3" height="35.8695" rx="1.75" ry="1.75" style="stroke:#181818;stroke-width:0.3499999999999999;" width="97.3" x="130.2" y="281.3029"/><text fill="#000000" font-family="sans-serif" font-size="9.8" font-style="italic" lengthAdjust="spacing" textLength="66.5" x="145.6" y="296.7781">&#171;presentation&#187;</text><text fill="#000000" font-family="sans-serif" font-size="9.8" lengthAdjust="spacing" textLength="87.5" x="135.1" y="309.8129">: ListJobOpeningsUI</text><rect fill="#E3E3E3" height="35.8695" rx="1.75" ry="1.75" style="stroke:#181818;stroke-width:0.3499999999999999;" width="127.4" x="234.5" y="25.2"/><text fill="#000000" font-family="sans-serif" font-size="9.8" font-style="italic" lengthAdjust="spacing" textLength="58.8" x="268.8" y="40.6752">&#171;application&#187;</text><text fill="#000000" font-family="sans-serif" font-size="9.8" lengthAdjust="spacing" textLength="117.6" x="239.4" y="53.71">: ListJobOpeningController</text><rect fill="#E3E3E3" height="35.8695" rx="1.75" ry="1.75" style="stroke:#181818;stroke-width:0.3499999999999999;" width="127.4" x="234.5" y="281.3029"/><text fill="#000000" font-family="sans-serif" font-size="9.8" font-style="italic" lengthAdjust="spacing" textLength="58.8" x="268.8" y="296.7781">&#171;application&#187;</text><text fill="#000000" font-family="sans-serif" font-size="9.8" lengthAdjust="spacing" textLength="117.6" x="239.4" y="309.8129">: ListJobOpeningController</text><rect fill="#E3E3E3" height="35.8695" rx="1.75" ry="1.75" style="stroke:#181818;stroke-width:0.3499999999999999;" width="153.3" x="368.9" y="25.2"/><text fill="#000000" font-family="sans-serif" font-size="9.8" font-style="italic" lengthAdjust="spacing" textLength="42" x="424.55" y="40.6752">&#171;service&#187;</text><text fill="#000000" font-family="sans-serif" font-size="9.8" lengthAdjust="spacing" textLength="143.5" x="373.8" y="53.71">JobOpeningManagementService</text><rect fill="#E3E3E3" height="35.8695" rx="1.75" ry="1.75" style="stroke:#181818;stroke-width:0.3499999999999999;" width="153.3" x="368.9" y="281.3029"/><text fill="#000000" font-family="sans-serif" font-size="9.8" font-style="italic" lengthAdjust="spacing" textLength="42" x="424.55" y="296.7781">&#171;service&#187;</text><text fill="#000000" font-family="sans-serif" font-size="9.8" lengthAdjust="spacing" textLength="143.5" x="373.8" y="309.8129">JobOpeningManagementService</text><text fill="#000000" font-family="sans-serif" font-size="9.8" font-style="italic" lengthAdjust="spacing" textLength="55.3" x="551.95" y="46.2752">&#171;repository&#187;</text><text fill="#000000" font-family="sans-serif" font-size="9.8" lengthAdjust="spacing" textLength="100.8" x="529.2" y="59.31">JobOpeningRepository</text><path d="M569.1,10.5 C569.1,3.5 581.7,3.5 581.7,3.5 C581.7,3.5 594.3,3.5 594.3,10.5 L594.3,28.7 C594.3,35.7 581.7,35.7 581.7,35.7 C581.7,35.7 569.1,35.7 569.1,28.7 L569.1,10.5 " fill="#E3E3E3" style="stroke:#181818;stroke-width:1.0499999999999998;"/><path d="M569.1,10.5 C569.1,17.5 581.7,17.5 581.7,17.5 C581.7,17.5 594.3,17.5 594.3,10.5 " fill="none" style="stroke:#181818;stroke-width:1.0499999999999998;"/><text fill="#000000" font-family="sans-serif" font-size="9.8" font-style="italic" lengthAdjust="spacing" textLength="55.3" x="551.95" y="291.8781">&#171;repository&#187;</text><text fill="#000000" font-family="sans-serif" font-size="9.8" lengthAdjust="spacing" textLength="100.8" x="529.2" y="304.9129">JobOpeningRepository</text><path d="M569.1,314.3725 C569.1,307.3725 581.7,307.3725 581.7,307.3725 C581.7,307.3725 594.3,307.3725 594.3,314.3725 L594.3,332.5725 C594.3,339.5725 581.7,339.5725 581.7,339.5725 C581.7,339.5725 569.1,339.5725 569.1,332.5725 L569.1,314.3725 " fill="#E3E3E3" style="stroke:#181818;stroke-width:1.0499999999999998;"/><path d="M569.1,314.3725 C569.1,321.3725 581.7,321.3725 581.7,321.3725 C581.7,321.3725 594.3,321.3725 594.3,314.3725 " fill="none" style="stroke:#181818;stroke-width:1.0499999999999998;"/><rect fill="#FFFFFF" height="200.6334" style="stroke:#181818;stroke-width:0.6999999999999998;" width="7" x="43.05" y="68.7695"/><rect fill="#FFFFFF" height="190.6297" style="stroke:#181818;stroke-width:0.6999999999999998;" width="7" x="175.35" y="85.0732"/><rect fill="#FFFFFF" height="140.5223" style="stroke:#181818;stroke-width:0.6999999999999998;" width="7" x="294.7" y="106.977"/><rect fill="#FFFFFF" height="118.6186" style="stroke:#181818;stroke-width:0.6999999999999998;" width="7" x="442.05" y="106.977"/><rect fill="#FFFFFF" height="74.8111" style="stroke:#181818;stroke-width:0.6999999999999998;" width="7" x="578.2" y="150.7844"/><polygon fill="#181818" points="166.95,82.2732,173.95,85.0732,166.95,87.8732,169.75,85.0732" style="stroke:#181818;stroke-width:0.6999999999999998;"/><line style="stroke:#181818;stroke-width:0.6999999999999998;" x1="50.05" x2="171.15" y1="85.0732" y2="85.0732"/><text fill="#000000" font-family="sans-serif" font-size="9.1" font-weight="bold" lengthAdjust="spacing" textLength="4.9" x="54.95" y="81.3894">1</text><text fill="#000000" font-family="sans-serif" font-size="9.1" lengthAdjust="spacing" textLength="104.3" x="62.65" y="81.3894">asks to  list job openings.</text><polygon fill="#181818" points="286.3,104.177,293.3,106.977,286.3,109.777,289.1,106.977" style="stroke:#181818;stroke-width:0.6999999999999998;"/><line style="stroke:#181818;stroke-width:0.6999999999999998;" x1="182.35" x2="290.5" y1="106.977" y2="106.977"/><text fill="#000000" font-family="sans-serif" font-size="9.1" font-weight="bold" lengthAdjust="spacing" textLength="4.9" x="187.25" y="103.2931">2</text><text fill="#000000" font-family="sans-serif" font-size="9.1" lengthAdjust="spacing" textLength="67.2" x="194.95" y="103.2931">allJobOpenings()</text><polygon fill="#181818" points="433.65,126.0807,440.65,128.8807,433.65,131.6807,436.45,128.8807" style="stroke:#181818;stroke-width:0.6999999999999998;"/><line style="stroke:#181818;stroke-width:0.6999999999999998;" x1="301.7" x2="437.85" y1="128.8807" y2="128.8807"/><text fill="#000000" font-family="sans-serif" font-size="9.1" font-weight="bold" lengthAdjust="spacing" textLength="4.9" x="306.6" y="125.1968">3</text><text fill="#000000" font-family="sans-serif" font-size="9.1" lengthAdjust="spacing" textLength="67.2" x="314.3" y="125.1968">allJobOpenings()</text><polygon fill="#181818" points="569.8,147.9844,576.8,150.7844,569.8,153.5844,572.6,150.7844" style="stroke:#181818;stroke-width:0.6999999999999998;"/><line style="stroke:#181818;stroke-width:0.6999999999999998;" x1="449.05" x2="574" y1="150.7844" y2="150.7844"/><text fill="#000000" font-family="sans-serif" font-size="9.1" font-weight="bold" lengthAdjust="spacing" textLength="4.9" x="453.95" y="147.1005">4</text><text fill="#000000" font-family="sans-serif" font-size="9.1" lengthAdjust="spacing" textLength="67.2" x="461.65" y="147.1005">allJobOpenings()</text><line style="stroke:#181818;stroke-width:0.6999999999999998;stroke-dasharray:2.0,2.0;" x1="585.2" x2="614.6" y1="172.6881" y2="172.6881"/><line style="stroke:#181818;stroke-width:0.6999999999999998;stroke-dasharray:2.0,2.0;" x1="614.6" x2="614.6" y1="172.6881" y2="181.7881"/><line style="stroke:#181818;stroke-width:0.6999999999999998;stroke-dasharray:2.0,2.0;" x1="585.9" x2="614.6" y1="181.7881" y2="181.7881"/><polygon fill="#181818" points="592.9,178.9881,585.9,181.7881,592.9,184.5881,590.1,181.7881" style="stroke:#181818;stroke-width:0.6999999999999998;"/><text fill="#000000" font-family="sans-serif" font-size="9.1" font-weight="bold" lengthAdjust="spacing" textLength="4.9" x="590.1" y="169.0042">5</text><text fill="#000000" font-family="sans-serif" font-size="9.1" lengthAdjust="spacing" textLength="82.6" x="597.8" y="169.0042">select(JobOpenings)</text><polygon fill="#181818" points="456.75,200.8918,449.75,203.6918,456.75,206.4918,453.95,203.6918" style="stroke:#181818;stroke-width:0.6999999999999998;"/><line style="stroke:#181818;stroke-width:0.6999999999999998;stroke-dasharray:2.0,2.0;" x1="452.55" x2="577.5" y1="203.6918" y2="203.6918"/><text fill="#000000" font-family="sans-serif" font-size="9.1" font-weight="bold" lengthAdjust="spacing" textLength="4.9" x="460.95" y="200.0079">6</text><text fill="#000000" font-family="sans-serif" font-size="9.1" lengthAdjust="spacing" textLength="52.5" x="468.65" y="200.0079">JobOpenings</text><polygon fill="#181818" points="309.4,222.7955,302.4,225.5955,309.4,228.3955,306.6,225.5955" style="stroke:#181818;stroke-width:0.6999999999999998;"/><line style="stroke:#181818;stroke-width:0.6999999999999998;" x1="305.2" x2="444.85" y1="225.5955" y2="225.5955"/><text fill="#000000" font-family="sans-serif" font-size="9.1" font-weight="bold" lengthAdjust="spacing" textLength="4.9" x="313.6" y="221.9116">7</text><text fill="#000000" font-family="sans-serif" font-size="9.1" lengthAdjust="spacing" textLength="52.5" x="321.3" y="221.9116">JobOpenings</text><polygon fill="#181818" points="190.05,244.6992,183.05,247.4992,190.05,250.2992,187.25,247.4992" style="stroke:#181818;stroke-width:0.6999999999999998;"/><line style="stroke:#181818;stroke-width:0.6999999999999998;stroke-dasharray:2.0,2.0;" x1="185.85" x2="297.5" y1="247.4992" y2="247.4992"/><text fill="#000000" font-family="sans-serif" font-size="9.1" font-weight="bold" lengthAdjust="spacing" textLength="4.9" x="194.25" y="243.8153">8</text><text fill="#000000" font-family="sans-serif" font-size="9.1" lengthAdjust="spacing" textLength="52.5" x="201.95" y="243.8153">JobOpenings</text><polygon fill="#181818" points="54.25,266.6029,47.25,269.4029,54.25,272.2029,51.45,269.4029" style="stroke:#181818;stroke-width:0.6999999999999998;"/><line style="stroke:#181818;stroke-width:0.6999999999999998;" x1="50.05" x2="174.65" y1="269.4029" y2="269.4029"/><text fill="#000000" font-family="sans-serif" font-size="9.1" font-weight="bold" lengthAdjust="spacing" textLength="4.9" x="58.45" y="265.719">9</text><text fill="#000000" font-family="sans-serif" font-size="9.1" lengthAdjust="spacing" textLength="40.6" x="66.15" y="265.719">shows list</text><!--SRC=[bLF1Ri8m3BtdAomkWyFs0QZYmebfQD8G7-2s1ZBIk4fI67y_jz0sG46R3rKJFx_dl3X-hss93Wies7AsSrmG15UHybscn6oFMrg5ao5mb0MqMnC3_0vpFcgxXGqQJqfX5TXMHKfEgPUTpWasp27b7uLPO0UZUUM3ABabMc5s8q0FywKIkg0pNQ8DC9h2X_RXdTFFagoG-_MYmLtlhXUG9AKZJpPWq6ndi-SqSxR1iJ6jQhSK7YnBexCXchx-t78XSYjo1vrHpTB-9ea__qcvKZa6JD5JLFr59Nij7fpgii7z977Teg6H4Dlq0GFL9W785rvdzqPCXNFl8J20aHnySmfyCU-jvxYjQnJko4GWyaQeZOdkOZnHTIDDzCrr-5xiuam7RYFY5gNMlm6P6joc1JbesOEoEBg6XWZK7NnGvlMnlYSZ3sCSzJ3v1sb__8X0HQU-keaOSokHq_E3Hlc_tCpmbCKDg07bQ0uUpzQoTct7Hz_CQlrQA9xoNm00]--></g></svg>