<?xml version="1.0" encoding="us-ascii" standalone="no"?><svg xmlns="http://www.w3.org/2000/svg" xmlns:xlink="http://www.w3.org/1999/xlink" contentStyleType="text/css" height="720px" preserveAspectRatio="none" style="width:991px;height:720px;background:#FFFFFF;" version="1.1" viewBox="0 0 991 720" width="991px" zoomAndPan="magnify"><defs/><g><!--class ListJobOpeningsUI--><g id="elem_ListJobOpeningsUI"><rect codeLine="8" fill="#F1F1F1" height="60.582" id="ListJobOpeningsUI" rx="2.5" ry="2.5" style="stroke:#181818;stroke-width:0.5;" width="149" x="670.5" y="7"/><ellipse cx="685.5" cy="29.291" fill="#ADD1B2" rx="11" ry="11" style="stroke:#181818;stroke-width:1.0;"/><path d="M688.2656,25.166 Q688.4219,24.9473 688.6094,24.8379 Q688.7969,24.7285 689.0156,24.7285 Q689.3906,24.7285 689.625,24.9941 Q689.8594,25.2441 689.8594,25.8535 L689.8594,27.3066 Q689.8594,27.916 689.625,28.1816 Q689.3906,28.4473 689.0156,28.4473 Q688.6719,28.4473 688.4688,28.2441 Q688.2656,28.0566 688.1563,27.541 Q688.1094,27.1816 687.9219,26.9941 Q687.5938,26.6191 686.9844,26.4004 Q686.375,26.1816 685.75,26.1816 Q684.9844,26.1816 684.3438,26.5098 Q683.7188,26.8379 683.2188,27.5879 Q682.7344,28.3379 682.7344,29.3691 L682.7344,30.4629 Q682.7344,31.6973 683.625,32.5254 Q684.5156,33.3379 686.1094,33.3379 Q687.0469,33.3379 687.7031,33.0879 Q688.0938,32.9316 688.5156,32.4941 Q688.7813,32.2285 688.9219,32.1504 Q689.0781,32.0723 689.2813,32.0723 Q689.6094,32.0723 689.8594,32.3379 Q690.125,32.5879 690.125,32.9316 Q690.125,33.2754 689.7813,33.6816 Q689.2813,34.2598 688.4844,34.5879 Q687.4063,35.041 686.1094,35.041 Q684.5938,35.041 683.3906,34.416 Q682.4063,33.916 681.7188,32.8535 Q681.0313,31.7754 681.0313,30.4941 L681.0313,29.3379 Q681.0313,28.0098 681.6406,26.8691 Q682.2656,25.7129 683.3594,25.1035 Q684.4531,24.4785 685.6875,24.4785 Q686.4219,24.4785 687.0625,24.6504 Q687.7188,24.8066 688.2656,25.166 Z " fill="#000000"/><text fill="#000000" font-family="sans-serif" font-size="12" font-style="italic" lengthAdjust="spacing" textLength="61" x="727.5" y="24.9492">&#171;interface&#187;</text><text fill="#000000" font-family="sans-serif" font-size="14" lengthAdjust="spacing" textLength="117" x="699.5" y="43.0684">ListJobOpeningsUI</text><line style="stroke:#181818;stroke-width:0.5;" x1="671.5" x2="818.5" y1="51.582" y2="51.582"/><line style="stroke:#181818;stroke-width:0.5;" x1="671.5" x2="818.5" y1="59.582" y2="59.582"/></g><!--class ListJobOpeningController--><g id="elem_ListJobOpeningController"><rect codeLine="10" fill="#F1F1F1" height="60.582" id="ListJobOpeningController" rx="2.5" ry="2.5" style="stroke:#181818;stroke-width:0.5;" width="192" x="649" y="129"/><ellipse cx="664" cy="151.291" fill="#ADD1B2" rx="11" ry="11" style="stroke:#181818;stroke-width:1.0;"/><path d="M666.7656,147.166 Q666.9219,146.9473 667.1094,146.8379 Q667.2969,146.7285 667.5156,146.7285 Q667.8906,146.7285 668.125,146.9941 Q668.3594,147.2441 668.3594,147.8535 L668.3594,149.3066 Q668.3594,149.916 668.125,150.1816 Q667.8906,150.4473 667.5156,150.4473 Q667.1719,150.4473 666.9688,150.2441 Q666.7656,150.0566 666.6563,149.541 Q666.6094,149.1816 666.4219,148.9941 Q666.0938,148.6191 665.4844,148.4004 Q664.875,148.1816 664.25,148.1816 Q663.4844,148.1816 662.8438,148.5098 Q662.2188,148.8379 661.7188,149.5879 Q661.2344,150.3379 661.2344,151.3691 L661.2344,152.4629 Q661.2344,153.6973 662.125,154.5254 Q663.0156,155.3379 664.6094,155.3379 Q665.5469,155.3379 666.2031,155.0879 Q666.5938,154.9316 667.0156,154.4941 Q667.2813,154.2285 667.4219,154.1504 Q667.5781,154.0723 667.7813,154.0723 Q668.1094,154.0723 668.3594,154.3379 Q668.625,154.5879 668.625,154.9316 Q668.625,155.2754 668.2813,155.6816 Q667.7813,156.2598 666.9844,156.5879 Q665.9063,157.041 664.6094,157.041 Q663.0938,157.041 661.8906,156.416 Q660.9063,155.916 660.2188,154.8535 Q659.5313,153.7754 659.5313,152.4941 L659.5313,151.3379 Q659.5313,150.0098 660.1406,148.8691 Q660.7656,147.7129 661.8594,147.1035 Q662.9531,146.4785 664.1875,146.4785 Q664.9219,146.4785 665.5625,146.6504 Q666.2188,146.8066 666.7656,147.166 Z " fill="#000000"/><text fill="#000000" font-family="sans-serif" font-size="12" font-style="italic" lengthAdjust="spacing" textLength="65" x="725.5" y="146.9492">&#171;controller&#187;</text><text fill="#000000" font-family="sans-serif" font-size="14" lengthAdjust="spacing" textLength="160" x="678" y="165.0684">ListJobOpeningController</text><line style="stroke:#181818;stroke-width:0.5;" x1="650" x2="840" y1="173.582" y2="173.582"/><line style="stroke:#181818;stroke-width:0.5;" x1="650" x2="840" y1="181.582" y2="181.582"/></g><!--class JobOpeningRepository--><g id="elem_JobOpeningRepository"><rect codeLine="12" fill="#F1F1F1" height="60.582" id="JobOpeningRepository" rx="2.5" ry="2.5" style="stroke:#181818;stroke-width:0.5;" width="176" x="536" y="269"/><ellipse cx="551" cy="291.291" fill="#ADD1B2" rx="11" ry="11" style="stroke:#181818;stroke-width:1.0;"/><path d="M553.7656,287.166 Q553.9219,286.9473 554.1094,286.8379 Q554.2969,286.7285 554.5156,286.7285 Q554.8906,286.7285 555.125,286.9941 Q555.3594,287.2441 555.3594,287.8535 L555.3594,289.3066 Q555.3594,289.916 555.125,290.1816 Q554.8906,290.4473 554.5156,290.4473 Q554.1719,290.4473 553.9688,290.2441 Q553.7656,290.0566 553.6563,289.541 Q553.6094,289.1816 553.4219,288.9941 Q553.0938,288.6191 552.4844,288.4004 Q551.875,288.1816 551.25,288.1816 Q550.4844,288.1816 549.8438,288.5098 Q549.2188,288.8379 548.7188,289.5879 Q548.2344,290.3379 548.2344,291.3691 L548.2344,292.4629 Q548.2344,293.6973 549.125,294.5254 Q550.0156,295.3379 551.6094,295.3379 Q552.5469,295.3379 553.2031,295.0879 Q553.5938,294.9316 554.0156,294.4941 Q554.2813,294.2285 554.4219,294.1504 Q554.5781,294.0723 554.7813,294.0723 Q555.1094,294.0723 555.3594,294.3379 Q555.625,294.5879 555.625,294.9316 Q555.625,295.2754 555.2813,295.6816 Q554.7813,296.2598 553.9844,296.5879 Q552.9063,297.041 551.6094,297.041 Q550.0938,297.041 548.8906,296.416 Q547.9063,295.916 547.2188,294.8535 Q546.5313,293.7754 546.5313,292.4941 L546.5313,291.3379 Q546.5313,290.0098 547.1406,288.8691 Q547.7656,287.7129 548.8594,287.1035 Q549.9531,286.4785 551.1875,286.4785 Q551.9219,286.4785 552.5625,286.6504 Q553.2188,286.8066 553.7656,287.166 Z " fill="#000000"/><text fill="#000000" font-family="sans-serif" font-size="12" font-style="italic" lengthAdjust="spacing" textLength="68" x="603" y="286.9492">&#171;repository&#187;</text><text fill="#000000" font-family="sans-serif" font-size="14" lengthAdjust="spacing" textLength="144" x="565" y="305.0684">JobOpeningRepository</text><line style="stroke:#181818;stroke-width:0.5;" x1="537" x2="711" y1="313.582" y2="313.582"/><line style="stroke:#181818;stroke-width:0.5;" x1="537" x2="711" y1="321.582" y2="321.582"/></g><!--class JobOpeningManagementService--><g id="elem_JobOpeningManagementService"><rect codeLine="14" fill="#F1F1F1" height="60.582" id="JobOpeningManagementService" rx="2.5" ry="2.5" style="stroke:#181818;stroke-width:0.5;" width="237" x="747.5" y="269"/><ellipse cx="762.5" cy="291.291" fill="#ADD1B2" rx="11" ry="11" style="stroke:#181818;stroke-width:1.0;"/><path d="M765.2656,287.166 Q765.4219,286.9473 765.6094,286.8379 Q765.7969,286.7285 766.0156,286.7285 Q766.3906,286.7285 766.625,286.9941 Q766.8594,287.2441 766.8594,287.8535 L766.8594,289.3066 Q766.8594,289.916 766.625,290.1816 Q766.3906,290.4473 766.0156,290.4473 Q765.6719,290.4473 765.4688,290.2441 Q765.2656,290.0566 765.1563,289.541 Q765.1094,289.1816 764.9219,288.9941 Q764.5938,288.6191 763.9844,288.4004 Q763.375,288.1816 762.75,288.1816 Q761.9844,288.1816 761.3438,288.5098 Q760.7188,288.8379 760.2188,289.5879 Q759.7344,290.3379 759.7344,291.3691 L759.7344,292.4629 Q759.7344,293.6973 760.625,294.5254 Q761.5156,295.3379 763.1094,295.3379 Q764.0469,295.3379 764.7031,295.0879 Q765.0938,294.9316 765.5156,294.4941 Q765.7813,294.2285 765.9219,294.1504 Q766.0781,294.0723 766.2813,294.0723 Q766.6094,294.0723 766.8594,294.3379 Q767.125,294.5879 767.125,294.9316 Q767.125,295.2754 766.7813,295.6816 Q766.2813,296.2598 765.4844,296.5879 Q764.4063,297.041 763.1094,297.041 Q761.5938,297.041 760.3906,296.416 Q759.4063,295.916 758.7188,294.8535 Q758.0313,293.7754 758.0313,292.4941 L758.0313,291.3379 Q758.0313,290.0098 758.6406,288.8691 Q759.2656,287.7129 760.3594,287.1035 Q761.4531,286.4785 762.6875,286.4785 Q763.4219,286.4785 764.0625,286.6504 Q764.7188,286.8066 765.2656,287.166 Z " fill="#000000"/><text fill="#000000" font-family="sans-serif" font-size="12" font-style="italic" lengthAdjust="spacing" textLength="53" x="852.5" y="286.9492">&#171;service&#187;</text><text fill="#000000" font-family="sans-serif" font-size="14" lengthAdjust="spacing" textLength="205" x="776.5" y="305.0684">JobOpeningManagementService</text><line style="stroke:#181818;stroke-width:0.5;" x1="748.5" x2="983.5" y1="313.582" y2="313.582"/><line style="stroke:#181818;stroke-width:0.5;" x1="748.5" x2="983.5" y1="321.582" y2="321.582"/></g><!--class JobOpening--><g id="elem_JobOpening"><rect codeLine="17" fill="#F1F1F1" height="60.582" id="JobOpening" rx="2.5" ry="2.5" style="stroke:#181818;stroke-width:0.5;" width="108" x="278" y="409"/><ellipse cx="293" cy="431.291" fill="#ADD1B2" rx="11" ry="11" style="stroke:#181818;stroke-width:1.0;"/><path d="M295.7656,427.166 Q295.9219,426.9473 296.1094,426.8379 Q296.2969,426.7285 296.5156,426.7285 Q296.8906,426.7285 297.125,426.9941 Q297.3594,427.2441 297.3594,427.8535 L297.3594,429.3066 Q297.3594,429.916 297.125,430.1816 Q296.8906,430.4473 296.5156,430.4473 Q296.1719,430.4473 295.9688,430.2441 Q295.7656,430.0566 295.6563,429.541 Q295.6094,429.1816 295.4219,428.9941 Q295.0938,428.6191 294.4844,428.4004 Q293.875,428.1816 293.25,428.1816 Q292.4844,428.1816 291.8438,428.5098 Q291.2188,428.8379 290.7188,429.5879 Q290.2344,430.3379 290.2344,431.3691 L290.2344,432.4629 Q290.2344,433.6973 291.125,434.5254 Q292.0156,435.3379 293.6094,435.3379 Q294.5469,435.3379 295.2031,435.0879 Q295.5938,434.9316 296.0156,434.4941 Q296.2813,434.2285 296.4219,434.1504 Q296.5781,434.0723 296.7813,434.0723 Q297.1094,434.0723 297.3594,434.3379 Q297.625,434.5879 297.625,434.9316 Q297.625,435.2754 297.2813,435.6816 Q296.7813,436.2598 295.9844,436.5879 Q294.9063,437.041 293.6094,437.041 Q292.0938,437.041 290.8906,436.416 Q289.9063,435.916 289.2188,434.8535 Q288.5313,433.7754 288.5313,432.4941 L288.5313,431.3379 Q288.5313,430.0098 289.1406,428.8691 Q289.7656,427.7129 290.8594,427.1035 Q291.9531,426.4785 293.1875,426.4785 Q293.9219,426.4785 294.5625,426.6504 Q295.2188,426.8066 295.7656,427.166 Z " fill="#000000"/><text fill="#000000" font-family="sans-serif" font-size="12" font-style="italic" lengthAdjust="spacing" textLength="35" x="327.5" y="426.9492">&#171;root&#187;</text><text fill="#000000" font-family="sans-serif" font-size="14" lengthAdjust="spacing" textLength="76" x="307" y="445.0684">JobOpening</text><line style="stroke:#181818;stroke-width:0.5;" x1="279" x2="385" y1="453.582" y2="453.582"/><line style="stroke:#181818;stroke-width:0.5;" x1="279" x2="385" y1="461.582" y2="461.582"/></g><!--class ContractType--><g id="elem_ContractType"><rect codeLine="20" fill="#F1F1F1" height="60.582" id="ContractType" rx="2.5" ry="2.5" style="stroke:#181818;stroke-width:0.5;" width="118" x="80" y="531"/><ellipse cx="95" cy="553.291" fill="#ADD1B2" rx="11" ry="11" style="stroke:#181818;stroke-width:1.0;"/><path d="M97.7656,549.166 Q97.9219,548.9473 98.1094,548.8379 Q98.2969,548.7285 98.5156,548.7285 Q98.8906,548.7285 99.125,548.9941 Q99.3594,549.2441 99.3594,549.8535 L99.3594,551.3066 Q99.3594,551.916 99.125,552.1816 Q98.8906,552.4473 98.5156,552.4473 Q98.1719,552.4473 97.9688,552.2441 Q97.7656,552.0566 97.6563,551.541 Q97.6094,551.1816 97.4219,550.9941 Q97.0938,550.6191 96.4844,550.4004 Q95.875,550.1816 95.25,550.1816 Q94.4844,550.1816 93.8438,550.5098 Q93.2188,550.8379 92.7188,551.5879 Q92.2344,552.3379 92.2344,553.3691 L92.2344,554.4629 Q92.2344,555.6973 93.125,556.5254 Q94.0156,557.3379 95.6094,557.3379 Q96.5469,557.3379 97.2031,557.0879 Q97.5938,556.9316 98.0156,556.4941 Q98.2813,556.2285 98.4219,556.1504 Q98.5781,556.0723 98.7813,556.0723 Q99.1094,556.0723 99.3594,556.3379 Q99.625,556.5879 99.625,556.9316 Q99.625,557.2754 99.2813,557.6816 Q98.7813,558.2598 97.9844,558.5879 Q96.9063,559.041 95.6094,559.041 Q94.0938,559.041 92.8906,558.416 Q91.9063,557.916 91.2188,556.8535 Q90.5313,555.7754 90.5313,554.4941 L90.5313,553.3379 Q90.5313,552.0098 91.1406,550.8691 Q91.7656,549.7129 92.8594,549.1035 Q93.9531,548.4785 95.1875,548.4785 Q95.9219,548.4785 96.5625,548.6504 Q97.2188,548.8066 97.7656,549.166 Z " fill="#000000"/><text fill="#000000" font-family="sans-serif" font-size="12" font-style="italic" lengthAdjust="spacing" textLength="81" x="111.5" y="548.9492">&#171;value object&#187;</text><text fill="#000000" font-family="sans-serif" font-size="14" lengthAdjust="spacing" textLength="86" x="109" y="567.0684">ContractType</text><line style="stroke:#181818;stroke-width:0.5;" x1="81" x2="197" y1="575.582" y2="575.582"/><line style="stroke:#181818;stroke-width:0.5;" x1="81" x2="197" y1="583.582" y2="583.582"/></g><!--class Mode--><g id="elem_Mode"><rect codeLine="22" fill="#F1F1F1" height="60.582" id="Mode" rx="2.5" ry="2.5" style="stroke:#181818;stroke-width:0.5;" width="109" x="133.5" y="409"/><ellipse cx="148.5" cy="431.291" fill="#ADD1B2" rx="11" ry="11" style="stroke:#181818;stroke-width:1.0;"/><path d="M151.2656,427.166 Q151.4219,426.9473 151.6094,426.8379 Q151.7969,426.7285 152.0156,426.7285 Q152.3906,426.7285 152.625,426.9941 Q152.8594,427.2441 152.8594,427.8535 L152.8594,429.3066 Q152.8594,429.916 152.625,430.1816 Q152.3906,430.4473 152.0156,430.4473 Q151.6719,430.4473 151.4688,430.2441 Q151.2656,430.0566 151.1563,429.541 Q151.1094,429.1816 150.9219,428.9941 Q150.5938,428.6191 149.9844,428.4004 Q149.375,428.1816 148.75,428.1816 Q147.9844,428.1816 147.3438,428.5098 Q146.7188,428.8379 146.2188,429.5879 Q145.7344,430.3379 145.7344,431.3691 L145.7344,432.4629 Q145.7344,433.6973 146.625,434.5254 Q147.5156,435.3379 149.1094,435.3379 Q150.0469,435.3379 150.7031,435.0879 Q151.0938,434.9316 151.5156,434.4941 Q151.7813,434.2285 151.9219,434.1504 Q152.0781,434.0723 152.2813,434.0723 Q152.6094,434.0723 152.8594,434.3379 Q153.125,434.5879 153.125,434.9316 Q153.125,435.2754 152.7813,435.6816 Q152.2813,436.2598 151.4844,436.5879 Q150.4063,437.041 149.1094,437.041 Q147.5938,437.041 146.3906,436.416 Q145.4063,435.916 144.7188,434.8535 Q144.0313,433.7754 144.0313,432.4941 L144.0313,431.3379 Q144.0313,430.0098 144.6406,428.8691 Q145.2656,427.7129 146.3594,427.1035 Q147.4531,426.4785 148.6875,426.4785 Q149.4219,426.4785 150.0625,426.6504 Q150.7188,426.8066 151.2656,427.166 Z " fill="#000000"/><text fill="#000000" font-family="sans-serif" font-size="12" font-style="italic" lengthAdjust="spacing" textLength="81" x="160.5" y="426.9492">&#171;value object&#187;</text><text fill="#000000" font-family="sans-serif" font-size="14" lengthAdjust="spacing" textLength="35" x="183.5" y="445.0684">Mode</text><line style="stroke:#181818;stroke-width:0.5;" x1="134.5" x2="241.5" y1="453.582" y2="453.582"/><line style="stroke:#181818;stroke-width:0.5;" x1="134.5" x2="241.5" y1="461.582" y2="461.582"/></g><!--class NumberOfVacancies--><g id="elem_NumberOfVacancies"><rect codeLine="24" fill="#F1F1F1" height="60.582" id="NumberOfVacancies" rx="2.5" ry="2.5" style="stroke:#181818;stroke-width:0.5;" width="161" x="339.5" y="269"/><ellipse cx="354.5" cy="291.291" fill="#ADD1B2" rx="11" ry="11" style="stroke:#181818;stroke-width:1.0;"/><path d="M357.2656,287.166 Q357.4219,286.9473 357.6094,286.8379 Q357.7969,286.7285 358.0156,286.7285 Q358.3906,286.7285 358.625,286.9941 Q358.8594,287.2441 358.8594,287.8535 L358.8594,289.3066 Q358.8594,289.916 358.625,290.1816 Q358.3906,290.4473 358.0156,290.4473 Q357.6719,290.4473 357.4688,290.2441 Q357.2656,290.0566 357.1563,289.541 Q357.1094,289.1816 356.9219,288.9941 Q356.5938,288.6191 355.9844,288.4004 Q355.375,288.1816 354.75,288.1816 Q353.9844,288.1816 353.3438,288.5098 Q352.7188,288.8379 352.2188,289.5879 Q351.7344,290.3379 351.7344,291.3691 L351.7344,292.4629 Q351.7344,293.6973 352.625,294.5254 Q353.5156,295.3379 355.1094,295.3379 Q356.0469,295.3379 356.7031,295.0879 Q357.0938,294.9316 357.5156,294.4941 Q357.7813,294.2285 357.9219,294.1504 Q358.0781,294.0723 358.2813,294.0723 Q358.6094,294.0723 358.8594,294.3379 Q359.125,294.5879 359.125,294.9316 Q359.125,295.2754 358.7813,295.6816 Q358.2813,296.2598 357.4844,296.5879 Q356.4063,297.041 355.1094,297.041 Q353.5938,297.041 352.3906,296.416 Q351.4063,295.916 350.7188,294.8535 Q350.0313,293.7754 350.0313,292.4941 L350.0313,291.3379 Q350.0313,290.0098 350.6406,288.8691 Q351.2656,287.7129 352.3594,287.1035 Q353.4531,286.4785 354.6875,286.4785 Q355.4219,286.4785 356.0625,286.6504 Q356.7188,286.8066 357.2656,287.166 Z " fill="#000000"/><text fill="#000000" font-family="sans-serif" font-size="12" font-style="italic" lengthAdjust="spacing" textLength="81" x="392.5" y="286.9492">&#171;value object&#187;</text><text fill="#000000" font-family="sans-serif" font-size="14" lengthAdjust="spacing" textLength="129" x="368.5" y="305.0684">NumberOfVacancies</text><line style="stroke:#181818;stroke-width:0.5;" x1="340.5" x2="499.5" y1="313.582" y2="313.582"/><line style="stroke:#181818;stroke-width:0.5;" x1="340.5" x2="499.5" y1="321.582" y2="321.582"/></g><!--class Requirements--><g id="elem_Requirements"><rect codeLine="26" fill="#F1F1F1" height="60.582" id="Requirements" rx="2.5" ry="2.5" style="stroke:#181818;stroke-width:0.5;" width="120" x="184" y="269"/><ellipse cx="199" cy="291.291" fill="#ADD1B2" rx="11" ry="11" style="stroke:#181818;stroke-width:1.0;"/><path d="M201.7656,287.166 Q201.9219,286.9473 202.1094,286.8379 Q202.2969,286.7285 202.5156,286.7285 Q202.8906,286.7285 203.125,286.9941 Q203.3594,287.2441 203.3594,287.8535 L203.3594,289.3066 Q203.3594,289.916 203.125,290.1816 Q202.8906,290.4473 202.5156,290.4473 Q202.1719,290.4473 201.9688,290.2441 Q201.7656,290.0566 201.6563,289.541 Q201.6094,289.1816 201.4219,288.9941 Q201.0938,288.6191 200.4844,288.4004 Q199.875,288.1816 199.25,288.1816 Q198.4844,288.1816 197.8438,288.5098 Q197.2188,288.8379 196.7188,289.5879 Q196.2344,290.3379 196.2344,291.3691 L196.2344,292.4629 Q196.2344,293.6973 197.125,294.5254 Q198.0156,295.3379 199.6094,295.3379 Q200.5469,295.3379 201.2031,295.0879 Q201.5938,294.9316 202.0156,294.4941 Q202.2813,294.2285 202.4219,294.1504 Q202.5781,294.0723 202.7813,294.0723 Q203.1094,294.0723 203.3594,294.3379 Q203.625,294.5879 203.625,294.9316 Q203.625,295.2754 203.2813,295.6816 Q202.7813,296.2598 201.9844,296.5879 Q200.9063,297.041 199.6094,297.041 Q198.0938,297.041 196.8906,296.416 Q195.9063,295.916 195.2188,294.8535 Q194.5313,293.7754 194.5313,292.4941 L194.5313,291.3379 Q194.5313,290.0098 195.1406,288.8691 Q195.7656,287.7129 196.8594,287.1035 Q197.9531,286.4785 199.1875,286.4785 Q199.9219,286.4785 200.5625,286.6504 Q201.2188,286.8066 201.7656,287.166 Z " fill="#000000"/><text fill="#000000" font-family="sans-serif" font-size="12" font-style="italic" lengthAdjust="spacing" textLength="43" x="235.5" y="286.9492">&#171;entity&#187;</text><text fill="#000000" font-family="sans-serif" font-size="14" lengthAdjust="spacing" textLength="88" x="213" y="305.0684">Requirements</text><line style="stroke:#181818;stroke-width:0.5;" x1="185" x2="303" y1="313.582" y2="313.582"/><line style="stroke:#181818;stroke-width:0.5;" x1="185" x2="303" y1="321.582" y2="321.582"/></g><!--class Function--><g id="elem_Function"><rect codeLine="28" fill="#F1F1F1" height="60.582" id="Function" rx="2.5" ry="2.5" style="stroke:#181818;stroke-width:0.5;" width="109" x="233.5" y="531"/><ellipse cx="248.5" cy="553.291" fill="#ADD1B2" rx="11" ry="11" style="stroke:#181818;stroke-width:1.0;"/><path d="M251.2656,549.166 Q251.4219,548.9473 251.6094,548.8379 Q251.7969,548.7285 252.0156,548.7285 Q252.3906,548.7285 252.625,548.9941 Q252.8594,549.2441 252.8594,549.8535 L252.8594,551.3066 Q252.8594,551.916 252.625,552.1816 Q252.3906,552.4473 252.0156,552.4473 Q251.6719,552.4473 251.4688,552.2441 Q251.2656,552.0566 251.1563,551.541 Q251.1094,551.1816 250.9219,550.9941 Q250.5938,550.6191 249.9844,550.4004 Q249.375,550.1816 248.75,550.1816 Q247.9844,550.1816 247.3438,550.5098 Q246.7188,550.8379 246.2188,551.5879 Q245.7344,552.3379 245.7344,553.3691 L245.7344,554.4629 Q245.7344,555.6973 246.625,556.5254 Q247.5156,557.3379 249.1094,557.3379 Q250.0469,557.3379 250.7031,557.0879 Q251.0938,556.9316 251.5156,556.4941 Q251.7813,556.2285 251.9219,556.1504 Q252.0781,556.0723 252.2813,556.0723 Q252.6094,556.0723 252.8594,556.3379 Q253.125,556.5879 253.125,556.9316 Q253.125,557.2754 252.7813,557.6816 Q252.2813,558.2598 251.4844,558.5879 Q250.4063,559.041 249.1094,559.041 Q247.5938,559.041 246.3906,558.416 Q245.4063,557.916 244.7188,556.8535 Q244.0313,555.7754 244.0313,554.4941 L244.0313,553.3379 Q244.0313,552.0098 244.6406,550.8691 Q245.2656,549.7129 246.3594,549.1035 Q247.4531,548.4785 248.6875,548.4785 Q249.4219,548.4785 250.0625,548.6504 Q250.7188,548.8066 251.2656,549.166 Z " fill="#000000"/><text fill="#000000" font-family="sans-serif" font-size="12" font-style="italic" lengthAdjust="spacing" textLength="81" x="260.5" y="548.9492">&#171;value object&#187;</text><text fill="#000000" font-family="sans-serif" font-size="14" lengthAdjust="spacing" textLength="55" x="273.5" y="567.0684">Function</text><line style="stroke:#181818;stroke-width:0.5;" x1="234.5" x2="341.5" y1="575.582" y2="575.582"/><line style="stroke:#181818;stroke-width:0.5;" x1="234.5" x2="341.5" y1="583.582" y2="583.582"/></g><!--class Description--><g id="elem_Description"><rect codeLine="30" fill="#F1F1F1" height="60.582" id="Description" rx="2.5" ry="2.5" style="stroke:#181818;stroke-width:0.5;" width="109" x="39.5" y="269"/><ellipse cx="54.5" cy="291.291" fill="#ADD1B2" rx="11" ry="11" style="stroke:#181818;stroke-width:1.0;"/><path d="M57.2656,287.166 Q57.4219,286.9473 57.6094,286.8379 Q57.7969,286.7285 58.0156,286.7285 Q58.3906,286.7285 58.625,286.9941 Q58.8594,287.2441 58.8594,287.8535 L58.8594,289.3066 Q58.8594,289.916 58.625,290.1816 Q58.3906,290.4473 58.0156,290.4473 Q57.6719,290.4473 57.4688,290.2441 Q57.2656,290.0566 57.1563,289.541 Q57.1094,289.1816 56.9219,288.9941 Q56.5938,288.6191 55.9844,288.4004 Q55.375,288.1816 54.75,288.1816 Q53.9844,288.1816 53.3438,288.5098 Q52.7188,288.8379 52.2188,289.5879 Q51.7344,290.3379 51.7344,291.3691 L51.7344,292.4629 Q51.7344,293.6973 52.625,294.5254 Q53.5156,295.3379 55.1094,295.3379 Q56.0469,295.3379 56.7031,295.0879 Q57.0938,294.9316 57.5156,294.4941 Q57.7813,294.2285 57.9219,294.1504 Q58.0781,294.0723 58.2813,294.0723 Q58.6094,294.0723 58.8594,294.3379 Q59.125,294.5879 59.125,294.9316 Q59.125,295.2754 58.7813,295.6816 Q58.2813,296.2598 57.4844,296.5879 Q56.4063,297.041 55.1094,297.041 Q53.5938,297.041 52.3906,296.416 Q51.4063,295.916 50.7188,294.8535 Q50.0313,293.7754 50.0313,292.4941 L50.0313,291.3379 Q50.0313,290.0098 50.6406,288.8691 Q51.2656,287.7129 52.3594,287.1035 Q53.4531,286.4785 54.6875,286.4785 Q55.4219,286.4785 56.0625,286.6504 Q56.7188,286.8066 57.2656,287.166 Z " fill="#000000"/><text fill="#000000" font-family="sans-serif" font-size="12" font-style="italic" lengthAdjust="spacing" textLength="81" x="66.5" y="286.9492">&#171;value object&#187;</text><text fill="#000000" font-family="sans-serif" font-size="14" lengthAdjust="spacing" textLength="71" x="71.5" y="305.0684">Description</text><line style="stroke:#181818;stroke-width:0.5;" x1="40.5" x2="147.5" y1="313.582" y2="313.582"/><line style="stroke:#181818;stroke-width:0.5;" x1="40.5" x2="147.5" y1="321.582" y2="321.582"/></g><!--class Address--><g id="elem_Address"><rect codeLine="32" fill="#F1F1F1" height="60.582" id="Address" rx="2.5" ry="2.5" style="stroke:#181818;stroke-width:0.5;" width="95" x="377.5" y="531"/><ellipse cx="392.5" cy="553.291" fill="#ADD1B2" rx="11" ry="11" style="stroke:#181818;stroke-width:1.0;"/><path d="M395.2656,549.166 Q395.4219,548.9473 395.6094,548.8379 Q395.7969,548.7285 396.0156,548.7285 Q396.3906,548.7285 396.625,548.9941 Q396.8594,549.2441 396.8594,549.8535 L396.8594,551.3066 Q396.8594,551.916 396.625,552.1816 Q396.3906,552.4473 396.0156,552.4473 Q395.6719,552.4473 395.4688,552.2441 Q395.2656,552.0566 395.1563,551.541 Q395.1094,551.1816 394.9219,550.9941 Q394.5938,550.6191 393.9844,550.4004 Q393.375,550.1816 392.75,550.1816 Q391.9844,550.1816 391.3438,550.5098 Q390.7188,550.8379 390.2188,551.5879 Q389.7344,552.3379 389.7344,553.3691 L389.7344,554.4629 Q389.7344,555.6973 390.625,556.5254 Q391.5156,557.3379 393.1094,557.3379 Q394.0469,557.3379 394.7031,557.0879 Q395.0938,556.9316 395.5156,556.4941 Q395.7813,556.2285 395.9219,556.1504 Q396.0781,556.0723 396.2813,556.0723 Q396.6094,556.0723 396.8594,556.3379 Q397.125,556.5879 397.125,556.9316 Q397.125,557.2754 396.7813,557.6816 Q396.2813,558.2598 395.4844,558.5879 Q394.4063,559.041 393.1094,559.041 Q391.5938,559.041 390.3906,558.416 Q389.4063,557.916 388.7188,556.8535 Q388.0313,555.7754 388.0313,554.4941 L388.0313,553.3379 Q388.0313,552.0098 388.6406,550.8691 Q389.2656,549.7129 390.3594,549.1035 Q391.4531,548.4785 392.6875,548.4785 Q393.4219,548.4785 394.0625,548.6504 Q394.7188,548.8066 395.2656,549.166 Z " fill="#000000"/><text fill="#000000" font-family="sans-serif" font-size="12" font-style="italic" lengthAdjust="spacing" textLength="67" x="404.5" y="548.9492">&#171;root entity&#187;</text><text fill="#000000" font-family="sans-serif" font-size="14" lengthAdjust="spacing" textLength="52" x="412" y="567.0684">Address</text><line style="stroke:#181818;stroke-width:0.5;" x1="378.5" x2="471.5" y1="575.582" y2="575.582"/><line style="stroke:#181818;stroke-width:0.5;" x1="378.5" x2="471.5" y1="583.582" y2="583.582"/></g><!--class DoorNumber--><g id="elem_DoorNumber"><rect codeLine="34" fill="#F1F1F1" height="60.582" id="DoorNumber" rx="2.5" ry="2.5" style="stroke:#181818;stroke-width:0.5;" width="112" x="7" y="653"/><ellipse cx="22" cy="675.291" fill="#ADD1B2" rx="11" ry="11" style="stroke:#181818;stroke-width:1.0;"/><path d="M24.7656,671.166 Q24.9219,670.9473 25.1094,670.8379 Q25.2969,670.7285 25.5156,670.7285 Q25.8906,670.7285 26.125,670.9941 Q26.3594,671.2441 26.3594,671.8535 L26.3594,673.3066 Q26.3594,673.916 26.125,674.1816 Q25.8906,674.4473 25.5156,674.4473 Q25.1719,674.4473 24.9688,674.2441 Q24.7656,674.0566 24.6563,673.541 Q24.6094,673.1816 24.4219,672.9941 Q24.0938,672.6191 23.4844,672.4004 Q22.875,672.1816 22.25,672.1816 Q21.4844,672.1816 20.8438,672.5098 Q20.2188,672.8379 19.7188,673.5879 Q19.2344,674.3379 19.2344,675.3691 L19.2344,676.4629 Q19.2344,677.6973 20.125,678.5254 Q21.0156,679.3379 22.6094,679.3379 Q23.5469,679.3379 24.2031,679.0879 Q24.5938,678.9316 25.0156,678.4941 Q25.2813,678.2285 25.4219,678.1504 Q25.5781,678.0723 25.7813,678.0723 Q26.1094,678.0723 26.3594,678.3379 Q26.625,678.5879 26.625,678.9316 Q26.625,679.2754 26.2813,679.6816 Q25.7813,680.2598 24.9844,680.5879 Q23.9063,681.041 22.6094,681.041 Q21.0938,681.041 19.8906,680.416 Q18.9063,679.916 18.2188,678.8535 Q17.5313,677.7754 17.5313,676.4941 L17.5313,675.3379 Q17.5313,674.0098 18.1406,672.8691 Q18.7656,671.7129 19.8594,671.1035 Q20.9531,670.4785 22.1875,670.4785 Q22.9219,670.4785 23.5625,670.6504 Q24.2188,670.8066 24.7656,671.166 Z " fill="#000000"/><text fill="#000000" font-family="sans-serif" font-size="12" font-style="italic" lengthAdjust="spacing" textLength="81" x="35.5" y="670.9492">&#171;value object&#187;</text><text fill="#000000" font-family="sans-serif" font-size="14" lengthAdjust="spacing" textLength="80" x="36" y="689.0684">DoorNumber</text><line style="stroke:#181818;stroke-width:0.5;" x1="8" x2="118" y1="697.582" y2="697.582"/><line style="stroke:#181818;stroke-width:0.5;" x1="8" x2="118" y1="705.582" y2="705.582"/></g><!--class Street--><g id="elem_Street"><rect codeLine="35" fill="#F1F1F1" height="60.582" id="Street" rx="2.5" ry="2.5" style="stroke:#181818;stroke-width:0.5;" width="109" x="154.5" y="653"/><ellipse cx="169.5" cy="675.291" fill="#ADD1B2" rx="11" ry="11" style="stroke:#181818;stroke-width:1.0;"/><path d="M172.2656,671.166 Q172.4219,670.9473 172.6094,670.8379 Q172.7969,670.7285 173.0156,670.7285 Q173.3906,670.7285 173.625,670.9941 Q173.8594,671.2441 173.8594,671.8535 L173.8594,673.3066 Q173.8594,673.916 173.625,674.1816 Q173.3906,674.4473 173.0156,674.4473 Q172.6719,674.4473 172.4688,674.2441 Q172.2656,674.0566 172.1563,673.541 Q172.1094,673.1816 171.9219,672.9941 Q171.5938,672.6191 170.9844,672.4004 Q170.375,672.1816 169.75,672.1816 Q168.9844,672.1816 168.3438,672.5098 Q167.7188,672.8379 167.2188,673.5879 Q166.7344,674.3379 166.7344,675.3691 L166.7344,676.4629 Q166.7344,677.6973 167.625,678.5254 Q168.5156,679.3379 170.1094,679.3379 Q171.0469,679.3379 171.7031,679.0879 Q172.0938,678.9316 172.5156,678.4941 Q172.7813,678.2285 172.9219,678.1504 Q173.0781,678.0723 173.2813,678.0723 Q173.6094,678.0723 173.8594,678.3379 Q174.125,678.5879 174.125,678.9316 Q174.125,679.2754 173.7813,679.6816 Q173.2813,680.2598 172.4844,680.5879 Q171.4063,681.041 170.1094,681.041 Q168.5938,681.041 167.3906,680.416 Q166.4063,679.916 165.7188,678.8535 Q165.0313,677.7754 165.0313,676.4941 L165.0313,675.3379 Q165.0313,674.0098 165.6406,672.8691 Q166.2656,671.7129 167.3594,671.1035 Q168.4531,670.4785 169.6875,670.4785 Q170.4219,670.4785 171.0625,670.6504 Q171.7188,670.8066 172.2656,671.166 Z " fill="#000000"/><text fill="#000000" font-family="sans-serif" font-size="12" font-style="italic" lengthAdjust="spacing" textLength="81" x="181.5" y="670.9492">&#171;value object&#187;</text><text fill="#000000" font-family="sans-serif" font-size="14" lengthAdjust="spacing" textLength="38" x="203" y="689.0684">Street</text><line style="stroke:#181818;stroke-width:0.5;" x1="155.5" x2="262.5" y1="697.582" y2="697.582"/><line style="stroke:#181818;stroke-width:0.5;" x1="155.5" x2="262.5" y1="705.582" y2="705.582"/></g><!--class Parish--><g id="elem_Parish"><rect codeLine="36" fill="#F1F1F1" height="60.582" id="Parish" rx="2.5" ry="2.5" style="stroke:#181818;stroke-width:0.5;" width="109" x="298.5" y="653"/><ellipse cx="313.5" cy="675.291" fill="#ADD1B2" rx="11" ry="11" style="stroke:#181818;stroke-width:1.0;"/><path d="M316.2656,671.166 Q316.4219,670.9473 316.6094,670.8379 Q316.7969,670.7285 317.0156,670.7285 Q317.3906,670.7285 317.625,670.9941 Q317.8594,671.2441 317.8594,671.8535 L317.8594,673.3066 Q317.8594,673.916 317.625,674.1816 Q317.3906,674.4473 317.0156,674.4473 Q316.6719,674.4473 316.4688,674.2441 Q316.2656,674.0566 316.1563,673.541 Q316.1094,673.1816 315.9219,672.9941 Q315.5938,672.6191 314.9844,672.4004 Q314.375,672.1816 313.75,672.1816 Q312.9844,672.1816 312.3438,672.5098 Q311.7188,672.8379 311.2188,673.5879 Q310.7344,674.3379 310.7344,675.3691 L310.7344,676.4629 Q310.7344,677.6973 311.625,678.5254 Q312.5156,679.3379 314.1094,679.3379 Q315.0469,679.3379 315.7031,679.0879 Q316.0938,678.9316 316.5156,678.4941 Q316.7813,678.2285 316.9219,678.1504 Q317.0781,678.0723 317.2813,678.0723 Q317.6094,678.0723 317.8594,678.3379 Q318.125,678.5879 318.125,678.9316 Q318.125,679.2754 317.7813,679.6816 Q317.2813,680.2598 316.4844,680.5879 Q315.4063,681.041 314.1094,681.041 Q312.5938,681.041 311.3906,680.416 Q310.4063,679.916 309.7188,678.8535 Q309.0313,677.7754 309.0313,676.4941 L309.0313,675.3379 Q309.0313,674.0098 309.6406,672.8691 Q310.2656,671.7129 311.3594,671.1035 Q312.4531,670.4785 313.6875,670.4785 Q314.4219,670.4785 315.0625,670.6504 Q315.7188,670.8066 316.2656,671.166 Z " fill="#000000"/><text fill="#000000" font-family="sans-serif" font-size="12" font-style="italic" lengthAdjust="spacing" textLength="81" x="325.5" y="670.9492">&#171;value object&#187;</text><text fill="#000000" font-family="sans-serif" font-size="14" lengthAdjust="spacing" textLength="40" x="346" y="689.0684">Parish</text><line style="stroke:#181818;stroke-width:0.5;" x1="299.5" x2="406.5" y1="697.582" y2="697.582"/><line style="stroke:#181818;stroke-width:0.5;" x1="299.5" x2="406.5" y1="705.582" y2="705.582"/></g><!--class County--><g id="elem_County"><rect codeLine="37" fill="#F1F1F1" height="60.582" id="County" rx="2.5" ry="2.5" style="stroke:#181818;stroke-width:0.5;" width="109" x="442.5" y="653"/><ellipse cx="457.5" cy="675.291" fill="#ADD1B2" rx="11" ry="11" style="stroke:#181818;stroke-width:1.0;"/><path d="M460.2656,671.166 Q460.4219,670.9473 460.6094,670.8379 Q460.7969,670.7285 461.0156,670.7285 Q461.3906,670.7285 461.625,670.9941 Q461.8594,671.2441 461.8594,671.8535 L461.8594,673.3066 Q461.8594,673.916 461.625,674.1816 Q461.3906,674.4473 461.0156,674.4473 Q460.6719,674.4473 460.4688,674.2441 Q460.2656,674.0566 460.1563,673.541 Q460.1094,673.1816 459.9219,672.9941 Q459.5938,672.6191 458.9844,672.4004 Q458.375,672.1816 457.75,672.1816 Q456.9844,672.1816 456.3438,672.5098 Q455.7188,672.8379 455.2188,673.5879 Q454.7344,674.3379 454.7344,675.3691 L454.7344,676.4629 Q454.7344,677.6973 455.625,678.5254 Q456.5156,679.3379 458.1094,679.3379 Q459.0469,679.3379 459.7031,679.0879 Q460.0938,678.9316 460.5156,678.4941 Q460.7813,678.2285 460.9219,678.1504 Q461.0781,678.0723 461.2813,678.0723 Q461.6094,678.0723 461.8594,678.3379 Q462.125,678.5879 462.125,678.9316 Q462.125,679.2754 461.7813,679.6816 Q461.2813,680.2598 460.4844,680.5879 Q459.4063,681.041 458.1094,681.041 Q456.5938,681.041 455.3906,680.416 Q454.4063,679.916 453.7188,678.8535 Q453.0313,677.7754 453.0313,676.4941 L453.0313,675.3379 Q453.0313,674.0098 453.6406,672.8691 Q454.2656,671.7129 455.3594,671.1035 Q456.4531,670.4785 457.6875,670.4785 Q458.4219,670.4785 459.0625,670.6504 Q459.7188,670.8066 460.2656,671.166 Z " fill="#000000"/><text fill="#000000" font-family="sans-serif" font-size="12" font-style="italic" lengthAdjust="spacing" textLength="81" x="469.5" y="670.9492">&#171;value object&#187;</text><text fill="#000000" font-family="sans-serif" font-size="14" lengthAdjust="spacing" textLength="45" x="487.5" y="689.0684">County</text><line style="stroke:#181818;stroke-width:0.5;" x1="443.5" x2="550.5" y1="697.582" y2="697.582"/><line style="stroke:#181818;stroke-width:0.5;" x1="443.5" x2="550.5" y1="705.582" y2="705.582"/></g><!--class District--><g id="elem_District"><rect codeLine="38" fill="#F1F1F1" height="60.582" id="District" rx="2.5" ry="2.5" style="stroke:#181818;stroke-width:0.5;" width="109" x="586.5" y="653"/><ellipse cx="601.5" cy="675.291" fill="#ADD1B2" rx="11" ry="11" style="stroke:#181818;stroke-width:1.0;"/><path d="M604.2656,671.166 Q604.4219,670.9473 604.6094,670.8379 Q604.7969,670.7285 605.0156,670.7285 Q605.3906,670.7285 605.625,670.9941 Q605.8594,671.2441 605.8594,671.8535 L605.8594,673.3066 Q605.8594,673.916 605.625,674.1816 Q605.3906,674.4473 605.0156,674.4473 Q604.6719,674.4473 604.4688,674.2441 Q604.2656,674.0566 604.1563,673.541 Q604.1094,673.1816 603.9219,672.9941 Q603.5938,672.6191 602.9844,672.4004 Q602.375,672.1816 601.75,672.1816 Q600.9844,672.1816 600.3438,672.5098 Q599.7188,672.8379 599.2188,673.5879 Q598.7344,674.3379 598.7344,675.3691 L598.7344,676.4629 Q598.7344,677.6973 599.625,678.5254 Q600.5156,679.3379 602.1094,679.3379 Q603.0469,679.3379 603.7031,679.0879 Q604.0938,678.9316 604.5156,678.4941 Q604.7813,678.2285 604.9219,678.1504 Q605.0781,678.0723 605.2813,678.0723 Q605.6094,678.0723 605.8594,678.3379 Q606.125,678.5879 606.125,678.9316 Q606.125,679.2754 605.7813,679.6816 Q605.2813,680.2598 604.4844,680.5879 Q603.4063,681.041 602.1094,681.041 Q600.5938,681.041 599.3906,680.416 Q598.4063,679.916 597.7188,678.8535 Q597.0313,677.7754 597.0313,676.4941 L597.0313,675.3379 Q597.0313,674.0098 597.6406,672.8691 Q598.2656,671.7129 599.3594,671.1035 Q600.4531,670.4785 601.6875,670.4785 Q602.4219,670.4785 603.0625,670.6504 Q603.7188,670.8066 604.2656,671.166 Z " fill="#000000"/><text fill="#000000" font-family="sans-serif" font-size="12" font-style="italic" lengthAdjust="spacing" textLength="81" x="613.5" y="670.9492">&#171;value object&#187;</text><text fill="#000000" font-family="sans-serif" font-size="14" lengthAdjust="spacing" textLength="43" x="632.5" y="689.0684">District</text><line style="stroke:#181818;stroke-width:0.5;" x1="587.5" x2="694.5" y1="697.582" y2="697.582"/><line style="stroke:#181818;stroke-width:0.5;" x1="587.5" x2="694.5" y1="705.582" y2="705.582"/></g><!--class ZipCode--><g id="elem_ZipCode"><rect codeLine="39" fill="#F1F1F1" height="60.582" id="ZipCode" rx="2.5" ry="2.5" style="stroke:#181818;stroke-width:0.5;" width="109" x="730.5" y="653"/><ellipse cx="745.5" cy="675.291" fill="#ADD1B2" rx="11" ry="11" style="stroke:#181818;stroke-width:1.0;"/><path d="M748.2656,671.166 Q748.4219,670.9473 748.6094,670.8379 Q748.7969,670.7285 749.0156,670.7285 Q749.3906,670.7285 749.625,670.9941 Q749.8594,671.2441 749.8594,671.8535 L749.8594,673.3066 Q749.8594,673.916 749.625,674.1816 Q749.3906,674.4473 749.0156,674.4473 Q748.6719,674.4473 748.4688,674.2441 Q748.2656,674.0566 748.1563,673.541 Q748.1094,673.1816 747.9219,672.9941 Q747.5938,672.6191 746.9844,672.4004 Q746.375,672.1816 745.75,672.1816 Q744.9844,672.1816 744.3438,672.5098 Q743.7188,672.8379 743.2188,673.5879 Q742.7344,674.3379 742.7344,675.3691 L742.7344,676.4629 Q742.7344,677.6973 743.625,678.5254 Q744.5156,679.3379 746.1094,679.3379 Q747.0469,679.3379 747.7031,679.0879 Q748.0938,678.9316 748.5156,678.4941 Q748.7813,678.2285 748.9219,678.1504 Q749.0781,678.0723 749.2813,678.0723 Q749.6094,678.0723 749.8594,678.3379 Q750.125,678.5879 750.125,678.9316 Q750.125,679.2754 749.7813,679.6816 Q749.2813,680.2598 748.4844,680.5879 Q747.4063,681.041 746.1094,681.041 Q744.5938,681.041 743.3906,680.416 Q742.4063,679.916 741.7188,678.8535 Q741.0313,677.7754 741.0313,676.4941 L741.0313,675.3379 Q741.0313,674.0098 741.6406,672.8691 Q742.2656,671.7129 743.3594,671.1035 Q744.4531,670.4785 745.6875,670.4785 Q746.4219,670.4785 747.0625,670.6504 Q747.7188,670.8066 748.2656,671.166 Z " fill="#000000"/><text fill="#000000" font-family="sans-serif" font-size="12" font-style="italic" lengthAdjust="spacing" textLength="81" x="757.5" y="670.9492">&#171;value object&#187;</text><text fill="#000000" font-family="sans-serif" font-size="14" lengthAdjust="spacing" textLength="53" x="771.5" y="689.0684">ZipCode</text><line style="stroke:#181818;stroke-width:0.5;" x1="731.5" x2="838.5" y1="697.582" y2="697.582"/><line style="stroke:#181818;stroke-width:0.5;" x1="731.5" x2="838.5" y1="705.582" y2="705.582"/></g><!--class Customer--><g id="elem_Customer"><rect codeLine="42" fill="#F1F1F1" height="60.582" id="Customer" rx="2.5" ry="2.5" style="stroke:#181818;stroke-width:0.5;" width="109" x="507.5" y="531"/><ellipse cx="522.5" cy="553.291" fill="#ADD1B2" rx="11" ry="11" style="stroke:#181818;stroke-width:1.0;"/><path d="M525.2656,549.166 Q525.4219,548.9473 525.6094,548.8379 Q525.7969,548.7285 526.0156,548.7285 Q526.3906,548.7285 526.625,548.9941 Q526.8594,549.2441 526.8594,549.8535 L526.8594,551.3066 Q526.8594,551.916 526.625,552.1816 Q526.3906,552.4473 526.0156,552.4473 Q525.6719,552.4473 525.4688,552.2441 Q525.2656,552.0566 525.1563,551.541 Q525.1094,551.1816 524.9219,550.9941 Q524.5938,550.6191 523.9844,550.4004 Q523.375,550.1816 522.75,550.1816 Q521.9844,550.1816 521.3438,550.5098 Q520.7188,550.8379 520.2188,551.5879 Q519.7344,552.3379 519.7344,553.3691 L519.7344,554.4629 Q519.7344,555.6973 520.625,556.5254 Q521.5156,557.3379 523.1094,557.3379 Q524.0469,557.3379 524.7031,557.0879 Q525.0938,556.9316 525.5156,556.4941 Q525.7813,556.2285 525.9219,556.1504 Q526.0781,556.0723 526.2813,556.0723 Q526.6094,556.0723 526.8594,556.3379 Q527.125,556.5879 527.125,556.9316 Q527.125,557.2754 526.7813,557.6816 Q526.2813,558.2598 525.4844,558.5879 Q524.4063,559.041 523.1094,559.041 Q521.5938,559.041 520.3906,558.416 Q519.4063,557.916 518.7188,556.8535 Q518.0313,555.7754 518.0313,554.4941 L518.0313,553.3379 Q518.0313,552.0098 518.6406,550.8691 Q519.2656,549.7129 520.3594,549.1035 Q521.4531,548.4785 522.6875,548.4785 Q523.4219,548.4785 524.0625,548.6504 Q524.7188,548.8066 525.2656,549.166 Z " fill="#000000"/><text fill="#000000" font-family="sans-serif" font-size="12" font-style="italic" lengthAdjust="spacing" textLength="81" x="534.5" y="548.9492">&#171;value object&#187;</text><text fill="#000000" font-family="sans-serif" font-size="14" lengthAdjust="spacing" textLength="61" x="544.5" y="567.0684">Customer</text><line style="stroke:#181818;stroke-width:0.5;" x1="508.5" x2="615.5" y1="575.582" y2="575.582"/><line style="stroke:#181818;stroke-width:0.5;" x1="508.5" x2="615.5" y1="583.582" y2="583.582"/></g><!--class JobReference--><g id="elem_JobReference"><rect fill="#F1F1F1" height="48" id="JobReference" rx="2.5" ry="2.5" style="stroke:#181818;stroke-width:0.5;" width="120" x="421" y="415.5"/><ellipse cx="436" cy="431.5" fill="#ADD1B2" rx="11" ry="11" style="stroke:#181818;stroke-width:1.0;"/><path d="M438.7656,427.375 Q438.9219,427.1563 439.1094,427.0469 Q439.2969,426.9375 439.5156,426.9375 Q439.8906,426.9375 440.125,427.2031 Q440.3594,427.4531 440.3594,428.0625 L440.3594,429.5156 Q440.3594,430.125 440.125,430.3906 Q439.8906,430.6563 439.5156,430.6563 Q439.1719,430.6563 438.9688,430.4531 Q438.7656,430.2656 438.6563,429.75 Q438.6094,429.3906 438.4219,429.2031 Q438.0938,428.8281 437.4844,428.6094 Q436.875,428.3906 436.25,428.3906 Q435.4844,428.3906 434.8438,428.7188 Q434.2188,429.0469 433.7188,429.7969 Q433.2344,430.5469 433.2344,431.5781 L433.2344,432.6719 Q433.2344,433.9063 434.125,434.7344 Q435.0156,435.5469 436.6094,435.5469 Q437.5469,435.5469 438.2031,435.2969 Q438.5938,435.1406 439.0156,434.7031 Q439.2813,434.4375 439.4219,434.3594 Q439.5781,434.2813 439.7813,434.2813 Q440.1094,434.2813 440.3594,434.5469 Q440.625,434.7969 440.625,435.1406 Q440.625,435.4844 440.2813,435.8906 Q439.7813,436.4688 438.9844,436.7969 Q437.9063,437.25 436.6094,437.25 Q435.0938,437.25 433.8906,436.625 Q432.9063,436.125 432.2188,435.0625 Q431.5313,433.9844 431.5313,432.7031 L431.5313,431.5469 Q431.5313,430.2188 432.1406,429.0781 Q432.7656,427.9219 433.8594,427.3125 Q434.9531,426.6875 436.1875,426.6875 Q436.9219,426.6875 437.5625,426.8594 Q438.2188,427.0156 438.7656,427.375 Z " fill="#000000"/><text fill="#000000" font-family="sans-serif" font-size="14" lengthAdjust="spacing" textLength="88" x="450" y="437.2969">JobReference</text><line style="stroke:#181818;stroke-width:0.5;" x1="422" x2="540" y1="447.5" y2="447.5"/><line style="stroke:#181818;stroke-width:0.5;" x1="422" x2="540" y1="455.5" y2="455.5"/></g><!--link ListJobOpeningsUI to ListJobOpeningController--><g id="link_ListJobOpeningsUI_ListJobOpeningController"><path codeLine="48" d="M745,68.16 C745,86.62 745,104.29 745,122.76 " fill="none" id="ListJobOpeningsUI-to-ListJobOpeningController" style="stroke:#181818;stroke-width:1.0;stroke-dasharray:7.0,7.0;"/><polygon fill="#181818" points="745,128.76,749,119.76,745,123.76,741,119.76,745,128.76" style="stroke:#181818;stroke-width:1.0;"/></g><!--link ListJobOpeningController to JobOpeningRepository--><g id="link_ListJobOpeningController_JobOpeningRepository"><path codeLine="50" d="M719.04,190.1 C698.63,213.39 674.2764,241.1592 653.8664,264.4292 " fill="none" id="ListJobOpeningController-to-JobOpeningRepository" style="stroke:#181818;stroke-width:1.0;stroke-dasharray:7.0,7.0;"/><polygon fill="#181818" points="649.91,268.94,658.8517,264.8114,653.207,265.181,652.8374,259.5363,649.91,268.94" style="stroke:#181818;stroke-width:1.0;"/><polygon fill="#000000" points="693.7036,233.405,701.8766,228.5416,697.4571,224.6664,693.7036,233.405" style="stroke:#000000;stroke-width:1.0;"/><text fill="#000000" font-family="sans-serif" font-size="13" lengthAdjust="spacing" textLength="56" x="706" y="235.0283">accesses</text></g><!--link JobOpeningRepository to JobOpening--><g id="link_JobOpeningRepository_JobOpening"><path codeLine="52" d="M561.36,330.1 C509.24,354.73 441.2347,386.8763 391.6147,410.3263 " fill="none" id="JobOpeningRepository-to-JobOpening" style="stroke:#181818;stroke-width:1.0;stroke-dasharray:7.0,7.0;"/><polygon fill="#181818" points="386.19,412.89,396.0362,412.661,390.7106,410.7536,392.618,405.428,386.19,412.89" style="stroke:#181818;stroke-width:1.0;"/><polygon fill="#000000" points="496.4795,371.782,505.913,370.5741,503.4014,365.2599,496.4795,371.782" style="stroke:#000000;stroke-width:1.0;"/><text fill="#000000" font-family="sans-serif" font-size="13" lengthAdjust="spacing" textLength="104" x="510" y="375.0283">saves in database</text></g><!--link ListJobOpeningController to JobOpeningManagementService--><g id="link_ListJobOpeningController_JobOpeningManagementService"><path codeLine="53" d="M770.96,190.1 C791.37,213.39 815.7236,241.1592 836.1336,264.4292 " fill="none" id="ListJobOpeningController-to-JobOpeningManagementService" style="stroke:#181818;stroke-width:1.0;stroke-dasharray:7.0,7.0;"/><polygon fill="#181818" points="840.09,268.94,837.1626,259.5363,836.793,265.181,831.1483,264.8114,840.09,268.94" style="stroke:#181818;stroke-width:1.0;"/><polygon fill="#000000" points="821.2964,233.405,817.5429,224.6664,813.1234,228.5416,821.2964,233.405" style="stroke:#000000;stroke-width:1.0;"/><text fill="#000000" font-family="sans-serif" font-size="13" lengthAdjust="spacing" textLength="28" x="827" y="235.0283">uses</text></g><!--reverse link JobOpening to JobReference--><g id="link_JobOpening_JobReference"><path codeLine="56" d="M398.25,439.5 C406.03,439.5 410.02,439.5 420.71,439.5 " fill="none" id="JobOpening-backto-JobReference" style="stroke:#181818;stroke-width:1.0;"/><polygon fill="none" points="386.25,439.5,392.25,443.5,398.25,439.5,392.25,435.5,386.25,439.5" style="stroke:#181818;stroke-width:1.0;"/></g><!--link JobOpening to ContractType--><g id="link_JobOpening_ContractType"><path codeLine="57" d="M284.29,470.16 C254.49,488.69 221.3554,509.2919 191.5854,527.8019 " fill="none" id="JobOpening-to-ContractType" style="stroke:#181818;stroke-width:1.0;"/><polygon fill="#181818" points="186.49,530.97,196.2452,529.6147,190.7362,528.3299,192.021,522.8209,186.49,530.97" style="stroke:#181818;stroke-width:1.0;"/></g><!--reverse link Mode to JobOpening--><g id="link_Mode_JobOpening"><path codeLine="58" d="M248.67,439.5 C258.05,439.5 268.98,439.5 277.99,439.5 " fill="none" id="Mode-backto-JobOpening" style="stroke:#181818;stroke-width:1.0;"/><polygon fill="#181818" points="242.67,439.5,251.67,443.5,247.67,439.5,251.67,435.5,242.67,439.5" style="stroke:#181818;stroke-width:1.0;"/></g><!--reverse link NumberOfVacancies to JobOpening--><g id="link_NumberOfVacancies_JobOpening"><path codeLine="59" d="M397.8943,335.1591 C383.0443,358.4491 365.69,385.67 350.85,408.94 " fill="none" id="NumberOfVacancies-backto-JobOpening" style="stroke:#181818;stroke-width:1.0;"/><polygon fill="#181818" points="401.12,330.1,392.9086,335.5382,398.4319,334.3159,399.6541,339.8392,401.12,330.1" style="stroke:#181818;stroke-width:1.0;"/></g><!--reverse link Requirements to JobOpening--><g id="link_Requirements_JobOpening"><path codeLine="60" d="M266.1057,335.1591 C280.9557,358.4491 298.31,385.67 313.15,408.94 " fill="none" id="Requirements-backto-JobOpening" style="stroke:#181818;stroke-width:1.0;"/><polygon fill="#181818" points="262.88,330.1,264.3459,339.8392,265.5681,334.3159,271.0914,335.5382,262.88,330.1" style="stroke:#181818;stroke-width:1.0;"/></g><!--link JobOpening to Function--><g id="link_JobOpening_Function"><path codeLine="61" d="M321.12,470.16 C314.35,488.62 307.7476,506.6575 300.9676,525.1275 " fill="none" id="JobOpening-to-Function" style="stroke:#181818;stroke-width:1.0;"/><polygon fill="#181818" points="298.9,530.76,305.7564,523.6896,300.623,526.0662,298.2464,520.9329,298.9,530.76" style="stroke:#181818;stroke-width:1.0;"/></g><!--reverse link Description to JobOpening--><g id="link_Description_JobOpening"><path codeLine="62" d="M150.25,333.1106 C190.4,356.4006 240.89,385.67 281.03,408.94 " fill="none" id="Description-backto-JobOpening" style="stroke:#181818;stroke-width:1.0;"/><polygon fill="#181818" points="145.06,330.1,150.838,338.0759,149.385,332.6088,154.8521,331.1559,145.06,330.1" style="stroke:#181818;stroke-width:1.0;"/></g><!--link JobOpening to Address--><g id="link_JobOpening_Address"><path codeLine="63" d="M354.99,470.16 C369.3,488.62 383.9536,507.5482 398.2736,526.0182 " fill="none" id="JobOpening-to-Address" style="stroke:#181818;stroke-width:1.0;"/><polygon fill="#181818" points="401.95,530.76,399.5967,521.1964,398.8864,526.8085,393.2743,526.0982,401.95,530.76" style="stroke:#181818;stroke-width:1.0;"/></g><!--link JobOpening to Customer--><g id="link_JobOpening_Customer"><path codeLine="64" d="M386.22,468.79 C422.74,487.84 465.4204,510.1147 502.0304,529.2147 " fill="none" id="JobOpening-to-Customer" style="stroke:#181818;stroke-width:1.0;"/><polygon fill="#181818" points="507.35,531.99,501.2209,524.2807,502.917,529.6773,497.5205,531.3734,507.35,531.99" style="stroke:#181818;stroke-width:1.0;"/></g><!--link Address to DoorNumber--><g id="link_Address_DoorNumber"><path codeLine="66" d="M377.42,584.09 C367.51,588.59 360,592 360,592 C360,592 137,653 137,653 C137,653 134.9842,653.81 124.6642,657.92 " fill="none" id="Address-to-DoorNumber" style="stroke:#181818;stroke-width:1.0;"/><polygon fill="#181818" points="119.09,660.14,128.9313,660.5262,123.7352,658.29,125.9713,653.0939,119.09,660.14" style="stroke:#181818;stroke-width:1.0;"/></g><!--link Address to Parish--><g id="link_Address_Parish"><path codeLine="67" d="M407.2,592.16 C396.13,610.62 385.0186,629.146 373.9286,647.616 " fill="none" id="Address-to-Parish" style="stroke:#181818;stroke-width:1.0;"/><polygon fill="#181818" points="370.84,652.76,378.9022,647.1031,373.4138,648.4734,372.0436,642.985,370.84,652.76" style="stroke:#181818;stroke-width:1.0;"/></g><!--link Address to County--><g id="link_Address_County"><path codeLine="68" d="M442.8,592.16 C453.87,610.62 464.9814,629.146 476.0714,647.616 " fill="none" id="Address-to-County" style="stroke:#181818;stroke-width:1.0;"/><polygon fill="#181818" points="479.16,652.76,477.9564,642.985,476.5862,648.4734,471.0978,647.1031,479.16,652.76" style="stroke:#181818;stroke-width:1.0;"/></g><!--link Address to District--><g id="link_Address_District"><path codeLine="69" d="M472.67,588.98 C506.71,607.89 547.2849,630.4364 582.5149,650.0064 " fill="none" id="Address-to-District" style="stroke:#181818;stroke-width:1.0;"/><polygon fill="#181818" points="587.76,652.92,581.8348,645.0529,583.3891,650.492,577.95,652.0463,587.76,652.92" style="stroke:#181818;stroke-width:1.0;"/></g><!--link Address to Street--><g id="link_Address_Street"><path codeLine="70" d="M377.33,588.98 C343.29,607.89 302.7151,630.4364 267.4851,650.0064 " fill="none" id="Address-to-Street" style="stroke:#181818;stroke-width:1.0;"/><polygon fill="#181818" points="262.24,652.92,272.05,652.0463,266.6109,650.492,268.1652,645.0529,262.24,652.92" style="stroke:#181818;stroke-width:1.0;"/></g><!--link Address to ZipCode--><g id="link_Address_ZipCode"><path codeLine="71" d="M472.58,584.09 C482.49,588.59 490,592 490,592 C490,592 713,653 713,653 C713,653 714.8372,653.7569 724.8772,657.8669 " fill="none" id="Address-to-ZipCode" style="stroke:#181818;stroke-width:1.0;"/><polygon fill="#181818" points="730.43,660.14,723.6163,653.0285,725.8027,658.2458,720.5855,660.4322,730.43,660.14" style="stroke:#181818;stroke-width:1.0;"/></g><!--SRC=[ZPJ1RXen48RlVWg_057F4KAAG9LIDKq5RG-zpNfdoJJ6TkqnrVRfwsKNCB4tAfV5_lz_nfxz8BoISU3X81seLzZZZdkDqgDYC7kD8bmCuGLQ-uVCNdQWGwveCiYzG-cixeU5o4Ib8OG7PazDP7nKrkpeByeFGeYJ93zJu4-sUNPeKl7m_L4kbsGOVGSALwkwRMqDUwir-kHMbyNLVhLkqTb0R7sVhFwog5cVmAGH7D3m3lsH5AP46ByDzi8_5BIMC-rqBb3yRHZ7Sda47L7QvbUQvxNXastdnI_nqA1_xdw00gC8mwnpYxyZ-TDn1rDw46VN-XYDOh9cDh_1e3ovTpqFRUinXEcYycsFZRL-F71PONJis2FodFeLF8MNENLje-5-Jjqa83ofsTe_oQthWpwNZu7jeNRqqwVaykvkDOlXMty6w12hudWlGQaqtVIEKy-gvJQR4W6EoKv6ji3GGC0K_S_E9TttCaxDi-xIBeRG5ZlqQ1JcqYBz0vZ5wWRp6rrZnqaV2B_PZoxj5cYNbfpfMkCpr6KoexaMd42kNcRYG8WpxMVbYdSXZUGMsoEoPQ69rK8OVnx5ziIk4Fy0]--></g></svg>