<?xml version="1.0" encoding="us-ascii" standalone="no"?><svg xmlns="http://www.w3.org/2000/svg" xmlns:xlink="http://www.w3.org/1999/xlink" contentStyleType="text/css" height="860px" preserveAspectRatio="none" style="width:1034px;height:860px;background:#FFFFFF;" version="1.1" viewBox="0 0 1034 860" width="1034px" zoomAndPan="magnify"><defs/><g><!--class AddJobOpeningUI--><g id="elem_AddJobOpeningUI"><rect codeLine="9" fill="#F1F1F1" height="60.582" id="AddJobOpeningUI" rx="2.5" ry="2.5" style="stroke:#181818;stroke-width:0.5;" width="145" x="627" y="7"/><ellipse cx="642" cy="29.291" fill="#ADD1B2" rx="11" ry="11" style="stroke:#181818;stroke-width:1.0;"/><path d="M644.7656,25.166 Q644.9219,24.9473 645.1094,24.8379 Q645.2969,24.7285 645.5156,24.7285 Q645.8906,24.7285 646.125,24.9941 Q646.3594,25.2441 646.3594,25.8535 L646.3594,27.3066 Q646.3594,27.916 646.125,28.1816 Q645.8906,28.4473 645.5156,28.4473 Q645.1719,28.4473 644.9688,28.2441 Q644.7656,28.0566 644.6563,27.541 Q644.6094,27.1816 644.4219,26.9941 Q644.0938,26.6191 643.4844,26.4004 Q642.875,26.1816 642.25,26.1816 Q641.4844,26.1816 640.8438,26.5098 Q640.2188,26.8379 639.7188,27.5879 Q639.2344,28.3379 639.2344,29.3691 L639.2344,30.4629 Q639.2344,31.6973 640.125,32.5254 Q641.0156,33.3379 642.6094,33.3379 Q643.5469,33.3379 644.2031,33.0879 Q644.5938,32.9316 645.0156,32.4941 Q645.2813,32.2285 645.4219,32.1504 Q645.5781,32.0723 645.7813,32.0723 Q646.1094,32.0723 646.3594,32.3379 Q646.625,32.5879 646.625,32.9316 Q646.625,33.2754 646.2813,33.6816 Q645.7813,34.2598 644.9844,34.5879 Q643.9063,35.041 642.6094,35.041 Q641.0938,35.041 639.8906,34.416 Q638.9063,33.916 638.2188,32.8535 Q637.5313,31.7754 637.5313,30.4941 L637.5313,29.3379 Q637.5313,28.0098 638.1406,26.8691 Q638.7656,25.7129 639.8594,25.1035 Q640.9531,24.4785 642.1875,24.4785 Q642.9219,24.4785 643.5625,24.6504 Q644.2188,24.8066 644.7656,25.166 Z " fill="#000000"/><text fill="#000000" font-family="sans-serif" font-size="12" font-style="italic" lengthAdjust="spacing" textLength="61" x="682" y="24.9492">&#171;interface&#187;</text><text fill="#000000" font-family="sans-serif" font-size="14" lengthAdjust="spacing" textLength="113" x="656" y="43.0684">AddJobOpeningUI</text><line style="stroke:#181818;stroke-width:0.5;" x1="628" x2="771" y1="51.582" y2="51.582"/><line style="stroke:#181818;stroke-width:0.5;" x1="628" x2="771" y1="59.582" y2="59.582"/></g><!--class AddJobOpeningController--><g id="elem_AddJobOpeningController"><rect codeLine="11" fill="#F1F1F1" height="60.582" id="AddJobOpeningController" rx="2.5" ry="2.5" style="stroke:#181818;stroke-width:0.5;" width="195" x="602" y="129"/><ellipse cx="617" cy="151.291" fill="#ADD1B2" rx="11" ry="11" style="stroke:#181818;stroke-width:1.0;"/><path d="M619.7656,147.166 Q619.9219,146.9473 620.1094,146.8379 Q620.2969,146.7285 620.5156,146.7285 Q620.8906,146.7285 621.125,146.9941 Q621.3594,147.2441 621.3594,147.8535 L621.3594,149.3066 Q621.3594,149.916 621.125,150.1816 Q620.8906,150.4473 620.5156,150.4473 Q620.1719,150.4473 619.9688,150.2441 Q619.7656,150.0566 619.6563,149.541 Q619.6094,149.1816 619.4219,148.9941 Q619.0938,148.6191 618.4844,148.4004 Q617.875,148.1816 617.25,148.1816 Q616.4844,148.1816 615.8438,148.5098 Q615.2188,148.8379 614.7188,149.5879 Q614.2344,150.3379 614.2344,151.3691 L614.2344,152.4629 Q614.2344,153.6973 615.125,154.5254 Q616.0156,155.3379 617.6094,155.3379 Q618.5469,155.3379 619.2031,155.0879 Q619.5938,154.9316 620.0156,154.4941 Q620.2813,154.2285 620.4219,154.1504 Q620.5781,154.0723 620.7813,154.0723 Q621.1094,154.0723 621.3594,154.3379 Q621.625,154.5879 621.625,154.9316 Q621.625,155.2754 621.2813,155.6816 Q620.7813,156.2598 619.9844,156.5879 Q618.9063,157.041 617.6094,157.041 Q616.0938,157.041 614.8906,156.416 Q613.9063,155.916 613.2188,154.8535 Q612.5313,153.7754 612.5313,152.4941 L612.5313,151.3379 Q612.5313,150.0098 613.1406,148.8691 Q613.7656,147.7129 614.8594,147.1035 Q615.9531,146.4785 617.1875,146.4785 Q617.9219,146.4785 618.5625,146.6504 Q619.2188,146.8066 619.7656,147.166 Z " fill="#000000"/><text fill="#000000" font-family="sans-serif" font-size="12" font-style="italic" lengthAdjust="spacing" textLength="65" x="680" y="146.9492">&#171;controller&#187;</text><text fill="#000000" font-family="sans-serif" font-size="14" lengthAdjust="spacing" textLength="163" x="631" y="165.0684">AddJobOpeningController</text><line style="stroke:#181818;stroke-width:0.5;" x1="603" x2="796" y1="173.582" y2="173.582"/><line style="stroke:#181818;stroke-width:0.5;" x1="603" x2="796" y1="181.582" y2="181.582"/></g><!--class JobOpeningManagementService--><g id="elem_JobOpeningManagementService"><rect codeLine="13" fill="#F1F1F1" height="60.582" id="JobOpeningManagementService" rx="2.5" ry="2.5" style="stroke:#181818;stroke-width:0.5;" width="237" x="461" y="269"/><ellipse cx="476" cy="291.291" fill="#ADD1B2" rx="11" ry="11" style="stroke:#181818;stroke-width:1.0;"/><path d="M478.7656,287.166 Q478.9219,286.9473 479.1094,286.8379 Q479.2969,286.7285 479.5156,286.7285 Q479.8906,286.7285 480.125,286.9941 Q480.3594,287.2441 480.3594,287.8535 L480.3594,289.3066 Q480.3594,289.916 480.125,290.1816 Q479.8906,290.4473 479.5156,290.4473 Q479.1719,290.4473 478.9688,290.2441 Q478.7656,290.0566 478.6563,289.541 Q478.6094,289.1816 478.4219,288.9941 Q478.0938,288.6191 477.4844,288.4004 Q476.875,288.1816 476.25,288.1816 Q475.4844,288.1816 474.8438,288.5098 Q474.2188,288.8379 473.7188,289.5879 Q473.2344,290.3379 473.2344,291.3691 L473.2344,292.4629 Q473.2344,293.6973 474.125,294.5254 Q475.0156,295.3379 476.6094,295.3379 Q477.5469,295.3379 478.2031,295.0879 Q478.5938,294.9316 479.0156,294.4941 Q479.2813,294.2285 479.4219,294.1504 Q479.5781,294.0723 479.7813,294.0723 Q480.1094,294.0723 480.3594,294.3379 Q480.625,294.5879 480.625,294.9316 Q480.625,295.2754 480.2813,295.6816 Q479.7813,296.2598 478.9844,296.5879 Q477.9063,297.041 476.6094,297.041 Q475.0938,297.041 473.8906,296.416 Q472.9063,295.916 472.2188,294.8535 Q471.5313,293.7754 471.5313,292.4941 L471.5313,291.3379 Q471.5313,290.0098 472.1406,288.8691 Q472.7656,287.7129 473.8594,287.1035 Q474.9531,286.4785 476.1875,286.4785 Q476.9219,286.4785 477.5625,286.6504 Q478.2188,286.8066 478.7656,287.166 Z " fill="#000000"/><text fill="#000000" font-family="sans-serif" font-size="12" font-style="italic" lengthAdjust="spacing" textLength="53" x="566" y="286.9492">&#171;service&#187;</text><text fill="#000000" font-family="sans-serif" font-size="14" lengthAdjust="spacing" textLength="205" x="490" y="305.0684">JobOpeningManagementService</text><line style="stroke:#181818;stroke-width:0.5;" x1="462" x2="697" y1="313.582" y2="313.582"/><line style="stroke:#181818;stroke-width:0.5;" x1="462" x2="697" y1="321.582" y2="321.582"/></g><!--class RepositoryFactory--><g id="elem_RepositoryFactory"><rect codeLine="15" fill="#F1F1F1" height="60.582" id="RepositoryFactory" rx="2.5" ry="2.5" style="stroke:#181818;stroke-width:0.5;" width="148" x="879.5" y="409"/><ellipse cx="894.5" cy="431.291" fill="#ADD1B2" rx="11" ry="11" style="stroke:#181818;stroke-width:1.0;"/><path d="M897.2656,427.166 Q897.4219,426.9473 897.6094,426.8379 Q897.7969,426.7285 898.0156,426.7285 Q898.3906,426.7285 898.625,426.9941 Q898.8594,427.2441 898.8594,427.8535 L898.8594,429.3066 Q898.8594,429.916 898.625,430.1816 Q898.3906,430.4473 898.0156,430.4473 Q897.6719,430.4473 897.4688,430.2441 Q897.2656,430.0566 897.1563,429.541 Q897.1094,429.1816 896.9219,428.9941 Q896.5938,428.6191 895.9844,428.4004 Q895.375,428.1816 894.75,428.1816 Q893.9844,428.1816 893.3438,428.5098 Q892.7188,428.8379 892.2188,429.5879 Q891.7344,430.3379 891.7344,431.3691 L891.7344,432.4629 Q891.7344,433.6973 892.625,434.5254 Q893.5156,435.3379 895.1094,435.3379 Q896.0469,435.3379 896.7031,435.0879 Q897.0938,434.9316 897.5156,434.4941 Q897.7813,434.2285 897.9219,434.1504 Q898.0781,434.0723 898.2813,434.0723 Q898.6094,434.0723 898.8594,434.3379 Q899.125,434.5879 899.125,434.9316 Q899.125,435.2754 898.7813,435.6816 Q898.2813,436.2598 897.4844,436.5879 Q896.4063,437.041 895.1094,437.041 Q893.5938,437.041 892.3906,436.416 Q891.4063,435.916 890.7188,434.8535 Q890.0313,433.7754 890.0313,432.4941 L890.0313,431.3379 Q890.0313,430.0098 890.6406,428.8691 Q891.2656,427.7129 892.3594,427.1035 Q893.4531,426.4785 894.6875,426.4785 Q895.4219,426.4785 896.0625,426.6504 Q896.7188,426.8066 897.2656,427.166 Z " fill="#000000"/><text fill="#000000" font-family="sans-serif" font-size="12" font-style="italic" lengthAdjust="spacing" textLength="50" x="941.5" y="426.9492">&#171;factory&#187;</text><text fill="#000000" font-family="sans-serif" font-size="14" lengthAdjust="spacing" textLength="116" x="908.5" y="445.0684">RepositoryFactory</text><line style="stroke:#181818;stroke-width:0.5;" x1="880.5" x2="1026.5" y1="453.582" y2="453.582"/><line style="stroke:#181818;stroke-width:0.5;" x1="880.5" x2="1026.5" y1="461.582" y2="461.582"/></g><!--class JobOpeningBuilder--><g id="elem_JobOpeningBuilder"><rect codeLine="17" fill="#F1F1F1" height="60.582" id="JobOpeningBuilder" rx="2.5" ry="2.5" style="stroke:#181818;stroke-width:0.5;" width="152" x="503.5" y="409"/><ellipse cx="518.5" cy="431.291" fill="#ADD1B2" rx="11" ry="11" style="stroke:#181818;stroke-width:1.0;"/><path d="M521.2656,427.166 Q521.4219,426.9473 521.6094,426.8379 Q521.7969,426.7285 522.0156,426.7285 Q522.3906,426.7285 522.625,426.9941 Q522.8594,427.2441 522.8594,427.8535 L522.8594,429.3066 Q522.8594,429.916 522.625,430.1816 Q522.3906,430.4473 522.0156,430.4473 Q521.6719,430.4473 521.4688,430.2441 Q521.2656,430.0566 521.1563,429.541 Q521.1094,429.1816 520.9219,428.9941 Q520.5938,428.6191 519.9844,428.4004 Q519.375,428.1816 518.75,428.1816 Q517.9844,428.1816 517.3438,428.5098 Q516.7188,428.8379 516.2188,429.5879 Q515.7344,430.3379 515.7344,431.3691 L515.7344,432.4629 Q515.7344,433.6973 516.625,434.5254 Q517.5156,435.3379 519.1094,435.3379 Q520.0469,435.3379 520.7031,435.0879 Q521.0938,434.9316 521.5156,434.4941 Q521.7813,434.2285 521.9219,434.1504 Q522.0781,434.0723 522.2813,434.0723 Q522.6094,434.0723 522.8594,434.3379 Q523.125,434.5879 523.125,434.9316 Q523.125,435.2754 522.7813,435.6816 Q522.2813,436.2598 521.4844,436.5879 Q520.4063,437.041 519.1094,437.041 Q517.5938,437.041 516.3906,436.416 Q515.4063,435.916 514.7188,434.8535 Q514.0313,433.7754 514.0313,432.4941 L514.0313,431.3379 Q514.0313,430.0098 514.6406,428.8691 Q515.2656,427.7129 516.3594,427.1035 Q517.4531,426.4785 518.6875,426.4785 Q519.4219,426.4785 520.0625,426.6504 Q520.7188,426.8066 521.2656,427.166 Z " fill="#000000"/><text fill="#000000" font-family="sans-serif" font-size="12" font-style="italic" lengthAdjust="spacing" textLength="50" x="567.5" y="426.9492">&#171;factory&#187;</text><text fill="#000000" font-family="sans-serif" font-size="14" lengthAdjust="spacing" textLength="120" x="532.5" y="445.0684">JobOpeningBuilder</text><line style="stroke:#181818;stroke-width:0.5;" x1="504.5" x2="654.5" y1="453.582" y2="453.582"/><line style="stroke:#181818;stroke-width:0.5;" x1="504.5" x2="654.5" y1="461.582" y2="461.582"/></g><!--class JobOpeningRepository--><g id="elem_JobOpeningRepository"><rect codeLine="19" fill="#F1F1F1" height="60.582" id="JobOpeningRepository" rx="2.5" ry="2.5" style="stroke:#181818;stroke-width:0.5;" width="176" x="733.5" y="269"/><ellipse cx="748.5" cy="291.291" fill="#ADD1B2" rx="11" ry="11" style="stroke:#181818;stroke-width:1.0;"/><path d="M751.2656,287.166 Q751.4219,286.9473 751.6094,286.8379 Q751.7969,286.7285 752.0156,286.7285 Q752.3906,286.7285 752.625,286.9941 Q752.8594,287.2441 752.8594,287.8535 L752.8594,289.3066 Q752.8594,289.916 752.625,290.1816 Q752.3906,290.4473 752.0156,290.4473 Q751.6719,290.4473 751.4688,290.2441 Q751.2656,290.0566 751.1563,289.541 Q751.1094,289.1816 750.9219,288.9941 Q750.5938,288.6191 749.9844,288.4004 Q749.375,288.1816 748.75,288.1816 Q747.9844,288.1816 747.3438,288.5098 Q746.7188,288.8379 746.2188,289.5879 Q745.7344,290.3379 745.7344,291.3691 L745.7344,292.4629 Q745.7344,293.6973 746.625,294.5254 Q747.5156,295.3379 749.1094,295.3379 Q750.0469,295.3379 750.7031,295.0879 Q751.0938,294.9316 751.5156,294.4941 Q751.7813,294.2285 751.9219,294.1504 Q752.0781,294.0723 752.2813,294.0723 Q752.6094,294.0723 752.8594,294.3379 Q753.125,294.5879 753.125,294.9316 Q753.125,295.2754 752.7813,295.6816 Q752.2813,296.2598 751.4844,296.5879 Q750.4063,297.041 749.1094,297.041 Q747.5938,297.041 746.3906,296.416 Q745.4063,295.916 744.7188,294.8535 Q744.0313,293.7754 744.0313,292.4941 L744.0313,291.3379 Q744.0313,290.0098 744.6406,288.8691 Q745.2656,287.7129 746.3594,287.1035 Q747.4531,286.4785 748.6875,286.4785 Q749.4219,286.4785 750.0625,286.6504 Q750.7188,286.8066 751.2656,287.166 Z " fill="#000000"/><text fill="#000000" font-family="sans-serif" font-size="12" font-style="italic" lengthAdjust="spacing" textLength="68" x="800.5" y="286.9492">&#171;repository&#187;</text><text fill="#000000" font-family="sans-serif" font-size="14" lengthAdjust="spacing" textLength="144" x="762.5" y="305.0684">JobOpeningRepository</text><line style="stroke:#181818;stroke-width:0.5;" x1="734.5" x2="908.5" y1="313.582" y2="313.582"/><line style="stroke:#181818;stroke-width:0.5;" x1="734.5" x2="908.5" y1="321.582" y2="321.582"/></g><!--class JobReference--><g id="elem_JobReference"><rect codeLine="21" fill="#F1F1F1" height="60.582" id="JobReference" rx="2.5" ry="2.5" style="stroke:#181818;stroke-width:0.5;" width="120" x="476.5" y="549"/><ellipse cx="491.5" cy="571.291" fill="#ADD1B2" rx="11" ry="11" style="stroke:#181818;stroke-width:1.0;"/><path d="M494.2656,567.166 Q494.4219,566.9473 494.6094,566.8379 Q494.7969,566.7285 495.0156,566.7285 Q495.3906,566.7285 495.625,566.9941 Q495.8594,567.2441 495.8594,567.8535 L495.8594,569.3066 Q495.8594,569.916 495.625,570.1816 Q495.3906,570.4473 495.0156,570.4473 Q494.6719,570.4473 494.4688,570.2441 Q494.2656,570.0566 494.1563,569.541 Q494.1094,569.1816 493.9219,568.9941 Q493.5938,568.6191 492.9844,568.4004 Q492.375,568.1816 491.75,568.1816 Q490.9844,568.1816 490.3438,568.5098 Q489.7188,568.8379 489.2188,569.5879 Q488.7344,570.3379 488.7344,571.3691 L488.7344,572.4629 Q488.7344,573.6973 489.625,574.5254 Q490.5156,575.3379 492.1094,575.3379 Q493.0469,575.3379 493.7031,575.0879 Q494.0938,574.9316 494.5156,574.4941 Q494.7813,574.2285 494.9219,574.1504 Q495.0781,574.0723 495.2813,574.0723 Q495.6094,574.0723 495.8594,574.3379 Q496.125,574.5879 496.125,574.9316 Q496.125,575.2754 495.7813,575.6816 Q495.2813,576.2598 494.4844,576.5879 Q493.4063,577.041 492.1094,577.041 Q490.5938,577.041 489.3906,576.416 Q488.4063,575.916 487.7188,574.8535 Q487.0313,573.7754 487.0313,572.4941 L487.0313,571.3379 Q487.0313,570.0098 487.6406,568.8691 Q488.2656,567.7129 489.3594,567.1035 Q490.4531,566.4785 491.6875,566.4785 Q492.4219,566.4785 493.0625,566.6504 Q493.7188,566.8066 494.2656,567.166 Z " fill="#000000"/><text fill="#000000" font-family="sans-serif" font-size="12" font-style="italic" lengthAdjust="spacing" textLength="81" x="509" y="566.9492">&#171;value object&#187;</text><text fill="#000000" font-family="sans-serif" font-size="14" lengthAdjust="spacing" textLength="88" x="505.5" y="585.0684">JobReference</text><line style="stroke:#181818;stroke-width:0.5;" x1="477.5" x2="595.5" y1="593.582" y2="593.582"/><line style="stroke:#181818;stroke-width:0.5;" x1="477.5" x2="595.5" y1="601.582" y2="601.582"/></g><!--class JobOpening--><g id="elem_JobOpening"><rect codeLine="23" fill="#F1F1F1" height="60.582" id="JobOpening" rx="2.5" ry="2.5" style="stroke:#181818;stroke-width:0.5;" width="108" x="333.5" y="549"/><ellipse cx="348.5" cy="571.291" fill="#ADD1B2" rx="11" ry="11" style="stroke:#181818;stroke-width:1.0;"/><path d="M351.2656,567.166 Q351.4219,566.9473 351.6094,566.8379 Q351.7969,566.7285 352.0156,566.7285 Q352.3906,566.7285 352.625,566.9941 Q352.8594,567.2441 352.8594,567.8535 L352.8594,569.3066 Q352.8594,569.916 352.625,570.1816 Q352.3906,570.4473 352.0156,570.4473 Q351.6719,570.4473 351.4688,570.2441 Q351.2656,570.0566 351.1563,569.541 Q351.1094,569.1816 350.9219,568.9941 Q350.5938,568.6191 349.9844,568.4004 Q349.375,568.1816 348.75,568.1816 Q347.9844,568.1816 347.3438,568.5098 Q346.7188,568.8379 346.2188,569.5879 Q345.7344,570.3379 345.7344,571.3691 L345.7344,572.4629 Q345.7344,573.6973 346.625,574.5254 Q347.5156,575.3379 349.1094,575.3379 Q350.0469,575.3379 350.7031,575.0879 Q351.0938,574.9316 351.5156,574.4941 Q351.7813,574.2285 351.9219,574.1504 Q352.0781,574.0723 352.2813,574.0723 Q352.6094,574.0723 352.8594,574.3379 Q353.125,574.5879 353.125,574.9316 Q353.125,575.2754 352.7813,575.6816 Q352.2813,576.2598 351.4844,576.5879 Q350.4063,577.041 349.1094,577.041 Q347.5938,577.041 346.3906,576.416 Q345.4063,575.916 344.7188,574.8535 Q344.0313,573.7754 344.0313,572.4941 L344.0313,571.3379 Q344.0313,570.0098 344.6406,568.8691 Q345.2656,567.7129 346.3594,567.1035 Q347.4531,566.4785 348.6875,566.4785 Q349.4219,566.4785 350.0625,566.6504 Q350.7188,566.8066 351.2656,567.166 Z " fill="#000000"/><text fill="#000000" font-family="sans-serif" font-size="12" font-style="italic" lengthAdjust="spacing" textLength="35" x="383" y="566.9492">&#171;root&#187;</text><text fill="#000000" font-family="sans-serif" font-size="14" lengthAdjust="spacing" textLength="76" x="362.5" y="585.0684">JobOpening</text><line style="stroke:#181818;stroke-width:0.5;" x1="334.5" x2="440.5" y1="593.582" y2="593.582"/><line style="stroke:#181818;stroke-width:0.5;" x1="334.5" x2="440.5" y1="601.582" y2="601.582"/></g><!--class ContractType--><g id="elem_ContractType"><rect codeLine="25" fill="#F1F1F1" height="60.582" id="ContractType" rx="2.5" ry="2.5" style="stroke:#181818;stroke-width:0.5;" width="118" x="135.5" y="671"/><ellipse cx="150.5" cy="693.291" fill="#ADD1B2" rx="11" ry="11" style="stroke:#181818;stroke-width:1.0;"/><path d="M153.2656,689.166 Q153.4219,688.9473 153.6094,688.8379 Q153.7969,688.7285 154.0156,688.7285 Q154.3906,688.7285 154.625,688.9941 Q154.8594,689.2441 154.8594,689.8535 L154.8594,691.3066 Q154.8594,691.916 154.625,692.1816 Q154.3906,692.4473 154.0156,692.4473 Q153.6719,692.4473 153.4688,692.2441 Q153.2656,692.0566 153.1563,691.541 Q153.1094,691.1816 152.9219,690.9941 Q152.5938,690.6191 151.9844,690.4004 Q151.375,690.1816 150.75,690.1816 Q149.9844,690.1816 149.3438,690.5098 Q148.7188,690.8379 148.2188,691.5879 Q147.7344,692.3379 147.7344,693.3691 L147.7344,694.4629 Q147.7344,695.6973 148.625,696.5254 Q149.5156,697.3379 151.1094,697.3379 Q152.0469,697.3379 152.7031,697.0879 Q153.0938,696.9316 153.5156,696.4941 Q153.7813,696.2285 153.9219,696.1504 Q154.0781,696.0723 154.2813,696.0723 Q154.6094,696.0723 154.8594,696.3379 Q155.125,696.5879 155.125,696.9316 Q155.125,697.2754 154.7813,697.6816 Q154.2813,698.2598 153.4844,698.5879 Q152.4063,699.041 151.1094,699.041 Q149.5938,699.041 148.3906,698.416 Q147.4063,697.916 146.7188,696.8535 Q146.0313,695.7754 146.0313,694.4941 L146.0313,693.3379 Q146.0313,692.0098 146.6406,690.8691 Q147.2656,689.7129 148.3594,689.1035 Q149.4531,688.4785 150.6875,688.4785 Q151.4219,688.4785 152.0625,688.6504 Q152.7188,688.8066 153.2656,689.166 Z " fill="#000000"/><text fill="#000000" font-family="sans-serif" font-size="12" font-style="italic" lengthAdjust="spacing" textLength="81" x="167" y="688.9492">&#171;value object&#187;</text><text fill="#000000" font-family="sans-serif" font-size="14" lengthAdjust="spacing" textLength="86" x="164.5" y="707.0684">ContractType</text><line style="stroke:#181818;stroke-width:0.5;" x1="136.5" x2="252.5" y1="715.582" y2="715.582"/><line style="stroke:#181818;stroke-width:0.5;" x1="136.5" x2="252.5" y1="723.582" y2="723.582"/></g><!--class Mode--><g id="elem_Mode"><rect codeLine="27" fill="#F1F1F1" height="60.582" id="Mode" rx="2.5" ry="2.5" style="stroke:#181818;stroke-width:0.5;" width="109" x="189" y="549"/><ellipse cx="204" cy="571.291" fill="#ADD1B2" rx="11" ry="11" style="stroke:#181818;stroke-width:1.0;"/><path d="M206.7656,567.166 Q206.9219,566.9473 207.1094,566.8379 Q207.2969,566.7285 207.5156,566.7285 Q207.8906,566.7285 208.125,566.9941 Q208.3594,567.2441 208.3594,567.8535 L208.3594,569.3066 Q208.3594,569.916 208.125,570.1816 Q207.8906,570.4473 207.5156,570.4473 Q207.1719,570.4473 206.9688,570.2441 Q206.7656,570.0566 206.6563,569.541 Q206.6094,569.1816 206.4219,568.9941 Q206.0938,568.6191 205.4844,568.4004 Q204.875,568.1816 204.25,568.1816 Q203.4844,568.1816 202.8438,568.5098 Q202.2188,568.8379 201.7188,569.5879 Q201.2344,570.3379 201.2344,571.3691 L201.2344,572.4629 Q201.2344,573.6973 202.125,574.5254 Q203.0156,575.3379 204.6094,575.3379 Q205.5469,575.3379 206.2031,575.0879 Q206.5938,574.9316 207.0156,574.4941 Q207.2813,574.2285 207.4219,574.1504 Q207.5781,574.0723 207.7813,574.0723 Q208.1094,574.0723 208.3594,574.3379 Q208.625,574.5879 208.625,574.9316 Q208.625,575.2754 208.2813,575.6816 Q207.7813,576.2598 206.9844,576.5879 Q205.9063,577.041 204.6094,577.041 Q203.0938,577.041 201.8906,576.416 Q200.9063,575.916 200.2188,574.8535 Q199.5313,573.7754 199.5313,572.4941 L199.5313,571.3379 Q199.5313,570.0098 200.1406,568.8691 Q200.7656,567.7129 201.8594,567.1035 Q202.9531,566.4785 204.1875,566.4785 Q204.9219,566.4785 205.5625,566.6504 Q206.2188,566.8066 206.7656,567.166 Z " fill="#000000"/><text fill="#000000" font-family="sans-serif" font-size="12" font-style="italic" lengthAdjust="spacing" textLength="81" x="216" y="566.9492">&#171;value object&#187;</text><text fill="#000000" font-family="sans-serif" font-size="14" lengthAdjust="spacing" textLength="35" x="239" y="585.0684">Mode</text><line style="stroke:#181818;stroke-width:0.5;" x1="190" x2="297" y1="593.582" y2="593.582"/><line style="stroke:#181818;stroke-width:0.5;" x1="190" x2="297" y1="601.582" y2="601.582"/></g><!--class NumberOfVacancies--><g id="elem_NumberOfVacancies"><rect codeLine="29" fill="#F1F1F1" height="60.582" id="NumberOfVacancies" rx="2.5" ry="2.5" style="stroke:#181818;stroke-width:0.5;" width="161" x="307" y="409"/><ellipse cx="322" cy="431.291" fill="#ADD1B2" rx="11" ry="11" style="stroke:#181818;stroke-width:1.0;"/><path d="M324.7656,427.166 Q324.9219,426.9473 325.1094,426.8379 Q325.2969,426.7285 325.5156,426.7285 Q325.8906,426.7285 326.125,426.9941 Q326.3594,427.2441 326.3594,427.8535 L326.3594,429.3066 Q326.3594,429.916 326.125,430.1816 Q325.8906,430.4473 325.5156,430.4473 Q325.1719,430.4473 324.9688,430.2441 Q324.7656,430.0566 324.6563,429.541 Q324.6094,429.1816 324.4219,428.9941 Q324.0938,428.6191 323.4844,428.4004 Q322.875,428.1816 322.25,428.1816 Q321.4844,428.1816 320.8438,428.5098 Q320.2188,428.8379 319.7188,429.5879 Q319.2344,430.3379 319.2344,431.3691 L319.2344,432.4629 Q319.2344,433.6973 320.125,434.5254 Q321.0156,435.3379 322.6094,435.3379 Q323.5469,435.3379 324.2031,435.0879 Q324.5938,434.9316 325.0156,434.4941 Q325.2813,434.2285 325.4219,434.1504 Q325.5781,434.0723 325.7813,434.0723 Q326.1094,434.0723 326.3594,434.3379 Q326.625,434.5879 326.625,434.9316 Q326.625,435.2754 326.2813,435.6816 Q325.7813,436.2598 324.9844,436.5879 Q323.9063,437.041 322.6094,437.041 Q321.0938,437.041 319.8906,436.416 Q318.9063,435.916 318.2188,434.8535 Q317.5313,433.7754 317.5313,432.4941 L317.5313,431.3379 Q317.5313,430.0098 318.1406,428.8691 Q318.7656,427.7129 319.8594,427.1035 Q320.9531,426.4785 322.1875,426.4785 Q322.9219,426.4785 323.5625,426.6504 Q324.2188,426.8066 324.7656,427.166 Z " fill="#000000"/><text fill="#000000" font-family="sans-serif" font-size="12" font-style="italic" lengthAdjust="spacing" textLength="81" x="360" y="426.9492">&#171;value object&#187;</text><text fill="#000000" font-family="sans-serif" font-size="14" lengthAdjust="spacing" textLength="129" x="336" y="445.0684">NumberOfVacancies</text><line style="stroke:#181818;stroke-width:0.5;" x1="308" x2="467" y1="453.582" y2="453.582"/><line style="stroke:#181818;stroke-width:0.5;" x1="308" x2="467" y1="461.582" y2="461.582"/></g><!--class Requirements--><g id="elem_Requirements"><rect codeLine="31" fill="#F1F1F1" height="60.582" id="Requirements" rx="2.5" ry="2.5" style="stroke:#181818;stroke-width:0.5;" width="120" x="151.5" y="409"/><ellipse cx="166.5" cy="431.291" fill="#ADD1B2" rx="11" ry="11" style="stroke:#181818;stroke-width:1.0;"/><path d="M169.2656,427.166 Q169.4219,426.9473 169.6094,426.8379 Q169.7969,426.7285 170.0156,426.7285 Q170.3906,426.7285 170.625,426.9941 Q170.8594,427.2441 170.8594,427.8535 L170.8594,429.3066 Q170.8594,429.916 170.625,430.1816 Q170.3906,430.4473 170.0156,430.4473 Q169.6719,430.4473 169.4688,430.2441 Q169.2656,430.0566 169.1563,429.541 Q169.1094,429.1816 168.9219,428.9941 Q168.5938,428.6191 167.9844,428.4004 Q167.375,428.1816 166.75,428.1816 Q165.9844,428.1816 165.3438,428.5098 Q164.7188,428.8379 164.2188,429.5879 Q163.7344,430.3379 163.7344,431.3691 L163.7344,432.4629 Q163.7344,433.6973 164.625,434.5254 Q165.5156,435.3379 167.1094,435.3379 Q168.0469,435.3379 168.7031,435.0879 Q169.0938,434.9316 169.5156,434.4941 Q169.7813,434.2285 169.9219,434.1504 Q170.0781,434.0723 170.2813,434.0723 Q170.6094,434.0723 170.8594,434.3379 Q171.125,434.5879 171.125,434.9316 Q171.125,435.2754 170.7813,435.6816 Q170.2813,436.2598 169.4844,436.5879 Q168.4063,437.041 167.1094,437.041 Q165.5938,437.041 164.3906,436.416 Q163.4063,435.916 162.7188,434.8535 Q162.0313,433.7754 162.0313,432.4941 L162.0313,431.3379 Q162.0313,430.0098 162.6406,428.8691 Q163.2656,427.7129 164.3594,427.1035 Q165.4531,426.4785 166.6875,426.4785 Q167.4219,426.4785 168.0625,426.6504 Q168.7188,426.8066 169.2656,427.166 Z " fill="#000000"/><text fill="#000000" font-family="sans-serif" font-size="12" font-style="italic" lengthAdjust="spacing" textLength="43" x="203" y="426.9492">&#171;entity&#187;</text><text fill="#000000" font-family="sans-serif" font-size="14" lengthAdjust="spacing" textLength="88" x="180.5" y="445.0684">Requirements</text><line style="stroke:#181818;stroke-width:0.5;" x1="152.5" x2="270.5" y1="453.582" y2="453.582"/><line style="stroke:#181818;stroke-width:0.5;" x1="152.5" x2="270.5" y1="461.582" y2="461.582"/></g><!--class Function--><g id="elem_Function"><rect codeLine="33" fill="#F1F1F1" height="60.582" id="Function" rx="2.5" ry="2.5" style="stroke:#181818;stroke-width:0.5;" width="109" x="289" y="671"/><ellipse cx="304" cy="693.291" fill="#ADD1B2" rx="11" ry="11" style="stroke:#181818;stroke-width:1.0;"/><path d="M306.7656,689.166 Q306.9219,688.9473 307.1094,688.8379 Q307.2969,688.7285 307.5156,688.7285 Q307.8906,688.7285 308.125,688.9941 Q308.3594,689.2441 308.3594,689.8535 L308.3594,691.3066 Q308.3594,691.916 308.125,692.1816 Q307.8906,692.4473 307.5156,692.4473 Q307.1719,692.4473 306.9688,692.2441 Q306.7656,692.0566 306.6563,691.541 Q306.6094,691.1816 306.4219,690.9941 Q306.0938,690.6191 305.4844,690.4004 Q304.875,690.1816 304.25,690.1816 Q303.4844,690.1816 302.8438,690.5098 Q302.2188,690.8379 301.7188,691.5879 Q301.2344,692.3379 301.2344,693.3691 L301.2344,694.4629 Q301.2344,695.6973 302.125,696.5254 Q303.0156,697.3379 304.6094,697.3379 Q305.5469,697.3379 306.2031,697.0879 Q306.5938,696.9316 307.0156,696.4941 Q307.2813,696.2285 307.4219,696.1504 Q307.5781,696.0723 307.7813,696.0723 Q308.1094,696.0723 308.3594,696.3379 Q308.625,696.5879 308.625,696.9316 Q308.625,697.2754 308.2813,697.6816 Q307.7813,698.2598 306.9844,698.5879 Q305.9063,699.041 304.6094,699.041 Q303.0938,699.041 301.8906,698.416 Q300.9063,697.916 300.2188,696.8535 Q299.5313,695.7754 299.5313,694.4941 L299.5313,693.3379 Q299.5313,692.0098 300.1406,690.8691 Q300.7656,689.7129 301.8594,689.1035 Q302.9531,688.4785 304.1875,688.4785 Q304.9219,688.4785 305.5625,688.6504 Q306.2188,688.8066 306.7656,689.166 Z " fill="#000000"/><text fill="#000000" font-family="sans-serif" font-size="12" font-style="italic" lengthAdjust="spacing" textLength="81" x="316" y="688.9492">&#171;value object&#187;</text><text fill="#000000" font-family="sans-serif" font-size="14" lengthAdjust="spacing" textLength="55" x="329" y="707.0684">Function</text><line style="stroke:#181818;stroke-width:0.5;" x1="290" x2="397" y1="715.582" y2="715.582"/><line style="stroke:#181818;stroke-width:0.5;" x1="290" x2="397" y1="723.582" y2="723.582"/></g><!--class Description--><g id="elem_Description"><rect codeLine="35" fill="#F1F1F1" height="60.582" id="Description" rx="2.5" ry="2.5" style="stroke:#181818;stroke-width:0.5;" width="109" x="7" y="409"/><ellipse cx="22" cy="431.291" fill="#ADD1B2" rx="11" ry="11" style="stroke:#181818;stroke-width:1.0;"/><path d="M24.7656,427.166 Q24.9219,426.9473 25.1094,426.8379 Q25.2969,426.7285 25.5156,426.7285 Q25.8906,426.7285 26.125,426.9941 Q26.3594,427.2441 26.3594,427.8535 L26.3594,429.3066 Q26.3594,429.916 26.125,430.1816 Q25.8906,430.4473 25.5156,430.4473 Q25.1719,430.4473 24.9688,430.2441 Q24.7656,430.0566 24.6563,429.541 Q24.6094,429.1816 24.4219,428.9941 Q24.0938,428.6191 23.4844,428.4004 Q22.875,428.1816 22.25,428.1816 Q21.4844,428.1816 20.8438,428.5098 Q20.2188,428.8379 19.7188,429.5879 Q19.2344,430.3379 19.2344,431.3691 L19.2344,432.4629 Q19.2344,433.6973 20.125,434.5254 Q21.0156,435.3379 22.6094,435.3379 Q23.5469,435.3379 24.2031,435.0879 Q24.5938,434.9316 25.0156,434.4941 Q25.2813,434.2285 25.4219,434.1504 Q25.5781,434.0723 25.7813,434.0723 Q26.1094,434.0723 26.3594,434.3379 Q26.625,434.5879 26.625,434.9316 Q26.625,435.2754 26.2813,435.6816 Q25.7813,436.2598 24.9844,436.5879 Q23.9063,437.041 22.6094,437.041 Q21.0938,437.041 19.8906,436.416 Q18.9063,435.916 18.2188,434.8535 Q17.5313,433.7754 17.5313,432.4941 L17.5313,431.3379 Q17.5313,430.0098 18.1406,428.8691 Q18.7656,427.7129 19.8594,427.1035 Q20.9531,426.4785 22.1875,426.4785 Q22.9219,426.4785 23.5625,426.6504 Q24.2188,426.8066 24.7656,427.166 Z " fill="#000000"/><text fill="#000000" font-family="sans-serif" font-size="12" font-style="italic" lengthAdjust="spacing" textLength="81" x="34" y="426.9492">&#171;value object&#187;</text><text fill="#000000" font-family="sans-serif" font-size="14" lengthAdjust="spacing" textLength="71" x="39" y="445.0684">Description</text><line style="stroke:#181818;stroke-width:0.5;" x1="8" x2="115" y1="453.582" y2="453.582"/><line style="stroke:#181818;stroke-width:0.5;" x1="8" x2="115" y1="461.582" y2="461.582"/></g><!--class Address--><g id="elem_Address"><rect codeLine="37" fill="#F1F1F1" height="60.582" id="Address" rx="2.5" ry="2.5" style="stroke:#181818;stroke-width:0.5;" width="95" x="433" y="671"/><ellipse cx="448" cy="693.291" fill="#ADD1B2" rx="11" ry="11" style="stroke:#181818;stroke-width:1.0;"/><path d="M450.7656,689.166 Q450.9219,688.9473 451.1094,688.8379 Q451.2969,688.7285 451.5156,688.7285 Q451.8906,688.7285 452.125,688.9941 Q452.3594,689.2441 452.3594,689.8535 L452.3594,691.3066 Q452.3594,691.916 452.125,692.1816 Q451.8906,692.4473 451.5156,692.4473 Q451.1719,692.4473 450.9688,692.2441 Q450.7656,692.0566 450.6563,691.541 Q450.6094,691.1816 450.4219,690.9941 Q450.0938,690.6191 449.4844,690.4004 Q448.875,690.1816 448.25,690.1816 Q447.4844,690.1816 446.8438,690.5098 Q446.2188,690.8379 445.7188,691.5879 Q445.2344,692.3379 445.2344,693.3691 L445.2344,694.4629 Q445.2344,695.6973 446.125,696.5254 Q447.0156,697.3379 448.6094,697.3379 Q449.5469,697.3379 450.2031,697.0879 Q450.5938,696.9316 451.0156,696.4941 Q451.2813,696.2285 451.4219,696.1504 Q451.5781,696.0723 451.7813,696.0723 Q452.1094,696.0723 452.3594,696.3379 Q452.625,696.5879 452.625,696.9316 Q452.625,697.2754 452.2813,697.6816 Q451.7813,698.2598 450.9844,698.5879 Q449.9063,699.041 448.6094,699.041 Q447.0938,699.041 445.8906,698.416 Q444.9063,697.916 444.2188,696.8535 Q443.5313,695.7754 443.5313,694.4941 L443.5313,693.3379 Q443.5313,692.0098 444.1406,690.8691 Q444.7656,689.7129 445.8594,689.1035 Q446.9531,688.4785 448.1875,688.4785 Q448.9219,688.4785 449.5625,688.6504 Q450.2188,688.8066 450.7656,689.166 Z " fill="#000000"/><text fill="#000000" font-family="sans-serif" font-size="12" font-style="italic" lengthAdjust="spacing" textLength="67" x="460" y="688.9492">&#171;root entity&#187;</text><text fill="#000000" font-family="sans-serif" font-size="14" lengthAdjust="spacing" textLength="52" x="467.5" y="707.0684">Address</text><line style="stroke:#181818;stroke-width:0.5;" x1="434" x2="527" y1="715.582" y2="715.582"/><line style="stroke:#181818;stroke-width:0.5;" x1="434" x2="527" y1="723.582" y2="723.582"/></g><!--class DoorNumber--><g id="elem_DoorNumber"><rect codeLine="39" fill="#F1F1F1" height="60.582" id="DoorNumber" rx="2.5" ry="2.5" style="stroke:#181818;stroke-width:0.5;" width="112" x="62.5" y="793"/><ellipse cx="77.5" cy="815.291" fill="#ADD1B2" rx="11" ry="11" style="stroke:#181818;stroke-width:1.0;"/><path d="M80.2656,811.166 Q80.4219,810.9473 80.6094,810.8379 Q80.7969,810.7285 81.0156,810.7285 Q81.3906,810.7285 81.625,810.9941 Q81.8594,811.2441 81.8594,811.8535 L81.8594,813.3066 Q81.8594,813.916 81.625,814.1816 Q81.3906,814.4473 81.0156,814.4473 Q80.6719,814.4473 80.4688,814.2441 Q80.2656,814.0566 80.1563,813.541 Q80.1094,813.1816 79.9219,812.9941 Q79.5938,812.6191 78.9844,812.4004 Q78.375,812.1816 77.75,812.1816 Q76.9844,812.1816 76.3438,812.5098 Q75.7188,812.8379 75.2188,813.5879 Q74.7344,814.3379 74.7344,815.3691 L74.7344,816.4629 Q74.7344,817.6973 75.625,818.5254 Q76.5156,819.3379 78.1094,819.3379 Q79.0469,819.3379 79.7031,819.0879 Q80.0938,818.9316 80.5156,818.4941 Q80.7813,818.2285 80.9219,818.1504 Q81.0781,818.0723 81.2813,818.0723 Q81.6094,818.0723 81.8594,818.3379 Q82.125,818.5879 82.125,818.9316 Q82.125,819.2754 81.7813,819.6816 Q81.2813,820.2598 80.4844,820.5879 Q79.4063,821.041 78.1094,821.041 Q76.5938,821.041 75.3906,820.416 Q74.4063,819.916 73.7188,818.8535 Q73.0313,817.7754 73.0313,816.4941 L73.0313,815.3379 Q73.0313,814.0098 73.6406,812.8691 Q74.2656,811.7129 75.3594,811.1035 Q76.4531,810.4785 77.6875,810.4785 Q78.4219,810.4785 79.0625,810.6504 Q79.7188,810.8066 80.2656,811.166 Z " fill="#000000"/><text fill="#000000" font-family="sans-serif" font-size="12" font-style="italic" lengthAdjust="spacing" textLength="81" x="91" y="810.9492">&#171;value object&#187;</text><text fill="#000000" font-family="sans-serif" font-size="14" lengthAdjust="spacing" textLength="80" x="91.5" y="829.0684">DoorNumber</text><line style="stroke:#181818;stroke-width:0.5;" x1="63.5" x2="173.5" y1="837.582" y2="837.582"/><line style="stroke:#181818;stroke-width:0.5;" x1="63.5" x2="173.5" y1="845.582" y2="845.582"/></g><!--class Street--><g id="elem_Street"><rect codeLine="40" fill="#F1F1F1" height="60.582" id="Street" rx="2.5" ry="2.5" style="stroke:#181818;stroke-width:0.5;" width="109" x="210" y="793"/><ellipse cx="225" cy="815.291" fill="#ADD1B2" rx="11" ry="11" style="stroke:#181818;stroke-width:1.0;"/><path d="M227.7656,811.166 Q227.9219,810.9473 228.1094,810.8379 Q228.2969,810.7285 228.5156,810.7285 Q228.8906,810.7285 229.125,810.9941 Q229.3594,811.2441 229.3594,811.8535 L229.3594,813.3066 Q229.3594,813.916 229.125,814.1816 Q228.8906,814.4473 228.5156,814.4473 Q228.1719,814.4473 227.9688,814.2441 Q227.7656,814.0566 227.6563,813.541 Q227.6094,813.1816 227.4219,812.9941 Q227.0938,812.6191 226.4844,812.4004 Q225.875,812.1816 225.25,812.1816 Q224.4844,812.1816 223.8438,812.5098 Q223.2188,812.8379 222.7188,813.5879 Q222.2344,814.3379 222.2344,815.3691 L222.2344,816.4629 Q222.2344,817.6973 223.125,818.5254 Q224.0156,819.3379 225.6094,819.3379 Q226.5469,819.3379 227.2031,819.0879 Q227.5938,818.9316 228.0156,818.4941 Q228.2813,818.2285 228.4219,818.1504 Q228.5781,818.0723 228.7813,818.0723 Q229.1094,818.0723 229.3594,818.3379 Q229.625,818.5879 229.625,818.9316 Q229.625,819.2754 229.2813,819.6816 Q228.7813,820.2598 227.9844,820.5879 Q226.9063,821.041 225.6094,821.041 Q224.0938,821.041 222.8906,820.416 Q221.9063,819.916 221.2188,818.8535 Q220.5313,817.7754 220.5313,816.4941 L220.5313,815.3379 Q220.5313,814.0098 221.1406,812.8691 Q221.7656,811.7129 222.8594,811.1035 Q223.9531,810.4785 225.1875,810.4785 Q225.9219,810.4785 226.5625,810.6504 Q227.2188,810.8066 227.7656,811.166 Z " fill="#000000"/><text fill="#000000" font-family="sans-serif" font-size="12" font-style="italic" lengthAdjust="spacing" textLength="81" x="237" y="810.9492">&#171;value object&#187;</text><text fill="#000000" font-family="sans-serif" font-size="14" lengthAdjust="spacing" textLength="38" x="258.5" y="829.0684">Street</text><line style="stroke:#181818;stroke-width:0.5;" x1="211" x2="318" y1="837.582" y2="837.582"/><line style="stroke:#181818;stroke-width:0.5;" x1="211" x2="318" y1="845.582" y2="845.582"/></g><!--class Parish--><g id="elem_Parish"><rect codeLine="41" fill="#F1F1F1" height="60.582" id="Parish" rx="2.5" ry="2.5" style="stroke:#181818;stroke-width:0.5;" width="109" x="354" y="793"/><ellipse cx="369" cy="815.291" fill="#ADD1B2" rx="11" ry="11" style="stroke:#181818;stroke-width:1.0;"/><path d="M371.7656,811.166 Q371.9219,810.9473 372.1094,810.8379 Q372.2969,810.7285 372.5156,810.7285 Q372.8906,810.7285 373.125,810.9941 Q373.3594,811.2441 373.3594,811.8535 L373.3594,813.3066 Q373.3594,813.916 373.125,814.1816 Q372.8906,814.4473 372.5156,814.4473 Q372.1719,814.4473 371.9688,814.2441 Q371.7656,814.0566 371.6563,813.541 Q371.6094,813.1816 371.4219,812.9941 Q371.0938,812.6191 370.4844,812.4004 Q369.875,812.1816 369.25,812.1816 Q368.4844,812.1816 367.8438,812.5098 Q367.2188,812.8379 366.7188,813.5879 Q366.2344,814.3379 366.2344,815.3691 L366.2344,816.4629 Q366.2344,817.6973 367.125,818.5254 Q368.0156,819.3379 369.6094,819.3379 Q370.5469,819.3379 371.2031,819.0879 Q371.5938,818.9316 372.0156,818.4941 Q372.2813,818.2285 372.4219,818.1504 Q372.5781,818.0723 372.7813,818.0723 Q373.1094,818.0723 373.3594,818.3379 Q373.625,818.5879 373.625,818.9316 Q373.625,819.2754 373.2813,819.6816 Q372.7813,820.2598 371.9844,820.5879 Q370.9063,821.041 369.6094,821.041 Q368.0938,821.041 366.8906,820.416 Q365.9063,819.916 365.2188,818.8535 Q364.5313,817.7754 364.5313,816.4941 L364.5313,815.3379 Q364.5313,814.0098 365.1406,812.8691 Q365.7656,811.7129 366.8594,811.1035 Q367.9531,810.4785 369.1875,810.4785 Q369.9219,810.4785 370.5625,810.6504 Q371.2188,810.8066 371.7656,811.166 Z " fill="#000000"/><text fill="#000000" font-family="sans-serif" font-size="12" font-style="italic" lengthAdjust="spacing" textLength="81" x="381" y="810.9492">&#171;value object&#187;</text><text fill="#000000" font-family="sans-serif" font-size="14" lengthAdjust="spacing" textLength="40" x="401.5" y="829.0684">Parish</text><line style="stroke:#181818;stroke-width:0.5;" x1="355" x2="462" y1="837.582" y2="837.582"/><line style="stroke:#181818;stroke-width:0.5;" x1="355" x2="462" y1="845.582" y2="845.582"/></g><!--class County--><g id="elem_County"><rect codeLine="42" fill="#F1F1F1" height="60.582" id="County" rx="2.5" ry="2.5" style="stroke:#181818;stroke-width:0.5;" width="109" x="498" y="793"/><ellipse cx="513" cy="815.291" fill="#ADD1B2" rx="11" ry="11" style="stroke:#181818;stroke-width:1.0;"/><path d="M515.7656,811.166 Q515.9219,810.9473 516.1094,810.8379 Q516.2969,810.7285 516.5156,810.7285 Q516.8906,810.7285 517.125,810.9941 Q517.3594,811.2441 517.3594,811.8535 L517.3594,813.3066 Q517.3594,813.916 517.125,814.1816 Q516.8906,814.4473 516.5156,814.4473 Q516.1719,814.4473 515.9688,814.2441 Q515.7656,814.0566 515.6563,813.541 Q515.6094,813.1816 515.4219,812.9941 Q515.0938,812.6191 514.4844,812.4004 Q513.875,812.1816 513.25,812.1816 Q512.4844,812.1816 511.8438,812.5098 Q511.2188,812.8379 510.7188,813.5879 Q510.2344,814.3379 510.2344,815.3691 L510.2344,816.4629 Q510.2344,817.6973 511.125,818.5254 Q512.0156,819.3379 513.6094,819.3379 Q514.5469,819.3379 515.2031,819.0879 Q515.5938,818.9316 516.0156,818.4941 Q516.2813,818.2285 516.4219,818.1504 Q516.5781,818.0723 516.7813,818.0723 Q517.1094,818.0723 517.3594,818.3379 Q517.625,818.5879 517.625,818.9316 Q517.625,819.2754 517.2813,819.6816 Q516.7813,820.2598 515.9844,820.5879 Q514.9063,821.041 513.6094,821.041 Q512.0938,821.041 510.8906,820.416 Q509.9063,819.916 509.2188,818.8535 Q508.5313,817.7754 508.5313,816.4941 L508.5313,815.3379 Q508.5313,814.0098 509.1406,812.8691 Q509.7656,811.7129 510.8594,811.1035 Q511.9531,810.4785 513.1875,810.4785 Q513.9219,810.4785 514.5625,810.6504 Q515.2188,810.8066 515.7656,811.166 Z " fill="#000000"/><text fill="#000000" font-family="sans-serif" font-size="12" font-style="italic" lengthAdjust="spacing" textLength="81" x="525" y="810.9492">&#171;value object&#187;</text><text fill="#000000" font-family="sans-serif" font-size="14" lengthAdjust="spacing" textLength="45" x="543" y="829.0684">County</text><line style="stroke:#181818;stroke-width:0.5;" x1="499" x2="606" y1="837.582" y2="837.582"/><line style="stroke:#181818;stroke-width:0.5;" x1="499" x2="606" y1="845.582" y2="845.582"/></g><!--class District--><g id="elem_District"><rect codeLine="43" fill="#F1F1F1" height="60.582" id="District" rx="2.5" ry="2.5" style="stroke:#181818;stroke-width:0.5;" width="109" x="642" y="793"/><ellipse cx="657" cy="815.291" fill="#ADD1B2" rx="11" ry="11" style="stroke:#181818;stroke-width:1.0;"/><path d="M659.7656,811.166 Q659.9219,810.9473 660.1094,810.8379 Q660.2969,810.7285 660.5156,810.7285 Q660.8906,810.7285 661.125,810.9941 Q661.3594,811.2441 661.3594,811.8535 L661.3594,813.3066 Q661.3594,813.916 661.125,814.1816 Q660.8906,814.4473 660.5156,814.4473 Q660.1719,814.4473 659.9688,814.2441 Q659.7656,814.0566 659.6563,813.541 Q659.6094,813.1816 659.4219,812.9941 Q659.0938,812.6191 658.4844,812.4004 Q657.875,812.1816 657.25,812.1816 Q656.4844,812.1816 655.8438,812.5098 Q655.2188,812.8379 654.7188,813.5879 Q654.2344,814.3379 654.2344,815.3691 L654.2344,816.4629 Q654.2344,817.6973 655.125,818.5254 Q656.0156,819.3379 657.6094,819.3379 Q658.5469,819.3379 659.2031,819.0879 Q659.5938,818.9316 660.0156,818.4941 Q660.2813,818.2285 660.4219,818.1504 Q660.5781,818.0723 660.7813,818.0723 Q661.1094,818.0723 661.3594,818.3379 Q661.625,818.5879 661.625,818.9316 Q661.625,819.2754 661.2813,819.6816 Q660.7813,820.2598 659.9844,820.5879 Q658.9063,821.041 657.6094,821.041 Q656.0938,821.041 654.8906,820.416 Q653.9063,819.916 653.2188,818.8535 Q652.5313,817.7754 652.5313,816.4941 L652.5313,815.3379 Q652.5313,814.0098 653.1406,812.8691 Q653.7656,811.7129 654.8594,811.1035 Q655.9531,810.4785 657.1875,810.4785 Q657.9219,810.4785 658.5625,810.6504 Q659.2188,810.8066 659.7656,811.166 Z " fill="#000000"/><text fill="#000000" font-family="sans-serif" font-size="12" font-style="italic" lengthAdjust="spacing" textLength="81" x="669" y="810.9492">&#171;value object&#187;</text><text fill="#000000" font-family="sans-serif" font-size="14" lengthAdjust="spacing" textLength="43" x="688" y="829.0684">District</text><line style="stroke:#181818;stroke-width:0.5;" x1="643" x2="750" y1="837.582" y2="837.582"/><line style="stroke:#181818;stroke-width:0.5;" x1="643" x2="750" y1="845.582" y2="845.582"/></g><!--class ZipCode--><g id="elem_ZipCode"><rect codeLine="44" fill="#F1F1F1" height="60.582" id="ZipCode" rx="2.5" ry="2.5" style="stroke:#181818;stroke-width:0.5;" width="109" x="786" y="793"/><ellipse cx="801" cy="815.291" fill="#ADD1B2" rx="11" ry="11" style="stroke:#181818;stroke-width:1.0;"/><path d="M803.7656,811.166 Q803.9219,810.9473 804.1094,810.8379 Q804.2969,810.7285 804.5156,810.7285 Q804.8906,810.7285 805.125,810.9941 Q805.3594,811.2441 805.3594,811.8535 L805.3594,813.3066 Q805.3594,813.916 805.125,814.1816 Q804.8906,814.4473 804.5156,814.4473 Q804.1719,814.4473 803.9688,814.2441 Q803.7656,814.0566 803.6563,813.541 Q803.6094,813.1816 803.4219,812.9941 Q803.0938,812.6191 802.4844,812.4004 Q801.875,812.1816 801.25,812.1816 Q800.4844,812.1816 799.8438,812.5098 Q799.2188,812.8379 798.7188,813.5879 Q798.2344,814.3379 798.2344,815.3691 L798.2344,816.4629 Q798.2344,817.6973 799.125,818.5254 Q800.0156,819.3379 801.6094,819.3379 Q802.5469,819.3379 803.2031,819.0879 Q803.5938,818.9316 804.0156,818.4941 Q804.2813,818.2285 804.4219,818.1504 Q804.5781,818.0723 804.7813,818.0723 Q805.1094,818.0723 805.3594,818.3379 Q805.625,818.5879 805.625,818.9316 Q805.625,819.2754 805.2813,819.6816 Q804.7813,820.2598 803.9844,820.5879 Q802.9063,821.041 801.6094,821.041 Q800.0938,821.041 798.8906,820.416 Q797.9063,819.916 797.2188,818.8535 Q796.5313,817.7754 796.5313,816.4941 L796.5313,815.3379 Q796.5313,814.0098 797.1406,812.8691 Q797.7656,811.7129 798.8594,811.1035 Q799.9531,810.4785 801.1875,810.4785 Q801.9219,810.4785 802.5625,810.6504 Q803.2188,810.8066 803.7656,811.166 Z " fill="#000000"/><text fill="#000000" font-family="sans-serif" font-size="12" font-style="italic" lengthAdjust="spacing" textLength="81" x="813" y="810.9492">&#171;value object&#187;</text><text fill="#000000" font-family="sans-serif" font-size="14" lengthAdjust="spacing" textLength="53" x="827" y="829.0684">ZipCode</text><line style="stroke:#181818;stroke-width:0.5;" x1="787" x2="894" y1="837.582" y2="837.582"/><line style="stroke:#181818;stroke-width:0.5;" x1="787" x2="894" y1="845.582" y2="845.582"/></g><!--class Customer--><g id="elem_Customer"><rect codeLine="46" fill="#F1F1F1" height="60.582" id="Customer" rx="2.5" ry="2.5" style="stroke:#181818;stroke-width:0.5;" width="109" x="563" y="671"/><ellipse cx="578" cy="693.291" fill="#ADD1B2" rx="11" ry="11" style="stroke:#181818;stroke-width:1.0;"/><path d="M580.7656,689.166 Q580.9219,688.9473 581.1094,688.8379 Q581.2969,688.7285 581.5156,688.7285 Q581.8906,688.7285 582.125,688.9941 Q582.3594,689.2441 582.3594,689.8535 L582.3594,691.3066 Q582.3594,691.916 582.125,692.1816 Q581.8906,692.4473 581.5156,692.4473 Q581.1719,692.4473 580.9688,692.2441 Q580.7656,692.0566 580.6563,691.541 Q580.6094,691.1816 580.4219,690.9941 Q580.0938,690.6191 579.4844,690.4004 Q578.875,690.1816 578.25,690.1816 Q577.4844,690.1816 576.8438,690.5098 Q576.2188,690.8379 575.7188,691.5879 Q575.2344,692.3379 575.2344,693.3691 L575.2344,694.4629 Q575.2344,695.6973 576.125,696.5254 Q577.0156,697.3379 578.6094,697.3379 Q579.5469,697.3379 580.2031,697.0879 Q580.5938,696.9316 581.0156,696.4941 Q581.2813,696.2285 581.4219,696.1504 Q581.5781,696.0723 581.7813,696.0723 Q582.1094,696.0723 582.3594,696.3379 Q582.625,696.5879 582.625,696.9316 Q582.625,697.2754 582.2813,697.6816 Q581.7813,698.2598 580.9844,698.5879 Q579.9063,699.041 578.6094,699.041 Q577.0938,699.041 575.8906,698.416 Q574.9063,697.916 574.2188,696.8535 Q573.5313,695.7754 573.5313,694.4941 L573.5313,693.3379 Q573.5313,692.0098 574.1406,690.8691 Q574.7656,689.7129 575.8594,689.1035 Q576.9531,688.4785 578.1875,688.4785 Q578.9219,688.4785 579.5625,688.6504 Q580.2188,688.8066 580.7656,689.166 Z " fill="#000000"/><text fill="#000000" font-family="sans-serif" font-size="12" font-style="italic" lengthAdjust="spacing" textLength="81" x="590" y="688.9492">&#171;value object&#187;</text><text fill="#000000" font-family="sans-serif" font-size="14" lengthAdjust="spacing" textLength="61" x="600" y="707.0684">Customer</text><line style="stroke:#181818;stroke-width:0.5;" x1="564" x2="671" y1="715.582" y2="715.582"/><line style="stroke:#181818;stroke-width:0.5;" x1="564" x2="671" y1="723.582" y2="723.582"/></g><!--link AddJobOpeningUI to AddJobOpeningController--><g id="link_AddJobOpeningUI_AddJobOpeningController"><path codeLine="53" d="M699.5,68.16 C699.5,86.62 699.5,104.29 699.5,122.76 " fill="none" id="AddJobOpeningUI-to-AddJobOpeningController" style="stroke:#181818;stroke-width:1.0;stroke-dasharray:7.0,7.0;"/><polygon fill="#181818" points="699.5,128.76,703.5,119.76,699.5,123.76,695.5,119.76,699.5,128.76" style="stroke:#181818;stroke-width:1.0;"/></g><!--link AddJobOpeningController to JobOpeningManagementService--><g id="link_AddJobOpeningController_JobOpeningManagementService"><path codeLine="55" d="M673.76,190.1 C653.51,213.39 629.3777,241.1429 609.1377,264.4129 " fill="none" id="AddJobOpeningController-to-JobOpeningManagementService" style="stroke:#181818;stroke-width:1.0;stroke-dasharray:7.0,7.0;"/><polygon fill="#181818" points="605.2,268.94,614.1246,264.7744,608.4814,265.1674,608.0884,259.5242,605.2,268.94" style="stroke:#181818;stroke-width:1.0;"/><polygon fill="#000000" points="649.219,233.4185,657.372,228.5216,652.9367,224.6646,649.219,233.4185" style="stroke:#000000;stroke-width:1.0;"/><text fill="#000000" font-family="sans-serif" font-size="13" lengthAdjust="spacing" textLength="28" x="661.5" y="235.0283">uses</text></g><!--link AddJobOpeningController to JobOpeningRepository--><g id="link_AddJobOpeningController_JobOpeningRepository"><path codeLine="56" d="M725.67,190.1 C746.26,213.39 770.8262,241.1746 791.3962,264.4446 " fill="none" id="AddJobOpeningController-to-JobOpeningRepository" style="stroke:#181818;stroke-width:1.0;stroke-dasharray:7.0,7.0;"/><polygon fill="#181818" points="795.37,268.94,792.4062,259.5477,792.0585,265.1938,786.4123,264.8461,795.37,268.94" style="stroke:#181818;stroke-width:1.0;"/><polygon fill="#000000" points="776.8117,233.3915,773.0226,224.6684,768.6189,228.5615,776.8117,233.3915" style="stroke:#000000;stroke-width:1.0;"/><text fill="#000000" font-family="sans-serif" font-size="13" lengthAdjust="spacing" textLength="56" x="782.5" y="235.0283">accesses</text></g><!--link JobOpeningManagementService to JobOpeningBuilder--><g id="link_JobOpeningManagementService_JobOpeningBuilder"><path codeLine="58" d="M579.5,330.1 C579.5,353.39 579.5,379.67 579.5,402.94 " fill="none" id="JobOpeningManagementService-to-JobOpeningBuilder" style="stroke:#181818;stroke-width:1.0;stroke-dasharray:7.0,7.0;"/><polygon fill="#181818" points="579.5,408.94,583.5,399.94,579.5,403.94,575.5,399.94,579.5,408.94" style="stroke:#181818;stroke-width:1.0;"/><text fill="#000000" font-family="sans-serif" font-size="13" lengthAdjust="spacing" textLength="28" x="580.5" y="375.0283">uses</text></g><!--reverse link JobOpeningRepository to RepositoryFactory--><g id="link_JobOpeningRepository_RepositoryFactory"><path codeLine="60" d="M853.9666,334.4365 C876.2366,357.7265 902.97,385.67 925.23,408.94 " fill="none" id="JobOpeningRepository-backto-RepositoryFactory" style="stroke:#181818;stroke-width:1.0;stroke-dasharray:7.0,7.0;"/><polygon fill="#181818" points="849.82,330.1,853.1489,339.3692,853.2755,333.7138,858.931,333.8404,849.82,330.1" style="stroke:#181818;stroke-width:1.0;"/><polygon fill="#000000" points="896.0439,366.0323,900.1722,374.6001,904.4198,370.5372,896.0439,366.0323" style="stroke:#000000;stroke-width:1.0;"/><text fill="#000000" font-family="sans-serif" font-size="13" lengthAdjust="spacing" textLength="43" x="908.5" y="375.0283">creates</text></g><!--link JobOpeningRepository to JobOpening--><g id="link_JobOpeningRepository_JobOpening"><path codeLine="61" d="M801.68,330.08 C775.71,366.97 727,430.03 672.5,470 C590.74,529.95 554.13,515.32 458.5,549 C452.96,550.95 452.8176,550.914 447.1176,553.144 " fill="none" id="JobOpeningRepository-to-JobOpening" style="stroke:#181818;stroke-width:1.0;stroke-dasharray:7.0,7.0;"/><polygon fill="#181818" points="441.53,555.33,451.3688,555.776,446.1863,553.5083,448.4541,548.3259,441.53,555.33" style="stroke:#181818;stroke-width:1.0;"/><polygon fill="#000000" points="739.2679,442.308,748.4889,439.9791,745.3589,435.0039,739.2679,442.308" style="stroke:#000000;stroke-width:1.0;"/><text fill="#000000" font-family="sans-serif" font-size="13" lengthAdjust="spacing" textLength="104" x="752.5" y="445.0283">saves in database</text></g><!--link JobOpeningBuilder to JobOpening--><g id="link_JobOpeningBuilder_JobOpening"><path codeLine="63" d="M538.31,470.1 C505.92,493.39 465.8723,522.1685 433.4923,545.4385 " fill="none" id="JobOpeningBuilder-to-JobOpening" style="stroke:#181818;stroke-width:1.0;stroke-dasharray:7.0,7.0;"/><polygon fill="#181818" points="428.62,548.94,438.2628,546.936,432.6803,546.0221,433.5941,540.4395,428.62,548.94" style="stroke:#181818;stroke-width:1.0;"/><polygon fill="#000000" points="496.4399,512.5637,505.4999,509.6711,502.0694,504.8982,496.4399,512.5637" style="stroke:#000000;stroke-width:1.0;"/><text fill="#000000" font-family="sans-serif" font-size="13" lengthAdjust="spacing" textLength="43" x="509.5" y="515.0283">creates</text></g><!--reverse link JobOpening to JobReference--><g id="link_JobOpening_JobReference"><path codeLine="66" d="M453.63,579.5 C465.24,579.5 464.85,579.5 476.46,579.5 " fill="none" id="JobOpening-backto-JobReference" style="stroke:#181818;stroke-width:1.0;"/><polygon fill="none" points="441.63,579.5,447.63,583.5,453.63,579.5,447.63,575.5,441.63,579.5" style="stroke:#181818;stroke-width:1.0;"/></g><!--link JobOpening to ContractType--><g id="link_JobOpening_ContractType"><path codeLine="67" d="M339.79,610.16 C309.99,628.69 276.8554,649.2919 247.0854,667.8019 " fill="none" id="JobOpening-to-ContractType" style="stroke:#181818;stroke-width:1.0;"/><polygon fill="#181818" points="241.99,670.97,251.7452,669.6147,246.2362,668.3299,247.521,662.8209,241.99,670.97" style="stroke:#181818;stroke-width:1.0;"/></g><!--reverse link Mode to JobOpening--><g id="link_Mode_JobOpening"><path codeLine="68" d="M304.06,579.5 C315.82,579.5 321.59,579.5 333.35,579.5 " fill="none" id="Mode-backto-JobOpening" style="stroke:#181818;stroke-width:1.0;"/><polygon fill="#181818" points="298.06,579.5,307.06,583.5,303.06,579.5,307.06,575.5,298.06,579.5" style="stroke:#181818;stroke-width:1.0;"/></g><!--reverse link NumberOfVacancies to JobOpening--><g id="link_NumberOfVacancies_JobOpening"><path codeLine="69" d="M387.5,476.1 C387.5,499.39 387.5,525.67 387.5,548.94 " fill="none" id="NumberOfVacancies-backto-JobOpening" style="stroke:#181818;stroke-width:1.0;"/><polygon fill="#181818" points="387.5,470.1,383.5,479.1,387.5,475.1,391.5,479.1,387.5,470.1" style="stroke:#181818;stroke-width:1.0;"/></g><!--reverse link Requirements to JobOpening--><g id="link_Requirements_JobOpening"><path codeLine="70" d="M253.9808,473.8032 C283.6708,497.0932 320.13,525.67 349.81,548.94 " fill="none" id="Requirements-backto-JobOpening" style="stroke:#181818;stroke-width:1.0;"/><polygon fill="#181818" points="249.26,470.1,253.8724,478.802,253.194,473.186,258.8101,472.5076,249.26,470.1" style="stroke:#181818;stroke-width:1.0;"/></g><!--link JobOpening to Function--><g id="link_JobOpening_Function"><path codeLine="71" d="M376.62,610.16 C369.85,628.62 363.2476,646.6575 356.4676,665.1275 " fill="none" id="JobOpening-to-Function" style="stroke:#181818;stroke-width:1.0;"/><polygon fill="#181818" points="354.4,670.76,361.2564,663.6896,356.123,666.0662,353.7464,660.9329,354.4,670.76" style="stroke:#181818;stroke-width:1.0;"/></g><!--reverse link Description to JobOpening--><g id="link_Description_JobOpening"><path codeLine="72" d="M121.5952,465.9392 C181.9452,491.4892 273.09,530.07 333.3,555.56 " fill="none" id="Description-backto-JobOpening" style="stroke:#181818;stroke-width:1.0;"/><polygon fill="#181818" points="116.07,463.6,122.7984,470.7923,120.6744,465.5493,125.9173,463.4253,116.07,463.6" style="stroke:#181818;stroke-width:1.0;"/></g><!--link JobOpening to Address--><g id="link_JobOpening_Address"><path codeLine="73" d="M410.49,610.16 C424.8,628.62 439.4536,647.5482 453.7736,666.0182 " fill="none" id="JobOpening-to-Address" style="stroke:#181818;stroke-width:1.0;"/><polygon fill="#181818" points="457.45,670.76,455.0967,661.1964,454.3864,666.8085,448.7743,666.0982,457.45,670.76" style="stroke:#181818;stroke-width:1.0;"/></g><!--link JobOpening to Customer--><g id="link_JobOpening_Customer"><path codeLine="74" d="M441.72,608.79 C478.24,627.84 520.9204,650.1147 557.5304,669.2147 " fill="none" id="JobOpening-to-Customer" style="stroke:#181818;stroke-width:1.0;"/><polygon fill="#181818" points="562.85,671.99,556.7209,664.2807,558.417,669.6773,553.0205,671.3734,562.85,671.99" style="stroke:#181818;stroke-width:1.0;"/></g><!--link Address to DoorNumber--><g id="link_Address_DoorNumber"><path codeLine="76" d="M432.94,725.13 C427.12,727.58 421.21,729.94 415.5,732 C318.86,766.9 289.93,760.37 192.5,793 C186.73,794.93 186.3803,794.9695 180.4403,797.1895 " fill="none" id="Address-to-DoorNumber" style="stroke:#181818;stroke-width:1.0;"/><polygon fill="#181818" points="174.82,799.29,184.6508,799.8861,179.5036,797.5396,181.8501,792.3924,174.82,799.29" style="stroke:#181818;stroke-width:1.0;"/></g><!--link Address to Parish--><g id="link_Address_Parish"><path codeLine="77" d="M462.7,732.16 C451.63,750.62 440.5186,769.146 429.4286,787.616 " fill="none" id="Address-to-Parish" style="stroke:#181818;stroke-width:1.0;"/><polygon fill="#181818" points="426.34,792.76,434.4022,787.1031,428.9138,788.4734,427.5436,782.985,426.34,792.76" style="stroke:#181818;stroke-width:1.0;"/></g><!--link Address to County--><g id="link_Address_County"><path codeLine="78" d="M498.3,732.16 C509.37,750.62 520.4814,769.146 531.5714,787.616 " fill="none" id="Address-to-County" style="stroke:#181818;stroke-width:1.0;"/><polygon fill="#181818" points="534.66,792.76,533.4564,782.985,532.0862,788.4734,526.5978,787.1031,534.66,792.76" style="stroke:#181818;stroke-width:1.0;"/></g><!--link Address to District--><g id="link_Address_District"><path codeLine="79" d="M528.17,728.98 C562.21,747.89 602.7849,770.4364 638.0149,790.0064 " fill="none" id="Address-to-District" style="stroke:#181818;stroke-width:1.0;"/><polygon fill="#181818" points="643.26,792.92,637.3348,785.0529,638.8891,790.492,633.45,792.0463,643.26,792.92" style="stroke:#181818;stroke-width:1.0;"/></g><!--link Address to Street--><g id="link_Address_Street"><path codeLine="80" d="M432.83,728.98 C398.79,747.89 358.2151,770.4364 322.9851,790.0064 " fill="none" id="Address-to-Street" style="stroke:#181818;stroke-width:1.0;"/><polygon fill="#181818" points="317.74,792.92,327.55,792.0463,322.1109,790.492,323.6652,785.0529,317.74,792.92" style="stroke:#181818;stroke-width:1.0;"/></g><!--link Address to ZipCode--><g id="link_Address_ZipCode"><path codeLine="81" d="M528.06,725.13 C533.88,727.58 539.79,729.94 545.5,732 C642.14,766.9 671.22,759.9 768.5,793 C774.13,794.91 774.3457,794.8972 780.1257,797.1072 " fill="none" id="Address-to-ZipCode" style="stroke:#181818;stroke-width:1.0;"/><polygon fill="#181818" points="785.73,799.25,778.7521,792.2996,781.0597,797.4643,775.895,799.772,785.73,799.25" style="stroke:#181818;stroke-width:1.0;"/></g><!--SRC=[ZLJBZfim5Dtp5TvrbQZhQ8GqJJJIL9fEbRHTT7SnbumxZktwaOf-VMqCmSI0oWRiyxX-t8DvPqA1XWjHGD_XZ2VRSYGQgGLnvbYO6y6yGIt_C74c3N23nOSHuaoWRHKI9NaR1aMYenoCURHMiyfPVAPIdDXV91yB_tGOUQphpx9wLIYy-_Tdyl30X4NT0CMod2NjfR1QSexQa-bj4DYn7XcvBo3ylYuex0drbL7q4XE_HlSZAccObRfz0XfUdjJ4hv4qUdvoZDTTyHNIwEbv-ZQOK8_Oe4RHBUeAt26HrIz_-7D-mKNA1EfEmTV_5ev-IVyYwsNmYxjKg5-R7q11K8PcaNd4tuxfxXW3oR-OJRRov0IrJ8f5_G4DrKojSlmLQpIctoUvht6GKiS5vmwHSR8QqIwXNq4pyxQ4xgKJjbr23ypu1gQBtZ-PsgyTzDuPAozpAu_FVGIsstAfu-_8IHI2QAtlTyGPVyNbVnea_RiZGAc_cavThDMOMWmvYPLJPHgExNOcVpj2DO8DBJalcrRoV0DNpsQ2r62X0eFJjGvhoNH3dN0N2I0tau2cqCR_2CMcd0HmWdDihCT3zYRpJldPB7Gv9KtRNE4XRhaooTcSi8_Ox6Rw5ktwgylXW8p1ow2OgMmwXYatwbEK0J6usNIVgk8V]--></g></svg>