<?xml version="1.0" encoding="us-ascii" standalone="no"?><svg xmlns="http://www.w3.org/2000/svg" xmlns:xlink="http://www.w3.org/1999/xlink" contentStyleType="text/css" height="1029px" preserveAspectRatio="none" style="width:2524px;height:1028px;background:#FFFFFF;" version="1.1" viewBox="0 0 2524 1028" width="2524.2px" zoomAndPan="magnify"><defs/><g><rect fill="#FFFFFF" height="878.7447" style="stroke:#181818;stroke-width:0.6999999999999998;" width="7" x="44.45" y="68.7695"/><rect fill="#FFFFFF" height="43.8074" style="stroke:#181818;stroke-width:0.6999999999999998;" width="7" x="255.15" y="85.0732"/><rect fill="#FFFFFF" height="21.9037" style="stroke:#181818;stroke-width:0.6999999999999998;" width="7" x="255.15" y="150.7844"/><rect fill="#FFFFFF" height="21.9037" style="stroke:#181818;stroke-width:0.6999999999999998;" width="7" x="255.15" y="194.5918"/><rect fill="#FFFFFF" height="21.9037" style="stroke:#181818;stroke-width:0.6999999999999998;" width="7" x="255.15" y="238.3992"/><rect fill="#FFFFFF" height="21.9037" style="stroke:#181818;stroke-width:0.6999999999999998;" width="7" x="255.15" y="282.2066"/><rect fill="#FFFFFF" height="21.9037" style="stroke:#181818;stroke-width:0.6999999999999998;" width="7" x="255.15" y="326.0141"/><rect fill="#FFFFFF" height="21.9037" style="stroke:#181818;stroke-width:0.6999999999999998;" width="7" x="255.15" y="369.8215"/><rect fill="#FFFFFF" height="533.8854" style="stroke:#181818;stroke-width:0.6999999999999998;" width="7" x="255.15" y="413.6289"/><rect fill="#FFFFFF" height="490.0779" style="stroke:#181818;stroke-width:0.6999999999999998;" width="7" x="694.05" y="435.5326"/><rect fill="#FFFFFF" height="284.7482" style="stroke:#181818;stroke-width:0.6999999999999998;" width="7" x="1131.55" y="457.4363"/><rect fill="#FFFFFF" height="153.326" style="stroke:#181818;stroke-width:0.6999999999999998;" width="7" x="1659.35" y="479.34"/><rect fill="#FFFFFF" height="21.9037" style="stroke:#181818;stroke-width:0.6999999999999998;" width="7" x="2096.85" y="588.8586"/><rect fill="#FFFFFF" height="43.8074" style="stroke:#181818;stroke-width:0.6999999999999998;" width="7" x="2208.5" y="654.5697"/><rect fill="#FFFFFF" height="43.8074" style="stroke:#181818;stroke-width:0.6999999999999998;" width="7" x="2311.4" y="764.0883"/><rect fill="#FFFFFF" height="73.9074" style="stroke:#181818;stroke-width:0.6999999999999998;" width="7" x="2417.8" y="829.7994"/><rect fill="#FFFFFF" height="19.6" style="stroke:#181818;stroke-width:0.6999999999999998;" width="7" x="2421.3" y="857.3031"/><line style="stroke:#181818;stroke-width:0.3499999999999999;stroke-dasharray:5.0,5.0;" x1="47.6" x2="47.6" y1="61.7695" y2="960.1143"/><line style="stroke:#181818;stroke-width:0.3499999999999999;stroke-dasharray:5.0,5.0;" x1="258.3" x2="258.3" y1="61.7695" y2="960.1143"/><line style="stroke:#181818;stroke-width:0.3499999999999999;stroke-dasharray:5.0,5.0;" x1="697.2" x2="697.2" y1="61.7695" y2="960.1143"/><line style="stroke:#181818;stroke-width:0.3499999999999999;stroke-dasharray:5.0,5.0;" x1="1134.7" x2="1134.7" y1="61.7695" y2="960.1143"/><line style="stroke:#181818;stroke-width:0.3499999999999999;stroke-dasharray:5.0,5.0;" x1="1662.85" x2="1662.85" y1="61.7695" y2="960.1143"/><line style="stroke:#181818;stroke-width:0.3499999999999999;stroke-dasharray:5.0,5.0;" x1="2100" x2="2100" y1="61.7695" y2="960.1143"/><line style="stroke:#181818;stroke-width:0.3499999999999999;stroke-dasharray:5.0,5.0;" x1="2212" x2="2212" y1="61.7695" y2="960.1143"/><line style="stroke:#181818;stroke-width:0.3499999999999999;stroke-dasharray:5.0,5.0;" x1="2314.9" x2="2314.9" y1="61.7695" y2="960.1143"/><line style="stroke:#181818;stroke-width:0.3499999999999999;stroke-dasharray:5.0,5.0;" x1="2421.3" x2="2421.3" y1="61.7695" y2="960.1143"/><text fill="#000000" font-family="sans-serif" font-size="9.8" lengthAdjust="spacing" textLength="84.7" x="3.5" y="59.31">Costumer Manager</text><ellipse cx="47.95" cy="12.6848" fill="#E3E3E3" rx="5.6" ry="5.6" style="stroke:#181818;stroke-width:0.3499999999999999;"/><path d="M47.95,18.2848 L47.95,37.1848 M38.85,23.8848 L57.05,23.8848 M47.95,37.1848 L38.85,47.6848 M47.95,37.1848 L57.05,47.6848 " fill="none" style="stroke:#181818;stroke-width:0.3499999999999999;"/><text fill="#000000" font-family="sans-serif" font-size="9.8" lengthAdjust="spacing" textLength="84.7" x="3.5" y="969.9895">Costumer Manager</text><ellipse cx="47.95" cy="978.399" fill="#E3E3E3" rx="5.6" ry="5.6" style="stroke:#181818;stroke-width:0.3499999999999999;"/><path d="M47.95,983.999 L47.95,1002.899 M38.85,989.599 L57.05,989.599 M47.95,1002.899 L38.85,1013.399 M47.95,1002.899 L57.05,1013.399 " fill="none" style="stroke:#181818;stroke-width:0.3499999999999999;"/><rect fill="#E3E3E3" height="22.8348" rx="1.75" ry="1.75" style="stroke:#181818;stroke-width:0.3499999999999999;" width="94.5" x="211.4" y="38.2348"/><text fill="#000000" font-family="sans-serif" font-size="9.8" lengthAdjust="spacing" textLength="84.7" x="216.3" y="53.71">: AddJobOpeningUI</text><rect fill="#E3E3E3" height="22.8348" rx="1.75" ry="1.75" style="stroke:#181818;stroke-width:0.3499999999999999;" width="94.5" x="211.4" y="959.4143"/><text fill="#000000" font-family="sans-serif" font-size="9.8" lengthAdjust="spacing" textLength="84.7" x="216.3" y="974.8895">: AddJobOpeningUI</text><rect fill="#E3E3E3" height="22.8348" rx="1.75" ry="1.75" style="stroke:#181818;stroke-width:0.3499999999999999;" width="129.5" x="632.8" y="38.2348"/><text fill="#000000" font-family="sans-serif" font-size="9.8" lengthAdjust="spacing" textLength="119.7" x="637.7" y="53.71">: AddJobOpeningController</text><rect fill="#E3E3E3" height="22.8348" rx="1.75" ry="1.75" style="stroke:#181818;stroke-width:0.3499999999999999;" width="129.5" x="632.8" y="959.4143"/><text fill="#000000" font-family="sans-serif" font-size="9.8" lengthAdjust="spacing" textLength="119.7" x="637.7" y="974.8895">: AddJobOpeningController</text><rect fill="#E3E3E3" height="35.8695" rx="1.75" ry="1.75" style="stroke:#181818;stroke-width:0.3499999999999999;" width="153.3" x="1058.4" y="25.2"/><text fill="#000000" font-family="sans-serif" font-size="9.8" font-style="italic" lengthAdjust="spacing" textLength="42" x="1114.05" y="40.6752">&#171;service&#187;</text><text fill="#000000" font-family="sans-serif" font-size="9.8" lengthAdjust="spacing" textLength="143.5" x="1063.3" y="53.71">JobOppeningManagmentService</text><rect fill="#E3E3E3" height="35.8695" rx="1.75" ry="1.75" style="stroke:#181818;stroke-width:0.3499999999999999;" width="153.3" x="1058.4" y="959.4143"/><text fill="#000000" font-family="sans-serif" font-size="9.8" font-style="italic" lengthAdjust="spacing" textLength="42" x="1114.05" y="974.8895">&#171;service&#187;</text><text fill="#000000" font-family="sans-serif" font-size="9.8" lengthAdjust="spacing" textLength="143.5" x="1063.3" y="987.9242">JobOppeningManagmentService</text><rect fill="#E3E3E3" height="35.8695" rx="1.75" ry="1.75" style="stroke:#181818;stroke-width:0.3499999999999999;" width="93.8" x="1615.95" y="25.2"/><text fill="#000000" font-family="sans-serif" font-size="9.8" font-style="italic" lengthAdjust="spacing" textLength="41.3" x="1642.2" y="40.6752">&#171;builder&#187;</text><text fill="#000000" font-family="sans-serif" font-size="9.8" lengthAdjust="spacing" textLength="84" x="1620.85" y="53.71">JobOpeningBuilder</text><rect fill="#E3E3E3" height="35.8695" rx="1.75" ry="1.75" style="stroke:#181818;stroke-width:0.3499999999999999;" width="93.8" x="1615.95" y="959.4143"/><text fill="#000000" font-family="sans-serif" font-size="9.8" font-style="italic" lengthAdjust="spacing" textLength="41.3" x="1642.2" y="974.8895">&#171;builder&#187;</text><text fill="#000000" font-family="sans-serif" font-size="9.8" lengthAdjust="spacing" textLength="84" x="1620.85" y="987.9242">JobOpeningBuilder</text><text fill="#000000" font-family="sans-serif" font-size="9.8" font-style="italic" lengthAdjust="spacing" textLength="43.4" x="2076.55" y="46.2752">&#171;domain&#187;</text><text fill="#000000" font-family="sans-serif" font-size="9.8" lengthAdjust="spacing" textLength="107.1" x="2044.7" y="59.31">jobOpening:JobOpening</text><ellipse cx="2100.35" cy="24.5" fill="#E3E3E3" rx="8.4" ry="8.4" style="stroke:#181818;stroke-width:0.3499999999999999;"/><line style="stroke:#181818;stroke-width:0.3499999999999999;" x1="2091.95" x2="2108.75" y1="34.3" y2="34.3"/><text fill="#000000" font-family="sans-serif" font-size="9.8" font-style="italic" lengthAdjust="spacing" textLength="43.4" x="2076.55" y="969.9895">&#171;domain&#187;</text><text fill="#000000" font-family="sans-serif" font-size="9.8" lengthAdjust="spacing" textLength="107.1" x="2044.7" y="983.0242">jobOpening:JobOpening</text><ellipse cx="2100.35" cy="996.6838" fill="#E3E3E3" rx="8.4" ry="8.4" style="stroke:#181818;stroke-width:0.3499999999999999;"/><line style="stroke:#181818;stroke-width:0.3499999999999999;" x1="2091.95" x2="2108.75" y1="1006.4838" y2="1006.4838"/><rect fill="#E3E3E3" height="35.8695" rx="1.75" ry="1.75" style="stroke:#181818;stroke-width:0.3499999999999999;" width="98" x="2163" y="25.2"/><text fill="#000000" font-family="sans-serif" font-size="9.8" font-style="italic" lengthAdjust="spacing" textLength="62.3" x="2180.85" y="40.6752">&#171;persistence&#187;</text><text fill="#000000" font-family="sans-serif" font-size="9.8" lengthAdjust="spacing" textLength="85.4" x="2170.7" y="53.71">PersistenceContext</text><rect fill="#E3E3E3" height="35.8695" rx="1.75" ry="1.75" style="stroke:#181818;stroke-width:0.3499999999999999;" width="98" x="2163" y="959.4143"/><text fill="#000000" font-family="sans-serif" font-size="9.8" font-style="italic" lengthAdjust="spacing" textLength="62.3" x="2180.85" y="974.8895">&#171;persistence&#187;</text><text fill="#000000" font-family="sans-serif" font-size="9.8" lengthAdjust="spacing" textLength="85.4" x="2170.7" y="987.9242">PersistenceContext</text><rect fill="#E3E3E3" height="35.8695" rx="1.75" ry="1.75" style="stroke:#181818;stroke-width:0.3499999999999999;" width="93.8" x="2268" y="25.2"/><text fill="#000000" font-family="sans-serif" font-size="9.8" font-style="italic" lengthAdjust="spacing" textLength="41.3" x="2294.25" y="40.6752">&#171;factory&#187;</text><text fill="#000000" font-family="sans-serif" font-size="9.8" lengthAdjust="spacing" textLength="81.2" x="2275.7" y="53.71">RepositoryFactory</text><rect fill="#E3E3E3" height="35.8695" rx="1.75" ry="1.75" style="stroke:#181818;stroke-width:0.3499999999999999;" width="93.8" x="2268" y="959.4143"/><text fill="#000000" font-family="sans-serif" font-size="9.8" font-style="italic" lengthAdjust="spacing" textLength="41.3" x="2294.25" y="974.8895">&#171;factory&#187;</text><text fill="#000000" font-family="sans-serif" font-size="9.8" lengthAdjust="spacing" textLength="81.2" x="2275.7" y="987.9242">RepositoryFactory</text><text fill="#000000" font-family="sans-serif" font-size="9.8" font-style="italic" lengthAdjust="spacing" textLength="55.3" x="2391.55" y="46.2752">&#171;repository&#187;</text><text fill="#000000" font-family="sans-serif" font-size="9.8" lengthAdjust="spacing" textLength="100.8" x="2368.8" y="59.31">JobOpeningRepository</text><path d="M2408.7,10.5 C2408.7,3.5 2421.3,3.5 2421.3,3.5 C2421.3,3.5 2433.9,3.5 2433.9,10.5 L2433.9,28.7 C2433.9,35.7 2421.3,35.7 2421.3,35.7 C2421.3,35.7 2408.7,35.7 2408.7,28.7 L2408.7,10.5 " fill="#E3E3E3" style="stroke:#181818;stroke-width:1.0499999999999998;"/><path d="M2408.7,10.5 C2408.7,17.5 2421.3,17.5 2421.3,17.5 C2421.3,17.5 2433.9,17.5 2433.9,10.5 " fill="none" style="stroke:#181818;stroke-width:1.0499999999999998;"/><text fill="#000000" font-family="sans-serif" font-size="9.8" font-style="italic" lengthAdjust="spacing" textLength="55.3" x="2391.55" y="969.9895">&#171;repository&#187;</text><text fill="#000000" font-family="sans-serif" font-size="9.8" lengthAdjust="spacing" textLength="100.8" x="2368.8" y="983.0242">JobOpeningRepository</text><path d="M2408.7,992.4838 C2408.7,985.4838 2421.3,985.4838 2421.3,985.4838 C2421.3,985.4838 2433.9,985.4838 2433.9,992.4838 L2433.9,1010.6838 C2433.9,1017.6838 2421.3,1017.6838 2421.3,1017.6838 C2421.3,1017.6838 2408.7,1017.6838 2408.7,1010.6838 L2408.7,992.4838 " fill="#E3E3E3" style="stroke:#181818;stroke-width:1.0499999999999998;"/><path d="M2408.7,992.4838 C2408.7,999.4838 2421.3,999.4838 2421.3,999.4838 C2421.3,999.4838 2433.9,999.4838 2433.9,992.4838 " fill="none" style="stroke:#181818;stroke-width:1.0499999999999998;"/><rect fill="#FFFFFF" height="878.7447" style="stroke:#181818;stroke-width:0.6999999999999998;" width="7" x="44.45" y="68.7695"/><rect fill="#FFFFFF" height="43.8074" style="stroke:#181818;stroke-width:0.6999999999999998;" width="7" x="255.15" y="85.0732"/><rect fill="#FFFFFF" height="21.9037" style="stroke:#181818;stroke-width:0.6999999999999998;" width="7" x="255.15" y="150.7844"/><rect fill="#FFFFFF" height="21.9037" style="stroke:#181818;stroke-width:0.6999999999999998;" width="7" x="255.15" y="194.5918"/><rect fill="#FFFFFF" height="21.9037" style="stroke:#181818;stroke-width:0.6999999999999998;" width="7" x="255.15" y="238.3992"/><rect fill="#FFFFFF" height="21.9037" style="stroke:#181818;stroke-width:0.6999999999999998;" width="7" x="255.15" y="282.2066"/><rect fill="#FFFFFF" height="21.9037" style="stroke:#181818;stroke-width:0.6999999999999998;" width="7" x="255.15" y="326.0141"/><rect fill="#FFFFFF" height="21.9037" style="stroke:#181818;stroke-width:0.6999999999999998;" width="7" x="255.15" y="369.8215"/><rect fill="#FFFFFF" height="533.8854" style="stroke:#181818;stroke-width:0.6999999999999998;" width="7" x="255.15" y="413.6289"/><rect fill="#FFFFFF" height="490.0779" style="stroke:#181818;stroke-width:0.6999999999999998;" width="7" x="694.05" y="435.5326"/><rect fill="#FFFFFF" height="284.7482" style="stroke:#181818;stroke-width:0.6999999999999998;" width="7" x="1131.55" y="457.4363"/><rect fill="#FFFFFF" height="153.326" style="stroke:#181818;stroke-width:0.6999999999999998;" width="7" x="1659.35" y="479.34"/><rect fill="#FFFFFF" height="21.9037" style="stroke:#181818;stroke-width:0.6999999999999998;" width="7" x="2096.85" y="588.8586"/><rect fill="#FFFFFF" height="43.8074" style="stroke:#181818;stroke-width:0.6999999999999998;" width="7" x="2208.5" y="654.5697"/><rect fill="#FFFFFF" height="43.8074" style="stroke:#181818;stroke-width:0.6999999999999998;" width="7" x="2311.4" y="764.0883"/><rect fill="#FFFFFF" height="73.9074" style="stroke:#181818;stroke-width:0.6999999999999998;" width="7" x="2417.8" y="829.7994"/><rect fill="#FFFFFF" height="19.6" style="stroke:#181818;stroke-width:0.6999999999999998;" width="7" x="2421.3" y="857.3031"/><polygon fill="#181818" points="246.75,82.2732,253.75,85.0732,246.75,87.8732,249.55,85.0732" style="stroke:#181818;stroke-width:0.6999999999999998;"/><line style="stroke:#181818;stroke-width:0.6999999999999998;" x1="51.45" x2="250.95" y1="85.0732" y2="85.0732"/><text fill="#000000" font-family="sans-serif" font-size="9.1" font-weight="bold" lengthAdjust="spacing" textLength="4.9" x="56.35" y="81.3894">1</text><text fill="#000000" font-family="sans-serif" font-size="9.1" lengthAdjust="spacing" textLength="122.5" x="64.05" y="81.3894">asks to register a job opening.</text><polygon fill="#181818" points="689.15,104.177,696.15,106.977,689.15,109.777,691.95,106.977" style="stroke:#181818;stroke-width:0.6999999999999998;"/><line style="stroke:#181818;stroke-width:0.6999999999999998;" x1="262.15" x2="693.35" y1="106.977" y2="106.977"/><text fill="#000000" font-family="sans-serif" font-size="9.1" font-weight="bold" lengthAdjust="spacing" textLength="4.9" x="267.05" y="103.2931">2</text><text fill="#000000" font-family="sans-serif" font-size="9.1" lengthAdjust="spacing" textLength="30.1" x="274.75" y="103.2931">register</text><polygon fill="#181818" points="59.15,126.0807,52.15,128.8807,59.15,131.6807,56.35,128.8807" style="stroke:#181818;stroke-width:0.6999999999999998;"/><line style="stroke:#181818;stroke-width:0.6999999999999998;" x1="54.95" x2="257.95" y1="128.8807" y2="128.8807"/><text fill="#000000" font-family="sans-serif" font-size="9.1" font-weight="bold" lengthAdjust="spacing" textLength="4.9" x="63.35" y="125.1968">3</text><text fill="#000000" font-family="sans-serif" font-size="9.1" lengthAdjust="spacing" textLength="69.3" x="71.05" y="125.1968">requests function</text><polygon fill="#181818" points="246.75,147.9844,253.75,150.7844,246.75,153.5844,249.55,150.7844" style="stroke:#181818;stroke-width:0.6999999999999998;"/><line style="stroke:#181818;stroke-width:0.6999999999999998;" x1="51.45" x2="250.95" y1="150.7844" y2="150.7844"/><text fill="#000000" font-family="sans-serif" font-size="9.1" font-weight="bold" lengthAdjust="spacing" textLength="4.9" x="56.35" y="147.1005">4</text><text fill="#000000" font-family="sans-serif" font-size="9.1" lengthAdjust="spacing" textLength="67.2" x="64.05" y="147.1005">provides function</text><polygon fill="#181818" points="59.15,169.8881,52.15,172.6881,59.15,175.4881,56.35,172.6881" style="stroke:#181818;stroke-width:0.6999999999999998;"/><line style="stroke:#181818;stroke-width:0.6999999999999998;" x1="54.95" x2="257.95" y1="172.6881" y2="172.6881"/><text fill="#000000" font-family="sans-serif" font-size="9.1" font-weight="bold" lengthAdjust="spacing" textLength="4.9" x="63.35" y="169.0042">5</text><text fill="#000000" font-family="sans-serif" font-size="9.1" lengthAdjust="spacing" textLength="71.4" x="71.05" y="169.0042">requests Address</text><polygon fill="#181818" points="246.75,191.7918,253.75,194.5918,246.75,197.3918,249.55,194.5918" style="stroke:#181818;stroke-width:0.6999999999999998;"/><line style="stroke:#181818;stroke-width:0.6999999999999998;" x1="51.45" x2="250.95" y1="194.5918" y2="194.5918"/><text fill="#000000" font-family="sans-serif" font-size="9.1" font-weight="bold" lengthAdjust="spacing" textLength="4.9" x="56.35" y="190.9079">6</text><text fill="#000000" font-family="sans-serif" font-size="9.1" lengthAdjust="spacing" textLength="69.3" x="64.05" y="190.9079">provides Address</text><polygon fill="#181818" points="59.15,213.6955,52.15,216.4955,59.15,219.2955,56.35,216.4955" style="stroke:#181818;stroke-width:0.6999999999999998;"/><line style="stroke:#181818;stroke-width:0.6999999999999998;" x1="54.95" x2="257.95" y1="216.4955" y2="216.4955"/><text fill="#000000" font-family="sans-serif" font-size="9.1" font-weight="bold" lengthAdjust="spacing" textLength="4.9" x="63.35" y="212.8116">7</text><text fill="#000000" font-family="sans-serif" font-size="9.1" lengthAdjust="spacing" textLength="69.3" x="71.05" y="212.8116">display customer</text><polygon fill="#181818" points="246.75,235.5992,253.75,238.3992,246.75,241.1992,249.55,238.3992" style="stroke:#181818;stroke-width:0.6999999999999998;"/><line style="stroke:#181818;stroke-width:0.6999999999999998;" x1="51.45" x2="250.95" y1="238.3992" y2="238.3992"/><text fill="#000000" font-family="sans-serif" font-size="9.1" font-weight="bold" lengthAdjust="spacing" textLength="4.9" x="56.35" y="234.7153">8</text><text fill="#000000" font-family="sans-serif" font-size="9.1" lengthAdjust="spacing" textLength="65.1" x="64.05" y="234.7153">select customer</text><polygon fill="#181818" points="59.15,257.5029,52.15,260.3029,59.15,263.1029,56.35,260.3029" style="stroke:#181818;stroke-width:0.6999999999999998;"/><line style="stroke:#181818;stroke-width:0.6999999999999998;" x1="54.95" x2="257.95" y1="260.3029" y2="260.3029"/><text fill="#000000" font-family="sans-serif" font-size="9.1" font-weight="bold" lengthAdjust="spacing" textLength="4.9" x="63.35" y="256.619">9</text><text fill="#000000" font-family="sans-serif" font-size="9.1" lengthAdjust="spacing" textLength="121.8" x="71.05" y="256.619">requests Number of vacancies</text><polygon fill="#181818" points="246.75,279.4066,253.75,282.2066,246.75,285.0066,249.55,282.2066" style="stroke:#181818;stroke-width:0.6999999999999998;"/><line style="stroke:#181818;stroke-width:0.6999999999999998;" x1="51.45" x2="250.95" y1="282.2066" y2="282.2066"/><text fill="#000000" font-family="sans-serif" font-size="9.1" font-weight="bold" lengthAdjust="spacing" textLength="9.8" x="56.35" y="278.5228">10</text><text fill="#000000" font-family="sans-serif" font-size="9.1" lengthAdjust="spacing" textLength="119.7" x="68.95" y="278.5228">provides Number of vacancies</text><polygon fill="#181818" points="59.15,301.3104,52.15,304.1104,59.15,306.9104,56.35,304.1104" style="stroke:#181818;stroke-width:0.6999999999999998;"/><line style="stroke:#181818;stroke-width:0.6999999999999998;" x1="54.95" x2="257.95" y1="304.1104" y2="304.1104"/><text fill="#000000" font-family="sans-serif" font-size="9.1" font-weight="bold" lengthAdjust="spacing" textLength="9.8" x="63.35" y="300.4265">11</text><text fill="#000000" font-family="sans-serif" font-size="9.1" lengthAdjust="spacing" textLength="83.3" x="75.95" y="300.4265">requests Description</text><polygon fill="#181818" points="246.75,323.2141,253.75,326.0141,246.75,328.8141,249.55,326.0141" style="stroke:#181818;stroke-width:0.6999999999999998;"/><line style="stroke:#181818;stroke-width:0.6999999999999998;" x1="51.45" x2="250.95" y1="326.0141" y2="326.0141"/><text fill="#000000" font-family="sans-serif" font-size="9.1" font-weight="bold" lengthAdjust="spacing" textLength="9.8" x="56.35" y="322.3302">12</text><text fill="#000000" font-family="sans-serif" font-size="9.1" lengthAdjust="spacing" textLength="81.2" x="68.95" y="322.3302">provides Description</text><polygon fill="#181818" points="59.15,345.1178,52.15,347.9178,59.15,350.7178,56.35,347.9178" style="stroke:#181818;stroke-width:0.6999999999999998;"/><line style="stroke:#181818;stroke-width:0.6999999999999998;" x1="54.95" x2="257.95" y1="347.9178" y2="347.9178"/><text fill="#000000" font-family="sans-serif" font-size="9.1" font-weight="bold" lengthAdjust="spacing" textLength="9.8" x="63.35" y="344.2339">13</text><text fill="#000000" font-family="sans-serif" font-size="9.1" lengthAdjust="spacing" textLength="174.3" x="75.95" y="344.2339">display Contract Types (full-time, part-time)</text><polygon fill="#181818" points="246.75,367.0215,253.75,369.8215,246.75,372.6215,249.55,369.8215" style="stroke:#181818;stroke-width:0.6999999999999998;"/><line style="stroke:#181818;stroke-width:0.6999999999999998;" x1="51.45" x2="250.95" y1="369.8215" y2="369.8215"/><text fill="#000000" font-family="sans-serif" font-size="9.1" font-weight="bold" lengthAdjust="spacing" textLength="9.8" x="56.35" y="366.1376">14</text><text fill="#000000" font-family="sans-serif" font-size="9.1" lengthAdjust="spacing" textLength="84" x="68.95" y="366.1376">select Contract Type</text><polygon fill="#181818" points="59.15,388.9252,52.15,391.7252,59.15,394.5252,56.35,391.7252" style="stroke:#181818;stroke-width:0.6999999999999998;"/><line style="stroke:#181818;stroke-width:0.6999999999999998;" x1="54.95" x2="257.95" y1="391.7252" y2="391.7252"/><text fill="#000000" font-family="sans-serif" font-size="9.1" font-weight="bold" lengthAdjust="spacing" textLength="9.8" x="63.35" y="388.0413">15</text><text fill="#000000" font-family="sans-serif" font-size="9.1" lengthAdjust="spacing" textLength="155.4" x="75.95" y="388.0413">display Modes (remote, hybrid, onsite)</text><polygon fill="#181818" points="246.75,410.8289,253.75,413.6289,246.75,416.4289,249.55,413.6289" style="stroke:#181818;stroke-width:0.6999999999999998;"/><line style="stroke:#181818;stroke-width:0.6999999999999998;" x1="51.45" x2="250.95" y1="413.6289" y2="413.6289"/><text fill="#000000" font-family="sans-serif" font-size="9.1" font-weight="bold" lengthAdjust="spacing" textLength="9.8" x="56.35" y="409.945">16</text><text fill="#000000" font-family="sans-serif" font-size="9.1" lengthAdjust="spacing" textLength="49.7" x="68.95" y="409.945">select Mode</text><polygon fill="#181818" points="685.65,432.7326,692.65,435.5326,685.65,438.3326,688.45,435.5326" style="stroke:#181818;stroke-width:0.6999999999999998;"/><line style="stroke:#181818;stroke-width:0.6999999999999998;" x1="262.15" x2="689.85" y1="435.5326" y2="435.5326"/><text fill="#000000" font-family="sans-serif" font-size="9.1" font-weight="bold" lengthAdjust="spacing" textLength="9.8" x="267.05" y="431.8487">17</text><text fill="#000000" font-family="sans-serif" font-size="9.1" lengthAdjust="spacing" textLength="406" x="279.65" y="431.8487">addJobOpening (function, address, company, numberOfVacancies, description, contractType, mode)</text><polygon fill="#181818" points="1123.15,454.6363,1130.15,457.4363,1123.15,460.2363,1125.95,457.4363" style="stroke:#181818;stroke-width:0.6999999999999998;"/><line style="stroke:#181818;stroke-width:0.6999999999999998;" x1="701.05" x2="1127.35" y1="457.4363" y2="457.4363"/><text fill="#000000" font-family="sans-serif" font-size="9.1" font-weight="bold" lengthAdjust="spacing" textLength="9.8" x="705.95" y="453.7524">18</text><text fill="#000000" font-family="sans-serif" font-size="9.1" lengthAdjust="spacing" textLength="404.6" x="718.55" y="453.7524">AddJobOpening(function, address, company, numberOfVacancies, description, contractType, mode)</text><polygon fill="#181818" points="1650.95,476.54,1657.95,479.34,1650.95,482.14,1653.75,479.34" style="stroke:#181818;stroke-width:0.6999999999999998;"/><line style="stroke:#181818;stroke-width:0.6999999999999998;" x1="1138.55" x2="1655.15" y1="479.34" y2="479.34"/><text fill="#000000" font-family="sans-serif" font-size="9.1" font-weight="bold" lengthAdjust="spacing" textLength="9.8" x="1143.45" y="475.6562">19</text><text fill="#000000" font-family="sans-serif" font-size="9.1" lengthAdjust="spacing" textLength="102.9" x="1156.05" y="475.6562">new SystemUserBuilder()</text><polygon fill="#181818" points="1146.25,498.4437,1139.25,501.2437,1146.25,504.0437,1143.45,501.2437" style="stroke:#181818;stroke-width:0.6999999999999998;"/><line style="stroke:#181818;stroke-width:0.6999999999999998;stroke-dasharray:2.0,2.0;" x1="1142.05" x2="1658.65" y1="501.2437" y2="501.2437"/><text fill="#000000" font-family="sans-serif" font-size="9.1" font-weight="bold" lengthAdjust="spacing" textLength="9.8" x="1150.45" y="497.5599">20</text><text fill="#000000" font-family="sans-serif" font-size="9.1" lengthAdjust="spacing" textLength="73.5" x="1163.05" y="497.5599">jobOpeningBuilder</text><polygon fill="#181818" points="1650.95,520.3475,1657.95,523.1475,1650.95,525.9475,1653.75,523.1475" style="stroke:#181818;stroke-width:0.6999999999999998;"/><line style="stroke:#181818;stroke-width:0.6999999999999998;" x1="1138.55" x2="1655.15" y1="523.1475" y2="523.1475"/><text fill="#000000" font-family="sans-serif" font-size="9.1" font-weight="bold" lengthAdjust="spacing" textLength="9.8" x="1143.45" y="519.4636">21</text><text fill="#000000" font-family="sans-serif" font-size="9.1" lengthAdjust="spacing" textLength="433.3" x="1156.05" y="519.4636">jobOpeningBuilder.with(function, address, company, numberOfVacancies, description, contractType, mode)</text><polygon fill="#181818" points="1650.95,542.2512,1657.95,545.0512,1650.95,547.8512,1653.75,545.0512" style="stroke:#181818;stroke-width:0.6999999999999998;"/><line style="stroke:#181818;stroke-width:0.6999999999999998;" x1="1138.55" x2="1655.15" y1="545.0512" y2="545.0512"/><text fill="#000000" font-family="sans-serif" font-size="9.1" font-weight="bold" lengthAdjust="spacing" textLength="9.8" x="1143.45" y="541.3673">22</text><text fill="#000000" font-family="sans-serif" font-size="9.1" lengthAdjust="spacing" textLength="491.4" x="1156.05" y="541.3673">jobOpeningBuilder.with(function, address, company, numberOfVacancies, description, jobReference, contractType, mode)</text><polygon fill="#181818" points="1650.95,564.1549,1657.95,566.9549,1650.95,569.7549,1653.75,566.9549" style="stroke:#181818;stroke-width:0.6999999999999998;"/><line style="stroke:#181818;stroke-width:0.6999999999999998;" x1="1138.55" x2="1655.15" y1="566.9549" y2="566.9549"/><text fill="#000000" font-family="sans-serif" font-size="9.1" font-weight="bold" lengthAdjust="spacing" textLength="9.8" x="1143.45" y="563.271">23</text><text fill="#000000" font-family="sans-serif" font-size="9.1" lengthAdjust="spacing" textLength="100.8" x="1156.05" y="563.271">jobOpeningBuilder.build()</text><polygon fill="#181818" points="2088.45,586.0586,2095.45,588.8586,2088.45,591.6586,2091.25,588.8586" style="stroke:#181818;stroke-width:0.6999999999999998;"/><line style="stroke:#181818;stroke-width:0.6999999999999998;" x1="1666.35" x2="2092.65" y1="588.8586" y2="588.8586"/><text fill="#000000" font-family="sans-serif" font-size="9.1" font-weight="bold" lengthAdjust="spacing" textLength="9.8" x="1671.25" y="585.1747">24</text><text fill="#000000" font-family="sans-serif" font-size="9.1" lengthAdjust="spacing" textLength="404.6" x="1683.85" y="585.1747">newJobOpening(function, address, company, numberOfVacancies, description, contractType, mode)</text><polygon fill="#181818" points="1674.05,607.9623,1667.05,610.7623,1674.05,613.5623,1671.25,610.7623" style="stroke:#181818;stroke-width:0.6999999999999998;"/><line style="stroke:#181818;stroke-width:0.6999999999999998;stroke-dasharray:2.0,2.0;" x1="1669.85" x2="2099.65" y1="610.7623" y2="610.7623"/><text fill="#000000" font-family="sans-serif" font-size="9.1" font-weight="bold" lengthAdjust="spacing" textLength="9.8" x="1678.25" y="607.0784">25</text><text fill="#000000" font-family="sans-serif" font-size="9.1" lengthAdjust="spacing" textLength="17.5" x="1690.85" y="607.0784">user</text><polygon fill="#181818" points="1146.25,629.866,1139.25,632.666,1146.25,635.466,1143.45,632.666" style="stroke:#181818;stroke-width:0.6999999999999998;"/><line style="stroke:#181818;stroke-width:0.6999999999999998;stroke-dasharray:2.0,2.0;" x1="1142.05" x2="1662.15" y1="632.666" y2="632.666"/><text fill="#000000" font-family="sans-serif" font-size="9.1" font-weight="bold" lengthAdjust="spacing" textLength="9.8" x="1150.45" y="628.9821">26</text><text fill="#000000" font-family="sans-serif" font-size="9.1" lengthAdjust="spacing" textLength="35" x="1163.05" y="628.9821">newUser</text><polygon fill="#181818" points="2200.1,651.7697,2207.1,654.5697,2200.1,657.3697,2202.9,654.5697" style="stroke:#181818;stroke-width:0.6999999999999998;"/><line style="stroke:#181818;stroke-width:0.6999999999999998;" x1="1138.55" x2="2204.3" y1="654.5697" y2="654.5697"/><text fill="#000000" font-family="sans-serif" font-size="9.1" font-weight="bold" lengthAdjust="spacing" textLength="9.8" x="1143.45" y="650.8858">27</text><text fill="#000000" font-family="sans-serif" font-size="9.1" lengthAdjust="spacing" textLength="52.5" x="1156.05" y="650.8858">repositories()</text><polygon fill="#181818" points="2306.5,673.6734,2313.5,676.4734,2306.5,679.2734,2309.3,676.4734" style="stroke:#181818;stroke-width:0.6999999999999998;"/><line style="stroke:#181818;stroke-width:0.6999999999999998;" x1="2215.5" x2="2310.7" y1="676.4734" y2="676.4734"/><text fill="#000000" font-family="sans-serif" font-size="9.1" font-weight="bold" lengthAdjust="spacing" textLength="9.8" x="2220.4" y="672.7896">28</text><text fill="#000000" font-family="sans-serif" font-size="9.1" lengthAdjust="spacing" textLength="25.2" x="2233" y="672.7896">create</text><polygon fill="#181818" points="1146.25,695.5771,1139.25,698.3771,1146.25,701.1771,1143.45,698.3771" style="stroke:#181818;stroke-width:0.6999999999999998;"/><line style="stroke:#181818;stroke-width:0.6999999999999998;stroke-dasharray:2.0,2.0;" x1="1142.05" x2="2211.3" y1="698.3771" y2="698.3771"/><text fill="#000000" font-family="sans-serif" font-size="9.1" font-weight="bold" lengthAdjust="spacing" textLength="9.8" x="1150.45" y="694.6933">29</text><text fill="#000000" font-family="sans-serif" font-size="9.1" lengthAdjust="spacing" textLength="27.3" x="1163.05" y="694.6933">factory</text><polygon fill="#181818" points="2412.9,717.4809,2419.9,720.2809,2412.9,723.0809,2415.7,720.2809" style="stroke:#181818;stroke-width:0.6999999999999998;"/><line style="stroke:#181818;stroke-width:0.6999999999999998;" x1="1138.55" x2="2417.1" y1="720.2809" y2="720.2809"/><text fill="#000000" font-family="sans-serif" font-size="9.1" font-weight="bold" lengthAdjust="spacing" textLength="9.8" x="1143.45" y="716.597">30</text><text fill="#000000" font-family="sans-serif" font-size="9.1" lengthAdjust="spacing" textLength="109.9" x="1156.05" y="716.597">obtains max Job Reference</text><polygon fill="#181818" points="708.75,739.3846,701.75,742.1846,708.75,744.9846,705.95,742.1846" style="stroke:#181818;stroke-width:0.6999999999999998;"/><line style="stroke:#181818;stroke-width:0.6999999999999998;stroke-dasharray:2.0,2.0;" x1="704.55" x2="1134.35" y1="742.1846" y2="742.1846"/><text fill="#000000" font-family="sans-serif" font-size="9.1" font-weight="bold" lengthAdjust="spacing" textLength="9.8" x="712.95" y="738.5007">31</text><text fill="#000000" font-family="sans-serif" font-size="9.1" lengthAdjust="spacing" textLength="46.9" x="725.55" y="738.5007">repositories</text><polygon fill="#181818" points="2303,761.2883,2310,764.0883,2303,766.8883,2305.8,764.0883" style="stroke:#181818;stroke-width:0.6999999999999998;"/><line style="stroke:#181818;stroke-width:0.6999999999999998;" x1="701.05" x2="2307.2" y1="764.0883" y2="764.0883"/><text fill="#000000" font-family="sans-serif" font-size="9.1" font-weight="bold" lengthAdjust="spacing" textLength="9.8" x="705.95" y="760.4044">32</text><text fill="#000000" font-family="sans-serif" font-size="9.1" lengthAdjust="spacing" textLength="51.1" x="718.55" y="760.4044">jobOpening()</text><polygon fill="#181818" points="2412.9,783.192,2419.9,785.992,2412.9,788.792,2415.7,785.992" style="stroke:#181818;stroke-width:0.6999999999999998;"/><line style="stroke:#181818;stroke-width:0.6999999999999998;" x1="2318.4" x2="2417.1" y1="785.992" y2="785.992"/><text fill="#000000" font-family="sans-serif" font-size="9.1" font-weight="bold" lengthAdjust="spacing" textLength="9.8" x="2323.3" y="782.3081">33</text><text fill="#000000" font-family="sans-serif" font-size="9.1" lengthAdjust="spacing" textLength="25.2" x="2335.9" y="782.3081">create</text><polygon fill="#181818" points="708.75,805.0957,701.75,807.8957,708.75,810.6957,705.95,807.8957" style="stroke:#181818;stroke-width:0.6999999999999998;"/><line style="stroke:#181818;stroke-width:0.6999999999999998;stroke-dasharray:2.0,2.0;" x1="704.55" x2="2314.2" y1="807.8957" y2="807.8957"/><text fill="#000000" font-family="sans-serif" font-size="9.1" font-weight="bold" lengthAdjust="spacing" textLength="9.8" x="712.95" y="804.2118">34</text><text fill="#000000" font-family="sans-serif" font-size="9.1" lengthAdjust="spacing" textLength="88.9" x="725.55" y="804.2118">jobOpeningRepository</text><polygon fill="#181818" points="2409.4,826.9994,2416.4,829.7994,2409.4,832.5994,2412.2,829.7994" style="stroke:#181818;stroke-width:0.6999999999999998;"/><line style="stroke:#181818;stroke-width:0.6999999999999998;" x1="701.05" x2="2413.6" y1="829.7994" y2="829.7994"/><text fill="#000000" font-family="sans-serif" font-size="9.1" font-weight="bold" lengthAdjust="spacing" textLength="9.8" x="705.95" y="826.1155">35</text><text fill="#000000" font-family="sans-serif" font-size="9.1" lengthAdjust="spacing" textLength="69.3" x="718.55" y="826.1155">save(jobOpening)</text><line style="stroke:#181818;stroke-width:0.6999999999999998;" x1="2428.3" x2="2457.7" y1="851.7031" y2="851.7031"/><line style="stroke:#181818;stroke-width:0.6999999999999998;" x1="2457.7" x2="2457.7" y1="851.7031" y2="860.8031"/><line style="stroke:#181818;stroke-width:0.6999999999999998;" x1="2429" x2="2457.7" y1="860.8031" y2="860.8031"/><polygon fill="#181818" points="2436,858.0031,2429,860.8031,2436,863.6031,2433.2,860.8031" style="stroke:#181818;stroke-width:0.6999999999999998;"/><text fill="#000000" font-family="sans-serif" font-size="9.1" font-weight="bold" lengthAdjust="spacing" textLength="9.8" x="2433.2" y="848.0192">36</text><text fill="#000000" font-family="sans-serif" font-size="9.1" lengthAdjust="spacing" textLength="73.5" x="2445.8" y="848.0192">insert(jobOpening)</text><polygon fill="#181818" points="708.75,900.9068,701.75,903.7068,708.75,906.5068,705.95,903.7068" style="stroke:#181818;stroke-width:0.6999999999999998;"/><line style="stroke:#181818;stroke-width:0.6999999999999998;stroke-dasharray:2.0,2.0;" x1="704.55" x2="2420.6" y1="903.7068" y2="903.7068"/><text fill="#000000" font-family="sans-serif" font-size="9.1" font-weight="bold" lengthAdjust="spacing" textLength="9.8" x="712.95" y="900.0229">37</text><text fill="#000000" font-family="sans-serif" font-size="9.1" lengthAdjust="spacing" textLength="45.5" x="725.55" y="900.0229">jobOpening</text><polygon fill="#181818" points="269.85,922.8105,262.85,925.6105,269.85,928.4105,267.05,925.6105" style="stroke:#181818;stroke-width:0.6999999999999998;"/><line style="stroke:#181818;stroke-width:0.6999999999999998;" x1="265.65" x2="696.85" y1="925.6105" y2="925.6105"/><text fill="#000000" font-family="sans-serif" font-size="9.1" font-weight="bold" lengthAdjust="spacing" textLength="9.8" x="274.05" y="921.9267">38</text><text fill="#000000" font-family="sans-serif" font-size="9.1" lengthAdjust="spacing" textLength="45.5" x="286.65" y="921.9267">jobOpening</text><polygon fill="#181818" points="55.65,944.7143,48.65,947.5143,55.65,950.3143,52.85,947.5143" style="stroke:#181818;stroke-width:0.6999999999999998;"/><line style="stroke:#181818;stroke-width:0.6999999999999998;stroke-dasharray:2.0,2.0;" x1="51.45" x2="257.95" y1="947.5143" y2="947.5143"/><text fill="#000000" font-family="sans-serif" font-size="9.1" font-weight="bold" lengthAdjust="spacing" textLength="9.8" x="59.85" y="943.8304">39</text><text fill="#000000" font-family="sans-serif" font-size="9.1" lengthAdjust="spacing" textLength="123.9" x="72.45" y="943.8304">inform (in)success of operation</text><!--SRC=[lLRRRjim37tNLn1vMGea_O0W2B2rAD01MOTssRjYqurQM_8aEQt_VfIljECk1TOjJxBDStXu4Hdth7GkhSmWCzf41sio16yB5AxxaileMJxYWozJ18kHb_envGRk86FpelGZ939rA8GilD55jaShnAU3YX4IO_pUl0ePUMDXTcMSBpAqi9MQgEqCf8EhhI0-hoALI-rXjeBFSVpLxEzor4I-kwsiThT2_D7kocXlJPgshDtZ05NPru1AGuRQFw0zgWW3gZskrwu-RJQdy0hzfL1fJ94Gg3skr_lwH20XY5Zv4cPF7MJLeok9roQJIXCihWuZLpFuZjOfvr576AB1Lr_1s6l2vltJ2S4zviOfodnvKnMWhF3DcR19VI9SBBtSIuSim1uSGEnflRRTGnLfgAuwIe-Xb5TRM6weMh0YsBC3RwXt7eD2oXLGCi3K_9SCHyK5-X6Ai7tbLXrKD9-s4DxzAj1v1qcXYS1e4IDd8WcjWjoQ8xKXCnqwdMAbfhBet3j8MyitEMFbybIM41NEqmMpRtCwJEc2zORdPNwhxXcO18uoaZfI-1x9KwZplgxHHLRbxymrjpwRcghOP0C_ofomywH8qwLN6IuWz79rl3YRjm7BUQTR4tJEBMR6awD3kRSgNe3HrDJly1RW8oTYtBgX_Vbq2f7LBRW87qBVB20o6TtKSW7rqBnBVhP5MK3SPp4Orl65y1OqicDIoMvTF-gO09BJJBFHeFnm9PsGnfyGxHWb3SrmN8765tWewJ9dEvgjpUivnI6W8sZUqZ1eP-go3uDI-ZGUlmI6AMSdXfSloXy-FFB_vPiexp516wRyNocf5bH8Uf_WJRk7gXBzmpRformx5AtZ9TTSk51_TWLRuucEg1Jlne2kYLXAsCuCSwrPNwHxpjgN6L62-9ebXcPhhY2oICPZ0owgMQi3KKDkfgnVh2imUq-XEiZaQrZ4qDMStQYJ1Td7Cd3OtKKOpeGkZhuvvhmsDwtuzc_2I6CJVlTrfETfuly37wWjlM2ZQhbX3fmyuhndOULXXEmy05FoqFe17ARmJ11dvRJBpNHOP3MDvl7iRWSG1c2pMj3Y26wsAr0wCJQ3kT8NheWYkcjXHTCV9IidbYwdsmhn6m00]--></g></svg>