<?xml version="1.0" encoding="us-ascii" standalone="no"?><svg xmlns="http://www.w3.org/2000/svg" xmlns:xlink="http://www.w3.org/1999/xlink" contentStyleType="text/css" height="658px" preserveAspectRatio="none" style="width:1194px;height:658px;background:#FFFFFF;" version="1.1" viewBox="0 0 1194 658" width="1194px" zoomAndPan="magnify"><defs/><g><text fill="#000000" font-family="sans-serif" font-size="14" font-weight="bold" lengthAdjust="spacing" textLength="194" x="493" y="25.1074">Domain Model (DM) - UC015</text><!--cluster SystemUserAggregate--><g id="cluster_SystemUserAggregate"><rect fill="none" height="459" rx="2.5" ry="2.5" style="stroke:#000000;stroke-width:1.5;" width="332" x="179" y="53.1211"/><text fill="#000000" font-family="sans-serif" font-size="14" font-weight="bold" lengthAdjust="spacing" textLength="156" x="267" y="70.2285">SystemUserAggregate</text></g><!--cluster CandidateAggregate--><g id="cluster_CandidateAggregate"><rect fill="none" height="107" rx="2.5" ry="2.5" style="stroke:#000000;stroke-width:1.5;" width="160" x="345" y="536.1211"/><text fill="#000000" font-family="sans-serif" font-size="14" font-weight="bold" lengthAdjust="spacing" textLength="144" x="353" y="553.2285">CandidateAggregate</text></g><!--cluster JobOpeningAggregate--><g id="cluster_JobOpeningAggregate"><rect fill="none" height="195" rx="2.5" ry="2.5" style="stroke:#000000;stroke-width:1.5;" width="297" x="891" y="452.1211"/><text fill="#000000" font-family="sans-serif" font-size="14" font-weight="bold" lengthAdjust="spacing" textLength="159" x="960" y="469.2285">JobOpeningAggregate</text></g><!--cluster JobApplicationAggregate--><g id="cluster_JobApplicationAggregate"><rect fill="none" height="125" rx="2.5" ry="2.5" style="stroke:#000000;stroke-width:1.5;" width="193" x="597" y="527.1211"/><text fill="#000000" font-family="sans-serif" font-size="14" font-weight="bold" lengthAdjust="spacing" textLength="177" x="605" y="544.2285">JobApplicationAggregate</text></g><!--class EmailAddress--><g id="elem_EmailAddress"><rect codeLine="17" fill="#F1F1F1" height="52.582" id="EmailAddress" rx="2.5" ry="2.5" style="stroke:#181818;stroke-width:0.5;" width="92" x="378.5" y="178.6211"/><text fill="#000000" font-family="sans-serif" font-size="12" font-style="italic" lengthAdjust="spacing" textLength="44" x="402.5" y="196.5703">&#171;value&#187;</text><text fill="#000000" font-family="sans-serif" font-size="14" lengthAdjust="spacing" textLength="86" x="381.5" y="214.6895">EmailAddress</text><line style="stroke:#181818;stroke-width:0.5;" x1="379.5" x2="469.5" y1="223.2031" y2="223.2031"/></g><!--class SystemUser--><g id="elem_SystemUser"><rect codeLine="19" fill="#F1F1F1" height="52.582" id="SystemUser" rx="2.5" ry="2.5" style="stroke:#181818;stroke-width:0.5;" width="81" x="195" y="266.6211"/><text fill="#000000" font-family="sans-serif" font-size="12" font-style="italic" lengthAdjust="spacing" textLength="35" x="218" y="284.5703">&#171;root&#187;</text><text fill="#000000" font-family="sans-serif" font-size="14" lengthAdjust="spacing" textLength="75" x="198" y="302.6895">SystemUser</text><line style="stroke:#181818;stroke-width:0.5;" x1="196" x2="275" y1="311.2031" y2="311.2031"/></g><!--class Password--><g id="elem_Password"><rect codeLine="21" fill="#F1F1F1" height="52.582" id="Password" rx="2.5" ry="2.5" style="stroke:#181818;stroke-width:0.5;" width="67" x="391" y="90.6211"/><text fill="#000000" font-family="sans-serif" font-size="12" font-style="italic" lengthAdjust="spacing" textLength="44" x="402.5" y="108.5703">&#171;value&#187;</text><text fill="#000000" font-family="sans-serif" font-size="14" lengthAdjust="spacing" textLength="61" x="394" y="126.6895">Password</text><line style="stroke:#181818;stroke-width:0.5;" x1="392" x2="457" y1="135.2031" y2="135.2031"/></g><!--class Name--><g id="elem_Name"><rect codeLine="23" fill="#F1F1F1" height="52.582" id="Name" rx="2.5" ry="2.5" style="stroke:#181818;stroke-width:0.5;" width="46" x="401.5" y="266.6211"/><text fill="#000000" font-family="sans-serif" font-size="12" font-style="italic" lengthAdjust="spacing" textLength="44" x="402.5" y="284.5703">&#171;value&#187;</text><text fill="#000000" font-family="sans-serif" font-size="14" lengthAdjust="spacing" textLength="36" x="406.5" y="302.6895">Name</text><line style="stroke:#181818;stroke-width:0.5;" x1="402.5" x2="446.5" y1="311.2031" y2="311.2031"/></g><!--class RoleSet--><g id="elem_RoleSet"><rect codeLine="25" fill="#F1F1F1" height="52.582" id="RoleSet" rx="2.5" ry="2.5" style="stroke:#181818;stroke-width:0.5;" width="56" x="207.5" y="354.6211"/><text fill="#000000" font-family="sans-serif" font-size="12" font-style="italic" lengthAdjust="spacing" textLength="44" x="213.5" y="372.5703">&#171;value&#187;</text><text fill="#000000" font-family="sans-serif" font-size="14" lengthAdjust="spacing" textLength="50" x="210.5" y="390.6895">RoleSet</text><line style="stroke:#181818;stroke-width:0.5;" x1="208.5" x2="262.5" y1="399.2031" y2="399.2031"/></g><!--class RoleAssignment--><g id="elem_RoleAssignment"><rect codeLine="27" fill="#F1F1F1" height="52.582" id="RoleAssignment" rx="2.5" ry="2.5" style="stroke:#181818;stroke-width:0.5;" width="108" x="370.5" y="442.6211"/><text fill="#000000" font-family="sans-serif" font-size="12" font-style="italic" lengthAdjust="spacing" textLength="43" x="403" y="460.5703">&#171;entity&#187;</text><text fill="#000000" font-family="sans-serif" font-size="14" lengthAdjust="spacing" textLength="102" x="373.5" y="478.6895">RoleAssignment</text><line style="stroke:#181818;stroke-width:0.5;" x1="371.5" x2="477.5" y1="487.2031" y2="487.2031"/></g><!--class Role--><g id="elem_Role"><rect codeLine="29" fill="#F1F1F1" height="52.582" id="Role" rx="2.5" ry="2.5" style="stroke:#181818;stroke-width:0.5;" width="46" x="212.5" y="442.6211"/><text fill="#000000" font-family="sans-serif" font-size="12" font-style="italic" lengthAdjust="spacing" textLength="44" x="213.5" y="460.5703">&#171;value&#187;</text><text fill="#000000" font-family="sans-serif" font-size="14" lengthAdjust="spacing" textLength="29" x="221" y="478.6895">Role</text><line style="stroke:#181818;stroke-width:0.5;" x1="213.5" x2="257.5" y1="487.2031" y2="487.2031"/></g><!--class Set--><g id="elem_Set"><rect codeLine="31" fill="#F1F1F1" height="52.582" id="Set" rx="2.5" ry="2.5" style="stroke:#181818;stroke-width:0.5;" width="141" x="354" y="354.6211"/><text fill="#000000" font-family="sans-serif" font-size="12" font-style="italic" lengthAdjust="spacing" textLength="44" x="355" y="372.5703">&#171;value&#187;</text><text fill="#000000" font-family="sans-serif" font-size="14" lengthAdjust="spacing" textLength="21" x="366.5" y="390.6895">Set</text><rect fill="#FFFFFF" height="17.9609" style="stroke:#181818;stroke-width:1.0;stroke-dasharray:2.0,2.0;" width="93" x="405" y="351.6211"/><text fill="#000000" font-family="sans-serif" font-size="12" font-style="italic" lengthAdjust="spacing" textLength="91" x="406" y="365.5703">RoleAssignment</text><line style="stroke:#181818;stroke-width:0.5;" x1="355" x2="494" y1="399.2031" y2="399.2031"/></g><!--class Candidate--><g id="elem_Candidate"><rect codeLine="37" fill="#F1F1F1" height="52.582" id="Candidate" rx="2.5" ry="2.5" style="stroke:#181818;stroke-width:0.5;" width="71" x="389" y="573.6211"/><text fill="#000000" font-family="sans-serif" font-size="12" font-style="italic" lengthAdjust="spacing" textLength="35" x="407" y="591.5703">&#171;root&#187;</text><text fill="#000000" font-family="sans-serif" font-size="14" lengthAdjust="spacing" textLength="65" x="392" y="609.6895">Candidate</text><line style="stroke:#181818;stroke-width:0.5;" x1="390" x2="459" y1="618.2031" y2="618.2031"/></g><!--class JobOpening--><g id="elem_JobOpening"><rect codeLine="42" fill="#F1F1F1" height="52.582" id="JobOpening" rx="2.5" ry="2.5" style="stroke:#181818;stroke-width:0.5;" width="82" x="907" y="573.6211"/><text fill="#000000" font-family="sans-serif" font-size="12" font-style="italic" lengthAdjust="spacing" textLength="73" x="911.5" y="591.5703">&#171;Root Entity&#187;</text><text fill="#000000" font-family="sans-serif" font-size="14" lengthAdjust="spacing" textLength="76" x="910" y="609.6895">JobOpening</text><line style="stroke:#181818;stroke-width:0.5;" x1="908" x2="988" y1="618.2031" y2="618.2031"/></g><!--class JobReference--><g id="elem_JobReference"><rect codeLine="43" fill="#F1F1F1" height="52.582" id="JobReference" rx="2.5" ry="2.5" style="stroke:#181818;stroke-width:0.5;" width="94" x="1064" y="577.6211"/><text fill="#000000" font-family="sans-serif" font-size="12" font-style="italic" lengthAdjust="spacing" textLength="85" x="1068.5" y="595.5703">&#171;Value Object&#187;</text><text fill="#000000" font-family="sans-serif" font-size="14" lengthAdjust="spacing" textLength="88" x="1067" y="613.6895">JobReference</text><line style="stroke:#181818;stroke-width:0.5;" x1="1065" x2="1157" y1="622.2031" y2="622.2031"/></g><!--class JobOpeningStatus--><g id="elem_JobOpeningStatus"><rect codeLine="44" fill="#F1F1F1" height="52.582" id="JobOpeningStatus" rx="2.5" ry="2.5" style="stroke:#181818;stroke-width:0.5;" width="122" x="1050" y="489.6211"/><text fill="#000000" font-family="sans-serif" font-size="12" font-style="italic" lengthAdjust="spacing" textLength="44" x="1089" y="507.5703">&#171;Entity&#187;</text><text fill="#000000" font-family="sans-serif" font-size="14" lengthAdjust="spacing" textLength="116" x="1053" y="525.6895">JobOpeningStatus</text><line style="stroke:#181818;stroke-width:0.5;" x1="1051" x2="1171" y1="534.2031" y2="534.2031"/></g><!--class JobApplication--><g id="elem_JobApplication"><rect codeLine="49" fill="#F1F1F1" height="71.2031" id="JobApplication" rx="2.5" ry="2.5" style="stroke:#181818;stroke-width:0.5;" width="130" x="628" y="564.6211"/><text fill="#000000" font-family="sans-serif" font-size="12" font-style="italic" lengthAdjust="spacing" textLength="73" x="656.5" y="582.5703">&#171;Root Entity&#187;</text><text fill="#000000" font-family="sans-serif" font-size="14" lengthAdjust="spacing" textLength="91" x="647.5" y="600.6895">JobApplication</text><line style="stroke:#181818;stroke-width:0.5;" x1="629" x2="757" y1="609.2031" y2="609.2031"/><text fill="#000000" font-family="sans-serif" font-size="14" lengthAdjust="spacing" textLength="118" x="634" y="628.3105">-dateApplied: Date</text></g><!--class SystemUserBuilder--><g id="elem_SystemUserBuilder"><rect codeLine="13" fill="#F1F1F1" height="52.582" id="SystemUserBuilder" rx="2.5" ry="2.5" style="stroke:#181818;stroke-width:0.5;" width="125" x="7" y="266.6211"/><text fill="#000000" font-family="sans-serif" font-size="12" font-style="italic" lengthAdjust="spacing" textLength="50" x="44.5" y="284.5703">&#171;factory&#187;</text><text fill="#000000" font-family="sans-serif" font-size="14" lengthAdjust="spacing" textLength="119" x="10" y="302.6895">SystemUserBuilder</text><line style="stroke:#181818;stroke-width:0.5;" x1="8" x2="131" y1="311.2031" y2="311.2031"/></g><!--class PasswordPolicy--><g id="elem_PasswordPolicy"><rect codeLine="54" fill="#F1F1F1" height="52.582" id="PasswordPolicy" rx="2.5" ry="2.5" style="stroke:#181818;stroke-width:0.5;" width="104" x="641" y="46.6211"/><text fill="#000000" font-family="sans-serif" font-size="12" font-style="italic" lengthAdjust="spacing" textLength="53" x="666.5" y="64.5703">&#171;service&#187;</text><text fill="#000000" font-family="sans-serif" font-size="14" lengthAdjust="spacing" textLength="98" x="644" y="82.6895">PasswordPolicy</text><line style="stroke:#181818;stroke-width:0.5;" x1="642" x2="744" y1="91.2031" y2="91.2031"/></g><!--class PasswordEncoder--><g id="elem_PasswordEncoder"><rect codeLine="56" fill="#F1F1F1" height="52.582" id="PasswordEncoder" rx="2.5" ry="2.5" style="stroke:#181818;stroke-width:0.5;" width="120" x="633" y="134.6211"/><text fill="#000000" font-family="sans-serif" font-size="12" font-style="italic" lengthAdjust="spacing" textLength="53" x="666.5" y="152.5703">&#171;service&#187;</text><text fill="#000000" font-family="sans-serif" font-size="14" lengthAdjust="spacing" textLength="114" x="636" y="170.6895">PasswordEncoder</text><line style="stroke:#181818;stroke-width:0.5;" x1="634" x2="752" y1="179.2031" y2="179.2031"/></g><!--link SystemUserBuilder to SystemUser--><g id="link_SystemUserBuilder_SystemUser"><path codeLine="58" d="M132.03,293.1211 C152.94,293.1211 169.74,293.1211 188.51,293.1211 " fill="none" id="SystemUserBuilder-to-SystemUser" style="stroke:#181818;stroke-width:1.0;stroke-dasharray:7.0,7.0;"/><polygon fill="#181818" points="194.51,293.1211,185.51,289.1211,189.51,293.1211,185.51,297.1211,194.51,293.1211" style="stroke:#181818;stroke-width:1.0;"/></g><!--link SystemUser to Name--><g id="link_SystemUser_Name"><path codeLine="60" d="M276.16,293.1211 C314.33,293.1211 364.65,293.1211 395.43,293.1211 " fill="none" id="SystemUser-to-Name" style="stroke:#181818;stroke-width:1.0;"/><polygon fill="#181818" points="401.43,293.1211,392.43,289.1211,396.43,293.1211,392.43,297.1211,401.43,293.1211" style="stroke:#181818;stroke-width:1.0;"/></g><!--link SystemUser to Password--><g id="link_SystemUser_Password"><path codeLine="61" d="M251.74,266.4811 C269.31,237.6011 300.51,191.5711 337,161.1211 C352.91,147.8411 368.0065,139.5838 385.1065,132.0738 " fill="none" id="SystemUser-to-Password" style="stroke:#181818;stroke-width:1.0;"/><polygon fill="#181818" points="390.6,129.6611,380.7512,129.6177,386.022,131.6716,383.9681,136.9425,390.6,129.6611" style="stroke:#181818;stroke-width:1.0;"/></g><!--link SystemUser to EmailAddress--><g id="link_SystemUser_EmailAddress"><path codeLine="62" d="M276.16,274.4611 C306.07,260.3811 341.7016,243.6169 372.8816,228.9369 " fill="none" id="SystemUser-to-EmailAddress" style="stroke:#181818;stroke-width:1.0;"/><polygon fill="#181818" points="378.31,226.3811,368.4635,226.5958,373.7863,228.5109,371.8712,233.8337,378.31,226.3811" style="stroke:#181818;stroke-width:1.0;"/></g><!--link SystemUser to Candidate--><g id="link_SystemUser_Candidate"><path codeLine="63" d="M263.38,319.7311 C268,325.1911 272.45,331.1111 276,337.1211 C317.89,408.0411 293.52,442.1611 337,512.1211 C351.48,535.4111 368.6367,553.4013 386.6467,569.5813 " fill="none" id="SystemUser-to-Candidate" style="stroke:#181818;stroke-width:1.0;"/><polygon fill="#181818" points="391.11,573.5911,387.0882,564.6008,387.3906,570.2496,381.7418,570.5519,391.11,573.5911" style="stroke:#181818;stroke-width:1.0;"/></g><!--reverse link RoleSet to SystemUser--><g id="link_RoleSet_SystemUser"><path codeLine="64" d="M235.5,348.3111 C235.5,336.8311 235.5,331.3611 235.5,319.8911 " fill="none" id="RoleSet-backto-SystemUser" style="stroke:#181818;stroke-width:1.0;"/><polygon fill="#181818" points="235.5,354.3111,239.5,345.3111,235.5,349.3111,231.5,345.3111,235.5,354.3111" style="stroke:#181818;stroke-width:1.0;"/></g><!--link RoleSet to Set--><g id="link_RoleSet_Set"><path codeLine="66" d="M263.69,381.1211 C287.29,381.1211 304.51,381.1211 335.88,381.1211 " fill="none" id="RoleSet-to-Set" style="stroke:#181818;stroke-width:1.0;stroke-dasharray:7.0,7.0;"/><polygon fill="none" points="353.88,381.1211,335.88,375.1211,335.88,387.1211,353.88,381.1211" style="stroke:#181818;stroke-width:1.0;"/></g><!--link RoleSet to RoleAssignment--><g id="link_RoleSet_RoleAssignment"><path codeLine="67" d="M263.69,393.9211 C291.55,407.0211 330.1507,425.1971 364.9507,441.5671 " fill="none" id="RoleSet-to-RoleAssignment" style="stroke:#181818;stroke-width:1.0;stroke-dasharray:7.0,7.0;"/><polygon fill="#181818" points="370.38,444.1211,363.9387,436.6706,365.8556,441.9928,360.5334,443.9097,370.38,444.1211" style="stroke:#181818;stroke-width:1.0;"/></g><!--reverse link Role to RoleAssignment--><g id="link_Role_RoleAssignment"><path codeLine="68" d="M264.69,469.1211 C291.97,469.1211 333.2,469.1211 370.12,469.1211 " fill="none" id="Role-backto-RoleAssignment" style="stroke:#181818;stroke-width:1.0;"/><polygon fill="#181818" points="258.69,469.1211,267.69,473.1211,263.69,469.1211,267.69,465.1211,258.69,469.1211" style="stroke:#181818;stroke-width:1.0;"/></g><!--link Password to PasswordPolicy--><g id="link_Password_PasswordPolicy"><path codeLine="70" d="M458.18,111.7211 C503.77,104.2011 580.9901,91.4482 634.8501,82.5582 " fill="none" id="Password-to-PasswordPolicy" style="stroke:#181818;stroke-width:1.0;stroke-dasharray:7.0,7.0;"/><polygon fill="#181818" points="640.77,81.5811,631.2387,79.1002,635.8367,82.3954,632.5416,86.9934,640.77,81.5811" style="stroke:#181818;stroke-width:1.0;"/></g><!--link Password to PasswordEncoder--><g id="link_Password_PasswordEncoder"><path codeLine="71" d="M458.18,122.5211 C501.61,129.6911 573.21,141.5143 627.03,150.3943 " fill="none" id="Password-to-PasswordEncoder" style="stroke:#181818;stroke-width:1.0;stroke-dasharray:7.0,7.0;"/><polygon fill="#181818" points="632.95,151.3711,624.7212,145.9593,628.0167,150.5571,623.4189,153.8526,632.95,151.3711" style="stroke:#181818;stroke-width:1.0;"/></g><!--link Candidate to JobApplication--><g id="link_Candidate_JobApplication"><path codeLine="73" d="M460.07,600.1211 C502.46,600.1211 569.17,600.1211 621.89,600.1211 " fill="none" id="Candidate-to-JobApplication" style="stroke:#181818;stroke-width:1.0;stroke-dasharray:7.0,7.0;"/><polygon fill="#181818" points="627.89,600.1211,618.89,596.1211,622.89,600.1211,618.89,604.1211,627.89,600.1211" style="stroke:#181818;stroke-width:1.0;"/><polygon fill="#000000" points="537,590.7666,527.9549,587.8277,527.9549,593.7055,537,590.7666" style="stroke:#000000;stroke-width:1.0;"/><text fill="#000000" font-family="sans-serif" font-size="13" lengthAdjust="spacing" textLength="39" x="541" y="596.1494">follows</text></g><!--link JobApplication to JobOpening--><g id="link_JobApplication_JobOpening"><path codeLine="75" d="M758.17,600.1211 C804.87,600.1211 860.68,600.1211 900.64,600.1211 " fill="none" id="JobApplication-to-JobOpening" style="stroke:#181818;stroke-width:1.0;stroke-dasharray:7.0,7.0;"/><polygon fill="#181818" points="906.64,600.1211,897.64,596.1211,901.64,600.1211,897.64,604.1211,906.64,600.1211" style="stroke:#181818;stroke-width:1.0;"/><polygon fill="#000000" points="816,590.7666,806.9549,587.8277,806.9549,593.7055,816,590.7666" style="stroke:#000000;stroke-width:1.0;"/><text fill="#000000" font-family="sans-serif" font-size="13" lengthAdjust="spacing" textLength="54" x="820" y="596.1494">related to</text></g><!--link JobOpening to JobOpeningStatus--><g id="link_JobOpening_JobOpeningStatus"><path codeLine="77" d="M989.21,579.1411 C1010.35,568.1111 1036.49,554.4711 1059.04,542.7111 " fill="none" id="JobOpening-JobOpeningStatus" style="stroke:#181818;stroke-width:1.0;"/><text fill="#000000" font-family="sans-serif" font-size="13" lengthAdjust="spacing" textLength="7" x="996.8945" y="591.0853">1</text><text fill="#000000" font-family="sans-serif" font-size="13" lengthAdjust="spacing" textLength="7" x="1040.6014" y="564.0498">1</text></g><!--link JobOpening to JobReference--><g id="link_JobOpening_JobReference"><path codeLine="79" d="M989.21,601.1211 C1011.84,601.6811 1040.2,602.3911 1063.75,602.9711 " fill="none" id="JobOpening-JobReference" style="stroke:#181818;stroke-width:1.0;"/><text fill="#000000" font-family="sans-serif" font-size="13" lengthAdjust="spacing" textLength="7" x="996.8945" y="616.8432">1</text><text fill="#000000" font-family="sans-serif" font-size="13" lengthAdjust="spacing" textLength="7" x="1048.9789" y="618.1792">1</text></g><!--SRC=[VLInRjim4Dtv5OTCxI0Z6R8OWW0tzj00QG8RwKwJPvaDHGea7SDjy-yzohP4CNOvI2BVktV7unFzcp8jTxo1beitNkCg73I2Gn6ugJKotnFybakxLwQ63TSUMG89pRsVXU3KUXVmkx1cfNuZt3AsLH91A2T8gljkC6ojz8nft0G85fogjm6aYYcLDOm55QY2kMsuCl1a9MhuCd_w2WMyFjpUtJFMPOFLmGTiNZswRpkb9JeeomqNmRf3LJ5ssav2czMrmve7X3-C0OsZpeBow9cK3cbIbkzSxp0A38n1Wd1dRHZ3B_JOMoSl1__W3Lv6bbRZ2iDrSEQzgas39dBegSBXC-bAoHZAiKIL4Z-6_Znm8vMahbnfJuydUq_27-twkKL3haZZX_01f_WbnSFYl94HQOaRT6X4JFCpbWdFwr_aY9nt4bi57dRnk7grhAXPssebU7JKrS8IJbxSaHb70Lrp8XNb5EOqwR2Fc71iW1TBSWUI8gUyAz5rUinO666FJaqeduqycLI9wL8654NLMIfVEsV8rrDtvrX_j2CW_fS4djp9sDccaydVAlfgMA3Rm4ogpAhiQCeYWaMEiVvVYLiSz-qoTkeOOuCF8voTtXGsLckxzq3zpB0J_Up2ATrjccHal7kEx3DqStT3VUbUkTF-m-kTo_u1]--></g></svg>