<?xml version="1.0" encoding="us-ascii" standalone="no"?><svg xmlns="http://www.w3.org/2000/svg" xmlns:xlink="http://www.w3.org/1999/xlink" contentStyleType="text/css" height="1225px" preserveAspectRatio="none" style="width:1323px;height:1225px;background:#FFFFFF;" version="1.1" viewBox="0 0 1323 1225" width="1323px" zoomAndPan="magnify"><defs/><g><text fill="#000000" font-family="sans-serif" font-size="14" font-weight="bold" lengthAdjust="spacing" textLength="222" x="552" y="30.1074">Sequence Diagram (SD) - UC024</text><rect fill="#FFFFFF" height="946.7305" style="stroke:#181818;stroke-width:1.0;" width="10" x="212.5" y="161.1543"/><rect fill="#FFFFFF" height="508.6563" style="stroke:#181818;stroke-width:1.0;" width="10" x="401.5" y="192.4453"/><rect fill="#FFFFFF" height="281.6191" style="stroke:#181818;stroke-width:1.0;" width="10" x="401.5" y="794.9746"/><rect fill="#FFFFFF" height="99.873" style="stroke:#181818;stroke-width:1.0;" width="10" x="572" y="223.7363"/><rect fill="#FFFFFF" height="62.582" style="stroke:#181818;stroke-width:1.0;" width="10" x="715" y="354.9004"/><rect fill="#FFFFFF" height="31.291" style="stroke:#181818;stroke-width:1.0;" width="10" x="859.5" y="480.0645"/><rect fill="#FFFFFF" height="31.291" style="stroke:#181818;stroke-width:1.0;" width="10" x="859.5" y="826.2656"/><rect fill="#FFFFFF" height="31.291" style="stroke:#181818;stroke-width:1.0;" width="10" x="859.5" y="982.7207"/><rect fill="#FFFFFF" height="221.0371" style="stroke:#181818;stroke-width:1.0;" width="10" x="1043" y="448.7734"/><rect fill="#FFFFFF" height="156.4551" style="stroke:#181818;stroke-width:1.0;" width="10" x="1043" y="888.8477"/><rect fill="#FFFFFF" height="31.291" style="stroke:#181818;stroke-width:1.0;" width="10" x="1229.5" y="600.2285"/><rect fill="#FFFFFF" height="31.291" style="stroke:#181818;stroke-width:1.0;" width="10" x="1229.5" y="920.1387"/><rect fill="none" height="113.1641" style="stroke:#000000;stroke-width:1.5;" width="383" x="934" y="526.3555"/><line style="stroke:#181818;stroke-width:0.5;stroke-dasharray:5.0,5.0;" x1="36" x2="36" y1="127.8633" y2="1125.8848"/><line style="stroke:#181818;stroke-width:0.5;stroke-dasharray:5.0,5.0;" x1="217" x2="217" y1="127.8633" y2="1125.8848"/><line style="stroke:#181818;stroke-width:0.5;stroke-dasharray:5.0,5.0;" x1="406" x2="406" y1="127.8633" y2="1125.8848"/><line style="stroke:#181818;stroke-width:0.5;stroke-dasharray:5.0,5.0;" x1="577" x2="577" y1="127.8633" y2="1125.8848"/><line style="stroke:#181818;stroke-width:0.5;stroke-dasharray:5.0,5.0;" x1="720" x2="720" y1="127.8633" y2="1125.8848"/><line style="stroke:#181818;stroke-width:0.5;stroke-dasharray:5.0,5.0;" x1="864" x2="864" y1="127.8633" y2="1125.8848"/><line style="stroke:#181818;stroke-width:0.5;stroke-dasharray:5.0,5.0;" x1="1048" x2="1048" y1="127.8633" y2="1125.8848"/><line style="stroke:#181818;stroke-width:0.5;stroke-dasharray:5.0,5.0;" x1="1234" x2="1234" y1="127.8633" y2="1125.8848"/><text fill="#000000" font-family="sans-serif" font-size="14" lengthAdjust="spacing" textLength="57" x="5" y="124.3496">Operator</text><ellipse cx="36.5" cy="57.7422" fill="#E2E2F0" rx="8" ry="8" style="stroke:#181818;stroke-width:0.5;"/><path d="M36.5,65.7422 L36.5,92.7422 M23.5,73.7422 L49.5,73.7422 M36.5,92.7422 L23.5,107.7422 M36.5,92.7422 L49.5,107.7422 " fill="none" style="stroke:#181818;stroke-width:0.5;"/><text fill="#000000" font-family="sans-serif" font-size="14" lengthAdjust="spacing" textLength="57" x="5" y="1139.9922">Operator</text><ellipse cx="36.5" cy="1152.0059" fill="#E2E2F0" rx="8" ry="8" style="stroke:#181818;stroke-width:0.5;"/><path d="M36.5,1160.0059 L36.5,1187.0059 M23.5,1168.0059 L49.5,1168.0059 M36.5,1187.0059 L23.5,1202.0059 M36.5,1187.0059 L49.5,1202.0059 " fill="none" style="stroke:#181818;stroke-width:0.5;"/><rect fill="#E2E2F0" height="51.2422" rx="2.5" ry="2.5" style="stroke:#181818;stroke-width:0.5;" width="135" x="150" y="75.6211"/><text fill="#000000" font-family="sans-serif" font-size="14" font-style="italic" lengthAdjust="spacing" textLength="95" x="170" y="97.7285">&#171;presentation&#187;</text><text fill="#000000" font-family="sans-serif" font-size="14" lengthAdjust="spacing" textLength="121" x="157" y="116.3496">EnableCandidateUI</text><rect fill="#E2E2F0" height="51.2422" rx="2.5" ry="2.5" style="stroke:#181818;stroke-width:0.5;" width="135" x="150" y="1124.8848"/><text fill="#000000" font-family="sans-serif" font-size="14" font-style="italic" lengthAdjust="spacing" textLength="95" x="170" y="1146.9922">&#171;presentation&#187;</text><text fill="#000000" font-family="sans-serif" font-size="14" lengthAdjust="spacing" textLength="121" x="157" y="1165.6133">EnableCandidateUI</text><rect fill="#E2E2F0" height="51.2422" rx="2.5" ry="2.5" style="stroke:#181818;stroke-width:0.5;" width="185" x="314" y="75.6211"/><text fill="#000000" font-family="sans-serif" font-size="14" font-style="italic" lengthAdjust="spacing" textLength="84" x="364.5" y="97.7285">&#171;application&#187;</text><text fill="#000000" font-family="sans-serif" font-size="14" lengthAdjust="spacing" textLength="171" x="321" y="116.3496">EnableCandidateController</text><rect fill="#E2E2F0" height="51.2422" rx="2.5" ry="2.5" style="stroke:#181818;stroke-width:0.5;" width="185" x="314" y="1124.8848"/><text fill="#000000" font-family="sans-serif" font-size="14" font-style="italic" lengthAdjust="spacing" textLength="84" x="364.5" y="1146.9922">&#171;application&#187;</text><text fill="#000000" font-family="sans-serif" font-size="14" lengthAdjust="spacing" textLength="171" x="321" y="1165.6133">EnableCandidateController</text><rect fill="#E2E2F0" height="51.2422" rx="2.5" ry="2.5" style="stroke:#181818;stroke-width:0.5;" width="136" x="509" y="75.6211"/><text fill="#000000" font-family="sans-serif" font-size="14" font-style="italic" lengthAdjust="spacing" textLength="89" x="532.5" y="97.7285">&#171;persistence&#187;</text><text fill="#000000" font-family="sans-serif" font-size="14" lengthAdjust="spacing" textLength="122" x="516" y="116.3496">PersistenceContext</text><rect fill="#E2E2F0" height="51.2422" rx="2.5" ry="2.5" style="stroke:#181818;stroke-width:0.5;" width="136" x="509" y="1124.8848"/><text fill="#000000" font-family="sans-serif" font-size="14" font-style="italic" lengthAdjust="spacing" textLength="89" x="532.5" y="1146.9922">&#171;persistence&#187;</text><text fill="#000000" font-family="sans-serif" font-size="14" lengthAdjust="spacing" textLength="122" x="516" y="1165.6133">PersistenceContext</text><rect fill="#E2E2F0" height="51.2422" rx="2.5" ry="2.5" style="stroke:#181818;stroke-width:0.5;" width="130" x="655" y="75.6211"/><text fill="#000000" font-family="sans-serif" font-size="14" font-style="italic" lengthAdjust="spacing" textLength="59" x="690.5" y="97.7285">&#171;factory&#187;</text><text fill="#000000" font-family="sans-serif" font-size="14" lengthAdjust="spacing" textLength="116" x="662" y="116.3496">RepositoryFactory</text><rect fill="#E2E2F0" height="51.2422" rx="2.5" ry="2.5" style="stroke:#181818;stroke-width:0.5;" width="130" x="655" y="1124.8848"/><text fill="#000000" font-family="sans-serif" font-size="14" font-style="italic" lengthAdjust="spacing" textLength="59" x="690.5" y="1146.9922">&#171;factory&#187;</text><text fill="#000000" font-family="sans-serif" font-size="14" lengthAdjust="spacing" textLength="116" x="662" y="1165.6133">RepositoryFactory</text><text fill="#000000" font-family="sans-serif" font-size="14" font-style="italic" lengthAdjust="spacing" textLength="79" x="822" y="105.7285">&#171;repository&#187;</text><text fill="#000000" font-family="sans-serif" font-size="14" lengthAdjust="spacing" textLength="133" x="795" y="124.3496">CandidateRepository</text><path d="M846.5,54.6211 C846.5,44.6211 864.5,44.6211 864.5,44.6211 C864.5,44.6211 882.5,44.6211 882.5,54.6211 L882.5,80.6211 C882.5,90.6211 864.5,90.6211 864.5,90.6211 C864.5,90.6211 846.5,90.6211 846.5,80.6211 L846.5,54.6211 " fill="#E2E2F0" style="stroke:#181818;stroke-width:1.5;"/><path d="M846.5,54.6211 C846.5,64.6211 864.5,64.6211 864.5,64.6211 C864.5,64.6211 882.5,64.6211 882.5,54.6211 " fill="none" style="stroke:#181818;stroke-width:1.5;"/><text fill="#000000" font-family="sans-serif" font-size="14" font-style="italic" lengthAdjust="spacing" textLength="79" x="822" y="1139.9922">&#171;repository&#187;</text><text fill="#000000" font-family="sans-serif" font-size="14" lengthAdjust="spacing" textLength="133" x="795" y="1158.6133">CandidateRepository</text><path d="M846.5,1172.127 C846.5,1162.127 864.5,1162.127 864.5,1162.127 C864.5,1162.127 882.5,1162.127 882.5,1172.127 L882.5,1198.127 C882.5,1208.127 864.5,1208.127 864.5,1208.127 C864.5,1208.127 846.5,1208.127 846.5,1198.127 L846.5,1172.127 " fill="#E2E2F0" style="stroke:#181818;stroke-width:1.5;"/><path d="M846.5,1172.127 C846.5,1182.127 864.5,1182.127 864.5,1182.127 C864.5,1182.127 882.5,1182.127 882.5,1172.127 " fill="none" style="stroke:#181818;stroke-width:1.5;"/><rect fill="#E2E2F0" height="51.2422" rx="2.5" ry="2.5" style="stroke:#181818;stroke-width:0.5;" width="208" x="944" y="75.6211"/><text fill="#000000" font-family="sans-serif" font-size="14" font-style="italic" lengthAdjust="spacing" textLength="60" x="1018" y="97.7285">&#171;service&#187;</text><text fill="#000000" font-family="sans-serif" font-size="14" lengthAdjust="spacing" textLength="194" x="951" y="116.3496">CandidateManagementService</text><rect fill="#E2E2F0" height="51.2422" rx="2.5" ry="2.5" style="stroke:#181818;stroke-width:0.5;" width="208" x="944" y="1124.8848"/><text fill="#000000" font-family="sans-serif" font-size="14" font-style="italic" lengthAdjust="spacing" textLength="60" x="1018" y="1146.9922">&#171;service&#187;</text><text fill="#000000" font-family="sans-serif" font-size="14" lengthAdjust="spacing" textLength="194" x="951" y="1165.6133">CandidateManagementService</text><rect fill="#E2E2F0" height="51.2422" rx="2.5" ry="2.5" style="stroke:#181818;stroke-width:0.5;" width="145" x="1162" y="75.6211"/><text fill="#000000" font-family="sans-serif" font-size="14" font-style="italic" lengthAdjust="spacing" textLength="62" x="1203.5" y="97.7285">&#171;domain&#187;</text><text fill="#000000" font-family="sans-serif" font-size="14" lengthAdjust="spacing" textLength="131" x="1169" y="116.3496">candidate:Candidate</text><rect fill="#E2E2F0" height="51.2422" rx="2.5" ry="2.5" style="stroke:#181818;stroke-width:0.5;" width="145" x="1162" y="1124.8848"/><text fill="#000000" font-family="sans-serif" font-size="14" font-style="italic" lengthAdjust="spacing" textLength="62" x="1203.5" y="1146.9922">&#171;domain&#187;</text><text fill="#000000" font-family="sans-serif" font-size="14" lengthAdjust="spacing" textLength="131" x="1169" y="1165.6133">candidate:Candidate</text><rect fill="#FFFFFF" height="946.7305" style="stroke:#181818;stroke-width:1.0;" width="10" x="212.5" y="161.1543"/><rect fill="#FFFFFF" height="508.6563" style="stroke:#181818;stroke-width:1.0;" width="10" x="401.5" y="192.4453"/><rect fill="#FFFFFF" height="281.6191" style="stroke:#181818;stroke-width:1.0;" width="10" x="401.5" y="794.9746"/><rect fill="#FFFFFF" height="99.873" style="stroke:#181818;stroke-width:1.0;" width="10" x="572" y="223.7363"/><rect fill="#FFFFFF" height="62.582" style="stroke:#181818;stroke-width:1.0;" width="10" x="715" y="354.9004"/><rect fill="#FFFFFF" height="31.291" style="stroke:#181818;stroke-width:1.0;" width="10" x="859.5" y="480.0645"/><rect fill="#FFFFFF" height="31.291" style="stroke:#181818;stroke-width:1.0;" width="10" x="859.5" y="826.2656"/><rect fill="#FFFFFF" height="31.291" style="stroke:#181818;stroke-width:1.0;" width="10" x="859.5" y="982.7207"/><rect fill="#FFFFFF" height="221.0371" style="stroke:#181818;stroke-width:1.0;" width="10" x="1043" y="448.7734"/><rect fill="#FFFFFF" height="156.4551" style="stroke:#181818;stroke-width:1.0;" width="10" x="1043" y="888.8477"/><rect fill="#FFFFFF" height="31.291" style="stroke:#181818;stroke-width:1.0;" width="10" x="1229.5" y="600.2285"/><rect fill="#FFFFFF" height="31.291" style="stroke:#181818;stroke-width:1.0;" width="10" x="1229.5" y="920.1387"/><polygon fill="#181818" points="200.5,157.1543,210.5,161.1543,200.5,165.1543,204.5,161.1543" style="stroke:#181818;stroke-width:1.0;"/><line style="stroke:#181818;stroke-width:1.0;stroke-dasharray:2.0,2.0;" x1="36.5" x2="206.5" y1="161.1543" y2="161.1543"/><text fill="#000000" font-family="sans-serif" font-size="13" lengthAdjust="spacing" textLength="102" x="43.5" y="155.8916">Enable Candidate</text><polygon fill="#181818" points="389.5,188.4453,399.5,192.4453,389.5,196.4453,393.5,192.4453" style="stroke:#181818;stroke-width:1.0;"/><line style="stroke:#181818;stroke-width:1.0;" x1="222.5" x2="395.5" y1="192.4453" y2="192.4453"/><text fill="#000000" font-family="sans-serif" font-size="13" lengthAdjust="spacing" textLength="116" x="229.5" y="187.1826">inactiveCandidates()</text><polygon fill="#181818" points="560,219.7363,570,223.7363,560,227.7363,564,223.7363" style="stroke:#181818;stroke-width:1.0;"/><line style="stroke:#181818;stroke-width:1.0;" x1="411.5" x2="566" y1="223.7363" y2="223.7363"/><text fill="#000000" font-family="sans-serif" font-size="13" lengthAdjust="spacing" textLength="75" x="418.5" y="218.4736">repositories()</text><path d="M587,236.7363 L587,263.7363 L693,263.7363 L693,246.7363 L683,236.7363 L587,236.7363 " fill="#FEFFDD" style="stroke:#181818;stroke-width:0.5;"/><path d="M683,236.7363 L683,246.7363 L693,246.7363 L683,236.7363 " fill="#FEFFDD" style="stroke:#181818;stroke-width:0.5;"/><text fill="#000000" font-family="sans-serif" font-size="13" lengthAdjust="spacing" textLength="85" x="593" y="255.7646">creates in JPA</text><polygon fill="#181818" points="708,288.3184,718,292.3184,708,296.3184,712,292.3184" style="stroke:#181818;stroke-width:1.0;"/><line style="stroke:#181818;stroke-width:1.0;" x1="582" x2="714" y1="292.3184" y2="292.3184"/><text fill="#000000" font-family="sans-serif" font-size="13" lengthAdjust="spacing" textLength="36" x="589" y="287.0557">create</text><polygon fill="#181818" points="422.5,319.6094,412.5,323.6094,422.5,327.6094,418.5,323.6094" style="stroke:#181818;stroke-width:1.0;"/><line style="stroke:#181818;stroke-width:1.0;stroke-dasharray:2.0,2.0;" x1="416.5" x2="576" y1="323.6094" y2="323.6094"/><text fill="#000000" font-family="sans-serif" font-size="13" lengthAdjust="spacing" textLength="39" x="428.5" y="318.3467">factory</text><polygon fill="#181818" points="703,350.9004,713,354.9004,703,358.9004,707,354.9004" style="stroke:#181818;stroke-width:1.0;"/><line style="stroke:#181818;stroke-width:1.0;" x1="411.5" x2="709" y1="354.9004" y2="354.9004"/><text fill="#000000" font-family="sans-serif" font-size="13" lengthAdjust="spacing" textLength="71" x="418.5" y="349.6377">candidates()</text><polygon fill="#181818" points="852.5,382.1914,862.5,386.1914,852.5,390.1914,856.5,386.1914" style="stroke:#181818;stroke-width:1.0;"/><line style="stroke:#181818;stroke-width:1.0;" x1="725" x2="858.5" y1="386.1914" y2="386.1914"/><text fill="#000000" font-family="sans-serif" font-size="13" lengthAdjust="spacing" textLength="36" x="732" y="380.9287">create</text><polygon fill="#181818" points="422.5,413.4824,412.5,417.4824,422.5,421.4824,418.5,417.4824" style="stroke:#181818;stroke-width:1.0;"/><line style="stroke:#181818;stroke-width:1.0;stroke-dasharray:2.0,2.0;" x1="416.5" x2="719" y1="417.4824" y2="417.4824"/><text fill="#000000" font-family="sans-serif" font-size="13" lengthAdjust="spacing" textLength="118" x="428.5" y="412.2197">candidateRepository</text><polygon fill="#181818" points="1031,444.7734,1041,448.7734,1031,452.7734,1035,448.7734" style="stroke:#181818;stroke-width:1.0;"/><line style="stroke:#181818;stroke-width:1.0;" x1="411.5" x2="1037" y1="448.7734" y2="448.7734"/><text fill="#000000" font-family="sans-serif" font-size="13" lengthAdjust="spacing" textLength="116" x="418.5" y="443.5107">inactiveCandidates()</text><polygon fill="#181818" points="880.5,476.0645,870.5,480.0645,880.5,484.0645,876.5,480.0645" style="stroke:#181818;stroke-width:1.0;"/><line style="stroke:#181818;stroke-width:1.0;" x1="874.5" x2="1042" y1="480.0645" y2="480.0645"/><text fill="#000000" font-family="sans-serif" font-size="13" lengthAdjust="spacing" textLength="116" x="886.5" y="474.8018">inactiveCandidates()</text><polygon fill="#181818" points="1031,507.3555,1041,511.3555,1031,515.3555,1035,511.3555" style="stroke:#181818;stroke-width:1.0;"/><line style="stroke:#181818;stroke-width:1.0;stroke-dasharray:2.0,2.0;" x1="864.5" x2="1037" y1="511.3555" y2="511.3555"/><text fill="#000000" font-family="sans-serif" font-size="13" lengthAdjust="spacing" textLength="108" x="871.5" y="506.0928">inactiveCandidates</text><path d="M934,526.3555 L1007,526.3555 L1007,535.6465 L997,545.6465 L934,545.6465 L934,526.3555 " fill="#EEEEEE" style="stroke:#000000;stroke-width:1.5;"/><rect fill="none" height="113.1641" style="stroke:#000000;stroke-width:1.5;" width="383" x="934" y="526.3555"/><text fill="#000000" font-family="sans-serif" font-size="13" font-weight="bold" lengthAdjust="spacing" textLength="28" x="949" y="541.3838">loop</text><text fill="#000000" font-family="sans-serif" font-size="11" font-weight="bold" lengthAdjust="spacing" textLength="146" x="1022" y="540.2256">[for all inactiveCandidates]</text><polygon fill="#181818" points="1222.5,564.9375,1232.5,568.9375,1222.5,572.9375,1226.5,568.9375" style="stroke:#181818;stroke-width:1.0;"/><line style="stroke:#181818;stroke-width:1.0;" x1="1053" x2="1228.5" y1="568.9375" y2="568.9375"/><text fill="#000000" font-family="sans-serif" font-size="13" lengthAdjust="spacing" textLength="40" x="1060" y="563.6748">name()</text><polygon fill="#181818" points="1217.5,596.2285,1227.5,600.2285,1217.5,604.2285,1221.5,600.2285" style="stroke:#181818;stroke-width:1.0;"/><line style="stroke:#181818;stroke-width:1.0;" x1="1053" x2="1223.5" y1="600.2285" y2="600.2285"/><text fill="#000000" font-family="sans-serif" font-size="13" lengthAdjust="spacing" textLength="39" x="1060" y="594.9658">email()</text><polygon fill="#181818" points="1064,627.5195,1054,631.5195,1064,635.5195,1060,631.5195" style="stroke:#181818;stroke-width:1.0;"/><line style="stroke:#181818;stroke-width:1.0;stroke-dasharray:2.0,2.0;" x1="1058" x2="1233.5" y1="631.5195" y2="631.5195"/><text fill="#000000" font-family="sans-serif" font-size="13" lengthAdjust="spacing" textLength="107" x="1070" y="626.2568">candidate's details</text><polygon fill="#181818" points="422.5,665.8105,412.5,669.8105,422.5,673.8105,418.5,669.8105" style="stroke:#181818;stroke-width:1.0;"/><line style="stroke:#181818;stroke-width:1.0;stroke-dasharray:2.0,2.0;" x1="416.5" x2="1047" y1="669.8105" y2="669.8105"/><text fill="#000000" font-family="sans-serif" font-size="13" lengthAdjust="spacing" textLength="194" x="428.5" y="664.5479">candidates with respective details</text><polygon fill="#181818" points="233.5,697.1016,223.5,701.1016,233.5,705.1016,229.5,701.1016" style="stroke:#181818;stroke-width:1.0;"/><line style="stroke:#181818;stroke-width:1.0;stroke-dasharray:2.0,2.0;" x1="227.5" x2="405.5" y1="701.1016" y2="701.1016"/><text fill="#000000" font-family="sans-serif" font-size="13" lengthAdjust="spacing" textLength="63" x="239.5" y="695.8389">candidates</text><polygon fill="#181818" points="47.5,728.3926,37.5,732.3926,47.5,736.3926,43.5,732.3926" style="stroke:#181818;stroke-width:1.0;"/><line style="stroke:#181818;stroke-width:1.0;stroke-dasharray:2.0,2.0;" x1="41.5" x2="211.5" y1="732.3926" y2="732.3926"/><text fill="#000000" font-family="sans-serif" font-size="13" lengthAdjust="spacing" textLength="108" x="53.5" y="727.1299">display candidates</text><polygon fill="#181818" points="200.5,759.6836,210.5,763.6836,200.5,767.6836,204.5,763.6836" style="stroke:#181818;stroke-width:1.0;"/><line style="stroke:#181818;stroke-width:1.0;" x1="36.5" x2="206.5" y1="763.6836" y2="763.6836"/><text fill="#000000" font-family="sans-serif" font-size="13" lengthAdjust="spacing" textLength="152" x="43.5" y="758.4209">select candidate to enable</text><polygon fill="#181818" points="389.5,790.9746,399.5,794.9746,389.5,798.9746,393.5,794.9746" style="stroke:#181818;stroke-width:1.0;"/><line style="stroke:#181818;stroke-width:1.0;" x1="222.5" x2="395.5" y1="794.9746" y2="794.9746"/><text fill="#000000" font-family="sans-serif" font-size="13" lengthAdjust="spacing" textLength="160" x="229.5" y="789.7119">enableCandidate(candidate)</text><polygon fill="#181818" points="847.5,822.2656,857.5,826.2656,847.5,830.2656,851.5,826.2656" style="stroke:#181818;stroke-width:1.0;"/><line style="stroke:#181818;stroke-width:1.0;" x1="411.5" x2="853.5" y1="826.2656" y2="826.2656"/><text fill="#000000" font-family="sans-serif" font-size="13" lengthAdjust="spacing" textLength="28" x="418.5" y="821.0029">find()</text><polygon fill="#181818" points="422.5,853.5566,412.5,857.5566,422.5,861.5566,418.5,857.5566" style="stroke:#181818;stroke-width:1.0;"/><line style="stroke:#181818;stroke-width:1.0;stroke-dasharray:2.0,2.0;" x1="416.5" x2="863.5" y1="857.5566" y2="857.5566"/><text fill="#000000" font-family="sans-serif" font-size="13" lengthAdjust="spacing" textLength="56" x="428.5" y="852.2939">candidate</text><polygon fill="#181818" points="1031,884.8477,1041,888.8477,1031,892.8477,1035,888.8477" style="stroke:#181818;stroke-width:1.0;"/><line style="stroke:#181818;stroke-width:1.0;" x1="411.5" x2="1037" y1="888.8477" y2="888.8477"/><text fill="#000000" font-family="sans-serif" font-size="13" lengthAdjust="spacing" textLength="160" x="418.5" y="883.585">enableCandidate(candidate)</text><polygon fill="#181818" points="1217.5,916.1387,1227.5,920.1387,1217.5,924.1387,1221.5,920.1387" style="stroke:#181818;stroke-width:1.0;"/><line style="stroke:#181818;stroke-width:1.0;" x1="1053" x2="1223.5" y1="920.1387" y2="920.1387"/><text fill="#000000" font-family="sans-serif" font-size="13" lengthAdjust="spacing" textLength="46" x="1060" y="914.876">enable()</text><polygon fill="#181818" points="1064,947.4297,1054,951.4297,1064,955.4297,1060,951.4297" style="stroke:#181818;stroke-width:1.0;"/><line style="stroke:#181818;stroke-width:1.0;stroke-dasharray:2.0,2.0;" x1="1058" x2="1233.5" y1="951.4297" y2="951.4297"/><text fill="#000000" font-family="sans-serif" font-size="13" lengthAdjust="spacing" textLength="56" x="1070" y="946.167">candidate</text><polygon fill="#181818" points="880.5,978.7207,870.5,982.7207,880.5,986.7207,876.5,982.7207" style="stroke:#181818;stroke-width:1.0;"/><line style="stroke:#181818;stroke-width:1.0;" x1="874.5" x2="1042" y1="982.7207" y2="982.7207"/><text fill="#000000" font-family="sans-serif" font-size="13" lengthAdjust="spacing" textLength="34" x="886.5" y="977.458">save()</text><polygon fill="#181818" points="1031,1010.0117,1041,1014.0117,1031,1018.0117,1035,1014.0117" style="stroke:#181818;stroke-width:1.0;"/><line style="stroke:#181818;stroke-width:1.0;stroke-dasharray:2.0,2.0;" x1="864.5" x2="1037" y1="1014.0117" y2="1014.0117"/><text fill="#000000" font-family="sans-serif" font-size="13" lengthAdjust="spacing" textLength="56" x="871.5" y="1008.749">candidate</text><polygon fill="#181818" points="422.5,1041.3027,412.5,1045.3027,422.5,1049.3027,418.5,1045.3027" style="stroke:#181818;stroke-width:1.0;"/><line style="stroke:#181818;stroke-width:1.0;stroke-dasharray:2.0,2.0;" x1="416.5" x2="1047" y1="1045.3027" y2="1045.3027"/><text fill="#000000" font-family="sans-serif" font-size="13" lengthAdjust="spacing" textLength="56" x="428.5" y="1040.04">candidate</text><polygon fill="#181818" points="233.5,1072.5938,223.5,1076.5938,233.5,1080.5938,229.5,1076.5938" style="stroke:#181818;stroke-width:1.0;"/><line style="stroke:#181818;stroke-width:1.0;stroke-dasharray:2.0,2.0;" x1="227.5" x2="405.5" y1="1076.5938" y2="1076.5938"/><text fill="#000000" font-family="sans-serif" font-size="13" lengthAdjust="spacing" textLength="56" x="239.5" y="1071.3311">candidate</text><polygon fill="#181818" points="47.5,1103.8848,37.5,1107.8848,47.5,1111.8848,43.5,1107.8848" style="stroke:#181818;stroke-width:1.0;"/><line style="stroke:#181818;stroke-width:1.0;stroke-dasharray:2.0,2.0;" x1="41.5" x2="216.5" y1="1107.8848" y2="1107.8848"/><text fill="#000000" font-family="sans-serif" font-size="13" lengthAdjust="spacing" textLength="105" x="53.5" y="1102.6221">candidate enabled</text><!--SRC=[hLPDRnen4BtxLrYvb1oGegedj492q4YfL3KgoWyOTWUmOcntxP3INz_niklrBkibgFK1R3plUJxUJ69VXJ9Gme4Ro5zXXsjtaiXBp1sedKHcWu7TGw7VXThnBKWRtqYXq9qCSgFboHzOT9bBi7RXN2asRmwVSgtMuW_o1yQSSFJK6d-zeSgHhmJiF62oNjtpANzPFdp-mXZaJfVyXy4I_0OiN_XV694xaGi3ol6l2ZOIbw0AKO33boTlHfzPPagqg1mueTLyFWPQQkLABILMRqIdB0DZfCY7E9wnjC8wxxv7u6_dmT6lteNsr4F_HAEje61EZrMK9mzkjbcsFUy8HFx11Ypou6qBzPZeb6LbEFIU2-3leAZG1yhB6ikZ82-9ezbccJtlUkYxl87F0j6T1wxq0OGYN55j2CQg2l7fT4v5cDM9Rf_t9HL7sj0juxIeKcJQfdp6XQfiskhOoNrb6g2jDQik_8gAHdnH5MOy94K4gWvTP1mk_LAQBaknspkkjrtAl4Jl6FdAlpqlEgXO0EH9NT86aZRjPQ4MGB0lSD3VHFpjg_qaTY9_x3tYLwD1OccbDUX-iEovdbyATIYCvl542BKcH_JG2QKsPnqF6rttOXbbxB164NGC_8eQRphkRmSQPI35BhKsVEi7dfJNw7fXdXjonXKSi1TKmXBfImwO1Y_FXfVn-rNtVoV-KFvFbe9rn7xfSPI4cZw-HLLKEKWKCoKtoz-5srExMuDLoYwUZvwzq4kildfuvTsKH-Z-1F9JZ43Lx9lnGbWZuHJZAwjwD9x9BKhoihNXJbFWVbgon634xX-jIO3UF1xZPjWALGmrL4gSFTaFLe9zKEo9ZhyIw4rz7sHUSQRwFANnKNspSKL_P19PEEB_d3rNVKkHNcskV-wXsrgeROjpuGeMGUbVXxy0]--></g></svg>