<?xml version="1.0" encoding="us-ascii" standalone="no"?><svg xmlns="http://www.w3.org/2000/svg" xmlns:xlink="http://www.w3.org/1999/xlink" contentStyleType="text/css" height="934px" preserveAspectRatio="none" style="width:667px;height:934px;background:#FFFFFF;" version="1.1" viewBox="0 0 667 934" width="667px" zoomAndPan="magnify"><defs/><g><text fill="#000000" font-family="sans-serif" font-size="14" font-weight="bold" lengthAdjust="spacing" textLength="190" x="231.5" y="25.1074">Class Diagram (CD) - UC024</text><!--class EnableCandidateUI--><g id="elem_EnableCandidateUI"><rect codeLine="8" fill="#F1F1F1" height="60.582" id="EnableCandidateUI" rx="2.5" ry="2.5" style="stroke:#181818;stroke-width:0.5;" width="153" x="53.5" y="46.6211"/><ellipse cx="68.5" cy="68.9121" fill="#ADD1B2" rx="11" ry="11" style="stroke:#181818;stroke-width:1.0;"/><path d="M71.2656,64.7871 Q71.4219,64.5684 71.6094,64.459 Q71.7969,64.3496 72.0156,64.3496 Q72.3906,64.3496 72.625,64.6152 Q72.8594,64.8652 72.8594,65.4746 L72.8594,66.9277 Q72.8594,67.5371 72.625,67.8027 Q72.3906,68.0684 72.0156,68.0684 Q71.6719,68.0684 71.4688,67.8652 Q71.2656,67.6777 71.1563,67.1621 Q71.1094,66.8027 70.9219,66.6152 Q70.5938,66.2402 69.9844,66.0215 Q69.375,65.8027 68.75,65.8027 Q67.9844,65.8027 67.3438,66.1309 Q66.7188,66.459 66.2188,67.209 Q65.7344,67.959 65.7344,68.9902 L65.7344,70.084 Q65.7344,71.3184 66.625,72.1465 Q67.5156,72.959 69.1094,72.959 Q70.0469,72.959 70.7031,72.709 Q71.0938,72.5527 71.5156,72.1152 Q71.7813,71.8496 71.9219,71.7715 Q72.0781,71.6934 72.2813,71.6934 Q72.6094,71.6934 72.8594,71.959 Q73.125,72.209 73.125,72.5527 Q73.125,72.8965 72.7813,73.3027 Q72.2813,73.8809 71.4844,74.209 Q70.4063,74.6621 69.1094,74.6621 Q67.5938,74.6621 66.3906,74.0371 Q65.4063,73.5371 64.7188,72.4746 Q64.0313,71.3965 64.0313,70.1152 L64.0313,68.959 Q64.0313,67.6309 64.6406,66.4902 Q65.2656,65.334 66.3594,64.7246 Q67.4531,64.0996 68.6875,64.0996 Q69.4219,64.0996 70.0625,64.2715 Q70.7188,64.4277 71.2656,64.7871 Z " fill="#000000"/><text fill="#000000" font-family="sans-serif" font-size="12" font-style="italic" lengthAdjust="spacing" textLength="61" x="112.5" y="64.5703">&#171;interface&#187;</text><text fill="#000000" font-family="sans-serif" font-size="14" lengthAdjust="spacing" textLength="121" x="82.5" y="82.6895">EnableCandidateUI</text><line style="stroke:#181818;stroke-width:0.5;" x1="54.5" x2="205.5" y1="91.2031" y2="91.2031"/><line style="stroke:#181818;stroke-width:0.5;" x1="54.5" x2="205.5" y1="99.2031" y2="99.2031"/></g><!--class EnableCandidateController--><g id="elem_EnableCandidateController"><rect codeLine="10" fill="#F1F1F1" height="60.582" id="EnableCandidateController" rx="2.5" ry="2.5" style="stroke:#181818;stroke-width:0.5;" width="203" x="28.5" y="168.6211"/><ellipse cx="43.5" cy="190.9121" fill="#ADD1B2" rx="11" ry="11" style="stroke:#181818;stroke-width:1.0;"/><path d="M46.2656,186.7871 Q46.4219,186.5684 46.6094,186.459 Q46.7969,186.3496 47.0156,186.3496 Q47.3906,186.3496 47.625,186.6152 Q47.8594,186.8652 47.8594,187.4746 L47.8594,188.9277 Q47.8594,189.5371 47.625,189.8027 Q47.3906,190.0684 47.0156,190.0684 Q46.6719,190.0684 46.4688,189.8652 Q46.2656,189.6777 46.1563,189.1621 Q46.1094,188.8027 45.9219,188.6152 Q45.5938,188.2402 44.9844,188.0215 Q44.375,187.8027 43.75,187.8027 Q42.9844,187.8027 42.3438,188.1309 Q41.7188,188.459 41.2188,189.209 Q40.7344,189.959 40.7344,190.9902 L40.7344,192.084 Q40.7344,193.3184 41.625,194.1465 Q42.5156,194.959 44.1094,194.959 Q45.0469,194.959 45.7031,194.709 Q46.0938,194.5527 46.5156,194.1152 Q46.7813,193.8496 46.9219,193.7715 Q47.0781,193.6934 47.2813,193.6934 Q47.6094,193.6934 47.8594,193.959 Q48.125,194.209 48.125,194.5527 Q48.125,194.8965 47.7813,195.3027 Q47.2813,195.8809 46.4844,196.209 Q45.4063,196.6621 44.1094,196.6621 Q42.5938,196.6621 41.3906,196.0371 Q40.4063,195.5371 39.7188,194.4746 Q39.0313,193.3965 39.0313,192.1152 L39.0313,190.959 Q39.0313,189.6309 39.6406,188.4902 Q40.2656,187.334 41.3594,186.7246 Q42.4531,186.0996 43.6875,186.0996 Q44.4219,186.0996 45.0625,186.2715 Q45.7188,186.4277 46.2656,186.7871 Z " fill="#000000"/><text fill="#000000" font-family="sans-serif" font-size="12" font-style="italic" lengthAdjust="spacing" textLength="65" x="110.5" y="186.5703">&#171;controller&#187;</text><text fill="#000000" font-family="sans-serif" font-size="14" lengthAdjust="spacing" textLength="171" x="57.5" y="204.6895">EnableCandidateController</text><line style="stroke:#181818;stroke-width:0.5;" x1="29.5" x2="230.5" y1="213.2031" y2="213.2031"/><line style="stroke:#181818;stroke-width:0.5;" x1="29.5" x2="230.5" y1="221.2031" y2="221.2031"/></g><!--class CandidateManagementService--><g id="elem_CandidateManagementService"><rect codeLine="12" fill="#F1F1F1" height="60.582" id="CandidateManagementService" rx="2.5" ry="2.5" style="stroke:#181818;stroke-width:0.5;" width="226" x="17" y="308.6211"/><ellipse cx="32" cy="330.9121" fill="#ADD1B2" rx="11" ry="11" style="stroke:#181818;stroke-width:1.0;"/><path d="M34.7656,326.7871 Q34.9219,326.5684 35.1094,326.459 Q35.2969,326.3496 35.5156,326.3496 Q35.8906,326.3496 36.125,326.6152 Q36.3594,326.8652 36.3594,327.4746 L36.3594,328.9277 Q36.3594,329.5371 36.125,329.8027 Q35.8906,330.0684 35.5156,330.0684 Q35.1719,330.0684 34.9688,329.8652 Q34.7656,329.6777 34.6563,329.1621 Q34.6094,328.8027 34.4219,328.6152 Q34.0938,328.2402 33.4844,328.0215 Q32.875,327.8027 32.25,327.8027 Q31.4844,327.8027 30.8438,328.1309 Q30.2188,328.459 29.7188,329.209 Q29.2344,329.959 29.2344,330.9902 L29.2344,332.084 Q29.2344,333.3184 30.125,334.1465 Q31.0156,334.959 32.6094,334.959 Q33.5469,334.959 34.2031,334.709 Q34.5938,334.5527 35.0156,334.1152 Q35.2813,333.8496 35.4219,333.7715 Q35.5781,333.6934 35.7813,333.6934 Q36.1094,333.6934 36.3594,333.959 Q36.625,334.209 36.625,334.5527 Q36.625,334.8965 36.2813,335.3027 Q35.7813,335.8809 34.9844,336.209 Q33.9063,336.6621 32.6094,336.6621 Q31.0938,336.6621 29.8906,336.0371 Q28.9063,335.5371 28.2188,334.4746 Q27.5313,333.3965 27.5313,332.1152 L27.5313,330.959 Q27.5313,329.6309 28.1406,328.4902 Q28.7656,327.334 29.8594,326.7246 Q30.9531,326.0996 32.1875,326.0996 Q32.9219,326.0996 33.5625,326.2715 Q34.2188,326.4277 34.7656,326.7871 Z " fill="#000000"/><text fill="#000000" font-family="sans-serif" font-size="12" font-style="italic" lengthAdjust="spacing" textLength="53" x="116.5" y="326.5703">&#171;service&#187;</text><text fill="#000000" font-family="sans-serif" font-size="14" lengthAdjust="spacing" textLength="194" x="46" y="344.6895">CandidateManagementService</text><line style="stroke:#181818;stroke-width:0.5;" x1="18" x2="242" y1="353.2031" y2="353.2031"/><line style="stroke:#181818;stroke-width:0.5;" x1="18" x2="242" y1="361.2031" y2="361.2031"/></g><!--class CandidateRepository--><g id="elem_CandidateRepository"><rect codeLine="14" fill="#F1F1F1" height="60.582" id="CandidateRepository" rx="2.5" ry="2.5" style="stroke:#181818;stroke-width:0.5;" width="165" x="47.5" y="448.6211"/><ellipse cx="62.5" cy="470.9121" fill="#ADD1B2" rx="11" ry="11" style="stroke:#181818;stroke-width:1.0;"/><path d="M65.2656,466.7871 Q65.4219,466.5684 65.6094,466.459 Q65.7969,466.3496 66.0156,466.3496 Q66.3906,466.3496 66.625,466.6152 Q66.8594,466.8652 66.8594,467.4746 L66.8594,468.9277 Q66.8594,469.5371 66.625,469.8027 Q66.3906,470.0684 66.0156,470.0684 Q65.6719,470.0684 65.4688,469.8652 Q65.2656,469.6777 65.1563,469.1621 Q65.1094,468.8027 64.9219,468.6152 Q64.5938,468.2402 63.9844,468.0215 Q63.375,467.8027 62.75,467.8027 Q61.9844,467.8027 61.3438,468.1309 Q60.7188,468.459 60.2188,469.209 Q59.7344,469.959 59.7344,470.9902 L59.7344,472.084 Q59.7344,473.3184 60.625,474.1465 Q61.5156,474.959 63.1094,474.959 Q64.0469,474.959 64.7031,474.709 Q65.0938,474.5527 65.5156,474.1152 Q65.7813,473.8496 65.9219,473.7715 Q66.0781,473.6934 66.2813,473.6934 Q66.6094,473.6934 66.8594,473.959 Q67.125,474.209 67.125,474.5527 Q67.125,474.8965 66.7813,475.3027 Q66.2813,475.8809 65.4844,476.209 Q64.4063,476.6621 63.1094,476.6621 Q61.5938,476.6621 60.3906,476.0371 Q59.4063,475.5371 58.7188,474.4746 Q58.0313,473.3965 58.0313,472.1152 L58.0313,470.959 Q58.0313,469.6309 58.6406,468.4902 Q59.2656,467.334 60.3594,466.7246 Q61.4531,466.0996 62.6875,466.0996 Q63.4219,466.0996 64.0625,466.2715 Q64.7188,466.4277 65.2656,466.7871 Z " fill="#000000"/><text fill="#000000" font-family="sans-serif" font-size="12" font-style="italic" lengthAdjust="spacing" textLength="68" x="109" y="466.5703">&#171;repository&#187;</text><text fill="#000000" font-family="sans-serif" font-size="14" lengthAdjust="spacing" textLength="133" x="76.5" y="484.6895">CandidateRepository</text><line style="stroke:#181818;stroke-width:0.5;" x1="48.5" x2="211.5" y1="493.2031" y2="493.2031"/><line style="stroke:#181818;stroke-width:0.5;" x1="48.5" x2="211.5" y1="501.2031" y2="501.2031"/></g><!--class RepositoryFactory--><g id="elem_RepositoryFactory"><rect codeLine="16" fill="#F1F1F1" height="60.582" id="RepositoryFactory" rx="2.5" ry="2.5" style="stroke:#181818;stroke-width:0.5;" width="148" x="7" y="588.6211"/><ellipse cx="22" cy="610.9121" fill="#ADD1B2" rx="11" ry="11" style="stroke:#181818;stroke-width:1.0;"/><path d="M24.7656,606.7871 Q24.9219,606.5684 25.1094,606.459 Q25.2969,606.3496 25.5156,606.3496 Q25.8906,606.3496 26.125,606.6152 Q26.3594,606.8652 26.3594,607.4746 L26.3594,608.9277 Q26.3594,609.5371 26.125,609.8027 Q25.8906,610.0684 25.5156,610.0684 Q25.1719,610.0684 24.9688,609.8652 Q24.7656,609.6777 24.6563,609.1621 Q24.6094,608.8027 24.4219,608.6152 Q24.0938,608.2402 23.4844,608.0215 Q22.875,607.8027 22.25,607.8027 Q21.4844,607.8027 20.8438,608.1309 Q20.2188,608.459 19.7188,609.209 Q19.2344,609.959 19.2344,610.9902 L19.2344,612.084 Q19.2344,613.3184 20.125,614.1465 Q21.0156,614.959 22.6094,614.959 Q23.5469,614.959 24.2031,614.709 Q24.5938,614.5527 25.0156,614.1152 Q25.2813,613.8496 25.4219,613.7715 Q25.5781,613.6934 25.7813,613.6934 Q26.1094,613.6934 26.3594,613.959 Q26.625,614.209 26.625,614.5527 Q26.625,614.8965 26.2813,615.3027 Q25.7813,615.8809 24.9844,616.209 Q23.9063,616.6621 22.6094,616.6621 Q21.0938,616.6621 19.8906,616.0371 Q18.9063,615.5371 18.2188,614.4746 Q17.5313,613.3965 17.5313,612.1152 L17.5313,610.959 Q17.5313,609.6309 18.1406,608.4902 Q18.7656,607.334 19.8594,606.7246 Q20.9531,606.0996 22.1875,606.0996 Q22.9219,606.0996 23.5625,606.2715 Q24.2188,606.4277 24.7656,606.7871 Z " fill="#000000"/><text fill="#000000" font-family="sans-serif" font-size="12" font-style="italic" lengthAdjust="spacing" textLength="50" x="69" y="606.5703">&#171;factory&#187;</text><text fill="#000000" font-family="sans-serif" font-size="14" lengthAdjust="spacing" textLength="116" x="36" y="624.6895">RepositoryFactory</text><line style="stroke:#181818;stroke-width:0.5;" x1="8" x2="154" y1="633.2031" y2="633.2031"/><line style="stroke:#181818;stroke-width:0.5;" x1="8" x2="154" y1="641.2031" y2="641.2031"/></g><!--class Candidate--><g id="elem_Candidate"><rect codeLine="18" fill="#F1F1F1" height="60.582" id="Candidate" rx="2.5" ry="2.5" style="stroke:#181818;stroke-width:0.5;" width="97" x="190.5" y="588.6211"/><ellipse cx="205.5" cy="610.9121" fill="#ADD1B2" rx="11" ry="11" style="stroke:#181818;stroke-width:1.0;"/><path d="M208.2656,606.7871 Q208.4219,606.5684 208.6094,606.459 Q208.7969,606.3496 209.0156,606.3496 Q209.3906,606.3496 209.625,606.6152 Q209.8594,606.8652 209.8594,607.4746 L209.8594,608.9277 Q209.8594,609.5371 209.625,609.8027 Q209.3906,610.0684 209.0156,610.0684 Q208.6719,610.0684 208.4688,609.8652 Q208.2656,609.6777 208.1563,609.1621 Q208.1094,608.8027 207.9219,608.6152 Q207.5938,608.2402 206.9844,608.0215 Q206.375,607.8027 205.75,607.8027 Q204.9844,607.8027 204.3438,608.1309 Q203.7188,608.459 203.2188,609.209 Q202.7344,609.959 202.7344,610.9902 L202.7344,612.084 Q202.7344,613.3184 203.625,614.1465 Q204.5156,614.959 206.1094,614.959 Q207.0469,614.959 207.7031,614.709 Q208.0938,614.5527 208.5156,614.1152 Q208.7813,613.8496 208.9219,613.7715 Q209.0781,613.6934 209.2813,613.6934 Q209.6094,613.6934 209.8594,613.959 Q210.125,614.209 210.125,614.5527 Q210.125,614.8965 209.7813,615.3027 Q209.2813,615.8809 208.4844,616.209 Q207.4063,616.6621 206.1094,616.6621 Q204.5938,616.6621 203.3906,616.0371 Q202.4063,615.5371 201.7188,614.4746 Q201.0313,613.3965 201.0313,612.1152 L201.0313,610.959 Q201.0313,609.6309 201.6406,608.4902 Q202.2656,607.334 203.3594,606.7246 Q204.4531,606.0996 205.6875,606.0996 Q206.4219,606.0996 207.0625,606.2715 Q207.7188,606.4277 208.2656,606.7871 Z " fill="#000000"/><text fill="#000000" font-family="sans-serif" font-size="12" font-style="italic" lengthAdjust="spacing" textLength="35" x="234.5" y="606.5703">&#171;root&#187;</text><text fill="#000000" font-family="sans-serif" font-size="14" lengthAdjust="spacing" textLength="65" x="219.5" y="624.6895">Candidate</text><line style="stroke:#181818;stroke-width:0.5;" x1="191.5" x2="286.5" y1="633.2031" y2="633.2031"/><line style="stroke:#181818;stroke-width:0.5;" x1="191.5" x2="286.5" y1="641.2031" y2="641.2031"/></g><!--class EmailAddress--><g id="elem_EmailAddress"><rect codeLine="20" fill="#F1F1F1" height="76.543" id="EmailAddress" rx="2.5" ry="2.5" style="stroke:#181818;stroke-width:0.5;" width="118" x="435" y="728.6211"/><ellipse cx="450" cy="758.8926" fill="#ADD1B2" rx="11" ry="11" style="stroke:#181818;stroke-width:1.0;"/><path d="M452.7656,754.7676 Q452.9219,754.5488 453.1094,754.4395 Q453.2969,754.3301 453.5156,754.3301 Q453.8906,754.3301 454.125,754.5957 Q454.3594,754.8457 454.3594,755.4551 L454.3594,756.9082 Q454.3594,757.5176 454.125,757.7832 Q453.8906,758.0488 453.5156,758.0488 Q453.1719,758.0488 452.9688,757.8457 Q452.7656,757.6582 452.6563,757.1426 Q452.6094,756.7832 452.4219,756.5957 Q452.0938,756.2207 451.4844,756.002 Q450.875,755.7832 450.25,755.7832 Q449.4844,755.7832 448.8438,756.1113 Q448.2188,756.4395 447.7188,757.1895 Q447.2344,757.9395 447.2344,758.9707 L447.2344,760.0645 Q447.2344,761.2988 448.125,762.127 Q449.0156,762.9395 450.6094,762.9395 Q451.5469,762.9395 452.2031,762.6895 Q452.5938,762.5332 453.0156,762.0957 Q453.2813,761.8301 453.4219,761.752 Q453.5781,761.6738 453.7813,761.6738 Q454.1094,761.6738 454.3594,761.9395 Q454.625,762.1895 454.625,762.5332 Q454.625,762.877 454.2813,763.2832 Q453.7813,763.8613 452.9844,764.1895 Q451.9063,764.6426 450.6094,764.6426 Q449.0938,764.6426 447.8906,764.0176 Q446.9063,763.5176 446.2188,762.4551 Q445.5313,761.377 445.5313,760.0957 L445.5313,758.9395 Q445.5313,757.6113 446.1406,756.4707 Q446.7656,755.3145 447.8594,754.7051 Q448.9531,754.0801 450.1875,754.0801 Q450.9219,754.0801 451.5625,754.252 Q452.2188,754.4082 452.7656,754.7676 Z " fill="#000000"/><text fill="#000000" font-family="sans-serif" font-size="12" font-style="italic" lengthAdjust="spacing" textLength="44" x="485" y="746.5703">&#171;value&#187;</text><text fill="#000000" font-family="sans-serif" font-size="12" font-style="italic" lengthAdjust="spacing" textLength="24" x="495" y="762.5313">&#171;id&#187;</text><text fill="#000000" font-family="sans-serif" font-size="14" lengthAdjust="spacing" textLength="86" x="464" y="780.6504">EmailAddress</text><line style="stroke:#181818;stroke-width:0.5;" x1="436" x2="552" y1="789.1641" y2="789.1641"/><line style="stroke:#181818;stroke-width:0.5;" x1="436" x2="552" y1="797.1641" y2="797.1641"/></g><!--class SystemUser--><g id="elem_SystemUser"><rect codeLine="22" fill="#F1F1F1" height="60.582" id="SystemUser" rx="2.5" ry="2.5" style="stroke:#181818;stroke-width:0.5;" width="107" x="185.5" y="736.6211"/><ellipse cx="200.5" cy="758.9121" fill="#ADD1B2" rx="11" ry="11" style="stroke:#181818;stroke-width:1.0;"/><path d="M203.2656,754.7871 Q203.4219,754.5684 203.6094,754.459 Q203.7969,754.3496 204.0156,754.3496 Q204.3906,754.3496 204.625,754.6152 Q204.8594,754.8652 204.8594,755.4746 L204.8594,756.9277 Q204.8594,757.5371 204.625,757.8027 Q204.3906,758.0684 204.0156,758.0684 Q203.6719,758.0684 203.4688,757.8652 Q203.2656,757.6777 203.1563,757.1621 Q203.1094,756.8027 202.9219,756.6152 Q202.5938,756.2402 201.9844,756.0215 Q201.375,755.8027 200.75,755.8027 Q199.9844,755.8027 199.3438,756.1309 Q198.7188,756.459 198.2188,757.209 Q197.7344,757.959 197.7344,758.9902 L197.7344,760.084 Q197.7344,761.3184 198.625,762.1465 Q199.5156,762.959 201.1094,762.959 Q202.0469,762.959 202.7031,762.709 Q203.0938,762.5527 203.5156,762.1152 Q203.7813,761.8496 203.9219,761.7715 Q204.0781,761.6934 204.2813,761.6934 Q204.6094,761.6934 204.8594,761.959 Q205.125,762.209 205.125,762.5527 Q205.125,762.8965 204.7813,763.3027 Q204.2813,763.8809 203.4844,764.209 Q202.4063,764.6621 201.1094,764.6621 Q199.5938,764.6621 198.3906,764.0371 Q197.4063,763.5371 196.7188,762.4746 Q196.0313,761.3965 196.0313,760.1152 L196.0313,758.959 Q196.0313,757.6309 196.6406,756.4902 Q197.2656,755.334 198.3594,754.7246 Q199.4531,754.0996 200.6875,754.0996 Q201.4219,754.0996 202.0625,754.2715 Q202.7188,754.4277 203.2656,754.7871 Z " fill="#000000"/><text fill="#000000" font-family="sans-serif" font-size="12" font-style="italic" lengthAdjust="spacing" textLength="35" x="234.5" y="754.5703">&#171;root&#187;</text><text fill="#000000" font-family="sans-serif" font-size="14" lengthAdjust="spacing" textLength="75" x="214.5" y="772.6895">SystemUser</text><line style="stroke:#181818;stroke-width:0.5;" x1="186.5" x2="291.5" y1="781.2031" y2="781.2031"/><line style="stroke:#181818;stroke-width:0.5;" x1="186.5" x2="291.5" y1="789.2031" y2="789.2031"/></g><!--class Name--><g id="elem_Name"><rect codeLine="24" fill="#F1F1F1" height="60.582" id="Name" rx="2.5" ry="2.5" style="stroke:#181818;stroke-width:0.5;" width="72" x="328" y="736.6211"/><ellipse cx="343" cy="758.9121" fill="#ADD1B2" rx="11" ry="11" style="stroke:#181818;stroke-width:1.0;"/><path d="M345.7656,754.7871 Q345.9219,754.5684 346.1094,754.459 Q346.2969,754.3496 346.5156,754.3496 Q346.8906,754.3496 347.125,754.6152 Q347.3594,754.8652 347.3594,755.4746 L347.3594,756.9277 Q347.3594,757.5371 347.125,757.8027 Q346.8906,758.0684 346.5156,758.0684 Q346.1719,758.0684 345.9688,757.8652 Q345.7656,757.6777 345.6563,757.1621 Q345.6094,756.8027 345.4219,756.6152 Q345.0938,756.2402 344.4844,756.0215 Q343.875,755.8027 343.25,755.8027 Q342.4844,755.8027 341.8438,756.1309 Q341.2188,756.459 340.7188,757.209 Q340.2344,757.959 340.2344,758.9902 L340.2344,760.084 Q340.2344,761.3184 341.125,762.1465 Q342.0156,762.959 343.6094,762.959 Q344.5469,762.959 345.2031,762.709 Q345.5938,762.5527 346.0156,762.1152 Q346.2813,761.8496 346.4219,761.7715 Q346.5781,761.6934 346.7813,761.6934 Q347.1094,761.6934 347.3594,761.959 Q347.625,762.209 347.625,762.5527 Q347.625,762.8965 347.2813,763.3027 Q346.7813,763.8809 345.9844,764.209 Q344.9063,764.6621 343.6094,764.6621 Q342.0938,764.6621 340.8906,764.0371 Q339.9063,763.5371 339.2188,762.4746 Q338.5313,761.3965 338.5313,760.1152 L338.5313,758.959 Q338.5313,757.6309 339.1406,756.4902 Q339.7656,755.334 340.8594,754.7246 Q341.9531,754.0996 343.1875,754.0996 Q343.9219,754.0996 344.5625,754.2715 Q345.2188,754.4277 345.7656,754.7871 Z " fill="#000000"/><text fill="#000000" font-family="sans-serif" font-size="12" font-style="italic" lengthAdjust="spacing" textLength="44" x="355" y="754.5703">&#171;value&#187;</text><text fill="#000000" font-family="sans-serif" font-size="14" lengthAdjust="spacing" textLength="36" x="359" y="772.6895">Name</text><line style="stroke:#181818;stroke-width:0.5;" x1="329" x2="399" y1="781.2031" y2="781.2031"/><line style="stroke:#181818;stroke-width:0.5;" x1="329" x2="399" y1="789.2031" y2="789.2031"/></g><!--class RoleSet--><g id="elem_RoleSet"><rect codeLine="33" fill="#F1F1F1" height="60.582" id="RoleSet" rx="2.5" ry="2.5" style="stroke:#181818;stroke-width:0.5;" width="82" x="68" y="736.6211"/><ellipse cx="83" cy="758.9121" fill="#ADD1B2" rx="11" ry="11" style="stroke:#181818;stroke-width:1.0;"/><path d="M85.7656,754.7871 Q85.9219,754.5684 86.1094,754.459 Q86.2969,754.3496 86.5156,754.3496 Q86.8906,754.3496 87.125,754.6152 Q87.3594,754.8652 87.3594,755.4746 L87.3594,756.9277 Q87.3594,757.5371 87.125,757.8027 Q86.8906,758.0684 86.5156,758.0684 Q86.1719,758.0684 85.9688,757.8652 Q85.7656,757.6777 85.6563,757.1621 Q85.6094,756.8027 85.4219,756.6152 Q85.0938,756.2402 84.4844,756.0215 Q83.875,755.8027 83.25,755.8027 Q82.4844,755.8027 81.8438,756.1309 Q81.2188,756.459 80.7188,757.209 Q80.2344,757.959 80.2344,758.9902 L80.2344,760.084 Q80.2344,761.3184 81.125,762.1465 Q82.0156,762.959 83.6094,762.959 Q84.5469,762.959 85.2031,762.709 Q85.5938,762.5527 86.0156,762.1152 Q86.2813,761.8496 86.4219,761.7715 Q86.5781,761.6934 86.7813,761.6934 Q87.1094,761.6934 87.3594,761.959 Q87.625,762.209 87.625,762.5527 Q87.625,762.8965 87.2813,763.3027 Q86.7813,763.8809 85.9844,764.209 Q84.9063,764.6621 83.6094,764.6621 Q82.0938,764.6621 80.8906,764.0371 Q79.9063,763.5371 79.2188,762.4746 Q78.5313,761.3965 78.5313,760.1152 L78.5313,758.959 Q78.5313,757.6309 79.1406,756.4902 Q79.7656,755.334 80.8594,754.7246 Q81.9531,754.0996 83.1875,754.0996 Q83.9219,754.0996 84.5625,754.2715 Q85.2188,754.4277 85.7656,754.7871 Z " fill="#000000"/><text fill="#000000" font-family="sans-serif" font-size="12" font-style="italic" lengthAdjust="spacing" textLength="44" x="100" y="754.5703">&#171;value&#187;</text><text fill="#000000" font-family="sans-serif" font-size="14" lengthAdjust="spacing" textLength="50" x="97" y="772.6895">RoleSet</text><line style="stroke:#181818;stroke-width:0.5;" x1="69" x2="149" y1="781.2031" y2="781.2031"/><line style="stroke:#181818;stroke-width:0.5;" x1="69" x2="149" y1="789.2031" y2="789.2031"/></g><!--class RoleAssignment--><g id="elem_RoleAssignment"><rect codeLine="28" fill="#F1F1F1" height="60.582" id="RoleAssignment" rx="2.5" ry="2.5" style="stroke:#181818;stroke-width:0.5;" width="134" x="429" y="866.6211"/><ellipse cx="444" cy="888.9121" fill="#ADD1B2" rx="11" ry="11" style="stroke:#181818;stroke-width:1.0;"/><path d="M446.7656,884.7871 Q446.9219,884.5684 447.1094,884.459 Q447.2969,884.3496 447.5156,884.3496 Q447.8906,884.3496 448.125,884.6152 Q448.3594,884.8652 448.3594,885.4746 L448.3594,886.9277 Q448.3594,887.5371 448.125,887.8027 Q447.8906,888.0684 447.5156,888.0684 Q447.1719,888.0684 446.9688,887.8652 Q446.7656,887.6777 446.6563,887.1621 Q446.6094,886.8027 446.4219,886.6152 Q446.0938,886.2402 445.4844,886.0215 Q444.875,885.8027 444.25,885.8027 Q443.4844,885.8027 442.8438,886.1309 Q442.2188,886.459 441.7188,887.209 Q441.2344,887.959 441.2344,888.9902 L441.2344,890.084 Q441.2344,891.3184 442.125,892.1465 Q443.0156,892.959 444.6094,892.959 Q445.5469,892.959 446.2031,892.709 Q446.5938,892.5527 447.0156,892.1152 Q447.2813,891.8496 447.4219,891.7715 Q447.5781,891.6934 447.7813,891.6934 Q448.1094,891.6934 448.3594,891.959 Q448.625,892.209 448.625,892.5527 Q448.625,892.8965 448.2813,893.3027 Q447.7813,893.8809 446.9844,894.209 Q445.9063,894.6621 444.6094,894.6621 Q443.0938,894.6621 441.8906,894.0371 Q440.9063,893.5371 440.2188,892.4746 Q439.5313,891.3965 439.5313,890.1152 L439.5313,888.959 Q439.5313,887.6309 440.1406,886.4902 Q440.7656,885.334 441.8594,884.7246 Q442.9531,884.0996 444.1875,884.0996 Q444.9219,884.0996 445.5625,884.2715 Q446.2188,884.4277 446.7656,884.7871 Z " fill="#000000"/><text fill="#000000" font-family="sans-serif" font-size="12" font-style="italic" lengthAdjust="spacing" textLength="43" x="487.5" y="884.5703">&#171;entity&#187;</text><text fill="#000000" font-family="sans-serif" font-size="14" lengthAdjust="spacing" textLength="102" x="458" y="902.6895">RoleAssignment</text><line style="stroke:#181818;stroke-width:0.5;" x1="430" x2="562" y1="911.2031" y2="911.2031"/><line style="stroke:#181818;stroke-width:0.5;" x1="430" x2="562" y1="919.2031" y2="919.2031"/></g><!--class Role--><g id="elem_Role"><rect codeLine="30" fill="#F1F1F1" height="60.582" id="Role" rx="2.5" ry="2.5" style="stroke:#181818;stroke-width:0.5;" width="72" x="588" y="736.6211"/><ellipse cx="603" cy="758.9121" fill="#EB937F" rx="11" ry="11" style="stroke:#181818;stroke-width:1.0;"/><path d="M601.8594,759.709 L601.8594,762.209 L606.1875,762.209 L606.1875,761.2871 Q606.1875,760.6777 606.4219,760.4121 Q606.6719,760.1465 607.0469,760.1465 Q607.4219,760.1465 607.6563,760.4121 Q607.8906,760.6777 607.8906,761.2871 L607.8906,763.9121 L599.8906,763.9121 Q599.2656,763.9121 599,763.6777 Q598.75,763.4434 598.75,763.0527 Q598.75,762.6777 599.0156,762.4434 Q599.2813,762.209 599.8906,762.209 L600.1563,762.209 L600.1563,755.5527 L599.8906,755.5527 Q599.2656,755.5527 599,755.3184 Q598.75,755.084 598.75,754.6934 Q598.75,754.3184 599,754.084 Q599.2656,753.8496 599.8906,753.8496 L607.5156,753.8496 L607.5156,756.4434 Q607.5156,757.0527 607.2813,757.3184 Q607.0625,757.5684 606.6719,757.5684 Q606.2969,757.5684 606.0625,757.3184 Q605.8281,757.0527 605.8281,756.4434 L605.8281,755.5527 L601.8594,755.5527 L601.8594,758.0059 L603.3438,758.0059 Q603.3438,757.3496 603.4688,757.1621 Q603.7344,756.7559 604.2031,756.7559 Q604.5781,756.7559 604.8125,757.0215 Q605.0469,757.2715 605.0469,757.8809 L605.0469,759.8496 Q605.0469,760.3965 604.9219,760.584 Q604.6563,760.9746 604.2031,760.9746 Q603.7344,760.9746 603.4688,760.5684 Q603.3438,760.3809 603.3438,759.709 L601.8594,759.709 Z " fill="#000000"/><text fill="#000000" font-family="sans-serif" font-size="12" font-style="italic" lengthAdjust="spacing" textLength="44" x="615" y="754.5703">&#171;value&#187;</text><text fill="#000000" font-family="sans-serif" font-size="14" lengthAdjust="spacing" textLength="29" x="622.5" y="772.6895">Role</text><line style="stroke:#181818;stroke-width:0.5;" x1="589" x2="659" y1="781.2031" y2="781.2031"/><line style="stroke:#181818;stroke-width:0.5;" x1="589" x2="659" y1="789.2031" y2="789.2031"/></g><!--class Set--><g id="elem_Set"><rect codeLine="35" fill="#F1F1F1" height="60.582" id="Set" rx="2.5" ry="2.5" style="stroke:#181818;stroke-width:0.5;" width="167" x="25.5" y="866.6211"/><ellipse cx="40.5" cy="888.9121" fill="#ADD1B2" rx="11" ry="11" style="stroke:#181818;stroke-width:1.0;"/><path d="M43.2656,884.7871 Q43.4219,884.5684 43.6094,884.459 Q43.7969,884.3496 44.0156,884.3496 Q44.3906,884.3496 44.625,884.6152 Q44.8594,884.8652 44.8594,885.4746 L44.8594,886.9277 Q44.8594,887.5371 44.625,887.8027 Q44.3906,888.0684 44.0156,888.0684 Q43.6719,888.0684 43.4688,887.8652 Q43.2656,887.6777 43.1563,887.1621 Q43.1094,886.8027 42.9219,886.6152 Q42.5938,886.2402 41.9844,886.0215 Q41.375,885.8027 40.75,885.8027 Q39.9844,885.8027 39.3438,886.1309 Q38.7188,886.459 38.2188,887.209 Q37.7344,887.959 37.7344,888.9902 L37.7344,890.084 Q37.7344,891.3184 38.625,892.1465 Q39.5156,892.959 41.1094,892.959 Q42.0469,892.959 42.7031,892.709 Q43.0938,892.5527 43.5156,892.1152 Q43.7813,891.8496 43.9219,891.7715 Q44.0781,891.6934 44.2813,891.6934 Q44.6094,891.6934 44.8594,891.959 Q45.125,892.209 45.125,892.5527 Q45.125,892.8965 44.7813,893.3027 Q44.2813,893.8809 43.4844,894.209 Q42.4063,894.6621 41.1094,894.6621 Q39.5938,894.6621 38.3906,894.0371 Q37.4063,893.5371 36.7188,892.4746 Q36.0313,891.3965 36.0313,890.1152 L36.0313,888.959 Q36.0313,887.6309 36.6406,886.4902 Q37.2656,885.334 38.3594,884.7246 Q39.4531,884.0996 40.6875,884.0996 Q41.4219,884.0996 42.0625,884.2715 Q42.7188,884.4277 43.2656,884.7871 Z " fill="#000000"/><text fill="#000000" font-family="sans-serif" font-size="12" font-style="italic" lengthAdjust="spacing" textLength="44" x="52.5" y="884.5703">&#171;value&#187;</text><text fill="#000000" font-family="sans-serif" font-size="14" lengthAdjust="spacing" textLength="21" x="64" y="902.6895">Set</text><rect fill="#FFFFFF" height="17.9609" style="stroke:#181818;stroke-width:1.0;stroke-dasharray:2.0,2.0;" width="93" x="102.5" y="863.6211"/><text fill="#000000" font-family="sans-serif" font-size="12" font-style="italic" lengthAdjust="spacing" textLength="91" x="103.5" y="877.5703">RoleAssignment</text><line style="stroke:#181818;stroke-width:0.5;" x1="26.5" x2="191.5" y1="911.2031" y2="911.2031"/><line style="stroke:#181818;stroke-width:0.5;" x1="26.5" x2="191.5" y1="919.2031" y2="919.2031"/></g><!--link EnableCandidateUI to EnableCandidateController--><g id="link_EnableCandidateUI_EnableCandidateController"><path codeLine="37" d="M130,107.7811 C130,126.2411 130,143.9111 130,162.3811 " fill="none" id="EnableCandidateUI-to-EnableCandidateController" style="stroke:#181818;stroke-width:1.0;stroke-dasharray:7.0,7.0;"/><polygon fill="#181818" points="130,168.3811,134,159.3811,130,163.3811,126,159.3811,130,168.3811" style="stroke:#181818;stroke-width:1.0;"/></g><!--link EnableCandidateController to CandidateManagementService--><g id="link_EnableCandidateController_CandidateManagementService"><path codeLine="39" d="M130,229.7211 C130,253.0111 130,279.2911 130,302.5611 " fill="none" id="EnableCandidateController-to-CandidateManagementService" style="stroke:#181818;stroke-width:1.0;stroke-dasharray:7.0,7.0;"/><polygon fill="#181818" points="130,308.5611,134,299.5611,130,303.5611,126,299.5611,130,308.5611" style="stroke:#181818;stroke-width:1.0;"/><polygon fill="#000000" points="135,274.2666,137.9389,265.2215,132.0611,265.2215,135,274.2666" style="stroke:#000000;stroke-width:1.0;"/><text fill="#000000" font-family="sans-serif" font-size="13" lengthAdjust="spacing" textLength="28" x="144" y="274.6494">uses</text></g><!--link CandidateManagementService to CandidateRepository--><g id="link_CandidateManagementService_CandidateRepository"><path codeLine="41" d="M130,369.7211 C130,393.0111 130,419.2911 130,442.5611 " fill="none" id="CandidateManagementService-to-CandidateRepository" style="stroke:#181818;stroke-width:1.0;stroke-dasharray:7.0,7.0;"/><polygon fill="#181818" points="130,448.5611,134,439.5611,130,443.5611,126,439.5611,130,448.5611" style="stroke:#181818;stroke-width:1.0;"/><polygon fill="#000000" points="135,414.2666,137.9389,405.2215,132.0611,405.2215,135,414.2666" style="stroke:#000000;stroke-width:1.0;"/><text fill="#000000" font-family="sans-serif" font-size="13" lengthAdjust="spacing" textLength="56" x="144" y="414.6494">accesses</text></g><!--reverse link CandidateRepository to RepositoryFactory--><g id="link_CandidateRepository_RepositoryFactory"><path codeLine="43" d="M116.8159,515.3575 C113.2859,524.8875 111.48,529.8711 108,539.6211 C102.24,555.7711 96,573.8711 90.97,588.6211 " fill="none" id="CandidateRepository-backto-RepositoryFactory" style="stroke:#181818;stroke-width:1.0;stroke-dasharray:7.0,7.0;"/><polygon fill="#181818" points="118.9,509.7311,112.0229,516.7813,117.1633,514.4198,119.5248,519.5601,118.9,509.7311" style="stroke:#181818;stroke-width:1.0;"/><polygon fill="#000000" points="114.6634,544.5514,108.8827,552.1035,114.4258,554.059,114.6634,544.5514" style="stroke:#000000;stroke-width:1.0;"/><text fill="#000000" font-family="sans-serif" font-size="13" lengthAdjust="spacing" textLength="43" x="122" y="554.6494">creates</text></g><!--link CandidateRepository to Candidate--><g id="link_CandidateRepository_Candidate"><path codeLine="44" d="M153.38,509.7211 C171.77,533.0111 193.5498,560.5837 211.9398,583.8537 " fill="none" id="CandidateRepository-to-Candidate" style="stroke:#181818;stroke-width:1.0;stroke-dasharray:7.0,7.0;"/><polygon fill="#181818" points="215.66,588.5611,213.2179,579.0198,212.5598,584.6382,206.9414,583.9801,215.66,588.5611" style="stroke:#181818;stroke-width:1.0;"/><polygon fill="#000000" points="200.0993,553.1901,196.7988,544.2707,192.1864,547.9141,200.0993,553.1901" style="stroke:#000000;stroke-width:1.0;"/><text fill="#000000" font-family="sans-serif" font-size="13" lengthAdjust="spacing" textLength="104" x="206" y="554.6494">saves in database</text></g><!--reverse link Candidate to SystemUser--><g id="link_Candidate_SystemUser"><path codeLine="46" d="M239,655.6711 C239,681.0011 239,711.3011 239,736.6211 " fill="none" id="Candidate-backto-SystemUser" style="stroke:#181818;stroke-width:1.0;stroke-dasharray:7.0,7.0;"/><polygon fill="#181818" points="239,649.6711,235,658.6711,239,654.6711,243,658.6711,239,649.6711" style="stroke:#181818;stroke-width:1.0;"/><polygon fill="#000000" points="244,694.2666,246.9389,685.2215,241.0611,685.2215,244,694.2666" style="stroke:#000000;stroke-width:1.0;"/><text fill="#000000" font-family="sans-serif" font-size="13" lengthAdjust="spacing" textLength="21" x="253" y="694.6494">is a</text></g><!--link SystemUser to Name--><g id="link_SystemUser_Name"><path codeLine="48" d="M292.71,767.1211 C304.41,767.1211 310.1,767.1211 321.8,767.1211 " fill="none" id="SystemUser-to-Name" style="stroke:#181818;stroke-width:1.0;"/><polygon fill="#181818" points="327.8,767.1211,318.8,763.1211,322.8,767.1211,318.8,771.1211,327.8,767.1211" style="stroke:#181818;stroke-width:1.0;"/></g><!--link SystemUser to EmailAddress--><g id="link_SystemUser_EmailAddress"><path codeLine="49" d="M264.09,736.2711 C280.37,718.7911 303.22,698.5911 328.5,689.1211 C358.47,677.8911 370.41,678.2211 400.5,689.1211 C422.76,697.1911 439.0861,708.9927 455.3061,724.3727 " fill="none" id="SystemUser-to-EmailAddress" style="stroke:#181818;stroke-width:1.0;"/><polygon fill="#181818" points="459.66,728.5011,455.8814,719.4059,456.0318,725.0608,450.3769,725.2111,459.66,728.5011" style="stroke:#181818;stroke-width:1.0;"/></g><!--reverse link RoleSet to SystemUser--><g id="link_RoleSet_SystemUser"><path codeLine="50" d="M156.13,767.1211 C167.82,767.1211 173.51,767.1211 185.19,767.1211 " fill="none" id="RoleSet-backto-SystemUser" style="stroke:#181818;stroke-width:1.0;"/><polygon fill="#181818" points="150.13,767.1211,159.13,771.1211,155.13,767.1211,159.13,763.1211,150.13,767.1211" style="stroke:#181818;stroke-width:1.0;"/></g><!--link RoleSet to Set--><g id="link_RoleSet_Set"><path codeLine="51" d="M109,797.8111 C109,818.4911 109,827.9511 109,848.5911 " fill="none" id="RoleSet-to-Set" style="stroke:#181818;stroke-width:1.0;stroke-dasharray:7.0,7.0;"/><polygon fill="none" points="109,866.5911,115,848.5911,103,848.5911,109,866.5911" style="stroke:#181818;stroke-width:1.0;"/></g><!--link RoleSet to RoleAssignment--><g id="link_RoleSet_RoleAssignment"><path codeLine="52" d="M150.04,796.3511 C155.92,799.7611 162.01,802.9611 168,805.6211 C254.52,844.0211 355.3728,868.6032 423.1028,882.5232 " fill="none" id="RoleSet-to-RoleAssignment" style="stroke:#181818;stroke-width:1.0;stroke-dasharray:7.0,7.0;"/><polygon fill="#181818" points="428.98,883.7311,420.9695,878.0012,424.0824,882.7245,419.359,885.8374,428.98,883.7311" style="stroke:#181818;stroke-width:1.0;"/></g><!--reverse link Role to RoleAssignment--><g id="link_Role_RoleAssignment"><path codeLine="53" d="M590.0674,802.0537 C569.3874,822.7337 546.17,845.9511 525.53,866.5911 " fill="none" id="Role-backto-RoleAssignment" style="stroke:#181818;stroke-width:1.0;"/><polygon fill="#181818" points="594.31,797.8111,585.1176,801.3466,590.7745,801.3466,590.7745,807.0035,594.31,797.8111" style="stroke:#181818;stroke-width:1.0;"/></g><!--SRC=[XPFFRgCm4CRlVWeVTmz1LTLJX90YsaezT0-ByW0JCs6j6ZloJB9Ak_lk7KWA9g7j1U7vVlEFpz2BzJk8qEeTc1TeiEAZGntHCFZ6eQ81e3zGXx_MDteBZb0bad50j6AEThDdV3B1L_OLzOrIR5dAbPskxoqq7VsZlF-f5tfTtjpUATNdwWSF6uSb-DhMmBX-qdbkFMFSWi6Y-0GhW-SOdCCek1aE8p-Gp-1bkHOzLnWFrg0aqEbjXlwDkq2MGpmA5eV3I8x08vWpjpszpPJhYeJ0oHejMBUgwuXooFC3kBsCqQrSZr1r9CPsJVroq_nVqEAODmmL75R8yyAAo3Q- -m2YozDoFodwVTlhoHXlwl-t9IMOJyiMANHjPvOLdxjtbP0OsoL-OUDIxmb9Iyyle4cDnDob1cF4Wui2gVrPDcFsKfk80efvircJVa8J78IrNiiPDa0uQTStITnUQaiQEYG9BehUzOjGUf4caiCjYtxsJttuc6N_2Zq9o2_ji-BYYgZJZLXquk9IUmS0]--></g></svg>