<?xml version="1.0" encoding="us-ascii" standalone="no"?><svg xmlns="http://www.w3.org/2000/svg" xmlns:xlink="http://www.w3.org/1999/xlink" contentStyleType="text/css" height="742px" preserveAspectRatio="none" style="width:1251px;height:742px;background:#FFFFFF;" version="1.1" viewBox="0 0 1251 742" width="1251px" zoomAndPan="magnify"><defs/><g><text fill="#000000" font-family="sans-serif" font-size="14" font-weight="bold" lengthAdjust="spacing" textLength="222" x="516" y="30.1074">Sequence Diagram (SD) - UC020</text><rect fill="#FFFFFF" height="484.3652" style="stroke:#181818;stroke-width:1.0;" width="10" x="655.5" y="156.5332"/><rect fill="#FFFFFF" height="93.873" style="stroke:#181818;stroke-width:1.0;" width="10" x="869.5" y="250.4063"/><rect fill="#FFFFFF" height="93.873" style="stroke:#181818;stroke-width:1.0;" width="10" x="869.5" y="508.7344"/><rect fill="#FFFFFF" height="31.291" style="stroke:#181818;stroke-width:1.0;" width="10" x="1112" y="281.6973"/><rect fill="#FFFFFF" height="31.291" style="stroke:#181818;stroke-width:1.0;" width="10" x="1112" y="540.0254"/><rect fill="none" height="144.4551" style="stroke:#000000;stroke-width:1.5;" width="684" x="561" y="466.1523"/><line style="stroke:#181818;stroke-width:0.5;stroke-dasharray:5.0,5.0;" x1="66" x2="66" y1="123.2422" y2="658.8984"/><line style="stroke:#181818;stroke-width:0.5;stroke-dasharray:5.0,5.0;" x1="660" x2="660" y1="123.2422" y2="658.8984"/><line style="stroke:#181818;stroke-width:0.5;stroke-dasharray:5.0,5.0;" x1="874" x2="874" y1="123.2422" y2="658.8984"/><line style="stroke:#181818;stroke-width:0.5;stroke-dasharray:5.0,5.0;" x1="1117" x2="1117" y1="123.2422" y2="658.8984"/><text fill="#000000" font-family="sans-serif" font-size="14" lengthAdjust="spacing" textLength="117" x="5" y="119.7285">CustomerManager</text><ellipse cx="66.5" cy="53.1211" fill="#E2E2F0" rx="8" ry="8" style="stroke:#181818;stroke-width:0.5;"/><path d="M66.5,61.1211 L66.5,88.1211 M53.5,69.1211 L79.5,69.1211 M66.5,88.1211 L53.5,103.1211 M66.5,88.1211 L79.5,103.1211 " fill="none" style="stroke:#181818;stroke-width:0.5;"/><text fill="#000000" font-family="sans-serif" font-size="14" lengthAdjust="spacing" textLength="117" x="5" y="673.0059">CustomerManager</text><ellipse cx="66.5" cy="685.0195" fill="#E2E2F0" rx="8" ry="8" style="stroke:#181818;stroke-width:0.5;"/><path d="M66.5,693.0195 L66.5,720.0195 M53.5,701.0195 L79.5,701.0195 M66.5,720.0195 L53.5,735.0195 M66.5,720.0195 L79.5,735.0195 " fill="none" style="stroke:#181818;stroke-width:0.5;"/><rect fill="#E2E2F0" height="51.2422" rx="2.5" ry="2.5" style="stroke:#181818;stroke-width:0.5;" width="179" x="571" y="71"/><text fill="#000000" font-family="sans-serif" font-size="14" font-style="italic" lengthAdjust="spacing" textLength="95" x="613" y="93.1074">&#171;presentation&#187;</text><text fill="#000000" font-family="sans-serif" font-size="14" lengthAdjust="spacing" textLength="165" x="578" y="111.7285">GenerateInterviewModelUI</text><rect fill="#E2E2F0" height="51.2422" rx="2.5" ry="2.5" style="stroke:#181818;stroke-width:0.5;" width="179" x="571" y="657.8984"/><text fill="#000000" font-family="sans-serif" font-size="14" font-style="italic" lengthAdjust="spacing" textLength="95" x="613" y="680.0059">&#171;presentation&#187;</text><text fill="#000000" font-family="sans-serif" font-size="14" lengthAdjust="spacing" textLength="165" x="578" y="698.627">GenerateInterviewModelUI</text><rect fill="#E2E2F0" height="51.2422" rx="2.5" ry="2.5" style="stroke:#181818;stroke-width:0.5;" width="229" x="760" y="71"/><text fill="#000000" font-family="sans-serif" font-size="14" font-style="italic" lengthAdjust="spacing" textLength="84" x="832.5" y="93.1074">&#171;application&#187;</text><text fill="#000000" font-family="sans-serif" font-size="14" lengthAdjust="spacing" textLength="215" x="767" y="111.7285">GenerateInterviewModelController</text><rect fill="#E2E2F0" height="51.2422" rx="2.5" ry="2.5" style="stroke:#181818;stroke-width:0.5;" width="229" x="760" y="657.8984"/><text fill="#000000" font-family="sans-serif" font-size="14" font-style="italic" lengthAdjust="spacing" textLength="84" x="832.5" y="680.0059">&#171;application&#187;</text><text fill="#000000" font-family="sans-serif" font-size="14" lengthAdjust="spacing" textLength="215" x="767" y="698.627">GenerateInterviewModelController</text><rect fill="#E2E2F0" height="51.2422" rx="2.5" ry="2.5" style="stroke:#181818;stroke-width:0.5;" width="236" x="999" y="71"/><text fill="#000000" font-family="sans-serif" font-size="14" font-style="italic" lengthAdjust="spacing" textLength="60" x="1087" y="93.1074">&#171;service&#187;</text><text fill="#000000" font-family="sans-serif" font-size="14" lengthAdjust="spacing" textLength="222" x="1006" y="111.7285">InterviewModelManagementService</text><rect fill="#E2E2F0" height="51.2422" rx="2.5" ry="2.5" style="stroke:#181818;stroke-width:0.5;" width="236" x="999" y="657.8984"/><text fill="#000000" font-family="sans-serif" font-size="14" font-style="italic" lengthAdjust="spacing" textLength="60" x="1087" y="680.0059">&#171;service&#187;</text><text fill="#000000" font-family="sans-serif" font-size="14" lengthAdjust="spacing" textLength="222" x="1006" y="698.627">InterviewModelManagementService</text><rect fill="#FFFFFF" height="484.3652" style="stroke:#181818;stroke-width:1.0;" width="10" x="655.5" y="156.5332"/><rect fill="#FFFFFF" height="93.873" style="stroke:#181818;stroke-width:1.0;" width="10" x="869.5" y="250.4063"/><rect fill="#FFFFFF" height="93.873" style="stroke:#181818;stroke-width:1.0;" width="10" x="869.5" y="508.7344"/><rect fill="#FFFFFF" height="31.291" style="stroke:#181818;stroke-width:1.0;" width="10" x="1112" y="281.6973"/><rect fill="#FFFFFF" height="31.291" style="stroke:#181818;stroke-width:1.0;" width="10" x="1112" y="540.0254"/><polygon fill="#181818" points="643.5,152.5332,653.5,156.5332,643.5,160.5332,647.5,156.5332" style="stroke:#181818;stroke-width:1.0;"/><line style="stroke:#181818;stroke-width:1.0;" x1="66.5" x2="649.5" y1="156.5332" y2="156.5332"/><text fill="#000000" font-family="sans-serif" font-size="13" lengthAdjust="spacing" textLength="145" x="73.5" y="151.2705">Generate Interview Model</text><polygon fill="#181818" points="77.5,183.8242,67.5,187.8242,77.5,191.8242,73.5,187.8242" style="stroke:#181818;stroke-width:1.0;"/><line style="stroke:#181818;stroke-width:1.0;stroke-dasharray:2.0,2.0;" x1="71.5" x2="654.5" y1="187.8242" y2="187.8242"/><text fill="#000000" font-family="sans-serif" font-size="13" lengthAdjust="spacing" textLength="171" x="83.5" y="182.5615">Ask for Interview Model Name</text><polygon fill="#181818" points="643.5,215.1152,653.5,219.1152,643.5,223.1152,647.5,219.1152" style="stroke:#181818;stroke-width:1.0;"/><line style="stroke:#181818;stroke-width:1.0;" x1="66.5" x2="649.5" y1="219.1152" y2="219.1152"/><text fill="#000000" font-family="sans-serif" font-size="13" lengthAdjust="spacing" textLength="126" x="73.5" y="213.8525">Interview Model Name</text><polygon fill="#181818" points="857.5,246.4063,867.5,250.4063,857.5,254.4063,861.5,250.4063" style="stroke:#181818;stroke-width:1.0;"/><line style="stroke:#181818;stroke-width:1.0;" x1="665.5" x2="863.5" y1="250.4063" y2="250.4063"/><text fill="#000000" font-family="sans-serif" font-size="13" lengthAdjust="spacing" textLength="115" x="672.5" y="245.1436">createFile(fileName)</text><polygon fill="#181818" points="1100,277.6973,1110,281.6973,1100,285.6973,1104,281.6973" style="stroke:#181818;stroke-width:1.0;"/><line style="stroke:#181818;stroke-width:1.0;" x1="879.5" x2="1106" y1="281.6973" y2="281.6973"/><text fill="#000000" font-family="sans-serif" font-size="13" lengthAdjust="spacing" textLength="115" x="886.5" y="276.4346">createFile(fileName)</text><polygon fill="#181818" points="890.5,308.9883,880.5,312.9883,890.5,316.9883,886.5,312.9883" style="stroke:#181818;stroke-width:1.0;"/><line style="stroke:#181818;stroke-width:1.0;stroke-dasharray:2.0,2.0;" x1="884.5" x2="1116" y1="312.9883" y2="312.9883"/><text fill="#000000" font-family="sans-serif" font-size="13" lengthAdjust="spacing" textLength="61" x="896.5" y="307.7256">fileCreated</text><polygon fill="#181818" points="676.5,340.2793,666.5,344.2793,676.5,348.2793,672.5,344.2793" style="stroke:#181818;stroke-width:1.0;"/><line style="stroke:#181818;stroke-width:1.0;stroke-dasharray:2.0,2.0;" x1="670.5" x2="873.5" y1="344.2793" y2="344.2793"/><text fill="#000000" font-family="sans-serif" font-size="13" lengthAdjust="spacing" textLength="61" x="682.5" y="339.0166">fileCreated</text><polygon fill="#181818" points="77.5,371.5703,67.5,375.5703,77.5,379.5703,73.5,375.5703" style="stroke:#181818;stroke-width:1.0;"/><line style="stroke:#181818;stroke-width:1.0;stroke-dasharray:2.0,2.0;" x1="71.5" x2="654.5" y1="375.5703" y2="375.5703"/><text fill="#000000" font-family="sans-serif" font-size="13" lengthAdjust="spacing" textLength="136" x="83.5" y="370.3076">Ask for question details</text><polygon fill="#181818" points="643.5,402.8613,653.5,406.8613,643.5,410.8613,647.5,406.8613" style="stroke:#181818;stroke-width:1.0;"/><line style="stroke:#181818;stroke-width:1.0;" x1="66.5" x2="649.5" y1="406.8613" y2="406.8613"/><text fill="#000000" font-family="sans-serif" font-size="13" lengthAdjust="spacing" textLength="565" x="73.5" y="401.5986">Selects question type, types question, options (if applicable), correct answer(s) and grade system</text><line style="stroke:#181818;stroke-width:1.0;" x1="665.5" x2="707.5" y1="438.1523" y2="438.1523"/><line style="stroke:#181818;stroke-width:1.0;" x1="707.5" x2="707.5" y1="438.1523" y2="451.1523"/><line style="stroke:#181818;stroke-width:1.0;" x1="666.5" x2="707.5" y1="451.1523" y2="451.1523"/><polygon fill="#181818" points="676.5,447.1523,666.5,451.1523,676.5,455.1523,672.5,451.1523" style="stroke:#181818;stroke-width:1.0;"/><text fill="#000000" font-family="sans-serif" font-size="13" lengthAdjust="spacing" textLength="164" x="672.5" y="432.8896">buildQuestion(questionType)</text><path d="M561,466.1523 L634,466.1523 L634,475.4434 L624,485.4434 L561,485.4434 L561,466.1523 " fill="#EEEEEE" style="stroke:#000000;stroke-width:1.5;"/><rect fill="none" height="144.4551" style="stroke:#000000;stroke-width:1.5;" width="684" x="561" y="466.1523"/><text fill="#000000" font-family="sans-serif" font-size="13" font-weight="bold" lengthAdjust="spacing" textLength="28" x="576" y="481.1807">loop</text><text fill="#000000" font-family="sans-serif" font-size="11" font-weight="bold" lengthAdjust="spacing" textLength="185" x="649" y="480.0225">[while (more questions) is (true)]</text><polygon fill="#181818" points="857.5,504.7344,867.5,508.7344,857.5,512.7344,861.5,508.7344" style="stroke:#181818;stroke-width:1.0;"/><line style="stroke:#181818;stroke-width:1.0;" x1="665.5" x2="863.5" y1="508.7344" y2="508.7344"/><text fill="#000000" font-family="sans-serif" font-size="13" lengthAdjust="spacing" textLength="102" x="672.5" y="503.4717">appendQuestion()</text><polygon fill="#181818" points="1100,536.0254,1110,540.0254,1100,544.0254,1104,540.0254" style="stroke:#181818;stroke-width:1.0;"/><line style="stroke:#181818;stroke-width:1.0;" x1="879.5" x2="1106" y1="540.0254" y2="540.0254"/><text fill="#000000" font-family="sans-serif" font-size="13" lengthAdjust="spacing" textLength="102" x="886.5" y="534.7627">appendQuestion()</text><polygon fill="#181818" points="890.5,567.3164,880.5,571.3164,890.5,575.3164,886.5,571.3164" style="stroke:#181818;stroke-width:1.0;"/><line style="stroke:#181818;stroke-width:1.0;stroke-dasharray:2.0,2.0;" x1="884.5" x2="1116" y1="571.3164" y2="571.3164"/><text fill="#000000" font-family="sans-serif" font-size="13" lengthAdjust="spacing" textLength="107" x="896.5" y="566.0537">questionAppended</text><polygon fill="#181818" points="676.5,598.6074,666.5,602.6074,676.5,606.6074,672.5,602.6074" style="stroke:#181818;stroke-width:1.0;"/><line style="stroke:#181818;stroke-width:1.0;stroke-dasharray:2.0,2.0;" x1="670.5" x2="873.5" y1="602.6074" y2="602.6074"/><text fill="#000000" font-family="sans-serif" font-size="13" lengthAdjust="spacing" textLength="107" x="682.5" y="597.3447">questionAppended</text><polygon fill="#181818" points="77.5,636.8984,67.5,640.8984,77.5,644.8984,73.5,640.8984" style="stroke:#181818;stroke-width:1.0;"/><line style="stroke:#181818;stroke-width:1.0;stroke-dasharray:2.0,2.0;" x1="71.5" x2="659.5" y1="640.8984" y2="640.8984"/><text fill="#000000" font-family="sans-serif" font-size="13" lengthAdjust="spacing" textLength="160" x="83.5" y="635.6357">(in)success of the operation</text><!--SRC=[ZPF1Rk8m48RlUOev9X98rHvHX8IeTiMXArKf3s2S2LWuTjRZ5B5Fl-C4Y64JsXmS9_xdcndxDnsLQOGJDJH27iKU2t_M20wb5sQlCQ6RW0wYj2Tbzb09JV6ALWRzkK5eh3w7ZoHQb5eGhRntQjTwt4Xh2lKNuIL9lFASgi0_BHg9yAh4FWIanMi6SzYkNtwmI4Xl7QnRyhP6zoOCr-X04Ap2Gi8vl9Ag4SR3BpJe1ESm7jsdmjERBL5lDq7DOvut3WcD5rvPirn-8tPjZNTMwpvZz9NdeccqacEeUqHVSSrfY_2N-sJITPhdrCyOaNGDmNp9jIvkzGmqw71XFzHdMDXk4k276vjpJ1UyW1KTeMBAGnJy5ZKVIj3VPPcM1UmowdW1qY6d_QaqfXKFGPfrqbj5WxfdX2VQC-PT-du2kmDUv0CjFDUzcp_K5pZh3blUz2LEi-BABjlnY8Z27tiRttPsCWL7SAGNIjF8bXUe-MxH80qNPzQDmyyPs2Qy2L9LmSLgEutP3AHruNA2C7H2brB6inBuufG8T2QFTNo08UEkLRfylv3JQueFJfZrKcrj0wS3DmzfRHtUoc2uuXAyQwFJ-TyPN1-Q8SF8GOuvuuax9e5Vk-EPGwvjhJfyP9Elh39XbqdUk6_22kl6_9Cgar4h9HA1hS0Va0qGxZ_JauYstVm3]--></g></svg>