<?xml version="1.0" encoding="us-ascii" standalone="no"?><svg xmlns="http://www.w3.org/2000/svg" xmlns:xlink="http://www.w3.org/1999/xlink" contentStyleType="text/css" height="293px" preserveAspectRatio="none" style="width:592px;height:293px;background:#FFFFFF;" version="1.1" viewBox="0 0 592 293" width="592px" zoomAndPan="magnify"><defs/><g><text fill="#000000" font-family="sans-serif" font-size="14" font-weight="bold" lengthAdjust="spacing" textLength="190" x="194" y="25.1074">Class Diagram (CD) - UC020</text><!--class GenerateInterviewModelUI--><g id="elem_GenerateInterviewModelUI"><rect codeLine="10" fill="#F1F1F1" height="40" id="GenerateInterviewModelUI" rx="2.5" ry="2.5" style="stroke:#181818;stroke-width:0.5;" width="197" x="7" y="46.6211"/><ellipse cx="22" cy="62.6211" fill="#ADD1B2" rx="11" ry="11" style="stroke:#181818;stroke-width:1.0;"/><path d="M24.7656,58.4961 Q24.9219,58.2773 25.1094,58.168 Q25.2969,58.0586 25.5156,58.0586 Q25.8906,58.0586 26.125,58.3242 Q26.3594,58.5742 26.3594,59.1836 L26.3594,60.6367 Q26.3594,61.2461 26.125,61.5117 Q25.8906,61.7773 25.5156,61.7773 Q25.1719,61.7773 24.9688,61.5742 Q24.7656,61.3867 24.6563,60.8711 Q24.6094,60.5117 24.4219,60.3242 Q24.0938,59.9492 23.4844,59.7305 Q22.875,59.5117 22.25,59.5117 Q21.4844,59.5117 20.8438,59.8398 Q20.2188,60.168 19.7188,60.918 Q19.2344,61.668 19.2344,62.6992 L19.2344,63.793 Q19.2344,65.0273 20.125,65.8555 Q21.0156,66.668 22.6094,66.668 Q23.5469,66.668 24.2031,66.418 Q24.5938,66.2617 25.0156,65.8242 Q25.2813,65.5586 25.4219,65.4805 Q25.5781,65.4023 25.7813,65.4023 Q26.1094,65.4023 26.3594,65.668 Q26.625,65.918 26.625,66.2617 Q26.625,66.6055 26.2813,67.0117 Q25.7813,67.5898 24.9844,67.918 Q23.9063,68.3711 22.6094,68.3711 Q21.0938,68.3711 19.8906,67.7461 Q18.9063,67.2461 18.2188,66.1836 Q17.5313,65.1055 17.5313,63.8242 L17.5313,62.668 Q17.5313,61.3398 18.1406,60.1992 Q18.7656,59.043 19.8594,58.4336 Q20.9531,57.8086 22.1875,57.8086 Q22.9219,57.8086 23.5625,57.9805 Q24.2188,58.1367 24.7656,58.4961 Z " fill="#000000"/><text fill="#000000" font-family="sans-serif" font-size="14" lengthAdjust="spacing" textLength="165" x="36" y="68.418">GenerateInterviewModelUI</text><line style="stroke:#181818;stroke-width:0.5;" x1="8" x2="203" y1="78.6211" y2="78.6211"/></g><!--class GenerateInterviewModelController--><g id="elem_GenerateInterviewModelController"><rect codeLine="13" fill="#F1F1F1" height="40" id="GenerateInterviewModelController" rx="2.5" ry="2.5" style="stroke:#181818;stroke-width:0.5;" width="247" x="239" y="46.6211"/><ellipse cx="254" cy="62.6211" fill="#ADD1B2" rx="11" ry="11" style="stroke:#181818;stroke-width:1.0;"/><path d="M256.7656,58.4961 Q256.9219,58.2773 257.1094,58.168 Q257.2969,58.0586 257.5156,58.0586 Q257.8906,58.0586 258.125,58.3242 Q258.3594,58.5742 258.3594,59.1836 L258.3594,60.6367 Q258.3594,61.2461 258.125,61.5117 Q257.8906,61.7773 257.5156,61.7773 Q257.1719,61.7773 256.9688,61.5742 Q256.7656,61.3867 256.6563,60.8711 Q256.6094,60.5117 256.4219,60.3242 Q256.0938,59.9492 255.4844,59.7305 Q254.875,59.5117 254.25,59.5117 Q253.4844,59.5117 252.8438,59.8398 Q252.2188,60.168 251.7188,60.918 Q251.2344,61.668 251.2344,62.6992 L251.2344,63.793 Q251.2344,65.0273 252.125,65.8555 Q253.0156,66.668 254.6094,66.668 Q255.5469,66.668 256.2031,66.418 Q256.5938,66.2617 257.0156,65.8242 Q257.2813,65.5586 257.4219,65.4805 Q257.5781,65.4023 257.7813,65.4023 Q258.1094,65.4023 258.3594,65.668 Q258.625,65.918 258.625,66.2617 Q258.625,66.6055 258.2813,67.0117 Q257.7813,67.5898 256.9844,67.918 Q255.9063,68.3711 254.6094,68.3711 Q253.0938,68.3711 251.8906,67.7461 Q250.9063,67.2461 250.2188,66.1836 Q249.5313,65.1055 249.5313,63.8242 L249.5313,62.668 Q249.5313,61.3398 250.1406,60.1992 Q250.7656,59.043 251.8594,58.4336 Q252.9531,57.8086 254.1875,57.8086 Q254.9219,57.8086 255.5625,57.9805 Q256.2188,58.1367 256.7656,58.4961 Z " fill="#000000"/><text fill="#000000" font-family="sans-serif" font-size="14" lengthAdjust="spacing" textLength="215" x="268" y="68.418">GenerateInterviewModelController</text><line style="stroke:#181818;stroke-width:0.5;" x1="240" x2="485" y1="78.6211" y2="78.6211"/></g><!--class InterviewModelManagementService--><g id="elem_InterviewModelManagementService"><rect codeLine="16" fill="#F1F1F1" height="40" id="InterviewModelManagementService" rx="2.5" ry="2.5" style="stroke:#181818;stroke-width:0.5;" width="254" x="235.5" y="146.6211"/><ellipse cx="250.5" cy="162.6211" fill="#ADD1B2" rx="11" ry="11" style="stroke:#181818;stroke-width:1.0;"/><path d="M253.2656,158.4961 Q253.4219,158.2773 253.6094,158.168 Q253.7969,158.0586 254.0156,158.0586 Q254.3906,158.0586 254.625,158.3242 Q254.8594,158.5742 254.8594,159.1836 L254.8594,160.6367 Q254.8594,161.2461 254.625,161.5117 Q254.3906,161.7773 254.0156,161.7773 Q253.6719,161.7773 253.4688,161.5742 Q253.2656,161.3867 253.1563,160.8711 Q253.1094,160.5117 252.9219,160.3242 Q252.5938,159.9492 251.9844,159.7305 Q251.375,159.5117 250.75,159.5117 Q249.9844,159.5117 249.3438,159.8398 Q248.7188,160.168 248.2188,160.918 Q247.7344,161.668 247.7344,162.6992 L247.7344,163.793 Q247.7344,165.0273 248.625,165.8555 Q249.5156,166.668 251.1094,166.668 Q252.0469,166.668 252.7031,166.418 Q253.0938,166.2617 253.5156,165.8242 Q253.7813,165.5586 253.9219,165.4805 Q254.0781,165.4023 254.2813,165.4023 Q254.6094,165.4023 254.8594,165.668 Q255.125,165.918 255.125,166.2617 Q255.125,166.6055 254.7813,167.0117 Q254.2813,167.5898 253.4844,167.918 Q252.4063,168.3711 251.1094,168.3711 Q249.5938,168.3711 248.3906,167.7461 Q247.4063,167.2461 246.7188,166.1836 Q246.0313,165.1055 246.0313,163.8242 L246.0313,162.668 Q246.0313,161.3398 246.6406,160.1992 Q247.2656,159.043 248.3594,158.4336 Q249.4531,157.8086 250.6875,157.8086 Q251.4219,157.8086 252.0625,157.9805 Q252.7188,158.1367 253.2656,158.4961 Z " fill="#000000"/><text fill="#000000" font-family="sans-serif" font-size="14" lengthAdjust="spacing" textLength="222" x="264.5" y="168.418">InterviewModelManagementService</text><line style="stroke:#181818;stroke-width:0.5;" x1="236.5" x2="488.5" y1="178.6211" y2="178.6211"/></g><!--class InterviewModel--><g id="elem_InterviewModel"><rect codeLine="19" fill="#F1F1F1" height="40" id="InterviewModel" rx="2.5" ry="2.5" style="stroke:#181818;stroke-width:0.5;" width="125" x="142" y="246.6211"/><ellipse cx="157" cy="262.6211" fill="#ADD1B2" rx="11" ry="11" style="stroke:#181818;stroke-width:1.0;"/><path d="M159.7656,258.4961 Q159.9219,258.2773 160.1094,258.168 Q160.2969,258.0586 160.5156,258.0586 Q160.8906,258.0586 161.125,258.3242 Q161.3594,258.5742 161.3594,259.1836 L161.3594,260.6367 Q161.3594,261.2461 161.125,261.5117 Q160.8906,261.7773 160.5156,261.7773 Q160.1719,261.7773 159.9688,261.5742 Q159.7656,261.3867 159.6563,260.8711 Q159.6094,260.5117 159.4219,260.3242 Q159.0938,259.9492 158.4844,259.7305 Q157.875,259.5117 157.25,259.5117 Q156.4844,259.5117 155.8438,259.8398 Q155.2188,260.168 154.7188,260.918 Q154.2344,261.668 154.2344,262.6992 L154.2344,263.793 Q154.2344,265.0273 155.125,265.8555 Q156.0156,266.668 157.6094,266.668 Q158.5469,266.668 159.2031,266.418 Q159.5938,266.2617 160.0156,265.8242 Q160.2813,265.5586 160.4219,265.4805 Q160.5781,265.4023 160.7813,265.4023 Q161.1094,265.4023 161.3594,265.668 Q161.625,265.918 161.625,266.2617 Q161.625,266.6055 161.2813,267.0117 Q160.7813,267.5898 159.9844,267.918 Q158.9063,268.3711 157.6094,268.3711 Q156.0938,268.3711 154.8906,267.7461 Q153.9063,267.2461 153.2188,266.1836 Q152.5313,265.1055 152.5313,263.8242 L152.5313,262.668 Q152.5313,261.3398 153.1406,260.1992 Q153.7656,259.043 154.8594,258.4336 Q155.9531,257.8086 157.1875,257.8086 Q157.9219,257.8086 158.5625,257.9805 Q159.2188,258.1367 159.7656,258.4961 Z " fill="#000000"/><text fill="#000000" font-family="sans-serif" font-size="14" lengthAdjust="spacing" textLength="93" x="171" y="268.418">InterviewModel</text><line style="stroke:#181818;stroke-width:0.5;" x1="143" x2="266" y1="278.6211" y2="278.6211"/></g><!--class QuestionType--><g id="elem_QuestionType"><rect codeLine="22" fill="#F1F1F1" height="40" id="QuestionType" rx="2.5" ry="2.5" style="stroke:#181818;stroke-width:0.5;" width="121" x="302" y="246.6211"/><ellipse cx="317" cy="262.6211" fill="#EB937F" rx="11" ry="11" style="stroke:#181818;stroke-width:1.0;"/><path d="M315.8594,263.418 L315.8594,265.918 L320.1875,265.918 L320.1875,264.9961 Q320.1875,264.3867 320.4219,264.1211 Q320.6719,263.8555 321.0469,263.8555 Q321.4219,263.8555 321.6563,264.1211 Q321.8906,264.3867 321.8906,264.9961 L321.8906,267.6211 L313.8906,267.6211 Q313.2656,267.6211 313,267.3867 Q312.75,267.1523 312.75,266.7617 Q312.75,266.3867 313.0156,266.1523 Q313.2813,265.918 313.8906,265.918 L314.1563,265.918 L314.1563,259.2617 L313.8906,259.2617 Q313.2656,259.2617 313,259.0273 Q312.75,258.793 312.75,258.4023 Q312.75,258.0273 313,257.793 Q313.2656,257.5586 313.8906,257.5586 L321.5156,257.5586 L321.5156,260.1523 Q321.5156,260.7617 321.2813,261.0273 Q321.0625,261.2773 320.6719,261.2773 Q320.2969,261.2773 320.0625,261.0273 Q319.8281,260.7617 319.8281,260.1523 L319.8281,259.2617 L315.8594,259.2617 L315.8594,261.7148 L317.3438,261.7148 Q317.3438,261.0586 317.4688,260.8711 Q317.7344,260.4648 318.2031,260.4648 Q318.5781,260.4648 318.8125,260.7305 Q319.0469,260.9805 319.0469,261.5898 L319.0469,263.5586 Q319.0469,264.1055 318.9219,264.293 Q318.6563,264.6836 318.2031,264.6836 Q317.7344,264.6836 317.4688,264.2773 Q317.3438,264.0898 317.3438,263.418 L315.8594,263.418 Z " fill="#000000"/><text fill="#000000" font-family="sans-serif" font-size="14" lengthAdjust="spacing" textLength="89" x="331" y="268.418">QuestionType</text><line style="stroke:#181818;stroke-width:0.5;" x1="303" x2="422" y1="278.6211" y2="278.6211"/></g><!--class InterviewToken--><g id="elem_InterviewToken"><rect codeLine="25" fill="#F1F1F1" height="40" id="InterviewToken" rx="2.5" ry="2.5" style="stroke:#181818;stroke-width:0.5;" width="127" x="458" y="246.6211"/><ellipse cx="473" cy="262.6211" fill="#EB937F" rx="11" ry="11" style="stroke:#181818;stroke-width:1.0;"/><path d="M471.8594,263.418 L471.8594,265.918 L476.1875,265.918 L476.1875,264.9961 Q476.1875,264.3867 476.4219,264.1211 Q476.6719,263.8555 477.0469,263.8555 Q477.4219,263.8555 477.6563,264.1211 Q477.8906,264.3867 477.8906,264.9961 L477.8906,267.6211 L469.8906,267.6211 Q469.2656,267.6211 469,267.3867 Q468.75,267.1523 468.75,266.7617 Q468.75,266.3867 469.0156,266.1523 Q469.2813,265.918 469.8906,265.918 L470.1563,265.918 L470.1563,259.2617 L469.8906,259.2617 Q469.2656,259.2617 469,259.0273 Q468.75,258.793 468.75,258.4023 Q468.75,258.0273 469,257.793 Q469.2656,257.5586 469.8906,257.5586 L477.5156,257.5586 L477.5156,260.1523 Q477.5156,260.7617 477.2813,261.0273 Q477.0625,261.2773 476.6719,261.2773 Q476.2969,261.2773 476.0625,261.0273 Q475.8281,260.7617 475.8281,260.1523 L475.8281,259.2617 L471.8594,259.2617 L471.8594,261.7148 L473.3438,261.7148 Q473.3438,261.0586 473.4688,260.8711 Q473.7344,260.4648 474.2031,260.4648 Q474.5781,260.4648 474.8125,260.7305 Q475.0469,260.9805 475.0469,261.5898 L475.0469,263.5586 Q475.0469,264.1055 474.9219,264.293 Q474.6563,264.6836 474.2031,264.6836 Q473.7344,264.6836 473.4688,264.2773 Q473.3438,264.0898 473.3438,263.418 L471.8594,263.418 Z " fill="#000000"/><text fill="#000000" font-family="sans-serif" font-size="14" lengthAdjust="spacing" textLength="95" x="487" y="268.418">InterviewToken</text><line style="stroke:#181818;stroke-width:0.5;" x1="459" x2="584" y1="278.6211" y2="278.6211"/></g><!--link GenerateInterviewModelUI to GenerateInterviewModelController--><g id="link_GenerateInterviewModelUI_GenerateInterviewModelController"><path codeLine="28" d="M204.13,66.6211 C215.68,66.6211 221.23,66.6211 232.78,66.6211 " fill="none" id="GenerateInterviewModelUI-to-GenerateInterviewModelController" style="stroke:#181818;stroke-width:1.0;stroke-dasharray:7.0,7.0;"/><polygon fill="#181818" points="238.78,66.6211,229.78,62.6211,233.78,66.6211,229.78,70.6211,238.78,66.6211" style="stroke:#181818;stroke-width:1.0;"/></g><!--link GenerateInterviewModelController to InterviewModelManagementService--><g id="link_GenerateInterviewModelController_InterviewModelManagementService"><path codeLine="30" d="M362.5,86.9811 C362.5,104.1611 362.5,123.1311 362.5,140.3011 " fill="none" id="GenerateInterviewModelController-to-InterviewModelManagementService" style="stroke:#181818;stroke-width:1.0;stroke-dasharray:7.0,7.0;"/><polygon fill="#181818" points="362.5,146.3011,366.5,137.3011,362.5,141.3011,358.5,137.3011,362.5,146.3011" style="stroke:#181818;stroke-width:1.0;"/></g><!--link InterviewModelManagementService to InterviewModel--><g id="link_InterviewModelManagementService_InterviewModel"><path codeLine="32" d="M331.66,186.7511 C303.82,204.0211 268.1793,226.1292 240.3593,243.3792 " fill="none" id="InterviewModelManagementService-to-InterviewModel" style="stroke:#181818;stroke-width:1.0;"/><polygon fill="#181818" points="235.26,246.5411,245.0168,245.1978,239.5094,243.9062,240.801,238.3988,235.26,246.5411" style="stroke:#181818;stroke-width:1.0;"/></g><!--link InterviewModelManagementService to InterviewToken--><g id="link_InterviewModelManagementService_InterviewToken"><path codeLine="33" d="M393.53,186.7511 C421.55,204.0211 457.4421,226.1431 485.4321,243.3931 " fill="none" id="InterviewModelManagementService-to-InterviewToken" style="stroke:#181818;stroke-width:1.0;"/><polygon fill="#181818" points="490.54,246.5411,484.9768,238.4139,486.2834,243.9178,480.7795,245.2244,490.54,246.5411" style="stroke:#181818;stroke-width:1.0;"/></g><!--link InterviewModelManagementService to QuestionType--><g id="link_InterviewModelManagementService_QuestionType"><path codeLine="34" d="M362.5,186.9811 C362.5,204.1611 362.5,223.1311 362.5,240.3011 " fill="none" id="InterviewModelManagementService-to-QuestionType" style="stroke:#181818;stroke-width:1.0;"/><polygon fill="#181818" points="362.5,246.3011,366.5,237.3011,362.5,241.3011,358.5,237.3011,362.5,246.3011" style="stroke:#181818;stroke-width:1.0;"/></g><!--SRC=[bP71QiD034Jl-nKwjWU7q0ye50TA3Za49n-WsbDxyLfhTkM6jFJVkquWk53NxLNpPj18iRNIS-2EUYvRhb7esO42IcMf7Koy0R7Xof-irFJABi9CfD9nZ4-gmRuCYctffR3leBKnZQr07RJnLJH6hQRmVAHfOxaUlNVvvfuoEkRhXyHVakWPWi0fIHJXpUAqynNSSKiVvlDt9lUYmJk7C6M_CpkMLBI3Q35EIyoZLmKoTBGV4DLwEPnxJCOt_k1Ro5MONNyLRDrezhYu_5p6fDugFKDIr48tOvRAPpy6_TzsES2VRTDpcYy0]--></g></svg>