<?xml version="1.0" encoding="us-ascii" standalone="no"?><svg xmlns="http://www.w3.org/2000/svg" xmlns:xlink="http://www.w3.org/1999/xlink" contentStyleType="text/css" height="432px" preserveAspectRatio="none" style="width:413px;height:432px;background:#FFFFFF;" version="1.1" viewBox="0 0 413 432" width="413px" zoomAndPan="magnify"><defs/><g><text fill="#000000" font-family="sans-serif" font-size="14" font-weight="bold" lengthAdjust="spacing" textLength="285" x="65.25" y="30.1074">System Sequence Diagram (SSD) - UC014</text><rect fill="#FFFFFF" height="206.377" style="stroke:#181818;stroke-width:1.0;" width="10" x="76.5" y="133.2422"/><rect fill="#FFFFFF" height="31.291" style="stroke:#181818;stroke-width:1.0;" width="10" x="359.5" y="156.5332"/><rect fill="#FFFFFF" height="120.5039" style="stroke:#181818;stroke-width:1.0;" width="10" x="359.5" y="219.1152"/><rect fill="none" height="98.5039" style="stroke:#000000;stroke-width:1.5;" width="396.5" x="10" y="234.1152"/><line style="stroke:#181818;stroke-width:0.5;stroke-dasharray:5.0,5.0;" x1="81" x2="81" y1="123.2422" y2="349.6191"/><line style="stroke:#181818;stroke-width:0.5;stroke-dasharray:5.0,5.0;" x1="364.5" x2="364.5" y1="123.2422" y2="349.6191"/><text fill="#000000" font-family="sans-serif" font-size="14" lengthAdjust="spacing" textLength="117" x="20" y="119.7285">CustomerManager</text><ellipse cx="81.5" cy="53.1211" fill="#E3E3E3" rx="8" ry="8" style="stroke:#181818;stroke-width:0.5;"/><path d="M81.5,61.1211 L81.5,88.1211 M68.5,69.1211 L94.5,69.1211 M81.5,88.1211 L68.5,103.1211 M81.5,88.1211 L94.5,103.1211 " fill="none" style="stroke:#181818;stroke-width:0.5;"/><text fill="#000000" font-family="sans-serif" font-size="14" lengthAdjust="spacing" textLength="117" x="20" y="363.7266">CustomerManager</text><ellipse cx="81.5" cy="375.7402" fill="#E3E3E3" rx="8" ry="8" style="stroke:#181818;stroke-width:0.5;"/><path d="M81.5,383.7402 L81.5,410.7402 M68.5,391.7402 L94.5,391.7402 M81.5,410.7402 L68.5,425.7402 M81.5,410.7402 L94.5,425.7402 " fill="none" style="stroke:#181818;stroke-width:0.5;"/><rect fill="#E3E3E3" height="32.6211" rx="2.5" ry="2.5" style="stroke:#181818;stroke-width:0.5;" width="64" x="332.5" y="89.6211"/><text fill="#000000" font-family="sans-serif" font-size="14" lengthAdjust="spacing" textLength="50" x="339.5" y="111.7285">:System</text><rect fill="#E3E3E3" height="32.6211" rx="2.5" ry="2.5" style="stroke:#181818;stroke-width:0.5;" width="64" x="332.5" y="348.6191"/><text fill="#000000" font-family="sans-serif" font-size="14" lengthAdjust="spacing" textLength="50" x="339.5" y="370.7266">:System</text><rect fill="#FFFFFF" height="206.377" style="stroke:#181818;stroke-width:1.0;" width="10" x="76.5" y="133.2422"/><rect fill="#FFFFFF" height="31.291" style="stroke:#181818;stroke-width:1.0;" width="10" x="359.5" y="156.5332"/><rect fill="#FFFFFF" height="120.5039" style="stroke:#181818;stroke-width:1.0;" width="10" x="359.5" y="219.1152"/><polygon fill="#181818" points="347.5,152.5332,357.5,156.5332,347.5,160.5332,351.5,156.5332" style="stroke:#181818;stroke-width:1.0;"/><line style="stroke:#181818;stroke-width:1.0;" x1="86.5" x2="353.5" y1="156.5332" y2="156.5332"/><text fill="#000000" font-family="sans-serif" font-size="13" lengthAdjust="spacing" textLength="254" x="93.5" y="151.2705">want to display personal data of a candidate</text><polygon fill="#181818" points="97.5,183.8242,87.5,187.8242,97.5,191.8242,93.5,187.8242" style="stroke:#181818;stroke-width:1.0;"/><line style="stroke:#181818;stroke-width:1.0;stroke-dasharray:2.0,2.0;" x1="91.5" x2="363.5" y1="187.8242" y2="187.8242"/><text fill="#000000" font-family="sans-serif" font-size="13" lengthAdjust="spacing" textLength="122" x="103.5" y="182.5615">request for username</text><polygon fill="#181818" points="347.5,215.1152,357.5,219.1152,347.5,223.1152,351.5,219.1152" style="stroke:#181818;stroke-width:1.0;"/><line style="stroke:#181818;stroke-width:1.0;" x1="86.5" x2="353.5" y1="219.1152" y2="219.1152"/><text fill="#000000" font-family="sans-serif" font-size="13" lengthAdjust="spacing" textLength="89" x="93.5" y="213.8525">send username</text><path d="M10,234.1152 L71,234.1152 L71,243.4063 L61,253.4063 L10,253.4063 L10,234.1152 " fill="#EEEEEE" style="stroke:#000000;stroke-width:1.5;"/><rect fill="none" height="98.5039" style="stroke:#000000;stroke-width:1.5;" width="396.5" x="10" y="234.1152"/><text fill="#000000" font-family="sans-serif" font-size="13" font-weight="bold" lengthAdjust="spacing" textLength="16" x="25" y="249.1436">alt</text><text fill="#000000" font-family="sans-serif" font-size="11" font-weight="bold" lengthAdjust="spacing" textLength="98" x="86" y="247.9854">[successful case]</text><polygon fill="#181818" points="97.5,272.6973,87.5,276.6973,97.5,280.6973,93.5,276.6973" style="stroke:#181818;stroke-width:1.0;"/><line style="stroke:#181818;stroke-width:1.0;stroke-dasharray:2.0,2.0;" x1="91.5" x2="358.5" y1="276.6973" y2="276.6973"/><text fill="#000000" font-family="sans-serif" font-size="13" lengthAdjust="spacing" textLength="208" x="103.5" y="271.4346">display personal data of a candidate</text><line style="stroke:#000000;stroke-width:1.0;stroke-dasharray:2.0,2.0;" x1="10" x2="406.5" y1="285.6973" y2="285.6973"/><text fill="#000000" font-family="sans-serif" font-size="11" font-weight="bold" lengthAdjust="spacing" textLength="72" x="15" y="297.5674">[failure case]</text><polygon fill="#181818" points="97.5,320.6191,87.5,324.6191,97.5,328.6191,93.5,324.6191" style="stroke:#181818;stroke-width:1.0;"/><line style="stroke:#181818;stroke-width:1.0;stroke-dasharray:2.0,2.0;" x1="91.5" x2="358.5" y1="324.6191" y2="324.6191"/><text fill="#000000" font-family="sans-serif" font-size="13" lengthAdjust="spacing" textLength="223" x="103.5" y="319.3564">show message "No candidates found."</text><!--SRC=[ZP6_JiD03CRtFCMdJZ0KWSJKWILTmnBn0DR5IK-zt8MpZwflZqjG6m6AyEO_-dsVRJdwE56c4MEAoHro6XcQ2rToxKpaZZHmg-V0oEoKuX2M0tAWBfry7D1J4AugzMgZxLcKHxJyNZWwnjxJS1c_QzlzFRPugn-VdYjocZBg8chIkQ5eKXaag9lgqlGVfFoLmA9ki7t1PZUpDzZXH56X2PsNAT0P4sT9aG8wKaBgGN0KEsyfpumhz8gPwvUuaRUcKpSxMzZiYw8tbqKuHng_EHslaNux5OxT3yGQW892YdCiqfTWImZVcdzx_TSDbWYsTzdJV2YPPuLr0Jca4qPpP4_2vZNTi687Ah5xM2nWwwxSQL6rvtu2]--></g></svg>