<?xml version="1.0" encoding="us-ascii" standalone="no"?><svg xmlns="http://www.w3.org/2000/svg" xmlns:xlink="http://www.w3.org/1999/xlink" contentStyleType="text/css" height="630px" preserveAspectRatio="none" style="width:649px;height:630px;background:#FFFFFF;" version="1.1" viewBox="0 0 649 630" width="649.8px" zoomAndPan="magnify"><defs/><g><text fill="#000000" font-family="sans-serif" font-size="8.4" font-weight="bold" lengthAdjust="spacing" textLength="114" x="263.7" y="15.0645">Class Diagram (CD) - UC028</text><!--class RecordInterviewTimestampUI--><g id="elem_RecordInterviewTimestampUI"><rect codeLine="6" fill="#F1F1F1" height="28.8" id="RecordInterviewTimestampUI" rx="1.5" ry="1.5" style="stroke:#181818;stroke-width:0.3;" width="128.4" x="324.3" y="93.3727"/><ellipse cx="333.3" cy="102.9727" fill="#ADD1B2" rx="6.6" ry="6.6" style="stroke:#181818;stroke-width:0.6;"/><path d="M334.9594,100.4977 Q335.0531,100.3664 335.1656,100.3008 Q335.2781,100.2352 335.4094,100.2352 Q335.6344,100.2352 335.775,100.3945 Q335.9156,100.5445 335.9156,100.9102 L335.9156,101.782 Q335.9156,102.1477 335.775,102.307 Q335.6344,102.4664 335.4094,102.4664 Q335.2031,102.4664 335.0813,102.3445 Q334.9594,102.232 334.8938,101.9227 Q334.8656,101.707 334.7531,101.5945 Q334.5563,101.3695 334.1906,101.2383 Q333.825,101.107 333.45,101.107 Q332.9906,101.107 332.6063,101.3039 Q332.2313,101.5008 331.9313,101.9508 Q331.6406,102.4008 331.6406,103.0195 L331.6406,103.6758 Q331.6406,104.4164 332.175,104.9133 Q332.7094,105.4008 333.6656,105.4008 Q334.2281,105.4008 334.6219,105.2508 Q334.8563,105.157 335.1094,104.8945 Q335.2688,104.7352 335.3531,104.6883 Q335.4469,104.6414 335.5687,104.6414 Q335.7656,104.6414 335.9156,104.8008 Q336.075,104.9508 336.075,105.157 Q336.075,105.3633 335.8688,105.607 Q335.5687,105.9539 335.0906,106.1508 Q334.4437,106.4227 333.6656,106.4227 Q332.7562,106.4227 332.0344,106.0477 Q331.4437,105.7477 331.0313,105.1102 Q330.6188,104.4633 330.6188,103.6945 L330.6188,103.0008 Q330.6188,102.2039 330.9844,101.5195 Q331.3594,100.8258 332.0156,100.4602 Q332.6719,100.0852 333.4125,100.0852 Q333.8531,100.0852 334.2375,100.1883 Q334.6312,100.282 334.9594,100.4977 Z " fill="#000000"/><text fill="#000000" font-family="sans-serif" font-size="8.4" lengthAdjust="spacing" textLength="109.2" x="341.7" y="106.4508">RecordInterviewTimestampUI</text><line style="stroke:#181818;stroke-width:0.3;" x1="324.9" x2="452.1" y1="112.5727" y2="112.5727"/><line style="stroke:#181818;stroke-width:0.3;" x1="324.9" x2="452.1" y1="117.3727" y2="117.3727"/></g><!--class RecordInterviewTimestampController--><g id="elem_RecordInterviewTimestampController"><rect codeLine="9" fill="#F1F1F1" height="84.6633" id="RecordInterviewTimestampController" rx="1.5" ry="1.5" style="stroke:#181818;stroke-width:0.3;" width="216.6" x="280.2" y="169.5727"/><ellipse cx="316.35" cy="179.1727" fill="#ADD1B2" rx="6.6" ry="6.6" style="stroke:#181818;stroke-width:0.6;"/><path d="M318.0094,176.6977 Q318.1031,176.5664 318.2156,176.5008 Q318.3281,176.4352 318.4594,176.4352 Q318.6844,176.4352 318.825,176.5945 Q318.9656,176.7445 318.9656,177.1102 L318.9656,177.982 Q318.9656,178.3477 318.825,178.507 Q318.6844,178.6664 318.4594,178.6664 Q318.2531,178.6664 318.1312,178.5445 Q318.0094,178.432 317.9437,178.1227 Q317.9156,177.907 317.8031,177.7945 Q317.6063,177.5695 317.2406,177.4383 Q316.875,177.307 316.5,177.307 Q316.0406,177.307 315.6563,177.5039 Q315.2813,177.7008 314.9813,178.1508 Q314.6906,178.6008 314.6906,179.2195 L314.6906,179.8758 Q314.6906,180.6164 315.225,181.1133 Q315.7594,181.6008 316.7156,181.6008 Q317.2781,181.6008 317.6719,181.4508 Q317.9063,181.357 318.1594,181.0945 Q318.3187,180.9352 318.4031,180.8883 Q318.4969,180.8414 318.6188,180.8414 Q318.8156,180.8414 318.9656,181.0008 Q319.125,181.1508 319.125,181.357 Q319.125,181.5633 318.9188,181.807 Q318.6188,182.1539 318.1406,182.3508 Q317.4938,182.6227 316.7156,182.6227 Q315.8063,182.6227 315.0844,182.2477 Q314.4938,181.9477 314.0813,181.3102 Q313.6688,180.6633 313.6688,179.8945 L313.6688,179.2008 Q313.6688,178.4039 314.0344,177.7195 Q314.4094,177.0258 315.0656,176.6602 Q315.7219,176.2852 316.4625,176.2852 Q316.9031,176.2852 317.2875,176.3883 Q317.6813,176.482 318.0094,176.6977 Z " fill="#000000"/><text fill="#000000" font-family="sans-serif" font-size="8.4" lengthAdjust="spacing" textLength="139.2" x="328.65" y="182.6508">RecordInterviewTimestampController</text><line style="stroke:#181818;stroke-width:0.3;" x1="280.8" x2="496.2" y1="188.7727" y2="188.7727"/><line style="stroke:#181818;stroke-width:0.3;" x1="280.8" x2="496.2" y1="193.5727" y2="193.5727"/><ellipse cx="286.8" cy="202.459" fill="#84BE84" rx="1.8" ry="1.8" style="stroke:#038048;stroke-width:0.6;"/><text fill="#000000" font-family="sans-serif" font-size="8.4" lengthAdjust="spacing" textLength="54" x="292.2" y="205.0371">jobOpenings()</text><ellipse cx="286.8" cy="213.6316" fill="#84BE84" rx="1.8" ry="1.8" style="stroke:#038048;stroke-width:0.6;"/><text fill="#000000" font-family="sans-serif" font-size="8.4" lengthAdjust="spacing" textLength="162" x="292.2" y="216.2098">jobApplicationsByJobOpening(jobOpening)</text><ellipse cx="286.8" cy="224.8043" fill="#84BE84" rx="1.8" ry="1.8" style="stroke:#038048;stroke-width:0.6;"/><text fill="#000000" font-family="sans-serif" font-size="8.4" lengthAdjust="spacing" textLength="201" x="292.2" y="227.3824">recordInterviewTimestamp(jobApplication, timestamp)</text><rect fill="#F24D5C" height="3.6" style="stroke:#C82930;stroke-width:0.6;" width="3.6" x="285" y="234.177"/><text fill="#000000" font-family="sans-serif" font-size="8.4" lengthAdjust="spacing" textLength="154.2" x="292.2" y="238.5551">ensureAuthenticatedUserHasAnyOf(role)</text><rect fill="#F24D5C" height="3.6" style="stroke:#C82930;stroke-width:0.6;" width="3.6" x="285" y="245.3496"/><text fill="#000000" font-family="sans-serif" font-size="8.4" lengthAdjust="spacing" textLength="75" x="292.2" y="249.7277">authenticatedUser()</text></g><!--class AuthorizationService--><g id="elem_AuthorizationService"><rect codeLine="17" fill="#F1F1F1" height="39.9727" id="AuthorizationService" rx="1.5" ry="1.5" style="stroke:#181818;stroke-width:0.3;" width="169.8" x="475.8" y="306.9727"/><ellipse cx="519.45" cy="316.5727" fill="#ADD1B2" rx="6.6" ry="6.6" style="stroke:#181818;stroke-width:0.6;"/><path d="M521.1094,314.0977 Q521.2031,313.9664 521.3156,313.9008 Q521.4281,313.8352 521.5594,313.8352 Q521.7844,313.8352 521.925,313.9945 Q522.0656,314.1445 522.0656,314.5102 L522.0656,315.382 Q522.0656,315.7477 521.925,315.907 Q521.7844,316.0664 521.5594,316.0664 Q521.3531,316.0664 521.2312,315.9445 Q521.1094,315.832 521.0437,315.5227 Q521.0156,315.307 520.9031,315.1945 Q520.7063,314.9695 520.3406,314.8383 Q519.975,314.707 519.6,314.707 Q519.1406,314.707 518.7563,314.9039 Q518.3813,315.1008 518.0813,315.5508 Q517.7906,316.0008 517.7906,316.6195 L517.7906,317.2758 Q517.7906,318.0164 518.325,318.5133 Q518.8594,319.0008 519.8156,319.0008 Q520.3781,319.0008 520.7719,318.8508 Q521.0063,318.757 521.2594,318.4945 Q521.4187,318.3352 521.5031,318.2883 Q521.5969,318.2414 521.7188,318.2414 Q521.9156,318.2414 522.0656,318.4008 Q522.225,318.5508 522.225,318.757 Q522.225,318.9633 522.0188,319.207 Q521.7188,319.5539 521.2406,319.7508 Q520.5938,320.0227 519.8156,320.0227 Q518.9063,320.0227 518.1844,319.6477 Q517.5938,319.3477 517.1813,318.7102 Q516.7688,318.0633 516.7688,317.2945 L516.7688,316.6008 Q516.7688,315.8039 517.1344,315.1195 Q517.5094,314.4258 518.1656,314.0602 Q518.8219,313.6852 519.5625,313.6852 Q520.0031,313.6852 520.3875,313.7883 Q520.7813,313.882 521.1094,314.0977 Z " fill="#000000"/><text fill="#000000" font-family="sans-serif" font-size="8.4" lengthAdjust="spacing" textLength="77.4" x="531.75" y="320.0508">AuthorizationService</text><line style="stroke:#181818;stroke-width:0.3;" x1="476.4" x2="645" y1="326.1727" y2="326.1727"/><line style="stroke:#181818;stroke-width:0.3;" x1="476.4" x2="645" y1="330.9727" y2="330.9727"/><ellipse cx="482.4" cy="339.859" fill="#84BE84" rx="1.8" ry="1.8" style="stroke:#038048;stroke-width:0.6;"/><text fill="#000000" font-family="sans-serif" font-size="8.4" lengthAdjust="spacing" textLength="154.2" x="487.8" y="342.4371">ensureAuthenticatedUserHasAnyOf(role)</text></g><!--class UserSession--><g id="elem_UserSession"><rect codeLine="21" fill="#F1F1F1" height="39.9727" id="UserSession" rx="1.5" ry="1.5" style="stroke:#181818;stroke-width:0.3;" width="90.6" x="423.6" y="399.9727"/><ellipse cx="443.4" cy="409.5727" fill="#ADD1B2" rx="6.6" ry="6.6" style="stroke:#181818;stroke-width:0.6;"/><path d="M445.0594,407.0977 Q445.1531,406.9664 445.2656,406.9008 Q445.3781,406.8352 445.5094,406.8352 Q445.7344,406.8352 445.875,406.9945 Q446.0156,407.1445 446.0156,407.5102 L446.0156,408.382 Q446.0156,408.7477 445.875,408.907 Q445.7344,409.0664 445.5094,409.0664 Q445.3031,409.0664 445.1813,408.9445 Q445.0594,408.832 444.9938,408.5227 Q444.9656,408.307 444.8531,408.1945 Q444.6563,407.9695 444.2906,407.8383 Q443.925,407.707 443.55,407.707 Q443.0906,407.707 442.7063,407.9039 Q442.3313,408.1008 442.0313,408.5508 Q441.7406,409.0008 441.7406,409.6195 L441.7406,410.2758 Q441.7406,411.0164 442.275,411.5133 Q442.8094,412.0008 443.7656,412.0008 Q444.3281,412.0008 444.7219,411.8508 Q444.9563,411.757 445.2094,411.4945 Q445.3688,411.3352 445.4531,411.2883 Q445.5469,411.2414 445.6688,411.2414 Q445.8656,411.2414 446.0156,411.4008 Q446.175,411.5508 446.175,411.757 Q446.175,411.9633 445.9688,412.207 Q445.6688,412.5539 445.1906,412.7508 Q444.5438,413.0227 443.7656,413.0227 Q442.8563,413.0227 442.1344,412.6477 Q441.5438,412.3477 441.1312,411.7102 Q440.7188,411.0633 440.7188,410.2945 L440.7188,409.6008 Q440.7188,408.8039 441.0844,408.1195 Q441.4594,407.4258 442.1156,407.0602 Q442.7719,406.6852 443.5125,406.6852 Q443.9531,406.6852 444.3375,406.7883 Q444.7313,406.882 445.0594,407.0977 Z " fill="#000000"/><text fill="#000000" font-family="sans-serif" font-size="8.4" lengthAdjust="spacing" textLength="47.4" x="454.2" y="413.0508">UserSession</text><line style="stroke:#181818;stroke-width:0.3;" x1="424.2" x2="513.6" y1="419.1727" y2="419.1727"/><line style="stroke:#181818;stroke-width:0.3;" x1="424.2" x2="513.6" y1="423.9727" y2="423.9727"/><ellipse cx="430.2" cy="432.859" fill="#84BE84" rx="1.8" ry="1.8" style="stroke:#038048;stroke-width:0.6;"/><text fill="#000000" font-family="sans-serif" font-size="8.4" lengthAdjust="spacing" textLength="75" x="435.6" y="435.4371">authenticatedUser()</text></g><!--class JobOpeningManagementService--><g id="elem_JobOpeningManagementService"><rect codeLine="25" fill="#F1F1F1" height="39.9727" id="JobOpeningManagementService" rx="1.5" ry="1.5" style="stroke:#181818;stroke-width:0.3;" width="142.2" x="4.2" y="306.9727"/><ellipse cx="13.2" cy="316.5727" fill="#ADD1B2" rx="6.6" ry="6.6" style="stroke:#181818;stroke-width:0.6;"/><path d="M14.8594,314.0977 Q14.9531,313.9664 15.0656,313.9008 Q15.1781,313.8352 15.3094,313.8352 Q15.5344,313.8352 15.675,313.9945 Q15.8156,314.1445 15.8156,314.5102 L15.8156,315.382 Q15.8156,315.7477 15.675,315.907 Q15.5344,316.0664 15.3094,316.0664 Q15.1031,316.0664 14.9813,315.9445 Q14.8594,315.832 14.7938,315.5227 Q14.7656,315.307 14.6531,315.1945 Q14.4562,314.9695 14.0906,314.8383 Q13.725,314.707 13.35,314.707 Q12.8906,314.707 12.5063,314.9039 Q12.1313,315.1008 11.8312,315.5508 Q11.5406,316.0008 11.5406,316.6195 L11.5406,317.2758 Q11.5406,318.0164 12.075,318.5133 Q12.6094,319.0008 13.5656,319.0008 Q14.1281,319.0008 14.5219,318.8508 Q14.7563,318.757 15.0094,318.4945 Q15.1688,318.3352 15.2531,318.2883 Q15.3469,318.2414 15.4688,318.2414 Q15.6656,318.2414 15.8156,318.4008 Q15.975,318.5508 15.975,318.757 Q15.975,318.9633 15.7687,319.207 Q15.4688,319.5539 14.9906,319.7508 Q14.3438,320.0227 13.5656,320.0227 Q12.6563,320.0227 11.9344,319.6477 Q11.3438,319.3477 10.9313,318.7102 Q10.5187,318.0633 10.5187,317.2945 L10.5187,316.6008 Q10.5187,315.8039 10.8844,315.1195 Q11.2594,314.4258 11.9156,314.0602 Q12.5719,313.6852 13.3125,313.6852 Q13.7531,313.6852 14.1375,313.7883 Q14.5313,313.882 14.8594,314.0977 Z " fill="#000000"/><text fill="#000000" font-family="sans-serif" font-size="8.4" lengthAdjust="spacing" textLength="123" x="21.6" y="320.0508">JobOpeningManagementService</text><line style="stroke:#181818;stroke-width:0.3;" x1="4.8" x2="145.8" y1="326.1727" y2="326.1727"/><line style="stroke:#181818;stroke-width:0.3;" x1="4.8" x2="145.8" y1="330.9727" y2="330.9727"/><ellipse cx="10.8" cy="339.859" fill="#84BE84" rx="1.8" ry="1.8" style="stroke:#038048;stroke-width:0.6;"/><text fill="#000000" font-family="sans-serif" font-size="8.4" lengthAdjust="spacing" textLength="28.8" x="16.2" y="342.4371">findAll()</text></g><!--class JobApplicationManagementService--><g id="elem_JobApplicationManagementService"><rect codeLine="29" fill="#F1F1F1" height="51.1453" id="JobApplicationManagementService" rx="1.5" ry="1.5" style="stroke:#181818;stroke-width:0.3;" width="216.6" x="167.4" y="301.5727"/><ellipse cx="207.15" cy="311.1727" fill="#ADD1B2" rx="6.6" ry="6.6" style="stroke:#181818;stroke-width:0.6;"/><path d="M208.8094,308.6977 Q208.9031,308.5664 209.0156,308.5008 Q209.1281,308.4352 209.2594,308.4352 Q209.4844,308.4352 209.625,308.5945 Q209.7656,308.7445 209.7656,309.1102 L209.7656,309.982 Q209.7656,310.3477 209.625,310.507 Q209.4844,310.6664 209.2594,310.6664 Q209.0531,310.6664 208.9313,310.5445 Q208.8094,310.432 208.7438,310.1227 Q208.7156,309.907 208.6031,309.7945 Q208.4063,309.5695 208.0406,309.4383 Q207.675,309.307 207.3,309.307 Q206.8406,309.307 206.4562,309.5039 Q206.0812,309.7008 205.7813,310.1508 Q205.4906,310.6008 205.4906,311.2195 L205.4906,311.8758 Q205.4906,312.6164 206.025,313.1133 Q206.5594,313.6008 207.5156,313.6008 Q208.0781,313.6008 208.4719,313.4508 Q208.7062,313.357 208.9594,313.0945 Q209.1188,312.9352 209.2031,312.8883 Q209.2969,312.8414 209.4188,312.8414 Q209.6156,312.8414 209.7656,313.0008 Q209.925,313.1508 209.925,313.357 Q209.925,313.5633 209.7188,313.807 Q209.4188,314.1539 208.9406,314.3508 Q208.2938,314.6227 207.5156,314.6227 Q206.6063,314.6227 205.8844,314.2477 Q205.2938,313.9477 204.8813,313.3102 Q204.4688,312.6633 204.4688,311.8945 L204.4688,311.2008 Q204.4688,310.4039 204.8344,309.7195 Q205.2094,309.0258 205.8656,308.6602 Q206.5219,308.2852 207.2625,308.2852 Q207.7031,308.2852 208.0875,308.3883 Q208.4813,308.482 208.8094,308.6977 Z " fill="#000000"/><text fill="#000000" font-family="sans-serif" font-size="8.4" lengthAdjust="spacing" textLength="132" x="219.45" y="314.6508">JobApplicationManagementService</text><line style="stroke:#181818;stroke-width:0.3;" x1="168" x2="383.4" y1="320.7727" y2="320.7727"/><line style="stroke:#181818;stroke-width:0.3;" x1="168" x2="383.4" y1="325.5727" y2="325.5727"/><ellipse cx="174" cy="334.459" fill="#84BE84" rx="1.8" ry="1.8" style="stroke:#038048;stroke-width:0.6;"/><text fill="#000000" font-family="sans-serif" font-size="8.4" lengthAdjust="spacing" textLength="177.6" x="179.4" y="337.0371">findJobApplicationsByJobOpening(jobOpening)</text><ellipse cx="174" cy="345.6316" fill="#84BE84" rx="1.8" ry="1.8" style="stroke:#038048;stroke-width:0.6;"/><text fill="#000000" font-family="sans-serif" font-size="8.4" lengthAdjust="spacing" textLength="201" x="179.4" y="348.2098">recordInterviewTimestamp(jobApplication, timestamp)</text></g><!--class PersistenceContext--><g id="elem_PersistenceContext"><rect codeLine="34" fill="#F1F1F1" height="39.9727" id="PersistenceContext" rx="1.5" ry="1.5" style="stroke:#181818;stroke-width:0.3;" width="92.4" x="123.9" y="399.9727"/><ellipse cx="132.9" cy="409.5727" fill="#ADD1B2" rx="6.6" ry="6.6" style="stroke:#181818;stroke-width:0.6;"/><path d="M134.5594,407.0977 Q134.6531,406.9664 134.7656,406.9008 Q134.8781,406.8352 135.0094,406.8352 Q135.2344,406.8352 135.375,406.9945 Q135.5156,407.1445 135.5156,407.5102 L135.5156,408.382 Q135.5156,408.7477 135.375,408.907 Q135.2344,409.0664 135.0094,409.0664 Q134.8031,409.0664 134.6813,408.9445 Q134.5594,408.832 134.4938,408.5227 Q134.4656,408.307 134.3531,408.1945 Q134.1563,407.9695 133.7906,407.8383 Q133.425,407.707 133.05,407.707 Q132.5906,407.707 132.2062,407.9039 Q131.8312,408.1008 131.5313,408.5508 Q131.2406,409.0008 131.2406,409.6195 L131.2406,410.2758 Q131.2406,411.0164 131.775,411.5133 Q132.3094,412.0008 133.2656,412.0008 Q133.8281,412.0008 134.2219,411.8508 Q134.4562,411.757 134.7094,411.4945 Q134.8688,411.3352 134.9531,411.2883 Q135.0469,411.2414 135.1688,411.2414 Q135.3656,411.2414 135.5156,411.4008 Q135.675,411.5508 135.675,411.757 Q135.675,411.9633 135.4688,412.207 Q135.1688,412.5539 134.6906,412.7508 Q134.0438,413.0227 133.2656,413.0227 Q132.3563,413.0227 131.6344,412.6477 Q131.0438,412.3477 130.6313,411.7102 Q130.2188,411.0633 130.2188,410.2945 L130.2188,409.6008 Q130.2188,408.8039 130.5844,408.1195 Q130.9594,407.4258 131.6156,407.0602 Q132.2719,406.6852 133.0125,406.6852 Q133.4531,406.6852 133.8375,406.7883 Q134.2313,406.882 134.5594,407.0977 Z " fill="#000000"/><text fill="#000000" font-family="sans-serif" font-size="8.4" lengthAdjust="spacing" textLength="73.2" x="141.3" y="413.0508">PersistenceContext</text><line style="stroke:#181818;stroke-width:0.3;" x1="124.5" x2="215.7" y1="419.1727" y2="419.1727"/><line style="stroke:#181818;stroke-width:0.3;" x1="124.5" x2="215.7" y1="423.9727" y2="423.9727"/><ellipse cx="130.5" cy="432.859" fill="#84BE84" rx="1.8" ry="1.8" style="stroke:#038048;stroke-width:0.6;"/><text fill="#000000" font-family="sans-serif" font-size="8.4" lengthAdjust="spacing" textLength="50.4" x="135.9" y="435.4371">repositories()</text></g><!--class RepositoryFactory--><g id="elem_RepositoryFactory"><rect codeLine="38" fill="#F1F1F1" height="39.9727" id="RepositoryFactory" rx="1.5" ry="1.5" style="stroke:#181818;stroke-width:0.3;" width="88.8" x="125.7" y="487.5727"/><ellipse cx="134.7" cy="497.1727" fill="#ADD1B2" rx="6.6" ry="6.6" style="stroke:#181818;stroke-width:0.6;"/><path d="M136.3594,494.6977 Q136.4531,494.5664 136.5656,494.5008 Q136.6781,494.4352 136.8094,494.4352 Q137.0344,494.4352 137.175,494.5945 Q137.3156,494.7445 137.3156,495.1102 L137.3156,495.982 Q137.3156,496.3477 137.175,496.507 Q137.0344,496.6664 136.8094,496.6664 Q136.6031,496.6664 136.4813,496.5445 Q136.3594,496.432 136.2938,496.1227 Q136.2656,495.907 136.1531,495.7945 Q135.9562,495.5695 135.5906,495.4383 Q135.225,495.307 134.85,495.307 Q134.3906,495.307 134.0063,495.5039 Q133.6313,495.7008 133.3312,496.1508 Q133.0406,496.6008 133.0406,497.2195 L133.0406,497.8758 Q133.0406,498.6164 133.575,499.1133 Q134.1094,499.6008 135.0656,499.6008 Q135.6281,499.6008 136.0219,499.4508 Q136.2563,499.357 136.5094,499.0945 Q136.6688,498.9352 136.7531,498.8883 Q136.8469,498.8414 136.9688,498.8414 Q137.1656,498.8414 137.3156,499.0008 Q137.475,499.1508 137.475,499.357 Q137.475,499.5633 137.2687,499.807 Q136.9688,500.1539 136.4906,500.3508 Q135.8438,500.6227 135.0656,500.6227 Q134.1563,500.6227 133.4344,500.2477 Q132.8438,499.9477 132.4313,499.3102 Q132.0187,498.6633 132.0187,497.8945 L132.0187,497.2008 Q132.0187,496.4039 132.3844,495.7195 Q132.7594,495.0258 133.4156,494.6602 Q134.0719,494.2852 134.8125,494.2852 Q135.2531,494.2852 135.6375,494.3883 Q136.0313,494.482 136.3594,494.6977 Z " fill="#000000"/><text fill="#000000" font-family="sans-serif" font-size="8.4" lengthAdjust="spacing" textLength="69.6" x="143.1" y="500.6508">RepositoryFactory</text><line style="stroke:#181818;stroke-width:0.3;" x1="126.3" x2="213.9" y1="506.7727" y2="506.7727"/><line style="stroke:#181818;stroke-width:0.3;" x1="126.3" x2="213.9" y1="511.5727" y2="511.5727"/><ellipse cx="132.3" cy="520.459" fill="#84BE84" rx="1.8" ry="1.8" style="stroke:#038048;stroke-width:0.6;"/><text fill="#000000" font-family="sans-serif" font-size="8.4" lengthAdjust="spacing" textLength="54" x="137.7" y="523.0371">jobOpenings()</text></g><!--class JobOpeningRepository--><g id="elem_JobOpeningRepository"><rect codeLine="42" fill="#F1F1F1" height="39.9727" id="JobOpeningRepository" rx="1.5" ry="1.5" style="stroke:#181818;stroke-width:0.3;" width="105.6" x="32.1" y="580.5727"/><ellipse cx="41.1" cy="590.1727" fill="#ADD1B2" rx="6.6" ry="6.6" style="stroke:#181818;stroke-width:0.6;"/><path d="M42.7594,587.6977 Q42.8531,587.5664 42.9656,587.5008 Q43.0781,587.4352 43.2094,587.4352 Q43.4344,587.4352 43.575,587.5945 Q43.7156,587.7445 43.7156,588.1102 L43.7156,588.982 Q43.7156,589.3477 43.575,589.507 Q43.4344,589.6664 43.2094,589.6664 Q43.0031,589.6664 42.8813,589.5445 Q42.7594,589.432 42.6938,589.1227 Q42.6656,588.907 42.5531,588.7945 Q42.3562,588.5695 41.9906,588.4383 Q41.625,588.307 41.25,588.307 Q40.7906,588.307 40.4063,588.5039 Q40.0313,588.7008 39.7312,589.1508 Q39.4406,589.6008 39.4406,590.2195 L39.4406,590.8758 Q39.4406,591.6164 39.975,592.1133 Q40.5094,592.6008 41.4656,592.6008 Q42.0281,592.6008 42.4219,592.4508 Q42.6563,592.357 42.9094,592.0945 Q43.0688,591.9352 43.1531,591.8883 Q43.2469,591.8414 43.3688,591.8414 Q43.5656,591.8414 43.7156,592.0008 Q43.875,592.1508 43.875,592.357 Q43.875,592.5633 43.6687,592.807 Q43.3688,593.1539 42.8906,593.3508 Q42.2438,593.6227 41.4656,593.6227 Q40.5563,593.6227 39.8344,593.2477 Q39.2438,592.9477 38.8313,592.3102 Q38.4187,591.6633 38.4187,590.8945 L38.4187,590.2008 Q38.4187,589.4039 38.7844,588.7195 Q39.1594,588.0258 39.8156,587.6602 Q40.4719,587.2852 41.2125,587.2852 Q41.6531,587.2852 42.0375,587.3883 Q42.4313,587.482 42.7594,587.6977 Z " fill="#000000"/><text fill="#000000" font-family="sans-serif" font-size="8.4" lengthAdjust="spacing" textLength="86.4" x="49.5" y="593.6508">JobOpeningRepository</text><line style="stroke:#181818;stroke-width:0.3;" x1="32.7" x2="137.1" y1="599.7727" y2="599.7727"/><line style="stroke:#181818;stroke-width:0.3;" x1="32.7" x2="137.1" y1="604.5727" y2="604.5727"/><ellipse cx="38.7" cy="613.459" fill="#84BE84" rx="1.8" ry="1.8" style="stroke:#038048;stroke-width:0.6;"/><text fill="#000000" font-family="sans-serif" font-size="8.4" lengthAdjust="spacing" textLength="51.6" x="44.1" y="616.0371">findAllActive()</text></g><!--class JobApplicationRepository--><g id="elem_JobApplicationRepository"><rect codeLine="46" fill="#F1F1F1" height="51.1453" id="JobApplicationRepository" rx="1.5" ry="1.5" style="stroke:#181818;stroke-width:0.3;" width="193.2" x="162.3" y="575.1727"/><ellipse cx="208.65" cy="584.7727" fill="#ADD1B2" rx="6.6" ry="6.6" style="stroke:#181818;stroke-width:0.6;"/><path d="M210.3094,582.2977 Q210.4031,582.1664 210.5156,582.1008 Q210.6281,582.0352 210.7594,582.0352 Q210.9844,582.0352 211.125,582.1945 Q211.2656,582.3445 211.2656,582.7102 L211.2656,583.582 Q211.2656,583.9477 211.125,584.107 Q210.9844,584.2664 210.7594,584.2664 Q210.5531,584.2664 210.4313,584.1445 Q210.3094,584.032 210.2438,583.7227 Q210.2156,583.507 210.1031,583.3945 Q209.9063,583.1695 209.5406,583.0383 Q209.175,582.907 208.8,582.907 Q208.3406,582.907 207.9562,583.1039 Q207.5812,583.3008 207.2813,583.7508 Q206.9906,584.2008 206.9906,584.8195 L206.9906,585.4758 Q206.9906,586.2164 207.525,586.7133 Q208.0594,587.2008 209.0156,587.2008 Q209.5781,587.2008 209.9719,587.0508 Q210.2062,586.957 210.4594,586.6945 Q210.6188,586.5352 210.7031,586.4883 Q210.7969,586.4414 210.9188,586.4414 Q211.1156,586.4414 211.2656,586.6008 Q211.425,586.7508 211.425,586.957 Q211.425,587.1633 211.2188,587.407 Q210.9188,587.7539 210.4406,587.9508 Q209.7938,588.2227 209.0156,588.2227 Q208.1063,588.2227 207.3844,587.8477 Q206.7938,587.5477 206.3813,586.9102 Q205.9688,586.2633 205.9688,585.4945 L205.9688,584.8008 Q205.9688,584.0039 206.3344,583.3195 Q206.7094,582.6258 207.3656,582.2602 Q208.0219,581.8852 208.7625,581.8852 Q209.2031,581.8852 209.5875,581.9883 Q209.9813,582.082 210.3094,582.2977 Z " fill="#000000"/><text fill="#000000" font-family="sans-serif" font-size="8.4" lengthAdjust="spacing" textLength="95.4" x="220.95" y="588.2508">JobApplicationRepository</text><line style="stroke:#181818;stroke-width:0.3;" x1="162.9" x2="354.9" y1="594.3727" y2="594.3727"/><line style="stroke:#181818;stroke-width:0.3;" x1="162.9" x2="354.9" y1="599.1727" y2="599.1727"/><ellipse cx="168.9" cy="608.059" fill="#84BE84" rx="1.8" ry="1.8" style="stroke:#038048;stroke-width:0.6;"/><text fill="#000000" font-family="sans-serif" font-size="8.4" lengthAdjust="spacing" textLength="177.6" x="174.3" y="610.6371">findJobApplicationsByJobOpening(jobOpening)</text><ellipse cx="168.9" cy="619.2316" fill="#84BE84" rx="1.8" ry="1.8" style="stroke:#038048;stroke-width:0.6;"/><text fill="#000000" font-family="sans-serif" font-size="8.4" lengthAdjust="spacing" textLength="85.2" x="174.3" y="621.8098">update(jobApplication)</text></g><!--class CustomerManager--><g id="elem_CustomerManager"><rect fill="#F1F1F1" height="28.8" id="CustomerManager" rx="1.5" ry="1.5" style="stroke:#181818;stroke-width:0.3;" width="89.4" x="343.8" y="27.9727"/><ellipse cx="352.8" cy="37.5727" fill="#ADD1B2" rx="6.6" ry="6.6" style="stroke:#181818;stroke-width:0.6;"/><path d="M354.4594,35.0977 Q354.5531,34.9664 354.6656,34.9008 Q354.7781,34.8352 354.9094,34.8352 Q355.1344,34.8352 355.275,34.9945 Q355.4156,35.1445 355.4156,35.5102 L355.4156,36.382 Q355.4156,36.7477 355.275,36.907 Q355.1344,37.0664 354.9094,37.0664 Q354.7031,37.0664 354.5813,36.9445 Q354.4594,36.832 354.3938,36.5227 Q354.3656,36.307 354.2531,36.1945 Q354.0563,35.9695 353.6906,35.8383 Q353.325,35.707 352.95,35.707 Q352.4906,35.707 352.1063,35.9039 Q351.7313,36.1008 351.4313,36.5508 Q351.1406,37.0008 351.1406,37.6195 L351.1406,38.2758 Q351.1406,39.0164 351.675,39.5133 Q352.2094,40.0008 353.1656,40.0008 Q353.7281,40.0008 354.1219,39.8508 Q354.3563,39.757 354.6094,39.4945 Q354.7688,39.3352 354.8531,39.2883 Q354.9469,39.2414 355.0687,39.2414 Q355.2656,39.2414 355.4156,39.4008 Q355.575,39.5508 355.575,39.757 Q355.575,39.9633 355.3688,40.207 Q355.0687,40.5539 354.5906,40.7508 Q353.9437,41.0227 353.1656,41.0227 Q352.2562,41.0227 351.5344,40.6477 Q350.9437,40.3477 350.5313,39.7102 Q350.1188,39.0633 350.1188,38.2945 L350.1188,37.6008 Q350.1188,36.8039 350.4844,36.1195 Q350.8594,35.4258 351.5156,35.0602 Q352.1719,34.6852 352.9125,34.6852 Q353.3531,34.6852 353.7375,34.7883 Q354.1312,34.882 354.4594,35.0977 Z " fill="#000000"/><text fill="#000000" font-family="sans-serif" font-size="8.4" lengthAdjust="spacing" textLength="70.2" x="361.2" y="41.0508">CustomerManager</text><line style="stroke:#181818;stroke-width:0.3;" x1="344.4" x2="432.6" y1="47.1727" y2="47.1727"/><line style="stroke:#181818;stroke-width:0.3;" x1="344.4" x2="432.6" y1="51.9727" y2="51.9727"/></g><!--link CustomerManager to RecordInterviewTimestampUI--><g id="link_CustomerManager_RecordInterviewTimestampUI"><path codeLine="51" d="M388.5,56.9047 C388.5,67.6687 388.5,78.9067 388.5,89.6707 " fill="none" id="CustomerManager-to-RecordInterviewTimestampUI" style="stroke:#181818;stroke-width:0.6;"/><polygon fill="#181818" points="388.5,93.2707,390.9,87.8707,388.5,90.2707,386.1,87.8707,388.5,93.2707" style="stroke:#181818;stroke-width:0.6;"/></g><!--link RecordInterviewTimestampUI to RecordInterviewTimestampController--><g id="link_RecordInterviewTimestampUI_RecordInterviewTimestampController"><path codeLine="52" d="M388.5,122.2507 C388.5,134.3767 388.5,149.0167 388.5,165.8407 " fill="none" id="RecordInterviewTimestampUI-to-RecordInterviewTimestampController" style="stroke:#181818;stroke-width:0.6;"/><polygon fill="#181818" points="388.5,169.4407,390.9,164.0407,388.5,166.4407,386.1,164.0407,388.5,169.4407" style="stroke:#181818;stroke-width:0.6;"/><text fill="#000000" font-family="sans-serif" font-size="7.8" lengthAdjust="spacing" textLength="31.8" x="389.1" y="149.1896">controller</text></g><!--link RecordInterviewTimestampController to AuthorizationService--><g id="link_RecordInterviewTimestampController_AuthorizationService"><path codeLine="53" d="M451.644,254.2747 C478.806,272.2567 506.2607,290.4287 528.0647,304.8707 " fill="none" id="RecordInterviewTimestampController-to-AuthorizationService" style="stroke:#181818;stroke-width:0.6;"/><polygon fill="#181818" points="531.066,306.8587,527.8893,301.8758,528.5649,305.202,525.2387,305.8776,531.066,306.8587" style="stroke:#181818;stroke-width:0.6;"/><text fill="#000000" font-family="sans-serif" font-size="7.8" lengthAdjust="spacing" textLength="19.2" x="495.3" y="281.1896">authz</text></g><!--link RecordInterviewTimestampController to UserSession--><g id="link_RecordInterviewTimestampController_UserSession"><path codeLine="54" d="M401.676,254.2987 C410.844,282.3847 423.78,320.0527 437.1,352.5727 C443.73,368.7547 450.6873,383.4061 457.2573,396.6001 " fill="none" id="RecordInterviewTimestampController-to-UserSession" style="stroke:#181818;stroke-width:0.6;"/><polygon fill="#181818" points="458.862,399.8227,458.6033,393.919,457.5248,397.1372,454.3066,396.0586,458.862,399.8227" style="stroke:#181818;stroke-width:0.6;"/><text fill="#000000" font-family="sans-serif" font-size="7.8" lengthAdjust="spacing" textLength="27" x="437.7" y="330.3896">session</text></g><!--link RecordInterviewTimestampController to JobOpeningManagementService--><g id="link_RecordInterviewTimestampController_JobOpeningManagementService"><path codeLine="55" d="M280.056,251.9467 C228.978,270.5347 173.7048,290.6511 132.3048,305.7231 " fill="none" id="RecordInterviewTimestampController-to-JobOpeningManagementService" style="stroke:#181818;stroke-width:0.6;"/><polygon fill="#181818" points="128.922,306.9547,134.8172,307.3626,131.741,305.9284,133.1752,302.8522,128.922,306.9547" style="stroke:#181818;stroke-width:0.6;"/><text fill="#000000" font-family="sans-serif" font-size="7.8" lengthAdjust="spacing" textLength="24" x="222.9" y="281.1896">service</text></g><!--link RecordInterviewTimestampController to JobApplicationManagementService--><g id="link_RecordInterviewTimestampController_JobApplicationManagementService"><path codeLine="56" d="M347.136,254.2747 C331.482,270.0967 316.6922,285.0458 303.0242,298.8578 " fill="none" id="RecordInterviewTimestampController-to-JobApplicationManagementService" style="stroke:#181818;stroke-width:0.6;"/><polygon fill="#181818" points="300.492,301.4167,305.9962,299.2665,302.6022,299.2842,302.5844,295.8902,300.492,301.4167" style="stroke:#181818;stroke-width:0.6;"/><text fill="#000000" font-family="sans-serif" font-size="7.8" lengthAdjust="spacing" textLength="24" x="329.1" y="281.1896">service</text></g><!--link JobOpeningManagementService to JobOpeningRepository--><g id="link_JobOpeningManagementService_JobOpeningRepository"><path codeLine="57" d="M75.99,347.2627 C77.76,397.4647 82.3132,526.6769 84.0832,576.8789 " fill="none" id="JobOpeningManagementService-to-JobOpeningRepository" style="stroke:#181818;stroke-width:0.6;"/><polygon fill="#181818" points="84.21,580.4767,86.4182,574.9954,84.1043,577.4785,81.6212,575.1646,84.21,580.4767" style="stroke:#181818;stroke-width:0.6;"/><text fill="#000000" font-family="sans-serif" font-size="7.8" lengthAdjust="spacing" textLength="34.2" x="81.3" y="467.1896">repository</text></g><!--link JobApplicationManagementService to JobApplicationRepository--><g id="link_JobApplicationManagementService_JobApplicationRepository"><path codeLine="58" d="M274.152,352.8127 C270.948,404.7067 263.8677,519.5595 260.6697,571.3995 " fill="none" id="JobApplicationManagementService-to-JobApplicationRepository" style="stroke:#181818;stroke-width:0.6;"/><polygon fill="#181818" points="260.448,574.9927,263.1759,569.7507,260.6327,571.9983,258.385,569.4551,260.448,574.9927" style="stroke:#181818;stroke-width:0.6;"/><text fill="#000000" font-family="sans-serif" font-size="7.8" lengthAdjust="spacing" textLength="34.2" x="267.9" y="467.1896">repository</text></g><!--link AuthorizationService to UserSession--><g id="link_AuthorizationService_UserSession"><path codeLine="59" d="M541.008,347.3647 C525.468,362.9047 506.4436,381.9291 490.9516,397.4211 " fill="none" id="AuthorizationService-to-UserSession" style="stroke:#181818;stroke-width:0.6;"/><polygon fill="#181818" points="488.406,399.9667,493.9214,397.8453,490.5273,397.8453,490.5273,394.4512,488.406,399.9667" style="stroke:#181818;stroke-width:0.6;"/><text fill="#000000" font-family="sans-serif" font-size="7.8" lengthAdjust="spacing" textLength="27" x="518.1" y="379.5896">session</text></g><!--link JobOpeningManagementService to PersistenceContext--><g id="link_JobOpeningManagementService_PersistenceContext"><path codeLine="60" d="M95.634,347.3647 C111.684,362.9047 131.376,381.9701 147.372,397.4621 " fill="none" id="JobOpeningManagementService-to-PersistenceContext" style="stroke:#181818;stroke-width:0.6;"/><polygon fill="#181818" points="149.958,399.9667,147.7487,394.4859,147.803,397.8796,144.4093,397.9339,149.958,399.9667" style="stroke:#181818;stroke-width:0.6;"/><text fill="#000000" font-family="sans-serif" font-size="7.8" lengthAdjust="spacing" textLength="40.2" x="132.3" y="379.5896">persistence</text></g><!--link PersistenceContext to RepositoryFactory--><g id="link_PersistenceContext_RepositoryFactory"><path codeLine="61" d="M170.1,440.2807 C170.1,454.4167 170.1,469.8247 170.1,483.9427 " fill="none" id="PersistenceContext-to-RepositoryFactory" style="stroke:#181818;stroke-width:0.6;"/><polygon fill="#181818" points="170.1,487.5427,172.5,482.1427,170.1,484.5427,167.7,482.1427,170.1,487.5427" style="stroke:#181818;stroke-width:0.6;"/><text fill="#000000" font-family="sans-serif" font-size="7.8" lengthAdjust="spacing" textLength="23.4" x="170.7" y="467.1896">factory</text></g><!--link RepositoryFactory to JobOpeningRepository--><g id="link_RepositoryFactory_JobOpeningRepository"><path codeLine="62" d="M151.824,527.9647 C137.4,543.5047 119.8268,562.4358 105.4508,577.9278 " fill="none" id="RepositoryFactory-to-JobOpeningRepository" style="stroke:#181818;stroke-width:0.6;"/><polygon fill="#181818" points="103.002,580.5667,108.4344,578.2409,105.0426,578.3676,104.9159,574.9759,103.002,580.5667" style="stroke:#181818;stroke-width:0.6;"/><text fill="#000000" font-family="sans-serif" font-size="7.8" lengthAdjust="spacing" textLength="34.2" x="135.9" y="554.7896">repository</text></g><!--link RepositoryFactory to JobApplicationRepository--><g id="link_RepositoryFactory_JobApplicationRepository"><path codeLine="63" d="M184.782,527.9647 C191.946,537.1567 200.904,548.0527 209.7,557.1727 C215.52,563.2087 219.3972,566.9513 225.7872,572.6213 " fill="none" id="RepositoryFactory-to-JobApplicationRepository" style="stroke:#181818;stroke-width:0.6;"/><polygon fill="#181818" points="228.48,575.0107,226.0338,569.6314,226.236,573.0195,222.8479,573.2218,228.48,575.0107" style="stroke:#181818;stroke-width:0.6;"/><text fill="#000000" font-family="sans-serif" font-size="7.8" lengthAdjust="spacing" textLength="34.2" x="210.3" y="554.7896">repository</text></g><!--link JobApplicationManagementService to PersistenceContext--><g id="link_JobApplicationManagementService_PersistenceContext"><path codeLine="64" d="M227.166,352.6327 C218.886,357.9727 210.708,364.0027 203.7,370.5727 C194.682,379.0267 188.6242,387.2344 182.7262,396.8224 " fill="none" id="JobApplicationManagementService-to-PersistenceContext" style="stroke:#181818;stroke-width:0.6;"/><polygon fill="#181818" points="180.84,399.8887,185.7135,396.5467,182.4118,397.3334,181.6251,394.0317,180.84,399.8887" style="stroke:#181818;stroke-width:0.6;"/><text fill="#000000" font-family="sans-serif" font-size="7.8" lengthAdjust="spacing" textLength="40.2" x="204.3" y="379.5896">persistence</text></g><!--SRC=[jLNBJiCm4BpxAtmCWag84ye1AQH250c1AFq0usoBgMDRNXS8Y7_7JY3f8oyEd6hPCxFhyKw3Qw4CioodXl4rMy7S5HAe1UwOMaaWM0FmcMNwJQWLNJA9G8WJpaDJoH3fLB1L04Nfz8XEw28zFJidX9Td3y2rpMRAWNqLyFOeSa37ShEOqK_oDOHAjN9MImdMeoazVj5FTmQKxmEZev-Dn1WfE7D2AxmiRcf4r81BgEse4Urgd53tUn9e4r2uiP1it3Ce5p2GBH3iDSD45NVBoBS79P3jGto7zGK3NrlnKPQOXmuuL5SQfryBXRCv87gPYjzRjd7ZbYd_mBb7xbHV2fKbKkvnjkpeuTtyh_TrG_TWKQ03nI7C0xoxgWSBHgDmtbR0xGiy_EuNLuo7dxRPQR6euUruat0dNg7ReJRQ7wpPcCo_t9uHPR5qWqxdOAidi7GokUY94-b9MX-pYLXCURqc8n8PLDlcEgPX9Z_6IcnDT4onMepbzintq2eNVz3gc_j6hozKkqqren7JUbeBCfImmsuwX5h_LJez7UhxC6SnDSqUQSbXDLXxSOlzDw9SaCCaZlAdapRioA2rmzVy1W00]--></g></svg>