<?xml version="1.0" encoding="us-ascii" standalone="no"?><svg xmlns="http://www.w3.org/2000/svg" xmlns:xlink="http://www.w3.org/1999/xlink" contentStyleType="text/css" height="918px" preserveAspectRatio="none" style="width:1478px;height:918px;background:#FFFFFF;" version="1.1" viewBox="0 0 1478 918" width="1478.4px" zoomAndPan="magnify"><defs/><g><text fill="#000000" font-family="sans-serif" font-size="8.4" font-weight="bold" lengthAdjust="spacing" textLength="133.2" x="673.5" y="18.0645">Sequence Diagram (SD) - UC028</text><rect fill="#FFFFFF" height="750.9844" style="stroke:#181818;stroke-width:0.6;" width="6" x="239.1" y="96.6926"/><rect fill="#FFFFFF" height="356.7176" style="stroke:#181818;stroke-width:0.6;" width="6" x="440.7" y="134.2418"/><rect fill="#FFFFFF" height="93.873" style="stroke:#181818;stroke-width:0.6;" width="6" x="440.7" y="547.2832"/><rect fill="#FFFFFF" height="93.873" style="stroke:#181818;stroke-width:0.6;" width="6" x="440.7" y="735.0293"/><rect fill="#FFFFFF" height="56.3238" style="stroke:#181818;stroke-width:0.6;" width="6" x="713.7" y="171.791"/><rect fill="#FFFFFF" height="18.7746" style="stroke:#181818;stroke-width:0.6;" width="6" x="790.5" y="246.8895"/><rect fill="#FFFFFF" height="168.9715" style="stroke:#181818;stroke-width:0.6;" width="6" x="890.1" y="303.2133"/><rect fill="#FFFFFF" height="56.3238" style="stroke:#181818;stroke-width:0.6;" width="6" x="1032" y="566.0578"/><rect fill="#FFFFFF" height="56.3238" style="stroke:#181818;stroke-width:0.6;" width="6" x="1032" y="753.8039"/><rect fill="#FFFFFF" height="37.5492" style="stroke:#181818;stroke-width:0.6;" width="6" x="1149" y="321.9879"/><rect fill="#FFFFFF" height="37.5492" style="stroke:#181818;stroke-width:0.6;" width="6" x="1234.8" y="378.3117"/><rect fill="#FFFFFF" height="18.7746" style="stroke:#181818;stroke-width:0.6;" width="6" x="1324.8" y="434.6355"/><rect fill="#FFFFFF" height="18.7746" style="stroke:#181818;stroke-width:0.6;" width="6" x="1425.3" y="584.8324"/><rect fill="#FFFFFF" height="18.7746" style="stroke:#181818;stroke-width:0.6;" width="6" x="1425.3" y="772.5785"/><line style="stroke:#181818;stroke-width:0.3;stroke-dasharray:5.0,5.0;" x1="40.8" x2="40.8" y1="76.718" y2="858.477"/><line style="stroke:#181818;stroke-width:0.3;stroke-dasharray:5.0,5.0;" x1="242.1" x2="242.1" y1="76.718" y2="858.477"/><line style="stroke:#181818;stroke-width:0.3;stroke-dasharray:5.0,5.0;" x1="443.7" x2="443.7" y1="76.718" y2="858.477"/><line style="stroke:#181818;stroke-width:0.3;stroke-dasharray:5.0,5.0;" x1="716.4" x2="716.4" y1="76.718" y2="858.477"/><line style="stroke:#181818;stroke-width:0.3;stroke-dasharray:5.0,5.0;" x1="793.2" x2="793.2" y1="76.718" y2="858.477"/><line style="stroke:#181818;stroke-width:0.3;stroke-dasharray:5.0,5.0;" x1="892.8" x2="892.8" y1="76.718" y2="858.477"/><line style="stroke:#181818;stroke-width:0.3;stroke-dasharray:5.0,5.0;" x1="1035" x2="1035" y1="76.718" y2="858.477"/><line style="stroke:#181818;stroke-width:0.3;stroke-dasharray:5.0,5.0;" x1="1152" x2="1152" y1="76.718" y2="858.477"/><line style="stroke:#181818;stroke-width:0.3;stroke-dasharray:5.0,5.0;" x1="1237.8" x2="1237.8" y1="76.718" y2="858.477"/><line style="stroke:#181818;stroke-width:0.3;stroke-dasharray:5.0,5.0;" x1="1327.8" x2="1327.8" y1="76.718" y2="858.477"/><line style="stroke:#181818;stroke-width:0.3;stroke-dasharray:5.0,5.0;" x1="1428" x2="1428" y1="76.718" y2="858.477"/><text fill="#000000" font-family="sans-serif" font-size="8.4" lengthAdjust="spacing" textLength="72.6" x="3" y="74.6098">Customer Manager</text><ellipse cx="41.1" cy="34.6453" fill="#E2E2F0" rx="4.8" ry="4.8" style="stroke:#181818;stroke-width:0.3;"/><path d="M41.1,39.4453 L41.1,55.6453 M33.3,44.2453 L48.9,44.2453 M41.1,55.6453 L33.3,64.6453 M41.1,55.6453 L48.9,64.6453 " fill="none" style="stroke:#181818;stroke-width:0.3;"/><text fill="#000000" font-family="sans-serif" font-size="8.4" lengthAdjust="spacing" textLength="72.6" x="3" y="866.9414">Customer Manager</text><ellipse cx="41.1" cy="874.1496" fill="#E2E2F0" rx="4.8" ry="4.8" style="stroke:#181818;stroke-width:0.3;"/><path d="M41.1,878.9496 L41.1,895.1496 M33.3,883.7496 L48.9,883.7496 M41.1,895.1496 L33.3,904.1496 M41.1,895.1496 L48.9,904.1496 " fill="none" style="stroke:#181818;stroke-width:0.3;"/><rect fill="#E2E2F0" height="30.7453" rx="1.5" ry="1.5" style="stroke:#181818;stroke-width:0.3;" width="117.6" x="183.3" y="45.3727"/><text fill="#000000" font-family="sans-serif" font-size="8.4" font-style="italic" lengthAdjust="spacing" textLength="57" x="213.6" y="58.6371">&#171;presentation&#187;</text><text fill="#000000" font-family="sans-serif" font-size="8.4" lengthAdjust="spacing" textLength="109.2" x="187.5" y="69.8098">RecordInterviewTimestampUI</text><rect fill="#E2E2F0" height="30.7453" rx="1.5" ry="1.5" style="stroke:#181818;stroke-width:0.3;" width="117.6" x="183.3" y="857.877"/><text fill="#000000" font-family="sans-serif" font-size="8.4" font-style="italic" lengthAdjust="spacing" textLength="57" x="213.6" y="871.1414">&#171;presentation&#187;</text><text fill="#000000" font-family="sans-serif" font-size="8.4" lengthAdjust="spacing" textLength="109.2" x="187.5" y="882.3141">RecordInterviewTimestampUI</text><rect fill="#E2E2F0" height="30.7453" rx="1.5" ry="1.5" style="stroke:#181818;stroke-width:0.3;" width="147.6" x="369.9" y="45.3727"/><text fill="#000000" font-family="sans-serif" font-size="8.4" font-style="italic" lengthAdjust="spacing" textLength="50.4" x="418.5" y="58.6371">&#171;application&#187;</text><text fill="#000000" font-family="sans-serif" font-size="8.4" lengthAdjust="spacing" textLength="139.2" x="374.1" y="69.8098">RecordInterviewTimestampController</text><rect fill="#E2E2F0" height="30.7453" rx="1.5" ry="1.5" style="stroke:#181818;stroke-width:0.3;" width="147.6" x="369.9" y="857.877"/><text fill="#000000" font-family="sans-serif" font-size="8.4" font-style="italic" lengthAdjust="spacing" textLength="50.4" x="418.5" y="871.1414">&#171;application&#187;</text><text fill="#000000" font-family="sans-serif" font-size="8.4" lengthAdjust="spacing" textLength="139.2" x="374.1" y="882.3141">RecordInterviewTimestampController</text><rect fill="#E2E2F0" height="30.7453" rx="1.5" ry="1.5" style="stroke:#181818;stroke-width:0.3;" width="85.8" x="673.8" y="45.3727"/><text fill="#000000" font-family="sans-serif" font-size="8.4" font-style="italic" lengthAdjust="spacing" textLength="36" x="698.7" y="58.6371">&#171;service&#187;</text><text fill="#000000" font-family="sans-serif" font-size="8.4" lengthAdjust="spacing" textLength="77.4" x="678" y="69.8098">AuthorizationService</text><rect fill="#E2E2F0" height="30.7453" rx="1.5" ry="1.5" style="stroke:#181818;stroke-width:0.3;" width="85.8" x="673.8" y="857.877"/><text fill="#000000" font-family="sans-serif" font-size="8.4" font-style="italic" lengthAdjust="spacing" textLength="36" x="698.7" y="871.1414">&#171;service&#187;</text><text fill="#000000" font-family="sans-serif" font-size="8.4" lengthAdjust="spacing" textLength="77.4" x="678" y="882.3141">AuthorizationService</text><rect fill="#E2E2F0" height="30.7453" rx="1.5" ry="1.5" style="stroke:#181818;stroke-width:0.3;" width="55.8" x="765.6" y="45.3727"/><text fill="#000000" font-family="sans-serif" font-size="8.4" font-style="italic" lengthAdjust="spacing" textLength="39.6" x="773.7" y="58.6371">&#171;Session&#187;</text><text fill="#000000" font-family="sans-serif" font-size="8.4" lengthAdjust="spacing" textLength="47.4" x="769.8" y="69.8098">UserSession</text><rect fill="#E2E2F0" height="30.7453" rx="1.5" ry="1.5" style="stroke:#181818;stroke-width:0.3;" width="55.8" x="765.6" y="857.877"/><text fill="#000000" font-family="sans-serif" font-size="8.4" font-style="italic" lengthAdjust="spacing" textLength="39.6" x="773.7" y="871.1414">&#171;Session&#187;</text><text fill="#000000" font-family="sans-serif" font-size="8.4" lengthAdjust="spacing" textLength="47.4" x="769.8" y="882.3141">UserSession</text><rect fill="#E2E2F0" height="30.7453" rx="1.5" ry="1.5" style="stroke:#181818;stroke-width:0.3;" width="131.4" x="827.4" y="45.3727"/><text fill="#000000" font-family="sans-serif" font-size="8.4" font-style="italic" lengthAdjust="spacing" textLength="36" x="875.1" y="58.6371">&#171;service&#187;</text><text fill="#000000" font-family="sans-serif" font-size="8.4" lengthAdjust="spacing" textLength="123" x="831.6" y="69.8098">JobOpeningManagementService</text><rect fill="#E2E2F0" height="30.7453" rx="1.5" ry="1.5" style="stroke:#181818;stroke-width:0.3;" width="131.4" x="827.4" y="857.877"/><text fill="#000000" font-family="sans-serif" font-size="8.4" font-style="italic" lengthAdjust="spacing" textLength="36" x="875.1" y="871.1414">&#171;service&#187;</text><text fill="#000000" font-family="sans-serif" font-size="8.4" lengthAdjust="spacing" textLength="123" x="831.6" y="882.3141">JobOpeningManagementService</text><rect fill="#E2E2F0" height="30.7453" rx="1.5" ry="1.5" style="stroke:#181818;stroke-width:0.3;" width="140.4" x="964.8" y="45.3727"/><text fill="#000000" font-family="sans-serif" font-size="8.4" font-style="italic" lengthAdjust="spacing" textLength="36" x="1017" y="58.6371">&#171;service&#187;</text><text fill="#000000" font-family="sans-serif" font-size="8.4" lengthAdjust="spacing" textLength="132" x="969" y="69.8098">JobApplicationManagementService</text><rect fill="#E2E2F0" height="30.7453" rx="1.5" ry="1.5" style="stroke:#181818;stroke-width:0.3;" width="140.4" x="964.8" y="857.877"/><text fill="#000000" font-family="sans-serif" font-size="8.4" font-style="italic" lengthAdjust="spacing" textLength="36" x="1017" y="871.1414">&#171;service&#187;</text><text fill="#000000" font-family="sans-serif" font-size="8.4" lengthAdjust="spacing" textLength="132" x="969" y="882.3141">JobApplicationManagementService</text><rect fill="#E2E2F0" height="30.7453" rx="1.5" ry="1.5" style="stroke:#181818;stroke-width:0.3;" width="81.6" x="1111.2" y="45.3727"/><text fill="#000000" font-family="sans-serif" font-size="8.4" font-style="italic" lengthAdjust="spacing" textLength="53.4" x="1125.3" y="58.6371">&#171;persistence&#187;</text><text fill="#000000" font-family="sans-serif" font-size="8.4" lengthAdjust="spacing" textLength="73.2" x="1115.4" y="69.8098">PersistenceContext</text><rect fill="#E2E2F0" height="30.7453" rx="1.5" ry="1.5" style="stroke:#181818;stroke-width:0.3;" width="81.6" x="1111.2" y="857.877"/><text fill="#000000" font-family="sans-serif" font-size="8.4" font-style="italic" lengthAdjust="spacing" textLength="53.4" x="1125.3" y="871.1414">&#171;persistence&#187;</text><text fill="#000000" font-family="sans-serif" font-size="8.4" lengthAdjust="spacing" textLength="73.2" x="1115.4" y="882.3141">PersistenceContext</text><rect fill="#E2E2F0" height="30.7453" rx="1.5" ry="1.5" style="stroke:#181818;stroke-width:0.3;" width="78" x="1198.8" y="45.3727"/><text fill="#000000" font-family="sans-serif" font-size="8.4" font-style="italic" lengthAdjust="spacing" textLength="35.4" x="1220.1" y="58.6371">&#171;factory&#187;</text><text fill="#000000" font-family="sans-serif" font-size="8.4" lengthAdjust="spacing" textLength="69.6" x="1203" y="69.8098">RepositoryFactory</text><rect fill="#E2E2F0" height="30.7453" rx="1.5" ry="1.5" style="stroke:#181818;stroke-width:0.3;" width="78" x="1198.8" y="857.877"/><text fill="#000000" font-family="sans-serif" font-size="8.4" font-style="italic" lengthAdjust="spacing" textLength="35.4" x="1220.1" y="871.1414">&#171;factory&#187;</text><text fill="#000000" font-family="sans-serif" font-size="8.4" lengthAdjust="spacing" textLength="69.6" x="1203" y="882.3141">RepositoryFactory</text><text fill="#000000" font-family="sans-serif" font-size="8.4" font-style="italic" lengthAdjust="spacing" textLength="47.4" x="1302.3" y="63.4371">&#171;repository&#187;</text><text fill="#000000" font-family="sans-serif" font-size="8.4" lengthAdjust="spacing" textLength="86.4" x="1282.8" y="74.6098">JobOpeningRepository</text><path d="M1317,32.7727 C1317,26.7727 1327.8,26.7727 1327.8,26.7727 C1327.8,26.7727 1338.6,26.7727 1338.6,32.7727 L1338.6,48.3727 C1338.6,54.3727 1327.8,54.3727 1327.8,54.3727 C1327.8,54.3727 1317,54.3727 1317,48.3727 L1317,32.7727 " fill="#E2E2F0" style="stroke:#181818;stroke-width:0.8999999999999999;"/><path d="M1317,32.7727 C1317,38.7727 1327.8,38.7727 1327.8,38.7727 C1327.8,38.7727 1338.6,38.7727 1338.6,32.7727 " fill="none" style="stroke:#181818;stroke-width:0.8999999999999999;"/><text fill="#000000" font-family="sans-serif" font-size="8.4" font-style="italic" lengthAdjust="spacing" textLength="47.4" x="1302.3" y="866.9414">&#171;repository&#187;</text><text fill="#000000" font-family="sans-serif" font-size="8.4" lengthAdjust="spacing" textLength="86.4" x="1282.8" y="878.1141">JobOpeningRepository</text><path d="M1317,886.2223 C1317,880.2223 1327.8,880.2223 1327.8,880.2223 C1327.8,880.2223 1338.6,880.2223 1338.6,886.2223 L1338.6,901.8223 C1338.6,907.8223 1327.8,907.8223 1327.8,907.8223 C1327.8,907.8223 1317,907.8223 1317,901.8223 L1317,886.2223 " fill="#E2E2F0" style="stroke:#181818;stroke-width:0.8999999999999999;"/><path d="M1317,886.2223 C1317,892.2223 1327.8,892.2223 1327.8,892.2223 C1327.8,892.2223 1338.6,892.2223 1338.6,886.2223 " fill="none" style="stroke:#181818;stroke-width:0.8999999999999999;"/><text fill="#000000" font-family="sans-serif" font-size="8.4" font-style="italic" lengthAdjust="spacing" textLength="47.4" x="1402.8" y="63.4371">&#171;repository&#187;</text><text fill="#000000" font-family="sans-serif" font-size="8.4" lengthAdjust="spacing" textLength="95.4" x="1378.8" y="74.6098">JobApplicationRepository</text><path d="M1417.5,32.7727 C1417.5,26.7727 1428.3,26.7727 1428.3,26.7727 C1428.3,26.7727 1439.1,26.7727 1439.1,32.7727 L1439.1,48.3727 C1439.1,54.3727 1428.3,54.3727 1428.3,54.3727 C1428.3,54.3727 1417.5,54.3727 1417.5,48.3727 L1417.5,32.7727 " fill="#E2E2F0" style="stroke:#181818;stroke-width:0.8999999999999999;"/><path d="M1417.5,32.7727 C1417.5,38.7727 1428.3,38.7727 1428.3,38.7727 C1428.3,38.7727 1439.1,38.7727 1439.1,32.7727 " fill="none" style="stroke:#181818;stroke-width:0.8999999999999999;"/><text fill="#000000" font-family="sans-serif" font-size="8.4" font-style="italic" lengthAdjust="spacing" textLength="47.4" x="1402.8" y="866.9414">&#171;repository&#187;</text><text fill="#000000" font-family="sans-serif" font-size="8.4" lengthAdjust="spacing" textLength="95.4" x="1378.8" y="878.1141">JobApplicationRepository</text><path d="M1417.5,886.2223 C1417.5,880.2223 1428.3,880.2223 1428.3,880.2223 C1428.3,880.2223 1439.1,880.2223 1439.1,886.2223 L1439.1,901.8223 C1439.1,907.8223 1428.3,907.8223 1428.3,907.8223 C1428.3,907.8223 1417.5,907.8223 1417.5,901.8223 L1417.5,886.2223 " fill="#E2E2F0" style="stroke:#181818;stroke-width:0.8999999999999999;"/><path d="M1417.5,886.2223 C1417.5,892.2223 1428.3,892.2223 1428.3,892.2223 C1428.3,892.2223 1439.1,892.2223 1439.1,886.2223 " fill="none" style="stroke:#181818;stroke-width:0.8999999999999999;"/><rect fill="#FFFFFF" height="750.9844" style="stroke:#181818;stroke-width:0.6;" width="6" x="239.1" y="96.6926"/><rect fill="#FFFFFF" height="356.7176" style="stroke:#181818;stroke-width:0.6;" width="6" x="440.7" y="134.2418"/><rect fill="#FFFFFF" height="93.873" style="stroke:#181818;stroke-width:0.6;" width="6" x="440.7" y="547.2832"/><rect fill="#FFFFFF" height="93.873" style="stroke:#181818;stroke-width:0.6;" width="6" x="440.7" y="735.0293"/><rect fill="#FFFFFF" height="56.3238" style="stroke:#181818;stroke-width:0.6;" width="6" x="713.7" y="171.791"/><rect fill="#FFFFFF" height="18.7746" style="stroke:#181818;stroke-width:0.6;" width="6" x="790.5" y="246.8895"/><rect fill="#FFFFFF" height="168.9715" style="stroke:#181818;stroke-width:0.6;" width="6" x="890.1" y="303.2133"/><rect fill="#FFFFFF" height="56.3238" style="stroke:#181818;stroke-width:0.6;" width="6" x="1032" y="566.0578"/><rect fill="#FFFFFF" height="56.3238" style="stroke:#181818;stroke-width:0.6;" width="6" x="1032" y="753.8039"/><rect fill="#FFFFFF" height="37.5492" style="stroke:#181818;stroke-width:0.6;" width="6" x="1149" y="321.9879"/><rect fill="#FFFFFF" height="37.5492" style="stroke:#181818;stroke-width:0.6;" width="6" x="1234.8" y="378.3117"/><rect fill="#FFFFFF" height="18.7746" style="stroke:#181818;stroke-width:0.6;" width="6" x="1324.8" y="434.6355"/><rect fill="#FFFFFF" height="18.7746" style="stroke:#181818;stroke-width:0.6;" width="6" x="1425.3" y="584.8324"/><rect fill="#FFFFFF" height="18.7746" style="stroke:#181818;stroke-width:0.6;" width="6" x="1425.3" y="772.5785"/><polygon fill="#181818" points="231.9,94.2926,237.9,96.6926,231.9,99.0926,234.3,96.6926" style="stroke:#181818;stroke-width:0.6;"/><line style="stroke:#181818;stroke-width:0.6;" x1="41.1" x2="235.5" y1="96.6926" y2="96.6926"/><text fill="#000000" font-family="sans-serif" font-size="7.8" lengthAdjust="spacing" textLength="186.6" x="45.3" y="93.535">Record time and date for an interview with a candidate</text><polygon fill="#181818" points="436.5,113.0672,442.5,115.4672,436.5,117.8672,438.9,115.4672" style="stroke:#181818;stroke-width:0.6;"/><line style="stroke:#181818;stroke-width:0.6;" x1="245.1" x2="440.1" y1="115.4672" y2="115.4672"/><text fill="#000000" font-family="sans-serif" font-size="7.8" lengthAdjust="spacing" textLength="26.4" x="249.3" y="112.3096">create()</text><polygon fill="#181818" points="433.5,131.8418,439.5,134.2418,433.5,136.6418,435.9,134.2418" style="stroke:#181818;stroke-width:0.6;"/><line style="stroke:#181818;stroke-width:0.6;" x1="245.1" x2="437.1" y1="134.2418" y2="134.2418"/><text fill="#000000" font-family="sans-serif" font-size="7.8" lengthAdjust="spacing" textLength="48" x="249.3" y="131.0842">jobOpenings()</text><polygon fill="#181818" points="709.5,150.6164,715.5,153.0164,709.5,155.4164,711.9,153.0164" style="stroke:#181818;stroke-width:0.6;"/><line style="stroke:#181818;stroke-width:0.6;" x1="446.7" x2="713.1" y1="153.0164" y2="153.0164"/><text fill="#000000" font-family="sans-serif" font-size="7.8" lengthAdjust="spacing" textLength="26.4" x="450.9" y="149.8588">create()</text><polygon fill="#181818" points="706.5,169.391,712.5,171.791,706.5,174.191,708.9,171.791" style="stroke:#181818;stroke-width:0.6;"/><line style="stroke:#181818;stroke-width:0.6;" x1="446.7" x2="710.1" y1="171.791" y2="171.791"/><text fill="#000000" font-family="sans-serif" font-size="7.8" lengthAdjust="spacing" textLength="255.6" x="450.9" y="168.6334">ensureAuthenticatedUserHasAnyOf(BaseRoles.CUSTOMER_MANAGER)</text><polygon fill="#181818" points="786.3,188.1656,792.3,190.5656,786.3,192.9656,788.7,190.5656" style="stroke:#181818;stroke-width:0.6;"/><line style="stroke:#181818;stroke-width:0.6;" x1="719.7" x2="789.9" y1="190.5656" y2="190.5656"/><text fill="#000000" font-family="sans-serif" font-size="7.8" lengthAdjust="spacing" textLength="26.4" x="723.9" y="187.408">create()</text><polygon fill="#181818" points="706.5,206.9402,712.5,209.3402,706.5,211.7402,708.9,209.3402" style="stroke:#181818;stroke-width:0.6;"/><line style="stroke:#181818;stroke-width:0.6;" x1="446.7" x2="710.1" y1="209.3402" y2="209.3402"/><text fill="#000000" font-family="sans-serif" font-size="7.8" lengthAdjust="spacing" textLength="31.8" x="450.9" y="206.1826">session()</text><polygon fill="#181818" points="453.3,225.7148,447.3,228.1148,453.3,230.5148,450.9,228.1148" style="stroke:#181818;stroke-width:0.6;"/><line style="stroke:#181818;stroke-width:0.6;" x1="449.7" x2="716.1" y1="228.1148" y2="228.1148"/><text fill="#000000" font-family="sans-serif" font-size="7.8" lengthAdjust="spacing" textLength="27" x="456.9" y="224.9572">session</text><polygon fill="#181818" points="783.3,244.4895,789.3,246.8895,783.3,249.2895,785.7,246.8895" style="stroke:#181818;stroke-width:0.6;"/><line style="stroke:#181818;stroke-width:0.6;" x1="446.7" x2="786.9" y1="246.8895" y2="246.8895"/><text fill="#000000" font-family="sans-serif" font-size="7.8" lengthAdjust="spacing" textLength="67.8" x="450.9" y="243.7318">authenticatedUser()</text><polygon fill="#181818" points="453.3,263.2641,447.3,265.6641,453.3,268.0641,450.9,265.6641" style="stroke:#181818;stroke-width:0.6;"/><line style="stroke:#181818;stroke-width:0.6;" x1="449.7" x2="792.9" y1="265.6641" y2="265.6641"/><text fill="#000000" font-family="sans-serif" font-size="7.8" lengthAdjust="spacing" textLength="15" x="456.9" y="262.5064">user</text><polygon fill="#181818" points="885.9,282.0387,891.9,284.4387,885.9,286.8387,888.3,284.4387" style="stroke:#181818;stroke-width:0.6;"/><line style="stroke:#181818;stroke-width:0.6;" x1="446.7" x2="889.5" y1="284.4387" y2="284.4387"/><text fill="#000000" font-family="sans-serif" font-size="7.8" lengthAdjust="spacing" textLength="26.4" x="450.9" y="281.2811">create()</text><polygon fill="#181818" points="882.9,300.8133,888.9,303.2133,882.9,305.6133,885.3,303.2133" style="stroke:#181818;stroke-width:0.6;"/><line style="stroke:#181818;stroke-width:0.6;" x1="446.7" x2="886.5" y1="303.2133" y2="303.2133"/><text fill="#000000" font-family="sans-serif" font-size="7.8" lengthAdjust="spacing" textLength="25.8" x="450.9" y="300.0557">findAll()</text><polygon fill="#181818" points="1141.8,319.5879,1147.8,321.9879,1141.8,324.3879,1144.2,321.9879" style="stroke:#181818;stroke-width:0.6;"/><line style="stroke:#181818;stroke-width:0.6;" x1="896.1" x2="1145.4" y1="321.9879" y2="321.9879"/><text fill="#000000" font-family="sans-serif" font-size="7.8" lengthAdjust="spacing" textLength="45" x="900.3" y="318.8303">repositories()</text><polygon fill="#181818" points="1230.6,338.3625,1236.6,340.7625,1230.6,343.1625,1233,340.7625" style="stroke:#181818;stroke-width:0.6;"/><line style="stroke:#181818;stroke-width:0.6;" x1="1155" x2="1234.2" y1="340.7625" y2="340.7625"/><text fill="#000000" font-family="sans-serif" font-size="7.8" lengthAdjust="spacing" textLength="26.4" x="1159.2" y="337.6049">create()</text><polygon fill="#181818" points="902.7,357.1371,896.7,359.5371,902.7,361.9371,900.3,359.5371" style="stroke:#181818;stroke-width:0.6;"/><line style="stroke:#181818;stroke-width:0.6;" x1="899.1" x2="1151.4" y1="359.5371" y2="359.5371"/><text fill="#000000" font-family="sans-serif" font-size="7.8" lengthAdjust="spacing" textLength="23.4" x="906.3" y="356.3795">factory</text><polygon fill="#181818" points="1227.6,375.9117,1233.6,378.3117,1227.6,380.7117,1230,378.3117" style="stroke:#181818;stroke-width:0.6;"/><line style="stroke:#181818;stroke-width:0.6;" x1="896.1" x2="1231.2" y1="378.3117" y2="378.3117"/><text fill="#000000" font-family="sans-serif" font-size="7.8" lengthAdjust="spacing" textLength="48" x="900.3" y="375.1541">jobOpenings()</text><polygon fill="#181818" points="1320.6,394.6863,1326.6,397.0863,1320.6,399.4863,1323,397.0863" style="stroke:#181818;stroke-width:0.6;"/><line style="stroke:#181818;stroke-width:0.6;" x1="1240.8" x2="1324.2" y1="397.0863" y2="397.0863"/><text fill="#000000" font-family="sans-serif" font-size="7.8" lengthAdjust="spacing" textLength="26.4" x="1245" y="393.9287">create()</text><polygon fill="#181818" points="902.7,413.4609,896.7,415.8609,902.7,418.2609,900.3,415.8609" style="stroke:#181818;stroke-width:0.6;"/><line style="stroke:#181818;stroke-width:0.6;" x1="899.1" x2="1237.2" y1="415.8609" y2="415.8609"/><text fill="#000000" font-family="sans-serif" font-size="7.8" lengthAdjust="spacing" textLength="76.2" x="906.3" y="412.7033">jobOpeningRepository</text><polygon fill="#181818" points="1317.6,432.2355,1323.6,434.6355,1317.6,437.0355,1320,434.6355" style="stroke:#181818;stroke-width:0.6;"/><line style="stroke:#181818;stroke-width:0.6;" x1="896.1" x2="1321.2" y1="434.6355" y2="434.6355"/><text fill="#000000" font-family="sans-serif" font-size="7.8" lengthAdjust="spacing" textLength="46.8" x="900.3" y="431.4779">findAllActive()</text><polygon fill="#181818" points="902.7,451.0102,896.7,453.4102,902.7,455.8102,900.3,453.4102" style="stroke:#181818;stroke-width:0.6;"/><line style="stroke:#181818;stroke-width:0.6;" x1="899.1" x2="1327.2" y1="453.4102" y2="453.4102"/><text fill="#000000" font-family="sans-serif" font-size="7.8" lengthAdjust="spacing" textLength="43.2" x="906.3" y="450.2525">jobOpenings</text><polygon fill="#181818" points="453.3,469.7848,447.3,472.1848,453.3,474.5848,450.9,472.1848" style="stroke:#181818;stroke-width:0.6;"/><line style="stroke:#181818;stroke-width:0.6;" x1="449.7" x2="892.5" y1="472.1848" y2="472.1848"/><text fill="#000000" font-family="sans-serif" font-size="7.8" lengthAdjust="spacing" textLength="43.2" x="456.9" y="469.0271">jobOpenings</text><polygon fill="#181818" points="251.7,488.5594,245.7,490.9594,251.7,493.3594,249.3,490.9594" style="stroke:#181818;stroke-width:0.6;"/><line style="stroke:#181818;stroke-width:0.6;" x1="248.1" x2="443.1" y1="490.9594" y2="490.9594"/><text fill="#000000" font-family="sans-serif" font-size="7.8" lengthAdjust="spacing" textLength="43.2" x="255.3" y="487.8018">jobOpenings</text><polygon fill="#181818" points="47.7,507.334,41.7,509.734,47.7,512.134,45.3,509.734" style="stroke:#181818;stroke-width:0.6;"/><line style="stroke:#181818;stroke-width:0.6;" x1="44.1" x2="238.5" y1="509.734" y2="509.734"/><text fill="#000000" font-family="sans-serif" font-size="7.8" lengthAdjust="spacing" textLength="77.4" x="51.3" y="506.5764">Show Job Opening list</text><polygon fill="#181818" points="231.9,526.1086,237.9,528.5086,231.9,530.9086,234.3,528.5086" style="stroke:#181818;stroke-width:0.6;"/><line style="stroke:#181818;stroke-width:0.6;" x1="41.1" x2="235.5" y1="528.5086" y2="528.5086"/><text fill="#000000" font-family="sans-serif" font-size="7.8" lengthAdjust="spacing" textLength="68.4" x="45.3" y="525.351">Choose job opening</text><polygon fill="#181818" points="433.5,544.8832,439.5,547.2832,433.5,549.6832,435.9,547.2832" style="stroke:#181818;stroke-width:0.6;"/><line style="stroke:#181818;stroke-width:0.6;" x1="245.1" x2="437.1" y1="547.2832" y2="547.2832"/><text fill="#000000" font-family="sans-serif" font-size="7.8" lengthAdjust="spacing" textLength="147" x="249.3" y="544.1256">jobApplicationsByJobOpening(jobOpening)</text><polygon fill="#181818" points="1024.8,563.6578,1030.8,566.0578,1024.8,568.4578,1027.2,566.0578" style="stroke:#181818;stroke-width:0.6;"/><line style="stroke:#181818;stroke-width:0.6;" x1="446.7" x2="1028.4" y1="566.0578" y2="566.0578"/><text fill="#000000" font-family="sans-serif" font-size="7.8" lengthAdjust="spacing" textLength="26.4" x="450.9" y="562.9002">create()</text><polygon fill="#181818" points="1418.1,582.4324,1424.1,584.8324,1418.1,587.2324,1420.5,584.8324" style="stroke:#181818;stroke-width:0.6;"/><line style="stroke:#181818;stroke-width:0.6;" x1="1038" x2="1421.7" y1="584.8324" y2="584.8324"/><text fill="#000000" font-family="sans-serif" font-size="7.8" lengthAdjust="spacing" textLength="160.8" x="1042.2" y="581.6748">findJobApplicationsByJobOpening(jobOpening)</text><polygon fill="#181818" points="1044.6,601.207,1038.6,603.607,1044.6,606.007,1042.2,603.607" style="stroke:#181818;stroke-width:0.6;"/><line style="stroke:#181818;stroke-width:0.6;" x1="1041" x2="1427.7" y1="603.607" y2="603.607"/><text fill="#000000" font-family="sans-serif" font-size="7.8" lengthAdjust="spacing" textLength="52.8" x="1048.2" y="600.4494">jobApplications</text><polygon fill="#181818" points="453.3,619.9816,447.3,622.3816,453.3,624.7816,450.9,622.3816" style="stroke:#181818;stroke-width:0.6;"/><line style="stroke:#181818;stroke-width:0.6;" x1="449.7" x2="1034.4" y1="622.3816" y2="622.3816"/><text fill="#000000" font-family="sans-serif" font-size="7.8" lengthAdjust="spacing" textLength="52.8" x="456.9" y="619.224">jobApplications</text><polygon fill="#181818" points="251.7,638.7563,245.7,641.1563,251.7,643.5563,249.3,641.1563" style="stroke:#181818;stroke-width:0.6;"/><line style="stroke:#181818;stroke-width:0.6;" x1="248.1" x2="443.1" y1="641.1563" y2="641.1563"/><text fill="#000000" font-family="sans-serif" font-size="7.8" lengthAdjust="spacing" textLength="52.8" x="255.3" y="637.9986">jobApplications</text><polygon fill="#181818" points="47.7,657.5309,41.7,659.9309,47.7,662.3309,45.3,659.9309" style="stroke:#181818;stroke-width:0.6;"/><line style="stroke:#181818;stroke-width:0.6;" x1="44.1" x2="238.5" y1="659.9309" y2="659.9309"/><text fill="#000000" font-family="sans-serif" font-size="7.8" lengthAdjust="spacing" textLength="173.4" x="51.3" y="656.7732">Show job applications for the selected job opening</text><polygon fill="#181818" points="231.9,676.3055,237.9,678.7055,231.9,681.1055,234.3,678.7055" style="stroke:#181818;stroke-width:0.6;"/><line style="stroke:#181818;stroke-width:0.6;" x1="41.1" x2="235.5" y1="678.7055" y2="678.7055"/><text fill="#000000" font-family="sans-serif" font-size="7.8" lengthAdjust="spacing" textLength="78.6" x="45.3" y="675.5479">Choose job application</text><polygon fill="#181818" points="47.7,695.0801,41.7,697.4801,47.7,699.8801,45.3,697.4801" style="stroke:#181818;stroke-width:0.6;"/><line style="stroke:#181818;stroke-width:0.6;" x1="44.1" x2="238.5" y1="697.4801" y2="697.4801"/><text fill="#000000" font-family="sans-serif" font-size="7.8" lengthAdjust="spacing" textLength="119.4" x="51.3" y="694.3225">Ask for timestamp for the interview</text><polygon fill="#181818" points="231.9,713.8547,237.9,716.2547,231.9,718.6547,234.3,716.2547" style="stroke:#181818;stroke-width:0.6;"/><line style="stroke:#181818;stroke-width:0.6;" x1="41.1" x2="235.5" y1="716.2547" y2="716.2547"/><text fill="#000000" font-family="sans-serif" font-size="7.8" lengthAdjust="spacing" textLength="55.8" x="45.3" y="713.0971">Input timestamp</text><polygon fill="#181818" points="433.5,732.6293,439.5,735.0293,433.5,737.4293,435.9,735.0293" style="stroke:#181818;stroke-width:0.6;"/><line style="stroke:#181818;stroke-width:0.6;" x1="245.1" x2="437.1" y1="735.0293" y2="735.0293"/><text fill="#000000" font-family="sans-serif" font-size="7.8" lengthAdjust="spacing" textLength="184.2" x="249.3" y="731.8717">recordInterviewTimestamp(jobApplication, timestamp)</text><polygon fill="#181818" points="1024.8,751.4039,1030.8,753.8039,1024.8,756.2039,1027.2,753.8039" style="stroke:#181818;stroke-width:0.6;"/><line style="stroke:#181818;stroke-width:0.6;" x1="446.7" x2="1028.4" y1="753.8039" y2="753.8039"/><text fill="#000000" font-family="sans-serif" font-size="7.8" lengthAdjust="spacing" textLength="184.2" x="450.9" y="750.6463">recordInterviewTimestamp(jobApplication, timestamp)</text><polygon fill="#181818" points="1418.1,770.1785,1424.1,772.5785,1418.1,774.9785,1420.5,772.5785" style="stroke:#181818;stroke-width:0.6;"/><line style="stroke:#181818;stroke-width:0.6;" x1="1038" x2="1421.7" y1="772.5785" y2="772.5785"/><text fill="#000000" font-family="sans-serif" font-size="7.8" lengthAdjust="spacing" textLength="76.8" x="1042.2" y="769.4209">update(jobApplication)</text><polygon fill="#181818" points="1044.6,788.9531,1038.6,791.3531,1044.6,793.7531,1042.2,791.3531" style="stroke:#181818;stroke-width:0.6;"/><line style="stroke:#181818;stroke-width:0.6;" x1="1041" x2="1427.7" y1="791.3531" y2="791.3531"/><text fill="#000000" font-family="sans-serif" font-size="7.8" lengthAdjust="spacing" textLength="48.6" x="1048.2" y="788.1955">jobApplication</text><polygon fill="#181818" points="453.3,807.7277,447.3,810.1277,453.3,812.5277,450.9,810.1277" style="stroke:#181818;stroke-width:0.6;"/><line style="stroke:#181818;stroke-width:0.6;" x1="449.7" x2="1034.4" y1="810.1277" y2="810.1277"/><text fill="#000000" font-family="sans-serif" font-size="7.8" lengthAdjust="spacing" textLength="48.6" x="456.9" y="806.9701">jobApplication</text><polygon fill="#181818" points="251.7,826.5023,245.7,828.9023,251.7,831.3023,249.3,828.9023" style="stroke:#181818;stroke-width:0.6;"/><line style="stroke:#181818;stroke-width:0.6;" x1="248.1" x2="443.1" y1="828.9023" y2="828.9023"/><text fill="#000000" font-family="sans-serif" font-size="7.8" lengthAdjust="spacing" textLength="48.6" x="255.3" y="825.7447">jobApplication</text><polygon fill="#181818" points="47.7,845.277,41.7,847.677,47.7,850.077,45.3,847.677" style="stroke:#181818;stroke-width:0.6;"/><line style="stroke:#181818;stroke-width:0.6;" x1="44.1" x2="241.5" y1="847.677" y2="847.677"/><text fill="#000000" font-family="sans-serif" font-size="7.8" lengthAdjust="spacing" textLength="98.4" x="51.3" y="844.5193">(un)success of the operation</text><!--SRC=[hLRBRjim4BphAuYS7A0fufuAGmYWE6dh06cAA3uNZBIscSYaIb9ndQ_lKjI3eYKrBnyCKPoPNIw7Awf7ndCgwPRaD7caQuZrFWCY8T6KhpC8L0DG6vgA7UDhigAPScSona7lSo2voFPc43YJIKQLYhIMxBxGi4W4ZzapaDCWq4nZg1Z-5C0J81UChWrX4bySanEod9z- -He4KQA594VpGccn1KckASSivH6XYfHp0ORHB64vvPhSGY9akk0Qv1E3tHtRWj9qcoyN1e__OPXBKC0rrKpmixCNiUU2Qoco3CEZYZCAGvhd6KlwnA92RuHap-LSR1HnZIPfVF-CJ6LVUQmblev1AUGOSFqOXjMJ1xyIzpSvSDmKMvSjhio9LJyEHKDwr2vWJ68wgF4Bf69AcoqqbO6_sj2SjwRcxUYWvBbG3BTn_usQtTmRSlqOXYlxXAIKQdfF5JXBRhc6v8p2K3O3Z-eiTuW-zVcL1q_Eq42poYH4epa8vIb1TI0hdAUSiDewPCVqXb2I888PH80BOKy6kbm40S4VcX4LMpFDI2810PFZeVc7PkKAGGRJYBOmItOyYYAbvNpzNWXmLKWm0tI1gHEanf4_g8hu_cOrESSoteeCrEVvChwxkRwy_NqT_Oo-Nzvw2PLwDf0rFCQeBFo2HCYCA0kkGOs8Wsv09IA5lk1TyVeupGZrb-XNj89QbPhdno-Gw0Vl4FtmvG4QBq03MZ6UHbbsc5WvNoTc3ohod1Ct8ur_6HnunG5Q4VUieb1r-lmiFLIRfeNxPJY8ugJQH1XnT8MntBeX8BSzftw23gX9xg6dMVYPTY8vMRgHghs830VyL1tfSi9fBFsvA3y5Ny79Og017BhESKNNKAPfZJ3zrc7xJjdoPYJUY9rfcwHYuwTUwUf4karnlX426oo68S8YHvgOquFL-RxjvvCsorUrj_eJvHYYxyHCExMTThTuQlVuwYtPEIg-0QRT_Bp53zkW9zUH8WwOOJhYXZ7w_nrXzjcv-QZo-uSD5HjoXZT7I0-TC6GNHwOdMgGUhNPz5MiYDP_Q7la5pmlTSeQiA0UkUvDkVJwrIc-qvRi3lT31HMwk6fxg1vdrWxpwFgk-ogcJWX-h8admUqp4gZGDEb9MLdDKy4Rs3m00]--></g></svg>