<?xml version="1.0" encoding="us-ascii" standalone="no"?><svg xmlns="http://www.w3.org/2000/svg" xmlns:xlink="http://www.w3.org/1999/xlink" contentStyleType="text/css" height="1094.4px" preserveAspectRatio="none" style="width:1912px;height:1094px;background:#FFFFFF;" version="1.1" viewBox="0 0 1912 1094" width="1912px" zoomAndPan="magnify"><defs/><g><text fill="#000000" font-family="sans-serif" font-size="11.2" font-weight="bold" lengthAdjust="spacing" textLength="168.8" x="866" y="20.0859">Project Domain Model - UC033</text><!--cluster CustomerAggregate--><g id="cluster_CustomerAggregate"><rect fill="none" height="156" rx="2" ry="2" style="stroke:#000000;stroke-width:1.2000000000000002;" width="125.6" x="1138.4" y="934.0969"/><text fill="#000000" font-family="sans-serif" font-size="11.2" font-weight="bold" lengthAdjust="spacing" textLength="112.8" x="1144.8" y="947.7828">CustomerAggregate</text></g><!--cluster CandidateAggregate--><g id="cluster_CandidateAggregate"><rect fill="none" height="85.6" rx="2" ry="2" style="stroke:#000000;stroke-width:1.2000000000000002;" width="128" x="308.8" y="150.8969"/><text fill="#000000" font-family="sans-serif" font-size="11.2" font-weight="bold" lengthAdjust="spacing" textLength="115.2" x="315.2" y="164.5828">CandidateAggregate</text></g><!--cluster JobOpeningAggregate--><g id="cluster_JobOpeningAggregate"><rect fill="none" height="472" rx="2" ry="2" style="stroke:#000000;stroke-width:1.2000000000000002;" width="756" x="262.4" y="336.4969"/><text fill="#000000" font-family="sans-serif" font-size="11.2" font-weight="bold" lengthAdjust="spacing" textLength="127.2" x="576.8" y="350.1828">JobOpeningAggregate</text></g><!--cluster InterviewModelPackage--><g id="cluster_InterviewModelPackage"><rect fill="none" height="367.2" rx="2" ry="2" style="stroke:#000000;stroke-width:1.2000000000000002;" width="181.6" x="281.6" y="422.0969"/><text fill="#000000" font-family="sans-serif" font-size="11.2" font-weight="bold" lengthAdjust="spacing" textLength="135.2" x="304.8" y="435.7828">InterviewModelPackage</text></g><!--cluster JobApplicationAggregate--><g id="cluster_JobApplicationAggregate"><rect fill="none" height="352" rx="2" ry="2" style="stroke:#000000;stroke-width:1.2000000000000002;" width="502.4" x="1149.6" y="37.2969"/><text fill="#000000" font-family="sans-serif" font-size="11.2" font-weight="bold" lengthAdjust="spacing" textLength="141.6" x="1330" y="50.9828">JobApplicationAggregate</text></g><!--cluster InterviewPackage--><g id="cluster_InterviewPackage"><rect fill="none" height="296.8" rx="2" ry="2" style="stroke:#000000;stroke-width:1.2000000000000002;" width="248.8" x="1384" y="73.2969"/><text fill="#000000" font-family="sans-serif" font-size="11.2" font-weight="bold" lengthAdjust="spacing" textLength="100" x="1458.4" y="86.9828">InterviewPackage</text></g><!--class Customer--><g id="elem_Customer"><rect codeLine="20" fill="#F1F1F1" height="42.0656" id="Customer" rx="2" ry="2" style="stroke:#181818;stroke-width:0.4000000000000001;" width="60" x="1171.2" y="964.0969"/><text fill="#000000" font-family="sans-serif" font-size="9.6" font-style="italic" lengthAdjust="spacing" textLength="58.4" x="1172" y="978.4563">&#171;Root Entity&#187;</text><text fill="#000000" font-family="sans-serif" font-size="11.2" lengthAdjust="spacing" textLength="48.8" x="1176.8" y="992.9516">Customer</text><line style="stroke:#181818;stroke-width:0.4000000000000001;" x1="1172" x2="1230.4" y1="999.7625" y2="999.7625"/></g><!--class CustomerCode--><g id="elem_CustomerCode"><rect codeLine="21" fill="#F1F1F1" height="42.0656" id="CustomerCode" rx="2" ry="2" style="stroke:#181818;stroke-width:0.4000000000000001;" width="80.8" x="1160.8" y="1034.4969"/><text fill="#000000" font-family="sans-serif" font-size="9.6" font-style="italic" lengthAdjust="spacing" textLength="68" x="1167.2" y="1048.8563">&#171;Value Object&#187;</text><text fill="#000000" font-family="sans-serif" font-size="11.2" lengthAdjust="spacing" textLength="76" x="1163.2" y="1063.3516">CustomerCode</text><line style="stroke:#181818;stroke-width:0.4000000000000001;" x1="1161.6" x2="1240.8" y1="1070.1625" y2="1070.1625"/></g><!--class Candidate--><g id="elem_Candidate"><rect codeLine="25" fill="#F1F1F1" height="42.0656" id="Candidate" rx="2" ry="2" style="stroke:#181818;stroke-width:0.4000000000000001;" width="60" x="342.4" y="180.8969"/><text fill="#000000" font-family="sans-serif" font-size="9.6" font-style="italic" lengthAdjust="spacing" textLength="58.4" x="343.2" y="195.2563">&#171;Root Entity&#187;</text><text fill="#000000" font-family="sans-serif" font-size="11.2" lengthAdjust="spacing" textLength="52" x="346.4" y="209.7516">Candidate</text><line style="stroke:#181818;stroke-width:0.4000000000000001;" x1="343.2" x2="401.6" y1="216.5625" y2="216.5625"/></g><!--class JobOpening--><g id="elem_JobOpening"><rect codeLine="29" fill="#F1F1F1" height="42.0656" id="JobOpening" rx="2" ry="2" style="stroke:#181818;stroke-width:0.4000000000000001;" width="65.6" x="339.6" y="366.4969"/><text fill="#000000" font-family="sans-serif" font-size="9.6" font-style="italic" lengthAdjust="spacing" textLength="58.4" x="343.2" y="380.8563">&#171;Root Entity&#187;</text><text fill="#000000" font-family="sans-serif" font-size="11.2" lengthAdjust="spacing" textLength="60.8" x="342" y="395.3516">JobOpening</text><line style="stroke:#181818;stroke-width:0.4000000000000001;" x1="340.4" x2="404.4" y1="402.1625" y2="402.1625"/></g><!--class Phase--><g id="elem_Phase"><rect codeLine="30" fill="#F1F1F1" height="116.55" id="Phase" rx="2" ry="2" style="stroke:#181818;stroke-width:0.4000000000000001;" width="80.8" x="584" y="366.0969"/><text fill="#000000" font-family="sans-serif" font-size="9.6" font-style="italic" lengthAdjust="spacing" textLength="68" x="590.4" y="380.4563">&#171;Value Object&#187;</text><text fill="#000000" font-family="sans-serif" font-size="11.2" lengthAdjust="spacing" textLength="32" x="608.4" y="394.9516">Phase</text><line style="stroke:#181818;stroke-width:0.4000000000000001;" x1="584.8" x2="664" y1="401.7625" y2="401.7625"/><text fill="#000000" font-family="sans-serif" font-size="11.2" lengthAdjust="spacing" textLength="71.2" x="588.8" y="417.0484">APPLICATION</text><text fill="#000000" font-family="sans-serif" font-size="11.2" lengthAdjust="spacing" textLength="63.2" x="588.8" y="431.9453">SCREENING</text><text fill="#000000" font-family="sans-serif" font-size="11.2" lengthAdjust="spacing" textLength="66.4" x="588.8" y="446.8422">INTERVIEWS</text><text fill="#000000" font-family="sans-serif" font-size="11.2" lengthAdjust="spacing" textLength="52" x="588.8" y="461.7391">ANALYSIS</text><text fill="#000000" font-family="sans-serif" font-size="11.2" lengthAdjust="spacing" textLength="43.2" x="588.8" y="476.6359">RESULT</text></g><!--class PhaseDetails--><g id="elem_PhaseDetails"><rect codeLine="37" fill="#F1F1F1" height="42.0656" id="PhaseDetails" rx="2" ry="2" style="stroke:#181818;stroke-width:0.4000000000000001;" width="71.2" x="798.4" y="403.2969"/><text fill="#000000" font-family="sans-serif" font-size="9.6" font-style="italic" lengthAdjust="spacing" textLength="68" x="800" y="417.6563">&#171;Value Object&#187;</text><text fill="#000000" font-family="sans-serif" font-size="11.2" lengthAdjust="spacing" textLength="66.4" x="800.8" y="432.1516">PhaseDetails</text><line style="stroke:#181818;stroke-width:0.4000000000000001;" x1="799.2" x2="868.8" y1="438.9625" y2="438.9625"/></g><!--class DateInterval--><g id="elem_DateInterval"><rect codeLine="38" fill="#F1F1F1" height="42.0656" id="DateInterval" rx="2" ry="2" style="stroke:#181818;stroke-width:0.4000000000000001;" width="69.6" x="926.8" y="488.0969"/><text fill="#000000" font-family="sans-serif" font-size="9.6" font-style="italic" lengthAdjust="spacing" textLength="68" x="927.6" y="502.4563">&#171;Value Object&#187;</text><text fill="#000000" font-family="sans-serif" font-size="11.2" lengthAdjust="spacing" textLength="60.8" x="931.2" y="516.9516">DateInterval</text><line style="stroke:#181818;stroke-width:0.4000000000000001;" x1="927.6" x2="995.6" y1="523.7625" y2="523.7625"/></g><!--class Status--><g id="elem_Status"><rect codeLine="39" fill="#F1F1F1" height="86.7563" id="Status" rx="2" ry="2" style="stroke:#181818;stroke-width:0.4000000000000001;" width="88" x="917.6" y="373.2969"/><text fill="#000000" font-family="sans-serif" font-size="9.6" font-style="italic" lengthAdjust="spacing" textLength="68" x="927.6" y="387.6563">&#171;Value Object&#187;</text><text fill="#000000" font-family="sans-serif" font-size="11.2" lengthAdjust="spacing" textLength="32" x="945.6" y="402.1516">Status</text><line style="stroke:#181818;stroke-width:0.4000000000000001;" x1="918.4" x2="1004.8" y1="408.9625" y2="408.9625"/><text fill="#000000" font-family="sans-serif" font-size="11.2" lengthAdjust="spacing" textLength="48" x="922.4" y="424.2484">PENDING</text><text fill="#000000" font-family="sans-serif" font-size="11.2" lengthAdjust="spacing" textLength="78.4" x="922.4" y="439.1453">IN_PROGRESS</text><text fill="#000000" font-family="sans-serif" font-size="11.2" lengthAdjust="spacing" textLength="68.8" x="922.4" y="454.0422">COMPLETED</text></g><!--class InterviewModel--><g id="elem_InterviewModel"><rect codeLine="45" fill="#F1F1F1" height="42.0656" id="InterviewModel" rx="2" ry="2" style="stroke:#181818;stroke-width:0.4000000000000001;" width="79.2" x="332.8" y="452.0969"/><text fill="#000000" font-family="sans-serif" font-size="9.6" font-style="italic" lengthAdjust="spacing" textLength="68" x="338.4" y="466.4563">&#171;Value Object&#187;</text><text fill="#000000" font-family="sans-serif" font-size="11.2" lengthAdjust="spacing" textLength="74.4" x="335.2" y="480.9516">InterviewModel</text><line style="stroke:#181818;stroke-width:0.4000000000000001;" x1="333.6" x2="411.2" y1="487.7625" y2="487.7625"/></g><!--class InterviewModelDesignation--><g id="elem_InterviewModelDesignation"><rect codeLine="46" fill="#F1F1F1" height="42.0656" id="InterviewModelDesignation" rx="2" ry="2" style="stroke:#181818;stroke-width:0.4000000000000001;" width="139.2" x="302.8" y="663.2969"/><text fill="#000000" font-family="sans-serif" font-size="9.6" font-style="italic" lengthAdjust="spacing" textLength="68" x="338.4" y="677.6563">&#171;Value Object&#187;</text><text fill="#000000" font-family="sans-serif" font-size="11.2" lengthAdjust="spacing" textLength="134.4" x="305.2" y="692.1516">InterviewModelDesignation</text><line style="stroke:#181818;stroke-width:0.4000000000000001;" x1="303.6" x2="441.2" y1="698.9625" y2="698.9625"/></g><!--class InterviewModelDescription--><g id="elem_InterviewModelDescription"><rect codeLine="47" fill="#F1F1F1" height="42.0656" id="InterviewModelDescription" rx="2" ry="2" style="stroke:#181818;stroke-width:0.4000000000000001;" width="136" x="304.4" y="733.6969"/><text fill="#000000" font-family="sans-serif" font-size="9.6" font-style="italic" lengthAdjust="spacing" textLength="68" x="338.4" y="748.0563">&#171;Value Object&#187;</text><text fill="#000000" font-family="sans-serif" font-size="11.2" lengthAdjust="spacing" textLength="131.2" x="306.8" y="762.5516">InterviewModelDescription</text><line style="stroke:#181818;stroke-width:0.4000000000000001;" x1="305.2" x2="439.6" y1="769.3625" y2="769.3625"/></g><!--class InterviewModelFileExtension--><g id="elem_InterviewModelFileExtension"><rect codeLine="48" fill="#F1F1F1" height="42.0656" id="InterviewModelFileExtension" rx="2" ry="2" style="stroke:#181818;stroke-width:0.4000000000000001;" width="146.4" x="299.2" y="522.4969"/><text fill="#000000" font-family="sans-serif" font-size="9.6" font-style="italic" lengthAdjust="spacing" textLength="68" x="338.4" y="536.8563">&#171;Value Object&#187;</text><text fill="#000000" font-family="sans-serif" font-size="11.2" lengthAdjust="spacing" textLength="141.6" x="301.6" y="551.3516">InterviewModelFileExtension</text><line style="stroke:#181818;stroke-width:0.4000000000000001;" x1="300" x2="444.8" y1="558.1625" y2="558.1625"/></g><!--class InterviewModelFQCLassName--><g id="elem_InterviewModelFQCLassName"><rect codeLine="49" fill="#F1F1F1" height="42.0656" id="InterviewModelFQCLassName" rx="2" ry="2" style="stroke:#181818;stroke-width:0.4000000000000001;" width="156" x="294.4" y="592.8969"/><text fill="#000000" font-family="sans-serif" font-size="9.6" font-style="italic" lengthAdjust="spacing" textLength="68" x="338.4" y="607.2563">&#171;Value Object&#187;</text><text fill="#000000" font-family="sans-serif" font-size="11.2" lengthAdjust="spacing" textLength="151.2" x="296.8" y="621.7516">InterviewModelFQCLassName</text><line style="stroke:#181818;stroke-width:0.4000000000000001;" x1="295.2" x2="449.6" y1="628.5625" y2="628.5625"/></g><!--class JobApplication--><g id="elem_JobApplication"><rect codeLine="58" fill="#F1F1F1" height="42.0656" id="JobApplication" rx="2" ry="2" style="stroke:#181818;stroke-width:0.4000000000000001;" width="77.6" x="1162.4" y="208.8969"/><text fill="#000000" font-family="sans-serif" font-size="9.6" font-style="italic" lengthAdjust="spacing" textLength="58.4" x="1172" y="223.2563">&#171;Root Entity&#187;</text><text fill="#000000" font-family="sans-serif" font-size="11.2" lengthAdjust="spacing" textLength="72.8" x="1164.8" y="237.7516">JobApplication</text><line style="stroke:#181818;stroke-width:0.4000000000000001;" x1="1163.2" x2="1239.2" y1="244.5625" y2="244.5625"/></g><!--class Interview--><g id="elem_Interview"><rect codeLine="60" fill="#F1F1F1" height="42.0656" id="Interview" rx="2" ry="2" style="stroke:#181818;stroke-width:0.4000000000000001;" width="69.6" x="1396.8" y="208.8969"/><text fill="#000000" font-family="sans-serif" font-size="9.6" font-style="italic" lengthAdjust="spacing" textLength="68" x="1397.6" y="223.2563">&#171;Value Object&#187;</text><text fill="#000000" font-family="sans-serif" font-size="11.2" lengthAdjust="spacing" textLength="44" x="1409.6" y="237.7516">Interview</text><line style="stroke:#181818;stroke-width:0.4000000000000001;" x1="1397.6" x2="1465.6" y1="244.5625" y2="244.5625"/></g><!--class InterviewDate--><g id="elem_InterviewDate"><rect codeLine="61" fill="#F1F1F1" height="42.0656" id="InterviewDate" rx="2" ry="2" style="stroke:#181818;stroke-width:0.4000000000000001;" width="72.8" x="1530.8" y="314.4969"/><text fill="#000000" font-family="sans-serif" font-size="9.6" font-style="italic" lengthAdjust="spacing" textLength="68" x="1533.2" y="328.8563">&#171;Value Object&#187;</text><text fill="#000000" font-family="sans-serif" font-size="11.2" lengthAdjust="spacing" textLength="68" x="1533.2" y="343.3516">InterviewDate</text><line style="stroke:#181818;stroke-width:0.4000000000000001;" x1="1531.6" x2="1602.8" y1="350.1625" y2="350.1625"/></g><!--class InterviewName--><g id="elem_InterviewName"><rect codeLine="62" fill="#F1F1F1" height="42.0656" id="InterviewName" rx="2" ry="2" style="stroke:#181818;stroke-width:0.4000000000000001;" width="77.6" x="1528.4" y="173.6969"/><text fill="#000000" font-family="sans-serif" font-size="9.6" font-style="italic" lengthAdjust="spacing" textLength="68" x="1533.2" y="188.0563">&#171;Value Object&#187;</text><text fill="#000000" font-family="sans-serif" font-size="11.2" lengthAdjust="spacing" textLength="72.8" x="1530.8" y="202.5516">InterviewName</text><line style="stroke:#181818;stroke-width:0.4000000000000001;" x1="1529.2" x2="1605.2" y1="209.3625" y2="209.3625"/></g><!--class InterviewDescription--><g id="elem_InterviewDescription"><rect codeLine="63" fill="#F1F1F1" height="42.0656" id="InterviewDescription" rx="2" ry="2" style="stroke:#181818;stroke-width:0.4000000000000001;" width="105.6" x="1514.4" y="244.0969"/><text fill="#000000" font-family="sans-serif" font-size="9.6" font-style="italic" lengthAdjust="spacing" textLength="68" x="1533.2" y="258.4563">&#171;Value Object&#187;</text><text fill="#000000" font-family="sans-serif" font-size="11.2" lengthAdjust="spacing" textLength="100.8" x="1516.8" y="272.9516">InterviewDescription</text><line style="stroke:#181818;stroke-width:0.4000000000000001;" x1="1515.2" x2="1619.2" y1="279.7625" y2="279.7625"/></g><!--class InterviewGrade--><g id="elem_InterviewGrade"><rect codeLine="64" fill="#F1F1F1" height="42.0656" id="InterviewGrade" rx="2" ry="2" style="stroke:#181818;stroke-width:0.4000000000000001;" width="80.8" x="1526.8" y="103.2969"/><text fill="#000000" font-family="sans-serif" font-size="9.6" font-style="italic" lengthAdjust="spacing" textLength="68" x="1533.2" y="117.6563">&#171;Value Object&#187;</text><text fill="#000000" font-family="sans-serif" font-size="11.2" lengthAdjust="spacing" textLength="76" x="1529.2" y="132.1516">InterviewGrade</text><line style="stroke:#181818;stroke-width:0.4000000000000001;" x1="1527.6" x2="1606.8" y1="138.9625" y2="138.9625"/></g><!--class CustomerManager--><g id="elem_CustomerManager"><rect codeLine="16" fill="#F1F1F1" height="29.2969" id="CustomerManager" rx="2" ry="2" style="stroke:#181818;stroke-width:0.4000000000000001;" width="98.4" x="148" y="672.0969"/><text fill="#000000" font-family="sans-serif" font-size="11.2" lengthAdjust="spacing" textLength="93.6" x="150.4" y="688.1828">CustomerManager</text><line style="stroke:#181818;stroke-width:0.4000000000000001;" x1="148.8" x2="245.6" y1="694.9938" y2="694.9938"/></g><g id="elem_GMN3"><path d="M4.8,676.0969 L4.8,697.9297 A0,0 0 0 0 4.8,697.9297 L100,697.9297 A0,0 0 0 0 100,697.9297 L100,690.4969 L147.816,686.8969 L100,684.0969 L100,684.0969 L92,676.0969 L4.8,676.0969 A0,0 0 0 0 4.8,676.0969 " fill="#FEFFDD" style="stroke:#181818;stroke-width:0.4000000000000001;"/><path d="M92,676.0969 L92,684.0969 L100,684.0969 L92,676.0969 " fill="#FEFFDD" style="stroke:#181818;stroke-width:0.4000000000000001;"/><text fill="#000000" font-family="sans-serif" font-size="10.4" lengthAdjust="spacing" textLength="78.4" x="9.6" y="691.3195">conceptual class</text></g><g id="elem_GMN23"><path d="M505.2,871.2969 L505.2,893.1297 L743.6,893.1297 L743.6,879.2969 L735.6,871.2969 L505.2,871.2969 " fill="#FEFFDD" style="stroke:#181818;stroke-width:0.4000000000000001;"/><path d="M735.6,871.2969 L735.6,879.2969 L743.6,879.2969 L735.6,871.2969 " fill="#FEFFDD" style="stroke:#181818;stroke-width:0.8000000000000002;"/><text fill="#000000" font-family="sans-serif" font-size="10.4" lengthAdjust="spacing" textLength="221.6" x="510" y="886.5195">Designation (provided by EAPLI FRAMEWORK)</text></g><g id="elem_GMN26"><path d="M506.4,920.8969 L506.4,942.7297 L742.4,942.7297 L742.4,928.8969 L734.4,920.8969 L506.4,920.8969 " fill="#FEFFDD" style="stroke:#181818;stroke-width:0.4000000000000001;"/><path d="M734.4,920.8969 L734.4,928.8969 L742.4,928.8969 L734.4,920.8969 " fill="#FEFFDD" style="stroke:#181818;stroke-width:0.8000000000000002;"/><text fill="#000000" font-family="sans-serif" font-size="10.4" lengthAdjust="spacing" textLength="219.2" x="511.2" y="936.1195">Description (provided by EAPLI FRAMEWORK)</text></g><g id="elem_GMN29"><path d="M500.8,301.6969 L500.8,323.5297 L748,323.5297 L748,309.6969 L740,301.6969 L500.8,301.6969 " fill="#FEFFDD" style="stroke:#181818;stroke-width:0.4000000000000001;"/><path d="M740,301.6969 L740,309.6969 L748,309.6969 L740,301.6969 " fill="#FEFFDD" style="stroke:#181818;stroke-width:0.8000000000000002;"/><text fill="#000000" font-family="sans-serif" font-size="10.4" lengthAdjust="spacing" textLength="230.4" x="505.6" y="316.9195">FileExtension (provided by EAPLI FRAMEWORK)</text></g><g id="elem_GMN32"><path d="M498.4,821.6969 L498.4,843.5297 L750.4,843.5297 L750.4,829.6969 L742.4,821.6969 L498.4,821.6969 " fill="#FEFFDD" style="stroke:#181818;stroke-width:0.4000000000000001;"/><path d="M742.4,821.6969 L742.4,829.6969 L750.4,829.6969 L742.4,821.6969 " fill="#FEFFDD" style="stroke:#181818;stroke-width:0.8000000000000002;"/><text fill="#000000" font-family="sans-serif" font-size="10.4" lengthAdjust="spacing" textLength="235.2" x="503.2" y="836.9195">FQClassName (provided by EAPLI FRAMEWORK)</text></g><g id="elem_GMN43"><path d="M1668,184.0969 L1668,191.6969 L1606.024,194.8969 L1668,198.0969 L1668,205.9297 A0,0 0 0 0 1668,205.9297 L1906.4,205.9297 A0,0 0 0 0 1906.4,205.9297 L1906.4,192.0969 L1898.4,184.0969 L1668,184.0969 A0,0 0 0 0 1668,184.0969 " fill="#FEFFDD" style="stroke:#181818;stroke-width:0.4000000000000001;"/><path d="M1898.4,184.0969 L1898.4,192.0969 L1906.4,192.0969 L1898.4,184.0969 " fill="#FEFFDD" style="stroke:#181818;stroke-width:0.4000000000000001;"/><text fill="#000000" font-family="sans-serif" font-size="10.4" lengthAdjust="spacing" textLength="221.6" x="1672.8" y="199.3195">Designation (provided by EAPLI FRAMEWORK)</text></g><g id="elem_GMN46"><path d="M1669.2,254.4969 L1669.2,262.0969 L1620.176,265.2969 L1669.2,268.4969 L1669.2,276.3297 A0,0 0 0 0 1669.2,276.3297 L1905.2,276.3297 A0,0 0 0 0 1905.2,276.3297 L1905.2,262.4969 L1897.2,254.4969 L1669.2,254.4969 A0,0 0 0 0 1669.2,254.4969 " fill="#FEFFDD" style="stroke:#181818;stroke-width:0.4000000000000001;"/><path d="M1897.2,254.4969 L1897.2,262.4969 L1905.2,262.4969 L1897.2,254.4969 " fill="#FEFFDD" style="stroke:#181818;stroke-width:0.4000000000000001;"/><text fill="#000000" font-family="sans-serif" font-size="10.4" lengthAdjust="spacing" textLength="219.2" x="1674" y="269.7195">Description (provided by EAPLI FRAMEWORK)</text></g><!--link InterviewModelDesignation to GMN23--><g id="link_InterviewModelDesignation_GMN23"><path d="M442.048,684.4969 C443.808,684.4969 444.8,684.4969 444.8,684.4969 C444.8,684.4969 444.8,882.0969 444.8,882.0969 C444.8,882.0969 471.928,882.0969 505.104,882.0969 " fill="none" id="InterviewModelDesignation-GMN23" style="stroke:#181818;stroke-width:0.8000000000000002;stroke-dasharray:7.0,7.0;"/></g><!--link InterviewModelDescription to GMN26--><g id="link_InterviewModelDescription_GMN26"><path d="M372.8,776.2249 C372.8,823.2489 372.8,931.6969 372.8,931.6969 C372.8,931.6969 440.968,931.6969 506.336,931.6969 " fill="none" id="InterviewModelDescription-GMN26" style="stroke:#181818;stroke-width:0.8000000000000002;stroke-dasharray:7.0,7.0;"/></g><!--link InterviewModelFileExtension to GMN29--><g id="link_InterviewModelFileExtension_GMN29"><path d="M428.8,522.3609 C428.8,465.1289 428.8,312.4969 428.8,312.4969 C428.8,312.4969 461.704,312.4969 500.52,312.4969 " fill="none" id="InterviewModelFileExtension-GMN29" style="stroke:#181818;stroke-width:0.8000000000000002;stroke-dasharray:7.0,7.0;"/></g><!--link InterviewModelFQCLassName to GMN32--><g id="link_InterviewModelFQCLassName_GMN32"><path d="M448,635.4329 C448,690.3929 448,832.4969 448,832.4969 C448,832.4969 469.92,832.4969 498.312,832.4969 " fill="none" id="InterviewModelFQCLassName-GMN32" style="stroke:#181818;stroke-width:0.8000000000000002;stroke-dasharray:7.0,7.0;"/></g><!--link CustomerManager to Customer--><g id="link_CustomerManager_Customer"><path codeLine="70" d="M197.6,701.8969 C197.6,762.4089 197.6,985.2969 197.6,985.2969 C197.6,985.2969 1004.176,985.2969 1171.168,985.2969 " fill="none" id="CustomerManager-Customer" style="stroke:#181818;stroke-width:0.8000000000000002;"/><polygon fill="#000000" points="496.1206,994.1313,489.83,989.8514,488.5158,994.3663,496.1206,994.1313" style="stroke:#000000;stroke-width:0.8000000000000002;"/><text fill="#000000" font-family="sans-serif" font-size="10.4" lengthAdjust="spacing" textLength="42.4" x="499.48" y="997.3195">manages</text><text fill="#000000" font-family="sans-serif" font-size="10.4" lengthAdjust="spacing" textLength="5.6" x="191.355" y="719.0503">1</text><text fill="#000000" font-family="sans-serif" font-size="10.4" lengthAdjust="spacing" textLength="4" x="1160.8617" y="997.9141">*</text></g><!--link Candidate to JobApplication--><g id="link_Candidate_JobApplication"><path codeLine="72" d="M402.632,216.0969 C529.64,216.0969 1019.968,216.0969 1162.272,216.0969 " fill="none" id="Candidate-JobApplication" style="stroke:#181818;stroke-width:0.8000000000000002;"/><polygon fill="#000000" points="733.656,223.8133,726.4199,221.4621,726.4199,226.1644,733.656,223.8133" style="stroke:#000000;stroke-width:0.8000000000000002;"/><text fill="#000000" font-family="sans-serif" font-size="10.4" lengthAdjust="spacing" textLength="44.8" x="736.856" y="228.1195">applies to</text><text fill="#000000" font-family="sans-serif" font-size="10.4" lengthAdjust="spacing" textLength="5.6" x="408.7223" y="231.2068">1</text><text fill="#000000" font-family="sans-serif" font-size="10.4" lengthAdjust="spacing" textLength="4" x="1152.0049" y="226.2605">*</text></g><!--link CustomerManager to JobOpening--><g id="link_CustomerManager_JobOpening"><path codeLine="74" d="M197.6,672.0569 C197.6,611.6889 197.6,387.6969 197.6,387.6969 C197.6,387.6969 288.888,387.6969 339.52,387.6969 " fill="none" id="CustomerManager-JobOpening" style="stroke:#181818;stroke-width:0.8000000000000002;"/><polygon fill="#000000" points="156.9862,463.0583,151.6512,468.4828,155.8586,470.5827,156.9862,463.0583" style="stroke:#000000;stroke-width:0.8000000000000002;"/><text fill="#000000" font-family="sans-serif" font-size="10.4" lengthAdjust="spacing" textLength="34.4" x="162.4" y="470.9435">creates</text><text fill="#000000" font-family="sans-serif" font-size="10.4" lengthAdjust="spacing" textLength="5.6" x="191.265" y="663.1343">1</text><text fill="#000000" font-family="sans-serif" font-size="10.4" lengthAdjust="spacing" textLength="4" x="329.307" y="400.1813">*</text></g><!--link JobOpening to JobApplication--><g id="link_JobOpening_JobApplication"><path codeLine="76" d="M372.8,366.4649 C372.8,325.0089 372.8,237.2969 372.8,237.2969 C372.8,237.2969 998.576,237.2969 1162.352,237.2969 " fill="none" id="JobOpening-JobApplication" style="stroke:#181818;stroke-width:0.8000000000000002;"/><polygon fill="#000000" points="682.2445,245.6591,689.7652,246.8111,689.006,242.1705,682.2445,245.6591" style="stroke:#000000;stroke-width:0.8000000000000002;"/><text fill="#000000" font-family="sans-serif" font-size="10.4" lengthAdjust="spacing" textLength="8.8" x="693.392" y="249.3195">to</text><text fill="#000000" font-family="sans-serif" font-size="10.4" lengthAdjust="spacing" textLength="5.6" x="366.615" y="357.3239">1</text><text fill="#000000" font-family="sans-serif" font-size="10.4" lengthAdjust="spacing" textLength="4" x="1152.0972" y="250.7067">*</text></g><!--link JobOpening to Phase--><g id="link_JobOpening_Phase"><path codeLine="77" d="M405.344,387.6969 C451.24,387.6969 534.344,387.6969 583.944,387.6969 " fill="none" id="JobOpening-Phase" style="stroke:#181818;stroke-width:0.8000000000000002;"/><polygon fill="#000000" points="473.848,395.4133,466.6119,393.0621,466.6119,397.7644,473.848,395.4133" style="stroke:#000000;stroke-width:0.8000000000000002;"/><text fill="#000000" font-family="sans-serif" font-size="10.4" lengthAdjust="spacing" textLength="16.8" x="477.048" y="399.7195">has</text><text fill="#000000" font-family="sans-serif" font-size="10.4" lengthAdjust="spacing" textLength="5.6" x="411.7109" y="400.1813">1</text><text fill="#000000" font-family="sans-serif" font-size="10.4" lengthAdjust="spacing" textLength="17.6" x="560.0331" y="395.1067">4..5</text></g><!--link Phase to PhaseDetails--><g id="link_Phase_PhaseDetails"><path codeLine="79" d="M664.816,424.4969 C703.472,424.4969 761.224,424.4969 798.248,424.4969 " fill="none" id="Phase-PhaseDetails" style="stroke:#181818;stroke-width:0.8000000000000002;"/><polygon fill="#000000" points="709.136,432.2133,701.8999,429.8621,701.8999,434.5644,709.136,432.2133" style="stroke:#000000;stroke-width:0.8000000000000002;"/><text fill="#000000" font-family="sans-serif" font-size="10.4" lengthAdjust="spacing" textLength="18.4" x="712.336" y="436.5195">with</text><text fill="#000000" font-family="sans-serif" font-size="10.4" lengthAdjust="spacing" textLength="5.6" x="671.1634" y="436.7537">1</text><text fill="#000000" font-family="sans-serif" font-size="10.4" lengthAdjust="spacing" textLength="5.6" x="786.5038" y="436.8485">1</text></g><!--link PhaseDetails to Status--><g id="link_PhaseDetails_Status"><path codeLine="80" d="M869.88,424.4969 C884.696,424.4969 902.016,424.4969 917.592,424.4969 " fill="none" id="PhaseDetails-Status" style="stroke:#181818;stroke-width:0.8000000000000002;"/><polygon fill="#000000" points="872.936,417.0133,865.6999,414.6621,865.6999,419.3644,872.936,417.0133" style="stroke:#000000;stroke-width:0.8000000000000002;"/><text fill="#000000" font-family="sans-serif" font-size="10.4" lengthAdjust="spacing" textLength="16.8" x="876.136" y="421.3195">has</text><text fill="#000000" font-family="sans-serif" font-size="10.4" lengthAdjust="spacing" textLength="5.6" x="876.0446" y="436.8485">1</text><text fill="#000000" font-family="sans-serif" font-size="10.4" lengthAdjust="spacing" textLength="5.6" x="905.7022" y="437.7">1</text></g><!--link PhaseDetails to DateInterval--><g id="link_PhaseDetails_DateInterval"><path codeLine="81" d="M834.4,446.0009 C834.4,465.5289 834.4,491.2969 834.4,491.2969 C834.4,491.2969 888.856,491.2969 926.504,491.2969 " fill="none" id="PhaseDetails-DateInterval" style="stroke:#181818;stroke-width:0.8000000000000002;"/><polygon fill="#000000" points="836.5974,500.7785,831.1417,495.4754,829.0665,499.695,836.5974,500.7785" style="stroke:#000000;stroke-width:0.8000000000000002;"/><text fill="#000000" font-family="sans-serif" font-size="10.4" lengthAdjust="spacing" textLength="16.8" x="840.208" y="503.3195">has</text><text fill="#000000" font-family="sans-serif" font-size="10.4" lengthAdjust="spacing" textLength="5.6" x="828.305" y="463.1197">1</text><text fill="#000000" font-family="sans-serif" font-size="10.4" lengthAdjust="spacing" textLength="5.6" x="914.8643" y="500.7797">1</text></g><!--link JobApplication to Interview--><g id="link_JobApplication_Interview"><path codeLine="83" d="M1240.024,230.0969 C1283.888,230.0969 1354.624,230.0969 1396.768,230.0969 " fill="none" id="JobApplication-Interview" style="stroke:#181818;stroke-width:0.8000000000000002;"/><polygon fill="#000000" points="1297.6,237.8133,1290.3639,235.4621,1290.3639,240.1644,1297.6,237.8133" style="stroke:#000000;stroke-width:0.8000000000000002;"/><text fill="#000000" font-family="sans-serif" font-size="10.4" lengthAdjust="spacing" textLength="16.8" x="1300.8" y="242.1195">has</text><text fill="#000000" font-family="sans-serif" font-size="10.4" lengthAdjust="spacing" textLength="5.6" x="1246.3977" y="242.4042">1</text><text fill="#000000" font-family="sans-serif" font-size="10.4" lengthAdjust="spacing" textLength="17.6" x="1372.7596" y="242.3599">0..1</text></g><!--link Interview to InterviewDate--><g id="link_Interview_InterviewDate"><path codeLine="85" d="M1432,251.3689 C1432,277.6409 1432,318.8969 1432,318.8969 C1432,318.8969 1490.576,318.8969 1530.616,318.8969 " fill="none" id="Interview-InterviewDate" style="stroke:#181818;stroke-width:0.8000000000000002;"/><polygon fill="#000000" points="1431.6444,328.8732,1427.0023,322.845,1424.3456,326.7249,1431.6444,328.8732" style="stroke:#000000;stroke-width:0.8000000000000002;"/><text fill="#000000" font-family="sans-serif" font-size="10.4" lengthAdjust="spacing" textLength="11.2" x="1435.544" y="330.9195">on</text><text fill="#000000" font-family="sans-serif" font-size="10.4" lengthAdjust="spacing" textLength="5.6" x="1425.905" y="268.4399">1</text><text fill="#000000" font-family="sans-serif" font-size="10.4" lengthAdjust="spacing" textLength="5.6" x="1518.7392" y="328.571">1</text></g><!--link Interview to InterviewName--><g id="link_Interview_InterviewName"><path codeLine="86" d="M1466.52,212.4969 C1485.432,212.4969 1508.848,212.4969 1528.336,212.4969 " fill="none" id="Interview-InterviewName" style="stroke:#181818;stroke-width:0.8000000000000002;"/><polygon fill="#000000" points="1438.224,205.0133,1430.9879,202.6621,1430.9879,207.3644,1438.224,205.0133" style="stroke:#000000;stroke-width:0.8000000000000002;"/><text fill="#000000" font-family="sans-serif" font-size="10.4" lengthAdjust="spacing" textLength="55.2" x="1441.424" y="209.3195">identified by</text><text fill="#000000" font-family="sans-serif" font-size="10.4" lengthAdjust="spacing" textLength="5.6" x="1472.7674" y="221.9778">1</text><text fill="#000000" font-family="sans-serif" font-size="10.4" lengthAdjust="spacing" textLength="5.6" x="1516.3562" y="227.4992">1</text></g><!--link Interview to InterviewDescription--><g id="link_Interview_InterviewDescription"><path codeLine="87" d="M1466.52,247.6969 C1481.04,247.6969 1498.208,247.6969 1514.216,247.6969 " fill="none" id="Interview-InterviewDescription" style="stroke:#181818;stroke-width:0.8000000000000002;"/><polygon fill="#000000" points="1498.368,240.2133,1491.1319,237.8621,1491.1319,242.5644,1498.368,240.2133" style="stroke:#000000;stroke-width:0.8000000000000002;"/><text fill="#000000" font-family="sans-serif" font-size="10.4" lengthAdjust="spacing" textLength="18.4" x="1501.568" y="244.5195">with</text><text fill="#000000" font-family="sans-serif" font-size="10.4" lengthAdjust="spacing" textLength="5.6" x="1472.7674" y="263.0078">1</text><text fill="#000000" font-family="sans-serif" font-size="10.4" lengthAdjust="spacing" textLength="5.6" x="1502.5146" y="257.7693">1</text></g><!--link Interview to InterviewGrade--><g id="link_Interview_InterviewGrade"><path codeLine="88" d="M1432,208.7289 C1432,177.8729 1432,124.4969 1432,124.4969 C1432,124.4969 1486.808,124.4969 1526.632,124.4969 " fill="none" id="Interview-InterviewGrade" style="stroke:#181818;stroke-width:0.8000000000000002;"/><polygon fill="#000000" points="1413.7878,129.5538,1406.8196,132.6086,1409.946,136.1211,1413.7878,129.5538" style="stroke:#000000;stroke-width:0.8000000000000002;"/><text fill="#000000" font-family="sans-serif" font-size="10.4" lengthAdjust="spacing" textLength="18.4" x="1418" y="136.5195">with</text><text fill="#000000" font-family="sans-serif" font-size="10.4" lengthAdjust="spacing" textLength="5.6" x="1425.845" y="199.9033">1</text><text fill="#000000" font-family="sans-serif" font-size="10.4" lengthAdjust="spacing" textLength="5.6" x="1514.9334" y="136.7157">1</text></g><!--SRC=[fLLDRvj04BtpAqPS-Y75IPJsWY9B29E8rX_4TXBrLArXZRTPTX6iaxXL_dl7O62nSHmdN6nctxnvCypiV5eebMJMwMd2YL3Bc7S26Py6d6JPISX8b9BOCB879XA2Vo4XmGE9w4IjE8MK1eg8Y5CDa2r8A9-OY61EUAQVv9osKYcRBHNr0Yacx2-5Cmt2cQ1gbL2GgLf8mr0o0ILX9fMICOHi7P19ON0wL-k3b4KBfTcD1Gifn1ITmwnu2LWQe413COMA_LJ-GIpqP4oOW84CAOSJk7NEBYuC8rS8pZB3Q3GT486PfeQGYa8UKSwt3ot0D0AQg2NXHOA6iIbH1RMZAAKHGP9_1k3JZ0ANbsCf5RW25QwwtHQ8WoeHTaVuai9ejau0SIzQ92925cA4FQ7AuvrO6iSFEHibLE27QoUfpriLKx6CmL-GR5VfXcRzsBxVznnxwes6bMtYZ5rtw0slAuitdBhZEy-zdzIEGxl_Q-BLXh4xkUrFyzSNJMMke4SLOJpRBLcDws5wdb0qVSJlrehB4veeefRPQndvxh3NrFxR7u-kKLwjrHaD_BuxTNkQtBBiXGX6d_9Mz3VMch-GsqIr2zw7xj6CHOAiv-Deno1boV6ELunJzrbHaHtlUkFqqJeaCMrtVC6UpGUo67sSoBtPMg2d_Zb9vIDU227CLk3Qs8TmDRO7xlre_FFB8Sgo3ZbbLPJtKpOgP46pO1-WhQk7f3SEBqlvEgL-1zX9mbcGbsplFQ1XMk-2dTu-sDPlRf9USOkz3Ro_YzgOtz7jroa9Z-_JulDyk3VVsPR6rWO3yzo4ayq3vbUptamMn3acWowwLKj4SyZnMnrX0Lc_eHSkwEw-UALdkLDmaQOKsVDOclrWC0nokUi0vhTEvxkvsKWMuC-Qk7Wj8UTcSrzOyCJK0d4DguRUh8EIRX-iiLogs5lAoyJ0FEjqy7yz2vL7RTB8cwDW0L9r3o3pER00MmAdTCwAnZZaf7TKLPZNNOfngC3_0G00]--></g></svg>