<?xml version="1.0" encoding="us-ascii" standalone="no"?><svg xmlns="http://www.w3.org/2000/svg" xmlns:xlink="http://www.w3.org/1999/xlink" contentStyleType="text/css" height="826px" preserveAspectRatio="none" style="width:715px;height:826px;background:#FFFFFF;" version="1.1" viewBox="0 0 715 826" width="715px" zoomAndPan="magnify"><defs/><g><text fill="#000000" font-family="sans-serif" font-size="14" font-weight="bold" lengthAdjust="spacing" textLength="285" x="217.25" y="30.1074">System Sequence Diagram (SSD) - UC022</text><rect fill="#FFFFFF" height="601.2383" style="stroke:#181818;stroke-width:1.0;" width="10" x="78.5" y="133.2422"/><rect fill="#FFFFFF" height="75.582" style="stroke:#181818;stroke-width:1.0;" width="10" x="380.5" y="156.5332"/><rect fill="#FFFFFF" height="75.582" style="stroke:#181818;stroke-width:1.0;" width="10" x="380.5" y="263.4063"/><rect fill="#FFFFFF" height="31.291" style="stroke:#181818;stroke-width:1.0;" width="10" x="380.5" y="451.1523"/><rect fill="#FFFFFF" height="31.291" style="stroke:#181818;stroke-width:1.0;" width="10" x="380.5" y="547.0254"/><rect fill="#FFFFFF" height="75.582" style="stroke:#181818;stroke-width:1.0;" width="10" x="380.5" y="642.8984"/><rect fill="none" height="81.873" style="stroke:#000000;stroke-width:1.5;" width="417.5" x="10" y="408.5703"/><rect fill="none" height="81.873" style="stroke:#000000;stroke-width:1.5;" width="417.5" x="10" y="504.4434"/><rect fill="none" height="126.1641" style="stroke:#000000;stroke-width:1.5;" width="588.5" x="10" y="600.3164"/><line style="stroke:#181818;stroke-width:0.5;stroke-dasharray:5.0,5.0;" x1="83" x2="83" y1="123.2422" y2="743.4805"/><line style="stroke:#181818;stroke-width:0.5;stroke-dasharray:5.0,5.0;" x1="385.5" x2="385.5" y1="123.2422" y2="743.4805"/><text fill="#000000" font-family="sans-serif" font-size="14" lengthAdjust="spacing" textLength="121" x="20" y="119.7285">Customer Manager</text><ellipse cx="83.5" cy="53.1211" fill="#E3E3E3" rx="8" ry="8" style="stroke:#181818;stroke-width:0.5;"/><path d="M83.5,61.1211 L83.5,88.1211 M70.5,69.1211 L96.5,69.1211 M83.5,88.1211 L70.5,103.1211 M83.5,88.1211 L96.5,103.1211 " fill="none" style="stroke:#181818;stroke-width:0.5;"/><text fill="#000000" font-family="sans-serif" font-size="14" lengthAdjust="spacing" textLength="121" x="20" y="757.5879">Customer Manager</text><ellipse cx="83.5" cy="769.6016" fill="#E3E3E3" rx="8" ry="8" style="stroke:#181818;stroke-width:0.5;"/><path d="M83.5,777.6016 L83.5,804.6016 M70.5,785.6016 L96.5,785.6016 M83.5,804.6016 L70.5,819.6016 M83.5,804.6016 L96.5,819.6016 " fill="none" style="stroke:#181818;stroke-width:0.5;"/><rect fill="#E3E3E3" height="32.6211" rx="2.5" ry="2.5" style="stroke:#181818;stroke-width:0.5;" width="64" x="353.5" y="89.6211"/><text fill="#000000" font-family="sans-serif" font-size="14" lengthAdjust="spacing" textLength="50" x="360.5" y="111.7285">:System</text><rect fill="#E3E3E3" height="32.6211" rx="2.5" ry="2.5" style="stroke:#181818;stroke-width:0.5;" width="64" x="353.5" y="742.4805"/><text fill="#000000" font-family="sans-serif" font-size="14" lengthAdjust="spacing" textLength="50" x="360.5" y="764.5879">:System</text><rect fill="#FFFFFF" height="601.2383" style="stroke:#181818;stroke-width:1.0;" width="10" x="78.5" y="133.2422"/><rect fill="#FFFFFF" height="75.582" style="stroke:#181818;stroke-width:1.0;" width="10" x="380.5" y="156.5332"/><rect fill="#FFFFFF" height="75.582" style="stroke:#181818;stroke-width:1.0;" width="10" x="380.5" y="263.4063"/><rect fill="#FFFFFF" height="31.291" style="stroke:#181818;stroke-width:1.0;" width="10" x="380.5" y="451.1523"/><rect fill="#FFFFFF" height="31.291" style="stroke:#181818;stroke-width:1.0;" width="10" x="380.5" y="547.0254"/><rect fill="#FFFFFF" height="75.582" style="stroke:#181818;stroke-width:1.0;" width="10" x="380.5" y="642.8984"/><polygon fill="#181818" points="368.5,152.5332,378.5,156.5332,368.5,160.5332,372.5,156.5332" style="stroke:#181818;stroke-width:1.0;"/><line style="stroke:#181818;stroke-width:1.0;" x1="88.5" x2="374.5" y1="156.5332" y2="156.5332"/><text fill="#000000" font-family="sans-serif" font-size="13" lengthAdjust="spacing" textLength="270" x="95.5" y="151.2705">Wants to rank the candidates for a job opening</text><line style="stroke:#181818;stroke-width:1.0;" x1="390.5" x2="432.5" y1="187.8242" y2="187.8242"/><line style="stroke:#181818;stroke-width:1.0;" x1="432.5" x2="432.5" y1="187.8242" y2="200.8242"/><line style="stroke:#181818;stroke-width:1.0;" x1="391.5" x2="432.5" y1="200.8242" y2="200.8242"/><polygon fill="#181818" points="401.5,196.8242,391.5,200.8242,401.5,204.8242,397.5,200.8242" style="stroke:#181818;stroke-width:1.0;"/><text fill="#000000" font-family="sans-serif" font-size="13" lengthAdjust="spacing" textLength="158" x="397.5" y="182.5615">Retrieve list of job openings</text><polygon fill="#181818" points="99.5,228.1152,89.5,232.1152,99.5,236.1152,95.5,232.1152" style="stroke:#181818;stroke-width:1.0;"/><line style="stroke:#181818;stroke-width:1.0;stroke-dasharray:2.0,2.0;" x1="93.5" x2="384.5" y1="232.1152" y2="232.1152"/><text fill="#000000" font-family="sans-serif" font-size="13" lengthAdjust="spacing" textLength="155" x="105.5" y="226.8525">Display list of job openings</text><polygon fill="#181818" points="368.5,259.4063,378.5,263.4063,368.5,267.4063,372.5,263.4063" style="stroke:#181818;stroke-width:1.0;"/><line style="stroke:#181818;stroke-width:1.0;" x1="88.5" x2="374.5" y1="263.4063" y2="263.4063"/><text fill="#000000" font-family="sans-serif" font-size="13" lengthAdjust="spacing" textLength="125" x="95.5" y="258.1436">Selects a job opening</text><line style="stroke:#181818;stroke-width:1.0;" x1="390.5" x2="432.5" y1="294.6973" y2="294.6973"/><line style="stroke:#181818;stroke-width:1.0;" x1="432.5" x2="432.5" y1="294.6973" y2="307.6973"/><line style="stroke:#181818;stroke-width:1.0;" x1="391.5" x2="432.5" y1="307.6973" y2="307.6973"/><polygon fill="#181818" points="401.5,303.6973,391.5,307.6973,401.5,311.6973,397.5,307.6973" style="stroke:#181818;stroke-width:1.0;"/><text fill="#000000" font-family="sans-serif" font-size="13" lengthAdjust="spacing" textLength="311" x="397.5" y="289.4346">Retrieve list of candidates for the selected job opening</text><polygon fill="#181818" points="99.5,334.9883,89.5,338.9883,99.5,342.9883,95.5,338.9883" style="stroke:#181818;stroke-width:1.0;"/><line style="stroke:#181818;stroke-width:1.0;stroke-dasharray:2.0,2.0;" x1="93.5" x2="384.5" y1="338.9883" y2="338.9883"/><text fill="#000000" font-family="sans-serif" font-size="13" lengthAdjust="spacing" textLength="268" x="105.5" y="333.7256">Display list of candidates with their information</text><path d="M93,351.9883 L93,395.9883 L332,395.9883 L332,361.9883 L322,351.9883 L93,351.9883 " fill="#FAFAFA" style="stroke:#181818;stroke-width:0.5;"/><path d="M322,351.9883 L322,361.9883 L332,361.9883 L322,351.9883 " fill="#FAFAFA" style="stroke:#181818;stroke-width:0.5;"/><text fill="#000000" font-family="sans-serif" font-size="13" lengthAdjust="spacing" textLength="210" x="99" y="371.0166">The candidates' information contains</text><text fill="#000000" font-family="sans-serif" font-size="13" lengthAdjust="spacing" textLength="218" x="99" y="388.3076">their CV and interview grade (if exists)</text><path d="M10,408.5703 L83,408.5703 L83,417.8613 L73,427.8613 L10,427.8613 L10,408.5703 " fill="#EEEEEE" style="stroke:#000000;stroke-width:1.5;"/><rect fill="none" height="81.873" style="stroke:#000000;stroke-width:1.5;" width="417.5" x="10" y="408.5703"/><text fill="#000000" font-family="sans-serif" font-size="13" font-weight="bold" lengthAdjust="spacing" textLength="28" x="25" y="423.5986">loop</text><text fill="#000000" font-family="sans-serif" font-size="11" font-weight="bold" lengthAdjust="spacing" textLength="264" x="98" y="422.4404">[until candidates ranked = number of vacancies]</text><polygon fill="#181818" points="368.5,447.1523,378.5,451.1523,368.5,455.1523,372.5,451.1523" style="stroke:#181818;stroke-width:1.0;"/><line style="stroke:#181818;stroke-width:1.0;" x1="88.5" x2="374.5" y1="451.1523" y2="451.1523"/><text fill="#000000" font-family="sans-serif" font-size="13" lengthAdjust="spacing" textLength="187" x="95.5" y="445.8896">Selects a candidate and ranks it</text><polygon fill="#181818" points="99.5,478.4434,89.5,482.4434,99.5,486.4434,95.5,482.4434" style="stroke:#181818;stroke-width:1.0;"/><line style="stroke:#181818;stroke-width:1.0;stroke-dasharray:2.0,2.0;" x1="93.5" x2="384.5" y1="482.4434" y2="482.4434"/><text fill="#000000" font-family="sans-serif" font-size="13" lengthAdjust="spacing" textLength="129" x="105.5" y="477.1807">Confirmation message</text><path d="M10,504.4434 L83,504.4434 L83,513.7344 L73,523.7344 L10,523.7344 L10,504.4434 " fill="#EEEEEE" style="stroke:#000000;stroke-width:1.5;"/><rect fill="none" height="81.873" style="stroke:#000000;stroke-width:1.5;" width="417.5" x="10" y="504.4434"/><text fill="#000000" font-family="sans-serif" font-size="13" font-weight="bold" lengthAdjust="spacing" textLength="28" x="25" y="519.4717">loop</text><text fill="#000000" font-family="sans-serif" font-size="11" font-weight="bold" lengthAdjust="spacing" textLength="217" x="98" y="518.3135">[until the rest of candidates are ranker]</text><polygon fill="#181818" points="368.5,543.0254,378.5,547.0254,368.5,551.0254,372.5,547.0254" style="stroke:#181818;stroke-width:1.0;"/><line style="stroke:#181818;stroke-width:1.0;" x1="88.5" x2="374.5" y1="547.0254" y2="547.0254"/><text fill="#000000" font-family="sans-serif" font-size="13" lengthAdjust="spacing" textLength="244" x="95.5" y="541.7627">Ranks the rest of candidates with 'no rank'</text><polygon fill="#181818" points="99.5,574.3164,89.5,578.3164,99.5,582.3164,95.5,578.3164" style="stroke:#181818;stroke-width:1.0;"/><line style="stroke:#181818;stroke-width:1.0;stroke-dasharray:2.0,2.0;" x1="93.5" x2="384.5" y1="578.3164" y2="578.3164"/><text fill="#000000" font-family="sans-serif" font-size="13" lengthAdjust="spacing" textLength="129" x="105.5" y="573.0537">Confirmation message</text><path d="M10,600.3164 L83,600.3164 L83,609.6074 L73,619.6074 L10,619.6074 L10,600.3164 " fill="#EEEEEE" style="stroke:#000000;stroke-width:1.5;"/><rect fill="none" height="126.1641" style="stroke:#000000;stroke-width:1.5;" width="588.5" x="10" y="600.3164"/><text fill="#000000" font-family="sans-serif" font-size="13" font-weight="bold" lengthAdjust="spacing" textLength="28" x="25" y="615.3447">loop</text><text fill="#000000" font-family="sans-serif" font-size="11" font-weight="bold" lengthAdjust="spacing" textLength="83" x="98" y="614.1865">[all candidates]</text><polygon fill="#181818" points="368.5,638.8984,378.5,642.8984,368.5,646.8984,372.5,642.8984" style="stroke:#181818;stroke-width:1.0;"/><line style="stroke:#181818;stroke-width:1.0;" x1="88.5" x2="374.5" y1="642.8984" y2="642.8984"/><text fill="#000000" font-family="sans-serif" font-size="13" lengthAdjust="spacing" textLength="103" x="95.5" y="637.6357">Saves the ranking</text><line style="stroke:#181818;stroke-width:1.0;" x1="390.5" x2="432.5" y1="674.1895" y2="674.1895"/><line style="stroke:#181818;stroke-width:1.0;" x1="432.5" x2="432.5" y1="674.1895" y2="687.1895"/><line style="stroke:#181818;stroke-width:1.0;" x1="391.5" x2="432.5" y1="687.1895" y2="687.1895"/><polygon fill="#181818" points="401.5,683.1895,391.5,687.1895,401.5,691.1895,397.5,687.1895" style="stroke:#181818;stroke-width:1.0;"/><text fill="#000000" font-family="sans-serif" font-size="13" lengthAdjust="spacing" textLength="189" x="397.5" y="668.9268">Save the ranking in the database</text><polygon fill="#181818" points="99.5,714.4805,89.5,718.4805,99.5,722.4805,95.5,718.4805" style="stroke:#181818;stroke-width:1.0;"/><line style="stroke:#181818;stroke-width:1.0;stroke-dasharray:2.0,2.0;" x1="93.5" x2="384.5" y1="718.4805" y2="718.4805"/><text fill="#000000" font-family="sans-serif" font-size="13" lengthAdjust="spacing" textLength="126" x="105.5" y="713.2178">(In)Success message</text><!--SRC=[nLF1Zjf03BtdAomkm66bQez8xILxwO7Bfhizcua1BybCEdP2-Vjw4a1XWLsfgjGvGSRlFJy_Z-pODnYnXZhuuBOnr0GQMyhaVDEWs-662ZrK196SejzKumBPOXdsx3UmnaeeovJLIek3ADLGqA-Ml2DuOjoaybbHFCtX0LxoBu-F6JeD4IPvAshQ4PReJInE00NoPMOAoeuRz0gJnK3Ptmq_iuJd3fLICTZ9b_3mxNYxW9-64z004VqET4lWq9TS6a1WRS88Rs45eI5l_VS4wPn9ZogdxqTB8u5dqiZK4LGi2c4zffChd07pvS8c8Ks5X_kOajvtSCDRGPM58V_UmhiHfQb9hqNbJQbFt8tezgpRnCSHs1jtZSh1dudIyS5wZhpPzjXZgEFpuoB4wPW8NF2AxEKAD6Zchs10GoZ5ZcaFjeybmOpNGB-jMvbV0CbgKpiVHLA5q43hbQknpxHjDgoluDjwPKjjJZgqUySa7oPvvkWRJJG2h1TTtGlsHX9vy6i-pQOc4NjPv_fhGoVFoTELkxG5aQuInKY3stZ3rtFV_nralmjJFppDQVRVx64rZkvMEjZHqOLr-dTlB76CAMm7-x-cYIiKklUMPj_zl6YTCtCN3ZznzmS0]--></g></svg>