<?xml version="1.0" encoding="us-ascii" standalone="no"?><svg xmlns="http://www.w3.org/2000/svg" xmlns:xlink="http://www.w3.org/1999/xlink" contentStyleType="text/css" height="583px" preserveAspectRatio="none" style="width:555px;height:583px;background:#FFFFFF;" version="1.1" viewBox="0 0 555 583" width="555px" zoomAndPan="magnify"><defs/><g><text fill="#000000" font-family="sans-serif" font-size="14" font-weight="bold" lengthAdjust="spacing" textLength="285" x="137.25" y="30.1074">System Sequence Diagram (SSD) - UC003</text><rect fill="#FFFFFF" height="357.541" style="stroke:#181818;stroke-width:1.0;" width="10" x="37.5" y="133.2422"/><rect fill="#FFFFFF" height="75.582" style="stroke:#181818;stroke-width:1.0;" width="10" x="453.5" y="156.5332"/><rect fill="#FFFFFF" height="31.291" style="stroke:#181818;stroke-width:1.0;" width="10" x="453.5" y="263.4063"/><rect fill="#FFFFFF" height="164.7949" style="stroke:#181818;stroke-width:1.0;" width="10" x="453.5" y="325.9883"/><rect fill="none" height="98.5039" style="stroke:#000000;stroke-width:1.5;" width="490.5" x="10" y="385.2793"/><line style="stroke:#181818;stroke-width:0.5;stroke-dasharray:5.0,5.0;" x1="42" x2="42" y1="123.2422" y2="500.7832"/><line style="stroke:#181818;stroke-width:0.5;stroke-dasharray:5.0,5.0;" x1="458.5" x2="458.5" y1="123.2422" y2="500.7832"/><text fill="#000000" font-family="sans-serif" font-size="14" lengthAdjust="spacing" textLength="39" x="20" y="119.7285">Admin</text><ellipse cx="42.5" cy="53.1211" fill="#E3E3E3" rx="8" ry="8" style="stroke:#181818;stroke-width:0.5;"/><path d="M42.5,61.1211 L42.5,88.1211 M29.5,69.1211 L55.5,69.1211 M42.5,88.1211 L29.5,103.1211 M42.5,88.1211 L55.5,103.1211 " fill="none" style="stroke:#181818;stroke-width:0.5;"/><text fill="#000000" font-family="sans-serif" font-size="14" lengthAdjust="spacing" textLength="39" x="20" y="514.8906">Admin</text><ellipse cx="42.5" cy="526.9043" fill="#E3E3E3" rx="8" ry="8" style="stroke:#181818;stroke-width:0.5;"/><path d="M42.5,534.9043 L42.5,561.9043 M29.5,542.9043 L55.5,542.9043 M42.5,561.9043 L29.5,576.9043 M42.5,561.9043 L55.5,576.9043 " fill="none" style="stroke:#181818;stroke-width:0.5;"/><rect fill="#E3E3E3" height="32.6211" rx="2.5" ry="2.5" style="stroke:#181818;stroke-width:0.5;" width="64" x="426.5" y="89.6211"/><text fill="#000000" font-family="sans-serif" font-size="14" lengthAdjust="spacing" textLength="50" x="433.5" y="111.7285">:System</text><rect fill="#E3E3E3" height="32.6211" rx="2.5" ry="2.5" style="stroke:#181818;stroke-width:0.5;" width="64" x="426.5" y="499.7832"/><text fill="#000000" font-family="sans-serif" font-size="14" lengthAdjust="spacing" textLength="50" x="433.5" y="521.8906">:System</text><rect fill="#FFFFFF" height="357.541" style="stroke:#181818;stroke-width:1.0;" width="10" x="37.5" y="133.2422"/><rect fill="#FFFFFF" height="75.582" style="stroke:#181818;stroke-width:1.0;" width="10" x="453.5" y="156.5332"/><rect fill="#FFFFFF" height="31.291" style="stroke:#181818;stroke-width:1.0;" width="10" x="453.5" y="263.4063"/><rect fill="#FFFFFF" height="164.7949" style="stroke:#181818;stroke-width:1.0;" width="10" x="453.5" y="325.9883"/><polygon fill="#181818" points="441.5,152.5332,451.5,156.5332,441.5,160.5332,445.5,156.5332" style="stroke:#181818;stroke-width:1.0;"/><line style="stroke:#181818;stroke-width:1.0;" x1="47.5" x2="447.5" y1="156.5332" y2="156.5332"/><text fill="#000000" font-family="sans-serif" font-size="13" lengthAdjust="spacing" textLength="31" x="54.5" y="151.2705">Login</text><line style="stroke:#181818;stroke-width:1.0;" x1="463.5" x2="505.5" y1="187.8242" y2="187.8242"/><line style="stroke:#181818;stroke-width:1.0;" x1="505.5" x2="505.5" y1="187.8242" y2="200.8242"/><line style="stroke:#181818;stroke-width:1.0;" x1="464.5" x2="505.5" y1="200.8242" y2="200.8242"/><polygon fill="#181818" points="474.5,196.8242,464.5,200.8242,474.5,204.8242,470.5,200.8242" style="stroke:#181818;stroke-width:1.0;"/><text fill="#000000" font-family="sans-serif" font-size="13" lengthAdjust="spacing" textLength="78" x="470.5" y="182.5615">Validate login</text><polygon fill="#181818" points="58.5,228.1152,48.5,232.1152,58.5,236.1152,54.5,232.1152" style="stroke:#181818;stroke-width:1.0;"/><line style="stroke:#181818;stroke-width:1.0;stroke-dasharray:2.0,2.0;" x1="52.5" x2="457.5" y1="232.1152" y2="232.1152"/><text fill="#000000" font-family="sans-serif" font-size="13" lengthAdjust="spacing" textLength="382" x="64.5" y="226.8525">Allow access to the backoffice application with admin permissions</text><polygon fill="#181818" points="441.5,259.4063,451.5,263.4063,441.5,267.4063,445.5,263.4063" style="stroke:#181818;stroke-width:1.0;"/><line style="stroke:#181818;stroke-width:1.0;" x1="47.5" x2="447.5" y1="263.4063" y2="263.4063"/><text fill="#000000" font-family="sans-serif" font-size="13" lengthAdjust="spacing" textLength="209" x="54.5" y="258.1436">Select the option to disable the user</text><polygon fill="#181818" points="58.5,290.6973,48.5,294.6973,58.5,298.6973,54.5,294.6973" style="stroke:#181818;stroke-width:1.0;"/><line style="stroke:#181818;stroke-width:1.0;stroke-dasharray:2.0,2.0;" x1="52.5" x2="457.5" y1="294.6973" y2="294.6973"/><text fill="#000000" font-family="sans-serif" font-size="13" lengthAdjust="spacing" textLength="180" x="64.5" y="289.4346">Display all active system users</text><polygon fill="#181818" points="441.5,321.9883,451.5,325.9883,441.5,329.9883,445.5,325.9883" style="stroke:#181818;stroke-width:1.0;"/><line style="stroke:#181818;stroke-width:1.0;" x1="47.5" x2="447.5" y1="325.9883" y2="325.9883"/><text fill="#000000" font-family="sans-serif" font-size="13" lengthAdjust="spacing" textLength="173" x="54.5" y="320.7256">Select the user to be disabled</text><line style="stroke:#181818;stroke-width:1.0;" x1="463.5" x2="505.5" y1="357.2793" y2="357.2793"/><line style="stroke:#181818;stroke-width:1.0;" x1="505.5" x2="505.5" y1="357.2793" y2="370.2793"/><line style="stroke:#181818;stroke-width:1.0;" x1="464.5" x2="505.5" y1="370.2793" y2="370.2793"/><polygon fill="#181818" points="474.5,366.2793,464.5,370.2793,474.5,374.2793,470.5,370.2793" style="stroke:#181818;stroke-width:1.0;"/><text fill="#000000" font-family="sans-serif" font-size="13" lengthAdjust="spacing" textLength="72" x="470.5" y="352.0166">Disable user</text><path d="M10,385.2793 L71,385.2793 L71,394.5703 L61,404.5703 L10,404.5703 L10,385.2793 " fill="#EEEEEE" style="stroke:#000000;stroke-width:1.5;"/><rect fill="none" height="98.5039" style="stroke:#000000;stroke-width:1.5;" width="490.5" x="10" y="385.2793"/><text fill="#000000" font-family="sans-serif" font-size="13" font-weight="bold" lengthAdjust="spacing" textLength="16" x="25" y="400.3076">alt</text><text fill="#000000" font-family="sans-serif" font-size="11" font-weight="bold" lengthAdjust="spacing" textLength="97" x="86" y="399.1494">[User is disabled]</text><polygon fill="#181818" points="58.5,423.8613,48.5,427.8613,58.5,431.8613,54.5,427.8613" style="stroke:#181818;stroke-width:1.0;"/><line style="stroke:#181818;stroke-width:1.0;stroke-dasharray:2.0,2.0;" x1="52.5" x2="452.5" y1="427.8613" y2="427.8613"/><text fill="#000000" font-family="sans-serif" font-size="13" lengthAdjust="spacing" textLength="155" x="64.5" y="422.5986">User disabled successfully</text><line style="stroke:#000000;stroke-width:1.0;stroke-dasharray:2.0,2.0;" x1="10" x2="500.5" y1="436.8613" y2="436.8613"/><text fill="#000000" font-family="sans-serif" font-size="11" font-weight="bold" lengthAdjust="spacing" textLength="118" x="15" y="448.7314">[User is not disabled]</text><polygon fill="#181818" points="58.5,471.7832,48.5,475.7832,58.5,479.7832,54.5,475.7832" style="stroke:#181818;stroke-width:1.0;"/><line style="stroke:#181818;stroke-width:1.0;stroke-dasharray:2.0,2.0;" x1="52.5" x2="452.5" y1="475.7832" y2="475.7832"/><text fill="#000000" font-family="sans-serif" font-size="13" lengthAdjust="spacing" textLength="101" x="64.5" y="470.5205">User not disabled</text><!--SRC=[dPAnRiCm34HtVmMHgHq21EYMeK1GZzsCT6TisYOYIwf9D_3VLv8TDqKIeAacGNftv56I8rkFFNRGEUlAjdSTWVO3PRBSU2oFs52Xeo7egLIqZRa4fCNAdTWsKACHoZ9b3MWnYb871NqEP4k2dB69-5DHvC-mXltRPlEIOQckXrtLiGMKQPC5N-MIFLg5rNOoMiNhQPj55N-Xqin3M9F5-dLcjl3kclbgeSzocDVSueNe0mrN4JL9VKK6D1NQmiuOTmhM9Oc0Ej2Mu116vUgQGrhqtd29oix2YRK5JFrvwZiM2QUIl2kwsTnLc89Cc7mgudmo3IKh5Zo4ISVJGQZ_MzYV23cBDpW26ZF926I2ejk_6upYsDw1pXrMZpv3FYTRKYMzKTX7RvRVnlSJ9lpCWWpfjUh1c74HKlYoYwrr-f3rJPviTMTq5oVJn_q6]--></g></svg>