<?xml version="1.0" encoding="us-ascii" standalone="no"?><svg xmlns="http://www.w3.org/2000/svg" xmlns:xlink="http://www.w3.org/1999/xlink" contentStyleType="text/css" height="1225px" preserveAspectRatio="none" style="width:1330px;height:1225px;background:#FFFFFF;" version="1.1" viewBox="0 0 1330 1225" width="1330px" zoomAndPan="magnify"><defs/><g><text fill="#000000" font-family="sans-serif" font-size="14" font-weight="bold" lengthAdjust="spacing" textLength="222" x="555.75" y="30.1074">Sequence Diagram (SD) - UC025</text><rect fill="#FFFFFF" height="946.7305" style="stroke:#181818;stroke-width:1.0;" width="10" x="215.5" y="161.1543"/><rect fill="#FFFFFF" height="508.6563" style="stroke:#181818;stroke-width:1.0;" width="10" x="407.5" y="192.4453"/><rect fill="#FFFFFF" height="281.6191" style="stroke:#181818;stroke-width:1.0;" width="10" x="407.5" y="794.9746"/><rect fill="#FFFFFF" height="99.873" style="stroke:#181818;stroke-width:1.0;" width="10" x="579.5" y="223.7363"/><rect fill="#FFFFFF" height="62.582" style="stroke:#181818;stroke-width:1.0;" width="10" x="722.5" y="354.9004"/><rect fill="#FFFFFF" height="31.291" style="stroke:#181818;stroke-width:1.0;" width="10" x="867" y="480.0645"/><rect fill="#FFFFFF" height="31.291" style="stroke:#181818;stroke-width:1.0;" width="10" x="867" y="826.2656"/><rect fill="#FFFFFF" height="31.291" style="stroke:#181818;stroke-width:1.0;" width="10" x="867" y="982.7207"/><rect fill="#FFFFFF" height="221.0371" style="stroke:#181818;stroke-width:1.0;" width="10" x="1050.5" y="448.7734"/><rect fill="#FFFFFF" height="156.4551" style="stroke:#181818;stroke-width:1.0;" width="10" x="1050.5" y="888.8477"/><rect fill="#FFFFFF" height="31.291" style="stroke:#181818;stroke-width:1.0;" width="10" x="1237" y="600.2285"/><rect fill="#FFFFFF" height="31.291" style="stroke:#181818;stroke-width:1.0;" width="10" x="1237" y="920.1387"/><rect fill="none" height="113.1641" style="stroke:#000000;stroke-width:1.5;" width="383" x="941.5" y="526.3555"/><line style="stroke:#181818;stroke-width:0.5;stroke-dasharray:5.0,5.0;" x1="36" x2="36" y1="127.8633" y2="1125.8848"/><line style="stroke:#181818;stroke-width:0.5;stroke-dasharray:5.0,5.0;" x1="220.5" x2="220.5" y1="127.8633" y2="1125.8848"/><line style="stroke:#181818;stroke-width:0.5;stroke-dasharray:5.0,5.0;" x1="412.5" x2="412.5" y1="127.8633" y2="1125.8848"/><line style="stroke:#181818;stroke-width:0.5;stroke-dasharray:5.0,5.0;" x1="584.5" x2="584.5" y1="127.8633" y2="1125.8848"/><line style="stroke:#181818;stroke-width:0.5;stroke-dasharray:5.0,5.0;" x1="727.5" x2="727.5" y1="127.8633" y2="1125.8848"/><line style="stroke:#181818;stroke-width:0.5;stroke-dasharray:5.0,5.0;" x1="871.5" x2="871.5" y1="127.8633" y2="1125.8848"/><line style="stroke:#181818;stroke-width:0.5;stroke-dasharray:5.0,5.0;" x1="1055.5" x2="1055.5" y1="127.8633" y2="1125.8848"/><line style="stroke:#181818;stroke-width:0.5;stroke-dasharray:5.0,5.0;" x1="1241.5" x2="1241.5" y1="127.8633" y2="1125.8848"/><text fill="#000000" font-family="sans-serif" font-size="14" lengthAdjust="spacing" textLength="57" x="5" y="124.3496">Operator</text><ellipse cx="36.5" cy="57.7422" fill="#E2E2F0" rx="8" ry="8" style="stroke:#181818;stroke-width:0.5;"/><path d="M36.5,65.7422 L36.5,92.7422 M23.5,73.7422 L49.5,73.7422 M36.5,92.7422 L23.5,107.7422 M36.5,92.7422 L49.5,107.7422 " fill="none" style="stroke:#181818;stroke-width:0.5;"/><text fill="#000000" font-family="sans-serif" font-size="14" lengthAdjust="spacing" textLength="57" x="5" y="1139.9922">Operator</text><ellipse cx="36.5" cy="1152.0059" fill="#E2E2F0" rx="8" ry="8" style="stroke:#181818;stroke-width:0.5;"/><path d="M36.5,1160.0059 L36.5,1187.0059 M23.5,1168.0059 L49.5,1168.0059 M36.5,1187.0059 L23.5,1202.0059 M36.5,1187.0059 L49.5,1202.0059 " fill="none" style="stroke:#181818;stroke-width:0.5;"/><rect fill="#E2E2F0" height="51.2422" rx="2.5" ry="2.5" style="stroke:#181818;stroke-width:0.5;" width="138" x="151.5" y="75.6211"/><text fill="#000000" font-family="sans-serif" font-size="14" font-style="italic" lengthAdjust="spacing" textLength="95" x="173" y="97.7285">&#171;presentation&#187;</text><text fill="#000000" font-family="sans-serif" font-size="14" lengthAdjust="spacing" textLength="124" x="158.5" y="116.3496">DisableCandidateUI</text><rect fill="#E2E2F0" height="51.2422" rx="2.5" ry="2.5" style="stroke:#181818;stroke-width:0.5;" width="138" x="151.5" y="1124.8848"/><text fill="#000000" font-family="sans-serif" font-size="14" font-style="italic" lengthAdjust="spacing" textLength="95" x="173" y="1146.9922">&#171;presentation&#187;</text><text fill="#000000" font-family="sans-serif" font-size="14" lengthAdjust="spacing" textLength="124" x="158.5" y="1165.6133">DisableCandidateUI</text><rect fill="#E2E2F0" height="51.2422" rx="2.5" ry="2.5" style="stroke:#181818;stroke-width:0.5;" width="188" x="318.5" y="75.6211"/><text fill="#000000" font-family="sans-serif" font-size="14" font-style="italic" lengthAdjust="spacing" textLength="84" x="370.5" y="97.7285">&#171;application&#187;</text><text fill="#000000" font-family="sans-serif" font-size="14" lengthAdjust="spacing" textLength="174" x="325.5" y="116.3496">DisableCandidateController</text><rect fill="#E2E2F0" height="51.2422" rx="2.5" ry="2.5" style="stroke:#181818;stroke-width:0.5;" width="188" x="318.5" y="1124.8848"/><text fill="#000000" font-family="sans-serif" font-size="14" font-style="italic" lengthAdjust="spacing" textLength="84" x="370.5" y="1146.9922">&#171;application&#187;</text><text fill="#000000" font-family="sans-serif" font-size="14" lengthAdjust="spacing" textLength="174" x="325.5" y="1165.6133">DisableCandidateController</text><rect fill="#E2E2F0" height="51.2422" rx="2.5" ry="2.5" style="stroke:#181818;stroke-width:0.5;" width="136" x="516.5" y="75.6211"/><text fill="#000000" font-family="sans-serif" font-size="14" font-style="italic" lengthAdjust="spacing" textLength="89" x="540" y="97.7285">&#171;persistence&#187;</text><text fill="#000000" font-family="sans-serif" font-size="14" lengthAdjust="spacing" textLength="122" x="523.5" y="116.3496">PersistenceContext</text><rect fill="#E2E2F0" height="51.2422" rx="2.5" ry="2.5" style="stroke:#181818;stroke-width:0.5;" width="136" x="516.5" y="1124.8848"/><text fill="#000000" font-family="sans-serif" font-size="14" font-style="italic" lengthAdjust="spacing" textLength="89" x="540" y="1146.9922">&#171;persistence&#187;</text><text fill="#000000" font-family="sans-serif" font-size="14" lengthAdjust="spacing" textLength="122" x="523.5" y="1165.6133">PersistenceContext</text><rect fill="#E2E2F0" height="51.2422" rx="2.5" ry="2.5" style="stroke:#181818;stroke-width:0.5;" width="130" x="662.5" y="75.6211"/><text fill="#000000" font-family="sans-serif" font-size="14" font-style="italic" lengthAdjust="spacing" textLength="59" x="698" y="97.7285">&#171;factory&#187;</text><text fill="#000000" font-family="sans-serif" font-size="14" lengthAdjust="spacing" textLength="116" x="669.5" y="116.3496">RepositoryFactory</text><rect fill="#E2E2F0" height="51.2422" rx="2.5" ry="2.5" style="stroke:#181818;stroke-width:0.5;" width="130" x="662.5" y="1124.8848"/><text fill="#000000" font-family="sans-serif" font-size="14" font-style="italic" lengthAdjust="spacing" textLength="59" x="698" y="1146.9922">&#171;factory&#187;</text><text fill="#000000" font-family="sans-serif" font-size="14" lengthAdjust="spacing" textLength="116" x="669.5" y="1165.6133">RepositoryFactory</text><text fill="#000000" font-family="sans-serif" font-size="14" font-style="italic" lengthAdjust="spacing" textLength="79" x="829.5" y="105.7285">&#171;repository&#187;</text><text fill="#000000" font-family="sans-serif" font-size="14" lengthAdjust="spacing" textLength="133" x="802.5" y="124.3496">CandidateRepository</text><path d="M854,54.6211 C854,44.6211 872,44.6211 872,44.6211 C872,44.6211 890,44.6211 890,54.6211 L890,80.6211 C890,90.6211 872,90.6211 872,90.6211 C872,90.6211 854,90.6211 854,80.6211 L854,54.6211 " fill="#E2E2F0" style="stroke:#181818;stroke-width:1.5;"/><path d="M854,54.6211 C854,64.6211 872,64.6211 872,64.6211 C872,64.6211 890,64.6211 890,54.6211 " fill="none" style="stroke:#181818;stroke-width:1.5;"/><text fill="#000000" font-family="sans-serif" font-size="14" font-style="italic" lengthAdjust="spacing" textLength="79" x="829.5" y="1139.9922">&#171;repository&#187;</text><text fill="#000000" font-family="sans-serif" font-size="14" lengthAdjust="spacing" textLength="133" x="802.5" y="1158.6133">CandidateRepository</text><path d="M854,1172.127 C854,1162.127 872,1162.127 872,1162.127 C872,1162.127 890,1162.127 890,1172.127 L890,1198.127 C890,1208.127 872,1208.127 872,1208.127 C872,1208.127 854,1208.127 854,1198.127 L854,1172.127 " fill="#E2E2F0" style="stroke:#181818;stroke-width:1.5;"/><path d="M854,1172.127 C854,1182.127 872,1182.127 872,1182.127 C872,1182.127 890,1182.127 890,1172.127 " fill="none" style="stroke:#181818;stroke-width:1.5;"/><rect fill="#E2E2F0" height="51.2422" rx="2.5" ry="2.5" style="stroke:#181818;stroke-width:0.5;" width="208" x="951.5" y="75.6211"/><text fill="#000000" font-family="sans-serif" font-size="14" font-style="italic" lengthAdjust="spacing" textLength="60" x="1025.5" y="97.7285">&#171;service&#187;</text><text fill="#000000" font-family="sans-serif" font-size="14" lengthAdjust="spacing" textLength="194" x="958.5" y="116.3496">CandidateManagementService</text><rect fill="#E2E2F0" height="51.2422" rx="2.5" ry="2.5" style="stroke:#181818;stroke-width:0.5;" width="208" x="951.5" y="1124.8848"/><text fill="#000000" font-family="sans-serif" font-size="14" font-style="italic" lengthAdjust="spacing" textLength="60" x="1025.5" y="1146.9922">&#171;service&#187;</text><text fill="#000000" font-family="sans-serif" font-size="14" lengthAdjust="spacing" textLength="194" x="958.5" y="1165.6133">CandidateManagementService</text><rect fill="#E2E2F0" height="51.2422" rx="2.5" ry="2.5" style="stroke:#181818;stroke-width:0.5;" width="145" x="1169.5" y="75.6211"/><text fill="#000000" font-family="sans-serif" font-size="14" font-style="italic" lengthAdjust="spacing" textLength="62" x="1211" y="97.7285">&#171;domain&#187;</text><text fill="#000000" font-family="sans-serif" font-size="14" lengthAdjust="spacing" textLength="131" x="1176.5" y="116.3496">candidate:Candidate</text><rect fill="#E2E2F0" height="51.2422" rx="2.5" ry="2.5" style="stroke:#181818;stroke-width:0.5;" width="145" x="1169.5" y="1124.8848"/><text fill="#000000" font-family="sans-serif" font-size="14" font-style="italic" lengthAdjust="spacing" textLength="62" x="1211" y="1146.9922">&#171;domain&#187;</text><text fill="#000000" font-family="sans-serif" font-size="14" lengthAdjust="spacing" textLength="131" x="1176.5" y="1165.6133">candidate:Candidate</text><rect fill="#FFFFFF" height="946.7305" style="stroke:#181818;stroke-width:1.0;" width="10" x="215.5" y="161.1543"/><rect fill="#FFFFFF" height="508.6563" style="stroke:#181818;stroke-width:1.0;" width="10" x="407.5" y="192.4453"/><rect fill="#FFFFFF" height="281.6191" style="stroke:#181818;stroke-width:1.0;" width="10" x="407.5" y="794.9746"/><rect fill="#FFFFFF" height="99.873" style="stroke:#181818;stroke-width:1.0;" width="10" x="579.5" y="223.7363"/><rect fill="#FFFFFF" height="62.582" style="stroke:#181818;stroke-width:1.0;" width="10" x="722.5" y="354.9004"/><rect fill="#FFFFFF" height="31.291" style="stroke:#181818;stroke-width:1.0;" width="10" x="867" y="480.0645"/><rect fill="#FFFFFF" height="31.291" style="stroke:#181818;stroke-width:1.0;" width="10" x="867" y="826.2656"/><rect fill="#FFFFFF" height="31.291" style="stroke:#181818;stroke-width:1.0;" width="10" x="867" y="982.7207"/><rect fill="#FFFFFF" height="221.0371" style="stroke:#181818;stroke-width:1.0;" width="10" x="1050.5" y="448.7734"/><rect fill="#FFFFFF" height="156.4551" style="stroke:#181818;stroke-width:1.0;" width="10" x="1050.5" y="888.8477"/><rect fill="#FFFFFF" height="31.291" style="stroke:#181818;stroke-width:1.0;" width="10" x="1237" y="600.2285"/><rect fill="#FFFFFF" height="31.291" style="stroke:#181818;stroke-width:1.0;" width="10" x="1237" y="920.1387"/><polygon fill="#181818" points="203.5,157.1543,213.5,161.1543,203.5,165.1543,207.5,161.1543" style="stroke:#181818;stroke-width:1.0;"/><line style="stroke:#181818;stroke-width:1.0;stroke-dasharray:2.0,2.0;" x1="36.5" x2="209.5" y1="161.1543" y2="161.1543"/><text fill="#000000" font-family="sans-serif" font-size="13" lengthAdjust="spacing" textLength="105" x="43.5" y="155.8916">Disable Candidate</text><polygon fill="#181818" points="395.5,188.4453,405.5,192.4453,395.5,196.4453,399.5,192.4453" style="stroke:#181818;stroke-width:1.0;"/><line style="stroke:#181818;stroke-width:1.0;" x1="225.5" x2="401.5" y1="192.4453" y2="192.4453"/><text fill="#000000" font-family="sans-serif" font-size="13" lengthAdjust="spacing" textLength="106" x="232.5" y="187.1826">activeCandidates()</text><polygon fill="#181818" points="567.5,219.7363,577.5,223.7363,567.5,227.7363,571.5,223.7363" style="stroke:#181818;stroke-width:1.0;"/><line style="stroke:#181818;stroke-width:1.0;" x1="417.5" x2="573.5" y1="223.7363" y2="223.7363"/><text fill="#000000" font-family="sans-serif" font-size="13" lengthAdjust="spacing" textLength="75" x="424.5" y="218.4736">repositories()</text><path d="M594,236.7363 L594,263.7363 L700,263.7363 L700,246.7363 L690,236.7363 L594,236.7363 " fill="#FEFFDD" style="stroke:#181818;stroke-width:0.5;"/><path d="M690,236.7363 L690,246.7363 L700,246.7363 L690,236.7363 " fill="#FEFFDD" style="stroke:#181818;stroke-width:0.5;"/><text fill="#000000" font-family="sans-serif" font-size="13" lengthAdjust="spacing" textLength="85" x="600" y="255.7646">creates in JPA</text><polygon fill="#181818" points="715.5,288.3184,725.5,292.3184,715.5,296.3184,719.5,292.3184" style="stroke:#181818;stroke-width:1.0;"/><line style="stroke:#181818;stroke-width:1.0;" x1="589.5" x2="721.5" y1="292.3184" y2="292.3184"/><text fill="#000000" font-family="sans-serif" font-size="13" lengthAdjust="spacing" textLength="36" x="596.5" y="287.0557">create</text><polygon fill="#181818" points="428.5,319.6094,418.5,323.6094,428.5,327.6094,424.5,323.6094" style="stroke:#181818;stroke-width:1.0;"/><line style="stroke:#181818;stroke-width:1.0;stroke-dasharray:2.0,2.0;" x1="422.5" x2="583.5" y1="323.6094" y2="323.6094"/><text fill="#000000" font-family="sans-serif" font-size="13" lengthAdjust="spacing" textLength="39" x="434.5" y="318.3467">factory</text><polygon fill="#181818" points="710.5,350.9004,720.5,354.9004,710.5,358.9004,714.5,354.9004" style="stroke:#181818;stroke-width:1.0;"/><line style="stroke:#181818;stroke-width:1.0;" x1="417.5" x2="716.5" y1="354.9004" y2="354.9004"/><text fill="#000000" font-family="sans-serif" font-size="13" lengthAdjust="spacing" textLength="71" x="424.5" y="349.6377">candidates()</text><polygon fill="#181818" points="860,382.1914,870,386.1914,860,390.1914,864,386.1914" style="stroke:#181818;stroke-width:1.0;"/><line style="stroke:#181818;stroke-width:1.0;" x1="732.5" x2="866" y1="386.1914" y2="386.1914"/><text fill="#000000" font-family="sans-serif" font-size="13" lengthAdjust="spacing" textLength="36" x="739.5" y="380.9287">create</text><polygon fill="#181818" points="428.5,413.4824,418.5,417.4824,428.5,421.4824,424.5,417.4824" style="stroke:#181818;stroke-width:1.0;"/><line style="stroke:#181818;stroke-width:1.0;stroke-dasharray:2.0,2.0;" x1="422.5" x2="726.5" y1="417.4824" y2="417.4824"/><text fill="#000000" font-family="sans-serif" font-size="13" lengthAdjust="spacing" textLength="118" x="434.5" y="412.2197">candidateRepository</text><polygon fill="#181818" points="1038.5,444.7734,1048.5,448.7734,1038.5,452.7734,1042.5,448.7734" style="stroke:#181818;stroke-width:1.0;"/><line style="stroke:#181818;stroke-width:1.0;" x1="417.5" x2="1044.5" y1="448.7734" y2="448.7734"/><text fill="#000000" font-family="sans-serif" font-size="13" lengthAdjust="spacing" textLength="106" x="424.5" y="443.5107">activeCandidates()</text><polygon fill="#181818" points="888,476.0645,878,480.0645,888,484.0645,884,480.0645" style="stroke:#181818;stroke-width:1.0;"/><line style="stroke:#181818;stroke-width:1.0;" x1="882" x2="1049.5" y1="480.0645" y2="480.0645"/><text fill="#000000" font-family="sans-serif" font-size="13" lengthAdjust="spacing" textLength="106" x="894" y="474.8018">activeCandidates()</text><polygon fill="#181818" points="1038.5,507.3555,1048.5,511.3555,1038.5,515.3555,1042.5,511.3555" style="stroke:#181818;stroke-width:1.0;"/><line style="stroke:#181818;stroke-width:1.0;stroke-dasharray:2.0,2.0;" x1="872" x2="1044.5" y1="511.3555" y2="511.3555"/><text fill="#000000" font-family="sans-serif" font-size="13" lengthAdjust="spacing" textLength="98" x="879" y="506.0928">activeCandidates</text><path d="M941.5,526.3555 L1014.5,526.3555 L1014.5,535.6465 L1004.5,545.6465 L941.5,545.6465 L941.5,526.3555 " fill="#EEEEEE" style="stroke:#000000;stroke-width:1.5;"/><rect fill="none" height="113.1641" style="stroke:#000000;stroke-width:1.5;" width="383" x="941.5" y="526.3555"/><text fill="#000000" font-family="sans-serif" font-size="13" font-weight="bold" lengthAdjust="spacing" textLength="28" x="956.5" y="541.3838">loop</text><text fill="#000000" font-family="sans-serif" font-size="11" font-weight="bold" lengthAdjust="spacing" textLength="136" x="1029.5" y="540.2256">[for all activeCandidates]</text><polygon fill="#181818" points="1230,564.9375,1240,568.9375,1230,572.9375,1234,568.9375" style="stroke:#181818;stroke-width:1.0;"/><line style="stroke:#181818;stroke-width:1.0;" x1="1060.5" x2="1236" y1="568.9375" y2="568.9375"/><text fill="#000000" font-family="sans-serif" font-size="13" lengthAdjust="spacing" textLength="40" x="1067.5" y="563.6748">name()</text><polygon fill="#181818" points="1225,596.2285,1235,600.2285,1225,604.2285,1229,600.2285" style="stroke:#181818;stroke-width:1.0;"/><line style="stroke:#181818;stroke-width:1.0;" x1="1060.5" x2="1231" y1="600.2285" y2="600.2285"/><text fill="#000000" font-family="sans-serif" font-size="13" lengthAdjust="spacing" textLength="39" x="1067.5" y="594.9658">email()</text><polygon fill="#181818" points="1071.5,627.5195,1061.5,631.5195,1071.5,635.5195,1067.5,631.5195" style="stroke:#181818;stroke-width:1.0;"/><line style="stroke:#181818;stroke-width:1.0;stroke-dasharray:2.0,2.0;" x1="1065.5" x2="1241" y1="631.5195" y2="631.5195"/><text fill="#000000" font-family="sans-serif" font-size="13" lengthAdjust="spacing" textLength="107" x="1077.5" y="626.2568">candidate's details</text><polygon fill="#181818" points="428.5,665.8105,418.5,669.8105,428.5,673.8105,424.5,669.8105" style="stroke:#181818;stroke-width:1.0;"/><line style="stroke:#181818;stroke-width:1.0;stroke-dasharray:2.0,2.0;" x1="422.5" x2="1054.5" y1="669.8105" y2="669.8105"/><text fill="#000000" font-family="sans-serif" font-size="13" lengthAdjust="spacing" textLength="194" x="434.5" y="664.5479">candidates with respective details</text><polygon fill="#181818" points="236.5,697.1016,226.5,701.1016,236.5,705.1016,232.5,701.1016" style="stroke:#181818;stroke-width:1.0;"/><line style="stroke:#181818;stroke-width:1.0;stroke-dasharray:2.0,2.0;" x1="230.5" x2="411.5" y1="701.1016" y2="701.1016"/><text fill="#000000" font-family="sans-serif" font-size="13" lengthAdjust="spacing" textLength="63" x="242.5" y="695.8389">candidates</text><polygon fill="#181818" points="47.5,728.3926,37.5,732.3926,47.5,736.3926,43.5,732.3926" style="stroke:#181818;stroke-width:1.0;"/><line style="stroke:#181818;stroke-width:1.0;stroke-dasharray:2.0,2.0;" x1="41.5" x2="214.5" y1="732.3926" y2="732.3926"/><text fill="#000000" font-family="sans-serif" font-size="13" lengthAdjust="spacing" textLength="108" x="53.5" y="727.1299">display candidates</text><polygon fill="#181818" points="203.5,759.6836,213.5,763.6836,203.5,767.6836,207.5,763.6836" style="stroke:#181818;stroke-width:1.0;"/><line style="stroke:#181818;stroke-width:1.0;" x1="36.5" x2="209.5" y1="763.6836" y2="763.6836"/><text fill="#000000" font-family="sans-serif" font-size="13" lengthAdjust="spacing" textLength="155" x="43.5" y="758.4209">select candidate to disable</text><polygon fill="#181818" points="395.5,790.9746,405.5,794.9746,395.5,798.9746,399.5,794.9746" style="stroke:#181818;stroke-width:1.0;"/><line style="stroke:#181818;stroke-width:1.0;" x1="225.5" x2="401.5" y1="794.9746" y2="794.9746"/><text fill="#000000" font-family="sans-serif" font-size="13" lengthAdjust="spacing" textLength="163" x="232.5" y="789.7119">disableCandidate(candidate)</text><polygon fill="#181818" points="855,822.2656,865,826.2656,855,830.2656,859,826.2656" style="stroke:#181818;stroke-width:1.0;"/><line style="stroke:#181818;stroke-width:1.0;" x1="417.5" x2="861" y1="826.2656" y2="826.2656"/><text fill="#000000" font-family="sans-serif" font-size="13" lengthAdjust="spacing" textLength="28" x="424.5" y="821.0029">find()</text><polygon fill="#181818" points="428.5,853.5566,418.5,857.5566,428.5,861.5566,424.5,857.5566" style="stroke:#181818;stroke-width:1.0;"/><line style="stroke:#181818;stroke-width:1.0;stroke-dasharray:2.0,2.0;" x1="422.5" x2="871" y1="857.5566" y2="857.5566"/><text fill="#000000" font-family="sans-serif" font-size="13" lengthAdjust="spacing" textLength="56" x="434.5" y="852.2939">candidate</text><polygon fill="#181818" points="1038.5,884.8477,1048.5,888.8477,1038.5,892.8477,1042.5,888.8477" style="stroke:#181818;stroke-width:1.0;"/><line style="stroke:#181818;stroke-width:1.0;" x1="417.5" x2="1044.5" y1="888.8477" y2="888.8477"/><text fill="#000000" font-family="sans-serif" font-size="13" lengthAdjust="spacing" textLength="163" x="424.5" y="883.585">disableCandidate(candidate)</text><polygon fill="#181818" points="1225,916.1387,1235,920.1387,1225,924.1387,1229,920.1387" style="stroke:#181818;stroke-width:1.0;"/><line style="stroke:#181818;stroke-width:1.0;" x1="1060.5" x2="1231" y1="920.1387" y2="920.1387"/><text fill="#000000" font-family="sans-serif" font-size="13" lengthAdjust="spacing" textLength="49" x="1067.5" y="914.876">disable()</text><polygon fill="#181818" points="1071.5,947.4297,1061.5,951.4297,1071.5,955.4297,1067.5,951.4297" style="stroke:#181818;stroke-width:1.0;"/><line style="stroke:#181818;stroke-width:1.0;stroke-dasharray:2.0,2.0;" x1="1065.5" x2="1241" y1="951.4297" y2="951.4297"/><text fill="#000000" font-family="sans-serif" font-size="13" lengthAdjust="spacing" textLength="56" x="1077.5" y="946.167">candidate</text><polygon fill="#181818" points="888,978.7207,878,982.7207,888,986.7207,884,982.7207" style="stroke:#181818;stroke-width:1.0;"/><line style="stroke:#181818;stroke-width:1.0;" x1="882" x2="1049.5" y1="982.7207" y2="982.7207"/><text fill="#000000" font-family="sans-serif" font-size="13" lengthAdjust="spacing" textLength="34" x="894" y="977.458">save()</text><polygon fill="#181818" points="1038.5,1010.0117,1048.5,1014.0117,1038.5,1018.0117,1042.5,1014.0117" style="stroke:#181818;stroke-width:1.0;"/><line style="stroke:#181818;stroke-width:1.0;stroke-dasharray:2.0,2.0;" x1="872" x2="1044.5" y1="1014.0117" y2="1014.0117"/><text fill="#000000" font-family="sans-serif" font-size="13" lengthAdjust="spacing" textLength="56" x="879" y="1008.749">candidate</text><polygon fill="#181818" points="428.5,1041.3027,418.5,1045.3027,428.5,1049.3027,424.5,1045.3027" style="stroke:#181818;stroke-width:1.0;"/><line style="stroke:#181818;stroke-width:1.0;stroke-dasharray:2.0,2.0;" x1="422.5" x2="1054.5" y1="1045.3027" y2="1045.3027"/><text fill="#000000" font-family="sans-serif" font-size="13" lengthAdjust="spacing" textLength="56" x="434.5" y="1040.04">candidate</text><polygon fill="#181818" points="236.5,1072.5938,226.5,1076.5938,236.5,1080.5938,232.5,1076.5938" style="stroke:#181818;stroke-width:1.0;"/><line style="stroke:#181818;stroke-width:1.0;stroke-dasharray:2.0,2.0;" x1="230.5" x2="411.5" y1="1076.5938" y2="1076.5938"/><text fill="#000000" font-family="sans-serif" font-size="13" lengthAdjust="spacing" textLength="56" x="242.5" y="1071.3311">candidate</text><polygon fill="#181818" points="47.5,1103.8848,37.5,1107.8848,47.5,1111.8848,43.5,1107.8848" style="stroke:#181818;stroke-width:1.0;"/><line style="stroke:#181818;stroke-width:1.0;stroke-dasharray:2.0,2.0;" x1="41.5" x2="219.5" y1="1107.8848" y2="1107.8848"/><text fill="#000000" font-family="sans-serif" font-size="13" lengthAdjust="spacing" textLength="108" x="53.5" y="1102.6221">candidate disabled</text><!--SRC=[hLPTQzim57tNhn1zMVeGA8Ez65C8AOKEnif2Vy2jVPEAAf9cgUcyNxyhnvPbnKfREZqaKdJFqJttgxNFGXbeOCyDLC-mmurh9V86AmTg9v7PO62VeDQlGktu5gIDRwHGw5g3t6ZP-WEBBYi9rgwSQyJZYyExIgkD-8lyYZ4d73srmTylg2haDm9s7h3Ot5po9NzONttznXXKJZVyfy46_0OiN_bV694xKGa3oX7ImgF4DQXQrE3muSxRqMTPcWOjAWTEQ7LzVHQrrierMahiNebEPGd6I57DaTnZOuLrNe17u1_dmT6lteVnbA1_eT5Ma9psjjFPUl2mBSljSKSWyWyUmI8FtevGZubEPTc4G_9S0Fy0HQdUKs0ss1m4UKaSmxOixN6Ne2-g0Lu4eWiFlD5x48fmTRSX6Ejon9VBQyf2CKHwVDzdLHneGzUCqw9SaUqOyu9t5cDoxEAoCmp0qPPr5tv5EIEsA0a53p4HWMf25nc7Ix-Kfij6x9uSrzifPTMWTuoJzE_tgmagpZzvqcTqWEHDanZq-G_sDSxwcz4_lfe6SQByDdd4hw44YMMih5dtWsNYUdLQftCoXiSp4lgIp5R3H4Xlp2R-3KMTA3d3D-6Cl9yO-1NrtFAShnDWf3t7BRKsVEjddPJdoHA1npuik88z9e8obaXVSiOq-7WqFDNkLz_s4-qXxLyiINN4Vkfn58AUFhv5LNSHoAGnLsQMlmhtH6rk3NOXEta-UlQaKkAgwsTMDGrvX4udZvzT1Ef6Ni5hOOs4DiPtLlr4F99RbEJbQCETza0_95bc7jR9Nwj507zuCCQDi1MgdckcN74cHJ-R2_REOi_q-bjAFzJqGwNtfBa-pzNvsHfdvwlwFNF8mW7_v-nvqxSSwPiDzka- -bWRZQtHPwvc4PR-Q_W7]--></g></svg>