<?xml version="1.0" encoding="us-ascii" standalone="no"?><svg xmlns="http://www.w3.org/2000/svg" xmlns:xlink="http://www.w3.org/1999/xlink" contentStyleType="text/css" height="1081.6px" preserveAspectRatio="none" style="width:785px;height:1081px;background:#FFFFFF;" version="1.1" viewBox="0 0 785 1081" width="785.6px" zoomAndPan="magnify"><defs/><g><text fill="#000000" font-family="sans-serif" font-size="11.2" font-weight="bold" lengthAdjust="spacing" textLength="152" x="311.456" y="20.0859">Class Diagram (CD) - UC023</text><!--class EditJobOpeningUI--><g id="elem_EditJobOpeningUI"><rect codeLine="9" fill="#F1F1F1" height="182.5375" id="EditJobOpeningUI" rx="2" ry="2" style="stroke:#181818;stroke-width:0.4000000000000001;" width="172" x="318.112" y="37.2969"/><ellipse cx="355.912" cy="55.1297" fill="#ADD1B2" rx="8.8" ry="8.8" style="stroke:#181818;stroke-width:0.8000000000000002;"/><path d="M358.1245,51.8297 Q358.2495,51.6547 358.3995,51.5672 Q358.5495,51.4797 358.7245,51.4797 Q359.0245,51.4797 359.212,51.6922 Q359.3995,51.8922 359.3995,52.3797 L359.3995,53.5422 Q359.3995,54.0297 359.212,54.2422 Q359.0245,54.4547 358.7245,54.4547 Q358.4495,54.4547 358.287,54.2922 Q358.1245,54.1422 358.037,53.7297 Q357.9995,53.4422 357.8495,53.2922 Q357.587,52.9922 357.0995,52.8172 Q356.612,52.6422 356.112,52.6422 Q355.4995,52.6422 354.987,52.9047 Q354.487,53.1672 354.087,53.7672 Q353.6995,54.3672 353.6995,55.1922 L353.6995,56.0672 Q353.6995,57.0547 354.412,57.7172 Q355.1245,58.3672 356.3995,58.3672 Q357.1495,58.3672 357.6745,58.1672 Q357.987,58.0422 358.3245,57.6922 Q358.537,57.4797 358.6495,57.4172 Q358.7745,57.3547 358.937,57.3547 Q359.1995,57.3547 359.3995,57.5672 Q359.612,57.7672 359.612,58.0422 Q359.612,58.3172 359.337,58.6422 Q358.937,59.1047 358.2995,59.3672 Q357.437,59.7297 356.3995,59.7297 Q355.187,59.7297 354.2245,59.2297 Q353.437,58.8297 352.887,57.9797 Q352.337,57.1172 352.337,56.0922 L352.337,55.1672 Q352.337,54.1047 352.8245,53.1922 Q353.3245,52.2672 354.1995,51.7797 Q355.0745,51.2797 356.062,51.2797 Q356.6495,51.2797 357.162,51.4172 Q357.687,51.5422 358.1245,51.8297 Z " fill="#000000"/><text fill="#000000" font-family="sans-serif" font-size="9.6" font-style="italic" lengthAdjust="spacing" textLength="65.6" x="384.312" y="51.6563">&#171;presentation&#187;</text><text fill="#000000" font-family="sans-serif" font-size="11.2" lengthAdjust="spacing" textLength="89.6" x="372.312" y="66.1516">EditJobOpeningUI</text><line style="stroke:#181818;stroke-width:0.4000000000000001;" x1="318.912" x2="489.312" y1="72.9625" y2="72.9625"/><line style="stroke:#181818;stroke-width:0.4000000000000001;" x1="318.912" x2="489.312" y1="79.3625" y2="79.3625"/><text fill="#000000" font-family="sans-serif" font-size="11.2" lengthAdjust="spacing" textLength="87.2" x="322.912" y="94.6484">editJobOpening()</text><text fill="#000000" font-family="sans-serif" font-size="11.2" lengthAdjust="spacing" textLength="72" x="322.912" y="109.5453">jobOpenings()</text><text fill="#000000" font-family="sans-serif" font-size="11.2" lengthAdjust="spacing" textLength="98.4" x="322.912" y="124.4422">changeJobTitleTo()</text><text fill="#000000" font-family="sans-serif" font-size="11.2" lengthAdjust="spacing" textLength="128" x="322.912" y="139.3391">changeContractTypeTo()</text><text fill="#000000" font-family="sans-serif" font-size="11.2" lengthAdjust="spacing" textLength="104.8" x="322.912" y="154.2359">changeJobModeTo()</text><text fill="#000000" font-family="sans-serif" font-size="11.2" lengthAdjust="spacing" textLength="133.6" x="322.912" y="169.1328">changeJobDescriptionTo()</text><text fill="#000000" font-family="sans-serif" font-size="11.2" lengthAdjust="spacing" textLength="100.8" x="322.912" y="184.0297">changeAddressTo()</text><text fill="#000000" font-family="sans-serif" font-size="11.2" lengthAdjust="spacing" textLength="162.4" x="322.912" y="198.9266">changeNumberOfVacanciesTo()</text><text fill="#000000" font-family="sans-serif" font-size="11.2" lengthAdjust="spacing" textLength="136" x="322.912" y="213.8234">changeApprovalStatusTo()</text></g><!--class EditJobOpeningController--><g id="elem_EditJobOpeningController"><rect codeLine="23" fill="#F1F1F1" height="167.6406" id="EditJobOpeningController" rx="2" ry="2" style="stroke:#181818;stroke-width:0.4000000000000001;" width="172" x="318.112" y="282.8969"/><ellipse cx="337.672" cy="300.7297" fill="#ADD1B2" rx="8.8" ry="8.8" style="stroke:#181818;stroke-width:0.8000000000000002;"/><path d="M339.8845,297.4297 Q340.0095,297.2547 340.1595,297.1672 Q340.3095,297.0797 340.4845,297.0797 Q340.7845,297.0797 340.972,297.2922 Q341.1595,297.4922 341.1595,297.9797 L341.1595,299.1422 Q341.1595,299.6297 340.972,299.8422 Q340.7845,300.0547 340.4845,300.0547 Q340.2095,300.0547 340.047,299.8922 Q339.8845,299.7422 339.797,299.3297 Q339.7595,299.0422 339.6095,298.8922 Q339.347,298.5922 338.8595,298.4172 Q338.372,298.2422 337.872,298.2422 Q337.2595,298.2422 336.747,298.5047 Q336.247,298.7672 335.847,299.3672 Q335.4595,299.9672 335.4595,300.7922 L335.4595,301.6672 Q335.4595,302.6547 336.172,303.3172 Q336.8845,303.9672 338.1595,303.9672 Q338.9095,303.9672 339.4345,303.7672 Q339.747,303.6422 340.0845,303.2922 Q340.297,303.0797 340.4095,303.0172 Q340.5345,302.9547 340.697,302.9547 Q340.9595,302.9547 341.1595,303.1672 Q341.372,303.3672 341.372,303.6422 Q341.372,303.9172 341.097,304.2422 Q340.697,304.7047 340.0595,304.9672 Q339.197,305.3297 338.1595,305.3297 Q336.947,305.3297 335.9845,304.8297 Q335.197,304.4297 334.647,303.5797 Q334.097,302.7172 334.097,301.6922 L334.097,300.7672 Q334.097,299.7047 334.5845,298.7922 Q335.0845,297.8672 335.9595,297.3797 Q336.8345,296.8797 337.822,296.8797 Q338.4095,296.8797 338.922,297.0172 Q339.447,297.1422 339.8845,297.4297 Z " fill="#000000"/><text fill="#000000" font-family="sans-serif" font-size="9.6" font-style="italic" lengthAdjust="spacing" textLength="59.2" x="385.752" y="297.2563">&#171;application&#187;</text><text fill="#000000" font-family="sans-serif" font-size="11.2" lengthAdjust="spacing" textLength="129.6" x="350.552" y="311.7516">EditJobOpeningController</text><line style="stroke:#181818;stroke-width:0.4000000000000001;" x1="318.912" x2="489.312" y1="318.5625" y2="318.5625"/><line style="stroke:#181818;stroke-width:0.4000000000000001;" x1="318.912" x2="489.312" y1="324.9625" y2="324.9625"/><text fill="#000000" font-family="sans-serif" font-size="11.2" lengthAdjust="spacing" textLength="104" x="322.912" y="340.2484">activeJobOpenings()</text><text fill="#000000" font-family="sans-serif" font-size="11.2" lengthAdjust="spacing" textLength="98.4" x="322.912" y="355.1453">changeJobTitleTo()</text><text fill="#000000" font-family="sans-serif" font-size="11.2" lengthAdjust="spacing" textLength="128" x="322.912" y="370.0422">changeContractTypeTo()</text><text fill="#000000" font-family="sans-serif" font-size="11.2" lengthAdjust="spacing" textLength="104.8" x="322.912" y="384.9391">changeJobModeTo()</text><text fill="#000000" font-family="sans-serif" font-size="11.2" lengthAdjust="spacing" textLength="133.6" x="322.912" y="399.8359">changeJobDescriptionTo()</text><text fill="#000000" font-family="sans-serif" font-size="11.2" lengthAdjust="spacing" textLength="100.8" x="322.912" y="414.7328">changeAddressTo()</text><text fill="#000000" font-family="sans-serif" font-size="11.2" lengthAdjust="spacing" textLength="162.4" x="322.912" y="429.6297">changeNumberOfVacanciesTo()</text><text fill="#000000" font-family="sans-serif" font-size="11.2" lengthAdjust="spacing" textLength="136" x="322.912" y="444.5266">changeApprovalStatusTo()</text></g><!--class AuthorizationService--><g id="elem_AuthorizationService"><rect codeLine="36" fill="#F1F1F1" height="78.2594" id="AuthorizationService" rx="2" ry="2" style="stroke:#181818;stroke-width:0.4000000000000001;" width="276" x="102.912" y="551.2969"/><ellipse cx="185.912" cy="569.1297" fill="#ADD1B2" rx="8.8" ry="8.8" style="stroke:#181818;stroke-width:0.8000000000000002;"/><path d="M188.1245,565.8297 Q188.2495,565.6547 188.3995,565.5672 Q188.5495,565.4797 188.7245,565.4797 Q189.0245,565.4797 189.212,565.6922 Q189.3995,565.8922 189.3995,566.3797 L189.3995,567.5422 Q189.3995,568.0297 189.212,568.2422 Q189.0245,568.4547 188.7245,568.4547 Q188.4495,568.4547 188.287,568.2922 Q188.1245,568.1422 188.037,567.7297 Q187.9995,567.4422 187.8495,567.2922 Q187.587,566.9922 187.0995,566.8172 Q186.612,566.6422 186.112,566.6422 Q185.4995,566.6422 184.987,566.9047 Q184.487,567.1672 184.087,567.7672 Q183.6995,568.3672 183.6995,569.1922 L183.6995,570.0672 Q183.6995,571.0547 184.412,571.7172 Q185.1245,572.3672 186.3995,572.3672 Q187.1495,572.3672 187.6745,572.1672 Q187.987,572.0422 188.3245,571.6922 Q188.537,571.4797 188.6495,571.4172 Q188.7745,571.3547 188.937,571.3547 Q189.1995,571.3547 189.3995,571.5672 Q189.612,571.7672 189.612,572.0422 Q189.612,572.3172 189.337,572.6422 Q188.937,573.1047 188.2995,573.3672 Q187.437,573.7297 186.3995,573.7297 Q185.187,573.7297 184.2245,573.2297 Q183.437,572.8297 182.887,571.9797 Q182.337,571.1172 182.337,570.0922 L182.337,569.1672 Q182.337,568.1047 182.8245,567.1922 Q183.3245,566.2672 184.1995,565.7797 Q185.0745,565.2797 186.062,565.2797 Q186.6495,565.2797 187.162,565.4172 Q187.687,565.5422 188.1245,565.8297 Z " fill="#000000"/><text fill="#000000" font-family="sans-serif" font-size="9.6" font-style="italic" lengthAdjust="spacing" textLength="42.4" x="232.712" y="565.6563">&#171;service&#187;</text><text fill="#000000" font-family="sans-serif" font-size="11.2" lengthAdjust="spacing" textLength="103.2" x="202.312" y="580.1516">AuthorizationService</text><line style="stroke:#181818;stroke-width:0.4000000000000001;" x1="103.712" x2="378.112" y1="586.9625" y2="586.9625"/><line style="stroke:#181818;stroke-width:0.4000000000000001;" x1="103.712" x2="378.112" y1="593.3625" y2="593.3625"/><text fill="#000000" font-family="sans-serif" font-size="11.2" lengthAdjust="spacing" textLength="266.4" x="107.712" y="608.6484">ensureAuthenticatedUserHasAnyOf(role: BaseRoles)</text><text fill="#000000" font-family="sans-serif" font-size="11.2" lengthAdjust="spacing" textLength="46.4" x="107.712" y="623.5453">session()</text></g><!--class JobOpeningManagementService--><g id="elem_JobOpeningManagementService"><rect codeLine="41" fill="#F1F1F1" height="78.2594" id="JobOpeningManagementService" rx="2" ry="2" style="stroke:#181818;stroke-width:0.4000000000000001;" width="189.6" x="406.912" y="551.2969"/><ellipse cx="418.912" cy="569.1297" fill="#ADD1B2" rx="8.8" ry="8.8" style="stroke:#181818;stroke-width:0.8000000000000002;"/><path d="M421.1245,565.8297 Q421.2495,565.6547 421.3995,565.5672 Q421.5495,565.4797 421.7245,565.4797 Q422.0245,565.4797 422.212,565.6922 Q422.3995,565.8922 422.3995,566.3797 L422.3995,567.5422 Q422.3995,568.0297 422.212,568.2422 Q422.0245,568.4547 421.7245,568.4547 Q421.4495,568.4547 421.287,568.2922 Q421.1245,568.1422 421.037,567.7297 Q420.9995,567.4422 420.8495,567.2922 Q420.587,566.9922 420.0995,566.8172 Q419.612,566.6422 419.112,566.6422 Q418.4995,566.6422 417.987,566.9047 Q417.487,567.1672 417.087,567.7672 Q416.6995,568.3672 416.6995,569.1922 L416.6995,570.0672 Q416.6995,571.0547 417.412,571.7172 Q418.1245,572.3672 419.3995,572.3672 Q420.1495,572.3672 420.6745,572.1672 Q420.987,572.0422 421.3245,571.6922 Q421.537,571.4797 421.6495,571.4172 Q421.7745,571.3547 421.937,571.3547 Q422.1995,571.3547 422.3995,571.5672 Q422.612,571.7672 422.612,572.0422 Q422.612,572.3172 422.337,572.6422 Q421.937,573.1047 421.2995,573.3672 Q420.437,573.7297 419.3995,573.7297 Q418.187,573.7297 417.2245,573.2297 Q416.437,572.8297 415.887,571.9797 Q415.337,571.1172 415.337,570.0922 L415.337,569.1672 Q415.337,568.1047 415.8245,567.1922 Q416.3245,566.2672 417.1995,565.7797 Q418.0745,565.2797 419.062,565.2797 Q419.6495,565.2797 420.162,565.4172 Q420.687,565.5422 421.1245,565.8297 Z " fill="#000000"/><text fill="#000000" font-family="sans-serif" font-size="9.6" font-style="italic" lengthAdjust="spacing" textLength="42.4" x="490.912" y="565.6563">&#171;service&#187;</text><text fill="#000000" font-family="sans-serif" font-size="11.2" lengthAdjust="spacing" textLength="164" x="430.112" y="580.1516">JobOpeningManagementService</text><line style="stroke:#181818;stroke-width:0.4000000000000001;" x1="407.712" x2="595.712" y1="586.9625" y2="586.9625"/><line style="stroke:#181818;stroke-width:0.4000000000000001;" x1="407.712" x2="595.712" y1="593.3625" y2="593.3625"/><text fill="#000000" font-family="sans-serif" font-size="11.2" lengthAdjust="spacing" textLength="38.4" x="411.712" y="608.6484">findAll()</text><text fill="#000000" font-family="sans-serif" font-size="11.2" lengthAdjust="spacing" textLength="72" x="411.712" y="623.5453">jobOpenings()</text></g><!--class UserSession--><g id="elem_UserSession"><rect codeLine="47" fill="#F1F1F1" height="63.3625" id="UserSession" rx="2" ry="2" style="stroke:#181818;stroke-width:0.4000000000000001;" width="109.6" x="45.312" y="737.6969"/><ellipse cx="66.672" cy="755.5297" fill="#ADD1B2" rx="8.8" ry="8.8" style="stroke:#181818;stroke-width:0.8000000000000002;"/><path d="M68.8845,752.2297 Q69.0095,752.0547 69.1595,751.9672 Q69.3095,751.8797 69.4845,751.8797 Q69.7845,751.8797 69.972,752.0922 Q70.1595,752.2922 70.1595,752.7797 L70.1595,753.9422 Q70.1595,754.4297 69.972,754.6422 Q69.7845,754.8547 69.4845,754.8547 Q69.2095,754.8547 69.047,754.6922 Q68.8845,754.5422 68.797,754.1297 Q68.7595,753.8422 68.6095,753.6922 Q68.347,753.3922 67.8595,753.2172 Q67.372,753.0422 66.872,753.0422 Q66.2595,753.0422 65.747,753.3047 Q65.247,753.5672 64.847,754.1672 Q64.4595,754.7672 64.4595,755.5922 L64.4595,756.4672 Q64.4595,757.4547 65.172,758.1172 Q65.8845,758.7672 67.1595,758.7672 Q67.9095,758.7672 68.4345,758.5672 Q68.747,758.4422 69.0845,758.0922 Q69.297,757.8797 69.4095,757.8172 Q69.5345,757.7547 69.697,757.7547 Q69.9595,757.7547 70.1595,757.9672 Q70.372,758.1672 70.372,758.4422 Q70.372,758.7172 70.097,759.0422 Q69.697,759.5047 69.0595,759.7672 Q68.197,760.1297 67.1595,760.1297 Q65.947,760.1297 64.9845,759.6297 Q64.197,759.2297 63.647,758.3797 Q63.097,757.5172 63.097,756.4922 L63.097,755.5672 Q63.097,754.5047 63.5845,753.5922 Q64.0845,752.6672 64.9595,752.1797 Q65.8345,751.6797 66.822,751.6797 Q67.4095,751.6797 67.922,751.8172 Q68.447,751.9422 68.8845,752.2297 Z " fill="#000000"/><text fill="#000000" font-family="sans-serif" font-size="9.6" font-style="italic" lengthAdjust="spacing" textLength="46.4" x="88.352" y="752.0563">&#171;Session&#187;</text><text fill="#000000" font-family="sans-serif" font-size="11.2" lengthAdjust="spacing" textLength="63.2" x="79.952" y="766.5516">UserSession</text><line style="stroke:#181818;stroke-width:0.4000000000000001;" x1="46.112" x2="154.112" y1="773.3625" y2="773.3625"/><line style="stroke:#181818;stroke-width:0.4000000000000001;" x1="46.112" x2="154.112" y1="779.7625" y2="779.7625"/><text fill="#000000" font-family="sans-serif" font-size="11.2" lengthAdjust="spacing" textLength="100" x="50.112" y="795.0484">authenticatedUser()</text></g><!--class JobOpening--><g id="elem_JobOpening"><rect codeLine="53" fill="#F1F1F1" height="152.7438" id="JobOpening" rx="2" ry="2" style="stroke:#181818;stroke-width:0.4000000000000001;" width="156" x="624.512" y="514.0969"/><ellipse cx="668.712" cy="531.9297" fill="#ADD1B2" rx="8.8" ry="8.8" style="stroke:#181818;stroke-width:0.8000000000000002;"/><path d="M670.9245,528.6297 Q671.0495,528.4547 671.1995,528.3672 Q671.3495,528.2797 671.5245,528.2797 Q671.8245,528.2797 672.012,528.4922 Q672.1995,528.6922 672.1995,529.1797 L672.1995,530.3422 Q672.1995,530.8297 672.012,531.0422 Q671.8245,531.2547 671.5245,531.2547 Q671.2495,531.2547 671.087,531.0922 Q670.9245,530.9422 670.837,530.5297 Q670.7995,530.2422 670.6495,530.0922 Q670.387,529.7922 669.8995,529.6172 Q669.412,529.4422 668.912,529.4422 Q668.2995,529.4422 667.787,529.7047 Q667.287,529.9672 666.887,530.5672 Q666.4995,531.1672 666.4995,531.9922 L666.4995,532.8672 Q666.4995,533.8547 667.212,534.5172 Q667.9245,535.1672 669.1995,535.1672 Q669.9495,535.1672 670.4745,534.9672 Q670.787,534.8422 671.1245,534.4922 Q671.337,534.2797 671.4495,534.2172 Q671.5745,534.1547 671.737,534.1547 Q671.9995,534.1547 672.1995,534.3672 Q672.412,534.5672 672.412,534.8422 Q672.412,535.1172 672.137,535.4422 Q671.737,535.9047 671.0995,536.1672 Q670.237,536.5297 669.1995,536.5297 Q667.987,536.5297 667.0245,536.0297 Q666.237,535.6297 665.687,534.7797 Q665.137,533.9172 665.137,532.8922 L665.137,531.9672 Q665.137,530.9047 665.6245,529.9922 Q666.1245,529.0672 666.9995,528.5797 Q667.8745,528.0797 668.862,528.0797 Q669.4495,528.0797 669.962,528.2172 Q670.487,528.3422 670.9245,528.6297 Z " fill="#000000"/><text fill="#000000" font-family="sans-serif" font-size="9.6" font-style="italic" lengthAdjust="spacing" textLength="44.8" x="693.112" y="528.4563">&#171;domain&#187;</text><text fill="#000000" font-family="sans-serif" font-size="11.2" lengthAdjust="spacing" textLength="60.8" x="685.112" y="542.9516">JobOpening</text><line style="stroke:#181818;stroke-width:0.4000000000000001;" x1="625.312" x2="779.712" y1="549.7625" y2="549.7625"/><line style="stroke:#181818;stroke-width:0.4000000000000001;" x1="625.312" x2="779.712" y1="556.1625" y2="556.1625"/><text fill="#000000" font-family="sans-serif" font-size="11.2" lengthAdjust="spacing" textLength="82.4" x="629.312" y="571.4484">updateJobTitle()</text><text fill="#000000" font-family="sans-serif" font-size="11.2" lengthAdjust="spacing" textLength="112" x="629.312" y="586.3453">updateContractType()</text><text fill="#000000" font-family="sans-serif" font-size="11.2" lengthAdjust="spacing" textLength="88.8" x="629.312" y="601.2422">updateJobMode()</text><text fill="#000000" font-family="sans-serif" font-size="11.2" lengthAdjust="spacing" textLength="117.6" x="629.312" y="616.1391">updateJobDescription()</text><text fill="#000000" font-family="sans-serif" font-size="11.2" lengthAdjust="spacing" textLength="84.8" x="629.312" y="631.0359">updateAddress()</text><text fill="#000000" font-family="sans-serif" font-size="11.2" lengthAdjust="spacing" textLength="146.4" x="629.312" y="645.9328">updateNumberOfVacancies()</text><text fill="#000000" font-family="sans-serif" font-size="11.2" lengthAdjust="spacing" textLength="120" x="629.312" y="660.8297">updateApprovalStatus()</text></g><!--class PersistenceContext--><g id="elem_PersistenceContext"><rect codeLine="65" fill="#F1F1F1" height="78.2594" id="PersistenceContext" rx="2" ry="2" style="stroke:#181818;stroke-width:0.4000000000000001;" width="123.2" x="506.512" y="730.0969"/><ellipse cx="518.512" cy="747.9297" fill="#ADD1B2" rx="8.8" ry="8.8" style="stroke:#181818;stroke-width:0.8000000000000002;"/><path d="M520.7245,744.6297 Q520.8495,744.4547 520.9995,744.3672 Q521.1495,744.2797 521.3245,744.2797 Q521.6245,744.2797 521.812,744.4922 Q521.9995,744.6922 521.9995,745.1797 L521.9995,746.3422 Q521.9995,746.8297 521.812,747.0422 Q521.6245,747.2547 521.3245,747.2547 Q521.0495,747.2547 520.887,747.0922 Q520.7245,746.9422 520.637,746.5297 Q520.5995,746.2422 520.4495,746.0922 Q520.187,745.7922 519.6995,745.6172 Q519.212,745.4422 518.712,745.4422 Q518.0995,745.4422 517.587,745.7047 Q517.087,745.9672 516.687,746.5672 Q516.2995,747.1672 516.2995,747.9922 L516.2995,748.8672 Q516.2995,749.8547 517.012,750.5172 Q517.7245,751.1672 518.9995,751.1672 Q519.7495,751.1672 520.2745,750.9672 Q520.587,750.8422 520.9245,750.4922 Q521.137,750.2797 521.2495,750.2172 Q521.3745,750.1547 521.537,750.1547 Q521.7995,750.1547 521.9995,750.3672 Q522.212,750.5672 522.212,750.8422 Q522.212,751.1172 521.937,751.4422 Q521.537,751.9047 520.8995,752.1672 Q520.037,752.5297 518.9995,752.5297 Q517.787,752.5297 516.8245,752.0297 Q516.037,751.6297 515.487,750.7797 Q514.937,749.9172 514.937,748.8922 L514.937,747.9672 Q514.937,746.9047 515.4245,745.9922 Q515.9245,745.0672 516.7995,744.5797 Q517.6745,744.0797 518.662,744.0797 Q519.2495,744.0797 519.762,744.2172 Q520.287,744.3422 520.7245,744.6297 Z " fill="#000000"/><text fill="#000000" font-family="sans-serif" font-size="9.6" font-style="italic" lengthAdjust="spacing" textLength="61.6" x="547.712" y="744.4563">&#171;persistence&#187;</text><text fill="#000000" font-family="sans-serif" font-size="11.2" lengthAdjust="spacing" textLength="97.6" x="529.712" y="758.9516">PersistenceContext</text><line style="stroke:#181818;stroke-width:0.4000000000000001;" x1="507.312" x2="628.912" y1="765.7625" y2="765.7625"/><line style="stroke:#181818;stroke-width:0.4000000000000001;" x1="507.312" x2="628.912" y1="772.1625" y2="772.1625"/><text fill="#000000" font-family="sans-serif" font-size="11.2" lengthAdjust="spacing" textLength="67.2" x="511.312" y="787.4484">repositories()</text><text fill="#000000" font-family="sans-serif" font-size="11.2" lengthAdjust="spacing" textLength="42.4" x="511.312" y="802.3453">factory()</text></g><!--class RepositoryFactory--><g id="elem_RepositoryFactory"><rect codeLine="71" fill="#F1F1F1" height="63.3625" id="RepositoryFactory" rx="2" ry="2" style="stroke:#181818;stroke-width:0.4000000000000001;" width="118.4" x="507.312" y="871.6969"/><ellipse cx="519.312" cy="889.5297" fill="#ADD1B2" rx="8.8" ry="8.8" style="stroke:#181818;stroke-width:0.8000000000000002;"/><path d="M521.5245,886.2297 Q521.6495,886.0547 521.7995,885.9672 Q521.9495,885.8797 522.1245,885.8797 Q522.4245,885.8797 522.612,886.0922 Q522.7995,886.2922 522.7995,886.7797 L522.7995,887.9422 Q522.7995,888.4297 522.612,888.6422 Q522.4245,888.8547 522.1245,888.8547 Q521.8495,888.8547 521.687,888.6922 Q521.5245,888.5422 521.437,888.1297 Q521.3995,887.8422 521.2495,887.6922 Q520.987,887.3922 520.4995,887.2172 Q520.012,887.0422 519.512,887.0422 Q518.8995,887.0422 518.387,887.3047 Q517.887,887.5672 517.487,888.1672 Q517.0995,888.7672 517.0995,889.5922 L517.0995,890.4672 Q517.0995,891.4547 517.812,892.1172 Q518.5245,892.7672 519.7995,892.7672 Q520.5495,892.7672 521.0745,892.5672 Q521.387,892.4422 521.7245,892.0922 Q521.937,891.8797 522.0495,891.8172 Q522.1745,891.7547 522.337,891.7547 Q522.5995,891.7547 522.7995,891.9672 Q523.012,892.1672 523.012,892.4422 Q523.012,892.7172 522.737,893.0422 Q522.337,893.5047 521.6995,893.7672 Q520.837,894.1297 519.7995,894.1297 Q518.587,894.1297 517.6245,893.6297 Q516.837,893.2297 516.287,892.3797 Q515.737,891.5172 515.737,890.4922 L515.737,889.5672 Q515.737,888.5047 516.2245,887.5922 Q516.7245,886.6672 517.5995,886.1797 Q518.4745,885.6797 519.462,885.6797 Q520.0495,885.6797 520.562,885.8172 Q521.087,885.9422 521.5245,886.2297 Z " fill="#000000"/><text fill="#000000" font-family="sans-serif" font-size="9.6" font-style="italic" lengthAdjust="spacing" textLength="40" x="556.912" y="886.0563">&#171;factory&#187;</text><text fill="#000000" font-family="sans-serif" font-size="11.2" lengthAdjust="spacing" textLength="92.8" x="530.512" y="900.5516">RepositoryFactory</text><line style="stroke:#181818;stroke-width:0.4000000000000001;" x1="508.112" x2="624.912" y1="907.3625" y2="907.3625"/><line style="stroke:#181818;stroke-width:0.4000000000000001;" x1="508.112" x2="624.912" y1="913.7625" y2="913.7625"/><text fill="#000000" font-family="sans-serif" font-size="11.2" lengthAdjust="spacing" textLength="72" x="512.112" y="929.0484">jobOpenings()</text></g><!--class JobOpeningRepository--><g id="elem_JobOpeningRepository"><rect codeLine="77" fill="#F1F1F1" height="78.2594" id="JobOpeningRepository" rx="2" ry="2" style="stroke:#181818;stroke-width:0.4000000000000001;" width="185.6" x="394.512" y="998.0969"/><ellipse cx="426.672" cy="1015.9297" fill="#ADD1B2" rx="8.8" ry="8.8" style="stroke:#181818;stroke-width:0.8000000000000002;"/><path d="M428.8845,1012.6297 Q429.0095,1012.4547 429.1595,1012.3672 Q429.3095,1012.2797 429.4845,1012.2797 Q429.7845,1012.2797 429.972,1012.4922 Q430.1595,1012.6922 430.1595,1013.1797 L430.1595,1014.3422 Q430.1595,1014.8297 429.972,1015.0422 Q429.7845,1015.2547 429.4845,1015.2547 Q429.2095,1015.2547 429.047,1015.0922 Q428.8845,1014.9422 428.797,1014.5297 Q428.7595,1014.2422 428.6095,1014.0922 Q428.347,1013.7922 427.8595,1013.6172 Q427.372,1013.4422 426.872,1013.4422 Q426.2595,1013.4422 425.747,1013.7047 Q425.247,1013.9672 424.847,1014.5672 Q424.4595,1015.1672 424.4595,1015.9922 L424.4595,1016.8672 Q424.4595,1017.8547 425.172,1018.5172 Q425.8845,1019.1672 427.1595,1019.1672 Q427.9095,1019.1672 428.4345,1018.9672 Q428.747,1018.8422 429.0845,1018.4922 Q429.297,1018.2797 429.4095,1018.2172 Q429.5345,1018.1547 429.697,1018.1547 Q429.9595,1018.1547 430.1595,1018.3672 Q430.372,1018.5672 430.372,1018.8422 Q430.372,1019.1172 430.097,1019.4422 Q429.697,1019.9047 429.0595,1020.1672 Q428.197,1020.5297 427.1595,1020.5297 Q425.947,1020.5297 424.9845,1020.0297 Q424.197,1019.6297 423.647,1018.7797 Q423.097,1017.9172 423.097,1016.8922 L423.097,1015.9672 Q423.097,1014.9047 423.5845,1013.9922 Q424.0845,1013.0672 424.9595,1012.5797 Q425.8345,1012.0797 426.822,1012.0797 Q427.4095,1012.0797 427.922,1012.2172 Q428.447,1012.3422 428.8845,1012.6297 Z " fill="#000000"/><text fill="#000000" font-family="sans-serif" font-size="9.6" font-style="italic" lengthAdjust="spacing" textLength="54.4" x="472.752" y="1012.4563">&#171;repository&#187;</text><text fill="#000000" font-family="sans-serif" font-size="11.2" lengthAdjust="spacing" textLength="115.2" x="442.352" y="1026.9516">JobOpeningRepository</text><line style="stroke:#181818;stroke-width:0.4000000000000001;" x1="395.312" x2="579.312" y1="1033.7625" y2="1033.7625"/><line style="stroke:#181818;stroke-width:0.4000000000000001;" x1="395.312" x2="579.312" y1="1040.1625" y2="1040.1625"/><text fill="#000000" font-family="sans-serif" font-size="11.2" lengthAdjust="spacing" textLength="68.8" x="399.312" y="1055.4484">findAllActive()</text><text fill="#000000" font-family="sans-serif" font-size="11.2" lengthAdjust="spacing" textLength="176" x="399.312" y="1070.3453">save(theJobOpening: JobOpening)</text></g><!--link EditJobOpeningUI to EditJobOpeningController--><g id="link_EditJobOpeningUI_EditJobOpeningController"><path codeLine="83" d="M404.112,219.8329 C404.112,240.4649 404.112,257.4889 404.112,277.8089 " fill="none" id="EditJobOpeningUI-to-EditJobOpeningController" style="stroke:#181818;stroke-width:0.8000000000000002;"/><polygon fill="#181818" points="404.112,282.6089,407.312,275.4089,404.112,278.6089,400.912,275.4089,404.112,282.6089" style="stroke:#181818;stroke-width:0.8000000000000002;"/><text fill="#000000" font-family="sans-serif" font-size="10.4" lengthAdjust="spacing" textLength="42.4" x="404.912" y="255.7195">controller</text></g><!--link EditJobOpeningController to AuthorizationService--><g id="link_EditJobOpeningController_AuthorizationService"><path codeLine="84" d="M342.872,450.9929 C317.552,485.4409 292.2755,519.8297 271.9875,547.4217 " fill="none" id="EditJobOpeningController-to-AuthorizationService" style="stroke:#181818;stroke-width:0.8000000000000002;"/><polygon fill="#181818" points="269.144,551.2889,275.9873,547.3838,271.5135,548.0663,270.8311,543.5925,269.144,551.2889" style="stroke:#181818;stroke-width:0.8000000000000002;"/><text fill="#000000" font-family="sans-serif" font-size="10.4" lengthAdjust="spacing" textLength="25.6" x="323.312" y="486.9195">authz</text></g><!--link EditJobOpeningController to UserSession--><g id="link_EditJobOpeningController_UserSession"><path codeLine="85" d="M317.728,376.7289 C233.696,390.6169 110.32,425.7209 51.312,514.0969 C4.8,583.7529 49.4131,682.5438 78.4771,733.4798 " fill="none" id="EditJobOpeningController-to-UserSession" style="stroke:#181818;stroke-width:0.8000000000000002;"/><polygon fill="#181818" points="80.856,737.6489,80.0671,729.8094,78.8736,734.1747,74.5083,732.9812,80.856,737.6489" style="stroke:#181818;stroke-width:0.8000000000000002;"/><text fill="#000000" font-family="sans-serif" font-size="10.4" lengthAdjust="spacing" textLength="36" x="52.112" y="594.9195">session</text></g><!--link EditJobOpeningController to JobOpeningManagementService--><g id="link_EditJobOpeningController_JobOpeningManagementService"><path codeLine="86" d="M440.728,450.9929 C455.872,485.4409 470.7645,519.3026 482.8925,546.8946 " fill="none" id="EditJobOpeningController-to-JobOpeningManagementService" style="stroke:#181818;stroke-width:0.8000000000000002;"/><polygon fill="#181818" points="484.824,551.2889,484.8563,543.4099,483.2144,547.627,478.9973,545.9852,484.824,551.2889" style="stroke:#181818;stroke-width:0.8000000000000002;"/><text fill="#000000" font-family="sans-serif" font-size="10.4" lengthAdjust="spacing" textLength="32" x="456.912" y="486.9195">service</text></g><!--link AuthorizationService to UserSession--><g id="link_AuthorizationService_UserSession"><path codeLine="87" d="M210.36,629.7449 C184.72,662.0169 151.5545,703.7551 127.7305,733.7311 " fill="none" id="AuthorizationService-to-UserSession" style="stroke:#181818;stroke-width:0.8000000000000002;"/><polygon fill="#181818" points="124.744,737.4889,131.729,733.8433,127.2328,734.3574,126.7186,729.8612,124.744,737.4889" style="stroke:#181818;stroke-width:0.8000000000000002;"/><text fill="#000000" font-family="sans-serif" font-size="10.4" lengthAdjust="spacing" textLength="36" x="159.312" y="702.9195">session</text></g><!--link JobOpeningManagementService to PersistenceContext--><g id="link_JobOpeningManagementService_PersistenceContext"><path codeLine="88" d="M516.12,629.7449 C527.216,659.3689 540.8119,695.642 551.9319,725.322 " fill="none" id="JobOpeningManagementService-to-PersistenceContext" style="stroke:#181818;stroke-width:0.8000000000000002;"/><polygon fill="#181818" points="553.616,729.8169,554.0865,721.9518,552.2126,726.0711,548.0933,724.1973,553.616,729.8169" style="stroke:#181818;stroke-width:0.8000000000000002;"/><text fill="#000000" font-family="sans-serif" font-size="10.4" lengthAdjust="spacing" textLength="53.6" x="544.112" y="702.9195">persistence</text></g><!--link PersistenceContext to RepositoryFactory--><g id="link_PersistenceContext_RepositoryFactory"><path codeLine="89" d="M567.64,808.7449 C567.4,828.7449 567.1714,848.0252 566.9394,866.7772 " fill="none" id="PersistenceContext-to-RepositoryFactory" style="stroke:#181818;stroke-width:0.8000000000000002;"/><polygon fill="#181818" points="566.88,871.5769,570.1688,864.417,566.9295,867.5772,563.7693,864.3378,566.88,871.5769" style="stroke:#181818;stroke-width:0.8000000000000002;"/><text fill="#000000" font-family="sans-serif" font-size="10.4" lengthAdjust="spacing" textLength="31.2" x="568.112" y="844.5195">factory</text></g><!--link RepositoryFactory to JobOpeningRepository--><g id="link_RepositoryFactory_JobOpeningRepository"><path codeLine="90" d="M547.936,935.1369 C536.696,953.9449 524.7195,973.9533 512.7595,993.9533 " fill="none" id="RepositoryFactory-to-JobOpeningRepository" style="stroke:#181818;stroke-width:0.8000000000000002;"/><polygon fill="#181818" points="510.296,998.0729,516.7377,993.5358,512.3489,994.6399,511.2449,990.2511,510.296,998.0729" style="stroke:#181818;stroke-width:0.8000000000000002;"/><text fill="#000000" font-family="sans-serif" font-size="10.4" lengthAdjust="spacing" textLength="45.6" x="532.912" y="970.9195">repository</text></g><!--link JobOpeningManagementService to JobOpeningRepository--><g id="link_JobOpeningManagementService_JobOpeningRepository"><path codeLine="91" d="M498.488,629.8569 C496.296,657.6889 493.544,696.1929 492.112,730.0969 C488.024,826.4409 487.3253,935.1449 487.2613,993.2249 " fill="none" id="JobOpeningManagementService-to-JobOpeningRepository" style="stroke:#181818;stroke-width:0.8000000000000002;"/><polygon fill="#181818" points="487.256,998.0249,490.4639,990.8284,487.2604,994.0249,484.0639,990.8214,487.256,998.0249" style="stroke:#181818;stroke-width:0.8000000000000002;"/><text fill="#000000" font-family="sans-serif" font-size="10.4" lengthAdjust="spacing" textLength="45.6" x="490.512" y="844.5195">repository</text></g><!--link EditJobOpeningController to JobOpening--><g id="link_EditJobOpeningController_JobOpening"><path codeLine="92" d="M490.2,426.7209 C527.608,452.8969 571.672,484.4249 610.512,514.0969 C615.024,517.5449 615.8611,518.159 620.4931,521.807 " fill="none" id="EditJobOpeningController-to-JobOpening" style="stroke:#181818;stroke-width:0.8000000000000002;"/><polygon fill="#181818" points="624.264,524.7769,620.5875,517.8081,621.1216,522.302,616.6277,522.836,624.264,524.7769" style="stroke:#181818;stroke-width:0.8000000000000002;"/><text fill="#000000" font-family="sans-serif" font-size="10.4" lengthAdjust="spacing" textLength="33.6" x="578.512" y="486.9195">domain</text></g><!--SRC=[vLInRjim4Dtv5HoTmK3GRa9WGBLJ905I5x7TdQREDXkP94ZAhLpattkKRL4gQQLxD56ykyTtZuzdNuNKpB0zrOo_iYqiN5q2DS0TaziIY6qJx8uLwfUGMxfXfGNI2V6IMPixPyIwSl38bLo88z1RGfnm23VrSJeJREkpHzFP3HtJrVJsqsT22CMl0Q3tXN1FQZtN8F6OrIEzkzC6B4Z7d51oCg5_ccp_GIztTDC6VhQRjhFBTzWEOC7I4rggA3HLqXd6tRBMgJ1MFglYIcG6bXkXFST4GbuKs8HDHBvL-pMO-UO7uqno0QcSN6kZ3gnSe0PLI7WZ0yerlQYo18CACgrBmMC1iLTnWAUFg5PUkPqoujY8iW1p41nGANjQzMqcRMN05w0BlOnGh33lWTbSrlFD26M6Z7vX5bvmPGCVYqqWUY0GZW-QFpE9JswFqCCiDa8MULaEklojrw8dkJXHGCppgd____QKrYgGHPn2xPdemrIwG82BLJeCJu6kKQBWsIQf_Ov9el3P8j5-P92uicUFTCFVmLXX7KZUa8VVpe-XiDdhte1MLZWqK- -q3NQiJ9sycPTBIVtrb8Nmv_mUTFg6apSJ816hfLIdB9Gthxv3rJByHIS4jAo370wEPlDuFBawTZBAspMvEfiyGkefPeqtZyE57ODdbySsN37mx3n2io39qN3rlA6Nx8jYBsMqOoMIy9elYooINHn5OlVqMmlnB9YpVfVekm3_gMn6JoE2aBy0]--></g></svg>