<?xml version="1.0" encoding="us-ascii" standalone="no"?><svg xmlns="http://www.w3.org/2000/svg" xmlns:xlink="http://www.w3.org/1999/xlink" contentStyleType="text/css" height="1773px" preserveAspectRatio="none" style="width:2075px;height:1773px;background:#FFFFFF;" version="1.1" viewBox="0 0 2075 1773" width="2075px" zoomAndPan="magnify"><defs><filter height="300%" id="f1626xuiy17d7i" width="300%" x="-1" y="-1"><feGaussianBlur result="blurOut" stdDeviation="2.0"/><feColorMatrix in="blurOut" result="blurOut2" type="matrix" values="0 0 0 0 0 0 0 0 0 0 0 0 0 0 0 0 0 0 .4 0"/><feOffset dx="4.0" dy="4.0" in="blurOut2" result="blurOut3"/><feBlend in="SourceGraphic" in2="blurOut3" mode="normal"/></filter></defs><g><text fill="#000000" font-family="sans-serif" font-size="14" font-weight="bold" lengthAdjust="spacing" textLength="222" x="925.25" y="30.1074">Sequence Diagram (SD) - UC023</text><rect fill="#FFFFFF" filter="url(#f1626xuiy17d7i)" height="1504.25" style="stroke:#181818;stroke-width:1.0;" width="10" x="333.5" y="161.1543"/><rect fill="#FFFFFF" filter="url(#f1626xuiy17d7i)" height="594.5293" style="stroke:#181818;stroke-width:1.0;" width="10" x="550.5" y="223.7363"/><rect fill="#FFFFFF" filter="url(#f1626xuiy17d7i)" height="496.9375" style="stroke:#181818;stroke-width:1.0;" width="10" x="550.5" y="1089.8848"/><rect fill="#FFFFFF" filter="url(#f1626xuiy17d7i)" height="93.873" style="stroke:#181818;stroke-width:1.0;" width="10" x="1005.5" y="286.3184"/><rect fill="#FFFFFF" filter="url(#f1626xuiy17d7i)" height="31.291" style="stroke:#181818;stroke-width:1.0;" width="10" x="1136.5" y="411.4824"/><rect fill="#FFFFFF" filter="url(#f1626xuiy17d7i)" height="281.6191" style="stroke:#181818;stroke-width:1.0;" width="10" x="1305.5" y="505.3555"/><rect fill="#FFFFFF" filter="url(#f1626xuiy17d7i)" height="62.582" style="stroke:#181818;stroke-width:1.0;" width="10" x="1676" y="536.6465"/><rect fill="#FFFFFF" filter="url(#f1626xuiy17d7i)" height="62.582" style="stroke:#181818;stroke-width:1.0;" width="10" x="1822" y="630.5195"/><rect fill="#FFFFFF" filter="url(#f1626xuiy17d7i)" height="31.291" style="stroke:#181818;stroke-width:1.0;" width="10" x="1973.5" y="724.3926"/><rect fill="none" filter="url(#f1626xuiy17d7i)" height="730.2656" style="stroke:#000000;stroke-width:1.5;" width="2053.5" x="10" y="895.8477"/><rect fill="none" filter="url(#f1626xuiy17d7i)" height="477.9375" style="stroke:#000000;stroke-width:1.5;" width="1347.5" x="264" y="1047.3027"/><line style="stroke:#181818;stroke-width:0.5;stroke-dasharray:5.0,5.0;" x1="83" x2="83" y1="127.8633" y2="1674.4043"/><line style="stroke:#181818;stroke-width:0.5;stroke-dasharray:5.0,5.0;" x1="338" x2="338" y1="127.8633" y2="1674.4043"/><line style="stroke:#181818;stroke-width:0.5;stroke-dasharray:5.0,5.0;" x1="555" x2="555" y1="127.8633" y2="1674.4043"/><line style="stroke:#181818;stroke-width:0.5;stroke-dasharray:5.0,5.0;" x1="1010.5" x2="1010.5" y1="127.8633" y2="1674.4043"/><line style="stroke:#181818;stroke-width:0.5;stroke-dasharray:5.0,5.0;" x1="1141.5" x2="1141.5" y1="127.8633" y2="1674.4043"/><line style="stroke:#181818;stroke-width:0.5;stroke-dasharray:5.0,5.0;" x1="1310.5" x2="1310.5" y1="127.8633" y2="1674.4043"/><line style="stroke:#181818;stroke-width:0.5;stroke-dasharray:5.0,5.0;" x1="1516.5" x2="1516.5" y1="127.8633" y2="1674.4043"/><line style="stroke:#181818;stroke-width:0.5;stroke-dasharray:5.0,5.0;" x1="1680.5" x2="1680.5" y1="127.8633" y2="1674.4043"/><line style="stroke:#181818;stroke-width:0.5;stroke-dasharray:5.0,5.0;" x1="1826.5" x2="1826.5" y1="127.8633" y2="1674.4043"/><line style="stroke:#181818;stroke-width:0.5;stroke-dasharray:5.0,5.0;" x1="1978.5" x2="1978.5" y1="127.8633" y2="1674.4043"/><text fill="#000000" font-family="sans-serif" font-size="14" lengthAdjust="spacing" textLength="121" x="20" y="124.3496">Customer Manager</text><ellipse cx="83.5" cy="54.7422" fill="#E2E2F0" filter="url(#f1626xuiy17d7i)" rx="8" ry="8" style="stroke:#181818;stroke-width:0.5;"/><path d="M83.5,62.7422 L83.5,89.7422 M70.5,70.7422 L96.5,70.7422 M83.5,89.7422 L70.5,104.7422 M83.5,89.7422 L96.5,104.7422 " fill="none" filter="url(#f1626xuiy17d7i)" style="stroke:#181818;stroke-width:0.5;"/><text fill="#000000" font-family="sans-serif" font-size="14" lengthAdjust="spacing" textLength="121" x="20" y="1688.5117">Customer Manager</text><ellipse cx="83.5" cy="1700.5254" fill="#E2E2F0" filter="url(#f1626xuiy17d7i)" rx="8" ry="8" style="stroke:#181818;stroke-width:0.5;"/><path d="M83.5,1708.5254 L83.5,1735.5254 M70.5,1716.5254 L96.5,1716.5254 M83.5,1735.5254 L70.5,1750.5254 M83.5,1735.5254 L96.5,1750.5254 " fill="none" filter="url(#f1626xuiy17d7i)" style="stroke:#181818;stroke-width:0.5;"/><rect fill="#E2E2F0" filter="url(#f1626xuiy17d7i)" height="51.2422" rx="2.5" ry="2.5" style="stroke:#181818;stroke-width:0.5;" width="126" x="274" y="72.6211"/><text fill="#000000" font-family="sans-serif" font-size="14" font-style="italic" lengthAdjust="spacing" textLength="95" x="289.5" y="94.7285">&#171;presentation&#187;</text><text fill="#000000" font-family="sans-serif" font-size="14" lengthAdjust="spacing" textLength="112" x="281" y="113.3496">EditJobOpeningUI</text><rect fill="#E2E2F0" filter="url(#f1626xuiy17d7i)" height="51.2422" rx="2.5" ry="2.5" style="stroke:#181818;stroke-width:0.5;" width="126" x="274" y="1673.4043"/><text fill="#000000" font-family="sans-serif" font-size="14" font-style="italic" lengthAdjust="spacing" textLength="95" x="289.5" y="1695.5117">&#171;presentation&#187;</text><text fill="#000000" font-family="sans-serif" font-size="14" lengthAdjust="spacing" textLength="112" x="281" y="1714.1328">EditJobOpeningUI</text><rect fill="#E2E2F0" filter="url(#f1626xuiy17d7i)" height="51.2422" rx="2.5" ry="2.5" style="stroke:#181818;stroke-width:0.5;" width="176" x="466" y="72.6211"/><text fill="#000000" font-family="sans-serif" font-size="14" font-style="italic" lengthAdjust="spacing" textLength="84" x="512" y="94.7285">&#171;application&#187;</text><text fill="#000000" font-family="sans-serif" font-size="14" lengthAdjust="spacing" textLength="162" x="473" y="113.3496">EditJobOpeningController</text><rect fill="#E2E2F0" filter="url(#f1626xuiy17d7i)" height="51.2422" rx="2.5" ry="2.5" style="stroke:#181818;stroke-width:0.5;" width="176" x="466" y="1673.4043"/><text fill="#000000" font-family="sans-serif" font-size="14" font-style="italic" lengthAdjust="spacing" textLength="84" x="512" y="1695.5117">&#171;application&#187;</text><text fill="#000000" font-family="sans-serif" font-size="14" lengthAdjust="spacing" textLength="162" x="473" y="1714.1328">EditJobOpeningController</text><rect fill="#E2E2F0" filter="url(#f1626xuiy17d7i)" height="51.2422" rx="2.5" ry="2.5" style="stroke:#181818;stroke-width:0.5;" width="143" x="937.5" y="72.6211"/><text fill="#000000" font-family="sans-serif" font-size="14" font-style="italic" lengthAdjust="spacing" textLength="60" x="979" y="94.7285">&#171;service&#187;</text><text fill="#000000" font-family="sans-serif" font-size="14" lengthAdjust="spacing" textLength="129" x="944.5" y="113.3496">AuthorizationService</text><rect fill="#E2E2F0" filter="url(#f1626xuiy17d7i)" height="51.2422" rx="2.5" ry="2.5" style="stroke:#181818;stroke-width:0.5;" width="143" x="937.5" y="1673.4043"/><text fill="#000000" font-family="sans-serif" font-size="14" font-style="italic" lengthAdjust="spacing" textLength="60" x="979" y="1695.5117">&#171;service&#187;</text><text fill="#000000" font-family="sans-serif" font-size="14" lengthAdjust="spacing" textLength="129" x="944.5" y="1714.1328">AuthorizationService</text><rect fill="#E2E2F0" filter="url(#f1626xuiy17d7i)" height="51.2422" rx="2.5" ry="2.5" style="stroke:#181818;stroke-width:0.5;" width="93" x="1093.5" y="72.6211"/><text fill="#000000" font-family="sans-serif" font-size="14" font-style="italic" lengthAdjust="spacing" textLength="66" x="1107" y="94.7285">&#171;Session&#187;</text><text fill="#000000" font-family="sans-serif" font-size="14" lengthAdjust="spacing" textLength="79" x="1100.5" y="113.3496">UserSession</text><rect fill="#E2E2F0" filter="url(#f1626xuiy17d7i)" height="51.2422" rx="2.5" ry="2.5" style="stroke:#181818;stroke-width:0.5;" width="93" x="1093.5" y="1673.4043"/><text fill="#000000" font-family="sans-serif" font-size="14" font-style="italic" lengthAdjust="spacing" textLength="66" x="1107" y="1695.5117">&#171;Session&#187;</text><text fill="#000000" font-family="sans-serif" font-size="14" lengthAdjust="spacing" textLength="79" x="1100.5" y="1714.1328">UserSession</text><rect fill="#E2E2F0" filter="url(#f1626xuiy17d7i)" height="51.2422" rx="2.5" ry="2.5" style="stroke:#181818;stroke-width:0.5;" width="219" x="1199.5" y="72.6211"/><text fill="#000000" font-family="sans-serif" font-size="14" font-style="italic" lengthAdjust="spacing" textLength="60" x="1279" y="94.7285">&#171;service&#187;</text><text fill="#000000" font-family="sans-serif" font-size="14" lengthAdjust="spacing" textLength="205" x="1206.5" y="113.3496">JobOpeningManagementService</text><rect fill="#E2E2F0" filter="url(#f1626xuiy17d7i)" height="51.2422" rx="2.5" ry="2.5" style="stroke:#181818;stroke-width:0.5;" width="219" x="1199.5" y="1673.4043"/><text fill="#000000" font-family="sans-serif" font-size="14" font-style="italic" lengthAdjust="spacing" textLength="60" x="1279" y="1695.5117">&#171;service&#187;</text><text fill="#000000" font-family="sans-serif" font-size="14" lengthAdjust="spacing" textLength="205" x="1206.5" y="1714.1328">JobOpeningManagementService</text><rect fill="#E2E2F0" filter="url(#f1626xuiy17d7i)" height="51.2422" rx="2.5" ry="2.5" style="stroke:#181818;stroke-width:0.5;" width="167" x="1431.5" y="72.6211"/><text fill="#000000" font-family="sans-serif" font-size="14" font-style="italic" lengthAdjust="spacing" textLength="62" x="1484" y="94.7285">&#171;domain&#187;</text><text fill="#000000" font-family="sans-serif" font-size="14" lengthAdjust="spacing" textLength="153" x="1438.5" y="113.3496">jobOpening:JobOpening</text><rect fill="#E2E2F0" filter="url(#f1626xuiy17d7i)" height="51.2422" rx="2.5" ry="2.5" style="stroke:#181818;stroke-width:0.5;" width="167" x="1431.5" y="1673.4043"/><text fill="#000000" font-family="sans-serif" font-size="14" font-style="italic" lengthAdjust="spacing" textLength="62" x="1484" y="1695.5117">&#171;domain&#187;</text><text fill="#000000" font-family="sans-serif" font-size="14" lengthAdjust="spacing" textLength="153" x="1438.5" y="1714.1328">jobOpening:JobOpening</text><rect fill="#E2E2F0" filter="url(#f1626xuiy17d7i)" height="51.2422" rx="2.5" ry="2.5" style="stroke:#181818;stroke-width:0.5;" width="136" x="1611.5" y="72.6211"/><text fill="#000000" font-family="sans-serif" font-size="14" font-style="italic" lengthAdjust="spacing" textLength="89" x="1635" y="94.7285">&#171;persistence&#187;</text><text fill="#000000" font-family="sans-serif" font-size="14" lengthAdjust="spacing" textLength="122" x="1618.5" y="113.3496">PersistenceContext</text><rect fill="#E2E2F0" filter="url(#f1626xuiy17d7i)" height="51.2422" rx="2.5" ry="2.5" style="stroke:#181818;stroke-width:0.5;" width="136" x="1611.5" y="1673.4043"/><text fill="#000000" font-family="sans-serif" font-size="14" font-style="italic" lengthAdjust="spacing" textLength="89" x="1635" y="1695.5117">&#171;persistence&#187;</text><text fill="#000000" font-family="sans-serif" font-size="14" lengthAdjust="spacing" textLength="122" x="1618.5" y="1714.1328">PersistenceContext</text><rect fill="#E2E2F0" filter="url(#f1626xuiy17d7i)" height="51.2422" rx="2.5" ry="2.5" style="stroke:#181818;stroke-width:0.5;" width="130" x="1760.5" y="72.6211"/><text fill="#000000" font-family="sans-serif" font-size="14" font-style="italic" lengthAdjust="spacing" textLength="59" x="1796" y="94.7285">&#171;factory&#187;</text><text fill="#000000" font-family="sans-serif" font-size="14" lengthAdjust="spacing" textLength="116" x="1767.5" y="113.3496">RepositoryFactory</text><rect fill="#E2E2F0" filter="url(#f1626xuiy17d7i)" height="51.2422" rx="2.5" ry="2.5" style="stroke:#181818;stroke-width:0.5;" width="130" x="1760.5" y="1673.4043"/><text fill="#000000" font-family="sans-serif" font-size="14" font-style="italic" lengthAdjust="spacing" textLength="59" x="1796" y="1695.5117">&#171;factory&#187;</text><text fill="#000000" font-family="sans-serif" font-size="14" lengthAdjust="spacing" textLength="116" x="1767.5" y="1714.1328">RepositoryFactory</text><text fill="#000000" font-family="sans-serif" font-size="14" font-style="italic" lengthAdjust="spacing" textLength="79" x="1936" y="105.7285">&#171;repository&#187;</text><text fill="#000000" font-family="sans-serif" font-size="14" lengthAdjust="spacing" textLength="144" x="1903.5" y="124.3496">JobOpeningRepository</text><path d="M1960.5,54.6211 C1960.5,44.6211 1978.5,44.6211 1978.5,44.6211 C1978.5,44.6211 1996.5,44.6211 1996.5,54.6211 L1996.5,80.6211 C1996.5,90.6211 1978.5,90.6211 1978.5,90.6211 C1978.5,90.6211 1960.5,90.6211 1960.5,80.6211 L1960.5,54.6211 " fill="#E2E2F0" filter="url(#f1626xuiy17d7i)" style="stroke:#181818;stroke-width:1.5;"/><path d="M1960.5,54.6211 C1960.5,64.6211 1978.5,64.6211 1978.5,64.6211 C1978.5,64.6211 1996.5,64.6211 1996.5,54.6211 " fill="none" style="stroke:#181818;stroke-width:1.5;"/><text fill="#000000" font-family="sans-serif" font-size="14" font-style="italic" lengthAdjust="spacing" textLength="79" x="1936" y="1688.5117">&#171;repository&#187;</text><text fill="#000000" font-family="sans-serif" font-size="14" lengthAdjust="spacing" textLength="144" x="1903.5" y="1707.1328">JobOpeningRepository</text><path d="M1960.5,1720.6465 C1960.5,1710.6465 1978.5,1710.6465 1978.5,1710.6465 C1978.5,1710.6465 1996.5,1710.6465 1996.5,1720.6465 L1996.5,1746.6465 C1996.5,1756.6465 1978.5,1756.6465 1978.5,1756.6465 C1978.5,1756.6465 1960.5,1756.6465 1960.5,1746.6465 L1960.5,1720.6465 " fill="#E2E2F0" filter="url(#f1626xuiy17d7i)" style="stroke:#181818;stroke-width:1.5;"/><path d="M1960.5,1720.6465 C1960.5,1730.6465 1978.5,1730.6465 1978.5,1730.6465 C1978.5,1730.6465 1996.5,1730.6465 1996.5,1720.6465 " fill="none" style="stroke:#181818;stroke-width:1.5;"/><rect fill="#FFFFFF" filter="url(#f1626xuiy17d7i)" height="1504.25" style="stroke:#181818;stroke-width:1.0;" width="10" x="333.5" y="161.1543"/><rect fill="#FFFFFF" filter="url(#f1626xuiy17d7i)" height="594.5293" style="stroke:#181818;stroke-width:1.0;" width="10" x="550.5" y="223.7363"/><rect fill="#FFFFFF" filter="url(#f1626xuiy17d7i)" height="496.9375" style="stroke:#181818;stroke-width:1.0;" width="10" x="550.5" y="1089.8848"/><rect fill="#FFFFFF" filter="url(#f1626xuiy17d7i)" height="93.873" style="stroke:#181818;stroke-width:1.0;" width="10" x="1005.5" y="286.3184"/><rect fill="#FFFFFF" filter="url(#f1626xuiy17d7i)" height="31.291" style="stroke:#181818;stroke-width:1.0;" width="10" x="1136.5" y="411.4824"/><rect fill="#FFFFFF" filter="url(#f1626xuiy17d7i)" height="281.6191" style="stroke:#181818;stroke-width:1.0;" width="10" x="1305.5" y="505.3555"/><rect fill="#FFFFFF" filter="url(#f1626xuiy17d7i)" height="62.582" style="stroke:#181818;stroke-width:1.0;" width="10" x="1676" y="536.6465"/><rect fill="#FFFFFF" filter="url(#f1626xuiy17d7i)" height="62.582" style="stroke:#181818;stroke-width:1.0;" width="10" x="1822" y="630.5195"/><rect fill="#FFFFFF" filter="url(#f1626xuiy17d7i)" height="31.291" style="stroke:#181818;stroke-width:1.0;" width="10" x="1973.5" y="724.3926"/><polygon fill="#181818" points="321.5,157.1543,331.5,161.1543,321.5,165.1543,325.5,161.1543" style="stroke:#181818;stroke-width:1.0;"/><line style="stroke:#181818;stroke-width:1.0;" x1="83.5" x2="327.5" y1="161.1543" y2="161.1543"/><text fill="#000000" font-family="sans-serif" font-size="13" lengthAdjust="spacing" textLength="99" x="90.5" y="155.8916">Edit Job Opening</text><polygon fill="#181818" points="543.5,188.4453,553.5,192.4453,543.5,196.4453,547.5,192.4453" style="stroke:#181818;stroke-width:1.0;"/><line style="stroke:#181818;stroke-width:1.0;" x1="343.5" x2="549.5" y1="192.4453" y2="192.4453"/><text fill="#000000" font-family="sans-serif" font-size="13" lengthAdjust="spacing" textLength="44" x="350.5" y="187.1826">create()</text><polygon fill="#181818" points="538.5,219.7363,548.5,223.7363,538.5,227.7363,542.5,223.7363" style="stroke:#181818;stroke-width:1.0;"/><line style="stroke:#181818;stroke-width:1.0;" x1="343.5" x2="544.5" y1="223.7363" y2="223.7363"/><text fill="#000000" font-family="sans-serif" font-size="13" lengthAdjust="spacing" textLength="80" x="350.5" y="218.4736">jobOpenings()</text><polygon fill="#181818" points="998.5,251.0273,1008.5,255.0273,998.5,259.0273,1002.5,255.0273" style="stroke:#181818;stroke-width:1.0;"/><line style="stroke:#181818;stroke-width:1.0;" x1="560.5" x2="1004.5" y1="255.0273" y2="255.0273"/><text fill="#000000" font-family="sans-serif" font-size="13" lengthAdjust="spacing" textLength="44" x="567.5" y="249.7646">create()</text><polygon fill="#181818" points="993.5,282.3184,1003.5,286.3184,993.5,290.3184,997.5,286.3184" style="stroke:#181818;stroke-width:1.0;"/><line style="stroke:#181818;stroke-width:1.0;" x1="560.5" x2="999.5" y1="286.3184" y2="286.3184"/><text fill="#000000" font-family="sans-serif" font-size="13" lengthAdjust="spacing" textLength="426" x="567.5" y="281.0557">ensureAuthenticatedUserHasAnyOf(BaseRoles.CUSTOMER_MANAGER)</text><polygon fill="#181818" points="1129.5,313.6094,1139.5,317.6094,1129.5,321.6094,1133.5,317.6094" style="stroke:#181818;stroke-width:1.0;"/><line style="stroke:#181818;stroke-width:1.0;" x1="1015.5" x2="1135.5" y1="317.6094" y2="317.6094"/><text fill="#000000" font-family="sans-serif" font-size="13" lengthAdjust="spacing" textLength="44" x="1022.5" y="312.3467">create()</text><polygon fill="#181818" points="993.5,344.9004,1003.5,348.9004,993.5,352.9004,997.5,348.9004" style="stroke:#181818;stroke-width:1.0;"/><line style="stroke:#181818;stroke-width:1.0;" x1="560.5" x2="999.5" y1="348.9004" y2="348.9004"/><text fill="#000000" font-family="sans-serif" font-size="13" lengthAdjust="spacing" textLength="53" x="567.5" y="343.6377">session()</text><polygon fill="#181818" points="571.5,376.1914,561.5,380.1914,571.5,384.1914,567.5,380.1914" style="stroke:#181818;stroke-width:1.0;"/><line style="stroke:#181818;stroke-width:1.0;" x1="565.5" x2="1009.5" y1="380.1914" y2="380.1914"/><text fill="#000000" font-family="sans-serif" font-size="13" lengthAdjust="spacing" textLength="45" x="577.5" y="374.9287">session</text><polygon fill="#181818" points="1124.5,407.4824,1134.5,411.4824,1124.5,415.4824,1128.5,411.4824" style="stroke:#181818;stroke-width:1.0;"/><line style="stroke:#181818;stroke-width:1.0;" x1="560.5" x2="1130.5" y1="411.4824" y2="411.4824"/><text fill="#000000" font-family="sans-serif" font-size="13" lengthAdjust="spacing" textLength="113" x="567.5" y="406.2197">authenticatedUser()</text><polygon fill="#181818" points="571.5,438.7734,561.5,442.7734,571.5,446.7734,567.5,442.7734" style="stroke:#181818;stroke-width:1.0;"/><line style="stroke:#181818;stroke-width:1.0;" x1="565.5" x2="1140.5" y1="442.7734" y2="442.7734"/><text fill="#000000" font-family="sans-serif" font-size="13" lengthAdjust="spacing" textLength="25" x="577.5" y="437.5107">user</text><polygon fill="#181818" points="1298.5,470.0645,1308.5,474.0645,1298.5,478.0645,1302.5,474.0645" style="stroke:#181818;stroke-width:1.0;"/><line style="stroke:#181818;stroke-width:1.0;" x1="560.5" x2="1304.5" y1="474.0645" y2="474.0645"/><text fill="#000000" font-family="sans-serif" font-size="13" lengthAdjust="spacing" textLength="44" x="567.5" y="468.8018">create()</text><polygon fill="#181818" points="1293.5,501.3555,1303.5,505.3555,1293.5,509.3555,1297.5,505.3555" style="stroke:#181818;stroke-width:1.0;"/><line style="stroke:#181818;stroke-width:1.0;" x1="560.5" x2="1299.5" y1="505.3555" y2="505.3555"/><text fill="#000000" font-family="sans-serif" font-size="13" lengthAdjust="spacing" textLength="43" x="567.5" y="500.0928">findAll()</text><polygon fill="#181818" points="1664,532.6465,1674,536.6465,1664,540.6465,1668,536.6465" style="stroke:#181818;stroke-width:1.0;"/><line style="stroke:#181818;stroke-width:1.0;" x1="1315.5" x2="1670" y1="536.6465" y2="536.6465"/><text fill="#000000" font-family="sans-serif" font-size="13" lengthAdjust="spacing" textLength="75" x="1322.5" y="531.3838">repositories()</text><polygon fill="#181818" points="1815,563.9375,1825,567.9375,1815,571.9375,1819,567.9375" style="stroke:#181818;stroke-width:1.0;"/><line style="stroke:#181818;stroke-width:1.0;" x1="1686" x2="1821" y1="567.9375" y2="567.9375"/><text fill="#000000" font-family="sans-serif" font-size="13" lengthAdjust="spacing" textLength="44" x="1693" y="562.6748">create()</text><polygon fill="#181818" points="1326.5,595.2285,1316.5,599.2285,1326.5,603.2285,1322.5,599.2285" style="stroke:#181818;stroke-width:1.0;"/><line style="stroke:#181818;stroke-width:1.0;" x1="1320.5" x2="1680" y1="599.2285" y2="599.2285"/><text fill="#000000" font-family="sans-serif" font-size="13" lengthAdjust="spacing" textLength="39" x="1332.5" y="593.9658">factory</text><polygon fill="#181818" points="1810,626.5195,1820,630.5195,1810,634.5195,1814,630.5195" style="stroke:#181818;stroke-width:1.0;"/><line style="stroke:#181818;stroke-width:1.0;" x1="1315.5" x2="1816" y1="630.5195" y2="630.5195"/><text fill="#000000" font-family="sans-serif" font-size="13" lengthAdjust="spacing" textLength="80" x="1322.5" y="625.2568">jobOpenings()</text><polygon fill="#181818" points="1966.5,657.8105,1976.5,661.8105,1966.5,665.8105,1970.5,661.8105" style="stroke:#181818;stroke-width:1.0;"/><line style="stroke:#181818;stroke-width:1.0;" x1="1832" x2="1972.5" y1="661.8105" y2="661.8105"/><text fill="#000000" font-family="sans-serif" font-size="13" lengthAdjust="spacing" textLength="44" x="1839" y="656.5479">create()</text><polygon fill="#181818" points="1326.5,689.1016,1316.5,693.1016,1326.5,697.1016,1322.5,693.1016" style="stroke:#181818;stroke-width:1.0;"/><line style="stroke:#181818;stroke-width:1.0;" x1="1320.5" x2="1826" y1="693.1016" y2="693.1016"/><text fill="#000000" font-family="sans-serif" font-size="13" lengthAdjust="spacing" textLength="127" x="1332.5" y="687.8389">jobOpeningRepository</text><polygon fill="#181818" points="1961.5,720.3926,1971.5,724.3926,1961.5,728.3926,1965.5,724.3926" style="stroke:#181818;stroke-width:1.0;"/><line style="stroke:#181818;stroke-width:1.0;" x1="1315.5" x2="1967.5" y1="724.3926" y2="724.3926"/><text fill="#000000" font-family="sans-serif" font-size="13" lengthAdjust="spacing" textLength="78" x="1322.5" y="719.1299">findAllActive()</text><polygon fill="#181818" points="1326.5,751.6836,1316.5,755.6836,1326.5,759.6836,1322.5,755.6836" style="stroke:#181818;stroke-width:1.0;"/><line style="stroke:#181818;stroke-width:1.0;" x1="1320.5" x2="1977.5" y1="755.6836" y2="755.6836"/><text fill="#000000" font-family="sans-serif" font-size="13" lengthAdjust="spacing" textLength="72" x="1332.5" y="750.4209">jobOpenings</text><polygon fill="#181818" points="571.5,782.9746,561.5,786.9746,571.5,790.9746,567.5,786.9746" style="stroke:#181818;stroke-width:1.0;"/><line style="stroke:#181818;stroke-width:1.0;" x1="565.5" x2="1309.5" y1="786.9746" y2="786.9746"/><text fill="#000000" font-family="sans-serif" font-size="13" lengthAdjust="spacing" textLength="72" x="577.5" y="781.7119">jobOpenings</text><polygon fill="#181818" points="354.5,814.2656,344.5,818.2656,354.5,822.2656,350.5,818.2656" style="stroke:#181818;stroke-width:1.0;"/><line style="stroke:#181818;stroke-width:1.0;" x1="348.5" x2="554.5" y1="818.2656" y2="818.2656"/><text fill="#000000" font-family="sans-serif" font-size="13" lengthAdjust="spacing" textLength="72" x="360.5" y="813.0029">jobOpenings</text><polygon fill="#181818" points="94.5,845.5566,84.5,849.5566,94.5,853.5566,90.5,849.5566" style="stroke:#181818;stroke-width:1.0;"/><line style="stroke:#181818;stroke-width:1.0;" x1="88.5" x2="332.5" y1="849.5566" y2="849.5566"/><text fill="#000000" font-family="sans-serif" font-size="13" lengthAdjust="spacing" textLength="129" x="100.5" y="844.2939">Show Job Opening list</text><polygon fill="#181818" points="321.5,876.8477,331.5,880.8477,321.5,884.8477,325.5,880.8477" style="stroke:#181818;stroke-width:1.0;"/><line style="stroke:#181818;stroke-width:1.0;" x1="83.5" x2="327.5" y1="880.8477" y2="880.8477"/><text fill="#000000" font-family="sans-serif" font-size="13" lengthAdjust="spacing" textLength="113" x="90.5" y="875.585">Select Job Opening</text><path d="M10,895.8477 L83,895.8477 L83,905.1387 L73,915.1387 L10,915.1387 L10,895.8477 " fill="#EEEEEE" style="stroke:#000000;stroke-width:1.5;"/><rect fill="none" height="730.2656" style="stroke:#000000;stroke-width:1.5;" width="2053.5" x="10" y="895.8477"/><text fill="#000000" font-family="sans-serif" font-size="13" font-weight="bold" lengthAdjust="spacing" textLength="28" x="25" y="910.876">loop</text><polygon fill="#181818" points="94.5,934.4297,84.5,938.4297,94.5,942.4297,90.5,938.4297" style="stroke:#181818;stroke-width:1.0;"/><line style="stroke:#181818;stroke-width:1.0;" x1="88.5" x2="332.5" y1="938.4297" y2="938.4297"/><text fill="#000000" font-family="sans-serif" font-size="13" lengthAdjust="spacing" textLength="200" x="100.5" y="933.167">Ask to select which section to edit</text><polygon fill="#181818" points="321.5,965.7207,331.5,969.7207,321.5,973.7207,325.5,969.7207" style="stroke:#181818;stroke-width:1.0;"/><line style="stroke:#181818;stroke-width:1.0;" x1="83.5" x2="327.5" y1="969.7207" y2="969.7207"/><text fill="#000000" font-family="sans-serif" font-size="13" lengthAdjust="spacing" textLength="44" x="90.5" y="964.458">Selects</text><polygon fill="#181818" points="94.5,997.0117,84.5,1001.0117,94.5,1005.0117,90.5,1001.0117" style="stroke:#181818;stroke-width:1.0;"/><line style="stroke:#181818;stroke-width:1.0;" x1="88.5" x2="332.5" y1="1001.0117" y2="1001.0117"/><text fill="#000000" font-family="sans-serif" font-size="13" lengthAdjust="spacing" textLength="70" x="100.5" y="995.749">Ask for data</text><polygon fill="#181818" points="321.5,1028.3027,331.5,1032.3027,321.5,1036.3027,325.5,1032.3027" style="stroke:#181818;stroke-width:1.0;"/><line style="stroke:#181818;stroke-width:1.0;" x1="83.5" x2="327.5" y1="1032.3027" y2="1032.3027"/><text fill="#000000" font-family="sans-serif" font-size="13" lengthAdjust="spacing" textLength="64" x="90.5" y="1027.04">Inputs data</text><path d="M264,1047.3027 L325,1047.3027 L325,1056.5938 L315,1066.5938 L264,1066.5938 L264,1047.3027 " fill="#EEEEEE" style="stroke:#000000;stroke-width:1.5;"/><rect fill="none" height="477.9375" style="stroke:#000000;stroke-width:1.5;" width="1347.5" x="264" y="1047.3027"/><text fill="#000000" font-family="sans-serif" font-size="13" font-weight="bold" lengthAdjust="spacing" textLength="16" x="279" y="1062.3311">alt</text><text fill="#000000" font-family="sans-serif" font-size="11" font-weight="bold" lengthAdjust="spacing" textLength="55" x="340" y="1061.1729">[Job Title]</text><polygon fill="#181818" points="538.5,1085.8848,548.5,1089.8848,538.5,1093.8848,542.5,1089.8848" style="stroke:#181818;stroke-width:1.0;"/><line style="stroke:#181818;stroke-width:1.0;" x1="343.5" x2="544.5" y1="1089.8848" y2="1089.8848"/><text fill="#000000" font-family="sans-serif" font-size="13" lengthAdjust="spacing" textLength="108" x="350.5" y="1084.6221">changeJobTitleTo()</text><polygon fill="#181818" points="1504.5,1117.1758,1514.5,1121.1758,1504.5,1125.1758,1508.5,1121.1758" style="stroke:#181818;stroke-width:1.0;"/><line style="stroke:#181818;stroke-width:1.0;" x1="560.5" x2="1510.5" y1="1121.1758" y2="1121.1758"/><text fill="#000000" font-family="sans-serif" font-size="13" lengthAdjust="spacing" textLength="91" x="567.5" y="1115.9131">updateJobTitle()</text><line style="stroke:#000000;stroke-width:1.0;stroke-dasharray:2.0,2.0;" x1="264" x2="1611.5" y1="1130.1758" y2="1130.1758"/><text fill="#000000" font-family="sans-serif" font-size="11" font-weight="bold" lengthAdjust="spacing" textLength="85" x="269" y="1142.0459">[Contract Type]</text><polygon fill="#181818" points="538.5,1165.0977,548.5,1169.0977,538.5,1173.0977,542.5,1169.0977" style="stroke:#181818;stroke-width:1.0;"/><line style="stroke:#181818;stroke-width:1.0;" x1="343.5" x2="544.5" y1="1169.0977" y2="1169.0977"/><text fill="#000000" font-family="sans-serif" font-size="13" lengthAdjust="spacing" textLength="141" x="350.5" y="1163.835">changeContractTypeTo()</text><polygon fill="#181818" points="1504.5,1196.3887,1514.5,1200.3887,1504.5,1204.3887,1508.5,1200.3887" style="stroke:#181818;stroke-width:1.0;"/><line style="stroke:#181818;stroke-width:1.0;" x1="560.5" x2="1510.5" y1="1200.3887" y2="1200.3887"/><text fill="#000000" font-family="sans-serif" font-size="13" lengthAdjust="spacing" textLength="124" x="567.5" y="1195.126">updateContractType()</text><line style="stroke:#000000;stroke-width:1.0;stroke-dasharray:2.0,2.0;" x1="264" x2="1611.5" y1="1209.3887" y2="1209.3887"/><text fill="#000000" font-family="sans-serif" font-size="11" font-weight="bold" lengthAdjust="spacing" textLength="62" x="269" y="1221.2588">[Job Mode]</text><polygon fill="#181818" points="538.5,1244.3105,548.5,1248.3105,538.5,1252.3105,542.5,1248.3105" style="stroke:#181818;stroke-width:1.0;"/><line style="stroke:#181818;stroke-width:1.0;" x1="343.5" x2="544.5" y1="1248.3105" y2="1248.3105"/><text fill="#000000" font-family="sans-serif" font-size="13" lengthAdjust="spacing" textLength="116" x="350.5" y="1243.0479">changeJobModeTo()</text><polygon fill="#181818" points="1504.5,1275.6016,1514.5,1279.6016,1504.5,1283.6016,1508.5,1279.6016" style="stroke:#181818;stroke-width:1.0;"/><line style="stroke:#181818;stroke-width:1.0;" x1="560.5" x2="1510.5" y1="1279.6016" y2="1279.6016"/><text fill="#000000" font-family="sans-serif" font-size="13" lengthAdjust="spacing" textLength="99" x="567.5" y="1274.3389">updateJobMode()</text><line style="stroke:#000000;stroke-width:1.0;stroke-dasharray:2.0,2.0;" x1="264" x2="1611.5" y1="1288.6016" y2="1288.6016"/><text fill="#000000" font-family="sans-serif" font-size="11" font-weight="bold" lengthAdjust="spacing" textLength="94" x="269" y="1300.4717">[Job Description]</text><polygon fill="#181818" points="538.5,1323.5234,548.5,1327.5234,538.5,1331.5234,542.5,1327.5234" style="stroke:#181818;stroke-width:1.0;"/><line style="stroke:#181818;stroke-width:1.0;" x1="343.5" x2="544.5" y1="1327.5234" y2="1327.5234"/><text fill="#000000" font-family="sans-serif" font-size="13" lengthAdjust="spacing" textLength="149" x="350.5" y="1322.2607">changeJobDescriptionTo()</text><polygon fill="#181818" points="1504.5,1354.8145,1514.5,1358.8145,1504.5,1362.8145,1508.5,1358.8145" style="stroke:#181818;stroke-width:1.0;"/><line style="stroke:#181818;stroke-width:1.0;" x1="560.5" x2="1510.5" y1="1358.8145" y2="1358.8145"/><text fill="#000000" font-family="sans-serif" font-size="13" lengthAdjust="spacing" textLength="132" x="567.5" y="1353.5518">updateJobDescription()</text><line style="stroke:#000000;stroke-width:1.0;stroke-dasharray:2.0,2.0;" x1="264" x2="1611.5" y1="1367.8145" y2="1367.8145"/><text fill="#000000" font-family="sans-serif" font-size="11" font-weight="bold" lengthAdjust="spacing" textLength="56" x="269" y="1379.6846">[Address]</text><polygon fill="#181818" points="538.5,1402.7363,548.5,1406.7363,538.5,1410.7363,542.5,1406.7363" style="stroke:#181818;stroke-width:1.0;"/><line style="stroke:#181818;stroke-width:1.0;" x1="343.5" x2="544.5" y1="1406.7363" y2="1406.7363"/><text fill="#000000" font-family="sans-serif" font-size="13" lengthAdjust="spacing" textLength="112" x="350.5" y="1401.4736">changeAddressTo()</text><polygon fill="#181818" points="1504.5,1434.0273,1514.5,1438.0273,1504.5,1442.0273,1508.5,1438.0273" style="stroke:#181818;stroke-width:1.0;"/><line style="stroke:#181818;stroke-width:1.0;" x1="560.5" x2="1510.5" y1="1438.0273" y2="1438.0273"/><text fill="#000000" font-family="sans-serif" font-size="13" lengthAdjust="spacing" textLength="95" x="567.5" y="1432.7646">updateAddress()</text><line style="stroke:#000000;stroke-width:1.0;stroke-dasharray:2.0,2.0;" x1="264" x2="1611.5" y1="1447.0273" y2="1447.0273"/><text fill="#000000" font-family="sans-serif" font-size="11" font-weight="bold" lengthAdjust="spacing" textLength="125" x="269" y="1458.8975">[Number of Vacancies]</text><polygon fill="#181818" points="538.5,1481.9492,548.5,1485.9492,538.5,1489.9492,542.5,1485.9492" style="stroke:#181818;stroke-width:1.0;"/><line style="stroke:#181818;stroke-width:1.0;" x1="343.5" x2="544.5" y1="1485.9492" y2="1485.9492"/><text fill="#000000" font-family="sans-serif" font-size="13" lengthAdjust="spacing" textLength="183" x="350.5" y="1480.6865">changeNumberOfVacanciesTo()</text><polygon fill="#181818" points="1504.5,1513.2402,1514.5,1517.2402,1504.5,1521.2402,1508.5,1517.2402" style="stroke:#181818;stroke-width:1.0;"/><line style="stroke:#181818;stroke-width:1.0;" x1="560.5" x2="1510.5" y1="1517.2402" y2="1517.2402"/><text fill="#000000" font-family="sans-serif" font-size="13" lengthAdjust="spacing" textLength="166" x="567.5" y="1511.9775">updateNumberOfVacancies()</text><polygon fill="#181818" points="1966.5,1551.5313,1976.5,1555.5313,1966.5,1559.5313,1970.5,1555.5313" style="stroke:#181818;stroke-width:1.0;"/><line style="stroke:#181818;stroke-width:1.0;" x1="560.5" x2="1972.5" y1="1555.5313" y2="1555.5313"/><text fill="#000000" font-family="sans-serif" font-size="13" lengthAdjust="spacing" textLength="120" x="567.5" y="1550.2686">save(theJobOpening)</text><polygon fill="#181818" points="354.5,1582.8223,344.5,1586.8223,354.5,1590.8223,350.5,1586.8223" style="stroke:#181818;stroke-width:1.0;"/><line style="stroke:#181818;stroke-width:1.0;" x1="348.5" x2="554.5" y1="1586.8223" y2="1586.8223"/><text fill="#000000" font-family="sans-serif" font-size="13" lengthAdjust="spacing" textLength="86" x="360.5" y="1581.5596">theJobOpening</text><polygon fill="#181818" points="94.5,1614.1133,84.5,1618.1133,94.5,1622.1133,90.5,1618.1133" style="stroke:#181818;stroke-width:1.0;"/><line style="stroke:#181818;stroke-width:1.0;" x1="88.5" x2="332.5" y1="1618.1133" y2="1618.1133"/><text fill="#000000" font-family="sans-serif" font-size="13" lengthAdjust="spacing" textLength="226" x="100.5" y="1612.8506">Ask if user wants to edit more sections</text><polygon fill="#181818" points="94.5,1652.4043,84.5,1656.4043,94.5,1660.4043,90.5,1656.4043" style="stroke:#181818;stroke-width:1.0;"/><line style="stroke:#181818;stroke-width:1.0;" x1="88.5" x2="332.5" y1="1656.4043" y2="1656.4043"/><text fill="#000000" font-family="sans-serif" font-size="13" lengthAdjust="spacing" textLength="164" x="100.5" y="1651.1416">(un)success of the operation</text><!--SRC=[bLRBRjim4BphAuYSd4EBeBqPGW3LJjiKS59OJgy5JQrj9ZAfabHIv-kx9FMWQVbH7mnHdDaPaRjBwXSkAghebbIKlT0rv6PN0b7031Nh4XBT0VI65lADYpKngWudIYx0x2eWbIntTf04awoaMcV6ABwi3TmpANB-3kGcIGmtg9J3dne40pBbT6q9etnwJJwGfydDfyz9GfcHYbnDQcta5XIPKO4crHMXccHsBa4Pmnclg33ahk3cXrm-LY3GvzEzHU5_cbOAD0X33PVYzlO4PoA5KR8iKGgvmIXDQLMLd0s5o6gpaOg_kxaSr2l7xx46yVqxChL_5R6Uy7KEMYF7Wjl7D6sU8dZlqQ_15hydq6eVZwbTFNVySH_AhUDKRYctmeLxY8W_GMckZTqZknpmrrXEyDOkRp-As7EefEQuJxklRYjtbjm-fkdAFo6fe8OkgORWEtkk9GMZD5NT0Ac9ImJouHRtUkpsqmOXJHIRGloL6i3P927umun0RB-tOy8K861qVMo-NpkD88lfWlOmJmvI1eEu38ZZ3q90w5g17U2-sZI3mYR8TwepiNjSZRxWsinb2VhZv2bVFCxkvhzdsKFsxMuU6NBnl93FFzHeCke28sHCj0Ute2v8WEv03b70aFX-y3QxnuJ6dnYlQ0FrKLfUh5yZCHRV8yRohYPEBq07Md5HP6LvQCpDjyPylI4lg8KnwJAJmq6k140V9AmY3DJKHUmoGlKsFJnUXWELm6gdS2AZ6updjgMAtBu0OuC1g3FtF536iTCzfS1bgDJiHMOv45iDGhk9e4SCUz6nXJX2uE980pZCkY0hzXFAjgCJpBXr-BxZcjcOv1lv5hOnF6MrQIeoR7Svb7XMxpMyf9IoEeoOwHTY95Qk8xnjEDlWWDapoxu7x9j7u-jaEDuAWRPp3n3lHLKR7SowdIkzrOKz-xkt0mrvWxSFGAG3BcIpyISxx-7w-uCDcqM5BhfeGImeTHC7ev85tc7EUchH5knyNQGTic9zknupMLoq71PtkMf361ASWcQALwRjuMTq0_X_oGUys4LM57WfqsVL6zpbiWqXrdkejqk4onNvHHaL3FlpMMtFULnrZCjT75138eZ2biAnI67_qnJR7fwO_RNeg05RTNl83dUYwGoMDL-v0vQyuHLEjys1RAM2jcFen7w3QpJ3OKQrkDOrOxWJTitH5v5uJNHNvEGV]--></g></svg>